<svg height="2048" viewBox="0 0 1854 2048" width="1854" xmlns="http://www.w3.org/2000/svg" xmlns:xlink="http://www.w3.org/1999/xlink"><mask id="a" fill="#fff"><path d="m0 0h19.534v168.46h-19.534z" fill="#fff" fill-rule="evenodd"/></mask><mask id="b" fill="#fff"><path d="m0 0h159.894v18.952h-159.894z" fill="#fff" fill-rule="evenodd"/></mask><g fill="none" fill-rule="evenodd" transform="translate(-.002)"><path d="m1018.33331 1596.58375c-.01278-25.81286-.01278-52.06896-.00534-78.18622-.00744-11.38308.40854-24.11994 7.68218-33.29209 5.83973-7.38044 14.11202-11.10004 22.89432-14.19747 144.10552-40.63515 248.37161-131.0242 307.12676-270.25392 9.23089-21.57792 17.12401-43.9916 22.64332-66.46136 5.24962-24.14665 15.4044-37.50567 41.43888-37.61782 53.39071-.26969 106.68796.13084 160.08935-.20282 11.67947-.02682 27.13461.33366 33.42294 11.02782 4.76364 7.47657 3.28435 21.11063 1.4606 31.00907-24.15733 144.53008-94.61865 278.72114-198.04362 382.46387-97.91101 99.32354-226.14751 166.76753-367.85252 191.09842-8.55533.9586-15.96247.20561-21.02785-3.34042-9.57535-6.81436-9.64744-20.71544-9.80498-31.68196.02937-26.72873.00267-53.46815-.02404-79.83373zm486.53236-655.018707c-84.82434 2.662192-116.93887-13.356356-145.92659-95.059229-40.02635-105.141917-120.55433-194.740581-220.63087-246.505137-22.61395-12.061308-48.16245-20.792872-70.24236-33.246699-55.28656-28.723374-54.77655-82.362414-53.77789-139.531461.95059-31.430961-3.57808-74.178242 27.74341-91.999177 18.86231-10.031953 49.74321-3.829071 71.69762 2.576746 84.68816 23.962402 165.30426 64.901956 235.78694 119.149802 118.1912 89.660078 204.80191 213.984733 248.19271 357.430712 31.73803 100.084552 16.614 131.245822-92.30358 127.184443zm-579.297614 250.110817c-92.551909.34221-171.296197-78.42077-171.651108-171.69096-.352693-94.327592 76.47973-173.509794 168.986245-174.158653 96.647997-.675562 174.604577 75.889841 174.999907 171.872963.3817 94.42105-78.07154 173.62461-172.335044 173.97665z" fill="#009"/><path d="m952.581165 1532.54934c0 95.14468-.181574 190.28935.248329 285.43136.048064 10.97987-2.624809 15.11602-13.925109 13.89573-9.228222-.99865-18.696762-.79038-27.973047-.04005-9.943836.8064-13.767567-1.73029-13.53526-12.80896.739647-35.10783.138851-70.2397.136181-105.36355-.005341-156.05467.141521-312.10935-.232774-468.16136-.026236-11.50591 2.208724-16.08263 14.51035-14.29093 9.145445 1.3351 18.771527 1.32442 27.930324.06676 11.43915-1.57008 13.01724 3.20424 12.982527 13.17211-.325765 96.03118-.194925 192.06504-.194925 288.09889zm.144191-1022.033577c0 92.479813-.253669 184.962297.309744 277.436769.072095 12.146754-3.308382 16.320282-14.878372 14.029247-.429902-.082776-.889177.018692-1.332431-.021361-12.662103-1.140177-29.535116 5.866436-36.843462-2.718267-6.245605-7.340388-2.200247-23.687371-2.208258-36.047741-.120159-177.405622-.050734-354.808574-.467286-532.211525-.026702-11.252236 2.963926-14.931776 14.074641-13.577983 8.325693 1.014677 16.977151 1.068081 25.294834.034713 12.62472-1.57008 16.638035 2.349778 16.44845 15.642049-.894518 63.569525-.696923 127.1524-.838443 190.732606-.064085 28.899607-.010681 57.801885-.010681 86.701493zm566.349804 524.904517c-37.754-.01068-75.51067-.24833-113.25933.16822-8.59539.09346-11.36439-2.10946-11.31753-11.11338.15074-27.348225-.27649-27.452363 26.81806-27.479065 70.17827-.069425 140.35922.192255 210.53216-.312413 10.25892-.074766 12.59267 2.643501 12.21885 12.616708-.98264 26.15464-.45928 26.15197-26.38695 26.13595-32.8702-.02136-65.73773-.00534-98.60526-.01602z" fill="#c33"/><g fill="#009"><path d="m919.657828 85.664559c0-25.2841529.277702-50.570976-.168222-75.84711823-.136181-7.61808937 2.197577-9.89043218 9.727549-9.81566649 7.404474.07476568 11.108045.92122006 11.022599 9.95718725-.461945 50.11971167-.448594 100.24743347-.061415 150.36714547.069425 8.619416-3.794359 8.990574-10.421803 8.910468-6.568699-.077436-10.491227-.453935-10.274941-9.057329.624828-24.824878.221627-49.673788.221627-74.514687zm-834.8248376 939.635651c-23.9517216.01068-47.9007729.05874-71.8524944-.02136-6.11743527-.02137-12.85969803 2.46459-12.97718696-8.86241-.11214853-10.69416 5.40716121-9.68749 12.31497656-9.67147 49.230534.10413 98.4637384.10948 147.6942724-.03472 6.664827-.01869 11.764915-.51802 11.887744 9.1321.117489 9.26026-4.0774 9.66079-11.225534 9.57001-25.276142-.31509-50.560295-.12283-75.8417776-.11215z"/><path d="m.21682331 82.7608155c0-24.4270177.35780721-48.862046-.20827584-73.27838284-.18157381-7.9118117 2.51266109-9.44717847 9.71686897-9.48295883 7.38311146-.03631512 9.86640036 1.84884825 9.80765586 9.64851142-.3604774 49.74054285-.3524668 99.48642575-.040053 149.22696875.0480636 7.727568-2.5206717 9.516604-9.83168773 9.583359-7.58871713.069425-9.72487959-2.293705-9.60205024-9.754252.41655168-25.308185.15754198-50.62705.15754198-75.9432455z" mask="url(#a)" transform="translate(918.931 1879.54)"/><path d="m80.2053862.16629039c23.1319688-.01068081 46.2692788.24031828 69.3959078-.16021218 7.278973-.12549955 10.208186 1.64751529 10.290962 9.51660374.085447 8.08537495-3.233615 9.34838095-10.285622 9.31366835-46.263938-.2242971-92.5305468-.2162865-138.7944852.1148187-7.76762074.0534041-10.75557798-1.5754198-10.81263665-10.20551614-.05508985-9.11874349 4.64446755-8.66213876 10.80996645-8.62475592 23.129299.14152076 46.2639384.05607427 69.3959076.04539345z" mask="url(#b)" transform="translate(1693.349 1006.685)"/></g><path d="m851.593017 1594.94664c.012783-25.81285.012783-52.06895.00534-78.18621.007443-11.38308-.408541-24.11995-7.682174-33.29209-5.839734-7.38044-14.112023-11.10004-22.894321-14.19747-144.105519-40.63515-248.371609-131.0242-307.126757-270.25393-9.230892-21.57791-17.124012-43.99159-22.643322-66.46135-5.249619-24.14398-15.404402-37.50567-41.438882-37.61782-53.39071-.26969-106.687963.13084-160.089355-.20282-11.679468-.02682-27.134603.33366-33.422931 11.02782-4.763643 7.47657-3.28435 21.11063-1.460601 31.00907 24.157327 144.53008 94.618645 278.72114 198.043621 382.46387 97.911006 99.32354 226.147509 166.76753 367.852515 191.09842 8.555331.9586 15.962474.20561 21.02785-3.34042 9.575348-6.81436 9.647443-20.71544 9.804985-31.68196-.029372-26.72874-.00267-53.46815.024032-79.83373z" fill="#c33"/><path d="m365.060656 939.927941c84.824341 2.662193 116.938873-13.356355 145.926598-95.059229 40.026344-105.141916 120.554328-194.74058 220.630869-246.505137 22.61395-12.061307 48.162453-20.792871 70.242362-33.246698 55.286554-28.723375 54.776546-82.362414 53.77789-139.531462-.950593-31.43096 3.578072-74.178241-27.74341-91.999176-18.862315-10.029283-49.743213-3.829072-71.697623 2.576746-84.68816 23.962402-165.304261 64.901955-235.786942 119.149801-118.191198 89.660079-204.801905 213.984734-248.192705 357.430713-31.738034 100.084551-16.614003 131.245821 92.30358 127.184442z" fill="#009"/><path d="m339.257683 1036.66486c-37.754002-.01068-75.510673-.24833-113.259334.16822-8.592713.09346-11.364384-2.10946-11.31753-11.11338.150741-27.348223-.276492-27.452361 26.818059-27.479063 70.178277-.069425 140.359224.192255 210.532161-.312414 10.25892-.074765 12.592678 2.643497 12.216179 12.616707-.979964 26.15464-.456605 26.15197-26.384276 26.13595-32.8702-.02136-65.73773-.00534-98.605259-.01602z" fill="#c33"/></g></svg>