<svg width="3021" height="1597" viewBox="0 0 3021 1597" version="1.1" xmlns="http://www.w3.org/2000/svg" xmlns:xlink="http://www.w3.org/1999/xlink"><title>github-beonux</title><defs><linearGradient x1="50%" y1="0%" x2="50%" y2="100%" id="linearGradient-1"><stop stop-color="#FFF" offset="0%"/><stop stop-color="#FFF" offset="100%"/></linearGradient><polygon id="path-2" points="0 0 522 0 522 522 0 522"/></defs><g id="github-beonux" stroke="none" stroke-width="1" fill="none" fill-rule="evenodd"><g><rect id="Rectangle" fill="url(#linearGradient-1)" x="0" y="0" width="3021" height="1597"/><g id="Elements" transform="translate(534, 537)"><g id="Text" transform="translate(533, 0)"><text id="NaluFX" font-family="SFCompactDisplay-Regular, SF Compact Display" font-size="311" font-weight="normal" letter-spacing="-2.338" fill="#C8232E"><tspan x="0" y="296">BeonUX</tspan></text><text id="Elegant,-seamless-UX" font-family="SFCompactDisplay-Medium, SF Compact Display" font-size="63" font-weight="400" letter-spacing="-.474" fill="#000"><tspan x="20" y="382">Elegant, seamless UX components in Slint</tspan>  <tspan x="20" y="457" font-family="SFCompactDisplay-Thin, SF Compact Display" font-size="52" font-weight="300" letter-spacing="-.391">Construct and manage graphical, event-driven user interfaces</tspan> <tspan x="20" y="520" font-family="SFCompactDisplay-Thin, SF Compact Display" font-size="52" font-weight="300" letter-spacing="-.391">for your Rust applications with BeonUX for Slint</tspan></text></g><g id="Logo" transform="translate(0, 1)"><g id="Fill-1-Clipped"><mask id="mask-3" fill="#fff"><use xlink:href="#path-2"/></mask><path d="M344.684355,37.977075 C344.569375,38.3038968 344.454396,38.6300609 344.338755,38.9568826 C349.04235,41.0808948 353.802776,43.0891713 358.438308,45.349962 C378.485088,55.1263365 397.03515,67.1477194 413.834084,81.8389134 C433.584164,99.1104863 450.305783,118.882212 463.694973,141.389508 C483.510473,174.699017 493.159518,210.941372 494.528041,249.463588 C495.132015,266.460289 493.754901,283.349146 490.65177,300.08018 C485.323055,328.808925 474.926642,355.619483 459.564294,380.500675 C444.388292,405.08069 425.400119,426.340541 402.852199,444.459088 C389.372479,455.290893 374.937898,464.621421 359.196249,471.889095 C354.980987,473.835557 350.755813,475.76032 346.535264,477.695604 C346.653548,477.987574 346.771831,478.280201 346.890116,478.57217 C355.306102,475.592635 363.919669,473.063548 372.089838,469.521116 C382.653434,464.940352 393.116588,460.003175 403.175332,454.419587 C430.011863,439.52454 452.643704,419.629846 471.70787,395.683745 C500.647076,359.332887 515.452368,317.651614 518.275979,271.661818 C519.662344,249.074953 517.699759,226.672215 512.630738,204.522647 C501.55568,156.126076 476.196705,116.760173 437.534443,85.681863 C420.485066,71.9763948 401.790288,60.8815547 381.747472,52.1934899 C369.619756,46.9360665 357.053266,42.6821238 344.684355,37.977075 M450.215933,259.397127 C450.087057,244.241676 448.571836,229.232865 444.749751,214.543644 C431.193378,162.442217 401.128164,122.445687 354.767548,94.8940261 C316.502429,72.1546014 274.952458,64.3437603 231.059942,71.6351062 C182.383211,79.7208195 142.951775,104.221267 113.057709,142.936157 C78.3999134,187.820546 65.3457503,238.654142 75.8875404,294.620219 C84.4667456,340.165485 107.472602,377.80456 142.649788,407.837962 C172.105081,432.985476 206.527631,447.013821 245.304211,450.26231 C269.816697,452.31596 293.786666,449.792134 317.269621,442.427796 C393.918803,418.389633 450.242346,342.387478 450.215933,259.397127 M267.211151,522 C191.091934,520.410608 130.339689,496.803823 80.4186666,447.880523 C41.7967142,410.030363 15.883325,364.727747 5.52788133,311.486717 C-7.46548786,244.68226 2.01571344,181.212435 38.5468851,123.15654 C76.2106731,63.3008242 130.531983,25.3862201 199.100205,7.64052562 C223.765999,1.25731001 248.925411,-1.10869491 274.341877,0.476094376 C328.566049,3.856759 377.53948,21.68794 420.723616,54.6081564 C457.461619,82.6148683 485.083844,117.855716 502.913631,160.386594 C518.636777,197.89152 524.322327,237.146291 521.158401,277.582091 C515.308313,352.355211 482.791518,413.772044 425.770829,462.267253 C391.296076,491.588485 351.130488,509.714266 306.495229,517.500777 C291.481123,520.119954 276.162388,521.009671 267.211151,522" id="Fill-1" fill="#202D33" fill-rule="nonzero" mask="url(#mask-3)"/></g><path d="M137.168295,383.658746 C147.869338,395.271108 160.145737,404.960024 173.673696,413.08848 C174.507629,413.589563 176.027475,413.645457 176.931454,413.244986 C198.631564,403.634981 217.274137,390.338533 230.0805,369.863188 C244.597019,346.654902 276.581867,346.240621 291.790248,368.958345 C293.797106,371.956951 295.441184,375.236347 297.713686,378.012687 C310.595379,393.747475 326.59408,405.388771 345.38203,413.218682 C346.387772,413.637566 348.041102,413.576411 348.945742,413.018776 C362.5563,404.632544 375.017062,394.816056 385.88595,383.068888 C395.02089,373.974434 402.475409,363.598995 409.50437,352.859253 C411.36387,350.01847 410.604607,349.207662 407.892672,348.033865 C387.404475,339.166937 368.68657,327.382286 351.264499,313.521626 C333.063341,299.042834 316.691287,282.708326 301.784232,264.908708 C300.472538,263.342332 299.753585,262.522318 298.40092,264.978414 C283.255977,292.467603 240.601805,293.584188 224.546935,265.641263 C222.982815,262.918844 222.228839,263.152289 220.319118,265.386118 C201.065962,287.910511 179.885904,308.386515 155.392581,325.302989 C142.351634,334.309985 128.653848,342.135951 114.068605,348.405403 C112.835547,348.93542 110.841904,349.109681 112.339944,351.456617 C119.66032,362.924967 127.527179,373.966543 137.168295,383.658746 M177.254587,278.501728 C186.559354,268.896328 196.216328,259.601966 205.094878,249.621739 C223.050878,229.437705 238.96037,207.653756 254.246064,185.41936 C256.566805,182.043956 258.921907,178.691568 261.400579,175.128752 C262.142,176.189442 262.627029,176.905557 263.134526,177.605232 C276.898392,196.593769 290.35234,215.81575 304.526565,234.496536 C316.597453,250.405584 330.023647,265.210542 345.037752,278.501071 C355.253766,286.788664 365.165151,295.486593 375.761127,303.259294 C389.127849,313.06526 403.627189,321.085214 419.064868,327.321787 C420.660047,327.966883 421.859404,328.693518 422.840696,326.26833 C429.480445,309.857541 433.891305,292.906214 435.786488,275.311108 C436.009839,274.243841 436.332312,273.18578 436.437378,272.106677 C436.696413,269.455936 436.411607,267.426617 433.845049,265.357842 C418.86068,253.277276 403.798998,241.248659 389.464859,228.425676 C377.793757,217.985137 366.797334,206.742996 356.058625,195.337117 C341.959731,180.364474 328.16547,165.089341 314.699626,149.550515 C304.6878,137.997993 295.238318,125.948334 285.851611,113.878947 C278.204799,104.047993 271.025835,93.8560221 263.630788,83.831079 C261.448817,80.8732441 260.906299,80.8239249 259.001203,83.535164 C238.944511,112.07255 217.663351,139.658405 194.220703,165.53979 C182.242327,178.763246 170.347213,192.084024 157.848124,204.810342 C147.185408,215.666478 135.930611,225.978129 124.534403,236.080668 C114.148562,245.287571 103.501704,254.260371 92.4002142,262.582816 C87.6774552,266.123933 85.3084765,269.589426 86.4067311,275.286119 C86.6472634,276.425721 86.9631272,277.555458 87.1164334,278.706896 C89.1332043,293.90575 92.7418493,308.703472 98.2602151,323.031678 C100.447473,328.711273 100.404521,328.732316 105.948658,326.382751 C132.818229,314.995941 156.266824,298.563451 177.254587,278.501728 M450.214481,259.397456 C450.242214,342.387807 393.918671,418.389305 317.26949,442.428125 C293.786533,449.792463 269.816566,452.316289 245.304079,450.262639 C206.527498,447.013492 172.10495,432.985147 142.649656,407.837633 C107.47247,377.804889 84.4666135,340.165156 75.8874083,294.61989 C65.3456181,238.653813 78.3997813,187.820875 113.057576,142.936486 C142.951643,104.220939 182.38374,79.7211483 231.060471,71.6347774 C274.952326,64.3434315 316.502958,72.1542726 354.767416,94.8943549 C401.128693,122.445358 431.193907,162.442546 444.749619,214.543973 C448.571704,229.233194 450.086925,244.242004 450.214481,259.397456" id="Fill-4" fill="#FCFCFC" fill-rule="nonzero"/><path d="M344.684355,37.977075 C357.053266,42.6821238 369.619756,46.9360665 381.747472,52.1934899 C401.790288,60.8815547 420.485066,71.9763948 437.534443,85.681863 C476.196705,116.760173 501.55568,156.126076 512.630738,204.522647 C517.699759,226.672215 519.662344,249.074953 518.275979,271.661818 C515.452368,317.651614 500.647076,359.332887 471.70787,395.683745 C452.643704,419.629846 430.011863,439.52454 403.175332,454.419587 C393.116588,460.003175 382.653434,464.940352 372.089838,469.521116 C363.919669,473.063548 355.306102,475.592635 346.890116,478.57217 C346.771831,478.280201 346.653548,477.987574 346.535264,477.695604 C350.755813,475.76032 354.980987,473.835557 359.196249,471.889095 C374.937898,464.621421 389.372479,455.290893 402.852199,444.459088 C425.400119,426.340541 444.388292,405.08069 459.564294,380.500675 C474.926642,355.619483 485.323055,328.808925 490.65177,300.08018 C493.754901,283.349146 495.132015,266.460289 494.528041,249.463588 C493.159518,210.941372 483.510473,174.699017 463.694973,141.389508 C450.305783,118.882212 433.584164,99.1104863 413.834084,81.8389134 C397.03515,67.1477194 378.485088,55.1263365 358.438308,45.349962 C353.802776,43.0891713 349.04235,41.0808948 344.338755,38.9568826 C344.454396,38.6300609 344.569375,38.3038968 344.684355,37.977075" id="Fill-6" fill="#C8232E" fill-rule="nonzero"/><path d="M86.4069954,275.286185 C85.3087408,269.589492 87.6777195,266.123998 92.4004785,262.582882 C103.501969,254.25978 114.148827,245.287636 124.534667,236.080733 C135.930215,225.978195 147.185011,215.666543 157.847728,204.810409 C170.347478,192.084089 182.242592,178.763311 194.220307,165.539198 C217.663615,139.658471 238.944115,112.072616 259.000806,83.5345722 C260.906563,80.8239907 261.449082,80.8733099 263.630392,83.8311448 C271.0261,93.8560878 278.205063,104.047401 285.851876,113.879013 C295.238582,125.9484 304.688065,137.998058 314.69923,149.550581 C328.165734,165.089407 341.959997,180.364541 356.058228,195.337182 C366.797599,206.743061 377.794021,217.984544 389.465123,228.425741 C403.799262,241.248726 418.860945,253.277341 433.845313,265.357907 C436.411211,267.426683 436.696678,269.456001 436.437643,272.106743 C436.332575,273.185847 436.010104,274.243906 435.786091,275.311173 C433.458744,274.70948 431.017076,274.376739 428.821889,273.461376 C418.232521,269.045009 407.709233,264.472792 397.162817,259.955156 C390.765583,255.919534 384.374297,251.874047 377.961204,247.86407 C377.322207,247.464256 376.570874,247.176232 375.832097,247.009205 C364.94669,244.5393 354.635519,240.503676 344.751889,235.423802 C313.414629,219.318792 287.87195,196.35513 265.939899,169.154621 C264.438554,167.29233 262.918047,165.445163 261.301723,163.463848 C260.671977,164.223363 260.250385,164.712609 259.849938,165.218295 C244.450585,184.667145 227.110454,202.182025 207.203103,217.079702 C189.580149,230.268305 170.686469,241.055394 149.098697,246.546919 C147.516735,246.949363 145.819793,247.276843 144.457216,248.100144 C137.981347,252.013455 131.603277,256.085904 125.190844,260.102457 C123.513726,260.89551 121.833304,261.680671 120.161473,262.482929 C109.276065,267.707473 98.3331678,272.780772 86.4069954,275.286185" id="Fill-8" fill="#D7DADA" fill-rule="nonzero"/><path d="M137.168295,383.658811 C127.527179,373.966608 119.66032,362.925033 112.339944,351.456682 C110.841904,349.109747 112.835547,348.935487 114.068605,348.405469 C128.653848,342.136016 142.351634,334.310051 155.392581,325.303056 C179.885904,308.38658 201.065962,287.910577 220.319118,265.386184 C222.228839,263.152354 222.982815,262.918911 224.546935,265.641328 C240.601805,293.584254 283.255977,292.467668 298.40092,264.977821 C299.753585,262.522384 300.472538,263.342397 301.784232,264.908774 C316.691287,282.708391 333.063341,299.0429 351.264499,313.521693 C368.68657,327.382351 387.404475,339.167002 407.892672,348.033932 C410.604607,349.207071 411.36387,350.018535 409.50437,352.85932 C402.475409,363.599062 395.02089,373.974499 385.88595,383.068954 C366.722663,383.479289 349.056096,377.7872 332.197029,369.446342 C312.770082,359.835022 295.603742,346.959431 280.333245,331.667202 C274.229408,325.554912 268.650909,318.919183 262.921748,312.443904 C261.560494,310.905804 260.706736,310.831496 259.367288,312.453768 C249.514715,324.380459 238.646488,335.275391 226.660844,345.127388 C212.417896,356.834444 197.10643,366.74694 180.040532,373.819308 C169.490813,378.191616 158.694613,381.79652 147.119988,382.454766 C143.790863,382.644151 140.484866,383.245846 137.168295,383.658811" id="Fill-10" fill="#29607E" fill-rule="nonzero"/><path d="M125.190646,260.102194 C131.603739,256.086298 137.98181,252.013193 144.457018,248.099881 C145.819594,247.277237 147.516536,246.949758 149.098498,246.547314 C170.686932,241.055131 189.580611,230.2687 207.202906,217.080096 C227.110256,202.18242 244.450388,184.666881 259.849741,165.218689 C260.250187,164.713003 260.67244,164.223756 261.302185,163.463584 C262.917848,165.445558 264.438356,167.292066 265.940362,169.154359 C287.871752,196.354866 313.41443,219.318529 344.751691,235.424197 C354.635321,240.503414 364.946491,244.539695 375.83256,247.008941 C376.571337,247.176626 377.32201,247.463992 377.961666,247.863806 C384.37476,251.874441 390.765386,255.919928 397.160636,259.954894 C389.389593,272.009156 377.922679,278.264142 363.974449,279.622063 C357.758937,280.227045 351.355756,278.933567 345.037819,278.501532 C330.023713,265.210344 316.597519,250.405388 304.52663,234.49634 C290.352407,215.815553 276.898457,196.594229 263.134591,177.605692 C262.627095,176.905359 262.142066,176.189245 261.399984,175.128554 C258.921972,178.692029 256.56687,182.04376 254.246131,185.419162 C238.960436,207.65356 223.050943,229.438165 205.094943,249.621542 C196.216395,259.601769 186.55942,268.896788 177.254653,278.501532 C175.94428,278.571894 174.634569,278.680396 173.323535,278.708015 C166.786212,278.844793 160.081704,279.939679 153.745265,278.873727 C141.710721,276.850326 131.953304,270.511169 125.190646,260.102194" id="Fill-12" fill="#C8232E" fill-rule="nonzero"/><path d="M137.168295,383.658811 C140.484866,383.245846 143.790863,382.644151 147.119988,382.454766 C158.694613,381.79652 169.490813,378.191616 180.040532,373.819308 C197.10643,366.74694 212.417896,356.834444 226.660844,345.127388 C238.646488,335.275391 249.514715,324.380459 259.367288,312.453768 C260.706736,310.831496 261.560494,310.905804 262.921748,312.443904 C268.650909,318.919183 274.229408,325.554912 280.333245,331.667202 C295.603742,346.959431 312.770082,359.835022 332.197029,369.446342 C349.056096,377.7872 366.722663,383.479289 385.88595,383.068954 C375.017062,394.816122 362.5563,404.63261 348.945742,413.018841 C348.041102,413.576476 346.387772,413.637633 345.38203,413.218748 C326.59408,405.388837 310.595379,393.74754 297.713686,378.012752 C295.441184,375.236412 293.797106,371.957016 291.790248,368.958411 C276.581867,346.24003 244.597019,346.654967 230.0805,369.863253 C217.274137,390.3386 198.631564,403.635047 176.931454,413.245052 C176.027475,413.645524 174.507629,413.58897 173.673696,413.088545 C160.145737,404.960089 147.869338,395.271173 137.168295,383.658811" id="Fill-14" fill="#202D33" fill-rule="nonzero"/><path d="M125.190646,260.102259 C131.953304,270.511235 141.710721,276.850391 153.745265,278.873792 C160.081704,279.939744 166.786212,278.844859 173.323535,278.70808 C174.634569,278.680461 175.94428,278.57196 177.254653,278.501597 C156.26689,298.56332 132.818296,314.99581 105.948724,326.382619 C100.404587,328.732184 100.447539,328.711142 98.2602812,323.032204 C92.7419154,308.703341 89.1332703,293.905618 87.1164996,278.706765 C86.9631933,277.555984 86.6473294,276.426247 86.4067971,275.285988 C98.3336303,272.780574 109.276528,267.707933 120.161275,262.482731 C121.833767,261.680473 123.514189,260.895312 125.190646,260.102259" id="Fill-16" fill="#202D33" fill-rule="nonzero"/><path d="M345.038082,278.501268 C351.356021,278.933305 357.758541,280.227439 363.974714,279.621801 C377.922943,278.263879 389.389858,272.008893 397.160901,259.954631 C407.709299,264.472267 418.232587,269.04514 428.821955,273.46085 C431.017142,274.376871 433.458148,274.709611 435.786158,275.311305 C433.890974,292.905754 429.480115,309.857738 422.840366,326.268527 C421.859074,328.693716 420.660377,327.966422 419.064538,327.321985 C403.626858,321.085412 389.12818,313.0648 375.761457,303.259491 C365.16482,295.486133 355.253436,286.788862 345.038082,278.501268" id="Fill-18" fill="#202D33" fill-rule="nonzero"/></g></g></g></g></svg>