<svg height="1600" viewBox="0 0 2600 1600" width="2600" xmlns="http://www.w3.org/2000/svg" xmlns:xlink="http://www.w3.org/1999/xlink"><mask id="a" fill="#fff"><path d="m0 0h137.89v356.133h-137.89z" fill="#fff" fill-rule="evenodd"/></mask><mask id="b" fill="#fff"><path d="m0 0h79.337v24.987h-79.337z" fill="#fff" fill-rule="evenodd"/></mask><g fill="none" fill-rule="evenodd" transform="translate(320 467)"><g transform="translate(592 31)"><text fill="#da131b" font-family="Kefa-Regular, Kefa" font-size="50"><tspan x="0" y="447">An advanced voice assistant built in Python, leveraging </tspan><tspan x="0" y="513">OpenAI's GPT models for natural language understanding </tspan><tspan x="0" y="579">and response generation</tspan></text><text fill="#f59f32" font-family="Helvetica" font-size="404" letter-spacing="-3.038"><tspan x="0" y="392">À</tspan> <tspan font-family="LofiCottageFree-Regular, Lofi Cottage Free" x="266.427" y="392">k</tspan> <tspan x="469.43" y="392">à</tspan> <tspan font-family="LofiCottageFree-Regular, Lofi Cottage Free" x="691.078" y="392">nd</tspan> <tspan x="1126.574" y="392">é</tspan></text></g><path d="m50 211h399v181h-399z" fill="#fff"/><g fill-rule="nonzero"><path d="m12.2136568 259.385809c.2649975-2.503239.7577615-5.006481.7588565-7.509722.0219006-30.414487.1445441-60.83007-.1368789-91.241273-.1390689-14.911038 4.4556814-28.128062 12.4296975-40.425261-.0229955 56.812401.0821274 113.625897-.1576845 170.437204-.0646068 15.312915 3.1558797 29.642489 10.5593846 42.912077 5.0174322 8.9913 10.1279422 18.096482 19.3119678 23.78955 5.7806689 8.658409 14.320816 14.13466 23.5409776 17.788778 21.8852906 8.673742 44.2074986 16.222886 66.6041686 23.500463.273758.22448.51576.547514.832224.659209 34.074081 12.062862 68.163493 24.078638 102.214578 36.202822 3.33875 1.189202 6.290955.712863 9.466545-.398591 19.03383-6.658886 38.153071-13.077956 57.139815-19.868244 13.496257-4.826897 27.301313-8.81719 40.417595-14.692032.542042-.020806 1.128978.087603 1.620648-.081033 21.653144-7.441831 43.346803-14.769778 64.923295-22.427332 10.558291-3.748289 19.959133-9.565095 27.69443-17.83258 13.438221-12.3191 23.532219-26.830451 27.849925-44.714498 3.829324-15.867001 2.879932-32.032943 2.692682-48.254733-.567226-49.210696-.183965-98.432342-.171919-147.649608 7.845897 12.558911 12.876469 25.941286 12.822813 41.025338-.110597 30.620354-.02409 61.241803-.010951 91.862156.001096 2.705821-.312083 5.477344 1.404926 7.883128-1.778332 1.596555-1.119122 3.724201-1.134453 5.647075-.066797 7.995918-.162064 15.994025-.013141 23.98775.359172 19.352485-4.856462 37.228866-13.915653 54.153667-2.129835 3.978247-5.543047 7.177928-6.927168 11.592-1.785996 2.048802-3.610316 4.06585-5.351417 6.151883-3.437301 4.118412-7.234869 7.7791-7.686021 13.866379-.67016 9.0351-2.456156 17.981503-3.409927 27.003466-.738051 6.980822-3.259909 12.509634-8.7712 17.30368-16.055346 13.966025-31.684724 28.421531-47.444409 42.724827-2.277666 2.067417-4.856464 4.003432-5.962446 7.007102-3.826037 10.389656-8.025483 20.652287-10.920744 31.36607-6.315044 18.78307-12.518396 37.603368-18.975793 56.336063-6.151883 17.849008-11.331381 36.030902-18.370241 53.573301-.590221-2.655451-.89464-5.417119-1.822132-7.949926-3.33437-9.097517-4.350557-17.754834-.897926-27.50061 12.222737-34.504429 23.612155-69.304515 35.290662-104.001671.880404-2.617122 1.79366-5.239722 3.769097-7.199829 13.196219-13.10095 25.55693-27.122823 39.847084-39.018146 13.157893-10.952501 21.161475-23.666905 19.224367-41.44802-2.741959 1.185919-5.682117 2.554707-8.692358 3.743912-19.822251 7.829471-40.17888 14.144515-60.278175 21.189944-37.446776 13.127232-74.91436 26.193145-112.342521 39.370747-4.507148 1.586701-8.585043 1.679779-13.191837-.118263-11.530678-4.499483-23.274887-8.45145-34.941346-12.600521-40.31795-14.338338-80.626043-28.702955-120.9691772-42.96902-8.4514498-2.98834-16.953271-5.822279-25.314928-10.512299-.3865459 6.836281 1.3315577 12.27749 2.0203323 17.841342.7260056 5.867176 3.2566223 10.486018 7.5600943 14.644946 15.0818628 14.574863 29.7968906 29.528606 44.8480916 44.135227 5.198113 5.043713 9.048242 10.491491 11.370803 17.547872 11.44855 34.775997 23.325256 69.410734 35.08808 104.082703 1.39726 4.119506 1.447631 8.271864.384356 12.378229-1.505668 5.811331-3.309184 11.544914-4.985676 17.311346-.303324-.444581-.726006-.849743-.892451-1.340317-15.073102-44.670697-30.16044-89.334823-45.13499-134.038371-1.795851-5.362368-4.694398-9.70088-8.932168-13.427271-14.6548008-12.886326-28.8453082-26.326738-43.8844648-38.741105-7.5732347-6.251532-11.8416659-13.387848-12.6541789-22.948566-.2299566-2.711296-.8825949-5.384266-1.2866614-8.083519-2.150641-14.362428-4.0110989-28.842023-16.3269131-38.940398-.8738349-3.223771-3.0266659-5.759864-4.6538821-8.573-7.4604465-12.890704-13.3966099-26.354112-13.9408403-41.483061-.4303472-12.009206-.1784901-24.043596-.2726627-36.065942-.0175205-2.346652.2737577-4.760099-.9121609-6.965494" fill="#da131b"/><path d="m295.654015 3.35780323c18.385571 1.46953167 36.077987 6.15297952 53.43861 12.04643667 23.609964 8.0156274 45.982545 18.5925324 66.062128 33.6086932.496049 40.9629218-.68987 81.9116079-1.143213 122.8657699-.22448 20.209893.85741 40.373794 1.20344 60.559597.202582 11.821955-4.818136 19.618576-15.181511 24.712661-10.756489 5.286811-21.868865 9.862945-32.192817 16.022495-1.554944.927491-3.199681 1.782709-5.126936 1.649116-.001096-2.361982-.337269-4.782.049276-7.07828 3.804139-22.564209 5.999676-45.336476 7.204209-68.128453 1.263667-23.943949 2.691587-47.991926.089794-71.944635-.896831-8.257629-.858505-16.681703-3.241292-24.760842-2.756193-17.2401694-8.198498-33.3940674-19.134573-47.3228625-1.356744-1.729054-2.906214-3.2369118-4.983486-4.1118417-14.919799-6.2898584-30.289655-10.9973969-46.366901-13.223595-.236527-.1894402-.431442-.4161117-.582557-.6789192.15221-4.1994441.579273-8.4032683-.226671-12.5851919.043801-7.2107795.088698-14.420464.1325-21.63014847" fill="#5e1b29"/><path d="m362.821795 371.27926c12.030011-1.942586 24.054548-3.920211 36.09332-5.805856 4.111841-.643877 7.343278-2.211963 10.06224-5.699637 6.270147-8.043003 12.950931-15.772826 19.620767-23.494985 2.286425-2.647785 3.3935-5.391935 3.228151-8.921218-.229956-4.9145-.049277-9.847615-.054752-14.773065-.009855-7.006009-.215721-7.205304-6.553762-4.826897-14.328481 5.375507-28.61754 10.856138-42.944928 16.23274-6.807806 2.553614-13.667081 4.968157-20.50555 7.447306.832222-14.180651 3.905975-28.180623 3.437301-42.468588 1.027141-.717246 1.983103-1.581226 3.093464-2.129836 12.576432-6.203351 25.302883-12.114329 37.734771-18.590342 13.961645-7.271007 21.672854-17.908137 21.486699-34.87893-.613219-56.009743-.251858-112.029342-.212437-168.0456552.002191-2.1112201-.744621-4.3877895.784044-6.3380399 8.018912 5.2200131 14.376662 12.3081492 21.20856 18.8597198-.040515 1.0928411-.109504 2.1867772-.110597 3.2796181-.058038 91.5763522-.113883 183.1527042-.14783 274.7290572-.001095 1.44763.255143 2.896357.39202 4.345083-7.735297 8.267484-17.136139 14.08429-27.69443 17.832582-21.576492 7.658645-43.270151 14.986594-64.923295 22.42733-.49167.168635-1.078606.060227-1.623932.083223-.476339-2.094795.500429-3.877507 1.142117-5.76972 2.617125-7.703543 5.810236-15.253782 6.488059-23.49389" fill="#fff"/><path d="m428.091451 58.9861474c-1.528664 1.9502504-.782947 4.22682-.784043 6.3380398-.039422 56.0163138-.401877 112.0359128.212437 168.0456548.186154 16.970793-7.52615 27.607924-21.4867 34.87893-12.432983 6.476014-25.159434 12.388087-37.73477 18.590343-1.111457.54861-2.066324 1.41259-3.100035 2.13093-2.138594-.053656-3.768001 1.24505-5.55071 2.103555-33.583508 16.158279-67.188917 32.272756-100.701247 48.579958-4.170972 2.030186-7.54586 2.086034-11.751874-.027376-19.993077-10.043626-40.116462-19.828822-60.260653-29.565839-18.991124-9.180739-38.066565-18.188465-57.104775-27.271748-9.258487-4.580516-18.53121-9.13256-27.771083-13.7514-4.9199742-2.45944-9.3471846-5.647075-13.2717759-9.505964-7.2480107-7.126463-9.4840642-15.981979-9.4544982-25.884345.1576844-51.440179.1543992-102.880358.2091509-154.3205368.0032851-3.6486434.6854895-7.4429261-.0832224-10.9174595-2.3422715-10.5801902 3.2938535-16.1560883 11.7223075-20.3051609 1.1749682 2.0334726.6471633 4.268431.667969 6.4059317.1248335 12.5304403.1631596 25.0619758.2310515 37.5924161-.0306609 48.8372904-.0865076 97.6756754-.0657019 146.5140614.0032851 7.504246 4.1107467 12.776822 10.4093655 16.149517 9.125989 4.886028 18.481934 9.342805 27.740422 13.982451.91654.579272 1.78928 1.25162 2.758383 1.724675 36.318895 17.706651 72.837085 35.022378 108.829662 53.369624 8.263103 4.212585 14.402943 3.760335 22.150287-.063514 32.326412-15.957887 64.882782-31.450386 97.354831-47.112615.379976-.340555.759953-.680015 1.139928-1.020568.093078-.279234.199295-.552992.317559-.823465 1.927255.133594 3.571992-.721625 5.126936-1.649116 10.323952-6.158454 21.436328-10.735684 32.192817-16.022494 10.363375-5.09299 15.384093-12.889611 15.181511-24.711566-.34603-20.186898-1.42792-40.3508-1.20344-60.559598.453343-40.954161 1.639262-81.9028477 1.143213-122.8668643 4.812662 2.6751607 9.319809 5.7467229 12.936698 9.9735427" fill="#1c1c23"/><path d="m362.821795 371.27926c-.677823 8.240108-3.870934 15.790347-6.488059 23.49389-.641688 1.892213-1.618456 3.674925-1.142117 5.76972-13.112998 5.872651-26.918054 9.862944-40.414311 14.689841-18.986744 6.790288-38.105985 13.209359-57.139815 19.868244-3.17559 1.111455-6.127795 1.587794-9.466545.398591-34.051085-12.124184-68.140497-24.13996-102.214578-36.201728-.316464-.112788-.558466-.435822-.833319-.660303-1.306372-8.199593-4.691113-15.805677-6.804523-23.775315-.409541-1.545088-.742431-3.110983-1.109266-4.665926 20.43985 2.443015 40.599371 6.582231 60.866206 10.05567 17.047443 2.922637 33.998524 6.428927 51.075533 9.148983 8.7931 1.400546 17.243454-2.161591 25.828498-3.551185 29.298652-4.743673 58.564451-9.6965 87.842296-14.570482" fill="#f59f32"/><path d="m449.433276 360.199515c-.136877-1.448725-.393115-2.897452-.392028-4.345082.033955-91.576353.0898-183.152705.147838-274.7290571.001093-1.0928411.070082-2.1867772.110597-3.279618 12.30377 12.3541403 22.424046 26.3015511 30.505376 41.7371091-.013141 49.215075-.396402 98.436722.170824 147.647417.18725 16.22179 1.136642 32.388828-2.692682 48.254733-4.317706 17.884047-14.411704 32.396494-27.849925 44.714498m-394.4539478-2.850583c-9.1840256-5.694162-14.2956304-14.799346-19.3119678-23.790646-7.4046-13.269585-10.6239912-27.599162-10.5593844-42.910981.2398118-56.812403.1335938-113.625898.1576844-170.4383 7.0399548-15.234072 17.5796285-27.9583325 28.8343577-40.6201767 1.7476697 2.1648765 1.1136466 4.3888845 1.1158367 6.4037417.0930778 83.933035.1741101 167.864977.1565895 251.796917-.001095 6.51434 1.2417651 13.073574-.3931161 19.559445" fill="#13827d"/><path d="m351.608129 620.764784c-11.768297 13.698839-24.706089 26.12306-39.416737 36.678065-7.910504 5.67664-16.271067 8.754774-26.324548 8.506202-21.295068-.525616-42.625178-.638404-63.911487.02628-11.255824.351506-20.539497-3.063897-29.270179-9.578236-13.928795-10.394036-26.395724-22.293737-37.581466-35.567704 2.629169.0219 5.258339.044897 7.889699.063511.438012 1.756431 1.917399 2.521858 3.220486 3.522715 5.48063 4.208205 11.160556 8.207258 16.263401 12.839239 3.621268 3.28838 6.18145 2.863506 9.691025-.006571 10.553909-8.628844 21.389241-16.911659 31.983667-25.491227 2.588654-2.095889 5.251769-2.913876 8.502916-2.896357 14.018588.076652 28.03827.091982 42.055763-.054752 4.062566-.042706 7.366274 1.183729 10.489302 3.728581 10.561576 8.605849 21.240319 17.068249 31.870878 25.589781 1.365505 1.095031 2.416734 2.763859 4.585991.983339 7.153839-5.873747 15.022733-10.858329 21.661904-17.379239 2.680636-1.032614 5.449971-1.303087 8.289385-.963627m152.863599-332.87433c-1.469532 30.418869-2.881027 60.841021-4.433781 91.256604-.744621 14.569387-1.858268 29.121255-2.576607 43.691738-.179586 3.636599-1.180443 6.388412-3.637694 9.236588-8.802956 10.204593-17.209509 20.750838-25.780317 31.155824-.950486 1.154163-1.59546 2.366362-1.681968 3.912545-2.422209 42.896747-21.439612 77.534768-52.424611 106.458919-14.511351 13.546629-27.704286 28.466428-42.494869 41.74806-.519046-6.584422 3.805232-11.648941 5.591228-17.516117 5.033858-16.538255 12.347569-31.752617 25.227325-44.002728 4.723963-4.492913 10.353518-8.754774 12.399036-15.519875 1.788187-5.916453 3.006957-12.019062 5.021813-17.850101 2.950014-8.543433 3.408832-18.025307 9.175266-25.51751 13.968216-18.150139 28.107257-36.171066 41.969256-54.402237 4.356033-5.730299 10.221018-10.93279 10.816716-18.618814.577081-7.434164 1.750954-14.78949 2.33351-22.195183 1.299802-16.516355 4.473203-32.697627 7.657552-48.907374 3.949778-20.105865 9.762202-39.87446 11.124422-60.455569.081031-1.223149.489479-2.101364 1.713723-2.47477m-370.758353 326.375211c-21.083728-19.0623-40.9421161-39.367461-59.9737557-60.442428-11.1747919-12.373852-19.1893244-26.877539-24.9064813-42.575904-4.8816487-13.403181-7.5896603-27.292554-8.876322-41.460065-.2430968-2.674066-1.0797006-4.786382-2.7682385-6.851611-8.5270066-10.430171-16.9204198-20.970938-25.4058154-31.435056-1.6326914-2.012667-2.79013918-3.991388-2.94891869-6.777146-2.32803601-40.914742-4.77981055-81.821815-7.20201925-122.727796 1.72795901 1.391785 1.85826771 3.455918 2.27437951 5.396313 1.94806024 9.065762 3.90269069 18.129333 5.8354205 27.198382 5.56823293 26.143865 10.85832793 52.322773 13.66817773 78.961593.6088372 5.768625-.0613219 11.925984 4.1446924 17.196369 12.0398664 15.088432 23.4895113 30.647729 35.5950795 45.681409 10.8353324 13.455742 20.4924112 27.386727 23.4303797 44.876564 2.2415284 13.344049 8.075854 24.334875 18.4348475 33.521089 17.669421 15.668801 23.081065 37.705206 28.698574 59.438287" fill="#da131b"/><path d="m133.713375 614.265665c-5.617509-21.733081-11.029153-43.769486-28.698574-59.438287-10.3589935-9.186214-16.1933191-20.17704-18.4348475-33.521089-2.9379685-17.489837-12.5950473-31.420822-23.4303797-44.876564-12.1055682-15.03368-23.5552131-30.592977-35.5950795-45.681409-4.2060143-5.270385-3.5358552-11.427744-4.1446924-17.196369-2.8098498-26.63882-8.0999448-52.817728-13.66817773-78.961593-1.93272981-9.069049-3.88736026-18.13262-5.8354205-27.198382-.4161118-1.940395-.5464205-4.004528-2.27437951-5.396313-.14016397-3.630028.39092609-7.438546-.53656522-10.850662-3.61141243-13.279443 2.12326522-23.030694 11.11785036-31.759188 1.1870136 2.205395.8946403 4.618842.9132559 6.965494.0941726 12.022346-.1587795 24.056736.2726627 36.065942.5431354 15.128949 6.4803938 28.592357 13.9397453 41.483061 1.6272162 2.813136 3.7800472 5.349229 4.6538821 8.573 1.9896715 21.18228 3.9946733 42.363467 5.9547788 63.549031.3219391 3.47125 2.081654 6.023766 4.3998348 8.507297 15.5417759 16.656517 31.0682212 33.329461 46.4150814 50.164467 4.2531007 4.664833 8.9661144 9.053717 11.0554335 15.409278 11.2547292 34.240526 21.9181422 68.665018 32.1512072 103.222007 2.575513 8.697832 6.460683 17.045253 7.333423 26.22271-2.079464-.751192-3.370506-2.353223-4.484152-4.147978-.133594-.648259-.369026-1.204535-1.153068-1.254907z" fill="#5e1b29"/><path d="m139.302633 619.547658c-.873835-9.177457-4.75791-17.524879-7.333423-26.22271-10.233066-34.555896-20.897573-68.981481-32.1512071-103.222007-2.0893193-6.355561-6.802333-10.744446-11.0554335-15.409278-15.3479555-16.833911-30.8733057-33.506855-46.4150814-50.164467-2.3181808-2.483531-4.0789908-5.036047-4.3998348-8.507297-1.9612008-21.184471-3.9662026-42.366751-5.9547789-63.549032 12.3169093 10.099471 14.177367 24.577973 16.3269129 38.941494.4040665 2.698157 1.0567051 5.372223 1.2866617 8.082424.813608 9.561811 5.082039 16.697033 12.6552739 22.948566 15.0391564 12.415463 29.2285689 25.854779 43.8833692 38.741105 4.23777 3.726391 7.136318 8.064903 8.932169 13.428366 14.974549 44.702452 30.062982 89.367674 45.136085 134.037276.16535.491669.589127.895735.891355 1.340317.280328 3.693542 2.317086 7.085946 1.886739 10.904319-2.62917-.022994-5.259435-.044895-7.888604-.066796-5.168547-1.622835-10.709404 1.317323-15.800203-1.28228" fill="#f59f32"/><path d="m504.471665 287.89052c-1.224245.373406-1.632692 1.251621-1.713724 2.474771-1.362219 20.581108-7.174643 40.349704-11.12442 60.455569-3.184351 16.209745-6.357751 32.391019-7.657552 48.907372-.582557 7.405695-1.75643 14.761019-2.333512 22.195185-.595697 7.686023-6.460683 12.888515-10.816717 18.618813-13.861998 18.231172-28.001039 36.252098-41.969255 54.402238-5.766433 7.492201-6.225251 16.974076-9.175265 25.517508-2.014857 5.831041-3.233627 11.933648-5.021812 17.850101-2.045519 6.765103-7.675073 11.026964-12.399037 15.519877-12.879755 12.250111-20.193468 27.464473-25.227326 44.002726-1.785995 5.867176-6.110273 10.931695-5.591228 17.516117 0 0 .054751-.106218.054751-.105122-.410636.412826-.822368.825654-1.233005 1.238479 0 0 .121549-.091982.121549-.091982-.749001.00657-1.496908.013141-2.245909.019712-.206961-.201487-.429252-.383261-.667969-.546422 5.843086-22.92557 13.840098-45.191931 20.724558-67.798847 2.538282-8.335377 5.979965-16.41123 7.414455-25.074021 3.673829-6.550475 5.134601-13.893755 7.528339-20.905239 2.563468-7.511913 3.844654-15.595432 9.569476-21.738556 4.21587-4.523573 8.317856-9.15227 12.509635-13.697744 13.438221-14.571578 26.881917-29.138776 40.365035-43.669838 1.306372-1.40821 2.017047-2.878837 2.184587-4.814852 1.792566-20.785879 3.801948-41.556428 4.262956-62.43429 1.384119-4.414071 4.797331-7.613751 6.927166-11.591999 9.059192-16.9248 14.274825-34.801182 13.915655-54.153666-.148925-7.992632-.053657-15.991834.01314-23.98775.015331-1.922875-.643878-4.05052 1.134452-5.647076 3.319039 4.243246 7.007104 8.256535 9.854185 12.797628 2.862411 4.56628.734766 9.796148.596792 14.741308" fill="#5e1b29" mask="url(#a)"/><path d="m92.0781044 92.1030621c-.0667969-12.5315353-.105123-25.0630708-.2299566-37.5935111-.0208055-2.1375007.5069994-4.3724589-.6690639-6.4059317 26.7756991-19.1181472 56.4871771-31.663918 88.3361551-39.38826712 9.148985-2.21962796 18.358196-4.18192361 27.726187-5.26709938 1.293231 11.5580528-.632928 23.128151.127023 34.6894888-1.217674.3624553-2.411258.842079-3.650833 1.0665604-19.885764 3.6114123-39.014862 9.6242279-57.474896 17.8435309-19.895619 8.8588013-37.798281 20.7617889-54.1646156 35.0552292" fill="#b9222a"/><path d="m395.61031 522.992417c-1.434491 8.662791-4.876174 16.738646-7.414455 25.074021-6.884459 22.606916-14.881471 44.873277-20.721273 67.798847-.598982 1.237386-1.225338 2.469297-.665778 3.903788-4.970347 1.799135-10.180503-.047088-15.200127.995382-2.84051-.338364-5.609843-.068986-8.293765.962534-.854123-3.805235 1.061084-7.135223 1.823227-10.661225 7.03886-17.543492 12.218358-35.725386 18.370241-53.573299 6.457397-18.73379 12.660749-37.554089 18.973604-56.332776 5.971203 6.320519 8.956258 14.433603 13.128326 21.832728m-188.239452-484.8559893c-.763236-11.560243 1.164018-23.1303411-.130309-34.68729887 3.038712-.25842733 5.950399-1.6075056 9.078902-1.0293292 10.68203.72162546 21.359678 1.35893354 31.9103 3.49314906 16.969698 3.43292238 32.666967 9.89141551 47.291106 19.07434591.80704 4.1819237.378882 8.3868429.226672 12.5840969-19.292256-2.7474328-38.696206-3.3770758-58.116582-2.4397292-10.111516.488384-20.174852 1.9710559-30.260089 3.0047654" fill="#f59f32"/><path d="m295.520855 24.9875137c-14.62414-9.1829305-30.32141-15.64251866-47.292201-19.07544102-10.549529-2.13421554-21.227177-2.77042858-31.9103-3.49314908 24.84735-3.4449677 49.695794-2.98176956 74.542049-.05256148 1.615171.1905354 3.198586.65482857 4.795141.9910031-.045991 7.21077948-.090888 14.42046398-.134689 21.63014848" fill="#f59f32" mask="url(#b)"/><path d="m366.808804 619.769509c-.55956-1.435584.066796-2.666399.665778-3.903785.235433.16316.457724.344934.664684.545325.00438.71615.01095 1.433396.016426 2.150641-.448964.402973-.897925.804848-1.346888 1.207819" fill="#5e1b29"/><path d="m368.15602 618.56158c-.005475-.717245-.012046-1.43449-.017521-2.15064.750097-.005475 1.498004-.012046 2.247005-.018615-.743525.722721-1.485958 1.446535-2.229484 2.169255m-234.490498-4.416479c.784043.050372 1.019474.606648 1.153068 1.254907-.384356-.418303-.768712-.836604-1.153068-1.254907" fill="#1c1c23"/><path d="m370.263736 616.483979c.410637-.412827.821274-.824558 1.233006-1.238481-.410637.411732-.822369.825654-1.233006 1.238481" fill="#1c1c23"/><path d="m345.138577 611.065326c-.762142 3.527095-2.678445 6.85599-1.823227 10.661224-6.635887 6.522004-14.503687 11.507681-21.658619 17.381428-2.169257 1.780521-3.220487.111693-4.585989-.983338-10.630562-8.522628-21.308209-16.985028-31.87088-25.589781-3.123029-2.544852-6.426737-3.771288-10.489303-3.728582-14.017493.146735-28.037174.131405-42.055763.054752-3.251147-.017521-5.914262.800469-8.502915 2.896358-10.594427 8.578472-21.429758 16.862382-31.983667 25.491227-3.509575 2.868981-6.069758 3.293855-9.691025.006571-5.102845-4.631982-10.781676-8.632129-16.262307-12.839239-1.303087-1.000858-2.783569-1.766286-3.221581-3.522715.428157-3.815087-1.607506-7.2064-1.887833-10.901035 1.676492-5.765339 3.478913-11.500015 4.984581-17.311346 1.06437-4.10527 1.013999-8.257627-.384356-12.378229-11.762824-34.671969-23.638435-69.306706-35.086985-104.081608-2.322561-7.056381-6.17269-12.504161-11.370803-17.548968-15.051201-14.60662-29.7673239-29.559268-44.8480915-44.134133-4.3045672-4.158926-6.8351838-8.777768-7.5611895-14.644944-.6887745-5.563852-2.4068782-11.006157-2.0203323-17.842437 8.3627523 4.690019 16.8645733 7.525054 25.316023 10.513394 40.3431343 14.266065 80.6512273 28.630682 120.9680813 42.969018 11.667555 4.149073 23.411765 8.10104 34.94244 12.600523 4.6057 1.798042 8.683596 1.703868 13.190746.117168 37.429255-13.177603 74.896838-26.243513 112.342519-39.369652 20.099297-7.045428 40.455923-13.360472 60.27927-21.19104 3.010241-1.189204 5.950399-2.557993 8.691263-3.743911 1.937108 17.781114-6.065379 30.495519-19.223272 41.448019-14.290154 11.895324-26.65196 25.918292-39.848179 39.019242-1.974341 1.960107-2.887598 4.582707-3.769097 7.199829-11.677412 34.697156-23.066829 69.497243-35.289567 104.001671-3.452631 9.744681-2.437539 18.403091.896831 27.500611.928587 2.532806 1.233004 5.293379 1.823227 7.949923" fill="#13827d"/><path d="m395.61031 522.992417c-4.172068-7.399125-7.157123-15.512209-13.128326-21.832728 2.89745-10.718165 7.096896-20.980796 10.922933-31.37045 1.105982-3.003672 3.68478-4.939687 5.962446-7.006008 15.759685-14.304392 31.389063-28.758802 47.444409-42.725923 5.511291-4.794046 8.033149-10.321763 8.7712-17.30368.953771-9.021963 2.739767-17.968366 3.409927-27.002373.451152-6.087277 4.24872-9.749061 7.686021-13.867472 1.741101-2.086033 3.565421-4.103081 5.351417-6.15079-.461007 20.876767-2.471485 41.647317-4.262954 62.434292-.16754 1.93492-.878217 3.405546-2.184587 4.813756-13.483118 14.531061-26.926814 29.098259-40.365037 43.670933-4.191777 4.54438-8.293765 9.173075-12.509634 13.69665-5.724821 6.143122-7.006008 14.226643-9.57057 21.738556-2.392644 7.011484-3.853416 14.354762-7.527245 20.905237" fill="#f59f32"/><path d="m362.713606 274.822572c-.118263.269378-.224481.54423-.316463.824558-.379977.340555-.761047.680015-1.141024 1.019474-32.472049 15.66223-65.028419 31.154729-97.354831 47.111523-7.747344 3.824942-13.887184 4.276096-22.150286.064607-35.992577-18.348341-72.510768-35.662974-108.829663-53.37072-.969102-.471959-1.841842-1.144308-2.756193-1.724673.536565-10.394036.087603-20.754124-.768712-31.117498-2.679541-32.399779-10.22321-63.568743-24.744416-92.706425-2.493386-5.003197-1.127883-6.896505 1.725768-9.988873 27.464474-29.778275 61.711571-47.2976764 100.850171-56.0393094.01971 41.7403934.029566 83.4796924.087602 125.2200864.003285 2.30504-.672349 4.776525 1.023854 6.854895-2.950013 7.791145.441298 13.310102 8.485397 13.341858 23.153335.093078 46.306672.099649 69.460009-.003285 8.230254-.03723 11.392702-5.276955 8.355087-13.310102 1.57575-1.413686 1.257096-3.306994 1.256001-5.09737-.014237-42.730302-.038327-85.460604-.061323-128.190906h-.00657c7.734204 1.1169317 15.266924 3.0978429 22.799643 5.1378857 16.945605 4.5881801 32.707482 11.9763547 48.186841 20.0631593 2.383883 8.078044 2.345557 16.502118 3.242388 24.759747 2.601792 23.952709 1.173872 48.000686-.089794 71.944635-1.204533 22.791977-3.400071 45.564244-7.203114 68.128453-.387641 2.29628-.051467 4.715203-.050372 7.07828" fill="#b9222a"/><path d="m207.228285 78.8952356c-39.1386 8.741633-73.385696 26.2610344-100.851265 56.0393094-2.852556 3.092368-4.21806 4.985676-1.724674 9.988873 14.521207 29.137682 22.064876 60.306646 24.743322 92.706425.857409 10.363374 1.306372 20.723462.769806 31.117498-9.260677-4.638552-18.616622-9.096425-27.743706-13.982453-6.2975239-3.371599-10.4049855-8.644175-10.4082704-16.148422-.0208057-48.838386.035041-97.677866.0657018-146.5151558 16.3652396-14.2923454 34.2679016-26.194238 54.1635206-35.0530393 18.460034-8.2193031 37.589132-14.2321186 57.474896-17.8435309 1.239575-.2255765 2.433159-.7041051 3.650833-1.0676555 10.087427-1.0337092 20.150763-2.5163813 30.262279-3.0047651 19.420376-.9384416 38.82542-.3087987 58.116582 2.4386341.15221.2649976.347125.4916691.579272.6778242-.443488 13.1491331.582557 26.3190715-.499333 39.4638244 0 0 .006568-.0021901.006568-.0021901-29.614018-5.501436-59.151387-5.3130906-88.605532 1.1848236" fill="#f5f1ef"/><path d="m295.827578 77.712383c1.081889-13.1436577.054749-26.3146913.499333-39.4638242 16.081626 2.2305783 31.451482 6.9370218 46.370185 13.2268801 2.077275.8749299 3.627838 2.3838827 4.98458 4.1118417 10.936077 13.92989 16.378382 30.0837882 19.133479 47.3228624-15.480455-8.0857097-31.242331-15.4738841-48.187937-20.0620644-7.531624-2.0389477-15.065438-4.020954-22.79964-5.1356956" fill="#f5f1ef"/><path d="m361.25601 276.666385c.381072-.339459.761046-.678919 1.141023-1.019474-.38107.33946-.761047.678919-1.141023 1.019474" fill="#5e1b29"/><path d="m207.228285 78.8952356c29.454145-6.4979142 58.991514-6.6862596 88.605532-1.1848236.022997 42.730302.048182 85.460604.062418 128.190906.001096 1.790376.319748 3.683684-1.258191 5.09737-28.766466-.009857-57.532932-.019712-86.298302-.028471-1.696203-2.07837-1.020569-4.549855-1.023854-6.854895-.058037-41.740394-.067892-83.479693-.087603-125.2200864" fill="#f59f32"/><path d="m208.339742 210.969669c28.76537.009855 57.531836.01971 86.298302.028471 3.039806 8.033147-.122643 13.273965-8.353992 13.310103-23.152242.102933-46.305579.096362-69.458914.003284-8.045194-.031756-11.43541-5.550713-8.485396-13.341858" fill="#f59f32"/><path d="m209.183792 3.35780323c-18.385572 1.46953167-36.076894 6.15297952-53.438611 12.04643667-23.61106 8.0156274-45.982544 18.5925324-66.0621285 33.6086932-.496049 40.9629218.6898696 81.9116079 1.1432124 122.8657699.2244814 20.209893-.8574093 40.373794-1.2034393 60.559597-.2025806 11.821955 4.8181367 19.618576 15.1815104 24.712661 10.75649 5.286811 21.868866 9.862945 32.192818 16.022495 1.554944.927491 3.199681 1.782709 5.126936 1.649116.001095-2.361982.337269-4.782-.049277-7.07828-3.804138-22.564209-5.999675-45.336476-7.204209-68.128453-1.263666-23.943949-2.691586-47.991926-.089793-71.944635.896831-8.257629.858505-16.681703 3.241292-24.760842 2.756194-17.2401694 8.198498-33.3940674 19.134573-47.3228625 1.356743-1.729054 2.906212-3.2369118 4.983486-4.1118417 14.919798-6.2898584 30.289654-10.9973969 46.3669-13.223595.236527-.1894402.431443-.4161117.582557-.6789192-.152209-4.1994441-.579271-8.4032683.226671-12.5851919-.043801-7.2107795-.088697-14.420464-.132498-21.63014847" fill="#5e1b29"/><path d="m136.949082 366.717906c-12.030011-1.887831-24.054547-3.809612-36.093318-5.642693-4.1118419-.625263-7.3432785-2.149548-10.0622405-5.537572-6.2701479-7.816332-12.9509324-15.328245-19.6207666-22.832494-2.2864248-2.573323-3.3935011-5.239723-3.2281515-8.66936.2299566-4.776527.0492764-9.570573.0547516-14.356952.0098551-6.807809.2157211-7.000534 6.5537607-4.690018 14.3284815 5.223297 28.6175413 10.549528 42.9460233 15.773922 6.806713 2.482434 13.665987 4.829086 20.504456 7.238156-.832223-13.780967-3.905975-27.385632-3.437302-41.270627-1.027139-.69644-1.983101-1.536328-3.093463-2.069608-12.576432-6.028145-25.302882-11.771583-37.73477-18.064727-13.9616461-7.067331-21.6728547-17.403328-21.4866995-33.895591.6132174-54.428519.2518571-108.867989.212436-163.3030774-.0021899-2.0509932.7446212-4.2640508-.7840422-6.1595495-8.0189125 5.0721838-14.3766627 11.9610241-21.2085615 18.3275347.0405162 1.06218.1095031 2.1243603.1105981 3.1876353.0580366 88.9920789.1138833 177.9830619.1478293 266.9751419.001095 1.407115-.2551423 2.815325-.3920211 4.22244 7.7352994 8.034242 17.1361409 13.687888 27.6944305 17.329962 21.5764917 7.441831 43.2701524 14.562817 64.9232964 21.794402.491669.164255 1.078605.059131 1.623931.079939.476338-2.034569-.500429-3.766908-1.142118-5.605465-2.617124-7.486728-5.810234-14.823435-6.488059-22.831399" fill="#fff"/><path d="m368.833953 365.803775c9.348281-2.391549 18.941848-3.300423 28.471904-4.518097 5.085324-.649355 9.008819-2.397024 12.339905-6.63589 6.507769-8.281719 13.600285-16.109001 20.535117-24.051261 1.752049-2.006097 2.711296-4.03519 2.620409-6.807809-.196009-5.995294-.200391-12.005921.001095-18.001215.12593-3.736246-.872739-4.231199-4.351653-2.886502-13.175414 5.089706-26.471282 9.86623-39.731012 14.735833-.999764.366836-2.070704.543135-3.109887.807037-.264998.245288-.48729.598983-.800469.719437-42.290099 16.241499-84.596625 32.441389-126.865918 48.736547-3.298233 1.27133-6.252626 1.21001-9.481875-.084317-11.31386-4.535618-22.682473-8.935455-34.035755-13.37252-23.382197-9.139129-46.767681-18.269498-70.150974-27.402057-6.836279-2.478055-13.695553-4.8926-20.502266-7.446211-14.328482-5.376602-28.617542-10.857233-42.9460232-16.23274-6.3380398-2.377312-6.5439056-2.179112-6.5526659 4.826897-.0065703 4.92545.1741099 9.858564-.0547515 14.773064-.1653498 3.53038.9406315 6.273432 3.2281515 8.921217 6.6698341 7.722158 13.3506187 15.451983 19.6207664 23.494987 2.7178673 3.487673 5.9503987 5.055757 10.0611457 5.699636 12.038771 1.885643 24.063307 3.864364 36.093318 5.805854 29.278941 4.873985 58.543646 9.827905 87.843392 14.570485 8.585043 1.389594 17.034302 4.952824 25.827402 3.551184 17.078104-2.720055 34.02809-6.226345 51.075533-9.147889 20.267931-3.474532 40.427452-7.613751 60.865111-10.05567" fill="#1c1c23"/></g></g></svg>