<svg height="4096" viewBox="0 0 4096 4096" width="4096" xmlns="http://www.w3.org/2000/svg" xmlns:xlink="http://www.w3.org/1999/xlink"><mask id="a" fill="#fff"><path d="m0 0h1610.416v846.254h-1610.416z" fill="#fff" fill-rule="evenodd"/></mask><mask id="b" fill="#fff"><path d="m0 0h345.669v690.64h-345.669z" fill="#fff" fill-rule="evenodd"/></mask><g fill="none" fill-rule="evenodd"><path d="m1720.72773 2277.32603c.00214.14878.00321.29756.00535.44634 46.21215 0 92.42431-.00208 138.63753.00312 8.59568 0 10.42464-1.35669 11.12438-8.87155.38566-4.13249.54164-8.29828.54484-12.44846.04701-67.85947.06517-135.7179.03846-203.57737-.00107-4.13874-.27455-8.29412-.72752-12.40997-.33438-3.04215-2.28727-4.9721-5.53815-5.19579-2.82784-.19456-5.67169-.23201-8.50807-.22318-87.45344.32202-174.90688.64975-262.36032 1.00556-4.96446.01977-9.94816.07908-14.88592.51292-3.90363.3423-6.5413 2.70818-7.05623 6.56393-.45724 3.41877-.48501 6.9031-.52668 10.36141-.82794 68.5451-2.19859 137.09123.18909 205.63425.16773 4.83477.4316 9.67578.90914 14.48974.29593 2.98181 2.0063 5.17603 5.3074 5.44445 3.52865.28611 7.084.45778 10.62333.40368 44.07553-.68355 88.14892-1.41808 132.22337-2.13908m542.87133.45986c.00107.18103.0032.3631.00427.54413 46.25382 0 92.50871-.02496 138.76254.02185 8.63626.00833 10.2334-1.15485 10.77503-8.90171.14529-2.07249.14102-4.15643.13702-6.23516-.24385-70.6977-.48529-141.3954-.77053-212.09206-.01389-3.44895-.25426-6.9187-.71791-10.33644-.4113-3.04215-2.52656-4.88783-5.63002-5.22076-2.80967-.30171-5.66422-.28299-8.49953-.2757-87.53997.22056-175.07887.45049-262.61885.70851-5.68558.01665-11.39466-.00416-17.04605.49107-4.82238.42137-7.55407 3.34179-7.71431 8.22858-.06837 2.07769-.18697 4.15538-.18697 6.23307.02138 69.31084.03527 138.62168.13035 207.93252.00747 4.83269.53095 9.67682 1.01917 14.49598.41558 4.10128 3.24448 5.97818 7.1887 6.12279 4.97408.18415 9.96098.12226 14.9404.05723 43.4089-.57743 86.81779-1.17879 130.22669-1.7739m-935.92198-241.76861c-4.34698-.22473-8.54332-.62737-12.74074-.63153-134.58648-.15294-269.1719-.27883-403.758383-.36414-12.102956-.00728-24.206979.37143-36.311002.42033-4.885411.0208-8.016646-2.23584-8.220694-7.35256-.138881-3.46247-.293787-6.92806-.305539-10.39262-.20939-63.10793-.398482-126.21483-.596712-189.32276 0-2.77164-.038936-5.54745.111697-8.31181.211526-3.86719 2.113129-6.53479 6.293451-6.88229 3.532922-.29443 7.098962-.30275 10.651113-.3038 134.583279-.04785 269.166559-.04993 403.749839-.1623 12.09655-.0104 24.1963-.62424 36.28643-1.1382 4.99972-.21329 7.68547-3.13371 7.87777-7.9768.19122-4.84829.21473-9.70387.21793-14.55737.18055-281.55895.35255-563.11791.50425-844.677909.0032-6.241399-.07799-12.493201-.4316-18.723155-.49463-8.710283-.67091-11.651512 12.05381-11.731623 59.81503-.380789 119.62899-.848972 179.44295-1.320276 13.52809-.107162 27.05511-.477561 40.5832-.477561 4.99544 0 7.84571 2.798708 7.98993 7.755204.11966 4.157465.02885 8.321171-.00961 12.481757-2.27445 247.574083-1.40163 495.152323-1.0384 742.729523.05448 37.44319 1.06404 74.88638 1.67084 112.32852.07799 4.85038.23396 9.71012.6239 14.54489.85999 10.68393 1.53731 11.26656 12.98752 11.65775 4.26686.14566 8.54439.05306 12.81659.04786 257.77938-.32253 515.55875-.64505 773.33706-.98318 9.25589-.01145 18.51499-.07283 27.76768-.30484 13.37532-.33501 13.91268-.73869 13.90841-14.57714-.03526-110.26644-.13354-220.53183-.28311-330.79723-.03739-27.04537-.41878-54.08969-.48394-81.13506-.03419-14.15265.12072-14.15265 13.96075-14.10687 66.22279.21953 132.44665.43489 198.66944.66066 5.69626.01977 11.40107-.06139 17.08665.20808 6.54237.31108 8.81254 2.52715 8.8713 8.95374.21046 22.87958.35468 45.76123.33972 68.64185-.04487 69.3483-.30447 138.69763-.23075 208.04696.04914 46.46247.42091 92.92599.86213 139.38638.15597 16.36039-1.15378 16.31877 15.83031 16.23554 130.31108-.63465 260.62537-1.09555 390.93752-1.61575 30.42565-.12069 25.9665-2.51987 25.97397 25.2954.01389 60.33421-.0235 120.66738-.04914 181.00159-.00213 4.15435.29806 8.36175-.30767 12.43702-.22435 1.51275-2.4379 3.41566-4.11943 3.89736-2.65263.76054-5.62362.64193-8.45466.6024-125.32632-1.79158-250.6505-.32357-375.97468.17791-11.39252.04474-22.79146-.15398-34.17757.14045-7.47822.19248-9.85522 2.72795-10.42677 10.24385-.31409 4.14185-.16025 8.31805-.23183 12.47863-3.02974 174.74147-1.87275 349.49958-1.7969 524.25145.1111 253.8186.78841 507.6372 1.31723 761.45684.05342 25.65538.74889 51.31181 1.13669 76.96719.08333 5.54121.344 11.09385.11538 16.62466-.16025 3.89736-2.6505 6.24764-6.72078 6.59097-2.11313.17791-4.25831-.00416-6.38853-.01873-69.78242-.46818-139.56484-1.15277-209.33551.89787-2.84065.07927-5.70801.16127-8.5273-.10404-3.96025-.37246-6.64813-2.61454-6.89384-6.52335-.38994-6.21746-.41558-12.46198-.42092-18.69506-.23824-279.47918-.45404-558.95733-.68372-838.43651-.01603-20.1121-.01496-40.22316-.20832-60.33317-.10256-10.79214-.89098-11.45904-12.58584-11.3987-37.73827.19248-75.47761.62113-113.21695.69291-53.40727.10092-106.81347-.04369-160.21967-.05306-3.54681 0-7.11926.04474-10.63081.46194-3.07355.36519-5.23475 2.40022-5.48153 5.39347-.45404 5.51311-.63565 11.06056-.62604 16.5924.16559 95.70179.37391 191.40254.58971 287.10329.00962 4.15226.26815 8.30556.24358 12.45678-.01816 3.16284-1.88131 5.18851-5.03711 5.43925-4.24549.33709-8.52944.27258-12.79736.28819-69.06879.25074-138.13757.49003-207.20742.71476-2.83638.00936-5.68986.00312-8.50701-.27155-3.07781-.29963-5.34265-2.07353-5.77211-5.05013-.49249-3.40941-.48181-6.90518-.47647-10.36245.14102-97.08553.39101-194.17106.41771-291.25554.00748-25.34847.97751-22.22413-22.97948-22.19708-139.57125.15919-279.14356.04578-418.71481.11653-29.90645.01561-59.81289.4609-89.71934.60136-7.03807.03329-8.70037-1.48675-8.73242-8.51573-.07478-16.6413.27883-33.28469.2596-49.92807-.15277-128.98855-.30126-257.97814-.64526-386.96773-.02564-9.52389 1.54479-19.38798-3.00838-29.06584" fill="#11caf0"/><path d="m1779.6833 3955.96806c-1.82041-3.42814-4.08204-3.09417-6.03171-3.10977-64.87137-.51188-129.44468-5.82003-193.85454-12.60348-45.26883-4.76819-90.36353-11.08866-135.14094-19.54508-41.92607-7.91853-83.79339-15.99001-125.30922-25.76567-54.04185-12.72625-106.80386-29.62349-159.03384-47.88262-161.578562-56.48471-308.223133-138.94733-442.748723-242.53331-87.449166-67.33511-166.702209-142.94561-240.075239-224.35741-54.527931-60.50068-102.792324-125.8226-148.336783-193.00685-6.260334-9.23464-12.798429-18.29034-19.069446-27.51875-1.585381-2.33259.319427-5.83668 3.053248-6.05932 2.11313-.17063 4.240147-.22494 6.361823-.22494 71.921189.13338 143.843446.28008 215.765702.42469 1.424066.00208 2.860951.1467 4.27006.00833 11.1169-1.08619 18.492555 3.40317 24.581958 12.70752 73.484135 112.29003 168.911487 205.23994 272.190963 291.09949 35.776844 29.74105 74.729792 55.48695 113.895335 80.7397 75.534232 48.70038 155.085342 90.32288 238.387302 125.02564 89.81121 37.41302 182.15113 67.36528 277.17465 89.65287 59.56077 13.96849 119.71553 24.47972 180.23458 33.43242 44.3458 6.56184 88.76212 12.3902 133.5406 15.07653 31.9747 1.91851 63.99749 3.09521 95.99356 4.68079 6.38746.31628 12.76958.87394 19.13034 1.5346 2.98167.309 4.37048 3.6487 2.77228 6.20914-1.10357 1.76661-2.23706 3.53738-3.55643 5.15105-18.63571 22.77138-37.0898 45.68841-56.05242 68.19865-10.37335 12.31425-21.63981 23.91478-32.46613 35.86905-3.29041 3.63206-6.91521 7.07997-9.59775 11.10946-10.2772 15.43963-8.61597 15.6061 9.29435 17.56102 103.46536 11.29569 207.29609 14.5813 311.31377 13.20796 65.5583-.86562 130.7961-6.23307 195.87045-13.96745 69.28993-8.2369 137.98801-19.56901 206.0248-34.81617 125.18637-28.05144 246.69452-66.74831 363.4914-119.01313 64.04663-28.66008 126.90743-59.59969 187.68181-94.47203 85.41616-49.01251 166.35821-104.2352 243.33147-165.06152 34.33354-27.13172 66.34991-56.68759 97.96887-86.69916 5.09694-4.83893 10.3381-9.53428 15.53546-14.27229 4.97087-4.53201 10.82845-5.83356 17.62721-5.75657 49.12119.55558 98.24557.83337 147.36889 1.19751 4.2722.03225 8.55081-.08219 12.81232.13525 2.70605.13733 5.89817-.36934 7.4686 2.70194 2.13022 4.1637-1.5106 6.22267-3.74124 8.51988-20.54373 21.16083-40.91438 42.48916-61.85017 63.27753-45.9109 45.59061-95.36967 87.40766-145.79526 128.12813-68.04961 54.95219-140.3821 104.19983-214.92921 150.31689-81.81594 50.61265-167.35816 94.53653-255.98461 132.81308-128.51417 55.50361-261.12 98.95826-398.32493 128.89908-66.70353 14.55633-133.95511 26.51788-201.8231 34.30532-72.83888 8.35759-146.01213 13.52112-219.40973 14.30559-69.78563.74493-139.59369 1.06122-209.22654-4.47167-43.97724-3.49472-87.88504-7.83322-131.81207-11.91681-19.13354-1.7791-38.24358-3.80581-57.34722-5.86373-5.63216-.6076-11.23761-1.55957-16.79606-2.64055-2.71566-.52749-4.02435-4.77235-1.99989-6.61595 30.40535-27.67793 49.60192-64.16291 77.67407-93.6782 4.1878-4.403 8.79545-8.87674 9.49733-14.43668" fill="#11caf0"/><path d="m1516.85218 2.64023947c15.07715-.55245583 42.81705-1.59702391 70.55909-2.55835948 4.26258-.14773772 8.55614-.10924268 12.8059.21640454 3.35452.25593999 7.62671-.88850711 9.56677 2.74875386 2.19646 4.12104998-1.84391 6.27573176-4.31813 8.37943361-12.39567 10.5403578-22.76368 22.8275581-33.34215 35.029445-27.54333 31.7750537-55.70201 63.04447-83.3447 94.739412-7.43441 8.52301-16.498 12.522332-27.69609 13.561698-105.13515 9.759013-205.31864 37.130026-300.90304 80.692885-93.86867 42.779433-176.021127 101.556155-249.447573 172.47338-42.066022 40.628913-79.184671 85.358067-116.408015 130.046646-2.691089 3.229422-5.442003 6.416187-8.027328 9.724679-4.544618 5.815872-10.303911 8.964142-17.934894 9.912993-54.510838 6.778248-107.736492 19.565884-160.297652 34.686111-69.088014 19.873844-136.108836 44.941397-198.407699 80.795885-66.5529 38.303604-127.50248 83.54984-180.573228 138.522837-9.752659 10.103387-19.293792 20.40237-29.159692 30.398596-5.423842 5.497507-8.644816 5.728477-14.489574.251778-18.978639-17.784708-37.875017-35.664093-56.393211-53.901378-20.522356-20.209895-40.7530614-40.705903-60.8171094-61.348607-21.5287096-22.149213-42.7444026-44.586619-64.03380932-66.956398-5.51571694-5.796105-5.58943077-8.705081-.19977515-14.147447 12.34866787-12.469272 24.80950887-24.833462 37.30026287-37.168521 40.5287146-40.023396 84.023075-76.898522 127.387101-113.921386 61.148287-52.208636 126.884993-98.504643 194.261564-142.617877 98.262663-64.334573 201.418214-120.170067 309.61515-167.104883 70.912698-30.762738 143.412914-57.420032 217.091482-81.235977 71.691501-23.1740131 144.42675-42.4881186 218.4835-56.6823839 55.83128-10.7016208 111.88904-20.3347442 168.34635-27.7278725 75.59512-9.89842703 151.42956-15.91717839 240.3765-16.80984713" fill="#e82440" mask="url(#a)" transform="translate(537.898)"/><path d="m3759.96446 974.641326c-19.91021.918678-39.84072 1.552286-59.72422 2.863198-11.78674.776143-20.37921-2.48345-26.60963-12.965545-7.47287-12.572272-16.1946-24.446431-24.48901-36.548439-33.23105-48.487102-70.11787-94.22233-109.55049-138.050492-19.69655-21.892233-38.69015-44.366053-59.57146-65.256374-28.31465-28.325066-57.15385-56.065423-87.96943-81.840453-34.00344-28.441591-67.45563-57.482457-102.8639-84.333267-90.11034-68.331815-185.76418-128.313328-287.12496-179.365033-70.81868-35.669295-143.69708-67.121822-219.26337-92.321507-11.43205-3.81309-22.73056-8.021534-34.0045-12.264311-3.44532-1.296347-4.48586-5.728478-2.40265-8.70196 1.19438-1.707307 2.41653-3.48016 3.972-4.850375 27.01345-23.801378 49.15858-51.98703 73.95526-77.780787 20.62599-21.454221 14.26951-20.153713 43.0179-9.338688 58.47536 21.997314 114.72114 48.836679 170.34303 76.898522 108.99817 54.990683 211.65375 119.729975 309.06496 192.328498 49.17888 36.652479 96.09078 75.917418 141.59999 116.95313 50.22688 45.289933 97.99558 92.764721 143.34881 142.553372 63.8319 70.073455 123.12559 143.612505 175.35343 222.413931 7.3169 11.040793 15.72241 21.395958 23.52753 32.133993 2.03194 2.794532 4.23054 5.657731 5.36936 8.824728.92409 2.572925.15918 5.737842-3.48485 6.315267-3.48057.552456-7.05195.770941-10.58381.782386-20.63666.068667-41.2744.033293-61.91106.033293zm-3253.27519-66.219999c6.308408 5.332083 7.314762 11.608855 8.934329 17.538132 11.520723 42.172876 22.978415 84.361361 34.44038 126.548801 1.092888 4.02117 2.057577 8.07355 3.116279 12.10305 2.612033 9.93172.727523 18.48386-5.085186 27.50106-48.499422 75.23491-92.352737 152.95432-129.016283 234.37028-45.913029 101.95671-79.894033 207.62352-102.402389 316.75903-13.894521 67.36528-23.402536 135.40682-29.255841 203.82811-3.247681 37.96547-4.25724 76.19001-4.449537 114.30738-.286309 56.87174 2.401575 113.70186 7.300873 170.39361 1.132415 13.10704 3.373743 26.12564 5.208042 39.17026.379252 2.69153 1.722126 6.0843-.847175 7.5804-4.053192 2.36172-6.213327-1.72291-8.54012-4.02117-3.996571-3.9473-7.726063-8.14846-11.620076-12.1946-34.080358-35.40087-68.125461-70.834-102.300899-106.14747-6.521002-6.73768-11.550635-13.5076-11.205569-23.62972 1.677257-49.19249-.329041-98.43597 3.717741-147.62639 6.373575-77.47074 15.554685-154.54614 29.252636-231.12629 21.940011-122.65768 55.859053-242.15565 101.629996-358.2931 35.23307-89.399 77.783039-175.57795 126.763204-258.72307 23.395058-39.7144 48.535745-78.331166 74.086666-116.720084 2.657971-3.99308 4.563847-8.725889 10.272929-11.618219m452.585354 362.651983c-100.465531 4.64854-186.685065-80.5826-188.96592-175.83389-2.353501-98.28096 86.150093-188.432179 183.161757-187.80704 120.569109.785652 187.331399 95.81742 189.839799 170.10036 3.97628 117.76569-86.73873 193.70703-184.035636 193.54057" fill="#e82440"/><path d="m4.30755806 0c2.41012152 1.35669002 5.2967121 2.26496486 7.15878734 4.13873689 27.6960995 27.85480211 55.2372932 55.85422071 82.8532689 83.78393211 32.0676497 32.433631 64.0594487 64.93905 96.3087127 97.198933 14.385947 14.389862 28.71741 28.926421 44.183424 42.165593 14.031266 12.011492 22.269053 26.274425 26.19832 43.866657 4.526456 20.261916 10.000509 40.341761 15.660449 60.342535 17.580212 62.12371 40.096046 122.601497 64.850003 182.314585.798032 1.924752 1.747765 3.78916 2.604555 5.691023 2.516953 5.584902 2.10031 10.6985-2.321452 15.345995-39.207207 41.2105-72.136988 87.430557-109.440456 130.163172-6.898118 7.901887-13.190501 16.304209-20.114258 24.184248-2.134496 2.429349-5.222999 1.573094-7.216477-.928043-1.286253-1.61367-2.211415-3.523857-3.154738-5.371618-50.09976-98.161309-92.018354-199.548919-124.1565127-304.590436-26.8211484-87.665688-47.9182583-176.658935-61.6760353-267.281459-5.1973587-34.2283321-7.39915854-68.9123622-15.81535417-102.67355177-.69761053-2.79973378.24571275-5.4454874 2.09710485-7.70212901-.02243464.01144447 1.30655081.65545607 1.30655081.65545607z" fill="#11caf0" mask="url(#b)" transform="translate(0 2323.15)"/><path d="m1431.3825 3068.11172c-74.34627-1.47529-130.97237-35.31555-166.11037-101.33351-31.24077-58.69765-22.37908-148.66992 35.64651-203.84787 71.26311-67.76272 176.066-71.99717 251.81924-10.24905 36.7629 29.96683 58.13243 69.61048 65.76448 115.67031 4.64291 28.02647-1.13562 55.58164-10.94062 81.66046-24.65354 65.57266-74.36443 102.90661-143.98126 115.93458-9.69711 1.81447-19.83436 1.3983-32.19798 2.16508m2063.04853-2015.27105c3.94743 78.21463-56.33125 162.4345-168.50019 163.24393-87.30387.62945-166.16164-71.54563-164.10086-164.09603 1.93259-86.765732 73.8666-157.313613 164.38931-157.75898 105.26975-.513888 174.71992 91.830509 168.21174 158.61108m-324.31016 2111.22816c2.95282 91.69518-81.80419 157.82237-163.86263 156.42303-74.93918-1.27866-151.64642-57.26606-156.60982-151.00668 3.17931-114.272 89.8721-162.35751 161.13735-161.65003 100.45378.99775 163.15112 84.95335 159.3351 156.23368m-178.93048-1892.14208c17.68491-.50667 37.84617 3.73506 57.12608 11.18854 36.73512 14.20467 63.29667 39.18066 79.19962 74.46189 4.84161 10.74011 9.20782 21.8194 12.3444 33.12446 8.76981 31.59818 2.84279 62.29641-10.5133 91.17914-27.14271 58.70181-74.98192 88.56772-140.86819 90.91071-59.89301 2.12972-103.83607-26.02264-135.77124-72.3509-21.33108-30.94481-27.74097-66.64012-20.02132-103.61824 10.21845-48.948 37.40923-86.11028 83.12462-109.83259 22.59596-11.72538 46.78905-15.9307 75.37933-15.06301m-1068.19022-439.133297c-33.6338.572224-70.14137-13.051899-98.27121-43.590949-69.91916-75.908056-41.34918-191.799971 45.93226-229.504301 80.73694-34.877546 186.0398 4.922163 205.91049 103.165664 14.37099 71.05664-33.37741 170.139749-153.57154 169.929586m1070.91421 1780.893287c1.84498-50.94871 21.98595-92.86669 66.84242-122.67017 51.33046-34.10556 152.83439-30.1052 198.33291 45.01111 33.02486 54.5225 29.87119 108.03372-4.92387 160.54824-32.28345 48.72535-129.61774 84.87844-203.01962 28.90769-37.29278-28.43535-55.76824-65.36562-57.23184-111.79687m-2156.594469 579.85743c75.303477 2.73314 150.64221 2.38149 225.972399 2.12347 40.51162-.13942 81.05636.91451 121.53807-1.75205 1.91442-.12589 4.09806.01145 5.00506 2.54067.90166 2.51363-.63458 4.16059-2.1377 5.33625-18.49576 14.45749-31.81233 33.48444-47.26552 50.61681-29.55283 32.76448-59.01806 65.60283-88.44697 98.47447-6.5381 7.30366-12.7151 14.91319-19.16987 22.28967-3.68249 4.20845-7.34895 8.47723-11.44701 12.28408-7.5968 7.05604-10.92246 7.02587-17.75221.01041-6.355414-6.52856-12.374308-13.36507-18.643188-19.97477-49.667092-52.36886-99.359824-104.71379-149.039736-157.0712-1.928311-2.03088-4.212371-3.88696-5.561654-6.2414-.884566-1.54188-1.116391-4.23966-.287377-5.6827.817262-1.42224 3.310712-1.97885 5.130054-2.78309.603599-.26634 1.398426-.12485 2.105652-.17062m2675.870749-72.72483c-54.95953 1.66569-101.39069-45.12867-101.50328-92.42971-.16838-71.25744 50.68241-101.28461 99.8506-102.00249 51.59754-.7543 98.97736 39.55625 99.56814 98.79387.52134 52.26066-45.61069 95.86722-97.91546 95.63833m-2946.585406-1460.72672c.613214-19.94251 4.70166-41.13455 19.946533-58.05676 21.385556-23.73999 48.879743-35.8909 81.477278-33.10781 50.209797 4.28647 79.624817 41.57048 84.404464 75.68645 8.396966 59.94614-40.973134 104.31219-89.202272 105.74379-25.829751.76678-50.58264-5.08967-70.136032-24.64411-17.963739-17.96574-26.327587-38.98507-26.489971-65.62156m3212.475656 803.79691c-58.72748 2.47617-110.05047-61.56709-75.25968-129.09987 14.52162-28.18877 51.56229-44.65321 86.94172-41.08149 20.7029 2.09018 37.90813 10.39054 51.83684 25.62001 9.58921 10.48729 16.99691 22.18458 22.26264 35.10539 8.75806 21.49064 5.07237 42.20201-5.79668 61.94996-16.71915 30.37363-41.46242 48.53705-79.98484 47.506m57.28953 407.27596c-43.53389-.37247-82.67059-39.64261-82.01678-82.29928.7147-46.77355 37.54277-82.4803 84.06901-81.51168 46.45146.9655 83.42589 37.93946 83.23434 83.23043-.18984 44.46177-38.83939 80.97796-85.28657 80.58053m259.14757-616.71259c1.66764 6.68149-1.22216 11.00646-5.13647 15.42715-8.79224 9.93172-17.06956 20.00806-30.76644 24.35176-9.29115 2.94643-17.96053 3.01301-26.84892-.5046-18.64746-7.38065-29.78894-21.11297-32.67018-40.10975-2.73276-18.01672 6.2614-32.20786 20.23925-43.02705 16.90397-13.08415 44.08941-10.27922 60.31393 5.16562 11.40321 10.8556 15.98842 24.06356 14.86883 38.69687" fill="#e82440"/></g></svg>