<svg width="4096" height="4096" viewBox="0 0 4096 4096" version="1.1" xmlns="http://www.w3.org/2000/svg" xmlns:xlink="http://www.w3.org/1999/xlink"><title>staticrux</title><defs><polygon id="path-1" points="0 0 767.23973 0 767.23973 833.093393 0 833.093393"/><polygon id="path-3" points="0 0 852.061062 0 852.061062 743.889893 0 743.889893"/></defs><g id="staticrux" stroke="none" stroke-width="1" fill="none" fill-rule="evenodd"><g><path d="M930.21235,338.667554 C931.233828,339.276907 936.711703,351.597611 941.475074,356.557964 C1054.26639,473.970798 1175.04957,590.04733 1296.29851,698.560393 C1335.13057,733.309589 1391.96286,771.757668 1425.96274,808.142498 C1429.69934,812.140713 1435.64297,814.417771 1433.9705,821.361196 L1234.2318,946.257321 C1217.73466,950.405202 1210.17149,925.384285 1198.70235,914.720595 C1022.66936,750.996881 765.701423,1035.63454 921.167239,1195.0126 C929.571941,1203.63442 959.025446,1218.99655 957.834604,1227.37783 L833.267182,1438.69528 C684.919959,1259.60409 525.484668,1089.64786 346.022053,942.045297 C328.29173,921.77627 359.089565,876.315277 371.193817,854.538901 C472.463066,672.278006 689.52455,452.456337 874.692624,358.140146 C886.897437,351.923669 918.711457,331.804307 930.21235,338.667554" id="Fill-1" fill="#212D49"/><path d="M3265.13011,1438.75728 C3264.20919,1439.53768 3253.72978,1440.84191 3254.21141,1435.43791 L3139.60473,1232.12759 C3137.55648,1211.32404 3155.38736,1215.9423 3164.96173,1206.69509 C3356.61328,1021.57985 3017.4137,711.627288 2868.1879,952.354065 L2860.59297,952.188364 L2661.97631,821.428546 C2836.55912,681.549804 2990.09312,518.948583 3148.95681,361.901034 C3157.70024,353.257833 3160.25658,339.226662 3172.66251,337.371875 C3191.30846,335.43691 3325.42379,424.69119 3349.45235,442.378482 C3518.41967,566.740086 3667.89423,736.990299 3757.35561,928.493058 L3752.58695,939.322449 C3598.04205,1067.12637 3455.55907,1210.19085 3323.58725,1361.43351 C3305.31179,1382.38138 3289.37037,1404.93281 3270.37511,1425.54927 C3266.5062,1429.74526 3265.7123,1438.26552 3265.13011,1438.75728" id="Fill-3" fill="#212D49"/><path d="M835.838344,2646.82822 L951.69409,2853.79467 C953.879948,2868.74522 929.359177,2879.49977 917.900626,2892.64364 C768.791263,3063.72236 1031.27413,3324.9587 1198.42078,3175.95034 C1207.59292,3167.77217 1214.67975,3149.03188 1224.02125,3149.80159 C1291.69286,3195.7971 1356.89282,3248.16944 1433.96414,3277.62154 C1438.92334,3284.15873 1420.1292,3300.00727 1415.33407,3304.15515 C1392.00415,3324.32796 1360.75115,3343.08964 1336.2145,3363.2197 C1193.62037,3480.18888 1062.43186,3610.48366 934.021987,3742.95929 L923.404964,3747.8074 C678.059647,3618.38923 460.273073,3409.60006 338.510747,3157.12987 L835.838344,2646.82822 Z" id="Fill-5" fill="#212D49"/><path d="M3270.42751,2646.84693 C3271.14731,2647.37076 3272.52869,2657.0349 3278.14946,2662.96273 C3432.50382,2825.83122 3577.61725,2998.88766 3749.89247,3143.49691 C3755.71437,3148.57486 3758.01666,3154.3851 3757.5562,3162.17307 C3756.86816,3173.7989 3706.52463,3255.69817 3696.13519,3271.74983 C3570.83739,3465.32653 3379.00059,3645.24622 3173.2971,3747.20071 C3068.05308,3625.68811 2951.721,3514.155 2828.45557,3411.3132 C2786.9031,3376.64953 2707.26485,3328.2166 2675.20207,3293.48879 C2671.55545,3289.53868 2665.51126,3287.33111 2667.17315,3280.28613 C2669.93061,3268.61219 2848.93277,3178.64165 2866.74248,3149.8684 C2881.32368,3145.95571 2901.45157,3177.33208 2913.40763,3186.54187 C3075.06582,3311.06918 3327.49268,3065.64396 3170.22208,2884.41469 C3159.88027,2872.50557 3141.83239,2870.85925 3143.31962,2852.98487 C3144.01296,2844.68376 3193.46733,2773.49629 3202.63417,2757.311 C3218.35329,2729.55868 3239.1798,2677.2184 3255.46524,2655.66118 C3258.64611,2651.4545 3263.89111,2642.05763 3270.42751,2646.84693" id="Fill-7" fill="#212D49"/><g id="Group-11" transform="translate(3328.7603, 1620.7825)"><mask id="mask-2" fill="#fff"><use xlink:href="#path-1"/></mask><path d="M714.256764,0 C784.564107,274.267956 785.315661,558.825437 714.023889,833.093393 L463.306549,812.001203 C310.217125,811.41323 157.291774,810.028821 5.2979261,828.229254 L52.3018039,612.191991 C119.200691,610.24099 165.299528,605.462375 209.101363,550.369318 C309.597887,423.98188 218.866272,211.499181 47.5966528,240.315196 C43.579544,163.290752 18.2542928,89.8422522 0,15.821815 C105.064067,17.441413 209.604163,30.9701338 315.112811,26.6993128 L714.256764,0 Z" id="Fill-9" fill="#212D49" mask="url(#mask-2)"/></g><path d="M761.795989,1636.60534 L714.130532,1861.01854 C444.391467,1829.35353 445.153607,2262.3207 713.924119,2230.17462 L761.795989,2449.01278 C612.014462,2434.2119 459.925347,2426.93707 309.042952,2432.75265 C225.472269,2435.97047 140.583721,2451.33794 57.5634725,2452.02747 C-18.9203737,2181.67755 -19.4919781,1887.73923 57.6746178,1617.34121 C144.876047,1623.58976 232.606739,1636.84053 319.935191,1641.85968 C362.964302,1644.33451 409.38599,1646.63829 451.975811,1647.48283 C555.71672,1649.53539 658.192689,1639.34208 761.795989,1636.60534" id="Fill-12" fill="#212D49"/><path d="M1867.9765,1091.35887 C1472.69617,1164.06438 1170.08455,1482.64411 1105.83728,1882.44962 C1085.18542,2010.96445 1088.2181,2102.61338 1111.12991,2229.88812 C1180.91858,2617.59208 1481.00031,2934.97982 1867.9765,3004.94325 C1990.7603,3027.1419 2105.1394,3027.06172 2227.87557,3004.94325 C2612.31659,2935.66401 2910.23363,2611.58941 2979.42952,2229.88812 C3003.0823,2099.40091 3006.7501,2014.83438 2984.72216,1882.44962 C2919.6704,1491.50646 2614.92056,1166.6087 2227.87557,1091.35887 C2105.59457,1067.58338 1989.96111,1068.91968 1867.9765,1091.35887 M1978.03152,708.075397 C3024.17345,646.600163 3681.99486,1798.10758 3188.59969,2711.06907 C2684.33875,3644.14992 1373.57573,3621.25639 891.247453,2679.12611 C446.110515,1809.63185 1004.55215,765.274466 1978.03152,708.075397" id="Fill-14" fill="#212D49"/><path d="M2004.41794,1777.03998 C1882.04167,1791.94777 1778.11552,1906.92318 1767.4985,2029.52622 C1743.18943,2310.29929 2083.72276,2460.58515 2262.34385,2240.64589 C2427.60103,2037.15917 2259.99392,1745.90415 2004.41794,1777.03998 M2227.87293,1091.35673 L2228.48687,1662.70599 C2292.51715,1683.66455 2351.98518,1734.51351 2390.97072,1789.89521 C2403.14378,1807.1923 2438.06986,1878.2408 2448.53869,1881.4212 L2984.71951,1882.44748 C3006.74745,2014.83224 3003.08495,2099.39877 2979.42688,2229.88598 L2452.50817,2229.58131 C2427.82333,2232.58531 2415.41739,2284.16122 2401.59303,2306.44539 C2359.03497,2375.01372 2296.88357,2418.43819 2228.71975,2457.91255 L2227.87293,3004.94111 C2105.14205,3027.05958 1990.76295,3027.13976 1867.97385,3004.94111 L1867.28051,2457.76288 C1770.91754,2409.07338 1696.19614,2334.74827 1656.4908,2232.33943 L1111.12726,2229.88598 C1088.22075,2102.61124 1085.18277,2010.96765 1105.83463,1882.44748 L1647.48803,1881.59759 C1672.80799,1844.17045 1690.30544,1802.33885 1719.65838,1767.40257 C1759.12026,1720.43423 1811.70257,1685.98437 1865.39634,1658.01824 L1867.97385,1091.35673 C1989.95847,1068.92289 2105.59192,1067.58659 2227.87293,1091.35673" id="Fill-16" fill="#D32941"/><path d="M1867.9765,1091.35887 L1865.39369,1658.01503 C1811.70522,1685.98116 1759.11761,1720.43637 1719.66103,1767.40471 C1690.30808,1802.33564 1672.80534,1844.16724 1647.48539,1881.59438 L1105.83728,1882.44962 C1170.08455,1482.64411 1472.69617,1164.06438 1867.9765,1091.35887" id="Fill-18" fill="#FDFEFE"/><path d="M2984.72163,1882.44962 L2448.53552,1881.42334 C2438.07198,1878.24294 2403.14589,1807.19444 2390.96754,1789.89734 C2351.9873,1734.5103 2292.51927,1683.66668 2228.4837,1662.70812 L2227.87504,1091.35887 C2614.92004,1166.6087 2919.66987,1491.50646 2984.72163,1882.44962" id="Fill-20" fill="#FDFEFE"/><path d="M1867.9765,3004.94325 C1481.00031,2934.97982 1180.91858,2617.59208 1111.12991,2229.88812 L1656.48816,2232.34157 C1696.19878,2334.75041 1770.92018,2409.07018 1867.28316,2457.75967 L1867.9765,3004.94325 Z" id="Fill-22" fill="#FDFEFE"/><path d="M2979.429,2229.88812 C2910.23311,2611.58941 2612.31606,2935.66401 2227.87504,3004.94325 L2228.72186,2457.91468 C2296.8804,2418.43498 2359.03709,2375.01586 2401.58986,2306.44219 C2415.41951,2284.16336 2427.82544,2232.58211 2452.51028,2229.58344 L2979.429,2229.88812 Z" id="Fill-24" fill="#FDFEFE"/><path d="M2004.41794,1777.03998 C2259.99392,1745.90415 2427.60103,2037.15917 2262.34385,2240.64589 C2083.72276,2460.58515 1743.18943,2310.29929 1767.4985,2029.52622 C1778.11552,1906.92318 1882.04167,1791.94777 2004.41794,1777.03998" id="Fill-26" fill="#FDFEFE"/><g id="Group-30" transform="translate(1640.4213, 0)"><mask id="mask-4" fill="#fff"><use xlink:href="#path-3"/></mask><path d="M852.061062,743.889893 L592.790826,685.076572 C621.741531,420.836226 228.456524,411.968526 248.007512,679.036487 L0,733.199477 C36.8526068,508.968011 52.762263,282.721402 48.3534994,55.143836 C237.565146,-4.74921711 445.82498,-14.060569 641.488347,18.5238175 C663.256948,22.1478684 789.729718,48.943395 799.245873,56.971897 C804.369142,61.2961701 804.924868,66.5344737 804.744919,72.7990572 C806.925484,297.415378 819.003273,521.994283 852.061062,743.889893" id="Fill-28" fill="#212D49" mask="url(#mask-4)"/></g><path d="M2487.18233,3363.09515 C2493.87751,3370.65328 2468.53638,3532.71463 2466.07001,3558.20058 C2452.2086,3701.75148 2440.12552,3863.51885 2444.60309,4007.42253 C2444.98416,4019.71117 2447.1118,4030.16105 2450.18153,4041.78153 C2201.64475,4115.72713 1938.40504,4110.67057 1688.26989,4047.02518 L1682.68087,3729.27396 C1670.50781,3610.49275 1660.75878,3491.40152 1640.41919,3373.79091 L1888.8607,3422.13832 C1866.05474,3688.68245 2267.24694,3683.64726 2233.14121,3416.49912 C2320.21033,3415.28576 2404.01918,3385.92454 2487.18233,3363.09515" id="Fill-31" fill="#212D49"/></g></g></svg>