<svg height="1600" viewBox="0 0 2600 1600" width="2600" xmlns="http://www.w3.org/2000/svg" xmlns:xlink="http://www.w3.org/1999/xlink"><linearGradient id="a" x1="100%" x2="0%" y1="50%" y2="50%"><stop offset="0" stop-color="#fb3fb7"/><stop offset=".49829" stop-color="#feb58f"/><stop offset="1" stop-color="#fb3fb7"/></linearGradient><linearGradient id="b" x1="100%" x2="0%" y1="50%" y2="50%"><stop offset="0" stop-color="#826bd8"/><stop offset=".49829" stop-color="#27cdf7"/><stop offset="1" stop-color="#4b39b0"/></linearGradient><g fill="none" fill-rule="evenodd"><path d="m0 0h2600v1600h-2600z"/><g font-family="Gidolinya-Regular, Gidolinya" transform="translate(847 589)"><text fill="#27cbf6" font-size="46"><tspan x="52.368" y="265.965">A JavaScript library designed for generating animated sine waves on a </tspan><tspan x="52.368" y="341.965">canvas, offering configurable parameters, easing functions for smooth </tspan><tspan x="52.368" y="417.965">animations, and support for multiple waves with individual configurations.</tspan></text><text fill="url(#a)" fill-rule="nonzero" font-size="167" letter-spacing="-1.256"><tspan x="40.924" y="147">Sine Wave Generator</tspan></text></g><g transform="matrix(1 0 0 -1 354 1046.97)"><circle cx="246.485" cy="246.485" r="246.485"/><g fill-rule="nonzero"><path d="m407.60849 189.193283c9.225877 7.497405 18.142346 15.853625 27.04033 24.258858l1.213275 1.146396c.404404.382182.808798.76439 1.213209 1.146547l.808851.764223c3.505184 3.311146 7.012974 6.614665 10.541153 9.86105.260651.23988.509229.495019.744222.763426l-14.155507 7.053351c-.357853-.324554-.71532-.650811-1.072792-.977237l-.264206-.241262c-1.321098-1.206235-2.643593-2.409619-3.987305-3.532765-2.540701-2.122621-5.063615-4.303363-7.584873-6.489948l-1.120502-.972031c-.280125-.243018-.560258-.486014-.840423-.728914l-.560377-.485652c-5.977944-5.17848-11.976784-10.291875-18.21133-14.643915-23.49978-16.406058-46.728822-14.292337-68.607254 6.453957-7.366257 6.985291-14.45359 14.627146-21.525221 22.311505l-.757626.823459c-5.303133 5.764959-10.602723 11.541491-16.009813 17.07054-6.771578 6.922127-13.765511 13.521324-21.05489 19.103834-21.565486 16.517307-43.221562 15.299754-63.626882-3.666564-8.636654-8.027689-16.799369-17.198993-24.946364-26.414624l-.763749-.864061c-4.327807-4.896706-8.655219-9.796226-13.050938-14.533742-5.143022-5.543882-10.336486-11.039865-15.757453-15.933252-22.187261-20.023179-45.02409-19.375775-67.6920936-2.648332-7.9129244 5.839679-15.5026396 12.671747-23.071144 19.559513l-.6677619.607865c-.111287.101327-.2225714.20266-.333854.303996l-.6676831.608031-1.0015489.911873c-.1112896.101292-.2225823.202573-.3338791.30384l-.6678369.607396c-1.1545271 1.04955-2.3096971 2.096872-3.4665818 3.13864l-13.5691713-6.76089c.9798104-1.292373 2.2743271-2.672973 3.9076579-4.215368 3.1668371-2.990872 6.3167161-6.024312 9.4650207-9.061478l1.4166826-1.366844.944491-.911121c6.2969577-6.0732 12.6030018-12.122454 19.0412026-17.837012 12.9965277-11.532758 26.9421878-18.981769 39.2922348-19.048209 21.333865.177688 37.509266 10.074166 52.228027 25.56397 11.077674 11.657912 21.563427 24.584366 32.609189 36.314898 6.546132 6.951485 13.451535 13.314279 20.580323 18.821078 13.535948 10.455811 27.736906 10.738567 40.980497-.033993 9.81852-7.986805 19.1266-17.402486 28.448423-26.755635l.717099-.719324c2.39048-2.39717 4.782747-4.787714 7.185638-7.146491 3.162402-3.104573 6.267987-6.355975 9.366138-9.623984l.580829-.612915.580726-.613113c.29035-.306574.580688-.613151.871057-.919624l.580788-.612774c5.711709-6.023623 11.445362-11.979196 17.510484-17.050534 25.407311-21.242277 51.615517-23.111869 77.501512-2.076638z" fill="url(#a)"/><path d="m407.869568 207.22877c8.668656 7.043017 17.064211 14.843905 25.427888 22.731355l.809297.763549c.539475.509183 1.07885 1.018636 1.61819 1.528179l.808991.76436c.203978.192733.407956.385466.611937.578189l-14.795695 7.370563c-.180479-.15649-.360949-.313009-.541417-.469538l-1.12076-.972033c-.093403-.080985-.186808-.161962-.280217-.242929l-.560502-.485652c-5.97927-5.17848-11.979442-10.291875-18.21537-14.643915-23.504996-16.406058-46.739192-14.292337-68.622479 6.453956-13.156949 12.473735-25.424275 27.041103-38.301158 40.205505-6.77308 6.922127-13.768565 13.521324-21.059561 19.103834-21.570272 16.517307-43.231153 15.299754-63.641002-3.666564-8.638569-8.02769-16.803095-17.198993-24.951899-26.414624l-.763918-.864062c-.127317-.14402-.254633-.288044-.38195-.432065l-.763938-.864074c-3.947241-4.463926-7.899195-8.918102-11.907947-13.237602-5.144163-5.543882-10.338778-11.039865-15.76095-15.933253-22.192183-20.023178-45.03408-19.375774-67.7071135-2.648331-6.0139895 4.437294-11.8413243 9.44757-17.6145269 14.619882l-14.3313387-7.139192c.9833516-.947456 1.9663065-1.895889 2.9493329-2.844117l.9447005-.91112c6.298355-6.0732 12.6057985-12.122454 19.0454278-17.837012 12.9994118-11.532758 26.9481669-18.98177 39.3009539-19.04821 21.338599.177689 37.51759 10.074167 52.239616 25.563971 11.080132 11.657912 21.568212 24.584366 32.616425 36.314898 6.547585 6.951484 13.45452 13.314279 20.584891 18.821078 13.538951 10.45581 27.743061 10.738566 40.98959-.033993 8.687541-7.065251 16.975552-15.24866 25.226979-23.5178l.717432-.719247.7173-.719528c3.227637-3.238282 6.452892-6.480526 9.697515-9.664875 3.163105-3.104574 6.269378-6.355976 9.368217-9.623984l.580957-.612915c.096816-.102174.193627-.204357.290436-.306544l.580831-.61314c6.098639-6.43785 12.198372-12.861203 18.676126-18.276362 25.412948-21.242276 51.62697-23.111868 77.518709-2.076638z" fill="url(#b)"/></g></g></g></svg>