<svg height="4096" viewBox="0 0 4096 4096" width="4096" xmlns="http://www.w3.org/2000/svg" xmlns:xlink="http://www.w3.org/1999/xlink"><mask id="a" fill="#fff"><path d="m0 0h767.23973v833.093393h-767.23973z" fill="#fff" fill-rule="evenodd"/></mask><mask id="b" fill="#fff"><path d="m0 0h852.061062v743.889893h-852.061062z" fill="#fff" fill-rule="evenodd"/></mask><g fill="none" fill-rule="evenodd"><g fill="#212d49"><path d="m930.21235 338.667554c1.021478.609353 6.499353 12.930057 11.262724 17.89041 112.791316 117.412834 233.574496 233.489366 354.823436 342.002429 38.83206 34.749196 95.66435 73.197275 129.66423 109.582105 3.7366 3.998215 9.68023 6.275273 8.00776 13.218698l-199.7387 124.896125c-16.49714 4.147881-24.06031-20.873036-35.52945-31.536726-176.03299-163.723714-433.000927 120.913945-277.535111 280.292005 8.404702 8.62182 37.858207 23.98395 36.667365 32.36523l-124.567422 211.31745c-148.347223-179.09119-307.782514-349.04742-487.245129-496.649983-17.730323-20.269027 13.067512-65.73002 25.171764-87.506396 101.269249-182.260895 318.330733-402.082564 503.498807-496.398755 12.204813-6.216477 44.018833-26.335839 55.519726-19.472592"/><path d="m3265.13011 1438.75728c-.92092.7804-11.40033 2.08463-10.9187-3.31937l-114.60668-203.31032c-2.04825-20.80355 15.78263-16.18529 25.357-25.4325 191.65155-185.11524-147.54803-495.067802-296.77383-254.341025l-7.59493-.165701-198.61666-130.759818c174.58281-139.878742 328.11681-302.479963 486.9805-459.527512 8.74343-8.643201 11.29977-22.674372 23.7057-24.529159 18.64595-1.934965 152.76128 87.319315 176.78984 105.006607 168.96732 124.361604 318.44188 294.611817 407.90326 486.114576l-4.76866 10.829391c-154.5449 127.803921-297.02788 270.868401-428.9997 422.111061-18.27546 20.94787-34.21688 43.4993-53.21214 64.11576-3.86891 4.19599-4.66281 12.71625-5.245 13.20801"/><path d="m835.838344 2646.82822 115.855746 206.96645c2.185858 14.95055-22.334913 25.7051-33.793464 38.84897-149.109363 171.07872 113.373504 432.31506 280.520154 283.3067 9.17214-8.17817 16.25897-26.91846 25.60047-26.14875 67.67161 45.99551 132.87157 98.36785 209.94289 127.81995 4.9592 6.53719-13.83494 22.38573-18.63007 26.53361-23.32992 20.17281-54.58292 38.93449-79.11957 59.06455-142.59413 116.96918-273.78264 247.26396-402.192513 379.73959l-10.617023 4.84811c-245.345317-129.41817-463.131891-338.20734-584.894217-590.67753z"/><path d="m3270.42751 2646.84693c.7198.52383 2.10118 10.18797 7.72195 16.1158 154.35436 162.86849 299.46779 335.92493 471.74301 480.53418 5.8219 5.07795 8.12419 10.88819 7.66373 18.67616-.68804 11.62583-51.03157 93.5251-61.42101 109.57676-125.2978 193.5767-317.1346 373.49639-522.83809 475.45088-105.24402-121.5126-221.5761-233.04571-344.84153-335.88751-41.55247-34.66367-121.19072-83.0966-153.2535-117.82441-3.64662-3.95011-9.69081-6.15768-8.02892-13.20266 2.75746-11.67394 181.75962-101.64448 199.56933-130.41773 14.5812-3.91269 34.70909 27.46368 46.66515 36.67347 161.65819 124.52731 414.08505-120.89791 256.81445-302.12718-10.34181-11.90912-28.38969-13.55544-26.90246-31.42982.69334-8.30111 50.14771-79.48858 59.31455-95.67387 15.71912-27.75232 36.54563-80.0926 52.83107-101.64982 3.18087-4.20668 8.42587-13.60355 14.96227-8.81425"/><path d="m714.256764 0c70.307343 274.267956 71.058897 558.825437-.232875 833.093393l-250.71734-21.09219c-153.089424-.587973-306.014775-1.972382-458.0086229 16.228051l47.0038778-216.037263c66.8988871-1.951001 112.9977241-6.729616 156.7995591-61.822673 100.496524-126.387438 9.764909-338.870137-161.5047102-310.054122-4.0171088-77.024444-29.34236-150.4729438-47.5966528-224.493381 105.064067 1.619598 209.604163 15.1483188 315.112811 10.8774978z" mask="url(#a)" transform="translate(3328.7603 1620.7825)"/><path d="m761.795989 1636.60534-47.665457 224.4132c-269.739065-31.66501-268.976925 401.30216-.206413 369.15608l47.87187 218.83816c-149.781527-14.80088-301.870642-22.07571-452.753037-16.26013-83.570683 3.21782-168.459231 18.58529-251.4794795 19.27482-76.4838462-270.34992-77.0554506-564.28824.1111453-834.68626 87.2014292 6.24855 174.9321212 19.49932 262.2605732 24.51847 43.029111 2.47483 89.450799 4.77861 132.04062 5.62315 103.740909 2.05256 206.216878-8.14075 309.820178-10.87749"/><path d="m1867.9765 1091.35887c-395.28033 72.70551-697.89195 391.28524-762.13922 791.09075-20.65186 128.51483-17.61918 220.16376 5.29263 347.4385 69.78867 387.70396 369.8704 705.0917 756.84659 775.05513 122.7838 22.19865 237.1629 22.11847 359.89907 0 384.44102-69.27924 682.35806-393.35384 751.55395-775.05513 23.65278-130.48721 27.32058-215.05374 5.29264-347.4385-65.05176-390.94316-369.8016-715.84092-756.84659-791.09075-122.281-23.77549-237.91446-22.43919-359.89907 0m110.05502-383.283473c1046.14193-61.475234 1703.96334 1090.032183 1210.56817 2002.993673-504.26094 933.08085-1815.02396 910.18732-2297.352237-31.94296-445.136938-869.49426 113.304697-1913.851644 1086.784067-1971.050713"/></g><path d="m2004.41794 1777.03998c-122.37627 14.90779-226.30242 129.8832-236.91944 252.48624-24.30907 280.77307 316.22426 431.05893 494.84535 211.11967 165.25718-203.48672-2.34993-494.74174-257.92591-463.60591m223.45499-685.68325.61394 571.34926c64.03028 20.95856 123.49831 71.80752 162.48385 127.18922 12.17306 17.29709 47.09914 88.34559 57.56797 91.52599l536.18082 1.02628c22.02794 132.38476 18.36544 216.95129-5.29263 347.4385l-526.91871-.30467c-24.68484 3.004-37.09078 54.57991-50.91514 76.86408-42.55806 68.56833-104.70946 111.9928-172.87328 151.46716l-.84682 547.02856c-122.73088 22.11847-237.10998 22.19865-359.89908 0l-.69334-547.17823c-96.36297-48.6895-171.08437-123.01461-210.78971-225.42345l-545.36354-2.45345c-22.90651-127.27474-25.94449-218.91833-5.29263-347.4385l541.6534-.84989c25.31996-37.42714 42.81741-79.25874 72.17035-114.19502 39.46188-46.96834 92.04419-81.4182 145.73796-109.38433l2.57751-566.66151c121.98462-22.43384 237.61807-23.77014 359.89908 0" fill="#d32941"/><path d="m1867.9765 1091.35887-2.58281 566.65616c-53.68847 27.96613-106.27608 62.42134-145.73266 109.38968-29.35295 34.93093-46.85569 76.76253-72.17564 114.18967l-541.64811.85524c64.24727-399.80551 366.85889-718.38524 762.13922-791.09075" fill="#fdfefe"/><path d="m2984.72163 1882.44962-536.18611-1.02628c-10.46354-3.1804-45.38963-74.2289-57.56798-91.526-38.98024-55.38704-98.44827-106.23066-162.48384-127.18922l-.60866-571.34925c387.045 75.24983 691.79483 400.14759 756.84659 791.09075" fill="#fdfefe"/><path d="m1867.9765 3004.94325c-386.97619-69.96343-687.05792-387.35117-756.84659-775.05513l545.35825 2.45345c39.71062 102.40884 114.43202 176.72861 210.795 225.4181z" fill="#fdfefe"/><path d="m2979.429 2229.88812c-69.19589 381.70129-367.11294 705.77589-751.55396 775.05513l.84682-547.02857c68.15854-39.4797 130.31523-82.89882 172.868-151.47249 13.82965-22.27883 26.23558-73.86008 50.92042-76.85875z" fill="#fdfefe"/><path d="m2004.41794 1777.03998c255.57598-31.13583 423.18309 260.11919 257.92591 463.60591-178.62109 219.93926-519.15442 69.6534-494.84535-211.11967 10.61702-122.60304 114.54317-237.57845 236.91944-252.48624" fill="#fdfefe"/><path d="m852.061062 743.889893-259.270236-58.813321c28.950705-264.240346-364.334302-273.108046-344.783314-6.040085l-248.007512 54.16299c36.8526068-224.231466 52.762263-450.478075 48.3534994-678.055641 189.2116466-59.89305311 397.4714806-69.204405 593.1348476-36.6200185 21.768601 3.6240509 148.241371 30.4195775 157.757526 38.4480795 5.123269 4.3242731 5.678995 9.5625767 5.499046 15.8271602 2.180565 224.6163208 14.258354 449.1952258 47.316143 671.0908358" fill="#212d49" mask="url(#b)" transform="translate(1640.4213)"/><path d="m2487.18233 3363.09515c6.69518 7.55813-18.64595 169.61948-21.11232 195.10543-13.86141 143.5509-25.94449 305.31827-21.46692 449.22195.38107 12.28864 2.50871 22.73852 5.57844 34.359-248.53678 73.9456-511.77649 68.88904-761.91164 5.24365l-5.58902-317.75122c-12.17306-118.78121-21.92209-237.87244-42.26168-355.48305l248.44151 48.34741c-22.80596 266.54413 378.38624 261.50894 344.28051-5.6392 87.06912-1.21336 170.87797-30.57458 254.04112-53.40397" fill="#212d49"/></g></svg>