<svg height="1597" viewBox="0 0 3021 1597" width="3021" xmlns="http://www.w3.org/2000/svg" xmlns:xlink="http://www.w3.org/1999/xlink"><linearGradient id="a" x1="50%" x2="50%" y1="0%" y2="100%"><stop offset="0" stop-color="#fff"/><stop offset="1" stop-color="#fff"/></linearGradient><mask id="b" fill="#fff"><path d="m0 0h645v645h-645z" fill="#fff" fill-rule="evenodd"/></mask><g fill="none" fill-rule="evenodd"><path d="m0 0h3021v1597h-3021z" fill="url(#a)"/><g transform="translate(1043 476)"><text fill="#2a3640" font-family="SFCompactRounded-Regular, SF Compact Rounded" font-size="266" letter-spacing="-1.99999968"><tspan x="0" y="253">Sitemap Gen</tspan></text><text fill="#000" font-family="SFCompactDisplay-Medium, SF Compact Display" font-size="66" font-weight="400" letter-spacing="-.496240602"><tspan x="29" y="369">Boost Your SEO with Sitemap Gen</tspan> <tspan x="29" y="448"/><tspan font-family="SFCompactDisplay-Thin, SF Compact Display" font-size="54" font-weight="300" letter-spacing="-.406015038" x="29" y="487">A fast and efficient Rust library for generating and validating XML </tspan><tspan font-family="SFCompactDisplay-Thin, SF Compact Display" font-size="54" font-weight="300" letter-spacing="-.406015038" x="29" y="551">sitemaps.</tspan></text></g><g fill-rule="nonzero" transform="translate(378 476)"><path d="m203.970585 38.212171c-1.836814-.1813646-3.423075.6079418-5.036684 1.368563-12.621262 5.949871-24.632019 13.0665829-36.178719 21.0327475-42.636683 29.4143855-76.217218 67.5934955-99.2647418 115.3812315-24.4238112 50.641452-33.0838362 104.652955-28.5729654 161.047184 2.122659 26.545861 7.8898332 52.285762 16.4007604 77.382558 1.104559 3.256236 2.2223515 3.457959 4.8902322 2.004265 7.6886834-4.188968 15.5167602-8.09571 23.247791-12.200474 32.3683436-17.185227 64.0406026-35.721434 95.7243306-54.234508 1.248363-.730085 2.366156-2.230045 4.223262-1.479603-.516991 1.842332-1.940918 2.53633-3.008423 3.521805-19.193919 17.723769-38.849246 34.872907-58.58574 51.925811-11.090584 9.583641-22.2932121 19.042363-32.7935806 29.355165-.1993851.236883-.3987705.472844-.5981558.708803.127042.026834.28408.117517.3767147.069398.4146507-.21005.4543513-.510781.1155729-.852228 1.2439523.879063 1.8632816-.401593 2.5990661-.929956 44.0076777-31.608343 88.5720457-62.301534 134.6759157-90.475978.642268-.39234 1.293359-1.465721 2.426148-.226706-2.546131 5.339153-5.691302 10.223044-10.214523 14.104804-10.464198 8.981252-20.79253 18.13739-31.314955 27.041839-24.011807 20.318393-47.047861 41.926696-72.505653 60.337985-1.675365 1.211257-3.794495 1.842331-4.833769 3.891937 6.147418-2.1736 11.199981-6.597602 16.910693-9.744649 8.038931-4.429553 15.653507-9.849212 24.765236-11.789629 1.727418-.36828 3.753031-.917 4.921993.823545 1.328647 1.980205-.658148 3.355246-1.574791 4.763598-3.637457 5.590843-7.379019 11.106734-11.081762 16.650385.38642.404369.771957.807814 1.158376 1.212183 17.503555-21.124357 35.785241-41.224371 60.874259-52.442146-7.906596 7.889363-14.247223 17.025145-20.592262 26.606935 3.665689.161934 5.458391-2.622385 7.645454-4.408271 6.220642-5.076359 11.936648-10.845791 18.874549-14.925571l-.063521-.103636c1.159257 1.250121-.237322 1.905254-.676675 2.626086-4.828475 7.91342-9.749586 15.764845-14.605411 23.659759-5.177841 8.417725-10.312452 16.863211-15.561754 25.453973 2.577892.735637 3.335732-1.117797 4.377653-2.252253 10.405969-11.325112 20.361116-23.066622 29.711049-35.373508 4.210028-5.541802 8.530336-11.007725 13.766405-15.561272.889294-.773577 1.885337-1.734069 3.138113-.990104 1.264242.751369 1.002219 2.116229.745488 3.320084-.513461 2.404006-1.026921 4.81264-1.6736 7.179634-3.513063 12.857458-6.943195 25.742676-11.795491 38.255913 2.032671.241511 2.124423-1.284358 2.649353-2.276312 9.05615-17.101947 18.296685-34.093779 28.218308-50.660884 7.336672-12.250443 14.176643-24.911731 24.431751-34.924725 1.819169-1.776633 3.478655-3.841044 7.117877-4.994931-6.598241 11.449106-12.147502 22.11631-14.10783 34.328813-.156156.973446-1.79535 1.935789-.555809 2.788019 1.449514.99658 1.923274-.769876 2.499374-1.718338 3.945358-6.493966 7.802492-13.047151 11.79902-19.506878 1.785644-2.886105 3.249272-6.088671 6.970543-7.731132-2.557601 6.50877-5.114319 13.017541-7.671921 19.525385 8.832061-13.472803 15.429419-28.429835 25.373097-42.408793 9.265238 29.209888 25.691583 53.589555 34.897713 82.116549 2.711991-5.864742 2.556719-11.941383 5.542205-17.23612 6.506486 7.805157 10.777389 16.656862 15.856419 24.917282-5.985968-55.018262-22.554354-107.339188-34.8536-160.82603 22.220869 32.935265 40.158484 68.988893 67.247528 98.432889-2.870795-14.237126-5.741589-28.474251-8.612384-42.710451 19.84148 30.237005 37.032724 62.16181 58.432232 91.288417-5.403694-18.013395-12.894757-35.098686-19.335077-52.704938 9.367578 11.259414 17.171834 23.60239 23.471879 37.318554.985457-1.58324.397006-2.546508.081165-3.537537-3.396607-10.662576-6.821445-21.315899-11.214978-31.586135-2.644943-6.182128-5.211367-12.431806-9.52197-17.618279-1.53862-1.849736-3.101058-4.015007-5.688656-3.978919-5.443394.075877-8.606209-3.339516-11.285557-7.603435-3.637458-5.787014-7.302264-11.558296-10.813563-17.428588-7.511355-12.557651-14.671579-25.332755-21.16748-38.597359 17.409156 9.410605 28.951445 26.008247 43.502157 38.959163-2.229409-7.001046-4.939637-13.607901-7.332259-20.337824-.754312-2.122707-2.350277-4.263921-1.228073-6.829861l-.053816.113815c8.252432 6.211739 15.387954 13.73282 22.61964 21.148415 7.735441 7.932853 15.534404 15.798157 23.305136 23.69307.215266-.121217.429648-.242435.644914-.364579-11.063235-16.258971-22.125587-32.518867-33.359977-49.031379 2.536428-.167484 3.608344 1.51199 4.91229 2.629788 27.199324 23.325715 52.912963 48.370693 78.363697 73.755266 22.841963 22.782547 48.42856 41.429794 77.886408 53.840319 3.161051 1.331548 4.375889.926255 5.63131-2.552986 16.831292-46.642177 21.622713-94.755627 15.836131-144.065531-6.786158-57.827563-27.182563-109.715435-63.095729-154.442179-27.049344-33.6875587-59.23683-60.5341539-97.745533-78.6632164-1.934743-.9114499-3.852722-1.3796669-5.925976-1.3815175-10.294808-6.2552298-21.290992-10.8605966-32.610076-14.5017694-53.634633-17.24814859-107.589518-17.58311799-161.676738-2.572417-13.992258 3.8836094-27.665144 8.9174037-40.46903 16.2016003m118.478952 606.787829c-64.105005-.234109-124.467568-15.406741-179.158237-51.290109-67.7406986-44.445443-111.2243285-108.090556-132.2330057-188.643296-14.6724608-56.26283-14.97418539-112.913376.4737606-168.943023 23.2945496-84.495571 72.9335374-147.7862826 145.4039011-191.167597 62.751657-37.56469077 130.716443-50.42214911 202.28428-42.90014271 54.609503 5.7398211 105.270119 23.82261711 150.669083 56.48398501 62.035282 44.6314347 104.561686 104.5298877 124.213485 181.0093247 19.071286 74.217933 13.080025 146.995125-17.738231 216.574379-41.965301 94.744524-112.38535 154.05169-209.124253 178.869962-27.831005 7.139845-56.16753 9.97413-84.790783 10.006517" fill="#1c2850" mask="url(#b)"/><path d="m202.792447 395.411981c-.097046.091607-.286726.206348-.27261.272046.043229.200798.165859.383087.256729.57278.097046-.091607.285846-.203572.272612-.271121-.040584-.202647-.160567-.386789-.256731-.573705m206.915134-101.006232c-1.122204 2.565016.473762 4.706228 1.228955 6.828935 2.39174 6.730849 5.101969 13.336779 7.332259 20.338751-14.550712-12.950917-26.093001-29.548559-43.502155-38.959164 6.495901 13.264604 13.655242 26.038782 21.166596 38.596434 3.512181 5.871218 7.176105 11.642501 10.813562 17.428589 2.680233 4.263919 5.843046 7.680236 11.285558 7.604359 2.587598-.036087 4.15092 2.128259 5.688656 3.978919 4.311485 5.186474 6.877028 11.436151 9.521969 17.618281 4.393533 10.270236 7.818373 20.923559 11.21498 31.585209.31584.991954.904291 1.955222-.081166 3.537535-6.299163-13.715238-14.104301-26.059138-23.470997-37.317627 6.439439 17.605327 13.931383 34.691542 19.335077 52.704938-21.40039-29.126608-38.590752-61.052339-58.433114-91.288416 2.870795 14.236198 5.74159 28.473325 8.612385 42.709523-27.089045-29.44307-45.025778-65.497622-67.246647-98.431963 12.298364 53.486842 28.86675 105.807768 34.853602 160.82603-5.079914-8.260418-9.350817-17.113049-15.856421-24.917282-2.986369 5.294738-2.830213 11.371379-5.543087 17.235194-9.205246-28.526068-25.632475-52.905735-34.896831-82.116547-9.94456 13.978958-16.541036 28.936916-25.373097 42.409719 2.55672-6.508772 5.11432-13.017541 7.671921-19.525387-3.722152 1.641536-5.184898 4.845028-6.971425 7.731132-3.995646 6.458802-7.85278 13.011988-11.798138 19.505952-.5761.94939-1.050742 2.715844-2.500255 1.719264-1.239542-.852228.399653-1.815497.555808-2.788019 1.96121-12.212503 7.510473-22.879706 14.108712-34.329737-3.640103 1.153885-5.29959 3.219222-7.118759 4.994929-10.255108 10.01392-17.095081 22.675208-24.431751 34.924725-9.921623 16.567107-19.162158 33.559864-28.218308 50.66181-.52493.991954-.616682 2.517823-2.649353 2.276312 4.852296-12.513237 8.28331-25.399379 11.796373-38.256838.646679-2.366069 1.16014-4.774703 1.672718-7.178709.256731-1.203854.518755-2.569641-.745488-3.320084-1.252775-.743965-2.247937.216527-3.138112.990104-5.23607 4.553547-9.555494 10.019472-13.765524 15.561272-9.350815 12.306887-19.305962 24.048397-29.711931 35.37351-1.041921 1.133528-1.798878 2.986964-4.377653 2.251327 5.249302-8.589838 10.384795-17.035322 15.561754-25.453048 4.856707-7.894915 9.777818-15.746338 14.605411-23.659759.440236-.721757 1.836814-1.375966.677557-2.625161.192327.04164.384654.082354.576982.123068-.03176-.18414-.06352-.368281-.094398-.552421-.140277.177663-.27967.3544-.419945.531139-6.937901 4.080705-12.653906 9.849212-18.873667 14.926495-2.187945 1.785888-3.979765 4.570205-7.645454 4.408273 6.344156-9.582717 12.685666-18.717572 20.591379-26.606935-25.088135 11.217774-43.370702 31.317789-60.874258 52.441218-.385537-.403443-.771956-.807812-1.157493-1.211257 3.702743-5.54365 7.444304-11.060466 11.081762-16.650385.916642-1.409276 2.903437-2.783392 1.573908-4.763597-1.168962-1.740546-3.194575-1.191825-4.921993-.823544-9.111729 1.940417-16.726305 7.360074-24.764354 11.789627-5.711593 3.147047-10.763275 7.570124-16.911575 9.744649 1.040156-2.049605 3.158404-2.68068 4.833769-3.891937 25.457792-18.411289 48.493847-40.020516 72.505653-60.337985 10.522426-8.904448 20.851639-18.060587 31.315837-27.041839 4.52234-3.881758 7.66751-8.765649 10.213641-14.104804-1.132791-1.239015-1.782998-.166558-2.426148.226706-46.102987 28.173518-90.668238 58.867635-134.6750333 90.475979-.7366668.528363-1.355114 1.80902-2.5990662.929955l.1014571.071251c10.5038974-10.310026 21.7065254-19.768748 32.7979914-29.352388 19.735612-17.052904 39.390939-34.202967 58.58574-51.92581 1.067505-.985477 2.490551-1.679474 3.008423-3.521805-1.857987-.750443-2.974899.749516-4.223262 1.478676-31.68461 18.513075-63.356869 37.050208-95.7243302 54.234509-7.7319131 4.104763-15.5599899 8.011506-23.2486733 12.201398-2.6669983 1.453694-3.7856732 1.251973-4.8902322-2.004263-8.5109272-25.096797-14.2772193-50.836697-16.4007604-77.38256-4.5099886-56.395153 4.1491542-110.406658 28.5729654-161.047184 23.0475238-47.788661 56.6289407-85.9668454 99.2647417-115.3812309 11.547582-7.9661646 23.558339-15.0828765 36.179601-21.0327475 1.612727-.7606212 3.198986-1.5499276 5.036684-1.3685629-.333486 2.0301737-2.177357 2.3383086-3.458364 3.1997906-23.658913 15.9184495-43.979446 35.6066929-59.969085 59.8679167-33.308806 50.541516-43.3460008 106.401829-33.186175 166.472392 4.136803 24.456469 12.26131 47.530494 24.180314 69.085128 2.029142 3.669858 3.515709 3.823463 6.437673.756919 32.829752-34.455582 65.776842-68.789021 98.700111-103.146518 27.508109-28.706509 55.036507-57.391735 82.520793-86.122301 1.818288-1.900627 2.95196-3.215521 5.52103-.518184 19.627978 20.610797 39.411231 41.058737 59.191836 61.50945 41.137765 42.530937 82.299351 85.035964 123.464465 127.53729 3.942711 4.07145 4.043286 4.055721 6.607945-.900347 25.586599-49.450552 32.760056-101.926008 21.492143-156.699983-10.825032-52.62351-36.785698-95.5662176-78.729826-127.3013303-5.890687-4.4573139-12.006344-8.5870611-18.017016-12.8685622 2.072371.0027759 3.991235.4709928 5.925976 1.3815174 38.508703 18.1299878 70.696189 44.976583 97.745533 78.6641421 35.912284 44.726743 56.308689 96.614615 63.094845 154.44218 5.787467 49.308976.995163 97.422428-15.836129 144.065529-1.254539 3.479241-2.469377 3.88361-5.630428 2.55206-29.45873-12.409599-55.044445-31.056846-77.886408-53.839393-25.450733-25.384573-51.165255-50.430476-78.364579-73.755266-1.303062-1.117798-2.37498-2.797272-4.911408-2.629788 11.23439 16.511586 22.296742 32.771484 33.359095 49.031379-.214384.121218-.429649.243362-.644032.36458-7.771613-7.894914-15.569695-15.761144-23.306018-23.693071-7.231686-7.415593-14.367208-14.936674-22.620522-21.145638-.186152-.099936-.370539-.202646-.554926-.305358.015879.122144.032642.244286.049405.36643.187034-.05922.374068-.118442.560219-.177664" fill="#fefefe"/><path d="m438.726693 39.0842945c6.011554 4.2815012 12.126329 8.4112483 18.017017 12.8676369 41.944128 31.7360382 67.904794 74.6787456 78.729826 127.3013306 11.267912 54.773974 4.094455 107.250356-21.492143 156.700909-2.56466 4.956066-2.665235 4.970871-6.607945.900345-41.165114-42.501326-82.326701-85.007277-123.464466-127.538214-19.780605-20.449789-39.563857-40.898653-59.191835-61.508525-2.56907-2.697337-3.702743-1.383369-5.52103.517259-27.484288 28.731492-55.011803 57.416718-82.51991 86.123225-32.924152 34.357498-65.87036 68.690012-98.700994 103.145594-2.921965 3.066544-4.408532 2.913865-6.437674-.755995-11.919003-21.555558-20.043511-44.628658-24.179432-69.085126-10.1607075-60.071489-.123513-115.930877 33.185294-166.472393 15.989638-24.262149 36.310171-43.9494672 59.969084-59.8688419 1.281007-.8614821 3.124879-1.1686917 3.458364-3.1988654 12.803004-7.285122 26.475891-12.3189163 40.469031-16.2016004 54.087219-15.01070092 108.042104-14.67665686 161.675856 2.572417 11.319965 3.6402476 22.315267 8.2456144 32.610957 14.5008442" fill="#dc3131"/><path d="m84.9105038 433.243259c.3387785.340521.2990779.641254-.1155728.852229-.093517.047192-.2496727-.042565-.3767147-.069399.1993854-.236885.3987705-.472844.5963914-.709729-.0017645-.00185-.1041039-.073101-.1041039-.073101" fill="#fefefe"/><g fill="#1c2850"><path d="m409.707934 294.405379c-.187033.059222-.374067.118444-.56022.17859-.016762-.122144-.033524-.244288-.050286-.366432.184387.102712.368774.205424.554925.304434.001765-.002776.055581-.116592.055581-.116592"/><path d="m202.796064 395.410038c.092635.188766.212619.373834.253202.575555.013234.067549-.176448.179514-.27261.271122-.091754-.189694-.213502-.371983-.256731-.572779-.014116-.065698.175564-.180439.276139-.273898"/><path d="m207.643773 403.732824c.140275-.176737.279668-.3544.419944-.531139.030879.184142.062639.368282.094399.551497-.192328-.03979-.384655-.080504-.576982-.122144 0-.000926.062639.101786.062639.101786"/></g></g></g></svg>