<svg height="4096" viewBox="0 0 4096 4096" width="4096" xmlns="http://www.w3.org/2000/svg"><g fill="none" fill-rule="evenodd"><path d="m1271.56997 1454.96467c-215.39992 0-425.180174-.11457-634.960432.16849-22.819231.02696-44.691635 5.31753-64.520525 17.61052-48.819531 30.25397-56.271543 171.58292-10.735256 206.68264 29.167746 22.48323 86.67902 14.15311 89.103989-14.98882 2.39091-28.69039 16.661445-27.78054 37.362234-27.72663 157.650235.41786 315.29366.19545 472.93708.02022 12.915-.01348 26.73597 3.70677 32.91419-14.77989 18.99786-56.86182 43.87423-111.29065 77.89872-166.98653m876.57863-443.58554v-.53916c145.17799 0 290.35599-.3909 435.52717.3572 25.85725.13479 30.87748-9.94088 17.6832-28.784742-35.62525-50.877074-50.6587-109.05985-66.55042-167.606563-16.20506-59.699182-81.95169-126.110983-170.24509-123.260141-143.89739 4.643569-288.04681 1.381613-432.08725 1.462488-88.10266.047177-149.55111 45.215828-169.88406 129.885146-13.18066 54.893862-29.92385 107.354737-60.1406 155.765125-17.78538 28.494937-14.1343 32.619557 20.37383 32.659997 141.77214.14827 283.54427.06065 425.32322.06065m1096.39254 755.96498h-.18392c0 369.41649.08174 738.83297-.2316 1108.24946-.02043 18.60123-.19754 30.44941 25.78233 30.30252 26.50436-.15639 22.26067-14.86889 22.34922-30.01272.10899-16.84221.07493-33.68441.06131-50.52662-.0545-67.09249-.06131-68.0293 67.15665-68.17083 22.40372-.04717 28.68412-6.80697 28.01657-28.68364-1.60756-52.73046.20435-105.54853-.9332-158.30595-.38827-18.35861 3.88948-26.14956 24.01809-24.83534 25.99349 1.69837 52.21176-.2898 78.25974.84245 16.62739.72113 20.88471-5.5332 20.86435-21.34425-.44965-302.04766-.50414-604.09533-.08182-906.13625.02725-17.11179-3.92354-24.39053-22.50589-23.17067-22.60126 1.48945-45.59078-1.56358-68.01493.90984-27.68279 3.05977-32.79158-7.92574-32.69621-33.25981.83102-229.05804.45638-458.12281-.13624-687.180849-.0613-24.323137 10.19032-54.61754-5.83763-71.365391-13.48719-14.085718-43.18625-3.956132-65.58316-3.497841-17.9148.370677-23.39822-4.933371-22.83285-22.739336 1.26698-40.383551-.61987-80.861456.74929-121.238267.67436-19.841318-7.07737-23.561565-25.50986-24.59946-29.7808-1.678155-22.56039 18.021632-22.5672 33.253078-.19073 367.165466-.14304 734.337676-.14304 1101.509876m-1640.8594 1162.48284c31.69489 14.94839 58.72376 30.63812 89.574 31.35252 20.8779.48525 23.09851 10.1498 22.96909 26.90439-.53131 68.49433-.01362 136.98866 0 205.48973.04768 245.91372.35421 491.83418-.42233 737.7479-.07492 23.32568 5.00661 34.43251 30.60502 36.55547 59.8545 4.96033 119.62727 11.5449 179.13437 19.60544 29.88298 4.04374 37.93442-4.4953 37.83906-34.91776-.94683-304.30542-.14305-608.61758.0613-912.92301.05449-77.74777-.05449-76.23136 78.76381-78.83284 32.19896-1.06485 40.12098 9.20627 40.0188 39.9657-.99451 306.52274-.51769 613.04549-.47682 919.56823.01363 69.24916-.00681 67.9619 71.44123 68.27391 28.40483.12607 38.42486-5.86542 38.29543-36.88769-1.36234-318.90335-.32015-637.81344-1.84597-956.71679-.14986-31.60862 9.76118-36.697 38.13877-36.38698 97.57776 1.08507 195.21682.90984 292.77414-1.33444 81.22965-1.86012 152.17362-31.02901 210.54317-88.07954 12.25427-11.97623 24.76057-23.69636 43.57452-41.67081 0 25.4756.64711 40.9025-.19754 56.24851-.73567 13.4859 2.68381 18.95844 18.13958 20.60289 25.95943 2.76323 29.20181-10.73614 25.61203-29.56652-11.96136-62.74547 6.38258-113.35296 58.45811-152.0314 8.86203-6.58457 14.8904-16.84221 22.49227-25.17233 46.13571-50.56705 88.80427-103.99842 130.58049-159.56624 12.20659 14.16659 7.61549 28.15121 7.63593 40.84184.27247 212.22931.05449 424.45862.13623 636.68119.00682 14.44965-6.29402 31.35925 21.15037 31.28512 26.57248-.07414 22.09719-15.87845 22.08356-31.04924-.10899-138.12091-.25884-276.24182-.51088-414.35599-.07492-43.7803-.14985-45.46519 43.86061-43.42984 26.05479 1.20639 32.78476-6.79349 31.66083-31.92538-2.25467-50.439-.23841-101.05323-1.55988-151.55289-.53131-20.19851 2.73831-32.56564 26.96075-28.31971 19.45425 3.41697 27.70323-2.70931 27.649-24.84208-.73593-300.93563-.62013-601.87801-.09563-902.82038.03406-17.56334-4.79544-25.63062-22.70343-22.26757-28.57513 5.37145-32.08316-9.22648-32.01504-33.24633.68117-240.29966-.27928-480.60605 1.01494-720.905698.17711-32.936317-7.13186-48.69345-42.49145-41.482102-28.23454 5.74886-32.44418-8.222285-32.24664-32.990234 1.09669-138.107431.43595-276.228341.45639-414.349251 0-16.700675 4.20963-33.050891-24.27694-31.844506-29.32442 1.240082-18.47336 20.481577-18.48698 33.04415-.38146 306.556442-.12943 613.106145-.01363 919.662591.02725 78.63739.00682 157.28153.00682 242.75959-56.9391-92.86464-127.95799-165.49033-194.03159-241.82953-17.92161-20.71073-24.77419-39.91852-24.781-65.77828-.08855-233.566816-.89915-467.133629-1.95496-700.693702-.06131-13.607208 6.62098-31.608621-21.22529-31.352517-26.72916.242625-21.74298 16.188466-21.7498 31.062715-.09536 218.968887-.00681 437.937774-.36102 656.906664-.01362 9.00407 5.3472 19.52455-3.87586 27.89511-35.87047-41.38775-71.99297-81.63651-106.26269-123.37471-12.11122-14.75294-24.75376-19.28868-43.4519-19.25498-305.28726.55265-610.58132.56613-915.86858-.11457-21.16398-.04044-35.1893 5.52645-49.092 21.9508-94.68959 111.8096-190.56442 222.64196-286.04417 333.79782-59.27551 69.01328-107.47517 143.80238-135.92769 231.19448-60.379 185.44623-55.025 373.41306-26.08885 562.4043 4.54341 29.6811-5.85126 45.25627-31.57228 57.64361-38.26819-158.59575-40.05286-317.04996-23.20069-478.11914-120.0564 0-240.25585-3.92917-360.026161 1.42206-76.481889 3.41696-137.181044 65.46826-137.821344 133.43016-1.730175 182.99976-.108988 366.02648.115799 549.04646.034058 27.48399 12.179339 49.00347 30.795744 68.73021 25.789137 27.32899 58.444479 31.58166 93.272756 31.56144 145.266545-.10109 290.560336 1.60402 435.779196-1.01093 40.0188-.72114 53.78527 19.65935 67.44275 49.47524-174.22313 0-345.585334.05392-516.954355-.10109-12.397313-.01348-25.067095-.14827-37.15107-2.53409-77.006391-15.25166-123.761974-74.47907-124.191112-161.33201-.885522-177.41265-.211163-354.83878-.013623-532.25817.006812-8.90972.83784-17.95424 2.506709-26.70895 17.056524-89.47463 100.622592-156.58061 197.730342-157.07934 110.084058-.57286 220.168119.67396 330.252179.22915 11.55947-.04718 30.38704 7.81791 32.53954-13.47916 1.82554-18.08229 12.2747-35.32213 6.90707-55.29824-154.258 0-307.432941.29654-460.60107-.41785-17.172323-.08088-22.37647 8.33686-29.222239 21.18923-22.035885 41.36079-64.97691 57.32685-116.630113 45.42476-44.902797-10.35199-72.762695-44.81146-73.743581-92.48723-.687983-33.67767-.531313-67.37556-.415514-101.05997.23841-70.71839 41.067804-109.67315 113.101646-106.93015 218.928385 8.33012 437.938511 5.04795 656.928201 5.47928 19.09323.04044 30.93198-6.55087 42.77754-20.75116 45.46136-54.50971 92.3668-107.83999 138.52977-161.78357 54.11223-63.23072 108.02011-126.63667 158.33821-185.66189-33.14578-62.48937-89.71023-48.08015-141.41111-49.29327-12.47224-.28981-24.96492-.12132-37.45079-.18871-53.65584-.2898-54.01005-.29654-54.08498-53.208969-.34059-233.566813-.66074-467.133626-.34059-700.700439.03406-23.042617-1.88684-32.235401-29.01788-20.960087-92.95261 38.644739-183.72547 81.286049-270.60203 132.028331-704.358142 411.417535-1084.2063838 1222.620094-934.028596 2027.224604 115.94213 621.21386 472.49432 1075.14465 1031.054606 1376.05333 41.19042 22.19343 83.59332 42.91089 132.71256 59.26111v-1198.64742c55.07268 31.6895 51.02653 84.23125 49.0307 136.21361-.51769 13.45894-.24523 26.94483-.25885 40.42399-.36783 337.98983-.49044 675.98641-1.58032 1013.97624-.07492 23.03588 6.77766 33.36091 29.46747 39.92526 50.92435 14.74619 100.49998 34.02139 151.28809 49.27305 75.91652 22.79999 76.16855 22.00472 76.16855-56.43048.00681-308.78051.00681-617.56101.00681-931.50403m1972.68508-2228.394265c-8.26942-3.228258-11.33469-18.581017-20.60543-14.227249-12.40412 5.829734-5.45618 20.124379-5.46299 30.395496-.25885 633.277698-.12261 1266.555398-.07493 1899.839838.01362 213.3346-.18392 426.67594.06812 640.01728.01362 10.45983-4.35269 22.04516 6.13735 34.52012 39.77358-42.54021 70.31048-90.46535 101.98493-137.40651 3.73282-5.5332 1.21249-15.35276 1.2193-23.17741.08855-114.53239.63349-229.06478-.32015-343.58368-.18392-21.69471 3.03802-34.14945 28.48657-30.07874 29.79443 4.75814 39.88938-5.99823 39.76677-37.97078-1.40321-359.30712-1.50539-718.61424-.47001-1077.92136.10218-34.05509-4.91124-53.76161-44.52815-46.14589-26.3477 5.06816-22.37647-13.48589-22.37647-28.86561-.04087-243.65596-.21116-487.31192.04087-730.967884.02044-18.917995.13623-32.538682-24.20201-39.992655-26.31364-8.053796-4.63196-40.808145-23.17344-56.747247 28.05063 14.752936 43.31567 39.541104 60.55611 61.977159 232.18398 302.175717 373.32262 640.900167 410.45326 1019.489217 65.6717 669.42879-134.29288 1247.68458-622.97182 1718.7339-302.56257 291.6485-666.47822 474.9448-1086.29759 533.75436-518.93656 72.69982-1004.54342-26.13609-1442.372947-316.1536-479.019939-317.29933-783.101521-757.09049-892.1501989-1318.31537-94.9348135-488.54526-22.2061773-957.21551 228.9824709-1390.34797 284.28675-490.216676 700.44141-826.454219 1254.730755-972.831112 640.43024-169.1162292 1231.67992-53.7683528 1762.12147 345.23488 108.63316 81.717382 208.39067 173.166715 298.2167 275.008477-2.58845 1.92078-5.17009 3.84156-7.75854 5.76234" fill="#dfd5c9"/><path d="m3584.12536 695.668324c10.95323 12.387344 21.90646 24.774688 38.54066 43.58485-28.51383-6.678922-36.59933-23.170669-46.2992-37.822511 2.58845-1.92078 5.17009-3.84156 7.75854-5.762339" fill="#dfd5c9"/><path d="m1402.1096 1157.10801c-12.47906 1.61784-18.18046 9.86035-17.47885 22.71946.59943 11.12704 5.37444 19.77392 18.0919 19.29541 12.98312-.49199 21.70892-8.83558 21.54544-20.95335-.14985-11.42358-6.72316-21.12857-22.15849-21.06152m-235.26287-53.15471v-.47177c42.93421 0 85.86843-.04044 128.80264.02696 10.74207.01348 20.12179-.17523 20.83702-15.036.76292-15.8717-10.44916-12.36038-18.12596-11.34271-23.33692 3.08673-37.88673-8.28968-51.31943-25.28015-10.16988-12.8726-20.57818-27.46378-39.84169-28.33993-64.18676-2.91824-129.4157-10.19024-174.55009 51.81388-5.69459 7.81791-11.32107 14.00484-8.36479 22.88086 3.43311 10.2846 13.51444 5.44558 20.54412 5.52646 40.67273.45155 81.34546.2224 122.01818.2224m-331.560023 321.65984c35.202921-32.9498 60.222335-60.40684 62.483823-108.23762 3.330927-70.52295 31.163577-130.72086 139.68094-126.1312 99.21938 4.20549 198.75891.89636 298.87744.89636-9.67263-30.30788-26.77003-43.14004-59.83407-42.26389-88.44325 2.33863-177.02955 2.29819-265.49324.31676-59.936244-1.34118-104.437151 20.35352-133.863742 74.37124-6.464313-11.03943-11.641214-20.93313-17.785377-30.19331-25.400869-38.33472-69.547567-54.13229-112.815554-40.72053-39.596475 12.26603-61.523372 43.52419-61.475768 90.12164.04776 46.02457.797048 92.06937 2.540846 138.06025.422326 11.11356-4.61834 31.50079 9.420596 31.3323 16.477528-.20219 11.859189-21.17576 12.363255-33.19916 1.655246-39.23783 1.151179-78.57 1.811915-117.855.728853-43.11308 26.082041-70.66448 64.663571-70.77905 36.394971-.10783 58.321868 23.39308 59.173332 66.74204 1.049003 53.54595.252033 107.13233.252033 167.53917m1284.177783 1304.43183c415.28957 5.51297 762.9048-330.33367 769.49853-743.44284 6.6891-419.12762-335.87184-769.95634-757.6734-775.94783-421.27026-5.98474-775.1182 332.53078-781.2828 747.43267-6.30764 424.45862 334.31196 766.18892 769.45767 771.958m-515.78275 199.78131c0 313.94976 0 622.72352-.00681 931.50402 0 78.43521-.25203 79.23048-76.16855 56.43049-50.78811-15.25167-100.36374-34.52686-151.28809-49.27306-22.68981-6.56434-29.54239-16.88938-29.46747-39.91852 1.08988-337.99657 1.21249-675.9864 1.58032-1013.98298.01362-13.47241-.25884-26.96505.25885-40.42398 1.99583-51.98237 6.04198-104.51738-49.0307-136.21361v1198.64741c-49.11924-16.35021-91.52214-37.06768-132.71256-59.25437-558.560286-300.91541-915.112476-754.84621-1031.054606-1376.06006-150.1777878-804.60451 229.670454-1615.807073 934.028596-2027.224608 86.87656-50.742282 177.64942-93.383592 270.60203-132.028331 27.13104-11.275314 29.05194-2.08253 29.01788 20.960087-.32015 233.566813 0 467.133626.34059 700.700439.07493 52.912423.42914 52.919163 54.08498 53.208963 12.48587.07414 24.97855-.10109 37.45079.18871 51.70088 1.21313 108.26533-13.19609 141.41111 49.29328-50.3181 59.02522-104.22598 122.43117-158.33821 185.66189-46.16297 53.94358-93.06841 107.27386-138.52977 161.78357-11.84556 14.20703-23.68431 20.7916-42.77754 20.7579-218.98969-.43808-437.999816 2.8441-656.928201-5.48602-72.033842-2.73627-112.863236 36.21175-113.101646 106.93014-.115799 33.68441-.272469 67.3823.415514 101.05998.980886 47.67577 28.840784 82.13523 73.743581 92.48722 51.653203 11.9021 94.594228-4.06396 116.630113-45.42475 6.845769-12.85238 12.049916-21.27011 29.222239-21.18923 153.168129.71439 306.34307.41785 460.60107.41785 5.36763 19.97611-5.08153 37.21595-6.90707 55.29824-2.1525 21.29706-20.98007 13.43197-32.53954 13.47915-110.08406.44481-220.168121-.80201-330.252179-.22914-97.10775.49872-180.673818 67.6047-197.730342 157.07934-1.668869 8.75471-2.499897 17.79922-2.506709 26.70895-.19754 177.41939-.871899 354.84551.013623 532.25816.429138 86.85294 47.184721 146.08036 124.191112 161.33202 12.083975 2.39255 24.753757 2.5206 37.15107 2.53408 171.369021.15501 342.731225.1011 516.954355.1011-13.65748-29.8159-27.42395-50.18964-67.44275-49.47525-145.21886 2.61496-290.512651.91659-435.779196 1.01094-34.828277.02022-67.483619-4.23245-93.272756-31.56144-18.616405-19.72675-30.761686-41.24622-30.795744-68.73022-.224787-183.01998-1.845974-366.0467-.115799-549.04645.6403-67.96191 61.339455-130.0132 137.821344-133.43017 119.770311-5.35122 239.969761-1.42205 360.026161-1.42205-16.85217 161.06917-15.0675 319.53013 23.20069 478.11914 25.72102-12.38735 36.11569-27.96251 31.57228-57.64361-28.93615-188.99125-34.29015-376.95808 26.08885-562.39756 28.45252-87.39885 76.65218-162.18794 135.92769-231.20122 95.47975-111.15586 191.35458-221.98148 286.04417-333.79782 13.9027-16.42435 27.92802-21.99124 49.092-21.94406 305.28726.67395 610.58132.66047 915.86858.10783 18.69814-.0337 31.34068 4.50204 43.4519 19.25497 34.26972 41.73821 70.39222 81.98697 106.26269 123.37472 9.22306-8.37056 3.86224-18.89104 3.87586-27.89512.35421-218.968884.26566-437.937771.36102-656.906658.00682-14.874249-4.97936-30.82009 21.7498-31.062715 27.84627-.256104 21.16398 17.752048 21.22529 31.352517 1.05581 233.560073 1.86641 467.126886 1.95496 700.693696.00681 25.85976 6.85939 45.06756 24.781 65.77828 66.0736 76.3392 137.09249 148.97163 194.03159 241.82954 0-85.47807.02043-164.11546-.00682-242.7596-.1158-306.549701-.36783-613.106143.01363-919.662585.01362-12.562573-10.83744-31.804068 18.48698-33.04415 28.48657-1.206385 24.27694 15.150571 24.27694 31.844506-.02044 138.12091.6403 276.24182-.45639 414.349251-.19754 24.767949 4.0121 38.739094 32.24664 32.990234 35.35959-7.211348 42.66856 8.545785 42.49145 41.482102-1.29422 240.299652-.33377 480.606042-1.01494 720.905692-.06812 24.01986 3.43991 38.61778 32.01504 33.24634 17.90799-3.36305 22.73749 4.70423 22.70343 22.2743-.5245 300.93564-.6403 601.87801.09563 902.81365.05423 22.13277-8.19475 28.25905-27.649 24.84208-24.22244-4.24593-27.49206 8.12119-26.96075 28.31971 1.32147 50.49965-.69479 101.11388 1.55988 151.55289 1.12393 25.13188-5.60604 33.13176-31.66083 31.92538-44.01046-2.03536-43.93553-.35046-43.86061 43.42984.25204 138.11417.40189 276.23508.51088 414.35599.01363 15.17079 4.48892 30.9751-22.08356 31.04923-27.44439.07414-21.14355-16.83546-21.15037-31.27838-.08174-212.22931.13624-424.45862-.13623-636.68793-.02044-12.69062 4.57066-26.66851-7.63593-40.8351-41.77622 55.56108-84.44478 108.99246-130.58049 159.55951-7.60187 8.33012-13.63024 18.5945-22.49227 25.17906-52.07553 38.6717-70.41947 89.28593-58.45811 152.02466 3.58978 18.83038.3474 32.32976-25.61203 29.56653-15.45577-1.64446-18.87525-7.11699-18.13958-20.60289.84465-15.34602.19754-30.77291.19754-56.24852-18.81395 17.97446-31.32025 29.69458-43.57452 41.67081-58.36955 57.05053-129.31352 86.21942-210.54317 88.08629-97.55732 2.23754-195.19638 2.41277-292.77414 1.33443-28.37759-.31676-38.28863 4.77163-38.13877 36.38699 1.52582 318.8966.48363 637.80669 1.84597 956.71004.12943 31.02228-9.8906 37.01376-38.29543 36.89424-71.44804-.31855-71.4276.96871-71.44123-68.28045-.04087-306.52275-.51769-613.04549.47682-919.56824.10218-30.75943-7.81984-41.03055-40.0188-39.96569-78.8183 2.60821-78.70932 1.08507-78.76381 78.83284-.20435 304.30542-1.00813 608.61759-.0613 912.92301.09536 30.42245-7.95608 38.9615-37.83906 34.91775-59.5071-8.05379-119.27987-14.6451-179.13437-19.60543-25.59841-2.11623-30.67994-13.22979-30.60502-36.55547.77654-245.91372.47001-491.83418.42233-737.7479-.01362-68.49433-.53131-136.9954 0-205.48973.12942-16.75459-2.09119-26.41915-22.96909-26.9044-30.85024-.70765-57.87911-16.40413-89.574-31.35251m1640.85599-1162.48217c0-367.1722-.04087-734.34441.14305-1101.509876.00681-15.231446-7.2136-34.931233 22.56719-33.253078 18.43931 1.037895 26.19103 4.758142 25.51667 24.59946-1.36915 40.376811.51769 80.854716-.7561 121.238267-.55856 17.805965 4.91806 23.110013 22.83967 22.739336 22.39009-.458291 52.09596-10.587877 65.57634 3.497841 16.02796 16.747851 5.77633 47.042254 5.83764 71.365391.59261 229.058039.96726 458.122809.13623 687.180849-.08855 25.33407 5.01342 36.31958 32.70302 33.25981 22.41734-2.47342 45.41368.57961 68.00812-.90984 18.58235-1.21986 22.53314 6.05888 22.51271 23.17067-.42914 302.04092-.36783 604.08859.075 906.13625.02036 15.81105-4.23014 22.06538-20.85753 21.34425-26.05479-1.13225-52.27307.85592-78.26656-.84245-20.12179-1.31422-24.40636 6.47673-24.01128 24.83534 1.13075 52.75742-.68117 105.57549.93321 158.30595.66754 21.87667-5.61285 28.63647-28.01657 28.68364-67.22477.14153-67.21796 1.07834-67.15666 68.17083.01363 16.84221.04087 33.68441-.0613 50.52662-.09537 15.14383 4.15514 29.85633-22.35604 30.01272-25.97986.14689-25.79595-11.70129-25.78232-30.30252.31334-369.41649.23841-738.83297.23841-1108.24946z" fill="#0e0f13"/><path d="m2148.14792 1011.38116c-141.77214 0-283.55109.08761-425.32322-.06066-34.50132-.04044-38.15921-4.16506-20.37383-32.659995 30.21675-48.410388 46.95993-100.878002 60.14059-155.765125 20.33296-84.669318 81.7814-129.837969 169.88407-129.891886 144.04044-.074135 288.19667 3.181081 432.08725-1.462488 88.30021-2.844102 154.04003 63.567699 170.24509 123.26688 15.89853 58.539974 30.92517 116.72949 66.55042 167.599825 13.19428 18.850599 8.17405 28.919529-17.6832 28.791479-145.17119-.7481-290.34918-.36394-435.52717-.36394zm-876.57795 443.58351c-34.02449 55.69588-58.90086 110.12471-77.89872 166.98653-6.17822 18.48666-19.99919 14.76641-32.91419 14.77989-157.64342.17523-315.286845.39764-472.93708-.02022-20.700789-.05391-34.971324-.96376-37.362234 27.72663-2.424969 29.14193-59.936243 37.47205-89.103989 14.98882-45.536287-35.09972-38.084275-176.42867 10.735256-206.68264 19.82889-12.29299 41.701294-17.58356 64.520525-17.61052 209.780258-.28306 419.560512-.16849 634.960432-.16849" fill="#0e0f13"/><path d="m2680.75967 1978.27605c2.24106-311.21349-249.31542-568.59797-557.59302-570.5227-307.94382-1.90335-570.39223 253.45252-573.55967 558.0747-3.17426 305.12765 250.02384 563.46915 554.66399 565.9291 324.9186 2.62844 574.20678-236.70746 576.4887-553.4811m-561.29859 751.77296c-435.14571-5.77582-775.76531-347.50611-769.45766-771.96473 6.16459-414.9019 360.01254-753.41068 781.2896-747.42594 421.80157 5.99149 764.36251 356.81348 757.6666 775.94783-6.59374 413.10917-354.20215 748.94908-769.49854 743.44284m-1284.175054-1304.43318c0-60.41357.79697-113.99322-.252034-167.5459-.851463-43.34897-22.77836-66.84314-59.173331-66.7353-38.58153.10783-63.934718 27.66596-64.663571 70.77904-.660736 39.285-.156669 78.61044-1.811915 117.855-.504067 12.02341 4.114273 32.99698-12.363255 33.19242-14.038936.17523-8.99827-20.21199-9.420596-31.33229-1.743798-45.98414-2.493086-92.02894-2.540846-138.06026-.047604-46.5907 21.879293-77.84886 61.475768-90.12163 43.267987-13.40502 87.414684 2.39255 112.815554 40.72053 6.144163 9.26692 11.321063 19.16062 17.785377 30.20005 29.426591-54.02446 73.927497-75.71242 133.863743-74.37125 88.46369 1.98144 177.04998 2.02188 265.50005-.3235 33.05723-.87614 50.15463 11.95601 59.82726 42.2639-100.11853 0-199.65806 3.30913-298.87063-.88963-108.524174-4.59639-136.356824 55.60826-139.687751 126.12446-2.261488 47.83079-27.280902 75.29457-62.483823 108.24436m371.570654-349.00836c-.10218-3.36305-.19754-6.73284-.29972-10.09589-37.38948-4.54922-74.71765-6.73958-111.61669 10.09589zm-40.00518 27.34246c-40.67273 0-81.35226.23589-122.01818-.2224-7.02968-.07414-17.11783 4.75814-20.54412-5.51972-2.96309-8.88276 2.67019-15.06295 8.36478-22.8876 45.1344-62.00412 110.35653-54.73212 174.54328-51.81388 19.26352.87615 29.67181 15.47407 39.84851 28.33993 13.43269 16.99721 27.98251 28.36688 51.31943 25.28015 7.66999-1.01767 18.88887-4.52225 18.12596 11.34271-.71523 14.86751-10.09495 15.05622-20.83702 15.036-42.93421-.06739-85.86843-.02696-128.80264-.02696zm235.2581 53.15808c15.43533-.06705 22.00864 9.63794 22.15849 21.06152.16348 12.11777-8.56232 20.46136-21.54544 20.95335-12.71746.47851-17.49247-8.16837-18.0919-19.29541-.70161-12.85911 4.99979-21.10162 17.47885-22.71946" fill="#dfd5c9"/><path d="m1979.84417 1624.87887c58.60115-21.08814 138.36628-24.51185 194.94435-20.13112-58.56028-24.84208-137.07206-9.79261-194.94435 20.13112m-177.1726 539.25385c-24.98535 46.48287 2.60889 74.12862 28.46614 100.83082 162.15959 167.46504 446.02401 158.74402 596.57644-18.8169 73.61416-86.81924 110.64943-182.04948 58.3355-294.82283 5.68777 103.90407-64.24806 260.9295-185.07419 326.76169-69.93583 38.10558-143.04592 53.3505-221.93235 46.24025-117.01156-10.54744-204.43306-71.89108-276.37154-160.19303m878.09083-185.85734c-2.28192 316.77364-251.5701 556.10953-576.49552 553.48784-304.64014-2.46669-557.83143-260.80145-554.65718-565.93584 3.16064-304.62218 265.60904-559.97805 573.55286-558.0747 308.28441 1.92473 559.84089 259.30921 557.59984 570.5227m-1473.90572-901.66791h-111.91641c36.89904-16.83547 74.22721-14.64511 111.61669-10.09589.10218 3.36305.19754 6.73284.29972 10.09589" fill="#0e0f13"/><path d="m1802.66817 2164.13474c71.93847 88.30195 159.35997 149.64559 276.37154 160.19303 78.89323 7.11025 151.99651-8.13467 221.93235-46.24025 120.83294-65.83893 190.76196-222.85762 185.07418-326.76169 52.32075 112.76662 15.28548 208.00359-58.32868 294.8161-150.55924 177.56766-434.42367 186.28193-596.58326 18.82364-25.85725-26.70895-53.45149-54.34796-28.46613-100.83083m177.176-539.25587c57.87229-29.92373 136.38407-44.9732 194.94435-20.13112-56.57807-4.38073-136.3432-.95702-194.94435 20.13112" fill="#dfd5c9"/></g></svg>