<svg height="2054" viewBox="0 0 2048 2054" width="2048" xmlns="http://www.w3.org/2000/svg" xmlns:xlink="http://www.w3.org/1999/xlink"><mask id="a" fill="#fff"><path d="m0 0h564.859v952.121h-564.859z" fill="#fff" fill-rule="evenodd"/></mask><g fill="none" fill-rule="evenodd"><path d="m316.967649 881.729359c-5.843412-2.466731-11.675861-7.056678-17.533891-7.085913-88.272432-.460457-176.552174-.317935-264.8282603-.321589-26.27160071-.003654-25.64304105.09136-21.1627263-26.319108 12.0084128-70.749505 30.9967613-139.503698 58.1490765-205.908102 40.6626931-99.425712 94.3643451-190.742273 163.9334731-273.229764 64.273879-76.205549 137.45357-141.7804 219.681598-197.426201 110.42916-74.7255099 231.774062-124.1661117 362.123447-151.1941767 85.889753-17.80797192 173.131639-23.28959678 260.494124-18.70330398 118.1619 6.20154492 232.41724 31.97979938 341.80123 77.77694788 17.7897 7.4513554 35.00201 16.2840803 52.48108 24.4809368 5.64242 8.014135 5.27698 17.234228 5.28063 26.381233.01462 115.695174.05847 231.394003-.03289 347.092832-.02192 30.711717-2.69696 33.437911-33.29904 33.452529-199.73214.095015-399.46062.03289-599.19276.051162-32.421984.003654-32.44391.029235-32.44391 31.84824-.010963 147.970982-.003654 295.941963-.003654 443.912945 0 4.261049.197338 8.536717-.003655 12.786803-.602979 13.00972 4.845757 15.44356 16.87975 11.75991 43.162314-13.207059 87.026277-23.340756 132.183902-26.911121 106.303327-8.405158 208.747587 6.084604 306.433797 50.511351 104.4286 47.48914 190.05158 118.27884 256.78123 210.88176 70.86645 98.344 111.66435 208.12998 121.53859 329.90245 6.9507 85.718-2.22554 168.77558-26.52376 250.7478-3.84079 12.95125-8.52575 25.35068-16.29504 36.46742-43.36696 25.98656-86.6718 52.07544-130.1959 77.79887-4.45839 2.63484-10.21775 3.06971-15.37413 4.52783-6.38427-8.21879-.0804-14.96118 3.00393-21.66704 31.78977-69.16714 47.48914-142.58437 45.57423-217.83612-4.41088-173.42764-77.46998-312.53667-218.7753-414.6301-82.54231-59.64008-175.55452-91.13019-276.66127-89.33221-189.94926 3.37668-337.690013 87.36613-439.282794 247.81695-60.597536 95.70917-86.046893 201.91382-77.312837 315.40904 3.464387 45.06626 13.017032 88.91561 29.863892 131.09488 2.87968 7.21017 9.717094 14.61401 3.482659 23.48694-9.453976-4.96635-19.554783-9.00814-28.24864-15.06351-34.168795-23.7939-67.891751-48.21637-101.78281-72.40861-17.544854-32.28311-20.607255-68.34855-26.330072-103.58809-2.12687-13.08647-4.940771-26.34103-4.125836-39.82949.018272-2.95642.182721-5.9165.208302-8.87292-.15714-2.8943-.28139-5.7959-.522582-8.69386-.193684-1.94049-.442184-3.86637-.87706-5.77763-5.357375-18.88237-.380059-37.54182 1.099979-56.28167.076743-4.06371.025581-8.12011-.105978-12.18382 6.965318-99.30877 35.177414-192.2954 83.441294-279.25225 23.709855-42.71647 51.461494-82.57885 84.161214-118.98049 5.569331-6.20155 11.661243-12.21671 15.93691-21.08964-6.683928-3.03316-13.356892-1.65545-19.682687-1.67007-62.680553-.13156-125.361106.03655-188.041659-.13156-27.605463-.07674-30.733644-3.09163-30.792115-30.1672-.168103-80.32774-.105978-160.655466-.007308-240.983197.007308-7.846032-.723575-15.9698 4.904227-22.650074" fill="#f9f9f9"/><path d="m1603.41072 1862.68294c8.65366-32.11867 19.58767-63.81708 25.59919-96.42544 44.8068-243.04793-20.12487-451.4045-201.5228-620.72458-91.43351-85.34524-200.92348-135.6556-324.68395-153.277193-94.78461-13.49576-188.016082-5.335448-278.810062 26.253333-4.984624 1.73584-10.170241 2.89429-16.444874 4.65572 0-30.02103.003654-58.598567 0-87.176105-.021927-136.985805.211956-273.971611-.432145-410.957416-.072165-15.352204 4.174267-19.141834 19.234118-19.112598 208.217693.394677 416.439043-.014618 624.656733.369096 16.01365.029235 21.45143-3.325519 21.34545-20.771704-.78205-127.235822-.31794-254.478953-.24485-381.718429 131.91348 64.694137 244.38911 154.077512 338.23087 266.951476 129.35904 155.597749 208.0167 333.757866 230.69967 534.798285 29.90043 264.992705-36.83287 505.160965-194.01298 720.270885-67.74192 92.7089-149.82377 170.85494-243.61437 236.86467" fill="#f00"/><path d="m527.731374 1919.35271c-126.917888-299.53791 66.031653-652.22566 386.724979-713.58331 290.906177-55.66042 545.589777 154.83398 589.245437 414.19888 18.02358 107.08537 5.0431 210.71001-39.76005 310.00416-2.22554 4.92616-4.07833 10.02041-6.10288 15.03793-40.18031 18.1259-79.13639 39.94277-120.74558 53.78204-267.63119 89.03256-527.288454 68.90768-777.879107-61.48921-10.707441-5.57298-20.998278-11.94994-31.482799-17.95049" fill="#000"/><path d="m370.644816 802.315284c9.0191 49.933948 18.0382 99.87155 27.0573 149.805498-205.363594-163.213553-334.7701391-372.629895-382.3104443-631.231029-18.81659091-102.352899-19.20395907-205.524388-7.52078929-308.7762738.43852999-3.87002718 4.27566739-7.35268617 6.53044239-11.01441158 4.5972561-1.52023729 9.2127842-1.35944296 13.8392756-.15348549 90.1946556.24119149 180.3856566.47507415 270.5803116.73088331 6.051714.01461767 12.099774.19733849 18.147833.29600774-.102324 92.49693792.113287 185.00483882-.643177 277.50177682-.116942 13.959871 7.316142 12.205751 15.87844 12.198443 76.63677-.062125 153.269885-.036545 232.654776-.036545-115.724409 121.801705-182.355387 264.166811-194.027593 430.925148l-.920913.957457.756464 1.089017c-.423912 21.477006-.847825 42.954012-1.271737 64.431018 0 0 .098669.087706.098669.087706.354479 4.144109.708957 8.288217 1.063436 12.43598z" fill="#1e90ff" mask="url(#a)" transform="translate(0 879.76)"/><path d="m28.2398695 880.70795c-4.6155281.051162-9.2310563.102324-13.84293.153485 4.6155282-.051161 9.2310563-.102323 13.84293-.153485" fill="#f3f3f2"/><path d="m370.668569 1604.36758c-.274081-.67607-.548162-1.35213-.825898-2.03186.328898-.01461.654141-.03289.983038-.03289.639523.79667.588361 1.48004-.15714 2.06475m-.023753 77.70861-.953803-.29966s.862442-.46777.866097-.46046c0 .00731.087706.76012.087706.76012m-1.151507-13.18879s-.098669-.0804-.098669-.08405c0-.00366.098669.08405.098669.08405" fill="#d94442"/></g></svg>