<svg height="4096" viewBox="0 0 4096 4096" width="4096" xmlns="http://www.w3.org/2000/svg"><g fill="none" fill-rule="evenodd"><circle cx="2048" cy="2048" fill="#fff" r="1798" stroke="#00b140" stroke-opacity=".66" stroke-width="500"/><path d="m1216 3072c-106.00038 0-192-85.91974-192-192v-1664c0-106.00038 85.99962-192 192-192h1664c106.08026 0 192 85.99962 192 192v1664c0 106.08026-85.91974 192-192 192zm621.28128-1517.28128c24.96102 25.0409 24.96102 65.51962 0 90.56051l-240.00512 240.00512c-12.00005 12.00005-28.31974 18.71995-45.27923 18.71995s-33.28-6.7199-45.27923-18.71995l-143.99898-143.99897c-24.96102-25.0409-24.96102-65.51962 0-90.56052 25.0409-24.96102 65.51962-24.96102 90.56051 0l98.71975 98.79962 194.71974-194.79962c25.0409-24.96102 65.51962-24.96102 90.56051 0zm210.71872 109.27923c-35.36077 0-64 28.63923-64 64s28.63923 64 64 64h640c35.36077 0 64-28.63923 64-64s-28.63923-64-64-64zm-64 704c0-35.36077 28.63923-64 64-64h640c35.36077 0 64 28.63923 64 64s-28.63923 64-64 64h-640c-35.36077 0-64-28.63923-64-64zm-146.72077-82.72077c24.96103-25.04089 24.96103-65.51961 0-90.56051-25.04089-24.96102-65.51961-24.96102-90.56051 0l-194.71974 194.79962-98.71975-98.79962c-25.04089-24.96102-65.51961-24.96102-90.56051 0-24.96102 25.0409-24.96102 65.51962 0 90.56051l143.99898 143.99898c12.00005 12.00005 28.31974 18.71995 45.27923 18.71995s33.28-6.7199 45.27923-18.71995z" fill="#00b140"/></g></svg>