<svg xmlns="http://www.w3.org/2000/svg" width="4096" height="4096" viewBox="0 0 4096 4096"><g fill="none" fill-rule="evenodd"><circle cx="2048" cy="2048" r="1798" fill="#FFF" stroke="#F56A01" stroke-opacity=".66" stroke-width="500"/><g fill="#F56A01" transform="translate(1024 1024)"><path d="M1134.66162,714.755982 C1007.9455,668.228888 858.138411,708.763969 772.48344,813.009927 C728.688191,866.322646 702.427735,930.208576 696.700109,999.118305 C691.236643,1066.53014 707.8912,1135.87977 742.963268,1193.68616 C814.780799,1311.9428 955.153889,1372.12912 1090.32046,1345.25282 C1220.29629,1319.52249 1326.91496,1209.54936 1347.44328,1078.4298 C1350.2631,1060.36533 1352.02538,1042.47592 1352.02538,1024.2373 L1352.02538,1023.53234 C1351.23222,885.712883 1263.7288,762.34897 1134.635,714.750343 L1134.66162,714.755982 Z M1134.66162,714.755982 C1007.9455,668.228888 858.138411,708.763969 772.48344,813.009927 C728.688191,866.322646 702.427735,930.208576 696.700109,999.118305 C691.236643,1066.53014 707.8912,1135.87977 742.963268,1193.68616 C814.780799,1311.9428 955.153889,1372.12912 1090.32046,1345.25282 C1220.29629,1319.52249 1326.91496,1209.54936 1347.44328,1078.4298 C1350.2631,1060.36533 1352.02538,1042.47592 1352.02538,1024.2373 L1352.02538,1023.53234 C1351.23222,885.712883 1263.7288,762.34897 1134.635,714.750343 L1134.66162,714.755982 Z M1983.94747,666.291105 C1954.4273,587.599971 1915.65585,512.962616 1868.07075,443.788951 C1918.29971,387.832365 1929.31282,304.735538 1896.70889,236.004022 C1863.929,166.830358 1785.67775,123.914894 1709.89668,132.4646 C1670.50712,137.046701 1633.05761,152.996527 1603.71339,179.167652 C1475.76332,91.1372606 1327.00971,32.360851 1172.79918,10.5060877 C1002.7277,-13.4624156 827.630173,3.2803453 666.291127,63.8188065 C587.599993,93.3389791 512.962638,132.11043 443.788974,179.695523 C387.832388,129.466563 304.735561,118.453459 236.004045,151.057391 C166.83038,183.83728 123.914916,262.088521 132.464622,337.869597 C137.046724,377.259154 152.99655,414.708671 179.167674,444.052887 C91.1372832,572.002961 32.360851,720.756568 10.5060877,874.967098 C-13.4624156,1045.03857 3.2803453,1220.1361 63.8188065,1381.20445 C93.3389791,1459.89558 132.110453,1534.53294 179.695545,1603.7066 C129.466586,1659.66319 118.453481,1742.76001 151.057413,1811.49153 C183.837302,1880.66519 262.088544,1923.58066 337.86962,1915.03095 C377.259176,1910.44885 414.708694,1894.49902 444.052909,1868.3279 C572.266919,1956.62448 720.9145,2015.48661 875.125031,2037.51733 C1045.19651,2061.48584 1220.29404,2044.74308 1381.63308,1984.20462 C1460.32422,1954.68444 1534.96157,1916.17693 1604.13524,1868.3279 C1660.09182,1918.55686 1743.18865,1929.56996 1811.92016,1896.96603 C1881.09383,1864.18614 1924.00929,1785.9349 1915.45959,1710.15382 C1910.87726,1670.76427 1894.92766,1633.31475 1868.75653,1603.97054 C1957.05312,1475.75653 2015.91525,1327.10894 2037.94597,1172.89841 C2061.20839,1002.73896 2044.46676,827.391029 1983.92942,666.300128 L1983.94747,666.291105 Z M292.057407,298.490192 C292.938546,297.432871 293.81991,296.022734 294.877231,294.965412 C296.815916,292.76234 299.459332,291.000063 301.926791,289.501947 C307.918804,285.977167 308.976351,286.15335 314.704202,285.536598 C319.727098,284.831642 322.458718,284.655459 328.098366,286.241554 C330.742007,287.299101 333.561831,288.444626 336.205473,289.766334 C338.408545,291.528837 340.611391,293.291114 342.814463,294.78923 C345.017535,297.256463 344.753148,295.229799 348.277928,301.83879 C348.454111,302.014972 348.454111,302.543746 348.718498,302.896111 C349.599862,304.482431 350.481,305.980321 350.92157,307.742599 C351.362139,308.623963 351.626526,309.505101 351.802708,310.38624 C352.683847,313.470451 352.860255,316.378253 352.860255,319.374485 C352.860255,322.194309 352.683847,325.102337 351.802708,328.010139 C351.097752,333.297422 346.339243,339.906187 342.814463,343.430967 C339.289683,347.131929 332.945079,350.921096 328.010388,352.066621 C326.424293,352.243029 324.926177,352.507416 323.428286,352.771577 C319.022368,353.829124 314.61645,353.652941 310.210305,352.066621 C307.390482,351.361665 304.218292,350.304344 301.839038,348.541841 C299.635966,346.779564 297.433119,345.017061 295.230047,343.518945 C295.053865,343.518945 295.053865,343.342763 295.053865,343.342763 C292.850793,341.404077 291.088516,338.936844 289.766582,336.293203 C287.827897,333.825744 286.682371,331.00592 286.417985,328.186096 C285.977416,325.366272 285.536846,322.194083 285.360438,319.374259 C284.567504,313.822816 286.505963,306.420665 289.413991,302.014747 C290.118722,300.693264 290.99986,299.371331 292.057407,298.490192 Z M342.989518,1753.08711 C339.464738,1756.78807 333.120134,1760.57724 328.185442,1761.72276 C326.599348,1761.89895 325.101232,1762.16333 323.603341,1762.42772 C319.197423,1763.48504 314.791504,1763.30886 310.38536,1761.72276 C307.565536,1761.01781 304.393347,1759.96026 302.014092,1758.19798 C299.811246,1756.43548 297.608174,1754.6732 295.405102,1753.17509 C295.228919,1753.17509 295.228919,1752.99891 295.228919,1752.99891 C293.025847,1751.06022 291.26357,1748.59299 289.941637,1745.94935 C288.002951,1743.48211 286.857426,1740.66229 286.593039,1737.84246 C286.15247,1735.02264 285.711901,1731.85023 285.535493,1729.0304 C285.35931,1724.00751 287.297995,1716.51738 290.117594,1712.11146 C290.82255,1710.78953 291.703914,1709.46782 292.761235,1708.58668 C293.642599,1707.52913 294.523738,1706.11945 295.581059,1705.0619 C297.519744,1702.85883 300.16316,1701.09655 302.630619,1699.59843 C308.622632,1696.07365 309.680179,1696.24984 315.40803,1695.63308 C320.430926,1694.92813 323.162546,1694.75172 328.802194,1696.33804 C331.445835,1697.39536 334.265659,1698.54089 336.909301,1699.86282 C339.112373,1701.6251 341.315219,1703.3876 343.518291,1704.88572 C345.721363,1707.35318 345.456976,1705.32629 348.981756,1711.93528 C349.158165,1712.11146 349.158165,1712.64023 349.422551,1712.9926 C350.30369,1714.57869 351.184828,1716.07681 351.625398,1717.83909 C352.065967,1718.72022 352.330354,1719.60159 352.506536,1720.48273 C353.3879,1723.56694 353.564083,1726.47474 353.564083,1729.47097 C353.123514,1731.93843 352.859127,1734.84623 351.977988,1737.66606 C351.272807,1742.95356 346.514298,1749.56233 342.989518,1753.08711 Z M1663.82188,1293.62996 C1663.6457,1293.80615 1663.6457,1294.33492 1663.38131,1294.5111 L1663.38131,1294.68751 C1663.38131,1294.86369 1663.20513,1295.12808 1663.20513,1295.39247 C1663.02872,1295.56865 1663.02872,1295.83304 1663.02872,1296.09742 L1663.02872,1296.27361 C1662.58815,1297.15474 1662.14759,1298.03588 1661.70702,1299.09343 C1659.76833,1303.49935 1657.74167,1307.90527 1655.71478,1312.48759 C1647.96026,1329.23035 1639.67697,1345.79761 1630.6003,1361.83451 C1621.96464,1376.99118 1612.9764,1391.97053 1603.46006,1406.59978 C1598.61357,1413.82552 1593.76686,1420.87508 1588.65598,1428.18903 C1585.83616,1432.15438 1583.19252,1435.94354 1580.28471,1439.82069 C1579.22739,1441.40678 1578.08164,1442.9049 1576.75993,1444.40279 C1576.31936,1444.84336 1574.99766,1446.60586 1574.11629,1447.75139 C1574.11629,1447.92757 1573.94011,1447.92757 1573.94011,1448.19196 C1573.94011,1448.36814 1573.76393,1448.36814 1573.76393,1448.63253 C1573.76393,1448.63253 1573.58752,1448.80893 1573.58752,1448.80893 C1552.26266,1476.12513 1528.82225,1501.85772 1503.79575,1525.9142 C1490.57777,1538.42722 1476.91944,1550.76474 1462.82032,1562.22 C1460.0005,1564.68746 1456.82831,1567.06648 1453.83208,1569.44574 C1452.24598,1570.50306 1450.74787,1571.9132 1449.42616,1572.97052 L1449.24998,1573.1467 L1449.07379,1573.1467 C1448.89761,1573.1467 1448.89761,1573.32288 1448.63323,1573.32288 C1448.45682,1573.32288 1448.45682,1573.49907 1448.19266,1573.76345 C1440.96691,1579.22692 1433.38858,1584.77836 1425.98643,1590.06564 C1396.20232,1611.03814 1365.18426,1629.71914 1332.58033,1645.7583 C1325.0902,1649.45926 1317.77625,1652.98404 1310.10994,1656.59702 C1305.70402,1658.53571 1301.2981,1660.56237 1296.71578,1662.58903 C1296.53937,1662.58903 1296.27498,1662.76522 1296.01082,1662.76522 C1295.83441,1662.76522 1295.83441,1662.94163 1295.57003,1662.94163 C1295.39384,1662.94163 1295.39384,1663.11781 1295.12946,1663.11781 C1295.12946,1663.11781 1294.95327,1663.11781 1294.68889,1663.29399 L1294.5127,1663.29399 L1294.33652,1663.29399 L1294.16011,1663.29399 L1293.98393,1663.29399 C1292.22165,1663.99895 1290.45915,1664.88009 1288.52047,1665.49706 C1271.7777,1672.37044 1254.5946,1678.53864 1237.41172,1684.0021 C1201.89999,1695.45758 1165.33025,1704.09323 1128.58456,1709.73243 C1125.50035,1710.173 1122.23996,1710.61357 1119.06755,1711.05414 L1118.89136,1711.05414 L1118.18641,1711.05414 L1118.01023,1711.05414 L1117.56966,1711.05414 L1116.8647,1711.05414 C1116.15974,1711.05414 1115.27838,1711.23032 1114.92601,1711.23032 C1112.45856,1711.67089 1109.90312,1711.93528 1107.43589,1712.11168 C1098.44764,1713.16901 1089.10703,1714.05014 1080.11969,1714.75533 C1061.61465,1716.07703 1043.11006,1716.69379 1024.60525,1716.95817 C1005.04267,1716.95817 985.655586,1716.07703 966.004797,1714.75533 C957.016552,1714.05037 947.675942,1713.16901 938.688599,1712.11168 C937.366666,1711.93528 932.960747,1711.40673 930.934083,1711.23032 L930.757901,1711.23032 L930.581492,1711.23032 C925.735005,1710.52536 920.888291,1709.90861 916.30619,1709.02747 C880.000393,1703.03546 844.048766,1694.48779 809.24086,1683.03321 C792.05753,1677.56974 774.875102,1671.13716 758.132116,1664.35199 C758.132116,1664.35199 756.546021,1663.64703 755.047905,1663.03006 C754.607336,1662.85387 754.342949,1662.85387 754.166766,1662.58949 C753.990584,1662.58949 753.726197,1662.4133 753.46181,1662.4133 L753.285628,1662.4133 L753.109445,1662.4133 C751.787512,1661.70835 750.289621,1661.0916 750.289621,1661.0916 C746.764841,1659.50528 743.240062,1658.00738 739.715282,1656.24511 C730.903445,1652.27976 722.091382,1647.87384 713.454825,1643.4677 C681.554721,1627.42989 650.890828,1608.65979 621.634591,1587.95326 C615.025601,1583.37116 608.593018,1578.43624 602.248189,1573.67796 C601.190642,1572.79659 596.079768,1568.83147 595.198629,1568.21449 C591.497667,1565.13028 587.7085,1562.04607 584.007538,1558.96186 C570.348987,1547.50638 557.131232,1535.60921 544.354046,1523.27417 C531.136065,1510.49676 518.623717,1497.2799 506.46238,1483.88461 C500.734528,1477.54001 495.006902,1470.84304 489.543437,1464.32203 C487.075978,1461.23782 484.696949,1458.32979 482.317694,1455.33378 C480.731374,1453.3951 479.233484,1451.63282 477.911776,1449.60593 C477.470981,1449.16513 477.20682,1448.72457 476.854229,1448.284 C476.678046,1448.10781 476.678046,1447.84343 476.41366,1447.57904 C476.41366,1447.40286 476.237477,1447.40286 475.97309,1447.13847 C454.383842,1418.76427 434.73373,1388.80421 417.638829,1357.43198 C409.003175,1341.74676 400.896068,1325.71009 393.40639,1309.40699 C391.643888,1305.44164 389.88161,1301.47629 388.119108,1297.24656 C387.942925,1296.5416 387.414152,1295.48428 387.061561,1294.60292 C386.885378,1293.89796 386.620992,1293.54559 386.356605,1293.28121 C385.916036,1292.40007 385.475466,1291.34252 385.299284,1290.46138 C381.598321,1281.47314 378.073541,1272.13253 374.724944,1263.14519 C362.211919,1228.77943 352.254557,1193.35342 345.204771,1157.40179 C343.442269,1148.58995 341.856174,1139.77789 340.358284,1130.78942 C339.653328,1126.82407 339.300737,1122.85872 338.595781,1118.89337 C338.595781,1118.4528 338.595781,1118.18842 338.419598,1118.01201 L338.419598,1117.83582 L338.419598,1117.13087 C337.979029,1114.04666 337.714642,1111.13886 337.362277,1108.14262 C335.159205,1089.4614 333.837497,1070.42691 332.956359,1051.74615 C331.634425,1013.85448 332.956359,975.786857 337.362277,938.071148 C337.53846,935.603915 338.067233,933.048252 338.243416,930.581019 L338.243416,930.404836 L338.243416,929.964267 C338.243416,929.788084 338.243416,929.259311 338.419598,929.083128 C339.124554,925.117779 339.477145,921.15243 340.182101,917.187081 C341.768196,907.317697 343.530698,897.360109 345.469384,887.666908 C349.170346,869.602439 353.400082,851.713025 358.510957,834.090254 C363.533852,816.466354 369.085296,799.282347 375.4299,782.099468 C378.514111,773.728201 381.598321,765.53289 384.946919,757.424881 C385.387488,756.543517 385.828057,755.486196 386.00424,754.605057 L386.00424,754.428649 C386.00424,754.252466 386.180422,753.723693 386.444809,753.371328 C386.885378,752.490189 387.325948,751.168256 387.502356,750.727687 C389.705202,745.881199 391.908274,741.034485 394.111346,735.923611 C409.091604,703.319679 426.715278,672.03768 446.278089,642.075359 C451.124576,634.849617 455.97129,627.800057 461.082164,620.486111 C463.285011,617.4019 465.488083,614.31769 467.955541,610.969092 C469.277249,609.030407 470.775365,607.003743 472.185277,605.24124 C472.625847,604.800671 474.388124,602.421416 475.533875,601.011504 C475.710057,600.835322 475.974444,600.570935 476.238831,600.306549 C476.238831,600.130366 476.415013,600.130366 476.415013,600.130366 L476.415013,599.953958 C477.472334,598.63225 478.618085,597.134134 478.618085,597.134134 C479.675406,595.548039 481.085544,594.049923 482.142865,592.728215 C484.786506,589.379618 487.60633,586.119225 490.249972,582.594445 C495.977824,575.544885 502.146019,568.671508 508.050054,561.886335 C531.8426,535.449922 557.572929,510.77759 584.889127,488.043042 C588.59009,484.958831 592.379256,481.874621 596.080219,479.054797 C597.13754,478.173658 600.66232,475.530017 602.072232,474.472696 C602.248415,474.472696 602.248415,474.296513 602.512801,474.296513 C609.562361,468.833048 616.788103,463.457787 624.10205,458.435117 C638.641739,448.036959 653.622223,438.343984 669.043276,429.178879 C684.464103,419.926248 700.061339,411.378797 716.18622,403.184615 C723.940735,399.219265 731.871434,395.430099 739.802809,391.729136 C743.768158,389.966859 747.733507,388.204357 751.963243,386.442079 C752.668199,386.265897 753.72552,385.737123 754.783067,385.384533 C754.95925,385.384533 754.95925,385.384533 755.223636,385.20835 C755.223636,385.20835 755.399819,385.032167 755.664206,385.032167 C755.840388,385.032167 756.104775,384.855985 756.104775,384.855985 L756.280958,384.855985 C758.04346,384.151029 759.98192,383.269665 761.744423,382.652913 C795.406353,368.994363 830.302238,357.802369 865.725994,349.342897 C883.790462,345.113161 901.855833,341.412198 920.184689,338.50417 C923.885651,337.799215 927.674818,337.446849 931.37578,336.741893 L931.81635,336.741893 L931.992758,336.741893 C933.755035,336.565485 938.337362,335.860529 939.747274,335.860529 C949.881044,334.803208 960.014814,333.657683 970.149487,333.040705 C1008.04115,330.220881 1046.10878,330.220881 1084.26438,333.217113 C1093.25262,333.922069 1102.59323,334.803208 1111.58058,335.860755 C1113.51904,336.036937 1115.54592,336.301324 1117.57259,336.565711 L1118.27754,336.565711 L1118.71811,336.565711 L1118.8943,336.565711 L1119.07048,336.565711 C1124.53394,337.446849 1130.08539,338.151805 1135.63706,339.033169 C1153.96591,342.11738 1171.94285,345.64216 1190.09575,350.048078 C1225.60749,358.683733 1260.15146,370.139211 1293.90137,383.973944 C1294.34194,384.150126 1294.7825,384.414513 1295.48746,384.6789 C1295.66387,384.6789 1295.92826,384.855082 1296.19242,384.855082 C1296.36883,384.855082 1296.36883,384.855082 1296.36883,385.031265 L1296.54501,385.031265 C1296.72119,385.031265 1296.72119,385.031265 1296.98558,385.207448 L1297.16176,385.207448 L1297.33817,385.207448 L1297.51435,385.207448 L1297.69053,385.207448 C1298.57167,385.648017 1299.62922,386.088812 1300.51036,386.529381 C1304.47571,388.291658 1308.44106,390.054161 1312.4064,391.992846 C1320.77767,395.958196 1329.14917,399.923545 1337.25695,404.153281 C1353.82353,412.524548 1369.86088,421.600997 1385.54587,431.029586 C1400.34994,440.017831 1414.80211,449.534624 1429.16516,459.667718 C1435.50977,464.073636 1441.67819,468.655963 1447.84638,473.326268 L1448.02256,473.326268 L1448.19897,473.502451 C1448.37516,473.502451 1448.37516,473.678633 1448.63954,473.678633 L1449.52068,474.559998 C1450.22564,475.000567 1450.84239,475.617319 1451.10678,475.881705 C1453.04546,477.4678 1454.80774,478.965916 1456.83463,480.287624 C1460.53559,483.371835 1464.32476,486.456045 1468.02572,489.540256 C1495.34192,512.450761 1520.89855,537.125348 1544.68884,563.825697 C1550.41669,570.170301 1556.14431,576.86727 1561.60778,583.388282 C1564.4276,586.736879 1567.07124,589.997272 1569.71466,593.522052 C1571.30098,595.460738 1572.53448,597.223015 1574.12058,599.249904 C1574.29699,599.690473 1574.56115,599.95486 1574.82553,600.131043 L1575.00194,600.307225 C1575.00194,600.307225 1575.17813,600.483633 1575.17813,600.483633 C1575.35431,600.659816 1575.61869,601.188589 1575.88308,601.540955 C1586.28124,615.463892 1596.41501,629.563237 1605.84315,644.01427 C1625.67012,674.416484 1643.29492,706.40231 1658.27382,739.360412 C1660.0361,743.325762 1661.7986,747.291111 1663.56111,751.520847 C1663.56111,751.697029 1663.73729,751.697029 1663.73729,751.961416 C1663.73729,751.961416 1663.73729,752.137824 1663.91347,752.137824 C1663.91347,752.314007 1664.08965,752.314007 1664.08965,752.578393 C1664.97102,754.340671 1665.67597,756.279356 1666.29273,758.041859 C1669.81751,766.677513 1673.1661,775.489576 1676.16211,784.036123 C1682.50671,801.660023 1688.32254,819.547858 1693.34544,837.612778 C1698.19193,854.796108 1702.15728,872.154493 1705.68228,889.77952 C1707.44456,898.591357 1709.03088,907.40342 1710.52877,916.39189 C1711.23373,920.973991 1712.11487,925.908909 1712.73184,930.49101 L1712.73184,930.667193 L1712.73184,930.843375 L1712.73184,931.283944 L1712.73184,931.460353 C1713.17241,934.544563 1713.4368,937.452366 1713.78916,940.448598 C1718.0189,978.164307 1719.25263,1016.23193 1717.75451,1054.29955 C1716.87337,1073.68595 1715.28728,1092.89505 1712.90803,1112.2819 C1712.90803,1113.33922 1712.73184,1114.22036 1712.46746,1115.36611 L1712.46746,1115.54229 L1712.46746,1115.98286 L1712.46746,1116.42343 L1712.46746,1117.12839 L1712.46746,1117.30457 L1712.46746,1117.48098 L1712.46746,1117.65716 L1712.46746,1117.83334 C1711.7625,1122.23926 1711.14575,1126.82159 1710.52877,1131.22751 C1708.94268,1140.74453 1707.18017,1149.90895 1705.50587,1159.42575 C1698.28013,1195.73154 1687.88198,1231.50721 1675.10366,1266.22714 C1670.87393,1275.65596 1667.87792,1283.85104 1664.52932,1292.04545 C1664.35066,1292.48444 1664.08627,1292.92501 1663.82188,1293.62996 Z M1752.9105,1753.08711 C1749.38572,1756.78807 1743.04111,1760.57724 1738.10642,1761.72276 C1736.52033,1761.89895 1735.02221,1762.16333 1733.52432,1762.42772 C1729.1184,1763.48504 1724.71248,1763.30886 1720.30634,1761.72276 C1717.48652,1761.01781 1714.31433,1759.96026 1711.93507,1758.19798 C1709.732,1756.43548 1707.52915,1754.6732 1705.32608,1753.17509 C1705.1499,1753.17509 1705.1499,1752.99891 1705.1499,1752.99891 C1702.94683,1751.06022 1701.18455,1748.59299 1699.86262,1745.94935 C1697.92393,1743.48211 1696.77841,1740.66229 1696.51402,1737.84246 C1696.07345,1735.02264 1695.63288,1731.85023 1695.45647,1729.0304 C1695.28029,1724.00751 1697.21898,1716.51738 1700.03857,1712.11146 C1700.74353,1710.78953 1701.62489,1709.46782 1702.68222,1708.58668 C1703.56358,1707.52913 1704.44472,1706.11945 1705.50204,1705.0619 C1707.44073,1702.85883 1710.08414,1701.09655 1712.5516,1699.59843 C1718.54361,1696.07365 1719.60116,1696.24984 1725.32901,1695.63308 C1730.35191,1694.92813 1733.08353,1694.75172 1738.72317,1696.33804 C1741.36682,1697.39536 1744.18664,1698.54089 1746.83028,1699.86282 C1749.03335,1701.6251 1751.2362,1703.3876 1753.43927,1704.88572 C1755.64234,1707.35318 1755.37796,1705.32629 1758.90274,1711.93528 C1759.07915,1712.11146 1759.07915,1712.64023 1759.34331,1712.9926 C1760.22467,1714.57869 1761.10581,1716.07681 1761.54638,1717.83909 C1761.98695,1718.72022 1762.25133,1719.60159 1762.42752,1720.48273 C1763.30888,1723.56694 1763.48506,1726.47474 1763.48506,1729.47097 C1763.04449,1731.93843 1762.78011,1734.84623 1761.89897,1737.66606 C1761.19379,1742.95356 1756.43528,1749.56233 1752.9105,1753.08711 Z M1752.9105,343.175152 C1749.38572,346.876115 1743.04111,350.665281 1738.10642,351.810807 C1736.52033,351.986989 1735.02221,352.251376 1733.52432,352.515763 C1729.1184,353.573084 1724.71248,353.396901 1720.30634,351.810807 C1717.48652,351.105851 1714.31433,350.048304 1711.93507,348.286027 C1709.732,346.523524 1707.52915,344.761247 1705.32608,343.263131 C1705.1499,343.263131 1705.1499,343.086948 1705.1499,343.086948 C1702.94683,341.148263 1701.18455,338.68103 1699.86262,336.037389 C1697.92393,333.570155 1696.77841,330.750331 1696.51402,327.930508 C1696.07345,325.110684 1695.63288,321.938269 1695.45647,319.118445 C1695.28029,314.095549 1697.21898,306.60542 1700.03857,302.199502 C1700.74353,300.877568 1701.62489,299.55586 1702.68222,298.674722 C1703.56358,297.617175 1704.44472,296.207489 1705.50204,295.149942 C1707.44073,292.94687 1710.08414,291.184593 1712.5516,289.686477 C1718.54361,286.161697 1719.60116,286.337879 1725.32901,285.721127 C1730.35191,285.016171 1733.08353,284.839763 1738.72317,286.426083 C1741.36682,287.483405 1744.18664,288.62893 1746.83028,289.950863 C1749.03335,291.71314 1751.2362,293.475643 1753.43927,294.973759 C1755.64234,297.441218 1755.37796,295.414328 1758.90274,302.023319 C1759.07915,302.199502 1759.07915,302.728275 1759.34331,303.08064 C1760.22467,304.666735 1761.10581,306.164851 1761.54638,307.927128 C1761.98695,308.808266 1762.25133,309.689631 1762.42752,310.570769 C1763.30888,313.65498 1763.48506,316.562782 1763.48506,319.559014 C1763.04449,322.026473 1762.78011,324.934275 1761.89897,327.754099 C1761.19379,333.041608 1756.43528,339.650373 1752.9105,343.175152 Z M1134.65711,714.769518 C1007.94099,668.242423 858.1339,708.777505 772.478928,813.023462 C728.683679,866.336181 702.423223,930.222112 696.695597,999.13184 C691.232132,1066.54368 707.886688,1135.8933 742.958756,1193.69969 C814.776287,1311.95634 955.149378,1372.14266 1090.31594,1345.26635 C1220.29178,1319.53602 1326.91045,1209.56289 1347.43877,1078.44334 C1350.25859,1060.37887 1352.02087,1042.48945 1352.02087,1024.25083 L1352.02087,1023.54588 C1351.22771,885.726418 1263.72429,762.362506 1134.63049,714.763878 L1134.65711,714.769518 Z M1134.65711,714.769518 C1007.94099,668.242423 858.1339,708.777505 772.478928,813.023462 C728.683679,866.336181 702.423223,930.222112 696.695597,999.13184 C691.232132,1066.54368 707.886688,1135.8933 742.958756,1193.69969 C814.776287,1311.95634 955.149378,1372.14266 1090.31594,1345.26635 C1220.29178,1319.53602 1326.91045,1209.56289 1347.43877,1078.44334 C1350.25859,1060.37887 1352.02087,1042.48945 1352.02087,1024.25083 L1352.02087,1023.54588 C1351.22771,885.726418 1263.72429,762.362506 1134.63049,714.763878 L1134.65711,714.769518 Z M1134.65711,714.769518 C1007.94099,668.242423 858.1339,708.777505 772.478928,813.023462 C728.683679,866.336181 702.423223,930.222112 696.695597,999.13184 C691.232132,1066.54368 707.886688,1135.8933 742.958756,1193.69969 C814.776287,1311.95634 955.149378,1372.14266 1090.31594,1345.26635 C1220.29178,1319.53602 1326.91045,1209.56289 1347.43877,1078.44334 C1350.25859,1060.37887 1352.02087,1042.48945 1352.02087,1024.25083 L1352.02087,1023.54588 C1351.22771,885.726418 1263.72429,762.362506 1134.63049,714.763878 L1134.65711,714.769518 Z"/><path d="M1352.149,1023.69589 L1352.149,1024.40085 C1352.149,1042.7297 1350.21054,1060.53069 1347.5669,1078.59335 C1327.03497,1209.71516 1220.49887,1319.85748 1090.44408,1345.41637 C955.180508,1372.29267 815.071354,1312.10635 743.086889,1193.84971 C708.015047,1136.13129 691.27206,1066.78167 696.82373,999.281855 C702.551582,930.372126 728.723834,866.398217 772.607061,813.173477 C858.259777,709.015949 1008.07364,668.216481 1134.78524,714.919532 C1263.79332,762.328668 1351.29584,885.694836 1352.17562,1023.70153 L1352.149,1023.69589 Z"/></g></g></svg>