<svg xmlns="http://www.w3.org/2000/svg" width="4096" height="4096" viewBox="0 0 4096 4096"><g fill="none" fill-rule="evenodd"><circle cx="2048" cy="2048" r="1798" fill="#FFF" stroke="#E300FF" stroke-opacity=".66" stroke-width="500"/><path fill="#E300FF" d="M2048,1024 C1482.48576,1024 1024,1482.48576 1024,2048 C1024,2613.51424 1482.48576,3072 2048,3072 C2613.51424,3072 3072,2613.51424 3072,2048 C3072,1482.48576 2613.51424,1024 2048,1024 Z M2538.63936,2517.36064 L1984,2517.36064 C1972.23997,2517.36064 1962.63936,2507.76064 1962.63936,2496 C1962.63936,2484.23936 1972.23936,2474.63936 1984,2474.63936 L2538.63936,2474.63936 C2550.39939,2474.63936 2560,2484.23936 2560,2496 C2560,2507.76064 2550.4,2517.36064 2538.63936,2517.36064 Z M2538.63936,2304 L1557.27872,2304 C1545.51869,2304 1535.91808,2294.4 1535.91808,2282.63936 C1535.91808,2270.87872 1545.51808,2261.27872 1557.27872,2261.27872 L2538.63936,2261.27872 C2550.39939,2261.27872 2560,2270.87872 2560,2282.63936 C2560,2294.4 2550.4,2304 2538.63936,2304 Z M2538.63936,2090.63936 L1557.27872,2090.63936 C1545.51869,2090.63936 1535.91808,2081.03936 1535.91808,2069.27872 C1535.91808,2057.51869 1545.51808,2047.91808 1557.27872,2047.91808 L2538.63936,2047.91808 C2550.39939,2047.91808 2560,2057.51808 2560,2069.27872 C2560,2081.03875 2550.4,2090.63936 2538.63936,2090.63936 Z M2538.63936,1877.36064 L1557.27872,1877.36064 C1545.51869,1877.36064 1535.91808,1867.76064 1535.91808,1856 C1535.91808,1844.23936 1545.51808,1834.63936 1557.27872,1834.63936 L2538.63936,1834.63936 C2550.39939,1834.63936 2560,1844.23936 2560,1856 C2560,1867.76064 2550.4,1877.36064 2538.63936,1877.36064 Z M2538.63936,1664 L1557.27872,1664 C1545.51869,1664 1535.91808,1654.4 1535.91808,1642.63936 C1535.91808,1630.87872 1545.51808,1621.27872 1557.27872,1621.27872 L2538.63936,1621.27872 C2550.39939,1621.27872 2560,1630.87872 2560,1642.63936 C2560,1654.4 2550.4,1664 2538.63936,1664 Z"/></g></svg>