<svg xmlns="http://www.w3.org/2000/svg" width="4096" height="4096" viewBox="0 0 4096 4096"><g fill="none" fill-rule="evenodd"><circle cx="2048" cy="2048" r="1798" fill="#FFF" stroke="#00B140" stroke-opacity=".5" stroke-width="500"/><path fill="#00B140" d="M1216,3072 C1109.99962,3072 1024,2986.08026 1024,2880 L1024,1216 C1024,1109.99962 1109.99962,1024 1216,1024 L2880,1024 C2986.08026,1024 3072,1109.99962 3072,1216 L3072,2880 C3072,2986.08026 2986.08026,3072 2880,3072 L1216,3072 Z M1837.28128,1554.71872 C1862.2423,1579.75962 1862.2423,1620.23834 1837.28128,1645.27923 L1597.27616,1885.28435 C1585.27611,1897.2844 1568.95642,1904.0043 1551.99693,1904.0043 C1535.03744,1904.0043 1518.71693,1897.2844 1506.7177,1885.28435 L1362.71872,1741.28538 C1337.7577,1716.24448 1337.7577,1675.76576 1362.71872,1650.72486 C1387.75962,1625.76384 1428.23834,1625.76384 1453.27923,1650.72486 L1551.99898,1749.52448 L1746.71872,1554.72486 C1771.75962,1529.76384 1812.23834,1529.76384 1837.27923,1554.72486 L1837.28128,1554.71872 Z M2048,1663.99795 C2012.63923,1663.99795 1984,1692.63718 1984,1727.99795 C1984,1763.35872 2012.63923,1791.99795 2048,1791.99795 L2688,1791.99795 C2723.36077,1791.99795 2752,1763.35872 2752,1727.99795 C2752,1692.63718 2723.36077,1663.99795 2688,1663.99795 L2048,1663.99795 Z M1984,2367.99795 C1984,2332.63718 2012.63923,2303.99795 2048,2303.99795 L2688,2303.99795 C2723.36077,2303.99795 2752,2332.63718 2752,2367.99795 C2752,2403.35872 2723.36077,2431.99795 2688,2431.99795 L2048,2431.99795 C2012.63923,2431.99795 1984,2403.35872 1984,2367.99795 Z M1837.27923,2285.27718 C1862.24026,2260.23629 1862.24026,2219.75757 1837.27923,2194.71667 C1812.23834,2169.75565 1771.75962,2169.75565 1746.71872,2194.71667 L1551.99898,2389.51629 L1453.27923,2290.71667 C1428.23834,2265.75565 1387.75962,2265.75565 1362.71872,2290.71667 C1337.7577,2315.75757 1337.7577,2356.23629 1362.71872,2381.27718 L1506.7177,2525.27616 C1518.71775,2537.27621 1535.03744,2543.99611 1551.99693,2543.99611 C1568.95642,2543.99611 1585.27693,2537.27621 1597.27616,2525.27616 L1837.27923,2285.27718 Z"/></g></svg>