<svg height="1597" viewBox="0 0 3021 1597" width="3021" xmlns="http://www.w3.org/2000/svg" xmlns:xlink="http://www.w3.org/1999/xlink"><linearGradient id="a" x1="50%" x2="50%" y1="0%" y2="100%"><stop offset="0" stop-color="#fff"/><stop offset="1" stop-color="#fff"/></linearGradient><mask id="b" fill="#fff"><path d="m0 0h522v522h-522z" fill="#fff" fill-rule="evenodd"/></mask><g fill="none" fill-rule="evenodd"><path d="m0 0h3021v1597h-3021z" fill="url(#a)"/><g transform="translate(1067 537)"><text fill="#c8232e" font-family="SFCompactDisplay-Regular, SF Compact Display" font-size="311" letter-spacing="-2.338"><tspan x="0" y="296">BeonUX</tspan></text><text fill="#000" font-family="SFCompactDisplay-Medium, SF Compact Display" font-size="63" font-weight="400" letter-spacing="-.474"><tspan x="20" y="382">Elegant, seamless UX components in Slint</tspan>  <tspan font-family="SFCompactDisplay-Thin, SF Compact Display" font-size="52" font-weight="300" letter-spacing="-.391" x="20" y="457">Construct and manage graphical, event-driven user interfaces</tspan> <tspan font-family="SFCompactDisplay-Thin, SF Compact Display" font-size="52" font-weight="300" letter-spacing="-.391" x="20" y="520">for your Rust applications with BeonUX for Slint</tspan></text></g><g fill-rule="nonzero" transform="translate(534 538)"><path d="m344.684355 37.977075c-.11498.3268218-.229959.6529859-.3456.9798076 4.703595 2.1240122 9.464021 4.1322887 14.099553 6.3930794 20.04678 9.7763745 38.596842 21.7977574 55.395776 36.4889514 19.75008 17.2715729 36.471699 37.0432986 49.860889 59.5505946 19.8155 33.309509 29.464545 69.551864 30.833068 108.07408.603974 16.996701-.77314 33.885558-3.876271 50.616592-5.328715 28.728745-15.725128 55.539303-31.087476 80.420495-15.176002 24.580015-34.164175 45.839866-56.712095 63.958413-13.47972 10.831805-27.914301 20.162333-43.65595 27.430007-4.215262 1.946462-8.440436 3.871225-12.660985 5.806509.118284.29197.236567.584597.354852.876566 8.415986-2.979535 17.029553-5.508622 25.199722-9.051054 10.563596-4.580764 21.02675-9.517941 31.085494-15.101529 26.836531-14.895047 49.468372-34.789741 68.532538-58.735842 28.939206-36.350858 43.744498-78.032131 46.568109-124.021927 1.386365-22.586865-.57622-44.989603-5.645241-67.139171-11.075058-48.396571-36.434033-87.762474-75.096295-118.840784-17.049377-13.7054682-35.744155-24.8003083-55.786971-33.4883731-12.127716-5.2574234-24.694206-9.5113661-37.063117-14.2164149m105.531578 221.420052c-.128876-15.155451-1.644097-30.164262-5.466182-44.853483-13.556373-52.101427-43.621587-92.097957-89.982203-119.6496179-38.265119-22.7394247-79.81509-30.5502658-123.707606-23.2589199-48.676731 8.0857133-88.108167 32.5861608-118.002233 71.3010508-34.6577956 44.884389-47.7119587 95.717985-37.1701686 151.684062 8.5792052 45.545266 31.5850616 83.184341 66.7622476 113.217743 29.455293 25.147514 63.877843 39.175859 102.654423 42.424348 24.512486 2.05365 48.482455-.470176 71.96541-7.834514 76.649182-24.038163 132.972725-100.040318 132.946312-183.030669m-183.004782 262.602873c-76.119217-1.589392-136.871462-25.196177-186.7924844-74.119477-38.6219524-37.85016-64.5353416-83.152776-74.89078527-136.393806-12.99336919-66.804457-3.51216789-130.274282 33.01900377-188.330177 37.663788-59.8557158 91.9850979-97.7703199 160.5533199-115.51601438 24.665794-6.38321561 49.825206-8.74922053 75.241672-7.16443124 54.224172 3.38066462 103.197603 21.21184562 146.381739 54.13206202 36.738003 28.0067119 64.360228 63.2475596 82.190015 105.7784376 15.723146 37.504926 21.408696 76.759697 18.24477 117.195497-5.850088 74.77312-38.366883 136.189953-95.387572 184.685162-34.474753 29.321232-74.640341 47.447013-119.2756 55.233524-15.014106 2.619177-30.332841 3.508894-39.284078 4.499223" fill="#202d33" mask="url(#b)"/><path d="m137.168295 383.658746c10.701043 11.612362 22.977442 21.301278 36.505401 29.429734.833933.501083 2.353779.556977 3.257758.156506 21.70011-9.610005 40.342683-22.906453 53.149046-43.381798 14.516519-23.208286 46.501367-23.622567 61.709748-.904843 2.006858 2.998606 3.650936 6.278002 5.923438 9.054342 12.881693 15.734788 28.880394 27.376084 47.668344 35.205995 1.005742.418884 2.659072.357729 3.563712-.199906 13.610558-8.386232 26.07132-18.20272 36.940208-29.949888 9.13494-9.094454 16.589459-19.469893 23.61842-30.209635 1.8595-2.840783 1.100237-3.651591-1.611698-4.825388-20.488197-8.866928-39.206102-20.651579-56.628173-34.512239-18.201158-14.478792-34.573212-30.8133-49.480267-48.612918-1.311694-1.566376-2.030647-2.38639-3.383312.069706-15.144943 27.489189-57.799115 28.605774-73.853985.662849-1.56412-2.722419-2.318096-2.488974-4.227817-.255145-19.253156 22.524393-40.433214 43.000397-64.926537 59.916871-13.040947 9.006996-26.738733 16.832962-41.323976 23.102414-1.233058.530017-3.226701.704278-1.728661 3.051214 7.320376 11.46835 15.187235 22.509926 24.828351 32.202129m40.086292-105.157018c9.304767-9.6054 18.961741-18.899762 27.840291-28.879989 17.956-20.184034 33.865492-41.967983 49.151186-64.202379 2.320741-3.375404 4.675843-6.727792 7.154515-10.290608.741421 1.06069 1.22645 1.776805 1.733947 2.47648 13.763866 18.988537 27.217814 38.210518 41.392039 56.891304 12.070888 15.909048 25.497082 30.714006 40.511187 44.004535 10.216014 8.287593 20.127399 16.985522 30.723375 24.758223 13.366722 9.805966 27.866062 17.82592 43.303741 24.062493 1.595179.645096 2.794536 1.371731 3.775828-1.053457 6.639749-16.410789 11.050609-33.362116 12.945792-50.957222.223351-1.067267.545824-2.125328.65089-3.204431.259035-2.650741-.025771-4.68006-2.592329-6.748835-14.984369-12.080566-30.046051-24.109183-44.38019-36.932166-11.671102-10.440539-22.667525-21.68268-33.406234-33.088559-14.098894-14.972643-27.893155-30.247776-41.358999-45.786602-10.011826-11.552522-19.461308-23.602181-28.848015-35.671568-7.646812-9.830954-14.825776-20.0229249-22.220823-30.047868-2.181971-2.9578349-2.724489-3.0071541-4.629585-.295915-20.056692 28.537386-41.337852 56.123241-64.7805 82.004626-11.978376 13.223456-23.87349 26.544234-36.372579 39.270552-10.662716 10.856136-21.917513 21.167787-33.313721 31.270326-10.385841 9.206903-21.032699 18.179703-32.1341888 26.502148-4.722759 3.541117-7.0917377 7.00661-5.9934831 12.703303.2405323 1.139602.5563961 2.269339.7097023 3.420777 2.0167709 15.198854 5.6254159 29.996576 11.1437817 44.324782 2.1872579 5.679595 2.1443059 5.700638 7.6884429 3.351073 26.869571-11.38681 50.318166-27.8193 71.305929-47.881023m272.959894-19.104272c.027733 82.990351-56.29581 158.991849-132.944991 183.030669-23.482957 7.364338-47.452924 9.888164-71.965411 7.834514-38.776581-3.249147-73.199129-17.277492-102.654423-42.425006-35.177186-30.032744-58.1830425-67.672477-66.7622477-113.217743-10.5417902-55.966077 2.512373-106.799015 37.1701677-151.683404 29.894067-38.715547 69.326164-63.2153377 118.002895-71.3017086 43.891855-7.2913459 85.442487.5194952 123.706945 23.2595775 46.361277 27.5510031 76.426491 67.5481911 89.982203 119.6496181 3.822085 14.689221 5.337306 29.698031 5.464862 44.853483" fill="#fcfcfc"/><path d="m344.684355 37.977075c12.368911 4.7050488 24.935401 8.9589915 37.063117 14.2164149 20.042816 8.6880648 38.737594 19.7829049 55.786971 33.4883731 38.662262 31.07831 64.021237 70.444213 75.096295 118.840784 5.069021 22.149568 7.031606 44.552306 5.645241 67.139171-2.823611 45.989796-17.628903 87.671069-46.568109 124.021927-19.064166 23.946101-41.696007 43.840795-68.532538 58.735842-10.058744 5.583588-20.521898 10.520765-31.085494 15.101529-8.170169 3.542432-16.783736 6.071519-25.199722 9.051054-.118285-.291969-.236568-.584596-.354852-.876566 4.220549-1.935284 8.445723-3.860047 12.660985-5.806509 15.741649-7.267674 30.17623-16.598202 43.65595-27.430007 22.54792-18.118547 41.536093-39.378398 56.712095-63.958413 15.362348-24.881192 25.758761-51.69175 31.087476-80.420495 3.103131-16.731034 4.480245-33.619891 3.876271-50.616592-1.368523-38.522216-11.017568-74.764571-30.833068-108.07408-13.38919-22.507296-30.110809-42.2790217-49.860889-59.5505946-16.798934-14.691194-35.348996-26.7125769-55.395776-36.4889514-4.635532-2.2607907-9.395958-4.2690672-14.099553-6.3930794.115641-.3268217.23062-.6529858.3456-.9798076" fill="#c8232e"/><path d="m86.4069954 275.286185c-1.0982546-5.696693 1.2707241-9.162187 5.9934831-12.703303 11.1014905-8.323102 21.7483485-17.295246 32.1341885-26.502149 11.395548-10.102538 22.650344-20.41419 33.313061-31.270324 12.49975-12.72632 24.394864-26.047098 36.372579-39.271211 23.443308-25.880727 44.723808-53.466582 64.780499-82.0046258 1.905757-2.7105815 2.448276-2.6612623 4.629586.2965726 7.395708 10.024943 14.574671 20.2162562 22.221484 30.0478682 9.386706 12.069387 18.836189 24.119045 28.847354 35.671568 13.466504 15.538826 27.260767 30.81396 41.358998 45.786601 10.739371 11.405879 21.735793 22.647362 33.406895 33.088559 14.334139 12.822985 29.395822 24.8516 44.38019 36.932166 2.565898 2.068776 2.851365 4.098094 2.59233 6.748836-.105068 1.079104-.427539 2.137163-.651552 3.20443-2.327347-.601693-4.769015-.934434-6.964202-1.849797-10.589368-4.416367-21.112656-8.988584-31.659072-13.50622-6.397234-4.035622-12.78852-8.081109-19.201613-12.091086-.638997-.399814-1.39033-.687838-2.129107-.854865-10.885407-2.469905-21.196578-6.505529-31.080208-11.585403-31.33726-16.10501-56.879939-39.068672-78.81199-66.269181-1.501345-1.862291-3.021852-3.709458-4.638176-5.690773-.629746.759515-1.051338 1.248761-1.451785 1.754447-15.399353 19.44885-32.739484 36.96373-52.646835 51.861407-17.622954 13.188603-36.516634 23.975692-58.104406 29.467217-1.581962.402444-3.278904.729924-4.641481 1.553225-6.475869 3.913311-12.853939 7.98576-19.266372 12.002313-1.677118.793053-3.35754 1.578214-5.029371 2.380472-10.885408 5.224544-21.8283052 10.297843-33.7544776 12.803256" fill="#d7dada"/><path d="m137.168295 383.658811c-9.641116-9.692203-17.507975-20.733778-24.828351-32.202129-1.49804-2.346935.495603-2.521195 1.728661-3.051213 14.585243-6.269453 28.283029-14.095418 41.323976-23.102413 24.493323-16.916476 45.673381-37.392479 64.926537-59.916872 1.909721-2.23383 2.663697-2.467273 4.227817.255144 16.05487 27.942926 58.709042 26.82634 73.853985-.663507 1.352665-2.455437 2.071618-1.635424 3.383312-.069047 14.907055 17.799617 31.279109 34.134126 49.480267 48.612919 17.422071 13.860658 36.139976 25.645309 56.628173 34.512239 2.711935 1.173139 3.471198 1.984603 1.611698 4.825388-7.028961 10.739742-14.48348 21.115179-23.61842 30.209634-19.163287.410335-36.829854-5.281754-53.688921-13.622612-19.426947-9.61132-36.593287-22.486911-51.863784-37.77914-6.103837-6.11229-11.682336-12.748019-17.411497-19.223298-1.361254-1.5381-2.215012-1.612408-3.55446.009864-9.852573 11.926691-20.7208 22.821623-32.706444 32.67362-14.242948 11.707056-29.554414 21.619552-46.620312 28.69192-10.549719 4.372308-21.345919 7.977212-32.920544 8.635458-3.329125.189385-6.635122.79108-9.951693 1.204045" fill="#29607e"/><path d="m125.190646 260.102194c6.413093-4.015896 12.791164-8.089001 19.266372-12.002313 1.362576-.822644 3.059518-1.150123 4.64148-1.552567 21.588434-5.492183 40.482113-16.278614 58.104408-29.467218 19.90735-14.897676 37.247482-32.413215 52.646835-51.861407.400446-.505686.822699-.994933 1.452444-1.755105 1.615663 1.981974 3.136171 3.828482 4.638177 5.690775 21.93139 27.200507 47.474068 50.16417 78.811329 66.269838 9.88363 5.079217 20.1948 9.115498 31.080869 11.584744.738777.167685 1.48945.455051 2.129106.854865 6.413094 4.010635 12.80372 8.056122 19.19897 12.091088-7.771043 12.054262-19.237957 18.309248-33.186187 19.667169-6.215512.604982-12.618693-.688496-18.93663-1.120531-15.014106-13.291188-28.4403-28.096144-40.511189-44.005192-14.174223-18.680787-27.628173-37.902111-41.392039-56.890648-.507496-.700333-.992525-1.416447-1.734607-2.477138-2.478012 3.563475-4.833114 6.915206-7.153853 10.290608-15.285695 22.234398-31.195188 44.019003-49.151188 64.20238-8.878548 9.980227-18.535523 19.275246-27.84029 28.87999-1.310373.070362-2.620084.178864-3.931118.206483-6.537323.136778-13.241831 1.231664-19.57827.165712-12.034544-2.023401-21.791961-8.362558-28.554619-18.771533" fill="#c8232e"/><g fill="#202d33"><path d="m137.168295 383.658811c3.316571-.412965 6.622568-1.01466 9.951693-1.204045 11.574625-.658246 22.370825-4.26315 32.920544-8.635458 17.065898-7.072368 32.377364-16.984864 46.620312-28.69192 11.985644-9.851997 22.853871-20.746929 32.706444-32.67362 1.339448-1.622272 2.193206-1.547964 3.55446-.009864 5.729161 6.475279 11.30766 13.111008 17.411497 19.223298 15.270497 15.292229 32.436837 28.16782 51.863784 37.77914 16.859067 8.340858 34.525634 14.032947 53.688921 13.622612-10.868888 11.747168-23.32965 21.563656-36.940208 29.949887-.90464.557635-2.55797.618792-3.563712.199907-18.78795-7.829911-34.786651-19.471208-47.668344-35.205996-2.272502-2.77634-3.91658-6.055736-5.923438-9.054341-15.208381-22.718381-47.193229-22.303444-61.709748.904842-12.806363 20.475347-31.448936 33.771794-53.149046 43.381799-.903979.400472-2.423825.343918-3.257758-.156507-13.527959-8.128456-25.804358-17.817372-36.505401-29.429734"/><path d="m125.190646 260.102259c6.762658 10.408976 16.520075 16.748132 28.554619 18.771533 6.336439 1.065952 13.040947-.028933 19.57827-.165712 1.311034-.027619 2.620745-.13612 3.931118-.206483-20.987763 20.061723-44.436357 36.494213-71.305929 47.881022-5.544137 2.349565-5.501185 2.328523-7.6884428-3.350415-5.5183658-14.328863-9.1270109-29.126586-11.1437816-44.325439-.1533063-1.150781-.4691702-2.280518-.7097025-3.420777 11.9268332-2.505414 22.8697309-7.578055 33.7544779-12.803257 1.672492-.802258 3.352914-1.587419 5.029371-2.380472"/><path d="m345.038082 278.501268c6.317939.432037 12.720459 1.726171 18.936632 1.120533 13.948229-1.357922 25.415144-7.612908 33.186187-19.66717 10.548398 4.517636 21.071686 9.090509 31.661054 13.506219 2.195187.916021 4.636193 1.248761 6.964203 1.850455-1.895184 17.594449-6.306043 34.546433-12.945792 50.957222-.981292 2.425189-2.179989 1.697895-3.775828 1.053458-15.43768-6.236573-29.936358-14.257185-43.303081-24.062494-10.596637-7.773358-20.508021-16.470629-30.723375-24.758223"/></g></g></g></svg>