<svg height="4096" viewBox="0 0 4096 4096" width="4096" xmlns="http://www.w3.org/2000/svg" xmlns:xlink="http://www.w3.org/1999/xlink"><mask id="a" fill="#fff"><path d="m0 0h4096v4096h-4096z" fill="#fff" fill-rule="evenodd"/></mask><g fill="none" fill-rule="evenodd"><path d="m760.377701 3161.53929c147.529002 0 289.825519-4.69594 431.588099 1.87262 77.34182 3.58197 115.95933-18.74535 151.52861-90.66331 247.26664-499.94942 500.95013-996.79703 752.69206-1494.57613 11.35809-22.46176 25.41494-43.15655 15.63921-70.93845-59.72221-169.76443-112.65868-341.86242-180.23448-508.909155-9.17384-22.682633-19.53204-44.79868-44.31598-67.817422-376.26351 744.916087-749.74089 1484.339177-1126.897519 2231.031847m807.851619-2620.189764c16.6197 24.651278 47.58749 23.105171 69.29407 38.182111 186.30184 129.479227 339.67492 287.105277 415.99742 503.713853 133.36536 378.45041 262.45931 758.38931 392.7376 1137.89606 103.35864 301.09706 205.9892 602.4342 308.26057 903.89618 6.45567 19.03344 10.21258 36.20387 35.58869 36.15595 157.65421-.24018 315.31813-.11534 475.43811-.11534-4.43645-15.58591-6.98959-26.36064-10.54264-36.80886-223.07488-654.51207-445.63525-1309.20659-669.83623-1963.34414-49.55817-144.59458-88.16598-293.41454-152.53821-432.420088-59.07179-127.587407-157.65421-201.262748-308.14408-197.834425-168.08036 3.822052-336.30633 1.209996-504.47405 1.584519-17.54194.02881-35.69548-2.103089-51.78125 9.09418m2527.77328 1513.695994c4.69305 941.54052-660.82322 1778.96372-1599.25407 1986.49733-704.25028 155.75343-1327.46008-25.45794-1857.261707-506.8925-363.410424-330.23301-563.225483-746.87513-624.7824616-1229.72135-30.6474344-240.43398-11.08627499-477.72773 37.3263811-714.65657 52.8976465-258.84322 163.5468255-491.99801 308.4644375-710.58484 80.652165-121.671868 182.302239-226.432595 289.107141-326.017227 324.754077-302.816025 708.599359-489.4723869 1151.215489-538.573276 705.08515-78.2080267 1300.90933 147.715603 1774.20202 671.394398 281.79719 311.794967 447.77095 680.382945 505.12447 1095.690225 1.31055 9.49752 1.66973 19.11987 2.81525 28.64619 9.79514 81.12738 12.29975 162.61969 13.04305 244.21762" fill="#2a2828" mask="url(#a)"/><g fill="#f2f2f2"><path d="m1568.2332 541.350486c16.07607-11.206872 34.23931-9.06537 51.78125-9.103783 168.16773-.364919 336.3937 2.247137 504.47405-1.574916 150.48987-3.428323 249.07229 70.247018 308.14408 197.834425 64.36253 139.005549 102.98004 287.825518 152.53822 432.420088 224.20098 654.13755 446.76134 1308.82247 669.82652 1963.34414 3.56275 10.43862 6.11589 21.22296 10.55234 36.80886-160.12969 0-317.78389-.12484-475.44781.11534-25.36641.04792-29.12331-17.12251-35.57898-36.15595-102.27137-301.46198-204.91164-602.79912-308.27028-903.89618-130.2783-379.51636-259.36253-759.44565-392.7279-1137.89606-76.3322-216.608576-229.69558-374.234625-415.99742-503.713852-21.70658-15.086544-52.67437-13.530834-69.29407-38.182112"/><path d="m760.377701 3161.53929c377.156629-746.69267 750.634009-1486.11576 1126.897519-2231.031847 24.78394 23.018742 35.14214 45.134789 44.31598 67.817422 67.5758 167.046735 120.51227 339.144725 180.23448 508.909155 9.77573 27.7819-4.28112 48.47669-15.63921 70.93845-251.74193 497.7791-505.42542 994.62671-752.69206 1494.57613-35.56928 71.91796-74.18679 94.24528-151.52861 90.66331-141.76258-6.56856-284.059097-1.87262-431.588099-1.87262"/></g></g></svg>