<svg height="1597" viewBox="0 0 3021 1597" width="3021" xmlns="http://www.w3.org/2000/svg" xmlns:xlink="http://www.w3.org/1999/xlink"><linearGradient id="a" x1="50%" x2="50%" y1="0%" y2="100%"><stop offset="0" stop-color="#fff"/><stop offset="1" stop-color="#fff"/></linearGradient><mask id="b" fill="#fff"><path d="m0 0h200.995912v474.295725h-200.995912z" fill="#fff" fill-rule="evenodd"/></mask><mask id="c" fill="#fff"><path d="m0 0h225.745926v276.380159h-225.745926z" fill="#fff" fill-rule="evenodd"/></mask><g fill="none" fill-rule="evenodd"><path d="m0 0h3021v1597h-3021z" fill="url(#a)"/><g transform="translate(1135 506)"><text fill="#211f2b" font-family="SFCompactRounded-Regular, SF Compact Rounded" font-size="201" letter-spacing="-1.51127795"><tspan x="0" y="191">LlamaDev</tspan></text><text fill="#000" font-family="SFCompactDisplay-Medium, SF Compact Display" font-size="66" font-weight="400" letter-spacing="-.496240602"><tspan x="0" y="285">Develop with Ollama like a pro</tspan> <tspan x="0" y="364"/><tspan font-family="SFCompactDisplay-Thin, SF Compact Display" font-size="54" font-weight="300" letter-spacing="-.406015038" x="0" y="403">A secure, Alpine-based Docker environment that accelerates </tspan><tspan font-family="SFCompactDisplay-Thin, SF Compact Display" font-size="54" font-weight="300" letter-spacing="-.406015038" x="0" y="467">your LLM workflow with a fully configured NeoVim, powerful </tspan><tspan font-family="SFCompactDisplay-Thin, SF Compact Display" font-size="54" font-weight="300" letter-spacing="-.406015038" x="0" y="531">developer tools, and hardened security features—preloaded </tspan><tspan font-family="SFCompactDisplay-Thin, SF Compact Display" font-size="54" font-weight="300" letter-spacing="-.406015038" x="0" y="595">with Ollama for seamless testing and development.</tspan></text></g><g fill-rule="nonzero" transform="translate(508 511)"><path d="m127.342426 132.915575c2.859436 40.29227 26.876583 55.657829 54.006867 80.38243 2.450945 2.232805 5.913679 5.139065 7.153498 8.133102-.536852.701486-.51269 1.89202-.755066 2.212889-.230296.304641-.947608.723614-1.510133 1.475258-.199337.266285-.551198.463232-.755066.73763-.493814.666079-.613869 1.283475-.755066 1.475259-3.46953 4.725254-7.953868 8.986539-9.815861 14.752588-.268804.163754-.473427.565762-.755067.73763-6.358412 3.890995-10.871443 6.41-18.87288 6.266162 2.197998 2.217314 5.455354 2.289602 8.314789 2.941666 1.518438 1.015716-.526281 1.46567-.666723 2.347137-.526281 3.321545 6.04657.386518 6.690642.989161l-.746761 5.892922c.638031.692634 5.797399-2.568426 6.421083-3.669707-.394144 1.743756-.775452 7.799694.380554 8.83385 1.440666 1.287901 3.705865-5.027682 5.267342-5.160455.158564 10.900687 4.756917 19.305975 11.356196 27.638975 3.076895 3.885831 5.337563 6.751521 8.283076 10.717756-3.88557 2.091915-6.665724 5.521154-9.809065 8.493064l3.009694 1.461245-8.298178 6.646042c3.47255 1.902344 6.966241.122445 10.563377.730251-3.946731 3.9773-9.053999 6.618749-12.077285 11.42957l12.077285-1.102756c-3.224133 3.587827-11.492863 10.345989-12.82178 14.77029-.448509 1.492962.853225 1.189797 1.87332 1.097592 2.795255-.253743 5.13294-2.086754 7.939521-1.849235-3.082181 3.210899-10.077869 10.617437-11.320708 14.768817-.339025 1.130785.058895 1.194958 1.08805 1.071773 1.667942-.200635 8.797277-2.696771 9.470041-2.18707l-10.564887 13.648356c-.283905 1.657454.582156 1.070303 1.713246.939741 2.638201-.303902 5.355684-2.050611 8.096575-2.048397-3.432531 3.149679-7.817956 6.395248-9.05702 11.053377l12.828576-2.581703c-1.259451 1.945868-6.481489 5.386908-7.206352 7.039935-.614625 1.40076.538362 2.498352.06569 3.646102-.576115 1.399284-5.777012 5.430429-6.44147 7.763552l9.051734-1.484111-12.073509 13.284705c4.504725.765659 9.029837-2.378854 13.594968-2.216576-.969505.54142-11.258793 12.401027-10.578478 12.90114 3.690763.596002 6.970016-2.566952 10.567152-1.102756-5.197121 3.932302-9.46098 8.687798-13.587417 13.642456l15.840534-4.79533-4.522091 6.639401 4.534172.741319-5.277913 7.007479c.500609.433727 8.511862-2.926913 6.030714-.010325-.183481.215387-3.652255 1.906034-4.821097 3.044197-2.241037 2.181169-4.676126 5.452557-6.498856 8.026883l11.310892-1.844075c-1.820464 1.245119-13.520215 13.744988-12.062182 15.125093l13.570805-4.799756c-1.48446 4.070239-4.531153 7.233933-7.52801 10.345252l3.76325 2.193711-9.049469 11.079194 9.051734-1.484112c-3.606196 3.519968-7.481196 6.903476-9.812086 11.42957 1.564497 1.152914 8.089025-2.893719 10.182824-2.954205 2.389784-.069339-1.64378 2.314679-1.892197 2.546297-5.064229 4.719352-9.500243 9.977175-13.572315 15.540375 5.404764-.101792 10.293063-4.598381 15.837514-5.174471-2.817152 1.608033-1.781956 3.951481-2.660853 6.244771-1.356854 3.542096-6.209665 4.324722 1.917113 4.823359-1.242084.82762-10.416894 10.969287-9.812086 11.429569 3.036121-.035407 5.684139-1.694334 8.298178-2.94314.638786.64321-7.720552 10.331237-7.173884 12.524208l6.791066-2.948304-4.134743 4.433152c3.170523.001477 6.004286-3.399733 9.051734-2.57949l-15.848085 17.331342 16.99352-8.091059c-1.70947 4.618299-5.537656 7.837315-8.67269 11.420718 1.070683 1.518042 1.085785.723615 2.044719.559123 2.262178-.38873 4.469992-1.920786 6.6695-2.363364.712027-.1431 2.804316-.556911 2.586857.684521l-12.075774 6.648252c-201.172296-71.207793-255.9093122-323.942505-89.1083866-461.3975365 8.2966676-6.8370872 17.2034286-13.2478244 26.4378896-18.7992234-1.769121 14.3896749-2.04321 33.1446409.126095 47.4539139.292966 1.930376.184992 5.41125 2.139103 6.393034" fill="#d55b35"/><path d="m18.1215895 474.295725-6.7918207-3.323019 8.2981778.368074c1.2133915-1.071036-6.7208445-8.937118-7.5468869-10.315009l13.5874168 4.053273c-2.9085151-3.070012-5.4991474-6.466797-8.2981779-9.621638-.6742741-.760494-2.0696365-.979571-2.211589-1.175779-.2151939-.300218 1.6332083-4.702388-2.3188084-6.175435 3.6009109-1.173569 6.8446754 2.797091 10.5747026 2.209199-3.3192712-5.007765-7.8013443-9.086118-12.084835-13.273641 2.6457521-1.050384 5.5580425 1.272412 8.3019532 1.102756.6055631-.464706-4.2079841-6.329599-4.5220917-7.012642-1.0291552-2.237968 4.0766026 1.060712 3.0051636-1.452392-.478712-1.124885-3.6688668-3.137875-4.5198264-4.439793l3.7647602-1.461243-4.5198265-4.059914c5.6358144-.300214 10.2787166 3.657907 15.8375142 4.056964-3.5865646-3.645365-6.704233-7.661019-10.545255-11.082884-1.1393949-1.015714-5.7475641-3.716176-6.0450602-4.059911-2.98704199-3.453581 8.5994493 1.489272 9.0494688.387993-2.6970966-4.953921-7.1217847-7.880833-11.32070801-11.431043l12.82102461 3.319332c-4.4511155-4.562238-8.3774598-9.730071-12.80592329-14.021598 5.51122839-2.11921 2.15948939-2.358939.74374019-6.266899.8615306-.747956 10.7491229 2.880441 12.8285753 1.106443-3.6809479-4.142526-8.2551391-7.219178-12.8285753-10.334188l6.0329792.007377-6.78804538-9.220367c.63501068-.555435 9.05248898 2.688657 10.77403998 3.115746.9966875.247104 1.446707 1.39707 1.2941836-.525192-1.8144242-1.945131-3.1425857-4.302593-4.8898089-6.291242-.9861165-1.121934-9.69429535-8.653868-8.68854715-9.576644l5.27791295.730255-3.0127143-4.056964 3.7662704.369554-3.0149794-6.628339 15.8405344 6.270589-12.061428-13.289132 6.7857802.380615c-2.6472622-1.392643-4.469992-5.435592-6.7540674-7.787891-1.5984752-1.647126-3.8848157-2.543346-5.31717638-4.394795l7.54311158 1.105706c.5285464-2.532282-6.4324091-8.84934-5.2741376-10.322387l9.0366327 3.328183-6.7752093-11.077717c-.2408661-.93089 2.7008719.585678 2.2312207-1.433953-.7444953-3.198361-5.0325164-5.825059-6.76539341-8.512242 4.41260701-.655754 7.85419891 4.071712 12.08861031 2.566949-.0739965-2.898146-9.1408317-9.836288-11.3335441-12.156134 3.8123294.312756 7.478931 3.088457 11.3222181 2.578017l-13.58741678-15.855345c4.34691628.244893 8.43484488 3.468333 12.82782018 2.583178-2.0847378-4.967934-4.9622953-9.679173-9.0487137-13.289869 1.3198558-1.33511 7.0840314 1.595492 7.5416015 1.107181-.9287314-6.615798-7.1512323-11.094684-12.07199888-15.122141l10.17904788 1.858089c1.3847914-2.537445-2.7597671-4.403648-4.1317224-6.290504l-9.06608026-6.991251c3.92332414.739104 8.04523066 2.294765 12.07199886 1.104231-.980831-1.595493-9.49797808-5.268887-8.20454964-6.942568.16762472-.216864 1.92239864.282512 1.40744345-1.164717-3.07613979-3.009528-6.47469291-5.783753-9.81057551-8.493066 6.37200393-13.064892 20.6435107-23.373263 20.3905635-39.090671l6.0329792 4.4184-1.5025818-8.106548 7.5431116.730254c.6410514-3.157054-3.6318684-3.74347-3.7670253-6.632027 5.3768265 2.074214 9.2314395-.283249 12.8278201-4.0636l-4.5228467-.372503 2.2568931-2.940191c-5.2930144 1.965045-8.2528741.221289-12.8315957-1.478209-.6199093-2.355251-1.9140928-4.7732-3.1667477-6.86438-2.3172983-3.866653-7.5234799-11.069605-10.4244444-14.526874 13.3518362-16.867372 34.0512219-28.091879 46.3678622-45.8001491 7.1444367-10.2729651 14.6716917-27.8794419 18.0377771-39.9138661.3865939-1.3823176 1.19678-8.6354278 2.0401889-8.7025521.0528547-.0044257-.1102396.8659772.7475155.7376296 1.0767245-5.1110344.6357659-10.7074288.7626169-15.490218.0860777-3.238931 1.0178294-8.2083405.8396336-10.7221816-.0981585-1.3882186-1.4927658-.7280402-1.6611457-2.1398629-.6901304-5.7896535-.1464828-11.53873726-1.4436866-18.1183918 10.0499316 5.22684215 20.028887 12.9483471 28.7038432 20.2737449 158.740593 134.0567731 106.436401 380.7746411-85.4931293 453.5152291-1.0910707.413809-3.4287557.394631-3.6160122.506751" fill="#d55b35" mask="url(#b)" transform="translate(375.0041 82.0191)"/><path d="m455.796161 112.999581c-.126853 4.782789.314108 10.379183-.762618 15.490218-.857754.128347-.694659-.742055-.747515-.737629v-7.376295z" fill="#3d3937"/><path d="m184.72746 227.332143c.141197-.191784.261252-.80918.755066-1.475259z" fill="#f6f3e7"/><path d="m186.237592 225.119254c.562525-.751644 1.279837-1.170617 1.510133-1.475258z" fill="#f6f3e7"/><path d="m24.158344.73762943c.3110873.43225085.4454891 1.03858224.7550663 1.47525887-1.4874805.74869387-.5338319 2.56842568-.3881041 3.68445901.5761156 4.41102399 2.0213123 10.97002489 1.9805387 15.14353229-.0256722 2.6687432-.8494495 5.2696246-.8373684 9.2019271-2.1451432 5.8029307-2.7038922 14.6921031-2.2553828 21.0128496.5806459 8.1913749 4.0282783 15.6443827 6.7857801 23.2449163 3.4884061 9.6157373 4.307653 12.5183092 10.4040577 21.185455 13.1577839 18.7077574 44.2393304 57.8508014 65.3434315 65.9883284 16.527645 6.373119 28.439569-5.86194 37.825043-17.900053 13.921156-17.858009 23.155616-41.64582 32.910316-61.8974361.906835-.4787215 4.83318-3.5030021 6.04053-4.4257766 5.457619-1.8462864 8.336687-6.1673196 10.570928-11.0644414 6.030714-13.2175819 3.294354-23.629959 2.255382-37.2738906-.107219-1.4088721.845674-2.9674831-1.500316-2.5580987-.023407-4.0304072-.206133-8.175147-.030958-12.2011285.124586-2.8590517 2.014517-6.55457513.030958-9.19012508.706742-1.1152957 1.334957-2.35893892 1.510132-3.68814715.181971.1504764 1.322876-.15195167 1.510133 0 3.335882 2.70931291 6.734435 5.48353719 9.810575 8.49306526.514955 1.44722897-1.239819.94785387-1.407443 1.16471687-1.293429 1.6736812 7.223718 5.3470758 8.204549 6.9425682-4.026768 1.1905339-8.148674-.3651265-12.071999-1.1042312l9.066081 6.9912517c1.371955 1.8868561 5.516514 3.7530586 4.131722 6.2905039l-10.179048-1.8580887c4.920767 4.0274569 11.143268 8.5063427 12.071999 15.1221411-.45757.4883107-6.221745-2.4422912-7.541601-1.1071817 4.086418 3.6106958 6.963976 8.321935 9.048713 13.2898694-4.392975.8851553-8.480904-2.3382852-12.82782-2.5831783l13.587417 15.8553446c-3.843287.5104395-7.510644-2.26526-11.322218-2.5780147 2.192712 2.3198444 11.259548 9.257987 11.333544 12.1561329-4.234411 1.5047639-7.676003-3.2227031-12.08861-2.5669504 1.732877 2.6871839 6.020898 5.3138825 6.765393 8.5122436.469651 2.0196295-2.472087.5030632-2.231221 1.4339517l6.77521 11.0777187-9.036633-3.3281839c-1.158272 1.473046 5.802684 7.7901041 5.274138 10.3223861l-7.543112-1.105706c1.432361 1.85145 3.718701 2.747669 5.317176 4.394796 2.284076 2.3523 4.106806 6.395247 6.754068 7.787891l-6.78578-.380616 12.061428 13.289131-15.840535-6.270588 3.01498 6.628339-3.766271-.369553 3.012714 4.056962-5.277912-.730253c-1.005749.922774 7.70243 8.454709 8.688547 9.576643 1.747223 1.988649 3.075384 4.346113 4.889808 6.291241.152524 1.922263-.297496.772299-1.294183.525193-1.721551-.427088-10.139029-3.671182-10.77404-3.115747l6.788045 9.220368-6.032979-.007377c4.573436 3.11501 9.147628 6.191662 12.828575 10.334189-2.079452 1.773998-11.967044-1.854401-12.828575-1.106444 1.415749 3.90796 4.767488 4.14769-.74374 6.266899 4.428463 4.291528 8.354808 9.45936 12.805923 14.021598l-12.821024-3.319332c4.198923 3.55021 8.623611 6.477124 11.320708 11.431043-.45002 1.101281-12.036511-3.841574-9.049469-.387993.297496.343735 4.90491 3.044197 6.04506 4.059912 3.841022 3.421863 6.958691 7.437518 10.545255 11.082882-5.558797-.399057-10.202455-4.357176-15.837514-4.056961l4.519826 4.059912-3.76476 1.461244c.85096 1.301916 4.041115 3.315644 4.519826 4.439792 1.071439 2.513103-4.034318-.785576-3.005163 1.452392.314108.683045 5.127655 6.547936 4.522091 7.012643-2.74391.169655-5.6562-2.15314-8.301953-1.102756 4.283491 4.187522 8.765564 8.265875 12.084835 13.273641-3.730027.587891-6.973791-3.382768-10.574702-2.2092 3.952017 1.473046 2.102859 5.875219 2.318808 6.175434.141953.19621 1.537315.415285 2.211589 1.175781 2.799031 3.154841 5.389663 6.551625 8.298178 9.621639l-13.587417-4.053274c.826043 1.377892 8.760279 9.243972 7.546887 10.315748l-8.298178-.368815 6.791821 3.32302c-9.747905 5.830223-31.273333 10.449997-43.651889 13.04719-54.070293 11.345478-109.8832779 8.254073-161.72612534-10.096672l12.07577424-6.648254c.2174591-1.24143-1.8748295-.82762-2.5868569-.68452-2.1995079.442578-4.4073216 1.974634-6.6695 2.363365-.9589342.164491-.9740355.958918-2.0447194-.559123 3.135035-3.583404 6.9632208-6.802419 8.6726907-11.420717l-16.99352054 8.091057 15.84808504-17.331341c-3.0474472-.820244-5.8812108 2.580965-9.0517339 2.57949l4.1347427-4.433153-6.79106569 2.948305c-.54666798-2.192972 7.81267029-11.880997 7.17388429-12.52421-2.6140394 1.248807-5.26205661 2.907735-8.29817794 2.943141-.60480803-.46028 8.57000174-10.601947 9.81208564-11.429568-8.1267778-.498637-3.2739671-1.281262-1.9171131-4.823358.8788971-2.29329-.1562987-4.636739 2.6608534-6.244771-5.5444513.576088-10.43275012 5.072678-15.8375142 5.17447 4.07207218-5.563201 8.50808629-10.821023 13.5723155-15.540377.2484168-.231615 4.2819806-2.615634 1.8921959-2.546296-2.0937986.060485-8.61832589 4.10712-10.18282314 2.954206 2.33088947-4.526095 6.20588934-7.909601 9.81208564-11.429569l-9.05173393 1.484111 9.04946873-11.079194-3.7632501-2.19371c2.9968579-3.111321 6.0435502-6.275014 7.5280104-10.345253l-13.5708054 4.799755c-1.45803288-1.380105 10.2417184-13.879973 12.062183-15.125092l-11.3108921 1.844074c1.82272987-2.574327 4.2578185-5.845713 6.498855-8.026884 1.1688426-1.138162 4.6376168-2.828808 4.8210979-3.044196 2.4811476-2.916587-5.530105.444053-6.0307139.010327l5.2779129-7.00748-4.5341727-.741318 4.5220916-6.639402-15.8405344 4.795329c4.12643696-4.954657 8.39029595-9.710154 13.5874168-13.642457-3.5971355-1.464194-6.87638814 1.698761-10.56715187 1.102756-.68031468-.500112 9.60897277-12.359718 10.57847787-12.901138-4.56513043-.162279-9.09024235 2.982235-13.59496747 2.216576l12.07350907-13.2847061-9.05173402 1.4841107c.66445828-2.333122 5.86535447-6.3642669 6.44147002-7.76355.4726714-1.1477514-.68031468-2.2453439-.0656908-3.6461022.7248636-1.6530277 5.9469017-5.0940687 7.2063521-7.0399354l-12.82857521 2.5817031c1.23906367-4.6581298 5.62448831-7.9036994 9.05701941-11.053377-2.7408904-.0022129-5.45837377 1.7444936-8.09657518 2.0483969-1.1310892.1305604-1.99715018.7177134-1.71324527-.9397398l10.56488665-13.6483576c-.672764-.5097018-7.80209932 1.9864361-9.47004062 2.1870714-1.02915526.1231841-1.42707518.0590104-1.08805044-1.0717757 1.24283902-4.1513784 8.23852766-11.5579156 11.32070796-14.7688163-2.8065812-.2375167-5.14426619 1.5954924-7.93952139 1.849237-1.02009445.0922036-2.32182863.3953692-1.8733193-1.0975927 1.32891657-4.4243015 9.59764689-11.182462 12.82177959-14.7702917l-12.0772843 1.1027559c3.02328518-4.8108191 8.1305532-7.4522701 12.0772843-11.429568-3.5971355-.6078066-7.0908269 1.1720932-10.56337651-.7302531l8.29817791-6.64604121-3.009694-1.4612439c3.1433407-2.971909 5.9234945-6.40114822 9.8090654-8.49306529.206133.27734867 1.3032443.44995395 1.5101324.73762943" fill="#ede6d6" mask="url(#c)" transform="translate(177.9356 299.6198)"/><path d="m232.296632 346.09048c-.903814 10.789307-2.481148 24.159577 7.303001 31.591195 23.54221 17.88235 49.889492 26.934538 77.053752 9.879072 8.344238-5.238647 22.410368-14.489257 25.484996-23.787075 1.642269-4.967936.974036-13.381335 2.66312-16.94556.065691-.137939 1.001219-.544371 1.376485-1.209712 7.76057-13.765641 17.317445-27.434652 25.805899-40.835168 1.983558 2.635552.093628 6.331075-.030957 9.190128-.175177 4.025981.007548 8.17072.030957 12.201128.064181 11.18246 2.293135 28.812543-1.510133 39.094359-1.618861 4.376354-6.177197 9.021206-9.815861 11.802071-1.20735.922773-5.133695 3.947054-6.040529 4.425775-4.358242 2.300667-15.244031 4.453071-18.094407 6.296406-.615381.39832-6.000511 9.896037-7.946317 12.153183-4.277452 4.961295-9.454941 8.732056-14.732853 12.530849-21.463512 11.029036-51.107413 9.097183-66.759936-10.388773-1.939765-2.415001-6.587953-11.633155-7.991621-12.47774-2.536267-1.526892-10.035585-3.153367-13.579866-4.805657-4.704062-2.192971-11.316933-6.550886-14.357584-10.684561-8.402377-11.425142-7.508379-30.776112-7.550663-44.257766-.012081-3.932302.811697-6.533184.837369-9.201929.040773-4.173505-1.404423-10.732508-1.980539-15.143531-.145728-1.116034-1.099376-2.935764.388104-3.68446 9.397554 13.267741 17.309894 27.518006 26.408442 40.953189.847184 1.251019 1.525988 2.65399 3.039141 3.304577" fill="#f6f3e7"/><path d="m211.154778 374.1204c3.040651 4.133675 9.653522 8.49159 14.357584 10.684561 3.544281 1.65229 11.043599 3.278765 13.579866 4.805657 5.187305 25.296263 34.323046 35.816334 58.161241 30.632275 3.221868-.700748 13.790531-4.414713 16.11236-6.242557.778472-.61297.412264-1.475997.477956-1.523205 5.277912-3.798793 10.455401-7.569554 14.732853-12.530849 1.945806-2.257146 7.330936-11.754863 7.946317-12.153183 2.850376-1.843335 13.736165-3.995739 18.094407-6.296406-9.754701 20.251617-18.989162 44.039429-32.910317 61.897437-9.385472 12.038113-21.297399 24.273171-37.825044 17.900055-21.1041-8.13753-52.185647-47.280574-65.34343-65.988331-6.096405-8.667146-6.915652-11.569716-10.404058-21.185454z" fill="#48443e"/><path d="m211.154778 374.1204h-3.020265c-2.757502-7.600533-6.205134-15.053543-6.78578-23.244918-.44851-6.320745.110239-15.209918 2.255382-21.012848.042284 13.481654-.851714 32.832624 7.550663 44.257766" fill="#3d3937"/><path d="m371.983885 326.174488c2.34599-.409385 1.393096 1.149227 1.500317 2.558098 1.038971 13.643932 3.775331 24.056307-2.255383 37.27389l-.755067-.737629c3.803268-10.281816 1.574314-27.911899 1.510133-39.094359" fill="#3d3937"/><path d="m371.228819 366.006476c-2.234242 4.897122-5.113308 9.218154-10.570928 11.064442 3.638664-2.780865 8.197-7.425717 9.815861-11.802071z" fill="#48443e"/><path d="m313.843785 412.477131c-.065692.047208.300516.910235-.477956 1.523205-2.321829 1.827844-12.890492 5.541809-16.11236 6.242557-23.838195 5.184059-52.973936-5.336012-58.161241-30.632275 1.403668.844585 6.051856 10.062739 7.991621 12.47774 15.652523 19.485956 45.296424 21.417809 66.759936 10.388773" fill="#222123"/><path d="m247.77549 272.327538v.73763c.490038-.245631.490038-.491999 0-.73763m-33.600447-132.035668c2.159489 3.398259 4.558334 6.323697 6.795596 9.589182 4.84224 7.06649 10.196414 13.895464 14.346258 21.391254-.112505.037619-.667478 1.190534-1.701164 1.62426-2.934188 1.231103-10.684942 3.661592-12.613382 5.4142-3.590339 3.263273.27711 9.039649-9.088732 6.243295.891733 3.455794.889468 6.129701.003776 9.584757 7.689594-6.361316 14.464803-13.15267 23.154106-18.309437 1.973743-1.171356 6.348596-.901384 4.020727-3.819446 1.25039.258908 2.438109.86819 3.771556.734679l.007551-4.419138c2.623855.017703 3.104832 3.609221 6.032979 2.943142l.011326-5.897347 5.659221 5.159717.377533-4.4184c2.551369-.536257 3.357025 2.028481 5.274138 2.94683l.015101-6.638665c4.570416 2.533019 8.32083 12.993342 7.550663.737629 1.871809.204323 2.186671 5.630326 3.813084 3.258847.476447-.694109.154789-2.647352 1.457278-2.517529-.265783.844586.613114 5.957833 2.262178 4.419138 1.454258-1.357238-.304291-9.895299 4.163435-2.96232l3.388737-4.409549 1.527499 6.636452 6.778229-5.898822 2.651794 6.622437 4.534172-6.620224 1.889176 6.632763c1.344017 1.169881 6.14473-5.734331 7.171618-6.632763l1.892953 6.632026c1.90503 1.258395 8.594919-6.217479 9.042672-5.89661.982341 11.986478 4.435258 3.18951 7.16407 3.682984 1.947316.352587.403205 6.5531 2.278788 6.623912 1.443688.054585 2.277282-2.654728 3.387229-2.929864.91816 3.20795 6.892999 3.541359 9.830961 5.161193 3.351738 1.847762 10.406323 7.930992 13.601762 10.6853 1.06691.919824 8.104128 8.705503 9.046451 7.751748.1865-1.926688-1.900502-3.214589-2.118718-4.956132-.138175-1.109395.943079-3.562013.616134-3.888045-.242375-.241205-5.864599-.372503-6.834858-1.075464-1.041236-.754595-.372249-2.789714-1.46936-3.727979-.477203-.407171-10.630578-5.295442-11.331278-5.527057 1.843872-8.564616 8.799541-15.596437 12.836126-22.866513 3.117667-2.181907 4.198168-5.761623 6.04053-8.851553 1.208106-2.02553 3.125219-4.546748 3.985995-6.097983 5.424396-9.769163 9.536485-20.248665 14.89066-30.045859-1.291162 9.898249-4.772773 19.465303-6.557751 29.368716-3.479344 19.300074-3.24603 39.257376-9.350738 58.068401l.765635 2.226904c3.62432 4.107121 7.881382 7.942056 11.367523 12.128841 2.641222 3.171806 4.704064 7.771663 8.305729 10.326812.209908 4.079828 2.367132 2.909948 3.020265 3.688147 2.900964 3.457269 8.107146 10.66022 10.424444 14.526874 1.252656 2.091179 2.546839 4.509128 3.166748 6.864379-1.230002-.456592-2.34297-1.492962-3.775331-1.475259-13.502849-14.751851-35.476787-19.516937-49.393414-2.150927-7.244105 9.038911-14.787216 34.074054-16.297348 45.671064h-1.510133c-.483997-1.18242-4.614964-7.750273-5.727178-9.526484-10.011422-15.995494-26.181922-37.951034-48.4005-29.705075-12.224522 4.536421-22.014711 17.086448-27.565203 28.047621-.16989.335622-1.31457.047209-1.364404.119496h-2.265199c.699946-7.972298-12.080305-33.532634-18.483266-39.10985-16.997296-14.804222-36.262811-2.794878-51.737893 6.654155 1.861993-5.766049 6.346331-10.027334 9.815861-14.752588l.755066-1.475259c.203868-.274398.555729-.471345.755066-.73763l1.510133-1.475258c.242376-.320869.218214-1.511403.755066-2.212889.598767-.782624 2.11041-2.538183 3.020265-3.688147 2.246322-2.838398 5.442517-5.563939 6.795596-8.851553l11.369787-12.134004c1.754774-2.912899-2.478882-8.542487-3.605441-12.047702-4.634597-14.425818-1.907297-33.407237-4.196658-49.009574-2.334665-15.910667-12.787047-35.9476332-12.628483-50.7304647.009061-.8401598-.560259-3.1061576.74525-2.9453543 8.281567 19.36056 12.82178 40.409553 24.171936 58.267562" fill="#ede6d6"/><path d="m245.132758 274.540426c-.17744 2.021843-4.306898 8.287267-5.320197 11.399327-3.999586 12.280055-3.267926 23.860836-4.503215 36.170397-.792819 7.907386-2.357316 16.157773-3.012714 23.98033-1.513153-.650587-2.191957-2.053558-3.039141-3.304577-9.098548-13.435183-17.010888-27.685448-26.408442-40.953189-.309577-.436674-.443979-1.043007-.755066-1.475257 14.385522-5.760886 20.40642-18.748327 31.381307-28.03582.640297-.994324-2.100594-6.879132-2.796765-8.371356-11.369787-24.357999-34.613746-24.282761-58.02835-17.443461l1.506357-3.684459c.28164-.171868.486263-.573876.755067-.73763 15.475082-9.449033 34.740597-21.458377 51.737893-6.654155 6.402961 5.577216 19.183212 31.137552 18.483266 39.10985" fill="#3d3937"/><path d="m186.229589 266.425175c-.33525-.361439-1.634719-.523717-1.35761.95228 2.384499 12.712305 13.057361 21.594839 25.524259 13.429281-2.668404-.826145-5.061964.605595-7.842118.32972-6.346331-.62846-12.645849-6.888721-15.720478-11.997542-.520241-.864502-.508915-2.611208-.604053-2.713739m16.71188-7.333512c0-2.951255-2.449435-5.343388-5.469699-5.343388-3.021021 0-5.4697 2.392133-5.4697 5.343388 0 2.950518 2.448679 5.34265 5.4697 5.34265 3.020264 0 5.469699-2.392132 5.469699-5.34265m-28.784635-16.269155-1.506357 3.684459c23.414604-6.8393 46.658563-6.915276 58.027595 17.443461.696171 1.491487 3.437062 7.377032 2.796765 8.371357-10.974887 9.287491-16.99503 22.274195-31.380552 28.035818-.207643-.287674-1.304754-.46028-1.510132-.737629-2.946269-3.966232-5.206182-6.831922-8.283832-10.717756-6.599279-8.333736-11.196877-16.738286-11.355441-27.638974-1.562232.132036-3.827431 6.448357-5.267342 5.160456-1.156006-1.034157-.775453-7.090832-.381309-8.83385-.623684 1.100543-5.783052 4.36234-6.421083 3.669706l.747516-5.893659c-.644827-.602643-7.217678 2.332384-6.690642-.988423.139687-.881468 2.184407-1.331422.666723-2.347137-2.859435-.652065-6.116791-.72509-8.315544-2.941667 8.001437.143838 12.514468-2.375904 18.873635-6.266162" fill="#222123"/><path d="m397.656061 242.084731c-1.398384.016966-4.391466 1.373466-6.431653 1.463457-9.716948.425612-20.808872-1.302653-29.723183 3.417437-6.118301 3.239669-15.564934 15.831741-17.132453 22.423197-.248417 1.045959-.591216 1.700236.379797 2.597194 6.380311 5.823584 12.928244 11.464235 18.949143 17.656635 3.220357 3.311218 6.352374 8.60666 9.796229 11.452435-.175173 1.32921-.80339 2.572852-1.510132 3.688146-8.488454 13.400516-18.045329 27.069527-25.805899 40.835168-.375266.665341-1.310794 1.071773-1.376485 1.209712-2.263689.43225-1.349303-1.070302-1.618861-2.43713-3.538997-17.91997-3.777598-39.128289-10.528644-56.003038-.611604-1.529106-1.180924.996536-.688621-2.783076 1.510132-11.59701 9.053243-36.632153 16.297348-45.671064 13.916627-17.36601 35.890565-12.600924 49.393414 2.150927" fill="#3d3937"/><path d="m342.536302 174.222824c.7007.231615 10.854075 5.119886 11.331278 5.527057 1.097111.938265.428124 2.973384 1.46936 3.727979.970259.702961 6.592483.834259 6.834858 1.075464.326945.326032-.754309 2.77865-.616134 3.888045.218216 1.741543 2.305218 3.029444 2.118718 4.956132-.942323.953755-7.979541-6.831924-9.046451-7.751748-3.195439-2.754308-10.250024-8.837538-13.601762-10.6853-.081548-.760496.986873-.910972 1.510133-.737629" fill="#3d3937"/><g fill="#48443e"><path d="m360.657891 142.504758h.755067c-1.842362 3.08993-2.922863 6.669646-6.04053 8.851553 1.344018-2.420162 2.463027-8.419302 5.285463-8.851553"/><path d="m365.188289 132.915575.755066-.737629c-.223501.481672-.724109.67198-.755066.737629"/><path d="m360.657891 141.767129.755067-.73763c-.140443.341523-.400185.603381-.755067.73763"/><path d="m362.168024 138.816611.755066-.737629c-.227275.474295-.734678.689683-.755066.737629"/></g><path d="m453.530962 82.0191445c1.297204 6.5796546.753556 12.3287386 1.443687 18.1183915.168379 1.411823 1.562988.751645 1.661144 2.139863.178197 2.513841-.753556 7.483251-.839632 10.722182l-1.510133 7.376294c-.259743-8.382421-1.0805-16.78697-2.265198-25.0794006-3.693029-25.8568622-15.060552-62.5819561-33.243303-82.2257656-19.900523-21.50116036-16.172006 16.2654666-17.35444 26.5266296-1.579599 13.7022044-6.392391 28.6185467-10.973379 41.6517212-1.701164 4.8417996-6.961708 14.361645-7.736409 18.2946851-.263517 1.3402723.777718 2.5263813.591219 3.8637033l-3.009696-.732466c-.684844 2.448929 1.954114 1.11087 2.25916 1.475258.980832 1.169881-.369984 2.982236-2.264445 2.210676-5.354175 9.797194-9.466264 20.276696-14.890659 30.045859-.860777 1.551235-2.77789 4.072453-3.985996 6.097983h-.755067v-.737629c.354882-.134249.614624-.396107.755067-.73763.237847-.578301.356391-1.273886.755066-2.212888.020388-.047946.527791-.263334.755066-.737629.696173-1.451655 1.445198-3.41965 2.265199-5.163407.030957-.065649.532322-.255957.755066-.737629.702968-1.518041 1.60225-3.610696 2.265199-5.163406.461345-1.080627-.022652-.680832 0-.737629.144973-.359963-.138178-1.085791 0-1.475259.035488-.09958.609339-.32382.755066-.73763.081548-.230878-.091364-.546583 0-.737629 2.456986.410859 1.14921-.860076 1.510132-2.212889 3.024796-11.338839 11.104003-26.0235658 15.305949-37.7880176 4.074336-11.4059639 6.296498-20.7037829 8.856171-32.2867779 2.854907-12.920317 2.792989-21.6516367 4.611946-34.2201046 1.088049-7.51791915 5.219772-15.97410297 14.310013-11.92525502 17.578699 7.83067402 36.42062 59.10403352 39.973207 77.12579562" fill="#222123"/><path d="m454.286028 120.375875v7.376295c-.843409.067124-1.653595 7.320234-2.04019 8.702552-3.366084 12.034424-10.893338 29.640901-18.037777 39.913866-12.31664 17.708269-33.016024 28.932777-46.367861 45.800149-.653133-.778199-2.810357.391681-3.020265-3.688147-.573851-11.144106 16.714147-20.964904 24.172691-27.650777 5.588244-5.008504 10.185086-10.323862 15.090753-15.86936 12.351375-13.962587 21.464268-25.614182 24.065471-44.720997 1.576577-11.580782.397164-23.685281 3.87198-34.9429816 1.184698 8.2924306 2.005455 16.6969796 2.265198 25.0794006" fill="#f6f3e7"/><path d="m452.02083 95.2964744c-3.474816 11.2577006-2.295403 23.3621996-3.87198 34.9429816-2.601203 19.106815-11.714096 30.75841-24.065471 44.720997 3.40686-9.454196 6.225522-18.20912 6.82731-28.367753.9914-16.735336-5.837417-53.2081611-11.159879-69.5614057-2.151939-6.6106348-6.791822-14.267966-12.679073-5.3610906-8.406908 12.7167314-17.620225 44.4377473-21.129018 59.7605233-5.758136 25.139887-6.385596 51.179681-9.428513 76.723051-3.486141-4.186785-7.743203-8.02172-11.367523-12.128841l-.765635-2.226904c6.104711-18.811025 5.871394-38.768327 9.350741-58.068401 1.784975-9.903413 5.266586-19.470467 6.557748-29.368716 1.894461.77156 3.245277-1.040795 2.264445-2.210676-.305046-.364388-2.944004.973671-2.25916-1.475258l3.009696.732466c.186499-1.337322-.854736-2.523431-.591219-3.8637033.774701-3.9330401 6.035245-13.4528855 7.736409-18.2946851 4.580988-13.0331745 9.39378-27.9495168 10.973379-41.6517212 1.182434-10.261163-2.546083-48.02778996 17.35444-26.5266296 18.182751 19.6438095 29.550274 56.3689034 33.243303 82.2257656" fill="#3d3937"/><path d="m424.083379 174.960453c-4.905667 5.545498-9.502509 10.860856-15.090753 15.86936-7.458544 6.685873-24.746542 16.506671-24.172691 27.650777-3.601665-2.555149-5.664507-7.155006-8.305729-10.326812 3.042917-25.54337 3.670377-51.583164 9.428513-76.723051 3.508793-15.322776 12.72211-47.0437919 21.129018-59.7605233 5.887251-8.9068754 10.527134-1.2495442 12.679073 5.3610906 5.322462 16.3532446 12.151279 52.8260697 11.159879 69.5614057-.601788 10.158633-3.42045 18.913557-6.82731 28.367753" fill="#222123"/><path d="m183.972393 50.301079c5.329258 22.4054941 15.120957 48.6923942 23.394217 70.456151 2.153449 5.666469 4.945684 13.53845 7.563499 18.797011l-.755066.737629c-11.350156-17.858009-15.890369-38.907002-24.171936-58.267562-1.305509-.1608033-.736189 2.1051945-.74525 2.9453543-3.182604.2360416-.676539-4.8801562-.890978-6.8090573-.424347-3.8142817-4.260084-11.6656093-5.52482-16.059668-2.96892-10.322386-5.151816-20.6772281-6.412022-31.3551518-1.111458-9.415102 1.585639-37.44280758-16.224108-23.94713949-23.918988 18.12503039-34.172788 73.44871299-33.646506 101.43953729.027937 1.46862.553463 8.557239.786023 9.432068.206889.775985.387349-.534044.752047 1.967995-1.180169 3.752321-1.036707 9.30667-.755067 13.277329-1.954111-.981784-1.846137-4.462658-2.139103-6.393034-2.169305-14.309273-1.895216-33.064239-.126095-47.4539139 2.694076-21.9149705 15.541528-63.904526 35.537192-76.29670047 19.818223-12.28226769 18.244665 19.61356657 19.675515 30.10413237.814717 5.9747984 2.295402 11.5940593 3.682458 17.42502" fill="#222123"/><path d="m152.259612 173.485194c5.503678 6.583343 10.515807 12.637068 16.969358 18.459914 8.724791 7.873457 20.259937 13.103987 22.294086 25.797852-.909855 1.149964-2.421498 2.905523-3.020265 3.688147-1.239819-2.994037-4.702553-5.900297-7.153498-8.133102-27.130284-24.724601-51.147431-40.09016-54.006867-80.38243-.28164-3.970659-.425102-9.525008.755067-13.277329 3.480855 23.885178 8.885619 35.573654 24.162119 53.846948" fill="#f6f3e7"/><path d="m239.092228 172.009935c2.327869 2.918062-2.046984 2.64809-4.020727 3.819446-8.689303 5.156767-15.464512 11.948121-23.154106 18.309437.885692-3.455056.887957-6.128963-.003776-9.584757 9.365842 2.796354 5.498393-2.980022 9.088732-6.243295 1.92844-1.752608 9.679194-4.183097 12.613382-5.4142 1.033686-.433726 1.588659-1.586641 1.701164-1.62426 1.357609-.452904 2.703137.515603 3.775331.737629" fill="#3d3937"/><path d="m214.930109 139.554241c.807921 1.622784 3.678683 5.122836 4.746346 6.834136.638031 1.022355 1.040481 2.319107 1.294184 3.492675-2.237262-3.265485-4.636107-6.190923-6.795596-9.589182z" fill="#48443e"/><path d="m128.097493 119.638246c-.364698-2.502039-.545158-1.19201-.752047-1.967995-.23256-.874829-.758086-7.963448-.786023-9.432068-.526282-27.9908243 9.727518-83.3145069 33.646506-101.43953729 17.809747-13.49566809 15.11265 14.53203749 16.224108 23.94713949 1.260206 10.6779237 3.443102 21.0327658 6.412022 31.3551518 1.264736 4.3940587 5.100473 12.2453863 5.52482 16.059668.214439 1.9289011-2.291626 7.0450989.890978 6.8090573-.158564 14.7828315 10.293818 34.8197977 12.628483 50.7304647 2.289361 15.602337-.437939 34.583756 4.196658 49.009574 1.126559 3.505215 5.360215 9.134803 3.605441 12.047702l-11.369787 12.134004-3.012714-26.930851c-.826043-32.40111-2.905495-81.166529-21.298909-109.0157285-3.948241-5.9777489-8.798786-11.5446383-13.275574-2.1966606-5.009109 10.45811-10.680412 39.5273481-12.1392 51.5772631-2.118716 17.503208-1.03142 34.186911 3.667357 51.159764-15.2765-18.273294-20.681264-29.96177-24.162119-53.846948" fill="#3d3937"/><path d="m198.318652 208.891407c-1.353079 3.287614-4.549274 6.013155-6.795596 8.851553-2.034149-12.693865-13.569295-17.924395-22.294086-25.797852-6.453551-5.822846-11.46568-11.876571-16.969358-18.459914-4.698777-16.972853-5.786073-33.656556-3.667357-51.159764 1.458788-12.049915 7.130091-41.1191531 12.1392-51.5772631 4.476788-9.3479777 9.327333-3.7810883 13.275574 2.1966606 18.393414 27.8491995 20.472866 76.6146185 21.298909 109.0157285z" fill="#222123"/><path d="m247.397957 274.540426c.049834-.072287 1.194514.216126 1.364404-.119496 5.550492-10.961173 15.340681-23.5112 27.565203-28.047621 22.218578-8.245959 38.389078 13.709581 48.4005 29.705075 1.112214 1.776211 5.243181 8.344064 5.727178 9.526484 1.301735 3.178446 2.833009 12.18195 3.555608 16.073682 2.581571 13.90579 8.604733 46.632934 6.819758 59.342289-2.11041 15.029201-27.165774 21.006947-40.19293 19.731588-3.807045-.373241-11.615186-2.749145-12.449534-7.017069-.545158-2.789716-.256722-10.835041-.048325-14.029712.586688-9.006457 3.828943-25.857601 11.859826-31.196561 7.645801-5.083743 25.555218-5.680485 25.862529-17.532714.250684-9.678437-7.716777-3.23008-11.985921-2.104459-3.690763.973671-9.209543.516342-12.318905 1.980537-6.477713 3.049358-6.94359 14.653007-15.27348 14.651533-8.267221-.000737-9.335639-11.94222-15.930388-14.747425-4.372588-1.860303-8.286097-1.054811-12.566567-1.738594-5.354175-.85565-12.202625-7.211065-11.097208 2.693823 1.537314 13.778182 23.016684 11.706916 29.750364 19.653398 4.319734 5.098495 8.258915 25.883417 8.703648 32.804594.446245 6.944043 1.54562 10.693415-5.237139 14.047417-8.318565 4.113019-15.231196 2.237968-23.844991 1.218563-3.576749-.423399-1.505602-.271448-3.206767-.826883-2.879067-.940478-5.425906-1.374205-8.238527-2.877492-16.014955-8.562402-9.109874-24.05631-7.793794-38.128065 1.429341-15.288846 1.630188-30.707513 5.344359-45.675492.542138-2.181906 4.713123-16.632067 5.231099-17.3874" fill="#f6f3e7"/><path d="m247.397957 274.540426c-.517976.755333-4.688961 15.205494-5.231099 17.3874-3.714171 14.967979-3.915018 30.386646-5.344359 45.675492-1.31608 14.071755-8.221161 29.565663 7.793794 38.128065 2.812621 1.503287 5.35946 1.937014 8.238527 2.877492 1.701165.555435-.369982.403484 3.206767.826883 8.613795 1.019405 15.526426 2.894456 23.844991-1.218563 6.782759-3.354002 5.683384-7.103374 5.237139-14.047417-.444733-6.921177-4.383914-27.706099-8.703648-32.804594-6.73368-7.946482-28.21305-5.875216-29.750364-19.653398-1.105417-9.904888 5.743033-3.549473 11.097208-2.693823 4.28047.683783 8.193979-.121709 12.566567 1.738594 6.594749 2.805205 7.663167 14.746688 15.930388 14.747425 8.32989.001474 8.795767-11.602175 15.27348-14.651533 3.109362-1.464195 8.628142-1.006866 12.318905-1.980537 4.269144-1.125621 12.236605-7.573978 11.985921 2.104459-.307311 11.852229-18.216728 12.448971-25.862529 17.532714-8.030883 5.33896-11.273138 22.190104-11.859826 31.196561-.208397 3.194671-.496833 11.239996.048325 14.029712.834348 4.267924 8.642489 6.643828 12.449534 7.017069 13.027156 1.275359 38.08252-4.702387 40.19293-19.731588 1.784975-12.709355-4.238187-45.436499-6.819758-59.342289-.722599-3.891732-2.253873-12.895236-3.555608-16.073682h1.510133c-.492303 3.779612.077017 1.25397.68862 2.783076 6.751047 16.874749 6.989648 38.083068 10.528645 56.003038.269558 1.366828-.644828 2.86938 1.618861 2.43713-1.689084 3.564225-1.020851 11.977624-2.66312 16.94556-3.074628 9.297818-17.140758 18.548428-25.484996 23.787075-27.16426 17.055466-53.511542 8.003278-77.053752-9.879072-9.784149-7.431618-8.206815-20.801888-7.303001-31.591195.655398-7.822557 2.219895-16.072944 3.012714-23.98033 1.235289-12.309561.503629-23.890342 4.503215-36.170397 1.013299-3.11206 5.142757-9.377484 5.320197-11.399327z" fill="#222123"/><path d="m247.77549 272.327538c.490038.245631.490038.491999 0 .73763z" fill="#f6f3e7"/><path d="m202.941092 259.091368c0 2.951255-2.44868 5.343388-5.4697 5.343388-3.020265 0-5.468945-2.392133-5.468945-5.343388s2.44868-5.343388 5.468945-5.343388c3.02102 0 5.4697 2.392133 5.4697 5.343388" fill="#f6f3e7"/><path d="m186.229589 266.425175c.095138.102531.083812 1.849237.604053 2.713739 3.074629 5.108821 9.374147 11.369082 15.720478 11.997542 2.780154.275875 5.173714-1.155865 7.842118-.32972-12.466898 8.165558-23.13976-.716976-25.524259-13.429281-.277109-1.475997 1.02236-1.313719 1.35761-.95228" fill="#ede6d6"/><path d="m389.34633 267.90545c-2.013005-.407909-1.299468.506013-1.873319 1.45313-3.878021 6.396722-9.500242 13.045714-18.086101 11.771828-2.814132-.418236-5.836663-3.29204-8.725545-2.536708 11.539676 10.575393 28.361798 5.107348 28.684965-10.68825m-8.108657-8.807296c0-2.928388-2.429803-5.302818-5.428169-5.302818-2.997614 0-5.428173 2.37443-5.428173 5.302818 0 2.929127 2.430559 5.302818 5.428173 5.302818 2.998366 0 5.428169-2.373691 5.428169-5.302818m20.193494-15.538164c4.579475 1.699499 7.53858 3.443254 12.831595 1.47821l-2.256893 2.940191 4.522845.372502c-3.59638 3.780351-7.450239 6.137815-12.827064 4.063601.134401 2.888557 4.407323 3.474972 3.76627 6.632026l-7.543111-.730253 1.502581 8.106548-6.032225-4.418401c.252194 15.717408-14.019313 26.02578-20.391316 39.090672-.186503-.151951-1.328164.150477-1.510133 0-3.443104-2.845775-6.575118-8.141217-9.795476-11.452435-6.020898-6.1924-12.569588-11.833051-18.949896-17.656635-.970262-.897695-.628217-1.551235-.379043-2.597194 1.566762-6.591456 11.013395-19.183528 17.131696-22.423197 8.914314-4.72009 20.006991-2.991825 29.723183-3.417437 2.04019-.089991 5.034026-1.446491 6.431656-1.463899 1.433115-.017261 2.545326 1.019109 3.775331 1.475701" fill="#222123"/><path d="m389.34633 267.90545c-.323167 15.795598-17.145289 21.263643-28.684965 10.68825 2.888882-.755332 5.911413 2.118472 8.725545 2.536708 8.585859 1.273886 14.20808-5.375106 18.086101-11.771828.573851-.947117-.139686-1.861039 1.873319-1.45313" fill="#ede6d6"/><path d="m381.237977 259.098376c0 2.928388-2.430559 5.302818-5.428173 5.302818-2.997613 0-5.428169-2.37443-5.428169-5.302818 0-2.928389 2.430556-5.302819 5.428169-5.302819 2.997614 0 5.428173 2.37443 5.428173 5.302819" fill="#f6f3e7"/><path d="m394.635796 51.0387085c-2.559673 11.582995-4.781835 20.880814-8.856171 32.2867779-4.201946 11.7644518-12.281153 26.4491786-15.305949 37.7880176-.850204.530356-1.113721 1.382318-1.510132 2.212889-.091364.191046.081548.506751 0 .737629l-.755066.73763c-.138178.389468.144973 1.115296 0 1.475259v.737629c-.662949 1.55271-1.562231 3.645365-2.265199 5.163406l-.755066.737629c-.820001 1.743757-1.569026 3.711752-2.265199 5.163407l-.755066.737629c-.398675.939002-.517219 1.634587-.755066 2.212888l-.755067.73763v.737629c-2.822436.432251-3.941445 6.431391-5.285463 8.851553-4.036584 7.270076-10.992254 14.301897-12.836126 22.866513-.52326-.173343-1.591678-.022867-1.510133.737629-2.937962-1.619834-8.912801-1.953243-9.830961-5.161193-1.109947.275136-1.943541 2.984449-3.387229 2.929864-1.875583-.070812-.331472-6.271325-2.278035-6.623912-2.729562-.493474-6.182482 8.303494-7.164821-3.682984-.447755-.320869-7.137641 7.155005-9.042673 5.89661l-1.892954-6.632026c-1.026888.898432-5.827601 7.802644-7.171618 6.632763l-1.889176-6.632763-4.534172 6.620224-2.651791-6.622437-6.778232 5.898822-1.527497-6.636452-3.388738 4.409549c-4.467727-6.932979-2.709178 1.605082-4.163435 2.96232-1.649065 1.538695-2.527962-3.574552-2.262179-4.419138-1.302489-.129823-.980831 1.82342-1.457277 2.517529-1.626413 2.371479-1.941276-3.054524-3.813085-3.258847.770168 12.255713-2.980246 1.79539-7.550662-.737629l-.015102 6.638665c-1.917113-.918349-2.722768-3.483087-5.274137-2.94683l-.377533 4.4184-5.659222-5.159717-.011326 5.897347c-2.928146.666079-3.409124-2.925439-6.032979-2.943142l-.00755 4.419138c-1.333447.133511-2.521167-.475771-3.771556-.734679-1.072194-.222026-2.417722-1.190533-3.775331-.737629-4.149844-7.49579-9.504019-14.324764-14.346259-21.391254-.253702-1.173568-.656152-2.47032-1.294183-3.492675-1.067664-1.7113-3.938426-5.211352-4.746347-6.834136-2.617059-5.258561-5.410049-13.130542-7.563498-18.797011-8.273261-21.7637568-18.06496-48.0506569-23.394217-70.456151 50.427098-20.564371 106.720306-24.4597919 160.215993-13.7848188 17.22004 3.4358779 33.966654 8.7195176 50.447485 14.5224483" fill="#d55b35"/><path d="m370.473752 121.113504c-.360922 1.352813.946854 2.623748-1.510132 2.212889.396411-.830571.659928-1.682533 1.510132-2.212889" fill="#48443e"/><path d="m368.208554 124.801652.755066-.73763c-.145727.41381-.719578.63805-.755066.73763" fill="#48443e"/><path d="m368.208554 127.01454v-.737629c-.022652.056797.461345-.342998 0 .737629" fill="#48443e"/></g></g></svg>