<svg height="2048" viewBox="0 0 2220 2048" width="2220" xmlns="http://www.w3.org/2000/svg" xmlns:xlink="http://www.w3.org/1999/xlink"><mask id="a" fill="#fff"><path d="m0 0h2219.3979v2048h-2219.3979z" fill="#fff" fill-rule="evenodd"/></mask><g fill="none" fill-rule="evenodd"><path d="m1110.16126 2047.54815c-205.382601 0-410.77542-1.16793-616.14781.43244-126.238949.98406-238.867899-33.26737-336.082173-115.19976-164.4981291-138.64016-206.3496402-371.46068-97.7965385-557.16208 143.4276585-245.36134 288.2888445-489.888434 432.7005635-734.674316 83.423807-141.411867 167.358373-282.524089 250.724295-423.970006 66.657325-113.098848 162.169072-187.6218464 292.412363-209.83981966 285.14598-45.47448784 406.08667 132.64385466 526.99671 356.47503866 196.80187 333.085726 392.54136 666.804793 590.09234 999.444453 176.55883 297.2884-23.59021 626.73753-314.98105 676.46493-33.32867 5.68644-67.67204 7.39237-101.55572 7.49793-208.78425.66058-417.57532.33029-626.36298.33029z" fill="#22293d" mask="url(#a)"/><path d="m956.293031 479.530603c485.223509-110.507603 963.670969 323.905702 887.864259 818.796157-11.09706 85.72903-36.98228 166.565-76.29703 243.29788-1.69231 3.3029-4.99521 5.78178-7.549 8.64543-7.69883 1.84554-9.64652-4.49808-12.32289-9.11192-97.29599-169.54783-208.27349-339.89584-301.78988-509.74331-1.11345-1.60037-2.23031-3.20415-3.34376-4.80453l.26219.68442c-8.88379-15.75859-17.76417-31.517174-26.64795-47.275761-.12599-1.103238-.71847-1.821704-1.77744-2.148589l-.62653-.810403c-103.66344-160.994329-197.53736-328.093918-296.67208-491.897416-5.59791-10.337742-9.91211-10.010857-16.1025.282619-96.85674 158.542691-189.021324 320.132904-286.174307 478.331684l.275809-.384771c-1.750197 1.470983-3.197345 3.149674-3.725128 5.454895-12.571457 20.215802-25.142914 40.435012-37.710966 60.654212-92.147555 164.44706-193.076742 323.67416-288.911969 485.93177-7.657966 12.95963-12.09475 28.3675-25.738799 37.27512-242.146966-432.18981 19.497336-968.812601 496.987971-1073.177487z" fill="#e82d3e"/><path d="m1760.30547 1546.25815c-113.17376 217.88256-299.99882 358.22524-542.32626 406.36248-31.02344 6.02013-67.98409 11.23811-99.26681 11.23811-11.375 0-8.76872-1.21704-8.72105-12.57971.5346-130.40673.64015-260.81687.15323-391.2236-.04767-12.41483-10.70708-10.86204 0-10.86204 260.24823-14.33187 446.00751-280.94423 336.05493-521.77684 105.46813 172.38082 206.07043 348.2961 314.10596 518.8416z" fill="#fdfdfd"/><path d="m1112.59588 1397.15668c-120.38907-.13989-216.639714-97.378-215.870172-218.08033.728682-114.29403 99.19942-209.121357 216.265152-208.256474 115.27128.851264 210.64001 98.164284 210.18698 214.470694-.45952 115.8978-95.97808 212.00203-210.58196 211.86611z" fill="#fdfdfd"/><path d="m815.117475 963.775842c8.052951-15.367005 15.418082-31.146023 24.267815-46.036321 90.758293-150.472714 177.99917-303.247244 270.872-452.28643 100.48993 171.815588 206.0534 338.778975 303.80907 511.60927-149.50227-204.848012-438.533415-213.074621-598.948885-13.286519" fill="#fdfdfd"/><path d="m1076.57484 1552.21027c-.37796-.56184-.85126-1.08621-1.0794-1.70253-.0647-.17706.56864-.61291.95341-.92617 4.54575.2724 9.01999.5414 13.49423.8104.0034.29624.01021.59248.01362.88872-4.46062.30986-8.92124.61972-13.38186.92958" fill="#e82d3e"/><g fill="#fdfdfd"><path d="m811.666794 968.846307c1.242844-1.818298 2.485689-3.636597 3.725128-5.45149-1.239439 1.814893-2.482284 3.633192-3.725128 5.45149"/><path d="m1414.68983 977.869018c.16004 1.014706.75252 1.729767 1.77744 2.151994-.61972-.687821-1.2122-1.406287-1.77744-2.151994"/><path d="m1442.85813 1026.6127c-.0034-.00341.25879.68101.25879.68101s-.25198-.67761-.25879-.68101z"/><path d="m460.082903 1546.25815c113.173759 217.88256 299.998822 358.22524 542.326257 406.36248 31.02344 6.02013 77.72693 11.23811 109.31545 11.23811 9.52344 0-1.27992-1.21704-1.32759-12.57971-.18125-44.21324 1.40383-88.24495 1.32759-132.45872-.14864-86.19449-1.80265-172.5714-1.48082-258.76488.04768-12.41483 9.18492-10.86204 0-10.86204-260.248225-14.33187-446.007507-280.94423-336.054928-521.77684-105.468124 172.38082-206.070426 348.2961-314.105959 518.8416z"/></g></g></svg>