<svg height="2048" viewBox="0 0 2200 2048" width="2200" xmlns="http://www.w3.org/2000/svg" xmlns:xlink="http://www.w3.org/1999/xlink"><mask id="a" fill="#fff"><path d="m0 0h435.380724v1235.64157h-435.380724z" fill="#fff" fill-rule="evenodd"/></mask><g fill="none" fill-rule="evenodd"><path d="m1736.06978 1649.05157c16.58226-28.12991 24.60668-59.41756 31.63668-90.73156 7.27038-32.40389 16.16408-64.93949 10.42154-98.83499-1.57723-9.302 6.0817-10.44458 11.70899-13.12817 49.15079-23.43445 95.90116-50.66544 136.54679-87.31368 52.75634-47.56698 89.8491-104.79486 102.052-175.55921 10.72447-62.19664-14.26087-110.54399-69.66787-140.93931-5.08728-2.78895-10.23055-5.48571-16.64481-8.92004 10.54995-7.43173 20.15159-13.52001 29.00907-20.54672 60.65563-48.113573 77.94253-112.348417 48.21564-184.834875-32.47304-79.180607-91.88401-133.471364-165.42744-173.889792-21.10978-11.603629-42.76286-22.199678-65.49267-30.30312-9.40078-3.352013-12.91085-7.395502-11.79132-18.962911 6.33195-65.426816-5.18936-128.716642-26.27609-190.511562-1.19197-3.493601-3.92824-6.460363-5.94011-9.670788.05927-3.605554.10866-7.214401.16135-10.823248 20.29976 2.762612 38.89388 10.9813 57.09946 19.473286 219.11892 102.210055 355.23436 270.597673 390.62806 510.829664 42.20639 286.435766-96.76715 554.109486-352.2215 694.996106-27.85331 15.36065-56.24335 29.5425-86.05585 40.70819-6.05536 2.2687-11.83083 5.98621-18.79827 4.92595.27988-5.32108.55647-10.64215.83635-15.96322" fill="#c73a34"/><path d="m1736.06978 1649.05157c-.27988 5.32107-.55647 10.64214-.83635 15.96322-5.5812 3.16103-7.72149 8.77516-10.62569 14.06989-107.25124 195.37495-272.05636 312.58674-489.56842 354.46715-183.49143 35.32784-357.763179 5.88084-519.529089-88.46615-120.320145-70.17166-213.136003-167.23515-275.003364-292.8204-1.379659-2.79883-2.387239-5.77547-4.39252-10.68166 27.978443 7.55356 53.763919 16.17396 80.547095 21.03076 42.259072 7.6655 84.56095 13.23024 127.360032 5.8512 11.643141-2.00857 17.346173 1.90321 23.068962 11.91644 46.398051 81.16284 106.694772 148.50274 193.102951 188.67092 43.510315 20.22732 88.423338 32.72987 136.714716 18.05741 43.260067-13.14134 74.218447-40.82673 94.508327-80.70515 5.31449 2.16333 5.96975 7.11891 7.30001 10.96154 23.81642 68.88749 88.98311 88.58139 147.887 83.08251 68.02479-6.3517 123.14532-39.68744 171.90756-85.12072 37.69533-35.1204 66.76038-76.93166 90.44838-122.36493 7.47123-14.32673 14.01721-21.07356 32.82206-19.08145 57.35631 6.08499 113.56344-3.59897 168.63787-20.08903 8.33393-2.4959 16.64482-5.64047 25.65047-4.74155" fill="#283957"/><path d="m1744.58284 394.082911c-.05268 3.608847-.10537 7.217694-.16134 10.823248-35.48261-8.992483-69.61848-22.858226-106.1383-28.139787-33.11512-4.790942-66.16768-10.497267-99.68123-5.41327-11.71229 1.778081-17.19471-2.601268-22.7331-12.571696-47.17185-84.936322-110.08301-154.080646-200.76846-193.810891-74.18881-32.502672-145.91464-19.700485-194.63737 33.371957-10.28982 11.208499-18.65669 23.780195-26.10487 38.538272-1.87687-2.937128-3.35531-4.553865-4.06325-6.457071-24.52106-66.217074-79.1345-87.527711-142.816167-83.754227-74.827599 4.432033-134.515164 42.486271-187.890538 91.801693-35.30809 32.617918-64.070206 70.774232-86.674891 112.997084-7.276964 13.595738-15.857854 18.251678-29.232978 16.374814-68.531874-9.608226-132.378173 8.393203-195.289333 32.374255-1.998696.763917-4.250932.865992-6.38463 1.274292-.908798-.70794-1.817595-1.419172-2.723099-2.130405 37.428617-87.267585 94.225152-160.205149 166.092575-221.456767 125.832198-107.2413677 271.865379-164.9335291 436.660611-175.96422036 194.66701-13.02609384 369.11986 39.39438496 521.67267 161.63090736 74.17234 59.43073 132.5922 131.824992 173.2049 218.127803 2.08431 4.425448 3.48702 9.262488 7.6688 12.384009" fill="#283957"/><path d="m206.864315 612.423977c-9.117607 5.116923-16.944459 8.827845-24.053493 13.605616-54.205146 36.407867-71.627052 99.56269-45.436569 167.715898 23.552995 61.284545 66.266466 107.84394 117.224966 147.445768 39.624878 30.797031 83.602762 54.119535 129.990934 72.970491 8.212103 3.33884 13.75379 6.82915 12.848286 17.66886-5.600957 66.91843 8.106735 130.72851 32.443403 192.68807.958188 2.43334 1.534419 5.02143 3.358599 11.12289-96.45434-35.41017-178.822322-87.40259-248.625195-158.71025-114.4755257-116.94508-176.05641744-257.933778-183.79765775-421.072762-16.48018195-347.400919 218.87854875-588.8545175 434.56313575-655.858558-12.933897 33.5793997-23.04262 66.7998904-28.47894 101.195891-4.958872 31.383139-10.750808 62.868354-5.940109 94.771747 1.629908 10.819956-2.248944 15.225647-11.6168 19.634631-63.444585 29.852014-122.104813 66.842696-169.981305 118.927315-41.021001 44.626554-74.310639 93.431601-82.325177 155.723725-6.545974 50.88606 13.14134 90.708502 57.823871 115.111025 3.641775 1.988817 7.158425 4.201541 12.002051 7.059643" fill="#c73a34" mask="url(#a)" transform="translate(0 404.6497)"/><path d="m800.225611 1516.27398c-1.873572-92.05194 21.083437-174.49565 62.298709-252.17148 37.017025-69.76665 85.469747-130.07983 152.48367-173.36624 59.76988-38.60742 111.54498-36.10823 166.22428 8.90028 105.17682 86.5827 165.13768 199.4349 188.74665 332.50784 5.43303 30.63569 8.09357 61.60394 4.83704 94.98907-39.44707-22.10089-77.43216-43.27324-115.29871-64.65961-13.81306-7.8005-27.0466-16.65469-41.04734-24.08312-62.11432-32.95707-97.56729-85.93732-115.61811-152.2894-2.57822-9.46993-5.96974-18.71924-9.05834-28.05088-1.95918-5.91706-4.86338-12.00534-11.47521-12.66718-7.43831-.74087-11.38301 5.51205-14.75808 11.2085-9.06163 15.29808-13.47061 32.31827-16.47688 49.52945-9.87165 56.54628-39.23963 97.93936-90.168497 125.77292-52.176815 28.51187-105.315112 55.00858-160.689182 84.37985" fill="#283957"/><path d="m801.485744 508.371738c14.040259 4.688867 26.114749 13.253293 38.880717 20.385376 46.822814 26.160848 94.149419 51.449119 139.144761 80.774294 32.970238 21.491738 59.404388 47.708563 71.047528 87.027215 6.25292 21.116365 20.6916 30.41178 39.87513 30.632394 20.17464.230492 30.75422-11.702411 37.12239-29.061755 15.03137-40.974902 43.45763-70.309955 80.22441-92.440485 50.21104-30.227387 102.81921-56.006277 154.61736-83.286658 17.09592-9.002361 9.33163 7.20123 9.26578 11.14923-1.25124 77.422281-22.13053 150.083255-55.33127 219.451486-27.44501 57.336545-62.99677 109.03262-109.86239 152.421103-57.76131 53.474157-118.19962 59.746834-186.0005 19.223038-62.723474-37.484594-109.477141-90.596549-146.46453-152.648303-45.344373-76.068964-71.788397-158.08133-74.294175-247.153338-.125124-4.37935-.05927-8.77187.105368-13.154511.032927-.921969.882455-1.814302 1.669421-3.319086" fill="#283957"/><path d="m531.525546 1272.98402c20.905629-38.62388 40.843192-76.12823 61.436011-113.26709 13.543054-24.42228 28.446012-48.02466 45.360836-70.35276 18.742297-24.74167 41.873821-41.03746 73.796971-43.84288 12.403765-1.09319 24.840458-3.88214 36.51982-9.00236 19.789389-8.67638 31.649852-28.21881 28.28796-47.046722-3.147863-17.635935-20.984655-31.649852-42.555419-31.906686-10.852883-.128417-21.801255 1.676006-32.581698 3.388233-23.467384 3.7208-41.389788-5.1729-56.457383-22.631027-36.819459-42.654201-62.907867-92.06182-89.526407-141.143457-7.494284-13.822938-14.418924-27.958686-22.351143-43.404947 94.192224-8.564426 180.178932 12.219372 261.727021 53.658551 53.727698 27.300138 101.538336 62.604935 141.021625 108.640784 49.173834 57.326667 52.292062 112.486711 7.622702 172.888801-75.097605 101.5548-177.752181 158.28548-300.406882 181.08443-36.134568 6.7172-72.657681 9.67079-111.894014 2.93713" fill="#283957"/><path d="m1645.81601 764.103332c-36.37165 66.460738-67.16539 133.75454-113.05306 192.233667-13.76038 17.53386-31.17899 28.304424-54.76162 28.518453-13.51342.121831-27.42197.520253-40.51721 5.47254-22.10748 8.356983-34.93272 28.791748-31.2218 49.983848 3.27628 18.70278 20.48745 31.84412 43.54325 32.74304 7.08927.27659 14.46831.50709 21.29417-1.07014 27.58002-6.36816 47.88637 5.05766 65.01522 25.15986 31.52144 36.99397 53.57623 79.97415 76.97118 122.07847 8.76857 15.77882 15.97968 32.4434 25.10387 47.99832 6.4011 10.91545 4.98851 14.56051-7.99478 15.37711-45.94365 2.89433-90.86655-3.03261-134.80821-15.70638-98.80207-28.4987-183.66595-79.23659-248.20702-160.57723-45.93377-57.88644-47.00062-113.323069-3.60885-173.10283 68.28492-94.070393 162.73069-145.707199 275.32606-166.757709 41.13953-7.691849 82.59188-10.326044 126.9188-2.351019" fill="#283957"/><path d="m1232.31293 1869.17971c-56.91836-.23049-87.94589-22.9142-106.07244-77.10288-9.38761-28.07723-19.52597-55.70664-12.01193-86.39172 3.15774-12.89768 5.77876-16.98397 17.84667-7.18806 17.08934 13.87233 36.23664 24.73509 58.16632 29.1803 59.41097 12.03168 105.35792-14.33661 146.67197-52.62134 13.25659-12.28193 25.32449-25.95011 34.57052-41.62028 3.97434-6.73366 8.01783-7.34282 14.61648-4.34642 29.37128 13.33232 59.12122 25.74925 90.14545 34.83064 4.7646 1.39612 9.96055 1.88674 5.8051 9.42712-44.32362 80.44832-99.95452 149.24032-188.91128 183.70876-19.5161 7.56014-39.72366 12.2523-60.82686 12.12388" fill="#283957"/><path d="m158.8571 1139.21532c.434642-39.22645 15.933587-68.06101 49.628232-84.55765 25.80194-12.62768 50.751058-28.91029 81.334061-28.16613 4.379349.10536 8.755406.43793 13.124877.76391 10.833126.80673 14.807468 3.43433 9.147241 15.90066-17.148609 37.7546-25.992918 76.93496-10.490681 117.79132 13.315855 35.08748 38.205705 60.93222 67.679053 82.89153 16.730431 12.46303 34.448684 23.42458 53.408302 32.12401 7.431722 3.40799 9.437003 6.72707 5.963159 14.82722-12.12059 28.24516-20.507208 57.74155-26.605369 87.83394-1.82418 8.98919-5.498882 10.17458-13.526591 6.72707-84.952786-36.48689-157.995718-87.47502-206.32661-168.67079-14.544048-24.43545-22.924081-50.80045-23.335674-77.46509" fill="#c73a34"/><g fill="#283957"><path d="m1069.03368 351.308195c-4.61314.658549-7.0794-2.795539-10.15482-4.846918-65.76268-43.865931-135.005786-41.139539-197.587672 7.787338-19.545726 15.281624-36.911656 32.759507-51.123138 53.052686-4.547279 6.493291-7.951976 6.885127-14.471608 3.513358-28.199057-14.570391-57.283862-27.135501-88.047965-35.278456-6.117918-1.62003-8.936507-3.236767-5.212414-9.479809 52.328282-87.685763 118.604627-158.62134 222.365564-184.034735 19.901343-4.873261 40.378916-4.415569 60.398797-.763917 37.491176 6.835736 63.092266 28.037712 75.733106 64.672778 11.91644 34.540881 20.5566 69.098226 8.10015 105.377675"/><path d="m1074.06236 1744.42193c2.19296 60.91576-65.63097 122.57897-128.166758 116.18117-53.770504-5.50547-98.489255-31.33704-139.80331-64.01423-43.085551-34.07989-76.510191-76.55629-105.101085-123.12885-5.337537-8.69285-6.430728-12.9339 6.229871-15.84139 28.781873-6.60854 56.671411-16.66458 83.569834-28.86419 11.057033-5.01485 16.763358-3.69776 23.223721 6.97073 26.075237 43.04604 61.119908 75.79896 110.672407 90.0763 41.047342 11.82753 82.22969 10.15811 123.32971-.37208 25.10388-6.43073 25.13352-6.31548 26.04561 18.99254"/><path d="m1190.36963 307.139991c-21.88357-.016464-43.70787 1.916376-64.78143 8.297714-10.9385 3.3125-14.89308 2.041501-15.01492-10.879225-.55647-59.233166 55.16334-120.2049 114.1726-124.574371 42.562-3.151156 79.47366 12.50584 114.37674 33.829648 61.2154 37.39569 106.61246 90.053246 142.59556 151.439866 4.18178 7.135376 5.12021 10.724466-4.98851 13.378418-32.73646 8.590768-65.08766 18.620465-96.41483 31.574118-6.71061 2.775783-10.76397 2.199553-14.45514-4.682281-3.85251-7.181474-9.01224-13.691228-13.86245-20.299765-40.04306-54.544298-94.60711-79.177313-161.62762-78.084122"/><path d="m1442.14203 687.803218c18.2879-59.420852 26.46708-118.660603 23.05579-179.378796-1.75832-31.373262-1.55417-31.906686 29.56555-37.194832 54.89991-9.334929 109.11494-5.047776 162.60227 9.980306 6.61841 1.8604 10.97142 4.5374 12.91743 12.515718 14.22465 58.370467 17.49435 116.76069 3.03262 175.582263-1.46198 5.940109-.61245 11.820949-10.58617 9.176876-72.605-19.249379-144.27157-13.4772-215.14787 9.278952-.94502.306225-2.07114.039513-5.43962.039513"/><path d="m1448.72489 1350.50113c31.68278 10.99447 63.56312 19.43048 96.75068 22.93726 36.22018 3.82946 72.09133 3.18737 107.88675-3.19726 22.24577-3.96775 23.12164-3.50677 28.45589 18.48546 9.82225 40.50075 2.10736 80.46807-3.75373 120.4782-.86928 5.9434-3.01286 11.80449-3.14128 17.73472-.59269 27.00379-15.73272 37.97192-40.96502 42.49944-51.82449 9.302-103.08592 11.83083-154.37699-2.70005-10.54337-2.98652-13.99746-6.65463-12.54206-19.1012 7.19464-61.52821 1.406-122.24311-15.93359-181.77592-1.34673-4.6263-3.61214-9.01882-2.38065-15.36065"/><path d="m728.43886 1346.5584c-15.880903 51.56108-23.497019 101.67663-22.93396 152.84587.19098 17.47459 1.840644 34.99199 3.934829 52.35792.852821 7.09257-.760624 9.73664-7.494284 11.42252-62.627985 15.66688-124.538151 14.28722-185.987333-6.27267-7.731362-2.58481-10.108723-7.27697-11.336916-14.08965-10.056039-55.83176-14.679051-111.73597-4.171906-168.14066 2.140283-11.49497 4.194955-16.31884 18.462413-13.18086 65.594747 14.42881 130.504602 8.69614 194.46944-10.65202 4.099466-1.24137 8.241738-2.35431 15.057717-4.29045"/></g><path d="m305.470792 995.756409c-21.251368-3.37177-41.890285 3.121521-60.122207-.767209-45.505717-9.710301-83.734471-38.587663-75.719932-97.399358 6.86537-50.385563 34.428927-90.405569 66.7044-127.606987 43.424704-50.052996 97.435578-85.848412 156.342761-115.015536 8.416253-4.16532 11.132767-2.426752 13.111706 6.387923 6.58878 29.371273 15.143328 58.228879 26.276094 86.210614 3.022739 7.599653 2.061258 11.425821-5.324366 15.515408-14.810761 8.202225-29.381152 16.987265-43.329214 26.575734-59.63488 40.994659-108.222606 105.621338-77.939242 206.099411" fill="#c73a34"/><path d="m1873.58529 1023.14018c3.35531-14.86344 7.69844-29.582007 9.90128-44.613382 11.70571-79.954401-22.49273-146.527092-97.28411-189.938624-11.33033-6.575609-23.16774-12.36096-35.10394-17.780816-7.06952-3.210425-9.91115-5.818278-6.47024-14.537463 11.85059-30.042993 21.44235-60.902587 25.86121-93.01013 1.27759-9.272366 4.6724-8.890408 11.62997-6.196943 85.96037 33.25671 157.32071 84.277773 199.98479 168.384324 44.16557 87.066728-6.72379 183.046914-103.99143 198.262684-1.49491.23378-3.1314-.45111-4.70204-.70794 0 0 .17451.13829.17451.13829" fill="#c73a34"/><path d="m1778.79577 1414.39221c-4.5868-39.59195-12.93061-76.38836-25.03144-112.17389-3.5858-10.59935-.22061-14.43539 8.27796-18.93657 12.54206-6.64805 24.70874-14.14892 36.45396-22.1437 67.27405-45.77243 94.86395-108.22919 77.40911-188.61495-2.29504-10.57958-.37866-12.56181 9.84531-13.90196 70.00702-9.1637 126.78709 59.84891 107.82747 132.46379-13.59903 52.07474-40.48757 96.73422-79.35512 133.92247-39.12767 37.4352-84.30741 65.8384-135.42725 89.38481" fill="#c73a34"/><path d="m729.263034 683.304671c-36.872144-12.245713-74.271126-21.412712-113.211112-22.933959-31.834246-1.244657-63.513733-.869285-94.709186 6.381337-11.089961 2.578218-17.056412 1.755032-19.469993-12.26547-9.680667-56.167621-3.661531-111.146562 8.923335-165.967451 1.48832-6.486705 5.647055-8.732356 11.136059-10.378728 58.232172-17.458127 117.080086-20.94185 176.668868-7.905877 6.098161 1.333561 11.244719 2.709928 10.056039 11.49826-9.127485 67.517709 2.061257 132.898427 21.491738 197.353884.256834.856113-.385251 1.982231-.885748 4.218004" fill="#283957"/><path d="m442.007041 401.492243c-.750745.572937-1.504784 1.145874-2.255529 1.718812-.154759-1.28417-.306225-2.565047-.464277-3.849217.902212.711232 1.811009 1.419172 2.719806 2.130405" fill="#283957"/><path d="m1873.41177 1023.00057c-.00988.35562-.02305.70794-.03622 1.06356.07244-.30623.14158-.61575.21073-.92197 0-.0033-.17451-.14159-.17451-.14159" fill="#c73a34"/></g></svg>