<svg height="4096" viewBox="0 0 4096 4096" width="4096" xmlns="http://www.w3.org/2000/svg" xmlns:xlink="http://www.w3.org/1999/xlink"><mask id="a" fill="#fff"><path d="m0 0h4096v2362.59272h-4096z" fill="#fff" fill-rule="evenodd"/></mask><mask id="b" fill="#fff"><path d="m0 0h9.58616182v57.6774442h-9.58616182z" fill="#fff" fill-rule="evenodd"/></mask><g fill="none" fill-rule="evenodd"><path d="m4071.77998 22.6282257c6.55702 48.5614556 16.05393 96.9234253 19.20907 145.7167163 31.45164 486.347803-84.65326 932.954688-360.16354 1329.641448-329.60437 474.57271-783.18312 747.92836-1342.47739 836.91007-327.05296 52.0336-650.21581 31.06057-968.1236-65.55014-683.798875-207.79472-1221.553154-798.30138-1375.7874627-1513.983041-51.50593292-238.990079-55.1965527-480.778359-26.6533097-723.3538017 1.2547058-10.6913919 2.7561528-21.3504346 4.1421039-32.0094773 1.5066968 6.02233218 3.3073833 11.9799661 4.4833418 18.061605 13.3870278 69.3727378 21.2250012 140.438414 40.8803078 207.875595 135.7707099 465.903145 399.9308909 830.30007 815.0914949 1072.39567 47.395328 27.63695 99.363245 47.02487 149.210234 70.23538 63.08178 43.49881 124.43636 89.96297 189.54457 129.97886 291.7742 179.32747 608.49553 252.70611 946.98259 228.21781 319.07849-23.08651 606.35886-132.96037 859.33168-335.25574 10.30539-8.24364 21.65549-15.11244 32.5121-22.61744 19.30357-8.16816 38.96413-15.57611 57.87396-24.62848 213.38922-102.14242 395.68379-246.21472 546.78921-431.386611 170.1255-208.479445 295.66432-442.013302 367.20355-704.623648 16.59466-60.929611 26.80555-123.697732 39.95109-185.6247753" fill="#2a3640" mask="url(#a)" transform="translate(0 1733.4073)"/><path d="m2233.72165 2662.34474c53.7896 3.12169 107.54245 7.629 161.37406 9.10089 152.45987 4.16765 297.444-31.42719 437.33582-91.05745 126.61503-53.96915 241.25524-127.38014 345.03357-220.08739 143.65069-128.32906 258.56913-278.83884 340.99122-454.72652 63.864-136.27077 108.40343-279.04371 124.16337-430.29752.97647-9.35429 4.3626-18.43901 6.62527-27.65313 2.8034.18871 5.6068.37741 8.4102.56611 0 79.65438 3.11314 159.45971-.59323 238.93078-10.56787 226.62731-51.42193 447.60431-132.9673 658.94126-67.09789 173.89282-163.08025 329.78334-285.56368 469.27285-97.94579 111.54524-209.19987 205.60037-332.69126 284.3921-126.77778 80.88903-263.89769 138.62147-407.57987 179.95828-187.45514 53.93681-379.09963 71.34065-572.38206 58.98328-181.02412-11.57021-355.77995-56.07724-523.93677-127.27232-134.20626-56.82666-256.37995-134.13572-369.42422-226.64888-104.18257-85.26695-192.605201-186.48742-273.914332-294.60904-93.168463-123.88643-163.127495-260.75027-215.373652-407.08701-45.08016-126.26949-75.340092-256.88455-91.472773-390.26006-9.423418-77.92909-13.460525-156.71543-16.400422-235.25915-2.666906-71.31368-.56173-142.81607 2.866399-214.44786 7.622731 53.1119 13.61802 106.5419 23.177933 159.28718 27.446031 151.49104 85.078498 291.25551 161.515802 423.02975 60.08938 103.59813 132.258584 197.93362 216.570609 281.86887 175.863546 175.07356 382.543506 292.05885 623.368256 342.35637 116.01566 24.22951 232.96578 31.17379 350.57214 11.72117 4.26284-.70628 8.70944-.20487 13.07203-.26418-84.18603 96.13626-110.4771 207.40114-78.99921 331.9723 31.1104 123.11545 137.83914 214.09202 254.29578 222.96647 222.85989 16.9833 363.31343-202.24684 312.65797-401.89497-14.73623-58.09367-46.11437-105.52291-80.73165-151.78218" fill="#efe4c0"/><path d="m4071.77998 1756.0355c-13.14554 61.92705-23.35643 124.69517-39.95109 185.62478-71.53923 262.61034-197.07805 496.1442-367.20355 704.62365-151.10542 185.17188-333.39999 329.24419-546.78921 431.38661-18.90983 9.05236-38.57039 16.46032-57.87396 24.62848 44.2087-41.98919 89.96608-82.38788 132.34259-126.23175 200.06519-207.00756 334.60219-454.09032 417.87475-731.41413 84.48002-281.33511 114.65596-569.26944 88.80062-862.39581-32.13936-364.44545-167.92582-682.911984-409.82679-952.725405-17.00415-18.967381-33.70906-38.220513-50.55047-57.344248 1.24421-1.97869 2.48841-3.96277 3.73262-5.94146 11.01936 6.6154 22.75795 12.23876 32.95834 19.991771 253.89154 192.989597 451.58907 434.831792 597.65991 722.226972 97.52056 191.86816 164.21946 393.93169 197.96002 607.47917 2.06318 13.06906.65623 26.715.86622 40.09137" fill="#dd633d"/><path d="m1031.58913 3101.97552c-49.846989-23.21051-101.809656-42.59843-149.210234-70.23538-415.155354-242.09559-679.320785-606.49252-815.0914948-1072.39566-19.6553066-67.43718-27.4932801-138.50286-40.8803078-207.8756-1.1759585-6.08164-2.976645-12.03927-4.4833418-18.0616 29.9554432-234.94105 102.2558924-455.58916 211.7145314-663.80442 138.280121-263.04167 324.144564-484.487731 553.057489-668.349478 17.161644-13.780735 35.320754-26.256721 55.348797-35.578666-47.752315 58.994054-97.49431 116.419175-142.899959 177.262522-173.516878 232.493293-269.735484 496.958322-302.095342 786.688032-39.536355 353.99668-2.157674 699.08655 122.121192 1032.33125 91.908507 246.44117 229.222663 463.4554 414.719619 647.19853 31.924124 31.62668 65.097703 61.91626 97.699051 92.82047" fill="#dd633d"/><path d="m2078.99123 2211.29955c-2.53041 4.97099-5.22356 7.87163-4.89808 10.36251.27299 2.09191 4.95058 5.68806 6.09504 5.13812 2.59866-1.24544 5.37581-4.44261 5.82204-7.22464.28874-1.78459-3.43337-4.25391-7.019-8.27599m-238.39409-627.99392c-2.87165-.29653-5.7433-.58767-8.61494-.88421-3.71687 8.80436-9.9274 17.46315-10.41564 26.45621-.45148 8.25982 5.25507 16.87547 8.25271 25.34016 5.69605-10.22772 12.97754-19.92707 16.43192-30.89882 1.72194-5.4724-3.54887-13.26854-5.65405-20.01334m95.43638 660.37002c13.18229-5.61257 23.86566-10.16302 34.54904-14.70807-9.37092-4.89551-18.73134-9.80718-28.11801-14.67034-.76123-.39358-1.67469-.65776-2.51991-.66316-8.83544-.03774-17.70238-.36123-26.42757.65238-.71923.08087-2.54091 11.65647-.20474 13.9263 6.40477 6.20026 14.75198 10.28703 22.72119 15.46289m120.97149-100.06668c-.78747 19.03208 12.20582 27.44286 26.45381 25.22155 12.52606-1.95173 23.72392-12.90192 35.50975-19.87316-10.07439-10.78304-18.66834-27.59921-30.62742-30.69394-12.8043-3.30501-32.79559 1.3317-31.33614 25.34555m-229.87364-88.37247c5.05032 14.40076 7.019 24.98433 12.11132 33.62155 14.27425 24.19176 30.52767 47.17044 44.59193 71.48082 6.67776 11.54325 12.47881 18.85416 26.56406 12.36816 29.14172-13.43029 58.72968-25.85775 87.68241-39.69779 4.88232-2.33453 11.54959-11.0095 10.46288-14.46007-5.25507-16.76225-4.4151-37.72989-29.87145-41.71422-10.06389-1.57433-19.95455-13.12297-27.33054-22.32091-20.02804-24.97893 1.28621-44.37763 9.62292-65.84668 4.43609-11.43542 7.09775-17.8136 21.98622-14.54633 8.71994 1.91399 19.56606-6.362 29.45671-10.0552-4.1946-10.85313-5.83779-28.21384-13.10354-31.21692-15.85444-6.54531-34.65927-8.13581-52.08866-7.40256-20.18554.84647-25.87634-5.52092-21.77098-25.43721 2.6564-12.88035 1.66944-27.80948-2.17867-40.37173-2.26267-7.37021-13.33453-11.8937-20.44278-17.70037-2.60916 8.41616-8.36821 17.26905-7.31825 25.17302 5.99004 45.14862 1.39646 52.71293-42.20851 60.5576-18.01736 3.2403-17.15639 8.29755-5.4283 21.42591 20.994 23.50166 18.75233 36.41975.75597 61.29085-9.81716 13.56507-14.91998 30.72629-21.49274 44.85208m247.03003-1658.093077c.71398 5.299868 1.4332 10.599736 2.14718 15.899604.90296 12.610775 1.80593 25.22694 2.7089 37.837715.85572 7.154552 1.71669 14.309104 2.57241 21.463656.79272 9.003845 1.58544 18.00769 2.37292 27.011535.89771 7.176118 1.79543 14.352237 2.69315 21.533746 1.26521 14.454676 2.53566 28.909351 3.80612 43.358635.51448 3.515274 1.02371 7.030548 1.53819 10.545821 1.32296 14.460067 2.64591 28.914743 3.96886 43.37481.45149 3.499099.90297 6.998198 1.35445 10.491905 1.05522 12.66469 2.11568 25.329379 3.17614 37.988678.60373 3.536839 1.21271 7.073679 1.82169 10.61591 1.14971 10.847746 2.29417 21.700884 3.44388 32.54863.53023 3.536839 1.06571 7.068288 1.59594 10.605127.46723 14.271364.93447 28.542728 1.4017 42.814091-34.33904-5.957634-40.13483-.948908-41.24254 35.686497-.0525 1.789986.04724 3.590755-.021 5.386132-1.26521 32.327577 7.061 66.180956-17.71288 94.518805-4.68283 5.359175-2.38341 17.172004-3.26538 26.014103-.88722 8.847491.45148 18.740937-2.9819 26.375335-12.44731 27.717824-7.20799 52.491872 3.71687 79.821512 12.43156 31.09292 8.21071 64.23461-5.55955 95.031-7.12925 15.93195-17.85987 30.37584-23.49817 46.75529-11.01412 32.00948-20.80502 39.55761-52.93914 36.54914-5.96379-.56071-15.4397.62542-17.93861 4.57741-25.87634 40.92166-42.52875 85.59583-47.66307 134.38912-.45674 4.36714-.90822 11.61335 1.20746 12.83722 6.09503 3.52067 18.66309 7.84467 19.61855 6.22182 14.00651-23.80358 33.35208-16.89704 53.25937-12.35198 7.145 1.62824 16.26918 1.05135 22.6687-2.24827 13.43428-6.92811 26.03909-15.78099 38.29215-24.83336 18.39011-13.58124 29.8137-7.72605 33.44132 13.32246 3.21814 18.67085 4.21561 37.88085 4.64609 56.89136.51448 22.68753 4.03711 46.83617-2.04218 67.81459-11.04561 38.12346-26.7268 75.12549-43.7887 110.9306-4.87708 10.2385-20.52678 16.29858-32.40186 21.42592-11.73334 5.05725-27.66652 2.8629-36.99544 10.21693-29.62471 23.35609-57.47498 49.19227-84.84751 75.35194-4.66184 4.44801-6.63577 16.11527-4.70384 22.9032 13.38178 46.98173 36.42847 62.74116 83.60331 59.39841 3.44912-.24261 7.43898-.73324 10.36313.66855 21.65549 10.39486 37.58867-3.48292 56.23602-10.93401 16.32167-6.51835 35.82473-6.07085 53.90509-5.94146 9.9589.07009 19.8653 5.87676 29.8242 9.01463 52.18316 16.43876 89.28885 47.2621 103.61035 104.64409 7.96397 31.91782 29.32546 51.56453 63.18677 60.13706 20.52152 5.19203 38.62289 22.12681 56.33576 35.79971 3.08689 2.38306 1.72194 17.63029-2.47266 22.08908-33.73006 35.83746-91.77201 38.0372-126.52579 4.60975-11.3921-10.95558-20.63177-10.66983-32.28636-2.78742-27.14154 18.36353-31.80338 39.06159-19.04633 71.15733 8.73044 21.96507 16.18518 44.06493.147 68.29444-6.33653 9.56995-8.12672 32.68342-1.91094 38.74888 20.43228 19.95403 11.68084 36.37122 1.50145 55.0852-3.16039 5.80667-7.90622 13.83465-6.18428 18.70859 4.75108 13.49498 50.57672 13.2955 59.13916 1.11604 8.27371-11.76969 17.96487-22.48265 26.36457-34.16069 2.68266-3.73633 4.14736-8.99846 4.58834-13.71604 1.04471-11.1928 2.15768-22.55274 1.4332-33.72398-2.08418-31.95556 20.95726-23.44235 35.77224-21.60923 20.58452 2.55019 10.04289 20.60101 10.33688 32.35993.126 4.86854-3.96361 9.7964-5.95854 14.77277-5.94279 14.78356-4.70383 26.28907 13.14554 30.27341 21.90748 4.89011 43.78871 9.90962 65.68043 14.86982-86.64819 34.91012-177.61698 47.38071-269.57274 49.56428-219.37401 5.219-419.37095-57.54912-598.83062-187.69512-35.47825-25.72835-35.4835-27.03849-1.5067-52.55657 107.29572-80.58711 194.21165-180.04455 262.74798-296.74948 3.05015 8.58331 6.10554 17.15583 9.15568 25.73374 8.16346-4.45339 17.0724-7.93093 24.24364-13.69447 5.18682-4.16225 6.88776-13.3548 12.26882-16.68676 6.33653-3.92503 18.26411-8.10346 22.03872-4.94942 19.10408 15.98048 27.38304 7.49961 33.41508-11.99614 2.88214-9.31656 9.52316-18.3851 9.36042-27.46982-.21525-11.87213-2.07368-28.73682-9.54942-34.02051-7.36549-5.20821-24.74237-2.08652-33.78256 3.78485-8.11621 5.27291-11.2451 19.06982-15.90693 29.42154-10.70963 23.78202-22.16997 46.5019-51.41144 50.125 31.92412-80.4631 69.3763-159.14161 94.64891-241.75054 55.18605-180.40039 83.19381-367.03338 105.16429-554.383441 15.65495-133.531872 28.24925-267.446542 42.09826-401.204858 16.69442-161.206564 33.26808-322.434695 49.89424-483.6520417 3.19714.0539153 6.38903.1078305 9.58617.1617457.75597 7.0467217 1.51719 14.0934435 2.27317 21.1401652.47248 7.1275945.94496 14.2551891 1.41745 21.3881748 1.56969 16.228487 3.14464 32.462366 4.71958 48.696244.29924 3.703977.59848 7.413345.90297 11.122714 1.07096 8.87984 2.14717 17.75968 3.22338 26.634128.57748 8.928363 1.15496 17.851335 1.72719 26.774307 1.22846 10.831572 2.45692 21.668535 3.68012 32.500106.71923 10.804614 1.43845 21.603837 2.15768 32.40845.28349 6.11938.56698 12.23876.85047 18.368922 1.96868 17.312184 3.94786 34.618975 5.92704 51.925767.57748 5.267519 1.15496 10.535038 1.73244 15.807948.89772 10.901661 1.79018 21.797931 2.6879 32.699592" fill="#dd613a"/><path d="m2348.79811 2225.69546c-21.89172-4.9602-43.7677-9.97971-65.67518-14.86982-17.84937-3.98434-19.09358-15.48985-13.15079-30.27341 2.00018-4.97637 6.08454-9.90962 5.96379-14.77277-.29399-11.75892 10.24239-29.80974-10.34213-32.35993-14.81498-1.83312-37.85642-10.34633-35.77224 21.60923.72972 11.17124-.38849 22.53118-1.4332 33.72398-.44098 4.71758-1.90043 9.97971-4.58834 13.71604-8.3997 11.67804-18.09086 22.391-26.36457 34.16069-8.56244 12.17945-54.38808 12.37894-59.13916-1.11604-1.71669-4.87394 3.02914-12.90192 6.18428-18.70859 10.18464-18.71398 18.93608-35.13117-1.4962-55.0852-6.21578-6.06547-4.42559-29.17893 1.91094-38.74888 16.03293-24.22951 8.57819-46.32937-.15225-68.29444-12.75705-32.09574-8.09521-52.7938 19.05158-71.15733 11.65459-7.88241 20.89426-8.16816 32.28111 2.78742 34.75902 33.42745 92.79573 31.22771 126.52579-4.60975 4.1946-4.45879 5.55955-19.70602 2.47791-22.08908-17.71812-13.6729-35.81949-30.60768-56.34101-35.79972-33.86131-8.57252-55.2228-28.21923-63.18677-60.13705-14.3215-57.38199-51.42719-88.20533-103.61035-104.64409-9.95365-3.13787-19.86005-8.94454-29.81895-9.01463-18.08036-.12939-37.58342-.57689-53.90509 5.94146-18.64735 7.45109-34.58578 21.32887-56.23602 10.93401-2.9294-1.40179-6.91401-.91117-10.36838-.66855-47.17484 3.34275-70.22153-12.41668-83.59806-59.39842-1.93193-6.78792.042-18.45518 4.69859-22.90319 27.37778-26.15967 55.22805-51.99586 84.84751-75.35194 9.32892-7.35404 25.26735-5.15968 37.00069-10.21693 11.87508-5.12734 27.52478-11.19281 32.40186-21.42592 17.0619-35.80511 32.74309-72.80714 43.7887-110.9306 6.07929-20.97842 2.55666-45.12706 2.04218-67.81459-.43573-19.01051-1.4332-38.22051-4.64609-56.89136-3.62762-21.04851-15.05646-26.90371-33.44132-13.32246-12.25831 9.05237-24.86312 17.90525-38.29739 24.83336-6.39428 3.29961-15.51846 3.87651-22.66346 2.24827-19.91254-4.54506-39.25286-11.4516-53.26462 12.35198-.95546 1.62285-13.52352-2.70115-19.6133-6.22182-2.11568-1.22388-1.66945-8.47008-1.20746-12.83722 5.12907-48.79329 21.78673-93.46746 47.66307-134.38912 2.49891-3.95199 11.96957-5.13812 17.93861-4.57741 32.12887 3.00847 41.91977-4.53966 52.93914-36.54914 5.63305-16.37945 16.36892-30.82334 23.49292-46.75529 13.77026-30.79639 17.99111-63.93808 5.55955-95.031-10.92486-27.32964-16.16418-52.103689-3.71162-79.821513 3.42813-7.634398 2.08943-17.527844 2.97665-26.375335.88722-8.842099-1.41745-20.654928 3.26538-26.014102 24.77388-28.33785 16.45292-62.191228 17.71813-94.518806.06824-1.795377-.03675-3.596146.021-5.386132 1.10246-36.635405 6.89825-41.64413 41.24779-35.686497 2.86115 14.524766 5.71705 29.049531 8.57295 43.568905.46723 3.488316.93447 6.982023 1.4017 10.470339 1.17596 10.874704 2.34667 21.749408 3.52262 32.629503.53024 3.509882 1.06047 7.019764 1.58545 10.529646.73497 7.267774 1.46995 14.535548 2.20492 21.803323.88722 5.332217 1.77969 10.669825 2.67741 16.007434 1.17071 10.847746 2.33616 21.695492 3.50687 32.543238.67198 3.504491 1.34396 7.008981 2.01593 10.518863 1.19171 9.079326 2.37817 18.153261 3.56463 27.232587.55648 3.493708 1.10771 6.982024 1.66419 10.475731.78747 7.262383 1.56969 14.530157 2.35191 21.797936.97647 5.31604 1.94769 10.63208 2.92415 15.94812.93447 7.28395 1.86894 14.57329 2.79815 21.85724.58798 3.55302 1.17071 7.11142 1.75344 10.66444 2.96615 21.58766 5.93754 43.18071 8.90369 64.76837.67197 3.52067 1.3387 7.03594 2.01068 10.55121.67722 5.35379 1.35445 10.70218 2.03167 16.05057 1.29146 7.1869 2.58816 14.3738 3.87962 21.5661.52498 3.56918 1.04996 7.14376 1.57494 10.71835.30449 2.64723.61423 5.29986.91347 7.95788 5.18157 28.02515 10.37363 56.03411 15.56045 84.04308.86622 3.50988 1.72719 7.01437 2.58816 10.52425.59848 3.52606 1.19696 7.05212 1.79544 10.57817.91346 3.72555 1.82693 7.45109 2.7404 11.17663 1.11821 5.43466 2.23642 10.86931 3.35463 16.30936.92922 3.48293 1.85844 6.97124 2.78765 10.45956 2.22592 10.76148 4.45185 21.51757 6.67777 32.27366.40948 2.68498.82422 5.36996 1.2337 8.06572 6.68302 26.18663 13.37128 52.36248 20.0543 78.54372 1.1812 3.47753 2.36241 6.95507 3.54362 10.4326.81372 3.55301 1.62744 7.10603 2.44116 10.65904.97122.74942 1.07622 1.61207.31499 2.59332 5.11332 17.13966 10.23189 34.26853 15.35046 51.3974.97647.57689 1.17071 1.35867.58273 2.3561 3.28114 9.82875 6.57277 19.6521 9.8644 29.47007 0 0-.18899-.30732-.19424-.30193 6.80901 18.36892 13.62327 36.73785 20.43753 55.10677 1.4647 3.45057 2.9294 6.90115 4.39409 10.35711.55123 1.54737 1.10772 3.09474 1.6642 4.64211 0 0-.21-.08627-.21525-.08627 5.41781 12.60539 10.83562 25.19998 16.25343 37.79998 0 0-.16799-.23184-.17324-.23184 1.77968 3.68241 3.56462 7.35943 5.34956 11.03645 0 0-.21-.23184-.21525-.22644 3.50688 7.31629 7.02426 14.63259 10.53638 21.94889 0 0-.18899-.27497-.19424-.27497 1.80594 3.68241 3.62237 7.35404 5.43356 11.03106 0 0-.19424-.25879-.19424-.2534 2.06317 3.62849 4.1316 7.25699 6.20003 10.88009 72.54194 135.09542 172.99714 244.79136 291.67971 337.85985 9.10843 7.14377 17.0409 13.30089 3.74836 24.66083-54.64007 46.6852-112.40378 88.00584-179.7904 113.31366-4.10536 1.88164-8.21071 3.76328-12.31082 5.64492 0 0 .49348-.33427.48823-.33427-3.69062 1.81155-7.37599 3.6231-11.06136 5.43465 0 0 .36224-.24262.36224-.24262-3.69587 1.71451-7.38124 3.42901-11.07186 5.14352l-.97121 1.13761s-1.37546-.53915-1.38595-.53915c-18.32186-7.89859-31.47789-2.32914-39.73585 16.03439 0 0-2.07893.07009-2.08418.07009-4.60409 1.84929-9.20292 3.69319-13.79651 5.53709z" fill="#dd633c"/><path d="m2233.72165 2662.34474c34.61728 46.25927 65.99542 93.68851 80.73165 151.78218 50.65546 199.64813-89.79808 418.87827-312.65797 401.89497-116.45664-8.87445-223.18538-99.85102-254.29578-222.96647-31.47789-124.57116-5.18682-235.83604 78.99921-331.9723 42.6285-34.37636 86.32271-66.56375 141.55076-76.46798 88.45938-15.87265 169.66876-1.83312 239.81679 59.8513 7.83797 6.89576 17.19839 11.9638 25.85534 17.8783" fill="#eaab22"/><g fill="#d37a5d"><path d="m9.58616182 57.6774442c-3.19713721-.0539153-6.38902461-.1078305-9.58616182-.1617457 1.05521277-19.172259 2.11042555-38.3445179 3.17088814-57.5167768 1.29670425.05391523 2.59865832.10243895 3.89536257.15635419.83997037 19.17225891 1.67994074 38.34990941 2.51991111 57.52216831" mask="url(#b)" transform="translate(2033.2764)"/><path d="m2184.19175 1264.93885c-5.18682-28.00897-10.37889-56.02333-15.56571-84.04308 5.19207 28.00897 10.37889 56.02333 15.56571 84.04308"/><path d="m2117.3448 806.804347c-2.8559-14.524765-5.71179-29.04953-8.57294-43.568904-.47249-14.276755-.93972-28.548119-1.4122-42.819483 3.32838 28.796129 6.65676 57.592258 9.98514 86.388387"/><path d="m2225.42274 1442.86614c-6.68826-26.17585-13.37128-52.35709-20.05429-78.54372 6.68826 26.17585 13.37128 52.35709 20.05429 78.54372"/><path d="m2158.22039 1114.05112c-2.96615-21.59305-5.93754-43.18072-8.90369-64.76838 2.96615 21.58766 5.93229 43.17533 8.90369 64.76838"/><path d="m2277.76444 1604.58059c-6.81426-18.36892-13.62851-36.73785-20.43752-55.10677 6.81425 18.36353 13.62326 36.73785 20.43752 55.10677"/></g><path d="m2366.55194 2219.31891c8.25796-18.36893 21.41399-23.93298 39.73585-16.0344-13.24004 5.343-26.48532 10.6914-39.73585 16.0344" fill="#dd613a"/><g fill="#d37a5d"><path d="m2095.97123 618.169484c-1.32295-14.460067-2.6459-28.914743-3.97411-43.37481 1.32821 14.460067 2.65116 28.914743 3.97411 43.37481"/><path d="m2069.73948 348.634805c-1.97918-17.306792-3.95311-34.613584-5.92704-51.925767 1.97918 17.3014 3.95311 34.613583 5.92704 51.925767"/><path d="m2090.46155 564.25101c-1.27045-14.454675-2.53566-28.909351-3.80611-43.364026 1.2652 14.454675 2.53566 28.909351 3.80611 43.364026"/><path d="m2247.07035 1517.94958c-5.11857-17.12887-10.23714-34.25774-15.35046-51.39739 5.11857 17.12887 10.23714 34.26313 15.35046 51.39739"/><path d="m2100.49867 666.649528c-1.06046-12.659299-2.11567-25.323988-3.17614-37.983286 1.05522 12.659298 2.11568 25.318596 3.17614 37.983286"/><path d="m2074.16193 397.142884c-.89772-10.901661-1.79019-21.797931-2.68791-32.699592.89247 10.901661 1.79019 21.797931 2.68791 32.699592"/><path d="m2079.01591 450.882898c-.90297-12.610774-1.80594-25.22694-2.70366-37.843106.89772 12.616166 1.80069 25.22694 2.70366 37.843106"/><path d="m2122.2686 849.900954c-1.17595-10.874703-2.34666-21.754798-3.52262-32.629502 1.17071 10.874704 2.34667 21.754799 3.52262 32.629502"/><path d="m2299.85986 1657.29136c-5.4178-12.5946-10.83561-25.19459-16.25342-37.79458 5.42306 12.5946 10.83562 25.19459 16.25342 37.79458"/><path d="m2062.96407 278.342273c-.71922-10.804614-1.43845-21.609228-2.15767-32.40845.71922 10.799222 1.43845 21.603836 2.15767 32.40845"/><path d="m2105.76581 709.816763c-1.14971-10.853137-2.29417-21.700883-3.44388-32.554021 1.14446 10.853138 2.29417 21.700884 3.44388 32.554021"/><path d="m2132.24483 930.784057c-1.17071-10.847746-2.34142-21.695493-3.51213-32.543239 1.17071 10.847746 2.34142 21.695493 3.51213 32.543239"/><path d="m2137.82118 968.538203c-1.18646-9.079327-2.37292-18.153261-3.55937-27.232588 1.18645 9.073935 2.37291 18.153261 3.55937 27.232588"/><path d="m2204.13159 1356.26048c-2.22592-10.75609-4.45184-21.51757-6.67776-32.27367 2.22592 10.7561 4.45184 21.51758 6.67776 32.27367"/><path d="m2083.96438 499.35755c-.79272-9.003844-1.58019-18.007689-2.37292-27.011534.79273 9.003845 1.5802 18.00769 2.37292 27.011534"/><path d="m2257.51801 1549.77737c-3.29164-9.82336-6.58327-19.64133-9.8644-29.47547 3.29163 9.81797 6.57801 19.64672 9.8644 29.47547"/><path d="m2147.56431 1038.61777c-.93446-7.28934-1.86893-14.57329-2.79815-21.86263.92922 7.28934 1.86369 14.57329 2.79815 21.86263"/><path d="m2126.05635 882.233384c-.73498-7.267774-1.4647-14.530157-2.19968-21.797931.73498 7.262383 1.4647 14.530157 2.19968 21.797931"/><path d="m2057.12785 213.432638c-.57748-8.922972-1.15496-17.845944-1.73244-26.774307.57748 8.928363 1.15496 17.851335 1.73244 26.774307"/><path d="m2141.83991 1000.80863c-.78222-7.267775-1.56444-14.530157-2.35191-21.797931.78747 7.267774 1.56969 14.530156 2.35191 21.797931"/><path d="m2046.55053 100.204706c-.47249-7.1275943-.94497-14.2605804-1.41745-21.388175.47248 7.1275946.94496 14.2605807 1.41745 21.388175"/><path d="m2194.66775 1313.52295c-1.11821-5.43466-2.23642-10.86932-3.35463-16.30936 1.11821 5.44004 2.23642 10.8747 3.35463 16.30936"/><path d="m2315.35837 1689.81896c-3.51213-7.31629-7.0295-14.6272-10.53638-21.94889 3.51213 7.3163 7.02425 14.6326 10.53638 21.94889"/><path d="m2162.26064 1140.65398c-.67722-5.3484-1.35445-10.70218-2.03167-16.05057.67722 5.34839 1.35445 10.70217 2.03167 16.05057"/><path d="m2052.1736 160.023125c-.29924-3.709369-.59848-7.418737-.90297-11.122714.30449 3.709368.60373 7.413345.90297 11.122714"/><path d="m2320.59506 1700.57451c-1.81119-3.67162-3.62237-7.34864-5.43356-11.02566 1.81119 3.67163 3.62237 7.34864 5.43356 11.02566"/><path d="m2305.03303 1668.09813c-1.78493-3.67702-3.56462-7.35404-5.34431-11.03645 1.78494 3.67702 3.56463 7.35943 5.34431 11.03645"/></g><path d="m2429.9277 2192.68478c4.10011-1.88164 8.20546-3.76329 12.31082-5.64493-4.10011 1.88164-8.20546 3.76329-12.31082 5.64493" fill="#dd613a"/><path d="m2419.35667 2197.7857c3.68537-1.81155 7.37074-3.6285 11.06136-5.43466-3.68537 1.81155-7.37599 3.62311-11.06136 5.43466" fill="#dd613a"/><path d="m2231.40753 1463.95886c-.81372-3.55301-1.62744-7.10603-2.44116-10.65904.81372 3.55301 1.62744 7.10603 2.44116 10.65904" fill="#d37a5d"/><path d="m2408.6439 2202.68444c3.69062-1.71451 7.38124-3.42901 11.07186-5.14352-3.69062 1.71451-7.38124 3.42901-11.07186 5.14352" fill="#dd613a"/><path d="m2326.60137 1711.20606c-2.06843-3.6285-4.13685-7.2516-6.20003-10.88549 2.06843 3.6285 4.13685 7.25699 6.20003 10.88549" fill="#d37a5d"/><path d="m2167.71783 1172.93411c-.52498-3.57458-1.04997-7.14377-1.57495-10.71835.52498 3.56919 1.04997 7.14377 1.57495 10.71835" fill="#d37a5d"/><path d="m2350.67177 2224.92393c4.59359-1.8439 9.19243-3.6878 13.79652-5.53709-4.59359 1.8439-9.19768 3.69319-13.79652 5.53709" fill="#dd613a"/><path d="m2188.57534 1286.04127c-.59848-3.52606-1.19696-7.05211-1.79544-10.58356.59848 3.53145 1.19696 7.0575 1.79544 10.58356" fill="#d37a5d"/><path d="m2283.82063 1619.57873c-.55648-1.54737-1.11296-3.09474-1.66419-4.6421 1.51195 1.18613 2.06843 2.7335 1.66419 4.6421" fill="#d37a5d"/><g fill="#dd633c"><path d="m1827.13347 2055.23435c6.56752-14.1204 11.67558-31.28702 21.49274-44.85209 17.99636-24.86571 20.23803-37.78919-.75597-61.28545-11.73334-13.13375-12.59431-18.18561 5.42305-21.42592 43.61022-7.84467 48.2038-15.41437 42.21376-60.55759-1.04996-7.90398 4.70384-16.76225 7.31825-25.17303 7.10825 5.80128 18.18011 10.32477 20.43753 17.70037 3.85336 12.55686 4.83507 27.49138 2.18392 40.37173-4.11061 19.91629 1.58544 26.28368 21.77098 25.43182 17.42414-.73324 36.23422.85725 52.08341 7.40796 7.271 3.00307 8.90894 20.36378 13.10354 31.21153-9.8854 3.69319-20.73152 11.97457-29.45146 10.06058-14.88848-3.27265-17.55013 3.10552-21.99147 14.54633-8.33671 21.46905-29.64571 40.86236-9.61767 65.84668 7.37599 9.19794 17.26665 20.74659 27.32529 22.32091 25.45635 3.97895 24.61638 24.94658 29.8767 41.70883 1.08146 3.45597-5.58581 12.13093-10.46288 14.46007-28.95273 13.84004-58.54069 26.2675-87.68766 39.69779-14.08 6.49139-19.88105-.81951-26.55881-12.36277-14.06951-24.31577-30.31768-47.28905-44.59193-71.48621-5.09757-8.63722-7.06625-19.21539-12.11132-33.62154"/><path d="m1741.46909 1738.50658c29.24147-3.6231 40.70706-26.34299 51.41144-50.125 4.66183-10.35172 7.79597-24.14863 15.90693-29.42154 9.04019-5.87137 26.42232-8.99306 33.78256-3.78485 7.47574 5.28369 9.33417 22.14838 9.54942 34.02051.16274 9.08472-6.47828 18.15326-9.36042 27.46982-6.02679 19.49575-14.311 27.97661-33.41508 11.99614-3.77461-3.15404-15.70219 1.02439-22.03347 4.94942-5.38106 3.33196-7.08725 12.52451-12.27407 16.68676-7.17124 5.76354-16.08018 9.24108-24.24364 13.69447-3.05014-8.57791-6.10028-17.15043-9.15568-25.73374 0 0-.16799.24801-.16799.24801"/><path d="m2057.03651 2143.58633c-1.49095-23.99228 18.50034-28.62899 31.30464-25.3186 11.95908 3.08934 20.55303 19.9109 30.62742 30.68855-11.78583 6.97125-22.98369 17.92143-35.50975 19.87316-14.24799 2.22131-27.24128-6.18947-26.42231-25.24311"/><path d="m1936.0351 2243.67512c-7.96922-5.17587-16.31642-9.26264-22.7212-15.4629-2.33617-2.26983-.51448-13.84543.20474-13.9263 8.71995-1.01361 17.59213-.69012 26.42232-.65238.84522.0054 1.76394.26958 2.52516.66855 9.38667 4.85777 18.74709 9.76944 28.11276 14.66495-10.67812 4.55044-21.3615 9.0955-34.54378 14.70808"/><path d="m1840.59662 1583.30563c2.10517 6.7448 7.38124 14.54094 5.65405 20.01334-3.45438 10.97175-10.73062 20.6711-16.43192 30.89882-2.99765-8.46469-8.7042-17.08034-8.25271-25.34016.48823-8.99306 6.69876-17.65185 10.42088-26.45621 2.8664.29654 5.73805.58768 8.6097.88421"/><path d="m2078.99123 2211.29955c3.58563 4.02208 7.30774 6.4914 7.019 8.27599-.44623 2.78203-3.22338 5.9792-5.82204 7.22464-1.14446.54994-5.82205-3.04621-6.09504-5.13812-.32548-2.49088 2.36767-5.39152 4.89808-10.36251"/></g></g></svg>