<svg height="4096" viewBox="0 0 4096 4096" width="4096" xmlns="http://www.w3.org/2000/svg"><g fill="none" fill-rule="evenodd"><circle cx="2048" cy="2048" fill="#163a5c" r="2048"/><circle cx="2048.43408" cy="2047.56592" fill="#fff" r="1616.08817"/><g transform="matrix(0 -1 -1 -0 3408.9463 4023.9977)"><path d="m1582.45103.13451499c56.13882 111.55059701 109.44337 217.22834601 162.54547 323.00665701 251.15019 500.284885 502.14517 1000.656928 753.42358 1500.874768 93.79414 186.71769 188.02017 373.22085 282.65784 559.51618 8.59055 16.9079 10.66901 27.29265-5.77651 42.33009-251.03547 229.55731-538.50483 392.43499-875.67516 454.94462-490.49767 90.92859-937.097868-16.04977-1336.190281-313.97614-56.489729-42.1692-107.594343-91.39788-162.639943-135.57833-20.514727-16.45872-21.972352-29.91398-10.331595-52.94279 94.799632-187.50207 188.013422-375.78184 282.097737-563.63924 299.757947-598.54782 599.691352-1197.015202 899.570762-1795.5026913 1.91651-3.8280781 4.07596-7.5421854 10.3181-19.03312371" fill="#c5273e"/><g fill="#fcf8ee"><path d="m2990.47017 436.35397c-11.45855-15.85535-22.9171-31.703995-34.36891-47.559345 11.45855 15.85535 22.91036 31.703995 34.36891 47.559345"/><path d="m280.553059 128.110554c-10.250615 9.010398-20.50123 18.020795-30.745097 27.031192 10.250615-9.010397 20.494482-18.020794 30.745097-27.031192"/><path d="m2956.75449 389.552866c-11.56653-13.589342-23.1398-27.171979-34.70633-40.761321 11.56653 13.589342 23.1398 27.171979 34.70633 40.761321"/><path d="m2652.91722 67.9654812c-11.51929-9.1645932-23.03858-18.3291864-34.55787-27.4937795 11.51929 9.1645931 23.03858 18.3291863 34.55787 27.4937795"/><path d="m2848.79102 255.452811c-9.31936-9.124368-18.64546-18.242032-27.96481-27.3664 9.31935 9.124368 18.64545 18.242032 27.96481 27.3664"/><path d="m2821.60158 228.913705c-11.39107-13.743538-22.78889-27.49378-34.17996-41.237318 11.39107 13.743538 22.78889 27.49378 34.17996 41.237318"/><path d="m47.8809672 375.388307c-6.8899789 11.531163-13.7799579 23.062327-20.6699368 34.59349 6.8899789-11.531163 13.7799579-23.062327 20.6699368-34.59349"/><path d="m412.659126 20.4979837c-11.600268 6.7510939-23.200536 13.5021877-34.800805 20.2532816 11.600269-6.757798 23.200537-13.5021877 34.800805-20.2532816"/><path d="m432.451788-0c-6.842741 7.01926047-13.69223 14.0452251-20.534971 21.0644856 6.842741-7.0192605 13.69223-14.04522513 20.534971-21.0644856"/><path d="m14.1983503 422.312097c-4.730534 6.979035-9.46781628 13.951367-14.1983503 20.930402 4.73053402-6.979035 9.4678163-13.951367 14.1983503-20.930402"/><path d="m371.618201 47.0337381c-1.808536 3.6068406-3.617071 7.2136812-5.412109 10.8004094 1.808535-3.6135448 3.610322-7.2069771 5.412109-10.8004094"/><path d="m2734.05836 134.613594c-7.08568-4.545424-14.16461-9.097551-21.25029-13.642975 7.08568 4.545424 14.16461 9.097551 21.25029 13.642975"/><path d="m27.9297207 409.11696c-4.8115132 4.659394-9.6230264 9.318789-14.4345396 13.978183 4.8115132-4.659394 9.6230264-9.318789 14.4345396-13.978183"/><path d="m61.4328337 361.765444c-4.730534 4.793478-9.461068 9.586956-14.1983503 14.380434 4.7372823-4.793478 9.4678163-9.586956 14.1983503-14.380434"/><path d="m2861.97038 275.869675c-2.3349-4.813591-4.6698-9.627181-7.0047-14.440771 2.3349 4.81359 4.6698 9.62718 7.0047 14.440771"/><path d="m2666.58245 74.2258302c-4.83175-2.3129368-9.67026-4.6191695-14.50202-6.9321063 4.83176 2.3129368 9.67027 4.6191695 14.50202 6.9321063"/><path d="m2922.72771 349.638281c-2.35514-4.820295-4.71029-9.647293-7.05868-14.467588 2.35514 4.820295 4.70354 9.647293 7.05868 14.467588"/><path d="m378.584435 40.2048759c-2.483362 2.5006534-4.973472 4.9946027-7.456833 7.4952562 2.483361-2.5006535 4.973471-4.9946028 7.456833-7.4952562"/><path d="m2761.05615 161.654172c-2.50361-2.493949-5.00722-4.987898-7.51082-7.475144 2.5036 2.487246 5.00721 4.981195 7.51082 7.475144"/><path d="m196.63568 207.953804c-2.523851 2.507358-5.047703 5.014715-7.571554 7.522073 2.523851-2.507358 5.047703-5.014715 7.571554-7.522073"/><path d="m2855.52646 262.165021c-2.5036-2.480541-5.00046-4.954378-7.50407-7.434919 2.50361 2.480541 5.00721 4.954378 7.50407 7.434919"/><path d="m243.889058 161.028674c-2.530599 2.507357-5.05445 5.014715-7.58505 7.522072 2.5306-2.507357 5.054451-5.014715 7.58505-7.522072"/><path d="m2868.9103 282.511491c-2.5306-2.49395-5.06795-4.994603-7.59855-7.488552 2.5306 2.493949 5.06795 4.994602 7.59855 7.488552"/><path d="m203.409589 201.279138c-2.5306 2.500653-5.061199 5.001307-7.591799 7.50196 2.5306-2.500653 5.061199-5.001307 7.591799-7.50196"/><path d="m210.15178 194.554861c-2.517103 2.514061-5.040954 5.021419-7.558057 7.535481 2.517103-2.514062 5.040954-5.02142 7.558057-7.535481"/><path d="m250.619778 154.302385c-2.523851 2.514062-5.040954 5.028124-7.564805 7.542185 2.523851-2.514061 5.040954-5.028123 7.564805-7.542185"/><path d="m216.894647 187.848685c-2.523851 2.507357-5.047702 5.014715-7.571554 7.522072 2.523852-2.507357 5.047703-5.014715 7.571554-7.522072"/><path d="m2788.05393 188.430606c-2.50361-2.480541-5.00721-4.961082-7.51082-7.441623 2.50361 2.480541 5.00721 4.961082 7.51082 7.441623"/><path d="m223.631441 181.132452c-2.523852 2.514062-5.040955 5.02142-7.564806 7.535481 2.523851-2.514061 5.040954-5.021419 7.564806-7.535481"/><path d="m2781.31174 181.743202c-2.50361-2.487245-5.00721-4.974491-7.51757-7.461736 2.51036 2.487245 5.01396 4.974491 7.51757 7.461736"/><path d="m230.395227 174.450411c-2.5306 2.500654-5.061199 5.008011-7.591799 7.508665 2.5306-2.500654 5.061199-5.008011 7.591799-7.508665"/><path d="m2774.5601 175.04373c-2.51036-2.487245-5.01396-4.97449-7.52432-7.461735 2.51036 2.487245 5.01396 4.97449 7.52432 7.461735"/><path d="m2747.57446 148.206958c-2.49686-2.48054-4.98697-4.967786-7.48383-7.448327 2.49686 2.480541 4.98697 4.967787 7.48383 7.448327"/><path d="m2740.83092 141.486704c-2.49686-2.480541-4.98697-4.961082-7.48383-7.434919 2.49686 2.473837 4.98697 4.954378 7.48383 7.434919"/><path d="m237.135394 167.731497c-2.523851 2.514062-5.040954 5.028124-7.558057 7.535482 2.517103-2.507358 5.040954-5.02142 7.558057-7.535482"/><path d="m2767.81048 168.34694c-2.51035-2.487245-5.02071-4.981195-7.53106-7.46844 2.51035 2.487245 5.02071 4.981195 7.53106 7.46844"/><path d="m2754.31935 154.939951c-2.49686-2.493949-4.99371-4.987898-7.49057-7.475144 2.49686 2.487246 4.99371 4.981195 7.49057 7.475144"/></g><path d="m152.388653 249.544431c5.189417-2.017954 10.385581-4.035907 15.574997-6.053861-5.189416 2.017954-10.38558 4.035907-15.574997 6.053861" fill="#162c4b"/></g><g transform="matrix(-0 -1 1 -0 680.907 3743.5806)"><path d="m1310.71555-0c56.13882 111.550597 109.44337 217.228346 162.54547 323.006657 251.15019 500.284885 502.14517 1000.656923 753.42358 1500.874763 93.79414 186.7177 188.02017 373.22085 282.65784 559.51618 8.59054 16.90791 10.66901 27.29266-5.77651 42.3301-251.03547 229.5573-538.50483 392.43499-875.67516 454.94462-490.49767 90.92858-937.097869-16.04977-1336.190282-313.97615-56.489729-42.16919-107.594343-91.39788-162.639943-135.57832-20.514727-16.45873-21.972352-29.91398-10.331595-52.94279 94.799632-187.50208 188.013421-375.78184 282.097737-563.63924 299.757947-598.54783 599.691353-1197.015207 899.570763-1795.5026963 1.91651-3.8280781 4.07595-7.5421854 10.3181-19.0331237" fill="#c5273e"/><g fill="#fcf8ee"><path d="m2990.47017 502.199955c-11.45855-15.855349-22.9171-31.703995-34.36891-47.559344 11.45855 15.855349 22.91036 31.703995 34.36891 47.559344"/><path d="m280.553059 193.956539c-10.250615 9.010398-20.50123 18.020795-30.745097 27.031193 10.250615-9.010398 20.494482-18.020795 30.745097-27.031193"/><path d="m2956.75449 455.398852c-11.56653-13.589342-23.1398-27.17198-34.70633-40.761322 11.56653 13.589342 23.1398 27.17198 34.70633 40.761322"/><path d="m2652.91722 133.811466c-11.51929-9.164593-23.03858-18.329186-34.55787-27.493779 11.51929 9.164593 23.03858 18.329186 34.55787 27.493779"/><path d="m2848.79102 321.298796c-9.31936-9.124368-18.64546-18.242032-27.96481-27.3664 9.31935 9.124368 18.64545 18.242032 27.96481 27.3664"/><path d="m2821.60158 294.75969c-11.39107-13.743538-22.78889-27.49378-34.17996-41.237317 11.39107 13.743537 22.78889 27.493779 34.17996 41.237317"/><path d="m47.8809672 441.234292c-6.8899789 11.531164-13.7799579 23.062327-20.6699368 34.59349 6.8899789-11.531163 13.7799579-23.062326 20.6699368-34.59349"/><path d="m412.659126 86.3439689c-11.600268 6.7510939-23.200536 13.5021878-34.800805 20.2532821 11.600269-6.7577985 23.200537-13.5021882 34.800805-20.2532821"/><path d="m432.451788 65.8459852c-6.842741 7.0192605-13.69223 14.0452251-20.534971 21.0644856 6.842741-7.0192605 13.69223-14.0452251 20.534971-21.0644856"/><path d="m14.1983503 488.158082c-4.730534 6.979036-9.46781628 13.951367-14.1983503 20.930402 4.73053402-6.979035 9.4678163-13.951366 14.1983503-20.930402"/><path d="m371.618201 112.879723c-1.808536 3.606841-3.617071 7.213682-5.412109 10.80041 1.808535-3.613545 3.610322-7.206977 5.412109-10.80041"/><path d="m2734.05836 200.459579c-7.08568-4.545423-14.16461-9.097551-21.25029-13.642975 7.08568 4.545424 14.16461 9.097552 21.25029 13.642975"/><path d="m27.9297207 474.962945c-4.8115132 4.659395-9.6230264 9.318789-14.4345396 13.978184 4.8115132-4.659395 9.6230264-9.318789 14.4345396-13.978184"/><path d="m61.4328337 427.61143c-4.730534 4.793477-9.461068 9.586955-14.1983503 14.380433 4.7372823-4.793478 9.4678163-9.586956 14.1983503-14.380433"/><path d="m2861.97038 341.71566c-2.3349-4.813591-4.6698-9.627181-7.0047-14.440771 2.3349 4.81359 4.6698 9.62718 7.0047 14.440771"/><path d="m2666.58245 140.071815c-4.83175-2.312936-9.67026-4.619169-14.50202-6.932106 4.83176 2.312937 9.67027 4.61917 14.50202 6.932106"/><path d="m2922.72771 415.484266c-2.35514-4.820294-4.71029-9.647293-7.05868-14.467588 2.35514 4.820295 4.70354 9.647294 7.05868 14.467588"/><path d="m378.584435 106.050861c-2.483362 2.500654-4.973472 4.994603-7.456833 7.495256 2.483361-2.500653 4.973471-4.994602 7.456833-7.495256"/><path d="m2761.05615 227.500157c-2.50361-2.493949-5.00722-4.987898-7.51082-7.475143 2.5036 2.487245 5.00721 4.981194 7.51082 7.475143"/><path d="m196.63568 273.799789c-2.523851 2.507358-5.047703 5.014716-7.571554 7.522073 2.523851-2.507357 5.047703-5.014715 7.571554-7.522073"/><path d="m2855.52646 328.011006c-2.5036-2.480541-5.00046-4.954378-7.50407-7.434918 2.50361 2.48054 5.00721 4.954377 7.50407 7.434918"/><path d="m243.889058 226.874659c-2.530599 2.507357-5.05445 5.014715-7.58505 7.522073 2.5306-2.507358 5.054451-5.014716 7.58505-7.522073"/><path d="m2868.9103 348.357476c-2.5306-2.49395-5.06795-4.994603-7.59855-7.488552 2.5306 2.493949 5.06795 4.994602 7.59855 7.488552"/><path d="m203.409589 267.125123c-2.5306 2.500653-5.061199 5.001307-7.591799 7.50196 2.5306-2.500653 5.061199-5.001307 7.591799-7.50196"/><path d="m210.15178 260.400846c-2.517103 2.514062-5.040954 5.021419-7.558057 7.535481 2.517103-2.514062 5.040954-5.021419 7.558057-7.535481"/><path d="m250.619778 220.14837c-2.523851 2.514062-5.040954 5.028124-7.564805 7.542186 2.523851-2.514062 5.040954-5.028124 7.564805-7.542186"/><path d="m216.894647 253.69467c-2.523851 2.507357-5.047702 5.014715-7.571554 7.522073 2.523852-2.507358 5.047703-5.014716 7.571554-7.522073"/><path d="m2788.05393 254.276591c-2.50361-2.480541-5.00721-4.961082-7.51082-7.441623 2.50361 2.480541 5.00721 4.961082 7.51082 7.441623"/><path d="m223.631441 246.978438c-2.523852 2.514061-5.040955 5.021419-7.564806 7.535481 2.523851-2.514062 5.040954-5.02142 7.564806-7.535481"/><path d="m2781.31174 247.589187c-2.50361-2.487245-5.00721-4.97449-7.51757-7.461735 2.51036 2.487245 5.01396 4.97449 7.51757 7.461735"/><path d="m230.395227 240.296397c-2.5306 2.500653-5.061199 5.008011-7.591799 7.508664 2.5306-2.500653 5.061199-5.008011 7.591799-7.508664"/><path d="m2774.5601 240.889715c-2.51036-2.487245-5.01396-4.97449-7.52432-7.461735 2.51036 2.487245 5.01396 4.97449 7.52432 7.461735"/><path d="m2747.57446 214.052944c-2.49686-2.480541-4.98697-4.967786-7.48383-7.448327 2.49686 2.480541 4.98697 4.967786 7.48383 7.448327"/><path d="m2740.83092 207.332689c-2.49686-2.480541-4.98697-4.961082-7.48383-7.434919 2.49686 2.473837 4.98697 4.954378 7.48383 7.434919"/><path d="m237.135394 233.577483c-2.523851 2.514061-5.040954 5.028123-7.558057 7.535481 2.517103-2.507358 5.040954-5.02142 7.558057-7.535481"/><path d="m2767.81048 234.192925c-2.51035-2.487245-5.02071-4.981194-7.53106-7.46844 2.51035 2.487246 5.02071 4.981195 7.53106 7.46844"/><path d="m2754.31935 220.785936c-2.49686-2.493949-4.99371-4.987898-7.49057-7.475143 2.49686 2.487245 4.99371 4.981194 7.49057 7.475143"/></g><path d="m152.388653 315.390416c5.189417-2.017953 10.385581-4.035907 15.574997-6.053861-5.189416 2.017954-10.38558 4.035908-15.574997 6.053861" fill="#162c4b"/></g><g transform="translate(553.097 835.6414)"><path d="m1501.71173 319.619042c56.13882 111.550597 109.44337 217.228346 162.54547 323.006657 251.15019 500.284881 502.14518 1000.656921 753.42358 1500.874771 93.79415 186.71769 188.02017 373.22085 282.65785 559.51618 8.59054 16.9079 10.66901 27.29265-5.77652 42.33009-251.03547 229.55731-538.50482 392.43499-875.67516 454.94462-490.49766 90.92859-937.097864-16.04977-1336.190277-313.97615-56.48973-42.16919-107.594343-91.39787-162.639944-135.57832-20.514726-16.45872-21.972352-29.91398-10.331594-52.94279 94.799632-187.50208 188.013421-375.78184 282.097737-563.63924 299.757947-598.54783 599.691348-1197.015204 899.570768-1795.502694 1.9165-3.828078 4.07595-7.542185 10.31809-19.033124" fill="#163a5c"/><g fill="#fcf8ee"><path d="m2990.47017 436.35397c-11.45855-15.85535-22.9171-31.703995-34.36891-47.559345 11.45855 15.85535 22.91036 31.703995 34.36891 47.559345"/><path d="m280.553059 128.110554c-10.250615 9.010398-20.50123 18.020795-30.745097 27.031192 10.250615-9.010397 20.494482-18.020794 30.745097-27.031192"/><path d="m2956.75449 389.552866c-11.56653-13.589342-23.1398-27.171979-34.70633-40.761321 11.56653 13.589342 23.1398 27.171979 34.70633 40.761321"/><path d="m2652.91722 67.9654812c-11.51929-9.1645932-23.03858-18.3291864-34.55787-27.4937795 11.51929 9.1645931 23.03858 18.3291863 34.55787 27.4937795"/><path d="m2848.79102 255.452811c-9.31936-9.124368-18.64546-18.242032-27.96481-27.3664 9.31935 9.124368 18.64545 18.242032 27.96481 27.3664"/><path d="m2821.60158 228.913705c-11.39107-13.743538-22.78889-27.49378-34.17996-41.237318 11.39107 13.743538 22.78889 27.49378 34.17996 41.237318"/><path d="m47.8809672 375.388307c-6.8899789 11.531163-13.7799579 23.062327-20.6699368 34.59349 6.8899789-11.531163 13.7799579-23.062327 20.6699368-34.59349"/><path d="m412.659126 20.4979837c-11.600268 6.7510939-23.200536 13.5021877-34.800805 20.2532816 11.600269-6.757798 23.200537-13.5021877 34.800805-20.2532816"/><path d="m432.451788 0c-6.842741 7.01926047-13.69223 14.0452251-20.534971 21.0644856 6.842741-7.0192605 13.69223-14.04522513 20.534971-21.0644856"/><path d="m14.1983503 422.312097c-4.730534 6.979035-9.46781628 13.951367-14.1983503 20.930402 4.73053402-6.979035 9.4678163-13.951367 14.1983503-20.930402"/><path d="m371.618201 47.0337381c-1.808536 3.6068406-3.617071 7.2136812-5.412109 10.8004094 1.808535-3.6135448 3.610322-7.2069771 5.412109-10.8004094"/><path d="m2734.05836 134.613594c-7.08568-4.545424-14.16461-9.097551-21.25029-13.642975 7.08568 4.545424 14.16461 9.097551 21.25029 13.642975"/><path d="m27.9297207 409.11696c-4.8115132 4.659394-9.6230264 9.318789-14.4345396 13.978183 4.8115132-4.659394 9.6230264-9.318789 14.4345396-13.978183"/><path d="m61.4328337 361.765444c-4.730534 4.793478-9.461068 9.586956-14.1983503 14.380434 4.7372823-4.793478 9.4678163-9.586956 14.1983503-14.380434"/><path d="m2861.97038 275.869675c-2.3349-4.813591-4.6698-9.627181-7.0047-14.440771 2.3349 4.81359 4.6698 9.62718 7.0047 14.440771"/><path d="m2666.58245 74.2258302c-4.83175-2.3129368-9.67026-4.6191695-14.50202-6.9321063 4.83176 2.3129368 9.67027 4.6191695 14.50202 6.9321063"/><path d="m2922.72771 349.638281c-2.35514-4.820295-4.71029-9.647293-7.05868-14.467588 2.35514 4.820295 4.70354 9.647293 7.05868 14.467588"/><path d="m378.584435 40.2048759c-2.483362 2.5006534-4.973472 4.9946027-7.456833 7.4952562 2.483361-2.5006535 4.973471-4.9946028 7.456833-7.4952562"/><path d="m2761.05615 161.654172c-2.50361-2.493949-5.00722-4.987898-7.51082-7.475144 2.5036 2.487246 5.00721 4.981195 7.51082 7.475144"/><path d="m196.63568 207.953804c-2.523851 2.507358-5.047703 5.014715-7.571554 7.522073 2.523851-2.507358 5.047703-5.014715 7.571554-7.522073"/><path d="m2855.52646 262.165021c-2.5036-2.480541-5.00046-4.954378-7.50407-7.434919 2.50361 2.480541 5.00721 4.954378 7.50407 7.434919"/><path d="m243.889058 161.028674c-2.530599 2.507357-5.05445 5.014715-7.58505 7.522072 2.5306-2.507357 5.054451-5.014715 7.58505-7.522072"/><path d="m2868.9103 282.511491c-2.5306-2.49395-5.06795-4.994603-7.59855-7.488552 2.5306 2.493949 5.06795 4.994602 7.59855 7.488552"/><path d="m203.409589 201.279138c-2.5306 2.500653-5.061199 5.001307-7.591799 7.50196 2.5306-2.500653 5.061199-5.001307 7.591799-7.50196"/><path d="m210.15178 194.554861c-2.517103 2.514061-5.040954 5.021419-7.558057 7.535481 2.517103-2.514062 5.040954-5.02142 7.558057-7.535481"/><path d="m250.619778 154.302385c-2.523851 2.514062-5.040954 5.028124-7.564805 7.542185 2.523851-2.514061 5.040954-5.028123 7.564805-7.542185"/><path d="m216.894647 187.848685c-2.523851 2.507357-5.047702 5.014715-7.571554 7.522072 2.523852-2.507357 5.047703-5.014715 7.571554-7.522072"/><path d="m2788.05393 188.430606c-2.50361-2.480541-5.00721-4.961082-7.51082-7.441623 2.50361 2.480541 5.00721 4.961082 7.51082 7.441623"/><path d="m223.631441 181.132452c-2.523852 2.514062-5.040955 5.02142-7.564806 7.535481 2.523851-2.514061 5.040954-5.021419 7.564806-7.535481"/><path d="m2781.31174 181.743202c-2.50361-2.487245-5.00721-4.974491-7.51757-7.461736 2.51036 2.487245 5.01396 4.974491 7.51757 7.461736"/><path d="m230.395227 174.450411c-2.5306 2.500654-5.061199 5.008011-7.591799 7.508665 2.5306-2.500654 5.061199-5.008011 7.591799-7.508665"/><path d="m2774.5601 175.04373c-2.51036-2.487245-5.01396-4.97449-7.52432-7.461735 2.51036 2.487245 5.01396 4.97449 7.52432 7.461735"/><path d="m2747.57446 148.206958c-2.49686-2.48054-4.98697-4.967786-7.48383-7.448327 2.49686 2.480541 4.98697 4.967787 7.48383 7.448327"/><path d="m2740.83092 141.486704c-2.49686-2.480541-4.98697-4.961082-7.48383-7.434919 2.49686 2.473837 4.98697 4.954378 7.48383 7.434919"/><path d="m237.135394 167.731497c-2.523851 2.514062-5.040954 5.028124-7.558057 7.535482 2.517103-2.507358 5.040954-5.02142 7.558057-7.535482"/><path d="m2767.81048 168.34694c-2.51035-2.487245-5.02071-4.981195-7.53106-7.46844 2.51035 2.487245 5.02071 4.981195 7.53106 7.46844"/><path d="m2754.31935 154.939951c-2.49686-2.493949-4.99371-4.987898-7.49057-7.475144 2.49686 2.487246 4.99371 4.981195 7.49057 7.475144"/></g><path d="m152.388653 249.544431c5.189417-2.017954 10.385581-4.035907 15.574997-6.053861-5.189416 2.017954-10.38558 4.035907-15.574997 6.053861" fill="#162c4b"/></g></g></svg>