<svg height="111" viewBox="0 0 714 111" width="714" xmlns="http://www.w3.org/2000/svg"><g fill="#23573f" transform="translate(.45 .498)"><path d="m0 5.06h22.99c9.9733333 0 17.545 1.46666667 22.715 4.4 5.17 2.9333333 7.755 7.9933333 7.755 15.18 0 4.5466667-1.2283333 8.36-3.685 11.44s-5.9583333 5.0233333-10.505 5.83v.55c3.08.5866667 5.885 1.5583333 8.415 2.915s4.5283333 3.3 5.995 5.83 2.2 5.8483333 2.2 9.955c0 7.1866667-2.4933333 12.7233333-7.48 16.61s-11.7333333 5.83-20.24 5.83h-28.16zm11.88 32.78h13.09c6.16 0 10.395-.99 12.705-2.97s3.465-4.9133333 3.465-8.8-1.4116667-6.6916667-4.235-8.415-7.2416667-2.585-13.255-2.585h-11.77zm0 9.68v26.18h14.41c6.3066667 0 10.725-1.2466667 13.255-3.74s3.795-5.7933333 3.795-9.9c0-3.74-1.3016667-6.765-3.905-9.075s-7.2416667-3.465-13.915-3.465zm81.1229323-24.31c7.4066667 0 12.9616667 1.6316667 16.6649997 4.895 3.703334 3.2633333 5.555 8.3783333 5.555 15.345v40.15h-8.25l-2.31-8.25h-.44c-2.566666 3.2266667-5.2616663 5.5916667-8.0849997 7.095-2.8233333 1.5033333-6.7283333 2.255-11.715 2.255-5.3533333 0-9.79-1.4483333-13.31-4.345s-5.28-7.425-5.28-13.585c0-6.0866667 2.2916667-10.6883333 6.875-13.805 4.5833334-3.1166667 11.5683334-4.8216667 20.955-5.115l10.1199997-.33v-3.3c0-4.3266667-.99-7.3883333-2.97-9.185-1.9799997-1.7966667-4.7666663-2.695-8.3599997-2.695-3.0066666 0-5.9033333.44-8.69 1.32-2.7866666.88-5.4633333 1.9433333-8.03 3.19l-3.74-8.47c2.7866667-1.4666667 5.995-2.695 9.625-3.685s7.425-1.485 11.385-1.485zm10.6699997 31.9-7.9199997.22c-6.7466666.2933333-11.4216666 1.43-14.025 3.41-2.6033333 1.98-3.905 4.6933333-3.905 8.14 0 3.08.9166667 5.3166667 2.75 6.71 1.8333334 1.3933333 4.2166667 2.09 7.15 2.09 4.5466667 0 8.3416667-1.2833333 11.385-3.85 3.0433337-2.5666667 4.5649997-6.4166667 4.5649997-11.55zm58.682933-31.9c6.893333 0 12.173333 1.7233333 15.84 5.17 3.666666 3.4466667 5.5 8.9833333 5.5 16.61v38.61h-11.55v-36.96c0-9.24-4.07-13.86-12.21-13.86-6.013334 0-10.175 1.7966667-12.485 5.39s-3.465 8.7633333-3.465 15.51v29.92h-11.66v-59.29h9.24l1.65 7.92h.66c1.906666-3.08 4.528333-5.3533333 7.865-6.82 3.336666-1.4666667 6.875-2.2 10.615-2.2zm49.992932-23.21v41.8c0 1.4666667-.073333 3.2266667-.22 5.28s-.256667 3.8866667-.33 5.5h.33c.806667-1.1 1.925-2.5483333 3.355-4.345s2.695-3.2816667 3.795-4.455l18.15-19.47h13.53l-23.87 25.41 25.41 33.88h-13.75l-19.58-26.51-6.82 5.72v20.79h-11.55v-83.6zm55.052932 1.76c1.76 0 3.3.51333333 4.62 1.54s1.98 2.75 1.98 5.17c0 2.3466667-.66 4.0516667-1.98 5.115s-2.86 1.595-4.62 1.595c-1.833333 0-3.41-.5316667-4.73-1.595s-1.98-2.7683333-1.98-5.115c0-2.42.66-4.14333333 1.98-5.17s2.896667-1.54 4.73-1.54zm5.72 22.55v59.29h-11.66v-59.29zm47.462933-1.1c6.893333 0 12.173333 1.7233333 15.84 5.17 3.666666 3.4466667 5.5 8.9833333 5.5 16.61v38.61h-11.55v-36.96c0-9.24-4.07-13.86-12.21-13.86-6.013334 0-10.175 1.7966667-12.485 5.39s-3.465 8.7633333-3.465 15.51v29.92h-11.66v-59.29h9.24l1.65 7.92h.66c1.906666-3.08 4.528333-5.3533333 7.865-6.82 3.336666-1.4666667 6.875-2.2 10.615-2.2zm58.902932 0c3.813333 0 7.26.7333333 10.34 2.2s5.683333 3.7033333 7.81 6.71h.55l1.32-7.81h9.46v60.06c0 17.086667-9.13 25.63-27.39 25.63-4.253333 0-8.176667-.293333-11.77-.88s-6.893333-1.503333-9.9-2.75v-10.23c3.08 1.54 6.508333 2.695 10.285 3.465s7.791667 1.155 12.045 1.155c4.766667 0 8.488333-1.375 11.165-4.125s4.015-6.6183333 4.015-11.605v-1.98c0-.9533333.036667-2.2.11-3.74s.146667-2.7133333.22-3.52h-.44c-2.053333 3.08-4.565 5.335-7.535 6.765s-6.398333 2.145-10.285 2.145c-7.48 0-13.328333-2.695-17.545-8.085s-6.325-12.8883333-6.325-22.495c0-9.5333333 2.108333-17.0683333 6.325-22.605s10.065-8.305 17.545-8.305zm2.42 9.68c-4.62 0-8.158333 1.815-10.615 5.445s-3.685 8.9283333-3.685 15.895c0 6.8933333 1.228333 12.1366667 3.685 15.73s6.068333 5.39 10.835 5.39c5.426667 0 9.405-1.485 11.935-4.455s3.795-7.8283333 3.795-14.575v-2.2c0-7.6266667-1.283333-13.0716667-3.85-16.335s-6.6-4.895-12.1-4.895zm124.515865 21.01c0 9.8266667-2.53 17.4166667-7.59 22.77s-11.88 8.03-20.46 8.03c-5.353334 0-10.101667-1.1916667-14.245-3.575-4.143334-2.3833333-7.406667-5.8666667-9.79-10.45-2.383334-4.5833333-3.575-10.175-3.575-16.775 0-9.8266667 2.493333-17.3983333 7.48-22.715 4.986666-5.3166667 11.806666-7.975 20.46-7.975 5.426666 0 10.211666 1.1916667 14.355 3.575 4.143333 2.3833333 7.406666 5.8483333 9.79 10.395 2.383333 4.5466667 3.575 10.12 3.575 16.72zm-43.67 0c0 6.6733333 1.265 11.88 3.795 15.62s6.545 5.61 12.045 5.61 9.515-1.87 12.045-5.61 3.795-8.9466667 3.795-15.62c0-6.7466667-1.265-11.935-3.795-15.565s-6.581667-5.445-12.155-5.445c-5.5 0-9.496667 1.815-11.99 5.445-2.493334 3.63-3.74 8.8183333-3.74 15.565zm87.612932-30.69c6.893333 0 12.173333 1.7233333 15.84 5.17s5.5 8.9833333 5.5 16.61v38.61h-11.55v-36.96c0-9.24-4.07-13.86-12.21-13.86-6.013333 0-10.175 1.7966667-12.485 5.39s-3.465 8.7633333-3.465 15.51v29.92h-11.66v-59.29h9.24l1.65 7.92h.66c1.906667-3.08 4.528333-5.3533333 7.865-6.82s6.875-2.2 10.615-2.2zm116.485865 60.39-8.36-22.66h-30.36l-8.36 22.66h-12.32l29.81-78.87h12.32l29.7 78.87zm-11.66-33-7.92-22.11c-.293334-.8066667-.696667-2.0166667-1.21-3.63-.513334-1.6133333-1.026667-3.3-1.54-5.06-.513334-1.76-.916667-3.19-1.21-4.29-.586667 2.2733333-1.246667 4.6933333-1.98 7.26-.733334 2.5666667-1.32 4.4733333-1.76 5.72l-7.92 22.11z"/><path d="m713.215 83.6h-30.47v-6.82l9.35-2.75v-59.29l-9.35-2.86v-6.82h30.47v6.82l-9.24 2.86v59.29l9.24 2.75z"/></g></svg>