<svg height="1600" viewBox="0 0 3000 1600" width="3000" xmlns="http://www.w3.org/2000/svg" xmlns:xlink="http://www.w3.org/1999/xlink"><linearGradient id="a" x1="50%" x2="50%" y1="0%" y2="100%"><stop offset="0" stop-color="#fff"/><stop offset="1" stop-color="#fff"/></linearGradient><g fill="none" fill-rule="evenodd"><path d="m0 0h3000v1600h-3000z" fill="url(#a)"/><g transform="translate(145 400)"><g transform="translate(808 4)"><text fill="#000" font-family="SFCompactDisplay-Medium, SF Compact Display" font-size="91" font-weight="400" letter-spacing="-.684"><tspan x="22" y="379">A Fast, Simple And Secure Password Generator </tspan><tspan font-family="SFCompactDisplay-Thin, SF Compact Display" font-size="88" font-weight="300" letter-spacing="-.662" x="22" y="488">A simple and intuitive interface that makes it easy </tspan><tspan font-family="SFCompactDisplay-Thin, SF Compact Display" font-size="88" font-weight="300" letter-spacing="-.662" x="22" y="593">to generate strong and secure passwords. It </tspan><tspan font-family="SFCompactDisplay-Thin, SF Compact Display" font-size="88" font-weight="300" letter-spacing="-.662" x="22" y="698">generates ultra secure passwords which are safe </tspan><tspan font-family="SFCompactDisplay-Thin, SF Compact Display" font-size="88" font-weight="300" letter-spacing="-.662" x="22" y="803">for you to use on any website or service.</tspan></text><text fill="#ff2722" fill-rule="nonzero" font-family="NotoSans-Regular, Noto Sans" font-size="166"><tspan x="0" y="177">Password Generator Pro</tspan></text></g><path d="m672.692762 296.716845h-2.535486c0-163.51923-133.197623-296.716845-296.716862-296.716845-163.51924 0-296.7168632 133.197615-296.7168632 296.716845h-2.5354839c-41.292022 0-74.1880669 33.718781-74.1880669 74.188061v354.907035c0 41.292017 33.7187832 74.188059 74.1880669 74.188059h598.5084041c41.292021 0 74.188066-33.71878 74.188066-74.188059v-354.907035c.823216-41.292018-32.895203-74.188061-74.188066-74.188061zm-236.891315 362.476897c1.679364 5.894214 0 12.644542-3.358727 17.71585-4.214846 5.070965-10.108892 7.573573-16.002934 7.573573h-86.008186c-6.750332 0-11.788087-2.535482-16.002935-7.573573-4.214848-5.070969-5.070968-11.788088-3.358728-17.71585l27.791864-107.0487c-23.609892-12.644541-39.612826-37.077171-39.612826-65.758367 0-41.292021 33.718783-74.188063 74.188066-74.188063s74.188066 33.718784 74.188066 74.188063c0 28.647476-16.002933 53.113826-39.612825 65.758367zm133.197626-362.476897h-391.121027c0-107.90853 87.651977-195.560501 195.560512-195.560501 107.908538 0 195.560515 87.651971 195.560515 195.560501z" fill="#000" fill-rule="nonzero"/></g></g></svg>