<svg width="3021" height="1597" viewBox="0 0 3021 1597" version="1.1" xmlns="http://www.w3.org/2000/svg" xmlns:xlink="http://www.w3.org/1999/xlink"><title>github-staticweaver</title><defs><linearGradient x1="50%" y1="0%" x2="50%" y2="100%" id="linearGradient-1"><stop stop-color="#FFF" offset="0%"/><stop stop-color="#FFF" offset="100%"/></linearGradient><polygon id="path-2" points="9.10845627e-15 0 375.505462 0 375.505462 608.230182 9.10845627e-15 608.230182"/><polygon id="path-4" points="0 0 269.910894 0 269.910894 230.922674 0 230.922674"/><polygon id="path-6" points="0 0 87.1704576 0 87.1704576 308.332515 0 308.332515"/></defs><g id="github-staticweaver" stroke="none" stroke-width="1" fill="none" fill-rule="evenodd"><g><rect id="Rectangle" fill="url(#linearGradient-1)" x="0" y="0" width="3021" height="1597"/><g id="Elements" transform="translate(379, 476)"><g id="Text" transform="translate(663, 0)"><text id="http-handle" font-family="SFCompactRounded-Regular, SF Compact Rounded" font-size="266" font-weight="normal" letter-spacing="-2" fill="#DF3337"><tspan x="0" y="253">StaticWeaver</tspan></text><text id="Weave-Your-Templates" font-family="SFCompactDisplay-Medium, SF Compact Display" font-size="66" font-weight="400" letter-spacing="-.496" fill="#000"><tspan x="29" y="369">Weave Your Templates with Precision</tspan>  <tspan x="29" y="487" font-family="SFCompactDisplay-Thin, SF Compact Display" font-size="54" font-weight="300" letter-spacing="-.406">A powerful Rust templating engine for dynamic content generation </tspan> <tspan x="29" y="551" font-family="SFCompactDisplay-Thin, SF Compact Display" font-size="54" font-weight="300" letter-spacing="-.406">across diverse applications. From web development to report creation, </tspan> <tspan x="29" y="615" font-family="SFCompactDisplay-Thin, SF Compact Display" font-size="54" font-weight="300" letter-spacing="-.406">simplify your template rendering with flexibility and performance.</tspan></text></g><g id="staticweaver"><g id="Fill-1-Clipped" transform="translate(0.1272, 36.7698)"><mask id="mask-3" fill="#fff"><use xlink:href="#path-2"/></mask><path d="M9.10845627e-15,276.308384 C0.404463187,231.340891 9.86706328,188.429471 29.2978424,148.02605 C59.8118322,84.5781777 106.073228,36.4668167 167.38617,3.16534397 C172.748985,0.253040771 178.177984,0.242769745 183.792668,0 C185.899553,0.327739154 188.011955,0.630267605 190.114244,0.986018654 C210.667408,4.45669227 229.142184,13.3775466 246.944079,23.8185132 C277.584923,41.7890765 304.420137,64.89422 330.637624,88.7724919 C344.62102,101.507632 358.267975,114.611596 371.289851,128.373839 C369.909161,129.432689 368.721511,128.300075 367.525587,127.944324 C334.503925,118.111215 300.859022,113.861811 266.451156,115.921619 C262.378026,116.165323 259.209426,117.688236 255.995781,119.923585 C230.369361,137.747553 208.683701,159.624843 190.329344,185.032562 C171.422529,211.204075 156.248725,239.480215 143.666243,269.252188 C135.869296,286.653177 129.53577,304.621873 123.698631,322.77358 C119.426029,336.060555 115.238916,349.375542 113.671621,363.370283 C113.322312,366.492675 113.885803,368.973596 115.743576,371.577768 C127.873794,388.585657 140.670458,405.051981 154.516887,420.641533 C163.730375,431.016205 172.594553,441.750362 182.999368,450.979349 C183.69431,451.989643 184.29457,453.086776 185.09982,453.996229 C195.543243,465.792036 206.94267,476.619568 218.080115,487.72068 C242.335037,511.896812 267.603876,534.892709 294.253403,556.313405 C313.87998,572.088769 334.76131,585.819266 357.737576,596.068819 C363.59494,598.682328 369.580075,601.001713 375.505462,603.456487 C310.698508,614.342843 248.095881,606.615296 187.786742,580.226225 C151.386894,564.298662 119.615391,541.358789 91.239541,513.419726 C89.7099348,511.913619 88.4340373,510.143269 87.0432354,508.498969 C85.7783689,503.619299 82.7559257,499.597724 80.6517979,495.124225 C69.5244641,471.468181 66.0571116,446.137025 65.259216,420.363282 C64.2296734,387.129037 70.2111323,354.747288 78.4511505,322.775448 C79.7573827,317.707162 79.4613891,313.638902 77.1246951,309.054289 C64.2544926,283.806235 54.3506599,257.447042 48.8573145,229.47063 C47.0078146,220.0549 46.4241007,210.494441 45.4874007,200.166456 C40.7827585,203.78746 37.6371381,207.930418 34.2479204,211.818469 C19.9768045,228.187687 8.62701593,246.252556 2.67405321,267.506113 C1.84858061,270.452031 2.07930848,273.7537 9.10845627e-15,276.308384" id="Fill-1" fill="#1E2742" fill-rule="nonzero" mask="url(#mask-3)"/></g><path d="M644.898627,314.04793 C645.93828,354.522073 638.959452,393.624809 624.942045,431.413787 C599.979312,498.707693 558.121049,552.414896 498.898447,592.014376 C496.592087,593.555964 494.275616,595.063004 491.643847,595.978059 C490.990271,594.923879 490.037945,595.518665 489.173864,595.481316 C482.615126,595.199328 475.986526,595.38981 469.512357,594.472888 C448.426956,591.485886 428.619292,584.253214 409.650887,574.619925 C380.394411,559.762416 353.884605,540.634962 328.391475,520.001401 C316.343067,510.249527 304.591574,500.118558 292.704953,490.158462 C287.756713,485.633608 282.760673,481.161977 277.896084,476.547484 C276.66523,475.379388 274.55099,474.752855 274.759656,472.408259 C284.364738,475.699657 294.277762,477.568984 304.299258,478.863133 C336.607592,483.035039 368.426895,479.844484 400.011794,472.476422 C406.1771,471.038478 411.278851,468.360541 416.000958,464.081257 C436.217683,445.759612 452.118602,423.966358 465.945728,400.526005 C477.198077,381.450841 487.201188,361.707125 494.999053,340.876546 C497.617034,334.618689 500.234094,328.360831 502.852075,322.102975 C504.077414,323.587606 503.616877,325.387836 503.61228,327.03587 C503.57735,340.437692 505.376292,353.663975 507.111807,366.904264 C509.935696,388.443543 513.511517,409.910924 513.684333,431.720984 C513.713749,435.494187 515.235083,435.446566 517.901781,434.212175 C551.190941,418.79723 583.231779,401.357025 609.147757,374.411451 C625.066141,357.860158 637.793862,339.221978 643.29548,316.283972 C643.531724,315.299819 643.279855,313.994466 644.898627,314.04793" id="Fill-4" fill="#1E2642" fill-rule="nonzero"/><path d="M502.851706,322.102602 C500.234646,328.360458 497.616665,334.618315 494.999605,340.876173 C492.240063,338.455946 492.818262,334.562292 491.129628,331.720018 C484.697744,320.893421 480.425142,308.975295 474.144931,298.031048 C465.415881,282.818722 456.978227,267.468204 446.68372,253.245633 C442.807307,247.890692 438.928138,242.531084 435.096769,237.157468 C430.92804,231.310452 426.403569,225.803314 421.860711,220.29991 C417.915356,215.521082 413.804539,210.854299 409.452884,206.4583 C404.673783,201.629984 401.480363,195.443091 396.294961,191.011608 C387.53006,183.521228 380.513542,174.289442 372.298344,166.25283 C372.379237,165.497441 372.001432,165.163166 371.297297,165.130486 L371.416798,165.142624 C358.394922,151.381315 344.747966,138.277351 330.764571,125.542211 C304.547083,101.663939 277.71187,78.5587953 247.071025,60.5882319 C229.270049,50.1472653 210.795275,41.2264109 190.242109,37.7557374 C188.1389,37.3999864 186.02742,37.0974579 183.919614,36.7706524 C183.391974,33.4092251 185.603652,32.0058294 188.098454,30.9404437 C202.167338,24.9328262 216.540489,19.7795715 231.028545,14.9083032 C241.012351,11.5515447 251.333516,9.43758043 261.264006,5.83431719 C266.01553,4.10971827 271.166,2.88839971 276.410234,3.11716351 C276.499399,4.04622465 277.093226,4.29366304 277.917778,4.47480663 C304.09482,10.2247146 327.327553,22.6890736 349.121683,37.8743211 C396.186491,70.6650436 437.734971,109.861153 475.748077,152.94718 C496.897824,176.917891 516.947249,201.795254 531.122765,230.922954 C529.196967,238.249932 527.41641,245.618927 525.320555,252.89455 C518.601871,276.220054 510.887655,299.215951 502.851706,322.102602" id="Fill-6" fill="#F5F5F5" fill-rule="nonzero"/><path d="M502.851706,322.102602 C510.887655,299.215951 518.601871,276.220054 525.320555,252.89455 C527.41641,245.618927 529.196967,238.249932 531.121845,230.922021 C532.273646,229.719376 532.29203,228.071343 532.664321,226.600719 C538.208223,204.647798 542.7281,182.482921 544.811085,159.89693 C546.552116,141.027185 547.304049,122.132229 544.186925,103.275556 C543.204263,97.3314325 540.810576,91.6711627 540.838154,85.5412266 C553.735014,96.1633366 564.581982,108.799502 575.027243,121.789551 C613.724259,169.913984 636.001907,225.075938 642.995444,286.678762 C644.025905,295.76115 644.283291,304.934112 644.899178,314.05852 C643.280406,313.994093 643.531357,315.299446 643.296033,316.283597 C637.794415,339.221603 625.066692,357.859783 609.14739,374.412012 C583.23141,401.357586 551.191492,418.79779 517.901414,434.211802 C515.235634,435.447127 513.714301,435.494746 513.683966,431.721545 C513.51207,409.911484 509.935327,388.44317 507.112358,366.903891 C505.376843,353.663601 503.576983,340.438253 503.611913,327.03643 C503.61651,325.387463 504.077046,323.587231 502.851706,322.102602" id="Fill-8" fill="#DF3337" fill-rule="nonzero"/><g id="Fill-10-Clipped" transform="translate(276.4101, 0)"><mask id="mask-5" fill="#fff"><use xlink:href="#path-4"/></mask><path d="M264.42792,85.5409465 C264.400342,91.6708825 266.794029,97.3311524 267.776692,103.275276 C270.893815,122.131949 270.141881,141.026905 268.400851,159.897585 C266.317866,182.482641 261.797989,204.648451 256.254087,226.600439 C255.882716,228.071064 255.863411,229.719096 254.711611,230.922674 C240.537015,201.794974 220.487591,176.91761 199.337843,152.9469 C161.324739,109.861806 119.777177,70.6656973 72.7114502,37.8740409 C50.917319,22.6897271 27.684586,10.2253683 1.5075446,4.47452651 C0.682991244,4.29338292 0.089165748,4.04594453 0,3.1168834 C23.1509213,0.301688094 46.3404503,-0.874811436 69.6559147,0.713462929 C125.851478,4.54175505 177.47477,22.0893389 224.534981,53.506545 C236.963031,61.8036679 248.748537,70.9616896 259.92459,80.9245864 C261.524058,82.349458 262.931407,83.9965575 264.42792,85.5409465" id="Fill-10" fill="#1E2742" fill-rule="nonzero" mask="url(#mask-5)"/></g><path d="M292.705504,490.159396 C304.591207,500.118558 316.3427,510.249527 328.391106,520.001401 C353.884238,540.634962 380.394042,559.762416 409.650519,574.619925 C428.619843,584.253214 448.426588,591.485886 469.51199,594.472888 C475.987077,595.38981 482.614759,595.199328 489.174417,595.481316 C490.037577,595.518665 490.989904,594.923879 491.64348,595.978059 C486.893795,599.989362 481.264404,602.513235 475.890559,605.425537 C444.327722,622.527733 410.907113,634.167608 375.625972,640.22658 C369.707022,637.771805 363.722805,635.451487 357.864523,632.838911 C334.889176,622.588425 314.007844,608.857928 294.381268,593.082563 C267.730821,571.661868 242.461984,548.666905 218.207981,524.48984 C207.070535,513.388726 195.67019,502.562129 185.226766,490.765387 C184.421516,489.855934 183.821257,488.758801 183.124477,487.747573 C199.474901,490.912917 215.863934,493.708504 232.551716,494.380789 C252.764764,495.195002 272.849119,494.432145 292.705504,490.159396" id="Fill-13" fill="#DF3337" fill-rule="nonzero"/><g id="Fill-15-Clipped" transform="translate(0, 236.9363)"><mask id="mask-7" fill="#fff"><use xlink:href="#path-6"/></mask><path d="M0.127222057,76.1419291 C2.20653052,73.5872444 1.97580267,70.2855759 2.80127527,67.3396585 C8.75423798,46.086101 20.1040265,28.0212309 34.3751424,11.652014 C37.76436,7.76396317 40.9099806,3.62100411 45.6146228,0 C46.5513228,10.3279852 47.1350366,19.8884444 48.9845365,29.3041756 C54.4778821,57.2805873 64.3817146,83.6397793 77.2519171,108.887833 C79.5886113,113.472446 79.8846047,117.540707 78.5783725,122.608992 C70.3383543,154.580833 64.3568954,186.962583 65.386438,220.196827 C66.1843336,245.97057 69.6516861,271.301726 80.7790199,294.95777 C82.8831478,299.431268 85.9055909,303.452843 87.1704576,308.332515 C72.6778061,294.084732 60.9253929,277.64922 50.2981226,260.362148 C26.0790509,220.964353 10.1349282,178.397479 3.29766189,132.399149 C0.524331368,113.74883 -0.36089147,94.9845961 0.127222057,76.1419291" id="Fill-15" fill="#DF3337" fill-rule="nonzero" mask="url(#mask-7)"/></g><path d="M372.29816,166.253203 C380.513359,174.288881 387.529876,183.521601 396.294777,191.011981 C401.480178,195.443464 404.674519,201.630357 409.4527,206.458673 C413.804355,210.854674 417.915172,215.521455 421.860528,220.300283 C426.404304,225.803687 430.927856,231.309891 435.097504,237.157842 C438.927955,242.530523 442.807125,247.890131 446.683535,253.245072 C456.978044,267.468578 465.415697,282.819095 474.144749,298.031421 C480.424959,308.975668 484.697559,320.892862 491.129444,331.719458 C492.818078,334.562665 492.23988,338.456319 494.999422,340.876546 C487.201555,361.707125 477.198446,381.450841 465.946095,400.526005 C452.11897,423.966358 436.218051,445.759612 416.001327,464.081257 C411.279218,468.360541 406.176548,471.038478 400.012161,472.476422 C368.427264,479.844484 336.607961,483.035039 304.299624,478.863133 C294.277211,477.568984 284.365106,475.699657 274.760023,472.408259 C273.62477,470.932033 271.743095,470.63324 270.383549,469.330687 C265.060261,464.23439 259.534743,459.351916 253.997273,454.491852 C241.045259,443.126494 228.77256,431.039361 216.896968,418.532985 C211.820955,413.187382 206.581319,407.959428 201.934589,402.244069 C193.212891,391.51458 184.659415,380.651568 177.108822,368.982747 C170.322114,358.49416 164.190819,347.641418 158.845471,336.377836 C154.57103,327.369211 151.129416,317.946944 147.492925,308.636723 C146.732718,306.690831 145.690306,305.928908 143.793925,306.02228 C156.376407,276.250307 171.549293,247.973233 190.456107,221.801721 C208.810463,196.394933 230.496124,174.516711 256.123463,156.693677 C259.336188,154.458328 262.505708,152.935415 266.578836,152.691711 C300.986704,150.63097 334.630688,154.880374 367.653267,164.714415 C368.848273,165.070167 370.036843,166.202781 371.416614,165.142999 C371.416614,165.142065 371.297114,165.129925 371.297114,165.129925 C370.828303,166.242931 371.847735,165.986157 372.29816,166.253203" id="Fill-18" fill="#FEFEFE" fill-rule="nonzero"/><path d="M143.793741,306.022001 C145.690122,305.929561 146.732534,306.690551 147.492741,308.637377 C151.129232,317.946664 154.570846,327.368931 158.845287,336.377556 C164.190636,347.641138 170.32193,358.49388 177.108638,368.982466 C184.659231,380.651288 193.212707,391.515234 201.934404,402.243788 C206.582055,407.959148 211.820773,413.187101 216.896786,418.532704 C228.772375,431.040015 241.045075,443.126214 253.997091,454.492506 C259.534559,459.351636 265.060996,464.23411 270.383364,469.330406 C271.743831,470.63296 273.624585,470.932686 274.75984,472.407979 C274.550255,474.753508 276.665414,475.379108 277.896268,476.547204 C282.760858,481.161697 287.756897,485.633328 292.705137,490.159116 C272.848751,494.431864 252.765315,495.194722 232.55135,494.380509 C215.864485,493.708224 199.474533,490.913571 183.125028,487.747293 C172.722051,478.520174 163.857872,467.786017 154.643466,457.411345 C140.797956,441.821793 128.001292,425.355469 115.871073,408.34758 C114.0133,405.743408 113.44981,403.262488 113.799119,400.140095 C115.365494,386.145354 119.552608,372.830367 123.826129,359.543392 C129.663268,341.391684 135.996794,323.422989 143.793741,306.022001" id="Fill-20" fill="#F5F5F5" fill-rule="nonzero"/><path d="M372.29816,166.253203 C371.847735,165.986157 370.828303,166.242931 371.297114,165.129925 C372.001247,165.163541 372.379053,165.496881 372.29816,166.253203" id="Fill-22" fill="#1E2742" fill-rule="nonzero"/></g></g></g></g></svg>