<svg height="249" viewBox="0 0 1386 249" width="1386" xmlns="http://www.w3.org/2000/svg" xmlns:xlink="http://www.w3.org/1999/xlink"><mask id="a" fill="#fff"><path d="m0 0h247.74v247.74h-247.74z" fill="#fff" fill-rule="evenodd"/></mask><mask id="b" fill="#fff"><path d="m0 0h175.884v92.05h-175.884z" fill="#fff" fill-rule="evenodd"/></mask><mask id="c" fill="#fff"><path d="m0 0h89.565v23.375h-89.565z" fill="#fff" fill-rule="evenodd"/></mask><mask id="d" fill="#fff"><path d="m0 0h6.13v6.351h-6.13z" fill="#fff" fill-rule="evenodd"/></mask><g fill="none" fill-rule="evenodd"><text fill="#ec451a" font-family="NotoSans-Medium, Noto Sans" font-size="110" font-weight="400" letter-spacing="-.827" transform="translate(246 .78)"><tspan x="0" y="118">Banking On Quantum</tspan></text><g mask="url(#a)"><g fill-rule="nonzero" transform="translate(23.765 32.867)"><path d="m73.7300353 93.7447912c-.4537772-.1054546-.9028472-.2468315-1.3624875-.3073627-.5919333-.0780381-.8001176.1549201-.6039901.7055635.0982703.2759824.1478183.5773993.297701.8314154.3008388.5099316.4565022 1.0749439.6530426 1.6248441.1845663.5164554.694663.6221577 1.036957.1978617.2983616-.3698758.4351966-.816964.5267779-1.2768519.0308022-.154755.0486395-.3120699.0745697-.482515.1649949.1021515.1929069.2525296.212148.37673.1764735 1.1425769.7162989 2.145098 1.2083106 3.1645481.628599 1.3025343 1.2363877 2.6168776 2.039313 3.8269226 2.6234015 3.953187 5.7554132 7.436577 9.6502989 10.169314 1.8914949 1.327061 3.7080897 2.755282 5.6254321 4.045677 4.4239759 2.977422 9.1739775 5.219055 14.3889045 6.41597 3.815774.875844 7.661855 1.177757 11.557566.604485 1.099718-.161773 2.131968-.533053 3.179-.868328.275652-.088278.543624-.230399.87543-.186466-.04261.420498-.376564.423801-.5992.515051-3.011114 1.23449-6.103983 2.211906-9.30049 2.831256-3.358281.65073-6.753805 1.008137-10.174434.980556-7.970291-.06433-15.5424641-1.808256-22.6334437-5.507592-.5854096-.305381-1.1880784-.581775-1.7525127-.921757-.4332973-.261036-.8009435-.296297-1.1876656.055659-.1199886.10917-.2678894.201412-.4190935.259466-.3314761.127421-.6408207.112722-.8874873-.199348-.2388213-.302078-.4930026-.592099-.742229-.885918-.4100922-.483589-.4106703-.483093.1262649-.952478-9.8776415-7.050433-16.4706637-16.36108-19.4010975-28.1843889-2.9218456-11.7888732-1.4026212-23.0707875 3.809498-33.9625941-.2156989.207441-.464017.4080277-.6669161.6471795-1.655729 1.9518608-3.2122795 3.9828333-4.7995496 5.9896926-.5277687.6673289-.9255567 1.3445674-1.1222622 2.154925-.0644949.2657425-.177547.5471751-.0552461.8091188.2057069.440647-.0563194.6074585-.3870523.7403298-.6212495.2497219-1.0380306.6655122-1.2539774 1.3188026-.7501567 2.2701241-1.5775257 4.5150615-2.1474928 6.8423311-.511418 2.0883655-.8962409 4.1965503-1.0539686 6.3428872-.1381563 1.8791904.085718 3.7393875.3273472 5.5950426 1.4206236 10.9105523 5.8302305 20.5081648 12.7684369 28.9892958 5.4869455 6.707066 12.2059021 11.867738 19.8823737 15.825467 1.7374833.895828 3.5197248 1.688018 5.3328513 2.419676.6623741.267312 1.1949326.338082 1.6739791-.274992.0785336-.100499.2156165-.15525.3970446-.280441.8534643 1.192538 1.9821678 2.042947 3.3364799 2.693182-.4982878.49168-1.0020258.846609-1.1420814 1.484953-.05409.246254-.3011694.174161-.4919292.155746-.6057243-.058467-1.1939415-.208845-1.7733229-.378712-9.251685-2.713579-18.0379494-6.407217-25.7472878-12.334974-6.4589122-4.966362-11.6294937-11.054655-15.6368534-18.136138-3.8062773-6.726058-6.3059739-13.901682-7.4643235-21.5542054-.7452846-4.9239977-.9420728-9.8614559-.575913-14.8179075.4052201-5.4859545 1.5407776-10.8279721 3.308898-16.0405869 1.8330283-5.4038701 4.4359498-10.4091264 7.7089256-15.0701894 1.4769433-2.1033951 3.1287085-4.0673127 4.844308-5.9844074 1.4704195-1.6431768 3.0470369-3.1813119 4.7119321-4.6015228 6.4099423-5.4677043 13.5066197-9.7808577 21.526459-12.50063 5.4509406-1.8486359 11.0354132-2.9706504 16.7790998-3.3729801 11.0222005-.7720405 21.5381855 1.157689 31.5528275 5.8090075 4.7154 2.1901042 9.116088 4.8841941 13.021132 8.344296.201578.1786206.461457.3076106.556258.5891258l.002642-.0071019c-.715885-.0854703-1.371571-.3678939-2.029899-.634297-3.339287-1.3510087-6.6282-2.8249792-10.024799-4.0364278-5.474145-1.9525215-11.107009-3.1548863-16.897354-3.5971848-7.876645-.6015952-15.5207455.5241353-22.976233 3.1086415-4.2361889 1.4685202-8.2117552 3.4354106-11.9661724 5.8738329-.6186068.4017517-1.2155776.8253871-1.7625875 1.3644693.2948933-.1200713.5906122-.2380781.8845145-.3605443 8.4021845-3.498832 17.1360931-5.3660484 26.2553204-5.2854503 6.558008.0578885 12.982732 1.0742833 19.312241 2.764448 3.989853 1.0653647 7.917027 2.314222 11.764925 3.8146181.615716.24006 1.179242.5766561 1.775305.8395082-2.144108-.674596-4.231317-1.5488705-6.491697-1.8333586-6.007116-.756185-11.969228-.4745046-17.895499.731246-4.139157.8421507-8.158656 2.0541774-11.98434 3.8657349-.231471.1095011-.550065.1293203-.636856.5647646 10.523251-1.043068 20.648303.2461709 30.225683 4.9692515-.133036-.0170115-.268137-.0246088-.398861-.0525208-2.099761-.4492353-4.233629-.6966449-6.345778-1.0725491-.161031-.0287379-.328338-.0225444-.492671-.032454-.996493-.7961537-2.033038-.8003653-3.102284-.1565716-2.285897-.0243612-4.567252.0694498-6.837211.3400644-5.285202.6302505-10.338025 2.0950546-15.2085933 4.231234-2.1979493.9639564-4.2702118 2.1370879-6.3070474 3.4009748-1.2878352.7990441-2.5359493 1.662418-3.6627534 2.6427252-1.2932853 1.125235-2.6525522 2.2039775-3.708833 3.5981757-.6411511.8462799-1.4798336 1.5414383-2.1365097 2.3775608-1.1051682 1.4072457-2.2219801 2.8102799-3.1864319 4.3222372-1.3643042 2.138822-2.6106841 4.3427995-3.7077595 6.6329907-1.1239963 2.3464282-2.0299815 4.7784091-2.7387657 7.27216-1.0557026 3.7144484-1.2733836 7.5104032-.8040814 11.3441797.3147949 2.5719542.8288554 5.1051782 1.4790905 7.611729.0758909.2926634.1707753.5807026.1681328.8877349-.0573106.0790291-.1147036.1580581-.1720967.2370872" fill="#d33e35"/><g fill="#095c86" transform="translate(.018)"><path d="m196.128892 89.9069992c-.225279.3714448-.214048.5976315-.196623.8109356.225278 2.758172-.035345 5.5013145-.277883 8.2416492-.347084 3.922467-.876091 7.823216-1.768203 11.660791-.241877 1.040426-.260374 2.15187-.817376 3.112854-.254924 1.853095-.963544 3.585375-1.522858 5.346394-3.0145 9.49158-7.637741 18.162315-13.653446 26.085535-9.724291 12.807993-21.969336 22.433188-36.717794 28.842222-8.119761 3.528478-16.581899 5.88176-25.359079 7.065627-7.09098.956359-14.211192 1.157276-21.3346258.501673-14.8771174-1.369341-28.5821768-6.185489-41.1685249-14.212265-3.407581-2.173093-6.6636279-4.557921-9.7842435-7.125581-3.6812513-3.028869-7.0678571-6.368817-10.3326573-9.836103-.7735269-.821424-1.5507699-1.639461-2.3300773-2.455434-.1460015-.152856-.2588058-.387796-.5285946-.327513-1.0778342.240804-2.1927468.159875-3.272728.391595-.7532122.161526-1.5058463.318181-2.2438638.543954-.7130783.218094-.7170421.206863-1.1001307-.413395-.5926767-.959662-1.1727186-1.927583-1.8383134-2.839926-.4543552-.622736-.9127567-1.243738-1.4634002-1.785793-.2206537-.217103-.2256911-.397375-.0441803-.639417 1.0804767-1.441021 1.8271651-3.069333 2.5861579-4.687571.1776296-.378712.3945672-.523805.8143214-.514721 1.4897432.032041 2.9699071-.092903 4.4270312-.415708.3148775-.06978.5074541-.010075.680294.275817.9434765 1.561175 2.0817592 2.975027 3.3385443 4.292096.2503825.262439.2830842.474422.1351834.798466-.3993569.8751-.7513128 1.771754-1.1457149 2.649166-.2578973.573766-.1656555.966186.3205756 1.434085 4.1508837 3.993899 8.4926098 7.754344 13.1895949 11.099825.6981314.497214 1.3800771 1.021928 2.0815941 1.517821.2489787.17606.4980401.334861.8493354.325778.2064499-.667247.3313935-1.369425.6461884-2.01776.2341969-.482432.5152992-.71952 1.0813026-.653786.6542813.075974 1.3186374.090673 1.9782864.085223.3628566-.002891.5585712.092572.6270299.469549.1343577.739835.4213233 1.4269.8638694 2.034441.2235441.306868.1222185.463687-.1382389.666916-.669889.522814-1.4180638.929934-2.1245356 1.420211.1497176.263183.3954756.332633.5968056.450557 10.0688969 5.89712 20.8352644 9.90258 32.331061 11.942472 7.6513673 1.357697 15.3571549 1.706598 23.1078657 1.33986 8.572795-.405715 16.925019-1.987453 25.072857-4.667339 15.425283-5.07355 28.705634-13.538661 39.782998-25.395001 7.103449-7.603058 12.719632-16.22631 16.90264-25.759675 1.507332-3.435328 2.889473-6.925324 3.989192-10.519454 1.66952-5.456638 2.970485-10.9898286 3.538304-16.6808294.075148-.7542031.179281-1.504525.222059-2.4582414" mask="url(#b)"/><path d="m28.6116247 72.2779715c-.1300635.1574802-.2510431.2947281-.1057024.4843317.0457493.0597054.0791117.0527687.1250261-.0058631.1048767-.13411.1251913-.2678069-.0193237-.4784686m6.2077038-4.0400613c-.758745 2.9767613-1.0635478 6.0208253-1.1362183 9.0734775-.3571584 14.9965281 4.3668305 28.2797683 13.6670726 39.9777213 4.1583985 5.230452 9.0851213 9.645014 14.5588541 13.461283 4.0170215 2.800701 8.2664231 5.187345 12.7383778 7.181157.2108268.093976.4911033.106363.6009348.37706-.1393952.068294-.2699541.027417-.396384-.01057-9.178767-2.75908-17.5581597-6.994773-24.768715-13.395384-7.9006763-7.013189-13.5406426-15.554687-17.243282-25.4179592-3.0252357-8.0588997-4.4631187-16.3775959-4.1784654-24.9875518.014534-.4385825-.0002478-.8784036-.010818-1.3173989-.0009909-.0408771-.0706885-.0801851-.1085101-.1202364-.2904339.0465752-.2845708.2920855-.3273472.4981226-.9443022 4.5499102-1.3666989 9.1438356-1.0783296 13.7871438.4607964 7.4174182 2.1054597 14.5671949 4.8079727 21.4929319.8533818 2.187048 1.9674686 4.242465 2.8856755 6.392435.0417856.097857.0903426.192741.1102443.301169-2.6109318-4.492022-4.917639-9.128145-6.7286184-14.006476-1.1406774-3.072637-2.0788688-6.2096034-2.7952504-9.3982649-1.3907297-6.190362-1.7378135-12.4691672-1.2410948-18.7931435.5250437-6.6840252 2.0421209-13.1368264 4.457173-19.3913531 2.0347711-5.2695949 4.6533004-10.2294323 7.8994376-14.8389654 8.3089519-11.7986175 19.2320562-20.3264062 32.5337948-25.8735526 5.5606069-2.3188464 11.3140381-3.94253438 17.2109933-5.10377433.2418769-.04764867.494489-.04129001.7360355-.09025995.2298203-.0466577.4818543.05532861.688387-.11098752-1.976222.5342926-3.9629317 1.04538022-5.8822561 1.77398356-9.0289668 3.42756544-17.1371667 8.36353724-24.2678671 14.88289794-2.7481799 2.5125791-5.2182302 5.2880929-7.5156884 8.2154712-.8111008 1.0335713-1.6811637 2.0249443-2.3626138 3.1548038.0010736-.0008258-.0011561.0210579-.0011561.0210579s.0138735-.0284075.0138735-.0284901c.1747392-.1319628.3614526-.2507955.5223184-.397953 3.5751359-3.2693422 7.3569697-6.2666658 11.4464138-8.8780932 3.4878489-2.2272652 7.1706692-4.0731759 10.9250863-5.7900141.1198235-.0548332.2590534-.0668898.460879-.1165205-.2775514.3088493-.5805374.4323063-.8570153.5880523-3.8476499 2.1671469-7.4398799 4.6908743-10.8292108 7.5264237-1.6653083 1.3933724-3.2593501 2.8501662-4.742652 4.42571-1.3273084 1.4098883-2.6418993 2.839761-3.8559906 4.3463505-1.8408733 2.2845757-3.5833938 4.6447947-5.2046044 7.0972556-2.0076025 3.036962-3.7631706 6.2096857-5.4056868 9.4526848-1.9959587 3.9407177-3.5321118 8.0592299-4.8116063 12.2787376-.0626782.2067804-.2758998.440234-.0440152.680294 0 .0000827.011396-.0027251.011396-.0027251-.1967055-.0729181-.1756476.1174288-.2429503.2009998-.0795245.29415-.1590491.5882998-.2385736.8824498"/><path d="m144.395531 138.791479c.110658-.067302.307858-.155415.229408-.269954-.137084-.200173-.258641.013048-.373592.099592-.084149.051529-.215203.09571-.114456.22214.096122.12065.179115.004376.25864-.051778m-5.116739-5.980525c-2.272437.835048-4.557672 1.62509-6.921938 2.171935-2.227183.515052-4.473854.917052-6.733656 1.251914-.156158.023122-.321319.087782-.470788-.034354.040381-.26533.2721-.247079.435361-.290104 6.488394-1.70701 12.214574-4.903104 17.569474-8.870495 1.867629-1.383711 3.356547-3.036549 4.641161-4.961985 5.351596-8.021656 8.804597-16.77497 10.322582-26.2928935.229737-1.4408559.356829-2.8953374.397128-4.3555996.022461-.8139085.020727-1.6288079.211073-2.4493227-.257071.0210579-.249225.1438543-.234196.2350226.439656 2.6768307.341138 5.3786831.36905 8.0735162.038482 3.725101-.332715 7.417171-.951817 11.086943-.05855.120237-.130394.273257-.005533.355012.079276.051942.156902-.094059.207028-.182667 1.558533-1.998024 2.963879-4.099354 4.215214-6.302011 2.36988-4.1716108 4.384584-8.504253 5.826679-13.0875257 1.15802-3.6803428 1.957228-7.4279884 1.958715-11.3109825.000166-.2701192.066725-.5463493-.080433-.8636217-.202239.2906816-.021305.552295.012965.7727011.640986 4.1147962.921676 8.2547793.896406 12.4160681-.056071 9.2135332-1.732693 18.0989757-5.403457 26.5789507-4.272524 9.869961-10.726151 18.084443-19.01677 24.867894-8.663798 7.088832-18.491314 11.830576-29.409876 14.311032-6.537528 1.485201-13.156398 1.957806-19.8435611 1.655398-10.9960225-.49738-21.2584043-3.572328-30.9250538-8.759261-3.1225976-1.675465-6.1254542-3.540287-8.9850344-5.633442.292168-.446428.7057287-.781042 1.0710626-1.160084 1.4899083.884515 2.9662736 1.792812 4.4718722 2.649662 7.7432788 4.406965 15.9846803 7.448634 24.7716051 8.975785 13.4891124 2.344281 26.5854744 1.037618 39.2352444-4.28235 5.967644-2.50969 11.490676-5.784317 16.561089-9.814304.178455-.141872.569142-.287461.405467-.522235-.203311-.291507-.483671.045584-.696149.166894-3.761436 2.148402-7.685803 3.928496-11.80382 5.28066-3.490243 1.146046-7.062572 1.897771-10.713846 2.283751-.427187.045171-.853795.09571-1.412614.158553.352204-.350139.698296-.444859 1.011522-.58318 7.210803-3.183955 13.527679-7.659626 19.102902-13.208175.038317-.038152.063999-.088939.095627-.133862.077378-.074158.27177-.11586.148562-.259715-.090012-.104959-.224949.003964-.329247.066478"/><path d="m38.7997505 140.862511c.9991354.686488 1.8578023 1.542099 2.7722106 2.328509 5.3842987 4.630839 11.2209704 8.594513 17.4913525 11.921165 7.8248679 4.15138 16.1200288 6.938868 24.8275118 8.521762 6.4663442 1.175608 12.9806675 1.708579 19.5529616 1.43714 13.569216-.560307 26.324357-4.041548 38.155924-10.747127 6.647855-3.767796 12.608315-8.446035 17.946204-13.915144.191006-.195797.373757-.399686.593171-.635123-.545276-.628597-1.232506-1.022174-1.918664-1.393784-.336843-.182502-.494736-.325035-.43148-.741238.08225-.541642.109254-1.092451.209671-1.634836.111483-.602587.078286-1.209716-.060696-1.803548-.075231-.321483.03171-.460383.339486-.51084 1.305011-.214047 2.450066-.802512 3.523523-1.542594.274084-.188943.46443-.186135.715638.046492.648667.600605 1.419634 1.038279 2.147081 1.532933.525704.357489.536852.348901.955616-.186383 2.173918-2.779229 4.094812-5.72907 5.869538-8.774291 2.220164-3.80958 4.129579-7.771768 5.675641-11.901594 1.021184-2.727865 1.892321-5.504618 2.656599-8.318944 1.415998-5.2140186 2.306789-10.5143332 2.738765-15.8923558.255833-3.1851105.244272-6.3794701.104464-9.5711045-.033279-.7609748.090921-1.5267391-.032371-2.3328851-.269212.135679-.241712.3300723-.201908.4963885.631323 2.6391742.730749 5.3362369.846032 8.0273539.185144 4.3207509.157562 8.6392719-.299519 12.9469751-.299351 2.8209329-.694249 5.6302219-1.368763 8.3842649-.366242 1.495441-.768901 2.985184-1.159588 4.476331-2.255342 8.607727-6.160385 16.436393-11.262178 23.686422-4.809624 6.834816-10.677264 12.636391-17.370208 17.623563-9.501159 7.079583-20.087172 11.772852-31.62335 14.350421-8.268405 1.84748-16.644742 2.540492-25.09953 1.950705-12.4435674-.867997-24.1596048-4.264348-35.1208611-10.258169-7.9622811-4.354031-15.1202329-9.758067-21.5029237-16.199389-.1910901-.192825-.4254522-.35435-.5224836-.627195.3105833-.217928.6274428-.42859.8531339-.743881"/></g><path d="m17.1506786 105.864959c-.8737789-2.05426-1.5026257-4.1911-2.1253614-6.329427-1.4264869-4.8988108-2.4224017-9.8868079-2.9238275-14.9623398-.6273603-6.349246-.594989-12.6934544.4019168-19.0128063.0214709-.1358441.0338579-.2733398.058797-.4085232.045006-.2446021-.0478139-.3556722-.3010041-.3569109-.2358485-.0012387-.528512.0696149-.5690588-.3001782-.0367481-.3346142.174987-.6516389.5826845-.6454454.5590665.0085058.5232268-.3504695.5859877-.6944977 1.4377177-7.8841604 4.1085202-15.3334544 7.858643-22.4093217 1.9914994-3.7575552 4.3146399-7.3031274 6.8838689-10.6778417 2.4935031-3.2751228 5.2776877-6.3025056 8.2613858-9.1483776 2.5543645-2.4362752 5.2780181-4.6670088 8.124881-6.7372893 2.5063856-1.8226232 5.129787-3.4767006 7.8585606-4.96520511 2.5617967-1.39733618 5.1504319-2.73281994 7.8357684-3.87184588 4.2919303-1.82055868 8.7286235-3.21599552 13.2444282-4.38185996-.4302419.16111358-.859245.32594326-1.2910558.48276268-2.2253658.80812788-4.3797955 1.77893836-6.5347206 2.75759394-1.2376264.56220464-2.4119966 1.23077232-3.607755 1.86168352-1.4829716.78236292-2.8989708 1.68570554-4.3263662 2.56840316-1.629386 1.00772374-3.1972499 2.10116555-4.7605719 3.20352595-1.346632.94967-2.6448722 1.9625137-3.9374969 2.985845-1.3022866 1.0310113-2.5938378 2.0826676-3.8081767 3.2036911-.9822066.906811-2.06706 1.7123789-2.9344803 2.7521437-.4183503.5014257-.8962408.964204-1.4191373 1.3742964-.5430461.4257824-.9132523 1.0201107-1.3877569 1.5150952-2.5310771 2.6403304-4.8328294 5.4770359-6.9997286 8.4152323-1.3766085 1.8667209-2.640578 3.8196553-3.8642485 5.7957122-2.6052338 4.2072033-4.8404267 8.6021934-6.7087165 13.1809241-3.2567076 7.9813571-5.2519229 16.2651219-5.8853941 24.8700406-.5005999 6.8002977-.3870525 13.5833365.5601401 20.3428397.3361006 2.3984536.8000351 4.7733722 1.3867659 7.1235162.1794464.718528.4948194 1.426156.1336145 2.176643-.1309718.097115-.2617785.194559-.3925853.291921" fill="#d33e35"/><path d="m66.7339948 9.85515501c17.2422911-9.6639245 35.4819012-12.29921747 54.6485542-7.55780418 13.750478 3.40155277 25.244458 10.70724017 34.916062 21.00909527-.213634.1483962-.311657.0208927-.406459-.060779-3.224583-2.7773305-6.789067-5.0646313-10.43167-7.2390453-7.467132-4.4573381-15.397207-7.83213495-23.822927-9.97962785-10.207135-2.6016829-20.551684-3.38222907-31.0409131-2.16607341-7.9472514.92142765-15.6346237 2.84133006-23.092919 5.71337988-.2548418.09810504-.5130695.18745661-.7697281.28085459" fill="#d33e35" mask="url(#c)" transform="translate(.018)"/><path d="m47.1699454 173.30669c-2.7149-1.426817-5.6444255-3.201792-8.4749376-5.139118-4.7822904-3.27314-9.2189009-6.96075-13.3127218-11.065638-4.3902005-4.402091-8.1853296-9.268531-11.5339485-14.500304-5.1537353-8.052128-8.90460147-16.733186-11.69679644-25.850431-.6519691-2.128912-1.2775126-4.265669-1.71345242-6.452305-.05276862-.264669-.09810504-.530825-.16136132-.793346 5.56258881 20.204187 20.51658808 47.254175 46.89321808 63.801142" fill="#095c86"/><path d="m182.681355 56.0511254c-.038069.1354313-.108345.4588145-.219497.767416-.307941.8545378-.602587 1.7145259-.710601 2.6189421-.053925.4513822-.288452.6544465-.691112.7998699-1.321115.476982-2.601188 1.0475272-3.751279 1.8679596-.337339.2406381-.567573.1695367-.854951-.0991786-1.406502-1.3150039-2.883446-2.5479233-4.46477-3.6487973-.350966-.2442717-.439244-.4631912-.267807-.8822847.523227-1.2785861.810027-2.624475.95578-3.9950552.043108-.405633.174657-.6228184.57963-.7628741 1.32384-.4578235 2.646441-.9310069 3.812884-1.7371529.214542-.1483136.394071-.1379912.593254.0228747 1.011687.8164684 2.133207 1.4528299 3.315339 1.9838193.331229.1488091.509684.3975401.60523.7314936.161361.564104.42479 1.0713104.850739 1.4845407.186299.1806851.302242.3899428.247161.8484269m-166.5217686 72.0551126c-.1777947-.52653-.5748393-.919941-.8461972-1.391142-2.3901129-4.15014-4.4287654-8.463955-6.14428232-12.936075-2.20430793-5.746164-3.83889645-11.644193-4.81185402-17.721007-.75874503-4.7386056-1.03778286-9.5106561-.96379118-14.3090496.11371266-7.3791836 1.01466047-14.6450674 3.0096281-21.7624725.24270262-.8660991.50861022-1.7220408.86428228-2.5379312-2.77931248 11.9347094-3.1033564 24.0019597-1.6961932 36.1319707 1.40922771 12.1482616 4.94835874 23.6656936 10.58303994 34.5298366z" fill="#d33e35"/><path d="m24.9357264 20.6143381c-2.3032387 2.5602277-4.3722807 5.3008928-6.3098553 8.1454435-4.4935906 6.5972335-8.238511 13.589695-11.09619193 21.0465864-2.15310834 5.6180826-3.7239451 11.3938104-4.56692173 17.3589767-.04095969.2901035-.09521475.5783903-.17135351 1.0364615-.03575713-2.031055.24509744-3.864331.49201164-5.6997541 1.03596611-7.7005025 3.24803657-15.040956 6.76412783-21.9770154 3.0796559-6.0750803 6.9643016-11.5920849 11.5744953-16.6009748.8384348-.9108574 1.6866965-1.8127962 2.5425556-2.7072201.2235441-.2336188.4223967-.5174464.7752611-.5882174-.0002477-.0007432-.004129-.0142863-.004129-.0142863" fill="#d33e35"/><path d="m119.804357 58.7820956c.026756.5483312.03295 1.0987269.08737 1.6443329.036335.3640953-.094885.5276037-.430077.6712103-1.162726.4979574-2.279786 1.0886522-3.265874 1.893064-.304803.2486483-.530824.278212-.850078-.0061935-1.048023-.9334844-2.180855-1.7564766-3.434585-2.3966368-.299848-.1531859-.381189-.3289987-.297205-.6535381.276725-1.0692459.392337-2.161036.343202-3.2643049-.01602-.3598836.097527-.5467622.449318-.659071 1.235727-.3948149 2.390113-.9668466 3.458946-1.7023867.286222-.1969533.473596-.1298983.705728.095958.870559.847436 1.844838 1.5589452 2.939931 2.0901824.292829.1420375.385071.3199149.365169.6421421-.03361.5463492-.009249 1.096332-.009249 1.6448284zm-102.6536784 47.0828634c.1308068-.097362.2616135-.194806.3925853-.291921.3877957-.034766.5928418-.615881.9896387-.434123.3000131.137414.5010955.493251.7428898.754947.8952497.969324 1.7924813 1.938152 2.8566899 2.728278.2724314.202321.3138039.374913.1527729.680129-.4988657.94521-1.049757 1.870602-1.3117006 2.921845-.0555764.222884-.195054.311079-.396384.35815-.9657732.225691-1.9087542.516951-2.7747707 1.013504-.1991003.114208-.3614526.087617-.5198411-.058136-.1616916-.148809-.3279251-.293407-.4811936-.450474-.7684894-.787483-1.5588627-1.551513-2.4565898-2.192252-.2788728-.199017-.4094317-.380858-.2584755-.748009.3780513-.919363.5751697-1.891082.6786425-2.876922.0397209-.378629.1887779-.55502.5599749-.690699.6123308-.22371 1.3032777-.261449 1.8257613-.714317" fill="#095c86"/><path d="m166.867962 39.5207483c-.119163.9812155-.17094 1.9397216-.005037 2.8955025.050375.2898558-.041537.4646776-.294067.6007695-1.090635.5877219-2.127509 1.2557114-3.039522 2.1019913-.207772.1927417-.386392.1394776-.577399-.0219663-1.030104-.8704757-2.105047-1.6742269-3.333507-2.2526172-.296298-.1394776-.227839-.3946498-.16896-.6427201.165409-.6965623.37161-1.4173206.234611-2.1149564-.17251-.8788989.128412-1.323262.912095-1.6867791.766591-.3556721 1.4416-.9028471 2.062271-1.4898258.266899-.2524471.468063-.2885345.764113-.0232876.905489.8114311 1.950704 1.4210367 3.02763 1.9723408.301335.1542594.518768.3095924.417772.6615484" fill="#d33e35"/><path d="m24.4138125 91.174307c-.22726.4194238-.5711232.7009391-.8825323 1.0078063-.9398431.9262999-1.8795209 1.8541688-2.607959 2.9628879-.2219751.3379999-.4418857.4048897-.8182027.2666508-.5511389-.2025687-1.0478576-.4664118-1.4659601-.8841841-.660062-.6594012-1.2803203-1.36257-2.0445982-1.9099928-.242455-.1736657-.2942327-.3754087-.1461666-.6367744.1891907-.334036.3566629-.6809546.557415-1.0077237.3890343-.6331408.76659-1.271319.9662685-1.9936464.099096-.3583145.2877087-.5324757.6831018-.5785554.7891345-.0919115 1.5715799-.2452626 2.3536951-.3895299.2127261-.0392255.3772255-.0232049.4987006.1678851.690534 1.0860922 1.7042861 1.8540862 2.6458632 2.6935119.0996741.088856.1765561.2033119.2603747.3016647" fill="#095c86"/><path d="m58.44911 142.032967c-.3653339.379043-.7789771.713656-1.0710625 1.160084-.5036555.308602-.8244788.795493-1.1760218 1.244481-.2326279.29704-.4252871.359636-.7452019.133284-.7157209-.506546-1.4799163-.934723-2.2641785-1.327887-.1426983-.071514-.2861397-.175235-.3820977-.300343-.5231443-.682524-1.1728012-1.218881-1.8729969-1.707754-.4089363-.285563-.4029079-.361206-.0411249-.764856.4186806-.467073.9139954-.86709 1.2352317-1.418972.3940717-.302905.8084581-.571785 1.2752003-.751644.5985398.067798 1.0424899-.293489 1.4829716-.592015.3969621-.269046.6396647-.253273.965195.111483.8409948.942237 1.7880222 1.773735 2.8049123 2.527194.5674899.420581.5498177.435198.1485615 1.054218-.1315499.202898-.3398168.365333-.3593882.632727m28.2466954-58.7573214c-.0020644.5214927-.0082579 1.0436461.1087579 1.5567982.0695324.3051332.0261779.5663336-.3323845.625461-.7924376.1307241-1.3695067.6333885-1.9644131 1.1063242-.7425592.5901993-.8201019.5980444-1.5565504.0326191-.6960668-.5343752-1.3766085-1.0895606-2.0834934-1.6090713-.2877086-.2114874-.3160336-.4114136-.132706-.6891301.4590622-.6954062.590447-1.4654647.5061328-2.2820158-.0375738-.3636823.0319585-.5950714.4712015-.6873958.5957321-.1252739 1.084358-.5086103 1.5866921-.8470231.5505609-.3709494.682854-.3572411 1.1004611.1502956.3990266.4849098.9011956.7898777 1.4736401 1.0109444.8552811.3304025.8531339.3342013.8233226 1.220615-.0046245.1370002-.0006607.2743307-.0006607.4115786" fill="#d33e35"/><path d="m194.043331 65.0411906c.214378-.9922813.439821-1.9006613.438252-2.8426513-.000413-.231224.115695-.3548463.329907-.4016692.73232-.16004 1.420459-.4233876 2.024119-.8778254.218837-.1647471.405385-.0869567.59887.045419.54767.3745829 1.125483.6856618 1.783563.8209278.242207.0497958.384079.1697019.389282.4428766.015195.8044943.17606 1.5817373.490855 2.3233057.10017.2360136.086709.4182677-.155663.5557634-.868576.4926723-1.601556 1.1562026-2.291678 1.8662254-.239977.2469142-.442298.2703669-.706141.0606137-.757094-.6017604-1.603786-1.0547117-2.474262-1.4662905-.257732-.1218055-.51051-.2431981-.427104-.5266952" fill="#d33e35" mask="url(#d)" transform="translate(.018)"/><path d="m53.4068247 138.299327c-.4667421.17986-.8810459.44874-1.2751177.751643-3.5947899-3.118633-7.0968426-6.335785-10.2520592-9.907783-2.9498402-3.339453-5.7403836-6.807565-8.2869856-10.467345-.0715143-.102812-.2085145-.186218-.1498827-.373179 1.0887346 1.351504 2.1523651 2.702183 3.2478714 4.026518 4.73299 5.721721 10.0097695 10.879915 15.9505747 15.34741.2626869.197614.5107573.414717.7655991.622736m90.5561953 11.951515c-.725878-1.00921-1.649205-1.745576-2.564439-2.485741-.287708-.232711-.406541-.387961-.107106-.708206.450392-.481606.799622-1.044554 1.144146-1.606429.468311-.7637 1.256206-1.022919 2.037662-1.2899.133201-.045501.275899-.032454.394154.052438.529586.380281 1.184774.596063 1.554155 1.187914.057476.091995.122879.202486.212974.246915.810936.400018.790125 1.048683.574096 1.782407-.068458.232462-.059375.489121-.07523.735456-.012057.188366-.102894.305959-.278956.360049-1.072218.329-1.901569 1.067925-2.891456 1.725097m-10.776772-96.2423493c-.001321.1725921-.107106.2580624-.21413.3446889-.852226.6902037-1.735914 1.3480359-2.357577 2.2769784-.136505.2040551-.305463.1975312-.496058.0833231-.871961-.522401-1.782984-.9674247-2.723818-1.3501004-.305712-.1242828-.33032-.3446063-.23428-.6001914.342294-.9115181.460632-1.8608577.473844-2.8245663.005203-.3730139.182585-.4609616.513566-.4549333.860236.0158554 1.69099-.1626826 2.49185-.4631086.345598-.1297332.556507-.0706885.734219.2649992.450144.8500786 1.001861 1.6359099 1.588592 2.3972149.083405.1081797.155168.2252781.223792.3256955" fill="#095c86"/><path d="m150.215128 71.4519321c1.241425.0128825 2.235771 1.0014477 2.20505 2.1923339-.030223 1.1749482-1.065282 2.1491445-2.281685 2.1476614-1.22301-.0014898-2.205959-.9935234-2.18581-2.2059629.02015-1.214917 1.008384-2.14708 2.262445-2.1340324m-123.5718454 56.7836179c-.0200669 1.141421-.9901341 2.128335-2.0937333 2.130157-1.1358879.001894-2.156907-1.028044-2.1497166-2.168391.007674-1.198071.9134115-2.111323 2.0743211-2.091421 1.2066589.020645 2.1892784.985427 2.1691288 2.129655m.0216277-6.75724c-.0493828.413313-.062926.832324.0776252 1.224662.1276687.356167.0776252.533466-.3127305.664273-.491929.164747-.9717188.387713-1.4229359.644867-.3284207.187209-.550148.117428-.808293-.100253-.4620351-.389528-.932576-.770141-1.4161645-1.132336-.2637605-.197531-.3453496-.392916-.1672245-.690452.3286684-.548744.5277688-1.153807.6266171-1.778195.0772122-.487635.3174374-.552377.7414032-.471862.7553592.143442 1.5169946.256163 2.2784648.364508.3276774.046658.5005999.178291.453777.534788-.0321236.244686-.0346836.493251-.0505389.74" fill="#d33e35"/><path d="m145.168614 45.6240193c1.167352.0035695 2.087788.9022877 2.0664 2.0176957-.020976 1.0980663-.973536 2.0374964-2.0811 2.0526911-1.130437.015525-2.065573-.9108575-2.052194-2.0327067.01346-1.1226752.944962-2.0410473 2.066894-2.0376801" fill="#095c86"/><path d="m163.575564 77.2564473c-.173914.0110657-.270614-.0919942-.378381-.1730877-.479955-.3613701-.931833-.763865-1.487597-1.0144953-.195136-.0880303-.308024-.2257737-.246501-.4537771.137331-.5095186.125687-1.0314242.10628-1.5496962-.011891-.315786.129899-.4398212.414222-.4918466.567407-.103803 1.11227-.2919203 1.643837-.5091057.356581-.1456711.611009-.1164378.838352.2281686.346011.5247133.72687 1.0265519 1.096085 1.5356576.15203.2095881.146579.3887041-.047979.5768214-.589787.5701323-1.169663 1.1503394-1.755981 1.7240226-.056815.0555764-.131716.0925722-.182337.1273384m-20.207987 8.5013302c.014617.2623566-.155168.3215665-.287213.4114961-.447914.3051332-.919363.5819413-1.334658.9264651-.245098.2033119-.425286.2095054-.642803.0275817-.442546-.3702061-.906068-.709197-1.430368-.9540468-.252281-.117759-.298691-.2806068-.193485-.5281817.20546-.4837536.325531-.9865006.292829-1.5183158-.019737-.3199975.167803-.420167.455346-.4473358.465421-.0439326.913005-.1718491 1.350596-.3370917.48078-.1815934.970067-.0679632 1.172884.3588928.316776.6665857.240473 1.4593537.616872 2.0605361" fill="#d33e35"/><path d="m190.556499 56.5179584c.000742 1.0584279-.828443 1.8966974-1.862923 1.8834021-1.004256-.0129651-1.874814-.8890562-1.889596-1.9017349-.014534-.9917032.807138-1.8055291 1.836992-1.8195676 1.05017-.0142863 1.914866.8153123 1.915527 1.8379004" fill="#095c86"/><path d="m194.796519 76.5365975c1.05562.0167637 1.875556.8089536 1.865068 1.8017304-.010734 1.0230835-.895744 1.8825762-1.920067 1.8647389-.991785-.0172591-1.840378-.8858356-1.82287-1.8659776.017589-.9869136.882615-1.8163471 1.877869-1.8004917" fill="#d33e35"/><path d="m188.193331 95.6666508c.960075.0000825 1.789261.81812 1.806521 1.7820763.018827 1.0503351-.838023 1.9173425-1.869695 1.8919079-.962635-.023783-1.807263-.8482617-1.82634-1.7825719-.020809-1.0162295.85363-1.8914949 1.889514-1.8914123m-67.640452-56.820705c1.069246-.6438763 2.10579-.6395821 3.102283.1565717.366819.9824542.21669 1.7919034-.444199 2.3944897-.638673.5823541-1.574222.6599793-2.26616.1878694-.695819-.474835-.994758-1.3658731-.707215-2.1692114.072175-.2016604.208432-.3804461.315291-.5697194m27.172593-.8602524c-.897975-.0062761-1.610474-.7295116-1.607032-1.6312027.003576-.9291075.746384-1.6790165 1.669463-1.68521.911105-.0061935 1.670016.7684068 1.658784 1.6929725-.011148.9134174-.770966 1.6301292-1.721215 1.6234402" fill="#095c86"/><path d="m114.028415 138.327774c.920106.000911 1.616008.695904 1.605768 1.60354-.00958.85553-.71952 1.543751-1.58884 1.540389-.879972-.00341-1.624678-.753732-1.610805-1.622721.013873-.865686.701682-1.522114 1.593877-1.521208m-75.2101566 2.534737c-.2256911.315291-.5425506.525953-.8531339.743881-1.2377917-1.202861-2.2959717-2.560558-3.3500229-3.919082-.8849273-1.140595-1.7327761-2.309763-2.5970584-3.466295l.0009909.000661c.2563284.246583.5341275.474586.7654341.742724 1.4533254 1.685128 3.0775088 3.187835 4.8109456 4.578813.4693022.376565.9108575.791117 1.2228446 1.319298m147.7827066-55.5922693c.083489-.4568325.114044-.8369483.051695-1.2202847-.046326-.2850661.108593-.3825931.364756-.421736.485983-.0741569.970811-.1592143 1.452087-.259136.256989-.0533468.400596.0429415.53867.2509606.256575.3864744.691855.7229878.776251 1.1367136.094225.4620351-.506545.7049855-.759983 1.0794858-.480781.7104357-.505555.692681-1.261658.3130607-.268715-.1349356-.534044-.27879-.8111-.394402-.261862-.1093359-.409515-.2635954-.350718-.484662m-89.8544931-17.7518345c.0029531.9097839-.6607424 1.6082455-1.5276673 1.6076682-.8333147-.0006614-1.4757871-.6327287-1.4794462-1.4554732-.0036079-.8205975.7624042-1.5179856 1.6484049-1.5005612.8081279.0158554 1.3560463.5596447 1.3587086 1.3483662m-61.9086767.71947c.0795245-.29415.1591315-.5882999.2386561-.8825325.2161119.0965361.2875436.0180025.2429504-.2008345 0 0-.0114786.0027251-.0114786.0027251.1556633.1856399.2929938.0080103.4339578-.0260127.7518909-.1815108 1.4757872.2814327 1.5858664 1.0194501.115034.7717101-.4058808 1.4529125-1.1574413 1.5133611-.6366092.0511997-1.0265519-.2455104-1.155542-.8940937-.037161-.1866307-.0172592-.3877956-.1769688-.5320629m92.7667798-3.5521043c-.623562.0130476-1.145963-.493333-1.169746-1.133906-.023866-.6432157.460218-1.1632219 1.105416-1.1874178.640656-.0239483 1.196419.4632738 1.226891 1.0755218.031793.6387563-.522153 1.2323414-1.162561 1.245802m28.305625 23.2729103c-.013708.594576-.531485 1.1135913-1.109215 1.1117022-.616542-.0019923-1.156285-.5547827-1.145715-1.1733895.010653-.6243874.488791-1.0950108 1.106077-1.0887348.646519.0066065 1.163221.5240527 1.148853 1.1504221m-73.8997113-20.9689459c-.6072107-.0013286-1.0097882-.4262852-.9892258-1.0442313.0163508-.492342.3482399-.8012738.8486747-.7901255.5153817.0114786 1.0142476.5480009 1.0140825 1.090469-.0002479.4664944-.3274298.7450366-.8735314.7438878m48.7335633-18.5016186c-.168133-.9965754-.048888-.8302593.770719-.8333148.341055-.0013213.512656.1128044.519594.4622829.004376.2186718.032949.4367656.048226.6552723.06111.8747699.043272.8775777-.807467.8310026-.347744-.019076-.496471-.1425332-.485076-.4920117.00702-.2175157-.030884-.4365179-.045996-.6232313m-79.2164177 39.5133905c.0198192-.3558373.1524426-.6527124.4596402-.8338104.4398212-.2594662.688387-.2942325.8574282.2758999.1018211.3433676.2283338.6803765.2307285 1.040508.0023123.334449-.1565716.5846664-.4932503.6754217-.3291638.0887736-.5970534-.0261778-.7819501-.3090969-.1683805-.2574844-.2531076-.5459363-.2725965-.8489223m55.0499507 59.5464558c.006606.413231-.347497.771215-.780464.788969-.429829.017672-.89013-.364426-.923244-.766177-.032867-.400348.383666-.807302.848509-.82902.455346-.021306.847849.348735.855199.806228m27.153963-71.2477115c-.362939-.0080103-.684671-.347827-.659814-.6969752.024031-.3378348.388621-.6692284.724392-.6584103.360132.0116437.686901.359223.659814.7018474-.027582.3493134-.373427.6613005-.724392.6535381m-59.1893549-1.3526688c-.3563328.0074322-.5861529-.1964578-.6009348-.5331364-.0184152-.4188457.484497-.9487616.8934331-.9199411.3360181.0237004.4645125.2607049.486644.5634432.0336926.4606313-.3394038.880468-.7791423.8896343m-52.0922486 8.4119705c-.0186631-.3032338.0986005-.4881304.411331-.4987832.3331277-.0114786.6385911.2342795.6157164.517116-.0126347.1573975-.0700278.3251175-.1531858.459888-.1312197.2126434-.3202453.4273515-.5874741.3843273-.2975358-.047979-.1665639-.3564979-.2276731-.548166-.033032-.1035554-.0409597-.2149557-.0587144-.3143821m16.7635831 7.1725107c.2882869-.0217185.6213319.2361788.6464363.5005999.0282423.297701-.2630173.5590667-.6448672.5787206-.3007564.0154425-.5508912-.1932372-.5487441-.4578235.0022296-.2710276.2940673-.6024211.547175-.621497" fill="#d33e35"/><path d="m153.761228 57.9188869c.343202.0079276.518603.1980268.573436.4938284.052025.2801113-.247492.595567-.538174.595815-.25765.0002474-.533714-.2688808-.515217-.5312375.021472-.3036466.193485-.4950671.479955-.5584059" fill="#095c86"/><path d="m138.445686 106.484672c.338826.31942.217103.627525.043519.915977-.12643.209836-.344771.247906-.580124.203808-.237582-.044593-.352204-.158306-.216856-.394815.180356-.314878.443703-.543789.753461-.72497m43.78352-32.4410327c.265659.1298158.53487.2529426.79541.3922551.134688.0720097.32553.1524427.183493.3564978-.108923.1564066-.245593.0532641-.347166-.0301416-.245925-.2020734-.533715-.3605444-.631737-.7186113m-31.276845 10.1650282c-.012387.2318021-.11008.4003478-.33288.4143865-.2522.0159379-.431728-.132128-.429086-.3884563.002147-.2123958.159958-.3521212.379124-.3542682.216112-.0020646.357902.1145384.382842.328338" fill="#d33e35"/><path d="m168.02618 33.8715909c-.021967.0426113-.033362.1038856-.068211.1235396-.082745.0467403-.158141.0182502-.1626-.0832406-.001487-.0336926.059375-.0925721.0986-.0992611.039556-.0067716.087701.0370784.132211.0589621" fill="#095c86"/><g fill="#d33e35" transform="translate(16.154 20.24)"><path d="m8.93699149.02149556c-.15822324.06978018-.15128652.21322164-.1560762.3517908.0005781.00066072.00454194.0142038.00470706.01494702.04822668-.12031902.09628824-.24138138.1442673-.36244362zm-8.76048281 108.01720044c.01428642.037987.02857272.076056.04285902.114125.06606408-.064825.0457494-.101738-.03806934-.118172.00008262 0-.00478968.004047-.00478968.004047m107.04975032-5.610304c-.147405.071101-.205624-.032536-.201825-.081341.008671-.111814.112721-.158224.21702-.162931.035262-.001568.091334.039391.106116.074322.067384.15938-.10975.123128-.121311.16995m33.173749-99.1111286c.101573.01354308.15748.0681285.156241.1740786 0 0 .013378-.01164378.013378-.01164378-.121723.10512438-.180272.0104877-.241216-.07638642.023617-.02890308.047483-.0575583.071597-.0860484"/><path d="m.00005998 107.870026c-.00222966.119989.05772342.17507.17639088.168793.00008262-.000164.0049548-.004129.0048723-.004129.00586314-.123374-.06226536-.169867-.1758954-.168959 0 .000166-.00536778.004295-.00536778.004295m140.73250602-104.22501903c-.125357.01502952-.209919-.01023996-.163013-.1652435.000083-.0000817-.013295.01156208-.013295.01156208.105289.00487218.159957.05987046.163921.16524258zm.207089.28881128c.133003.01841313.211138.10394918.243331.24576946l.017977-.0197189c-.160616.01658475-.258136-.04466164-.243683-.24420403 0-.0001292-.017625.01815347-.017625.01815347m-.557347-.40049209c-.112795-.08814796-.288097-.18243376-.095054-.33835772.077663-.06281345.172717.07913729.196921.20228332-.034309.04505341-.068264.09049858-.101867.1360744m.508828.2785914c.018581.01569024.037078.03146298.055576.04715322-.014452-.01965408-.028902-.03930804-.043106-.05929248.000248-.00033024-.01247.01213926-.01247.01213926m-13.708041 3.96559075.015938.01725918s-.01313-.02452626-.013212-.02444364c-.000084.00008262-.002726.00718446-.002726.00718446m-69.4351218 65.48986249c.0776253.0822497.1192456.1823367.0285727.2654122-.0314629.0288204-.1317976-.0175896-.2006694-.0289856.0573106-.0783685.1147037-.1573975.1720967-.2364266m-48.81805875-73.24160584.0185805-.02576496s-.012387.02171862-.01197414.021636c.00049548-.00016512-.00660636.00412896-.00660636.00412896"/></g><g fill="#fefeff"><path d="m28.6301326 72.2779715c.1445151.2106617.1242004.3443586.0193237.4784686-.0459144.0586318-.0792768.0655685-.125026.0058631-.1453408-.1896036-.0243612-.3268515.1057023-.4843317m6.6892608-5.1234861c.0445932.2189197-.0268384.2973706-.2429503.2008346.0672201-.0834058.0462447-.2737527.2429503-.2008346m12.3846878-31.2101778-.0138734.0284901s.002147-.0218837.0010734-.0211405c-.0010734.0007432.0128-.0073496.0128-.0073496m96.5656658 102.6766694c.115034-.086461.236592-.299683.373675-.099427.078451.114539-.11875.202651-.229407.269954-.048061-.056897-.096124-.113713-.144268-.170527m13.862457-30.073077c-.050043.088526-.127669.23461-.207028.182585-.12486-.081754-.053016-.234693.005533-.355012.067055.057476.134275.114952.201495.172427m-18.834896 24.263037c.104217-.062514.239235-.171437.329246-.066394.12321.143771-.071183.185475-.14856.259631-.060202-.06433-.120484-.128825-.180686-.193237"/><path d="m144.414039 138.791479c-.079525.056154-.162518.172428-.25864.051778-.100747-.12643.030307-.170611.114373-.222222.048062.056814.096206.113629.144267.170444"/></g></g></g></g></svg>