<svg height="4935" viewBox="0 0 4654 4935" width="4654" xmlns="http://www.w3.org/2000/svg" xmlns:xlink="http://www.w3.org/1999/xlink"><mask id="a" fill="#fff"><path d="m0 0h4095.998v4095.998h-4095.998z" fill="#fff" fill-rule="evenodd"/></mask><g fill="none" fill-rule="evenodd" transform="translate(279 420)"><path d="m2749.24446 3353.78781c2.32-96.18242-21.38557-73.28835-28.2192-145.38419 7.28499 1.81149 12.918-7.73756 18.38852-8.19271 11.78057-1.00134 209.73926 23.31281 189.40085 18.34256 42.81628 10.45936 85.96656 9.53996 135.63452 10.67783 109.88879 2.52154 218.14364-26.21667 299.47922-98.74036 66.38644-59.18778 89.80314-141.84312 54.87668-224.06151-30.78294-72.45087-82.31052-127.48767-146.77415-171.47342-38.30265-26.12565-190.11401-99.58695-234.45589-109.7186-61.28604-14.00043-127.78081-45.63339-191.54031-36.83988-2.86164-11.59724-4.89278-23.37654-6.06632-35.26507 54.56073-19.22556 129.60431-50.38517 153.41821-107.76145 95.04798-75.31831 240.02571-276.21266 156.82149-402.35309-81.49806-123.54607-362.78736-50.10297-463.39612 15.43871-23.79585-.55528-43.21348 19.12543-65.58302 23.8954-11.90695 2.53974-24.85203-5.37988-34.82715-10.51397-6.03021-43.10276 5.04624-89.25503-4.16157-135.59846-7.27596-36.61231-14.46166-67.79012-15.20189-100.93419-1.20966-54.59075-17.17887-107.24257-33.4821-162.07911-28.02963-94.3072-72.75065-182.99783-148.24559-244.47047-55.00307-44.78681-120.99231-50.84031-178.9834-11.58813-116.08149 78.57719-161.18166 214.84017-200.40509 342.78299-3.7102 12.13431-4.43238 22.0748 2.51861 29.38452-13.84781 15.49332-12.82773 40.16248-15.55396 61.47263l-22.54106 176.27981c-10.97714-1.05595-27.11788-6.30838-31.1982-21.25553-5.02818-18.4336-21.69249-16.98622-29.65453-24.30504l-82.12095-75.52768c-87.62757-80.58896-271.55791-178.23696-365.10736-89.61004-92.90852 88.03522-11.91598 280.46377 39.04288 374.38864 23.15491 42.69312 46.06609 85.83229 74.46583 126.31338l-3.74631 25.52484c-36.78607 7.21869-74.15891-3.97801-114.98016-6.45403-27.09079-1.63854-190.9084 18.16051-215.73336 35.9842-44.25161-4.74267-79.84608 25.86166-129.12587 43.54881-225.545984-585.30541 90.37186-1257.65382 584.56899-1593.809812 182.01656-123.800951 378.34132-191.372603 596.6655-232.936952-184.23727-25.925376-359.72712-3.468247-537.89807 39.771056-163.79053 39.752849-378.70241 143.691031-514.18347 240.210258-473.118477 337.02988-773.428198 869.28295-801.051601 1456.27241-12.647185 268.80282 49.451308 522.91338 181.592279 754.8581 56.275913 98.77678 125.785784 184.38149 196.830287 271.53372 30.810025 37.7957 67.975237 46.99885 112.136573 26.8994 146.503332-66.67045 222.359362 12.52574 346.195262 49.79347 10.0022 39.88939 32.29952 84.56697 71.97431 105.93174 59.85974 32.22466 118.74453 4.81549 170.10058-36.8854l177.5571 12.17983c27.68659 94.39822 112.62404 138.72079 200.91061 116.19083 45.35293-11.56992 82.42787-32.18824 119.50281-51.65048 56.57381-29.70313 112.91292-69.41957 154.50148-119.29496 5.38025.71003 34.65564-2.81283 35.24241 9.13942 4.54974 92.47749 4.61293 182.09663 41.9948 265.17982 192.28055 111.47547 395.41186 161.32356 623.2598 194.03068-938.70823 413.92302-2028.379263 61.47263-2567.793911-810.12248-423.324137-684.00936-400.3949069-1529.0965 40.270589-2200.234204 354.157302-539.38072 942.445512-872.5145161 1581.557172-909.27247514 708.09795-40.71776886 1378.50711 277.62363414 1787.84803 857.45813514 171.41856 242.804614 277.83185 488.576814 340.26436 780.455764 61.52074 287.61874 52.97193 571.44152-11.81668 858.14996-59.55281 263.54128-166.7605 511.72578-351.66578 712.06485-212.14954 229.84192-502.39387 361.24389-816.50627 333.22482-79.60234-48.62828-111.0533-112.42219-125.00041-191.04489" fill="#164c77" mask="url(#a)"/><path d="m1241.31358 2372.14457c-8.62103 6.19005-13.72143 18.68848-26.79289 26.44425-137.06986 81.25348-224.002331 249.93227-128.6384 383.00009 75.44981 105.26722 196.77612 160.63174 328.03242 161.4328 111.26093 95.91843 232.97542 166.62152 378.07051 210.47982 44.03495-76.85672 95.27366-141.8067 143.12714-210.20673l204.76524-202.28711c-29.78091 92.74147-48.06111 198.24537-95.94167 275.53904-97.4402 157.30914-344.11899 227.35681-328.52892 413.96854 5.05526 60.61695 34.0147 114.64332 91.09404 136.44503 105.51959 40.28083 124.23309 7.83769 210.58782 7.09125-37.07494 19.46223-74.14988 40.08055-119.50281 51.65958-88.28657 22.52996-173.22402-21.80171-200.91061-116.19083l-177.5571-12.18893c-.86661-13.41784 6.33714-25.47023 11.89793-41.46422 27.54216-79.25081-25.65546-163.28071-105.79041-171.25495-79.1239-7.8832-147.53245 58.45954-148.18241 143.67283-123.8359-37.25863-199.69193-116.46393-346.195262-49.78437-44.161336 20.09035-81.326548 10.89631-112.136573-26.9085-71.044503-87.15223-140.554374-172.75695-196.830287-271.53372-132.140971-231.93562-194.239464-486.05528-181.592279-754.8581 27.623403-586.98946 327.933124-1119.24253 801.051601-1456.272411 135.48106-96.519227 350.39294-200.457408 514.18347-240.201155 178.17095-43.239303 353.6608-65.705534 537.89807-39.771056-218.32418 41.555246-414.64894 109.126898-596.6655 232.936953-494.19713 336.146889-810.114974 1008.495299-584.56899 1593.800709 49.27979-17.68715 84.87426-48.28237 129.12587-43.54881" fill="#fdfdfe"/><path d="m2721.02616 3208.40271c6.83363 72.09584 30.53921 49.21087 28.2192 145.38419-2.57277 106.57805-38.69984 215.04953-136.48308 272.77173-52.9268 31.24153-128.54812 30.11276-182.90123 2.84013-78.16701-39.21577-129.89319-104.64821-180.61734-171.94677-8.12453-10.77797-22.66744-13.18116-24.55413-29.18426-9.04531-77.05699 33.69874-333.19751 26.35056-375.11688 22.7216-3.24067 52.45738 8.97557 74.24918-7.22779 19.51692-14.5102 22.57716-40.59033 36.37984-55.75594 94.24455 108.50789 222.72045 184.21763 359.357 218.23559" fill="#f46135"/><path d="m2314.79964 2417.22906c-37.18326 67.06188-62.26098 140.05893-92.11411 220.84815 62.65818-47.23553 133.46797-79.77879 182.73874-130.91951 25.35756 14.2007 36.21735 41.86475 52.67403 64.9864-39.63868 35.72932-166.40843 53.69866-221.13166 90.26546 79.62943 17.48688 150.28576 27.89162 221.04139 29.14784-9.87582 33.74486 15.0033 56.04724 31.64053 84.84917 17.96424 31.12319-67.83982 63.15669-57.3321 86.91555-63.4255-55.46465-131.14797-105.06696-217.85476-149.38042 52.99901 89.7648 80.66755 199.62904 147.20746 276.23088-13.80268 15.16561-16.86292 41.24574-36.37984 55.74684-21.7918 16.20336-51.52758 3.98712-74.24918 7.22779-18.92113-107.9344-24.41873-215.12236-69.20295-331.47705l-73.10272 333.22483c-.06319-7.00022-1.17354-14.67406-6.99612-23.32192-20.11272-9.49444-39.09704-13.20847-57.80152-15.02907 47.88057-77.29367 66.16076-182.79757 95.94168-275.52994l-204.76525 202.27801-61.08744-55.07322 255.70605-196.57952c-75.91019-11.29684-138.23437 14.74688-212.53771 18.4609-12.74649-20.21778-45.51542-30.32213-52.19559-57.35807-10.16469-41.16382 80.45993-35.77483 71.98333-71.6589l200.93769 53.65314-184.1831-181.85995c9.39737-26.54438 31.73983-47.20822 54.93988-62.29191 49.37006 31.48732 81.12795 167.24963 154.95285 228.51289-10.76049-77.13892-4.01713-150.99164-18.36144-218.47227 38.7179-4.90652 65.1136-46.49818 121.70546-35.42892 19.72456 16.53107 33.64459 35.14673 47.8264 52.03282" fill="#164c77"/><path d="m2108.73628 3054.89408c-24.15694 110.09181 27.05469 294.33676 62.85678 399.86797-41.58856 49.86629-97.92767 89.59183-154.50148 119.28586-86.35473.74644-105.06823 33.18957-210.58783-7.09125-57.07934-21.79261-86.03877-75.82808-91.10306-136.43593-15.58105-186.62083 231.09775-256.6685 328.53795-413.97764 18.69544 1.8206 37.68879 5.53463 57.80152 15.02907 5.82258 8.64786 6.93293 16.3217 6.99612 23.32192m-536.70737-712.28059c81.78693 80.02458 171.1026 156.08934 279.84493 202.30532l85.10897 36.16627c8.47659 35.88407-82.14803 30.49508-71.98334 71.6498 6.68017 27.04504 39.44911 37.14939 52.19559 57.36717-16.45669 15.45692-41.27261 15.42051-64.80667 25.35189-133.69366 56.42957-249.31475 136.47234-365.54067 220.41121 166.10151 27.43647 240.80205-11.87943 387.179-67.64448l61.07842 55.07322c-47.85349 68.40003-99.08316 133.35001-143.11812 210.20673-145.09508-43.8583-266.80957-114.56139-378.0705-210.47982-131.2563-.80106-252.58262-56.16558-328.03242-161.4328-95.363935-133.06782-8.43146-301.74661 128.63839-383.00009 13.07147-7.75577 18.17187-20.2542 26.7929-26.44425 24.82495-17.82369 188.64256-37.61364 215.73336-35.9751 40.82125 2.46692 78.19409 13.67272 114.98016 6.44493m1465.54339 282.62301c41.08304 38.15982 94.99382 65.23218 128.74673 115.1622 91.90649 135.97167 98.92067 324.33118-61.15966 420.41346-56.33008 33.80859-117.48974 40.67226-176.33842 57.7404 20.33841 4.97025-177.62931-19.3439-189.40988-18.34256-5.27192-2.1119-11.0945-5.14321-16.48377-12.83525-84.87426-121.10646-181.72769-228.8406-290.60542-324.04899-10.50773-23.76796 75.28731-55.80146 57.32307-86.91555-16.6282-28.81103-41.51635-51.10431-31.64053-84.84917 136.32059 2.43961 265.4916-46.07034 388.02757-103.16442 63.76853-8.79351 130.25427 22.83945 191.54031 36.83988m-470.53127-789.93109c.74024 33.14407 7.92593 64.32188 15.2019 100.93419 9.2078 46.34343-1.87767 92.4957 4.15254 135.59846l-150.71906 184.1357c-42.5906 52.02371-90.09202 105.72238-120.87496 161.25985-14.18182-16.88609-28.10185-35.50175-47.83543-52.04192-56.58284-11.06016-82.97853 30.5315-121.69644 35.42892-29.1129-137.04583-92.92657-261.83901-174.93016-373.53296l22.55009-176.27981c2.72623-21.31015 1.69712-45.97931 15.55396-61.47263 54.7503-61.25416 107.62294-126.0585 190.89035-155.64329 167.41046-59.46997 302.94568 63.10208 367.70721 201.61349m119.77093 223.15486 115.48568 2.7127c77.07471 1.80239 151.1614 42.70222 187.3607 113.75122 43.719 85.81409 38.78109 185.97452 3.72825 270.45047-23.8139 57.37628-98.85748 88.53588-153.41821 107.75234-127.23014-29.46645-254.32488-.97402-381.87098 19.01619-16.45669-23.12165-27.31647-50.7857-52.67404-64.9864 99.11025-102.83671 176.91616-287.09987 215.80558-424.80112 22.36954-4.77908 41.78717-24.45068 65.58302-23.8954m-859.43719-152.45723 82.12095 75.52768c2.84358 22.74843 26.41375 46.15227 26.30542 73.32476-.44234 119.1038 31.27944 229.32305 72.87704 335.73725-23.20005 15.07459-45.55154 35.73843-54.94891 62.28281-14.09155-2.37589-26.81998-10.32282-41.11012-20.52729-100.43725-71.76814-217.03329-114.11535-336.84303-115.25323-28.39975-40.49019-51.31092-83.62026-74.47486-126.32248-6.99612-131.62044 20.6995-250.86078 172.36642-286.52638 52.38517-12.31638 103.10029-4.44227 153.70709 1.75688" fill="#f46135"/><path d="m2928.81824 3218.55711c58.85771-17.07724 120.00834-23.93181 176.33842-57.7404 160.08936-96.09138 153.07518-284.44179 61.15966-420.41346-33.75291-49.93912-87.66368-77.01148-128.74673-115.1622 44.34189 10.12255 196.16227 83.58385 234.45589 109.7186 64.46364 43.98575 116.00024 99.02255 146.78318 171.47342 34.92646 82.21839 11.50073 164.87374-54.87668 224.05241-81.33558 72.52369-189.59946 101.271-299.48824 98.74947-49.66797-1.14698-92.80922-.21848-135.6255-10.67784m-361.77721-1383.2517c-64.76153-138.51141-200.29675-261.08346-367.70721-201.61349-83.26741 29.58479-136.14005 94.38913-190.89035 155.64329-6.95099-7.30972-6.23784-17.25021-2.51861-29.38452 39.22343-127.94282 84.3236-264.2058 200.39606-342.78299 58.00012-39.25218 123.98936-33.19868 178.99243 11.58813 75.49494 61.47264 120.21596 150.16327 148.24559 244.47047 16.2942 54.83654 32.27244 107.48836 33.48209 162.07911m426.34286 610.06925c35.05283-84.47595 39.99977-184.63638-3.71923-270.45047-36.1993-71.049-110.28599-111.94883-187.36973-113.75122l-115.48568-2.7127c100.60877-65.54168 381.90709-138.98477 463.39612-15.43871 83.20422 126.13133-61.77351 327.03478-156.82148 402.3531m-561.06472 417.95019c108.87773 95.21749 205.73116 202.94253 290.60542 324.04899 5.3983 7.70115 11.21185 10.72335 16.48377 12.83524-5.46149.46426-11.0945 10.00421-18.37949 8.19271-136.63655-34.01795-265.11245-109.72769-359.36603-218.23558-66.53088-76.59274-94.19942-186.45698-147.19844-276.22177 86.7068 44.31345 154.42024 93.90666 217.85477 149.38041m188.90977-780.97191c-38.88942 137.71036-116.69533 321.9644-215.80558 424.81022-49.27076 51.13162-120.08055 83.68399-182.73874 130.91041 29.85314-80.78923 54.93988-153.77717 92.11412-220.84816 30.79197-55.52836 78.29339-109.22703 120.87496-161.25073l150.72809-184.13571c9.97512 5.13409 22.92923 13.05371 34.82715 10.51397m-793.85417-176.3499c-50.6068-6.19915-101.32192-14.07326-153.70709-1.75688-151.66692 35.6656-179.36254 154.90594-172.36642 286.52638-50.94983-93.92487-131.9514-286.34432-39.03385-374.37954 93.54945-88.63602 277.47076 9.02108 365.10736 89.61004m126.35811 546.87341 184.1831 181.85995-200.93769-53.65314-85.10896-36.16627c-108.7333-46.21598-198.04897-122.28075-279.83591-202.30532l3.73728-25.51574c119.80974 1.12878 236.40578 43.48509 336.85206 115.24412 14.29014 10.21358 27.00955 18.16051 41.11012 20.5364m16.60925-425.78698c82.00359 111.68485 145.80824 236.48713 174.93016 373.53296 14.33529 67.48973 7.60095 141.33335 18.36144 218.47227-73.83392-61.26326-105.59181-197.02557-154.95285-228.50379-41.59759-106.4142-73.3284-216.63346-72.87703-335.73725.0993-27.17249-23.46184-50.57633-26.30543-73.32476 7.96204 7.31882 24.62636 5.87144 29.65454 24.30504 4.08032 14.94715 20.22105 20.19958 31.18917 21.25553m869.62535 526.04026c1.17354 11.88853 3.20467 23.66783 6.06631 35.26507-122.545 57.09408-251.70697 105.60403-388.02756 103.16442-70.75564-1.26532-141.41197-11.66096-221.04139-29.14784 54.73225-36.5668 181.50201-54.53614 221.13166-90.26546 127.5461-19.99932 254.64083-48.48264 381.87098-19.01619" fill="#fdfdfe"/><path d="m1519.12106 3497.3341c-51.35606 41.69179-110.24085 69.11006-170.10058 36.8854-39.67479-21.36477-61.97211-66.04235-71.97431-105.93174.64996-85.21329 69.05851-151.55603 148.17338-143.68193 80.13495 7.98334 133.33257 92.00414 105.79041 171.26405-5.56079 15.99399-12.75551 28.04638-11.8889 41.46422" fill="#f46135"/><path d="m1874.02763 2888.22067c-146.37696 55.76505-221.0775 95.08095-387.18803 67.64448 116.23494-83.93887 231.84701-163.98164 365.5497-220.41121 23.53405-9.93138 48.34095-9.89497 64.80667-25.35189 74.30334-3.71402 136.62751-29.76684 212.53771-18.4609z" fill="#fdfdfe"/></g></svg>