<svg height="432" viewBox="0 0 576 432" width="576" xmlns="http://www.w3.org/2000/svg"><g fill="none" fill-rule="evenodd"><path d="m0 432h576v-432h-576z" fill="#fff" fill-rule="nonzero"/><path d="m0 332.64h446.4v-332.64h-446.4z" fill="#fff" fill-rule="nonzero" transform="translate(72 51.839)"/><path d="m92.291 384.479v-332.64" stroke="#b0b0b0" stroke-dasharray="2.96 1.28" stroke-opacity=".5" stroke-width=".8"/><path d="m92.291 384.479v3.5" fill="#000" fill-rule="nonzero" stroke="#000" stroke-width=".8"/><g fill="#000" fill-rule="nonzero" transform="matrix(1 0 0 -1 80.299 399.219)"><path d="m1.1859375.8296875h3.4421875v-.8296875h-4.628125v.8296875c.37395833.3875.88385417.90729167 1.5296875 1.559375.646875.653125 1.053125 1.07447917 1.21875 1.2640625.315625.35416667.5359375.65416667.6609375.9.12604167.24583333.1890625.4875.1890625.725 0 .3875-.1359375.703125-.4078125.946875-.271875.24479167-.62604167.3671875-1.0625.3671875-.309375 0-.6359375-.05364583-.9796875-.1609375-.34270833-.10729167-.709375-.2703125-1.1-.4890625v.996875c.396875.159375.76770833.2796875 1.1125.3609375.34583333.08125.66197917.121875.9484375.121875.75520833 0 1.35729167-.1890625 1.80625-.5671875.44895833-.37708333.6734375-.88125.6734375-1.5125 0-.3-.05625-.584375-.16875-.853125-.11145833-.26770833-.315625-.58385417-.6125-.9484375-.08125-.09479167-.34010417-.36770833-.7765625-.81875-.43541667-.45104167-1.05052083-1.08177083-1.8453125-1.8921875z" transform="translate(0 .142)"/><path d="m2.51875 6.7828125c-.50729167 0-.8890625-.25-1.1453125-.75-.25520833-.49895833-.3828125-1.25-.3828125-2.253125 0-.99895833.12760417-1.7484375.3828125-2.2484375.25625-.5.63802083-.75 1.1453125-.75.51145833 0 .89479167.25 1.15.75.25625.5.384375 1.24947917.384375 2.2484375 0 1.003125-.128125 1.75416667-.384375 2.253125-.25520833.5-.63854167.75-1.15.75zm0 .78125c.81770833 0 1.4421875-.3234375 1.8734375-.9703125.43125-.64583333.646875-1.58385417.646875-2.8140625 0-1.22708333-.215625-2.1640625-.646875-2.8109375-.43125-.64583333-1.05572917-.96875-1.8734375-.96875-.81666667 0-1.440625.32291667-1.871875.96875-.43125.646875-.646875 1.58385417-.646875 2.8109375 0 1.23020833.215625 2.16822917.646875 2.8140625.43125.646875 1.05520833.9703125 1.871875.9703125z" transform="translate(6.289)"/><path d="m.142.83h1.611v5.562l-1.753-.351v.898l1.744.352h.986v-6.461h1.611v-.83h-4.199z" transform="translate(13.09 .142)"/><path d="m2.5 3.6046875c-.46875 0-.8375-.12552083-1.10625-.3765625-.26770833-.25104167-.4015625-.59583333-.4015625-1.034375 0-.43958333.13385417-.78489583.4015625-1.0359375.26875-.25104167.6375-.3765625 1.10625-.3765625s.83802083.12604167 1.1078125.378125c.27083333.253125.40625.59791667.40625 1.034375 0 .43854167-.134375.78333333-.403125 1.034375-.26770833.25104167-.63802083.3765625-1.1109375.3765625zm-.9859375.41875c-.42291667.10416667-.75260417.30104167-.9890625.590625-.23541667.290625-.353125.64427083-.353125 1.0609375 0 .58229167.20729167 1.04270833.621875 1.38125.415625.33854167.984375.5078125 1.70625.5078125.72604167 0 1.29583333-.16927083 1.709375-.5078125s.6203125-.79895833.6203125-1.38125c0-.41666667-.11822917-.7703125-.3546875-1.0609375-.23541667-.28958333-.56302083-.48645833-.9828125-.590625.475-.11041667.84479167-.32708333 1.109375-.65.265625-.321875.3984375-.71510417.3984375-1.1796875 0-.70729167-.215625-1.25-.646875-1.628125-.43125-.37708333-1.04895833-.565625-1.853125-.565625-.803125 0-1.42083333.18854167-1.853125.565625-.43125.378125-.646875.92083333-.646875 1.628125 0 .46458333.13333333.8578125.4 1.1796875.26770833.32291667.6390625.53958333 1.1140625.65zm-.3609375 1.5578125c0-.37708333.11770833-.67135417.353125-.8828125.23645833-.21145833.56770833-.3171875.99375-.3171875.42395833 0 .75520833.10572917.99375.3171875.23958333.21145833.359375.50572917.359375.8828125 0 .378125-.11979167.67291667-.359375.884375-.23854167.21145833-.56979167.3171875-.99375.3171875-.42604167 0-.75729167-.10572917-.99375-.3171875-.23541667-.21145833-.353125-.50625-.353125-.884375z" transform="translate(19.032)"/></g><path d="m150.265 384.479v-332.64" stroke="#b0b0b0" stroke-dasharray="2.96 1.28" stroke-opacity=".5" stroke-width=".8"/><path d="m150.265 384.479v3.5" fill="#000" fill-rule="nonzero" stroke="#000" stroke-width=".8"/><g fill="#000" fill-rule="nonzero" transform="matrix(1 0 0 -1 138.273 399.219)"><path d="m1.1859375.8296875h3.4421875v-.8296875h-4.628125v.8296875c.37395833.3875.88385417.90729167 1.5296875 1.559375.646875.653125 1.053125 1.07447917 1.21875 1.2640625.315625.35416667.5359375.65416667.6609375.9.12604167.24583333.1890625.4875.1890625.725 0 .3875-.1359375.703125-.4078125.946875-.271875.24479167-.62604167.3671875-1.0625.3671875-.309375 0-.6359375-.05364583-.9796875-.1609375-.34270833-.10729167-.709375-.2703125-1.1-.4890625v.996875c.396875.159375.76770833.2796875 1.1125.3609375.34583333.08125.66197917.121875.9484375.121875.75520833 0 1.35729167-.1890625 1.80625-.5671875.44895833-.37708333.6734375-.88125.6734375-1.5125 0-.3-.05625-.584375-.16875-.853125-.11145833-.26770833-.315625-.58385417-.6125-.9484375-.08125-.09479167-.34010417-.36770833-.7765625-.81875-.43541667-.45104167-1.05052083-1.08177083-1.8453125-1.8921875z" transform="translate(0 .142)"/><path d="m2.51875 6.7828125c-.50729167 0-.8890625-.25-1.1453125-.75-.25520833-.49895833-.3828125-1.25-.3828125-2.253125 0-.99895833.12760417-1.7484375.3828125-2.2484375.25625-.5.63802083-.75 1.1453125-.75.51145833 0 .89479167.25 1.15.75.25625.5.384375 1.24947917.384375 2.2484375 0 1.003125-.128125 1.75416667-.384375 2.253125-.25520833.5-.63854167.75-1.15.75zm0 .78125c.81770833 0 1.4421875-.3234375 1.8734375-.9703125.43125-.64583333.646875-1.58385417.646875-2.8140625 0-1.22708333-.215625-2.1640625-.646875-2.8109375-.43125-.64583333-1.05572917-.96875-1.8734375-.96875-.81666667 0-1.440625.32291667-1.871875.96875-.43125.646875-.646875 1.58385417-.646875 2.8109375 0 1.23020833.215625 2.16822917.646875 2.8140625.43125.646875 1.05520833.9703125 1.871875.9703125z" transform="translate(6.289)"/><path d="m.142.83h1.611v5.562l-1.753-.351v.898l1.744.352h.986v-6.461h1.611v-.83h-4.199z" transform="translate(13.09 .142)"/><path d="m.46875.29375v.8984375c.24791667-.11770833.4984375-.20729167.7515625-.26875.25416667-.06145833.50364583-.0921875.7484375-.0921875.65104167 0 1.14791667.21875 1.490625.65625.34375.4375.54010417 1.10260417.5890625 1.9953125-.18854167-.28020833-.428125-.4953125-.71875-.6453125-.28958333-.15-.60989583-.225-.9609375-.225-.72916667 0-1.30625.2203125-1.73125.6609375-.425.44166667-.6375 1.0453125-.6375 1.8109375 0 .74791667.22135417 1.34791667.6640625 1.8.44270833.453125 1.03177083.6796875 1.7671875.6796875.84375 0 1.4875-.3234375 1.93125-.9703125.44479167-.64583333.6671875-1.58385417.6671875-2.8140625 0-1.14895833-.27291667-2.06614583-.81875-2.7515625-.54479167-.68541667-1.27760417-1.028125-2.1984375-1.028125-.24791667 0-.49895833.02447917-.753125.0734375-.253125.04895833-.51666667.12239583-.790625.2203125zm1.9625 3.090625c.44270833 0 .79322917.15104167 1.0515625.453125.259375.303125.3890625.71875.3890625 1.246875 0 .52395833-.1296875.93802083-.3890625 1.2421875-.25833333.30416667-.60885417.45625-1.0515625.45625s-.79322917-.15208333-1.0515625-.45625-.3875-.71822917-.3875-1.2421875c0-.528125.12916667-.94375.3875-1.246875.25833333-.30208333.60885417-.453125 1.0515625-.453125z" transform="translate(18.984)"/></g><path d="m208.239 384.479v-332.64" stroke="#b0b0b0" stroke-dasharray="2.96 1.28" stroke-opacity=".5" stroke-width=".8"/><path d="m208.239 384.479v3.5" fill="#000" fill-rule="nonzero" stroke="#000" stroke-width=".8"/><g fill="#000" fill-rule="nonzero" transform="matrix(1 0 0 -1 196.247 399.219)"><path d="m1.1859375.8296875h3.4421875v-.8296875h-4.628125v.8296875c.37395833.3875.88385417.90729167 1.5296875 1.559375.646875.653125 1.053125 1.07447917 1.21875 1.2640625.315625.35416667.5359375.65416667.6609375.9.12604167.24583333.1890625.4875.1890625.725 0 .3875-.1359375.703125-.4078125.946875-.271875.24479167-.62604167.3671875-1.0625.3671875-.309375 0-.6359375-.05364583-.9796875-.1609375-.34270833-.10729167-.709375-.2703125-1.1-.4890625v.996875c.396875.159375.76770833.2796875 1.1125.3609375.34583333.08125.66197917.121875.9484375.121875.75520833 0 1.35729167-.1890625 1.80625-.5671875.44895833-.37708333.6734375-.88125.6734375-1.5125 0-.3-.05625-.584375-.16875-.853125-.11145833-.26770833-.315625-.58385417-.6125-.9484375-.08125-.09479167-.34010417-.36770833-.7765625-.81875-.43541667-.45104167-1.05052083-1.08177083-1.8453125-1.8921875z" transform="translate(0 .142)"/><path d="m2.51875 6.7828125c-.50729167 0-.8890625-.25-1.1453125-.75-.25520833-.49895833-.3828125-1.25-.3828125-2.253125 0-.99895833.12760417-1.7484375.3828125-2.2484375.25625-.5.63802083-.75 1.1453125-.75.51145833 0 .89479167.25 1.15.75.25625.5.384375 1.24947917.384375 2.2484375 0 1.003125-.128125 1.75416667-.384375 2.253125-.25520833.5-.63854167.75-1.15.75zm0 .78125c.81770833 0 1.4421875-.3234375 1.8734375-.9703125.43125-.64583333.646875-1.58385417.646875-2.8140625 0-1.22708333-.215625-2.1640625-.646875-2.8109375-.43125-.64583333-1.05572917-.96875-1.8734375-.96875-.81666667 0-1.440625.32291667-1.871875.96875-.43125.646875-.646875 1.58385417-.646875 2.8109375 0 1.23020833.215625 2.16822917.646875 2.8140625.43125.646875 1.05520833.9703125 1.871875.9703125z" transform="translate(6.289)"/><path d="m1.1859375.8296875h3.4421875v-.8296875h-4.628125v.8296875c.37395833.3875.88385417.90729167 1.5296875 1.559375.646875.653125 1.053125 1.07447917 1.21875 1.2640625.315625.35416667.5359375.65416667.6609375.9.12604167.24583333.1890625.4875.1890625.725 0 .3875-.1359375.703125-.4078125.946875-.271875.24479167-.62604167.3671875-1.0625.3671875-.309375 0-.6359375-.05364583-.9796875-.1609375-.34270833-.10729167-.709375-.2703125-1.1-.4890625v.996875c.396875.159375.76770833.2796875 1.1125.3609375.34583333.08125.66197917.121875.9484375.121875.75520833 0 1.35729167-.1890625 1.80625-.5671875.44895833-.37708333.6734375-.88125.6734375-1.5125 0-.3-.05625-.584375-.16875-.853125-.11145833-.26770833-.315625-.58385417-.6125-.9484375-.08125-.09479167-.34010417-.36770833-.7765625-.81875-.43541667-.45104167-1.05052083-1.08177083-1.8453125-1.8921875z" transform="translate(12.725 .142)"/><path d="m2.51875 6.7828125c-.50729167 0-.8890625-.25-1.1453125-.75-.25520833-.49895833-.3828125-1.25-.3828125-2.253125 0-.99895833.12760417-1.7484375.3828125-2.2484375.25625-.5.63802083-.75 1.1453125-.75.51145833 0 .89479167.25 1.15.75.25625.5.384375 1.24947917.384375 2.2484375 0 1.003125-.128125 1.75416667-.384375 2.253125-.25520833.5-.63854167.75-1.15.75zm0 .78125c.81770833 0 1.4421875-.3234375 1.8734375-.9703125.43125-.64583333.646875-1.58385417.646875-2.8140625 0-1.22708333-.215625-2.1640625-.646875-2.8109375-.43125-.64583333-1.05572917-.96875-1.8734375-.96875-.81666667 0-1.440625.32291667-1.871875.96875-.43125.646875-.646875 1.58385417-.646875 2.8109375 0 1.23020833.215625 2.16822917.646875 2.8140625.43125.646875 1.05520833.9703125 1.871875.9703125z" transform="translate(19.014)"/></g><path d="m266.213 384.479v-332.64" stroke="#b0b0b0" stroke-dasharray="2.96 1.28" stroke-opacity=".5" stroke-width=".8"/><path d="m266.213 384.479v3.5" fill="#000" fill-rule="nonzero" stroke="#000" stroke-width=".8"/><g fill="#000" fill-rule="nonzero" transform="matrix(1 0 0 -1 254.221 399.219)"><path d="m1.1859375.8296875h3.4421875v-.8296875h-4.628125v.8296875c.37395833.3875.88385417.90729167 1.5296875 1.559375.646875.653125 1.053125 1.07447917 1.21875 1.2640625.315625.35416667.5359375.65416667.6609375.9.12604167.24583333.1890625.4875.1890625.725 0 .3875-.1359375.703125-.4078125.946875-.271875.24479167-.62604167.3671875-1.0625.3671875-.309375 0-.6359375-.05364583-.9796875-.1609375-.34270833-.10729167-.709375-.2703125-1.1-.4890625v.996875c.396875.159375.76770833.2796875 1.1125.3609375.34583333.08125.66197917.121875.9484375.121875.75520833 0 1.35729167-.1890625 1.80625-.5671875.44895833-.37708333.6734375-.88125.6734375-1.5125 0-.3-.05625-.584375-.16875-.853125-.11145833-.26770833-.315625-.58385417-.6125-.9484375-.08125-.09479167-.34010417-.36770833-.7765625-.81875-.43541667-.45104167-1.05052083-1.08177083-1.8453125-1.8921875z" transform="translate(0 .142)"/><path d="m2.51875 6.7828125c-.50729167 0-.8890625-.25-1.1453125-.75-.25520833-.49895833-.3828125-1.25-.3828125-2.253125 0-.99895833.12760417-1.7484375.3828125-2.2484375.25625-.5.63802083-.75 1.1453125-.75.51145833 0 .89479167.25 1.15.75.25625.5.384375 1.24947917.384375 2.2484375 0 1.003125-.128125 1.75416667-.384375 2.253125-.25520833.5-.63854167.75-1.15.75zm0 .78125c.81770833 0 1.4421875-.3234375 1.8734375-.9703125.43125-.64583333.646875-1.58385417.646875-2.8140625 0-1.22708333-.215625-2.1640625-.646875-2.8109375-.43125-.64583333-1.05572917-.96875-1.8734375-.96875-.81666667 0-1.440625.32291667-1.871875.96875-.43125.646875-.646875 1.58385417-.646875 2.8109375 0 1.23020833.215625 2.16822917.646875 2.8140625.43125.646875 1.05520833.9703125 1.871875.9703125z" transform="translate(6.289)"/><path d="m1.1859375.8296875h3.4421875v-.8296875h-4.628125v.8296875c.37395833.3875.88385417.90729167 1.5296875 1.559375.646875.653125 1.053125 1.07447917 1.21875 1.2640625.315625.35416667.5359375.65416667.6609375.9.12604167.24583333.1890625.4875.1890625.725 0 .3875-.1359375.703125-.4078125.946875-.271875.24479167-.62604167.3671875-1.0625.3671875-.309375 0-.6359375-.05364583-.9796875-.1609375-.34270833-.10729167-.709375-.2703125-1.1-.4890625v.996875c.396875.159375.76770833.2796875 1.1125.3609375.34583333.08125.66197917.121875.9484375.121875.75520833 0 1.35729167-.1890625 1.80625-.5671875.44895833-.37708333.6734375-.88125.6734375-1.5125 0-.3-.05625-.584375-.16875-.853125-.11145833-.26770833-.315625-.58385417-.6125-.9484375-.08125-.09479167-.34010417-.36770833-.7765625-.81875-.43541667-.45104167-1.05052083-1.08177083-1.8453125-1.8921875z" transform="translate(12.725 .142)"/><path d="m.142.83h1.611v5.562l-1.753-.351v.898l1.744.352h.986v-6.461h1.611v-.83h-4.199z" transform="translate(19.453 .142)"/></g><path d="m324.187 384.479v-332.64" stroke="#b0b0b0" stroke-dasharray="2.96 1.28" stroke-opacity=".5" stroke-width=".8"/><path d="m324.187 384.479v3.5" fill="#000" fill-rule="nonzero" stroke="#000" stroke-width=".8"/><g fill="#000" fill-rule="nonzero" transform="matrix(1 0 0 -1 312.195 399.219)"><path d="m1.1859375.8296875h3.4421875v-.8296875h-4.628125v.8296875c.37395833.3875.88385417.90729167 1.5296875 1.559375.646875.653125 1.053125 1.07447917 1.21875 1.2640625.315625.35416667.5359375.65416667.6609375.9.12604167.24583333.1890625.4875.1890625.725 0 .3875-.1359375.703125-.4078125.946875-.271875.24479167-.62604167.3671875-1.0625.3671875-.309375 0-.6359375-.05364583-.9796875-.1609375-.34270833-.10729167-.709375-.2703125-1.1-.4890625v.996875c.396875.159375.76770833.2796875 1.1125.3609375.34583333.08125.66197917.121875.9484375.121875.75520833 0 1.35729167-.1890625 1.80625-.5671875.44895833-.37708333.6734375-.88125.6734375-1.5125 0-.3-.05625-.584375-.16875-.853125-.11145833-.26770833-.315625-.58385417-.6125-.9484375-.08125-.09479167-.34010417-.36770833-.7765625-.81875-.43541667-.45104167-1.05052083-1.08177083-1.8453125-1.8921875z" transform="translate(0 .142)"/><path d="m2.51875 6.7828125c-.50729167 0-.8890625-.25-1.1453125-.75-.25520833-.49895833-.3828125-1.25-.3828125-2.253125 0-.99895833.12760417-1.7484375.3828125-2.2484375.25625-.5.63802083-.75 1.1453125-.75.51145833 0 .89479167.25 1.15.75.25625.5.384375 1.24947917.384375 2.2484375 0 1.003125-.128125 1.75416667-.384375 2.253125-.25520833.5-.63854167.75-1.15.75zm0 .78125c.81770833 0 1.4421875-.3234375 1.8734375-.9703125.43125-.64583333.646875-1.58385417.646875-2.8140625 0-1.22708333-.215625-2.1640625-.646875-2.8109375-.43125-.64583333-1.05572917-.96875-1.8734375-.96875-.81666667 0-1.440625.32291667-1.871875.96875-.43125.646875-.646875 1.58385417-.646875 2.8109375 0 1.23020833.215625 2.16822917.646875 2.8140625.43125.646875 1.05520833.9703125 1.871875.9703125z" transform="translate(6.289)"/><path d="m1.1859375.8296875h3.4421875v-.8296875h-4.628125v.8296875c.37395833.3875.88385417.90729167 1.5296875 1.559375.646875.653125 1.053125 1.07447917 1.21875 1.2640625.315625.35416667.5359375.65416667.6609375.9.12604167.24583333.1890625.4875.1890625.725 0 .3875-.1359375.703125-.4078125.946875-.271875.24479167-.62604167.3671875-1.0625.3671875-.309375 0-.6359375-.05364583-.9796875-.1609375-.34270833-.10729167-.709375-.2703125-1.1-.4890625v.996875c.396875.159375.76770833.2796875 1.1125.3609375.34583333.08125.66197917.121875.9484375.121875.75520833 0 1.35729167-.1890625 1.80625-.5671875.44895833-.37708333.6734375-.88125.6734375-1.5125 0-.3-.05625-.584375-.16875-.853125-.11145833-.26770833-.315625-.58385417-.6125-.9484375-.08125-.09479167-.34010417-.36770833-.7765625-.81875-.43541667-.45104167-1.05052083-1.08177083-1.8453125-1.8921875z" transform="translate(12.725 .142)"/><path d="m1.1859375.8296875h3.4421875v-.8296875h-4.628125v.8296875c.37395833.3875.88385417.90729167 1.5296875 1.559375.646875.653125 1.053125 1.07447917 1.21875 1.2640625.315625.35416667.5359375.65416667.6609375.9.12604167.24583333.1890625.4875.1890625.725 0 .3875-.1359375.703125-.4078125.946875-.271875.24479167-.62604167.3671875-1.0625.3671875-.309375 0-.6359375-.05364583-.9796875-.1609375-.34270833-.10729167-.709375-.2703125-1.1-.4890625v.996875c.396875.159375.76770833.2796875 1.1125.3609375.34583333.08125.66197917.121875.9484375.121875.75520833 0 1.35729167-.1890625 1.80625-.5671875.44895833-.37708333.6734375-.88125.6734375-1.5125 0-.3-.05625-.584375-.16875-.853125-.11145833-.26770833-.315625-.58385417-.6125-.9484375-.08125-.09479167-.34010417-.36770833-.7765625-.81875-.43541667-.45104167-1.05052083-1.08177083-1.8453125-1.8921875z" transform="translate(19.087 .142)"/></g><path d="m382.161 384.479v-332.64" stroke="#b0b0b0" stroke-dasharray="2.96 1.28" stroke-opacity=".5" stroke-width=".8"/><path d="m382.161 384.479v3.5" fill="#000" fill-rule="nonzero" stroke="#000" stroke-width=".8"/><g fill="#000" fill-rule="nonzero" transform="matrix(1 0 0 -1 370.169 399.219)"><path d="m1.1859375.8296875h3.4421875v-.8296875h-4.628125v.8296875c.37395833.3875.88385417.90729167 1.5296875 1.559375.646875.653125 1.053125 1.07447917 1.21875 1.2640625.315625.35416667.5359375.65416667.6609375.9.12604167.24583333.1890625.4875.1890625.725 0 .3875-.1359375.703125-.4078125.946875-.271875.24479167-.62604167.3671875-1.0625.3671875-.309375 0-.6359375-.05364583-.9796875-.1609375-.34270833-.10729167-.709375-.2703125-1.1-.4890625v.996875c.396875.159375.76770833.2796875 1.1125.3609375.34583333.08125.66197917.121875.9484375.121875.75520833 0 1.35729167-.1890625 1.80625-.5671875.44895833-.37708333.6734375-.88125.6734375-1.5125 0-.3-.05625-.584375-.16875-.853125-.11145833-.26770833-.315625-.58385417-.6125-.9484375-.08125-.09479167-.34010417-.36770833-.7765625-.81875-.43541667-.45104167-1.05052083-1.08177083-1.8453125-1.8921875z" transform="translate(0 .142)"/><path d="m2.51875 6.7828125c-.50729167 0-.8890625-.25-1.1453125-.75-.25520833-.49895833-.3828125-1.25-.3828125-2.253125 0-.99895833.12760417-1.7484375.3828125-2.2484375.25625-.5.63802083-.75 1.1453125-.75.51145833 0 .89479167.25 1.15.75.25625.5.384375 1.24947917.384375 2.2484375 0 1.003125-.128125 1.75416667-.384375 2.253125-.25520833.5-.63854167.75-1.15.75zm0 .78125c.81770833 0 1.4421875-.3234375 1.8734375-.9703125.43125-.64583333.646875-1.58385417.646875-2.8140625 0-1.22708333-.215625-2.1640625-.646875-2.8109375-.43125-.64583333-1.05572917-.96875-1.8734375-.96875-.81666667 0-1.440625.32291667-1.871875.96875-.43125.646875-.646875 1.58385417-.646875 2.8109375 0 1.23020833.215625 2.16822917.646875 2.8140625.43125.646875 1.05520833.9703125 1.871875.9703125z" transform="translate(6.289)"/><path d="m1.1859375.8296875h3.4421875v-.8296875h-4.628125v.8296875c.37395833.3875.88385417.90729167 1.5296875 1.559375.646875.653125 1.053125 1.07447917 1.21875 1.2640625.315625.35416667.5359375.65416667.6609375.9.12604167.24583333.1890625.4875.1890625.725 0 .3875-.1359375.703125-.4078125.946875-.271875.24479167-.62604167.3671875-1.0625.3671875-.309375 0-.6359375-.05364583-.9796875-.1609375-.34270833-.10729167-.709375-.2703125-1.1-.4890625v.996875c.396875.159375.76770833.2796875 1.1125.3609375.34583333.08125.66197917.121875.9484375.121875.75520833 0 1.35729167-.1890625 1.80625-.5671875.44895833-.37708333.6734375-.88125.6734375-1.5125 0-.3-.05625-.584375-.16875-.853125-.11145833-.26770833-.315625-.58385417-.6125-.9484375-.08125-.09479167-.34010417-.36770833-.7765625-.81875-.43541667-.45104167-1.05052083-1.08177083-1.8453125-1.8921875z" transform="translate(12.725 .142)"/><path d="m3.2953125 4.0734375c.471875-.10104167.84010417-.31145833 1.1046875-.63125.265625-.31875.3984375-.7125.3984375-1.18125 0-.71875-.24739583-1.27552083-.7421875-1.6703125-.49479167-.39375-1.19791667-.590625-2.109375-.590625-.30520833 0-.61979167.03020833-.94375.090625s-.65833333.15104167-1.003125.271875v.9515625c.27291667-.159375.571875-.2796875.896875-.3609375.32604167-.08125.66666667-.121875 1.021875-.121875.61770833 0 1.08854167.121875 1.4125.365625s.4859375.5984375.4859375 1.0640625c0 .43020833-.15052083.76614583-.4515625 1.0078125-.30104167.24270833-.71979167.3640625-1.25625.3640625h-.85v.8109375h.8890625c.484375 0 .85520833.096875 1.1125.290625s.3859375.47291667.3859375.8375c0 .37395833-.1328125.6609375-.3984375.8609375-.26458333.20104167-.64427083.3015625-1.1390625.3015625-.27083333 0-.5609375-.0296875-.8703125-.0890625-.309375-.05833333-.64947917-.14895833-1.0203125-.271875v.878125c.375.10416667.72604167.18229167 1.053125.234375s.63541667.078125.925.078125c.74895833 0 1.34114583-.1703125 1.7765625-.5109375.43645833-.33958333.6546875-.79895833.6546875-1.378125 0-.40416667-.115625-.7453125-.346875-1.0234375s-.55989583-.47083333-.9859375-.578125z" transform="translate(19.117)"/></g><path d="m440.135 384.479v-332.64" stroke="#b0b0b0" stroke-dasharray="2.96 1.28" stroke-opacity=".5" stroke-width=".8"/><path d="m440.135 384.479v3.5" fill="#000" fill-rule="nonzero" stroke="#000" stroke-width=".8"/><g fill="#000" fill-rule="nonzero" transform="matrix(1 0 0 -1 428.143 399.219)"><path d="m1.1859375.8296875h3.4421875v-.8296875h-4.628125v.8296875c.37395833.3875.88385417.90729167 1.5296875 1.559375.646875.653125 1.053125 1.07447917 1.21875 1.2640625.315625.35416667.5359375.65416667.6609375.9.12604167.24583333.1890625.4875.1890625.725 0 .3875-.1359375.703125-.4078125.946875-.271875.24479167-.62604167.3671875-1.0625.3671875-.309375 0-.6359375-.05364583-.9796875-.1609375-.34270833-.10729167-.709375-.2703125-1.1-.4890625v.996875c.396875.159375.76770833.2796875 1.1125.3609375.34583333.08125.66197917.121875.9484375.121875.75520833 0 1.35729167-.1890625 1.80625-.5671875.44895833-.37708333.6734375-.88125.6734375-1.5125 0-.3-.05625-.584375-.16875-.853125-.11145833-.26770833-.315625-.58385417-.6125-.9484375-.08125-.09479167-.34010417-.36770833-.7765625-.81875-.43541667-.45104167-1.05052083-1.08177083-1.8453125-1.8921875z" transform="translate(0 .142)"/><path d="m2.51875 6.7828125c-.50729167 0-.8890625-.25-1.1453125-.75-.25520833-.49895833-.3828125-1.25-.3828125-2.253125 0-.99895833.12760417-1.7484375.3828125-2.2484375.25625-.5.63802083-.75 1.1453125-.75.51145833 0 .89479167.25 1.15.75.25625.5.384375 1.24947917.384375 2.2484375 0 1.003125-.128125 1.75416667-.384375 2.253125-.25520833.5-.63854167.75-1.15.75zm0 .78125c.81770833 0 1.4421875-.3234375 1.8734375-.9703125.43125-.64583333.646875-1.58385417.646875-2.8140625 0-1.22708333-.215625-2.1640625-.646875-2.8109375-.43125-.64583333-1.05572917-.96875-1.8734375-.96875-.81666667 0-1.440625.32291667-1.871875.96875-.43125.646875-.646875 1.58385417-.646875 2.8109375 0 1.23020833.215625 2.16822917.646875 2.8140625.43125.646875 1.05520833.9703125 1.871875.9703125z" transform="translate(6.289)"/><path d="m1.1859375.8296875h3.4421875v-.8296875h-4.628125v.8296875c.37395833.3875.88385417.90729167 1.5296875 1.559375.646875.653125 1.053125 1.07447917 1.21875 1.2640625.315625.35416667.5359375.65416667.6609375.9.12604167.24583333.1890625.4875.1890625.725 0 .3875-.1359375.703125-.4078125.946875-.271875.24479167-.62604167.3671875-1.0625.3671875-.309375 0-.6359375-.05364583-.9796875-.1609375-.34270833-.10729167-.709375-.2703125-1.1-.4890625v.996875c.396875.159375.76770833.2796875 1.1125.3609375.34583333.08125.66197917.121875.9484375.121875.75520833 0 1.35729167-.1890625 1.80625-.5671875.44895833-.37708333.6734375-.88125.6734375-1.5125 0-.3-.05625-.584375-.16875-.853125-.11145833-.26770833-.315625-.58385417-.6125-.9484375-.08125-.09479167-.34010417-.36770833-.7765625-.81875-.43541667-.45104167-1.05052083-1.08177083-1.8453125-1.8921875z" transform="translate(12.725 .142)"/><path d="m3.290625 6.43125-2.490625-3.8921875h2.490625zm-.259375.859375h1.240625v-4.7515625h1.040625v-.8203125h-1.040625v-1.71875h-.98125v1.71875h-3.290625v.9515625z" transform="translate(18.843 .142)"/></g><path d="m498.109 384.479v-332.64" stroke="#b0b0b0" stroke-dasharray="2.96 1.28" stroke-opacity=".5" stroke-width=".8"/><path d="m498.109 384.479v3.5" fill="#000" fill-rule="nonzero" stroke="#000" stroke-width=".8"/><g fill="#000" fill-rule="nonzero" transform="matrix(1 0 0 -1 486.117 399.219)"><path d="m1.1859375.8296875h3.4421875v-.8296875h-4.628125v.8296875c.37395833.3875.88385417.90729167 1.5296875 1.559375.646875.653125 1.053125 1.07447917 1.21875 1.2640625.315625.35416667.5359375.65416667.6609375.9.12604167.24583333.1890625.4875.1890625.725 0 .3875-.1359375.703125-.4078125.946875-.271875.24479167-.62604167.3671875-1.0625.3671875-.309375 0-.6359375-.05364583-.9796875-.1609375-.34270833-.10729167-.709375-.2703125-1.1-.4890625v.996875c.396875.159375.76770833.2796875 1.1125.3609375.34583333.08125.66197917.121875.9484375.121875.75520833 0 1.35729167-.1890625 1.80625-.5671875.44895833-.37708333.6734375-.88125.6734375-1.5125 0-.3-.05625-.584375-.16875-.853125-.11145833-.26770833-.315625-.58385417-.6125-.9484375-.08125-.09479167-.34010417-.36770833-.7765625-.81875-.43541667-.45104167-1.05052083-1.08177083-1.8453125-1.8921875z" transform="translate(0 .142)"/><path d="m2.51875 6.7828125c-.50729167 0-.8890625-.25-1.1453125-.75-.25520833-.49895833-.3828125-1.25-.3828125-2.253125 0-.99895833.12760417-1.7484375.3828125-2.2484375.25625-.5.63802083-.75 1.1453125-.75.51145833 0 .89479167.25 1.15.75.25625.5.384375 1.24947917.384375 2.2484375 0 1.003125-.128125 1.75416667-.384375 2.253125-.25520833.5-.63854167.75-1.15.75zm0 .78125c.81770833 0 1.4421875-.3234375 1.8734375-.9703125.43125-.64583333.646875-1.58385417.646875-2.8140625 0-1.22708333-.215625-2.1640625-.646875-2.8109375-.43125-.64583333-1.05572917-.96875-1.8734375-.96875-.81666667 0-1.440625.32291667-1.871875.96875-.43125.646875-.646875 1.58385417-.646875 2.8109375 0 1.23020833.215625 2.16822917.646875 2.8140625.43125.646875 1.05520833.9703125 1.871875.9703125z" transform="translate(6.289)"/><path d="m1.1859375.8296875h3.4421875v-.8296875h-4.628125v.8296875c.37395833.3875.88385417.90729167 1.5296875 1.559375.646875.653125 1.053125 1.07447917 1.21875 1.2640625.315625.35416667.5359375.65416667.6609375.9.12604167.24583333.1890625.4875.1890625.725 0 .3875-.1359375.703125-.4078125.946875-.271875.24479167-.62604167.3671875-1.0625.3671875-.309375 0-.6359375-.05364583-.9796875-.1609375-.34270833-.10729167-.709375-.2703125-1.1-.4890625v.996875c.396875.159375.76770833.2796875 1.1125.3609375.34583333.08125.66197917.121875.9484375.121875.75520833 0 1.35729167-.1890625 1.80625-.5671875.44895833-.37708333.6734375-.88125.6734375-1.5125 0-.3-.05625-.584375-.16875-.853125-.11145833-.26770833-.315625-.58385417-.6125-.9484375-.08125-.09479167-.34010417-.36770833-.7765625-.81875-.43541667-.45104167-1.05052083-1.08177083-1.8453125-1.8921875z" transform="translate(12.725 .142)"/><path d="m.3078125 7.4328125h3.871875v-.83125h-2.96875v-1.7859375c.14270833.04895833.28541667.08541667.428125.109375.14375.02395833.2875.0359375.43125.0359375.81354167 0 1.4578125-.22291667 1.9328125-.66875.47604167-.44583333.7140625-1.04947917.7140625-1.8109375 0-.784375-.24427083-1.39427083-.7328125-1.8296875-.48854167-.434375-1.17708333-.6515625-2.065625-.6515625-.30625 0-.61822917.02604167-.9359375.078125-.31666667.05208333-.64427083.13020833-.9828125.234375v.9921875c.29270833-.159375.5953125-.278125.9078125-.35625s.64270833-.1171875.990625-.1171875c.56354167 0 1.009375.14791667 1.3375.44375.32916667.29583333.49375.69791667.49375 1.20625 0 .50729167-.16458333.90885417-.49375 1.2046875-.328125.296875-.77395833.4453125-1.3375.4453125-.26354167 0-.5265625-.02916667-.7890625-.0875-.26145833-.05833333-.52864583-.14947917-.8015625-.2734375z" transform="translate(19.126)"/></g><g fill="#000" fill-rule="nonzero" transform="matrix(1 0 0 -1 280.349 415.994)"><path d="m0 10.207h1.485l2.829-4.198 2.811 4.198h1.483l-3.61-5.346v-4.861h-1.386v4.861z" transform="translate(0 .2)"/><path d="m7.09625 4.3421875v-.6146875h-5.78375c.05541667-.86625.31645833-1.52614583.783125-1.9796875s1.11708333-.6803125 1.95125-.6803125c.48270833 0 .95083333.0590625 1.404375.1771875s.90416667.29604167 1.351875.53375v-1.19c-.45208333-.19104167-.91510417-.336875-1.3890625-.4375s-.95447917-.1509375-1.4415625-.1509375c-1.22208333 0-2.1896875.35510417-2.9028125 1.0653125-.713125.71166667-1.0696875 1.67416667-1.0696875 2.8875 0 1.25270833.33833333 2.2465625 1.015 2.9815625.67666667.73645833 1.58958333 1.1046875 2.73875 1.1046875 1.02958333 0 1.8440625-.33177083 2.4434375-.9953125.599375-.66208333.8990625-1.56260417.8990625-2.7015625zm-1.2578125.3696875c-.00875.686875-.20125 1.23520833-.5775 1.645-.37625.41125-.87427083.616875-1.4940625.616875-.70145833 0-1.26291667-.19833333-1.684375-.595s-.66427083-.95520833-.7284375-1.675625z" transform="translate(7.497)"/><path d="m3.959375 4.046875c-1.01645833 0-1.72083333-.1159375-2.113125-.3478125s-.5884375-.62854167-.5884375-1.19c0-.44625.14729167-.800625.441875-1.063125.29458333-.26104167.69416667-.3915625 1.19875-.3915625.69854167 0 1.25854167.2471875 1.68.7415625s.6321875 1.15135417.6321875 1.9709375v.28zm2.5090625.520625v-4.3684375h-1.2578125v1.1615625c-.28729167-.46375-.6453125-.80645833-1.0740625-1.028125-.42875-.22166667-.95302083-.3325-1.5728125-.3325-.783125 0-1.4065625.22020833-1.8703125.660625-.46229167.44041667-.6934375 1.02958333-.6934375 1.7675 0 .86041667.28802083 1.509375.8640625 1.946875.5775.4375 1.43791667.65625 2.58125.65625h1.7653125v.1246875c0 .57895833-.1903125 1.02666667-.5709375 1.343125s-.91510417.4746875-1.6034375.4746875c-.4375 0-.8640625-.0525-1.2796875-.1575-.41416667-.105-.81229167-.2625-1.194375-.4725v1.16375c.459375.17791667.905625.310625 1.33875.398125.433125.08895833.85458333.1334375 1.264375.1334375 1.10833333 0 1.9359375-.28729167 2.4828125-.861875.546875-.573125.8203125-1.44302083.8203125-2.6096875z" transform="translate(16.178)"/><path d="m4.484375 6.4815625c-.14145833.08166667-.2953125.14145833-.4615625.179375-.16625.039375-.34927083.0590625-.5490625.0590625-.71166667 0-1.2578125-.23114583-1.6384375-.6934375s-.5709375-1.1265625-.5709375-1.9928125v-4.03375h-1.264375v7.65625h1.264375v-1.19c.26541667.46520833.60958333.81010417 1.0325 1.0346875.424375.22604167.93989583.3390625 1.5465625.3390625.08604167 0 .1815625-.00583333.2865625-.0175.105-.01020833.2209375-.02697917.3478125-.0503125z" transform="translate(25.189 .2)"/></g><path d="m72 343.53h446.4" stroke="#b0b0b0" stroke-dasharray="2.96 1.28" stroke-opacity=".5" stroke-width=".8"/><path d="m72 343.53h-3.5" fill="#000" fill-rule="nonzero" stroke="#000" stroke-width=".8"/><g fill="#000" fill-rule="nonzero" transform="matrix(1 0 0 -1 53.008 347.471)"><path d="m1.1859375.8296875h3.4421875v-.8296875h-4.628125v.8296875c.37395833.3875.88385417.90729167 1.5296875 1.559375.646875.653125 1.053125 1.07447917 1.21875 1.2640625.315625.35416667.5359375.65416667.6609375.9.12604167.24583333.1890625.4875.1890625.725 0 .3875-.1359375.703125-.4078125.946875-.271875.24479167-.62604167.3671875-1.0625.3671875-.309375 0-.6359375-.05364583-.9796875-.1609375-.34270833-.10729167-.709375-.2703125-1.1-.4890625v.996875c.396875.159375.76770833.2796875 1.1125.3609375.34583333.08125.66197917.121875.9484375.121875.75520833 0 1.35729167-.1890625 1.80625-.5671875.44895833-.37708333.6734375-.88125.6734375-1.5125 0-.3-.05625-.584375-.16875-.853125-.11145833-.26770833-.315625-.58385417-.6125-.9484375-.08125-.09479167-.34010417-.36770833-.7765625-.81875-.43541667-.45104167-1.05052083-1.08177083-1.8453125-1.8921875z" transform="translate(0 .142)"/><path d="m2.51875 6.7828125c-.50729167 0-.8890625-.25-1.1453125-.75-.25520833-.49895833-.3828125-1.25-.3828125-2.253125 0-.99895833.12760417-1.7484375.3828125-2.2484375.25625-.5.63802083-.75 1.1453125-.75.51145833 0 .89479167.25 1.15.75.25625.5.384375 1.24947917.384375 2.2484375 0 1.003125-.128125 1.75416667-.384375 2.253125-.25520833.5-.63854167.75-1.15.75zm0 .78125c.81770833 0 1.4421875-.3234375 1.8734375-.9703125.43125-.64583333.646875-1.58385417.646875-2.8140625 0-1.22708333-.215625-2.1640625-.646875-2.8109375-.43125-.64583333-1.05572917-.96875-1.8734375-.96875-.81666667 0-1.440625.32291667-1.871875.96875-.43125.646875-.646875 1.58385417-.646875 2.8109375 0 1.23020833.215625 2.16822917.646875 2.8140625.43125.646875 1.05520833.9703125 1.871875.9703125z" transform="translate(6.289)"/></g><path d="m71.999 291.347h446.4" stroke="#b0b0b0" stroke-dasharray="2.96 1.28" stroke-opacity=".5" stroke-width=".8"/><path d="m71.999 291.347h-3.5" fill="#000" fill-rule="nonzero" stroke="#000" stroke-width=".8"/><g fill="#000" fill-rule="nonzero" transform="matrix(1 0 0 -1 52.763 295.288)"><path d="m3.290625 6.43125-2.490625-3.8921875h2.490625zm-.259375.859375h1.240625v-4.7515625h1.040625v-.8203125h-1.040625v-1.71875h-.98125v1.71875h-3.290625v.9515625z" transform="translate(0 .142)"/><path d="m2.51875 6.7828125c-.50729167 0-.8890625-.25-1.1453125-.75-.25520833-.49895833-.3828125-1.25-.3828125-2.253125 0-.99895833.12760417-1.7484375.3828125-2.2484375.25625-.5.63802083-.75 1.1453125-.75.51145833 0 .89479167.25 1.15.75.25625.5.384375 1.24947917.384375 2.2484375 0 1.003125-.128125 1.75416667-.384375 2.253125-.25520833.5-.63854167.75-1.15.75zm0 .78125c.81770833 0 1.4421875-.3234375 1.8734375-.9703125.43125-.64583333.646875-1.58385417.646875-2.8140625 0-1.22708333-.215625-2.1640625-.646875-2.8109375-.43125-.64583333-1.05572917-.96875-1.8734375-.96875-.81666667 0-1.440625.32291667-1.871875.96875-.43125.646875-.646875 1.58385417-.646875 2.8109375 0 1.23020833.215625 2.16822917.646875 2.8140625.43125.646875 1.05520833.9703125 1.871875.9703125z" transform="translate(6.533)"/></g><path d="m72 239.164h446.4" stroke="#b0b0b0" stroke-dasharray="2.96 1.28" stroke-opacity=".5" stroke-width=".8"/><path d="m72 239.164h-3.5" fill="#000" fill-rule="nonzero" stroke="#000" stroke-width=".8"/><g fill="#000" fill-rule="nonzero" transform="matrix(1 0 0 -1 52.973 243.105)"><path d="m2.603125 4.1796875c-.44270833 0-.79375-.1515625-1.053125-.4546875-.25833333-.30208333-.3875-.71666667-.3875-1.24375 0-.52395833.12916667-.93854167.3875-1.24375.259375-.30416667.61041667-.45625 1.053125-.45625s.79322917.15208333 1.0515625.45625c.25833333.30520833.3875.71979167.3875 1.24375 0 .52708333-.12916667.94166667-.3875 1.24375-.25833333.303125-.60885417.4546875-1.0515625.4546875zm1.9578125 3.0921875v-.8984375c-.24791667.11666667-.49791667.20572917-.75.2671875-.25208333.0625-.50208333.09375-.75.09375-.65104167 0-1.1484375-.21979167-1.4921875-.659375-.34270833-.43958333-.53854167-1.10364583-.5875-1.9921875.19166667.28333333.43229167.50052083.721875.6515625.290625.15104167.60989583.2265625.9578125.2265625.73229167 0 1.3109375-.22239583 1.7359375-.6671875.425-.44375.6375-1.04791667.6375-1.8125 0-.74895833-.22135417-1.35-.6640625-1.803125-.44270833-.45208333-1.03177083-.678125-1.7671875-.678125-.84375 0-1.48854167.32291667-1.934375.96875-.44583333.646875-.66875 1.58385417-.66875 2.8109375 0 1.15208333.2734375 2.07083333.8203125 2.75625s1.28072917 1.028125 2.2015625 1.028125c.24791667 0 .49791667-.02447917.75-.0734375s.51510417-.121875.7890625-.21875z"/><path d="m2.51875 6.7828125c-.50729167 0-.8890625-.25-1.1453125-.75-.25520833-.49895833-.3828125-1.25-.3828125-2.253125 0-.99895833.12760417-1.7484375.3828125-2.2484375.25625-.5.63802083-.75 1.1453125-.75.51145833 0 .89479167.25 1.15.75.25625.5.384375 1.24947917.384375 2.2484375 0 1.003125-.128125 1.75416667-.384375 2.253125-.25520833.5-.63854167.75-1.15.75zm0 .78125c.81770833 0 1.4421875-.3234375 1.8734375-.9703125.43125-.64583333.646875-1.58385417.646875-2.8140625 0-1.22708333-.215625-2.1640625-.646875-2.8109375-.43125-.64583333-1.05572917-.96875-1.8734375-.96875-.81666667 0-1.440625.32291667-1.871875.96875-.43125.646875-.646875 1.58385417-.646875 2.8109375 0 1.23020833.215625 2.16822917.646875 2.8140625.43125.646875 1.05520833.9703125 1.871875.9703125z" transform="translate(6.323)"/></g><path d="m72 186.981h446.4" stroke="#b0b0b0" stroke-dasharray="2.96 1.28" stroke-opacity=".5" stroke-width=".8"/><path d="m72 186.981h-3.5" fill="#000" fill-rule="nonzero" stroke="#000" stroke-width=".8"/><g fill="#000" fill-rule="nonzero" transform="matrix(1 0 0 -1 52.953 190.922)"><path d="m2.5 3.6046875c-.46875 0-.8375-.12552083-1.10625-.3765625-.26770833-.25104167-.4015625-.59583333-.4015625-1.034375 0-.43958333.13385417-.78489583.4015625-1.0359375.26875-.25104167.6375-.3765625 1.10625-.3765625s.83802083.12604167 1.1078125.378125c.27083333.253125.40625.59791667.40625 1.034375 0 .43854167-.134375.78333333-.403125 1.034375-.26770833.25104167-.63802083.3765625-1.1109375.3765625zm-.9859375.41875c-.42291667.10416667-.75260417.30104167-.9890625.590625-.23541667.290625-.353125.64427083-.353125 1.0609375 0 .58229167.20729167 1.04270833.621875 1.38125.415625.33854167.984375.5078125 1.70625.5078125.72604167 0 1.29583333-.16927083 1.709375-.5078125s.6203125-.79895833.6203125-1.38125c0-.41666667-.11822917-.7703125-.3546875-1.0609375-.23541667-.28958333-.56302083-.48645833-.9828125-.590625.475-.11041667.84479167-.32708333 1.109375-.65.265625-.321875.3984375-.71510417.3984375-1.1796875 0-.70729167-.215625-1.25-.646875-1.628125-.43125-.37708333-1.04895833-.565625-1.853125-.565625-.803125 0-1.42083333.18854167-1.853125.565625-.43125.378125-.646875.92083333-.646875 1.628125 0 .46458333.13333333.8578125.4 1.1796875.26770833.32291667.6390625.53958333 1.1140625.65zm-.3609375 1.5578125c0-.37708333.11770833-.67135417.353125-.8828125.23645833-.21145833.56770833-.3171875.99375-.3171875.42395833 0 .75520833.10572917.99375.3171875.23958333.21145833.359375.50572917.359375.8828125 0 .378125-.11979167.67291667-.359375.884375-.23854167.21145833-.56979167.3171875-.99375.3171875-.42604167 0-.75729167-.10572917-.99375-.3171875-.23541667-.21145833-.353125-.50625-.353125-.884375z"/><path d="m2.51875 6.7828125c-.50729167 0-.8890625-.25-1.1453125-.75-.25520833-.49895833-.3828125-1.25-.3828125-2.253125 0-.99895833.12760417-1.7484375.3828125-2.2484375.25625-.5.63802083-.75 1.1453125-.75.51145833 0 .89479167.25 1.15.75.25625.5.384375 1.24947917.384375 2.2484375 0 1.003125-.128125 1.75416667-.384375 2.253125-.25520833.5-.63854167.75-1.15.75zm0 .78125c.81770833 0 1.4421875-.3234375 1.8734375-.9703125.43125-.64583333.646875-1.58385417.646875-2.8140625 0-1.22708333-.215625-2.1640625-.646875-2.8109375-.43125-.64583333-1.05572917-.96875-1.8734375-.96875-.81666667 0-1.440625.32291667-1.871875.96875-.43125.646875-.646875 1.58385417-.646875 2.8109375 0 1.23020833.215625 2.16822917.646875 2.8140625.43125.646875 1.05520833.9703125 1.871875.9703125z" transform="translate(6.344)"/></g><path d="m72.001 134.798h446.4" stroke="#b0b0b0" stroke-dasharray="2.96 1.28" stroke-opacity=".5" stroke-width=".8"/><path d="m72.001 134.798h-3.5" fill="#000" fill-rule="nonzero" stroke="#000" stroke-width=".8"/><g fill="#000" fill-rule="nonzero" transform="matrix(1 0 0 -1 47.011 138.739)"><path d="m.142.83h1.611v5.562l-1.753-.351v.898l1.744.352h.986v-6.461h1.611v-.83h-4.199z" transform="translate(0 .142)"/><path d="m2.51875 6.7828125c-.50729167 0-.8890625-.25-1.1453125-.75-.25520833-.49895833-.3828125-1.25-.3828125-2.253125 0-.99895833.12760417-1.7484375.3828125-2.2484375.25625-.5.63802083-.75 1.1453125-.75.51145833 0 .89479167.25 1.15.75.25625.5.384375 1.24947917.384375 2.2484375 0 1.003125-.128125 1.75416667-.384375 2.253125-.25520833.5-.63854167.75-1.15.75zm0 .78125c.81770833 0 1.4421875-.3234375 1.8734375-.9703125.43125-.64583333.646875-1.58385417.646875-2.8140625 0-1.22708333-.215625-2.1640625-.646875-2.8109375-.43125-.64583333-1.05572917-.96875-1.8734375-.96875-.81666667 0-1.440625.32291667-1.871875.96875-.43125.646875-.646875 1.58385417-.646875 2.8109375 0 1.23020833.215625 2.16822917.646875 2.8140625.43125.646875 1.05520833.9703125 1.871875.9703125z" transform="translate(5.923)"/><path d="m2.51875 6.7828125c-.50729167 0-.8890625-.25-1.1453125-.75-.25520833-.49895833-.3828125-1.25-.3828125-2.253125 0-.99895833.12760417-1.7484375.3828125-2.2484375.25625-.5.63802083-.75 1.1453125-.75.51145833 0 .89479167.25 1.15.75.25625.5.384375 1.24947917.384375 2.2484375 0 1.003125-.128125 1.75416667-.384375 2.253125-.25520833.5-.63854167.75-1.15.75zm0 .78125c.81770833 0 1.4421875-.3234375 1.8734375-.9703125.43125-.64583333.646875-1.58385417.646875-2.8140625 0-1.22708333-.215625-2.1640625-.646875-2.8109375-.43125-.64583333-1.05572917-.96875-1.8734375-.96875-.81666667 0-1.440625.32291667-1.871875.96875-.43125.646875-.646875 1.58385417-.646875 2.8109375 0 1.23020833.215625 2.16822917.646875 2.8140625.43125.646875 1.05520833.9703125 1.871875.9703125z" transform="translate(12.286)"/></g><path d="m72.001 82.615h446.4" stroke="#b0b0b0" stroke-dasharray="2.96 1.28" stroke-opacity=".5" stroke-width=".8"/><path d="m72.001 82.615h-3.5" fill="#000" fill-rule="nonzero" stroke="#000" stroke-width=".8"/><g fill="#000" fill-rule="nonzero" transform="matrix(1 0 0 -1 47.011 86.556)"><path d="m.142.83h1.611v5.562l-1.753-.351v.898l1.744.352h.986v-6.461h1.611v-.83h-4.199z" transform="translate(0 .142)"/><path d="m1.1859375.8296875h3.4421875v-.8296875h-4.628125v.8296875c.37395833.3875.88385417.90729167 1.5296875 1.559375.646875.653125 1.053125 1.07447917 1.21875 1.2640625.315625.35416667.5359375.65416667.6609375.9.12604167.24583333.1890625.4875.1890625.725 0 .3875-.1359375.703125-.4078125.946875-.271875.24479167-.62604167.3671875-1.0625.3671875-.309375 0-.6359375-.05364583-.9796875-.1609375-.34270833-.10729167-.709375-.2703125-1.1-.4890625v.996875c.396875.159375.76770833.2796875 1.1125.3609375.34583333.08125.66197917.121875.9484375.121875.75520833 0 1.35729167-.1890625 1.80625-.5671875.44895833-.37708333.6734375-.88125.6734375-1.5125 0-.3-.05625-.584375-.16875-.853125-.11145833-.26770833-.315625-.58385417-.6125-.9484375-.08125-.09479167-.34010417-.36770833-.7765625-.81875-.43541667-.45104167-1.05052083-1.08177083-1.8453125-1.8921875z" transform="translate(5.997 .142)"/><path d="m2.51875 6.7828125c-.50729167 0-.8890625-.25-1.1453125-.75-.25520833-.49895833-.3828125-1.25-.3828125-2.253125 0-.99895833.12760417-1.7484375.3828125-2.2484375.25625-.5.63802083-.75 1.1453125-.75.51145833 0 .89479167.25 1.15.75.25625.5.384375 1.24947917.384375 2.2484375 0 1.003125-.128125 1.75416667-.384375 2.253125-.25520833.5-.63854167.75-1.15.75zm0 .78125c.81770833 0 1.4421875-.3234375 1.8734375-.9703125.43125-.64583333.646875-1.58385417.646875-2.8140625 0-1.22708333-.215625-2.1640625-.646875-2.8109375-.43125-.64583333-1.05572917-.96875-1.8734375-.96875-.81666667 0-1.440625.32291667-1.871875.96875-.43125.646875-.646875 1.58385417-.646875 2.8109375 0 1.23020833.215625 2.16822917.646875 2.8140625.43125.646875 1.05520833.9703125 1.871875.9703125z" transform="translate(12.286)"/></g><path d="m4.8409375 4.78625c.29604167-.100625.5840625-.315.8640625-.643125s.56145833-.77947917.844375-1.3540625l1.4021875-2.7890625h-1.4853125l-1.30375 2.6184375c-.33833333.68395833-.66572917 1.1375-.9821875 1.360625s-.748125.3346875-1.295.3346875h-1.505v-4.31375h-1.3803125v10.206875h3.1171875c1.16666667 0 2.03729167-.24427083 2.611875-.7328125.57458333-.48708333.861875-1.2228125.861875-2.2071875 0-.643125-.14947917-1.176875-.4484375-1.60125-.29895833-.42291667-.7328125-.71604167-1.3015625-.879375zm-3.460625 4.2853125v-3.6225h1.736875c.665 0 1.16739583.15385417 1.5071875.4615625s.5096875.75979167.5096875 1.35625-.16989583 1.04635417-.5096875 1.3496875-.8421875.455-1.5071875.455z" fill="#000" fill-rule="nonzero" transform="matrix(0 -1 -1 0 39.001 282.938)"/><path d="m7.09625 4.3421875v-.6146875h-5.78375c.05541667-.86625.31645833-1.52614583.783125-1.9796875s1.11708333-.6803125 1.95125-.6803125c.48270833 0 .95083333.0590625 1.404375.1771875s.90416667.29604167 1.351875.53375v-1.19c-.45208333-.19104167-.91510417-.336875-1.3890625-.4375s-.95447917-.1509375-1.4415625-.1509375c-1.22208333 0-2.1896875.35510417-2.9028125 1.0653125-.713125.71166667-1.0696875 1.67416667-1.0696875 2.8875 0 1.25270833.33833333 2.2465625 1.015 2.9815625.67666667.73645833 1.58958333 1.1046875 2.73875 1.1046875 1.02958333 0 1.8440625-.33177083 2.4434375-.9953125.599375-.66208333.8990625-1.56260417.8990625-2.7015625zm-1.2578125.3696875c-.00875.686875-.20125 1.23520833-.5775 1.645-.37625.41125-.87427083.616875-1.4940625.616875-.70145833 0-1.26291667-.19833333-1.684375-.595s-.66427083-.95520833-.7284375-1.675625z" fill="#000" fill-rule="nonzero" transform="matrix(0 -1 -1 0 39.199 274.442)"/><path d="m0 7.656h1.332l2.393-6.424 2.393 6.424h1.333l-2.873-7.656h-1.708z" fill="#000" fill-rule="nonzero" transform="matrix(0 -1 -1 0 39.001 266.183)"/><path d="m7.09625 4.3421875v-.6146875h-5.78375c.05541667-.86625.31645833-1.52614583.783125-1.9796875s1.11708333-.6803125 1.95125-.6803125c.48270833 0 .95083333.0590625 1.404375.1771875s.90416667.29604167 1.351875.53375v-1.19c-.45208333-.19104167-.91510417-.336875-1.3890625-.4375s-.95447917-.1509375-1.4415625-.1509375c-1.22208333 0-2.1896875.35510417-2.9028125 1.0653125-.713125.71166667-1.0696875 1.67416667-1.0696875 2.8875 0 1.25270833.33833333 2.2465625 1.015 2.9815625.67666667.73645833 1.58958333 1.1046875 2.73875 1.1046875 1.02958333 0 1.8440625-.33177083 2.4434375-.9953125.599375-.66208333.8990625-1.56260417.8990625-2.7015625zm-1.2578125.3696875c-.00875.686875-.20125 1.23520833-.5775 1.645-.37625.41125-.87427083.616875-1.4940625.616875-.70145833 0-1.26291667-.19833333-1.684375-.595s-.66427083-.95520833-.7284375-1.675625z" fill="#000" fill-rule="nonzero" transform="matrix(0 -1 -1 0 39.199 257.544)"/><path d="m6.41375 4.6221875v-4.6221875h-1.2578125v4.580625c0 .72479167-.14145833 1.2665625-.424375 1.6253125-.28291667.36020833-.7065625.5403125-1.2709375.5403125-.67958333 0-1.21552083-.2165625-1.6078125-.6496875-.39229167-.43166667-.5884375-1.0215625-.5884375-1.7696875v-4.326875h-1.264375v7.65625h1.264375v-1.19c.301875.46083333.65625.805 1.063125 1.0325.40833333.2275.879375.34125 1.413125.34125.879375 0 1.544375-.27197917 1.995-.8159375.45208333-.54395833.678125-1.34458333.678125-2.401875z" fill="#000" fill-rule="nonzero" transform="matrix(0 -1 -1 0 39.001 248.432)"/><path d="m0 3.22v4.6353125h1.2578125v-4.5871875c0-.72479167.14072917-1.26875.4221875-1.631875.28291667-.36166667.70729167-.5425 1.273125-.5425.678125 0 1.2140625.2165625 1.6078125.6496875.39520833.433125.5928125 1.02375.5928125 1.771875v4.34h1.2578125v-7.65625h-1.2578125v1.176875c-.30479167-.46520833-.65916667-.81083333-1.063125-1.036875-.4025-.22604167-.870625-.3390625-1.404375-.3390625-.879375 0-1.54729167.2734375-2.00375.8203125-.455.546875-.6825 1.34677083-.6825 2.3996875z" fill="#000" fill-rule="nonzero" transform="matrix(0 -1 -1 0 39.199 239.639)"/><path d="m7.09625 4.3421875v-.6146875h-5.78375c.05541667-.86625.31645833-1.52614583.783125-1.9796875s1.11708333-.6803125 1.95125-.6803125c.48270833 0 .95083333.0590625 1.404375.1771875s.90416667.29604167 1.351875.53375v-1.19c-.45208333-.19104167-.91510417-.336875-1.3890625-.4375s-.95447917-.1509375-1.4415625-.1509375c-1.22208333 0-2.1896875.35510417-2.9028125 1.0653125-.713125.71166667-1.0696875 1.67416667-1.0696875 2.8875 0 1.25270833.33833333 2.2465625 1.015 2.9815625.67666667.73645833 1.58958333 1.1046875 2.73875 1.1046875 1.02958333 0 1.8440625-.33177083 2.4434375-.9953125.599375-.66208333.8990625-1.56260417.8990625-2.7015625zm-1.2578125.3696875c-.00875.686875-.20125 1.23520833-.5775 1.645-.37625.41125-.87427083.616875-1.4940625.616875-.70145833 0-1.26291667-.19833333-1.684375-.595s-.66427083-.95520833-.7284375-1.675625z" fill="#000" fill-rule="nonzero" transform="matrix(0 -1 -1 0 39.199 231.184)"/><path d="m3.136875 12.46875c-.60958333-1.0470833-1.063125-2.0839583-1.360625-3.110625-.29604167-1.02520833-.4440625-2.06427083-.4440625-3.1171875 0-1.05145833.14947917-2.0934375.4484375-3.1259375s.75104167-2.07083333 1.35625-3.115h-1.09375c-.6825 1.071875-1.19364583 2.12479167-1.5334375 3.15875s-.5096875 2.06135417-.5096875 3.0821875c0 1.01645833.1684375 2.03947917.5053125 3.0690625.33833333 1.0310417.8509375 2.0839583 1.5378125 3.15875z" fill="#000" fill-rule="nonzero" transform="matrix(0 -1 -1 0 40.847 217.69)"/><path d="m3.57 0h-.6846875l-.0065625 2.0584375c-.47833333.00875-.95666667.06416667-1.435.16625-.47833333.10354167-.95958333.258125-1.44375.46375v1.229375c.46520833-.29166667.93552083-.511875 1.4109375-.660625.476875-.14729167.96833333-.223125 1.474375-.2275v3.1171875c-1.00770833.16333333-1.74052083.44114583-2.1984375.8334375s-.686875.93041667-.686875 1.614375c0 .74229167.24864583 1.32708333.7459375 1.754375.49729167.42875 1.21041667.6752083 2.139375.739375v1.6078125h.6846875v-1.5859375c.42291667-.0189583.83270833-.0641667 1.229375-.135625.39666667-.07.78385417-.16625 1.1615625-.28875v-1.1965625c-.37770833.19104167-.76635417.3390625-1.1659375.4440625-.398125.105-.80645833.16625-1.225.18375v-2.918125c1.03395833-.15895833 1.79447917-.4440625 2.2815625-.8553125.48854167-.40979167.7328125-.96979167.7328125-1.68 0-.77-.25885417-1.37739583-.7765625-1.8221875s-1.26364583-.70145833-2.2378125-.77zm-.6846875 7.3215625v2.804375c-.52791667-.0597917-.93114583-.21072917-1.2096875-.4528125-.27854167-.240625-.4178125-.56145833-.4178125-.9625 0-.39229167.12833333-.6978125.385-.9165625.258125-.21875.67229167-.37625 1.2425-.4725zm.6846875-1.3125v-2.9596875c.5775.07729167 1.01354167.24135417 1.308125.4921875s.441875.58114583.441875.9909375c0 .40104167-.14072917.7196875-.4221875.9559375-.28.23770833-.72260417.41125-1.3278125.520625z" fill="#000" fill-rule="nonzero" transform="matrix(0 -1 -1 0 41.059 212.269)"/><path d="m1.3803125 4.87375v-3.7384375h2.2159375c.74229167 0 1.29208333.15385417 1.649375.4615625.35875.30770833.538125.77802083.538125 1.4109375 0 .63875-.179375 1.1090625-.538125 1.4109375-.35729167.30333333-.90708333.455-1.649375.455zm0 4.1978125v-3.075625h2.0453125c.67375 0 1.17541667.12614583 1.505.3784375.33104167.25375.4965625.64020833.4965625 1.159375 0 .51479167-.16552083.89979167-.4965625 1.155-.32958333.25520833-.83125.3828125-1.505.3828125zm-1.3803125 1.1353125h3.5284375c1.05291667 0 1.86375-.21875 2.4325-.65625.57020833-.4375.8553125-1.05947917.8553125-1.8659375 0-.625625-.14583333-1.12291667-.4375-1.491875s-.72041667-.59864583-1.28625-.6890625c.67958333-.14583333 1.2075-.450625 1.58375-.914375.37625-.46229167.564375-1.03979167.564375-1.7325 0-.91145833-.30989583-1.61583333-.9296875-2.113125-.61979167-.49583333-1.50208333-.74375-2.646875-.74375h-3.6640625z" fill="#000" fill-rule="nonzero" transform="matrix(0 -1 -1 0 39.001 198.7)"/><path d="m0 7.65625h1.2578125v-7.65625h-1.2578125zm0 2.9815625h1.2578125v-1.5946875h-1.2578125z" fill="#000" fill-rule="nonzero" transform="matrix(0 -1 -1 0 39.001 189.15)"/><path d="m0 10.638h1.258v-10.638h-1.258z" fill="#000" fill-rule="nonzero" transform="matrix(0 -1 -1 0 39.001 185.26)"/><path d="m0 10.638h1.258v-10.638h-1.258z" fill="#000" fill-rule="nonzero" transform="matrix(0 -1 -1 0 39.001 181.371)"/><path d="m0 7.65625h1.2578125v-7.65625h-1.2578125zm0 2.9815625h1.2578125v-1.5946875h-1.2578125z" fill="#000" fill-rule="nonzero" transform="matrix(0 -1 -1 0 39.001 177.481)"/><path d="m3.513125 6.97375c-.67375 0-1.20677083-.26322917-1.5990625-.7896875s-.5884375-1.24760417-.5884375-2.1634375.1946875-1.63697917.5840625-2.1634375c.39083333-.52645833.9253125-.7896875 1.6034375-.7896875.67083333 0 1.20166667.26395833 1.5925.791875.39229167.529375.5884375 1.24979167.5884375 2.16125 0 .90708333-.19614583 1.62604167-.5884375 2.156875-.39083333.53083333-.92166667.79625-1.5925.79625zm0 1.0653125c1.09375 0 1.95270833-.35583333 2.576875-1.0675.625625-.71020833.9384375-1.69385417.9384375-2.9509375 0-1.25270833-.3128125-2.23635417-.9384375-2.9509375-.62416667-.713125-1.483125-1.0696875-2.576875-1.0696875-1.098125 0-1.95854167.3565625-2.58125 1.0696875-.62125.71458333-.931875 1.69822917-.931875 2.9509375 0 1.25708333.310625 2.24072917.931875 2.9509375.62270833.71166667 1.483125 1.0675 2.58125 1.0675z" fill="#000" fill-rule="nonzero" transform="matrix(0 -1 -1 0 39.199 174.138)"/><path d="m6.41375 4.6221875v-4.6221875h-1.2578125v4.580625c0 .72479167-.14145833 1.2665625-.424375 1.6253125-.28291667.36020833-.7065625.5403125-1.2709375.5403125-.67958333 0-1.21552083-.2165625-1.6078125-.6496875-.39229167-.43166667-.5884375-1.0215625-.5884375-1.7696875v-4.326875h-1.264375v7.65625h1.264375v-1.19c.301875.46083333.65625.805 1.063125 1.0325.40833333.2275.879375.34125 1.413125.34125.879375 0 1.544375-.27197917 1.995-.8159375.45208333-.54395833.678125-1.34458333.678125-2.401875z" fill="#000" fill-rule="nonzero" transform="matrix(0 -1 -1 0 39.001 165.074)"/><path d="m0 12.46875h1.09375c.6825-1.0747917 1.19364583-2.1277083 1.5334375-3.15875.33979167-1.02958333.5096875-2.05260417.5096875-3.0690625 0-1.02083333-.16989583-2.04822917-.5096875-3.0821875s-.8509375-2.086875-1.5334375-3.15875h-1.09375c.60520833 1.04416667 1.05729167 2.0825 1.35625 3.115s.4484375 2.07447917.4484375 3.1259375c0 1.05291667-.14947917 2.09197917-.4484375 3.1171875-.29895833 1.0266667-.75104167 2.0635417-1.35625 3.110625z" fill="#000" fill-rule="nonzero" transform="matrix(0 -1 -1 0 40.847 156.35)"/><g stroke="#000096" transform="translate(88.291 62.959)"><path d="m4 306.4 57.974-11.976 57.974-20.612 57.974-32.041 57.974-42.79 57.974-51.321 57.974-61.237 57.974-82.423" stroke-linecap="square" stroke-width="2"/><g fill="#000096" fill-rule="nonzero"><path d="m4 8c1.060812 0 2.078319-.421465 2.828427-1.171573s1.171573-1.767615 1.171573-2.828427-.421465-2.078319-1.171573-2.828427-1.767615-1.171573-2.828427-1.171573-2.078319.421465-2.828427 1.171573-1.171573 1.767615-1.171573 2.828427.421465 2.078319 1.171573 2.828427 1.767615 1.171573 2.828427 1.171573z" transform="translate(0 302.4)"/><path d="m4 8c1.060812 0 2.078319-.421465 2.828427-1.171573s1.171573-1.767615 1.171573-2.828427-.421465-2.078319-1.171573-2.828427-1.767615-1.171573-2.828427-1.171573-2.078319.421465-2.828427 1.171573-1.171573 1.767615-1.171573 2.828427.421465 2.078319 1.171573 2.828427 1.767615 1.171573 2.828427 1.171573z" transform="translate(57.974 290.424)"/><path d="m4 8c1.060812 0 2.078319-.421465 2.828427-1.171573s1.171573-1.767615 1.171573-2.828427-.421465-2.078319-1.171573-2.828427-1.767615-1.171573-2.828427-1.171573-2.078319.421465-2.828427 1.171573-1.171573 1.767615-1.171573 2.828427.421465 2.078319 1.171573 2.828427 1.767615 1.171573 2.828427 1.171573z" transform="translate(115.948 269.812)"/><path d="m4 8c1.060812 0 2.078319-.421465 2.828427-1.171573s1.171573-1.767615 1.171573-2.828427-.421465-2.078319-1.171573-2.828427-1.767615-1.171573-2.828427-1.171573-2.078319.421465-2.828427 1.171573-1.171573 1.767615-1.171573 2.828427.421465 2.078319 1.171573 2.828427 1.767615 1.171573 2.828427 1.171573z" transform="translate(173.922 237.772)"/><path d="m4 8c1.060812 0 2.078319-.421465 2.828427-1.171573s1.171573-1.767615 1.171573-2.828427-.421465-2.078319-1.171573-2.828427-1.767615-1.171573-2.828427-1.171573-2.078319.421465-2.828427 1.171573-1.171573 1.767615-1.171573 2.828427.421465 2.078319 1.171573 2.828427 1.767615 1.171573 2.828427 1.171573z" transform="translate(231.896 194.982)"/><path d="m4 8c1.060812 0 2.078319-.421465 2.828427-1.171573s1.171573-1.767615 1.171573-2.828427-.421465-2.078319-1.171573-2.828427-1.767615-1.171573-2.828427-1.171573-2.078319.421465-2.828427 1.171573-1.171573 1.767615-1.171573 2.828427.421465 2.078319 1.171573 2.828427 1.767615 1.171573 2.828427 1.171573z" transform="translate(289.87 143.66)"/><path d="m4 8c1.060812 0 2.078319-.421465 2.828427-1.171573s1.171573-1.767615 1.171573-2.828427-.421465-2.078319-1.171573-2.828427-1.767615-1.171573-2.828427-1.171573-2.078319.421465-2.828427 1.171573-1.171573 1.767615-1.171573 2.828427.421465 2.078319 1.171573 2.828427 1.767615 1.171573 2.828427 1.171573z" transform="translate(347.844 82.423)"/><path d="m4 8c1.060812 0 2.078319-.421465 2.828427-1.171573s1.171573-1.767615 1.171573-2.828427-.421465-2.078319-1.171573-2.828427-1.767615-1.171573-2.828427-1.171573-2.078319.421465-2.828427 1.171573-1.171573 1.767615-1.171573 2.828427.421465 2.078319 1.171573 2.828427 1.767615 1.171573 2.828427 1.171573z" transform="translate(405.818)"/></g></g><path d="m72 384.479v-332.64" stroke="#000" stroke-linecap="square" stroke-width=".8"/><path d="m72 384.48h446.4" stroke="#000" stroke-linecap="square" stroke-width=".8"/><g fill-rule="nonzero"><path d="m8.47 2.125h-4.7025l-.7425-2.125h-3.025l4.32 11.665h3.5875l4.32-11.665h-3.0225zm-3.9525 2.165h3.195l-1.595 4.64z" fill="#000096" transform="matrix(1 0 0 -1 35.506 45.84)"/><path d="m0 11.665h3.007v-11.665h-3.007z" fill="#000096" transform="matrix(1 0 0 -1 49.281 45.84)"/><path d="m8.4375 11.525v-2.47c-.64.28666667-1.265.5025-1.875.6475-.60833333.14666667-1.18333333.22-1.725.22-.71833333 0-1.25-.09916667-1.595-.2975-.34333333-.19666667-.515-.50333333-.515-.92 0-.31333333.11583333-.5575.3475-.7325.23166667-.17333333.6525-.3225 1.2625-.4475l1.28-.2575c1.29666667-.26166667 2.21833333-.65833333 2.765-1.19.54833333-.53.8225-1.285.8225-2.265 0-1.285-.38166667-2.24166667-1.145-2.87s-1.92916667-.9425-3.4975-.9425c-.73833333 0-1.48.07083333-2.225.2125-.745.14-1.49.34833333-2.235.625v2.5375c.745-.395 1.465-.69333333 2.16-.895.695-.2 1.36583333-.3 2.0125-.3.65666667 0 1.15916667.10916667 1.5075.3275.34833333.22.5225.53333333.5225.94 0 .36333333-.11833333.64416667-.355.8425s-.70916667.37583333-1.4175.5325l-1.165.2575c-1.16666667.25-2.02.64833333-2.56 1.195-.53833333.54666667-.8075 1.28333333-.8075 2.21 0 1.16166667.375 2.055 1.125 2.68s1.82833333.9375 3.235.9375c.64166667 0 1.30083333-.0483333 1.9775-.145s1.37666667-.2408333 2.1-.4325z" fill="#000096" transform="matrix(1 0 0 -1 60.482 46.067)"/><path d="m4.82 7.1875c-.62 0-1.0925-.2225-1.4175-.6675s-.4875-1.08666667-.4875-1.925.1625-1.48083333.4875-1.9275c.325-.445.7975-.6675 1.4175-.6675.61 0 1.07583333.2225 1.3975.6675.32333333.44666667.485 1.08916667.485 1.9275s-.16166667 1.48-.485 1.925c-.32166667.445-.7875.6675-1.3975.6675zm0 2c1.505 0 2.68083333-.40666667 3.5275-1.22.84666667-.81166667 1.27-1.93583333 1.27-3.3725 0-1.43833333-.42333333-2.56416667-1.27-3.3775-.84666667-.81166667-2.0225-1.2175-3.5275-1.2175-1.51 0-2.69083333.40583333-3.5425 1.2175-.85166667.81333333-1.2775 1.93916667-1.2775 3.3775 0 1.43666667.42583333 2.56083333 1.2775 3.3725.85166667.81333333 2.0325 1.22 3.5425 1.22z" fill="#000096" transform="matrix(1 0 0 -1 71.546 46.067)"/><path d="m6.7975 12.1575v-1.8375h-1.5475c-.39666667 0-.67333333-.0716667-.83-.215-.155-.14333333-.2325-.39166667-.2325-.745v-.61h2.39v-2h-2.39v-6.75h-2.7975v6.75h-1.39v2h1.39v.61c0 .9533333.26583333 1.6575.7975 2.1125.53166667.4566667 1.35416667.685 2.4675.685z" fill="#000096" transform="matrix(1 0 0 -1 82.156 45.84)"/><path d="m4.1875 11.235v-2.485h2.885v-2h-2.885v-3.71c0-.40666667.08083333-.68166667.2425-.825s.4825-.215.9625-.215h1.4375v-2h-2.4c-1.10333333 0-1.88583333.23-2.3475.69-.46.46166667-.69 1.245-.69 2.35v3.71h-1.3925v2h1.3925v2.485z" fill="#000096" transform="matrix(1 0 0 -1 89.021 45.84)"/><path d="m0 8.75h2.72l1.468-6.03 1.477 6.03h2.335l1.47-5.967 1.475 5.967h2.72l-2.305-8.75h-3.055l-1.478 6.015-1.467-6.015h-3.055z" fill="#000096" transform="matrix(1 0 0 -1 97.022 45.84)"/><path d="m4.5775 4.165c-.58333333 0-1.0225-.09916667-1.3175-.2975-.29333333-.19666667-.44-.48833333-.44-.875 0-.35333333.11833333-.63083333.355-.8325.23833333-.2.56833333-.3.99-.3.525 0 .9675.18833333 1.3275.565.36.37833333.54.85166667.54 1.42v.32zm4.275 1.055v-4.9925h-2.82v1.2975c-.375-.53166667-.7975-.91916667-1.2675-1.1625-.46833333-.24166667-1.03833333-.3625-1.71-.3625-.90666667 0-1.6425.26416667-2.2075.7925-.565.53-.8475 1.21666667-.8475 2.06 0 1.02666667.3525 1.77916667 1.0575 2.2575.70666667.48 1.815.72 3.325.72h1.65v.2175c0 .44333333-.175.7675-.525.9725-.34833333.20666667-.8925.31-1.6325.31-.59833333 0-1.15583333-.06-1.6725-.18-.515-.12-.99416667-.3-1.4375-.54v2.1325c.6.14666667 1.20166667.2575 1.805.3325.605.075 1.20916667.1125 1.8125.1125 1.57833333 0 2.7175-.31083333 3.4175-.9325.70166667-.62166667 1.0525-1.63333333 1.0525-3.035z" fill="#000096" transform="matrix(1 0 0 -1 111.928 46.067)"/><path d="m6.5 6.3675c-.245.115-.48916667.19916667-.7325.2525-.24166667.055-.485.0825-.73.0825-.71833333 0-1.27166667-.23083333-1.66-.6925-.38833333-.46-.5825-1.11916667-.5825-1.9775v-4.0325h-2.795v8.75h2.795v-1.4375c.36.57333333.7725.99083333 1.2375 1.2525.46666667.26333333 1.02583333.395 1.6775.395.09333333 0 .19416667-.00416667.3025-.0125.11-.00666667.26916667-.02333333.4775-.05z" fill="#000096" transform="matrix(1 0 0 -1 123.383 45.84)"/><path d="m9.39 4.625v-.795h-6.5375c.06666667-.65666667.30333333-1.14916667.71-1.4775s.97416667-.4925 1.7025-.4925c.58833333 0 1.19083333.0875 1.8075.2625.61833333.175 1.25333333.43916667 1.905.7925v-2.155c-.66166667-.25-1.32333333-.43916667-1.985-.5675s-1.32333333-.1925-1.985-.1925c-1.58333333 0-2.81416667.4025-3.6925 1.2075-.87666667.805-1.315 1.93416667-1.315 3.3875 0 1.42666667.43083333 2.54833333 1.2925 3.365.86166667.81833333 2.04833333 1.2275 3.56 1.2275 1.375 0 2.475-.41416667 3.3-1.2425.825-.82666667 1.2375-1.93333333 1.2375-3.32zm-2.875.93c0 .53166667-.155.96-.465 1.285-.31.32666667-.715.49-1.215.49-.54166667 0-.98166667-.1525-1.32-.4575s-.54916667-.74416667-.6325-1.3175z" fill="#000096" transform="matrix(1 0 0 -1 130.616 46.067)"/><path d="m0 11.665h3.828l2.654-6.242 2.673 6.242h3.82v-11.665h-2.842v8.533l-2.688-6.29h-1.908l-2.687 6.29v-8.533h-2.85z" fill="#000096" transform="matrix(1 0 0 -1 147.82 45.84)"/><path d="m4.5775 4.165c-.58333333 0-1.0225-.09916667-1.3175-.2975-.29333333-.19666667-.44-.48833333-.44-.875 0-.35333333.11833333-.63083333.355-.8325.23833333-.2.56833333-.3.99-.3.525 0 .9675.18833333 1.3275.565.36.37833333.54.85166667.54 1.42v.32zm4.275 1.055v-4.9925h-2.82v1.2975c-.375-.53166667-.7975-.91916667-1.2675-1.1625-.46833333-.24166667-1.03833333-.3625-1.71-.3625-.90666667 0-1.6425.26416667-2.2075.7925-.565.53-.8475 1.21666667-.8475 2.06 0 1.02666667.3525 1.77916667 1.0575 2.2575.70666667.48 1.815.72 3.325.72h1.65v.2175c0 .44333333-.175.7675-.525.9725-.34833333.20666667-.8925.31-1.6325.31-.59833333 0-1.15583333-.06-1.6725-.18-.515-.12-.99416667-.3-1.4375-.54v2.1325c.6.14666667 1.20166667.2575 1.805.3325.605.075 1.20916667.1125 1.8125.1125 1.57833333 0 2.7175-.31083333 3.4175-.9325.70166667-.62166667 1.0525-1.63333333 1.0525-3.035z" fill="#000096" transform="matrix(1 0 0 -1 162.96 46.067)"/><path d="m6.5 6.3675c-.245.115-.48916667.19916667-.7325.2525-.24166667.055-.485.0825-.73.0825-.71833333 0-1.27166667-.23083333-1.66-.6925-.38833333-.46-.5825-1.11916667-.5825-1.9775v-4.0325h-2.795v8.75h2.795v-1.4375c.36.57333333.7725.99083333 1.2375 1.2525.46666667.26333333 1.02583333.395 1.6775.395.09333333 0 .19416667-.00416667.3025-.0125.11-.00666667.26916667-.02333333.4775-.05z" fill="#000096" transform="matrix(1 0 0 -1 174.414 45.84)"/><path d="m0 12.158h2.795v-6.618l3.22 3.21h3.25l-4.275-4.015 4.61-4.735h-3.39l-3.415 3.647v-3.647h-2.795z" fill="#000096" transform="matrix(1 0 0 -1 182.305 45.84)"/><path d="m9.39 4.625v-.795h-6.5375c.06666667-.65666667.30333333-1.14916667.71-1.4775s.97416667-.4925 1.7025-.4925c.58833333 0 1.19083333.0875 1.8075.2625.61833333.175 1.25333333.43916667 1.905.7925v-2.155c-.66166667-.25-1.32333333-.43916667-1.985-.5675s-1.32333333-.1925-1.985-.1925c-1.58333333 0-2.81416667.4025-3.6925 1.2075-.87666667.805-1.315 1.93416667-1.315 3.3875 0 1.42666667.43083333 2.54833333 1.2925 3.365.86166667.81833333 2.04833333 1.2275 3.56 1.2275 1.375 0 2.475-.41416667 3.3-1.2425.825-.82666667 1.2375-1.93333333 1.2375-3.32zm-2.875.93c0 .53166667-.155.96-.465 1.285-.31.32666667-.715.49-1.215.49-.54166667 0-.98166667-.1525-1.32-.4575s-.54916667-.74416667-.6325-1.3175z" fill="#000096" transform="matrix(1 0 0 -1 191.868 46.067)"/><path d="m4.1875 11.235v-2.485h2.885v-2h-2.885v-3.71c0-.40666667.08083333-.68166667.2425-.825s.4825-.215.9625-.215h1.4375v-2h-2.4c-1.10333333 0-1.88583333.23-2.3475.69-.46.46166667-.69 1.245-.69 2.35v3.71h-1.3925v2h1.3925v2.485z" fill="#000096" transform="matrix(1 0 0 -1 202.242 45.84)"/><path d="m1.853 4.338v-4.338h-1.853v4.338z" fill="#000096" transform="matrix(1 0 0 -1 211.203 38.512)"/><path d="m7.3525 8.705v-2.125c-.59833333.25-1.17666667.4375-1.735.5625-.55666667.125-1.0825.1875-1.5775.1875-.53166667 0-.92666667-.06666667-1.185-.2-.25666667-.13333333-.385-.3375-.385-.6125 0-.225.0975-.3975.2925-.5175.195-.11833333.545-.20666667 1.05-.265l.4925-.07c1.43333333-.18166667 2.39666667-.48083333 2.89-.8975.495-.41666667.7425-1.07083333.7425-1.9625 0-.93166667-.34416667-1.6325-1.0325-2.1025-.68666667-.46833333-1.71166667-.7025-3.075-.7025-.57833333 0-1.17666667.04583333-1.795.1375-.61666667.09166667-1.25083333.22833333-1.9025.41v2.125c.55833333-.27 1.13-.47333333 1.715-.61.58666667-.135 1.18166667-.2025 1.785-.2025.54833333 0 .96.075 1.235.225.27666667.15166667.415.37666667.415.675 0 .25-.095.43583333-.285.5575s-.56916667.21666667-1.1375.285l-.4925.0625c-1.245.15666667-2.1175.44583333-2.6175.8675s-.75 1.0625-.75 1.9225c0 .92666667.3175 1.61333333.9525 2.06.63666667.44833333 1.61083333.6725 2.9225.6725.51666667 0 1.05833333-.03916667 1.625-.1175.56833333-.07666667 1.18583333-.19833333 1.8525-.365z" fill="#000096" transform="matrix(1 0 0 -1 215.406 46.067)"/><path d="m11.155 1.095c-.75-.365-1.52833333-.63916667-2.335-.8225-.80666667-.18166667-1.64-.2725-2.5-.2725-1.94333333 0-3.4825.54333333-4.6175 1.63s-1.7025 2.55916667-1.7025 4.4175c0 1.88.5775 3.35916667 1.7325 4.4375 1.15666667 1.0783333 2.74083333 1.6175 4.7525 1.6175.775 0 1.5175-.0733333 2.2275-.22.71166667-.145 1.3825-.3608333 2.0125-.6475v-2.4125c-.65.36833333-1.29666667.64333333-1.94.825-.64333333.18333333-1.28833333.275-1.935.275-1.19666667 0-2.11916667-.335-2.7675-1.005-.64833333-.66833333-.9725-1.625-.9725-2.87 0-1.23333333.3125-2.18666667.9375-2.86.625-.67166667 1.5125-1.0075 2.6625-1.0075.31333333 0 .60416667.01916667.8725.0575.26833333.04.50916667.10166667.7225.185v2.265h-1.8375v2.0175h4.6875z" fill="#000096" transform="matrix(1 0 0 -1 230.47 46.067)"/><path d="m0 12.158h2.795v-12.158h-2.795z" fill="#000096" transform="matrix(1 0 0 -1 244.15 45.84)"/><path d="m4.82 7.1875c-.62 0-1.0925-.2225-1.4175-.6675s-.4875-1.08666667-.4875-1.925.1625-1.48083333.4875-1.9275c.325-.445.7975-.6675 1.4175-.6675.61 0 1.07583333.2225 1.3975.6675.32333333.44666667.485 1.08916667.485 1.9275s-.16166667 1.48-.485 1.925c-.32166667.445-.7875.6675-1.3975.6675zm0 2c1.505 0 2.68083333-.40666667 3.5275-1.22.84666667-.81166667 1.27-1.93583333 1.27-3.3725 0-1.43833333-.42333333-2.56416667-1.27-3.3775-.84666667-.81166667-2.0225-1.2175-3.5275-1.2175-1.51 0-2.69083333.40583333-3.5425 1.2175-.85166667.81333333-1.2775 1.93916667-1.2775 3.3775 0 1.43666667.42583333 2.56083333 1.2775 3.3725.85166667.81333333 2.0325 1.22 3.5425 1.22z" fill="#000096" transform="matrix(1 0 0 -1 248.977 46.067)"/><path d="m4.655 2.0325c.59833333 0 1.055.21833333 1.37.655.31666667.43833333.475 1.07416667.475 1.9075s-.15833333 1.46833333-.475 1.905c-.315.43833333-.77166667.6575-1.37.6575s-1.05833333-.22-1.38-.66c-.32-.44-.48-1.07416667-.48-1.9025s.16-1.4625.48-1.9025c.32166667-.44.78166667-.66 1.38-.66zm-1.86 5.665c.38666667.51.81416667.88583333 1.2825 1.1275s1.0075.3625 1.6175.3625c1.07833333 0 1.96333333-.42833333 2.655-1.285.69333333-.85666667 1.04-1.95916667 1.04-3.3075s-.34666667-2.45166667-1.04-3.31c-.69166667-.85666667-1.57666667-1.285-2.655-1.285-.61 0-1.14916667.12083333-1.6175.3625-.46833333.24333333-.89583333.62-1.2825 1.13v-1.265h-2.795v12.1575h2.795z" fill="#000096" transform="matrix(1 0 0 -1 260.626 46.067)"/><path d="m4.5775 4.165c-.58333333 0-1.0225-.09916667-1.3175-.2975-.29333333-.19666667-.44-.48833333-.44-.875 0-.35333333.11833333-.63083333.355-.8325.23833333-.2.56833333-.3.99-.3.525 0 .9675.18833333 1.3275.565.36.37833333.54.85166667.54 1.42v.32zm4.275 1.055v-4.9925h-2.82v1.2975c-.375-.53166667-.7975-.91916667-1.2675-1.1625-.46833333-.24166667-1.03833333-.3625-1.71-.3625-.90666667 0-1.6425.26416667-2.2075.7925-.565.53-.8475 1.21666667-.8475 2.06 0 1.02666667.3525 1.77916667 1.0575 2.2575.70666667.48 1.815.72 3.325.72h1.65v.2175c0 .44333333-.175.7675-.525.9725-.34833333.20666667-.8925.31-1.6325.31-.59833333 0-1.15583333-.06-1.6725-.18-.515-.12-.99416667-.3-1.4375-.54v2.1325c.6.14666667 1.20166667.2575 1.805.3325.605.075 1.20916667.1125 1.8125.1125 1.57833333 0 2.7175-.31083333 3.4175-.9325.70166667-.62166667 1.0525-1.63333333 1.0525-3.035z" fill="#000096" transform="matrix(1 0 0 -1 271.423 46.067)"/><path d="m0 12.158h2.795v-12.158h-2.795z" fill="#000096" transform="matrix(1 0 0 -1 282.876 45.84)"/><path d="m8.47 2.125h-4.7025l-.7425-2.125h-3.025l4.32 11.665h3.5875l4.32-11.665h-3.0225zm-3.9525 2.165h3.195l-1.595 4.64z" fill="#000096" transform="matrix(1 0 0 -1 292.664 45.84)"/><path d="m8.795 5.3275v-5.3275h-2.8125v.8675 3.21c0 .755-.01666667 1.27583333-.05 1.5625s-.09166667.4975-.175.6325c-.11.18333333-.25916667.32583333-.4475.4275-.18666667.10166667-.4.1525-.64.1525-.58333333 0-1.04166667-.22583333-1.375-.6775-.33333333-.45-.5-1.07333333-.5-1.87v-4.305h-2.795v8.75h2.795v-1.28c.42166667.51.86916667.88583333 1.3425 1.1275.475.24166667.99916667.3625 1.5725.3625 1.01 0 1.77666667-.31 2.3-.93.52333333-.61833333.785-1.51916667.785-2.7025z" fill="#000096" transform="matrix(1 0 0 -1 306.314 45.84)"/><path d="m8.795 5.3275v-5.3275h-2.8125v.8675 3.21c0 .755-.01666667 1.27583333-.05 1.5625s-.09166667.4975-.175.6325c-.11.18333333-.25916667.32583333-.4475.4275-.18666667.10166667-.4.1525-.64.1525-.58333333 0-1.04166667-.22583333-1.375-.6775-.33333333-.45-.5-1.07333333-.5-1.87v-4.305h-2.795v8.75h2.795v-1.28c.42166667.51.86916667.88583333 1.3425 1.1275.475.24166667.99916667.3625 1.5725.3625 1.01 0 1.77666667-.31 2.3-.93.52333333-.61833333.785-1.51916667.785-2.7025z" fill="#000096" transform="matrix(1 0 0 -1 317.706 45.84)"/><path d="m0 3.635v5.3425h2.8125v-.875c0-.47333333-.0025-1.06833333-.0075-1.785s-.0075-1.19416667-.0075-1.4325c0-.70333333.01833333-1.21.055-1.52s.09916667-.53583333.1875-.6775c.11333333-.18166667.2625-.3225.4475-.4225.185-.09833333.3975-.1475.6375-.1475.58333333 0 1.04166667.22416667 1.375.6725s.5 1.07083333.5 1.8675v4.32h2.7975v-8.75h-2.7975v1.265c-.42166667-.51-.86833333-.88666667-1.34-1.13-.47166667-.24166667-.99083333-.3625-1.5575-.3625-1.01166667 0-1.78166667.31-2.31.93s-.7925 1.52166667-.7925 2.705z" fill="#000096" transform="matrix(1 0 0 -1 329.001 46.067)"/><path d="m4.5775 4.165c-.58333333 0-1.0225-.09916667-1.3175-.2975-.29333333-.19666667-.44-.48833333-.44-.875 0-.35333333.11833333-.63083333.355-.8325.23833333-.2.56833333-.3.99-.3.525 0 .9675.18833333 1.3275.565.36.37833333.54.85166667.54 1.42v.32zm4.275 1.055v-4.9925h-2.82v1.2975c-.375-.53166667-.7975-.91916667-1.2675-1.1625-.46833333-.24166667-1.03833333-.3625-1.71-.3625-.90666667 0-1.6425.26416667-2.2075.7925-.565.53-.8475 1.21666667-.8475 2.06 0 1.02666667.3525 1.77916667 1.0575 2.2575.70666667.48 1.815.72 3.325.72h1.65v.2175c0 .44333333-.175.7675-.525.9725-.34833333.20666667-.8925.31-1.6325.31-.59833333 0-1.15583333-.06-1.6725-.18-.515-.12-.99416667-.3-1.4375-.54v2.1325c.6.14666667 1.20166667.2575 1.805.3325.605.075 1.20916667.1125 1.8125.1125 1.57833333 0 2.7175-.31083333 3.4175-.9325.70166667-.62166667 1.0525-1.63333333 1.0525-3.035z" fill="#000096" transform="matrix(1 0 0 -1 339.829 46.067)"/><path d="m0 12.158h2.795v-12.158h-2.795z" fill="#000096" transform="matrix(1 0 0 -1 351.283 45.84)"/><path d="m4.2725 6.4925c.63 0 1.08166667.11666667 1.355.35.27333333.235.41.62083333.41 1.1575 0 .53166667-.13666667.91166667-.41 1.14-.27333333.23-.725.345-1.355.345h-1.265v-2.9925zm-1.265-2.0775v-4.415h-3.0075v11.665h4.5925c1.53666667 0 2.6625-.2583333 3.3775-.775.71666667-.515 1.075-1.33 1.075-2.445 0-.77-.18666667-1.4025-.56-1.8975-.37166667-.495-.9325-.86-1.6825-1.095.41166667-.09333333.78-.30583333 1.105-.6375.32666667-.33.65666667-.83083333.99-1.5025l1.6325-3.3125h-3.2025l-1.4225 2.8975c-.28666667.58333333-.5775.98166667-.8725 1.195-.29333333.215-.685.3225-1.175.3225z" fill="#000096" transform="matrix(1 0 0 -1 362.463 45.84)"/><path d="m9.39 4.625v-.795h-6.5375c.06666667-.65666667.30333333-1.14916667.71-1.4775s.97416667-.4925 1.7025-.4925c.58833333 0 1.19083333.0875 1.8075.2625.61833333.175 1.25333333.43916667 1.905.7925v-2.155c-.66166667-.25-1.32333333-.43916667-1.985-.5675s-1.32333333-.1925-1.985-.1925c-1.58333333 0-2.81416667.4025-3.6925 1.2075-.87666667.805-1.315 1.93416667-1.315 3.3875 0 1.42666667.43083333 2.54833333 1.2925 3.365.86166667.81833333 2.04833333 1.2275 3.56 1.2275 1.375 0 2.475-.41416667 3.3-1.2425.825-.82666667 1.2375-1.93333333 1.2375-3.32zm-2.875.93c0 .53166667-.155.96-.465 1.285-.31.32666667-.715.49-1.215.49-.54166667 0-.98166667-.1525-1.32-.4575s-.54916667-.74416667-.6325-1.3175z" fill="#000096" transform="matrix(1 0 0 -1 374.001 46.067)"/><path d="m0 8.75h2.797l2.181-6.047 2.169 6.047h2.806l-3.445-8.75h-3.07z" fill="#000096" transform="matrix(1 0 0 -1 384.407 45.84)"/><path d="m9.39 4.625v-.795h-6.5375c.06666667-.65666667.30333333-1.14916667.71-1.4775s.97416667-.4925 1.7025-.4925c.58833333 0 1.19083333.0875 1.8075.2625.61833333.175 1.25333333.43916667 1.905.7925v-2.155c-.66166667-.25-1.32333333-.43916667-1.985-.5675s-1.32333333-.1925-1.985-.1925c-1.58333333 0-2.81416667.4025-3.6925 1.2075-.87666667.805-1.315 1.93416667-1.315 3.3875 0 1.42666667.43083333 2.54833333 1.2925 3.365.86166667.81833333 2.04833333 1.2275 3.56 1.2275 1.375 0 2.475-.41416667 3.3-1.2425.825-.82666667 1.2375-1.93333333 1.2375-3.32zm-2.875.93c0 .53166667-.155.96-.465 1.285-.31.32666667-.715.49-1.215.49-.54166667 0-.98166667-.1525-1.32-.4575s-.54916667-.74416667-.6325-1.3175z" fill="#000096" transform="matrix(1 0 0 -1 395.282 46.067)"/><path d="m8.795 5.3275v-5.3275h-2.8125v.8675 3.21c0 .755-.01666667 1.27583333-.05 1.5625s-.09166667.4975-.175.6325c-.11.18333333-.25916667.32583333-.4475.4275-.18666667.10166667-.4.1525-.64.1525-.58333333 0-1.04166667-.22583333-1.375-.6775-.33333333-.45-.5-1.07333333-.5-1.87v-4.305h-2.795v8.75h2.795v-1.28c.42166667.51.86916667.88583333 1.3425 1.1275.475.24166667.99916667.3625 1.5725.3625 1.01 0 1.77666667-.31 2.3-.93.52333333-.61833333.785-1.51916667.785-2.7025z" fill="#000096" transform="matrix(1 0 0 -1 406.791 45.84)"/><path d="m0 3.635v5.3425h2.8125v-.875c0-.47333333-.0025-1.06833333-.0075-1.785s-.0075-1.19416667-.0075-1.4325c0-.70333333.01833333-1.21.055-1.52s.09916667-.53583333.1875-.6775c.11333333-.18166667.2625-.3225.4475-.4225.185-.09833333.3975-.1475.6375-.1475.58333333 0 1.04166667.22416667 1.375.6725s.5 1.07083333.5 1.8675v4.32h2.7975v-8.75h-2.7975v1.265c-.42166667-.51-.86833333-.88666667-1.34-1.13-.47166667-.24166667-.99083333-.3625-1.5575-.3625-1.01166667 0-1.78166667.31-2.31.93s-.7925 1.52166667-.7925 2.705z" fill="#000096" transform="matrix(1 0 0 -1 418.086 46.067)"/><path d="m9.39 4.625v-.795h-6.5375c.06666667-.65666667.30333333-1.14916667.71-1.4775s.97416667-.4925 1.7025-.4925c.58833333 0 1.19083333.0875 1.8075.2625.61833333.175 1.25333333.43916667 1.905.7925v-2.155c-.66166667-.25-1.32333333-.43916667-1.985-.5675s-1.32333333-.1925-1.985-.1925c-1.58333333 0-2.81416667.4025-3.6925 1.2075-.87666667.805-1.315 1.93416667-1.315 3.3875 0 1.42666667.43083333 2.54833333 1.2925 3.365.86166667.81833333 2.04833333 1.2275 3.56 1.2275 1.375 0 2.475-.41416667 3.3-1.2425.825-.82666667 1.2375-1.93333333 1.2375-3.32zm-2.875.93c0 .53166667-.155.96-.465 1.285-.31.32666667-.715.49-1.215.49-.54166667 0-.98166667-.1525-1.32-.4575s-.54916667-.74416667-.6325-1.3175z" fill="#000096" transform="matrix(1 0 0 -1 428.915 46.067)"/><path d="m4.6575 0h-2.3225c-.79666667 1.28666667-1.385 2.50916667-1.765 3.6675-.38 1.16-.57 2.31-.57 3.45 0 1.14166667.19083333 2.29666667.5725 3.465.38333333 1.17.97083333 2.3925 1.7625 3.6675h2.3225c-.66666667-1.2333333-1.16666667-2.44-1.5-3.62s-.5-2.34583333-.5-3.4975c0-1.15.165-2.31666667.495-3.5.33-1.18166667.83166667-2.3925 1.505-3.6325z" fill="#000096" transform="matrix(1 0 0 -1 446.024 47.95)"/><path d="m3.345 2.21h5.1325v-2.21h-8.4775v2.21l4.2575 3.76c.38166667.34333333.66333333.67916667.845 1.0075s.2725.66916667.2725 1.0225c0 .54666667-.18333333.98666667-.55 1.32s-.855.5-1.465.5c-.46833333 0-.98166667-.1-1.54-.3-.55666667-.2-1.1525-.49833333-1.7875-.895v2.5625c.67666667.2233333 1.34583333.3933333 2.0075.51.66166667.1183333 1.31.1775 1.945.1775 1.39666667 0 2.48166667-.3075 3.255-.9225.77333333-.6133333 1.16-1.47 1.16-2.57 0-.635-.16416667-1.2275-.4925-1.7775-.32833333-.54833333-1.01833333-1.28416667-2.07-2.2075z" fill="#000096" transform="matrix(1 0 0 -1 453.226 45.84)"/><path d="m6.595 6.0725c0 1.45833333-.13666667 2.485-.41 3.08-.27333333.59666667-.73333333.895-1.38.895-.645 0-1.10583333-.29833333-1.3825-.895-.27666667-.595-.415-1.62166667-.415-3.08 0-1.475.13833333-2.515.415-3.12.27666667-.60333333.7375-.905 1.3825-.905.64166667 0 1.1.30166667 1.375.905.27666667.605.415 1.645.415 3.12zm3.0075-.025c0-1.93166667-.41666667-3.4225-1.25-4.4725s-2.01583333-1.575-3.5475-1.575c-1.53666667 0-2.72166667.525-3.555 1.575s-1.25 2.54083333-1.25 4.4725c0 1.93833333.41666667 3.43166667 1.25 4.48.83333333 1.05 2.01833333 1.575 3.555 1.575 1.53166667 0 2.71416667-.525 3.5475-1.575.83333333-1.04833333 1.25-2.54166667 1.25-4.48z" fill="#000096" transform="matrix(1 0 0 -1 463.859 46.067)"/><path d="m.07 2.078h2.658v7.539l-2.728-.562v2.047l2.71.563h2.86v-9.587h2.657v-2.078h-8.157z" fill="#000096" transform="matrix(1 0 0 -1 476.032 45.84)"/><path d="m4.5925 5.4475c-.56166667 0-.99416667-.15416667-1.2975-.4625-.30166667-.30666667-.4525-.74666667-.4525-1.32s.15083333-1.0125.4525-1.3175c.30333333-.30333333.73583333-.455 1.2975-.455.55833333 0 .98583333.15166667 1.2825.455.29666667.305.445.74416667.445 1.3175 0 .57833333-.14833333 1.02-.445 1.325s-.72416667.4575-1.2825.4575zm-2.195.99c-.70833333.215-1.2425.54333333-1.6025.985-.35833333.44333333-.5375.99583333-.5375 1.6575 0 .9833333.36666667 1.7325 1.1 2.2475.735.5166667 1.81333333.775 3.235.775 1.41166667 0 2.48416667-.2566667 3.2175-.77.735-.5133333 1.1025-1.2641667 1.1025-2.2525 0-.66166667-.18083333-1.21416667-.5425-1.6575-.36166667-.44166667-.89666667-.77-1.605-.985.79166667-.21833333 1.38916667-.57333333 1.7925-1.065s.605-1.1125.605-1.8625c0-1.15666667-.38416667-2.03083333-1.1525-2.6225s-1.9075-.8875-3.4175-.8875c-1.515 0-2.65916667.29583333-3.4325.8875s-1.16 1.46583333-1.16 2.6225c0 .75.20166667 1.37083333.605 1.8625s1.00083333.84666667 1.7925 1.065zm.7025 2.3375c0-.46333333.12916667-.82.3875-1.07s.62666667-.375 1.105-.375c.46833333 0 .83.125 1.085.375.25666667.25.385.60666667.385 1.07s-.12833333.81833333-.385 1.065c-.255.2483333-.61666667.3725-1.085.3725-.47833333 0-.84666667-.125-1.105-.375s-.3875-.60416667-.3875-1.0625z" fill="#000096" transform="matrix(1 0 0 -1 486.338 46.067)"/><path d="m0 2.272h4.905v-2.272h-4.905z" fill="#000096" transform="matrix(1 0 0 -1 497.36 42.37)"/><path d="m3.345 2.21h5.1325v-2.21h-8.4775v2.21l4.2575 3.76c.38166667.34333333.66333333.67916667.845 1.0075s.2725.66916667.2725 1.0225c0 .54666667-.18333333.98666667-.55 1.32s-.855.5-1.465.5c-.46833333 0-.98166667-.1-1.54-.3-.55666667-.2-1.1525-.49833333-1.7875-.895v2.5625c.67666667.2233333 1.34583333.3933333 2.0075.51.66166667.1183333 1.31.1775 1.945.1775 1.39666667 0 2.48166667-.3075 3.255-.9225.77333333-.6133333 1.16-1.47 1.16-2.57 0-.635-.16416667-1.2275-.4925-1.7775-.32833333-.54833333-1.01833333-1.28416667-2.07-2.2075z" fill="#000096" transform="matrix(1 0 0 -1 504.398 45.84)"/><path d="m6.595 6.0725c0 1.45833333-.13666667 2.485-.41 3.08-.27333333.59666667-.73333333.895-1.38.895-.645 0-1.10583333-.29833333-1.3825-.895-.27666667-.595-.415-1.62166667-.415-3.08 0-1.475.13833333-2.515.415-3.12.27666667-.60333333.7375-.905 1.3825-.905.64166667 0 1.1.30166667 1.375.905.27666667.605.415 1.645.415 3.12zm3.0075-.025c0-1.93166667-.41666667-3.4225-1.25-4.4725s-2.01583333-1.575-3.5475-1.575c-1.53666667 0-2.72166667.525-3.555 1.575s-1.25 2.54083333-1.25 4.4725c0 1.93833333.41666667 3.43166667 1.25 4.48.83333333 1.05 2.01833333 1.575 3.555 1.575 1.53166667 0 2.71416667-.525 3.5475-1.575.83333333-1.04833333 1.25-2.54166667 1.25-4.48z" fill="#000096" transform="matrix(1 0 0 -1 515.031 46.067)"/><path d="m3.345 2.21h5.1325v-2.21h-8.4775v2.21l4.2575 3.76c.38166667.34333333.66333333.67916667.845 1.0075s.2725.66916667.2725 1.0225c0 .54666667-.18333333.98666667-.55 1.32s-.855.5-1.465.5c-.46833333 0-.98166667-.1-1.54-.3-.55666667-.2-1.1525-.49833333-1.7875-.895v2.5625c.67666667.2233333 1.34583333.3933333 2.0075.51.66166667.1183333 1.31.1775 1.945.1775 1.39666667 0 2.48166667-.3075 3.255-.9225.77333333-.6133333 1.16-1.47 1.16-2.57 0-.635-.16416667-1.2275-.4925-1.7775-.32833333-.54833333-1.01833333-1.28416667-2.07-2.2075z" fill="#000096" transform="matrix(1 0 0 -1 526.664 45.84)"/><path d="m.46 11.8925h7.4775v-2.2125h-5.0775v-1.805c.22833333.06333333.45833333.11166667.69.145.23166667.035.4725.0525.7225.0525 1.42166667 0 2.52833333-.35583333 3.32-1.0675s1.1875-1.7025 1.1875-2.9725c0-1.26-.43083333-2.2475-1.2925-2.9625-.86166667-.71333333-2.05833333-1.07-3.59-1.07-.66166667 0-1.31666667.06416667-1.965.1925s-1.2925.3225-1.9325.5825v2.3675c.635-.365 1.2375-.63916667 1.8075-.8225.57-.18166667 1.10833333-.2725 1.615-.2725.72833333 0 1.30166667.17833333 1.72.535.42.35666667.63.84.63 1.45 0 .615-.21 1.09916667-.63 1.4525-.41833333.355-.99166667.5325-1.72.5325-.43333333 0-.895-.05666667-1.385-.17-.48833333-.11166667-1.01416667-.28416667-1.5775-.5175z" fill="#000096" transform="matrix(1 0 0 -1 537.766 46.067)"/><path d="m0 0c.66666667 1.24 1.16666667 2.45083333 1.5 3.6325.33333333 1.18333333.5 2.35.5 3.5 0 1.15166667-.16666667 2.3175-.5 3.4975s-.83333333 2.3866667-1.5 3.62h2.32c.79166667-1.275 1.37833333-2.4975 1.76-3.6675.38333333-1.16833333.575-2.32333333.575-3.465 0-1.14-.19-2.29-.57-3.45-.38-1.15833333-.96833333-2.38083333-1.765-3.6675z" fill="#000096" transform="matrix(1 0 0 -1 548.947 47.95)"/></g></g></svg>