<svg height="432" viewBox="0 0 720 432" width="720" xmlns="http://www.w3.org/2000/svg"><g fill="none" fill-rule="evenodd"><path d="m0 432h720v-432h-720z" fill="#fff" fill-rule="nonzero"/><path d="m0 332.64h558v-332.64h-558z" fill="#fff" fill-rule="nonzero" transform="translate(90 51.839)"/><path d="m0 211.2h65.758v-211.2h-65.758z" fill="#accbff" fill-rule="nonzero" transform="translate(115.363 173.279)"/><path d="m0 316.8h65.758v-316.8h-65.758z" fill="#accbff" fill-rule="nonzero" transform="translate(303.242 67.68)"/><path d="m0 264h65.758v-264h-65.758z" fill="#accbff" fill-rule="nonzero" transform="translate(491.121 120.479)"/><path d="m0 52.8h65.758v-52.8h-65.758z" fill="#4188ff" fill-rule="nonzero" transform="translate(181.121 331.68)"/><path d="m0 84.48h65.758v-84.48h-65.758z" fill="#4188ff" fill-rule="nonzero" transform="translate(369 299.999)"/><path d="m0 63.36h65.758v-63.36h-65.758z" fill="#4188ff" fill-rule="nonzero" transform="translate(556.878 321.12)"/><path d="m181.121 384.479v-332.64" stroke="#b0b0b0" stroke-dasharray="2.22 .96" stroke-opacity=".7" stroke-width=".6"/><path d="m181.121 384.479v-3.5" fill="#1a1a1a" fill-rule="nonzero" stroke="#1a1a1a" stroke-width=".8"/><path d="m4.149375 4.1025c.25375-.08625.500625-.27.740625-.55125s.48125-.668125.72375-1.160625l1.201875-2.390625h-1.273125l-1.1175 2.244375c-.29.58625-.570625.975-.841875 1.16625s-.64125.286875-1.11.286875h-1.29v-3.6975h-1.183125v8.74875h2.671875c1 0 1.74625-.209375 2.23875-.628125.4925-.4175.73875-1.048125.73875-1.891875 0-.55125-.128125-1.00875-.384375-1.3725-.25625-.3625-.628125-.61375-1.115625-.75375zm-2.96625 3.673125v-3.105h1.48875c.57 0 1.000625.131875 1.291875.395625s.436875.65125.436875 1.1625-.145625.896875-.436875 1.156875-.721875.39-1.291875.39z" fill="#1a1a1a" fill-rule="nonzero" transform="matrix(1 0 0 -1 131.966 397.098)"/><path d="m0 6.5625h1.078125v-6.5625h-1.078125zm0 2.555625h1.078125v-1.366875h-1.078125z" fill="#1a1a1a" fill-rule="nonzero" transform="matrix(1 0 0 -1 140.257 397.098)"/><path d="m4.663125 6.54v-1.02c-.30375.15625-.62.273125-.94875.350625-.3275.07875-.6675.118125-1.02.118125-.535 0-.93625-.081875-1.20375-.245625s-.40125-.41-.40125-.73875c0-.25.095625-.44625.286875-.58875s.57625-.278125 1.155-.406875l.369375-.0825c.765-.16375 1.30875-.395 1.63125-.69375s.48375-.715625.48375-1.250625c0-.61-.24125-1.093125-.72375-1.449375-.4825-.355-1.145625-.5325-1.989375-.5325-.35125 0-.7175.034375-1.09875.103125s-.7825.17125-1.20375.3075v1.11375c.39875-.2075.79125-.363125 1.1775-.466875.38625-.1025.769375-.15375 1.149375-.15375.5075 0 .8975.086875 1.17.260625.27375.17375.410625.41875.410625.735 0 .2925-.09875.516875-.29625.673125-.19625.15625-.62875.306875-1.2975.451875l-.375.088125c-.6675.14-1.15.355625-1.4475.646875-.29625.29125-.444375.690625-.444375 1.198125 0 .6175.21875 1.09375.65625 1.42875.4375.33625 1.05875.504375 1.86375.504375.3975 0 .771875-.029375 1.123125-.088125.3525-.0575.676875-.145.973125-.2625z" fill="#1a1a1a" fill-rule="nonzero" transform="matrix(1 0 0 -1 143.111 397.268)"/><path d="m0 9.118h1.084v-5.385l3.217 2.83h1.377l-3.481-3.07 3.629-3.493h-1.407l-3.335 3.204v-3.204h-1.084z" fill="#1a1a1a" fill-rule="nonzero" transform="matrix(1 0 0 -1 149.802 397.098)"/><path d="m4.00875 7.5825-1.606875-4.35375h3.2175zm-.669375 1.16625h1.3425l3.33375-8.74875h-1.23l-.796875 2.244375h-3.943125l-.796875-2.244375h-1.24875z" fill="#1a1a1a" fill-rule="nonzero" transform="matrix(1 0 0 -1 159.57 397.098)"/><path d="m4.663125 6.54v-1.02c-.30375.15625-.62.273125-.94875.350625-.3275.07875-.6675.118125-1.02.118125-.535 0-.93625-.081875-1.20375-.245625s-.40125-.41-.40125-.73875c0-.25.095625-.44625.286875-.58875s.57625-.278125 1.155-.406875l.369375-.0825c.765-.16375 1.30875-.395 1.63125-.69375s.48375-.715625.48375-1.250625c0-.61-.24125-1.093125-.72375-1.449375-.4825-.355-1.145625-.5325-1.989375-.5325-.35125 0-.7175.034375-1.09875.103125s-.7825.17125-1.20375.3075v1.11375c.39875-.2075.79125-.363125 1.1775-.466875.38625-.1025.769375-.15375 1.149375-.15375.5075 0 .8975.086875 1.17.260625.27375.17375.410625.41875.410625.735 0 .2925-.09875.516875-.29625.673125-.19625.15625-.62875.306875-1.2975.451875l-.375.088125c-.6675.14-1.15.355625-1.4475.646875-.29625.29125-.444375.690625-.444375 1.198125 0 .6175.21875 1.09375.65625 1.42875.4375.33625 1.05875.504375 1.86375.504375.3975 0 .771875-.029375 1.123125-.088125.3525-.0575.676875-.145.973125-.2625z" fill="#1a1a1a" fill-rule="nonzero" transform="matrix(1 0 0 -1 168.336 397.268)"/><path d="m4.663125 6.54v-1.02c-.30375.15625-.62.273125-.94875.350625-.3275.07875-.6675.118125-1.02.118125-.535 0-.93625-.081875-1.20375-.245625s-.40125-.41-.40125-.73875c0-.25.095625-.44625.286875-.58875s.57625-.278125 1.155-.406875l.369375-.0825c.765-.16375 1.30875-.395 1.63125-.69375s.48375-.715625.48375-1.250625c0-.61-.24125-1.093125-.72375-1.449375-.4825-.355-1.145625-.5325-1.989375-.5325-.35125 0-.7175.034375-1.09875.103125s-.7825.17125-1.20375.3075v1.11375c.39875-.2075.79125-.363125 1.1775-.466875.38625-.1025.769375-.15375 1.149375-.15375.5075 0 .8975.086875 1.17.260625.27375.17375.410625.41875.410625.735 0 .2925-.09875.516875-.29625.673125-.19625.15625-.62875.306875-1.2975.451875l-.375.088125c-.6675.14-1.15.355625-1.4475.646875-.29625.29125-.444375.690625-.444375 1.198125 0 .6175.21875 1.09375.65625 1.42875.4375.33625 1.05875.504375 1.86375.504375.3975 0 .771875-.029375 1.123125-.088125.3525-.0575.676875-.145.973125-.2625z" fill="#1a1a1a" fill-rule="nonzero" transform="matrix(1 0 0 -1 174.588 397.268)"/><path d="m6.0825 3.721875v-.526875h-4.9575c.0475-.7425.27125-1.308125.67125-1.696875s.9575-.583125 1.6725-.583125c.41375 0 .815.050625 1.20375.151875s.775.25375 1.15875.4575v-1.02c-.3875-.16375-.784375-.28875-1.190625-.375s-.818125-.129375-1.235625-.129375c-1.0475 0-1.876875.304375-2.488125.913125-.61125.61-.916875 1.435-.916875 2.475 0 1.07375.29 1.925625.87 2.555625.58.63125 1.3625.946875 2.3475.946875.8825 0 1.580625-.284375 2.094375-.853125.51375-.5675.770625-1.339375.770625-2.315625zm-1.078125.316875c-.0075.58875-.1725 1.05875-.495 1.41-.3225.3525-.749375.52875-1.280625.52875-.60125 0-1.0825-.17-1.44375-.51s-.569375-.81875-.624375-1.43625z" fill="#1a1a1a" fill-rule="nonzero" transform="matrix(1 0 0 -1 180.851 397.268)"/><path d="m4.663125 6.54v-1.02c-.30375.15625-.62.273125-.94875.350625-.3275.07875-.6675.118125-1.02.118125-.535 0-.93625-.081875-1.20375-.245625s-.40125-.41-.40125-.73875c0-.25.095625-.44625.286875-.58875s.57625-.278125 1.155-.406875l.369375-.0825c.765-.16375 1.30875-.395 1.63125-.69375s.48375-.715625.48375-1.250625c0-.61-.24125-1.093125-.72375-1.449375-.4825-.355-1.145625-.5325-1.989375-.5325-.35125 0-.7175.034375-1.09875.103125s-.7825.17125-1.20375.3075v1.11375c.39875-.2075.79125-.363125 1.1775-.466875.38625-.1025.769375-.15375 1.149375-.15375.5075 0 .8975.086875 1.17.260625.27375.17375.410625.41875.410625.735 0 .2925-.09875.516875-.29625.673125-.19625.15625-.62875.306875-1.2975.451875l-.375.088125c-.6675.14-1.15.355625-1.4475.646875-.29625.29125-.444375.690625-.444375 1.198125 0 .6175.21875 1.09375.65625 1.42875.4375.33625 1.05875.504375 1.86375.504375.3975 0 .771875-.029375 1.123125-.088125.3525-.0575.676875-.145.973125-.2625z" fill="#1a1a1a" fill-rule="nonzero" transform="matrix(1 0 0 -1 188.222 397.268)"/><path d="m4.663125 6.54v-1.02c-.30375.15625-.62.273125-.94875.350625-.3275.07875-.6675.118125-1.02.118125-.535 0-.93625-.081875-1.20375-.245625s-.40125-.41-.40125-.73875c0-.25.095625-.44625.286875-.58875s.57625-.278125 1.155-.406875l.369375-.0825c.765-.16375 1.30875-.395 1.63125-.69375s.48375-.715625.48375-1.250625c0-.61-.24125-1.093125-.72375-1.449375-.4825-.355-1.145625-.5325-1.989375-.5325-.35125 0-.7175.034375-1.09875.103125s-.7825.17125-1.20375.3075v1.11375c.39875-.2075.79125-.363125 1.1775-.466875.38625-.1025.769375-.15375 1.149375-.15375.5075 0 .8975.086875 1.17.260625.27375.17375.410625.41875.410625.735 0 .2925-.09875.516875-.29625.673125-.19625.15625-.62875.306875-1.2975.451875l-.375.088125c-.6675.14-1.15.355625-1.4475.646875-.29625.29125-.444375.690625-.444375 1.198125 0 .6175.21875 1.09375.65625 1.42875.4375.33625 1.05875.504375 1.86375.504375.3975 0 .771875-.029375 1.123125-.088125.3525-.0575.676875-.145.973125-.2625z" fill="#1a1a1a" fill-rule="nonzero" transform="matrix(1 0 0 -1 194.474 397.268)"/><path d="m5.150625 5.3025c.27.485.5925.8425.9675 1.0725s.81625.345 1.32375.345c.68375 0 1.21125-.239375 1.5825-.718125.37125-.4775.556875-1.1575.556875-2.04v-3.961875h-1.08375v3.92625c0 .62875-.111875 1.095-.335625 1.39875-.2225.305-.561875.4575-1.018125.4575-.55875 0-1.000625-.185625-1.325625-.556875-.32375-.37-.485625-.875625-.485625-1.516875v-3.70875h-1.08375v3.92625c0 .6325-.11125 1.1-.33375 1.4025s-.56625.45375-1.03125.45375c-.55125 0-.989375-.18625-1.314375-.55875-.32375-.3725-.485625-.8775-.485625-1.515v-3.70875h-1.08375v6.5625h1.08375v-1.02c.24625.4025.54125.699375.885.890625s.751875.286875 1.224375.286875c.4775 0 .883125-.12125 1.216875-.36375.33375-.24125.580625-.5925.740625-1.05375z" fill="#1a1a1a" fill-rule="nonzero" transform="matrix(1 0 0 -1 201.165 397.098)"/><path d="m6.0825 3.721875v-.526875h-4.9575c.0475-.7425.27125-1.308125.67125-1.696875s.9575-.583125 1.6725-.583125c.41375 0 .815.050625 1.20375.151875s.775.25375 1.15875.4575v-1.02c-.3875-.16375-.784375-.28875-1.190625-.375s-.818125-.129375-1.235625-.129375c-1.0475 0-1.876875.304375-2.488125.913125-.61125.61-.916875 1.435-.916875 2.475 0 1.07375.29 1.925625.87 2.555625.58.63125 1.3625.946875 2.3475.946875.8825 0 1.580625-.284375 2.094375-.853125.51375-.5675.770625-1.339375.770625-2.315625zm-1.078125.316875c-.0075.58875-.1725 1.05875-.495 1.41-.3225.3525-.749375.52875-1.280625.52875-.60125 0-1.0825-.17-1.44375-.51s-.569375-.81875-.624375-1.43625z" fill="#1a1a1a" fill-rule="nonzero" transform="matrix(1 0 0 -1 212.426 397.268)"/><path d="m5.4975 3.961875v-3.961875h-1.078125v3.92625c0 .62125-.12125 1.085625-.36375 1.393125-.2425.30875-.605625.463125-1.089375.463125-.5825 0-1.041875-.185625-1.378125-.556875-.33625-.37-.504375-.875625-.504375-1.516875v-3.70875h-1.08375v6.5625h1.08375v-1.02c.25875.395.5625.69.91125.885.35.195.75375.2925 1.21125.2925.75375 0 1.32375-.233125 1.71-.699375.3875-.46625.58125-1.1525.58125-2.05875z" fill="#1a1a1a" fill-rule="nonzero" transform="matrix(1 0 0 -1 220.237 397.098)"/><path d="m1.875 8.42625v-1.86375h2.22v-.838125h-2.22v-3.5625c0-.535.073125-.87875.219375-1.03125s.444375-.22875.894375-.22875h1.10625v-.901875h-1.10625c-.8325 0-1.406875.155-1.723125.465-.31625.31125-.474375.876875-.474375 1.696875v3.5625h-.79125v.838125h.79125v1.86375z" fill="#1a1a1a" fill-rule="nonzero" transform="matrix(1 0 0 -1 227.076 397.098)"/><path d="m368.999 384.479v-332.64" stroke="#b0b0b0" stroke-dasharray="2.22 .96" stroke-opacity=".7" stroke-width=".6"/><path d="m368.999 384.479v-3.5" fill="#1a1a1a" fill-rule="nonzero" stroke="#1a1a1a" stroke-width=".8"/><path d="m0 8.749h1.764l2.232-5.953 2.244 5.953h1.764v-8.749h-1.155v7.682l-2.255-6h-1.189l-2.256 6v-7.682h-1.149z" fill="#1a1a1a" fill-rule="nonzero" transform="matrix(1 0 0 -1 322.929 397.097)"/><path d="m3.39375 3.46875c-.87125 0-1.475-.099375-1.81125-.298125s-.504375-.53875-.504375-1.02c0-.3825.12625-.68625.37875-.91125.2525-.22375.595-.335625 1.0275-.335625.59875 0 1.07875.211875 1.44.635625s.541875.986875.541875 1.689375v.24zm2.150625.44625v-3.744375h-1.078125v.995625c-.24625-.3975-.553125-.69125-.920625-.88125s-.816875-.285-1.348125-.285c-.67125 0-1.205625.18875-1.603125.56625-.39625.3775-.594375.8825-.594375 1.515 0 .7375.246875 1.29375.740625 1.66875.495.375 1.2325.5625 2.2125.5625h1.513125v.106875c0 .49625-.163125.88-.489375 1.15125s-.784375.406875-1.374375.406875c-.375 0-.740625-.045-1.096875-.135-.355-.09-.69625-.225-1.02375-.405v.9975c.39375.1525.77625.26625 1.1475.34125.37125.07625.7325.114375 1.08375.114375.95 0 1.659375-.24625 2.128125-.73875.46875-.49125.703125-1.236875.703125-2.236875z" fill="#1a1a1a" fill-rule="nonzero" transform="matrix(1 0 0 -1 332.825 397.268)"/><path d="m3.84375 5.555625c-.12125.07-.253125.12125-.395625.15375-.1425.03375-.299375.050625-.470625.050625-.61 0-1.078125-.198125-1.404375-.594375s-.489375-.965625-.489375-1.708125v-3.4575h-1.08375v6.5625h1.08375v-1.02c.2275.39875.5225.694375.885.886875.36375.19375.805625.290625 1.325625.290625.07375 0 .155625-.005.245625-.015.09-.00875.189375-.023125.298125-.043125z" fill="#1a1a1a" fill-rule="nonzero" transform="matrix(1 0 0 -1 340.548 397.097)"/><path d="m0 9.118h1.084v-5.385l3.217 2.83h1.377l-3.481-3.07 3.629-3.493h-1.407l-3.335 3.204v-3.204h-1.084z" fill="#1a1a1a" fill-rule="nonzero" transform="matrix(1 0 0 -1 345.481 397.097)"/><path d="m6.0825 3.721875v-.526875h-4.9575c.0475-.7425.27125-1.308125.67125-1.696875s.9575-.583125 1.6725-.583125c.41375 0 .815.050625 1.20375.151875s.775.25375 1.15875.4575v-1.02c-.3875-.16375-.784375-.28875-1.190625-.375s-.818125-.129375-1.235625-.129375c-1.0475 0-1.876875.304375-2.488125.913125-.61125.61-.916875 1.435-.916875 2.475 0 1.07375.29 1.925625.87 2.555625.58.63125 1.3625.946875 2.3475.946875.8825 0 1.580625-.284375 2.094375-.853125.51375-.5675.770625-1.339375.770625-2.315625zm-1.078125.316875c-.0075.58875-.1725 1.05875-.495 1.41-.3225.3525-.749375.52875-1.280625.52875-.60125 0-1.0825-.17-1.44375-.51s-.569375-.81875-.624375-1.43625z" fill="#1a1a1a" fill-rule="nonzero" transform="matrix(1 0 0 -1 351.569 397.268)"/><path d="m1.875 8.42625v-1.86375h2.22v-.838125h-2.22v-3.5625c0-.535.073125-.87875.219375-1.03125s.444375-.22875.894375-.22875h1.10625v-.901875h-1.10625c-.8325 0-1.406875.155-1.723125.465-.31625.31125-.474375.876875-.474375 1.696875v3.5625h-.79125v.838125h.79125v1.86375z" fill="#1a1a1a" fill-rule="nonzero" transform="matrix(1 0 0 -1 358.612 397.097)"/><path d="m4.00875 7.5825-1.606875-4.35375h3.2175zm-.669375 1.16625h1.3425l3.33375-8.74875h-1.23l-.796875 2.244375h-3.943125l-.796875-2.244375h-1.24875z" fill="#1a1a1a" fill-rule="nonzero" transform="matrix(1 0 0 -1 366.902 397.097)"/><path d="m5.4975 3.961875v-3.961875h-1.078125v3.92625c0 .62125-.12125 1.085625-.36375 1.393125-.2425.30875-.605625.463125-1.089375.463125-.5825 0-1.041875-.185625-1.378125-.556875-.33625-.37-.504375-.875625-.504375-1.516875v-3.70875h-1.08375v6.5625h1.08375v-1.02c.25875.395.5625.69.91125.885.35.195.75375.2925 1.21125.2925.75375 0 1.32375-.233125 1.71-.699375.3875-.46625.58125-1.1525.58125-2.05875z" fill="#1a1a1a" fill-rule="nonzero" transform="matrix(1 0 0 -1 376.107 397.097)"/><path d="m3.39375 3.46875c-.87125 0-1.475-.099375-1.81125-.298125s-.504375-.53875-.504375-1.02c0-.3825.12625-.68625.37875-.91125.2525-.22375.595-.335625 1.0275-.335625.59875 0 1.07875.211875 1.44.635625s.541875.986875.541875 1.689375v.24zm2.150625.44625v-3.744375h-1.078125v.995625c-.24625-.3975-.553125-.69125-.920625-.88125s-.816875-.285-1.348125-.285c-.67125 0-1.205625.18875-1.603125.56625-.39625.3775-.594375.8825-.594375 1.515 0 .7375.246875 1.29375.740625 1.66875.495.375 1.2325.5625 2.2125.5625h1.513125v.106875c0 .49625-.163125.88-.489375 1.15125s-.784375.406875-1.374375.406875c-.375 0-.740625-.045-1.096875-.135-.355-.09-.69625-.225-1.02375-.405v.9975c.39375.1525.77625.26625 1.1475.34125.37125.07625.7325.114375 1.08375.114375.95 0 1.659375-.24625 2.128125-.73875.46875-.49125.703125-1.236875.703125-2.236875z" fill="#1a1a1a" fill-rule="nonzero" transform="matrix(1 0 0 -1 383.343 397.268)"/><path d="m0 9.118h1.078v-9.118h-1.078z" fill="#1a1a1a" fill-rule="nonzero" transform="matrix(1 0 0 -1 391.107 397.097)"/><path d="m3.5025 1.88625c-.30375-.78125-.600625-1.290625-.890625-1.528125-.28875-.23875-.675-.358125-1.15875-.358125h-.8625v.901875h.63375c.29625 0 .52625.070625.69.211875.165.14.346875.471875.545625.995625l.193125.49125-2.653125 6.4575h1.141875l2.05125-5.131875 2.05125 5.131875h1.141875z" fill="#1a1a1a" fill-rule="nonzero" transform="matrix(1 0 0 -1 393.669 399.593)"/><path d="m4.663125 6.54v-1.02c-.30375.15625-.62.273125-.94875.350625-.3275.07875-.6675.118125-1.02.118125-.535 0-.93625-.081875-1.20375-.245625s-.40125-.41-.40125-.73875c0-.25.095625-.44625.286875-.58875s.57625-.278125 1.155-.406875l.369375-.0825c.765-.16375 1.30875-.395 1.63125-.69375s.48375-.715625.48375-1.250625c0-.61-.24125-1.093125-.72375-1.449375-.4825-.355-1.145625-.5325-1.989375-.5325-.35125 0-.7175.034375-1.09875.103125s-.7825.17125-1.20375.3075v1.11375c.39875-.2075.79125-.363125 1.1775-.466875.38625-.1025.769375-.15375 1.149375-.15375.5075 0 .8975.086875 1.17.260625.27375.17375.410625.41875.410625.735 0 .2925-.09875.516875-.29625.673125-.19625.15625-.62875.306875-1.2975.451875l-.375.088125c-.6675.14-1.15.355625-1.4475.646875-.29625.29125-.444375.690625-.444375 1.198125 0 .6175.21875 1.09375.65625 1.42875.4375.33625 1.05875.504375 1.86375.504375.3975 0 .771875-.029375 1.123125-.088125.3525-.0575.676875-.145.973125-.2625z" fill="#1a1a1a" fill-rule="nonzero" transform="matrix(1 0 0 -1 401.063 397.268)"/><path d="m0 6.5625h1.078125v-6.5625h-1.078125zm0 2.555625h1.078125v-1.366875h-1.078125z" fill="#1a1a1a" fill-rule="nonzero" transform="matrix(1 0 0 -1 407.795 397.097)"/><path d="m4.663125 6.54v-1.02c-.30375.15625-.62.273125-.94875.350625-.3275.07875-.6675.118125-1.02.118125-.535 0-.93625-.081875-1.20375-.245625s-.40125-.41-.40125-.73875c0-.25.095625-.44625.286875-.58875s.57625-.278125 1.155-.406875l.369375-.0825c.765-.16375 1.30875-.395 1.63125-.69375s.48375-.715625.48375-1.250625c0-.61-.24125-1.093125-.72375-1.449375-.4825-.355-1.145625-.5325-1.989375-.5325-.35125 0-.7175.034375-1.09875.103125s-.7825.17125-1.20375.3075v1.11375c.39875-.2075.79125-.363125 1.1775-.466875.38625-.1025.769375-.15375 1.149375-.15375.5075 0 .8975.086875 1.17.260625.27375.17375.410625.41875.410625.735 0 .2925-.09875.516875-.29625.673125-.19625.15625-.62875.306875-1.2975.451875l-.375.088125c-.6675.14-1.15.355625-1.4475.646875-.29625.29125-.444375.690625-.444375 1.198125 0 .6175.21875 1.09375.65625 1.42875.4375.33625 1.05875.504375 1.86375.504375.3975 0 .771875-.029375 1.123125-.088125.3525-.0575.676875-.145.973125-.2625z" fill="#1a1a1a" fill-rule="nonzero" transform="matrix(1 0 0 -1 410.649 397.268)"/><path d="m556.878 384.479v-332.64" stroke="#b0b0b0" stroke-dasharray="2.22 .96" stroke-opacity=".7" stroke-width=".6"/><path d="m556.878 384.479v-3.5" fill="#1a1a1a" fill-rule="nonzero" stroke="#1a1a1a" stroke-width=".8"/><path d="m0 8.749h5.027v-.998h-3.844v-2.578h3.469v-.995h-3.469v-4.178h-1.183z" fill="#1a1a1a" fill-rule="nonzero" transform="matrix(1 0 0 -1 510.23 397.098)"/><path d="m3.84375 5.555625c-.12125.07-.253125.12125-.395625.15375-.1425.03375-.299375.050625-.470625.050625-.61 0-1.078125-.198125-1.404375-.594375s-.489375-.965625-.489375-1.708125v-3.4575h-1.08375v6.5625h1.08375v-1.02c.2275.39875.5225.694375.885.886875.36375.19375.805625.290625 1.325625.290625.07375 0 .155625-.005.245625-.015.09-.00875.189375-.023125.298125-.043125z" fill="#1a1a1a" fill-rule="nonzero" transform="matrix(1 0 0 -1 516.174 397.098)"/><path d="m3.39375 3.46875c-.87125 0-1.475-.099375-1.81125-.298125s-.504375-.53875-.504375-1.02c0-.3825.12625-.68625.37875-.91125.2525-.22375.595-.335625 1.0275-.335625.59875 0 1.07875.211875 1.44.635625s.541875.986875.541875 1.689375v.24zm2.150625.44625v-3.744375h-1.078125v.995625c-.24625-.3975-.553125-.69125-.920625-.88125s-.816875-.285-1.348125-.285c-.67125 0-1.205625.18875-1.603125.56625-.39625.3775-.594375.8825-.594375 1.515 0 .7375.246875 1.29375.740625 1.66875.495.375 1.2325.5625 2.2125.5625h1.513125v.106875c0 .49625-.163125.88-.489375 1.15125s-.784375.406875-1.374375.406875c-.375 0-.740625-.045-1.096875-.135-.355-.09-.69625-.225-1.02375-.405v.9975c.39375.1525.77625.26625 1.1475.34125.37125.07625.7325.114375 1.08375.114375.95 0 1.659375-.24625 2.128125-.73875.46875-.49125.703125-1.236875.703125-2.236875z" fill="#1a1a1a" fill-rule="nonzero" transform="matrix(1 0 0 -1 520.738 397.268)"/><path d="m0 2.76v3.973125h1.078125v-3.931875c0-.62125.120625-1.0875.361875-1.39875.2425-.31.60625-.465 1.09125-.465.58125 0 1.040625.185625 1.378125.556875.33875.37125.508125.8775.508125 1.51875v3.72h1.078125v-6.5625h-1.078125v1.00875c-.26125-.39875-.565-.695-.91125-.88875-.345-.19375-.74625-.290625-1.20375-.290625-.75375 0-1.32625.234375-1.7175.703125-.39.46875-.585 1.154375-.585 2.056875z" fill="#1a1a1a" fill-rule="nonzero" transform="matrix(1 0 0 -1 528.392 397.268)"/><path d="m4.786875 5.7375v3.55125h1.078125v-9.118125h-1.078125v.984375c-.22625-.39-.5125-.68-.85875-.87-.345-.19-.76-.285-1.245-.285-.7925 0-1.438125.31625-1.936875.94875-.4975.63375-.74625 1.46625-.74625 2.4975s.24875 1.863125.74625 2.495625c.49875.6325 1.144375.94875 1.936875.94875.485 0 .9-.095 1.245-.285.34625-.18875.6325-.478125.85875-.868125zm-3.673125-2.29125c0-.7925.163125-1.414375.489375-1.865625s.774375-.676875 1.344375-.676875 1.01875.225625 1.34625.676875c.32875.45125.493125 1.073125.493125 1.865625s-.164375 1.414375-.493125 1.865625c-.3275.45125-.77625.676875-1.34625.676875s-1.018125-.225625-1.344375-.676875-.489375-1.073125-.489375-1.865625z" fill="#1a1a1a" fill-rule="nonzero" transform="matrix(1 0 0 -1 535.64 397.268)"/><path d="m1.183125 7.775625v-6.8025h1.430625c1.2075 0 2.09125.273125 2.65125.819375.56.5475.84 1.41125.84 2.59125 0 1.17125-.28 2.029375-.84 2.574375s-1.44375.8175-2.65125.8175zm-1.183125.973125h2.431875c1.695 0 2.93875-.3525 3.73125-1.0575.79375-.705 1.190625-1.8075 1.190625-3.3075 0-1.50875-.39875-2.616875-1.19625-3.324375-.79625-.70625-2.038125-1.059375-3.725625-1.059375h-2.431875z" fill="#1a1a1a" fill-rule="nonzero" transform="matrix(1 0 0 -1 547.587 397.098)"/><path d="m6.0825 3.721875v-.526875h-4.9575c.0475-.7425.27125-1.308125.67125-1.696875s.9575-.583125 1.6725-.583125c.41375 0 .815.050625 1.20375.151875s.775.25375 1.15875.4575v-1.02c-.3875-.16375-.784375-.28875-1.190625-.375s-.818125-.129375-1.235625-.129375c-1.0475 0-1.876875.304375-2.488125.913125-.61125.61-.916875 1.435-.916875 2.475 0 1.07375.29 1.925625.87 2.555625.58.63125 1.3625.946875 2.3475.946875.8825 0 1.580625-.284375 2.094375-.853125.51375-.5675.770625-1.339375.770625-2.315625zm-1.078125.316875c-.0075.58875-.1725 1.05875-.495 1.41-.3225.3525-.749375.52875-1.280625.52875-.60125 0-1.0825-.17-1.44375-.51s-.569375-.81875-.624375-1.43625z" fill="#1a1a1a" fill-rule="nonzero" transform="matrix(1 0 0 -1 556.311 397.268)"/><path d="m1.875 8.42625v-1.86375h2.22v-.838125h-2.22v-3.5625c0-.535.073125-.87875.219375-1.03125s.444375-.22875.894375-.22875h1.10625v-.901875h-1.10625c-.8325 0-1.406875.155-1.723125.465-.31625.31125-.474375.876875-.474375 1.696875v3.5625h-.79125v.838125h.79125v1.86375z" fill="#1a1a1a" fill-rule="nonzero" transform="matrix(1 0 0 -1 563.355 397.098)"/><path d="m6.0825 3.721875v-.526875h-4.9575c.0475-.7425.27125-1.308125.67125-1.696875s.9575-.583125 1.6725-.583125c.41375 0 .815.050625 1.20375.151875s.775.25375 1.15875.4575v-1.02c-.3875-.16375-.784375-.28875-1.190625-.375s-.818125-.129375-1.235625-.129375c-1.0475 0-1.876875.304375-2.488125.913125-.61125.61-.916875 1.435-.916875 2.475 0 1.07375.29 1.925625.87 2.555625.58.63125 1.3625.946875 2.3475.946875.8825 0 1.580625-.284375 2.094375-.853125.51375-.5675.770625-1.339375.770625-2.315625zm-1.078125.316875c-.0075.58875-.1725 1.05875-.495 1.41-.3225.3525-.749375.52875-1.280625.52875-.60125 0-1.0825-.17-1.44375-.51s-.569375-.81875-.624375-1.43625z" fill="#1a1a1a" fill-rule="nonzero" transform="matrix(1 0 0 -1 568.4 397.268)"/><path d="m5.191875 6.481875v-1.00875c-.305.16875-.610625.295-.916875.37875s-.615625.125625-.928125.125625c-.7 0-1.24375-.221875-1.63125-.665625-.38625-.4425-.579375-1.064375-.579375-1.865625s.193125-1.42375.579375-1.8675c.3875-.4425.93125-.66375 1.63125-.66375.3125 0 .621875.041875.928125.125625s.611875.21.916875.37875v-.9975c-.30125-.14-.613125-.245-.935625-.315-.32125-.07125-.66375-.106875-1.0275-.106875-.98875 0-1.774375.310625-2.356875.931875-.58125.62125-.871875 1.459375-.871875 2.514375 0 1.07.29375 1.91125.88125 2.52375.58875.61375 1.395.920625 2.41875.920625.33125 0 .655-.034375.97125-.103125.31625-.0675.623125-.169375.920625-.305625z" fill="#1a1a1a" fill-rule="nonzero" transform="matrix(1 0 0 -1 575.782 397.268)"/><path d="m1.875 8.42625v-1.86375h2.22v-.838125h-2.22v-3.5625c0-.535.073125-.87875.219375-1.03125s.444375-.22875.894375-.22875h1.10625v-.901875h-1.10625c-.8325 0-1.406875.155-1.723125.465-.31625.31125-.474375.876875-.474375 1.696875v3.5625h-.79125v.838125h.79125v1.86375z" fill="#1a1a1a" fill-rule="nonzero" transform="matrix(1 0 0 -1 582.04 397.098)"/><path d="m0 6.5625h1.078125v-6.5625h-1.078125zm0 2.555625h1.078125v-1.366875h-1.078125z" fill="#1a1a1a" fill-rule="nonzero" transform="matrix(1 0 0 -1 587.553 397.098)"/><path d="m3.01125 5.9775c-.5775 0-1.034375-.225625-1.370625-.676875s-.504375-1.069375-.504375-1.854375.166875-1.403125.500625-1.854375c.335-.45125.793125-.676875 1.374375-.676875.575 0 1.03.22625 1.365.67875.33625.45375.504375 1.07125.504375 1.8525 0 .7775-.168125 1.39375-.504375 1.84875-.335.455-.79.6825-1.365.6825zm0 .913125c.9375 0 1.67375-.305 2.20875-.915.53625-.60875.804375-1.451875.804375-2.529375 0-1.07375-.268125-1.916875-.804375-2.529375-.535-.61125-1.27125-.916875-2.20875-.916875-.94125 0-1.67875.305625-2.2125.916875-.5325.6125-.79875 1.455625-.79875 2.529375 0 1.0775.26625 1.920625.79875 2.529375.53375.61 1.27125.915 2.2125.915z" fill="#1a1a1a" fill-rule="nonzero" transform="matrix(1 0 0 -1 590.419 397.268)"/><path d="m5.4975 3.961875v-3.961875h-1.078125v3.92625c0 .62125-.12125 1.085625-.36375 1.393125-.2425.30875-.605625.463125-1.089375.463125-.5825 0-1.041875-.185625-1.378125-.556875-.33625-.37-.504375-.875625-.504375-1.516875v-3.70875h-1.08375v6.5625h1.08375v-1.02c.25875.395.5625.69.91125.885.35.195.75375.2925 1.21125.2925.75375 0 1.32375-.233125 1.71-.699375.3875-.46625.58125-1.1525.58125-2.05875z" fill="#1a1a1a" fill-rule="nonzero" transform="matrix(1 0 0 -1 598.188 397.098)"/><g fill="#1a1a1a" fill-rule="nonzero" transform="matrix(1 0 0 -1 352.887 412.882)"><path d="m0 8.749h7.401v-.998h-3.105v-7.751h-1.189v7.751h-3.107z" transform="translate(0 .17)"/><path d="m3.39375 3.46875c-.87125 0-1.475-.099375-1.81125-.298125s-.504375-.53875-.504375-1.02c0-.3825.12625-.68625.37875-.91125.2525-.22375.595-.335625 1.0275-.335625.59875 0 1.07875.211875 1.44.635625s.541875.986875.541875 1.689375v.24zm2.150625.44625v-3.744375h-1.078125v.995625c-.24625-.3975-.553125-.69125-.920625-.88125s-.816875-.285-1.348125-.285c-.67125 0-1.205625.18875-1.603125.56625-.39625.3775-.594375.8825-.594375 1.515 0 .7375.246875 1.29375.740625 1.66875.495.375 1.2325.5625 2.2125.5625h1.513125v.106875c0 .49625-.163125.88-.489375 1.15125s-.784375.406875-1.374375.406875c-.375 0-.740625-.045-1.096875-.135-.355-.09-.69625-.225-1.02375-.405v.9975c.39375.1525.77625.26625 1.1475.34125.37125.07625.7325.114375 1.08375.114375.95 0 1.659375-.24625 2.128125-.73875.46875-.49125.703125-1.236875.703125-2.236875z" transform="translate(6.106)"/><path d="m4.663125 6.54v-1.02c-.30375.15625-.62.273125-.94875.350625-.3275.07875-.6675.118125-1.02.118125-.535 0-.93625-.081875-1.20375-.245625s-.40125-.41-.40125-.73875c0-.25.095625-.44625.286875-.58875s.57625-.278125 1.155-.406875l.369375-.0825c.765-.16375 1.30875-.395 1.63125-.69375s.48375-.715625.48375-1.250625c0-.61-.24125-1.093125-.72375-1.449375-.4825-.355-1.145625-.5325-1.989375-.5325-.35125 0-.7175.034375-1.09875.103125s-.7825.17125-1.20375.3075v1.11375c.39875-.2075.79125-.363125 1.1775-.466875.38625-.1025.769375-.15375 1.149375-.15375.5075 0 .8975.086875 1.17.260625.27375.17375.410625.41875.410625.735 0 .2925-.09875.516875-.29625.673125-.19625.15625-.62875.306875-1.2975.451875l-.375.088125c-.6675.14-1.15.355625-1.4475.646875-.29625.29125-.444375.690625-.444375 1.198125 0 .6175.21875 1.09375.65625 1.42875.4375.33625 1.05875.504375 1.86375.504375.3975 0 .771875-.029375 1.123125-.088125.3525-.0575.676875-.145.973125-.2625z" transform="translate(13.39)"/><path d="m0 9.118h1.084v-5.385l3.217 2.83h1.377l-3.481-3.07 3.629-3.493h-1.407l-3.335 3.204v-3.204h-1.084z" transform="translate(20.08 .17)"/><path d="m4.663125 6.54v-1.02c-.30375.15625-.62.273125-.94875.350625-.3275.07875-.6675.118125-1.02.118125-.535 0-.93625-.081875-1.20375-.245625s-.40125-.41-.40125-.73875c0-.25.095625-.44625.286875-.58875s.57625-.278125 1.155-.406875l.369375-.0825c.765-.16375 1.30875-.395 1.63125-.69375s.48375-.715625.48375-1.250625c0-.61-.24125-1.093125-.72375-1.449375-.4825-.355-1.145625-.5325-1.989375-.5325-.35125 0-.7175.034375-1.09875.103125s-.7825.17125-1.20375.3075v1.11375c.39875-.2075.79125-.363125 1.1775-.466875.38625-.1025.769375-.15375 1.149375-.15375.5075 0 .8975.086875 1.17.260625.27375.17375.410625.41875.410625.735 0 .2925-.09875.516875-.29625.673125-.19625.15625-.62875.306875-1.2975.451875l-.375.088125c-.6675.14-1.15.355625-1.4475.646875-.29625.29125-.444375.690625-.444375 1.198125 0 .6175.21875 1.09375.65625 1.42875.4375.33625 1.05875.504375 1.86375.504375.3975 0 .771875-.029375 1.123125-.088125.3525-.0575.676875-.145.973125-.2625z" transform="translate(26.591)"/></g><path d="m90 384.479h558" stroke="#b0b0b0" stroke-dasharray="2.22 .96" stroke-opacity=".7" stroke-width=".6"/><path d="m90 384.479h3.5" fill="#1a1a1a" fill-rule="nonzero" stroke="#1a1a1a" stroke-width=".8"/><path d="m3.0225 8.139375c-.60875 0-1.066875-.3-1.374375-.9-.30625-.59875-.459375-1.5-.459375-2.70375 0-1.19875.153125-2.098125.459375-2.698125.3075-.6.765625-.9 1.374375-.9.61375 0 1.07375.3 1.38.9.3075.6.46125 1.499375.46125 2.698125 0 1.20375-.15375 2.105-.46125 2.70375-.30625.6-.76625.9-1.38.9zm0 .9375c.98125 0 1.730625-.388125 2.248125-1.164375.5175-.775.77625-1.900625.77625-3.376875 0-1.4725-.25875-2.596875-.77625-3.373125-.5175-.775-1.266875-1.1625-2.248125-1.1625-.98 0-1.72875.3875-2.24625 1.1625-.5175.77625-.77625 1.900625-.77625 3.373125 0 1.47625.25875 2.601875.77625 3.376875.5175.77625 1.26625 1.164375 2.24625 1.164375z" fill="#1a1a1a" fill-rule="nonzero" transform="matrix(1 0 0 -1 79.656 389.209)"/><path d="m90 331.68h558" stroke="#b0b0b0" stroke-dasharray="2.22 .96" stroke-opacity=".7" stroke-width=".6"/><path d="m90 331.68h3.5" fill="#1a1a1a" fill-rule="nonzero" stroke="#1a1a1a" stroke-width=".8"/><path d="m.369375 8.919375h4.64625v-.9975h-3.5625v-2.143125c.17125.05875.3425.1025.51375.13125.1725.02875.345.043125.5175.043125.97625 0 1.749375-.2675 2.319375-.8025.57125-.535.856875-1.259375.856875-2.173125 0-.94125-.293125-1.673125-.879375-2.195625-.58625-.52125-1.4125-.781875-2.47875-.781875-.3675 0-.741875.03125-1.123125.09375-.38.0625-.773125.15625-1.179375.28125v1.190625c.35125-.19125.714375-.33375 1.089375-.4275s.77125-.140625 1.18875-.140625c.67625 0 1.21125.1775 1.605.5325.395.355.5925.8375.5925 1.4475 0 .60875-.1975 1.090625-.5925 1.445625-.39375.35625-.92875.534375-1.605.534375-.31625 0-.631875-.035-.946875-.105-.31375-.07-.634375-.179375-.961875-.328125z" fill="#1a1a1a" fill-rule="nonzero" transform="matrix(1 0 0 -1 79.791 336.41)"/><path d="m90 278.879h558" stroke="#b0b0b0" stroke-dasharray="2.22 .96" stroke-opacity=".7" stroke-width=".6"/><path d="m90 278.879h3.5" fill="#1a1a1a" fill-rule="nonzero" stroke="#1a1a1a" stroke-width=".8"/><g fill="#1a1a1a" fill-rule="nonzero" transform="matrix(1 0 0 -1 72.548 283.609)"><path d="m.171.996h1.933v6.675l-2.104-.422v1.078l2.092.422h1.184v-7.753h1.933v-.996h-5.038z" transform="translate(0 .17)"/><path d="m3.0225 8.139375c-.60875 0-1.066875-.3-1.374375-.9-.30625-.59875-.459375-1.5-.459375-2.70375 0-1.19875.153125-2.098125.459375-2.698125.3075-.6.765625-.9 1.374375-.9.61375 0 1.07375.3 1.38.9.3075.6.46125 1.499375.46125 2.698125 0 1.20375-.15375 2.105-.46125 2.70375-.30625.6-.76625.9-1.38.9zm0 .9375c.98125 0 1.730625-.388125 2.248125-1.164375.5175-.775.77625-1.900625.77625-3.376875 0-1.4725-.25875-2.596875-.77625-3.373125-.5175-.775-1.266875-1.1625-2.248125-1.1625-.98 0-1.72875.3875-2.24625 1.1625-.5175.77625-.77625 1.900625-.77625 3.373125 0 1.47625.25875 2.601875.77625 3.376875.5175.77625 1.26625 1.164375 2.24625 1.164375z" transform="translate(7.108)"/></g><path d="m90 226.08h558" stroke="#b0b0b0" stroke-dasharray="2.22 .96" stroke-opacity=".7" stroke-width=".6"/><path d="m90 226.08h3.5" fill="#1a1a1a" fill-rule="nonzero" stroke="#1a1a1a" stroke-width=".8"/><g fill="#1a1a1a" fill-rule="nonzero" transform="matrix(1 0 0 -1 72.548 230.81)"><path d="m.171.996h1.933v6.675l-2.104-.422v1.078l2.092.422h1.184v-7.753h1.933v-.996h-5.038z" transform="translate(0 .17)"/><path d="m.369375 8.919375h4.64625v-.9975h-3.5625v-2.143125c.17125.05875.3425.1025.51375.13125.1725.02875.345.043125.5175.043125.97625 0 1.749375-.2675 2.319375-.8025.57125-.535.856875-1.259375.856875-2.173125 0-.94125-.293125-1.673125-.879375-2.195625-.58625-.52125-1.4125-.781875-2.47875-.781875-.3675 0-.741875.03125-1.123125.09375-.38.0625-.773125.15625-1.179375.28125v1.190625c.35125-.19125.714375-.33375 1.089375-.4275s.77125-.140625 1.18875-.140625c.67625 0 1.21125.1775 1.605.5325.395.355.5925.8375.5925 1.4475 0 .60875-.1975 1.090625-.5925 1.445625-.39375.35625-.92875.534375-1.605.534375-.31625 0-.631875-.035-.946875-.105-.31375-.07-.634375-.179375-.961875-.328125z" transform="translate(7.243)"/></g><path d="m89.999 173.279h558" stroke="#b0b0b0" stroke-dasharray="2.22 .96" stroke-opacity=".7" stroke-width=".6"/><path d="m89.999 173.279h3.5" fill="#1a1a1a" fill-rule="nonzero" stroke="#1a1a1a" stroke-width=".8"/><g fill="#1a1a1a" fill-rule="nonzero" transform="matrix(1 0 0 -1 72.109 178.009)"><path d="m1.423125.995625h4.130625v-.995625h-5.55375v.995625c.44875.465 1.060625 1.08875 1.835625 1.87125.77625.78375 1.26375 1.289375 1.4625 1.516875.37875.425.643125.785.793125 1.08.15125.295.226875.585.226875.87 0 .465-.163125.84375-.489375 1.13625-.32625.29375-.75125.440625-1.275.440625-.37125 0-.763125-.064375-1.175625-.193125-.41125-.12875-.85125-.324375-1.32-.586875v1.19625c.47625.19125.92125.335625 1.335.433125.415.0975.794375.14625 1.138125.14625.90625 0 1.62875-.226875 2.1675-.680625.53875-.4525.808125-1.0575.808125-1.815 0-.36-.0675-.70125-.2025-1.02375-.13375-.32125-.37875-.700625-.735-1.138125-.0975-.11375-.408125-.44125-.931875-.9825-.5225-.54125-1.260625-1.298125-2.214375-2.270625z" transform="translate(0 .17)"/><path d="m3.0225 8.139375c-.60875 0-1.066875-.3-1.374375-.9-.30625-.59875-.459375-1.5-.459375-2.70375 0-1.19875.153125-2.098125.459375-2.698125.3075-.6.765625-.9 1.374375-.9.61375 0 1.07375.3 1.38.9.3075.6.46125 1.499375.46125 2.698125 0 1.20375-.15375 2.105-.46125 2.70375-.30625.6-.76625.9-1.38.9zm0 .9375c.98125 0 1.730625-.388125 2.248125-1.164375.5175-.775.77625-1.900625.77625-3.376875 0-1.4725-.25875-2.596875-.77625-3.373125-.5175-.775-1.266875-1.1625-2.248125-1.1625-.98 0-1.72875.3875-2.24625 1.1625-.5175.77625-.77625 1.900625-.77625 3.373125 0 1.47625.25875 2.601875.77625 3.376875.5175.77625 1.26625 1.164375 2.24625 1.164375z" transform="translate(7.547)"/></g><path d="m89.999 120.479h558" stroke="#b0b0b0" stroke-dasharray="2.22 .96" stroke-opacity=".7" stroke-width=".6"/><path d="m89.999 120.479h3.5" fill="#1a1a1a" fill-rule="nonzero" stroke="#1a1a1a" stroke-width=".8"/><g fill="#1a1a1a" fill-rule="nonzero" transform="matrix(1 0 0 -1 72.109 125.209)"><path d="m1.423125.995625h4.130625v-.995625h-5.55375v.995625c.44875.465 1.060625 1.08875 1.835625 1.87125.77625.78375 1.26375 1.289375 1.4625 1.516875.37875.425.643125.785.793125 1.08.15125.295.226875.585.226875.87 0 .465-.163125.84375-.489375 1.13625-.32625.29375-.75125.440625-1.275.440625-.37125 0-.763125-.064375-1.175625-.193125-.41125-.12875-.85125-.324375-1.32-.586875v1.19625c.47625.19125.92125.335625 1.335.433125.415.0975.794375.14625 1.138125.14625.90625 0 1.62875-.226875 2.1675-.680625.53875-.4525.808125-1.0575.808125-1.815 0-.36-.0675-.70125-.2025-1.02375-.13375-.32125-.37875-.700625-.735-1.138125-.0975-.11375-.408125-.44125-.931875-.9825-.5225-.54125-1.260625-1.298125-2.214375-2.270625z" transform="translate(0 .17)"/><path d="m.369375 8.919375h4.64625v-.9975h-3.5625v-2.143125c.17125.05875.3425.1025.51375.13125.1725.02875.345.043125.5175.043125.97625 0 1.749375-.2675 2.319375-.8025.57125-.535.856875-1.259375.856875-2.173125 0-.94125-.293125-1.673125-.879375-2.195625-.58625-.52125-1.4125-.781875-2.47875-.781875-.3675 0-.741875.03125-1.123125.09375-.38.0625-.773125.15625-1.179375.28125v1.190625c.35125-.19125.714375-.33375 1.089375-.4275s.77125-.140625 1.18875-.140625c.67625 0 1.21125.1775 1.605.5325.395.355.5925.8375.5925 1.4475 0 .60875-.1975 1.090625-.5925 1.445625-.39375.35625-.92875.534375-1.605.534375-.31625 0-.631875-.035-.946875-.105-.31375-.07-.634375-.179375-.961875-.328125z" transform="translate(7.682)"/></g><path d="m90 67.679h558" stroke="#b0b0b0" stroke-dasharray="2.22 .96" stroke-opacity=".7" stroke-width=".6"/><path d="m90 67.679h3.5" fill="#1a1a1a" fill-rule="nonzero" stroke="#1a1a1a" stroke-width=".8"/><g fill="#1a1a1a" fill-rule="nonzero" transform="matrix(1 0 0 -1 72.145 72.409)"><path d="m3.954375 4.888125c.56625-.12125 1.008125-.37375 1.325625-.7575.31875-.3825.478125-.855.478125-1.4175 0-.8625-.296875-1.530625-.890625-2.004375-.59375-.4725-1.4375-.70875-2.53125-.70875-.36625 0-.74375.03625-1.1325.10875s-.79.18125-1.20375.32625v1.141875c.3275-.19125.68625-.335625 1.07625-.433125.39125-.0975.8-.14625 1.22625-.14625.74125 0 1.30625.14625 1.695.43875s.583125.718125.583125 1.276875c0 .51625-.180625.919375-.541875 1.209375-.36125.29125-.86375.436875-1.5075.436875h-1.02v.973125h1.066875c.58125 0 1.02625.11625 1.335.34875s.463125.5675.463125 1.005c0 .44875-.159375.793125-.478125 1.033125-.3175.24125-.773125.361875-1.366875.361875-.325 0-.673125-.035625-1.044375-.106875-.37125-.07-.779375-.17875-1.224375-.32625v1.05375c.45.125.87125.21875 1.26375.28125s.7625.09375 1.11.09375c.89875 0 1.609375-.204375 2.131875-.613125.52375-.4075.785625-.95875.785625-1.65375 0-.485-.13875-.894375-.41625-1.228125s-.671875-.565-1.183125-.69375z"/><path d="m3.0225 8.139375c-.60875 0-1.066875-.3-1.374375-.9-.30625-.59875-.459375-1.5-.459375-2.70375 0-1.19875.153125-2.098125.459375-2.698125.3075-.6.765625-.9 1.374375-.9.61375 0 1.07375.3 1.38.9.3075.6.46125 1.499375.46125 2.698125 0 1.20375-.15375 2.105-.46125 2.70375-.30625.6-.76625.9-1.38.9zm0 .9375c.98125 0 1.730625-.388125 2.248125-1.164375.5175-.775.77625-1.900625.77625-3.376875 0-1.4725-.25875-2.596875-.77625-3.373125-.5175-.775-1.266875-1.1625-2.248125-1.1625-.98 0-1.72875.3875-2.24625 1.1625-.5175.77625-.77625 1.900625-.77625 3.373125 0 1.47625.25875 2.601875.77625 3.376875.5175.77625 1.26625 1.164375 2.24625 1.164375z" transform="translate(7.511)"/></g><path d="m1.183125 7.775625v-3.286875h1.48875c.55125 0 .976875.1425 1.276875.4275.30125.285.451875.69125.451875 1.21875 0 .52375-.150625.928125-.451875 1.213125-.3.285-.725625.4275-1.276875.4275zm-1.183125.973125h2.671875c.98125 0 1.7225-.221875 2.22375-.665625.5025-.44375.75375-1.093125.75375-1.948125 0-.86375-.25125-1.51625-.75375-1.9575-.50125-.44125-1.2425-.661875-2.22375-.661875h-1.48875v-3.515625h-1.183125z" fill="#1a1a1a" fill-rule="nonzero" transform="matrix(0 -1 -1 0 64.734 295.812)"/><path d="m3.84375 5.555625c-.12125.07-.253125.12125-.395625.15375-.1425.03375-.299375.050625-.470625.050625-.61 0-1.078125-.198125-1.404375-.594375s-.489375-.965625-.489375-1.708125v-3.4575h-1.08375v6.5625h1.08375v-1.02c.2275.39875.5225.694375.885.886875.36375.19375.805625.290625 1.325625.290625.07375 0 .155625-.005.245625-.015.09-.00875.189375-.023125.298125-.043125z" fill="#1a1a1a" fill-rule="nonzero" transform="matrix(0 -1 -1 0 64.734 288.874)"/><path d="m3.01125 5.9775c-.5775 0-1.034375-.225625-1.370625-.676875s-.504375-1.069375-.504375-1.854375.166875-1.403125.500625-1.854375c.335-.45125.793125-.676875 1.374375-.676875.575 0 1.03.22625 1.365.67875.33625.45375.504375 1.07125.504375 1.8525 0 .7775-.168125 1.39375-.504375 1.84875-.335.455-.79.6825-1.365.6825zm0 .913125c.9375 0 1.67375-.305 2.20875-.915.53625-.60875.804375-1.451875.804375-2.529375 0-1.07375-.268125-1.916875-.804375-2.529375-.535-.61125-1.27125-.916875-2.20875-.916875-.94125 0-1.67875.305625-2.2125.916875-.5325.6125-.79875 1.455625-.79875 2.529375 0 1.0775.26625 1.920625.79875 2.529375.53375.61 1.27125.915 2.2125.915z" fill="#1a1a1a" fill-rule="nonzero" transform="matrix(0 -1 -1 0 64.905 284.638)"/><path d="m5.191875 6.481875v-1.00875c-.305.16875-.610625.295-.916875.37875s-.615625.125625-.928125.125625c-.7 0-1.24375-.221875-1.63125-.665625-.38625-.4425-.579375-1.064375-.579375-1.865625s.193125-1.42375.579375-1.8675c.3875-.4425.93125-.66375 1.63125-.66375.3125 0 .621875.041875.928125.125625s.611875.21.916875.37875v-.9975c-.30125-.14-.613125-.245-.935625-.315-.32125-.07125-.66375-.106875-1.0275-.106875-.98875 0-1.774375.310625-2.356875.931875-.58125.62125-.871875 1.459375-.871875 2.514375 0 1.07.29375 1.91125.88125 2.52375.58875.61375 1.395.920625 2.41875.920625.33125 0 .655-.034375.97125-.103125.31625-.0675.623125-.169375.920625-.305625z" fill="#1a1a1a" fill-rule="nonzero" transform="matrix(0 -1 -1 0 64.905 277.296)"/><path d="m6.0825 3.721875v-.526875h-4.9575c.0475-.7425.27125-1.308125.67125-1.696875s.9575-.583125 1.6725-.583125c.41375 0 .815.050625 1.20375.151875s.775.25375 1.15875.4575v-1.02c-.3875-.16375-.784375-.28875-1.190625-.375s-.818125-.129375-1.235625-.129375c-1.0475 0-1.876875.304375-2.488125.913125-.61125.61-.916875 1.435-.916875 2.475 0 1.07375.29 1.925625.87 2.555625.58.63125 1.3625.946875 2.3475.946875.8825 0 1.580625-.284375 2.094375-.853125.51375-.5675.770625-1.339375.770625-2.315625zm-1.078125.316875c-.0075.58875-.1725 1.05875-.495 1.41-.3225.3525-.749375.52875-1.280625.52875-.60125 0-1.0825-.17-1.44375-.51s-.569375-.81875-.624375-1.43625z" fill="#1a1a1a" fill-rule="nonzero" transform="matrix(0 -1 -1 0 64.905 270.698)"/><path d="m4.663125 6.54v-1.02c-.30375.15625-.62.273125-.94875.350625-.3275.07875-.6675.118125-1.02.118125-.535 0-.93625-.081875-1.20375-.245625s-.40125-.41-.40125-.73875c0-.25.095625-.44625.286875-.58875s.57625-.278125 1.155-.406875l.369375-.0825c.765-.16375 1.30875-.395 1.63125-.69375s.48375-.715625.48375-1.250625c0-.61-.24125-1.093125-.72375-1.449375-.4825-.355-1.145625-.5325-1.989375-.5325-.35125 0-.7175.034375-1.09875.103125s-.7825.17125-1.20375.3075v1.11375c.39875-.2075.79125-.363125 1.1775-.466875.38625-.1025.769375-.15375 1.149375-.15375.5075 0 .8975.086875 1.17.260625.27375.17375.410625.41875.410625.735 0 .2925-.09875.516875-.29625.673125-.19625.15625-.62875.306875-1.2975.451875l-.375.088125c-.6675.14-1.15.355625-1.4475.646875-.29625.29125-.444375.690625-.444375 1.198125 0 .6175.21875 1.09375.65625 1.42875.4375.33625 1.05875.504375 1.86375.504375.3975 0 .771875-.029375 1.123125-.088125.3525-.0575.676875-.145.973125-.2625z" fill="#1a1a1a" fill-rule="nonzero" transform="matrix(0 -1 -1 0 64.905 263.327)"/><path d="m4.663125 6.54v-1.02c-.30375.15625-.62.273125-.94875.350625-.3275.07875-.6675.118125-1.02.118125-.535 0-.93625-.081875-1.20375-.245625s-.40125-.41-.40125-.73875c0-.25.095625-.44625.286875-.58875s.57625-.278125 1.155-.406875l.369375-.0825c.765-.16375 1.30875-.395 1.63125-.69375s.48375-.715625.48375-1.250625c0-.61-.24125-1.093125-.72375-1.449375-.4825-.355-1.145625-.5325-1.989375-.5325-.35125 0-.7175.034375-1.09875.103125s-.7825.17125-1.20375.3075v1.11375c.39875-.2075.79125-.363125 1.1775-.466875.38625-.1025.769375-.15375 1.149375-.15375.5075 0 .8975.086875 1.17.260625.27375.17375.410625.41875.410625.735 0 .2925-.09875.516875-.29625.673125-.19625.15625-.62875.306875-1.2975.451875l-.375.088125c-.6675.14-1.15.355625-1.4475.646875-.29625.29125-.444375.690625-.444375 1.198125 0 .6175.21875 1.09375.65625 1.42875.4375.33625 1.05875.504375 1.86375.504375.3975 0 .771875-.029375 1.123125-.088125.3525-.0575.676875-.145.973125-.2625z" fill="#1a1a1a" fill-rule="nonzero" transform="matrix(0 -1 -1 0 64.905 257.075)"/><path d="m0 6.5625h1.078125v-6.5625h-1.078125zm0 2.555625h1.078125v-1.366875h-1.078125z" fill="#1a1a1a" fill-rule="nonzero" transform="matrix(0 -1 -1 0 64.734 250.342)"/><path d="m5.4975 3.961875v-3.961875h-1.078125v3.92625c0 .62125-.12125 1.085625-.36375 1.393125-.2425.30875-.605625.463125-1.089375.463125-.5825 0-1.041875-.185625-1.378125-.556875-.33625-.37-.504375-.875625-.504375-1.516875v-3.70875h-1.08375v6.5625h1.08375v-1.02c.25875.395.5625.69.91125.885.35.195.75375.2925 1.21125.2925.75375 0 1.32375-.233125 1.71-.699375.3875-.46625.58125-1.1525.58125-2.05875z" fill="#1a1a1a" fill-rule="nonzero" transform="matrix(0 -1 -1 0 64.734 247.05)"/><path d="m4.786875 5.85375c0 .78125-.16125 1.38625-.48375 1.815-.32125.43-.773125.645-1.355625.645-.5775 0-1.0275-.215-1.35-.645-.3225-.42875-.48375-1.03375-.48375-1.815 0-.7775.16125-1.38125.48375-1.81125s.7725-.645 1.35-.645c.5825 0 1.034375.215 1.355625.645.3225.43.48375 1.03375.48375 1.81125zm1.078125-2.544375c0-1.11625-.248125-1.946875-.744375-2.491875-.495-.545-1.254375-.8175-2.278125-.8175-.37875 0-.73625.028125-1.0725.084375s-.6625.143125-.97875.260625v1.048125c.31625-.17125.62875-.2975.9375-.37875.30875-.0825.623125-.12375.943125-.12375.7075 0 1.236875.184375 1.588125.553125s.526875.92625.526875 1.6725v.534375c-.2225-.3875-.5075-.676875-.855-.868125s-.76375-.286875-1.24875-.286875c-.80375 0-1.451875.30625-1.944375.91875-.4925.61375-.73875 1.426875-.73875 2.439375 0 1.015.24625 1.82875.73875 2.44125.4925.61375 1.140625.920625 1.944375.920625.485 0 .90125-.095625 1.24875-.286875s.6325-.48.855-.86625v.995625h1.078125z" fill="#1a1a1a" fill-rule="nonzero" transform="matrix(0 -1 -1 0 67.23 239.872)"/><path d="m0 8.749h7.401v-.998h-3.105v-7.751h-1.189v7.751h-3.107z" fill="#1a1a1a" fill-rule="nonzero" transform="matrix(0 -1 -1 0 64.734 229.138)"/><path d="m0 6.5625h1.078125v-6.5625h-1.078125zm0 2.555625h1.078125v-1.366875h-1.078125z" fill="#1a1a1a" fill-rule="nonzero" transform="matrix(0 -1 -1 0 64.734 221.017)"/><path d="m5.150625 5.3025c.27.485.5925.8425.9675 1.0725s.81625.345 1.32375.345c.68375 0 1.21125-.239375 1.5825-.718125.37125-.4775.556875-1.1575.556875-2.04v-3.961875h-1.08375v3.92625c0 .62875-.111875 1.095-.335625 1.39875-.2225.305-.561875.4575-1.018125.4575-.55875 0-1.000625-.185625-1.325625-.556875-.32375-.37-.485625-.875625-.485625-1.516875v-3.70875h-1.08375v3.92625c0 .6325-.11125 1.1-.33375 1.4025s-.56625.45375-1.03125.45375c-.55125 0-.989375-.18625-1.314375-.55875-.32375-.3725-.485625-.8775-.485625-1.515v-3.70875h-1.08375v6.5625h1.08375v-1.02c.24625.4025.54125.699375.885.890625s.751875.286875 1.224375.286875c.4775 0 .883125-.12125 1.216875-.36375.33375-.24125.580625-.5925.740625-1.05375z" fill="#1a1a1a" fill-rule="nonzero" transform="matrix(0 -1 -1 0 64.734 217.724)"/><path d="m6.0825 3.721875v-.526875h-4.9575c.0475-.7425.27125-1.308125.67125-1.696875s.9575-.583125 1.6725-.583125c.41375 0 .815.050625 1.20375.151875s.775.25375 1.15875.4575v-1.02c-.3875-.16375-.784375-.28875-1.190625-.375s-.818125-.129375-1.235625-.129375c-1.0475 0-1.876875.304375-2.488125.913125-.61125.61-.916875 1.435-.916875 2.475 0 1.07375.29 1.925625.87 2.555625.58.63125 1.3625.946875 2.3475.946875.8825 0 1.580625-.284375 2.094375-.853125.51375-.5675.770625-1.339375.770625-2.315625zm-1.078125.316875c-.0075.58875-.1725 1.05875-.495 1.41-.3225.3525-.749375.52875-1.280625.52875-.60125 0-1.0825-.17-1.44375-.51s-.569375-.81875-.624375-1.43625z" fill="#1a1a1a" fill-rule="nonzero" transform="matrix(0 -1 -1 0 64.905 206.462)"/><path d="m2.68875 10.6875c-.5225-.8975-.91125-1.78625-1.16625-2.66625-.25375-.87875-.380625-1.769375-.380625-2.671875 0-.90125.128125-1.794375.384375-2.679375s.64375-1.775 1.1625-2.67h-.9375c-.585.91875-1.023125 1.82125-1.314375 2.7075s-.436875 1.766875-.436875 2.641875c0 .87125.144375 1.748125.433125 2.630625.29.88375.729375 1.78625 1.318125 2.7075z" fill="#1a1a1a" fill-rule="nonzero" transform="matrix(0 -1 -1 0 66.317 194.895)"/><path d="m0 8.749h1.764l2.232-5.953 2.244 5.953h1.764v-8.749h-1.155v7.682l-2.255-6h-1.189l-2.256 6v-7.682h-1.149z" fill="#1a1a1a" fill-rule="nonzero" transform="matrix(0 -1 -1 0 64.734 190.067)"/><path d="m0 6.5625h1.078125v-6.5625h-1.078125zm0 2.555625h1.078125v-1.366875h-1.078125z" fill="#1a1a1a" fill-rule="nonzero" transform="matrix(0 -1 -1 0 64.734 179.761)"/><path d="m5.4975 3.961875v-3.961875h-1.078125v3.92625c0 .62125-.12125 1.085625-.36375 1.393125-.2425.30875-.605625.463125-1.089375.463125-.5825 0-1.041875-.185625-1.378125-.556875-.33625-.37-.504375-.875625-.504375-1.516875v-3.70875h-1.08375v6.5625h1.08375v-1.02c.25875.395.5625.69.91125.885.35.195.75375.2925 1.21125.2925.75375 0 1.32375-.233125 1.71-.699375.3875-.46625.58125-1.1525.58125-2.05875z" fill="#1a1a1a" fill-rule="nonzero" transform="matrix(0 -1 -1 0 64.734 176.468)"/><path d="m0 2.76v3.973125h1.078125v-3.931875c0-.62125.120625-1.0875.361875-1.39875.2425-.31.60625-.465 1.09125-.465.58125 0 1.040625.185625 1.378125.556875.33875.37125.508125.8775.508125 1.51875v3.72h1.078125v-6.5625h-1.078125v1.00875c-.26125-.39875-.565-.695-.91125-.88875-.345-.19375-.74625-.290625-1.20375-.290625-.75375 0-1.32625.234375-1.7175.703125-.39.46875-.585 1.154375-.585 2.056875z" fill="#1a1a1a" fill-rule="nonzero" transform="matrix(0 -1 -1 0 64.905 168.932)"/><path d="m1.875 8.42625v-1.86375h2.22v-.838125h-2.22v-3.5625c0-.535.073125-.87875.219375-1.03125s.444375-.22875.894375-.22875h1.10625v-.901875h-1.10625c-.8325 0-1.406875.155-1.723125.465-.31625.31125-.474375.876875-.474375 1.696875v3.5625h-.79125v.838125h.79125v1.86375z" fill="#1a1a1a" fill-rule="nonzero" transform="matrix(0 -1 -1 0 64.734 162.024)"/><path d="m6.0825 3.721875v-.526875h-4.9575c.0475-.7425.27125-1.308125.67125-1.696875s.9575-.583125 1.6725-.583125c.41375 0 .815.050625 1.20375.151875s.775.25375 1.15875.4575v-1.02c-.3875-.16375-.784375-.28875-1.190625-.375s-.818125-.129375-1.235625-.129375c-1.0475 0-1.876875.304375-2.488125.913125-.61125.61-.916875 1.435-.916875 2.475 0 1.07375.29 1.925625.87 2.555625.58.63125 1.3625.946875 2.3475.946875.8825 0 1.580625-.284375 2.094375-.853125.51375-.5675.770625-1.339375.770625-2.315625zm-1.078125.316875c-.0075.58875-.1725 1.05875-.495 1.41-.3225.3525-.749375.52875-1.280625.52875-.60125 0-1.0825-.17-1.44375-.51s-.569375-.81875-.624375-1.43625z" fill="#1a1a1a" fill-rule="nonzero" transform="matrix(0 -1 -1 0 64.905 156.979)"/><path d="m4.663125 6.54v-1.02c-.30375.15625-.62.273125-.94875.350625-.3275.07875-.6675.118125-1.02.118125-.535 0-.93625-.081875-1.20375-.245625s-.40125-.41-.40125-.73875c0-.25.095625-.44625.286875-.58875s.57625-.278125 1.155-.406875l.369375-.0825c.765-.16375 1.30875-.395 1.63125-.69375s.48375-.715625.48375-1.250625c0-.61-.24125-1.093125-.72375-1.449375-.4825-.355-1.145625-.5325-1.989375-.5325-.35125 0-.7175.034375-1.09875.103125s-.7825.17125-1.20375.3075v1.11375c.39875-.2075.79125-.363125 1.1775-.466875.38625-.1025.769375-.15375 1.149375-.15375.5075 0 .8975.086875 1.17.260625.27375.17375.410625.41875.410625.735 0 .2925-.09875.516875-.29625.673125-.19625.15625-.62875.306875-1.2975.451875l-.375.088125c-.6675.14-1.15.355625-1.4475.646875-.29625.29125-.444375.690625-.444375 1.198125 0 .6175.21875 1.09375.65625 1.42875.4375.33625 1.05875.504375 1.86375.504375.3975 0 .771875-.029375 1.123125-.088125.3525-.0575.676875-.145.973125-.2625z" fill="#1a1a1a" fill-rule="nonzero" transform="matrix(0 -1 -1 0 64.905 149.608)"/><path d="m0 10.6875h.9375c.585-.92125 1.023125-1.82375 1.314375-2.7075.29125-.8825.436875-1.759375.436875-2.630625 0-.875-.145625-1.755625-.436875-2.641875s-.729375-1.78875-1.314375-2.7075h-.9375c.51875.895.90625 1.785 1.1625 2.67s.384375 1.778125.384375 2.679375c0 .9025-.128125 1.793125-.384375 2.671875-.25625.88-.64375 1.76875-1.1625 2.66625z" fill="#1a1a1a" fill-rule="nonzero" transform="matrix(0 -1 -1 0 66.317 143.045)"/><path d="m90 384.479v-332.64" stroke="#1a1a1a" stroke-linecap="square"/><path d="m90 384.48h558" stroke="#1a1a1a" stroke-linecap="square"/><g fill-rule="nonzero"><path d="m0 11.665h7.375v-1.33h-5.798v-3.452h5.556v-1.328h-5.556v-4.228h5.938v-1.327h-7.515z" fill="#333" transform="matrix(1 0 0 -1 140.075 45.839)"/><path d="m5.57 12.1575v-1.1975h-1.375c-.515 0-.87333333-.1041667-1.075-.3125-.2-.2083333-.3-.5833333-.3-1.125v-.7725h2.3675v-1.1175h-2.3675v-7.6325h-1.445v7.6325h-1.375v1.1175h1.375v.61c0 .9733333.22666667 1.6825.68 2.1275.45333333.4466667 1.17166667.67 2.155.67z" fill="#333" transform="matrix(1 0 0 -1 148.982 45.839)"/><path d="m5.57 12.1575v-1.1975h-1.375c-.515 0-.87333333-.1041667-1.075-.3125-.2-.2083333-.3-.5833333-.3-1.125v-.7725h2.3675v-1.1175h-2.3675v-7.6325h-1.445v7.6325h-1.375v1.1175h1.375v.61c0 .9733333.22666667 1.6825.68 2.1275.45333333.4466667 1.17166667.67 2.155.67z" fill="#333" transform="matrix(1 0 0 -1 154.615 45.839)"/><path d="m0 8.75h1.4375v-8.75h-1.4375zm0 3.4075h1.4375v-1.8225h-1.4375z" fill="#333" transform="matrix(1 0 0 -1 161.388 45.839)"/><path d="m6.9225 8.6425v-1.345c-.40666667.225-.81416667.39333333-1.2225.505s-.82083333.1675-1.2375.1675c-.93333333 0-1.65833333-.29583333-2.175-.8875-.515-.59-.7725-1.41916667-.7725-2.4875s.2575-1.89833333.7725-2.49c.51666667-.59 1.24166667-.885 2.175-.885.41666667 0 .82916667.05583333 1.2375.1675s.81583333.28 1.2225.505v-1.33c-.40166667-.18666667-.8175-.32666667-1.2475-.42-.42833333-.095-.885-.1425-1.37-.1425-1.31833333 0-2.36583333.41416667-3.1425 1.2425-.775.82833333-1.1625 1.94583333-1.1625 3.3525 0 1.42666667.39166667 2.54833333 1.175 3.365.785.81833333 1.86 1.2275 3.225 1.2275.44166667 0 .87333333-.04583333 1.295-.1375.42166667-.09.83083333-.22583333 1.2275-.4075z" fill="#333" transform="matrix(1 0 0 -1 165.208 46.067)"/><path d="m0 8.75h1.4375v-8.75h-1.4375zm0 3.4075h1.4375v-1.8225h-1.4375z" fill="#333" transform="matrix(1 0 0 -1 174.63 45.839)"/><path d="m8.11 4.9625v-.7025h-6.61c.06333333-.99.36166667-1.74416667.895-2.2625s1.27666667-.7775 2.23-.7775c.55166667 0 1.08666667.0675 1.605.2025s1.03333333.33833333 1.545.61v-1.36c-.51666667-.21833333-1.04583333-.385-1.5875-.5s-1.09083333-.1725-1.6475-.1725c-1.39666667 0-2.5025.40583333-3.3175 1.2175-.815.81333333-1.2225 1.91333333-1.2225 3.3 0 1.43166667.38666667 2.5675 1.16 3.4075.77333333.84166667 1.81666667 1.2625 3.13 1.2625 1.17666667 0 2.1075-.37916667 2.7925-1.1375.685-.75666667 1.0275-1.78583333 1.0275-3.0875zm-1.4375.4225c-.01.785-.23 1.41166667-.66 1.88-.43.47-.99916667.705-1.7075.705-.80166667 0-1.44333333-.22666667-1.925-.68s-.75916667-1.09166667-.8325-1.915z" fill="#333" transform="matrix(1 0 0 -1 178.45 46.067)"/><path d="m7.33 5.2825v-5.2825h-1.4375v5.235c0 .82833333-.16166667 1.4475-.485 1.8575-.32333333.41166667-.8075.6175-1.4525.6175-.77666667 0-1.38916667-.2475-1.8375-.7425-.44833333-.49333333-.6725-1.1675-.6725-2.0225v-4.945h-1.445v8.75h1.445v-1.36c.345.52666667.75.92 1.215 1.18.46666667.26 1.005.39 1.615.39 1.005 0 1.765-.31083333 2.28-.9325.51666667-.62166667.775-1.53666667.775-2.745z" fill="#333" transform="matrix(1 0 0 -1 188.864 45.839)"/><path d="m6.9225 8.6425v-1.345c-.40666667.225-.81416667.39333333-1.2225.505s-.82083333.1675-1.2375.1675c-.93333333 0-1.65833333-.29583333-2.175-.8875-.515-.59-.7725-1.41916667-.7725-2.4875s.2575-1.89833333.7725-2.49c.51666667-.59 1.24166667-.885 2.175-.885.41666667 0 .82916667.05583333 1.2375.1675s.81583333.28 1.2225.505v-1.33c-.40166667-.18666667-.8175-.32666667-1.2475-.42-.42833333-.095-.885-.1425-1.37-.1425-1.31833333 0-2.36583333.41416667-3.1425 1.2425-.775.82833333-1.1625 1.94583333-1.1625 3.3525 0 1.42666667.39166667 2.54833333 1.175 3.365.785.81833333 1.86 1.2275 3.225 1.2275.44166667 0 .87333333-.04583333 1.295-.1375.42166667-.09.83083333-.22583333 1.2275-.4075z" fill="#333" transform="matrix(1 0 0 -1 198.435 46.067)"/><path d="m4.67 2.515c-.405-1.04166667-.80083333-1.72083333-1.1875-2.0375-.385-.31833333-.9-.4775-1.545-.4775h-1.15v1.2025h.845c.395 0 .70166667.09416667.92.2825.22.18666667.4625.62916667.7275 1.3275l.2575.655-3.5375 8.61h1.5225l2.735-6.8425 2.735 6.8425h1.5225z" fill="#333" transform="matrix(1 0 0 -1 206.826 49.167)"/><path d="m4.015 7.97c-.77 0-1.37916667-.30083333-1.8275-.9025s-.6725-1.42583333-.6725-2.4725.2225-1.87083333.6675-2.4725c.44666667-.60166667 1.0575-.9025 1.8325-.9025.76666667 0 1.37333333.30166667 1.82.905.44833333.605.6725 1.42833333.6725 2.47 0 1.03666667-.22416667 1.85833333-.6725 2.465-.44666667.60666667-1.05333333.91-1.82.91zm0 1.2175c1.25 0 2.23166667-.40666667 2.945-1.22.715-.81166667 1.0725-1.93583333 1.0725-3.3725 0-1.43166667-.3575-2.55583333-1.0725-3.3725-.71333333-.815-1.695-1.2225-2.945-1.2225-1.255 0-2.23833333.4075-2.95 1.2225-.71.81666667-1.065 1.94083333-1.065 3.3725 0 1.43666667.355 2.56083333 1.065 3.3725.71166667.81333333 1.695 1.22 2.95 1.22z" fill="#333" transform="matrix(1 0 0 -1 221.785 46.067)"/><path d="m5.57 12.1575v-1.1975h-1.375c-.515 0-.87333333-.1041667-1.075-.3125-.2-.2083333-.3-.5833333-.3-1.125v-.7725h2.3675v-1.1175h-2.3675v-7.6325h-1.445v7.6325h-1.375v1.1175h1.375v.61c0 .9733333.22666667 1.6825.68 2.1275.45333333.4466667 1.17166667.67 2.155.67z" fill="#333" transform="matrix(1 0 0 -1 231.06 45.839)"/><path d="m5.345 10.11-2.1425-5.805h4.29zm-.8925 1.555h1.79l4.445-11.665h-1.64l-1.0625 2.9925h-5.2575l-1.0625-2.9925h-1.665z" fill="#333" transform="matrix(1 0 0 -1 241.536 45.839)"/><path d="m0 11.665h1.577v-11.665h-1.577z" fill="#333" transform="matrix(1 0 0 -1 253.927 45.839)"/><path d="m0 1.28h4.21v-1.28h-4.21z" fill="#333" transform="matrix(1 0 0 -1 257.858 42.097)"/><path d="m0 11.665h7.375v-1.33h-5.798v-3.452h5.556v-1.328h-5.556v-4.228h5.938v-1.327h-7.515z" fill="#333" transform="matrix(1 0 0 -1 264.419 45.839)"/><path d="m7.33 5.2825v-5.2825h-1.4375v5.235c0 .82833333-.16166667 1.4475-.485 1.8575-.32333333.41166667-.8075.6175-1.4525.6175-.77666667 0-1.38916667-.2475-1.8375-.7425-.44833333-.49333333-.6725-1.1675-.6725-2.0225v-4.945h-1.445v8.75h1.445v-1.36c.345.52666667.75.92 1.215 1.18.46666667.26 1.005.39 1.615.39 1.005 0 1.765-.31083333 2.28-.9325.51666667-.62166667.775-1.53666667.775-2.745z" fill="#333" transform="matrix(1 0 0 -1 274.411 45.839)"/><path d="m7.33 5.2825v-5.2825h-1.4375v5.235c0 .82833333-.16166667 1.4475-.485 1.8575-.32333333.41166667-.8075.6175-1.4525.6175-.77666667 0-1.38916667-.2475-1.8375-.7425-.44833333-.49333333-.6725-1.1675-.6725-2.0225v-4.945h-1.445v12.1575h1.445v-4.7675c.345.52666667.75.92 1.215 1.18.46666667.26 1.005.39 1.615.39 1.005 0 1.765-.31083333 2.28-.9325.51666667-.62166667.775-1.53666667.775-2.745z" fill="#333" transform="matrix(1 0 0 -1 284.551 45.839)"/><path d="m4.525 4.625c-1.16166667 0-1.96666667-.1325-2.415-.3975s-.6725-.71833333-.6725-1.36c0-.51.16833333-.915.505-1.215.33666667-.29833333.79333333-.4475 1.37-.4475.79833333 0 1.43833333.2825 1.92.8475s.7225 1.31583333.7225 2.2525v.32zm2.8675.595v-4.9925h-1.4375v1.3275c-.32833333-.53-.7375-.92166667-1.2275-1.175s-1.08916667-.38-1.7975-.38c-.895 0-1.6075.25166667-2.1375.755-.52833333.50333333-.7925 1.17666667-.7925 2.02 0 .98333333.32916667 1.725.9875 2.225.66.5 1.64333333.75 2.95.75h2.0175v.1425c0 .66166667-.2175 1.17333333-.6525 1.535s-1.04583333.5425-1.8325.5425c-.5 0-.9875-.06-1.4625-.18-.47333333-.12-.92833333-.3-1.365-.54v1.33c.525.20333333 1.035.355 1.53.455.495.10166667.97666667.1525 1.445.1525 1.26666667 0 2.2125-.32833333 2.8375-.985.625-.655.9375-1.64916667.9375-2.9825z" fill="#333" transform="matrix(1 0 0 -1 294.199 46.067)"/><path d="m7.33 5.2825v-5.2825h-1.4375v5.235c0 .82833333-.16166667 1.4475-.485 1.8575-.32333333.41166667-.8075.6175-1.4525.6175-.77666667 0-1.38916667-.2475-1.8375-.7425-.44833333-.49333333-.6725-1.1675-.6725-2.0225v-4.945h-1.445v8.75h1.445v-1.36c.345.52666667.75.92 1.215 1.18.46666667.26 1.005.39 1.615.39 1.005 0 1.765-.31083333 2.28-.9325.51666667-.62166667.775-1.53666667.775-2.745z" fill="#333" transform="matrix(1 0 0 -1 304.497 45.839)"/><path d="m6.9225 8.6425v-1.345c-.40666667.225-.81416667.39333333-1.2225.505s-.82083333.1675-1.2375.1675c-.93333333 0-1.65833333-.29583333-2.175-.8875-.515-.59-.7725-1.41916667-.7725-2.4875s.2575-1.89833333.7725-2.49c.51666667-.59 1.24166667-.885 2.175-.885.41666667 0 .82916667.05583333 1.2375.1675s.81583333.28 1.2225.505v-1.33c-.40166667-.18666667-.8175-.32666667-1.2475-.42-.42833333-.095-.885-.1425-1.37-.1425-1.31833333 0-2.36583333.41416667-3.1425 1.2425-.775.82833333-1.1625 1.94583333-1.1625 3.3525 0 1.42666667.39166667 2.54833333 1.175 3.365.785.81833333 1.86 1.2275 3.225 1.2275.44166667 0 .87333333-.04583333 1.295-.1375.42166667-.09.83083333-.22583333 1.2275-.4075z" fill="#333" transform="matrix(1 0 0 -1 314.067 46.067)"/><path d="m8.11 4.9625v-.7025h-6.61c.06333333-.99.36166667-1.74416667.895-2.2625s1.27666667-.7775 2.23-.7775c.55166667 0 1.08666667.0675 1.605.2025s1.03333333.33833333 1.545.61v-1.36c-.51666667-.21833333-1.04583333-.385-1.5875-.5s-1.09083333-.1725-1.6475-.1725c-1.39666667 0-2.5025.40583333-3.3175 1.2175-.815.81333333-1.2225 1.91333333-1.2225 3.3 0 1.43166667.38666667 2.5675 1.16 3.4075.77333333.84166667 1.81666667 1.2625 3.13 1.2625 1.17666667 0 2.1075-.37916667 2.7925-1.1375.685-.75666667 1.0275-1.78583333 1.0275-3.0875zm-1.4375.4225c-.01.785-.23 1.41166667-.66 1.88-.43.47-.99916667.705-1.7075.705-.80166667 0-1.44333333-.22666667-1.925-.68s-.75916667-1.09166667-.8325-1.915z" fill="#333" transform="matrix(1 0 0 -1 322.865 46.067)"/><path d="m6.3825 7.65v4.735h1.4375v-12.1575h-1.4375v1.3125c-.30166667-.52-.68333333-.90666667-1.145-1.16-.46-.25333333-1.01333333-.38-1.66-.38-1.05666667 0-1.9175.42166667-2.5825 1.265-.66333333.845-.995 1.955-.995 3.33s.33166667 2.48416667.995 3.3275c.665.84333333 1.52583333 1.265 2.5825 1.265.64666667 0 1.2-.12666667 1.66-.38.46166667-.25166667.84333333-.6375 1.145-1.1575zm-4.8975-3.055c0-1.05666667.2175-1.88583333.6525-2.4875s1.0325-.9025 1.7925-.9025 1.35833333.30083333 1.795.9025c.43833333.60166667.6575 1.43083333.6575 2.4875s-.21916667 1.88583333-.6575 2.4875c-.43666667.60166667-1.035.9025-1.795.9025s-1.3575-.30083333-1.7925-.9025-.6525-1.43083333-.6525-2.4875z" fill="#333" transform="matrix(1 0 0 -1 332.708 46.067)"/><path d="m5.4075 12.6575c-1.14666667 0-2.0575-.4275-2.7325-1.2825-.67333333-.8533333-1.01-2.0175-1.01-3.4925 0-1.46833333.33666667-2.63 1.01-3.485.675-.85333333 1.58583333-1.28 2.7325-1.28 1.145 0 2.0525.42666667 2.7225 1.28.67.855 1.005 2.01666667 1.005 3.485 0 1.475-.335 2.6391667-1.005 3.4925-.67.855-1.5775 1.2825-2.7225 1.2825zm2.21-10.385 2.08-2.2725h-1.9075l-1.7275 1.8675c-.17166667-.01-.30333333-.0175-.395-.0225-.09-.00666667-.17666667-.01-.26-.01-1.64 0-2.95166667.54833333-3.935 1.645-.98166667 1.09666667-1.4725 2.56416667-1.4725 4.4025 0 1.84333333.49083333 3.3133333 1.4725 4.41.98333333 1.0966667 2.295 1.645 3.935 1.645 1.635 0 2.94166667-.5483333 3.92-1.645.98-1.0966667 1.47-2.56666667 1.47-4.41 0-1.35333333-.2725-2.5125-.8175-3.4775-.54333333-.96333333-1.33083333-1.67416667-2.3625-2.1325z" fill="#333" transform="matrix(1 0 0 -1 347.965 47.902)"/><path d="m0 3.68v5.2975h1.4375v-5.2425c0-.82833333.16083333-1.45.4825-1.865.32333333-.41333333.80833333-.62 1.455-.62.775 0 1.3875.2475 1.8375.7425.45166667.495.6775 1.17.6775 2.025v4.96h1.4375v-8.75h-1.4375v1.345c-.34833333-.53166667-.75333333-.92666667-1.215-1.185-.46-.25833333-.995-.3875-1.605-.3875-1.005 0-1.76833333.3125-2.29.9375-.52.625-.78 1.53916667-.78 2.7425z" fill="#333" transform="matrix(1 0 0 -1 361.021 46.067)"/><path d="m4.525 4.625c-1.16166667 0-1.96666667-.1325-2.415-.3975s-.6725-.71833333-.6725-1.36c0-.51.16833333-.915.505-1.215.33666667-.29833333.79333333-.4475 1.37-.4475.79833333 0 1.43833333.2825 1.92.8475s.7225 1.31583333.7225 2.2525v.32zm2.8675.595v-4.9925h-1.4375v1.3275c-.32833333-.53-.7375-.92166667-1.2275-1.175s-1.08916667-.38-1.7975-.38c-.895 0-1.6075.25166667-2.1375.755-.52833333.50333333-.7925 1.17666667-.7925 2.02 0 .98333333.32916667 1.725.9875 2.225.66.5 1.64333333.75 2.95.75h2.0175v.1425c0 .66166667-.2175 1.17333333-.6525 1.535s-1.04583333.5425-1.8325.5425c-.5 0-.9875-.06-1.4625-.18-.47333333-.12-.92833333-.3-1.365-.54v1.33c.525.20333333 1.035.355 1.53.455.495.10166667.97666667.1525 1.445.1525 1.26666667 0 2.2125-.32833333 2.8375-.985.625-.655.9375-1.64916667.9375-2.9825z" fill="#333" transform="matrix(1 0 0 -1 370.762 46.067)"/><path d="m7.33 5.2825v-5.2825h-1.4375v5.235c0 .82833333-.16166667 1.4475-.485 1.8575-.32333333.41166667-.8075.6175-1.4525.6175-.77666667 0-1.38916667-.2475-1.8375-.7425-.44833333-.49333333-.6725-1.1675-.6725-2.0225v-4.945h-1.445v8.75h1.445v-1.36c.345.52666667.75.92 1.215 1.18.46666667.26 1.005.39 1.615.39 1.005 0 1.765-.31083333 2.28-.9325.51666667-.62166667.775-1.53666667.775-2.745z" fill="#333" transform="matrix(1 0 0 -1 381.059 45.839)"/><path d="m2.5 11.235v-2.485h2.96v-1.1175h-2.96v-4.75c0-.71333333.0975-1.17166667.2925-1.375s.5925-.305 1.1925-.305h1.475v-1.2025h-1.475c-1.11 0-1.87583333.20666667-2.2975.62-.42166667.415-.6325 1.16916667-.6325 2.2625v4.75h-1.055v1.1175h1.055v2.485z" fill="#333" transform="matrix(1 0 0 -1 390.177 45.839)"/><path d="m0 3.68v5.2975h1.4375v-5.2425c0-.82833333.16083333-1.45.4825-1.865.32333333-.41333333.80833333-.62 1.455-.62.775 0 1.3875.2475 1.8375.7425.45166667.495.6775 1.17.6775 2.025v4.96h1.4375v-8.75h-1.4375v1.345c-.34833333-.53166667-.75333333-.92666667-1.215-1.185-.46-.25833333-.995-.3875-1.605-.3875-1.005 0-1.76833333.3125-2.29.9375-.52.625-.78 1.53916667-.78 2.7425z" fill="#333" transform="matrix(1 0 0 -1 397.381 46.067)"/><path d="m6.8675 7.07c.36.64666667.79 1.12333333 1.29 1.43s1.08833333.46 1.765.46c.9116667 0 1.615-.31916667 2.11-.9575.495-.63666667.7425-1.54333333.7425-2.72v-5.2825h-1.445v5.235c0 .83833333-.1491667 1.46-.4475 1.865-.2966667.40666667-.7491667.61-1.3575.61-.745 0-1.33416667-.2475-1.7675-.7425-.43166667-.49333333-.6475-1.1675-.6475-2.0225v-4.945h-1.445v5.235c0 .84333333-.14833333 1.46666667-.445 1.87s-.755.605-1.375.605c-.735 0-1.31916667-.24833333-1.7525-.745-.43166667-.49666667-.6475-1.17-.6475-2.02v-4.945h-1.445v8.75h1.445v-1.36c.32833333.53666667.72166667.9325 1.18 1.1875s1.0025.3825 1.6325.3825c.63666667 0 1.1775-.16166667 1.6225-.485.445-.32166667.77416667-.79.9875-1.405z" fill="#333" transform="matrix(1 0 0 -1 407.614 45.839)"/><path d="m5.345 10.11-2.1425-5.805h4.29zm-.8925 1.555h1.79l4.445-11.665h-1.64l-1.0625 2.9925h-5.2575l-1.0625-2.9925h-1.665z" fill="#333" transform="matrix(1 0 0 -1 426.958 45.839)"/><path d="m0 12.158h1.438v-12.158h-1.438z" fill="#333" transform="matrix(1 0 0 -1 439.285 45.839)"/><path d="m6.3825 7.805c0 1.04166667-.215 1.84833333-.645 2.42-.42833333.5733333-1.03083333.86-1.8075.86-.77 0-1.37-.2866667-1.8-.86-.43-.57166667-.645-1.37833333-.645-2.42 0-1.03666667.215-1.84166667.645-2.415s1.03-.86 1.8-.86c.77666667 0 1.37916667.28666667 1.8075.86.43.57333333.645 1.37833333.645 2.415zm1.4375-3.3925c0-1.48833333-.33083333-2.59583333-.9925-3.3225-.66-.72666667-1.6725-1.09-3.0375-1.09-.505 0-.98166667.0375-1.43.1125s-.88333333.19083333-1.305.3475v1.3975c.42166667-.22833333.83833333-.39666667 1.25-.505.41166667-.11.83083333-.165 1.2575-.165.94333333 0 1.64916667.24583333 2.1175.7375s.7025 1.235.7025 2.23v.7125c-.29666667-.51666667-.67666667-.9025-1.14-1.1575s-1.01833333-.3825-1.665-.3825c-1.07166667 0-1.93583333.40833333-2.5925 1.225-.65666667.81833333-.985 1.9025-.985 3.2525 0 1.35333333.32833333 2.4383333.985 3.255.65666667.8183333 1.52083333 1.2275 2.5925 1.2275.64666667 0 1.20166667-.1275 1.665-.3825s.84333333-.64 1.14-1.155v1.3275h1.4375z" fill="#333" transform="matrix(1 0 0 -1 443.106 49.167)"/><path d="m4.015 7.97c-.77 0-1.37916667-.30083333-1.8275-.9025s-.6725-1.42583333-.6725-2.4725.2225-1.87083333.6675-2.4725c.44666667-.60166667 1.0575-.9025 1.8325-.9025.76666667 0 1.37333333.30166667 1.82.905.44833333.605.6725 1.42833333.6725 2.47 0 1.03666667-.22416667 1.85833333-.6725 2.465-.44666667.60666667-1.05333333.91-1.82.91zm0 1.2175c1.25 0 2.23166667-.40666667 2.945-1.22.715-.81166667 1.0725-1.93583333 1.0725-3.3725 0-1.43166667-.3575-2.55583333-1.0725-3.3725-.71333333-.815-1.695-1.2225-2.945-1.2225-1.255 0-2.23833333.4075-2.95 1.2225-.71.81666667-1.065 1.94083333-1.065 3.3725 0 1.43666667.355 2.56083333 1.065 3.3725.71166667.81333333 1.695 1.22 2.95 1.22z" fill="#333" transform="matrix(1 0 0 -1 453.263 46.067)"/><path d="m5.125 7.4075c-.16166667.09333333-.3375.16166667-.5275.205-.19.045-.39916667.0675-.6275.0675-.81333333 0-1.4375-.26416667-1.8725-.7925s-.6525-1.2875-.6525-2.2775v-4.61h-1.445v8.75h1.445v-1.36c.30333333.53166667.69666667.92583333 1.18 1.1825.485.25833333 1.07416667.3875 1.7675.3875.09833333 0 .2075-.00666667.3275-.02.12-.01166667.2525-.03083333.3975-.0575z" fill="#333" transform="matrix(1 0 0 -1 463.622 45.839)"/><path d="m0 8.75h1.4375v-8.75h-1.4375zm0 3.4075h1.4375v-1.8225h-1.4375z" fill="#333" transform="matrix(1 0 0 -1 470.255 45.839)"/><path d="m2.5 11.235v-2.485h2.96v-1.1175h-2.96v-4.75c0-.71333333.0975-1.17166667.2925-1.375s.5925-.305 1.1925-.305h1.475v-1.2025h-1.475c-1.11 0-1.87583333.20666667-2.2975.62-.42166667.415-.6325 1.16916667-.6325 2.2625v4.75h-1.055v1.1175h1.055v2.485z" fill="#333" transform="matrix(1 0 0 -1 473.623 45.839)"/><path d="m7.33 5.2825v-5.2825h-1.4375v5.235c0 .82833333-.16166667 1.4475-.485 1.8575-.32333333.41166667-.8075.6175-1.4525.6175-.77666667 0-1.38916667-.2475-1.8375-.7425-.44833333-.49333333-.6725-1.1675-.6725-2.0225v-4.945h-1.445v12.1575h1.445v-4.7675c.345.52666667.75.92 1.215 1.18.46666667.26 1.005.39 1.615.39 1.005 0 1.765-.31083333 2.28-.9325.51666667-.62166667.775-1.53666667.775-2.745z" fill="#333" transform="matrix(1 0 0 -1 480.918 45.839)"/><path d="m6.8675 7.07c.36.64666667.79 1.12333333 1.29 1.43s1.08833333.46 1.765.46c.9116667 0 1.615-.31916667 2.11-.9575.495-.63666667.7425-1.54333333.7425-2.72v-5.2825h-1.445v5.235c0 .83833333-.1491667 1.46-.4475 1.865-.2966667.40666667-.7491667.61-1.3575.61-.745 0-1.33416667-.2475-1.7675-.7425-.43166667-.49333333-.6475-1.1675-.6475-2.0225v-4.945h-1.445v5.235c0 .84333333-.14833333 1.46666667-.445 1.87s-.755.605-1.375.605c-.735 0-1.31916667-.24833333-1.7525-.745-.43166667-.49666667-.6475-1.17-.6475-2.02v-4.945h-1.445v8.75h1.445v-1.36c.32833333.53666667.72166667.9325 1.18 1.1875s1.0025.3825 1.6325.3825c.63666667 0 1.1775-.16166667 1.6225-.485.445-.32166667.77416667-.79.9875-1.405z" fill="#333" transform="matrix(1 0 0 -1 491.059 45.839)"/><path d="m6.2175 8.72v-1.36c-.405.20833333-.82666667.36416667-1.265.4675-.43666667.105-.89.1575-1.36.1575-.71333333 0-1.24833333-.10916667-1.605-.3275s-.535-.54666667-.535-.985c0-.33333333.1275-.595.3825-.785s.76833333-.37083333 1.54-.5425l.4925-.11c1.02-.21833333 1.745-.52666667 2.175-.925s.645-.95416667.645-1.6675c0-.81333333-.32166667-1.4575-.965-1.9325-.64333333-.47333333-1.5275-.71-2.6525-.71-.46833333 0-.95666667.04583333-1.465.1375s-1.04333333.22833333-1.605.41v1.485c.53166667-.27666667 1.055-.48416667 1.57-.6225.515-.13666667 1.02583333-.205 1.5325-.205.67666667 0 1.19666667.11583333 1.56.3475.365.23166667.5475.55833333.5475.98 0 .39-.13166667.68916667-.395.8975-.26166667.20833333-.83833333.40916667-1.73.6025l-.5.1175c-.89.18666667-1.53333333.47416667-1.93.8625-.395.38833333-.5925.92083333-.5925 1.5975 0 .82333333.29166667 1.45833333.875 1.905.58333333.44833333 1.41166667.6725 2.485.6725.53 0 1.02916667-.03916667 1.4975-.1175.47-.07666667.9025-.19333333 1.2975-.35z" fill="#333" transform="matrix(1 0 0 -1 506.06 46.067)"/><path d="m0 8.75h1.4375v-8.75h-1.4375zm0 3.4075h1.4375v-1.8225h-1.4375z" fill="#333" transform="matrix(1 0 0 -1 520.122 45.839)"/><path d="m7.33 5.2825v-5.2825h-1.4375v5.235c0 .82833333-.16166667 1.4475-.485 1.8575-.32333333.41166667-.8075.6175-1.4525.6175-.77666667 0-1.38916667-.2475-1.8375-.7425-.44833333-.49333333-.6725-1.1675-.6725-2.0225v-4.945h-1.445v8.75h1.445v-1.36c.345.52666667.75.92 1.215 1.18.46666667.26 1.005.39 1.615.39 1.005 0 1.765-.31083333 2.28-.9325.51666667-.62166667.775-1.53666667.775-2.745z" fill="#333" transform="matrix(1 0 0 -1 524.512 45.839)"/><path d="m0 11.665h6.702v-1.33h-5.125v-3.438h4.625v-1.327h-4.625v-5.57h-1.577z" fill="#333" transform="matrix(1 0 0 -1 539.856 45.839)"/><path d="m0 8.75h1.4375v-8.75h-1.4375zm0 3.4075h1.4375v-1.8225h-1.4375z" fill="#333" transform="matrix(1 0 0 -1 547.837 45.839)"/><path d="m7.33 5.2825v-5.2825h-1.4375v5.235c0 .82833333-.16166667 1.4475-.485 1.8575-.32333333.41166667-.8075.6175-1.4525.6175-.77666667 0-1.38916667-.2475-1.8375-.7425-.44833333-.49333333-.6725-1.1675-.6725-2.0225v-4.945h-1.445v8.75h1.445v-1.36c.345.52666667.75.92 1.215 1.18.46666667.26 1.005.39 1.615.39 1.005 0 1.765-.31083333 2.28-.9325.51666667-.62166667.775-1.53666667.775-2.745z" fill="#333" transform="matrix(1 0 0 -1 552.227 45.839)"/><path d="m4.525 4.625c-1.16166667 0-1.96666667-.1325-2.415-.3975s-.6725-.71833333-.6725-1.36c0-.51.16833333-.915.505-1.215.33666667-.29833333.79333333-.4475 1.37-.4475.79833333 0 1.43833333.2825 1.92.8475s.7225 1.31583333.7225 2.2525v.32zm2.8675.595v-4.9925h-1.4375v1.3275c-.32833333-.53-.7375-.92166667-1.2275-1.175s-1.08916667-.38-1.7975-.38c-.895 0-1.6075.25166667-2.1375.755-.52833333.50333333-.7925 1.17666667-.7925 2.02 0 .98333333.32916667 1.725.9875 2.225.66.5 1.64333333.75 2.95.75h2.0175v.1425c0 .66166667-.2175 1.17333333-.6525 1.535s-1.04583333.5425-1.8325.5425c-.5 0-.9875-.06-1.4625-.18-.47333333-.12-.92833333-.3-1.365-.54v1.33c.525.20333333 1.035.355 1.53.455.495.10166667.97666667.1525 1.445.1525 1.26666667 0 2.2125-.32833333 2.8375-.985.625-.655.9375-1.64916667.9375-2.9825z" fill="#333" transform="matrix(1 0 0 -1 561.875 46.067)"/><path d="m7.33 5.2825v-5.2825h-1.4375v5.235c0 .82833333-.16166667 1.4475-.485 1.8575-.32333333.41166667-.8075.6175-1.4525.6175-.77666667 0-1.38916667-.2475-1.8375-.7425-.44833333-.49333333-.6725-1.1675-.6725-2.0225v-4.945h-1.445v8.75h1.445v-1.36c.345.52666667.75.92 1.215 1.18.46666667.26 1.005.39 1.615.39 1.005 0 1.765-.31083333 2.28-.9325.51666667-.62166667.775-1.53666667.775-2.745z" fill="#333" transform="matrix(1 0 0 -1 572.173 45.839)"/><path d="m6.9225 8.6425v-1.345c-.40666667.225-.81416667.39333333-1.2225.505s-.82083333.1675-1.2375.1675c-.93333333 0-1.65833333-.29583333-2.175-.8875-.515-.59-.7725-1.41916667-.7725-2.4875s.2575-1.89833333.7725-2.49c.51666667-.59 1.24166667-.885 2.175-.885.41666667 0 .82916667.05583333 1.2375.1675s.81583333.28 1.2225.505v-1.33c-.40166667-.18666667-.8175-.32666667-1.2475-.42-.42833333-.095-.885-.1425-1.37-.1425-1.31833333 0-2.36583333.41416667-3.1425 1.2425-.775.82833333-1.1625 1.94583333-1.1625 3.3525 0 1.42666667.39166667 2.54833333 1.175 3.365.785.81833333 1.86 1.2275 3.225 1.2275.44166667 0 .87333333-.04583333 1.295-.1375.42166667-.09.83083333-.22583333 1.2275-.4075z" fill="#333" transform="matrix(1 0 0 -1 581.743 46.067)"/><path d="m8.11 4.9625v-.7025h-6.61c.06333333-.99.36166667-1.74416667.895-2.2625s1.27666667-.7775 2.23-.7775c.55166667 0 1.08666667.0675 1.605.2025s1.03333333.33833333 1.545.61v-1.36c-.51666667-.21833333-1.04583333-.385-1.5875-.5s-1.09083333-.1725-1.6475-.1725c-1.39666667 0-2.5025.40583333-3.3175 1.2175-.815.81333333-1.2225 1.91333333-1.2225 3.3 0 1.43166667.38666667 2.5675 1.16 3.4075.77333333.84166667 1.81666667 1.2625 3.13 1.2625 1.17666667 0 2.1075-.37916667 2.7925-1.1375.685-.75666667 1.0275-1.78583333 1.0275-3.0875zm-1.4375.4225c-.01.785-.23 1.41166667-.66 1.88-.43.47-.99916667.705-1.7075.705-.80166667 0-1.44333333-.22666667-1.925-.68s-.75916667-1.09166667-.8325-1.915z" fill="#333" transform="matrix(1 0 0 -1 590.54 46.067)"/><g transform="translate(497.579 56.839)"><path d="m2 32.35625h141.420313c1.333333 0 2-.6666667 2-2v-28.35625c0-1.33333333-.666667-2-2-2h-141.420313c-1.33333333 0-2 .66666667-2 2v28.35625c0 1.3333333.66666667 2 2 2z" fill="#fff" opacity=".8" stroke="#ccc"/><path d="m0 7h20v-7h-20z" fill="#accbff" transform="translate(4 4.598)"/><g fill="#333"><path d="m0 7.291h6.167v-.832h-2.587v-6.459h-.991v6.459h-2.589z" transform="matrix(1 0 0 -1 31.97 11.598)"/><path d="m3.203125 4.6296875c-.10104167.05833333-.2109375.10104167-.3296875.128125-.11875.028125-.24947917.0421875-.3921875.0421875-.50833333 0-.8984375-.16510417-1.1703125-.4953125s-.4078125-.8046875-.4078125-1.4234375v-2.88125h-.903125v5.46875h.903125v-.85c.18958333.33229167.43541667.57864583.7375.7390625.303125.16145833.67135417.2421875 1.1046875.2421875.06145833 0 .1296875-.00416667.2046875-.0125.075-.00729167.1578125-.01927083.2484375-.0359375z" transform="matrix(1 0 0 -1 37.54 11.598)"/><path d="m2.828125 2.890625c-.72604167 0-1.22916667-.0828125-1.509375-.2484375s-.4203125-.44895833-.4203125-.85c0-.31875.10520833-.571875.315625-.759375.21041667-.18645833.49583333-.2796875.85625-.2796875.49895833 0 .89895833.1765625 1.2.5296875s.4515625.82239583.4515625 1.4078125v.2zm1.7921875.371875v-3.1203125h-.8984375v.8296875c-.20520833-.33125-.4609375-.57604167-.7671875-.734375s-.68072917-.2375-1.1234375-.2375c-.559375 0-1.0046875.15729167-1.3359375.471875-.33020833.31458333-.4953125.73541667-.4953125 1.2625 0 .61458333.20572917 1.078125.6171875 1.390625.4125.3125 1.02708333.46875 1.84375.46875h1.2609375v.0890625c0 .41354167-.1359375.73333333-.4078125.959375s-.65364583.3390625-1.1453125.3390625c-.3125 0-.6171875-.0375-.9140625-.1125-.29583333-.075-.58020833-.1875-.853125-.3375v.83125c.328125.12708333.646875.221875.95625.284375.309375.06354167.61041667.0953125.903125.0953125.79166667 0 1.3828125-.20520833 1.7734375-.615625.390625-.409375.5859375-1.03072917.5859375-1.8640625z" transform="matrix(1 0 0 -1 41.344 11.74)"/><path d="m3.9890625 4.78125v2.959375h.8984375v-7.5984375h-.8984375v.8203125c-.18854167-.325-.42708333-.56666667-.715625-.725-.2875-.15833333-.63333333-.2375-1.0375-.2375-.66041667 0-1.1984375.26354167-1.6140625.790625-.41458333.528125-.621875 1.221875-.621875 2.08125s.20729167 1.55260417.621875 2.0796875c.415625.52708333.95364583.790625 1.6140625.790625.40416667 0 .75-.07916667 1.0375-.2375.28854167-.15729167.52708333-.3984375.715625-.7234375zm-3.0609375-1.909375c0-.66041667.1359375-1.17864583.4078125-1.5546875s.6453125-.5640625 1.1203125-.5640625.84895833.18802083 1.121875.5640625c.27395833.37604167.4109375.89427083.4109375 1.5546875s-.13697917 1.17864583-.4109375 1.5546875c-.27291667.37604167-.646875.5640625-1.121875.5640625s-.8484375-.18802083-1.1203125-.5640625-.4078125-.89427083-.4078125-1.5546875z" transform="matrix(1 0 0 -1 47.424 11.74)"/><path d="m0 5.46875h.8984375v-5.46875h-.8984375zm0 2.1296875h.8984375v-1.1390625h-.8984375z" transform="matrix(1 0 0 -1 54.162 11.598)"/><path d="m1.5625 7.021875v-1.553125h1.85v-.6984375h-1.85v-2.96875c0-.44583333.0609375-.73229167.1828125-.859375s.3703125-.190625.7453125-.190625h.921875v-.7515625h-.921875c-.69375 0-1.17239583.12916667-1.4359375.3875-.26354167.259375-.3953125.73072917-.3953125 1.4140625v2.96875h-.659375v.6984375h.659375v1.553125z" transform="matrix(1 0 0 -1 56.267 11.598)"/><path d="m0 5.46875h.8984375v-5.46875h-.8984375zm0 2.1296875h.8984375v-1.1390625h-.8984375z" transform="matrix(1 0 0 -1 60.861 11.598)"/><path d="m2.509375 4.98125c-.48125 0-.86197917-.18802083-1.1421875-.5640625s-.4203125-.89114583-.4203125-1.5453125.1390625-1.16927083.4171875-1.5453125c.27916667-.37604167.6609375-.5640625 1.1453125-.5640625.47916667 0 .85833333.18854167 1.1375.565625.28020833.378125.4203125.89270833.4203125 1.54375 0 .64791667-.14010417 1.16145833-.4203125 1.540625-.27916667.37916667-.65833333.56875-1.1375.56875zm0 .7609375c.78125 0 1.39479167-.25416667 1.840625-.7625.446875-.50729167.6703125-1.20989583.6703125-2.1078125 0-.89479167-.2234375-1.59739583-.6703125-2.1078125-.44583333-.509375-1.059375-.7640625-1.840625-.7640625-.784375 0-1.39895833.2546875-1.84375.7640625-.44375.51041667-.665625 1.21302083-.665625 2.1078125 0 .89791667.221875 1.60052083.665625 2.1078125.44479167.50833333 1.059375.7625 1.84375.7625z" transform="matrix(1 0 0 -1 63.25 11.74)"/><path d="m4.58125 3.3015625v-3.3015625h-.8984375v3.271875c0 .51770833-.10104167.9046875-.303125 1.1609375-.20208333.25729167-.5046875.3859375-.9078125.3859375-.48541667 0-.86822917-.1546875-1.1484375-.4640625-.28020833-.30833333-.4203125-.7296875-.4203125-1.2640625v-3.090625h-.903125v5.46875h.903125v-.85c.215625.32916667.46875.575.759375.7375.29166667.1625.628125.24375 1.009375.24375.628125 0 1.103125-.19427083 1.425-.5828125.32291667-.38854167.484375-.96041667.484375-1.715625z" transform="matrix(1 0 0 -1 69.724 11.598)"/><path d="m2.828125 2.890625c-.72604167 0-1.22916667-.0828125-1.509375-.2484375s-.4203125-.44895833-.4203125-.85c0-.31875.10520833-.571875.315625-.759375.21041667-.18645833.49583333-.2796875.85625-.2796875.49895833 0 .89895833.1765625 1.2.5296875s.4515625.82239583.4515625 1.4078125v.2zm1.7921875.371875v-3.1203125h-.8984375v.8296875c-.20520833-.33125-.4609375-.57604167-.7671875-.734375s-.68072917-.2375-1.1234375-.2375c-.559375 0-1.0046875.15729167-1.3359375.471875-.33020833.31458333-.4953125.73541667-.4953125 1.2625 0 .61458333.20572917 1.078125.6171875 1.390625.4125.3125 1.02708333.46875 1.84375.46875h1.2609375v.0890625c0 .41354167-.1359375.73333333-.4078125.959375s-.65364583.3390625-1.1453125.3390625c-.3125 0-.6171875-.0375-.9140625-.1125-.29583333-.075-.58020833-.1875-.853125-.3375v.83125c.328125.12708333.646875.221875.95625.284375.309375.06354167.61041667.0953125.903125.0953125.79166667 0 1.3828125-.20520833 1.7734375-.615625.390625-.409375.5859375-1.03072917.5859375-1.8640625z" transform="matrix(1 0 0 -1 75.754 11.74)"/><path d="m0 7.598h.898v-7.598h-.898z" transform="matrix(1 0 0 -1 82.224 11.598)"/><path d="m3.340625 6.31875-1.3390625-3.628125h2.68125zm-.5578125.971875h1.11875l2.778125-7.290625h-1.025l-.6640625 1.8703125h-3.2859375l-.6640625-1.8703125h-1.040625z" transform="matrix(1 0 0 -1 87.317 11.598)"/><path d="m0 7.598h.898v-7.598h-.898z" transform="matrix(1 0 0 -1 95.022 11.598)"/><path d="m3.9890625 4.878125c0 .65104167-.134375 1.15520833-.403125 1.5125-.26770833.35833333-.64427083.5375-1.1296875.5375-.48125 0-.85625-.17916667-1.125-.5375-.26875-.35729167-.403125-.86145833-.403125-1.5125 0-.64791667.134375-1.15104167.403125-1.509375s.64375-.5375 1.125-.5375c.48541667 0 .86197917.17916667 1.1296875.5375.26875.35833333.403125.86145833.403125 1.509375zm.8984375-2.1203125c0-.93020833-.20677083-1.62239583-.6203125-2.0765625-.4125-.45416667-1.0453125-.68125-1.8984375-.68125-.315625 0-.61354167.0234375-.89375.0703125s-.55208333.11927083-.815625.2171875v.8734375c.26354167-.14270833.52395833-.24791667.78125-.315625.25729167-.06875.51927083-.103125.7859375-.103125.58958333 0 1.03072917.15364583 1.3234375.4609375s.4390625.771875.4390625 1.39375v.4453125c-.18541667-.32291667-.42291667-.5640625-.7125-.7234375s-.63645833-.2390625-1.040625-.2390625c-.66979167 0-1.20989583.25520833-1.6203125.765625-.41041667.51145833-.615625 1.1890625-.615625 2.0328125 0 .84583333.20520833 1.52395833.615625 2.034375.41041667.51145833.95052083.7671875 1.6203125.7671875.40416667 0 .75104167-.0796875 1.040625-.2390625s.52708333-.4.7125-.721875v.8296875h.8984375z" transform="matrix(1 0 0 -1 97.41 13.678)"/><path d="m2.509375 4.98125c-.48125 0-.86197917-.18802083-1.1421875-.5640625s-.4203125-.89114583-.4203125-1.5453125.1390625-1.16927083.4171875-1.5453125c.27916667-.37604167.6609375-.5640625 1.1453125-.5640625.47916667 0 .85833333.18854167 1.1375.565625.28020833.378125.4203125.89270833.4203125 1.54375 0 .64791667-.14010417 1.16145833-.4203125 1.540625-.27916667.37916667-.65833333.56875-1.1375.56875zm0 .7609375c.78125 0 1.39479167-.25416667 1.840625-.7625.446875-.50729167.6703125-1.20989583.6703125-2.1078125 0-.89479167-.2234375-1.59739583-.6703125-2.1078125-.44583333-.509375-1.059375-.7640625-1.840625-.7640625-.784375 0-1.39895833.2546875-1.84375.7640625-.44375.51041667-.665625 1.21302083-.665625 2.1078125 0 .89791667.221875 1.60052083.665625 2.1078125.44479167.50833333 1.059375.7625 1.84375.7625z" transform="matrix(1 0 0 -1 103.757 11.74)"/><path d="m3.203125 4.6296875c-.10104167.05833333-.2109375.10104167-.3296875.128125-.11875.028125-.24947917.0421875-.3921875.0421875-.50833333 0-.8984375-.16510417-1.1703125-.4953125s-.4078125-.8046875-.4078125-1.4234375v-2.88125h-.903125v5.46875h.903125v-.85c.18958333.33229167.43541667.57864583.7375.7390625.303125.16145833.67135417.2421875 1.1046875.2421875.06145833 0 .1296875-.00416667.2046875-.0125.075-.00729167.1578125-.01927083.2484375-.0359375z" transform="matrix(1 0 0 -1 110.231 11.598)"/><path d="m0 5.46875h.8984375v-5.46875h-.8984375zm0 2.1296875h.8984375v-1.1390625h-.8984375z" transform="matrix(1 0 0 -1 114.377 11.598)"/><path d="m1.5625 7.021875v-1.553125h1.85v-.6984375h-1.85v-2.96875c0-.44583333.0609375-.73229167.1828125-.859375s.3703125-.190625.7453125-.190625h.921875v-.7515625h-.921875c-.69375 0-1.17239583.12916667-1.4359375.3875-.26354167.259375-.3953125.73072917-.3953125 1.4140625v2.96875h-.659375v.6984375h.659375v1.553125z" transform="matrix(1 0 0 -1 116.482 11.598)"/><path d="m4.58125 3.3015625v-3.3015625h-.8984375v3.271875c0 .51770833-.10104167.9046875-.303125 1.1609375-.20208333.25729167-.5046875.3859375-.9078125.3859375-.48541667 0-.86822917-.1546875-1.1484375-.4640625-.28020833-.30833333-.4203125-.7296875-.4203125-1.2640625v-3.090625h-.903125v7.5984375h.903125v-2.9796875c.215625.32916667.46875.575.759375.7375.29166667.1625.628125.24375 1.009375.24375.628125 0 1.103125-.19427083 1.425-.5828125.32291667-.38854167.484375-.96041667.484375-1.715625z" transform="matrix(1 0 0 -1 121.042 11.598)"/><path d="m4.2921875 4.41875c.225.40416667.49375.70208333.80625.89375s.68020833.2875 1.103125.2875c.56979167 0 1.009375-.19947917 1.31875-.5984375.309375-.39791667.4640625-.96458333.4640625-1.7v-3.3015625h-.903125v3.271875c0 .52395833-.09322917.9125-.2796875 1.165625-.18541667.25416667-.46822917.38125-.8484375.38125-.465625 0-.83385417-.1546875-1.1046875-.4640625-.26979167-.30833333-.4046875-.7296875-.4046875-1.2640625v-3.090625h-.903125v3.271875c0 .52708333-.09270833.91666667-.278125 1.16875s-.471875.378125-.859375.378125c-.459375 0-.82447917-.15520833-1.0953125-.465625-.26979167-.31041667-.4046875-.73125-.4046875-1.2625v-3.090625h-.903125v5.46875h.903125v-.85c.20520833.33541667.45104167.5828125.7375.7421875s.6265625.2390625 1.0203125.2390625c.39791667 0 .7359375-.10104167 1.0140625-.303125.278125-.20104167.48385417-.49375.6171875-.878125z" transform="matrix(1 0 0 -1 127.38 11.598)"/><path d="m3.8859375 5.45v-.85c-.253125.13020833-.51666667.22760417-.790625.2921875-.27291667.065625-.55625.0984375-.85.0984375-.44583333 0-.78020833-.06822917-1.003125-.2046875s-.334375-.34166667-.334375-.615625c0-.20833333.0796875-.371875.2390625-.490625s.48020833-.23177083.9625-.3390625l.3078125-.06875c.6375-.13645833 1.090625-.32916667 1.359375-.578125s.403125-.59635417.403125-1.0421875c0-.50833333-.20104167-.9109375-.603125-1.2078125-.40208333-.29583333-.9546875-.44375-1.6578125-.44375-.29270833 0-.59791667.02864583-.915625.0859375s-.65208333.14270833-1.003125.25625v.928125c.33229167-.17291667.659375-.30260417.98125-.3890625.321875-.08541667.64114583-.128125.9578125-.128125.42291667 0 .74791667.07239583.975.2171875.228125.14479167.3421875.34895833.3421875.6125 0 .24375-.08229167.43072917-.246875.5609375-.16354167.13020833-.52395833.25572917-1.08125.3765625l-.3125.0734375c-.55625.11666667-.95833333.29635417-1.20625.5390625-.246875.24270833-.3703125.57552083-.3703125.9984375 0 .51458333.18229167.91145833.546875 1.190625.36458333.28020833.88229167.4203125 1.553125.4203125.33125 0 .64322917-.02447917.9359375-.0734375.29375-.04791667.5640625-.12083333.8109375-.21875z" transform="matrix(1 0 0 -1 136.755 11.74)"/></g><path d="m0 7h20v-7h-20z" fill="#4188ff" transform="translate(4 19.277)"/><path d="m3.3796875 7.9109375c-.71666667 0-1.2859375-.2671875-1.7078125-.8015625-.42083333-.53333333-.63125-1.2609375-.63125-2.1828125 0-.91770833.21041667-1.64375.63125-2.178125.421875-.53333333.99114583-.8 1.7078125-.8.715625 0 1.2828125.26666667 1.7015625.8.41875.534375.628125 1.26041667.628125 2.178125 0 .921875-.209375 1.64947917-.628125 2.1828125-.41875.534375-.9859375.8015625-1.7015625.8015625zm1.38125-6.490625 1.3-1.4203125h-1.1921875l-1.0796875 1.1671875c-.10729167-.00625-.18958333-.0109375-.246875-.0140625-.05625-.00416667-.11041667-.00625-.1625-.00625-1.025 0-1.84479167.34270833-2.459375 1.028125-.61354167.68541667-.9203125 1.60260417-.9203125 2.7515625 0 1.15208333.30677083 2.07083333.9203125 2.75625.61458333.68541667 1.434375 1.028125 2.459375 1.028125 1.021875 0 1.83854167-.34270833 2.45-1.028125.6125-.68541667.91875-1.60416667.91875-2.75625 0-.84583333-.1703125-1.5703125-.5109375-2.1734375-.33958333-.60208333-.83177083-1.04635417-1.4765625-1.3328125z" fill="#333" transform="matrix(1 0 0 -1 32.56 27.566)"/><path d="m0 2.3v3.3109375h.8984375v-3.2765625c0-.51770833.10052083-.90625.3015625-1.165625.20208333-.25833333.50520833-.3875.909375-.3875.484375 0 .8671875.1546875 1.1484375.4640625.28229167.309375.4234375.73125.4234375 1.265625v3.1h.8984375v-5.46875h-.8984375v.840625c-.21770833-.33229167-.47083333-.57916667-.759375-.740625-.2875-.16145833-.621875-.2421875-1.003125-.2421875-.628125 0-1.10520833.1953125-1.43125.5859375-.325.390625-.4875.96197917-.4875 1.7140625z" fill="#333" transform="matrix(1 0 0 -1 40.72 26.418)"/><path d="m2.828125 2.890625c-.72604167 0-1.22916667-.0828125-1.509375-.2484375s-.4203125-.44895833-.4203125-.85c0-.31875.10520833-.571875.315625-.759375.21041667-.18645833.49583333-.2796875.85625-.2796875.49895833 0 .89895833.1765625 1.2.5296875s.4515625.82239583.4515625 1.4078125v.2zm1.7921875.371875v-3.1203125h-.8984375v.8296875c-.20520833-.33125-.4609375-.57604167-.7671875-.734375s-.68072917-.2375-1.1234375-.2375c-.559375 0-1.0046875.15729167-1.3359375.471875-.33020833.31458333-.4953125.73541667-.4953125 1.2625 0 .61458333.20572917 1.078125.6171875 1.390625.4125.3125 1.02708333.46875 1.84375.46875h1.2609375v.0890625c0 .41354167-.1359375.73333333-.4078125.959375s-.65364583.3390625-1.1453125.3390625c-.3125 0-.6171875-.0375-.9140625-.1125-.29583333-.075-.58020833-.1875-.853125-.3375v.83125c.328125.12708333.646875.221875.95625.284375.309375.06354167.61041667.0953125.903125.0953125.79166667 0 1.3828125-.20520833 1.7734375-.615625.390625-.409375.5859375-1.03072917.5859375-1.8640625z" fill="#333" transform="matrix(1 0 0 -1 46.808 26.418)"/><path d="m4.58125 3.3015625v-3.3015625h-.8984375v3.271875c0 .51770833-.10104167.9046875-.303125 1.1609375-.20208333.25729167-.5046875.3859375-.9078125.3859375-.48541667 0-.86822917-.1546875-1.1484375-.4640625-.28020833-.30833333-.4203125-.7296875-.4203125-1.2640625v-3.090625h-.903125v5.46875h.903125v-.85c.215625.32916667.46875.575.759375.7375.29166667.1625.628125.24375 1.009375.24375.628125 0 1.103125-.19427083 1.425-.5828125.32291667-.38854167.484375-.96041667.484375-1.715625z" fill="#333" transform="matrix(1 0 0 -1 53.244 26.276)"/><path d="m1.5625 7.021875v-1.553125h1.85v-.6984375h-1.85v-2.96875c0-.44583333.0609375-.73229167.1828125-.859375s.3703125-.190625.7453125-.190625h.921875v-.7515625h-.921875c-.69375 0-1.17239583.12916667-1.4359375.3875-.26354167.259375-.3953125.73072917-.3953125 1.4140625v2.96875h-.659375v.6984375h.659375v1.553125z" fill="#333" transform="matrix(1 0 0 -1 58.943 26.276)"/><path d="m0 2.3v3.3109375h.8984375v-3.2765625c0-.51770833.10052083-.90625.3015625-1.165625.20208333-.25833333.50520833-.3875.909375-.3875.484375 0 .8671875.1546875 1.1484375.4640625.28229167.309375.4234375.73125.4234375 1.265625v3.1h.8984375v-5.46875h-.8984375v.840625c-.21770833-.33229167-.47083333-.57916667-.759375-.740625-.2875-.16145833-.621875-.2421875-1.003125-.2421875-.628125 0-1.10520833.1953125-1.43125.5859375-.325.390625-.4875.96197917-.4875 1.7140625z" fill="#333" transform="matrix(1 0 0 -1 63.445 26.418)"/><path d="m4.2921875 4.41875c.225.40416667.49375.70208333.80625.89375s.68020833.2875 1.103125.2875c.56979167 0 1.009375-.19947917 1.31875-.5984375.309375-.39791667.4640625-.96458333.4640625-1.7v-3.3015625h-.903125v3.271875c0 .52395833-.09322917.9125-.2796875 1.165625-.18541667.25416667-.46822917.38125-.8484375.38125-.465625 0-.83385417-.1546875-1.1046875-.4640625-.26979167-.30833333-.4046875-.7296875-.4046875-1.2640625v-3.090625h-.903125v3.271875c0 .52708333-.09270833.91666667-.278125 1.16875s-.471875.378125-.859375.378125c-.459375 0-.82447917-.15520833-1.0953125-.465625-.26979167-.31041667-.4046875-.73125-.4046875-1.2625v-3.090625h-.903125v5.46875h.903125v-.85c.20520833.33541667.45104167.5828125.7375.7421875s.6265625.2390625 1.0203125.2390625c.39791667 0 .7359375-.10104167 1.0140625-.303125.278125-.20104167.48385417-.49375.6171875-.878125z" fill="#333" transform="matrix(1 0 0 -1 69.84 26.276)"/><path d="m3.340625 6.31875-1.3390625-3.628125h2.68125zm-.5578125.971875h1.11875l2.778125-7.290625h-1.025l-.6640625 1.8703125h-3.2859375l-.6640625-1.8703125h-1.040625z" fill="#333" transform="matrix(1 0 0 -1 81.93 26.276)"/><path d="m0 7.598h.898v-7.598h-.898z" fill="#333" transform="matrix(1 0 0 -1 89.636 26.276)"/><path d="m3.9890625 4.878125c0 .65104167-.134375 1.15520833-.403125 1.5125-.26770833.35833333-.64427083.5375-1.1296875.5375-.48125 0-.85625-.17916667-1.125-.5375-.26875-.35729167-.403125-.86145833-.403125-1.5125 0-.64791667.134375-1.15104167.403125-1.509375s.64375-.5375 1.125-.5375c.48541667 0 .86197917.17916667 1.1296875.5375.26875.35833333.403125.86145833.403125 1.509375zm.8984375-2.1203125c0-.93020833-.20677083-1.62239583-.6203125-2.0765625-.4125-.45416667-1.0453125-.68125-1.8984375-.68125-.315625 0-.61354167.0234375-.89375.0703125s-.55208333.11927083-.815625.2171875v.8734375c.26354167-.14270833.52395833-.24791667.78125-.315625.25729167-.06875.51927083-.103125.7859375-.103125.58958333 0 1.03072917.15364583 1.3234375.4609375s.4390625.771875.4390625 1.39375v.4453125c-.18541667-.32291667-.42291667-.5640625-.7125-.7234375s-.63645833-.2390625-1.040625-.2390625c-.66979167 0-1.20989583.25520833-1.6203125.765625-.41041667.51145833-.615625 1.1890625-.615625 2.0328125 0 .84583333.20520833 1.52395833.615625 2.034375.41041667.51145833.95052083.7671875 1.6203125.7671875.40416667 0 .75104167-.0796875 1.040625-.2390625s.52708333-.4.7125-.721875v.8296875h.8984375z" fill="#333" transform="matrix(1 0 0 -1 92.023 28.356)"/><path d="m2.509375 4.98125c-.48125 0-.86197917-.18802083-1.1421875-.5640625s-.4203125-.89114583-.4203125-1.5453125.1390625-1.16927083.4171875-1.5453125c.27916667-.37604167.6609375-.5640625 1.1453125-.5640625.47916667 0 .85833333.18854167 1.1375.565625.28020833.378125.4203125.89270833.4203125 1.54375 0 .64791667-.14010417 1.16145833-.4203125 1.540625-.27916667.37916667-.65833333.56875-1.1375.56875zm0 .7609375c.78125 0 1.39479167-.25416667 1.840625-.7625.446875-.50729167.6703125-1.20989583.6703125-2.1078125 0-.89479167-.2234375-1.59739583-.6703125-2.1078125-.44583333-.509375-1.059375-.7640625-1.840625-.7640625-.784375 0-1.39895833.2546875-1.84375.7640625-.44375.51041667-.665625 1.21302083-.665625 2.1078125 0 .89791667.221875 1.60052083.665625 2.1078125.44479167.50833333 1.059375.7625 1.84375.7625z" fill="#333" transform="matrix(1 0 0 -1 98.37 26.418)"/><path d="m3.203125 4.6296875c-.10104167.05833333-.2109375.10104167-.3296875.128125-.11875.028125-.24947917.0421875-.3921875.0421875-.50833333 0-.8984375-.16510417-1.1703125-.4953125s-.4078125-.8046875-.4078125-1.4234375v-2.88125h-.903125v5.46875h.903125v-.85c.18958333.33229167.43541667.57864583.7375.7390625.303125.16145833.67135417.2421875 1.1046875.2421875.06145833 0 .1296875-.00416667.2046875-.0125.075-.00729167.1578125-.01927083.2484375-.0359375z" fill="#333" transform="matrix(1 0 0 -1 104.845 26.276)"/><path d="m0 5.46875h.8984375v-5.46875h-.8984375zm0 2.1296875h.8984375v-1.1390625h-.8984375z" fill="#333" transform="matrix(1 0 0 -1 108.991 26.276)"/><path d="m1.5625 7.021875v-1.553125h1.85v-.6984375h-1.85v-2.96875c0-.44583333.0609375-.73229167.1828125-.859375s.3703125-.190625.7453125-.190625h.921875v-.7515625h-.921875c-.69375 0-1.17239583.12916667-1.4359375.3875-.26354167.259375-.3953125.73072917-.3953125 1.4140625v2.96875h-.659375v.6984375h.659375v1.553125z" fill="#333" transform="matrix(1 0 0 -1 111.096 26.276)"/><path d="m4.58125 3.3015625v-3.3015625h-.8984375v3.271875c0 .51770833-.10104167.9046875-.303125 1.1609375-.20208333.25729167-.5046875.3859375-.9078125.3859375-.48541667 0-.86822917-.1546875-1.1484375-.4640625-.28020833-.30833333-.4203125-.7296875-.4203125-1.2640625v-3.090625h-.903125v7.5984375h.903125v-2.9796875c.215625.32916667.46875.575.759375.7375.29166667.1625.628125.24375 1.009375.24375.628125 0 1.103125-.19427083 1.425-.5828125.32291667-.38854167.484375-.96041667.484375-1.715625z" fill="#333" transform="matrix(1 0 0 -1 115.656 26.276)"/><path d="m4.2921875 4.41875c.225.40416667.49375.70208333.80625.89375s.68020833.2875 1.103125.2875c.56979167 0 1.009375-.19947917 1.31875-.5984375.309375-.39791667.4640625-.96458333.4640625-1.7v-3.3015625h-.903125v3.271875c0 .52395833-.09322917.9125-.2796875 1.165625-.18541667.25416667-.46822917.38125-.8484375.38125-.465625 0-.83385417-.1546875-1.1046875-.4640625-.26979167-.30833333-.4046875-.7296875-.4046875-1.2640625v-3.090625h-.903125v3.271875c0 .52708333-.09270833.91666667-.278125 1.16875s-.471875.378125-.859375.378125c-.459375 0-.82447917-.15520833-1.0953125-.465625-.26979167-.31041667-.4046875-.73125-.4046875-1.2625v-3.090625h-.903125v5.46875h.903125v-.85c.20520833.33541667.45104167.5828125.7375.7421875s.6265625.2390625 1.0203125.2390625c.39791667 0 .7359375-.10104167 1.0140625-.303125.278125-.20104167.48385417-.49375.6171875-.878125z" fill="#333" transform="matrix(1 0 0 -1 121.994 26.276)"/><path d="m3.8859375 5.45v-.85c-.253125.13020833-.51666667.22760417-.790625.2921875-.27291667.065625-.55625.0984375-.85.0984375-.44583333 0-.78020833-.06822917-1.003125-.2046875s-.334375-.34166667-.334375-.615625c0-.20833333.0796875-.371875.2390625-.490625s.48020833-.23177083.9625-.3390625l.3078125-.06875c.6375-.13645833 1.090625-.32916667 1.359375-.578125s.403125-.59635417.403125-1.0421875c0-.50833333-.20104167-.9109375-.603125-1.2078125-.40208333-.29583333-.9546875-.44375-1.6578125-.44375-.29270833 0-.59791667.02864583-.915625.0859375s-.65208333.14270833-1.003125.25625v.928125c.33229167-.17291667.659375-.30260417.98125-.3890625.321875-.08541667.64114583-.128125.9578125-.128125.42291667 0 .74791667.07239583.975.2171875.228125.14479167.3421875.34895833.3421875.6125 0 .24375-.08229167.43072917-.246875.5609375-.16354167.13020833-.52395833.25572917-1.08125.3765625l-.3125.0734375c-.55625.11666667-.95833333.29635417-1.20625.5390625-.246875.24270833-.3703125.57552083-.3703125.9984375 0 .51458333.18229167.91145833.546875 1.190625.36458333.28020833.88229167.4203125 1.553125.4203125.33125 0 .64322917-.02447917.9359375-.0734375.29375-.04791667.5640625-.12083333.8109375-.21875z" fill="#333" transform="matrix(1 0 0 -1 131.37 26.418)"/></g></g></g></svg>