<svg xmlns="http://www.w3.org/2000/svg" xmlns:xlink="http://www.w3.org/1999/xlink" width="2048" height="2048" viewBox="0 0 2048 2048"><defs><path id="a" d="M443.738,60.277 C428.359,69.6 413.706,80.201 399.419,91.101 L399.419,91.101 C388.972,99.07 383.063,96.685 377.078,85.996 L377.078,85.996 C364.352,63.277 369.291,43.545 388.018,25.474 L388.018,25.474 C386.738,24.865 385.461,24.255 384.18,23.646 L384.18,23.646 C376.979,31.593 369.781,39.54 362.352,47.738 L362.352,47.738 C359.484,45.417 356.354,42.876 350.193,37.878 L350.193,37.878 C355.682,55.126 359.065,68.871 364.4,81.844 L364.4,81.844 C375.014,107.657 377.225,134.394 368.801,160.245 L368.801,160.245 C355.679,200.501 339.893,239.95 324.376,279.415 L324.376,279.415 C319.556,291.668 312.105,292.023 305.451,280.483 L305.451,280.483 C278.837,234.331 236.976,205.489 191.005,180.835 L191.005,180.835 C170.47,169.822 149.566,159.042 130.602,145.725 L130.602,145.725 C103.729,126.846 87.006,101.997 90.514,67.071 L90.514,67.071 C92.188,50.427 90.802,33.484 90.802,16.676 L90.802,16.676 C90.322,16.685 89.845,16.692 89.365,16.698 L89.365,16.698 C87.093,35.774 84.817,54.846 82.227,76.567 L82.227,76.567 C49.011,58.019 32.345,31.587 14.672,5.487 L14.672,5.487 C18.189,16.142 21.71,26.8 25.358,37.85 L25.358,37.85 C17.475,40.181 11.189,42.04 0,45.348 L0,45.348 C10.888,49.733 17.418,52.396 23.976,55 L23.976,55 C47.074,64.169 69.918,75.581 81.228,97.807 L81.228,97.807 C97.229,129.233 119.489,154.051 148.033,174.393 L148.033,174.393 C154.492,178.994 159.652,185.349 164.564,190.082 L164.564,190.082 C121.189,215.378 80.029,239.375 41.887,261.617 L41.887,261.617 C57.941,263.163 79.609,255.125 102.113,237.235 L102.113,237.235 C143.891,204.029 188.57,198.777 226.622,227.185 L226.622,227.185 C245.999,241.653 264.834,260.427 275.899,281.337 L275.899,281.337 C311.324,348.289 306.673,415.43 266.528,479.847 L266.528,479.847 C251.552,503.876 244.798,503.66 229.688,479.816 L229.688,479.816 C219.11,463.121 207.245,447.701 190.119,439.396 L190.119,439.396 C199.778,453.814 211.358,468.137 219.631,484.11 L219.631,484.11 C234.425,512.662 234.323,544.082 230.831,574.827 L230.831,574.827 C220.647,664.464 236.134,748.9 280.956,827.782 L280.956,827.782 C312.675,883.602 319.118,942.431 303.69,1003.896 L303.69,1003.896 C285.306,1077.133 269.648,1150.635 268.678,1226.611 L268.678,1226.611 C267.523,1317.209 265.875,1407.763 283.187,1497.335 L283.187,1497.335 C296.015,1563.696 319.658,1625.632 368.336,1675.116 L368.336,1675.116 C445.991,1754.051 542.76,1773.2 649.14,1755.993 L649.14,1755.993 C732.383,1742.531 805.191,1704.853 872.908,1656.911 L872.908,1656.911 C887.24,1646.762 901.086,1635.944 915.153,1625.437 L915.153,1625.437 C904.007,1627.309 894.688,1631.958 885.355,1636.584 L885.355,1636.584 C817.744,1670.097 747.391,1694.993 671.078,1699.661 L671.078,1699.661 C591.64,1704.517 518.467,1687.169 455.805,1636.723 L455.805,1636.723 C394.259,1587.179 363.651,1520.048 347.328,1445.906 L347.328,1445.906 C325.164,1345.215 323.451,1243.431 335.169,1141.368 L335.169,1141.368 C342.978,1073.336 357.045,1006.415 395.008,947.852 L395.008,947.852 C434.738,886.554 477.896,827.392 519.699,767.394 L519.699,767.394 C528.565,754.673 542.062,751.026 554.683,758.511 L554.683,758.511 C565.962,765.202 576.921,775.021 583.568,786.046 L583.568,786.046 C595.942,806.57 596.061,830.09 591.836,853.212 L591.836,853.212 C584.813,891.636 584.541,929.213 604.11,964.724 L604.11,964.724 C624.777,1002.228 631.201,1039.098 598.81,1074.605 L598.81,1074.605 C622.316,1057.828 632.455,1034.776 635.157,1007.709 L635.157,1007.709 C635.547,1003.785 638.338,1000.095 641.334,993.319 L641.334,993.319 C601.063,956.315 592.191,907.625 602.507,851.38 L602.507,851.38 C610.182,809.548 602.907,768.88 567.235,738.223 L567.235,738.223 C557.4,729.77 558.069,719.889 569.687,713.986 L569.687,713.986 C592.265,702.512 614.663,689.517 638.735,682.265 L638.735,682.265 C708.884,661.128 784.454,681.225 821.054,735.572 L821.054,735.572 C867.185,804.076 892.665,877.338 844.479,957.194 L844.479,957.194 C830.182,980.888 827.852,1007.913 830.163,1035.379 L830.163,1035.379 C837.284,996.247 851.745,960.445 877.213,928.67 L877.213,928.67 C881.988,972.893 902.184,1010.931 918.667,1050.635 L918.667,1050.635 C938.367,1098.094 937.865,1147.716 918.596,1196.202 L918.596,1196.202 C915.838,1203.147 914.542,1210.5 902.415,1208.606 L902.415,1208.606 C850.698,1200.537 808.888,1236.131 808.552,1287.692 L808.552,1287.692 C808.302,1325.608 824.69,1358.474 843.254,1395.239 L843.254,1395.239 C869.048,1379.726 894.957,1366.455 918.216,1349.656 L918.216,1349.656 C961.025,1318.736 980.206,1252.164 919.64,1212.193 L919.64,1212.193 C927.514,1189.22 937.193,1166.987 942.503,1143.79 L942.503,1143.79 C947.755,1120.838 948.597,1096.913 951.375,1073.411 L951.375,1073.411 C953.046,1072.994 954.72,1072.575 956.39,1072.157 L956.39,1072.157 C993.963,1111.478 1007.617,1162.659 1025.585,1212.011 L1025.585,1212.011 C1019.402,1183.971 1012.335,1156.21 1003.174,1129.13 L1003.174,1129.13 C993.051,1099.211 980.869,1069.34 954.601,1049.41 L954.601,1049.41 C914.318,1018.847 898.129,978.063 893.795,929.955 L893.795,929.955 C887.829,863.706 877.533,798.142 851.732,735.908 L851.732,735.908 C849.482,730.477 848.512,724.534 846.95,718.827 L846.95,718.827 C848.186,717.382 849.421,715.938 850.654,714.495 L850.654,714.495 C868.44,721.874 886.549,728.583 903.951,736.75 L903.951,736.75 C989.792,777.025 1048.147,840.943 1075.298,931.064 L1075.298,931.064 C1100.906,1016.07 1112.025,1103.063 1108.066,1191.513 L1108.066,1191.513 C1103.87,1285.308 1074.402,1370.761 1008.737,1440.572 L1008.737,1440.572 C907.955,1547.726 784.416,1593.941 637.672,1557.203 L637.672,1557.203 C488.947,1519.966 386.962,1396.59 369.224,1241.6 L369.224,1241.6 C365.549,1209.479 362.595,1177.28 359.308,1145.116 L359.308,1145.116 C354.158,1216.887 354.642,1287.997 367.051,1358.495 L367.051,1358.495 C381.127,1438.476 413.658,1509.808 475.738,1565.147 L475.738,1565.147 C566.775,1646.303 674.137,1661.572 789.428,1632.627 L789.428,1632.627 C1039.467,1569.849 1210.42,1320.979 1183.374,1068.388 L1183.374,1068.388 C1164.619,893.201 1029.388,732.324 882.19,701.262 L882.19,701.262 C870.898,698.881 858.431,693.431 857.849,679.617 L857.849,679.617 C857.252,665.513 870.542,663.393 880.775,659.388 L880.775,659.388 C884.731,657.84 888.78,656.505 892.675,654.821 L892.675,654.821 C924.201,641.189 944.753,616.977 959.78,587.454 L959.78,587.454 C957.479,587.863 956.483,589.534 955.421,591.158 L955.421,591.158 C913.412,655.424 850.842,667.505 780.386,655.28 L780.386,655.28 C734.435,647.308 688.512,638.949 642.537,649.751 L642.537,649.751 C612.192,656.878 583.46,670.395 553.396,678.998 L553.396,678.998 C541.429,682.422 527.314,682.683 515.058,680.195 L515.058,680.195 C494.254,675.976 479.886,661.402 468.697,644.11 L468.697,644.11 C419.983,568.831 449.778,456.55 531.695,408.472 L531.695,408.472 C589.624,374.47 652.674,362.434 719.161,372.061 L719.161,372.061 C751.158,376.694 782.524,385.593 814.121,392.795 L814.121,392.795 C850.068,400.987 883.099,399.165 913.396,374.074 L913.396,374.074 C924.333,365.019 941.05,360.056 955.68,358.608 L955.68,358.608 C973.744,356.817 992.388,360.637 1010.779,362.031 L1010.779,362.031 C981.951,346.895 952.184,338.294 920.156,351.518 L920.156,351.518 C907.424,356.776 895.203,363.3 882.99,369.696 L882.99,369.696 C863.479,379.907 842.991,383.812 821.169,379.775 L821.169,379.775 C783.542,372.818 745.95,365.7 708.327,358.724 L708.327,358.724 C694.74,356.205 680.795,354.926 667.653,351.013 L667.653,351.013 C662.036,349.338 656.831,342.99 653.973,337.496 L653.973,337.496 C652.949,335.533 658.669,328.877 662.57,326.019 L662.57,326.019 C671.942,319.149 682.043,313.238 691.879,306.984 L691.879,306.984 C711.23,294.68 727.624,279.858 737.286,256.218 L737.286,256.218 C699.691,291.828 699.691,291.828 690.15,280.247 L690.15,280.247 C691.421,294.297 682.421,301.987 671.942,307.559 L671.942,307.559 C648.081,320.246 624.329,333.41 599.447,343.904 L599.447,343.904 C556.443,362.041 515.548,382.844 483.791,417.591 L483.791,417.591 C477.409,424.57 471.315,424.837 464.379,419.661 L464.379,419.661 C434.677,397.494 400.965,392.107 364.596,394.645 L364.596,394.645 C343.503,396.115 333.124,387.7 331.533,367.107 L331.533,367.107 C329.974,346.932 327.916,325.366 333.316,306.393 L333.316,306.393 C346.022,261.762 363.168,218.352 378.291,174.374 L378.291,174.374 C396.813,120.523 427.763,76.846 478.808,47.129 L478.808,47.129 C493.236,38.729 502.998,22.613 514.902,10.032 L514.902,10.032 C513.801,9.078 512.7,8.12 511.602,7.165 L511.602,7.165 C503.738,16.283 495.874,25.405 488.01,34.523 L488.01,34.523 C486.678,33.751 485.344,32.975 484.012,32.199 L484.012,32.199 C485.312,21.466 486.614,10.733 487.914,0 L487.914,0 C477.889,24.01 467.141,46.095 443.738,60.277 L443.738,60.277 Z M354.728,834.792 C320.254,801.764 298.473,760.914 287.258,715.72 L287.258,715.72 C277.493,676.366 272.663,635.836 265.654,595.825 L265.654,595.825 C267.104,595.605 268.557,595.382 270.007,595.163 L270.007,595.163 C268.419,541.079 280.415,491.479 318.289,449.947 L318.289,449.947 C345.503,420.107 378.195,405.821 419.362,412.565 L419.362,412.565 C449.848,417.559 461.326,435.523 450.735,463.501 L450.735,463.501 C432.104,512.715 419.055,563.139 434.136,615.039 L434.136,615.039 C441.267,639.584 454,663.616 468.889,684.686 L468.889,684.686 C490.717,715.576 491.447,745.498 474.993,777.48 L474.993,777.48 C460.982,804.714 440.934,826.657 413.674,841.772 L413.674,841.772 C403.1,847.635 394.332,850.684 386.158,850.684 L386.158,850.684 C375.56,850.684 365.962,845.557 354.728,834.792 L354.728,834.792 Z"/><path id="c" d="M455.465378,11.057 C470.246378,36.201 494.814378,50.053 518.889378,64.75 L518.889378,64.75 C526.026378,69.107 531.256378,76.476 537.364378,82.463 L537.364378,82.463 C529.650378,87.134 522.042378,91.987 514.162378,96.362 L514.162378,96.362 C511.976378,97.575 508.970378,97.342 506.352378,97.832 L506.352378,97.832 C473.412378,103.986 440.015378,108.43 407.648378,116.732 L407.648378,116.732 C363.684378,128.006 322.455378,127.399 283.631378,101.504 L283.631378,101.504 C277.592378,97.477 270.144378,95.294 263.118378,92.907 L263.118378,92.907 C233.378378,82.796 206.317378,90.269 180.478378,105.104 L180.478378,105.104 C183.230378,105.833 185.816378,105.509 188.383378,105.06 L188.383378,105.06 C221.661378,99.24 254.505378,96.651 282.195378,121.177 L282.195378,121.177 C304.452378,140.887 330.717378,144.446 358.495378,139.116 L358.495378,139.116 C397.632378,131.608 436.171378,120.586 475.540378,114.866 L475.540378,114.866 C531.756378,106.703 586.033378,116.333 636.581378,142.379 L636.581378,142.379 C642.463378,145.413 645.623378,153.533 650.046378,159.297 L650.046378,159.297 C643.503378,160.776 636.872378,163.833 630.435378,163.472 L630.435378,163.472 C595.142378,161.489 560.232378,161.471 526.965378,175.377 L526.965378,175.377 C532.123378,174.769 537.304378,174.286 542.411378,173.394 L542.411378,173.394 C594.921378,164.21 644.470378,169.151 687.765378,203.043 L687.765378,203.043 C693.795378,207.767 698.715378,213.858 704.150378,219.314 L704.150378,219.314 C703.282378,220.024 702.415378,220.733 701.547378,221.444 L701.547378,221.444 C697.812378,219.674 694.078378,217.905 690.343378,216.135 L690.343378,216.135 C699.511378,226.574 709.001378,236.828 715.980378,248.526 L715.980378,248.526 C749.893378,305.392 766.031378,368.198 774.202378,432.888 L774.202378,432.888 C777.403378,458.243 765.791378,468.98 739.651378,467.937 L739.651378,467.937 C696.615378,466.225 656.047378,474.844 616.942378,491.846 L616.942378,491.846 C608.683378,495.437 600.106378,498.44 591.467378,501.056 L591.467378,501.056 C564.182378,509.32 547.100378,499.131 548.284378,471.131 L548.284378,471.131 C549.305378,447.048 556.241378,423.116 561.675378,399.364 L561.675378,399.364 C563.619378,390.873 568.830378,383.102 572.552378,375.005 L572.552378,375.005 C563.439378,383.203 555.479378,392.271 551.754378,402.787 L551.754378,402.787 C543.051378,427.341 535.513378,452.379 529.150378,477.62 L529.150378,477.62 C523.383378,500.497 516.691378,507.175 492.491378,508.211 L492.491378,508.211 C440.025378,510.457 395.728378,477.602 383.332378,427.256 L383.332378,427.256 C382.128378,422.369 380.836378,417.5 379.584378,412.622 L379.584378,412.622 C378.336378,424.194 377.907378,435.495 378.451378,446.753 L378.451378,446.753 C379.047378,459.013 374.259378,464.566 361.459378,462.207 L361.459378,462.207 C356.751378,461.34 351.956378,460.888 347.295378,459.848 L347.295378,459.848 C306.167378,450.664 266.662378,455.897 229.016378,473.763 L229.016378,473.763 C139.704378,516.146 78.4123782,585.52 42.1393782,674.08 L42.1393782,674.08 C-30.2696218,850.857 -9.09362185,1019.913 103.592378,1173.985 L103.592378,1173.985 C196.212378,1300.624 322.149378,1378.036 484.146378,1388.71 L484.146378,1388.71 C633.101378,1398.523 763.893378,1307.849 806.222378,1167.402 L806.222378,1167.402 C833.667378,1076.335 833.037378,982.756 830.348378,889.039 L830.348378,889.039 C828.191378,897.608 827.253378,906.316 826.162378,915.007 L826.162378,915.007 C821.857378,949.238 819.316378,983.797 812.870378,1017.638 L812.870378,1017.638 C772.302378,1230.641 590.533378,1328.31 420.098378,1310.802 L420.098378,1310.802 C247.464378,1293.067 93.7693782,1137.147 82.2213782,965.028 L82.2213782,965.028 C77.6373782,896.681 80.8253782,829.069 92.6393782,761.797 L92.6393782,761.797 C102.340378,706.543 115.386378,652.23 144.080378,602.736 L144.080378,602.736 C204.799378,498.012 294.965378,467.447 408.432378,511.34 L408.432378,511.34 C436.860378,522.337 467.637378,527.595 497.493378,534.854 L497.493378,534.854 C506.730378,537.1 516.652378,536.522 525.989378,538.485 L525.989378,538.485 C546.066378,542.704 551.053378,556.842 537.249378,571.338 L537.249378,571.338 C528.562378,580.456 517.555378,587.445 508.810378,596.523 L508.810378,596.523 C489.149378,616.934 467.285378,636.129 451.672378,659.294 L451.672378,659.294 C422.396378,702.732 389.836378,741.965 342.831378,767.586 L342.831378,767.586 C315.897378,782.264 298.316378,804.4 293.048378,833.389 L293.048378,833.389 C288.327378,859.353 287.674378,886.149 286.887378,912.625 L286.887378,912.625 C286.522378,924.885 290.100378,937.258 291.918378,949.769 L291.918378,949.769 C287.684378,951.644 284.367378,953.139 281.029378,954.584 L281.029378,954.584 C239.399378,972.601 222.570378,1016.878 243.204378,1056.657 L243.204378,1056.657 C265.033378,1098.747 306.741378,1115.584 346.927378,1136.126 L346.927378,1136.126 C364.499378,1099.592 381.235378,1065.656 380.166378,1026.572 L380.166378,1026.572 C379.168378,990.173 349.357378,953.391 316.899378,952.363 L316.899378,952.363 C298.697378,951.789 293.835378,944.458 293.826378,929.267 L293.826378,929.267 C293.826378,924.565 293.128378,919.866 293.025378,915.157 L293.025378,915.157 C291.863378,861.304 304.637378,811.659 351.524378,779.416 L351.524378,779.416 C393.542378,750.521 427.517378,715.721 454.204378,673.401 L454.204378,673.401 C473.303378,643.118 498.015378,618.218 527.502378,597.688 L527.502378,597.688 C546.626378,584.373 565.395378,570.54 584.858378,557.721 L584.858378,557.721 C622.092378,533.196 662.074378,516.074 707.751378,513.269 L707.751378,513.269 C826.719378,505.966 917.784378,598.094 903.291378,713.792 L903.291378,713.792 C898.698378,750.448 889.004378,786.58 880.230378,822.621 L880.230378,822.621 C863.991378,889.372 863.331378,957.408 860.812378,1025.362 L860.812378,1025.362 C858.348378,1091.825 854.238378,1158.139 835.146378,1222.522 L835.146378,1222.522 C791.819378,1368.636 685.858378,1444.806 530.892378,1442.196 L530.892378,1442.196 C447.828378,1440.795 372.124378,1414.627 299.203378,1378.301 L299.203378,1378.301 C290.891378,1374.161 282.665378,1369.857 274.401378,1365.63 L274.401378,1365.63 C273.568378,1366.961 272.737378,1368.296 271.904378,1369.627 L271.904378,1369.627 C295.836378,1386.7 319.070378,1404.827 343.833378,1420.645 L343.833378,1420.645 C419.077378,1468.713 499.782378,1502.278 591.128378,1505.178 L591.128378,1505.178 C699.093378,1508.602 788.871378,1472.821 852.801378,1384.777 L852.801378,1384.777 C894.486378,1327.364 912.961378,1261.169 917.845378,1192.012 L917.845378,1192.012 C922.706378,1123.156 923.747378,1054.009 925.152378,984.961 L925.152378,984.961 C926.602378,913.58 932.923378,843.148 952.524378,773.918 L952.524378,773.918 C974.061378,697.86 968.383378,624.328 921.029378,557.793 L921.029378,557.793 C903.980378,533.843 884.465378,511.475 864.925378,489.365 L864.925378,489.365 C829.778378,449.596 804.340378,405.099 789.956378,354.179 L789.956378,354.179 C779.724378,317.962 768.454378,281.953 755.769378,246.5 L755.769378,246.5 C730.424378,175.643 682.196378,125.289 611.731378,95.257 L611.731378,95.257 C581.958378,82.567 552.701378,68.664 523.639378,54.463 L523.639378,54.463 C514.751378,50.119 504.442378,44.487 500.034378,36.616 L500.034378,36.616 C496.037378,29.479 499.189378,18.489 499.189378,10.824 L499.189378,10.824 C496.901378,16.519 493.877378,24.039 489.594378,34.7 L489.594378,34.7 C475.895378,22.638 463.963378,12.134 450.184378,0 L450.184378,0 C452.530378,4.957 453.753378,8.145 455.465378,11.057 L455.465378,11.057 Z M525.053378,175.609 L525.444378,176.023 C525.950378,175.805 526.458378,175.589 526.965378,175.377 L526.965378,175.377 C526.328378,175.452 525.690378,175.529 525.053378,175.609 L525.053378,175.609 Z M677.793378,210.186 C681.976378,212.169 686.159378,214.152 690.343378,216.135 L690.343378,216.135 C687.652378,213.072 684.990378,209.992 682.427378,206.856 L682.427378,206.856 C680.881378,207.965 679.338378,209.077 677.793378,210.186 L677.793378,210.186 Z"/><path id="e" d="M427.668,2.591 C422.973,12.539 418.319,22.509 413.646,32.466 L413.646,32.466 C387.203,88.814 350.178,136.421 295.433,169.107 L295.433,169.107 C228.201,209.25 155.052,210.896 80.356,199.33 L80.356,199.33 C53.758,195.212 27.577,188.503 0,182.723 L0,182.723 C114.635,243.214 313.456,274.609 431.988,116.324 L431.988,116.324 C433.801,118.34 435.715,120.096 437.181,122.156 L437.181,122.156 C471.873,170.937 520.209,201.214 576.816,219.163 L576.816,219.163 C678.347,251.359 771.819,221.729 863.226,180.773 L863.226,180.773 C840.534,186.112 818.007,192.293 795.12,196.625 L795.12,196.625 C732.696,208.436 670.38,212.412 609.289,189.517 L609.289,189.517 C525.58,158.147 474.439,95.58 439.071,17.967 L439.071,17.967 C436.403,12.109 433.561,6.329 430.555,0 L430.555,0 C428.392,1.919 427.864,2.18 427.668,2.591 L427.668,2.591 Z"/><path id="g" d="M136.258,7.455 C99.083,18.982 71.308,40.964 60.089,78.946 L60.089,78.946 C56.6,90.756 56.14,103.43 54.414,114.898 L54.414,114.898 C35.918,120.92 17.958,126.765 2.27373675e-13,132.611 L2.27373675e-13,132.611 C15.309,131.845 29.481,127.689 43.743,123.872 L43.743,123.872 C52.721,121.473 59.155,122.955 64.66,132.306 L64.66,132.306 C75.929,151.451 94.951,159.643 116.763,160.702 L116.763,160.702 C159.767,162.787 190.189,140.278 212.031,107.511 L212.031,107.511 C231.359,78.512 246.284,46.687 264.435,13.787 L264.435,13.787 C237.134,5.238 211.403,0 186.14,0 L186.14,0 C169.412,0 152.885,2.299 136.258,7.455 L136.258,7.455 Z"/><path id="i" d="M5.68434189e-14,14.264 C9.016,33.892 16.499,51.778 25.359,68.975 L25.359,68.975 C32.548,82.928 39.56,97.65 49.949,109.159 L49.949,109.159 C63.879,124.585 79.29,140.033 97.095,150.505 L97.095,150.505 C132.955,171.604 180.463,162.843 200.48,129.582 L200.48,129.582 C202.508,126.209 211.285,124.481 216.211,125.464 L216.211,125.464 C233.142,128.85 249.754,133.782 266.486,138.123 L266.486,138.123 C250.768,129.852 234.429,123.517 217.545,119.267 L217.545,119.267 C208.279,116.933 204.108,114.163 204.279,103.995 L204.279,103.995 C204.816,71.689 189.354,46.796 163.794,27.83 L163.794,27.83 C136.67,7.703 108.4,0 78.978,0 L78.978,0 C53.51,0 27.178,5.776 5.68434189e-14,14.264 L5.68434189e-14,14.264 Z"/><path id="k" d="M110.065,1.162 C71.631,7.903 48.894,33.396 33.831,66.104 L33.831,66.104 C21.615,92.628 11.727,120.187 0,149.296 L0,149.296 C45.918,155.804 89.997,163.343 132.62,142.392 L132.62,142.392 C159.083,129.384 177.423,109.291 184.819,80.525 L184.819,80.525 C195.929,37.317 165.632,-2.27373675e-13 123.196,-2.27373675e-13 L123.196,-2.27373675e-13 C118.932,-2.27373675e-13 114.545,0.376 110.065,1.162 L110.065,1.162 Z"/><path id="m" d="M18.9523636,18.93 C-0.865636357,39.193 -4.96863636,63.744 5.83336364,90.151 L5.83336364,90.151 C18.9143636,122.127 43.5493636,142.076 76.5423636,150.921 L76.5423636,150.921 C111.675364,160.341 147.219364,156.142 186.823364,149.065 L186.823364,149.065 C173.157364,116.507 161.509364,85.687 147.359364,56.013 L147.359364,56.013 C135.738364,31.651 116.870364,13.153 89.9273636,4.493 L89.9273636,4.493 C80.8633636,1.579 71.9653636,0 63.3903636,0 L63.3903636,0 C47.0293636,0 31.8463636,5.748 18.9523636,18.93 L18.9523636,18.93 Z"/><path id="o" d="M25.6123081,66.744 C5.82030812,89.969 -2.36769188,116.989 0.586308124,146.81 L0.586308124,146.81 C2.85930812,169.705 11.9773081,189.887 35.0483081,199.367 L35.0483081,199.367 C57.6283081,208.642 77.6363081,200.001 95.8443081,186.557 L95.8443081,186.557 C112.257308,174.436 121.670308,157.75 126.996308,138.65 L126.996308,138.65 C140.048308,91.829 130.158308,46.795 115.838308,0 L115.838308,0 C81.2433081,18.808 49.9343081,38.207 25.6123081,66.744 L25.6123081,66.744 Z"/><path id="q" d="M2.59443223,80.796 C-3.70156777,111.421 1.03543223,140.161 21.5004322,163.547 L21.5004322,163.547 C41.3664322,186.254 64.9044322,205.869 88.9924322,228.913 L88.9924322,228.913 C94.8914322,203.209 99.5414322,183.389 103.980432,163.522 L103.980432,163.522 C118.575432,98.216 77.8594322,23.423 16.8844322,0 L16.8844322,0 C12.2304322,26.64 8.13043223,53.86 2.59443223,80.796 L2.59443223,80.796 Z"/><path id="s" d="M0.0866510433,115.905 C-1.12334896,152.194 10.639651,188.904 16.598651,225.425 L16.598651,225.425 C18.941651,226.123 21.284651,226.82 23.627651,227.514 L23.627651,227.514 C42.757651,208.913 63.270651,191.467 80.679651,171.421 L80.679651,171.421 C103.931651,144.64 109.628651,113.267 99.783651,78.791 L99.783651,78.791 C92.496651,53.276 87.390651,27.161 81.002651,0 L81.002651,0 C40.120651,28.464 1.86265104,62.558 0.0866510433,115.905 L0.0866510433,115.905 Z"/><path id="u" d="M55.07,23.519 C26.303,48.683 12.078,82.053 0,118.333 L0,118.333 C40.235,128.965 79.312,133.451 118.053,118.38 L118.053,118.38 C142.605,108.831 159.015,90.735 166.277,65.506 L166.277,65.506 C174.868,35.669 157.846,7.594 126.87,1.519 L126.87,1.519 C121.632,0.491 116.541,0 111.584,0 L111.584,0 C90.337,0 71.627,9.032 55.07,23.519 L55.07,23.519 Z"/><path id="w" d="M4.93978046,72.936 C-1.66321954,99.151 -2.95321954,125.549 9.28578046,151.067 L9.28578046,151.067 C19.6527805,172.677 40.0797805,185.097 64.1227805,183.919 L64.1227805,183.919 C86.6837805,182.811 103.78478,169.605 111.75178,146.327 L111.75178,146.327 C118.74178,125.9 115.04178,106.156 106.17578,87.089 L106.17578,87.089 C89.2957805,50.798 60.4487805,25.056 26.6617805,-2.27373675e-13 L26.6617805,-2.27373675e-13 C18.8457805,25.942 10.9177805,49.201 4.93978046,72.936 L4.93978046,72.936 Z"/><path id="y" d="M10.4911513,83.901 C-0.0588487024,105.898 -4.6508487,128.837 6.2721513,151.987 L6.2721513,151.987 C15.8391513,172.263 31.2021513,185.48 55.4281513,186.222 L55.4281513,186.222 C79.1261513,186.95 96.7871513,176.544 103.547151,155.009 L103.547151,155.009 C109.176151,137.076 113.776151,116.885 111.084151,98.805 L111.084151,98.805 C106.210151,66.056 95.5641513,34.134 86.8491513,2.27373675e-13 L86.8491513,2.27373675e-13 C54.1671513,23.831 27.0571513,49.358 10.4911513,83.901 L10.4911513,83.901 Z"/><path id="A" d="M22.7265441,5.38000039 C2.46554406,13.2710004 -3.56745594,25.8570004 1.93154406,46.4530004 L1.93154406,46.4530004 C12.8775441,87.4610004 52.2075441,116.386 95.3365441,115.262 L95.3365441,115.262 C127.355544,114.429 156.055544,102.628 184.829544,90.3910004 L184.829544,90.3910004 C165.932544,54.6510004 120.227544,16.0950004 83.7145441,5.09800039 L83.7145441,5.09800039 C73.1525441,1.91800039 62.5105441,0 51.8885441,0 L51.8885441,0 C42.1225441,0 32.3725441,1.62300039 22.7265441,5.38000039 L22.7265441,5.38000039 Z"/><path id="C" d="M0,30.699 C12.409,62.307 31.936,91.243 51.111,106.867 L51.111,106.867 C66.865,119.704 84.709,127.504 105.439,124.812 L105.439,124.812 C136.953,120.722 158.765,96.118 158.762,66.111 L158.762,66.111 C158.762,34.895 134.201,6.277 102.351,1.355 L102.351,1.355 C96.399,0.435 90.586,0 84.895,0 L84.895,0 C53.959,0 26.606,12.865 0,30.699 L0,30.699 Z"/><path id="E" d="M73.698,0 C70.998,0 68.268,0.097 65.511,0.294 L65.511,0.294 C36.676,2.355 14.575,15.802 4.439,43.223 L4.439,43.223 C1.541,51.062 0.025,58.756 -2.27373675e-13,66.204 L-2.27373675e-13,66.204 L-2.27373675e-13,66.574 C0.048,81.169 5.84,94.804 18.192,106.701 L18.192,106.701 C43.288,130.875 85.124,131.299 111.248,103.648 L111.248,103.648 C130.726,83.034 144.789,57.493 162.275,32.711 L162.275,32.711 L162.275,32.709 C132.355,12.849 104.813,0 73.702,0 L73.702,0 C73.7,0 73.7,0 73.698,0 L73.698,0 Z"/><path id="G" d="M21.3439226,17.747 C17.6819226,23.419 11.9719226,27.857 8.5409226,33.628 L8.5409226,33.628 C-7.3720774,60.387 -1.1760774,94.656 28.1969226,115.943 L28.1969226,115.943 C51.7369226,132.999 79.4259226,144.54 105.273923,158.526 L105.273923,158.526 C107.338923,157.176 109.405923,155.826 111.470923,154.475 L111.470923,154.475 C116.198923,134.246 121.853923,114.181 125.463923,93.763 L125.463923,93.763 C134.297923,43.823 94.9399226,-7.951 35.8269226,7.774 L35.8269226,7.774 C33.2309226,4.136 30.4879226,0.297 30.2769226,0 L30.2769226,0 C27.6459226,5.346 25.1079226,11.926 21.3439226,17.747 L21.3439226,17.747 Z"/><path id="I" d="M20.7401822,56.075 C10.9421822,68.161 4.34918224,84.363 1.17418224,99.66 L1.17418224,99.66 C-4.76581776,128.285 12.2971822,146.001 41.8131822,145.743 L41.8131822,145.743 C64.8031822,145.545 84.3241822,136.716 101.137182,122.022 L101.137182,122.022 C138.165182,89.659 139.109182,47.427 134.763182,0 L134.763182,0 C91.3811822,12.47 48.9631822,21.253 20.7401822,56.075 L20.7401822,56.075 Z"/><path id="K" d="M27.34,17.201 C6.728,35.429 1.229,59.43 0,92.26 L0,92.26 C1.725,101.341 4.856,117.163 7.688,133.035 L7.688,133.035 C9.189,141.437 13.584,145.052 22.091,142.16 L22.091,142.16 C43.59,134.854 66.676,130.126 85.947,119.044 L85.947,119.044 C100.526,110.658 113.374,95.69 121.324,80.746 L121.324,80.746 C133.535,57.797 122.633,22.598 103.176,8.155 L103.176,8.155 C95.742,2.636 85.535,0 74.613,0 L74.613,0 C58.115,0 39.989,6.017 27.34,17.201 L27.34,17.201 Z"/><path id="M" d="M5.16876443,96.554 C11.8487644,118.209 25.5247644,134.344 46.3227644,144.116 L46.3227644,144.116 C79.3857644,159.652 115.255764,141.625 121.929764,106.194 L121.929764,106.194 C126.710764,80.817 117.310764,59.681 99.2147644,42.389 L99.2147644,42.389 C74.7807644,19.045 43.3717644,9.282 10.1817644,0 L10.1817644,0 C1.21376443,32.721 -4.81623557,64.179 5.16876443,96.554 L5.16876443,96.554 Z"/><path id="O" d="M25.4388143,35.7690003 C15.3858143,43.8880003 7.88981427,56.9800003 3.27081427,69.2500003 L3.27081427,69.2500003 C-5.60718573,92.8210003 3.84381427,109.235 28.5108143,115.961 L28.5108143,115.961 C59.5348143,124.416 85.6778143,113.287 106.731814,91.8810003 L106.731814,91.8810003 C133.575814,64.5910003 158.627814,35.6090003 185.643814,6.04800033 L185.643814,6.04800033 C166.973814,2.26000033 148.563814,0 130.563814,0 L130.563814,0 C93.2228143,0.00200033157 57.6778143,9.73600033 25.4388143,35.7690003 L25.4388143,35.7690003 Z"/><path id="Q" d="M68.728,15.1410007 C45.399,32.1720007 23.525,51.1220007 -1.13686838e-13,70.0280007 L-1.13686838e-13,70.0280007 C29.222,93.2940007 60.16,108.623001 96.43,109.672001 L96.43,109.672001 C137.759,110.866001 175.358,85.5390007 173.972,42.6410007 L173.972,42.6410007 C173.862,39.2750007 178.208,35.7730007 180.622,32.3310007 L180.622,32.3310007 C176.983,31.1460007 171.952,30.7950007 170.471,28.3620007 L170.471,28.3620007 C158.45,8.63600069 137.543,-0.00199930568 116.198,3.47097789e-07 L116.198,3.47097789e-07 C99.234,3.47097789e-07 81.993,5.45800069 68.728,15.1410007 L68.728,15.1410007 Z M180.622,32.3310007 C180.803,32.3900007 180.981,32.4510007 181.155,32.5140007 L181.155,32.5140007 C181.167,32.5210007 180.777,32.1060007 180.777,32.1060007 L180.777,32.1060007 C180.726,32.1810007 180.674,32.2560007 180.622,32.3310007 L180.622,32.3310007 Z"/><path id="S" d="M5.68434189e-14,5.509 C24.229,32.931 47.258,58.744 69.992,84.806 L69.992,84.806 C89.766,107.469 113.46,121.409 145.015,118.519 L145.015,118.519 C176.599,115.629 190.477,94.188 177.751,66.016 L177.751,66.016 C172.918,55.317 166.101,44.245 157.2,36.763 L157.2,36.763 C125.121,9.793 89.461,-2.27373675e-13 52.229,-2.27373675e-13 L52.229,-2.27373675e-13 C35.087,-2.27373675e-13 17.609,2.077 5.68434189e-14,5.509 L5.68434189e-14,5.509 Z"/><path id="U" d="M78,27.925 C75.136,31.267 68.536,33.13 63.744,32.998 L63.744,32.998 C42.482,32.423 21.246,30.868 0,29.668 L0,29.668 C19.899,34.317 39.855,36.158 59.846,37.48 L59.846,37.48 C69.726,38.134 72.767,42.955 74.022,52.3 L74.022,52.3 C79.908,96.11 117.771,121.62 160.673,108.032 L160.673,108.032 C186.506,99.85 210.366,85.668 236.631,73.477 L236.631,73.477 C215.913,43.681 190.89,20.6 169.132,9.647 L169.132,9.647 C156.313,3.193 143.99,0 132.281,0 L132.281,0 C112.166,0 93.867,9.425 78,27.925 L78,27.925 Z"/><path id="W" d="M49.9503023,130.157 C66.3893023,143.057 84.8183023,149.855 106.253302,147.954 L106.253302,147.954 C120.217302,146.713 129.026302,140.353 131.653302,126.422 L131.653302,126.422 C137.552302,95.14 125.822302,69.609 103.340302,48.828 L103.340302,48.828 C75.0823023,22.71 40.0123023,9.326 1.34530233,0 L1.34530233,0 C-5.96169767,43.055 17.3803023,104.598 49.9503023,130.157 L49.9503023,130.157 Z"/><path id="Y" d="M72.6016197,8.748 C65.6016197,12.52 58.7556197,16.572 51.8926197,20.59 L51.8926197,20.59 C16.1936197,41.491 -0.76738034,72.374 0.0266196603,113.135 L0.0266196603,113.135 C0.64161966,144.86 1.16261966,145.608 33.2686197,142.508 L33.2686197,142.508 C86.8446197,137.334 121.31262,104.51 123.33862,58.101 L123.33862,58.101 C120.34662,46.583 118.54962,34.602 114.12662,23.64 L114.12662,23.64 C107.44462,7.079 103.17762,0 95.2326197,0 L95.2326197,0 C89.9306197,0 82.9896197,3.154 72.6016197,8.748 L72.6016197,8.748 Z"/><path id="aa" d="M12.5160913,11.7760007 C-21.3759087,70.7970007 16.8660913,138.183001 87.4940913,143.325001 L87.4940913,143.325001 C120.010091,145.690001 120.701091,145.077001 121.709091,113.745001 L121.709091,113.745001 C120.215091,103.468001 119.610091,92.9730007 117.065091,82.9530007 L117.065091,82.9530007 C106.638091,41.9060007 73.9140913,21.8530007 39.0590913,3.49000066 L39.0590913,3.49000066 C34.5890913,1.13400066 30.8470913,0 27.5860913,0 L27.5860913,0 C21.3730913,0 16.9110913,4.12300066 12.5160913,11.7760007 L12.5160913,11.7760007 Z"/><path id="ac" d="M0,1.332 C8.738,22.242 17.479,43.153 26.483,64.697 L26.483,64.697 C-2.836,96.146 -4.196,121.918 24.198,157.855 L24.198,157.855 C40.684,178.722 58.694,198.429 76.583,219.32 L76.583,219.32 C95.114,195.183 107.504,169.48 110.715,140.234 L110.715,140.234 C115.768,94.236 89.116,63.356 42.108,58.892 L42.108,58.892 C37.938,58.497 32.743,54.325 30.544,50.508 L30.544,50.508 C21.01,33.956 12.409,16.884 3.467,0 L3.467,0 L0,1.332 Z"/><path id="ae" d="M55.0637431,24.988 C39.5887431,30.849 24.5327431,42.512 14.0637431,55.321 L14.0637431,55.321 C-4.76925688,78.361 -3.91125688,109.938 12.0087431,124.368 L12.0087431,124.368 C28.2197431,139.062 56.8947431,137.884 81.1007431,119.55 L81.1007431,119.55 C120.196743,89.933 133.037743,46.677 144.749743,0 L144.749743,0 C112.694743,8.623 82.9447431,14.431 55.0637431,24.988 L55.0637431,24.988 Z"/><path id="ag" d="M129.931,7.468 C107.769,25.124 87.512,45.117 66.894,64.572 L66.894,64.572 C58.124,72.846 51.307,83.202 42.159,90.983 L42.159,90.983 C29.598,101.664 13.991,101.394 0.09,92.295 L0.09,92.295 C2.133,96.071 3.339,100.79 6.408,103.402 L6.408,103.402 C25.871,119.959 48.652,129.448 74.367,131.292 L74.367,131.292 C152.626,136.899 176.411,68.131 158.621,16.888 L158.621,16.888 C154.692,5.568 150.747,0 144.885,0 L144.885,0 C140.953,0 136.158,2.508 129.931,7.468 L129.931,7.468 Z M0,92.236 C0.03,92.255 0.06,92.275 0.09,92.295 L0.09,92.295 C0.07,92.257 0.049,92.22 0.029,92.183 L0.029,92.183 L0,92.236 Z"/><path id="ai" d="M0.251170794,79.608 C-0.922829206,103.38 1.54117079,125.688 17.9641708,144.22 L17.9641708,144.22 C30.2901708,158.132 44.2031708,171.601 65.0581708,168.256 L65.0581708,168.256 C79.1991708,165.988 91.2461708,142.232 91.9211708,120.354 L91.9211708,120.354 C93.2821708,76.294 49.0041708,16.752 0.543170794,0 L0.543170794,0 C0.543170794,27.695 1.53217079,53.707 0.251170794,79.608 L0.251170794,79.608 Z"/><path id="ak" d="M53.995,2.332 C20.814,11.759 0.016,41.958 0,87.647 L0,87.647 C1.399,94.772 3.284,108.812 7.355,122.209 L7.355,122.209 C8.491,125.944 17.546,131.164 20.497,129.945 L20.497,129.945 C39.483,122.095 59.308,114.764 75.952,103.227 L75.952,103.227 C101.115,85.788 109.11,54.418 99.659,26.007 L99.659,26.007 C93.843,8.522 83.89,0 68.956,0 L68.956,0 C64.433,0 59.454,0.782 53.995,2.332 L53.995,2.332 Z"/><path id="am" d="M0,8.64100017 C15.216,25.1880002 29.091,40.8900002 43.686,55.9170002 L43.686,55.9170002 C52.456,64.9450002 61.463,74.2140002 71.916,81.1090002 L71.916,81.1090002 C95.828,96.8800002 121.683,98.6770002 147.662,85.8930002 L147.662,85.8930002 C165.41,77.1600002 170.073,66.3240002 159.377,50.4680002 L159.377,50.4680002 C150.297,37.0080002 138.416,23.1460002 124.359,15.5640002 L124.359,15.5640002 C103.557,4.34200017 82.014,-0.000999827352 60.019,0 L60.019,0 C40.304,0 20.225,3.48900017 0,8.64100017 L0,8.64100017 Z"/><path id="ao" d="M63.4428639,4.77 C19.2008639,22.74 -7.91213611,77.395 2.06386389,129.801 L2.06386389,129.801 C31.7988639,124.976 59.9068639,116.109 83.5498639,97.186 L83.5498639,97.186 C103.131864,81.519 113.488864,61.099 112.486864,35.603 L112.486864,35.603 C111.573864,12.316 101.633864,-1.13686838e-13 84.4838639,-1.13686838e-13 L84.4838639,-1.13686838e-13 C78.3608639,-1.13686838e-13 71.3198639,1.57 63.4428639,4.77 L63.4428639,4.77 Z"/><path id="aq" d="M16.5502185,8.31900037 C0.579218528,15.0850004 -2.89978147,23.4780004 2.14721853,39.6160004 L2.14721853,39.6160004 C10.2322185,65.4580004 38.3152185,87.0280004 65.8272185,89.8990004 L65.8272185,89.8990004 C103.601219,93.8410004 132.078219,75.7580004 163.073219,51.0940004 L163.073219,51.0940004 C135.919219,35.3600004 111.411219,18.7750004 84.8362185,6.50600037 L84.8362185,6.50600037 C75.0962185,2.01000037 64.8942185,-0.000999627244 54.5822185,0 L54.5822185,0 C41.8422185,0 28.9362185,3.07100037 16.5502185,8.31900037 L16.5502185,8.31900037 Z"/><path id="as" d="M106.181,0.347 C65.059,3.78 35.744,29.807 1.42108547e-14,56.914 L1.42108547e-14,56.914 C25.06,68.272 45.219,80.645 67.185,86.664 L67.185,86.664 C108.093,97.871 152.252,71.907 161.335,34.588 L161.335,34.588 C165.528,17.368 161.246,8.03 143.913,3.686 L143.913,3.686 C134.531,1.333 124.508,0 114.687,0 L114.687,0 C111.828,0 108.985,0.113 106.181,0.347 L106.181,0.347 Z"/><path id="au" d="M5.14423383,16.0370014 C-5.57776617,27.2260014 1.53423383,60.4430014 16.5802338,75.8910014 L16.5802338,75.8910014 C41.3342338,101.296001 101.366234,109.522001 135.472234,90.0540014 L135.472234,90.0540014 C128.856234,76.2110014 123.121234,61.6370014 115.237234,48.2840014 L115.237234,48.2840014 C101.452234,24.9390014 81.9632338,7.55000145 54.3262338,1.51300145 L54.3262338,1.51300145 C49.7622338,0.516001448 45.3382338,2.27373675e-13 41.0522338,2.27373675e-13 L41.0522338,2.27373675e-13 C27.7182338,2.27373675e-13 15.7312338,4.99400145 5.14423383,16.0370014 L5.14423383,16.0370014 Z"/><path id="aw" d="M9.99784741,26.063 C-0.488152591,40.767 -3.28515259,57.082 4.29084741,73.472 L4.29084741,73.472 C11.6078474,89.306 26.4428474,94.784 43.2878474,96.32 L43.2878474,96.32 C61.7648474,98.004 79.0388474,93.892 91.9148474,81.249 L91.9148474,81.249 C108.990847,64.482 124.017847,45.708 142.942847,24.396 L142.942847,24.396 C121.568847,15.952 106.337847,8.483 90.2538474,3.881 L90.2538474,3.881 C81.1168474,1.266 72.2598474,0 63.8738474,0 L63.8738474,0 C41.2108474,0.001 21.9898474,9.244 9.99784741,26.063 L9.99784741,26.063 Z"/><path id="ay" d="M38.445705,28.863 C24.897705,40.57 12.757705,55.352 4.50970499,71.064 L4.50970499,71.064 C-5.34229501,89.835 1.98770499,113.72 16.447705,125.364 L16.447705,125.364 C29.669705,136.009 51.744705,137.117 69.053705,127.342 L69.053705,127.342 C86.551705,117.461 97.644705,102.927 100.862705,82.934 L100.862705,82.934 C105.348705,55.028 95.042705,29.743 86.896705,-2.27373675e-13 L86.896705,-2.27373675e-13 C68.842705,10.45 51.661705,17.445 38.445705,28.863 L38.445705,28.863 Z"/><path id="aA" d="M115.672,27.334 C97.06,34.731 77.434,40.093 57.826,44.541 L57.826,44.541 C39.352,48.728 20.324,50.562 0,53.669 L0,53.669 C32.923,61.589 101.805,65.381 168.791,65.402 L168.791,65.402 L169.701,65.402 C242.447,65.387 312.767,60.924 332.203,52.469 L332.203,52.469 C273.794,46.79 217.241,34.383 169.724,0 L169.724,0 C150.479,9.895 133.714,20.163 115.672,27.334 L115.672,27.334 Z"/><path id="aC" d="M0,26.006 C16.444,52.79 32.576,77.416 60.608,90.838 L60.608,90.838 C89.237,104.542 124.134,93.304 134.078,68.074 L134.078,68.074 C144.183,42.449 126.339,12.113 95.594,2.756 L95.594,2.756 C93.075,1.989 90.412,1.659 87.8,1.232 L87.8,1.232 C82.675,0.393 77.682,0 72.798,0 L72.798,0 C46.495,0 23.371,11.401 0,26.006 L0,26.006 Z"/><path id="aE" d="M0,1.399 C11.925,24.027 24.117,47.073 36.231,70.157 L36.231,70.157 C53.668,103.377 81.677,118.715 119.883,115.319 L119.883,115.319 C130.802,114.347 141.614,112.173 152.471,110.525 L152.471,110.525 C140.565,109.605 139.732,100.323 137.573,91.702 L137.573,91.702 C135.051,81.641 133.496,70.939 128.784,61.886 L128.784,61.886 C110.831,27.382 57.002,-0.002 15.349,0 L15.349,0 C9.999,0 4.846,0.452 0,1.399 L0,1.399 Z M152.471,110.525 C152.59,110.535 152.71,110.543 152.831,110.551 L152.831,110.551 C152.895,110.51 152.924,110.457 152.924,110.457 L152.924,110.457 C152.773,110.48 152.622,110.503 152.471,110.525 L152.471,110.525 Z"/><path id="aG" d="M77.808,0.01 C57.263,0.402 40.815,9.364 28.601,25.157 L28.601,25.157 C11.468,47.314 4.398,73.241 0,101.46 L0,101.46 C28.022,108.107 54.405,107.497 80.119,96.309 L80.119,96.309 C99.214,87.997 111.539,73.517 118.194,54.313 L118.194,54.313 C127.951,26.142 108.868,0 78.804,0 L78.804,0 C78.474,0 78.141,0.003 77.808,0.01 L77.808,0.01 Z"/><path id="aI" d="M60.5917033,30.835 C15.9647033,47.096 -5.68729673,82.191 1.28370327,129.945 L1.28370327,129.945 C40.9807033,134.22 74.0827033,124.675 93.8687033,87.314 L93.8687033,87.314 C103.170703,69.75 112.951703,52.395 121.387703,34.434 L121.387703,34.434 C126.621703,23.296 129.731703,11.2 133.633703,0 L133.633703,0 C108.025703,10.901 84.7497033,22.033 60.5917033,30.835 L60.5917033,30.835 Z"/><path id="aK" d="M45.0539249,164.935 C86.5889249,120.203 88.2119249,56.19 49.2369249,0 L49.2369249,0 C-14.5130751,39.065 -16.8330751,130.518 45.0539249,164.935 L45.0539249,164.935 Z"/><path id="aM" d="M27.2542618,19.3240003 C17.2082618,25.6750003 9.80126184,37.3790003 3.65926184,48.0050003 L3.65926184,48.0050003 C-3.58673816,60.5510003 0.135261841,71.6770003 12.9922618,80.2670003 L12.9922618,80.2670003 C37.3492618,96.5440003 67.8612618,94.2420003 91.7002618,71.3500003 L91.7002618,71.3500003 C112.545262,51.3250003 131.727262,29.6300003 153.258262,6.97300026 L153.258262,6.97300026 C134.264262,2.84000026 115.671262,-0.000999736093 97.5742618,0 L97.5742618,0 C73.1492618,0 49.6282618,5.17400026 27.2542618,19.3240003 L27.2542618,19.3240003 Z"/><path id="aO" d="M0,28.328 C18.864,41.392 36.664,55.555 56.187,66.841 L56.187,66.841 C91.551,87.283 134.079,82.176 166.533,55.018 L166.533,55.018 C142.653,18.535 111.745,-0.002 77.354,0 L77.354,0 C52.903,0.001 26.689,9.372 0,28.328 L0,28.328 Z"/><path id="aQ" d="M33.7411376,0.736 C11.7051376,6.248 -3.43386242,33.462 0.673137578,59.973 L0.673137578,59.973 C6.38013758,96.821 29.0621376,122.66 58.0311376,144.104 L58.0311376,144.104 C65.8611376,117.1 74.0671376,91.343 80.6891376,65.203 L80.6891376,65.203 C86.8221376,40.998 75.6191376,14.918 54.3341376,3.289 L54.3341376,3.289 C50.4281376,1.153 45.1571376,0 40.1901376,0 L40.1901376,0 C37.9251376,0 35.7221376,0.24 33.7411376,0.736 L33.7411376,0.736 Z"/><path id="aS" d="M17.1552652,14.5860002 C8.31226517,27.2440002 1.64726517,43.4640002 0.284265168,58.6300002 L0.284265168,58.6300002 C-2.78173483,92.7510002 19.5082652,117.745 40.4042652,149.131 L40.4042652,149.131 C54.5292652,121.499 69.2582652,98.4620002 78.1852652,73.4270002 L78.1852652,73.4270002 C85.5342652,52.8280002 81.3732652,30.9160002 64.8322652,13.5300002 L64.8322652,13.5300002 C56.4012652,4.66600016 47.9432652,0 39.8722652,0 L39.8722652,0 C31.7702652,0 24.0572652,4.70400016 17.1552652,14.5860002 L17.1552652,14.5860002 Z"/><path id="aU" d="M2.3232143,14.188 C-1.9107857,34.771 -0.966785704,54.674 10.2772143,73.136 L10.2772143,73.136 C29.2252143,104.252 60.7192143,115.679 93.1742143,125.498 L93.1742143,125.498 C95.1462143,124.223 97.1172143,122.948 99.0892143,121.672 L99.0892143,121.672 C89.5412143,92.215 81.8092143,62.02 69.8032143,33.559 L69.8032143,33.559 C61.9362143,14.901 45.3822143,2.418 23.0282143,0.194 L23.0282143,0.194 C21.7452143,0.066 20.5192143,0 19.3482143,0 L19.3482143,0 C10.1542143,0 4.4052143,4.063 2.3232143,14.188 L2.3232143,14.188 Z"/><path id="aW" d="M2.0448954,84.668 C5.2268954,100.216 13.7368954,116.371 24.3798954,128.395 L24.3798954,128.395 C38.8168954,144.707 59.0068954,140.501 69.7258954,121.824 L69.7258954,121.824 C82.0168954,100.405 82.5158954,77.622 68.5128954,57.871 L68.5128954,57.871 C54.4718954,38.067 36.3758954,21.03 17.5718954,0 L17.5718954,0 C2.3808954,30.739 -3.4891046,57.62 2.0448954,84.668 L2.0448954,84.668 Z"/><path id="aY" d="M12.4970154,9.284 C1.46801541,18.622 -1.84798459,31.073 0.933015412,44.747 L0.933015412,44.747 C5.30201541,66.228 25.2450154,84.946 47.4770154,85.794 L47.4770154,85.794 C69.4880154,86.633 91.6140154,84.557 116.762015,83.649 L116.762015,83.649 C105.198015,47.63 89.6870154,18.933 55.9430154,4.198 L55.9430154,4.198 C49.7530154,1.495 43.4110154,-2.27373675e-13 37.1610154,-2.27373675e-13 L37.1610154,-2.27373675e-13 C28.5450154,-2.27373675e-13 20.1070154,2.843 12.4970154,9.284 L12.4970154,9.284 Z"/><path id="ba" d="M0.912410599,56.332 C-2.5325894,78.077 3.7064106,97.816 20.8464106,113.038 L20.8464106,113.038 C44.3614106,133.923 74.5754106,125.659 79.9294106,95.457 L79.9294106,95.457 C82.2124106,82.582 79.8014106,67.291 74.6264106,55.1 L74.6264106,55.1 C63.9814106,30.038 41.7584106,15.014 14.5434106,0 L14.5434106,0 C9.5154106,20.288 3.8024106,38.095 0.912410599,56.332 L0.912410599,56.332 Z"/><path id="bc" d="M20.2660194,0.013 C8.16201936,0.225 3.38301936,5.556 1.13701936,16.201 L1.13701936,16.201 C-3.94898064,40.299 8.21301936,66.238 33.9020194,80.075 L33.9020194,80.075 C57.0070194,92.516 81.1600194,103.092 105.993019,115.041 L105.993019,115.041 C102.729019,83.699 95.1040194,54.717 76.7690194,29.585 L76.7690194,29.585 C63.4100194,11.281 45.7520194,0 21.6370194,0 L21.6370194,0 C21.1820194,0 20.7250194,0.004 20.2660194,0.013 L20.2660194,0.013 Z"/><path id="be" d="M31.2011146,147.055 C72.9721146,84.642 82.0271146,77.376 55.7111146,-1.13686838e-13 L55.7111146,-1.13686838e-13 C-7.2488854,37.13 -18.8508854,106.749 31.2011146,147.055 L31.2011146,147.055 Z"/><path id="bg" d="M0.340670252,66.535 C-2.90732975,96.62 17.3816703,116.691 47.8746703,119.867 L47.8746703,119.867 C52.8646703,120.385 57.4926703,124.252 58.9616703,124.962 L58.9616703,124.962 C73.9376703,105.993 89.9796703,85.318 77.6986703,58.886 L77.6986703,58.886 C66.1886703,34.119 43.9536703,19.418 18.1726703,0 L18.1726703,0 C11.2876703,24.717 2.63367025,45.295 0.340670252,66.535 L0.340670252,66.535 Z"/><path id="bi" d="M19.0663907,40.542 C10.5553907,51.287 4.51839066,64.879 0.876390658,78.131 L0.876390658,78.131 C-3.40560934,93.692 8.68239066,115.114 22.3813907,122.197 L22.3813907,122.197 C33.4463907,127.92 52.4133907,123.881 63.6633907,113.347 L63.6633907,113.347 C76.5973907,101.234 82.3393907,85.773 79.1803907,69.126 L79.1803907,69.126 C75.0653907,47.405 68.1263907,26.2 61.1253907,0 L61.1253907,0 C44.3213907,15.862 29.9163907,26.847 19.0663907,40.542 L19.0663907,40.542 Z"/><path id="bk" d="M-2.27373675e-13,63.896 C37.093,87.891 86.805,71.667 128.794,21.228 L128.794,21.228 C111.364,6.804 92.572,-0.001 74.712,0 L74.712,0 C41.893,0.002 12.227,22.984 -2.27373675e-13,63.896 L-2.27373675e-13,63.896 Z"/><path id="bm" d="M1.48782078,58.147 C-1.46017922,82.201 0.882820778,106.878 0.882820778,130.361 L0.882820778,130.361 C65.0818208,105.471 84.7238208,55.499 51.5748208,0 L51.5748208,0 C25.2048208,11.465 5.02182078,29.328 1.48782078,58.147 L1.48782078,58.147 Z"/><path id="bo" d="M4.47816966,14.123 C-3.61983034,35.275 -0.741830337,55.883 13.1681697,73.263 L13.1681697,73.263 C27.8271697,91.579 44.9091697,108.026 63.7221697,128.298 L63.7221697,128.298 C72.2131697,98.671 76.4771697,72.531 69.8641697,46.165 L69.8641697,46.165 C64.8011697,25.977 51.5881697,11.198 31.4401697,3.245 L31.4401697,3.245 C26.1141697,1.144 21.9511697,-2.27373675e-13 18.5491697,-2.27373675e-13 L18.5491697,-2.27373675e-13 C11.9841697,-2.27373675e-13 8.25416966,4.261 4.47816966,14.123 L4.47816966,14.123 Z"/><path id="bq" d="M73.616,0.271 C49.156,2.548 31.585,16.262 21.647,37.068 L21.647,37.068 C12.502,56.21 7.068,77.057 0,97.154 L0,97.154 C1.492,98.709 2.983,100.263 4.475,101.819 L4.475,101.819 C19.246,96.692 34.785,93.048 48.625,86.129 L48.625,86.129 C75.942,72.468 93.076,50.82 94.436,19.516 L94.436,19.516 C95.053,5.381 91.194,0 78.902,0 L78.902,0 C77.289,0 75.529,0.093 73.616,0.271 L73.616,0.271 Z"/><path id="bs" d="M11.9404689,128.411 C18.4564689,123.646 25.0434689,120.48 29.2784689,115.416 L29.2784689,115.416 C40.5154689,101.979 56.5994689,88.962 59.9984689,73.502 L59.9984689,73.502 C65.1964689,49.856 61.3614689,24.3 61.3614689,0 L61.3614689,0 C1.69246885,25.028 -13.7475311,77.874 11.9404689,128.411 L11.9404689,128.411 Z"/><path id="bu" d="M32.775,2.012 C22.58,4.785 12.227,7.009 0,9.949 L0,9.949 C10.405,38.966 25.387,60.709 56.431,66.165 L56.431,66.165 C71.73,68.851 84.792,64.346 93.12,50.249 L93.12,50.249 C100.661,37.487 91.968,28.478 85.041,19.966 L85.041,19.966 C74.762,7.336 62.214,-0.001 47.048,0 L47.048,0 C42.527,0 37.77,0.653 32.775,2.012 L32.775,2.012 Z"/><path id="bw" d="M10.9352854,3.666 C0.08128539,11.585 -3.37171461,30.692 3.67028539,45.367 L3.67028539,45.367 C5.46528539,49.105 7.48828539,53.182 10.5552854,55.814 L10.5552854,55.814 C22.7972854,66.327 35.4912854,76.332 49.1762854,87.464 L49.1762854,87.464 C68.5062854,54.85 67.7312854,31.54 49.1902854,13.246 L49.1902854,13.246 C40.4022854,4.577 30.8712854,0 22.5362854,0 L22.5362854,0 C18.2692854,0 14.3152854,1.2 10.9352854,3.666 L10.9352854,3.666 Z"/><path id="by" d="M28.5492868,0.007 C13.6502868,0.403 -0.339713158,17.157 0.00628684212,34.194 L0.00628684212,34.194 C0.303286842,48.872 17.9262868,72.808 28.3412868,72.6795193 L28.3412868,72.6795193 C37.8312868,72.563 55.3102868,45.182 54.9352868,31.025 L54.9352868,31.025 C54.4812868,13.986 42.7672868,-0.001 29.0842868,0 L29.0842868,0 C28.9062868,0 28.7272868,0.002 28.5492868,0.007 L28.5492868,0.007 Z"/><path id="bA" d="M29.6509702,93.171 C53.2169702,45.031 47.3889702,15.84 12.2169702,0 L12.2169702,0 C-13.7920298,36.251 6.35297023,64.43 29.6509702,93.171 L29.6509702,93.171 Z"/><path id="bC" d="M10.2867503,66.883 C-3.01824966,90.925 -3.35124966,118.504 8.90775034,137.739 L8.90775034,137.739 C30.9217503,93.834 52.5287503,49.132 21.4857503,1.13686838e-13 L21.4857503,1.13686838e-13 C27.6277503,30.302 26.4947503,37.593 10.2867503,66.883 L10.2867503,66.883 Z"/><path id="bE" d="M0.0170339591,38.329 C-0.315966041,48.945 4.22603396,52.134 14.295034,51.302 L14.295034,51.302 C39.958034,49.185 54.405034,30.989 52.875034,1.123 L52.875034,1.123 C47.796034,0.374 43.100034,1.13686838e-13 38.771034,1.13686838e-13 L38.771034,1.13686838e-13 C13.399034,0.002 0.818033959,12.859 0.0170339591,38.329 L0.0170339591,38.329 Z"/><path id="bG" d="M36.8427307,51.223 C40.4337307,14.65 33.1617307,4.216 2.05073068,0 L2.05073068,0 C-4.80526932,30.183 5.21673068,45.282 36.8427307,51.223 L36.8427307,51.223 Z"/><path id="bI" d="M4.59207436,48.216 C35.8430744,37.131 43.8930744,24.865 36.1850744,0.088 L36.1850744,0.088 C35.2610744,0.029 34.3550744,0 33.4590744,0 L33.4590744,0 C6.22407436,0.002 -7.90592564,27.005 4.59207436,48.216 L4.59207436,48.216 Z"/><path id="bK" d="M6.23639796,0.732 C-2.62360204,8.298 -1.82060204,20.542 7.23139796,29.752 L7.23139796,29.752 C13.418398,36.05 20.539398,41.465 27.116398,47.163 L27.116398,47.163 C38.328398,38.582 41.164398,18.312 30.842398,9.476 L30.842398,9.476 C25.525398,4.929 14.551398,0 8.97139796,0 L8.97139796,0 C7.77539796,0 6.82739796,0.227 6.23639796,0.732 L6.23639796,0.732 Z"/><path id="bM" d="M21.265,1.973 C8.194,7.539 1.21,16.507 0,36.051 L0,36.051 C1.815,37.986 6.117,46.64 10.991,46.963 L10.991,46.963 C22.766,47.748 39.221,23.264 37.464,10.655 L37.464,10.655 C36.473,3.548 33.971,0 29.046,0 L29.046,0 C26.926,0 24.356,0.658 21.265,1.973 L21.265,1.973 Z"/><path id="bO" d="M2.45350688,8.205 C-4.45649312,26.7 3.20650688,41.001 25.7325069,49.674 L25.7325069,49.674 C36.4795069,28.202 34.1375069,12.866 19.0395069,3.274 L19.0395069,3.274 C15.7855069,1.205 13.0155069,0 10.6245069,0 L10.6245069,0 C7.24250688,0 4.61750688,2.413 2.45350688,8.205 L2.45350688,8.205 Z"/><path id="bQ" d="M0.0113323452,27.368 C-0.292667655,36.356 5.58733235,45.54 9.50133235,57.017 L9.50133235,57.017 C28.5743323,38.413 34.0153323,21.381 25.3283323,0 L25.3283323,0 C12.4813323,5.666 0.494332345,12.882 0.0113323452,27.368 L0.0113323452,27.368 Z"/><path id="bS" d="M16.877,32.285 C18.362,34.8 23.934,37.64 25.752,36.728 L25.752,36.728 C28.815,35.192 31.526,31.043 32.378,27.525 L32.378,27.525 C36.039,12.35 25.893,3.065 -2.27373675e-13,0 L-2.27373675e-13,0 C6.1,11.895 11.013,22.358 16.877,32.285 L16.877,32.285 Z"/><path id="bU" d="M24.830586,31.75 C29.750586,11.323 25.166586,5.362 0.432585953,0 L0.432585953,0 C-1.73141405,23.228 3.89258595,30.547 24.830586,31.75 L24.830586,31.75 Z"/><path id="bW" d="M22.2438731,31.778 C25.9528731,9.973 21.5388731,3.757 0.523873116,-1.13686838e-13 L0.523873116,-1.13686838e-13 C-1.25212688,21.89 0.452873116,24.501 22.2438731,31.778 L22.2438731,31.778 Z"/><path id="bY" d="M5.05065313,116.299 C18.5926531,106.979 32.0286531,97.883 45.2796531,88.535 L45.2796531,88.535 C50.0066531,85.202 54.4306531,81.411 58.7576531,77.572 L58.7576531,77.572 C83.2616531,55.827 85.5696531,19.761 60.3516531,0 L60.3516531,0 C13.5006531,14.327 -11.3433469,66.393 5.05065313,116.299 L5.05065313,116.299 Z M38.4816531,183.345 C24.2676531,189.194 21.0346531,203.118 19.6836531,217.203 L19.6836531,217.203 C17.6326531,238.653 25.1796531,256.825 37.3736531,274.185 L37.3736531,274.185 C54.0876531,297.982 69.7456531,322.495 86.7376531,348.026 L86.7376531,348.026 C104.654653,327.763 116.782653,303.24 118.632653,274.776 L118.632653,274.776 C120.866653,240.397 109.567653,211.021 80.7656531,189.756 L80.7656531,189.756 C72.5076531,183.659 63.2506531,180.266 53.8126531,180.266 L53.8126531,180.266 C48.7116531,180.266 43.5606531,181.256 38.4816531,183.345 L38.4816531,183.345 Z"/><path id="ca" d="M19.1332738,3.07900022 C4.91827377,8.92400022 1.68627377,22.8520002 0.335273774,36.9330002 L0.335273774,36.9330002 C-1.71672623,58.3870002 5.83127377,76.5550002 18.0252738,93.9150002 L18.0252738,93.9150002 C34.7392738,117.715 50.3972738,142.228 67.3892738,167.759 L67.3892738,167.759 C85.3062738,147.493 97.4372738,122.97 99.2832738,94.5090002 L99.2832738,94.5090002 C101.517274,60.1300002 90.2192738,30.7550002 61.4162738,9.48900022 L61.4162738,9.48900022 C53.1582738,3.39200022 43.9042738,0 34.4652738,0 L34.4652738,0 C29.3662738,0 24.2112738,0.990000221 19.1332738,3.07900022 L19.1332738,3.07900022 Z"/><path id="cc" d="M5.05065313,116.299 C18.5926531,106.979 32.0286531,97.883 45.2796531,88.535 L45.2796531,88.535 C50.0066531,85.202 54.4306531,81.411 58.7576531,77.572 L58.7576531,77.572 C83.2616531,55.827 85.5696531,19.761 60.3516531,0 L60.3516531,0 C13.5006531,14.327 -11.3433469,66.393 5.05065313,116.299 L5.05065313,116.299 Z"/><path id="ce" d="M8.10674279,55.084 C36.4647428,48.696 43.4087428,17.379 24.8447428,0 L24.8447428,0 C-2.01125721,19.448 -6.27625721,33.487 8.10674279,55.084 L8.10674279,55.084 Z"/></defs><g fill="none" fill-rule="evenodd"><g transform="translate(775.576 172.301)"><mask id="b" fill="#fff"><use xlink:href="#a"/></mask><polygon fill="#521C38" points="-1.001 1774.2 1211.42 1774.2 1211.42 -1 -1.001 -1" mask="url(#b)"/></g><path fill="#521C38" d="M608.0653,604.813 C641.7873,590.261 677.2253,590.248 713.0563,592.262 C719.4933,592.623 726.1243,589.566 732.6673,588.087 C728.2433,582.323 725.0843,574.203 719.2013,571.169 C668.6533,545.123 614.3773,535.493 558.1603,543.656 C518.7923,549.376 480.2533,560.398 441.1163,567.906 C413.3373,573.236 387.0733,569.677 364.8153,549.967 C337.1263,525.441 304.2813,528.03 271.0043,533.85 C268.4373,534.299 265.8513,534.623 263.0983,533.894 C288.9373,519.059 315.9993,511.586 345.7393,521.697 C352.7653,524.084 360.2133,526.267 366.2523,530.294 C405.0763,556.189 446.3043,556.796 490.2683,545.522 C522.6363,537.22 556.0323,532.776 588.9733,526.622 C591.5913,526.132 594.5973,526.365 596.7833,525.152 C604.6633,520.777 612.2713,515.924 619.9843,511.253 C613.8773,505.266 608.6483,497.897 601.5103,493.54 C577.4353,478.843 552.8673,464.991 538.0863,439.847 C536.3733,436.935 535.1513,433.747 532.8053,428.79 C546.5843,440.924 558.5163,451.428 572.2143,463.49 C576.4973,452.829 579.5213,445.309 581.8103,439.614 C581.8103,447.279 578.6573,458.269 582.6553,465.406 C587.0623,473.277 597.3723,478.909 606.2603,483.253 C635.3223,497.454 664.5793,511.357 694.3513,524.047 C764.8173,554.079 813.0443,604.433 838.3913,675.29 C851.0753,710.743 862.3443,746.752 872.5773,782.969 C886.9603,833.889 912.3993,878.386 947.5463,918.155 C967.0863,940.265 986.6003,962.633 1003.6503,986.583 C1051.0043,1053.118 1056.6823,1126.651 1035.1453,1202.709 C1015.5443,1271.938 1009.2233,1342.371 1007.7733,1413.752 C1006.3683,1482.799 1005.3273,1551.947 1000.4663,1620.802 C995.5813,1689.959 977.1073,1756.155 935.4223,1813.567 C871.4923,1901.612 781.7133,1937.392 673.7493,1933.968 C582.4023,1931.069 501.6983,1897.503 426.4533,1849.435 C401.6903,1833.617 378.4563,1815.49 354.5253,1798.418 C355.3573,1797.086 356.1893,1795.751 357.0223,1794.419 C365.2863,1798.647 373.5113,1802.95 381.8233,1807.09 C454.7443,1843.417 530.4493,1869.585 613.5133,1870.986 C768.4793,1873.596 874.4403,1797.425 917.7673,1651.312 C936.8593,1586.929 940.9683,1520.614 943.4333,1454.152 C945.9523,1386.198 946.6113,1318.162 962.8513,1251.411 C971.6243,1215.37 981.3193,1179.239 985.9123,1142.582 C1000.4053,1026.884 909.3393,934.756 790.3713,942.059 C744.6953,944.864 704.7123,961.986 667.4793,986.511 C648.0163,999.33 629.2473,1013.163 610.1233,1026.478 C580.6353,1047.008 555.9233,1071.908 536.8253,1102.191 C510.1383,1144.511 476.1633,1179.311 434.1453,1208.206 C387.2583,1240.449 374.4843,1290.094 375.6463,1343.947 C375.7493,1348.656 376.4463,1353.355 376.4463,1358.057 C376.4563,1373.247 381.3183,1380.579 399.5203,1381.154 C431.9783,1382.181 461.7893,1418.963 462.7873,1455.362 C463.8563,1494.446 447.1203,1528.382 429.5483,1564.916 C389.3613,1544.374 347.6533,1527.537 325.8253,1485.447 C305.1903,1445.668 322.0193,1401.391 363.6503,1383.374 C366.9883,1381.929 370.3043,1380.434 374.5393,1378.559 C372.7213,1366.048 369.1423,1353.675 369.5073,1341.416 C370.2953,1314.94 370.9483,1288.143 375.6693,1262.179 C380.9373,1233.19 398.5183,1211.055 425.4523,1196.376 C472.4563,1170.755 505.0173,1131.522 534.2933,1088.084 C549.9063,1064.919 571.7693,1045.724 591.4313,1025.313 C600.1753,1016.235 611.1823,1009.246 619.8693,1000.128 C633.6733,985.632 628.6873,971.494 608.6093,967.275 C599.2733,965.312 589.3513,965.89 580.1143,963.644 C550.2583,956.385 519.4803,951.127 491.0523,940.13 C377.5863,896.237 287.4203,926.802 226.7003,1031.526 C198.0073,1081.02 184.9613,1135.333 175.2603,1190.587 C163.4463,1257.86 160.2583,1325.472 164.8413,1393.818 C176.3893,1565.937 330.0853,1721.857 502.7193,1739.592 C673.1543,1757.1 854.9223,1659.431 895.4903,1446.428 C901.9363,1412.586 904.4783,1378.028 908.7823,1343.797 C909.8743,1335.105 910.8123,1326.398 912.9693,1317.829 C915.6573,1411.547 916.2883,1505.126 888.8423,1596.192 C846.5143,1736.639 715.7223,1827.313 566.7673,1817.5 C404.7693,1806.827 278.8333,1729.415 186.2123,1602.776 C73.5273,1448.702 52.3513,1279.646 124.7603,1102.869 C161.0333,1014.31 222.3253,944.936 311.6363,902.553 C349.2823,884.687 388.7883,879.454 429.9173,888.638 C434.5773,889.678 439.3713,890.13 444.0793,890.997 C456.8793,893.356 461.6673,887.803 461.0723,875.543 C460.5283,864.285 460.9563,852.984 462.2053,841.412 C463.4563,846.29 464.7493,851.159 465.9533,856.046 C478.3493,906.392 522.6463,939.247 575.1113,937.001 C599.3113,935.965 606.0043,929.287 611.7713,906.41 C618.1343,881.169 625.6723,856.131 634.3743,831.577 C638.1003,821.061 646.0603,811.993 655.1723,803.795 C651.4503,811.892 646.2393,819.663 644.2963,828.154 C638.8623,851.906 631.9263,875.838 630.9053,899.921 C629.7213,927.921 646.8023,938.11 674.0883,929.846 C682.7273,927.23 691.3043,924.227 699.5623,920.636 C738.6683,903.634 779.2363,895.015 822.2723,896.727 C848.4123,897.769 860.0243,887.033 856.8233,861.678 C848.6523,796.988 832.5143,734.182 798.6003,677.316 C789.5743,662.185 776.3463,649.47 765.0473,635.646 C763.5023,636.755 761.9593,637.867 760.4133,638.976 C768.3313,642.729 776.2503,646.483 784.1683,650.233 C785.0363,649.523 785.9033,648.814 786.7703,648.104 C781.3363,642.648 776.4163,636.557 770.3863,631.833 C727.0913,597.941 677.5423,593 625.0323,602.184 C619.2933,603.186 613.4613,603.673 607.6743,604.399 L608.0653,604.813 Z"/><g transform="translate(82.62 428.79)"><mask id="d" fill="#fff"><use xlink:href="#c"/></mask><polygon fill="#521C38" points="-31.269 1509.602 975.062 1509.602 975.062 -1 -31.269 -1" mask="url(#d)"/></g><g transform="translate(593.799 1779.311)"><mask id="f" fill="#fff"><use xlink:href="#e"/></mask><polygon fill="#D4666A" points="-1 269.689 864.226 269.689 864.226 -1 -1 -1" mask="url(#f)"/></g><g transform="translate(1535.157 336.48)"><mask id="h" fill="#fff"><use xlink:href="#g"/></mask><polygon fill="#FBBD8A" points="-1 163.787 265.435 163.787 265.435 -6.487 -1 -6.487" mask="url(#h)"/></g><g transform="translate(249.118 336.145)"><mask id="j" fill="#fff"><use xlink:href="#i"/></mask><polygon fill="#91586E" points="-1 172.604 267.486 172.604 267.486 -10.719 -1 -10.719" mask="url(#j)"/></g><g transform="translate(65.488 474.206)"><mask id="l" fill="#fff"><use xlink:href="#k"/></mask><polygon fill="#D4666A" points="-.999 164.343 198.046 164.343 198.046 -8.441 -.999 -8.441" mask="url(#l)"/></g><g transform="translate(1792.18 473.943)"><mask id="n" fill="#fff"><use xlink:href="#m"/></mask><polygon fill="#004E4C" points="-5.969 161.341 187.823 161.341 187.823 -4.981 -5.969 -4.981" mask="url(#n)"/></g><g transform="translate(674.8 269.12)"><mask id="p" fill="#fff"><use xlink:href="#o"/></mask><polygon fill="#91586E" points="-3.368 209.642 141.048 209.642 141.048 -1.001 -3.368 -1.001" mask="url(#p)"/></g><g transform="translate(1714.62 992.707)"><mask id="r" fill="#fff"><use xlink:href="#q"/></mask><polygon fill="#FBBD8A" points="-4.702 229.913 119.575 229.913 119.575 -1 -4.702 -1" mask="url(#r)"/></g><g transform="translate(226.016 989.856)"><mask id="t" fill="#fff"><use xlink:href="#s"/></mask><polygon fill="#EF6A9F" points="-2.123 228.515 110.629 228.515 110.629 -1 -2.123 -1" mask="url(#t)"/></g><g transform="translate(1472.88 1227.778)"><mask id="v" fill="#fff"><use xlink:href="#u"/></mask><polygon fill="#FBBD8A" points="-1 134.451 175.868 134.451 175.868 -4.915 -1 -4.915" mask="url(#v)"/></g><g transform="translate(1721.28 581.238)"><mask id="x" fill="#fff"><use xlink:href="#w"/></mask><polygon fill="#FBBD8A" points="-3.953 186.097 119.742 186.097 119.742 -1 -3.953 -1" mask="url(#x)"/></g><g transform="translate(211.502 579.115)"><mask id="z" fill="#fff"><use xlink:href="#y"/></mask><polygon fill="#004E4C" points="-5.652 187.95 114.776 187.95 114.776 -1 -5.652 -1" mask="url(#z)"/></g><g transform="translate(1420.768 895.908)"><mask id="B" fill="#fff"><use xlink:href="#A"/></mask><polygon fill="#91586E" points="-4.567 117.386 185.83 117.386 185.83 -3.463 -4.567 -3.463" mask="url(#B)"/></g><g transform="translate(0 939.615)"><mask id="D" fill="#fff"><use xlink:href="#C"/></mask><polygon fill="#D4666A" points="-1 128.504 159.765 128.504 159.765 -5.566 -1 -5.566" mask="url(#D)"/></g><g transform="translate(1885.725 940.722)"><mask id="F" fill="#fff"><use xlink:href="#E"/></mask><polygon fill="#EF6A9F" points="-1 125.622 163.275 125.622 163.275 -1 -1 -1" mask="url(#F)"/></g><g transform="translate(672.006 1267.48)"><mask id="H" fill="#fff"><use xlink:href="#G"/></mask><polygon fill="#FBBD8A" points="-8.373 159.526 135.298 159.526 135.298 -8.951 -8.373 -8.951" mask="url(#H)"/></g><g transform="translate(842.175)"><mask id="J" fill="#fff"><use xlink:href="#I"/></mask><polygon fill="#FBBD8A" points="-5.766 147.001 140.11 147.001 140.11 -1 -5.766 -1" mask="url(#J)"/></g><g transform="translate(1235.559 1264.979)"><mask id="L" fill="#fff"><use xlink:href="#K"/></mask><polygon fill="#004E4C" points="-1 146.053 134.535 146.053 134.535 -6.7 -1 -6.7" mask="url(#L)"/></g><g transform="translate(383.593 681.639)"><mask id="N" fill="#fff"><use xlink:href="#M"/></mask><polygon fill="#FBBD8A" points="-5.817 160.652 127.711 160.652 127.711 -1 -5.817 -1" mask="url(#N)"/></g><g transform="translate(1486.8 233.971)"><mask id="P" fill="#fff"><use xlink:href="#O"/></mask><polygon fill="#FBBD8A" points="-6.607 125.416 186.644 125.416 186.644 -6.596 -6.607 -6.596" mask="url(#P)"/></g><g transform="translate(426.897 572.291)"><mask id="R" fill="#fff"><use xlink:href="#Q"/></mask><polygon fill="#FBBD8A" points="-1 111.866 182.167 111.866 182.167 -8.041 -1 -8.041" mask="url(#R)"/></g><g transform="translate(377.724 234.191)"><mask id="T" fill="#fff"><use xlink:href="#S"/></mask><polygon fill="#004E4C" points="-1 122.409 191.477 122.409 191.477 -6.378 -1 -6.378" mask="url(#T)"/></g><g transform="translate(1380.975 572.088)"><mask id="V" fill="#fff"><use xlink:href="#U"/></mask><polygon fill="#004E4C" points="-1 122.62 237.631 122.62 237.631 -8.896 -1 -8.896" mask="url(#V)"/></g><g transform="translate(1119.404 .683)"><mask id="X" fill="#fff"><use xlink:href="#W"/></mask><polygon fill="#91586E" points="-6.962 150.855 138.552 150.855 138.552 -1 -6.962 -1" mask="url(#X)"/></g><g transform="translate(31.47 703.344)"><mask id="Z" fill="#fff"><use xlink:href="#Y"/></mask><polygon fill="#004E4C" points="-1.767 146.608 124.338 146.608 124.338 -6.227 -1.767 -6.227" mask="url(#Z)"/></g><g transform="translate(1892.42 702.798)"><mask id="ab" fill="#fff"><use xlink:href="#aa"/></mask><polygon fill="#FBBD8A" points="-22.376 146.69 122.709 146.69 122.709 -4.354 -22.376 -4.354" mask="url(#ab)"/></g><g transform="translate(751.588 1061.182)"><mask id="ad" fill="#fff"><use xlink:href="#ac"/></mask><polygon fill="#FBBD8A" points="-5.196 220.32 116.768 220.32 116.768 -1 -5.196 -1" mask="url(#ad)"/></g><g transform="translate(818.826 435.393)"><mask id="af" fill="#fff"><use xlink:href="#ae"/></mask><polygon fill="#EF6A9F" points="-5.769 140.062 145.75 140.062 145.75 -1 -5.769 -1" mask="url(#af)"/></g><g transform="translate(1512.572 683.085)"><mask id="ah" fill="#fff"><use xlink:href="#ag"/></mask><polygon fill="#D4666A" points="-1 137.899 177.411 137.899 177.411 -5.886 -1 -5.886" mask="url(#ah)"/></g><g transform="translate(1014.457 85.823)"><mask id="aj" fill="#fff"><use xlink:href="#ai"/></mask><polygon fill="#EF6A9F" points="-1.923 172.601 94.282 172.601 94.282 -1 -1.923 -1" mask="url(#aj)"/></g><g transform="translate(240.633 1223.541)"><mask id="al" fill="#fff"><use xlink:href="#ak"/></mask><polygon fill="#004E4C" points="-1 132.164 110.11 132.164 110.11 -5.339 -1 -5.339" mask="url(#al)"/></g><g transform="translate(583.737 158.736)"><mask id="an" fill="#fff"><use xlink:href="#am"/></mask><polygon fill="#FBBD8A" points="-1 99.677 171.073 99.677 171.073 -6.717 -1 -6.717" mask="url(#an)"/></g><g transform="translate(1230.946 1119.651)"><mask id="ap" fill="#fff"><use xlink:href="#ao"/></mask><polygon fill="#91586E" points="-8.912 130.801 114.489 130.801 114.489 -8.395 -8.912 -8.395" mask="url(#ap)"/></g><g transform="translate(1781.623 850.626)"><mask id="ar" fill="#fff"><use xlink:href="#aq"/></mask><polygon fill="#EF6A9F" points="-3.9 94.841 164.073 94.841 164.073 -4.545 -3.9 -4.545" mask="url(#ar)"/></g><g transform="translate(101.467 851.323)"><mask id="at" fill="#fff"><use xlink:href="#as"/></mask><polygon fill="#EF6A9F" points="-1 98.871 166.528 98.871 166.528 -1.69 -1 -1.69" mask="url(#at)"/></g><g transform="translate(1224.86 378.809)"><mask id="av" fill="#fff"><use xlink:href="#au"/></mask><polygon fill="#004E4C" points="-6.578 110.522 136.472 110.522 136.472 -3.586 -6.578 -3.586" mask="url(#av)"/></g><g transform="translate(1281.101 56.116)"><mask id="ax" fill="#fff"><use xlink:href="#aw"/></mask><polygon fill="#91586E" points="-4.285 99.004 143.943 99.004 143.943 -6.803 -4.285 -6.803" mask="url(#ax)"/></g><g transform="translate(685.757 729.128)"><mask id="az" fill="#fff"><use xlink:href="#ay"/></mask><polygon fill="#004E4C" points="-6.342 138.117 106.35 138.117 106.35 -1 -6.342 -1" mask="url(#az)"/></g><g transform="translate(855.969 1982.598)"><mask id="aB" fill="#fff"><use xlink:href="#aA"/></mask><polygon fill="#D4666A" points="-1 66.402 333.203 66.402 333.203 -1 -1 -1" mask="url(#aB)"/></g><g transform="translate(671.681 56.395)"><mask id="aD" fill="#fff"><use xlink:href="#aC"/></mask><polygon fill="#D4666A" points="-1 105.542 145.183 105.542 145.183 -5.123 -1 -5.123" mask="url(#aD)"/></g><g transform="translate(1359.678 664.809)"><mask id="aF" fill="#fff"><use xlink:href="#aE"/></mask><polygon fill="#D4666A" points="-1 119.715 153.924 119.715 153.924 -7.919 -1 -7.919" mask="url(#aF)"/></g><g transform="translate(377.255 1049.571)"><mask id="aH" fill="#fff"><use xlink:href="#aG"/></mask><polygon fill="#FBBD8A" points="-1 109.107 129.058 109.107 129.058 -1.575 -1 -1.575" mask="url(#aH)"/></g><g transform="translate(520.55 746.984)"><mask id="aJ" fill="#fff"><use xlink:href="#aI"/></mask><polygon fill="#004E4C" points="-6.687 135.22 134.634 135.22 134.634 -1.001 -6.687 -1.001" mask="url(#aJ)"/></g><g transform="translate(898.296 627.153)"><mask id="aL" fill="#fff"><use xlink:href="#aK"/></mask><polygon fill="#F06C9F" points="-17.834 165.935 89.212 165.935 89.212 -1 -17.834 -1" mask="url(#aL)"/></g><g transform="translate(1310.39 160.798)"><mask id="aN" fill="#fff"><use xlink:href="#aM"/></mask><polygon fill="#EF6A9F" points="-4.587 97.544 154.258 97.544 154.258 -6.311 -4.587 -6.311" mask="url(#aN)"/></g><g transform="translate(341.077 946.858)"><mask id="aP" fill="#fff"><use xlink:href="#aO"/></mask><polygon fill="#FBBD8A" points="-1 88.283 167.533 88.283 167.533 -18.29 -1 -18.29" mask="url(#aP)"/></g><g transform="translate(463.766 1222.796)"><mask id="aR" fill="#fff"><use xlink:href="#aQ"/></mask><polygon fill="#004E4C" points="-4.434 145.103 87.821 145.103 87.821 -1.848 -4.434 -1.848" mask="url(#aR)"/></g><g transform="translate(658.5 1026.826)"><mask id="aT" fill="#fff"><use xlink:href="#aS"/></mask><polygon fill="#91586E" points="-3.782 150.131 86.534 150.131 86.534 -6.143 -3.782 -6.143" mask="url(#aT)"/></g><g transform="translate(1397.622 1032.068)"><mask id="aV" fill="#fff"><use xlink:href="#aU"/></mask><polygon fill="#004E4C" points="-2.911 126.498 100.089 126.498 100.089 -1.936 -2.911 -1.936" mask="url(#aV)"/></g><g transform="translate(1246.944 674.647)"><mask id="aX" fill="#fff"><use xlink:href="#aW"/></mask><polygon fill="#F06C9F" points="-4.489 145.707 83.516 145.707 83.516 -1 -4.489 -1" mask="url(#aX)"/></g><g transform="translate(1132.883 454.941)"><mask id="aZ" fill="#fff"><use xlink:href="#aY"/></mask><polygon fill="#EF6A9F" points="-2.848 87.633 117.762 87.633 117.762 -3.231 -2.848 -3.231" mask="url(#aZ)"/></g><g transform="translate(978.299 498.152)"><mask id="bb" fill="#fff"><use xlink:href="#ba"/></mask><polygon fill="#D4666A" points="-3.532 134.923 83.212 134.923 83.212 -1 -3.532 -1" mask="url(#bb)"/></g><g transform="translate(778.64 984.544)"><mask id="bd" fill="#fff"><use xlink:href="#bc"/></mask><polygon fill="#91586E" points="-4.949 116.041 106.994 116.041 106.994 -1.422 -4.949 -1.422" mask="url(#bd)"/></g><g transform="translate(561.876 1179.871)"><mask id="bf" fill="#fff"><use xlink:href="#be"/></mask><polygon fill="#004E4C" points="-19.851 148.055 83.027 148.055 83.027 -1.001 -19.851 -1.001" mask="url(#bf)"/></g><g transform="translate(1395.67 296.468)"><mask id="bh" fill="#fff"><use xlink:href="#bg"/></mask><polygon fill="#F06C9F" points="-3.907 125.962 90.98 125.962 90.98 -1 -3.907 -1" mask="url(#bh)"/></g><g transform="translate(567.025 291.637)"><mask id="bj" fill="#fff"><use xlink:href="#bi"/></mask><polygon fill="#004E4C" points="-4.406 128.92 83.34 128.92 83.34 -1 -4.406 -1" mask="url(#bj)"/></g><g transform="translate(1188.519 286.178)"><mask id="bl" fill="#fff"><use xlink:href="#bk"/></mask><polygon fill="#004E4C" points="-1 88.891 129.794 88.891 129.794 -20.703 -1 -20.703" mask="url(#bl)"/></g><g transform="translate(1525.84 1027.339)"><mask id="bn" fill="#fff"><use xlink:href="#bm"/></mask><polygon fill="#004E4C" points="-2.46 131.361 85.724 131.361 85.724 -1 -2.46 -1" mask="url(#bn)"/></g><g transform="translate(975.162 239.349)"><mask id="bp" fill="#fff"><use xlink:href="#bo"/></mask><polygon fill="#004E4C" points="-4.62 129.298 77.477 129.298 77.477 -3.911 -4.62 -3.911" mask="url(#bp)"/></g><g transform="translate(1252.622 984.634)"><mask id="br" fill="#fff"><use xlink:href="#bq"/></mask><polygon fill="#D4666A" points="-1 102.819 96.134 102.819 96.134 -2.262 -1 -2.262" mask="url(#br)"/></g><g transform="translate(897.928 165.127)"><mask id="bt" fill="#fff"><use xlink:href="#bs"/></mask><polygon fill="#004E4C" points="-14.748 129.411 66.196 129.411 66.196 -1 -14.748 -1" mask="url(#bt)"/></g><g transform="translate(643.731 614.783)"><mask id="bv" fill="#fff"><use xlink:href="#bu"/></mask><polygon fill="#F06C9F" points="-1 69.851 101.661 69.851 101.661 -4.906 -1 -4.906" mask="url(#bv)"/></g><g transform="translate(593.617 1371.02)"><mask id="bx" fill="#fff"><use xlink:href="#bw"/></mask><polygon fill="#F06C9F" points="-4.372 88.464 69.505 88.464 69.505 -4.615 -4.372 -4.615" mask="url(#bx)"/></g><g transform="translate(1495.845 1411.534)"><mask id="bz" fill="#fff"><use xlink:href="#by"/></mask><polygon fill="#F06C9F" points="-1.34 73.808 56.31 73.808 56.31 -1.364 -1.34 -1.364" mask="url(#bz)"/></g><g transform="translate(1791.941 1243.154)"><mask id="bB" fill="#fff"><use xlink:href="#bA"/></mask><polygon fill="#D4666A" points="-14.792 94.171 54.217 94.171 54.217 -1 -14.792 -1" mask="url(#bB)"/></g><g transform="translate(1411.034 1188.36)"><mask id="bD" fill="#fff"><use xlink:href="#bC"/></mask><polygon fill="#D4666A" points="-4.351 138.74 53.529 138.74 53.529 -1 -4.351 -1" mask="url(#bD)"/></g><g transform="translate(550.354 1089.151)"><mask id="bF" fill="#fff"><use xlink:href="#bE"/></mask><polygon fill="#F06C9F" points="-1.316 53.134 55.406 53.134 55.406 -5.019 -1.316 -5.019" mask="url(#bF)"/></g><g transform="translate(559.411 223.558)"><mask id="bH" fill="#fff"><use xlink:href="#bG"/></mask><polygon fill="#F06C9F" points="-5.805 52.222 41.433 52.222 41.433 -1 -5.805 -1" mask="url(#bH)"/></g><g transform="translate(1446.183 228.353)"><mask id="bJ" fill="#fff"><use xlink:href="#bI"/></mask><polygon fill="#D4666A" points="-9.317 49.216 44.893 49.216 44.893 -2.781 -9.317 -2.781" mask="url(#bJ)"/></g><g transform="translate(172.948 748.334)"><mask id="bL" fill="#fff"><use xlink:href="#bK"/></mask><polygon fill="#D4666A" points="-3.624 48.163 42.164 48.163 42.164 -3.13 -3.624 -3.13" mask="url(#bL)"/></g><g transform="translate(1836.418 746.609)"><mask id="bN" fill="#fff"><use xlink:href="#bM"/></mask><polygon fill="#D4666A" points="-1 48.748 40.221 48.748 40.221 -3.396 -1 -3.396" mask="url(#bN)"/></g><g transform="translate(502.435 1436.595)"><mask id="bP" fill="#fff"><use xlink:href="#bO"/></mask><polygon fill="#D4666A" points="-5.456 50.674 37.48 50.674 37.48 -2.72 -5.456 -2.72" mask="url(#bP)"/></g><g transform="translate(1389.585 1380.777)"><mask id="bR" fill="#fff"><use xlink:href="#bQ"/></mask><polygon fill="#D4666A" points="-1.293 58.017 35.015 58.017 35.015 -1 -1.293 -1" mask="url(#bR)"/></g><g transform="translate(1668.843 933.912)"><mask id="bT" fill="#fff"><use xlink:href="#bS"/></mask><polygon fill="#D4666A" points="-1 38.639 37.039 38.639 37.039 -1 -1 -1" mask="url(#bT)"/></g><g transform="translate(1085.12 289.548)"><mask id="bV" fill="#fff"><use xlink:href="#bU"/></mask><polygon fill="#D4666A" points="-2.731 32.75 30.751 32.75 30.751 -1 -2.731 -1" mask="url(#bV)"/></g><g transform="translate(660.55 1175.196)"><mask id="bX" fill="#fff"><use xlink:href="#bW"/></mask><polygon fill="#D4666A" points="-2.253 32.778 26.953 32.778 26.953 -1 -2.253 -1" mask="url(#bX)"/></g><g transform="translate(1096.248 633.111)"><mask id="bZ" fill="#fff"><use xlink:href="#bY"/></mask><polygon fill="#D4666A" points="-12.343 349.026 121.867 349.026 121.867 -1 -12.343 -1" mask="url(#bZ)"/></g><g transform="translate(1115.597 813.378)"><mask id="cb" fill="#fff"><use xlink:href="#ca"/></mask><polygon fill="#D4666A" points="-2.717 168.759 102.517 168.759 102.517 -3.877 -2.717 -3.877" mask="url(#cb)"/></g><g transform="translate(1096.248 633.111)"><mask id="cd" fill="#fff"><use xlink:href="#cc"/></mask><polygon fill="#D4666A" points="-12.343 117.299 86.57 117.299 86.57 -1 -12.343 -1" mask="url(#cd)"/></g><g transform="translate(1356.001 764.767)"><mask id="cf" fill="#fff"><use xlink:href="#ce"/></mask><polygon fill="#4F5A4B" points="52.572 45.003 .563 60.292 -14.102 10.406 37.907 -4.883" mask="url(#cf)"/></g></g></svg>