<svg height="2048" viewBox="0 0 2048 2048" width="2048" xmlns="http://www.w3.org/2000/svg" xmlns:xlink="http://www.w3.org/1999/xlink"><mask id="a" fill="#fff"><path d="m0 0h1355.276v282.016h-1355.276z" fill="#fff" fill-rule="evenodd"/></mask><mask id="b" fill="#fff"><path d="m0 0h83.304v137.694h-83.304z" fill="#fff" fill-rule="evenodd"/></mask><g fill="none" fill-rule="evenodd"><path d="m0 270.297561c47.7489469-45.385923 99.9972585-84.855156 155.976907-119.371854 106.541498-65.6942101 221.233694-110.1224066 344.268595-132.6611032 96.342725-17.64722413 193.24867-24.43486526 290.685835-11.68554123 45.246455 5.91990293 90.681718 12.38294563 134.980938 23.01113183 42.174343 10.1203986 83.404655 24.814099 124.263745 39.6781332 34.00125 12.3733041 68.1753 25.4632958 99.90126 42.6477264 42.58075 23.068981 83.65426 49.226467 123.88933 76.280616 28.22503 18.977756 53.97317 41.670718 80.82536 62.702121 3.00491 14.867248-8.64032 14.23412-16.84542 14.388385-20.74956.388875-41.41912-2.445736-62.08867-4.171571-27.15619-2.262547-54.24519-2.844253-81.32458.128554-11.17161 1.224475-22.32721 1.15377-33.50522 1.398022-57.48691 1.2534-114.97381-1.757973-172.508714 2.458592-27.895421 2.044005-56.155655-1.783684-84.396688-1.137701-66.97205 1.52979-133.956901-2.763907-200.970552-.784179-32.461988.96094-64.930376-1.221261-97.411564-.636341-12.01324.215328-23.373656 1.680841-33.015608 9.574045-3.664134 2.837825-8.041894 3.49345-12.451656 4.010879-5.353796 2.706057-10.195573 6.996541-16.915819 5.624229-16.909418-3.358468-33.844438-4.039804-50.885061-1.182695-15.514168 2.603215-30.740325-1.82225-46.18729-2.050433-53.275549-.787392-106.547898-.080346-159.801047.478863-53.883571.565636-107.383128-5.592091-161.135495-6.716937-32.5771919-.678121-64.5655622 7.780719-97.1779553 6.324847-10.0067662-.446724-20.49674994.314957-28.1706307-8.307789" fill="#76b7d1" mask="url(#a)" transform="translate(328.794)"/><path d="m1718.47375 1777.4637c-35.07648 28.03438-70.14976 56.06875-105.22625 84.09991-9.01793 3.74413-18.41987 4.80791-28.14183 4.80791-374.76251-.06428-749.521819-.06428-1124.28433.04178-8.624316.00321-16.883818-1.84475-25.312926-2.83783-70.360975-48.05341-132.907263-104.87419-188.518898-169.4757 8.547513-7.79036 19.155901-5.36712 29.005862-5.37997 140.155527-.17355 280.314255-.1157 420.469783-.1157 151.877556-.00322 303.758309-.03214 455.639069.06749 9.46915.00643 19.28391-1.578 28.11303 3.7152 5.19699 12.25761-5.23539 11.79482-11.45642 12.91002-25.16892 4.51224-50.63865 7.18294-75.86198 11.35452-117.741903 19.46626-235.957428 35.83116-353.849741 54.30434-16.704611 2.61607-33.646031 2.68677-50.424245 4.53152 20.282342-1.92509 40.590285-3.13993 60.981431-3.13671 312.718645.03214 625.434085-.00643 938.152725.15105 10.35238.00643 21.47598-2.81533 30.71472 4.96217" fill="#1782b1"/><path d="m887.310543 270.505175c2.768101 1.443016 5.539403 2.886033 8.307504 4.325836 11.402017 6.070953 20.723958 14.761191 29.530681 24.007423 44.83684 47.079619 94.813072 88.718198 140.929952 134.441574 1.91367 1.899383 4.32976 3.066008 6.82585 4.017307 6.64665 1.854388 13.13968-.96094 19.73193-.66848 3.15851-.173548 6.31063-.186403 9.47234-.247466 10.7876-.867738 21.34478-3.082078 31.90517-5.280348 9.24834-1.770829 18.58308-1.263041 27.89542-1.124846 10.36518.064277 18.11906 4.750063 24.09368 13.186407 19.70312 27.8319 42.63836 53.070226 64.78317 78.838838 23.23605 27.038079 43.7104 56.251933 67.31446 82.946131 12.32045 13.938447 25.04412 27.561937 36.05252 42.631657 43.5504 57.67888 94.59226 108.573333 144.12368 160.843312 4.49936 4.750063 9.16833 6.501609 15.58457 5.723859 16.3814-1.979729 32.9132-3.239556 49.08019-6.299137 13.7349-2.600001 21.99121 2.153276 29.30667 13.334244 16.96382 25.929303 33.51803 52.15428 51.8099 77.186921 18.83589 28.413605 38.63181 56.19087 57.23409 84.749098 7.21307 11.068483 14.46773 15.516445 27.51781 11.068483 14.06131-4.791843 29.21387-5.820273 43.34239-10.467494 13.55249-4.457603 23.79607.350309 33.14041 9.442278 19.83432 19.308778 39.10863 39.186418 58.77015 58.668748 47.64014 49.34216 97.34116 96.53427 147.88381 142.85542 6.57304 6.02596 14.17972 11.37058 17.53984 20.29222-7.86589 33.26008-15.72857 66.52016-23.59446 99.78346-20.25674-20.11224-41.14711-39.54315-61.90627-59.12832-38.395-36.22325-73.46509-75.87889-112.98653-111.003-6.92185-6.15452-13.84371-9.29444-22.85524-9.09518-10.64359.23139-21.42158-.9963-31.91796.2571-23.90168 2.84747-43.5376-6.18022-62.22948-19.58838-31.61396-22.67368-63.91274-44.39928-95.26109-67.42326-17.55264-12.89074-33.75163-27.81583-48.93299-43.51225-55.28202-57.138958-115.31302-109.28681-171.71828-165.252711-12.79407-12.697903-27.08899-23.972072-39.80946-36.885302-3.28972-8.253154-3.14891-17.014097-1.52005-25.292962 4.96978-25.273679-.55042-51.112994 4.90258-76.595573-11.87244 15.159708-22.97364 30.451183-33.56283 46.131534-4.42576 6.556244-8.34591 13.896667-17.14623 15.757483-6.83545-1.709765-9.74115-8.012116-13.94291-12.575776-21.71279-23.602479-47.44173-42.933758-69.38494-66.266275-5.5106-5.855626-11.85003-8.587394-20.06793-6.871201-10.16677 2.124352-18.60868-1.941162-26.58657-8.005688-83.57106-63.550576-163.894-131.147383-244.725757-198.104634-9.411544-7.800003-18.31427-16.268485-27.575409-24.299884-5.846613-5.074662-11.958837-8.693451-19.511113-10.059335-2.7329-1.156985-4.492965-3.197776-5.568204-5.935973-4.243355-28.709279-1.267246-57.566395-1.932871-86.339952-.419215-18.142156-.339212-36.310023.096004-54.465035.166406-6.999755 2.102477-13.591351 5.561803-19.700871" fill="#183c67"/><path d="m515.390376 671.937584c9.667554-17.078374 19.331907-34.153533 28.999461-51.231907 0 0-.025601-.022497-.025601-.022497-12.602061 10.017556-25.344927 19.85835-37.745381 30.116944-6.902652 5.707789-13.232484 12.109769-19.821525 18.196791-103.488586-13.298891-207.495591-6.029173-311.272188-7.947839-32.551591-.600989-64.994378.768109-97.3923634 3.808407-5.7282096.539926-11.7412296 2.101854-16.8166153-2.400743 24.5192971-51.977519 47.3393317-104.86777 74.1915147-155.60153 16.551005-31.277142 39.259036-59.26652 59.205366-88.734267 19.024696-8.638816 39.758254-7.623241 59.499777-7.742153 163.961198-.977009 327.928797-.58492 491.893196-.466008 11.949237.009642 23.632865 1.028431 30.970733 12.572563 4.732973 7.494687-.307211 12.942154-3.888142 18.807422-14.698138 24.090984-33.470025 45.356998-47.720146 69.779008-4.598568 7.883562-8.637116 15.80569-10.864397 24.711256-8.265903 33.057612-20.051934 65.083579-28.186632 98.21511-5.059385 20.603962-15.238957 38.402236-35.921314 47.706318-21.469585-8.629174-43.348786-5.203215-65.307989-2.651422-18.407074 2.137207-36.942152 1.16984-55.419628.6267-5.817813-.173548-11.75723-1.108777-14.378126-7.742153m835.861944-22.26327c-28.90026-35.728318-57.50291-71.707315-86.79998-107.104606-20.97357-25.344384-42.93597-49.856381-64.31275-74.866525-5.4466-6.369841-9.69956-13.887025-15.67418-19.652664-5.6514-5.453895-12.83886-9.304082-19.3543-13.8581-3.24492-9.413353 4.48336-9.786159 9.63235-10.46428 15.25496-2.00544 30.43951-5.077876 46.07849-1.92188 28.89065 5.826702 58.35093.703832 87.4912 4.091225 38.71181 4.499384 77.52923 4.030162 116.42346.430655 34.07804-3.152782 68.09849 4.885045 102.17653 2.792832 42.00794-2.580718 84.17588-1.561929 126.04622-1.491224 51.04186.08356 102.32374-.446725 153.37201 2.577504 14.38452.854883 27.07299-3.721633 40.56148-5.60816 20.50955 29.936968 43.04478 58.704097 61.00703 90.106578 21.8408 38.180482 39.94706 78.523881 59.33657 118.092743 2.50249 5.113228 3.02411 11.203465 4.46417 16.837336-4.09295 9.050188-12.06764 9.243018-20.29515 9.095182-92.68179-1.664772-185.38918-1.410879-278.05177-.18319-36.13572.478863-72.34505 4.174785-108.49037 2.015081-45.68807-2.734982-91.39854-4.335477-137.12821-5.7335-14.36853-.440296-28.74666-.253893-43.02238 2.182201-12.04204 2.056861-23.31285-.269963-33.46042-7.337208" fill="#b6d6e3"/><path d="m1846.89381 424.599734c-12.07084 13.980226-27.49541 10.679607-43.38719 10.11397-35.09568-1.246971-70.26177-.395302-105.40225-.395302-33.79964 0-67.59928 0-101.40211 0-20.49355 0-40.9967.398516-61.47745-.096416-28.62505-.687763-57.2245-2.644994-85.84634-2.892461-17.95586-.154264-35.96292 3.069223-53.88997 2.600001-38.1038-.993078-76.16279-3.609148-114.25378-5.151794-19.37671-.787392-38.78862-.813103-58.18773-.957726-16.75582-.12534-33.52443-.196044-50.26424.404945-2.6241.093201-5.11699 3.885539-7.67068 5.968111-10.08997.12534-20.17674.250679-30.26671.372806-11.05 2.953523-23.17845-.54314-33.67803 5.685292-3.22572.122126-6.45144.244252-9.67396.366378-6.94745-3.695922-13.45329-.44351-20.05833 1.279111-21.08557-19.209153-42.40475-38.161199-63.20551-57.678881-36.734147-34.474918-73.16748-69.277648-109.648815-104.028956-1.408051-1.340173-1.993672-3.554513-2.960108-5.360694 4.416162-14.629423 16.586207-17.155506 28.97706-17.039807 31.821965.295674 63.637529 2.28183 95.453093 2.275402 32.35318-.006428 64.70637-2.230408 97.05955-2.262547 24.10008-.022497 48.20016 2.651422 72.30665 2.74141 21.40878.077132 42.81756-2.185415 64.24235-2.571076 12.65646-.228183 25.33532 1.263041 38.01099 1.825464 10.07717.449938 20.17354 1.12806 30.2443.899877 37.66538-.858097 75.32436-2.095427 112.98974-3.094933 42.45275-1.12806 84.9183-3.313475 127.35826-2.863536 34.88127.369592 69.72415 3.994809 104.59582 6.003463 7.51068.433869 15.58137 1.012361 16.72702-9.840795 24.30488 21.937708 49.62421 42.866268 72.62025 66.105583 22.57683 22.815087 43.06078 47.751312 63.92874 72.215102 9.57795 11.225962 17.87906 23.551058 26.75938 35.378009" fill="#92c5da"/><path d="m135.861291 1536.73416c-15.475767-28.20792-31.553155-56.10731-46.1840901-84.7491-7.6194787-14.91867-12.6884642-31.14537-18.9062917-46.78394 8.3395051-8.22744 18.9894948-5.6403 28.7754528-5.63066 141.432374.15748 282.867949-.82274 424.297123.39531 12.467656-.65242 24.935313-.49494 37.406169-.05464 108.23116-.96737 216.462319-.18962 324.693479-.43387 6.393834-.01607 12.797268-.25068 19.168701.47244 27.463405-.75847 54.93641-.27318 82.406215-.2539 5.286594.00322 10.585988.27639 15.443761 2.74141 3.85615 2.61607 2.76171 5.25143-.37761 7.32114-5.504201 3.63165-11.958837 4.44154-18.285468 5.27714-94.067442 12.444-187.853273 26.81311-281.613504 41.37504-16.647009 2.58714-33.486025 2.66428-50.222637 4.61829 12.253248-1.74511 24.560899-2.00865 36.884549-1.99258 5.529803 1.35624 10.992403.67812 16.455002-.59456 63.874337-.99308 127.748674-3.43239 191.562209 1.4398 13.837306 1.05736 27.697013 1.07985 41.515119.43387 141.58598-6.63659 283.24556-2.08257 424.86354-2.14685 27.3546-.01285 55.30123-.00964 82.64943 4.62794 5.85621 3.28134 4.28175 6.36984-.46082 9.03733-5.64181 3.16885-12.00044 4.2937-18.18946 5.79135-85.78234 20.76787-171.35347 42.40348-257.33742 62.38717-15.17175 3.15921-30.33711 6.36984-45.91208 2.67391-20.68556-.74882-41.37111-.84845-62.04067-.85809-298.586923-.12856-597.170647-.05785-895.757571-.20569-10.397181-.00321-21.495187 2.62571-30.833128-4.88826m1215.391029-887.059846c18.33667-.022497 36.67974-.427442 55.00681.019283 31.25554.758467 62.49829 2.844253 93.75383 2.979234 94.41625.408159 188.83571.147837 283.25516.147837 52.13311 0 104.26622.173548 156.39612-.144623 10.682-.064277 21.35439-1.979729 32.03318-3.040297 10.21477 26.215335 21.9368 51.958235 30.2411 78.771346 9.87876 31.8942 17.05343 64.646497 24.93212 97.1449 3.37612 13.919164 7.09465 28.02473 8.01629 42.220285 2.45449 37.749826-7.76989 38.466513-40.02067 34.474917-22.76563-2.818542-45.55366-5.505316-68.26489-8.719162-9.82756-1.391595-19.48872-3.972312-29.22667-6.00989-1.93607 3.981954-3.99055 7.873921-7.76989 10.499632-23.04404 16.548089-49.71062 19.639808-76.03158 15.368608-40.43348-6.559458-81.56778-2.590359-121.83806-10.888508-16.25339-3.348826-33.61403 5.338197-50.19383-1.754759-17.33824-25.238327-35.26209-50.094206-51.7363-75.885314-7.20026-11.274169-13.7157-16.470957-28.06502-12.775034-16.3718 4.210137-33.64283 5.325341-50.61305 6.504822-4.98579.347096-11.77963-2.24005-15.19416-5.890978-37.81578-40.439815-75.35956-81.139951-112.43931-122.257886-11.57483-12.836098-21.53999-27.134496-32.24118-40.764413" fill="#dbe9ef"/><path d="m1360.42737 803.820615c14.97335 12.450437 30.74033 24.058846 44.77924 37.492719 59.55418 56.987903 117.36429 115.878403 178.30412 171.310806 33.58523 30.5476 72.08904 55.64452 108.41997 83.13896 6.34263 4.79827 13.25809 8.87986 19.31911 13.99951 22.45842 18.95847 48.45617 26.48209 76.96921 21.61954 27.47621-4.68257 46.08169 8.55847 63.68553 26.50458 26.90019 27.42053 53.97958 54.67072 81.35018 81.6156 19.33831 19.03882 39.50545 37.22597 58.81175 56.2905 5.4882 5.42176 9.26434 12.59506 13.82771 18.9649-10.778 31.0361-21.55599 62.07221-32.33399 93.10831-3.02411.99629-6.07062 1.95723-9.28994 1.94116-60.3702-.28282-120.74361.60099-181.11382-.46279-1.59046-.02893-3.13932-.45315-4.65297-.72633-1.68966-.40816-3.29612-1.14092-4.75538-2.10186-5.85301-18.37355-17.30303-33.44005-28.90985-48.40693-50.90747-68.51275-99.52684-138.68064-149.27586-208.03542-75.87478-105.76764-151.53835-211.689555-225.12504-319.083407-4.50257-6.565886-9.61955-12.84574-12.03244-20.681094-.33281-2.481089.0896-4.724353 2.02247-6.488754" fill="#155981"/><path d="m435.508734 1863.57547c6.173025-.87416 12.349251-2.51644 18.522277-2.51644 380.017104-.12855 760.037409-.12212 1140.054509-.09963 6.39064 0 12.78127.38888 19.1687.60099-50.97786 37.07171-105.08224 68.60274-163.17397 93.07939-17.49824 2.02793-35.07008 1.60049-52.63232 1.60049-93.26742-.00642-186.56043 1.38838-279.79584-.33102-138.517067-2.55501-277.043735-1.6712-415.535202-3.71199-40.846295-.60099-82.003.10605-122.830094-4.35476-47.924954-28.08901-95.853107-56.17802-143.77806-84.26703" fill="#183c67"/><path d="m61.3148833 662.457704c29.0250619-2.14042 58.0341237-5.833129 87.0783857-6.128802 82.582221-.842028 165.183644-.588134 247.772265-.051422 16.819815.106057 33.594829 3.625218 50.433845 5.020026 13.712502 1.137702 28.465042-3.744129 40.196671 7.700374-14.099716 13.652414-28.385039 27.115212-42.270347 40.986168-51.598687 51.559719-102.950966 103.370118-154.655258 154.82378-15.837379 15.760697-31.149939 32.652667-49.320204 45.205947-10.153972 7.015824-25.636138 8.269224-38.791819 8.529545-46.600105.925587-93.232211.241038-139.8547172.302101-17.5526422.022497-35.1276852.896663-52.64192595.173548-2.98250912-.122126-8.54751272-6.765144-8.14429797-9.737951 11.41481762-83.907071 27.65861192-166.698938 58.98455802-245.801311.1728063-.433869.8000293-.684549 1.2128444-1.022003" fill="#dbe9ef"/><path d="m525.06721 1404.55546c-142.94603.04178-285.888859.07392-428.8348892.14462-8.4867105.00643-16.973421.32781-25.4633316.50136-3.033711-4.02695-7.2578656-7.6136-8.9219265-12.14833-21.619991-58.92586-40.5966852-118.62946-50.4658463-180.87521 24.080881-39.21856 41.6431235-81.84057 63.3239168-122.31253 2.7745015-5.1775 5.4818005-10.39678 8.5987146-15.38146 6.9826554 4.42868 14.2917228 8.42349 20.8967642 13.36317 32.782 24.51843 65.381592 49.28753 98.041987 73.96665 19.850326 7.48826 34.599666 22.67689 51.521885 34.56812 9.142735 6.42769 17.847053 13.49815 26.970587 19.98369 69.503343 52.65885 138.997085 105.32735 209.38366 156.79065 3.54893 2.64178 7.209864 5.1293 10.9092 7.57182 6.345832 9.63189 21.936802 9.88257 24.039279 23.82745" fill="#183c67"/><path d="m777.552928 427.705272c-8.214701-10.544626-18.893492-12.951796-32.068374-12.919658-162.418742.424228-324.840684.163906-487.262627.411373-21.165574.032138-42.331148 1.90581-63.503123 2.924599 24.666502-30.345127 48.350569-61.577275 74.34832-90.726851 18.282269-20.501119 39.716653-38.164412 59.736586-57.097174 32.580392-.870953 65.163984-2.162918 97.757176-2.46502 21.706394-.202472 43.435189.703832 65.128783 1.664772 23.796071 1.050927 47.55054 3.583438 71.34341 3.959457 42.036738.665266 84.092677-.228183 126.132615.305316 40.068666.507787 80.124531 2.175773 120.193197 2.988876 20.464749.4178 40.942298-.035353 61.410247.260321 2.19208.032139 4.348959 2.442523 6.521839 3.747344 3.84334 6.713722-1.193644 11.332018-4.36816 15.783194-28.810654 40.407676-56.075652 81.888776-84.518292 122.55356-2.7297 3.901608-5.344196 8.147097-10.851597 8.609891m403.940222 1266.661248c-27.67782-.22497-55.35563-.64277-83.03344-.64919-280.631069-.06428-561.262136-.06428-841.890003-.05785-3.190517 0-6.377833.28924-9.57475.44029-8.541113-10.76316-17.079025-21.52955-25.613738-32.29271 4.550567-7.33721 12.416455-7.90285 19.616718-9.06305 74.124312-11.933 148.575036-21.52312 223.01936-31.16787 11.459619-1.48479 23.405656-1.43659 33.873239-7.67787 16.711011-4.03338 33.690832-1.83511 50.542649-2.06329 34.311655-.47244 68.626511-.15105 102.934966.98986 25.044116-.96737 50.101033-1.19555 75.141949-1.21162 254.812523-.15426 509.62185-.10927 764.43437-.04821 9.54595 0 19.2199-1.02843 28.53544 2.04722 3.97135 1.89296 6.21463 4.44797 1.99047 8.19209-4.12495 3.65093-9.49154 4.51546-14.64373 5.86527-91.99057 24.15526-184.59555 45.85836-276.63732 69.89149-16.3398.55921-32.93881 5.06181-48.69618-3.19456" fill="#92c5da"/><path d="m1522.80259 1616.98966c-276.97013-.12855-553.937063-.2571-830.907196-.39851-13.843707-.00643-27.690613-.12534-41.53752-.19283 3.82094-10.60248 13.907709-8.3335 21.453585-9.50334 73.202678-11.36095 146.50136-22.11447 219.780841-32.99977 65.371992-9.71224 130.55518-20.68752 196.03917-29.58666 13.02128-1.76761 25.94655-6.02917 39.39664-4.01409 14.74294-1.3241 29.48588-2.64499 44.22882-3.9691 19.99433-2.66106 39.97586-5.18714 60.22621-5.18072 213.67821.07392 427.35643.03214 641.03785.08999 9.54915.00321 19.2103-.94808 28.58984 1.94759 4.40657 1.79011 6.83865 4.91397 6.51224 9.86008-16.25339 24.40273-32.50679 48.80224-48.76338 73.20175-6.54104 5.85241-14.60854 5.81385-22.62163 5.82028-97.43396.06749-194.86473.10284-292.29549-.05785-7.32827-.01286-15.08536.83881-21.13998-5.01682m-341.30944 77.37686c16.73981-.24746 33.47962-.49493 50.21623-.7424 21.01837-3.51916 42.12634-5.15179 63.49033-5.12287 158.31939.21212 316.64198.06107 474.96137.23462 9.82756.00964 20.47755-2.53251 28.91946 5.53424-26.86818 27.73227-53.73636 55.46132-80.60775 83.19359-341.05568-.03213-682.11135-.06749-1023.170232-.09962-6.352232 0-12.701264 0-19.232703-1.88653 36.558137-5.73672 73.097074-11.5827 109.674412-17.18443 62.725495-9.60297 125.45739-19.15131 188.214886-28.54216 66.428027-9.93721 132.894467-19.61089 199.300087-29.68308 2.96331-.44993 5.49781-3.7377 8.23391-5.70136" fill="#155981"/><path d="m1127.02875 1540.2951c-35.36449 6.25415-70.63938 13.07714-106.10948 18.65316-81.692587 12.8361-163.49398 24.98122-245.22497 37.57307-41.80953 6.44054-83.561458 13.24104-125.338986 19.87763-3.328122 1.12806-6.672244 3.28133-9.984365 3.22991-48.014557-.72633-96.022713-1.74833-144.03727-2.69963-18.458275 6.25415-37.694179 4.88826-56.606871 4.99432-75.99318.42101-151.992761.20568-227.985941.15426-7.977892-.00321-16.022986.25068-23.130446-4.39975-17.587844-26.98345-35.172487-53.96368-52.753931-80.94391 313.259461.10927 626.515722.16712 939.76878.4628 17.13663.01607 34.27006 2.02151 51.40348 3.09814" fill="#76b7d1"/><path d="m579.288394 1947.84346c7.261066-1.09271 14.525331-3.18171 21.779997-3.13432 129.969555.8782 259.93911 2.07696 389.911865 3.07968 147.032584 1.13449 294.068354 2.09865 441.097734 3.34883 6.00982.05142 12.00044 2.28505 18.00066 3.50309-71.31781 35.37158-146.71257 58.32808-224.55861 73.40423-110.53205 21.41063-221.90572 25.534-333.663411 12.64969-106.807107-12.31545-209.166052-40.96688-305.902391-88.7182-2.332886-1.15055-4.448163-2.74462-6.665844-4.133m-210.942758-980.11706c8.294704-21.91521 16.589407-43.830421 24.884111-65.745631 10.534785 0 14.707738 9.236591 21.104772 15.021512 8.2019 7.414341 15.686974 15.619288 23.661666 23.303592 19.475912 20.465766 37.399768 42.387405 58.056524 61.750827 6.694645 6.27663 13.760503 11.56662 22.228013 15.26897 32.685996 14.28876 65.515997 28.26577 97.427564 44.28358 10.922 6.34734 22.756033 10.70532 34.199652 15.91175 5.721809 2.60321 11.290013 5.71743 14.022913 12.01013.982436 6.95477-2.758501 12.37974-6.029021 17.83685-41.783929 69.71794-84.396688 138.9281-127.022247 208.12861-2.492891 4.04623-4.512165 8.6581-9.901162 9.80544-12.765268-12.82645-16.893419-30.39012-23.623265-46.16367-38.523009-90.29941-79.122895-179.70215-116.279454-270.58648-5.395397-13.196052-12.723665-25.890741-12.730066-40.82548" fill="#155981"/><path d="m1903.80053 1537.81819c-65.04238-.16069-130.08476-.40173-195.12714-.466-176.48965-.17677-352.97931-.27318-529.46577-.43066-2.64969-.00321-5.29619-.38887-7.94909-.59777 64.52716-15.98888 129.10233-31.79136 193.56228-48.05663 28.48105-7.18616 56.72528-15.30755 85.07512-23.00471 2.7745-8.96984 10.65639-7.25686 16.92542-7.44969 19.3447-.58813 38.70861-.35031 58.06292-.19926 5.95862.64598 11.92684.57528 17.90465.20247 3.06572-.14141 6.11863.18641 9.18754.16712 123.89893-1.48801 247.79147-.35673 371.684-.57206 8.78752-.01607 18.31747-1.94759 25.61054 5.58888-12.98608 24.51199-25.97215 49.02399-38.95823 73.5392-1.88807 1.87689-4.20175 1.56836-6.51224 1.27911" fill="#92c5da"/><path d="m368.345636 967.7264c9.494748 22.484062 18.86149 45.02276 28.506643 67.44254 30.34031 70.52784 60.821425 140.99461 91.174536 211.51923 11.149208 25.91002 22.090408 51.91002 33.127612 77.86825-5.040184 20.25366-14.560533 37.78197-30.865129 51.1837-21.635992-15.16292-43.627196-29.84377-64.837572-45.58518-48.171363-35.74439-95.965111-72.00299-143.864464-108.11697-1.196844-.90309-1.843267-2.53893-2.7489-3.83411-5.74101-7.69074-2.102477-15.33647.483217-22.71868 15.091752-43.06552 26.967387-87.17876 42.247946-130.17358 1.264046-3.55773 2.160079-7.08975 1.881669-10.86923 14.963747-28.90532 29.930695-57.810646 44.894442-86.71597" fill="#1782b1"/><path d="m1799.0799 1694.27139c-183.2611-.15748-366.52221-.31174-549.78331-.47565-5.85942-.00642-11.71883-.11248-17.58145-.17033 45.03205-11.60198 90.0385-23.33573 135.11855-34.77059 48.28656-12.25118 96.65953-24.1649 144.9429-36.43537 3.88494-.98665 7.36667-3.58022 11.0308-5.43139 83.34385-.20248 166.6909-.41459 250.03795-.60742 28.66985-.06749 57.3397-.08677 86.01275-.13177-19.92393 26.00644-39.85106 52.01287-59.77819 78.02252" fill="#3796bf"/><path d="m1949.27228 1462.99827c-133.44169-.08677-266.88017-.17355-400.32185-.25711-3.17132-11.80124 6.89945-11.68233 13.00528-13.0225 34.20925-7.51397 67.46806-18.45711 101.2261-27.56194 13.7605-3.71199 27.20739-8.17602 36.31493-20.40149 24.5897-1.86724 49.269-6.34413 73.41708 2.8314 60.73183.04821 121.46365.00643 182.19547.27961 6.15702.02571 12.30445 1.9508 18.45507 2.9953-8.09949 18.3832-16.19579 36.75996-24.29208 55.13673" fill="#1782b1"/><path d="m436.845742 942.084736c-14.538131-13.366382-29.079463-26.735978-43.617595-40.10236 14.515731-32.28629 28.586646-64.784693 43.713599-96.778522 9.203537-19.46626 20.042333-38.151557 30.145103-57.190376 24.791307 4.968605 49.877025 2.246478 74.831538 2.84104 14.349325.340667 28.727451.057849 42.772765 3.634858 6.58264 7.767864-.208008 13.057854-4.140952 17.939685-27.447404 34.05069-54.497994 68.43562-83.017437 101.599289-16.365399 19.032391-29.79309 40.330544-46.017684 59.440067-3.756937 4.428679-6.150625 12.029423-14.669337 8.616319" fill="#dbe9ef"/><path d="m2029.48673 1214.97619c-10.48998-8.85414-21.54959-17.12015-31.37715-26.66849-45.33606-44.04253-90.3297-88.44502-135.44815-132.71895 2.95051-25.58542 11.16841-49.13648 26.72418-69.859353 10.11237-1.259827 13.57809 7.11224 18.08386 13.257112 36.20292 49.361451 72.16904 98.896441 109.89842 147.113761 6.56024 8.38814 13.28368 16.5963 20.30474 24.57949-2.7297 14.76762-5.4594 29.53203-8.1859 44.29643" fill="#1782b1"/><path d="m586.048641 758.938302c-33.89244-1.086279-67.80408-1.838319-101.664519-3.577009-5.872215-.302102-11.533222-4.782202-17.293433-7.340423 16.096589-25.363666 32.199578-50.724119 48.299367-76.081358 24.128883.748826 48.267366 2.233622 72.383448 1.976515 14.096516-.151051 28.180231-4.428679 42.231945-4.22942 7.565077.106056 15.050151 5.743141 22.570426 8.883068 2.502492 3.380965.313612 6.138444-1.536056 8.526331-18.195866 23.47714-37.17896 46.305082-56.760477 68.625237-2.083276 2.375032-4.550566 4.570088-8.230701 3.217059" fill="#dbe9ef"/><path d="m2037.67135 1170.68073c-4.48336-3.11101-10.13477-5.32534-13.27089-9.46478-41.1023-54.20471-81.78859-108.73081-122.80129-163.006228-3.34092-4.422251-8.2979-7.616813-12.50606-11.383439-.61122-2.477875-.2496-4.820768.94404-7.054391 4.92818-6.125589 10.80999-6.045242 17.05662-2.423239 46.92652 27.224487 94.07064 54.072947 139.63071 83.598547-.23041 2.16613-.45762 4.33226-.68802 6.49839-3.05932 23.42893-3.74414 47.01534-4.75218 70.58247-1.20324 10.88208-2.40969 21.76737-3.61293 32.65267" fill="#155981"/><path d="m2046.72416 1060.94559c-9.03713-3.7827-18.66308-6.56267-27.01539-11.51521-38.53261-22.85044-76.6236-46.45613-115.18181-69.268005-3.17132-1.876886-8.63712.154264-13.03728.369592-3.49773-2.99209-4.57937-7.141164-4.75857-11.396295-.89923-21.166385-.74243-42.339197-.10881-63.508796.13121-4.329049 1.59366-8.291721 4.25936-11.753032 2.16328-2.117924 4.32976-4.239062 6.49304-6.356986 40.17747 42.686293 80.33254 85.391868 120.59321 127.997812 2.09608 2.22077 4.88338 4.01088 7.67068 5.31249 23.92088 11.15847 23.94328 11.11026 21.08557 40.11843" fill="#183c67"/><path d="m188.60914 1617.67743c43.038375-.30211 86.07675-.78097 129.115124-.86453 59.534978-.11891 119.073157.06106 178.611335.1157-10.339578 3.18171-20.474349 7.77751-31.050736 9.29444-42.766365 6.13202-85.715136 11.00099-128.507102 16.95625-33.380421 4.644-66.639238 10.1686-99.936456 15.39753-5.19379.81632-10.310777 2.14042-15.459766 3.22992-10.925199-14.70977-21.847199-29.41954-32.772399-44.12931" fill="#b6d6e3"/><path d="m323.451194 1054.44109c.057602 5.85562 1.596858 12.17726-.064003 17.48974-13.341288 42.64452-27.373801 85.07049-40.942297 127.64108-1.90727 5.98418-2.43849 12.41187-3.606532 18.63387-25.533735-18.80099-51.070669-37.59877-76.598003-56.39334 35.962916-29.24599 72.117839-58.25416 107.68714-87.97258 5.830613-4.87219 9.081932-12.85538 13.523695-19.39877" fill="#3796bf"/><path d="m83.3038478 0c-.627223 4.11372189-.2624096 8.72237595-2.0288743 12.2608195-18.2950693 36.6185526-36.7053429 73.1888975-55.704438 109.4442855-3.2129175 6.132017-9.3827433 10.698891-14.186119 15.98888-3.92014341-26.896671-8.27870287-53.7419199-11.33481469-80.7382198-.5248192-4.6600756 3.14891521-12.2254673 7.14586144-14.578002 25.01211505-14.7354804 50.66745375-28.3750395 76.10838455-42.3777632" fill="#155981" mask="url(#b)" transform="translate(0 1074.485)"/><path d="m2041.28492 1138.02677c.14081-18.83313.0064-37.67269.61763-56.48975.1536-4.73721 2.69129-9.39407 4.13455-14.0895-1.58406 23.52535-3.16812 47.05391-4.75218 70.57925" fill="#183c67"/><path d="m1903.80053 1537.81787c2.16968-.42744 4.34256-.85488 6.51224-1.27911-.89603 2.16935-1.79526 4.33869-2.6913 6.50482-1.27364-1.7419-2.54729-3.4838-3.82094-5.22571" fill="#1782b1"/><path d="m586.048641 758.938624c22.180012-26.790614 44.360023-53.581228 66.533634-80.368628 17.75105-15.40396 26.576973-34.96985 33.399622-57.704591 13.760504-45.867999 19.843926-94.90485 50.184236-134.7726 14.438929-18.968114 27.633011-38.893955 41.390315-58.385926 31.316345-45.26701 62.661492-90.511523 93.894635-135.836382 2.358486-3.419532 3.913743-7.398272 5.840214-11.113477 3.340922-3.416318 6.678644-6.835849 10.019566-10.252166-.0128 54.551808-.022401 109.106831-.032001 163.65864 2.422489 6.675157-.787229 12.604701-2.608095 18.64673-28.41384 94.172093-56.261259 188.51452-83.705463 282.975859-2.256082 7.761436-4.745773 15.342897-10.451582 21.368857-36.650941 33.317933-74.565928 65.183209-112.762526 96.691747-11.366816 9.378001-17.392636 20.366137-20.442348 34.712743-10.992402 51.701128-21.895201 103.434394-34.70847 154.72736-1.766464 7.07689-1.945671 15.00545-8.2243 20.32436-36.778946-16.01459-73.813901-31.47961-110.13843-48.47443-8.093096-3.78591-14.022913-12.65612-20.368745-19.710509-15.85018-17.618299-31.370748-35.541914-47.022521-53.340189 7.64828-8.490979 15.715775-16.638077 22.871237-25.527573 42.228745-52.443526 84.243082-105.0606 126.331022-157.619825" fill="#fdfdfd"/><path d="m787.360006 755.311799c4.176153-10.2136 9.238738-20.163665 12.384453-30.689008 28.090628-93.895702 55.832443-187.900675 83.747064-281.854226.886433-2.979235 2.508892-5.739928 3.785739-8.603464 1.801666.199258 3.606532.398517 5.408198.597775 14.365325 11.232389 25.524134 25.505076 37.633377 38.977515 61.931866 68.885559 122.407683 139.072725 185.603593 206.849507 43.9312 47.118185 86.42556 95.589399 131.78402 141.377052 4.86738 4.913969 10.01316 9.776517 10.05797 17.541167-7.49148 19.170587-20.68876 34.333508-34.31486 49.20397-6.74905 2.304327-10.9284-2.117924-15.43096-5.887764-41.39992-34.687032-76.454-75.425734-111.33208-116.440827-10.52198-12.376518-18.47427-27.667993-34.08764-35.140183-5.63861-1.651917-7.32507 3.390606-9.99077 6.276639-39.87346 43.129803-78.114857 87.718692-116.621866 132.069756-11.20041 12.900375-21.834399 26.501368-34.151649 38.183695-20.461549 19.408412-33.527627 42.490248-41.374314 69.284076-8.73312 29.814841-21.58479 58.193091-31.281145 87.689771-3.763337 11.4445-10.790794 20.69073-19.258304 29.14636-38.190197 38.1387-76.229989 76.42845-114.285781 114.70213-12.048441 12.1162-24.100082 24.17455-34.897277 37.53772-8.349106 10.33251-17.674247 20.13152-30.465115 25.4183-7.043458.43708-11.814832-3.60915-16.262995-8.31101 16.695011-37.03313 26.989788-76.34167 40.206271-114.60893 3.54573-10.27145 9.136334-17.50581 19.568716-21.55526 19.386309-7.53004 37.086157-18.79135 56.398864-26.58171 9.510747-3.83733 14.445328-11.72411 18.755886-20.78073 15.837379-33.28901 27.559408-68.46454 45.870478-100.61585 3.964945-6.961188 7.270666-14.298397 12.118843-20.697163.838431-1.105563 2.828904-2.056861 2.7137-3.004945-.192007-1.561929-.953635-1.600495-.755228-.302102.140805.928802-.403215 1.706552-1.385651 2.330038-18.86789 13.91595-39.62705 24.769105-59.288569 37.370593-4.358559 2.796045-9.398744 5.370339-14.944547 2.150062-5.020983-7.761436-1.36645-15.632143.233609-23.162183 12.742866-59.896433 29.23627-118.883348 43.297584-178.468039 3.161716-13.388879 3.945744-27.507301 10.560386-40.002732" fill="#1782b1"/><path d="m1255.04144 840.28878c-2.31369-4.052679-3.94895-8.748107-7.04666-12.061581-38.97743-41.66429-78.77728-82.566898-117.14669-124.783969-54.07558-59.497917-107.08551-119.976056-160.649074-179.943194-22.004005-24.634124-44.340823-48.966146-66.344828-73.597056-4.156952-4.653648-7.462673-10.078619-11.165208-15.143639 11.597224 7.63931 23.997678 14.295184 34.660468 23.078623 41.799929 34.439565 82.649422 70.052184 124.622162 104.273208 43.18238 35.207675 87.00158 69.650454 131.2432 103.5051 6.58584 5.036095 17.01502 5.013598 25.66814 7.317925 5.81781 1.54586 13.27408 1.285538 17.19743 4.901114 25.86974 23.821021 51.10907 48.34266 76.19799 73.002495 3.56173 3.499877 5.19059 8.979483 7.71228 13.543143 1.46245 6.614094-2.96971 10.984923-6.26903 15.54537-11.75083 16.229918-22.69523 33.025473-34.56767 49.16219-3.66733 4.984674-6.46743 11.213106-14.11251 11.200271" fill="#155981"/><path d="m1890.88102 893.873201c.20161 28.886041.40321 57.772082.60802 86.658123-.80003 2.098641-1.59686 4.194068-2.39369 6.292709-8.81312 22.924357-17.62304 45.845507-26.43296 68.766647-20.07114-19.78122-40.29268-39.40496-60.143-59.40793-9.10434-9.175528-18.01026-13.536716-31.72916-8.847716-16.96382 5.794563-34.83968 9.075899-52.50752 12.46972-3.86895.742396-10.41959-1.291966-12.51566-4.306553-21.7896-31.318921-42.91677-63.100637-64.22635-94.757012 25.19772.19283 50.39864.382447 75.59956.600989.49922.003213 1.00484.533498 1.49446.507787 50.97786-2.477875 101.77332 16.856618 152.79279 1.452658 6.80985-2.056861 12.98607-6.23486 19.45351-9.429422m-635.83958-53.584441c18.31747-25.302604 36.63494-50.608421 54.94921-75.911025 17.98466-24.778746 35.96931-49.560707 55.86444-76.97802-1.90087 40.764412-3.66413 78.594585-5.4274 116.421543-.70082 2.162918-1.40165 4.322622-2.10247 6.48554 3.09451 5.887764.79042 11.499138-.97604 17.081587-14.67574 46.417567-30.93873 92.298421-46.76651 138.323899-1.55526 4.525094-2.6433 9.506554-8.66592 10.239311-5.84341-.443511-9.61635-4.499384-12.82927-8.548829-18.50307-23.303591-40.68629-43.05267-61.09983-64.505087-3.89135-4.091225-8.88353-8.041041-6.52504-15.021513 11.19081-15.860326 22.38482-31.723866 33.57883-47.587406" fill="#fdfdfd"/><path d="m1101.16605 440.250517c9.38274-12.916444 22.59282-2.95031 33.67803-5.682078-11.22601 1.892955-22.45202 3.789123-33.67803 5.682078m-29.73037 1.644846c6.68504-.424228 13.37009-.851669 20.05833-1.275897-6.68824.424228-13.37329.851669-20.05833 1.275897" fill="#b6d6e3"/><path d="m544.363276 620.683501c.358413-1.455871.716826-2.911743 1.072039-4.364401.441616.257107.880033.517429 1.321649.77775-.790429 1.205192-1.577658 2.40717-2.368087 3.609148 0 0-.025601-.022497-.025601-.022497" fill="#fdfdfd"/><path d="m905.941945 1404.22475c-115.197815.08678-230.39883.17355-345.596644.26032-1.398451-8.24994 5.488201-10.93671 10.240374-14.63906 87.001584-67.79607 172.614316-137.36939 259.977512-204.69302 17.312633-13.34067 34.343657-27.00272 51.093069-41.04401 21.30318-15.12757 40.574285-32.94835 62.101472-47.71596 13.050078-8.95699 17.347835-7.13153 23.680867 7.27936 5.945817 32.0581 13.597297 63.74983 21.479186 95.3355 6.131424 24.57306 4.694571 46.82572-8.342706 69.25836-23.053643 39.66528-41.902333 81.66703-64.837572 121.44157-2.918507 5.06181-5.216191 10.57356-9.795558 14.51694" fill="#155981"/><path d="m905.941945 1404.22475c8.867524-17.95896 17.523841-36.0272 26.647375-53.8544 17.523841-34.23388 37.130958-67.55181 52.046704-102.8784 5.571404-13.19284 2.47049-31.29643-.233609-46.52362-5.113787-28.77677-12.890071-57.07468-19.322307-85.62327-1.033637-4.59901-.848031-9.47441-1.225644-14.22126 6.233828-1.93153 9.987565 2.32039 13.965311 5.77528 27.405805 23.79209 53.291545 49.26503 79.817315 74.00842 60.48862 56.4287 121.18844 112.59707 182.74909 167.85271 15.86298 14.24055 32.7212 27.52337 46.99372 43.48654 3.72174 4.16193 11.27721 8.96663 1.91047 15.33326-7.16826 2.7864-14.65654 2.3461-22.05521 2.35253-79.56451.06107-159.12582.09642-238.69033-.05142-8.3139-.01607-17.13343 1.54907-24.42009-4.54759-32.7276-.36959-65.455198-.73918-98.182795-1.10878" fill="#183c67"/><path d="m1004.12602 1405.33514c89.88169-.22176 179.76017-.37602 269.64186-.80025 6.59544-.03214 13.18128-2.00544 19.77353-3.07565 2.42248-2.15328 5.33459-2.5775 8.4131-2.42324 33.71964 1.69048 67.47767-.0225 101.21971.94166 91.87536-1.07664 183.74432-.39209 275.61008-.32782 6.27543.00322 12.93807-.08998 17.44384 5.79135-1.41125 3.96267-1.98727 10.76317-4.35856 11.467-42.06234 12.48579-84.39669 24.04599-126.51663 36.33895-5.88502 1.71941-10.954 6.25736-16.4006 9.49049-2.07048-.01607-4.13455-.03214-6.20183-.05143-5.33779-2.78961-10.70119-2.70927-16.08059-.13498-20.53515.1157-41.0703.08356-61.59905.44673-5.06898.08999-10.11877 1.47837-15.17495 2.26576-161.74992-.59135-323.49984-1.24055-485.249757-1.74833-87.766411-.27318-175.536023-.30853-263.302434-.44994-3.324921 1.46551-6.646643 1.47194-9.968364-.00643h-50.977865c-.041602-.8131-.083203-1.6262-.124805-2.43931 59.84859-9.02126 119.70358-17.98789 179.542569-27.08307 61.445448-9.33622 122.874895-18.79457 184.310746-28.20149m-120.517372-257.9233c-63.880737 50.41559-127.755074 100.83761-191.642212 151.24035-42.590358 33.60396-85.209517 67.16615-127.758274 100.82154-1.603259 1.26625-2.588895 3.32311-3.862541 5.01359-11.76043.0225-23.520861.045-35.278091.0675-8.528312-7.10903-17.056624-14.21484-25.584936-21.32387 1.577658-12.86181 12.02924-19.90656 19.459912-28.59358 25.588136-29.92733 48.318568-62.61856 80.495745-86.35923 4.10575-3.03066 7.533076-8.08925 13.885308-5.38962 5.542603 2.26254 11.085206 4.52509 16.627808 6.78442 3.632133 6.63338-2.115277 9.83437-5.446599 13.23141-14.531732 14.83511-28.311436 30.53474-45.572867 42.47096 67.842482-45.95156 135.29775-92.46554 204.711489-136.01957 30.663522-19.23808 61.538252-38.16763 91.344142-58.76195 3.350523-2.31397 7.184263-5.60816 10.841997-.0707 2.531293 6.07417 1.241645 11.62769-2.220881 16.88875" fill="#3796bf"/><path d="m691.376015 1463.05805c3.321721 0 6.643443.00321 9.965164.00642-3.321721-.00321-6.643443-.00321-9.965164-.00642" fill="#92c5da"/><path d="m1696.22878 1405.44152c-86.87998-.23462-173.76316-.45316-260.64314-.71991-11.19081-.03535-22.37842-.30531-33.56923-.46922-24.00407-43.39976-43.8032-88.9046-65.91281-133.25245-15.46616-31.03289-29.78029-62.64427-45.38086-93.62895-11.69003-23.22003-29.72589-41.59037-46.13289-61.10163-45.59206-54.21435-92.51538-107.28136-139.05148-160.682617-3.90095-4.4801-7.74109-8.751301-13.10128-11.441289-9.54595-8.622747-12.40046-20.915705-17.32544-32.042037-7.96509-18.003961-17.55584-35.323373-23.04404-54.426469-1.26085-39.421026 5.10099-78.41461 6.31383-117.687798.12801-4.139433 1.00484-8.60025 5.85302-10.425714 5.77621 4.242275 12.46125 7.652165 17.18782 12.855381 33.25562 36.592841 65.66001 73.979503 99.32844 110.177042 12.16364 13.077136 27.06339 23.592838 40.71189 35.278379 14.18612 14.957235 28.63465 29.670219 42.48475 44.93277 12.34285 13.604207 24.02008 27.81583 35.99172 41.760705 12.82927 6.704081 19.91433 19.119165 28.37224 29.875907 18.81669 23.92386 37.84778 47.70632 55.78444 72.31473 8.51231 11.67911 18.80709 20.23116 33.18841 23.22325 2.07368.43386 4.00335 1.65513 6.08023 1.94759 38.79501 5.47639 65.54159 30.39012 92.27537 56.20051 57.93172 55.93055 116.55467 111.14441 176.45766 164.96024 8.72672 7.84179 16.13179 17.1298 25.89534 23.80496 1.19685.7906 2.32649 1.69369 3.41133 2.62892.52482.45315 1.03364.9513 1.55846 1.40124 1.01123.90309 1.94887 1.90581 2.8545 2.91817 2.17288 2.43288 4.36496 4.87219 6.68505 7.18616 1.42085 1.33696 2.8033 2.7157 4.23375 4.04302 1.57766 1.28232 3.17772 2.52286 4.85138 3.68628 11.53962 9.74116 24.5577 17.98146 31.97877 31.8717-.21761 1.32089-.43522 2.63857-.65283 3.95624-25.55933.28603-51.12187.56885-76.6844.85489" fill="#183c67"/><path d="m1718.31407 1350.51529c-13.73171-11.65983-27.94343-22.79901-41.10871-35.07269-65.47119-61.03413-130.43677-122.61141-196.21518-183.30809-8.95392-8.25958-20.87436-16.19135-32.44598-18.14537-40.11347-6.77479-67.28567-29.31991-89.33447-62.29718-17.98786-26.90631-39.39024-51.51151-59.27257-77.129068 2.03207-3.406676 4.72657-6.585169 5.98742-10.261808 17.58144-51.29297 34.96768-102.65343 52.40192-153.994608 14.59573 20.099388 29.37387 40.070223 43.7648 60.317448 115.13701 162.013156 230.19722 324.080936 345.28303 486.129446 3.96814 12.53399 2.7009 14.31446-8.80352 12.3958-1.32805-1.15699-2.6561-2.31076-3.98415-3.46453-1.10724-.71347-2.04487-1.61013-2.8385-2.66428-2.29129-2.20469-4.58577-4.40939-6.87705-6.61409-.94404-1.03164-1.98088-1.96044-3.09772-2.79926l-.24641-.24104c-.83523-1.21804-1.91687-2.15327-3.21291-2.85068" fill="#3796bf"/><path d="m1738.56953 1369.14788c10.31717 1.15377 8.67231-6.26057 8.80672-12.3958 8.72672 14.63264 17.45344 29.26528 26.18656 43.88827-11.66123-10.50284-23.32886-20.99926-34.99328-31.49247" fill="#1782b1"/><path d="m613.323239 1262.88884c-18.365472 16.86947-37.812583 32.71694-54.818006 50.86874-20.746359 22.14339-39.441443 46.22795-59.022959 69.47048-3.062512-2.49394-6.128224-4.9911-9.190736-7.48826 10.288376-17.0623 20.576753-34.12461 30.865129-51.18691 44.651234-73.07963 89.324868-146.1464 133.902499-219.27745 3.01451-4.94289 5.292994-10.33894 7.91389-15.52287 14.333324-32.79408 25.597736-67.63537 59.026159-87.50337 4.65617-2.767116 9.549149-4.242271 14.688537-5.34462 24.423294-14.002724 48.846588-28.005447 73.269881-42.008171 0 0-.134405-.202472-.134405-.202472-.0064 1.889741.617623 4.075155-.108804 5.621015-19.744722 41.879618-39.252636 83.884578-59.832589 125.349608-3.657734 7.36934-10.870798 14.31768-18.160664 18.23857-19.149501 10.29716-39.537447 18.25464-58.786151 28.38468-5.74101 3.02423-11.386017 9.41978-13.578097 15.53251-11.130007 31.05539-20.672756 62.68606-31.799563 93.74144-2.800103 7.81286-9.389144 14.25662-14.234121 21.32708" fill="#fdfdfd"/><path d="m736.687112 996.905865c-34.72127 15.056865-47.073722 48.702615-64.469558 78.173575-2.937708 4.97824-6.157025 9.78937-9.245138 14.67441-16.195793-8.71594-32.394786-17.42868-48.593778-26.14141 14.138117-64.000517 28.186631-128.020314 42.625559-191.953337.972836-4.303339 4.121751-8.828433 7.533076-11.756246 40.801493-35.027699 81.842994-69.77258 122.823693-104.591379-6.822649 33.221518-13.155681 66.552307-20.579953 99.63563-10.013166 44.595316-20.915965 88.984947-31.223542 133.512772-.598422 2.587146.710426 5.621016 1.129641 8.445985" fill="#3796bf"/><path d="m1526.66833 1462.55251c5.3602.04499 10.7204.08999 16.08059.13498-5.36019-.04499-10.72039-.08999-16.08059-.13498" fill="#1782b1"/><path d="m1064.23318 729.565043c-3.12012 43.788641-6.24343 87.574068-9.36355 131.362709-.71042 14.256618-10.32997 24.367375-17.17822 35.500135-42.980777 69.878637-88.060827 138.413883-132.347247 207.460133-5.881815 9.1691-10.66919 19.87442-21.779997 24.62127-36.91015 24.25168-73.913104 48.35552-110.70805 72.78396-62.559089 41.54216-124.967772 83.31251-187.50446 124.89002-4.998583 3.32312-10.493184 5.89419-15.757377 8.81558-.915233-1.20198-1.830467-2.40396-2.7457-3.60594 21.034369-20.57182 42.068739-41.14686 63.103108-61.71868 61.176639-61.80867 122.458881-123.51771 183.353909-185.6092 5.363396-5.46675 9.206736-13.04821 12.013239-20.32436 8.451509-21.91521 17.632645-43.74043 23.626465-66.372332 11.565223-43.682585 35.610902-78.642793 66.098418-111.244039 47.774548-51.08407 93.081802-104.49175 139.499502-156.85493 3.05611-3.445242 6.91225-13.604207 9.68996.295674m-254.276827 225.332009c.524819-.6267 1.052839-1.256614 1.577658-1.883314.140805.639556.28481 1.279111.425615 1.92188-.710426-.077132-1.420852-.154265-2.134478-.234611-.0032-.006428.131205.196045.131205.196045" fill="#fdfdfd"/><path d="m883.565126 1128.50865c55.74284-87.57728 111.479279-175.160993 167.254124-262.718992 1.12644-1.767615 2.69449-3.255626 4.05454-4.868976 10.30438 22.079117 20.53195 44.193586 30.98354 66.19557 2.48009 5.222499 5.72181 10.078619 8.61151 15.101859 17.58145 25.810391 28.03623 55.226716 40.8239 83.354289 29.21386 64.25441 59.11256 128.18422 88.53123 192.34221 24.96092 54.43932 49.89623 108.90115 72.85067 164.23392 2.46729 5.94561 7.84349 12.17726 2.41609 19.38591-1.85287-.02249-3.70574-.0482-5.5554-.07392-34.90048-31.27714-70.16257-62.15898-104.63103-93.91498-72.15944-66.4816-143.89007-133.43564-215.8639-200.12293-2.691299-2.49394-6.109024-4.19728-9.187536-6.28628-4.220955-12.50507-11.341215-6.48233-17.123827-2.14363-21.213576 15.91174-42.10714 32.24772-63.122309 48.423-.012801-6.30556-.025601-12.6047-.041602-18.90705" fill="#1782b1"/><path d="m1299.09137 1401.53541c-14.10292-33.84822-27.2778-68.11745-42.47516-101.46431-52.58112-115.38347-105.88227-230.43913-158.79941-345.671552-1.73126-3.776268-2.25608-8.111745-3.34412-12.183687 10.11877 9.635108 20.98957 18.595309 30.21871 29.024236 27.06019 30.586163 52.38911 62.772823 80.35174 92.475183 55.82924 59.30509 101.1557 125.02179 132.97766 200.48609 17.93986 42.54489 39.82866 83.40571 59.71099 125.13428 2.19528 4.60544 2.8929 9.93078 4.28495 14.91867-30.90033.14784-61.80066.3953-92.70099.3021-3.41132-.00964-6.81625-1.96687-10.22437-3.02101" fill="#155981"/><path d="m1718.31407 1350.51529c1.07204.9513 2.14727 1.9026 3.21611 2.8539-1.07204-.9513-2.14407-1.9026-3.21611-2.8539m3.45772 3.09012c1.03364.93522 2.07048 1.87045 3.10092 2.80247-1.03364-.93523-2.06728-1.87046-3.10092-2.80247m9.97669 9.41495c.94723.89024 1.89447 1.78048 2.8417 2.6675-.95043-.89345-1.89447-1.78047-2.8417-2.6675" fill="#1782b1"/></g></svg>