<?xml version="1.0" encoding="UTF-8"?><svg version="1.1" width="131px" height="142px" viewBox="0 0 131.0 142.0" xmlns="http://www.w3.org/2000/svg" xmlns:xlink="http://www.w3.org/1999/xlink"><defs><clipPath id="i0"><path d="M10,0 L10,10 L0,10 L0,0 L10,0 Z"></path></clipPath></defs><g transform="translate(44.0 0.0)"><g clip-path="url(#i0)"><polygon points="0,0 10,0 10,10 0,10 0,0" stroke="none" fill="#000000"></polygon></g></g><g transform="translate(55.0 0.0)"><g clip-path="url(#i0)"><polygon points="0,0 10,0 10,10 0,10 0,0" stroke="none" fill="#000000"></polygon></g></g><g transform="translate(44.0 0.0)"><g clip-path="url(#i0)"><polygon points="0,0 10,0 10,10 0,10 0,0" stroke="none" fill="#000000"></polygon></g></g><g clip-path="url(#i0)"><polygon points="0,0 10,0 10,10 0,10 0,0" stroke="none" fill="#FFFFFF"></polygon></g><g transform="translate(11.0 0.0)"><g clip-path="url(#i0)"><polygon points="0,0 10,0 10,10 0,10 0,0" stroke="none" fill="#FFFFFF"></polygon></g></g><g transform="translate(22.0 0.0)"><g clip-path="url(#i0)"><polygon points="0,0 10,0 10,10 0,10 0,0" stroke="none" fill="#FFFFFF"></polygon></g></g><g transform="translate(33.0 0.0)"><g clip-path="url(#i0)"><polygon points="0,0 10,0 10,10 0,10 0,0" stroke="none" fill="#FFFFFF"></polygon></g></g><g transform="translate(33.0 0.0)"><g clip-path="url(#i0)"><polygon points="0,0 10,0 10,10 0,10 0,0" stroke="none" fill="#FFFFFF"></polygon></g></g><g transform="translate(44.0 11.0)"><g clip-path="url(#i0)"><polygon points="0,0 10,0 10,10 0,10 0,0" stroke="none" fill="#000000"></polygon></g></g><g transform="translate(55.0 11.0)"><g clip-path="url(#i0)"><polygon points="0,0 10,0 10,10 0,10 0,0" stroke="none" fill="#000000"></polygon></g></g><g transform="translate(44.0 11.0)"><g clip-path="url(#i0)"><polygon points="0,0 10,0 10,10 0,10 0,0" stroke="none" fill="#000000"></polygon></g></g><g transform="translate(0.0 11.0)"><g clip-path="url(#i0)"><polygon points="0,0 10,0 10,10 0,10 0,0" stroke="none" fill="#FFFFFF"></polygon></g></g><g transform="translate(11.0 11.0)"><g clip-path="url(#i0)"><polygon points="0,0 10,0 10,10 0,10 0,0" stroke="none" fill="#FFFFFF"></polygon></g></g><g transform="translate(22.0 11.0)"><g clip-path="url(#i0)"><polygon points="0,0 10,0 10,10 0,10 0,0" stroke="none" fill="#FFFFFF"></polygon></g></g><g transform="translate(33.0 11.0)"><g clip-path="url(#i0)"><polygon points="0,0 10,0 10,10 0,10 0,0" stroke="none" fill="#FFFFFF"></polygon></g></g><g transform="translate(33.0 11.0)"><g clip-path="url(#i0)"><polygon points="0,0 10,0 10,10 0,10 0,0" stroke="none" fill="#000000"></polygon></g></g><g transform="translate(44.0 22.0)"><g clip-path="url(#i0)"><polygon points="0,0 10,0 10,10 0,10 0,0" stroke="none" fill="#000000"></polygon></g></g><g transform="translate(55.0 22.0)"><g clip-path="url(#i0)"><polygon points="0,0 10,0 10,10 0,10 0,0" stroke="none" fill="#000000"></polygon></g></g><g transform="translate(44.0 22.0)"><g clip-path="url(#i0)"><polygon points="0,0 10,0 10,10 0,10 0,0" stroke="none" fill="#000000"></polygon></g></g><g transform="translate(0.0 22.0)"><g clip-path="url(#i0)"><polygon points="0,0 10,0 10,10 0,10 0,0" stroke="none" fill="#FFFFFF"></polygon></g></g><g transform="translate(11.0 22.0)"><g clip-path="url(#i0)"><polygon points="0,0 10,0 10,10 0,10 0,0" stroke="none" fill="#FFFFFF"></polygon></g></g><g transform="translate(22.0 22.0)"><g clip-path="url(#i0)"><polygon points="0,0 10,0 10,10 0,10 0,0" stroke="none" fill="#000000"></polygon></g></g><g transform="translate(33.0 22.0)"><g clip-path="url(#i0)"><polygon points="0,0 10,0 10,10 0,10 0,0" stroke="none" fill="#FFFFFF"></polygon></g></g><g transform="translate(33.0 22.0)"><g clip-path="url(#i0)"><polygon points="0,0 10,0 10,10 0,10 0,0" stroke="none" fill="#000000"></polygon></g></g><g transform="translate(44.0 55.0)"><g clip-path="url(#i0)"><polygon points="0,0 10,0 10,10 0,10 0,0" stroke="none" fill="#000000"></polygon></g></g><g transform="translate(55.0 55.0)"><g clip-path="url(#i0)"><polygon points="0,0 10,0 10,10 0,10 0,0" stroke="none" fill="#FFFFFF"></polygon></g></g><g transform="translate(44.0 55.0)"><g clip-path="url(#i0)"><polygon points="0,0 10,0 10,10 0,10 0,0" stroke="none" fill="#000000"></polygon></g></g><g transform="translate(0.0 55.0)"><g clip-path="url(#i0)"><polygon points="0,0 10,0 10,10 0,10 0,0" stroke="none" fill="#FFFFFF"></polygon></g></g><g transform="translate(11.0 55.0)"><g clip-path="url(#i0)"><polygon points="0,0 10,0 10,10 0,10 0,0" stroke="none" fill="#000000"></polygon></g></g><g transform="translate(22.0 55.0)"><g clip-path="url(#i0)"><polygon points="0,0 10,0 10,10 0,10 0,0" stroke="none" fill="#000000"></polygon></g></g><g transform="translate(33.0 55.0)"><g clip-path="url(#i0)"><polygon points="0,0 10,0 10,10 0,10 0,0" stroke="none" fill="#FFFFFF"></polygon></g></g><g transform="translate(33.0 55.0)"><g clip-path="url(#i0)"><polygon points="0,0 10,0 10,10 0,10 0,0" stroke="none" fill="#000000"></polygon></g></g><g transform="translate(44.0 66.0)"><g clip-path="url(#i0)"><polygon points="0,0 10,0 10,10 0,10 0,0" stroke="none" fill="#000000"></polygon></g></g><g transform="translate(55.0 66.0)"><g clip-path="url(#i0)"><polygon points="0,0 10,0 10,10 0,10 0,0" stroke="none" fill="#FFFFFF"></polygon></g></g><g transform="translate(44.0 66.0)"><g clip-path="url(#i0)"><polygon points="0,0 10,0 10,10 0,10 0,0" stroke="none" fill="#FFFFFF"></polygon></g></g><g transform="translate(0.0 66.0)"><g clip-path="url(#i0)"><polygon points="0,0 10,0 10,10 0,10 0,0" stroke="none" fill="#000000"></polygon></g></g><g transform="translate(11.0 66.0)"><g clip-path="url(#i0)"><polygon points="0,0 10,0 10,10 0,10 0,0" stroke="none" fill="#000000"></polygon></g></g><g transform="translate(22.0 66.0)"><g clip-path="url(#i0)"><polygon points="0,0 10,0 10,10 0,10 0,0" stroke="none" fill="#000000"></polygon></g></g><g transform="translate(33.0 66.0)"><g clip-path="url(#i0)"><polygon points="0,0 10,0 10,10 0,10 0,0" stroke="none" fill="#FFFFFF"></polygon></g></g><g transform="translate(33.0 66.0)"><g clip-path="url(#i0)"><polygon points="0,0 10,0 10,10 0,10 0,0" stroke="none" fill="#000000"></polygon></g></g><g transform="translate(44.0 77.0)"><g clip-path="url(#i0)"><polygon points="0,0 10,0 10,10 0,10 0,0" stroke="none" fill="#000000"></polygon></g></g><g transform="translate(55.0 77.0)"><g clip-path="url(#i0)"><polygon points="0,0 10,0 10,10 0,10 0,0" stroke="none" fill="#FFFFFF"></polygon></g></g><g transform="translate(44.0 77.0)"><g clip-path="url(#i0)"><polygon points="0,0 10,0 10,10 0,10 0,0" stroke="none" fill="#FFFFFF"></polygon></g></g><g transform="translate(0.0 77.0)"><g clip-path="url(#i0)"><polygon points="0,0 10,0 10,10 0,10 0,0" stroke="none" fill="#000000"></polygon></g></g><g transform="translate(11.0 77.0)"><g clip-path="url(#i0)"><polygon points="0,0 10,0 10,10 0,10 0,0" stroke="none" fill="#000000"></polygon></g></g><g transform="translate(22.0 77.0)"><g clip-path="url(#i0)"><polygon points="0,0 10,0 10,10 0,10 0,0" stroke="none" fill="#000000"></polygon></g></g><g transform="translate(33.0 77.0)"><g clip-path="url(#i0)"><polygon points="0,0 10,0 10,10 0,10 0,0" stroke="none" fill="#FFFFFF"></polygon></g></g><g transform="translate(33.0 77.0)"><g clip-path="url(#i0)"><polygon points="0,0 10,0 10,10 0,10 0,0" stroke="none" fill="#FFFFFF"></polygon></g></g><g transform="translate(44.0 88.0)"><g clip-path="url(#i0)"><polygon points="0,0 10,0 10,10 0,10 0,0" stroke="none" fill="#000000"></polygon></g></g><g transform="translate(55.0 88.0)"><g clip-path="url(#i0)"><polygon points="0,0 10,0 10,10 0,10 0,0" stroke="none" fill="#FFFFFF"></polygon></g></g><g transform="translate(44.0 88.0)"><g clip-path="url(#i0)"><polygon points="0,0 10,0 10,10 0,10 0,0" stroke="none" fill="#FFFFFF"></polygon></g></g><g transform="translate(0.0 88.0)"><g clip-path="url(#i0)"><polygon points="0,0 10,0 10,10 0,10 0,0" stroke="none" fill="#000000"></polygon></g></g><g transform="translate(11.0 88.0)"><g clip-path="url(#i0)"><polygon points="0,0 10,0 10,10 0,10 0,0" stroke="none" fill="#FFFFFF"></polygon></g></g><g transform="translate(22.0 88.0)"><g clip-path="url(#i0)"><polygon points="0,0 10,0 10,10 0,10 0,0" stroke="none" fill="#000000"></polygon></g></g><g transform="translate(33.0 88.0)"><g clip-path="url(#i0)"><polygon points="0,0 10,0 10,10 0,10 0,0" stroke="none" fill="#FFFFFF"></polygon></g></g><g transform="translate(33.0 88.0)"><g clip-path="url(#i0)"><polygon points="0,0 10,0 10,10 0,10 0,0" stroke="none" fill="#FFFFFF"></polygon></g></g><g transform="translate(44.0 99.0)"><g clip-path="url(#i0)"><polygon points="0,0 10,0 10,10 0,10 0,0" stroke="none" fill="#000000"></polygon></g></g><g transform="translate(55.0 99.0)"><g clip-path="url(#i0)"><polygon points="0,0 10,0 10,10 0,10 0,0" stroke="none" fill="#FFFFFF"></polygon></g></g><g transform="translate(44.0 99.0)"><g clip-path="url(#i0)"><polygon points="0,0 10,0 10,10 0,10 0,0" stroke="none" fill="#FFFFFF"></polygon></g></g><g transform="translate(0.0 99.0)"><g clip-path="url(#i0)"><polygon points="0,0 10,0 10,10 0,10 0,0" stroke="none" fill="#FFFFFF"></polygon></g></g><g transform="translate(11.0 99.0)"><g clip-path="url(#i0)"><polygon points="0,0 10,0 10,10 0,10 0,0" stroke="none" fill="#FFFFFF"></polygon></g></g><g transform="translate(22.0 99.0)"><g clip-path="url(#i0)"><polygon points="0,0 10,0 10,10 0,10 0,0" stroke="none" fill="#000000"></polygon></g></g><g transform="translate(33.0 99.0)"><g clip-path="url(#i0)"><polygon points="0,0 10,0 10,10 0,10 0,0" stroke="none" fill="#FFFFFF"></polygon></g></g><g transform="translate(33.0 99.0)"><g clip-path="url(#i0)"><polygon points="0,0 10,0 10,10 0,10 0,0" stroke="none" fill="#000000"></polygon></g></g><g transform="translate(44.0 110.0)"><g clip-path="url(#i0)"><polygon points="0,0 10,0 10,10 0,10 0,0" stroke="none" fill="#000000"></polygon></g></g><g transform="translate(55.0 110.0)"><g clip-path="url(#i0)"><polygon points="0,0 10,0 10,10 0,10 0,0" stroke="none" fill="#000000"></polygon></g></g><g transform="translate(44.0 110.0)"><g clip-path="url(#i0)"><polygon points="0,0 10,0 10,10 0,10 0,0" stroke="none" fill="#000000"></polygon></g></g><g transform="translate(0.0 110.0)"><g clip-path="url(#i0)"><polygon points="0,0 10,0 10,10 0,10 0,0" stroke="none" fill="#FFFFFF"></polygon></g></g><g transform="translate(11.0 110.0)"><g clip-path="url(#i0)"><polygon points="0,0 10,0 10,10 0,10 0,0" stroke="none" fill="#000000"></polygon></g></g><g transform="translate(22.0 110.0)"><g clip-path="url(#i0)"><polygon points="0,0 10,0 10,10 0,10 0,0" stroke="none" fill="#F1B800"></polygon></g></g><g transform="translate(33.0 110.0)"><g clip-path="url(#i0)"><polygon points="0,0 10,0 10,10 0,10 0,0" stroke="none" fill="#FFFFFF"></polygon></g></g><g transform="translate(33.0 110.0)"><g clip-path="url(#i0)"><polygon points="0,0 10,0 10,10 0,10 0,0" stroke="none" fill="#F1B800"></polygon></g></g><g transform="translate(44.0 121.0)"><g clip-path="url(#i0)"><polygon points="0,0 10,0 10,10 0,10 0,0" stroke="none" fill="#000000"></polygon></g></g><g transform="translate(55.0 121.0)"><g clip-path="url(#i0)"><polygon points="0,0 10,0 10,10 0,10 0,0" stroke="none" fill="#000000"></polygon></g></g><g transform="translate(44.0 121.0)"><g clip-path="url(#i0)"><polygon points="0,0 10,0 10,10 0,10 0,0" stroke="none" fill="#000000"></polygon></g></g><g transform="translate(0.0 121.0)"><g clip-path="url(#i0)"><polygon points="0,0 10,0 10,10 0,10 0,0" stroke="none" fill="#FFFFFF"></polygon></g></g><g transform="translate(11.0 121.0)"><g clip-path="url(#i0)"><polygon points="0,0 10,0 10,10 0,10 0,0" stroke="none" fill="#000000"></polygon></g></g><g transform="translate(22.0 121.0)"><g clip-path="url(#i0)"><polygon points="0,0 10,0 10,10 0,10 0,0" stroke="none" fill="#F1B800"></polygon></g></g><g transform="translate(33.0 121.0)"><g clip-path="url(#i0)"><polygon points="0,0 10,0 10,10 0,10 0,0" stroke="none" fill="#FFFFFF"></polygon></g></g><g transform="translate(33.0 121.0)"><g clip-path="url(#i0)"><polygon points="0,0 10,0 10,10 0,10 0,0" stroke="none" fill="#F1B800"></polygon></g></g><g transform="translate(44.0 132.0)"><g clip-path="url(#i0)"><polygon points="0,0 10,0 10,10 0,10 0,0" stroke="none" fill="#000000"></polygon></g></g><g transform="translate(55.0 132.0)"><g clip-path="url(#i0)"><polygon points="0,0 10,0 10,10 0,10 0,0" stroke="none" fill="#FFFFFF"></polygon></g></g><g transform="translate(44.0 132.0)"><g clip-path="url(#i0)"><polygon points="0,0 10,0 10,10 0,10 0,0" stroke="none" fill="#FFFFFF"></polygon></g></g><g transform="translate(0.0 132.0)"><g clip-path="url(#i0)"><polygon points="0,0 10,0 10,10 0,10 0,0" stroke="none" fill="#FFFFFF"></polygon></g></g><g transform="translate(11.0 132.0)"><g clip-path="url(#i0)"><polygon points="0,0 10,0 10,10 0,10 0,0" stroke="none" fill="#FFFFFF"></polygon></g></g><g transform="translate(22.0 132.0)"><g clip-path="url(#i0)"><polygon points="0,0 10,0 10,10 0,10 0,0" stroke="none" fill="#000000"></polygon></g></g><g transform="translate(33.0 132.0)"><g clip-path="url(#i0)"><polygon points="0,0 10,0 10,10 0,10 0,0" stroke="none" fill="#FFFFFF"></polygon></g></g><g transform="translate(33.0 132.0)"><g clip-path="url(#i0)"><polygon points="0,0 10,0 10,10 0,10 0,0" stroke="none" fill="#000000"></polygon></g></g><g transform="translate(44.0 44.0)"><g clip-path="url(#i0)"><polygon points="0,0 10,0 10,10 0,10 0,0" stroke="none" fill="#000000"></polygon></g></g><g transform="translate(55.0 44.0)"><g clip-path="url(#i0)"><polygon points="0,0 10,0 10,10 0,10 0,0" stroke="none" fill="#F1B900"></polygon></g></g><g transform="translate(44.0 44.0)"><g clip-path="url(#i0)"><polygon points="0,0 10,0 10,10 0,10 0,0" stroke="none" fill="#000000"></polygon></g></g><g transform="translate(0.0 44.0)"><g clip-path="url(#i0)"><polygon points="0,0 10,0 10,10 0,10 0,0" stroke="none" fill="#FFFFFF"></polygon></g></g><g transform="translate(11.0 44.0)"><g clip-path="url(#i0)"><polygon points="0,0 10,0 10,10 0,10 0,0" stroke="none" fill="#FFFFFF"></polygon></g></g><g transform="translate(22.0 44.0)"><g clip-path="url(#i0)"><polygon points="0,0 10,0 10,10 0,10 0,0" stroke="none" fill="#000000"></polygon></g></g><g transform="translate(33.0 44.0)"><g clip-path="url(#i0)"><polygon points="0,0 10,0 10,10 0,10 0,0" stroke="none" fill="#FFFFFF"></polygon></g></g><g transform="translate(33.0 44.0)"><g clip-path="url(#i0)"><polygon points="0,0 10,0 10,10 0,10 0,0" stroke="none" fill="#000000"></polygon></g></g><g transform="translate(44.0 33.0)"><g clip-path="url(#i0)"><polygon points="0,0 10,0 10,10 0,10 0,0" stroke="none" fill="#000000"></polygon></g></g><g transform="translate(55.0 33.0)"><g clip-path="url(#i0)"><polygon points="0,0 10,0 10,10 0,10 0,0" stroke="none" fill="#000000"></polygon></g></g><g transform="translate(44.0 33.0)"><g clip-path="url(#i0)"><polygon points="0,0 10,0 10,10 0,10 0,0" stroke="none" fill="#FFFFFF"></polygon></g></g><g transform="translate(0.0 33.0)"><g clip-path="url(#i0)"><polygon points="0,0 10,0 10,10 0,10 0,0" stroke="none" fill="#FFFFFF"></polygon></g></g><g transform="translate(11.0 33.0)"><g clip-path="url(#i0)"><polygon points="0,0 10,0 10,10 0,10 0,0" stroke="none" fill="#FFFFFF"></polygon></g></g><g transform="translate(22.0 33.0)"><g clip-path="url(#i0)"><polygon points="0,0 10,0 10,10 0,10 0,0" stroke="none" fill="#000000"></polygon></g></g><g transform="translate(33.0 33.0)"><g clip-path="url(#i0)"><polygon points="0,0 10,0 10,10 0,10 0,0" stroke="none" fill="#FFFFFF"></polygon></g></g><g transform="translate(33.0 33.0)"><g clip-path="url(#i0)"><polygon points="0,0 10,0 10,10 0,10 0,0" stroke="none" fill="#000000"></polygon></g></g><g transform="translate(131.0 0.0) scale(-1.0 1.0)"><g transform="translate(44.0 0.0)"><g clip-path="url(#i0)"><polygon points="0,0 10,0 10,10 0,10 0,0" stroke="none" fill="#000000"></polygon></g></g><g transform="translate(55.0 0.0)"><g clip-path="url(#i0)"><polygon points="0,0 10,0 10,10 0,10 0,0" stroke="none" fill="#000000"></polygon></g></g><g transform="translate(44.0 0.0)"><g clip-path="url(#i0)"><polygon points="0,0 10,0 10,10 0,10 0,0" stroke="none" fill="#000000"></polygon></g></g><g clip-path="url(#i0)"><polygon points="0,0 10,0 10,10 0,10 0,0" stroke="none" fill="#FFFFFF"></polygon></g><g transform="translate(11.0 0.0)"><g clip-path="url(#i0)"><polygon points="0,0 10,0 10,10 0,10 0,0" stroke="none" fill="#FFFFFF"></polygon></g></g><g transform="translate(22.0 0.0)"><g clip-path="url(#i0)"><polygon points="0,0 10,0 10,10 0,10 0,0" stroke="none" fill="#FFFFFF"></polygon></g></g><g transform="translate(33.0 0.0)"><g clip-path="url(#i0)"><polygon points="0,0 10,0 10,10 0,10 0,0" stroke="none" fill="#FFFFFF"></polygon></g></g><g transform="translate(33.0 0.0)"><g clip-path="url(#i0)"><polygon points="0,0 10,0 10,10 0,10 0,0" stroke="none" fill="#FFFFFF"></polygon></g></g><g transform="translate(44.0 11.0)"><g clip-path="url(#i0)"><polygon points="0,0 10,0 10,10 0,10 0,0" stroke="none" fill="#000000"></polygon></g></g><g transform="translate(55.0 11.0)"><g clip-path="url(#i0)"><polygon points="0,0 10,0 10,10 0,10 0,0" stroke="none" fill="#000000"></polygon></g></g><g transform="translate(44.0 11.0)"><g clip-path="url(#i0)"><polygon points="0,0 10,0 10,10 0,10 0,0" stroke="none" fill="#000000"></polygon></g></g><g transform="translate(0.0 11.0)"><g clip-path="url(#i0)"><polygon points="0,0 10,0 10,10 0,10 0,0" stroke="none" fill="#FFFFFF"></polygon></g></g><g transform="translate(11.0 11.0)"><g clip-path="url(#i0)"><polygon points="0,0 10,0 10,10 0,10 0,0" stroke="none" fill="#FFFFFF"></polygon></g></g><g transform="translate(22.0 11.0)"><g clip-path="url(#i0)"><polygon points="0,0 10,0 10,10 0,10 0,0" stroke="none" fill="#FFFFFF"></polygon></g></g><g transform="translate(33.0 11.0)"><g clip-path="url(#i0)"><polygon points="0,0 10,0 10,10 0,10 0,0" stroke="none" fill="#FFFFFF"></polygon></g></g><g transform="translate(33.0 11.0)"><g clip-path="url(#i0)"><polygon points="0,0 10,0 10,10 0,10 0,0" stroke="none" fill="#000000"></polygon></g></g><g transform="translate(44.0 22.0)"><g clip-path="url(#i0)"><polygon points="0,0 10,0 10,10 0,10 0,0" stroke="none" fill="#000000"></polygon></g></g><g transform="translate(55.0 22.0)"><g clip-path="url(#i0)"><polygon points="0,0 10,0 10,10 0,10 0,0" stroke="none" fill="#000000"></polygon></g></g><g transform="translate(44.0 22.0)"><g clip-path="url(#i0)"><polygon points="0,0 10,0 10,10 0,10 0,0" stroke="none" fill="#000000"></polygon></g></g><g transform="translate(0.0 22.0)"><g clip-path="url(#i0)"><polygon points="0,0 10,0 10,10 0,10 0,0" stroke="none" fill="#FFFFFF"></polygon></g></g><g transform="translate(11.0 22.0)"><g clip-path="url(#i0)"><polygon points="0,0 10,0 10,10 0,10 0,0" stroke="none" fill="#FFFFFF"></polygon></g></g><g transform="translate(22.0 22.0)"><g clip-path="url(#i0)"><polygon points="0,0 10,0 10,10 0,10 0,0" stroke="none" fill="#000000"></polygon></g></g><g transform="translate(33.0 22.0)"><g clip-path="url(#i0)"><polygon points="0,0 10,0 10,10 0,10 0,0" stroke="none" fill="#FFFFFF"></polygon></g></g><g transform="translate(33.0 22.0)"><g clip-path="url(#i0)"><polygon points="0,0 10,0 10,10 0,10 0,0" stroke="none" fill="#000000"></polygon></g></g><g transform="translate(44.0 55.0)"><g clip-path="url(#i0)"><polygon points="0,0 10,0 10,10 0,10 0,0" stroke="none" fill="#000000"></polygon></g></g><g transform="translate(55.0 55.0)"><g clip-path="url(#i0)"><polygon points="0,0 10,0 10,10 0,10 0,0" stroke="none" fill="#FFFFFF"></polygon></g></g><g transform="translate(44.0 55.0)"><g clip-path="url(#i0)"><polygon points="0,0 10,0 10,10 0,10 0,0" stroke="none" fill="#000000"></polygon></g></g><g transform="translate(0.0 55.0)"><g clip-path="url(#i0)"><polygon points="0,0 10,0 10,10 0,10 0,0" stroke="none" fill="#FFFFFF"></polygon></g></g><g transform="translate(11.0 55.0)"><g clip-path="url(#i0)"><polygon points="0,0 10,0 10,10 0,10 0,0" stroke="none" fill="#000000"></polygon></g></g><g transform="translate(22.0 55.0)"><g clip-path="url(#i0)"><polygon points="0,0 10,0 10,10 0,10 0,0" stroke="none" fill="#000000"></polygon></g></g><g transform="translate(33.0 55.0)"><g clip-path="url(#i0)"><polygon points="0,0 10,0 10,10 0,10 0,0" stroke="none" fill="#FFFFFF"></polygon></g></g><g transform="translate(33.0 55.0)"><g clip-path="url(#i0)"><polygon points="0,0 10,0 10,10 0,10 0,0" stroke="none" fill="#000000"></polygon></g></g><g transform="translate(44.0 66.0)"><g clip-path="url(#i0)"><polygon points="0,0 10,0 10,10 0,10 0,0" stroke="none" fill="#000000"></polygon></g></g><g transform="translate(55.0 66.0)"><g clip-path="url(#i0)"><polygon points="0,0 10,0 10,10 0,10 0,0" stroke="none" fill="#FFFFFF"></polygon></g></g><g transform="translate(44.0 66.0)"><g clip-path="url(#i0)"><polygon points="0,0 10,0 10,10 0,10 0,0" stroke="none" fill="#FFFFFF"></polygon></g></g><g transform="translate(0.0 66.0)"><g clip-path="url(#i0)"><polygon points="0,0 10,0 10,10 0,10 0,0" stroke="none" fill="#000000"></polygon></g></g><g transform="translate(11.0 66.0)"><g clip-path="url(#i0)"><polygon points="0,0 10,0 10,10 0,10 0,0" stroke="none" fill="#000000"></polygon></g></g><g transform="translate(22.0 66.0)"><g clip-path="url(#i0)"><polygon points="0,0 10,0 10,10 0,10 0,0" stroke="none" fill="#000000"></polygon></g></g><g transform="translate(33.0 66.0)"><g clip-path="url(#i0)"><polygon points="0,0 10,0 10,10 0,10 0,0" stroke="none" fill="#FFFFFF"></polygon></g></g><g transform="translate(33.0 66.0)"><g clip-path="url(#i0)"><polygon points="0,0 10,0 10,10 0,10 0,0" stroke="none" fill="#000000"></polygon></g></g><g transform="translate(44.0 77.0)"><g clip-path="url(#i0)"><polygon points="0,0 10,0 10,10 0,10 0,0" stroke="none" fill="#000000"></polygon></g></g><g transform="translate(55.0 77.0)"><g clip-path="url(#i0)"><polygon points="0,0 10,0 10,10 0,10 0,0" stroke="none" fill="#FFFFFF"></polygon></g></g><g transform="translate(44.0 77.0)"><g clip-path="url(#i0)"><polygon points="0,0 10,0 10,10 0,10 0,0" stroke="none" fill="#FFFFFF"></polygon></g></g><g transform="translate(0.0 77.0)"><g clip-path="url(#i0)"><polygon points="0,0 10,0 10,10 0,10 0,0" stroke="none" fill="#000000"></polygon></g></g><g transform="translate(11.0 77.0)"><g clip-path="url(#i0)"><polygon points="0,0 10,0 10,10 0,10 0,0" stroke="none" fill="#000000"></polygon></g></g><g transform="translate(22.0 77.0)"><g clip-path="url(#i0)"><polygon points="0,0 10,0 10,10 0,10 0,0" stroke="none" fill="#000000"></polygon></g></g><g transform="translate(33.0 77.0)"><g clip-path="url(#i0)"><polygon points="0,0 10,0 10,10 0,10 0,0" stroke="none" fill="#FFFFFF"></polygon></g></g><g transform="translate(33.0 77.0)"><g clip-path="url(#i0)"><polygon points="0,0 10,0 10,10 0,10 0,0" stroke="none" fill="#FFFFFF"></polygon></g></g><g transform="translate(44.0 88.0)"><g clip-path="url(#i0)"><polygon points="0,0 10,0 10,10 0,10 0,0" stroke="none" fill="#000000"></polygon></g></g><g transform="translate(55.0 88.0)"><g clip-path="url(#i0)"><polygon points="0,0 10,0 10,10 0,10 0,0" stroke="none" fill="#FFFFFF"></polygon></g></g><g transform="translate(44.0 88.0)"><g clip-path="url(#i0)"><polygon points="0,0 10,0 10,10 0,10 0,0" stroke="none" fill="#FFFFFF"></polygon></g></g><g transform="translate(0.0 88.0)"><g clip-path="url(#i0)"><polygon points="0,0 10,0 10,10 0,10 0,0" stroke="none" fill="#000000"></polygon></g></g><g transform="translate(11.0 88.0)"><g clip-path="url(#i0)"><polygon points="0,0 10,0 10,10 0,10 0,0" stroke="none" fill="#FFFFFF"></polygon></g></g><g transform="translate(22.0 88.0)"><g clip-path="url(#i0)"><polygon points="0,0 10,0 10,10 0,10 0,0" stroke="none" fill="#000000"></polygon></g></g><g transform="translate(33.0 88.0)"><g clip-path="url(#i0)"><polygon points="0,0 10,0 10,10 0,10 0,0" stroke="none" fill="#FFFFFF"></polygon></g></g><g transform="translate(33.0 88.0)"><g clip-path="url(#i0)"><polygon points="0,0 10,0 10,10 0,10 0,0" stroke="none" fill="#FFFFFF"></polygon></g></g><g transform="translate(44.0 99.0)"><g clip-path="url(#i0)"><polygon points="0,0 10,0 10,10 0,10 0,0" stroke="none" fill="#000000"></polygon></g></g><g transform="translate(55.0 99.0)"><g clip-path="url(#i0)"><polygon points="0,0 10,0 10,10 0,10 0,0" stroke="none" fill="#FFFFFF"></polygon></g></g><g transform="translate(44.0 99.0)"><g clip-path="url(#i0)"><polygon points="0,0 10,0 10,10 0,10 0,0" stroke="none" fill="#FFFFFF"></polygon></g></g><g transform="translate(0.0 99.0)"><g clip-path="url(#i0)"><polygon points="0,0 10,0 10,10 0,10 0,0" stroke="none" fill="#FFFFFF"></polygon></g></g><g transform="translate(11.0 99.0)"><g clip-path="url(#i0)"><polygon points="0,0 10,0 10,10 0,10 0,0" stroke="none" fill="#FFFFFF"></polygon></g></g><g transform="translate(22.0 99.0)"><g clip-path="url(#i0)"><polygon points="0,0 10,0 10,10 0,10 0,0" stroke="none" fill="#000000"></polygon></g></g><g transform="translate(33.0 99.0)"><g clip-path="url(#i0)"><polygon points="0,0 10,0 10,10 0,10 0,0" stroke="none" fill="#FFFFFF"></polygon></g></g><g transform="translate(33.0 99.0)"><g clip-path="url(#i0)"><polygon points="0,0 10,0 10,10 0,10 0,0" stroke="none" fill="#000000"></polygon></g></g><g transform="translate(44.0 110.0)"><g clip-path="url(#i0)"><polygon points="0,0 10,0 10,10 0,10 0,0" stroke="none" fill="#000000"></polygon></g></g><g transform="translate(55.0 110.0)"><g clip-path="url(#i0)"><polygon points="0,0 10,0 10,10 0,10 0,0" stroke="none" fill="#000000"></polygon></g></g><g transform="translate(44.0 110.0)"><g clip-path="url(#i0)"><polygon points="0,0 10,0 10,10 0,10 0,0" stroke="none" fill="#000000"></polygon></g></g><g transform="translate(0.0 110.0)"><g clip-path="url(#i0)"><polygon points="0,0 10,0 10,10 0,10 0,0" stroke="none" fill="#FFFFFF"></polygon></g></g><g transform="translate(11.0 110.0)"><g clip-path="url(#i0)"><polygon points="0,0 10,0 10,10 0,10 0,0" stroke="none" fill="#000000"></polygon></g></g><g transform="translate(22.0 110.0)"><g clip-path="url(#i0)"><polygon points="0,0 10,0 10,10 0,10 0,0" stroke="none" fill="#F1B800"></polygon></g></g><g transform="translate(33.0 110.0)"><g clip-path="url(#i0)"><polygon points="0,0 10,0 10,10 0,10 0,0" stroke="none" fill="#FFFFFF"></polygon></g></g><g transform="translate(33.0 110.0)"><g clip-path="url(#i0)"><polygon points="0,0 10,0 10,10 0,10 0,0" stroke="none" fill="#F1B800"></polygon></g></g><g transform="translate(44.0 121.0)"><g clip-path="url(#i0)"><polygon points="0,0 10,0 10,10 0,10 0,0" stroke="none" fill="#000000"></polygon></g></g><g transform="translate(55.0 121.0)"><g clip-path="url(#i0)"><polygon points="0,0 10,0 10,10 0,10 0,0" stroke="none" fill="#000000"></polygon></g></g><g transform="translate(44.0 121.0)"><g clip-path="url(#i0)"><polygon points="0,0 10,0 10,10 0,10 0,0" stroke="none" fill="#000000"></polygon></g></g><g transform="translate(0.0 121.0)"><g clip-path="url(#i0)"><polygon points="0,0 10,0 10,10 0,10 0,0" stroke="none" fill="#FFFFFF"></polygon></g></g><g transform="translate(11.0 121.0)"><g clip-path="url(#i0)"><polygon points="0,0 10,0 10,10 0,10 0,0" stroke="none" fill="#000000"></polygon></g></g><g transform="translate(22.0 121.0)"><g clip-path="url(#i0)"><polygon points="0,0 10,0 10,10 0,10 0,0" stroke="none" fill="#F1B800"></polygon></g></g><g transform="translate(33.0 121.0)"><g clip-path="url(#i0)"><polygon points="0,0 10,0 10,10 0,10 0,0" stroke="none" fill="#FFFFFF"></polygon></g></g><g transform="translate(33.0 121.0)"><g clip-path="url(#i0)"><polygon points="0,0 10,0 10,10 0,10 0,0" stroke="none" fill="#F1B800"></polygon></g></g><g transform="translate(44.0 132.0)"><g clip-path="url(#i0)"><polygon points="0,0 10,0 10,10 0,10 0,0" stroke="none" fill="#000000"></polygon></g></g><g transform="translate(55.0 132.0)"><g clip-path="url(#i0)"><polygon points="0,0 10,0 10,10 0,10 0,0" stroke="none" fill="#FFFFFF"></polygon></g></g><g transform="translate(44.0 132.0)"><g clip-path="url(#i0)"><polygon points="0,0 10,0 10,10 0,10 0,0" stroke="none" fill="#FFFFFF"></polygon></g></g><g transform="translate(0.0 132.0)"><g clip-path="url(#i0)"><polygon points="0,0 10,0 10,10 0,10 0,0" stroke="none" fill="#FFFFFF"></polygon></g></g><g transform="translate(11.0 132.0)"><g clip-path="url(#i0)"><polygon points="0,0 10,0 10,10 0,10 0,0" stroke="none" fill="#FFFFFF"></polygon></g></g><g transform="translate(22.0 132.0)"><g clip-path="url(#i0)"><polygon points="0,0 10,0 10,10 0,10 0,0" stroke="none" fill="#000000"></polygon></g></g><g transform="translate(33.0 132.0)"><g clip-path="url(#i0)"><polygon points="0,0 10,0 10,10 0,10 0,0" stroke="none" fill="#FFFFFF"></polygon></g></g><g transform="translate(33.0 132.0)"><g clip-path="url(#i0)"><polygon points="0,0 10,0 10,10 0,10 0,0" stroke="none" fill="#000000"></polygon></g></g><g transform="translate(44.0 44.0)"><g clip-path="url(#i0)"><polygon points="0,0 10,0 10,10 0,10 0,0" stroke="none" fill="#000000"></polygon></g></g><g transform="translate(55.0 44.0)"><g clip-path="url(#i0)"><polygon points="0,0 10,0 10,10 0,10 0,0" stroke="none" fill="#F1B900"></polygon></g></g><g transform="translate(44.0 44.0)"><g clip-path="url(#i0)"><polygon points="0,0 10,0 10,10 0,10 0,0" stroke="none" fill="#000000"></polygon></g></g><g transform="translate(0.0 44.0)"><g clip-path="url(#i0)"><polygon points="0,0 10,0 10,10 0,10 0,0" stroke="none" fill="#FFFFFF"></polygon></g></g><g transform="translate(11.0 44.0)"><g clip-path="url(#i0)"><polygon points="0,0 10,0 10,10 0,10 0,0" stroke="none" fill="#FFFFFF"></polygon></g></g><g transform="translate(22.0 44.0)"><g clip-path="url(#i0)"><polygon points="0,0 10,0 10,10 0,10 0,0" stroke="none" fill="#000000"></polygon></g></g><g transform="translate(33.0 44.0)"><g clip-path="url(#i0)"><polygon points="0,0 10,0 10,10 0,10 0,0" stroke="none" fill="#FFFFFF"></polygon></g></g><g transform="translate(33.0 44.0)"><g clip-path="url(#i0)"><polygon points="0,0 10,0 10,10 0,10 0,0" stroke="none" fill="#000000"></polygon></g></g><g transform="translate(44.0 33.0)"><g clip-path="url(#i0)"><polygon points="0,0 10,0 10,10 0,10 0,0" stroke="none" fill="#000000"></polygon></g></g><g transform="translate(55.0 33.0)"><g clip-path="url(#i0)"><polygon points="0,0 10,0 10,10 0,10 0,0" stroke="none" fill="#000000"></polygon></g></g><g transform="translate(44.0 33.0)"><g clip-path="url(#i0)"><polygon points="0,0 10,0 10,10 0,10 0,0" stroke="none" fill="#FFFFFF"></polygon></g></g><g transform="translate(0.0 33.0)"><g clip-path="url(#i0)"><polygon points="0,0 10,0 10,10 0,10 0,0" stroke="none" fill="#FFFFFF"></polygon></g></g><g transform="translate(11.0 33.0)"><g clip-path="url(#i0)"><polygon points="0,0 10,0 10,10 0,10 0,0" stroke="none" fill="#FFFFFF"></polygon></g></g><g transform="translate(22.0 33.0)"><g clip-path="url(#i0)"><polygon points="0,0 10,0 10,10 0,10 0,0" stroke="none" fill="#000000"></polygon></g></g><g transform="translate(33.0 33.0)"><g clip-path="url(#i0)"><polygon points="0,0 10,0 10,10 0,10 0,0" stroke="none" fill="#FFFFFF"></polygon></g></g><g transform="translate(33.0 33.0)"><g clip-path="url(#i0)"><polygon points="0,0 10,0 10,10 0,10 0,0" stroke="none" fill="#000000"></polygon></g></g></g></svg>