<svg height="121" viewBox="0 0 358 121" width="358" xmlns="http://www.w3.org/2000/svg"><path d="m80.1010284 118.47789 1.5413056-31.7265777h-1.3006745c-1.2487487 5.5134073-2.7560704 10.1029179-4.521965 13.7685317-1.7658946 3.665614-4.0356369 6.599414-6.809227 8.801399-2.7735901 2.201986-6.2566197 3.837222-10.449089 4.905709-4.1924693 1.068486-9.3354314 1.760195-15.4288864 2.075126l-12.414032.573715v-102.1998286c0-2.6579183.258784-4.75647486.7763519-6.2956696.517568-1.53919474 1.5657908-2.72841899 3.1446686-3.56767273s3.9193319-1.50035604 7.0213623-1.98330688v-1.39439393h-41.6608429v1.39439393c2.78794352.52938842 4.91161855 1.16621653 6.37102509 1.91048431 1.45940653.74426778 2.45295969 1.78468068 2.98065948 3.12123871.52769979 1.33655802.79154973 3.21221419.79154973 5.62696839v92.9367984c0 2.377604-.26384994 4.24355-.79154973 5.597839s-1.52125295 2.392802-2.98065948 3.11554c-1.45940654.722737-3.58308157 1.371175-6.37102509 1.945312v1.394394zm88.6571336-69.4562683c.005055-10.4788513-1.811288-19.363205-5.449039-26.6530609-3.637751-7.289856-8.605517-12.84041342-14.903297-16.65167237-6.297781-3.81125895-13.460989-5.71688843-21.489624-5.71688843-4.978109 0-9.855744.81709035-14.632904 2.45127106-4.777161 1.6341807-9.099445 4.06877645-12.9668508 7.30378723-3.8674062 3.23501081-6.9542389 7.25671641-9.260498 12.06511691-2.3062592 4.8084004-3.4593887 10.3923085-3.4593887 16.7517242 0 6.6557719 1.3426793 12.501208 4.028038 17.5363083s6.4168294 8.9478887 11.1944125 11.7383652c4.777583 2.7904765 10.33215 4.1857147 16.663704 4.1857147 6.444692 0 11.957044-1.3479563 16.537056-4.043869s8.100402-6.4556682 10.561172-11.2792664 3.691155-10.4294586 3.691155-16.8175812h-.752289c0 7.1750285-1.927793 12.9064815-5.783379 17.1943589s-8.81533 6.4318161-14.879234 6.4318161c-6.455668 0-11.574356-2.6849366-15.356064-8.0548096s-5.672562-12.7977753-5.672562-22.2837067c0-6.1356709.82279-11.5431162 2.468369-16.2223358 1.645579-4.6792195 3.974424-8.33850096 6.986534-10.97784422s6.556353-3.95901489 10.632729-3.95901489c4.352467 0 8.151484 1.45497386 11.397049 4.36492157 3.245564 2.90994771 5.758049 7.17735034 7.537452 12.80220794 1.779404 5.6248576 2.669106 12.5263265 2.669106 20.7044067h.253296v2.1935425c0 14.4311117-2.035655 27.0726878-6.106964 37.9247284-4.07131 10.8520406-10.288247 19.5259476-18.650811 26.0217211-8.362564 6.495773-18.990226 10.419116-31.8829877 11.770027l.0265961 1.365265c11.3712976.171397 21.7372206-1.434921 31.0977706-4.818955 9.36055-3.384033 17.440689-8.228317 24.240418-14.5328518 6.799728-6.3045349 12.039576-13.7702204 15.719543-22.3970566 3.679967-8.6268361 5.527128-18.0922927 5.541492-28.3963699zm55.409181 70.8911893c5.856201 0 11.420901-1.244738 16.6941-3.734215 5.273198-2.489476 9.933209-6.233189 13.980033-11.23114 4.046825-4.9979499 7.228854-11.2552029 9.54609-18.7717587 2.317235-7.5165558 3.475853-16.2791163 3.475853-26.2876816 0-9.7535807-1.164528-18.3563537-3.493584-25.808319-2.329056-7.4519654-5.534938-13.7071076-9.617645-18.7654267-4.082708-5.0583191-8.776281-8.87527718-14.080719-11.45087431-5.304439-2.57559713-10.910088-3.86339569-16.816948-3.86339569-5.82074 0-11.349978 1.24473826-16.587715 3.73421478s-9.897538 6.2331899-13.979401 11.23114012c-4.081863 4.9979503-7.2907 11.2552033-9.626511 18.7717591-2.33581 7.5165557-3.503715 16.2791163-3.503715 26.2876815 0 9.7898865 1.173182 18.4108124 3.519546 25.8627777 2.346365 7.4519654 5.570188 13.6980311 9.671471 18.7381978 4.101283 5.040166 8.795489 8.848047 14.082619 11.423645 5.287129 2.575597 10.865972 3.863395 16.736526 3.863395zm.20137-2.020035c-3.587514 0-6.785586-1.259091-9.594215-3.777275-2.808629-2.518183-5.17779-6.292503-7.107483-11.322959-1.929693-5.030457-3.393321-11.3385803-4.390884-18.9243703-.997564-7.58579-1.496346-16.4306717-1.496346-26.5346451 0-9.9300435.471342-18.4093348 1.414025-25.4378738.942682-7.0285391 2.346153-12.7445832 4.210411-17.1481324 1.864257-4.4035491 4.15743-7.62568406 6.879516-9.66640468 2.722087-2.04072062 5.844803-3.06108093 9.368149-3.06108093 3.660126 0 6.894503 1.25740306 9.703133 3.77220917 2.808629 2.51480611 5.168291 6.28722634 7.078987 11.31726074 1.910695 5.0300344 3.355748 11.3307699 4.335159 18.9022064.979411 7.5714366 1.469961 16.4272944 1.471649 26.5675736 0 9.9300435-.462265 18.4093348-1.386795 25.4378738s-2.310058 12.7445835-4.156586 17.1481325c-1.846527 4.403549-4.131045 7.625684-6.853553 9.666405-2.722509 2.04072-5.880898 3.06108-9.475167 3.06108zm92.010647 2.020035c7.46463 0 14.314384-1.404948 20.549263-4.214843 6.234878-2.809896 11.231351-6.79403 14.989418-11.952401 3.758067-5.1583706 5.6371-11.2524589 5.6371-18.2822644 0-8.1924337-2.454226-15.2057749-7.362678-21.0400238-4.908453-5.8342489-12.054985-10.5582174-21.439598-14.1719055l-9.060395-3.5030823c-7.354868-2.8495788-13.029541-6.1681773-17.024017-9.9557953s-5.991715-8.6931152-5.991715-14.7164917c0-5.9026387 1.972542-10.7120946 5.917626-14.42836759 3.945083-3.71627299 9.698911-5.57440948 17.261482-5.57440948 5.016103 0 9.462713 1.21750895 13.339829 3.65252685 3.877115 2.43501791 7.184949 5.91340382 9.9235 10.43515782 2.73855 4.5217539 4.885444 9.9298324 6.440681 16.2242355h1.304474l-.944794-25.77919007c-2.483144-1.70214844-6.238467-3.22867838-11.265968-4.57958984s-11.262169-2.02636719-18.704002-2.02636719c-7.323629 0-14.037448 1.16832733-20.141457 3.50498199-6.104009 2.33665467-10.979744 5.85514578-14.627205 10.55547331-3.647461 4.7003276-5.471191 10.6059214-5.471191 17.7167816 0 8.0885824 2.455281 14.9740092 7.365844 20.6562806 4.910564 5.6822713 11.978786 10.2673492 21.204667 13.7552337l9.278228 3.5030823c7.945893 3.0463053 13.774653 6.5495987 17.486283 10.5098801 3.711629 3.9602813 5.567443 8.9069392 5.567443 14.8399734 0 7.02474-2.268053 12.580574-6.804161 16.667503-4.536107 4.08693-10.327507 6.130394-17.374199 6.130394-4.228352 0-8.261456-.732025-12.099311-2.196075s-7.340515-3.647039-10.507981-6.548966c-3.167465-2.901926-5.916148-6.507382-8.246048-10.8163676-2.3299-4.3089854-4.109515-9.3265661-5.338844-15.0527421h-1.301941l1.248749 28.8453367c3.611155 2.142884 8.451218 3.985611 14.520187 5.528183 6.06897 1.542572 13.292547 2.313858 21.670731 2.313858z" fill="#1e8be0" transform="translate(.072 .302)"/></svg>