<svg height="254" viewBox="0 0 254 254" width="254" xmlns="http://www.w3.org/2000/svg"><path d="m126.45-0c-69.83693 0-126.45 56.61307-126.45 126.45s56.61307 126.45 126.45 126.45 126.45-56.61307 126.45-126.45-56.61307-126.45-126.45-126.45zm70.25 73.04033-11.21752 10.75387c-.96664.73622-1.44715 1.94733-1.24764 3.1472v79.0172c-.19951 1.19987.27819 2.41098 1.24764 3.1472l10.95338 10.75387v2.3604h-55.09567v-2.3604l11.34678-11.0152c1.11557-1.11557 1.11557-1.44153 1.11557-3.1472v-63.8713l-31.55068 80.13277h-4.26277l-36.73232-80.13277v53.70753c-.30629 2.25924.44398 4.52972 2.03444 6.16514l14.75812 17.90251v2.3604h-41.84933v-2.3604l14.75812-17.90251c1.57922-1.63542 2.28453-3.92276 1.90237-6.16514v-62.101c.17422-1.72534-.48332-3.4282-1.7703-4.58873l-13.11989-15.80344v-2.3604h40.73376l31.48324 69.05013 27.68131-69.05013h38.83139z" fill="#fff" transform="translate(.407 .407)"/></svg>