<svg height="256" viewBox="0 0 256 256" width="256" xmlns="http://www.w3.org/2000/svg"><g fill="none" stroke-miterlimit="10" stroke-width="0" transform="matrix(2.81 0 0 2.81 1.406593 1.406593)"><path d="m90 90h-45c-24.853 0-45-20.147-45-45s20.147-45 45-45 45 20.147 45 45z" fill="#00aaf2"/><path d="m68.695 48.931c-.818-1.131-1.197-2.511-1.195-3.906 0-.008 0-.016 0-.025 0-12.426-10.073-22.5-22.5-22.5-2.718 0-5.323.484-7.735 1.368-1.305.478-2.734.57-4.072.194-1.182-.333-2.444-.473-3.752-.383-5.493.378-9.916 4.88-10.2 10.379-.136 2.624.651 5.059 2.064 7.012.818 1.131 1.197 2.511 1.195 3.906v.025c0 12.426 10.074 22.5 22.5 22.5 2.718 0 5.323-.484 7.735-1.368 1.305-.478 2.734-.57 4.072-.194 1.182.333 2.444.473 3.752.383 5.493-.378 9.916-4.88 10.2-10.378.136-2.626-.651-5.061-2.064-7.013zm-22.871-7.965c4.537 1.079 11.392 2.709 11.392 10.261 0 3.72-1.832 6.558-5.159 7.991-2.374 1.022-5.061 1.16-7.376 1.16-7.115 0-11.608-5.532-11.796-5.768-1.165-1.461-.926-3.591.536-4.756 1.461-1.166 3.591-.925 4.756.536.01.013 2.698 3.099 6.504 3.219 4.584.145 5.631-1.218 5.766-2.383.166-1.422-1.099-2.466-6.19-3.676-4.315-1.026-10.837-2.577-10.837-9.532 0-2.166.881-9.232 12.216-9.232 7.157 0 11.382 5.635 11.558 5.875 1.107 1.506.784 3.624-.722 4.731-1.499 1.102-3.604.787-4.716-.701-.08-.103-2.498-2.793-6.121-3.137-2.741-.261-5.448.728-5.448 2.189.002 1.547.779 2.068 5.637 3.223z" fill="#fff"/></g></svg>