<svg height="2048" viewBox="0 0 2048 2048" width="2048" xmlns="http://www.w3.org/2000/svg" xmlns:xlink="http://www.w3.org/1999/xlink"><mask id="a" fill="#fff"><path d="m0 0h2040.629v1095.506h-2040.629z" fill="#fff" fill-rule="evenodd"/></mask><g fill="none" fill-rule="evenodd"><circle cx="1024" cy="1024" fill="#fff" r="1006"/><path d="m199.014386 1041.94793c-1.588803-632.550933 604.20967-1085.7934336 1149.107024-829.77781 302.98429 136.243542 504.88716 473.992889 503.43786 825.69526-5.13027 2.54255-7.49892-1.69159-10.13074-3.92063-83.48991-70.650539-167.00228-141.270074-250.10061-212.44773-7.48787-6.414946-11.28477-4.682015-17.12935 1.030112-16.59977 16.226852-34.01797 31.513167-50.21334 48.184448-8.88402 9.143539-13.39985 7.634545-20.63095-2.418524-76.81726-105.557222-153.78858-211.569209-228.98181-318.318466-78.33858-105.798385-157.1939-211.104108-234.23903-317.998064-7.34986-10.201212-10.51447-12.836783-19.14815-1.019777-156.86653 211.493415-315.424489 421.557074-467.672482 636.902213-8.762058 12.481929-13.576377 11.276112-22.72679 1.319508-14.994996-16.316427-31.543412-30.972271-47.000582-46.816707-6.085298-6.239241-10.51768-7.062642-17.559423-1.043893-88.782443 74.271438-176.187991 149.104442-267.011627 220.63006" fill="#046fcc"/><g fill="#142536"><path d="m433.703966 1621.59899c83.919982-.01378 167.836754-.19638 251.756737.13091 13.646986.05168 22.819867-4.82671 32.150015-16.31987 19.523665-24.06122 41.502631-45.83138 62.791545-68.89349-5.693733-4.88873-11.71484-2.54944-17.161439-2.55633-127.268101-.15159-254.532993-.2515-381.797885.19637-10.251288.03445-16.58693-2.87329-22.264616-12.08228-13.740064-22.27317-28.3788-43.89863-40.636054-70.89515 182.530054.09991 364.434245.15503 546.893689.60979 10.453489.02757 17.594727-3.23159 24.838671-11.38291 43.178013-48.58409 87.097432-96.40679 130.269031-144.99433 6.8267-7.68622 9.72813-6.27714 15.71072.68904 40.94096 47.67456 82.50778 94.73243 123.41986 142.438 7.72537 9.00573 15.27101 13.17785 27.23941 13.1434 175.38881-.46854 350.78084-.29973 526.17286-.02067 5.37278.00689 13.05001-3.7966 15.90009 2.88707 2.16965 5.092-4.25586 9.80846-6.8909 14.5835-12.24762 22.18014-22.38978 49.45572-42.05788 61.60002-17.99271 11.1073-43.79424 2.95253-66.14231 2.99732-112.80268.23427-225.60536.1068-338.3278.1068-.4044 1.3953-1.25814 2.99387-.91793 3.37629 23.3013 26.42806 46.78875 52.66664 70.00339 79.18428 4.15957 4.75092 8.3705 5.82582 14.36272 5.78103 85.01444-.66837 170.03208-.92676 255.04973-1.22304.85374-.00345 1.70748.77516 5.30217 2.51843-29.791 22.9312-49.82178 54.54083-79.16344 77.10683-19.47231 14.97625-37.07346 33.89379-57.47654 47.9674-331.39839 246.71361-775.22395 193.73345-1048.613022-124.20604.340211-.24805.98533-.74761.962863-.7855-.407612-.6856-.898672-1.31607-1.373685-1.95687"/><path d="m-0 375.862878c144.548294-131.7958 297.980609-251.340499 451.011731-371.34685333 8.370494-6.66300031 13.136669-5.7775861 20.194459 1.49865829 18.608944 19.18282614 19.100004 19.00367614 4.666679 41.35952364-52.270656 80.9723354-103.957174 162.3718744-153.794994 245.0943664-4.756546 7.892934-10.215983 8.575082-17.318707 8.561301-41.120694-.082684-82.23818-.041342-124.941181-.041342 40.270166 187.311615 140.796335 355.17168 274.993845 480.810922 424.077226 398.257246 1088.594328 249.635126 1337.488158-290.064451 25.00235-54.413354 44.64156-110.976508 60.65398-169.069326 6.17196-22.39719 6.13345-22.200814-15.34162-22.069897-33.68097.206712-67.37157-.316957-101.0397.372081-10.23524.210156-16.38473-3.131679-22.12019-12.444032-52.02352-84.524327-104.36157-168.828163-157.13934-252.8150407-5.92803-9.4363795-4.72766-13.8255534 2.88218-20.7607238 20.8139-18.96577911 20.60207-19.56868762 42.45265-2.266936 149.66752 117.5120365 297.24242 238.3624625 437.98098 368.0566955-.75424.799285-1.46034 1.650247-2.10867 2.549442-30.08949-20.485109-60.42932-40.556794-90.11762-61.693044-9.64147-6.862821-11.70521-6.359823-14.80884 6.359824-45.46642 186.41242-131.67802 347.795524-260.53163 482.237231-528.32326 548.663973-1398.803311 264.042923-1575.0201884-495.632136-32.0890344 21.659919-63.5329501 42.885744-94.9768658 64.108123-1.02063542-.933647-2.04448038-1.870739-3.0651158-2.804386" mask="url(#a)" transform="translate(7.371 952.494)"/><path d="m1474.57878 1398.05016c-88.22398 0-176.44476-.21705-264.66553.2825-10.5915.05857-17.89001-3.01109-25.14037-11.23477-48.88137-55.42624-98.40787-110.19789-147.14161-165.76883-7.38516-8.4166-10.81295-8.67844-18.38748-.45821-51.487527 55.89134-103.613753 111.10054-155.229661 166.85751-7.670813 8.28569-15.447542 11.29334-26.54615 11.25889-176.980749-.56157-353.958289-.69248-530.935828-.1447-11.268714.03445-16.323748-3.95852-20.111011-13.7911-7.516756-19.51012-14.728604-39.19939-23.198594-58.23063-6.614873-14.86255-1.293447-16.41978 11.332904-16.37844 121.372167.38587 242.744334.04135 364.1165.49956 12.969773.04823 23.217852-3.3315 33.67776-11.66542 114.012679-90.83247 228.474695-181.01036 342.3622-272.01854 9.88219-7.89293 15.77171-6.64233 24.56907.41687 97.89755 78.60893 197.31964 155.1163 293.46799 236.10242 40.28942 33.93513 80.37343 49.94494 132.19796 47.92261 103.59129-4.03777 207.42008-1.00255 311.14296-1.65369 14.62589-.09302 15.62727 3.97919 9.93675 16.69195-8.52776 19.05535-16.30128 38.53102-23.5709 58.17895-3.83541 10.37347-8.87119 14.20797-20.0051 14.12325-89.28634-.67667-178.5791-.37694-267.87186-.37694 0-.20326 0-.40998 0-.61324"/></g><path d="m1098.91337 951.626381c-20.76576-16.778082-41.75939-33.242653-62.15605-50.520288-6.13666-5.195349-9.93355-5.708682-16.29808-.313512-15.40902 13.067611-31.604389 25.063768-47.485219 37.490573-1.810184-1.974094-4.226971-5.987742-5.337474-5.608771-12.221949 4.168681-19.257272-3.545102-27.143125-11.469043-3.957369-3.975751-10.260916-5.877496-15.819849-7.283135-16.391148-4.144565-32.89463-7.228011-49.937316-7.355483-10.806539-.07924-23.067002-.644251-24.347611-17.384436 0 0-.276021.399642-.276021.396197 4.766175-2.532216 2.275568-7.476066 3.244851-11.265777 54.966673-181.358324 114.224509-361.21799 173.414944-541.077656 7.30172 9.215887 9.3815 19.299962 12.32144 28.62265 53.93962 176.211209 113.87467 351.864296 164.49883 528.482037-.07382 20.06135-15.66258 15.930566-26.33111 19.43777-20.00509 6.576871-42.59066-2.318613-61.51414 15.014145-7.62909 6.990293-9.33978 17.00891-16.83407 22.834729" fill="#046fcc"/><path d="m1505.50114 141.873055c322.54326 200.120837 513.73267 607.924707 473.07736 1006.264635-17.86112-15.42412-33.13214-31.59585-50.97721-43.20959-19.10001-12.42681-22.72358-28.18856-22.85517-50.72011 1.63045-335.268808-159.55613-659.788619-428.80168-833.650207 1.33838-2.890515 4.04403-5.346937 1.90968-9.202106-4.15315-7.500182-10.42781-14.607612-3.75196-24.185244 5.30859-7.610428 7.93079-18.473117 16.02847-22.469539 9.89824-4.888727 15.08486-11.441481 15.37051-22.827839m-903.098657 62.423425c-244.782394 146.052002-413.960739 418.670003-449.008974 716.48269-6.701531 51.708879-7.073838 103.40398-6.804236 155.28167.028886 5.23669.690052 9.82913-4.085751 13.63951-22.94183 18.30086-45.668621 36.91178-69.1015115 55.92235-40.4402713-343.485589 108.1648875-756.963689 449.9301135-989.080019 16.477806 23.506541 54.725958 4.967966 64.110669 36.043593 2.436044 8.447609 7.096304 12.034054 14.95969 11.710206" fill="#142536"/><path d="m602.402483 204.29648c-7.863386.323848-12.523646-3.262597-14.95969-11.710206-9.397549-31.082518-47.616815-12.526716-64.110669-36.043593 2.115091-1.264386 4.223762-2.525326 6.348481-3.803492 2.198539-1.271276 5.616704-.434094 6.274661-4.278928 288.525288-194.9806113 678.972894-198.6497402 969.545874-6.587206-.28565 11.386358-5.47227 17.942557-15.37051 22.827839-8.09768 3.996422-10.71988 14.859111-16.02847 22.469539-6.67585 9.577632-.40119 16.685062 3.75196 24.185244 2.13435 3.855169-.56809 6.311591-1.90968 9.202106-262.64031-170.6472238-597.944717-175.8873601-867.578621-20.009672-1.855118 1.157585-3.707025 2.311724-5.558933 3.465863z" fill="#142536"/><path d="m1422.08698 947.081484c15.84553 9.460496 23.4361 27.103322 34.13994 41.311291 65.59669 88.724015 134.74634 174.908925 200.7378 262.950795-4.4067 4.117-9.33977 1.76049-13.7529 1.77772-63.59393.23083-127.19749-.26184-190.78179.70626-12.53007.19293-17.54659-4.21691-21.43656-16.14761-30.22429-92.68943-60.98136-185.1756-91.56833-277.716885 11.93309 9.767118 23.37833.7166 34.43522-2.025772 16.02205-3.968861 33.96341 1.691589 48.22662-10.855799m-710.448905 17.297618c-30.593386 91.449158-61.241334 182.877658-91.677453 274.385388-2.840448 8.54063-5.08392 14.866-15.935393 14.77399-69.762677-.60048-138.92196-.26974-208.761667-.29385 79.622401-103.36264 155.149422-202.99758 233.269756-306.270636 15.325579 3.748369 31.017046 4.954186 46.397187 9.109087 12.006909 3.241925 23.705702 9.694769 36.70757 8.296021m138.750571-75.195783c1.280609 16.740185 13.541072 17.301752 24.347611 17.384436 17.045895.124027 33.546168 3.210919 49.937316 7.352039 5.558933 1.405638 11.86248 3.310829 15.819849 7.28658 7.885853 7.920495 14.921176 15.637724 27.143125 11.469042 1.110503-.382416 3.52729 3.634677 5.337474 5.608772-62.531572 51.798454-125.063144 103.600352-191.035348 158.254872 10.508051-32.28834 19.398492-60.48378 28.860231-88.45874 13.380595-39.561132 23.93037-80.210946 39.589742-118.897001m248.524724 62.443062c7.49429-5.825819 9.20498-15.844436 16.83407-22.834729 18.92348-17.332758 41.50905-8.437274 61.51414-15.014145 10.66853-3.507204 26.25729.62358 26.33111-19.43777 21.54889 65.289824 43.09778 130.579643 65.96258 199.865893-59.13267-49.40749-114.88889-95.99337-170.6419-142.579249" fill="#046fcc"/><path d="m1422.08698 947.081484c-14.26321 12.547388-32.20457 6.886938-48.22662 10.855799-11.05689 2.742372-22.50213 11.79289-34.43522 2.025772-22.4957-67.859936-45.1936-135.630298-67.16294-203.672829-2.25631-6.986849-11.4324-17.308642-5.66485-20.436876 7.97572-4.330606 11.57362 8.967833 16.16327 15.20363 42.36921 57.600156 84.38216 115.506934 126.52349 173.300021 5.12885 7.031636 11.0633 13.505151 12.80287 22.724483m-710.448905 17.297618c-13.001868 1.398748-24.700661-5.054096-36.70757-8.296021-15.380141-4.154901-31.071608-5.360718-46.397187-9.109087 50.206918-69.599758 99.942032-139.581932 150.938498-208.513323 2.89501-3.896512 3.508033-11.245105 10.671738-10.25289l-.28244-.248054c-25.888192 78.877659-51.381611 157.906906-78.223039 236.419375" fill="#046fcc"/><path d="m853.35908 878.310984c-.972492 3.793156 1.521325 8.73356-3.24485 11.269221 1.081617-3.755259 2.163234-7.513962 3.24485-11.269221m-317.405098-729.850378c-.654747 3.841388-4.072913 3.007652-6.274661 4.278928 2.082995-1.412529 4.178828-2.845728 6.274661-4.278928" fill="#142536"/><path d="m790.144838 728.209159c-.054562-1.557227-.109124-3.117898-.163687-4.675125.609814.07924 1.219628.158479 1.829441.237718-.657957 1.388413-1.315913 2.776825-1.961032 4.175572.012838.010336.295278.261835.295278.261835" fill="#046fcc"/><path d="m10.4358661 1331.16177c-1.85511718 1.56756-3.71023439 3.13167-5.5653516 4.69924-.61302316-.88197-1.28060859-1.71571-2.00275629-2.49777 1.50206722-1.66747 3.00413444-3.33839 4.50299211-5.00586 1.02063542.93365 2.04448038 1.87074 3.06511578 2.80439" fill="#142536"/><path d="m433.703966 1621.59899c.475013.6408.966073 1.27127 1.373685 1.95687.022467.03789-.622652.53745-.962863.7855-.561671-1.42631-1.367267-1.84318-.410822-2.74237" fill="#046fcc"/><path d="m602.807849 204.015007c1.851908-1.154139 3.700606-2.308278 5.555723-3.465862-1.848698 1.154139-3.703815 2.308278-5.555723 3.465862m-597.93637164 1131.845653c-1.61761085 1.37119-3.28978397 2.66658-4.86888028.13092-.08344818-.13092 1.86474584-1.71915 2.86612399-2.62868.7221477.78206 1.38973313 1.61579 2.00275629 2.49776" fill="#142536"/></g></svg>