<svg height="2048" viewBox="0 0 2048 2048" width="2048" xmlns="http://www.w3.org/2000/svg" xmlns:xlink="http://www.w3.org/1999/xlink"><mask id="a" fill="#fff"><path d="m0 0h1845.99v2048h-1845.99z" fill="#fff" fill-rule="evenodd"/></mask><mask id="b" fill="#fff"><path d="m0 0h1151.459v863.449h-1151.459z" fill="#fff" fill-rule="evenodd"/></mask><g fill="none" fill-rule="evenodd"><ellipse cx="998.508" cy="1024.979" fill="#fff" rx="998.508" ry="1016.168"/><path d="m650.931932 79.8487328c-2.279587 1.5242873-7.490774 2.3424415-4.307416 6.0081324 2.811622 3.2376102 5.101043-.8971691 6.699114-3.5096615.832964-1.0061897 2.55003-2.6525 2.360228-2.9175499-1.62659-2.2674274-3.237446-.8511605-4.751926.419079m204.22267 1957.9930472c22.788002-.98119 43.438031-10.17092 64.25426-17.92238 118.275948-44.0443 228.171118-103.58052 329.363928-179.52384 129.05236-96.85025 235.42882-213.98733 317.30415-353.45462 15.97481-27.21013 24.02614-56.94973 32.99796-87.16943 13.6431-45.95566 22.99255-92.28339 29.3809-139.41127 12.99404-95.85507 11.93292-191.65913-2.65624-287.356164-5.59374-36.698917-12.08142-73.181794-21.18305-109.153574-42.51262-168.014667-107.62246-325.530356-214.37361-463.54837-21.70722-28.063289-46.23982-53.542092-73.55946-78.078716-.53695 7.357387 3.4184 12.026267 5.97138 17.020208 51.98107 101.687166 85.78544 209.392466 103.59336 322.040698 31.81292 201.23893 11.83162 399.911378-31.61821 597.219568-3.71342 16.86117-8.25391 33.53832-13.3048 50.26947 11.95455-283.75748-83.4439-528.877682-262.88712-744.534329 23.68193 219.882444-2.11142 436.828339-31.41169 654.063279-43.58456-264.486851-147.942047-507.033567-263.949225-751.049559-65.056737 240.521334-80.794541 480.802622-70.875683 727.533129-10.507932-23.48643-19.475815-43.76125-27.69826-64.61018-21.615755-54.80433-45.15313-108.84152-67.701176-163.278775-41.690479-100.653972-83.248195-201.438968-106.914399-308.323114-33.56146-151.569568-31.554283-301.46682 25.098076-447.975434 15.751572-40.734678 36.721215-78.702834 65.359633-112.0241148 2.720163-3.1655967 6.9017-5.9011123 5.538668-12.9354381-10.529567 1.7163235-17.298505 9.3827684-24.615212 15.3628959-72.591765 59.321181-126.917332 133.042076-166.798303 217.523999-52.261351 110.707866-80.498529 228.147001-95.200784 349.363848-14.102363 116.273916-12.446269 232.538829-2.31499 348.911763.634311 7.27837 1.93047 14.49773 2.79392 21.7591.765107 6.43221 1.357131 12.88443.013768 20.07379-6.881048-15.81299-14.025655-31.51695-20.598891-47.45795-39.873103-96.707227-73.757128-195.35282-88.586244-299.401431-23.17449-162.601647-11.854246-319.993313 74.143615-465.256692 27.721863-46.825826 63.048577-87.030404 103.748743-122.71513 1.385651-1.256236 2.778185-2.507472 4.17072-3.758708-2.58445-1.986375-4.565074-1.16822-6.183798 1.340252-39.851468 16.048025-74.893971 40.129564-107.814236 67.173661-128.732741 105.757934-206.772699 243.36287-248.2910783 403.293014-34.3816393 132.441962-38.5081048 266.76428-22.447736 402.143796.473029 3.98175 3.3987284 8.256558-1.2725563 13.012448-18.0675461-68.524911-30.914071-137.162848-38.96736592-206.716958-16.50881211-142.574872-6.62732381-283.058351 32.38626322-421.398425 7.0315129-24.9347 18.5966305-45.291537 37.3535599-63.954054 149.4535764-148.702028 325.1273214-249.1649632 531.5843404-292.2790894 225.124456-47.0128611 442.214301-20.89493834 649.939941 78.5968144 67.89295 32.518129 130.24919 73.658883 189.98755 120.17265 92.39309 71.939559 170.38191 156.269454 234.05595 254.067887 80.64998 123.870347 131.23557 259.674944 152.53564 406.068536 9.33077 64.133088 13.12484 128.857289 8.53616 193.729519-4.22776 59.77126-10.10276 119.28748-23.96025 177.84852-26.58305 112.33517-69.5628 217.68003-131.02314 315.26942-88.71016 140.85755-205.79714 252.42958-348.56832 336.56744-129.49785 76.31738-269.53805 121.38787-418.798878 137.71695-27.872327 3.04958-55.708267 5.96013-83.796948 5.17298 5.751089-3.34263 11.505129-6.68526 17.259168-10.02789" fill="#385ea1" mask="url(#a)" transform="translate(202.01)"/><path d="m1022.10721 852.910472c-5.74775 3.340858-11.49549 6.681716-17.24029 10.022575-162.410455 5.194224-316.757751-28.87813-463.035018-98.909193-162.890821-77.984345-297.082199-191.098682-401.981777-338.898163-56.514766-79.626784-101.0330373-165.547416-132.1726437-258.27772-2.2761118-6.777684-8.46002367-11.982904-7.59555306-19.845217.16012353-1.447505.45974118-2.878016 1.04522354-6.456793 26.80939452 35.244953 51.89868912 69.649194 80.05194252 101.562286 65.6545777 74.423561 134.5460077 145.564245 214.7295857 204.402134 112.596314 82.62176 232.116251 153.800431 357.673729 214.7446 70.69896 34.31727 141.21815 69.007413 212.442669 103.835508.673894-8.577068-6.067012-9.636706-10.159495-12.459741-44.34243-30.583546-85.759413-64.88982-126.476961-100.082791-76.655948-66.256353-148.233131-137.560981-214.30128-214.599649-21.588188-25.172396-43.698988-49.972919-62.374501-77.243598-46.248194-67.533917-92.986583-135.110819-127.483872-209.632347-21.951659-47.420791-43.038848-95.6533054-58.276125-151.072363 28.400807 35.6618107 53.168872 68.0927257 79.333843 99.3430442 56.631665 67.6378808 119.005184 129.6886718 183.344391 189.9150868 21.801359 20.407024 43.049654 41.712742 66.530836 59.801559 70.088919 53.989546 138.753426 109.760484 207.75881 165.098569 35.189847 28.219354 68.965107 58.2201 103.463378 87.315155 4.012912 3.384843 7.747817 10.529401 13.888506 6.218875 7.189841-5.048275-.612006-10.060562-2.693612-14.137168-28.739718-56.264769-60.472666-110.927085-90.011037-166.723014-42.673412-80.606448-89.020825-159.119612-132.02922-239.514133-6.179-11.550052-11.438517-23.435989-17.539912-35.95471 7.543489-1.925342 9.686001 4.530451 12.694948 8.331152 45.317906 57.237436 91.962972 113.496207 135.280808 172.23213 57.508907 77.978347 120.264561 152.286948 167.82125 237.438843 17.200997 30.797473 31.343937 62.937488 44.978997 95.656304 3.89896-96.948862-9.58679-192.201305-26.27401-287.012898-16.533987-93.936892-43.566376-185.584566-60.333176-280.1472444 3.880294 7.6243944 7.723259 15.2677814 11.645794 22.8701824 58.882232 114.147984 114.750612 229.678496 155.324742 351.943705 14.30895 43.120261 31.63373 86.401468 31.32072 132.317773-.57111 82.214899-18.61497 158.639777-84.99845 215.627298-14.05453 12.065876-30.21522 20.657939-44.35324 32.289963" fill="#d7313a" mask="url(#b)" transform="translate(33.668 1184.55)"/><g fill="#fdfdfd"><path d="m855.177078 81.6779971c-1.597319 2.4864216-3.885237 6.4246849-6.693808 3.3409505-3.179902-3.4914696 2.025629-4.2697862 4.302742-5.7225805.797677.7935591 1.594372 1.5880709 2.391066 2.38163m-226.059182 38.2621039c1.511095-2.521313 3.36003-3.344661 5.771724-1.347113-1.299947 1.257641-2.598975 2.515282-3.892494 3.777949-.619678-.808268-1.248536-1.620557-1.87923-2.430836"/><path d="m853.253171 79.8564445c1.528241-1.2079103 3.153733-2.5546828 4.795104-.3985153.191526.2520443-1.541142 1.8175721-2.380682 2.7753404-.804808-.7913239-1.609615-1.5845501-2.414422-2.3768251"/></g></g></svg>