<svg height="1600" viewBox="0 0 3000 1600" width="3000" xmlns="http://www.w3.org/2000/svg" xmlns:xlink="http://www.w3.org/1999/xlink"><linearGradient id="a" x1="50%" x2="50%" y1="0%" y2="100%"><stop offset="0" stop-color="#fff"/><stop offset="1" stop-color="#fff"/></linearGradient><mask id="b" fill="#fff"><path d="m0 0h314.534v165.284h-314.534z" fill="#fff" fill-rule="evenodd"/></mask><mask id="c" fill="#fff"><path d="m0 0h67.513v134.891h-67.513z" fill="#fff" fill-rule="evenodd"/></mask><g fill="none" fill-rule="evenodd"><path d="m0 0h3000v1600h-3000z" fill="url(#a)"/><g transform="translate(975 399)"><text fill="#000" font-family="SFCompactDisplay-Medium, SF Compact Display" font-size="91" font-weight="400" letter-spacing="-.684"><tspan x="22" y="389">Unleash the full power of Quantum-Resistant </tspan><tspan x="22" y="498">Cryptography </tspan><tspan font-family="SFCompactDisplay-Thin, SF Compact Display" font-size="88" font-weight="300" letter-spacing="-.662" x="22" y="607">he next evolution of Cryptography is Quantum-</tspan> <tspan font-family="SFCompactDisplay-Thin, SF Compact Display" font-size="88" font-weight="300" letter-spacing="-.662" x="22" y="712">Resistant Cryptography (QRC), an essential </tspan><tspan font-family="SFCompactDisplay-Thin, SF Compact Display" font-size="88" font-weight="300" letter-spacing="-.662" x="22" y="817">component for the future of a safer internet.</tspan></text><text fill="#ff2722" fill-rule="nonzero" font-family="NotoSans-Regular, Noto Sans" font-size="175"><tspan x="0" y="187">Hash (HSH)</tspan></text></g><g fill-rule="nonzero" transform="translate(140 400)"><path d="m336.079635 444.79024c.000418.029059.000627.058117.001045.087176 9.02581 0 18.051623-.000406 27.077642.000609 1.678844 0 2.036063-.264978 2.172731-1.732724.075324-.807127.105789-1.620758.106414-2.43134.009181-13.253803.012728-26.507402.007512-39.761205-.000209-.808348-.053623-1.619945-.142094-2.423822-.065309-.59417-.446733-.971114-1.08167-1.014803-.552313-.038-1.107752-.045315-1.661733-.043821-17.08075.063126-34.1615.127135-51.24225.196629-.969621.003862-1.943.015446-2.907406.10018-.762428.066856-1.277597.528942-1.37817 1.282018-.089304.667728-.094728 1.348261-.102867 2.023713-.161707 13.387714-.429412 26.775631.036932 40.162939.032759.944291.084297 1.889801.177566 2.830027.057799.582385.391856 1.010944 1.036602 1.06337.689189.05588 1.383593.08941 2.074869.078843 8.608502-.133506 17.216586-.276968 25.824877-.417789m106.029556.089817c.000209.035357.000625.070918.000834.106275 9.03395 0 18.068108-.004875 27.102059.004268 1.68677.001627 1.998711-.225557 2.104498-1.738616.028377-.404783.027021-.811802.027021-1.217804-.047886-13.808145-.095042-27.616289-.150753-41.424231-.002713-.673623-.049661-1.351308-.140217-2.018836-.080332-.59417-.493469-.954654-1.099613-1.019679-.548764-.058928-1.106293-.055272-1.660065-.053848-17.09765.043078-34.195092.087986-51.292744.138381-1.110465.003252-2.22552-.000813-3.329307.095912-.941871.082299-1.475404.652693-1.506701 1.607144-.013353.405799-.036517.811598-.036517 1.217397.004175 13.537273.006888 27.074547.025459 40.61182.001459.943885.103701 1.890004.199056 2.831246.081168.801032.633688 1.167614 1.404043 1.195858.9715.035967 1.945504.023841 2.918047.011178 8.478301-.11278 16.9566-.230233 25.4349-.346465m-182.797261-47.220432c-.84902-.043893-1.668617-.122533-2.488426-.123346-26.286422-.029871-52.572637-.054459-78.859059-.071121-2.363859-.001422-4.727926.072545-7.091993.082096-.954182.004062-1.565751-.436688-1.605604-1.436047-.027125-.676264-.05738-1.353137-.059676-2.029809-.040896-12.325767-.077828-24.651334-.117428-36.977101 0-.541336-.006722-1.083486.022699-1.6234.041313-.755311.41272-1.276327 1.229189-1.344198.690024-.057506 1.386516-.059131 2.080296-.059336 26.285797-.009345 52.571594-.009752 78.85739-.031699 2.362608-.002031 4.72584-.121922 7.087194-.222305.976508-.041658 1.501068-.612052 1.538627-1.557968.037347-.946932.041939-1.895287.042564-2.843237.035264-54.991982.068858-109.983966.098486-164.976154.000625-1.219023-.015232-2.440078-.084296-3.656866-.096608-1.701227-.131038-2.275686 2.354259-2.291333 11.682623-.074372 23.365037-.165814 35.047452-.257866 2.642205-.02093 5.284201-.093274 7.926406-.093274.975672 0 1.532365.546623 1.560533 1.514689.023371.812005.005635 1.625228-.001877 2.437843-.444228 48.354313-.273756 96.709438-.202812 145.06436.01064 7.313123.20782 14.626246.326335 21.939164.015233.94734.045696 1.896508.121856 2.840799.167967 2.086705.300256 2.2005 2.536625 2.276904.833371.028449 1.668826.010363 2.50324.009348 50.347535-.062995 100.695069-.125987 151.042395-.192028 1.807791-.002236 3.616209-.014224 5.423375-.059539 2.612367-.065431 2.71732-.144275 2.716486-2.847097-.006887-21.536415-.026082-43.072624-.055295-64.608834-.007303-5.282299-.081793-10.564393-.094519-15.846692-.006678-2.764189.023578-2.764189 2.726709-2.755248 12.934138.042877 25.868486.08494 38.802625.129035 1.11255.003862 2.226771-.01199 3.337236.040641 1.277807.060758 1.721199.493584 1.732676 1.748777.041105 4.468668.069273 8.93774.066351 13.406612-.008763 13.544589-.059467 27.08938-.045068 40.634171.009598 9.074702.082209 18.149608.168385 27.223903.030463 3.195388-.225348 3.18726 3.091857 3.171004 25.451383-.123955 50.903393-.213975 76.354984-.315576 5.94251-.023573 5.071583-.492163 5.073041 4.940507.002713 11.784026-.004589 23.567848-.009597 35.351873-.000416.811397.058215 1.633155-.060092 2.429106-.043818.295459-.476152.667121-.804576.761203-.518092.148543-1.098363.125377-1.651301.117656-24.477797-.349918-48.955176-.063197-73.432555.034748-2.225101.008739-4.451457-.030074-6.675306.027432-1.46059.037594-1.924848.532803-2.036479 2.000752-.061345.808955-.031299 1.624619-.045279 2.437232-.591746 34.129194-.365772 68.261637-.350957 102.392862.021699 49.573945.153986 99.14789.257271 148.722039.010434 5.010816.146268 10.021838.22201 15.032654.016276 1.082268.067188 2.166768.022535 3.247004-.031299.761203-.517675 1.220242-1.312652 1.287299-.412721.034748-.831701-.000813-1.24776-.003658-13.629379-.091442-27.258758-.225151-40.885842.175365-.554814.015104-1.114845.031498-1.665488-.020321-.773486-.072746-1.298463-.510652-1.346453-1.274091-.07616-1.214348-.081168-2.433981-.082211-3.651379-.046531-54.585778-.08868-109.171354-.133539-163.757131-.003131-3.928145-.002922-7.856086-.040688-11.783822-.020031-2.10784-.174019-2.238094-2.458171-2.226309-7.370756.037594-14.741721.121314-22.112686.135334-10.431107.019711-20.862006-.008533-31.292904-.010363-.692737 0-1.390481.008738-2.07633.090222-.600303.071327-1.022412.468793-1.070612 1.053412-.088679 1.07678-.12415 2.160266-.122273 3.240704.032342 18.691755.073029 37.383308.115178 56.074861.001879.810988.052373 1.62218.047574 2.432965-.003547.617742-.367443 1.013381-.983811 1.062353-.829197.065838-1.665906.053239-2.499484.056287-13.489998.048973-26.979994.095709-40.470199.139602-.553981.001828-1.111301.000609-1.661526-.053037-.601134-.058522-1.043486-.404986-1.127365-.986354-.096189-.6659-.094103-1.348668-.09306-2.023916.027543-18.962017.076369-37.924035.081584-56.885847.00146-4.950873.190919-4.340651-4.48818-4.335368-27.26001.031092-54.520227.008942-81.780236.02276-5.841104.003049-11.682206.09002-17.523309.117453-1.374623.006502-1.699291-.29038-1.705551-1.663228-.014605-3.250254.054459-6.500916.050703-9.751576-.029838-25.193076-.05884-50.386356-.126027-75.579635-.005008-1.860135.301717-3.786715-.587574-5.676922" fill="#11caf0"/><path d="m347.594395 772.650012c-.355549-.669559-.797274-.60433-1.178069-.607377-12.670189-.099977-25.282164-1.136725-37.862215-2.461617-8.841568-.931287-17.649127-2.165754-26.394714-3.817399-8.188686-1.546588-16.365897-3.123049-24.474458-5.032357-10.555048-2.485596-20.860128-5.785838-31.061296-9.352074-31.558313-11.03217-60.199831-27.138151-86.47436-47.369788-17.079916-13.151388-32.559026-27.919064-46.8896955-43.819806-10.6499865-11.816539-20.0766258-24.574727-28.9720279-37.696651-1.2227215-1.80364-2.4996932-3.572332-3.7245012-5.374755-.3096447-.455584.0623881-1.139977.5963375-1.183461.4127207-.033327.8281537-.043934 1.2425436-.043934 14.0471072.026051 28.094423.054703 42.1417385.082947.278138.000407.55878.028653.833996.001627 2.17127-.212146 3.611827.664682 4.801164 2.481938 14.35237 21.931646 32.990525 40.085926 53.162297 56.855369 6.987665 5.808799 14.595663 10.837295 22.245183 15.769473 14.75278 9.511793 30.290106 17.641187 46.56002 24.41907 17.541252 7.30723 35.576392 13.157281 54.135674 17.510326 11.632963 2.728221 23.381939 4.781195 35.202066 6.52977 8.661289 1.281609 17.336352 2.419961 26.082149 2.944634 6.245058.374709 12.499509.604534 18.748742.914217 1.247551.061774 2.494058.170692 3.736394.299727.582358.060351.85361.712636.541461 1.212722-.215541.345041-.436926.690895-.694615 1.006065-3.639787 4.447535-7.244102 8.923517-10.947738 13.320049-2.026045 2.405127-4.226526 4.670855-6.341041 7.005673-.642658.709387-1.350627 1.382807-1.874561 2.169817-2.007265 3.015553-1.682806 3.048066 1.815303 3.429887 20.208078 2.206189 40.487517 2.84791 60.803471 2.579679 12.804355-.169066 25.546113-1.217396 38.255947-2.728017 13.533189-1.60877 26.950783-3.822073 40.239219-6.800034 24.450463-5.478796 48.182523-13.036779 70.994414-23.244751 12.509107-5.597672 24.786607-11.640565 36.656603-18.451569 16.682844-9.572756 32.491838-20.358437 47.525678-32.238578 6.705769-5.299164 12.958967-11.071795 19.134545-16.93343.995496-.945103 2.01916-1.862164 3.034269-2.787556.970873-.885158 2.114932-1.139367 3.442815-1.12433 9.593982.108511 19.188588.162767 28.782986.233888.834414.006299 1.67008-.016052 2.502406.026416.528526.026823 1.151987-.072136 1.458711.527723.416059.813223-.295039 1.215365-.730711 1.664039-4.012447 4.132975-7.991089 8.298664-12.080111 12.358893-8.966973 8.904416-18.626889 17.071808-28.475637 25.025025-13.290939 10.73285-27.418379 20.351529-41.978361 29.358768-15.979676 9.885283-32.687141 18.464166-49.996994 25.940054-25.100424 10.840549-51 19.327785-77.797838 25.175602-13.028033 2.843033-26.163107 5.179273-39.418574 6.700258-14.226344 1.632341-28.517994 2.640843-42.853463 2.79406-13.630006.145494-27.264393.20727-40.864559-.873373-8.589304-.682562-17.165047-1.529926-25.744545-2.327502-3.737019-.34748-7.469449-.743322-11.200629-1.14526-1.100031-.118671-2.194845-.304603-3.28048-.515732-.530402-.103025-.786006-.9321-.390604-1.292178 5.938545-5.405845 9.687875-12.531818 15.170717-18.296523.81793-.859961 1.717862-1.733738 1.854948-2.819664" fill="#11caf0"/><path d="m401.318395.51567177c2.944755-.10790153 8.362705-.31191873 13.781072-.49967958.832535-.02885503 1.671121-.02133647 2.501152.04226651.65518.04998828 1.489592-.17353655 1.86851.53686599.428996.80489257-.360139 1.22572886-.843385 1.63660812-2.421029 2.05866364-4.446031 4.45850744-6.512138 6.84168848-5.379557 6.20606521-10.879299 12.31337301-16.278262 18.50379141-1.452033 1.6646504-3.222266 2.445768-5.409393 2.6487691-20.534209 1.9060573-40.101297 7.2519582-58.770125 15.7603291-18.333724 8.3553581-34.379126 19.8351866-48.720229 33.6862071-8.21602 7.9353345-15.465756 16.6714974-22.73594 25.399736-.525604.630746-1.062892 1.253161-1.567838 1.899351-.887621 1.135912-2.012482 1.750809-3.502909 1.936131-10.646648 1.323877-21.042283 3.821462-31.308135 6.774631-13.493753 3.881611-26.583757 8.777617-38.751504 15.780447-12.998613 7.481172-24.902828 16.318328-35.268208 27.055241-1.904817 1.973318-3.768319 3.984838-5.695253 5.937226-1.059344 1.073732-1.68844 1.118843-2.829995.049175-3.706765-3.473575-7.397464-6.965643-11.014299-10.527612-4.008272-3.947246-7.959582-7.950372-11.878341-11.98215-4.204826-4.326018-8.348516-8.708324-12.506604-13.077422-1.077288-1.132051-1.091685-1.700211-.039018-2.763173 2.411849-2.435405 4.845607-4.850286 7.285207-7.259477 7.915765-7.817069 16.410757-15.019242 24.880294-22.2502704 11.943024-10.1969992 24.782225-19.2391881 37.941711-27.8550541 19.191927-12.5653463 39.339495-23.4707162 60.471709-32.6376725 13.850137-6.0083473 28.010335-11.21485 42.40068-15.8664018 14.002247-4.5261744 28.20835-8.2984606 42.672559-11.07077806 10.904547-2.09016032 21.853328-3.97162973 32.880146-5.4156001 14.764672-1.93328653 29.576086-3.1088239 46.948536-3.28317327" fill="#e82440" mask="url(#b)"/><path d="m734.368059 190.359634c-3.888713.179429-7.781391.303181-11.664887.559218-2.302098.151591-3.980315-.485048-5.197193-2.532333-1.459545-2.455522-3.163008-4.774693-4.78301-7.138367-6.49044-9.470137-13.694897-18.402798-21.39658-26.962986-3.846983-4.275827-7.55667-8.665245-11.635051-12.745386-5.530205-5.532239-11.162861-10.950278-17.181529-15.984463-6.641297-5.554999-13.174928-11.227043-20.090606-16.471342-17.599676-13.3460572-36.282066-25.0611965-56.079094-35.0322326-13.831773-6.9666592-28.065836-13.1097309-42.824877-18.0315443-2.232822-.7447442-4.439562-1.5667059-6.641503-2.3953733-.672914-.2531928-.876145-1.1188433-.469268-1.6996016.233277-.3334584.471979-.6797187.775781-.9473388 5.276065-4.6487067 9.601285-10.1537168 14.444387-15.19156 4.028514-4.1902775 2.787014-3.9362721 8.401934-1.8239625 11.420968 4.2963504 22.406472 9.5384139 33.270123 15.0192426 21.288705 10.7403678 41.338623 23.3847607 60.36425 37.5641598 9.60525 7.1586873 18.76773 14.8276207 27.656248 22.8424077 9.809937 8.845691 19.139761 18.11811 27.997814 27.842456 12.467168 13.686222 24.047967 28.049317 34.248717 43.440221 1.429082 2.156405 3.070783 4.178898 4.595221 6.27617.396863.545807.826277 1.105026 1.048703 1.72358.180486.502524.03109 1.120672-.680635 1.233451-.679799.107901-1.377334.150574-2.06715.152809-4.030598.013412-8.061407.006503-12.092004.006503zm-635.4053109-12.933594c1.2321109 1.041423 1.4286649 2.267355 1.7449859 3.425417 2.250141 8.23689 4.487972 16.476828 6.726637 24.716563.213455.785384.40187 1.576865.608648 2.363877.510163 1.939789.142094 3.610128-.9932 5.3713-9.4725436 14.694319-18.0376442 29.873891-25.198493 45.775446-8.9673885 19.91342-15.6043033 40.551468-20.0004666 61.866998-2.7137737 13.157281-4.5708078 26.446644-5.7140315 39.810177-.6343127 7.415131-.8314922 14.880862-.8690502 22.325661-.0559197 11.107761.4690577 22.207394 1.4259518 33.280002.2211748 2.559968.6589342 5.102664 1.0171957 7.650441.0740727.525689.3363527 1.18834-.1654639 1.480547-.791639.461273-1.2135404-.336506-1.6679922-.785385-.7805802-.770957-1.5089966-1.591496-2.269546-2.381758-6.65632-6.914232-13.3057542-13.834765-19.9806444-20.731928-1.2736332-1.315953-2.2559834-2.638203-2.1885877-4.615179.3275893-9.607908-.0642658-19.225776.7261213-28.83328 1.2448389-15.131003 3.0380244-30.184792 5.7134055-45.141853 4.2851584-23.956578 10.9099713-47.296025 19.8496086-69.979121 6.881459-17.460742 15.1919998-34.292568 24.7584383-50.53185 4.5693472-7.756718 9.4796377-15.299056 14.4700519-22.796891.519135-.779899.8913764-1.704275 2.0064315-2.269184m88.3955769 70.830466c-19.622174.907918-36.461927-15.738789-36.907406-34.342557-.459668-19.1955 16.82619-36.80316 35.77378-36.681694 23.548655.154079 36.588164 18.714972 37.078086 33.223358.776617 23.001112-16.941158 37.833405-35.94446 37.800893" fill="#e82440"/><path d="m.84131993 453.740234c.47072686.264979 1.03451409.442376 1.39820066.808347 5.40939443 5.440392 10.78853381 10.909028 16.18227911 16.36405 6.2632128 6.334693 12.511611 12.683408 18.8102954 18.984166 2.8097553 2.81052 5.6088692 5.649692 8.629575 8.235468 2.7404817 2.345994 4.3494244 5.131723 5.1168594 8.567706.8840734 3.957406 1.9532244 7.87925 3.0586814 11.785652 3.4336352 12.133537 7.831259 23.945604 12.6660163 35.608317.1558656.375928.3413603.74007.5087021 1.111528.4915924 1.090801.4102168 2.089551-.4534086 2.997264-7.6576576 8.048926-14.0892555 17.076281-21.3750891 25.422495-1.3472886 1.543337-2.5762697 3.184416-3.928566 4.723486-.4168937.474482-1.020117.307245-1.4094681-.181258-.2512213-.31517-.431917-.688254-.6161598-1.049145-9.7851094-19.17213-17.9723348-38.974398-24.2493189-59.490319-5.23850554-17.122205-9.35903482-34.503698-12.04610064-52.20341-1.01510912-6.685221-1.44514815-13.459446-3.08893636-20.053428-.13625205-.546823.04799077-1.063572.40959079-1.504322-.00438176.002235.25518571.128019.25518571.128019z" fill="#11caf0" mask="url(#c)"/><path d="m279.566895 599.24057c-14.520756-.288142-25.580541-6.897568-32.443432-19.791701-6.101713-11.464385-4.370914-29.037094 6.962209-39.814037 13.918576-13.234906 34.387891-14.061947 49.183445-2.001767 7.180254 5.852896 11.35399 13.595796 12.844625 22.591857.906819 5.47392-.221801 10.855789-2.13684 15.949309-4.815144 12.80716-14.524302 20.098947-28.121339 22.643472-1.893967.354389-3.873899.273106-6.288668.422867m402.939166-393.607627c.770982 15.276295-11.002198 31.725489-32.910194 31.88358-17.051537.12294-32.453445-13.973755-32.050949-32.050005.377459-16.946432 14.42707-30.725315 32.107287-30.812718 20.560498-.099952 34.124985 17.936063 32.853856 30.979143m-63.341829 412.34925c.576723 17.909215-15.97738 30.824682-32.004419 30.551373-14.636559-.249738-29.618442-11.184777-30.587856-29.493492.620959-22.31875 17.553145-31.710451 31.472139-31.572271 19.619879.194873 31.865453 16.592451 31.120136 30.51439m-34.947359-369.559c3.454084-.098959 7.39183.729504 11.157438 2.185262 7.174828 2.77435 12.36263 7.652473 15.468675 14.543338.945627 2.097678 1.798403 4.261602 2.411016 6.469621 1.712854 6.17152.555232 12.167268-2.053379 17.808426-5.30131 11.465197-14.644906 17.298383-27.513318 17.755998-11.697854.415961-20.280483-5.082547-26.517821-14.131035-4.166226-6.043908-5.418158-13.015649-3.910414-20.237938 1.995791-9.560156 7.306491-16.818414 16.235278-21.451677 4.413273-2.290114 9.138486-3.111465 14.722525-2.941995m-208.630902-85.768222c-6.569102.111763-13.699487-2.549199-19.193596-8.513857-13.656086-14.825792-8.076012-37.460932 8.971145-44.825059 15.768933-6.81202 36.335898.96136 40.216892 20.149544 2.806834 13.87825-6.519025 33.23042-29.994441 33.189372m209.162931 347.83072c.360348-9.950919 4.294131-18.138025 13.055161-23.959017 10.02548-6.661242 29.850466-5.879922 38.736896 8.791232 6.450168 10.648926 5.834217 21.100336-.961693 31.357078-6.305362 9.51667-25.315965 16.577821-39.65227 5.646034-7.283746-5.55378-10.892234-12.766723-11.178094-21.835327m-421.209857 113.253405c14.70771.533816 29.422307.465135 44.135234.41474 7.912426-.02723 15.831321.178615 23.737905-.342197.37391-.024588.800402.002236.97755.496224.176106.490944-.123941.812616-.417519 1.042237-3.612453 2.823728-6.213346 6.539929-9.231547 9.886095-5.772037 6.399313-11.526965 12.813053-17.274799 19.233295-1.276972 1.426496-2.483418 2.912733-3.744115 4.353451-.719236.821963-1.435342 1.655709-2.235744 2.399235-1.48375 1.378133-2.133293 1.37224-3.467229.002033-1.241292-1.275109-2.416857-2.610365-3.641247-3.901322-9.700604-10.228293-19.406216-20.451912-29.109324-30.677969-.376623-.396656-.822729-.759172-1.08626-1.219023-.172767-.301149-.218045-.828059-.056129-1.109903.159622-.277781.646624-.386494 1.001964-.543572.11789-.05202.27313-.024385.41126-.033324m522.631006-14.204069c-10.734283.32533-19.802869-8.814193-19.824941-18.052677-.032805-13.917469 9.89899-19.782151 19.502152-19.922362 10.077644-.147324 19.331515 7.72583 19.446902 19.295678.101824 10.20716-8.908338 18.724066-19.124113 18.679361m-575.504962-285.298187c.119768-3.895022.918293-8.034092 3.895807-11.339211 4.176866-4.636717 9.546825-7.009941 15.913531-6.466369 9.806601.837201 15.551722 8.119234 16.485247 14.78251 1.640032 11.70823-8.002566 20.373474-17.422319 20.653084-5.044873.149761-9.879422-.994077-13.698444-4.813303-3.508543-3.508934-5.142107-7.614272-5.173822-12.816711m627.436651 156.991584c-11.470211.483627-21.494232-12.024822-14.699156-25.214818 2.836254-5.50562 10.07076-8.721331 16.980805-8.023729 4.043535.408238 7.403931 2.029402 10.124383 5.003908 1.872892 2.048299 3.319709 4.332926 4.348171 6.856522 1.710559 4.19739.990698 8.24258-1.132164 12.099601-3.265459 5.93235-8.098129 9.479893-15.622039 9.278516m11.189362 79.546086c-8.502713-.072748-16.1466-7.742697-16.018903-16.074078.13959-9.135459 7.332573-16.109434 16.419729-15.92025 9.072551.188574 16.294119 7.41005 16.256852 16.255943-.037223 8.68394-7.585964 15.816008-16.657678 15.738385m50.614759-120.451678c.325711 1.304979-.238703 2.149699-1.003216 3.013115-1.717235 1.939789-3.333899 3.907825-6.009071 4.756203-1.814677.575475-3.507916.588479-5.243929-.098554-3.642082-1.441533-5.818153-4.123627-6.380895-7.833936-.533742-3.51889 1.22293-6.290597 3.952979-8.403721 3.301556-2.555498 8.611212-2.00766 11.780064 1.008911 2.227189 2.120234 3.122738 4.699914 2.904068 7.557982" fill="#e82440"/></g></g></svg>