<svg height="256" viewBox="0 0 256 256" width="256" xmlns="http://www.w3.org/2000/svg"><g fill="none" stroke-miterlimit="10" stroke-width="0" transform="matrix(2.81 0 0 2.81 1.406593 1.406593)"><path d="m90 90h-45c-24.853 0-45-20.147-45-45s20.147-45 45-45 45 20.147 45 45z" fill="#f800a4"/><path d="m54.215 22.5h-18.43c-7.338 0-13.285 5.948-13.285 13.285v18.429c0 7.338 5.948 13.285 13.285 13.285h18.429c7.338 0 13.285-5.948 13.285-13.285v-18.429c.001-7.337-5.947-13.285-13.284-13.285zm-9.215 33.229c-5.925 0-10.729-4.804-10.729-10.729s4.804-10.729 10.729-10.729c5.926 0 10.729 4.804 10.729 10.729s-4.804 10.729-10.729 10.729zm9.828-23.837c0-1.818 1.474-3.293 3.293-3.293s3.293 1.474 3.293 3.293c0 1.818-1.474 3.293-3.293 3.293-1.818 0-3.293-1.475-3.293-3.293z" fill="#fff"/></g></svg>