<svg height="254" viewBox="0 0 254 254" width="254" xmlns="http://www.w3.org/2000/svg"><path d="m126.45-0c-69.83693 0-126.45 56.61307-126.45 126.45s56.61307 126.45 126.45 126.45 126.45-56.61307 126.45-126.45-56.61307-126.45-126.45-126.45zm-38.81453 196.57636h-29.12565v-93.68259h29.12565zm-14.56142-106.48214c-9.3292 0-16.87405-7.56452-16.87405-16.87967 0-9.32358 7.54485-16.89091 16.87405-16.89091 9.30953 0 16.87405 7.56452 16.87405 16.89091 0 9.31515-7.56733 16.87967-16.87405 16.87967zm123.62595 106.48214h-29.10317v-45.55853c0-10.86627-.18827-24.8404-15.13185-24.8404-15.15152 0-17.46415 11.84415-17.46415 24.05922v46.33971h-29.10317v-93.68259h27.92859v12.81079h.39621c3.88623-7.36782 13.38684-15.13185 27.54924-15.13185 29.48533 0 34.9283 19.39743 34.9283 44.6228z" fill="#fff" transform="translate(.407 .407)"/></svg>