<svg height="256" viewBox="0 0 256 256" width="256" xmlns="http://www.w3.org/2000/svg"><path d="m45 0c-24.853 0-45 20.147-45 45s20.147 45 45 45 45-20.147 45-45-20.147-45-45-45zm25 25.993-3.992 3.827c-.344.262-.515.693-.444 1.12v28.12c-.071.427.099.858.444 1.12l3.898 3.827v.84h-19.607v-.84l4.038-3.92c.397-.397.397-.513.397-1.12v-22.73l-11.228 28.517h-1.517l-13.072-28.517v19.113c-.109.804.158 1.612.724 2.194l5.252 6.371v.84h-14.893v-.84l5.252-6.371c.562-.582.813-1.396.677-2.194v-22.1c.062-.614-.172-1.22-.63-1.633l-4.669-5.624v-.84h14.496l11.204 24.573 9.851-24.573h13.819z" fill="#1d1d1b" transform="matrix(2.81 0 0 2.81 1.406593 1.406593)"/></svg>