<svg xmlns="http://www.w3.org/2000/svg" width="253" height="253" viewBox="0 0 253 253"><g fill="none" fill-rule="evenodd"><circle cx="126.45" cy="126.45" r="126.45" fill="#FFF"/><path fill="#000" fill-rule="nonzero" d="M167.20298,120.70029 C166.478,120.35185 165.73897,120.01746 164.99151,119.69712 C163.69048,95.71939 150.58745,81.98973 128.58796,81.84923 C128.48961,81.84923 128.38845,81.84923 128.2901,81.84923 C115.13087,81.84923 104.18592,87.46642 97.45035,97.68639 L109.55021,105.98713 C114.58292,98.35236 122.47902,96.72537 128.29572,96.72537 C128.36316,96.72537 128.4306,96.72537 128.49804,96.72537 C135.74222,96.77033 141.20767,98.87783 144.74546,102.98605 C147.31942,105.97589 149.04195,110.1094 149.89619,115.32476 C143.47253,114.23448 136.52902,113.89728 129.10219,114.3244 C108.18455,115.52989 94.7387,127.7281 95.64071,144.68083 C96.09874,153.27943 100.38399,160.67535 107.70123,165.50855 C113.88885,169.59429 121.86082,171.5922 130.1447,171.13979 C141.08403,170.54126 149.66577,166.3656 155.65388,158.73364 C160.20046,152.93661 163.0779,145.42829 164.34521,135.96421 C169.55776,139.11141 173.42151,143.25054 175.55711,148.22705 C179.18482,156.68796 179.39838,170.59184 168.0516,181.92457 C158.11263,191.85511 146.16451,196.1516 128.10745,196.28367 C108.07777,196.13474 92.92906,189.71108 83.08001,177.19253 C73.85759,165.46359 69.08902,148.53053 68.91199,126.857 C69.08902,105.18347 73.85478,88.2476 83.08001,76.52428 C92.92906,64.00292 108.07777,57.58207 128.10464,57.43314 C148.28044,57.58207 163.69048,64.03664 173.91607,76.61701 C178.92911,82.78496 182.71137,90.54618 185.20384,99.59157 L199.3831,95.80931 C196.36235,84.67609 191.60783,75.07994 185.14202,67.12202 C172.03337,50.99262 152.86074,42.72841 128.15522,42.557 L128.05687,42.557 C103.40193,42.72841 84.44567,51.02353 71.70794,67.21475 C60.37521,81.62162 54.5276,101.66816 54.3309,126.79799 L54.3309,126.857 L54.3309,126.91601 C54.5276,152.04584 60.3724,172.09238 71.70794,186.49925 C84.44286,202.69047 103.40193,210.98559 128.05687,211.157 L128.15522,211.157 C150.07322,211.00526 165.5226,205.26724 178.2519,192.54918 C194.90396,175.91398 194.40378,155.06097 188.91304,142.25861 C184.97623,133.08115 177.46791,125.62341 167.20298,120.70029 Z M129.3579,156.28051 C120.18887,156.79755 110.66578,152.6809 110.19651,143.86874 C109.84807,137.33268 114.84706,130.04073 129.9199,129.17244 C131.64524,129.07409 133.33967,129.02351 135.00319,129.02351 C140.47707,129.02351 145.5997,129.5546 150.25587,130.57463 C148.5221,152.26502 138.33304,155.78876 129.3579,156.28051 Z"/></g></svg>