<svg height="256" viewBox="0 0 256 256" width="256" xmlns="http://www.w3.org/2000/svg"><g fill="none" stroke-miterlimit="10" stroke-width="0" transform="matrix(2.81 0 0 2.81 1.406593 1.406593)"><path d="m90 90h-45c-24.853 0-45-20.147-45-45s20.147-45 45-45 45 20.147 45 45z" fill="#2ab540"/><path d="m62.868 29.04c-4.21-4.215-9.809-6.537-15.774-6.54-12.291 0-22.294 10.003-22.299 22.297-.002 3.93 1.025 7.766 2.976 11.148l-3.163 11.555 11.821-3.101c3.257 1.776 6.924 2.713 10.656 2.714h.009c12.289 0 22.293-10.004 22.298-22.299.003-5.958-2.314-11.56-6.524-15.774zm-4.017 24.029c-.628 1.757-3.286 3.059-4.476 3.237-.407.061-.911.119-1.487.119-.715 0-1.54-.089-2.428-.372-.921-.293-1.954-.641-3.261-1.206-4.747-2.05-8.177-6.258-9.8-8.584l-.087-.122c-.737-.983-2.449-3.566-2.449-6.296 0-2.923 1.461-4.481 2.084-5.146l.102-.109c.817-.893 1.776-.989 2.15-.989.387 0 .774.004 1.112.02.689-.036 1.481.166 2.041 1.51l.63 1.528c.411 1.002.975 2.374 1.063 2.554.31.618.326 1.217.047 1.778l-.074.151c-.151.308-.293.598-.605.962l-.27.325c-.213.26-.428.519-.615.704-.019.02-.049.049-.077.079.436.745 1.452 2.32 2.897 3.609 1.673 1.492 3.103 2.112 3.872 2.445.171.075.31.135.412.186.056.028.1.047.134.061.463-.529 1.379-1.617 1.687-2.079.783-1.179 1.851-.793 2.31-.625.642.233 3.87 1.837 3.902 1.853l.29.142c.482.232.897.433 1.148.853.395.661.174 2.218-.252 3.412z" fill="#fff"/></g></svg>