<svg height="44" viewBox="0 0 300 44" width="300" xmlns="http://www.w3.org/2000/svg"><g fill="none" fill-rule="evenodd"><path d="m7.6916556 0h284.6166884c2.674557 0 3.644415.27847683 4.622193.80139811s1.745144 1.290287 2.268065 2.26806478.801398 1.94763649.801398 4.62219271v28.6166888c0 2.6745562-.278477 3.6444149-.801398 4.6221927s-1.290287 1.7451435-2.268065 2.2680648-1.947636.8013981-4.622193.8013981h-284.6166884c-2.67455622 0-3.64441493-.2784768-4.62219271-.8013981s-1.7451435-1.290287-2.26806478-2.2680648-.80139811-1.9476365-.80139811-4.6221927v-28.6166888c0-2.67455622.27847683-3.64441493.80139811-4.62219271s1.290287-1.7451435 2.26806478-2.26806478 1.94763649-.80139811 4.62219271-.80139811z" fill="#000"/><g fill="#fff" fill-rule="nonzero" transform="translate(100.933357 13.796)"><path d="m2.52 12.894h2.646c1.372 0 2.5025-.4375 3.3915-1.3125s1.3335-2.1385 1.3335-3.7905c0-1.666-.441-2.9435-1.323-3.8325s-2.009-1.3335-3.381-1.3335h-2.667zm2.73 2.31h-5.25v-14.889h5.271c2.1 0 3.8325.665 5.1975 1.995s2.0475 3.157 2.0475 5.481c0 2.31-.686 4.123-2.058 5.439s-3.108 1.974-5.208 1.974z"/><path d="m17.85 12.474c.56.574 1.239.861 2.037.861s1.4735-.287 2.0265-.861.8295-1.372.8295-2.394c0-1.008-.2765-1.7955-.8295-2.3625s-1.2285-.8505-2.0265-.8505-1.4735.2835-2.0265.8505-.8295 1.3545-.8295 2.3625.273 1.806.819 2.394zm2.037-7.812c1.54 0 2.8105.511 3.8115 1.533s1.5015 2.317 1.5015 3.885-.5005 2.8665-1.5015 3.8955-2.2715 1.5435-3.8115 1.5435c-1.526 0-2.7895-.5145-3.7905-1.5435s-1.5015-2.3275-1.5015-3.8955.5005-2.863 1.5015-3.885 2.2645-1.533 3.7905-1.533z"/><path d="m33.495 4.977h2.52l2.415 7.077 2.037-7.077h2.478l-3.276 10.227h-2.436l-2.541-7.35-2.478 7.35h-2.499l-3.318-10.227h2.604l2.079 7.077z"/><path d="m47.628 9.303v5.901h-2.436v-10.227h2.373v1.365c.322-.56.7525-.9765 1.2915-1.2495s1.1165-.4095 1.7325-.4095c1.204 0 2.121.378 2.751 1.134s.945 1.729.945 2.919v6.468h-2.436v-6.048c0-.686-.168-1.2355-.504-1.6485s-.868-.6195-1.596-.6195c-.672 0-1.1935.2275-1.5645.6825s-.5565 1.0325-.5565 1.7325z"/><path d="m60.081 15.204h-2.436v-15.204h2.436z"/><path d="m66.087 12.474c.56.574 1.239.861 2.037.861s1.4735-.287 2.0265-.861.8295-1.372.8295-2.394c0-1.008-.2765-1.7955-.8295-2.3625s-1.2285-.8505-2.0265-.8505-1.4735.2835-2.0265.8505-.8295 1.3545-.8295 2.3625.273 1.806.819 2.394zm2.037-7.812c1.54 0 2.8105.511 3.8115 1.533s1.5015 2.317 1.5015 3.885-.5005 2.8665-1.5015 3.8955-2.2715 1.5435-3.8115 1.5435c-1.526 0-2.7895-.5145-3.7905-1.5435s-1.5015-2.3275-1.5015-3.8955.5005-2.863 1.5015-3.885 2.2645-1.533 3.7905-1.533z"/><path d="m75.558 12.432c0-.868.2835-1.5645.8505-2.0895s1.3125-.8575 2.2365-.9975l2.625-.399c.504-.07.756-.315.756-.735 0-.462-.161-.8365-.483-1.1235s-.805-.4305-1.449-.4305c-.616 0-1.106.1715-1.47.5145s-.574.7875-.63 1.3335l-2.226-.504c.098-.924.539-1.7115 1.323-2.3625s1.778-.9765 2.982-.9765c1.484 0 2.5795.357 3.2865 1.071s1.0605 1.631 1.0605 2.751v5.082c0 .672.042 1.218.126 1.638h-2.268c-.07-.21-.105-.644-.105-1.302-.672 1.078-1.722 1.617-3.15 1.617-1.036 0-1.8725-.3045-2.5095-.9135s-.9555-1.3335-.9555-2.1735zm3.927 1.176c.756 0 1.3685-.2065 1.8375-.6195s.7035-1.0885.7035-2.0265v-.462l-2.667.399c-.91.154-1.365.616-1.365 1.386 0 .364.133.6755.399.9345s.63.3885 1.092.3885z"/><path d="m89.376 10.059c0 .98.252 1.7675.756 2.3625s1.169.8925 1.995.8925c.798 0 1.449-.301 1.953-.903s.756-1.393.756-2.373c0-.966-.245-1.736-.735-2.31s-1.141-.861-1.953-.861-1.477.2905-1.995.8715-.777 1.3545-.777 2.3205zm7.812-10.059v13.335c0 .686.035 1.309.105 1.869h-2.331c-.07-.392-.105-.833-.105-1.323-.252.462-.644.84-1.176 1.134s-1.141.441-1.827.441c-1.456 0-2.639-.511-3.549-1.533s-1.365-2.31-1.365-3.864c0-1.498.4585-2.765 1.3755-3.801s2.0825-1.554 3.4965-1.554c.812 0 1.4665.147 1.9635.441s.8435.637 1.0395 1.029v-6.174z"/></g></g></svg>