<svg height="256" viewBox="0 0 256 256" width="256" xmlns="http://www.w3.org/2000/svg"><g fill="none" stroke-miterlimit="10" stroke-width="0" transform="matrix(2.81 0 0 2.81 1.406593 1.406593)"><path d="m90 90h-45c-24.853 0-45-20.147-45-45 0-24.853 20.147-45 45-45 24.853 0 45 20.147 45 45z" fill="#3c5a99"/><path d="m48.484 67.5v-20.527h6.89l1.032-8h-7.921v-5.107c0-2.316.643-3.894 3.964-3.894l4.236-.002v-7.155c-.733-.098-3.247-.315-6.173-.315-6.107 0-10.289 3.728-10.289 10.574v5.9h-6.908v8h6.908v20.526z" fill="#fff"/></g></svg>