<svg height="256" viewBox="0 0 256 256" width="256" xmlns="http://www.w3.org/2000/svg"><g fill="none" stroke-miterlimit="10" stroke-width="0" transform="matrix(2.81 0 0 2.81 1.406593 1.406593)"><path d="m90 90h-45c-24.853 0-45-20.147-45-45 0-24.853 20.147-45 45-45 24.853 0 45 20.147 45 45z" fill="#007ef3"/><path d="m46 21.5c-12.426 0-22.5 10.073-22.5 22.5 0 4.572 1.368 8.823 3.71 12.373l-3.71 9.864 9.768-3.687c3.621 2.49 8.006 3.95 12.732 3.95 12.426 0 22.5-10.074 22.5-22.5s-10.074-22.5-22.5-22.5zm2.89 28.745-6.155-5.78-10.535 5.78 11.935-12.49 5.78 5.595 9.885-5.04z" fill="#fff"/></g></svg>