<svg height="256" viewBox="0 0 256 256" width="256" xmlns="http://www.w3.org/2000/svg"><g fill="none" stroke-miterlimit="10" stroke-width="0" transform="matrix(2.81 0 0 2.81 1.406593 1.406593)"><path d="m90 90h-45c-24.853 0-45-20.147-45-45s20.147-45 45-45 45 20.147 45 45z" fill="#3b4249"/><path d="m8.478 18.772s.711.334 1.205 1.588c0 0 .637 1.937 3.657 1.281.003.576.008 1.131.011 1.525.002.197.162.355.359.355h4.669c.198 0 .358-.158.359-.356.004-.556.01-1.447.01-2.482 0-1.013-.347-1.673-.736-2.01 2.417-.269 4.956-1.186 4.956-5.355 0-1.185-.421-2.153-1.117-2.913.113-.273.484-1.377-.107-2.872 0 0-.91-.291-2.982 1.113-.867-.241-1.797-.361-2.719-.365-.922.004-1.851.125-2.717.365-2.074-1.404-2.985-1.113-2.985-1.113-.589 1.495-.218 2.599-.105 2.872-.694.76-1.118 1.728-1.118 2.913 0 4.159 2.534 5.089 4.945 5.364-.31.271-.592.75-.689 1.451-.619.277-2.191.757-3.159-.902 0 0-.574-1.042-1.664-1.119.001 0-1.058-.014-.073.66z" fill="#fff" transform="matrix(2.81 0 0 2.81 1.406593 1.406593)"/></g></svg>