<svg height="256" viewBox="0 0 256 256" width="256" xmlns="http://www.w3.org/2000/svg"><g stroke-miterlimit="10" stroke-width="0" transform="matrix(2.81 0 0 2.81 1.406593 1.406593)"><path d="m60.961 31.655c0-1.437-1.165-2.602-2.602-2.602s-2.602 1.165-2.602 2.602 1.165 2.602 2.602 2.602c1.438-.001 2.602-1.165 2.602-2.602z"/><path d="m45 33.079c-6.584 0-11.921 5.337-11.921 11.921 0 1.646.334 3.214.937 4.64s1.476 2.711 2.555 3.789c2.157 2.157 5.138 3.492 8.43 3.492s6.272-1.334 8.43-3.492c1.079-1.079 1.952-2.363 2.555-3.789s.937-2.994.937-4.64c-.002-6.584-5.339-11.921-11.923-11.921z"/><path d="m45 0c-24.853 0-45 20.147-45 45s20.147 45 45 45 45-20.147 45-45-20.147-45-45-45zm25 55.238c0 8.153-6.609 14.762-14.762 14.762h-20.476c-8.153 0-14.762-6.609-14.762-14.762v-20.476c0-3.057.929-5.897 2.521-8.253 2.653-3.927 7.145-6.509 12.241-6.509h20.477c5.095 0 9.588 2.582 12.241 6.508 1.591 2.356 2.52 5.196 2.52 8.254z"/></g></svg>