<svg height="256" viewBox="0 0 256 256" width="256" xmlns="http://www.w3.org/2000/svg"><g fill="none" stroke-miterlimit="10" stroke-width="0" transform="matrix(2.81 0 0 2.81 1.406593 1.406593)"><path d="m90 90h-45c-24.853 0-45-20.147-45-45 0-24.853 20.147-45 45-45 24.853 0 45 20.147 45 45z" fill="#069"/><g fill="#fff"><path d="m23.201 37.442h9.345v30.058h-9.345zm4.673-14.942c2.987 0 5.414 2.427 5.414 5.419 0 2.989-2.427 5.416-5.414 5.416-2.994 0-5.414-2.427-5.414-5.416 0-2.992 2.42-5.419 5.414-5.419"/><path d="m38.406 37.442h8.961v4.11h.128c1.247-2.364 4.296-4.855 8.839-4.855 9.46 0 11.206 6.224 11.206 14.317v16.486h-9.338v-14.617c0-3.487-.061-7.97-4.855-7.97-4.862 0-5.603 3.8-5.603 7.72v14.867h-9.338z"/></g></g></svg>