<svg height="256" viewBox="0 0 256 256" width="256" xmlns="http://www.w3.org/2000/svg"><g fill="none" stroke-miterlimit="10" stroke-width="0" transform="matrix(2.81 0 0 2.81 1.406593 1.406593)"><path d="m90 90h-45c-24.853 0-45-20.147-45-45 0-24.853 20.147-45 45-45 24.853 0 45 20.147 45 45z" fill="#1c1c1c"/><path d="m27.836 34.425c.056-.552-.155-1.098-.567-1.47l-4.202-5.062v-.756h13.047l10.084 22.116 8.866-22.116h12.436v.756l-3.592 3.444c-.31.236-.463.624-.399 1.008v25.308c-.064.384.089.772.399 1.008l3.508 3.444v.756h-17.647v-.756l3.634-3.529c.357-.357.357-.462.357-1.008v-20.454l-10.105 25.664h-1.365l-11.765-25.664v17.201c-.098.723.142 1.451.651 1.974l4.727 5.734v.756h-13.403v-.756l4.727-5.734c.505-.524.732-1.257.609-1.974z" fill="#fff"/></g></svg>