<svg height="256" viewBox="0 0 256 256" width="256" xmlns="http://www.w3.org/2000/svg"><g fill="none" stroke-miterlimit="10" stroke-width="0" transform="matrix(2.81 0 0 2.81 1.406593 1.406593)"><path d="m90 90h-45c-24.853 0-45-20.147-45-45 0-24.853 20.147-45 45-45 24.853 0 45 20.147 45 45z" fill="#ff4500"/><path d="m68.057 45.31c-.103-2.788-2.444-4.966-5.241-4.871-1.239.043-2.418.551-3.313 1.403-3.942-2.685-8.572-4.157-13.331-4.26l2.246-10.801 7.41 1.558c.206 1.902 1.91 3.279 3.812 3.072 1.902-.206 3.279-1.91 3.072-3.812s-1.91-3.279-3.812-3.072c-1.093.112-2.074.749-2.616 1.696l-8.486-1.696c-.576-.129-1.153.232-1.283.818v.017l-2.555 12.013c-4.819.078-9.51 1.558-13.503 4.26-2.031-1.91-5.233-1.816-7.143.224-1.91 2.031-1.816 5.233.224 7.143.396.37.852.689 1.36.912-.035.508-.035 1.016 0 1.523 0 7.754 9.036 14.062 20.181 14.062s20.181-6.3 20.181-14.062c.035-.508.035-1.016 0-1.523 1.738-.869 2.832-2.659 2.797-4.604zm-34.623 3.468c0-1.91 1.558-3.468 3.468-3.468s3.468 1.558 3.468 3.468-1.558 3.468-3.468 3.468c-1.918-.017-3.468-1.558-3.468-3.468zm20.113 9.656v-.138c-2.461 1.85-5.473 2.797-8.555 2.668-3.081.129-6.093-.818-8.555-2.668-.327-.396-.267-.989.129-1.316.344-.284.835-.284 1.188 0 2.083 1.523 4.622 2.298 7.203 2.177 2.582.138 5.13-.602 7.238-2.108.379-.37.998-.362 1.369.017.37.378.362.998-.017 1.368zm-.473-5.938c-.06 0-.112 0-.172 0l.026-.129c-1.91 0-3.468-1.558-3.468-3.468s1.558-3.468 3.468-3.468 3.468 1.558 3.468 3.468c.077 1.91-1.412 3.519-3.322 3.597z" fill="#fff"/></g></svg>