<svg height="256" viewBox="0 0 256 256" width="256" xmlns="http://www.w3.org/2000/svg"><g fill="#000" stroke-miterlimit="10" stroke-width="0" transform="matrix(2.81 0 0 2.81 1.406593 1.406593)"><path d="m45 0c-24.853 0-45 20.147-45 45s20.147 45 45 45 45-20.147 45-45-20.147-45-45-45zm24.985 55.614c-.276 5.334-4.566 9.7-9.894 10.067-1.268.087-2.493-.049-3.639-.372-1.298-.366-2.684-.276-3.95.188-2.339.858-4.866 1.327-7.503 1.327-12.053 0-21.824-9.771-21.824-21.824 0-.008 0-.016 0-.024.002-1.353-.366-2.693-1.159-3.789-1.37-1.894-2.134-4.256-2.002-6.802.276-5.334 4.566-9.7 9.894-10.067 1.268-.087 2.493.049 3.639.372 1.298.366 2.684.276 3.95-.188 2.34-.858 4.866-1.327 7.503-1.327 12.053 0 21.824 9.771 21.824 21.824v.024c-.002 1.353.366 2.692 1.159 3.789 1.371 1.895 2.134 4.257 2.002 6.802z"/><path d="m45.617 35.839c3.514.334 5.859 2.943 5.937 3.043 1.078 1.443 3.12 1.749 4.574.68 1.461-1.074 1.774-3.128.701-4.589-.171-.233-4.269-5.699-11.211-5.699-10.995 0-11.849 6.854-11.849 8.955 0 6.746 6.326 8.25 10.511 9.246 4.938 1.174 6.165 2.187 6.004 3.566-.131 1.129-1.147 2.452-5.593 2.311-3.692-.117-6.299-3.111-6.309-3.123-1.13-1.417-3.196-1.65-4.613-.52-1.418 1.13-1.65 3.196-.52 4.613.182.228 4.541 5.594 11.442 5.594 2.246 0 4.852-.134 7.154-1.125 3.227-1.39 5.004-4.142 5.004-7.751 0-7.325-6.65-8.906-11.05-9.953-4.712-1.12-5.466-1.625-5.466-3.126 0-1.416 2.626-2.375 5.284-2.122z"/></g></svg>