<svg height="254" viewBox="0 0 254 254" width="254" xmlns="http://www.w3.org/2000/svg"><g fill="#fff" transform="translate(.407 .407)"><path d="m126.45 0c-69.83693 0-126.45 56.61307-126.45 126.45s56.61307 126.45 126.45 126.45 126.45-56.61307 126.45-126.45-56.61307-126.45-126.45-126.45zm70.20785 156.27534c-.77556 14.98854-12.83046 27.257-27.80214 28.28827-3.56308.24447-7.00533-.13769-10.22559-1.04532-3.64738-1.02846-7.54204-.77556-11.0995.52828-6.57259 2.41098-13.67346 3.72887-21.08343 3.72887-33.86893 0-61.32544-27.45651-61.32544-61.32544 0-.02248 0-.04496 0-.06744.00562-3.80193-1.02846-7.56733-3.25679-10.64709-3.8497-5.32214-5.99654-11.95936-5.62562-19.11362.77556-14.98854 12.83046-27.257 27.80214-28.28827 3.56308-.24447 7.00533.13769 10.22559 1.04532 3.64738 1.02846 7.54204.77556 11.0995-.52828 6.5754-2.41098 13.67346-3.72887 21.08343-3.72887 33.86893 0 61.32544 27.45651 61.32544 61.32544v.06744c-.00562 3.80193 1.02846 7.56452 3.25679 10.64709 3.85251 5.32495 5.99654 11.96217 5.62562 19.11362z"/><path d="m128.18377 100.70759c9.87434.93854 16.46379 8.26983 16.68297 8.55083 3.02918 4.05483 8.7672 4.91469 12.85294 1.9108 4.10541-3.01794 4.98494-8.78968 1.96981-12.89509-.48051-.65473-11.99589-16.01419-31.50291-16.01419-30.89595 0-33.29569 19.25974-33.29569 25.16355 0 18.95626 17.77606 23.1825 29.53591 25.98126 13.87578 3.29894 17.32365 6.14547 16.87124 10.02046-.36811 3.17249-3.22307 6.89012-15.71633 6.49391-10.37452-.32877-17.70019-8.74191-17.72829-8.77563-3.1753-3.98177-8.98076-4.6365-12.96253-1.4612-3.98458 3.1753-4.6365 8.98076-1.4612 12.96253.51142.64068 12.76021 15.71914 32.15202 15.71914 6.31126 0 13.63412-.37654 20.10274-3.16125 9.06787-3.9059 14.06124-11.63902 14.06124-21.78031 0-20.58325-18.6865-25.02586-31.0505-27.96793-13.24072-3.1472-15.35946-4.56625-15.35946-8.78406 0-3.97896 7.37906-6.67375 14.84804-5.96282z"/></g></svg>