<svg height="256" viewBox="0 0 256 256" width="256" xmlns="http://www.w3.org/2000/svg"><g fill="none" stroke-miterlimit="10" stroke-width="0" transform="matrix(2.81 0 0 2.81 1.406593 1.406593)"><path d="m90 90h-45c-24.853 0-45-20.147-45-45 0-24.853 20.147-45 45-45 24.853 0 45 20.147 45 45z" fill="#1f9bda"/><path d="m37.129 52.037 16.676 12.32c1.904 1.05 3.276.507 3.751-1.767l6.788-31.988c.695-2.786-1.062-4.051-2.883-3.224l-39.861 15.37c-2.721 1.092-2.704 2.61-.496 3.286l10.229 3.193 23.681-14.94c1.118-.678 2.144-.314 1.302.434z" fill="#fcfdff"/></g></svg>