<svg xmlns="http://www.w3.org/2000/svg" xmlns:xlink="http://www.w3.org/1999/xlink" version="1.1" width="256" height="256" viewBox="0 0 256 256" xml:space="preserve">

<defs>
</defs>
<g style="stroke: none; stroke-width: 0; stroke-dasharray: none; stroke-linecap: butt; stroke-linejoin: miter; stroke-miterlimit: 10; fill: none; fill-rule: nonzero; opacity: 1;" transform="translate(1.4065934065934016 1.4065934065934016) scale(2.81 2.81)" >
	<path d="M 90 90 H 45 C 20.147 90 0 69.853 0 45 v 0 C 0 20.147 20.147 0 45 0 h 0 c 24.853 0 45 20.147 45 45 V 90 z" style="stroke: none; stroke-width: 1; stroke-dasharray: none; stroke-linecap: butt; stroke-linejoin: miter; stroke-miterlimit: 10; fill: rgb(248,0,164); fill-rule: nonzero; opacity: 1;" transform=" matrix(1 0 0 1 0 0) " stroke-linecap="round" />
	<path d="M 57.922 43.028 c -0.233 -0.111 -0.469 -0.219 -0.708 -0.322 c -0.417 -7.68 -4.613 -12.077 -11.66 -12.122 c -0.032 0 -0.064 0 -0.096 0 c -4.215 0 -7.72 1.799 -9.877 5.073 l 3.875 2.658 c 1.612 -2.445 4.141 -2.967 6.004 -2.967 c 0.022 0 0.043 0 0.064 0 c 2.32 0.015 4.071 0.689 5.204 2.005 c 0.825 0.958 1.376 2.281 1.649 3.952 c -2.057 -0.35 -4.282 -0.457 -6.66 -0.321 c -6.699 0.386 -11.006 4.293 -10.717 9.722 c 0.147 2.754 1.519 5.123 3.863 6.671 c 1.982 1.308 4.535 1.948 7.188 1.803 c 3.504 -0.192 6.252 -1.529 8.17 -3.973 c 1.456 -1.856 2.377 -4.262 2.784 -7.293 c 1.67 1.008 2.907 2.334 3.591 3.928 c 1.162 2.71 1.23 7.163 -2.404 10.793 c -3.183 3.18 -7.01 4.556 -12.793 4.599 c -6.415 -0.048 -11.267 -2.105 -14.421 -6.115 c -2.954 -3.755 -4.48 -9.179 -4.537 -16.12 c 0.057 -6.942 1.584 -12.366 4.537 -16.12 c 3.154 -4.01 8.006 -6.067 14.421 -6.115 c 6.462 0.048 11.398 2.115 14.673 6.145 c 1.606 1.976 2.817 4.461 3.615 7.358 l 4.541 -1.212 c -0.968 -3.566 -2.49 -6.639 -4.562 -9.188 c -4.199 -5.166 -10.34 -7.813 -18.252 -7.868 h -0.032 c -7.896 0.055 -13.968 2.712 -18.047 7.897 c -3.63 4.614 -5.502 11.035 -5.565 19.084 l 0 0.019 l 0 0.019 c 0.063 8.048 1.935 14.469 5.565 19.084 c 4.079 5.185 10.151 7.843 18.047 7.897 h 0.032 c 7.02 -0.049 11.968 -1.887 16.045 -5.959 c 5.333 -5.328 5.173 -12.007 3.415 -16.107 C 63.614 46.993 61.21 44.605 57.922 43.028 z M 45.801 54.424 c -2.936 0.165 -5.987 -1.153 -6.137 -3.975 c -0.111 -2.093 1.49 -4.429 6.317 -4.707 c 0.553 -0.032 1.095 -0.047 1.628 -0.047 c 1.754 0 3.394 0.17 4.886 0.496 C 51.939 53.138 48.676 54.266 45.801 54.424 z" style="stroke: none; stroke-width: 1; stroke-dasharray: none; stroke-linecap: butt; stroke-linejoin: miter; stroke-miterlimit: 10; fill: rgb(255,255,255); fill-rule: nonzero; opacity: 1;" transform=" matrix(1 0 0 1 0 0) " stroke-linecap="round" />
</g>
</svg>