<svg xmlns="http://www.w3.org/2000/svg" width="254" height="254" viewBox="0 0 254 254"><g fill="none" transform="translate(.407 .407)"><path fill="#FFF" d="M126.45,0 C81.39727,0 41.87462,23.58152 19.47892,59.05215 C27.14741,64.58785 36.53281,67.8896 46.71625,67.8896 L137.75744,67.8896 C185.75224,67.8896 228.02307,92.34784 252.82132,129.47075 C252.84661,128.46196 252.9,127.4616 252.9,126.45 C252.9,56.61307 196.28693,0 126.45,0 Z"/><path fill="#FFF" d="M252.9,126.45 C252.9,123.05833 252.72578,119.70881 252.46445,116.38177 C227.61562,77.93535 185.5162,58.68685 137.75744,58.68685 L46.71625,58.68685 C37.83946,58.68685 29.57244,57.29871 22.51091,54.46061 C9.51747,73.18926 1.4331,95.57934 0.17703,119.78749 C25.53166,151.05436 64.22817,171.06156 107.62019,171.06156 L109.71083,171.06156 C135.10761,171.06156 146.52464,182.13858 147.16532,207.38081 C147.17656,206.97898 147.22714,206.58839 147.22714,206.18375 C147.22714,229.83552 137.34718,249.3313 115.83382,252.42511 C119.33789,252.71454 122.87006,252.9 126.45,252.9 C196.28693,252.9 252.9,196.28693 252.9,126.45 Z"/><path fill="#FFF" d="M115.9687,252.43354 C138.41498,249.42122 155.78359,230.50992 156.37088,207.378 C155.7302,182.13577 135.11042,161.856 109.71364,161.856 L107.623,161.856 C64.64124,161.856 26.28193,142.20848 0.91887,111.45022 C0.33439,116.37334 0,121.37233 0,126.45 C0,192.75195 51.04084,247.10016 115.9687,252.43354 Z"/><path d="M166.79598,120.29329 C166.071,119.94485 165.33197,119.61046 164.58451,119.29012 C163.28348,95.31239 150.18045,81.58273 128.18096,81.44223 C128.08261,81.44223 127.98145,81.44223 127.8831,81.44223 C114.72387,81.44223 103.77892,87.05942 97.04335,97.27939 L109.14321,105.58013 C114.17592,97.94536 122.07202,96.31837 127.88872,96.31837 C127.95616,96.31837 128.0236,96.31837 128.09104,96.31837 C135.33522,96.36333 140.80067,98.47083 144.33846,102.57905 C146.91242,105.56889 148.63495,109.7024 149.48919,114.91776 C143.06553,113.82748 136.12202,113.49028 128.69519,113.9174 C107.77755,115.12289 94.3317,127.3211 95.23371,144.27383 C95.69174,152.87243 99.97699,160.26835 107.29423,165.10155 C113.48185,169.18729 121.45382,171.1852 129.7377,170.73279 C140.67703,170.13426 149.25877,165.9586 155.24688,158.32664 C159.79346,152.52961 162.6709,145.02129 163.93821,135.55721 C169.15076,138.70441 173.01451,142.84354 175.15011,147.82005 C178.77782,156.28096 178.99138,170.18484 167.6446,181.51757 C157.70563,191.44811 145.75751,195.7446 127.70045,195.87667 C107.67077,195.72774 92.52206,189.30408 82.67301,176.78553 C73.45059,165.05659 68.68202,148.12353 68.50499,126.45 C68.68202,104.77647 73.44778,87.8406 82.67301,76.11728 C92.52206,63.59592 107.67077,57.17507 127.69764,57.02614 C147.87344,57.17507 163.28348,63.62964 173.50907,76.21001 C178.52211,82.37796 182.30437,90.13918 184.79684,99.18457 L198.9761,95.40231 C195.95535,84.26909 191.20083,74.67294 184.73502,66.71502 C171.62637,50.58562 152.45374,42.32141 127.74822,42.15 L127.64987,42.15 C102.99493,42.32141 84.03867,50.61653 71.30094,66.80775 C59.96821,81.21462 54.1206,101.26116 53.9239,126.39099 L53.9239,126.45 L53.9239,126.50901 C54.1206,151.63884 59.9654,171.68538 71.30094,186.09225 C84.03586,202.28347 102.99493,210.57859 127.64987,210.75 L127.74822,210.75 C149.66622,210.59826 165.1156,204.86024 177.8449,192.14218 C194.49696,175.50698 193.99678,154.65397 188.50604,141.85161 C184.56923,132.67415 177.06091,125.21641 166.79598,120.29329 Z M128.9509,155.87351 C119.78187,156.39055 110.25878,152.2739 109.78951,143.46174 C109.44107,136.92568 114.44006,129.63373 129.5129,128.76544 C131.23824,128.66709 132.93267,128.61651 134.59619,128.61651 C140.07007,128.61651 145.1927,129.1476 149.84887,130.16763 C148.1151,151.85802 137.92604,155.38176 128.9509,155.87351 Z"/></g></svg>