<svg height="256" viewBox="0 0 256 256" width="256" xmlns="http://www.w3.org/2000/svg"><g fill="none" stroke-miterlimit="10" stroke-width="0" transform="matrix(2.81 0 0 2.81 1.406593 1.406593)"><path d="m90 90h-45c-24.853 0-45-20.147-45-45 0-24.853 20.147-45 45-45 24.853 0 45 20.147 45 45z" fill="#6e5de3"/><path d="m61.521 26.889c-1.118-1.032-5.637-4.312-15.703-4.357 0 0-11.87-.716-17.656 4.592-3.221 3.222-4.354 7.936-4.473 13.78-.12 5.845-.275 16.798 10.283 19.767h.01l-.006 4.532s-.068 1.834 1.14 2.209c1.461.454 2.319-.94 3.714-2.444.765-.825 1.823-2.037 2.62-2.964 7.221.607 12.774-.781 13.405-.986 1.458-.472 9.708-1.53 11.049-12.482 1.385-11.288-.67-18.428-4.383-21.647zm-6.068 24.529c0 .004-.004.013-.004.017-.465.806-1.055 1.532-1.748 2.153-.008.004-.008.008-.016.012-.602.504-1.194.789-1.775.858-.086.015-.173.021-.259.016-.257.002-.511-.036-.755-.116l-.019-.027c-.895-.253-2.39-.885-4.88-2.258-1.441-.785-2.812-1.691-4.1-2.708-.645-.509-1.261-1.055-1.844-1.635l-.062-.062-.062-.062-.062-.062c-.021-.02-.041-.041-.062-.062-.58-.583-1.126-1.198-1.635-1.844-1.017-1.287-1.923-2.659-2.708-4.099-1.373-2.49-2.005-3.984-2.258-4.881l-.027-.019c-.079-.243-.118-.498-.116-.755-.004-.086 0-.174.015-.259.073-.581.359-1.172.859-1.776.004-.008.008-.008.012-.015.62-.693 1.347-1.283 2.153-1.747.004 0 .012-.004.017-.004.81-.422 1.579-.279 2.101.337.004.004 1.088 1.305 1.553 1.941.479.674.924 1.371 1.333 2.089.533.957.199 1.936-.325 2.34l-1.057.84c-.534.431-.463 1.231-.463 1.231s1.565 5.924 7.414 7.417c0 0 .8.067 1.231-.464l.84-1.057c.405-.524 1.383-.858 2.34-.325.717.409 1.414.854 2.087 1.333.635.467 1.936 1.553 1.94 1.553.621.521.764 1.289.342 2.1zm-4.838-14.618c-1.184-1.292-2.807-1.997-4.96-2.155-.313-.023-.549-.296-.526-.609s.297-.549.61-.526c2.422.178 4.346 1.026 5.716 2.521 1.373 1.501 2.045 3.388 1.997 5.61-.006.31-.26.557-.569.557-.004 0-.009 0-.013 0-.315-.007-.563-.267-.557-.581.042-1.946-.513-3.522-1.698-4.817zm-.084 3.822c.015.314-.226.581-.54.597-.01 0-.019 0-.028 0-.302 0-.553-.237-.568-.541-.096-1.934-1.005-2.88-2.863-2.977-.314-.016-.555-.284-.539-.598s.283-.556.598-.539c2.451.128 3.814 1.531 3.94 4.058zm5.346 2.746c-.001 0-.003 0-.005 0-.312 0-.567-.252-.569-.565-.026-3.434-1.057-6.168-3.063-8.124-2.01-1.96-4.551-2.964-7.551-2.985-.314-.002-.567-.259-.565-.573.002-.313.256-.565.569-.565h.004c3.304.023 6.11 1.136 8.338 3.308 2.232 2.176 3.378 5.181 3.407 8.93.002.315-.251.571-.565.574z" fill="#fff"/></g></svg>