<svg height="256" viewBox="0 0 256 256" width="256" xmlns="http://www.w3.org/2000/svg"><g fill="none" stroke-miterlimit="10" stroke-width="0" transform="matrix(2.81 0 0 2.81 1.406593 1.406593)"><path d="m90 90h-45c-24.853 0-45-20.147-45-45 0-24.853 20.147-45 45-45 24.853 0 45 20.147 45 45z" fill="#2ab400"/><g fill="#fff"><path d="m71.077 46.691c-1.375-3.116-3.972-5.584-6.985-7.111-5.318-2.698-11.937-2.678-17.237.063-3.687 1.894-6.763 5.284-7.639 9.408-.721 3.035-.072 6.304 1.536 8.953 2.398 3.975 6.728 6.512 11.233 7.327 3.263.663 6.636.274 9.804-.648 1.897.741 3.597 1.934 5.439 2.817-.471-1.593-.978-3.175-1.522-4.745 2.061-1.473 3.94-3.3 5.07-5.601 1.682-3.203 1.782-7.169.301-10.463zm-18.512 1.19c-.467 1.473-2.615 1.917-3.647.792-1.141-1.035-.698-3.205.798-3.667 1.665-.699 3.578 1.214 2.849 2.875zm10.836.204c-.568 1.326-2.554 1.631-3.534.606-.475-.427-.591-1.075-.781-1.649.254-1.032.943-2.107 2.115-2.153 1.623-.223 3.047 1.746 2.2 3.196z"/><path d="m37.026 48.532c.947-4.458 4.241-8.548 8.8-10.891 3.415-1.766 7.315-2.518 11.148-2.265-1.257-4.301-4.423-7.911-8.32-10.068-5.636-3.174-12.66-3.652-18.725-1.461-3.984 1.435-7.593 4.101-9.821 7.734-2.02 3.274-2.778 7.359-1.802 11.106.977 4.159 3.859 7.644 7.371 9.974-.66 1.92-1.311 3.84-1.925 5.773 2.22-1.153 4.413-2.355 6.624-3.528 2.276.729 4.652 1.111 7.039 1.158-.809-2.467-.969-5.089-.389-7.532zm6.476-17.739c1.773-.697 3.871.799 3.733 2.71.017 2.173-2.877 3.528-4.506 2.052-1.688-1.208-1.209-4.151.773-4.762zm-9.955 3.258c-.392 1.888-2.923 2.799-4.401 1.534-1.712-1.208-1.234-4.208.781-4.811 1.971-.762 4.213 1.242 3.62 3.277z"/></g></g></svg>