<svg height="254" viewBox="0 0 254 254" width="254" xmlns="http://www.w3.org/2000/svg"><g fill="#fff" transform="translate(.407 .407)"><path d="m126.45 0c-69.83693 0-126.45 56.61307-126.45 126.45s56.61307 126.45 126.45 126.45 126.45-56.61307 126.45-126.45-56.61307-126.45-126.45-126.45zm1.27574 193.08072c-12.09424 0-23.45507-3.091-33.34065-8.51711l-38.18509 12.13639 12.45111-36.72108c-6.28035-10.3127-9.89682-22.40694-9.89682-35.33856-.00281-37.80012 30.87909-68.44036 68.97145-68.44036 38.10079 0 68.97426 30.64024 68.97426 68.44036s-30.87628 68.44036-68.97426 68.44036z"/><path d="m127.72574 67.09999c-31.9778 0-57.98997 25.81266-57.98997 57.54037 0 12.59161 4.10541 24.2503 11.04611 33.73686l-7.24418 21.37005 22.28611-7.08401c9.15498 6.01059 20.12522 9.51747 31.90474 9.51747 31.97218 0 57.98997-25.80985 57.98997-57.53756s-26.01498-57.54318-57.99278-57.54318zm33.84645 81.28206c-1.41343 3.91433-8.3176 7.69378-11.41422 7.97197-3.09943.281-3.09943 2.52057-20.29101-4.19252-17.18877-6.71871-28.03537-24.20815-28.88118-25.32653-.84862-1.11838-6.90417-9.09316-6.90417-17.34894 0-8.25297 4.36674-12.31342 5.91505-13.99099 1.55112-1.67757 3.38324-2.09907 4.51005-2.09907s2.25643.1405 3.23993.1405c.98912 0 2.39412-.55919 3.80193 2.79876 1.40781 3.36076 4.79386 11.61373 5.21536 12.45392.42431.84019.70812 1.82088.1405 2.93926-.55919 1.12119-.84019 1.81807-1.68881 2.79876-.84581.97788-1.77592 2.18618-2.53743 2.93926-.84581.83457-1.72534 1.7422-.74184 3.41977.98631 1.68038 4.38079 7.17112 9.40507 11.61654 6.45738 5.71273 11.90597 7.48584 13.59478 8.32603 1.69162.84019 2.67793.69969 3.66424-.42431.98912-1.11838 4.22905-4.89502 5.35586-6.5754 1.12681-1.67757 2.25643-1.39657 3.80474-.83738 1.5455.55638 9.86029 4.61683 11.55191 5.45702 1.68881.83738 2.81562 1.25888 3.23993 1.95857.42431.69407.42431 4.05202-.98069 7.97478z"/></g></svg>