<svg height="256" viewBox="0 0 256 256" width="256" xmlns="http://www.w3.org/2000/svg"><g stroke-miterlimit="10" stroke-width="0" transform="matrix(2.81 0 0 2.81 1.406593 1.406593)"><path d="m45 0c-24.853 0-45 20.147-45 45s20.147 45 45 45 45-20.147 45-45-20.147-45-45-45zm.454 68.712c-4.304 0-8.347-1.1-11.865-3.031l-13.589 4.319 4.431-13.068c-2.235-3.67-3.522-7.974-3.522-12.576-.001-13.452 10.989-24.356 24.545-24.356 13.559 0 24.546 10.904 24.546 24.356s-10.988 24.356-24.546 24.356z"/><path d="m45.454 23.879c-11.38 0-20.637 9.186-20.637 20.477 0 4.481 1.461 8.63 3.931 12.006l-2.578 7.605 7.931-2.521c3.258 2.139 7.162 3.387 11.354 3.387 11.378 0 20.637-9.185 20.637-20.476s-9.258-20.478-20.638-20.478zm12.045 28.926c-.503 1.393-2.96 2.738-4.062 2.837-1.103.1-1.103.897-7.221-1.492-6.117-2.391-9.977-8.615-10.278-9.013-.302-.398-2.457-3.236-2.457-6.174 0-2.937 1.554-4.382 2.105-4.979.552-.597 1.204-.747 1.605-.747s.803.05 1.153.05c.352 0 .852-.199 1.353.996.501 1.196 1.706 4.133 1.856 4.432.151.299.252.648.05 1.046-.199.399-.299.647-.601.996-.301.348-.632.778-.903 1.046-.301.297-.614.62-.264 1.217.351.598 1.559 2.552 3.347 4.134 2.298 2.033 4.237 2.664 4.838 2.963.602.299.953.249 1.304-.151.352-.398 1.505-1.742 1.906-2.34.401-.597.803-.497 1.354-.298.55.198 3.509 1.643 4.111 1.942.601.298 1.002.448 1.153.697.151.247.151 1.442-.349 2.838z"/></g></svg>