<svg height="256" viewBox="0 0 256 256" width="256" xmlns="http://www.w3.org/2000/svg"><g fill="#000" stroke-miterlimit="10" stroke-width="0" transform="matrix(2.81 0 0 2.81 1.406593 1.406593)"><path d="m40 52.5 12.99-7.5-12.99-7.5z"/><path d="m45 0c-24.853 0-45 20.147-45 45s20.147 45 45 45 45-20.147 45-45-20.147-45-45-45zm23.955 57.035c-.575 2.151-2.269 3.845-4.421 4.42-3.899 1.045-19.534 1.045-19.534 1.045s-15.635 0-19.535-1.045c-2.151-.575-3.846-2.269-4.421-4.42-1.044-3.9-1.044-12.035-1.044-12.035s0-8.135 1.045-12.035c.575-2.151 2.269-3.846 4.421-4.421 3.899-1.044 19.534-1.044 19.534-1.044s15.635 0 19.535 1.045c2.151.575 3.846 2.269 4.421 4.421 1.044 3.899 1.044 12.034 1.044 12.034s0 8.135-1.045 12.035z"/></g></svg>