<svg height="254" viewBox="0 0 254 254" width="254" xmlns="http://www.w3.org/2000/svg"><g fill="#fff" transform="translate(.407 .407)"><path d="m112.4 147.525 36.502-21.075-36.502-21.075z"/><path d="m126.45 0c-69.83693 0-126.45 56.61307-126.45 126.45s56.61307 126.45 126.45 126.45 126.45-56.61307 126.45-126.45-56.61307-126.45-126.45-126.45zm67.31355 160.26835c-1.61575 6.04431-6.37589 10.80445-12.42301 12.4202-10.95619 2.93645-54.89054 2.93645-54.89054 2.93645s-43.93435 0-54.89335-2.93645c-6.04431-1.61575-10.80726-6.37589-12.42301-12.4202-2.93364-10.959-2.93364-33.81835-2.93364-33.81835s0-22.85935 2.93645-33.81835c1.61575-6.04431 6.37589-10.80726 12.42301-12.42301 10.95619-2.93364 54.89054-2.93364 54.89054-2.93364s43.93435 0 54.89335 2.93645c6.04431 1.61575 10.80726 6.37589 12.42301 12.42301 2.93364 10.95619 2.93364 33.81554 2.93364 33.81554s0 22.85935-2.93645 33.81835z"/></g></svg>