<svg height="1600" viewBox="0 0 2600 1600" width="2600" xmlns="http://www.w3.org/2000/svg" xmlns:xlink="http://www.w3.org/1999/xlink"><linearGradient id="a" x1="50%" x2="50%" y1="0%" y2="100%"><stop offset="0" stop-color="#fff"/><stop offset="1" stop-color="#fff"/></linearGradient><mask id="b" fill="#fff"><path d="m0 0h600v600h-600z" fill="#fff" fill-rule="evenodd"/></mask><g fill="none" fill-rule="evenodd"><path d="m0 0h2600v1600h-2600z" fill="url(#a)"/><g fill="#2a2828" transform="translate(932 495)"><text font-family="Kefa-Bold, Kefa" font-size="50" font-weight="bold"><tspan x="0" y="458">An advanced voice assistant built in Python, leveraging </tspan><tspan x="0" y="524">OpenAI's GPT models for natural language understanding </tspan><tspan x="0" y="590">and response generation</tspan></text><text font-family="Heorot" font-size="404" letter-spacing="-3.038"><tspan x="4" y="339">Àkàndé</tspan></text></g><g fill-rule="nonzero" transform="translate(296 498)"><path d="m111.383452 463.116107c21.610694 0 42.45491-.687882 63.220913.27431 11.329368.524702 16.98623-2.745901 22.196574-13.280759 36.220699-73.234778 73.381367-146.01519 110.257626-218.93205 1.663783-3.290297 3.722892-6.32176 2.2909-10.391375-8.748371-24.867836-16.502736-50.077503-26.401535-74.547239-1.343825-3.322651-2.861139-6.562307-6.491599-9.934193-55.116725 109.118568-109.825326 217.432497-165.072879 326.811306m118.33764-383.81686c2.434526 3.611027 6.970824 3.3845465 10.150498 5.5930826 27.290309 18.9666834 49.757069 42.0564374 60.937122 73.7862094 19.535942 55.437071 38.446188 111.092184 57.529922 166.683993 15.140426 44.106014 30.174199 88.247197 45.155357 132.406667.945655 2.788101 1.495984 5.303301 5.213187 5.296296 23.093879-.035197 46.189179-.01691 69.644255-.01691-.649871-2.283092-1.023866-3.861422-1.544332-5.391923-32.676985-95.875791-65.278601-191.778309-98.120542-287.599239-7.259497-21.180847-12.914938-42.980646-22.344464-63.342786-8.653095-18.689562-23.093879-29.4818483-45.138293-28.9796526-24.621147.5598709-49.263623.1772455-73.897566.2321073-2.56962.0042202-5.22883-.3080697-7.585144 1.3321553m370.282902 221.732812c.683845 137.920974-96.80389 260.590388-234.269346 290.990819-103.161662 22.815444-194.45216-3.72919-272.0598204-74.251831-53.2339488-48.373976-82.5037329-109.405536-91.52086841-180.134963-4.48937027-35.219821-1.62396606-69.979648 5.46773161-104.686021 7.7486787-37.916487 23.9570545-72.070021 45.1852203-104.089576 11.814282-17.823028 26.7044296-33.1688373 42.3496789-47.7564299 47.571398-44.3578162 103.798734-71.70005669 168.635081-78.89256975 103.283958-11.45625391 190.562891 21.63802775 259.892874 98.34878865 41.278886 45.673091 65.591448 99.665471 73.992843 160.501498.191975 1.391238.244589 2.800762.41239 4.196219 1.434835 11.883894 1.801721 23.821244 1.914216 35.774066" fill="#2a2828" mask="url(#b)"/><g fill="#f2f2f2"><path d="m230 79.5796223c2.358394-1.6401521 5.022981-1.3267383 7.596422-1.3323601 24.67057-.0534067 49.349684.3288738 74.007435-.2304927 22.07719-.5017431 36.539444 10.2808166 45.205404 28.9535345 9.442122 20.343789 15.107395 42.123942 22.377687 63.285698 32.890769 95.734571 65.540856 191.549252 98.265001 287.34004.522663 1.527716.897214 3.10603 1.548051 5.387063-23.491372 0-46.619585-.018271-69.749223.016895-3.721308.006999-4.272453-2.505934-5.219514-5.291523-15.003431-44.119671-30.060981-88.221071-45.223917-132.287335-19.112109-55.543113-38.049045-111.14666-57.614034-166.533769-11.198099-31.701175-33.696839-54.770119-61.027722-73.7197087-3.184402-2.2079512-7.727444-1.9802694-10.16559-5.588042"/><path d="m112 462.672519c55.122935-109.332359 109.708132-217.600291 164.700534-326.672519 3.622271 3.370454 5.136163 6.608734 6.476956 9.929974 9.876471 24.459345 17.613345 49.658306 26.341983 74.515582 1.428762 4.067886-.625703 7.098062-2.285733 10.386961-36.793079 72.885895-73.869926 145.635399-110.008924 218.839077-5.198591 10.530383-10.842693 13.799598-22.146507 13.275118-20.719162-.961783-41.516361-.274193-63.078309-.274193"/></g></g></g></svg>