<svg xmlns="http://www.w3.org/2000/svg" xmlns:xlink="http://www.w3.org/1999/xlink" width="3000" height="1600" viewBox="0 0 3000 1600"><defs><linearGradient id="a" x1="50%" x2="50%" y1="0%" y2="100%"><stop offset="0%" stop-color="#FFF"/><stop offset="100%" stop-color="#FFF"/></linearGradient><polygon id="b" points="0 0 800 0 800 800 0 800"/></defs><g fill="none" fill-rule="evenodd"><rect width="3000" height="1600" fill="url(#a)"/><g transform="translate(141 400)"><g transform="translate(857 22)"><text fill="#000" font-family="SFCompactDisplay-Medium, SF Compact Display" font-size="91" font-weight="400" letter-spacing="-.684">
                        <tspan x="0" y="366">Advanced AI Voice Assistant for All</tspan>
                        
                        <tspan x="0" y="475" font-family="SFCompactDisplay-Thin, SF Compact Display" font-size="88" font-weight="300" letter-spacing="-.662">An advanced voice assistant using OpenAI&apos;s GPT </tspan>
                        <tspan x="0" y="580" font-family="SFCompactDisplay-Thin, SF Compact Display" font-size="88" font-weight="300" letter-spacing="-.662">for natural interactions, PDF summaries, &amp; efficient </tspan>
                        <tspan x="0" y="685" font-family="SFCompactDisplay-Thin, SF Compact Display" font-size="88" font-weight="300" letter-spacing="-.662">caching for both personal &amp; executive tasks.</tspan>
                    </text><text fill="#2A2828" fill-rule="nonzero" font-family="Heorot" font-size="333">
                        <tspan x="0" y="279">Àkàndé</tspan>
                    </text></g><mask id="c" fill="#fff"><use xlink:href="#b"/></mask><path fill="#2A2828" fill-rule="nonzero" d="M148.51127,617.488143 C177.325528,617.488143 205.117816,616.570967 232.80582,617.853889 C247.911645,618.553492 255.454127,614.192687 262.401252,600.146211 C310.695518,502.49984 360.243074,405.459291 409.41142,308.236811 C411.629797,303.849748 414.375275,299.807797 412.465953,294.381645 C400.801459,261.224529 390.462305,227.611641 377.263906,194.985325 C375.472141,190.555123 373.449055,186.235583 368.608441,181.739735 C295.119475,327.231158 222.174674,471.64973 148.51127,617.488143 M306.294789,105.732329 C309.540824,110.547032 315.589221,110.245058 319.828787,113.189773 C356.215865,138.478684 386.171545,169.265022 401.078283,211.571385 C427.126205,285.48748 452.339867,359.694297 477.784846,433.816709 C497.97208,492.624729 518.017111,551.479639 537.991988,610.358932 C539.252861,614.0764 539.986633,617.43 544.942904,617.42066 C575.734742,617.37373 606.528477,617.398113 637.80191,617.398113 C636.935416,614.35399 636.436756,612.249551 635.742801,610.208883 C592.173488,482.374494 548.704666,354.504471 504.915412,226.74323 C495.236082,198.502102 487.695494,169.435703 475.122793,142.286182 C463.585334,117.366767 444.330955,102.977052 414.938402,103.646646 C382.110207,104.39314 349.253572,103.882973 316.408314,103.956122 C312.982154,103.961749 309.436541,103.545363 306.294789,105.732329 M800.005325,401.376078 C800.917119,585.270711 670.933473,748.82993 487.646197,789.363838 C350.097314,819.78443 228.37665,784.391584 124.89977,690.361396 C53.9211717,625.862762 14.894793,544.487348 2.87194559,450.181445 C-3.11388145,403.221684 0.706657502,356.875248 10.1622544,310.600084 C20.493826,260.044768 42.1049937,214.506723 70.4092148,171.813982 C86.1615908,148.049946 106.015121,127.588866 126.875453,108.138743 C190.303984,48.9949879 265.273766,12.5386672 351.722229,2.9486498 C489.434172,-12.3263554 605.806082,31.7993535 698.246061,134.080368 C753.284574,194.977823 785.701324,266.967662 796.903184,348.082365 C797.15915,349.93735 797.229303,351.816715 797.453037,353.677324 C799.36615,369.522516 799.855332,385.438982 800.005325,401.376078" mask="url(#c)"/><g fill="#F2F2F2" fill-rule="nonzero" transform="translate(148.511 103.624)"><path d="M157.784277,2.10806296 C160.924135,-0.0807792264 164.471642,0.337482883 167.897803,0.329980344 C200.743062,0.258707102 233.599697,0.768874289 266.42789,0.0223795626 C295.820443,-0.647214773 315.074822,13.7425003 326.612281,38.6619157 C339.183088,65.811437 346.72557,94.8778372 356.404902,123.118964 C400.194156,250.880204 443.662976,378.748353 487.230394,506.584616 C487.926244,508.623409 488.424904,510.729726 489.291398,513.773847 C458.016068,513.773847 427.224232,513.749464 396.430498,513.796394 C391.476121,513.805734 390.742351,510.452134 389.481478,506.734665 C369.506601,447.855372 349.459674,389.000462 329.272439,330.192443 C303.827459,256.068154 278.615695,181.863214 252.567771,107.947118 C237.659138,65.6407559 207.705353,34.8544182 171.318275,9.56550671 C167.078709,6.61891609 161.030312,6.9227657 157.784277,2.10806296"/><path d="M2.22044605e-14,513.863689 C73.6634041,368.025277 146.608205,223.606704 220.097172,78.1152811 C224.937785,82.6111292 226.960871,86.9306696 228.752637,91.3608714 C241.951035,123.987187 252.290189,157.600075 263.954683,190.757191 C265.864006,196.183343 263.118527,200.225294 260.90015,204.612357 C211.731804,301.834837 162.184248,398.875386 113.889982,496.521757 C106.942857,510.568234 99.4003748,514.929038 84.2945506,514.229435 C56.6065467,512.946513 28.8142582,513.863689 2.22044605e-14,513.863689"/></g></g></g></svg>