<svg height="1600" viewBox="0 0 3000 1600" width="3000" xmlns="http://www.w3.org/2000/svg" xmlns:xlink="http://www.w3.org/1999/xlink"><linearGradient id="a" x1="50%" x2="50%" y1="0%" y2="100%"><stop offset="0" stop-color="#fff"/><stop offset="1" stop-color="#fff"/></linearGradient><mask id="b" fill="#fff"><path d="m0 0h800v800h-800z" fill="#fff" fill-rule="evenodd"/></mask><g fill="none" fill-rule="evenodd"><path d="m0 0h3000v1600h-3000z" fill="url(#a)"/><g transform="translate(976 399)"><text fill="#000" font-family="SFCompactDisplay-Medium, SF Compact Display" font-size="91" font-weight="400" letter-spacing="-.684"><tspan x="22" y="389">Advanced AI Voice Assistant for All</tspan> <tspan font-family="SFCompactDisplay-Thin, SF Compact Display" font-size="88" font-weight="300" letter-spacing="-.662" x="22" y="498">An advanced voice assistant using OpenAI's GPT </tspan><tspan font-family="SFCompactDisplay-Thin, SF Compact Display" font-size="88" font-weight="300" letter-spacing="-.662" x="22" y="603">for natural interactions, PDF summaries, &amp; efficient </tspan><tspan font-family="SFCompactDisplay-Thin, SF Compact Display" font-size="88" font-weight="300" letter-spacing="-.662" x="22" y="708">caching for both personal &amp; executive tasks.</tspan></text><text fill="#f00" fill-rule="nonzero" font-family="NotoSans-Regular, Noto Sans" font-size="175"><tspan x="0" y="187">Àkàndé Voice Assistant</tspan></text></g><g fill-rule="nonzero" transform="translate(141 400)"><path d="m148.51127 617.488143c28.814258 0 56.606546-.917176 84.29455.365746 15.105825.699603 22.648307-3.661202 29.595432-17.707678 48.294266-97.646371 97.841822-194.68692 147.010168-291.9094 2.218377-4.387063 4.963855-8.429014 3.054533-13.855166-11.664494-33.157116-22.003648-66.770004-35.202047-99.39632-1.791765-4.430202-3.814851-8.749742-8.655465-13.24559-73.488966 145.491423-146.433767 289.909995-220.097171 435.748408m157.783519-511.755814c3.246035 4.814703 9.294432 4.512729 13.533998 7.457444 36.387078 25.288911 66.342758 56.075249 81.249496 98.381612 26.047922 73.916095 51.261584 148.122912 76.706563 222.245324 20.187234 58.80802 40.232265 117.66293 60.207142 176.542223 1.260873 3.717468 1.994645 7.071068 6.950916 7.061728 30.791838-.04693 61.585573-.022547 92.859006-.022547-.866494-3.044123-1.365154-5.148562-2.059109-7.18923-43.569313-127.834389-87.038135-255.704412-130.827389-383.465653-9.67933-28.241128-17.219918-57.307527-29.792619-84.457048-11.537459-24.919415-30.791838-39.30913-60.184391-38.639536-32.828195.746494-65.68483.236327-98.530088.309476-3.42616.005627-6.971773-.410759-10.113525 1.776207m493.710536 295.643749c.911794 183.894633-129.071852 347.453852-312.359128 387.98776-137.548883 30.420592-259.269547-4.972254-362.746427-99.002442-70.9785983-64.498634-110.004977-145.874048-122.02782441-240.179951-5.98582704-46.959761-2.16528809-93.306197 7.29030881-139.581361 10.3315716-50.555316 31.9427393-96.093361 60.2469604-138.786102 15.752376-23.764036 35.6059062-44.225116 56.4662382-63.675239 63.428531-59.1437551 138.398313-95.6000758 224.846776-105.1900932 137.711943-15.2750052 254.083853 28.8507037 346.523832 131.1317182 55.038513 60.897455 87.455263 132.887294 98.657123 214.001997.255966 1.854985.326119 3.73435.549853 5.594959 1.913113 15.845192 2.402295 31.761658 2.552288 47.698754" fill="#2a2828" mask="url(#b)"/><g fill="#f2f2f2" transform="translate(148.511 103.624)"><path d="m157.784277 2.10806296c3.139858-2.18884219 6.687365-1.77058008 10.113526-1.77808262 32.845259-.07127324 65.701894.43889395 98.530087-.30760078 29.392553-.66959433 48.646932 13.72012074 60.184391 38.63953614 12.570807 27.1495213 20.113289 56.2159215 29.792621 84.4570483 43.789254 127.76124 87.258074 255.629389 130.825492 383.465652.69585 2.038793 1.19451 4.14511 2.061004 7.189231-31.27533 0-62.067166-.024383-92.8609.022547-4.954377.00934-5.688147-3.34426-6.94902-7.061729-19.974877-58.879293-40.021804-117.734203-60.209039-176.542222-25.44498-74.124289-50.656744-148.329229-76.704668-222.245325-14.908633-42.3063621-44.862418-73.0926998-81.249496-98.38161129-4.239566-2.94659062-10.287963-2.64274101-13.533998-7.45744375"/><path d="m0 513.863689c73.6634041-145.838412 146.608205-290.256985 220.097172-435.7484079 4.840613 4.4958481 6.863699 8.8153885 8.655465 13.2455903 13.198398 32.6263156 23.537552 66.2392036 35.202046 99.3963196 1.909323 5.426152-.836156 9.468103-3.054533 13.855166-49.168346 97.22248-98.715902 194.263029-147.010168 291.9094-6.947125 14.046477-14.4896072 18.407281-29.5954314 17.707678-27.6880039-1.282922-55.4802924-.365746-84.2945506-.365746"/></g></g></g></svg>