<svg height="249" viewBox="0 0 802 249" width="802" xmlns="http://www.w3.org/2000/svg" xmlns:xlink="http://www.w3.org/1999/xlink"><mask id="a" fill="#fff"><path d="m0 0h250.422v249h-250.422z" fill="#fff" fill-rule="evenodd"/></mask><g fill="none" fill-rule="evenodd"><text fill="#f00" font-family="NotoSans-Medium, Noto Sans" font-size="120" font-weight="400" letter-spacing="-.902" transform="translate(260)"><tspan x="1.089" y="128.5">QR Code</tspan></text><g fill-rule="nonzero"><path d="m40.8769188 207.163299c-.9619033.904088-1.0114078 1.33409-.0242102 2.291296 14.032154 13.602875 30.2533429 23.542061 48.9493913 29.335524 12.0302961 3.728369 24.3590651 5.445847 36.9573971 5.235182 1.072114-.018067 1.748193-.023849 1.71242-1.482603-.105875-4.329288-.029269-8.662912-.023849-12.994729 3.303787-.138034 6.597819-.360262 9.887875-.72739 18.604989-2.076295 35.338928-8.854425 50.325759-19.999785 3.272712-2.434389 6.398717-5.066795 9.592294-7.607781 2.983273 2.88029 6.014606 5.713605 8.920913 8.670139.853138.867592 1.217014.644641 1.951269-.058177 9.415596-9.009804 17.101067-19.321177 23.116757-30.860766 3.296561-6.323196 6.19022-12.834291 8.09596-19.738893.113824-.272455.25764-.536599.337858-.81881 4.885761-17.202605 6.035926-34.623463 3.268376-52.320751-2.885349-18.4510558-9.838371-35.2185999-20.428342-50.5425663-.604893-.8755417-.979248-.9051721-1.79336-.3158165-3.166838 2.2934638-6.404499 4.4893642-9.565555 6.7904163-.829289.6038094-1.246644.5745403-1.85479-.2785979-2.202043-3.089148-4.64944-5.9813623-7.214636-8.778904-3.501083-3.8179832-7.444815-7.1626029-11.236419-10.670551 2.937021-3.0956523 5.852723-6.2119014 8.827324-9.2710577.655843-.6742719.779062-1.0370634-.076967-1.6195533-1.388653-.9449201-2.68444-2.025345-4.04816-3.0085678-10.488072-7.5611677-21.799289-13.5049501-34.175033-17.3493115-11.659916-3.66585637-23.612885-5.43536834-35.82277-5.63976697-1.467065-.02361077-1.801672.41903823-1.760479 1.80118715.100093 3.36557782-.003974 6.73693712.070824 10.10359892.02674 1.1924422-.34906 1.5306622-1.533914 1.5086201-3.429536-.0639583-6.841005.2793205-10.247053.6749945-20.7513855 2.4109014-39.0626003 10.5111974-55.2501839 23.6092719-1.2972326 1.0493491-2.3693465 2.3982542-3.9491518 3.0887866-2.8647521-3.4971077-6.4652048-6.2668258-9.4896719-9.6063866-.5886328-.6497006-.9340797-.0455297-1.309157.3031694-10.558895 9.8015135-19.0237893 21.1687399-25.4412965 34.0619309-1.2123162 2.4361956-1.204728 2.4911202 1.3528799 3.4880741 3.6326126 1.4161155 7.0813 3.2781321 10.8183416 4.4369691-.2258413.6175405-.4224136 1.2473668-.6814988 1.8504535-4.4051706 10.238381-7.336049 20.8615961-8.6477354 31.9502241-.7721967 6.527356-.6095909 13.059049-.5900782 19.597607-4.2020941.761718-8.4504405 1.141131-12.70131627 1.462006-1.37709007.103707-1.90646214.553221-1.70049485 1.992824.64680956 4.51755 1.11981163 9.056418 2.06400905 13.533858 1.73157063 8.213036 4.49406177 16.075928 7.75665587 23.786693.4404809 1.040676.9199872 1.214845 1.8855041.765692 1.3073503-.608145 2.6649276-1.106442 3.9867318-1.684234 2.6913059-1.176182 5.5452176-1.965 8.1234222-3.409662.3421947.621876.707877 1.231829 1.0226095 1.867075 3.3764182 6.813904 7.2276451 13.325361 12.1560449 19.154597.3555646.471557.6894484.961181 1.0706686 1.411418 2.062925 2.438002 4.1377744 4.866248 6.2082877 7.297746-2.9561726 2.913895-5.8697064 5.87332-8.8934508 8.715307z" fill="#fcfcfd" mask="url(#a)"/><path d="m57.8354705 43.0991147c16.187945-13.0980744 34.4987985-21.1983705 55.2501835-23.6092718 3.40641-.395674 6.817517-.7389528 10.247053-.6749945 1.184854.0220421 1.560654-.3161779 1.534276-1.5086201-.07516-3.3666618.029269-6.7380212-.071185-10.10323761-.041194-1.38214892.293413-1.82515927 1.760478-1.80154777 12.210247.20439791 24.162854 1.97390987 35.822048 5.63976628-1.241224 3.9538493-2.465464 7.9123961-3.734512 11.856489-.28185.8751803-.301001 1.327947.785566 1.6817049 7.113822 2.3136992 13.837028 5.4884862 20.259594 9.3281501 4.238951 2.5341206 8.087287 5.6200165 12.16291 8.3821462 3.791605 3.5079482 7.735698 6.8525679 11.236419 10.670551 2.565558 2.7979031 5.012594 5.6901174 7.214637 8.7789041.608507.8531382 1.025861.8827686 1.855151.2789592 3.160694-2.3014134 6.398356-4.4973138 9.565193-6.7907777.814113-.5893555 1.188467-.5597251 1.793361.3158165 10.589971 15.3243278 17.542993 32.0915106 20.428342 50.5425665 2.767911 17.697288 1.617385 35.118145-3.268376 52.32075-.080219.282212-.223673.546356-.337497.817727-4.494062-1.335536-8.988124-2.670348-13.482547-4.005161.134421-.644641.258001-1.291812.405069-1.933924.775449-3.389788 1.723621-6.742719 2.147841-10.206221.414826-.901559.334968-1.885505.465053-2.833315 1.933924-14.08997 1.28314-28.04046-2.217581-41.8464109-.225842-.8892728-.428195-1.166064-1.420091-.9174578-6.752836 1.6918225-13.524824 3.3070397-20.290668 4.9468287-.079135-.227648-.172363-.45096-.235598-.682944-4.398305-16.129046-12.867897-29.7835933-25.515011-40.6536074-18.796503-16.1561465-40.681431-22.6759146-65.29669-19.8646418-14.652224 1.6730326-27.8673744 7.063594-39.7440988 15.7864895-6.6455165 4.8810634-12.3363566 10.7160806-17.365572 17.2221175-.255833-.15032-.5456326-.2626986-.7617176-.4567415-5.1123249-4.5974067-10.3236587-9.0867709-15.2451929-13.8937584.3512284-.9181805 1.0518785-1.5953431 1.6434021-2.3433296 3.200804-4.0474379 6.8825597-7.6536722 10.4609703-11.3545792 1.5798053-.6901711 2.6519192-2.0390762 3.9487904-3.0884254z" fill="#ff2722"/><path d="m229.409656 143.078745c-.42422 3.463503-1.372754 6.816795-2.148203 10.206221-.146706.642112-.270287 1.289283-.404707 1.934286-.220783.486372-.489263.956483-.656205 1.4602-4.723155 14.268474-12.182062 26.937992-22.14329 38.176579-1.904656 2.148925-4.191977 3.945177-5.80358 6.357162-3.193216 2.540986-6.319221 5.173393-9.592295 7.60742-14.986469 11.145721-31.720408 17.923491-50.325397 19.999785-3.290056.367128-6.584449.589717-9.887875.726668-9.527613.235597-18.941764-.649701-28.190057-2.994476-5.6333856-1.428401-11.237864-2.972433-16.4885845-5.550638.3143711-.777978.6027253-1.567519.9478109-2.331405 2.5941038-5.738899 5.1997707-11.473101 7.8014628-17.208748 14.5962148 5.981001 29.7868448 7.858556 45.2900388 5.439705 25.159085-3.925303 44.409439-17.171168 58.142037-38.499261 5.86537-9.109175 9.457512-19.150984 11.603908-29.73445 7.348335 1.155946 14.578148 2.899802 21.854936 4.410952" fill="#47b4ec"/><path d="m41.7824161 59.8855573c4.9215342 4.8066261 10.1325066 9.2959904 15.2451929 13.8933971.216085.1944042.5058846.3064215.7617176.4567415-.2995559.4473465-.5973051.8964997-.8986678 1.3431235-16.6873253 24.7272766-20.3990727 51.1033756-9.9532789 79.2211626 2.9503911 7.940943 7.3179817 15.114024 12.5148616 21.788449-5.6539828 4.383489-11.3079656 8.766618-16.9619484 13.150108-4.9273157-5.828875-8.7785427-12.340332-12.1545995-19.154236-.3150938-.635246-.6807761-1.245198-1.0229709-1.867075-.1199669-.398926-.1947655-.818449-.3667663-1.193888-3.4956624-7.631991-5.9441437-15.597505-7.4296376-23.846676-.6804148-3.776789-1.0872905-7.603083-1.618108-11.406974-.0195127-6.538197-.1821184-13.070251.5900782-19.597607 1.3116865-11.088267 4.2429262-21.7114818 8.6477355-31.9502242.2594465-.6027253.4556574-1.232913.6811374-1.8508148.3053375-.5094981.6406667-1.0030969.9120376-1.5295782 3.1679215-6.1461362 6.5620456-12.147734 11.0532166-17.4559085m41.9870102 161.1163227c5.2507206 2.578205 10.8551989 4.122237 16.4885847 5.550638 9.248293 2.344775 18.662444 3.230073 28.190057 2.994475-.00542 4.332902-.082026 8.666526.023849 12.995452.035773 1.458755-.640306 1.464897-1.71242 1.482965-12.598332.210303-24.927101-1.507175-36.9573971-5.235183-18.6960484-5.793462-34.9172373-15.73301-48.9493913-29.335524-.9871976-.957205-.9376931-1.387569.0242102-2.291295 3.0237444-2.841988 5.9372782-5.801412 8.8930895-8.715307.6908938.575985 1.4233424 1.108971 2.0658158 1.734461 5.0555936 4.922979 10.576601 9.255158 16.5604928 12.985696 4.8955173 3.051929 9.8712534 5.963656 15.3731094 7.833622" fill="#142a6c"/><path d="m83.7694263 221.00188c-5.501856-1.869966-10.4775921-4.781693-15.3731094-7.833622-5.9838918-3.730538-11.5048992-8.062717-16.5604928-12.985696-.6424734-.62549-1.374922-1.158476-2.0658158-1.734461-2.0705133-2.431499-4.1450014-4.859745-6.2079264-7.297747-.3812202-.450237-.715104-.940222-1.0713913-1.411779 5.6536215-4.38349 11.3076043-8.76698 16.9612257-13.149386 1.3532412 1.526688 2.6714319 3.085896 4.0655052 4.573558 8.2433891 8.79661 17.995037 15.446102 29.0012785 20.299342-2.6016921 5.735285-5.207359 11.469487-7.8014628 17.208386-.3450855.763886-.6334397 1.553788-.9478109 2.331405" fill="#ff2722"/><path d="m198.253851 201.213049c1.611243-2.411986 3.898564-4.208237 5.803219-6.356801 9.96159-11.238587 17.420497-23.908466 22.143652-38.176579.16658-.504078.435061-.97419.656204-1.4602 4.494062 1.334451 8.988124 2.668902 13.482186 4.004799-1.90574 6.905686-4.799761 13.416781-8.096322 19.739977-6.01569 11.539589-13.701161 21.850962-23.116395 30.860766-.734256.702818-1.098492.925769-1.951269.058177-2.906307-2.956534-5.93764-5.789849-8.921275-8.670139" fill="#142a6c"/><path d="m41.7824161 59.8855573c-4.491171 5.3081745-7.8852951 11.3097723-11.0532166 17.4559085-.2713709.5264813-.6067001 1.0200801-.9120376 1.5295782-3.7366803-1.1581144-7.1853676-3.0204923-10.8179802-4.4362464-2.5576079-.996954-2.5651962-1.0518786-1.3525186-3.4880741 6.4171458-12.8935524 14.8820401-24.2607787 25.4409352-34.0622923.3750773-.3483377.7205242-.9528699 1.309157-.3028081 3.024467 3.3391995 6.6249198 6.1092789 9.4896719 9.6060254-3.5780493 3.7005456-7.259805 7.3071413-10.4609703 11.3545792-.5911623.7476251-1.2918124 1.4247878-1.6430408 2.3433296m-21.8842414 72.3843137c.5308174 3.80389.9376932 7.629823 1.6181079 11.406974 1.4854939 8.248809 3.9339753 16.214685 7.4296377 23.846676.1720007.375077.2467994.794962.3667663 1.193888-2.5782046 1.4443-5.4321163 2.233119-8.1234222 3.4093-1.3218041.577793-2.6793815 1.076089-3.9867318 1.684235-.9655168.449153-1.4446618.275345-1.8851427-.765693-3.2625942-7.710765-6.02544661-15.573295-7.75701723-23.786692-.94419742-4.47744-1.41683815-9.015947-2.06364771-13.533858-.20632864-1.439603.32304343-1.889118 1.70049485-1.992824 4.25051449-.320875 8.49922219-.699927 12.70095489-1.462006" fill="#47b4ec"/><path d="m191.851954 42.2898078c-4.075984-2.7621297-7.92432-5.848387-12.163272-8.3825075-6.422566-3.8393026-13.145771-7.0140896-20.259231-9.3281502-1.086568-.3533965-1.067417-.8061632-.785928-1.6813435 1.269047-3.9440929 2.493288-7.9030011 3.734873-11.856489 12.376466 3.8443614 23.687684 9.7881438 34.175755 17.3493114 1.364082.9832228 2.659508 2.0636477 4.048161 3.0085678.856029.5821287.73281.9452815.077328 1.6195534-2.974963 3.0591562-5.890664 6.1754054-8.827686 9.2710576" fill="#142a6c"/><path d="m173.126059 141.716615c3.453385.002168 3.453385.002168 3.44688-3.298006-.005781-2.937022-.005781-2.937022-3.800638-2.95545-2.984358-.014454-2.984358-.014454-2.999896 2.919315-.017344 3.331973-.017344 3.331973 3.353654 3.334141m.16911-41.8261755c-.299195 0-.598389.0021681-.897584-.0003613-2.612894-.019874-2.612894-.0202354-2.629154 2.6490288-.020959 3.448326-.020959 3.448326 3.537939 3.424838 3.130342-.020235 3.130342-.020235 3.119502-3.032778-.011202-3.026635-.011202-3.026635-3.130703-3.0407275m-91.3009639 18.6248635c3.4859061-.004336 3.4859061-.004336 3.4707295-3.059157-.0155379-3.163946-.0155379-3.163946-3.5849149-3.168282-3.1578037-.003614-3.1578037-.003614-3.1541903 2.999534.0039748 3.23188.0039748 3.23188 3.2683757 3.227905m11.8503461 54.334171c3.926387-.028546 3.926387-.028546 3.9032608-4.041295-.0025294-.419884-.0296303-.841575-.001084-1.259653.0520338-.771112-.2634213-1.060189-1.0504332-1.027307-1.3778127.057816-2.7596003.035412-4.1395812.032521-2.5449607-.00542-2.5449607-.009756-2.5366497 2.552188.0119244 3.771008.0119244 3.771008 3.8244873 3.743546m55.5793698-.03216c.540213 0 1.092349-.074076 1.617747.01337 1.842865.305337 2.586154-.351951 2.285875-2.265279-.229093-1.461284.616818-3.386536-.345808-4.322784-.955038-.929382-2.857886-.276068-4.342658-.301724-3.121669-.054563-3.122392-.023487-3.118778 3.041089.004336 3.85737.004336 3.85737 3.903622 3.835328m-39.873461-57.305882c-.017705-3.791966-.017705-3.791966-3.316434-3.811117-4.01564-.023488-4.01564-.023488-4.019615 3.946984-.003613 3.614184-.003613 3.614184 3.622495 3.611293 3.73126-.002891 3.73126-.002891 3.713554-3.74716m39.860091 14.964789c.779785 0 1.565352-.06179 2.337548.014092 1.19172.117438 1.843588-.210665 1.616302-1.548007-.059261-.349421.001445-.718356-.008311-1.077895-.038303-1.429485.45385-3.300174-.264506-4.173909-.852777-1.037786-2.79718-.296665-4.262439-.307506-3.228989-.023848-3.22935.019152-3.232241 3.298006-.003613 3.803891-.003613 3.803891 3.813647 3.795219m.080219 11.928035c.301001 0 .602003.001084.903004-.000361 3.167199-.014815 3.167199-.014815 3.167958-3.225014.000686-4.140304.000686-4.140304-4.215862-4.129464-3.8281.009757-3.8281.009757-3.838218 3.394847-.011563 3.969026-.011563 3.969026 3.983118 3.959992m-.098647-23.526523c.419161 0 .837961.001445 1.257123-.000361 2.890046-.014454 2.923651-.015177 2.874147-2.921845-.02421-1.415754.630188-3.350401-.302447-4.103808-.88313-.713297-2.739003-.246799-4.167405-.255833-3.560343-.022404-3.560343-.012647-3.564318 3.451578-.004336 3.848336-.004336 3.848336 3.9029 3.830269m12.141952-.037219c.240295 0 .480229.001084.720524 0 3.25067-.012647 3.25067-.012647 3.231157-3.35293-.022765-3.867127-.022765-3.867127-4.31917-3.871101-3.563595-.003253-3.563595-.003253-3.574074 3.390149-.011925 3.862067-.011925 3.862067 3.941563 3.833882m-.117437 23.336817c.420606 0 .841213.002891 1.262182-.000361 2.804768-.021681 2.804768-.022043 2.777306-2.875954-.04011-4.145002-.04011-4.145002-4.275447-4.143984-3.523848.001151-3.523848.001151-3.536134 3.419485-.013008 3.682117-.013008 3.682117 3.772093 3.600814m-42.52791.168387c.721609 0 1.456948-.088891 2.163018.017706 1.789386.269564 2.338632-.492515 2.103035-2.187589-.220421-1.58631.693784-3.772815-.39459-4.636071-1.013938-.804356-3.096014-.291968-4.708702-.305337-3.195383-.026379-3.195745-.011202-3.206224 3.008567-.014454 4.100918-.014454 4.100918 4.043463 4.102724m12.455963.085278c.48059 0 .96118.00795 1.441771-.001084 2.97966-.057093 2.641078.481674 2.602053-2.717684-.018429-1.472847.704264-3.480848-.374716-4.278338-.985391-.728836-2.884626-.2468-4.381683-.254027-3.428452-.016983-3.428452-.005781-3.431704 3.168283-.004336 4.087547-.004336 4.087547 4.144279 4.08285m-25.086455-47.2770814c3.904706.0122857 3.904706.0122857 3.917715-3.5310744.015176-4.2252202.015176-4.2252202-4.307246-4.2049848-3.646344.0173446-3.646344.0173446-3.65068 3.6087637-.004336 4.114287-.004336 4.114287 4.040211 4.1272955m55.257772 4.6581128c-3.90832-.0068656-3.90832-.0068656-3.907304 3.3760566.001514 4.153674.001514 4.153674 4.192767 4.136329 3.688983-.015176 3.689344-.015176 3.673445-3.632974-.016622-3.872546-.016622-3.872546-3.958908-3.8794116m-55.431941 7.5293696c4.030093.010479 4.030093.010479 4.008413-3.807505-.02132-3.7099402-.02132-3.7099402-3.911572-3.6788644-3.944454.0317985-3.944454.0317985-3.943439 3.6962094.001514 3.780042.001514 3.780042 3.846598 3.79016m55.511437 23.491472c.119605 0 .239572 0 .359539.000362 3.548419.007588 3.548419.007588 3.532159-3.557814-.018068-4.002993-.018068-4.002993-4.181498-4.006606-3.734873-.003252-3.734873-.003252-3.730537 3.580217.004336 3.973724.004336 3.973724 4.020337 3.983841m-12.193264-23.545674c.300279 0 .600558.000722.900475-.000362 3.252476-.009033 3.252476-.009395 3.247779-3.30993-.006143-4.1822202-.006143-4.1822202-4.164514-4.1837358-3.842555-.0010138-3.842555-.0010138-3.860261 3.7591538-.016983 3.729453-.016983 3.729453 3.876521 3.734874m-17.982028.104067c.360985 0 .721969-.000722 1.082954 0 3.007484.00795 3.007484.008311 2.989778-3.018324-.02674-4.5460954-.02674-4.5460954-4.61439-4.5244146-3.707773.0173446-3.707773.0173446-3.702352 3.5939486.006143 3.939034.006143 3.939034 4.24401 3.94879m-37.5160387-8.063077c-.3606234 0-.7212468.0007227-1.0822316-.0003614-3.2282663-.0072269-3.2391067-.0072269-3.2192326 3.2940314.0086723 1.432376-.4737248 3.331972.2500515 4.174632.8534995.994063 2.8127182.295942 4.2877331.316539 3.8844708.054202 3.8848322.018428 3.8772439-3.725479-.0079496-4.0485216-.0079496-4.0485216-4.1135643-4.059362m71.6516837-20.4745941c-.020958-4.041295-.020958-4.041295-3.974807-4.0304546-.059983 0-.119967.0003613-.17995.0003613-3.854841.009395-3.854841.009395-3.874353 3.8017226-.020958 4.1605392-.020958 4.1605392 4.160539 4.1595218 3.888807-.001512 3.888807-.001512 3.868571-3.9311511m-59.507563 3.9654818c4.108867-.0011534 4.108867-.0011534 4.102001-4.0579864-.000361-.0599834-.000361-.1199669-.000723-.1799503-.006143-3.7417391-.006143-3.7417391-3.716806-3.7139155-4.19017.0314371-4.19017.0314371-4.197758 4.1598166-.007227 3.7930502-.007227 3.7930502 3.813286 3.7920356m55.669345 4.6016735c-4.115732.0130084-4.115732.0130084-4.118774 4.1312702v.1803117c-.001656 3.6503185-.001656 3.6503185 3.657335 3.6474278 4.222691-.0036135 4.222691-.0036135 4.212212-4.1753545-.009395-3.7955797-.009395-3.7955797-3.750773-3.7836552m-67.9059703 31.6087518c.1803117 0 .3609848-.000722.5416579 0 3.655016.014093 3.655016.014093 3.6383941-3.616352-.0180673-3.940479-.0180673-3.940479-4.0387656-3.977336-.3010014-.002891-.6020027-.007589-.903004-.010841-3.3876199-.039387-3.3876199-.039387-3.3811157 3.359074.0079496 4.215102.0079496 4.215102 4.1428333 4.245455m25.0098493-24.0248194c.480952 0 .962265-.0014454 1.443216.0003613 2.779836.0090337 2.794651.009395 2.793206-2.8474074-.000723-1.4945276.502994-3.4653093-.247522-4.3589183-.875542-1.0424835-2.917509-.3201526-4.448894-.3468923-3.571545-.0617901-3.571906-.0252942-3.558898 3.4580824.015177 4.0947743.015177 4.0947743 4.018892 4.0947743m-24.9216808 40.1842184c-.30064 0-.6009186.001807-.9015586 0-3.3742501-.020597-3.4136368-.020235-3.3536534 3.359073.026017 1.477183-.679692 3.443268.3273796 4.291708.8444659.711852 2.7447852.186455 4.1771612.182119 3.8707397-.011563 3.8707397-.017345 3.8645968-3.777874-.0061429-4.014917-.0061429-4.014917-4.1139256-4.055026m-.149236-4.093329c.3609848 0 .7223309-.000723 1.0833157 0 3.163224.00542 3.2022493.004698 3.1527449-3.161056-.0231261-1.488023.7006502-3.509755-.2905223-4.316641-.9221553-.750877-2.8687268-.265228-4.3646998-.286186-3.7178902-.052034-3.7182516-.043361-3.7081339 3.571545.0115631 4.186556.0115631 4.186556 4.1272954 4.192338m4.2602708-53.1890653c-.0166219-4.1612619-.0166219-4.1612619-4.2244975-4.1616233-.0599835 0-.1203283 0-.1803117 0-4.010942.0007227-4.0163622.0007227-4.0131101 3.9708326.0010841 1.3778128-.4878172 3.173703.1915135 4.0253958.8104993 1.0161053 2.693474.3165392 4.1045306.3371359 4.1377744.0607062 4.1384971.0231262 4.1218752-4.171741m33.403558-15.3940675c-.059983 0-.119967 0-.180311 0-4.067312-.0057815-4.067312-.0057815-4.095859 4.0149168-.02963 4.1605392-.02963 4.1605392 4.113565 4.1630687 4.232447.0025294 4.232447.0025294 4.23078-4.1164551-.001585-4.0571942-.001585-4.0571942-4.068175-4.0615304m-37.6407026 92.7474318c.0599834 0 .1196055-.000361.179589 0 4.095497.025656 4.1207912.025295 4.0586397-4.035875-.0209581-1.353241.6001959-3.213451-.318346-3.92205-.8755416-.675356-2.6446923-.207413-4.0206983-.215724-4.0770683-.023487-4.0770683-.018429-4.0760515 4.012387.0007899 4.135245.0007899 4.135245 4.1768671 4.161262m-24.0349374-36.443924c.2402952 0 .4805903.000722.7208855-.000362 3.6792262-.014815 3.7149995-.015899 3.6311672-3.662604-.0339665-1.478628.6590953-3.409662-.3284636-4.317002-.9669622-.888912-2.8651134-.203077-4.3524141-.208858-3.9249416-.015899-3.9249416.010118-3.9232805 3.938673.0019524 4.275447.0019524 4.275447 4.2521055 4.250153m63.046226 34.75427v.015176c1.5032 0 3.007484-.033243 4.509238.013732.787012.024571 1.059106-.252581 1.028753-1.037787-.060345-1.561376-.108765-3.128896-.038303-4.688104.049143-1.08187-.394228-1.296871-1.369863-1.273745-2.343691.056008-4.68955.003252-7.034325.000722-2.68697-.00289-2.686247 0-2.677575 2.765744.003252.961903.065765 1.929227-.015538 2.884264-.084555.996954.197657 1.407082 1.269771 1.341679 1.437796-.087807 2.884987-.021681 4.327842-.021681m24.2933 13.933145h-.014092c0 1.380342.044445 2.762852-.016261 4.140304-.038664.878794.127916 1.290006 1.152333 1.245199 2.096891-.092144 4.20101-.080942 6.300069-.033244.854584.019512 1.153779-.230539 1.127762-1.103551-.062152-2.09906-.042639-4.200649-.048782-6.301515-.009395-3.245611-.007227-3.258258-3.295838-3.228267-1.668696.015177-3.85195-.536237-4.86408.302086-1.059106.876987-.226564 3.144072-.34075 4.799038-.003974.059622-.000361.119967-.000361.17995m-76.8521775-73.251002c1.5704103 0 2.8940211-.0386641 4.2140185.0144538.8039951.0325212 1.0424836-.2851021 1.0316432-1.047181-.0296304-2.1026731-.0430002-4.207153.0180673-6.308742.0238489-.8217011-.274623-1.026223-1.0312818-1.0081557-1.7416883.0415548-3.4851834.0155379-5.2275944.0184287-3.4978305.0057815-3.5303516.0065042-3.493133 3.5263768.0162606 1.545116-.7403982 3.5404693.2312616 4.5146584.9637101.9666009 2.9659289.1297233 4.2570186.290161m94.1353625.819533v.0097563c1.258207 0 2.518944-.0455296 3.774622.0162606.820255.0404708 1.192803-.1470679 1.168232-1.0634416-.062513-2.3357414-.078412-4.6743735-.028908-7.0104762.019151-.9174578-.355565-1.0804249-1.160282-1.0681391-2.456431.038664-4.91503.0487817-7.370377-.0119244-.970576-.0242102-1.213762.3237661-1.183409 1.2455601.070824 2.1550682.121774 4.3180861.015538 6.4699023-.062874 1.2755518.449153 1.5133176 1.549452 1.4302079 1.072837-.0809415 2.156153-.0177059 3.235132-.0177059m-8.861291 57.449336h-.020958c0-1.561015-.03758-3.123476.015177-4.682684.028907-.860727-.109127-1.340956-1.145106-1.301569-1.858765.070824-3.722588.049504-5.582798.00542-.852054-.020235-1.145828.267035-1.139324 1.13824.023849 3.12167.000722 6.244784-.062513 9.366092-.018429.906979.200908 1.287115 1.195333 1.244115 1.858042-.080581 3.724033-.084555 5.582075-.010479 1.004903.040109 1.208703-.366044 1.174375-1.256401-.058177-1.498864-.016261-3.001702-.016261-4.502734m-79.950359 12.810804h-.0462523c0-1.56499-.0245716-3.130341.0101177-4.694247.0177059-.785567-.1362275-1.239418-1.0775342-1.217375-2.5268934.058899-5.0552323.060706-7.5828484.046252-.7472638-.004336-1.0793409.221866-1.0789795 1.024416.0007227 3.249947-.0310758 6.499894-.0892525 9.74948-.0140925.785928.2583625 1.035979 1.0457357 1.022248 2.5268934-.044445 5.0559549-.052034 7.582487.000361.9434748.019513 1.2878376-.286547 1.2520643-1.237249-.058538-1.56246-.0155378-3.128896-.0155378-4.693886m93.743663-12.89572h.070101c0-1.618831-.026378-3.238384.011564-4.856131.017706-.763886-.224758-1.053685-1.028391-1.039954-2.577482.043723-5.15641.039025-7.733892.001807-.768221-.011202-1.060912.218614-1.055853 1.016466.020235 3.2373.004336 6.475684-.037219 9.712984-.010117.771474.2468 1.050072 1.031282 1.039232 2.577843-.035412 5.156771-.038303 7.734253.005058.788457.013009 1.041761-.252219 1.021164-1.023332-.043362-1.617746-.013009-3.2373-.013009-4.85613m-36.287823-.325212c0 1.90574.028908 3.528906-.013008 5.150628-.019513.7516.182841 1.055853.999483 1.043206 2.82392-.043723 5.649647-.047698 8.473205.005059.90192.016983 1.103913-.324128 1.095241-1.149803-.034328-3.184905-.02927-6.370533.007949-9.555076.009034-.763886-.202354-1.075727-1.004903-1.039231-1.259292.057454-2.52328.015899-3.785101.030353-1.853706.020958-4.361448-.664516-5.389116.270648-1.187022 1.080786-.217892 3.625386-.38375 5.244216m-17.811473-69.3051022v-.0148152c3.005316 0 6.010993-.0256555 9.015586.0158993.903004.0126471 1.295787-.2113875 1.254594-1.2029213-.076606-1.8602098-.073715-3.7269239-.018068-5.5882178.027824-.9329957-.256194-1.2498962-1.219181-1.2426693-6.070254.0462523-12.14123.0592608-18.211484.0220421-.981416-.0061429-1.224602.3223208-1.203644 1.232913.043001 1.8616552.030353 3.7272853-.041193 5.5882178-.036135.9463655.276791 1.2296609 1.227854 1.2112322 3.064215-.0585381 6.130237-.0216808 9.195536-.0216808m15.16389 4.398305v.0798575c-3.905067 0-7.810496.0332439-11.71448-.0213194-1.079702-.0151765-1.492721.26306-1.435267 1.4081659.093589 1.8576804.062152 3.7247558.004698 5.585327-.02674.8726509.272094 1.1346268 1.131375 1.1320974 7.990446-.0231262 15.980893-.0234875 23.970979.0101824.973105.0039101 1.237249-.3534612 1.210148-1.268751-.055647-1.8605711-.086362-3.7276466.005059-5.585327.057454-1.167148-.386641-1.3835943-1.458032-1.3658883-3.903983.0646809-7.809412.0256555-11.71448.0256555m-25.524406 70.0791062h-.02421c0 3.124921.038664 6.250204-.022765 9.374041-.019513.992979.202715 1.372392 1.275552 1.363331 6.008825-.051283 12.018372-.060317 18.027558-.014426 1.132097.008672 1.437074-.36243 1.4013-1.44683-.075882-2.281178-.109849-4.570306.001446-6.848232.065765-1.348544-.476255-1.579805-1.659302-1.548007-3.002786.080219-6.012077-.039386-9.011611.092505-1.416115.062513-1.7182-.423498-1.681705-1.722898.080581-2.881736-.014815-5.76853.025295-8.652072.013008-.914206-.219699-1.28314-1.206896-1.242669-1.980177.081664-3.967219.094311-5.947396.026378-.991534-.034328-1.205812.343279-1.193526 1.244837.042638 3.124199.01626 6.24912.01626 9.374042m70.875874-36.577984h.006504c0-3.004593-.029991-6.009548.017345-9.013418.015176-.962265-.191152-1.392628-1.279165-1.376729-4.56597.066849-9.133385.07769-13.699716.038664-1.007433-.008672-1.179434.372187-1.172929 1.265073.045168 6.068808.059983 12.137978.037218 18.206786-.003613.953592.159715 1.374199 1.259653 1.360468 4.505986-.057454 9.01414-.058538 13.519765.020597 1.218098.021319 1.348182-.482397 1.330476-1.488385-.053117-3.003509-.019151-6.008463-.019151-9.013056m-62.336542 67.873449c0-.004336 0-.008311 0-.012286 3.063853 0 6.129875-.066488 9.190477.031437 1.299401.041555 1.787218-.230539 1.761201-1.64557-.081664-4.444196-.062152-8.891644.025656-13.33584.024932-1.241947-.411935-1.513318-1.542587-1.506814-6.127346.033967-12.255415.03216-18.382761-.02421-1.083677-.010117-1.44936.243186-1.432376 1.38504.068294 4.564885.082387 9.131939.006504 13.696463-.020597 1.256039.432893 1.462729 1.543309 1.435628 2.94208-.070823 5.88669-.023848 8.830577-.023848m-57.8959602-53.537403h-.0372186c0 3.668024.0364959 7.336771-.0220421 11.003712-.0180673 1.112946.1904294 1.555956 1.4573089 1.539334 5.7714203-.075521 11.5450086-.054563 17.3171516-.006865 1.0034582.008311 1.3597454-.232346 1.3534132-1.286392-.0475083-7.396033-.057626-14.792427-.0225755-22.188098.0050589-1.059467-.3559259-1.288921-1.3427621-1.282056-5.772143.039387-11.54537.044084-17.3171516-.01084-1.1064419-.010479-1.4345442.288354-1.412502 1.408166.0711851 3.606595.0263782 7.215359.0263782 10.823039m37.0018432 17.436396c-.316901.336051-.211026.70065-.072631 1.067777.000723 1.471763.001446 2.943164.00253 4.414566-.076244.089614-.082749.184286-.019513.283657-.038664.298833-.07516.721246.284379.723776 2.385607.015538 4.771576-.02674 7.157544-.050227.538045-1.86816.124665-3.779319.252943-5.666269.003974-.059261-.002168-.119605.000361-.179227.022042-.590801-.23885-.914206-.852415-.854945-2.246128.217169-4.518634-.248607-6.753198.260892m-12.7829806-60.305055c-.4455398 1.7268732.2139169 2.3212875 1.9675296 2.1449506 1.5881162-.159715 3.200804-.0747986 4.80229-.0975634.3617075.0068655.7230536.0140925 1.0843997.020958.9994834-.9037266.4112119-2.0708746.4328927-3.0967362.0332438-1.5877549.6992047-3.6994616-.2934131-4.6245077-.8596424-.8011044-2.9424415-.320514-4.4853894-.3508671-3.7428232-.0737146-3.7431845-.0607061-3.5166205 3.8349664.0028908.7226923.0054202 1.4457458.008311 2.1687994m29.4981296 38.877229c4.827945.012286 9.655891.024211 14.483475.036135.620793.192598.88313-.032521.881696-.684028-.011574-4.433356-.000373-8.866711-.020969-13.300067-.002169-.496851.061067-1.212678-.861088-.872651-6.020388.003614-12.040776.007227-18.061525.011202-1.05224-.333161-.715104.516364-.715827.922878-.011563 4.435162.011564 8.870325.025295 13.305126.01084.119966.021319.239572.031798.359539.094673.421691.372548.267035.622961.198018.263783.000722.527565.001445.791709.002168.940584.007227 1.881529.014454 2.822475.02168" fill="#fcfcfc"/><path d="m207.554756 138.667684c.906617-6.854736 1.413947-13.723203.914206-20.644426-.38122-5.276738-1.203644-10.47434-2.522919-15.595338 6.765845-1.639427 13.538194-3.2542828 20.29103-4.9464667.991895-.2486061 1.194249.028185 1.419729.9178192 3.500721 13.8055895 4.151506 27.7564415 2.217943 41.8464105-.130085.94745-.050589 1.931756-.465053 2.832954-7.276788-1.51115-14.506601-3.255006-21.854936-4.410953m-142.0776099-3.626108c0-3.60768.0444456-7.216443-.0263783-10.823039-.0220421-1.119812.3060602-1.419006 1.4121407-1.408166 5.7721429.054925 11.54537.049866 17.3175129.010841.9868363-.006866 1.3474597.222589 1.3424009 1.281694-.0350506 7.396033-.0245716 14.792427.022595 22.188459.006674 1.054047-.3496133 1.294703-1.3530715 1.286392-5.7721429-.047698-11.5457313-.068656-17.3171516.006866-1.2672408.01626-1.4753762-.426389-1.4576702-1.539335.0588994-3.66694.0224034-7.335687.0224034-11.003712z" fill="#142a6c"/><path d="m123.372925 188.578762c-2.943525 0-5.888496-.046975-8.830576.02421-1.110417.02674-1.563906-.179589-1.542948-1.435989.075521-4.564524.061429-9.131578-.006866-13.696464-.016983-1.141853.348699-1.394796 1.432376-1.385039 6.127346.05637 12.255415.058177 18.382762.02421 1.131013-.006143 1.567519.264867 1.542948 1.507175-.088169 4.443834-.107682 8.891644-.026017 13.335478.026017 1.415032-.461801 1.687487-1.761201 1.645571-3.060602-.097925-6.126624-.031438-9.190478-.031438zm62.33676-67.873304c0 3.004593-.033967 6.009547.019151 9.013056.017706 1.005988-.112379 1.509704-1.330838 1.488385-4.505263-.079135-9.013418-.078051-13.519404-.020597-1.100299.013731-1.263627-.406876-1.260014-1.360468.022765-6.06917.008311-12.137978-.036857-18.206786-.006504-.892886.165497-1.273745 1.17293-1.265073 4.56633.039026 9.133745.028185 13.699715-.038664 1.088013-.015899 1.294342.414464 1.279165 1.376729-.047336 3.00387-.017344 6.008825-.017344 9.013418z" fill="#172c6c"/><path d="m114.833738 157.283442c0-3.124922.026017-6.249843-.016622-9.374041-.012285-.901559.202354-1.279166 1.193888-1.244838 1.980177.067933 3.967219.055286 5.947396-.026378.987197-.040471 1.219904.328464 1.206896 1.242669-.040471 2.883542.055286 5.770337-.025294 8.652072-.036496 1.299401.265589 1.785411 1.681704 1.722898 2.999535-.131891 6.008825-.012286 9.011611-.092504 1.183048-.031799 1.725067.199463 1.659302 1.548006-.111295 2.277926-.077328 4.567054-.001807 6.848232.036135 1.0844-.268841 1.455502-1.4013 1.44683-6.008825-.045891-12.018372-.036857-18.027197.014426-1.072837.009061-1.295064-.370352-1.275552-1.363331.061429-3.123837.022765-6.24912.022765-9.374041z" fill="#ff2722"/><path d="m114.925267 130.468813c-.013731-4.435162-.036857-8.870324-.025655-13.305125.001084-.406876-.336052-1.256401.716188-.92324.220059.612843.747625.496851 1.212316.497213 5.214947.003974 10.429894.003974 15.64448.000361.466498-.000361.992618.108404 1.204728-.508414.921794-.340388.858559.375438.861088.872289.020615 4.433356.009395 8.866712.020615 13.300067.001789.651869-.260549.876987-.881341.68439-.338582-1.020803-1.204728-.596221-1.838529-.599835-5.637723-.032521-11.275806-.018067-16.91389-.017706" fill="#172c6c"/><path d="m140.358217 87.2041553c3.905067 0 7.810496.0390254 11.71448-.0256556 1.071391-.0177059 1.515485.1987404 1.458031 1.3658884-.09142 1.8580417-.060706 3.7247558-.00542 5.5856883.027462.9149284-.237043 1.2722997-1.209787 1.2683897-7.990447-.0333086-15.980532-.0329473-23.970979-.0101825-.859281.0025295-1.158476-.2590851-1.131375-1.131736.057093-1.8609325.08853-3.728008-.004697-5.585327-.057816-1.1454672.355203-1.4237038 1.434905-1.4085272 3.904345.0549246 7.809774.0216807 11.714842.0216807zm-15.163999-4.3981243c-3.065299 0-6.131321-.0368573-9.195536.0216807-.951063.0184287-1.263989-.2648667-1.227854-1.2112322.071546-1.8609325.084194-3.7265625.041193-5.5882178-.020958-.9105922.221867-1.2390558 1.203644-1.2329129 6.070254.0372186 12.14123.0242102 18.211484-.0220422.962987-.0072269 1.247005.3096737 1.21882 1.242308-.055647 1.8616552-.058177 3.7283693.018429 5.5885792.041193.9915337-.35159 1.2155683-1.254594 1.2029212-3.004954-.0415548-6.01027-.0158992-9.015586-.0158992z" fill="#ff2722"/><path d="m143.005583 152.111025c.166219-1.618831-.803273-4.16343.384111-5.243855 1.027307-.935525 3.535049-.250052 5.388755-.27101 1.26182-.014092 2.525809.027101 3.785462-.030353.802549-.036496 1.013575.275346 1.004903 1.039232-.03758 3.184905-.042639 6.370532-.008311 9.555075.008565.826038-.19332 1.166787-1.09524 1.150165-2.823559-.053118-5.649285-.049143-8.473205-.00542-.816642.013008-1.018996-.291606-.999484-1.043206.042278-1.62136.013009-3.244889.013009-5.150628m36.287823.325211c0 1.618831-.030353 3.238384.013008 4.856131.020958.771474-.232345 1.036341-1.021164 1.023332-2.577482-.043361-5.156409-.040471-7.734252-.005059-.784121.010841-1.041038-.267757-1.031282-1.039231.041916-3.2373.057454-6.475323.037219-9.712984-.005059-.797491.287631-1.027668 1.055853-1.016467 2.577482.037219 5.156771.042278 7.734252-.001806.803273-.013731 1.046097.27643 1.02803 1.039954-.03758 1.617746-.011563 3.2373-.011563 4.85613-.023126 0-.046614 0-.070101 0" fill="#142a6c"/><path d="m85.5496703 165.332029c0 1.56499-.0426389 3.131426.0158992 4.693886.0354119.950702-.3085896 1.256762-1.2520643 1.237249-2.5268934-.052395-5.0555936-.044806-7.5828484-.000361-.7873732.013731-1.0594668-.23632-1.0453743-1.022248.0578154-3.249586.0896138-6.499533.0888911-9.74948-.0003613-.80255.3317158-1.028391 1.0789795-1.024416 2.5276162.014454 5.0563163.012647 7.5828484-.046252.9413067-.022043 1.0952401.431808 1.0778955 1.217375-.0346892 1.563906-.010479 3.129257-.010479 4.694247z" fill="#ff2722"/><path d="m165.500391 152.521333c0 1.501032-.042278 3.003871.015899 4.502373.034689.890718-.169471 1.296871-1.174014 1.256762-1.858403-.074076-3.724033-.070101-5.582074.010479-.994425.043-1.214123-.337136-1.195695-1.244476.063597-3.121308.086723-6.244061.062874-9.36573-.006865-.871567.286909-1.158837 1.138963-1.138602 1.86021.044446 3.724395.065765 5.582798-.005059 1.036341-.039386 1.174014.440481 1.145106 1.301208-.052757 1.55957-.014815 3.12203-.014815 4.683045z" fill="#172c6c"/><path d="m174.361357 95.0720697c-1.078619 0-2.162296-.0632356-3.234771.0177059-1.10066.0831096-1.612688-.1550175-1.549813-1.4305693.106235-2.1518161.055647-4.3144727-.015538-6.4699023-.030353-.9214326.213194-1.269409 1.183408-1.2455601 2.455708.0607061 4.913946.0505884 7.370377.0122858.805079-.0126472 1.179795.1503199 1.160283 1.0681391-.049505 2.3357413-.033606 4.6747348.028907 7.0104761.024572.9163738-.347615 1.1039124-1.168232 1.0634417-1.255316-.0617902-2.516053-.0162606-3.774621-.0162606z" fill="#142a6c"/><path d="m80.2262469 94.2525005c-1.2910897-.1604377-3.2933085.6760786-4.25738-.2901609-.9716597-.9745505-.2146396-2.9695425-.2309002-4.5150198-.03758-3.5198726-.0046975-3.5205953 3.4927717-3.5260155 1.7427723-.0028908 3.485906.0231262 5.2275943-.0184287.7566588-.0180673 1.0554921.1860933 1.0316432 1.0081557-.0610675 2.1012277-.0476977 4.2060689-.0180673 6.308742.0108404.7617176-.2276481 1.0797022-1.0316432 1.0471811-1.3199974-.0534793-2.6436082-.0144539-4.2140185-.0144539" fill="#172c6c"/><path d="m157.078316 167.503322c0-.059984-.003613-.120328.000361-.17995.114186-1.654966-.718356-3.922051.34075-4.799038 1.01213-.838323 3.195384-.286548 4.86408-.302086 3.288611-.029991 3.286443-.017344 3.295838 3.228267.006143 2.100866-.01337 4.202455.048782 6.301515.026017.873012-.273178 1.123063-1.127762 1.103551-2.099059-.047698-4.203178-.0589-6.300069.033244-1.024417.044806-1.190997-.366405-1.152333-1.244838.060706-1.377813.016261-2.760323.016261-4.140665zm-24.293264-13.933218c-1.443216 0-2.890046-.066126-4.327842.021681-1.072114.065765-1.354325-.344363-1.26977-1.341317.081302-.955037.018428-1.922722.015537-2.884626-.008672-2.765382-.009395-2.768634 2.677575-2.765743 2.344775.00253 4.690634.055647 7.034325-.000361.975635-.023488 1.419006.191513 1.369863 1.273383-.070462 1.55957-.022042 3.126728.038303 4.688105.030353.785205-.241741 1.062358-1.029114 1.037786-1.501393-.046614-3.005677-.01337-4.508877-.01337z" fill="#142a6c"/><path d="m69.7386455 118.817316c-4.2501531.023849-4.2501531.023849-4.2520647-4.251599-.0013406-3.928555-.0013406-3.95421 3.9232397-3.938672 1.4873006.006143 3.3854518-.680054 4.3527754.208858.9871976.907701.2941357 2.838373.3281023 4.317002.0838323 3.647066.048059 3.647789-3.6311672 3.662965-.2402952.000723-.4805904 0-.7208855.001446" fill="#ff2722"/><path d="m93.7735467 155.259325c-4.1757158-.025655-4.1757158-.025655-4.1768368-4.160539-.0006857-4.030816-.0006857-4.036236 4.0760212-4.012387 1.3763674.007949 3.1451567-.459633 4.0206984.215723.9189031.7086.2977492 2.568449.3183459 3.92169.0625129 4.061169.0372186 4.06153-4.0582783 4.036236-.0599835-.000361-.1199669 0-.1799504-.000723m37.6408833-92.7468898c4.06659.0043362 4.06659.0043362 4.068175 4.0615304.001667 4.1189845.001667 4.1189845-4.23078 4.1164551-4.143195-.0025295-4.143195-.0025295-4.113565-4.1627074.028547-4.0210596.028547-4.0210596 4.095859-4.0152781z" fill="#172c6c"/><path d="m98.0107636 77.9066473c.0166219 4.1945058.0158992 4.2324471-4.1215139 4.171741-1.4110566-.0205968-3.2943926.678608-4.1045306-.337136-.6793307-.8516928-.1907907-2.647583-.1918748-4.0253958-.0028907-3.9704712.0025295-3.9704712 4.0131101-3.9708325h.180673c4.2075143 0 4.2075143 0 4.2241362 4.1616233" fill="#142a6c"/><path d="m93.7506012 131.094231c-4.1157323-.004336-4.1157323-.004336-4.1272954-4.190892-.0101177-3.615268-.0097563-3.623941 3.7081339-3.571545 1.495973.020958 3.4425445-.464691 4.3646998.286186.9911725.806886.2673962 2.828617.2905223 4.316279.0495044 3.166115.0104791 3.166838-3.1527449 3.161417-.3609848-.000722-.7223309 0-1.0833157-.001445m.1492721 4.094774c4.1074214.04011 4.1074214.04011 4.1139256 4.054665.0061429 3.760891.0061429 3.766672-3.8645968 3.778235-1.4327373.003975-3.3326953.529734-4.1771611-.182118-1.0070717-.848441-.3013627-2.814525-.3273796-4.291708-.0599835-3.379309-.0205968-3.380032 3.3536533-3.359435.30064.001807.6009186.000361.9015586.000361m24.9216807-40.1852659c-4.003715.001084-4.003715.001084-4.018892-4.0936902-.013369-3.483738-.012647-3.5198726 3.558898-3.4580824 1.531385.0263782 3.573352-.6959527 4.448894.3468923.750516.8936089.246799 2.8643907.247522 4.3585569.001445 2.8568024-.01337 2.8568024-2.793206 2.8474074-.480951-.0014453-.962264 0-1.443216-.001084m-25.010066 24.0240969c-4.1345223-.028908-4.1345223-.028908-4.1428333-4.243649-.0065042-3.39846-.0065042-3.39846 3.3814771-3.359435.3006399.003614.6016413.008311.9026426.010841 4.0210596.037218 4.0210596.037218 4.0391269 3.977336.016622 3.630445.016622 3.630445-3.6387554 3.616714-.1806731-.000723-.3609848-.000362-.5416579-.001807" fill="#172c6c"/><path d="m161.717458 87.4208546c3.741378-.0119244 3.741378-.0119244 3.750773 3.7836552.01084 4.171741.01084 4.171741-4.212212 4.1749931-3.658629.0032522-3.658629.0032522-3.657292-3.6470664 0-.0599834 0-.1203282.000469-.1803117.00253-4.1182618.00253-4.1182618 4.118262-4.1312702m-55.669128-4.6017096c-3.820513.0010146-3.820513.0010146-3.813647-3.7920357.00795-4.1287408.00795-4.1287408 4.198119-4.1598165 3.710664-.0278237 3.710664-.0278237 3.716806 3.7139154.000362.0599835.000362.1199669.000362.1799504.007227 4.0568329.007227 4.0568329-4.10164 4.0579864m59.507491-3.9655902c.020236 3.9296391.020236 3.9296391-3.868571 3.931151-4.181498.0010175-4.181498.0010175-4.16054-4.1595217.019513-3.7919663.019513-3.7919663 3.874354-3.8017226.059983 0 .119966-.0003614.17995-.0003614 3.953849-.0108403 3.953849-.0108403 3.974807 4.0304547" fill="#ff2722"/><path d="m93.9042817 99.3296304c4.1052533.009395 4.1052533.009395 4.1135643 4.0579166.0075883 3.743907.0072269 3.779681-3.8776052 3.725479-1.4746536-.020597-3.4338723.677524-4.2873718-.316539-.7237763-.84266-.2413792-2.742256-.2500515-4.174632-.0198741-3.3012583-.009395-3.3012583 3.2192326-3.2940314.3606234.0010841.7216082.0003614 1.0822316.0018068" fill="#142a6c"/><path d="m131.42014 107.389962c-4.237868-.008673-4.237868-.008673-4.244011-3.947346-.00542-3.5766035-.00542-3.5766035 3.702353-3.5943094 4.58765-.0216808 4.58765-.0216808 4.61439 4.5244144.017706 3.026636.017706 3.026636-2.989778 3.018686-.360985-.001084-.72197 0-1.082954-.001445" fill="#ff2722"/><path d="m149.402276 107.28705c-3.893865-.005059-3.893865-.005059-3.876521-3.734873.017345-3.7601681.017345-3.7601681 3.860261-3.75883 4.158371.0015526 4.158371.0015526 4.164153 4.183411.004697 3.300897.004697 3.300897-3.247418 3.310292-.300279.000723-.600196 0-.900475 0" fill="#172c6c"/><path d="m161.595323 130.832364c-4.015639-.009395-4.015639-.009395-4.020337-3.98348-.003975-3.583108-.003975-3.583108 3.730899-3.579856 4.163069.003252 4.163069.003252 4.181497 4.006244.016261 3.565402.016261 3.565402-3.532519 3.557814-.119606-.000361-.239573 0-.35954-.000722m-55.511364-23.491112c-3.845084-.010118-3.845084-.010118-3.846273-3.789798-.001341-3.6647725-.001341-3.6647725 3.943113-3.6962096 3.890614-.0314371 3.890614-.0314371 3.911572 3.6788646.021681 3.817622.021681 3.817622-4.008412 3.807143m55.431868-7.529333c3.942286.0068656 3.942286.0068656 3.958908 3.879412.015899 3.618159.015899 3.618159-3.673444 3.632974-4.191254.017345-4.191254.017345-4.192407-4.136329-.001015-3.3829226-.001015-3.3829226 3.906943-3.376057" fill="#ff2722"/><path d="m106.258091 95.15377c-4.044547-.0130084-4.044547-.0130084-4.039849-4.1269341.003975-3.5917804.003975-3.5917804 3.650318-3.6087637 4.322423-.0205967 4.322423-.0205967 4.307246 4.2046235-.012647 3.5437214-.012647 3.5437214-3.917715 3.5310743" fill="#142a6c"/><path d="m131.344546 142.432224c-4.148615.003614-4.148615.003614-4.144279-4.084295.003614-3.174064.003614-3.184904 3.431704-3.167921 1.497057.007227 3.396293-.47517 4.382045.253665 1.078979.797852.356287 2.805852.374354 4.278699.039387 3.198997.377607 2.660592-2.602053 2.717684-.48059.009034-.961181.001084-1.441771.002168" fill="#00c"/><path d="m118.888548 142.345827c-4.057917-.001807-4.057917-.001807-4.043463-4.103086.01084-3.019408.01084-3.034584 3.206585-3.008206 1.612326.01337 3.694764-.499019 4.708701.305337 1.088014.863256.174169 3.049762.39459 4.636071.235598 1.695075-.314009 2.457154-2.103395 2.187228-.705709-.106236-1.441049-.017344-2.163018-.017344m42.527909-.168352c-3.785101.081303-3.785101.081303-3.772092-3.600814.012286-3.418334.012286-3.418334 3.536494-3.41952 4.235338-.001343 4.235338-.001343 4.275086 4.144019.027824 2.853912.027824 2.854273-2.777306 2.875954-.420607.003252-.841575.000361-1.262182.000361m.117763-23.335407c-3.953488.02674-3.953488.02674-3.941925-3.835328.010479-3.393762.010479-3.393762 3.574436-3.39051 4.296405.003974 4.296405.003974 4.318808 3.871462.019875 3.340284.019875 3.340284-3.231157 3.352931-.239933.000722-.480229 0-.720162.001445" fill="#ff2722"/><path d="m149.392014 118.877588c-3.907235.018068-3.907235.018068-3.902899-3.830269.003975-3.463863.003975-3.473981 3.564679-3.451216 1.42804.009033 3.283914-.457826 4.167044.255471.932634.753407.278236 2.688054.302446 4.103808.049505 2.90703.0159 2.907753-2.873785 2.921845-.419162.002168-.838323.000361-1.257485.000361m.098684 23.527463c-3.994682.008311-3.994682.008311-3.982757-3.960715.010118-3.38509.010118-3.38509 3.838218-3.394846 4.216187-.010841 4.216187-.010841 4.215464 4.129463-.000722 3.210199-.000722 3.210199-3.16756 3.225014-.301362.001446-.602364 0-.903365.001084" fill="#142a6c"/><path d="m149.410443 130.476112c-3.816899.008673-3.816899.008673-3.813647-3.794857.002891-3.279216.003252-3.321855 3.232241-3.298006 1.46562.010841 3.410023-.730642 4.262439.307145.718356.874096.226203 2.744423.264867 4.173909.009756.359539-.051312.728473.008311 1.078256.226925 1.336981-.424582 1.665083-1.616302 1.548007-.772196-.076244-1.558124-.014454-2.337909-.014454" fill="#ff2722"/><path d="m109.550533 115.511505c.017706 3.744268.017706 3.744268-3.713554 3.747159-3.626109.002529-3.626109.002529-3.622495-3.611654.003613-3.97011.003613-3.97011 4.019614-3.946623 3.298367.019151 3.298367.019151 3.316435 3.811118" fill="#142a6c"/><path d="m102.408671 157.960243c-.000723-1.471401-.001807-2.943164-.002891-4.413843.228732-.341833.138396-.70607.073354-1.0685 2.234564-.509498 4.506708-.043723 6.752836-.260892.613566-.059261.874819.264144.852415.854945-.002168.059622.003614.119967-.000361.179227-.128278 1.88695.285102 3.797748-.252942 5.666269-2.385969.023487-4.771937.065765-7.157544.050227-.359178-.002529-.323044-.424943-.28438-.723054.028547-.025294.084194-.054924.081303-.076966-.009033-.070463-.039748-.138396-.06179-.207413" fill="#ff2722"/><path d="m149.423957 172.819193c-3.899647.020235-3.899286.020235-3.903622-3.837134-.003613-3.064938-.003252-3.095653 3.118778-3.041089 1.484772.025655 3.38762-.627659 4.342658.301362.962626.936609.116354 2.861862.345808 4.323145.300279 1.913328-.443371 2.570617-2.285875 2.264918-.525397-.087085-1.077896-.013009-1.617747-.011202m-55.5795142.030136c-3.8122016.027824-3.8122016.027824-3.8244874-3.743545-.0083109-2.561944-.0083109-2.557608 2.5366498-2.552188 1.3799809.003252 2.7617685.025655 4.1395812-.03216.7870119-.033244 1.102467.255833 1.0504332 1.026946-.028185.418077-.0014454.839768.001084 1.259652.0231262 4.012749.0231262 4.012749-3.9032608 4.041295m3.7058575-78.6081025c-.3613462-.0072269-.7230536-.0140925-1.0843998-.0209581-.8925249-1.2686862-2.1940936-.311119-3.2705437-.5954984-.5861034-.1542948-1.5028386.3241275-1.6972428-.5351536-.2659507-1.176543-1.0840383-.8563903-1.8023944-.9170964-.0025295-.7226923-.0054202-1.4457459-.0079496-2.1684381.7880959-.0462523 1.8743023.2681188 1.704831-1.1234251-.2269254-1.8631006.7114905-2.2985227 2.3274303-2.1406145.8310961.0816643 1.6795368.0603448 2.5149691.0043362 1.0421222-.0701012 1.3514345.403985 1.3283083 1.384317-.0473363 2.0365467-.0133698 4.0749002-.0130084 6.112531m-15.5562759 24.2741485c-3.2644008.003975-3.2644008.003975-3.2680143-3.227905-.0036135-3.003148-.0036135-3.003148 3.153829-2.999534 3.569377.004336 3.569377.004336 3.5849149 3.167921.0151765 3.055182.0151765 3.055182-3.4707296 3.059518" fill="#172c6c"/><path d="m173.294988 99.8924992c3.119501.0119244 3.119501.0119244 3.130703 3.0389208.01084 3.012181.01084 3.012181-3.11914 3.032778-3.558898.023126-3.558898.023126-3.538301-3.4252.01626-2.6689023.01626-2.6689023 2.629516-2.6486669.299194.0021681.598027.0003614.897222.0021681m-.168929 41.8241158c-3.370998-.002168-3.370998-.002168-3.353654-3.334141.015538-2.933769.015538-2.933769 2.999896-2.919315 3.794857.018428 3.794857.018428 3.800638 2.95545.006505 3.300174.006505 3.300174-3.44688 3.298006" fill="#ff2722"/><path d="m97.5503003 94.2412265c-.0003614-2.0376308-.0343279-4.0759843.0130084-6.112531.0231262-.980332-.2861861-1.4544182-1.3283083-1.384317-.8354323.0560086-1.683873.0773281-2.5149691-.0043362-1.6159398-.1579082-2.5543557.2775139-2.3274303 2.1406145.1694713 1.3915439-.9167351 1.0771728-1.704831 1.1234251-.2265641-3.8956726-.2265641-3.908681 3.5166204-3.8349664 1.542948.030353 3.6253857-.4502373 4.4850281.3508671.9926178.9246847.3266569 3.0367528.2934131 4.6245076-.0213195 1.0258617.566952 2.1926483-.4325313 3.0967363m36.1269877 21.9882365c-.21211.616818-.73823.508053-1.204728.508414-5.214586.003614-10.429533.003975-15.64448 0-.464691-.000361-.992257.115631-1.212316-.497212 6.020387-.003975 12.041136-.007588 18.061524-.011202m-18.752021 14.23935c5.638084-.000361 11.276167-.014815 16.91389.017706.633801.003614 1.499947-.420968 1.838529.599835-4.827946-.012286-9.655891-.02421-14.483476-.036135-.938416-.362791-1.879361-.331354-2.822836-.021681-.263782-.000722-.527565-.001445-.791348-.002168-.207774-.066126-.415548-.132252-.62296-.198017-.010841-.119967-.02132-.239934-.031799-.35954m-25.229439-38.2961124c.7183561.0603448 1.5360823-.2594465 1.8023944.9170965.1944043.8592811 1.1111394.3804975 1.6972428.5351536 1.0764501.2840181 2.3780188-.6731878 3.2705437.5951371-1.6018473.0231261-3.2145351-.0617902-4.8026513.0979248-1.7536127.1763369-2.412708-.4184388-1.9675296-2.145312" fill="#142a6c"/><path d="m116.371411 131.028394c.943474-.309674 1.88442-.341111 2.822835.021681-.940945-.007227-1.88189-.014454-2.822835-.021681" fill="#172c6c"/><path d="m102.479061 152.477864c.065404.36243.155379.726667-.072992 1.0685-.138034-.367489-.24427-.732449.072992-1.0685" fill="#b6828c"/><path d="m114.956957 130.828172c.207774.066126.415548.131891.622961.198018-.250413.069017-.528288.223673-.622961-.198018" fill="#172c6c"/><path d="m102.408671 157.960243c.022042.069017.052757.13695.06179.207413.002891.022042-.052756.051672-.081303.076966-.063235-.100092-.056731-.194765.019513-.284379" fill="#b6828c"/></g></g></svg>