<svg height="248" viewBox="0 0 1048 248" width="1048" xmlns="http://www.w3.org/2000/svg" xmlns:xlink="http://www.w3.org/1999/xlink"><mask id="a" fill="#fff"><path d="m0 0h68.797v195.93h-68.797z" fill="#fff" fill-rule="evenodd"/></mask><g fill="none" fill-rule="evenodd"><text fill="#23573f" font-family="NotoSans-Medium, Noto Sans" font-size="110" font-weight="400" letter-spacing="-.827" transform="translate(248 .098)"><tspan x="0" y="118">Banking on AI</tspan></text><g fill-rule="nonzero" transform="translate(70.113 26.035)"><path d="m68.7973943 195.929688c-4.2214297-.648824-8.14216-1.346993-11.9474485-2.5717-28.956265-9.318309-46.3208988-29.514008-54.31944573-58.330766-2.5038903-9.021635-3.16377579-18.269759-1.91657691-27.608603.86841542-6.500198 3.14448446-12.5179924 6.06451599-18.3353466 4.77689725-9.515991 10.89040705-18.1854761 16.93532555-26.9003206 6.6548914-9.5944508 13.4592141-19.0923594 19.2512019-29.2541102 3.9087881-6.857864 7.1123713-13.9857394 8.1384856-21.9242625.4727903-3.65940717.4326767-7.30992636-.0866578-11.0045791.6745836.23292709.7756334.85232926 1.0221336 1.31542509 5.1443508 9.66494191 6.9114966 20.07157261 6.6695895 30.89747221-.337751 15.1356636-5.1979378 28.968468-12.201604 42.1815638-3.9234861 7.4024841-8.7294734 14.2453304-13.3244811 21.2233357-5.0148235 7.6154902-9.225536 15.6168422-11.3175719 24.5707432-3.2283864 13.818707-1.1801387 27.066128 4.6528816 39.813982 6.6019169 14.428915 17.3217642 24.753714 31.6653168 31.40225 2.9965844 1.389287 6.0801327 2.53155 9.2090004 3.567156.4596233.152016.9912062.158759 1.505335.95776" fill="#23573f" mask="url(#a)"/><g fill="#f5b50a"><path d="m86.1302129 194.0899c-11.0067674-1.302552-21.0364144-5.333723-30.0133066-11.847406-14.7551006-10.706066-23.1624397-25.23428-25.3518509-43.310648-1.3271201-10.957687 1.0870503-21.146409 6.5755828-30.717873 4.8338525-8.4301219 10.5505124-16.258924 15.9820894-24.2838753 5.1483317-7.6069084 10.3119738-15.2009445 14.1855476-23.5780447 3.2348168-6.9954749 4.8396705-14.2683169 3.9035824-21.9996573-.0425634-.3515361-.055118-.7064434-.0949255-1.2332877.6240588.3591981.7936999.8814452 1.0420372 1.325539 4.7723041 8.5340195 6.4221708 17.7833705 6.1367819 27.437279-.4228779 14.3066271-5.6900194 27.010961-13.0314369 39.019885-3.5131629 5.746863-7.6635517 11.07507-10.9981934 16.939623-5.1008689 8.969531-7.7587835 18.511267-6.7136841 28.885717 1.224233 12.149294 6.5112784 22.306448 15.3696668 30.625316 5.2362144 4.917212 11.3267583 8.482223 18.0150269 11.038598 1.6412928.627065 3.3275988 1.135826 4.9930824 1.698835"/><path d="m95.7468725 193.096619c-9.4637683-1.472343-17.6350185-5.695067-24.5988772-12.205073-9.3648621-8.754687-14.174524-19.634834-14.6099565-32.450727-.2792647-8.225085 2.5430854-15.491797 6.8061599-22.34537 5.2882702-8.501533 11.5380441-16.336771 16.9947306-24.718469 3.6215618-5.5629728 7.1457483-11.1771286 8.9098319-17.6892797 1.0273392-3.7921144 1.3265077-7.6203936.7839011-11.738606.7266395.5464592.9351695 1.1775078 1.2211709 1.7362264 4.1736608 8.1640945 4.9731788 16.8501295 3.8215177 25.7884002-1.4131653 10.9690271-6.2987677 20.4828731-12.5561967 29.3969311-3.456514 4.923957-7.0535787 9.747999-9.6465765 15.233432-7.8968848 16.70547-1.5209519 36.197176 14.615162 45.179888 2.6839426 1.493798 5.5252778 2.448186 8.2591328 3.812647"/><path d="m104.503109 102.643031c2.298729 3.818778 3.061195 8.047631 3.285954 12.401835.467585 9.051364-2.395798 17.172243-6.963859 24.819608-2.8872667 4.833849-6.6095721 9.068526-9.7396646 13.725535-3.0566018 4.547289-5.3335895 9.396157-5.7105357 14.976292-.3763337 5.56941 1.1421684 10.593587 4.2508262 15.181636.6898941 1.017831 1.3412057 2.062018 1.8933048 3.18773-3.3505646-1.434952-6.0286893-3.690975-8.3038397-6.427562-8.108783-9.754434-9.1443898-23.223443-2.7399792-34.188793 3.5655251-6.104528 8.0003842-11.579541 12.1896619-17.235991 3.4623318-4.674786 6.9145587-9.353555 9.3939523-14.669503 1.742036-3.734496 2.455509-7.641235 2.444179-11.770787"/></g></g><path d="m0 0h248v248h-248z"/></g></svg>