<svg height="2048" viewBox="0 0 2048 2048" width="2048" xmlns="http://www.w3.org/2000/svg"><path d="m1917.46495 599.379433c-181.68886-267.834073-530.26387-431.469997-906.4432-429.421988v-169.957445l-408.899992 313.595698 408.899992 313.595698v-184.534718.266696c24.92935.711114 404.24878 17.066742 596.30009 293.070096 141.65338 203.644918 123.27303 464.89806-47.63965 662.3944l234.18793 197.06853c286.88711-284.53673 334.85937-684.990763 123.58942-996.083339zm-1782.869936 855.635427c184.433608 266.67354 534.401268 427.55603 910.553566 423.02765l1.58438 169.95749 405.95242-316.25816-411.84755-310.66021 1.90159 184.53471v-.26669c-24.92936-.44442-404.248792-14.31126-599.247656-288.97408-143.870816-202.75745-127.921526-464.010585 41.090109-662.667463-78.697225-65.067523-157.391747-130.401288-236.088972-195.466536-284.2640486 286.311666-327.9908198 687.016019-113.870575 996.811519z" fill="#1a8bf6" fill-rule="evenodd"/></svg>