<svg height="187" viewBox="0 0 546 187" width="546" xmlns="http://www.w3.org/2000/svg" xmlns:xlink="http://www.w3.org/1999/xlink"><mask id="a" fill="#fff"><path d="m0 0h200v187h-200z" fill="#fff" fill-rule="evenodd"/></mask><g fill="none" fill-rule="nonzero"><text fill="#2a2828" font-family="Heorot" font-size="110" stroke="#fff" stroke-width="2" transform="translate(220 38)"><tspan x="0" y="92">Àkàndé</tspan></text><path d="m37.1278174 144.337853c7.2035646 0 14.1516367-.21439 21.0736377.085493 3.776456.163533 5.6620766-.855805 7.3988579-4.139169 12.0735664-22.824839 24.4604556-45.5080677 36.752542-68.2338225.554594-1.0254759 1.240964-1.970282.763633-3.2386451-2.916123-7.7504757-5.5009118-15.6074884-8.8005114-23.2338896-.4479414-1.0355597-.9537129-2.0452523-2.1638662-3.0961568-18.3722417 34.0086202-36.6084419 67.766461-55.024293 101.85619m39.4458799-119.622921c.8115088 1.1254367 2.3236079 1.0548503 3.3834995 1.7431774 9.0967695 5.9112831 16.5856894 13.1075896 20.3123742 22.9967018 6.51198 17.2778874 12.815396 34.6237307 19.17664 51.9498448 5.046809 13.746374 10.058067 27.50371 15.051786 41.266744.315218.868959.498661 1.652862 1.737729 1.650684 7.69796-.010975 15.396393-.005275 23.214752-.005275-.216624-.711564-.341289-1.203477-.514778-1.680483-10.892328-29.881288-21.759533-59.770906-32.706847-89.6350959-2.419832-6.6013639-4.304979-13.3956345-7.448155-19.7418351-2.884365-5.8249133-7.697959-9.1885092-15.046097-9.0319915-8.2070492.1744931-16.4212079.0552415-24.6325224.0723401-.85654.0013153-1.7429433-.0960151-2.5283813.4151884m123.4288257 69.1067263c.226757 42.9853707-32.269155 81.2173377-78.090974 90.6921387-34.3872204 7.110813-64.8173864-1.162264-90.6866065-23.141821-17.7446496-15.076555-27.50124426-34.098058-30.5069561-56.142063-1.49645676-10.9768445-.54132202-21.8103238 1.8225772-32.6271434 2.58289289-11.8173052 7.9856848-22.4618232 15.0617401-32.4412512 3.938094-5.5548436 8.9014765-10.3376209 14.1165596-14.8840873 15.8571327-13.8248527 34.5995781-22.34651764 56.2116938-24.58818421 34.4279859-3.57053247 63.5209639 6.74385199 86.6309579 30.65203921 13.759629 14.2347799 21.863816 31.0624049 24.664281 50.0229668.063992.4336026.08153.8729042.137463 1.3078216.478279 3.7038135.600574 7.4242876.639264 11.1495838" fill="#2a2828" mask="url(#a)"/><g fill="#f2f2f2"><path d="m76.5738867 24.7149758c.7849644-.5116419 1.6718413-.4138731 2.5283814-.4156268 8.2113149-.0166601 16.4254736.1025914 24.6325219-.0719017 7.348138-.1565177 12.161733 3.2070782 15.046098 9.0319916 3.142701 6.3462006 5.028322 13.1404716 7.448155 19.7418351 10.947313 29.8641899 21.814519 59.75337 32.706373 89.635096.173962.476568.298627.96892.515251 1.680483-7.818833 0-15.516792-.0057-23.215225.005275-1.238594.002178-1.422037-.781726-1.737255-1.650684-4.993719-13.763035-10.005451-27.52037-15.05226-41.266744-6.361245-17.326553-12.664186-34.6719576-19.176167-51.949845-3.7271579-9.8891122-11.2156042-17.0854187-20.3123738-22.9967017-1.0598916-.6887656-2.5719907-.6177407-3.3834995-1.7431775"/><path d="m37.1278174 144.337853c18.4158511-34.089729 36.6520513-67.8475698 55.024293-101.85619 1.2101533 1.0509045 1.7159248 2.0605971 2.1638662 3.0961568 3.2995996 7.6264012 5.8843884 15.4834139 8.8005114 23.2338896.477331 1.2683631-.209039 2.2131692-.763633 3.2386451-12.2920864 22.7257548-24.6789756 45.4089835-36.752542 68.2338225-1.7367813 3.283364-3.6224019 4.302702-7.3988579 4.139169-6.922001-.299883-13.8700731-.085493-21.0736377-.085493"/></g></g></svg>