<svg height="194" viewBox="0 0 537 194" width="537" xmlns="http://www.w3.org/2000/svg" xmlns:xlink="http://www.w3.org/1999/xlink"><mask id="a" fill="#fff"><path d="m0 0h39.235v103.597h-39.235z" fill="#fff" fill-rule="evenodd"/></mask><mask id="b" fill="#fff"><path d="m0 0h22.574v7.269h-22.574z" fill="#fff" fill-rule="evenodd"/></mask><g fill="none" fill-rule="nonzero"><g fill="#f59f32" font-size="110" transform="translate(168 30)"><text font-family="Helvetica"><tspan x="0" y="107">À</tspan></text><text font-family="LofiCottageFree-Regular, Lofi Cottage Free"><tspan x="72.542" y="107">k</tspan></text><text font-family="Helvetica"><tspan x="127.815" y="107">à</tspan></text><text font-family="LofiCottageFree-Regular, Lofi Cottage Free"><tspan x="188.165" y="107">nd</tspan></text><text font-family="Helvetica"><tspan x="306.74" y="107">é</tspan></text></g><path d="m18 82h108v46h-108z" fill="#fff"/><path d="m3.47523712 75.4538202c.0754016-.7281777.21561118-1.456356.21592275-2.1845343.00623154-8.847397.04112815-17.6951129-.0389471-26.5415545-.03957026-4.3375341 1.26780616-8.1822896 3.53670871-11.759473-.00654309 16.5263964.02336828 33.0531113-.04486709 49.5791894-.01838302 4.4544377.8979645 8.6228274 3.00453551 12.4828731 1.4276451 2.6155169 2.8817742 5.2641611 5.4949692 6.9202411 1.6448141 2.518681 4.0748018 4.111691 6.6982788 5.174652 6.2271747 2.523141 12.5786686 4.719143 18.9513497 6.836148.0778943.0653.1467527.159269.2367984.19176 9.6953365 3.509016 19.3950351 7.004335 29.0838284 10.53119.9499979.345932 1.7900093.207368 2.693582-.115948 5.4158288-1.937031 10.85596-3.804301 16.2583912-5.779556 3.8401842-1.404116 7.7682333-2.564869 11.5003004-4.273827.154231-.006052.321236.025483.461134-.023572 6.161121-2.164785 12.333769-4.296442 18.473079-6.52398 3.004225-1.090355 5.679112-2.78243 7.88009-5.187393 3.823671-3.583555 6.695787-7.8048223 7.924334-13.0071875 1.089584-4.6156179.819447-9.3181964.766168-14.0370206-.161397-14.3151045-.052345-28.6333946-.048918-42.9504104 2.232448 3.653314 3.663832 7.5461688 3.648565 11.9340319-.031469 8.9072824-.006855 17.8148833-.003116 26.7221655.000312.7871077-.088799 1.5933277.399753 2.293156-.506001.4644287-.318431 1.0833486-.322793 1.6427014-.019007 2.3259659-.046114 4.6525686-.00374 6.9778967.102198 5.629525-1.381843 10.8296602-3.959518 15.752986-.606017 1.157249-1.577202 2.088018-1.971035 3.372045-.508182.595985-1.027269 1.182732-1.522676 1.789547-.97804 1.198022-2.058588 2.262895-2.186958 4.033649-.190685 2.628258-.698867 5.230715-.97025 7.855151-.210003 2.03068-.927565 3.63898-2.495731 5.03354-4.568339 4.062635-9.015476 8.267657-13.499689 12.428403-.64808.6014-1.381844 1.164575-1.696536 2.038325-1.088649 3.02229-2.283547 6.00763-3.107356 9.124207-1.796864 5.463885-3.561947 10.938601-5.399315 16.387832-1.750438 5.192173-3.224197 10.48118-5.2270132 15.584161-.1679396-.772455-.2545582-1.575808-.5184638-2.312587-.9487516-2.646414-1.2378946-5.164777-.2554933-7.999767 3.4778213-10.037137 6.7185313-20.160279 10.0414993-30.25348.250507-.761306.510362-1.524205 1.072447-2.094388 3.754812-3.81099 7.271892-7.889871 11.337969-11.350152 3.743908-3.186018 6.021223-6.884564 5.470044-12.056987-.780189.344977-1.616773.743149-2.473298 1.089082-5.640163 2.277548-11.432377 4.114557-17.15137 6.164031-10.6549929 3.818636-21.3159063 7.619434-31.9656027 11.452721-1.2824502.461562-2.4427624.488638-3.7535657-.034402-3.2809041-1.308873-6.6225662-2.458477-9.9421054-3.665418-11.4719479-4.170939-22.9410914-8.349522-34.4202053-12.499437-2.40475-.869291-4.8238327-1.693667-7.2030334-3.057967-.1099866 1.988634.3788775 3.57145.5748593 5.189943.2065755 1.706727.9266295 3.050321 2.1511265 4.260129 4.2913478 4.239743 8.4783174 8.5897 12.760941 12.83868 1.4790553 1.467187 2.5745594 3.051914 3.2354139 5.104574 3.2575359 10.116135 6.6368983 20.191178 9.9838567 30.277052.3975721 1.19834.4119046 2.406237.1093635 3.600755-.4284182 1.690482-.9415852 3.358348-1.4186094 5.035769-.0863068-.129326-.2065754-.247185-.2539351-.38989-4.2888552-12.994446-8.5817609-25.98698-12.8425742-38.990981-.510986-1.559882-1.3357299-2.82193-2.5415323-3.905915-4.1698328-3.748557-8.2075571-7.658295-12.4867534-11.269562-2.1548654-1.818534-3.369392-3.894447-3.6005819-6.675604-.0654312-.7887-.251131-1.566252-.3661028-2.351449-.6119369-4.177946-1.141306-8.389976-4.64561071-11.327534-.24863834-.937777-.8611984-1.675511-1.3242016-2.493836-2.12277299-3.7498308-3.81183104-7.6662576-3.96668472-12.0671809-.1224497-3.4934078-.05078703-6.9941418-.07758264-10.4913723-.00498522-.6826274.07789422-1.3846852-.25954351-2.0262216" fill="#da131b"/><path d="m84.1245031.97676539c5.2313753.4274782 10.265522 1.78986589 15.2052613 3.50423823 6.7179086 2.33169928 13.0837346 5.40845931 18.7971186 9.77657298.141145 11.9158752-.196293 23.8276095-.325286 35.7409364-.063873 5.8789402.243965 11.7445016.342423 17.6164339.057642 3.4389379-1.370938 5.7069294-4.319701 7.1887692-3.060619 1.5379024-6.222501 2.869073-9.160047 4.6608502-.44244.2698018-.910428.5185799-1.458803.4797184-.000312-.6870868-.095966-1.391056.014021-2.0590304 1.082418-6.5637971 1.707129-13.1881169 2.049863-19.8181699.35956-6.9651553.765856-13.9605716.02555-20.9282752-.255181-2.4020962-.244276-4.8526102-.922267-7.2027847-.784239-5.0150647-2.332776-9.7141395-5.444494-13.7659448-.386044-.5029718-.8269254-.9415988-1.4179862-1.1961108-4.2452348-1.8296832-8.6185272-3.1990787-13.1930985-3.8466667-.0673005-.0551071-.1227612-.1210445-.1657589-.1974937.0433093-1.22159379.1648244-2.44446176-.0644964-3.66095898.0124632-2.09757373.025238-4.19482893.0377011-6.29208413" fill="#5e1b29"/><path d="m103.236221 108.002973c3.422983-.565087 6.844409-1.140367 10.269885-1.68889 1.16997-.1873 2.089434-.643447 2.863079-1.657991 1.784089-2.339663 3.685019-4.588223 5.582834-6.834554.650573-.7702252.965576-1.5684824.918528-2.5951305-.065431-1.4295994-.014021-2.8646136-.015579-4.2973984-.002804-2.0380071-.06138-2.095981-1.864787-1.4041162-4.076983 1.5637037-8.142749 3.1579873-12.219421 4.7220096-1.937072.7428313-3.88879 1.4452077-5.834587 2.1663779.236798-4.1250687 1.111394-8.197579.978039-12.353865.29226-.2086425.564266-.4599692.880205-.6195567 3.57846-1.8045187 7.199606-3.5239877 10.736938-5.4078222 3.972605-2.1150935 6.166729-5.2093728 6.113761-10.1460775-.174484-16.2929077-.071663-32.5886825-.060446-48.8835018.000623-.6141416-.211872-1.2763823.223089-1.8436988 2.281677 1.5184714 4.090692 3.5803689 6.03462 5.4861826-.011528.3179011-.031158.6361207-.031469.9540218-.016514 26.6390272-.032404 53.2780542-.042063 79.9170812-.000312.421108.072598.842534.111544 1.26396-2.200978 2.404963-4.875865 4.097038-7.88009 5.187394-6.13931 2.227855-12.311958 4.359513-18.473079 6.52398-.139898.049055-.306903.017519-.462068.024209-.135536-.609364.14239-1.127945.324974-1.678378.744669-2.240916 1.653227-4.437236 1.846093-6.834236" fill="#fff"/><path d="m121.807853 17.1587265c-.434962.5673165-.222778 1.2295573-.22309 1.8436989-.011217 16.2948192-.114349 32.590594.060446 48.8835017.052968 4.9367048-2.141467 8.030984-6.11376 10.1460775-3.537644 1.8838345-7.15879 3.6036221-10.736938 5.4078223-.316251.1595874-.587946.4109142-.882075.6198753-.608509-.0156083-1.072136.3621778-1.579382.6119118-9.5557506 4.7003491-19.1177324 9.3879566-28.65323 14.1316266-1.1867958.5905694-2.1470761.6068151-3.3438427-.0079635-5.68877-2.9216322-11.4146173-5.7680887-17.1463849-8.6005303-5.4036771-2.6706234-10.8313456-5.2909184-16.2484206-7.9331926-2.6343822-1.3324453-5.2728148-2.6566084-7.9019002-4.000202-1.3999148-.7154367-2.6596199-1.6427013-3.7763113-2.7652295-2.0623271-2.0730466-2.6985671-4.6490646-2.6901544-7.5296052.044867-14.9636482.0439323-29.9272965.0595111-44.8909448.0009348-1.0613691.1950471-2.1651038-.0236798-3.1758254-.6664629-3.0777156.9372231-4.6997119 3.33543-5.9066529.334322.5915253.184142 1.2416617.1900619 1.8634482.0355198 3.645032.046425 7.2903827.0657427 10.9354148-.0087241 14.2064831-.0246146 28.4132846-.0186946 42.6200865.0009348 2.1829416 1.1696595 3.7167032 2.9618494 4.6978004 2.5966815 1.4213172 5.2587939 2.7177677 7.8931762 4.0674134.2607897.168507.5091165.3640892.784862.5016981 10.3340691 5.1507615 20.7248451 10.1878058 30.9660645 15.5249125 2.3511583 1.2254164 4.0981699 1.0938596 6.3025758-.0184756 9.19806-4.6420565 18.4615514-9.1487341 27.7010509-13.7047854.108117-.0990655.216234-.1978123.324351-.2968771.026485-.0812277.056707-.1608621.090358-.2395411.548375.0388615 1.016363-.2099166 1.458803-.4797184 2.937546-1.7914585 6.099428-3.1229478 9.160047-4.6608502 2.948763-1.4815212 4.377343-3.7495126 4.319701-7.1884506-.098458-5.8722509-.406296-11.7378123-.342423-17.616434.128993-11.9133269.466431-23.8250611.325286-35.7412548 1.369381.7781886 2.651831 1.6716882 3.68097 2.9012454" fill="#1c1c23"/><path d="m103.236221 108.002973c-.192866 2.397-1.101424 4.59332-1.846093 6.834236-.182584.550433-.46051 1.069014-.324974 1.678378-3.7311331 1.70832-7.6591822 2.869073-11.4993664 4.273189-5.4024312 1.975255-10.8425624 3.842525-16.2583912 5.779556-.9035727.323316-1.7435841.46188-2.693582.115948-9.6887933-3.526854-19.3884919-7.022174-29.0838284-10.530872-.0900457-.032809-.1589041-.126778-.23711-.192078-.3717111-2.385214-1.3347951-4.597779-1.9361384-6.916101-.1165298-.449457-.2112491-.904966-.3156274-1.35729 5.8158933.710658 11.5520229 1.914732 17.3186871 2.925135 4.8506282.850179 9.6738377 1.870138 14.5328782 2.661386 2.5019623.407411 4.9064008-.628794 7.3491631-1.033019 8.3365503-1.379907 16.6637527-2.820655 24.9943824-4.238468" fill="#f59f32"/><path d="m127.880391 104.77994c-.038946-.421426-.111856-.842852-.111547-1.263959.009662-26.6390278.025552-53.2780547.042066-79.9170819.000311-.3179011.019941-.6361208.031469-.9540218 3.500878 3.5937474 6.380471 7.6509679 8.679908 12.1410817-.003739 14.3163787-.112791 28.6346688.048606 42.9497733.053279 4.7188242.323416 9.4217213-.766168 14.0370206-1.228547 5.2023652-4.100663 9.4239511-7.924334 13.0071871m-112.2367385-.829218c-2.613195-1.656399-4.0676356-4.3050436-5.4949692-6.9205605-2.10688254-3.860045-3.02291842-8.0284353-3.0045354-12.4825544.06823531-16.5263967.03801236-33.0531115.04486703-49.579508 2.00312755-4.4315028 5.00205457-8.1329161 8.20444137-11.8161728.4972766.62975.3168736 1.276701.3174968 1.8628112.026484 24.4156308.0495407 48.8309434.0445555 73.2462558-.0003116 1.8949837.3533281 3.8030267-.1118561 5.6897287" fill="#13827d"/><path d="m100.045518 180.576858c-3.3485154 3.984912-7.0297957 7.599046-11.2155194 10.669435-2.250831 1.651302-4.6297203 2.546713-7.4903074 2.474405-6.0592346-.152899-12.1284399-.185708-18.1851821.007645-3.2026984.102251-5.8442466-.89127-8.3284488-2.786253-3.9632574-3.023565-7.5105597-6.485119-10.6933171-10.346438.748096.006371 1.4961919.01306 2.2449111.018475.1246307.510935.545571.733594.9163475 1.024737 1.559442 1.224143 3.1755911 2.387444 4.6275392 3.73486 1.0303846.95657 1.7588512.832977 2.757455-.001911 3.0029776-2.510081 6.0860302-4.919504 9.1005364-7.41525.7365677-.609682 1.4943224-.84763 2.419394-.842533 3.9888069.022297 7.9779249.026757 11.9664202-.015927 1.1559502-.012423 2.0959773.34434 2.9845945 1.084622 3.0051589 2.503391 6.0436563 4.965054 9.0684437 7.443918.3885365.318538.6876502.803991 1.304884.286048 2.0355318-1.708639 4.2745231-3.158625 6.1636129-5.05552.7627401-.300381 1.5507182-.37906 2.3586363-.280313m43.495349-96.8312027c-.418137 8.8486716-.819759 17.6982987-1.261575 26.5460147-.211872 4.238149-.528746 8.471203-.73314 12.709672-.051099 1.057865-.33588 1.858351-1.035059 2.686869-2.504766 2.968457-4.896741 6.036298-7.335453 9.063048-.270449.335739-.453968.688361-.478582 1.138136-.689208 12.478414-6.100363 22.554413-14.916742 30.96828-4.129016 3.940635-7.882894 8.280718-12.091362 12.144267-.147687-1.91537 1.08273-3.388609 1.590911-5.095336 1.432319-4.810883 3.513341-9.236652 7.178108-12.800138 1.344142-1.306962 2.945958-2.546712 3.527984-4.514641.508806-1.721061.855591-3.496275 1.428892-5.19249.839388-2.485235.969938-5.243457 2.610702-7.422895 3.974474-5.27977 7.997554-10.521952 11.941806-15.825294 1.239452-1.66691 2.908258-3.180285 3.077756-5.416104.164201-2.162555.498211-4.302177.66397-6.45645.369841-4.804511 1.272791-9.511549 2.178857-14.22687 1.123857-5.8486788 2.777707-11.5992478 3.165309-17.5861725.023056-.355807.139275-.6112745.487618-.7198962m-105.4944658 94.9406467c-5.9991005-5.545112-11.6495465-11.451765-17.064752-17.58235-3.1796416-3.599481-5.4600725-7.818519-7.0868152-12.385082-1.3890096-3.898907-2.159539-7.939245-2.5256419-12.060492-.06917-.77787-.3072147-1.39233-.7876662-1.993093-2.42624883-3.034076-4.81448533-6.100324-7.22889426-9.144275-.46456107-.585473-.79389779-1.161071-.83907643-1.971432-.66241236-11.90186-1.36003291-23.8014894-2.04924088-35.7008006.49166826.404862.5287459 1.0053063.6471451 1.5697558.5542952 2.6371774 1.11045986 5.2737174 1.66039298 7.9118508 1.58436823 7.605098 3.08959594 15.22039 3.88910214 22.969467.17323671 1.67806-.01744835 3.4692 1.17931829 5.002324 3.42578736 4.389137 6.68363486 8.915246 10.12811676 13.288456 3.0830528 3.914196 5.830849 7.966639 6.6668097 13.05433.6377977 3.881706 2.2978791 7.078874 5.2453961 9.75109 5.0276038 4.557963 6.5674166 10.968225 8.1658058 17.290251" fill="#da131b"/><path d="m38.0464012 178.686302c-1.5983892-6.322026-3.138202-12.732288-8.1658058-17.290251-2.947517-2.672216-4.6075984-5.869384-5.2453961-9.75109-.8359607-5.087691-3.5837569-9.140134-6.6668097-13.05433-3.4444819-4.37321-6.7023294-8.899319-10.12811676-13.288456-1.19676664-1.533124-1.00608158-3.324264-1.17931829-5.002324-.7995062-7.749077-2.30473391-15.364369-3.88910214-22.969467-.54993312-2.6381334-1.10609778-5.2746734-1.66039298-7.9118508-.1183992-.5644495-.15547684-1.1648938-.6471451-1.5697558-.03988183-1.055954.11123294-2.1638298-.15267265-3.1563945-1.02758042-3.8629124.60414749-6.6994948 3.16343966-9.2385627.33774929.6415364.25455828 1.3435942.25985508 2.0262216.02679561 3.4972305-.04517864 6.9979645.07758264 10.4913723.15454211 4.4009233 1.84391173 8.3173501 3.96637314 12.0671809.4630032.818325 1.07556326 1.556059 1.3242016 2.493836.56613514 6.161801 1.1366323 12.323285 1.6943548 18.486042.0916036 1.009767.5923076 1.752279 1.2519158 2.474724 4.4222101 4.845283 8.8400581 9.695345 13.2068075 14.592551 1.2101645 1.356972 2.5511912 2.633673 3.1456797 4.482469 3.2023868 9.960369 6.2365221 19.974253 9.1482077 30.02668.7328287 2.530149 1.8383034 4.958365 2.08663 7.628034-.5916844-.218518-.9590334-.684539-1.2759071-1.206623-.0380124-.188575-.1050014-.350392-.3280904-.365045z" fill="#5e1b29"/><path d="m39.6367517 180.222803c-.2486383-2.669669-1.3538014-5.097885-2.0866301-7.628033-2.9116856-10.052109-5.9461324-20.066311-9.1482076-30.026681-.5944886-1.848795-1.9355154-3.125496-3.1456798-4.482469-4.367061-4.896886-8.7845974-9.746949-13.2068075-14.592551-.6596082-.722445-1.1606237-1.464957-1.2519157-2.474723-.5580342-6.162439-1.12853136-12.324241-1.69435486-18.486043 3.50461626 2.937877 4.03398526 7.149589 4.64561066 11.327854.1149718.784878.3006716 1.562748.3661028 2.35113.2315016 2.781475 1.4460281 4.857069 3.6008935 6.675604 4.2791963 3.611585 8.316609 7.521004 12.4864419 11.269561 1.2058023 1.083986 2.0305463 2.346034 2.5415323 3.906234 4.2608132 13.003683 8.5540305 25.996535 12.8428857 38.990662.0470481.143024.1676284.260565.2536235.389891.0797638 1.074429.6592967 2.06126.536847 3.172003-.748096-.006689-1.4965036-.01306-2.2445996-.019431-1.4706427-.472073-3.0472215.383202-4.4957422-.373008" fill="#f59f32"/><path d="m143.54169 83.745916c-.348343.1086215-.464561.3640891-.487618.7198962-.387601 5.9869246-2.041451 11.7374939-3.165309 17.5861728-.906065 4.71532-1.809015 9.422359-2.178857 14.22687-.165759 2.154273-.499769 4.293894-.66397 6.456449-.169498 2.23582-1.838303 3.749195-3.077756 5.416105-3.944251 5.303341-7.967331 10.545524-11.941805 15.825294-1.640764 2.179437-1.771315 4.937659-2.610703 7.422894-.573301 1.696216-.920086 3.471429-1.428891 5.192491-.582026 1.967929-2.183842 3.207679-3.527985 4.514641-3.664767 3.563486-5.745788 7.989255-7.178107 12.800137-.508182 1.706727-1.738599 3.179966-1.590911 5.095336 0 0 .015578-.030898.015578-.030579-.116841.120088-.233994.240178-.350835.360266 0 0 .034585-.026757.034585-.026757-.213119.001911-.425926.003823-.639044.005734-.058888-.058611-.122138-.111488-.190062-.158951 1.662574-6.668914 3.93802-13.146069 5.896903-19.722289.722235-2.424713 1.701521-4.773931 2.109687-7.293887 1.04534-1.905495 1.460984-4.041612 2.142091-6.081212.729401-2.185172 1.093946-4.53662 2.72287-6.323619 1.199571-1.315881 2.366737-2.662342 3.559454-3.984594 3.823671-4.238787 7.6489-8.4763 11.485345-12.703302.371711-.40964.573925-.837436.621596-1.400612.510051-6.046491 1.081795-12.088523 1.212969-18.161771.393833-1.284028 1.365018-2.214796 1.971035-3.372045 2.577675-4.9233259 4.061715-10.1234612 3.959518-15.7529859-.042374-2.32501-.015267-4.6519312.003739-6.9778968.004362-.559353-.183207-1.1782727.322794-1.6427013.944389 1.2343353 1.99378 2.4017777 2.80388 3.7227554.814462 1.3283041.209068 2.8496423.169809 4.2881606" fill="#5e1b29" mask="url(#a)"/><path d="m26.1996266 26.792244c-.0190062-3.6453506-.0299114-7.2907012-.0654312-10.9357333-.0059199-.6217865.1442601-1.2719228-.1903734-1.8634482 7.6186769-5.56135758 16.0726913-9.21084921 25.1349037-11.45781734 2.6032244-.64567684 5.2235857-1.21649721 7.8891256-1.53216852.3679722 3.36217021-.1800915 6.72784434.0361428 10.09097016-.3464734.1054361-.6860922.2449558-1.0387971.3102562-5.6582354 1.0505388-11.1011712 2.7996318-16.3537336 5.1905791-5.6610396 2.5769737-10.7550094 6.0394834-15.4118368 10.1973619" fill="#b9222a"/><path d="m112.565766 152.135446c-.408165 2.519956-1.387451 4.869175-2.109686 7.293887-1.958884 6.57622-4.234329 13.053375-5.895969 19.722289-.170433.359949-.348654.718305-.189438 1.13559-1.414248.523357-2.89673-.013698-4.324999.28955-.8082299-.098428-1.5962074-.020067-2.3598827.279996-.2430295-1.106921.3019178-2.075595.5187755-3.101288 2.0028162-5.1033 3.4765752-10.392307 5.2270132-15.584161 1.837368-5.44955 3.602451-10.924265 5.398692-16.386876 1.699028 1.838602 2.548387 4.198651 3.735494 6.351013m-53.5610864-141.0417814c-.217169-3.36280735.3312062-6.72848146-.0370776-10.09033312.8646257-.07517501 1.6931083-.46761401 2.5832834-.29942587 3.0394325.20991664 6.0776182.39530585 9.0796607 1.01613671 4.8285066.99861711 9.2949604 2.87735513 13.4560689 5.54861606.2296325 1.21649722.1078057 2.43968373.0644964 3.66064042-5.4893603-.7992122-11.0105019-.98237163-16.5363171-.709703-2.8771005.1420681-5.7404917.5733687-8.6101147.8740688" fill="#f59f32"/><path d="m84.0860412 7.26872211c-4.1611086-2.67126095-8.6275627-4.55031751-13.4563805-5.54893462-3.0017313-.62083086-6.039917-.80590153-9.0796607-1.01613671 7.0699901-1.00212103 14.1402917-.86737939 21.2099702-.01528983.4595759.05542564.910116.19048582 1.364395.28827703-.0130862 2.09757374-.0258609 4.19482893-.038324 6.29208413" fill="#f59f32" mask="url(#b)"/><path d="m104.370673 180.287338c-.159216-.417603.019005-.77564.189438-1.135588.066989.047462.13024.100339.189127.158632.001247.208324.003116.416966.004674.625609-.127747.117222-.255493.234126-.383239.351347" fill="#5e1b29"/><path d="m104.754006 179.935959c-.001558-.208643-.003428-.417285-.004986-.625609.21343-.001593.426238-.003504.639356-.005415-.21156.210236-.42281.420789-.63437.631024m-66.7212208-1.284728c.2230891.014653.2900781.17647.3280905.365045-.1093635-.121682-.2187269-.243363-.3280905-.365045" fill="#1c1c23"/><path d="m105.353728 179.331597c.116842-.120089.233683-.239859.350836-.360267-.116841.11977-.233994.240178-.350836.360267" fill="#1c1c23"/><path d="m98.2046915 177.755342c-.2168577 1.026012-.7621168 1.994368-.5187755 3.101288-1.8881553 1.897213-4.1268354 3.347518-6.1626783 5.056156-.6172339.517944-.9163476.032491-1.3048834-.286047-3.0247881-2.479183-6.0629738-4.940846-9.0684444-7.443918-.8886172-.740283-1.8286442-1.097046-2.9845945-1.084623-3.9884952.042684-7.9776133.038225-11.9664202.015927-.9250715-.005097-1.6828263.232852-2.419394.842534-3.0145062 2.495427-6.0975588 4.905168-9.1005363 7.415249-.9986038.83457-1.7270704.958163-2.757455.001911-1.4519481-1.347416-3.0677856-2.511036-4.6272277-3.734859-.3707765-.291144-.7920283-.513803-.9166591-1.024738.1218266-1.109786-.4573948-2.096299-.5371584-3.171047.4770241-1.677103.9898796-3.345287 1.4182977-5.03577.3028527-1.194199.2885202-2.402095-.1093634-3.600754-3.3469585-10.085874-6.7260092-20.160917-9.9835451-30.276734-.6608545-2.05266-1.7563587-3.637387-3.235414-5.104892-4.2826236-4.248981-8.4699048-8.598619-12.760941-12.838362-1.2248086-1.209807-1.9448626-2.553402-2.1514381-4.260129-.1959818-1.618492-.6848459-3.201627-.5748592-5.190261 2.3795123 1.364299 4.7985949 2.188994 7.2033449 3.058285 11.479114 4.149915 22.9482574 8.328499 34.4198937 12.499437 3.3198509 1.206941 6.6615129 2.356545 9.9424165 3.665419 1.3104922.52304 2.4708044.495645 3.7532551.034083 10.6500076-3.833288 21.310921-7.634085 31.9656022-11.452402 5.718993-2.049474 11.511207-3.886484 17.151682-6.16435.856525-.345933 1.693109-.744105 2.472986-1.089082.551179 5.172422-1.725825 8.870969-5.469732 12.056987-4.066078 3.460281-7.583469 7.53948-11.338281 11.35047-.561773.570184-.821628 1.333083-1.072447 2.094389-3.322656 10.0932-6.563367 20.216342-10.0411876 30.25348-.9824013 2.83467-.69357 5.353351.2551816 7.999767.2642173.736778.3508353 1.539813.5187755 2.312586" fill="#13827d"/><path d="m112.565766 152.135446c-1.187107-2.152362-2.036466-4.512411-3.735494-6.351013.824432-3.117852 2.01933-6.103191 3.107979-9.125481.314692-.873751 1.048456-1.436926 1.696536-2.038007 4.484213-4.161064 8.93135-8.365768 13.499689-12.428722 1.568166-1.39456 2.285728-3.002541 2.495731-5.03354.271383-2.624436.779565-5.226893.97025-7.854833.12837-1.770753 1.208918-2.835945 2.186958-4.033966.495407-.606815 1.014494-1.193563 1.522676-1.789229-.131174 6.072929-.703229 12.114961-1.212968 18.161771-.047672.562857-.249885.990654-.621596 1.400294-3.836446 4.227001-7.661675 8.464514-11.485346 12.70362-1.192716 1.321933-2.359883 2.668394-3.559454 3.984275-1.628923 1.786999-1.993468 4.138448-2.723181 6.32362-.680796 2.0396-1.096439 4.175716-2.14178 6.081211" fill="#f59f32"/><path d="m103.205437 79.9442847c-.03365.0783603-.063873.1583134-.090045.2398591-.108118.0990655-.216546.1978123-.324664.2965591-9.2394986 4.5560513-18.5029901 9.0627289-27.7010501 13.7044673-2.2044058 1.1126533-3.9514175 1.2438914-6.3025758.0187937-10.2412194-5.3374254-20.6319954-10.374151-30.9660645-15.5252311-.2757455-.1372903-.5240722-.3328725-.7842389-.5016975.1526727-3.0235644.0249262-6.0372538-.2187269-9.0518987-.7624285-9.4249071-2.9088814-18.4917771-7.0407018-26.9677588-.7094605-1.4554008-.3209242-2.0061533.4910451-2.905705 7.8146587-8.6623266 17.5592243-13.7586184 28.6956038-16.3015085.0056083 12.1420373.0084125 24.2837561.0249261 36.4257934.0009347.6705228-.1913082 1.3894634.2913244 1.9940488-.8393881 2.2663988.1255654 3.8718313 2.4144091 3.8810688 6.5879802.0270759 13.1759611.0289873 19.7639419-.0009553 2.3418116-.0108303 3.2416451-1.5350357 2.3773314-3.8718313.4483592-.411233.3576903-.9619854.3573786-1.4827953-.0040509-12.4299958-.0109053-24.8599916-.0174485-37.2899874h-.0018696c2.2006673.3249089 4.3440048.9011444 6.4873417 1.494581 4.8216517 1.3346748 9.3064885 3.4838518 13.710939 5.836256.678303 2.349856.667397 4.80037.922579 7.2024662.740306 6.9677036.33401 13.9631199-.02555 20.9282752-.342734 6.630053-.967445 13.2543728-2.049552 19.8181699-.110298.6679744-.014644 1.3716249-.014333 2.0590304" fill="#b9222a"/><path d="m58.9641123 22.9501643c-11.1363794 2.5428901-20.8809451 7.6391819-28.6959154 16.3015085-.8116576.8995517-1.200194 1.4503042-.4907335 2.905705 4.1318205 8.4759817 6.2782733 17.5428517 7.0403903 26.9677588.2439647 3.0146449.3717111 6.0283343.2190385 9.0518987-2.6350053-1.3493277-5.2971179-2.6460969-7.8941108-4.0674141-1.7918784-.9807785-2.9606032-2.5145401-2.9615378-4.6974817-.00592-14.2068019.0099704-28.413922.0186946-42.6204051 4.6565158-4.15756 9.7504856-7.6197512 15.4115252-10.1967249 5.2525624-2.3909473 10.6954982-4.1400403 16.3537336-5.1905791.3527049-.0656189.6923237-.2048201 1.0387971-.3105748 2.8702462-.3007 5.7336373-.7320006 8.6107378-.8740686 5.5258153-.27298723 11.047268-.0898278 16.5363172.7093844.0433093.0770863.0987701.1430237.1648244.1971751-.1261888 3.8250062.1657589 7.6560645-.1420788 11.4797966 0 0 .001869-.0006371.001869-.0006371-8.4262836-1.6003357-16.8307578-1.5455471-25.2115514.3446583" fill="#f5f1ef"/><path d="m84.1738882 22.6060793c.3078377-3.8234134.0155783-7.6547903.1420788-11.4797964 4.5758174.6488622 8.9491099 2.0179392 13.1940329 3.8476223.5910614.254512 1.0322539.6934576 1.4182974 1.1961108 3.1117187 4.0521238 4.6602557 8.7511987 5.4441827 13.7659448-4.4047622-2.3520857-8.889599-4.5012626-13.7112507-5.8359375-2.1430258-.5931181-4.2866744-1.1696721-6.4873411-1.493944" fill="#f5f1ef"/><path d="m102.790697 80.4806391c.108429-.0987468.216546-.1974936.324664-.296559-.108429.0987468-.216546.1974936-.324664.296559" fill="#5e1b29"/><path d="m58.9641123 22.9501643c8.3807936-1.8902054 16.7852678-1.944994 25.2115514-.3446583.0065432 12.4299958.0137093 24.8599916.0177602 37.2899874.0003117.5208099.09098 1.0715623-.358002 1.4827953-8.1851236-.0028673-16.3702471-.0057341-24.5550591-.0082822-.4826325-.6045854-.2903896-1.323526-.2913243-1.9940488-.0165136-12.1420373-.0193178-24.2837561-.0249262-36.4257934" fill="#f59f32"/><path d="m59.2803628 61.3698472c8.184812.0028667 16.3699355.0057335 24.5550591.0082822.8649371 2.3367956-.0348964 3.861319-2.3770197 3.8718312-6.5876691.0299427-13.1756499.0280313-19.7636302.0009554-2.2891553-.0092375-3.2537972-1.61467-2.4144092-3.8810688" fill="#f59f32"/><path d="m59.5205262.97676539c-5.2313751.4274782-10.2652106 1.78986589-15.2052613 3.50423823-6.7182198 2.33169928-13.0837347 5.40845931-18.7971192 9.77657298-.1411443 11.9158752.1962934 23.8276095.3252862 35.7409364.0638733 5.8789402-.2439646 11.7445016-.3424229 17.6164339-.0576417 3.4389379 1.3709381 5.7069294 4.3197013 7.1887692 3.0606193 1.5379024 6.2225011 2.869073 9.1600475 4.6608502.4424391.2698018.9104275.5185799 1.4588028.4797184.0003115-.6870868.0959656-1.391056-.014021-2.0590304-1.082418-6.5637971-1.7071295-13.1881169-2.049864-19.8181699-.3595597-6.9651553-.7658559-13.9605716-.0255493-20.9282752.2551814-2.4020962.2442762-4.8526102.9222674-7.2027847.784239-5.0150647 2.3327758-9.7141395 5.4444937-13.7659448.3860437-.5029718.8269249-.9415988 1.4179862-1.1961108 4.2452344-1.8296832 8.618527-3.1990787 13.1930982-3.8466667.0673005-.0551071.1227612-.1210445.1657588-.1974937-.0433091-1.22159379-.1648241-2.44446176.0644964-3.66095898-.012463-2.09757373-.0252377-4.19482893-.0377008-6.29208413" fill="#5e1b29"/><path d="m38.9670796 106.676102c-3.4229832-.549159-6.8444085-1.108194-10.2698842-1.641427-1.1699711-.181885-2.0894343-.625291-2.8630796-1.610847-1.784089-2.273726-3.6850193-4.4588974-5.5828339-6.6418397-.6505724-.7485647-.9655765-1.5242048-.9185285-2.5218662.0654312-1.3894639.014021-2.7840238.0155789-4.1763538.0028042-1.9803519.0613806-2.0364145 1.8647873-1.3642987 4.076983 1.5194267 8.1427492 3.068796 12.2197322 4.588542 1.9367616.7221256 3.8884789 1.4047529 5.8342763 2.1055373-.2367984-4.0088029-1.1113946-7.9663207-.9780397-12.0053848-.2922591-.2025904-.5642657-.446909-.8802046-.602037-3.57846-1.7535524-7.199606-3.424285-10.7369379-5.2549237-3.9726047-2.0558455-6.1667288-5.0625268-6.1137608-9.86003.1744831-15.8329391.0716627-31.6690634.0604459-47.5039135-.0006231-.596622.2118723-1.2403876-.223089-1.7917771-2.2816772 1.4754687-4.0906923 3.4793922-6.0346202 5.331373.0115283.308982.0311577.6179641.0314693.9272646.0165135 25.8872771.032404 51.7742356.0420628 77.6615126.0003116.409322-.0725974.818962-.1115445 1.228283 2.2009788 2.337115 4.875866 3.981727 7.8800899 5.041185 6.13931 2.164786 12.3119588 4.236239 18.4730793 6.339865.1398979.047781.3069031.017201.4620684.023254.1355359-.591844-.1423906-1.095772-.3249747-1.630597-.7446686-2.177846-1.6532267-4.312051-1.8460927-6.641521" fill="#fff"/><path d="m104.946903 106.410186c2.659931-.695687 5.389656-.960074 8.101309-1.314288 1.446963-.188893 2.563343-.69728 3.51116-1.930341 1.851701-2.409104 3.869784-4.6860151 5.843-6.9963721.498523-.5835619.771464-1.1738132.745603-1.9803519-.055772-1.7439962-.057018-3.4924524.000312-5.2364486.035832-1.0868521-.248327-1.2308312-1.238206-.8396667-3.748893 1.4805658-7.532059 2.870029-11.304943 4.2865681-.28447.1067103-.589192.1579948-.884878.2347624-.075402.0713529-.138652.1742404-.227763.2092798-12.0330971 4.7245577-24.0708687 9.437011-36.0980462 14.177178-.9384692.369822-1.7791034.351984-2.6979439-.024528-3.2192119-1.319385-6.4540026-2.599271-9.6844314-3.889988-6.6531001-2.658519-13.307135-5.3144902-19.9605469-7.9710987-1.9451742-.7208515-3.8968915-1.4232286-5.8336532-2.1660592-4.0769829-1.5640223-8.1427491-3.1583059-12.219732-4.7220096-1.8034068-.6915462-1.8619832-.6338909-1.8644758 1.4041162-.0018695 1.4327848.0495407 2.867799-.0155788 4.2973984-.0470482 1.0269668.2676444 1.8249046.9185285 2.5951299 1.8978145 2.2463309 3.7987448 4.494892 5.5828338 6.834555.7733337 1.014544 1.6931085 1.47069 2.862768 1.657991 3.4254757.548522 6.846901 1.124121 10.2698842 1.688889 8.3309415 1.417814 16.6578326 2.85888 24.9946941 4.238469 2.4427624.404225 4.8468891 1.440748 7.3488514 1.033019 4.8593522-.791248 9.6822501-1.811208 14.5328783-2.661068 5.7669759-1.010721 11.5031055-2.214796 17.3183759-2.925136" fill="#1c1c23"/></g></svg>