<svg height="1600" viewBox="0 0 3520 1600" width="3520" xmlns="http://www.w3.org/2000/svg" xmlns:xlink="http://www.w3.org/1999/xlink"><linearGradient id="a" x1="50%" x2="50%" y1="0%" y2="100%"><stop offset="0" stop-color="#fff"/><stop offset="1" stop-color="#fff"/></linearGradient><g fill="none" fill-rule="evenodd"><path d="m0 0h3520v1600h-3520z" fill="url(#a)"/><g transform="translate(1518 547)"><text fill="#000" font-family="SFCompactDisplay-Medium, SF Compact Display" font-size="91" font-weight="400" letter-spacing="-.684"><tspan x="0" y="325">Audio Waveforms Made Easy</tspan> <tspan font-family="SFCompactDisplay-Thin, SF Compact Display" font-size="88" font-weight="300" letter-spacing="-.662" x="0" y="434">A Swift library for loading and processing audio </tspan><tspan font-family="SFCompactDisplay-Thin, SF Compact Display" font-size="88" font-weight="300" letter-spacing="-.662" x="0" y="539">sample data to generate waveform visualizations.</tspan></text><text fill="#ff2722" fill-rule="nonzero" font-family="NotoSans-Regular, Noto Sans" font-size="175"><tspan x="0" y="187">AudioWaveLib</tspan></text></g><g fill-rule="nonzero" transform="translate(82 425)"><path d="m644.560335 235.000526c5.648477-40.330524 5.58234-81.1142 9.650911-121.574547 3.409664-33.9227107 6.011-67.9336025 17.366742-100.516453 3.860367-11.08140258 9.692554-15.6766084 21.623922-11.22837078 10.385753 3.87016271 22.738433 2.43722271 31.127867 11.66927538-4.364957 6.216755-5.17818 13.5921093-6.537637 20.7396629-14.733562 77.4840865-18.912359 155.9847025-21.533289 234.5465555-3.42191 102.618099-3.600723 205.2313 1.450086 307.861644 2.90507 59.054273 6.709098 117.915038 17.792949 176.060558 1.917934 10.064875 1.535817 21.195266 9.374121 29.511219-.144519 6.358824-5.308 7.583558-9.770933 9.055687-8.041614 2.647879-16.433496 4.31352-24.31834 7.333715-11.091199 4.249832-15.821129-.624613-19.451242-10.549867-11.14509-30.483656-13.915438-62.373305-17.165887-94.248258-4.57316-44.842449-3.568879-90.108656-10.393102-134.772293 1.391301-15.44391-.259644-30.838828-.683402-46.258242-2.008566-73.155875-2.900172-146.306847.340477-219.46027.859765-19.36796.776484-38.780011 1.126757-58.170016m230.127957-104.985756c-.739742-5.746456 3.404762-7.848102 7.549266-9.56763 6.344129-2.630731 12.815629-4.965076 19.292027-7.25778 16.369809-5.792996 18.287742-5.138988 23.789254 11.894627 8.168981 25.28343 10.326965 51.632379 13.087516 77.900496 2.669922 25.386308.845066 51.331095 9.048343 76.063394-3.674207 4.235134-2.199625 9.339829-2.108992 14.067306.820571 42.701612 3.505192 85.361582 2.569492 128.099938-.759335 34.542426-1.420691 69.082402-2.12614 103.624828-6.339227 32.793508-5.224719 66.331648-9.942399 99.294168-2.699316 18.858472-5.459867 37.670402-12.47025 55.541734-3.424359 8.727461-8.416382 13.197746-18.397972 8.311051-7.593356-3.718293-15.772137-6.226551-23.605543-9.474551-3.184309-1.322711-7.370453-2.050203-6.665008-7.147551.913652-2.229019 2.008566-4.39925 2.709113-6.691953 14.478821-47.431539 18.535141-96.484625 21.156074-145.547511 5.584793-104.621766 5.423129-209.231283-7.020179-313.441537-3.059391-25.636153-5.609289-51.710762-16.864602-75.669029m-366.731718 539.142811c-.024496 5.442723-3.835871 7.647247-8.112645 9.371672-5.601937 2.260864-11.235718 4.445789-16.8695 6.623368-18.958898 7.328816-20.526558 6.758089-26.836394-13.043426-11.688871-36.678367-13.834606-74.872953-17.031164-112.842188-.923453-10.951582-2.385785-21.702304-4.982223-32.340355 2.667473-4.213086.962641-8.774.82057-13.121809-1.418242-43.985136-3.500293-87.95557-2.15798-131.989695 1.178195-38.672233 2.231465-77.346916 3.338625-116.019149 6.309836-27.923959 5.675422-56.653793 9.854219-84.834946 2.922218-19.713335 6.206957-39.272354 12.533937-58.265544 3.590926-10.785017 9.006703-15.48555 20.453078-9.75379 6.113875 3.061838 12.759289 5.214922 19.35816 7.11816 6.180012 1.783214 9.841969 5.256563 10.635598 11.664376-8.992004 9.428011-8.901371 22.160356-11.341047 33.631224-11.955863 56.20554-15.664359 113.307586-17.954613 170.615388-3.56643 89.197453-2.290254 178.167101 10.491078 266.641961 3.282293 22.728632 6.415164 45.829586 17.800301 66.544753" fill="#fbfafc"/><path d="m874.688292 130.01477c11.255313 23.958267 13.805211 50.032876 16.864602 75.669029 12.443308 104.210254 12.604972 208.819771 7.020179 313.441537-2.620933 49.062886-6.677253 98.115972-21.156074 145.547511-.700547 2.292703-1.795461 4.462934-2.709113 6.691953-4.580508-7.661945-4.52907-16.213043-5.043457-24.746996-2.118793-35.208683-1.415793-70.686808-9.746441-105.324765-4.360059-18.133426-12.149371-34.268086-26.838844-46.422356 1.579906-7.539469 4.418844-15.05689 4.536418-22.615957.764234-49.611566.994484-99.240279-2.476414-148.773462-.499692-7.147554-2.48866-14.584145-9.587227-18.890313 26.615942-12.974843 31.914145-38.41259 36.697961-63.784201 5.521106-29.288313 4.955277-59.154701 7.255332-88.751648.59032-7.593357.766684-15.328784 5.183078-22.040332" fill="#9d57f2"/><path d="m758.641218 269.863589c9.457402 11.208775 16.602508 24.582881 30.050098 32.056215-.805875 8.183679 4.499676 15.948499 2.123691 24.112583-6.591523 22.677194-.636863 45.689965-2.023262 68.54107-1.143902 18.833976-1.036125 37.810019-1.494175 56.715031-.335578 13.756223-5.92527 28.117465 2.023261 41.56016-15.757441 11.808895-28.800871 25.932539-37.423003 43.833266-3.439055 1.861597-2.716461 7.911789-8.034262 8.166531-3.451305-5.939965 1.65339-10.018332 2.714012-14.875629.651558-2.990805 3.759937-6.24125.999382-9.089984-2.699316-2.785047-6.128574-.849969-9.04834.563379-3.73789 1.807707-7.267578 3.118175-11.64723 1.535816-5.748906-2.077152-7.946082 1.410894-9.109578 6.591523-2.138391 9.518641-4.624602 18.958899-7.08877 28.401606-.827918 3.167164 1.75627 8.996902-3.539484 8.793597-5.038559-.193507-6.544984-5.523554-6.341676-10.35391.673606-15.899511-2.221672-31.669199-2.255961-47.443785-.19841-94.101293-1.672988-188.219729 2.322098-282.286727.12982-3.029995-2.18248-7.500278 3.333727-8.972409 2.618484 5.200225 1.437839 10.596408 1.34966 15.764789-.225352 13.229588 2.349039 25.900697 7.007933 38.148047 3.622766 9.52109 9.996285 15.652114 21.080137 13.491681 4.999371-.974889 7.642348 1.587256 10.175102 4.955278 2.091843 2.780148 3.363121 7.412096 8.227769 4.751972 4.47518-2.447021 6.069785-7.020181 4.61725-11.585994-1.837102-5.7734-4.778918-11.198976-7.311668-16.742127-1.844453-4.039176-3.431707-7.909339 3.052039-9.126726.484996.477647.546231 1.004283.183711 1.577459-.046539 4.786264.97734 8.977308 6.057539 10.917288" fill="#f628bb"/><path d="m1122.00761 488.145418c-6.48865 18.562085-5.06551 38.148046-7.23084 57.256363-2.50826 22.104019-4.46048 44.266824-12.08568 65.371457-5.43293 15.034847-6.99324 16.048929-21.64352 9.961996-8.11754-3.370473-20.69557-1.094914-22.02808-14.833992 4.66379-4.102864 5.14143-10.089367 6.54743-15.480649 5.34719-20.506965 8.41393-41.391148 10.60865-62.490882 9.7048-93.23418 9.08019-186.348333-3.58602-279.217541-2.36864-17.352046-3.6742-35.529563-13.45249-51.176778 3.57623-6.390667 29.15114-19.54922 34.97353-17.420631 5.04591 1.844451 6.2437 7.321466 7.8824 11.683972 8.04896 21.425515 10.31227 43.985134 12.71275 66.557001 2.0894 19.652098.74464 39.870024 8.85238 58.613368-4.24738.918552-2.85118 4.014682-2.73361 6.770336 2.08695 49.236798 1.56522 98.485843.73974 147.739788-.09063 5.535801-3.16471 11.21857.44336 16.666192" fill="#fbfafc"/><path d="m379.691299 472.211125c-24.435913.188609-38.341555 10.091816-46.184758 33.611628-8.215523 24.629422-8.769103 50.314567-9.903208 75.921325-.387016 8.707867 1.410895 17.981562-4.835254 25.645953-.886707-1.790563-1.988969-3.51009-2.63318-5.383938-13.621503-39.772043-16.893995-81.224425-19.314071-122.725797-3.899556-66.899925-2.924667-133.753312 4.894041-200.361751 3.311683-28.220345 7.176947-56.450487 16.68824-83.487737 8.438424 19.172002 4.605003 39.879821 7.311668 59.779316 2.07715 15.284693 4.06367 30.449362 10.175098 44.734672 5.452521 12.742143 13.712134 22.809465 27.247905 27.630022 7.862799 14.280411 5.244316 29.533261 4.766669 44.791009-.702998 22.390606 1.317815 44.962473-.783831 67.176716-1.342309 14.206925 1.369254 24.44816 12.570681 32.668582" fill="#fb7722"/><path d="m318.402374 195.429828c-9.511293 27.03725-13.374107 55.267393-16.68824 83.490187-7.818708 66.605989-8.793597 133.459375-4.891592 200.36175 2.417627 41.498922 5.690119 82.951305 19.314072 122.723352.641761 1.876293 1.744022 3.59582 2.630731 5.386383-7.634998 12.455554-21.86397 12.215507-33.472009 16.533921-4.193492 1.560313-6.135922-5.648476-7.769719-9.513742-7.987722-18.892762-10.202042-39.078844-12.751941-59.19634-2.799744-22.10157-1.859147-44.661187-8.090599-66.348796 2.062454-6.799731 1.141453-13.77827.734841-20.602493-2.535202-42.691812-1.856699-85.349335.122473-128.036249.487445-10.473934 3.720745-20.942969.764235-31.507534 6.243699-22.92459 5.134089-46.787327 8.935667-70.032798 2.687068-16.41145 5.089999-32.813101 11.688871-48.286404 3.216154-7.539468 7.397399-11.431676 15.801531-7.049574 7.853001 4.093064 18.586579 2.532752 23.671679 12.078337" fill="#fbfafc"/><path d="m739.441781 554.337695c-.641762 1.609301-1.450086 2.650324-1.266375 3.466.171464.756883 1.398648 1.276172 2.160433 1.903238.477645-.903855 1.366805-1.834656 1.312914-2.704215-.051437-.766687-1.156148-1.464785-2.206972-2.665023m9.905656-287.842127c2.532754 5.543151 5.477016 10.968727 7.311672 16.742127 1.452535 4.565813-.142071 9.138973-4.617254 11.585994-4.862195 2.660124-6.135922-1.971824-8.22777-4.751972-2.5303-3.368022-5.17573-5.930167-10.175097-4.955278-11.083852 2.160433-17.454926-3.970591-21.077692-13.491681-4.66134-12.24735-7.235734-24.918459-7.010383-38.148047.08818-5.168381 1.268825-10.564564-1.349656-15.764789-5.516207 1.472131-3.203906 5.942414-3.33373 8.972409-3.995086 94.066998-2.520504 188.185434-2.322098 282.286727.034293 15.774586 2.929567 31.544274 2.255961 47.443785-.203305 4.830356 1.30557 10.160403 6.344129 10.35391 5.295754.203305 2.711562-5.626433 3.537035-8.793597 2.466617-9.442707 4.950379-18.882965 7.088766-28.401606 1.1635-5.180629 3.360672-8.668675 9.109578-6.591523 4.382101 1.582359 7.90934.271891 11.64723-1.535816 2.922219-1.410895 6.351477-3.348426 9.048344-.563379 2.760551 2.848734-.347824 6.099179-.999383 9.089984-1.060621 4.857297-4.604703 5.592187-1.153402 11.532152 5.317801-.254746 3.034594-2.961457 6.473648-4.823054-3.96814 15.625168-8.48741 31.135214-11.796644 46.897554-8.262063 39.331141-7.769719 79.318738-7.977926 119.230403-.107777 20.773957.203305 41.562609-1.986519 62.270429-.636864 6.001199-.406614 12.28409-5.261461 16.987074-7.835856-8.313504-7.456188-19.441445-9.374125-29.506316-11.081403-58.147969-14.885426-117.008734-17.79295-176.063008-5.048355-102.630347-4.869546-205.243547-1.447636-307.861646 2.620933-78.561853 6.797281-157.062469 21.530843-234.5465554 1.359454-7.1475536 2.17268-14.5204585 6.537633-20.739663 7.576211 17.2810113 6.322082 35.7794093 7.042227 53.8883413 1.467234 36.9306601-.541332 73.9495011 3.424359 110.8385201 2.91732 27.135229 9.822375 53.285772 17.604344 79.291795-6.481301 1.217387-4.896492 5.08755-3.052043 9.126726z" fill="#ee2eac"/><path d="m507.956574 669.157581c-11.385137-20.715167-14.518008-43.816121-17.800301-66.544753-12.781332-88.47486-14.057508-177.444508-10.491078-266.641961 2.290254-57.307802 5.99875-114.409848 17.954613-170.615388 2.439676-11.470868 2.349043-24.203213 11.341047-33.631224 5.249215 9.224705 4.161652 19.696189 5.077754 29.589599 1.604402 17.315304 1.69993 34.770227 2.424973 52.166363-.619715 2.302502-2.3025 4.943031-1.695032 6.856067 5.058157 15.99504-9.121828 32.688178 1.85425 48.526451.918551 1.327613-.195961 5.143887-1.575011 6.799729-6.405364 7.696235-5.53825 16.73478-5.278606 25.619008.683403 23.438979 2.082047 46.86816 2.287805 70.309588.379668 43.598119.200855 87.203584.036742 130.8066-.029394 7.314117.387016 13.236937 10.101613 12.237554 4.318414-.443355 6.927102 1.770965 7.434141 6.202055l.215555.60257s-.514391.377219-.514391.379668c-7.404746 1.8567-4.144504 7.906891-4.874445 12.389422 0 0 .026945-.068586.026945-.068586-2.025711 1.268825-2.40048 3.243098-2.304953 5.413328.19841.710348.088183 1.371704-.328227 1.981622-2.229019 1.420691-2.353941 3.010398-.374769 4.764218-6.949145 35.696129-5.523555 72.097703-9.156117 108.070621-.524188 5.187977-.484996 10.57436-4.362508 14.787449" fill="#f75997"/><path d="m1059.13706 197.534412c9.77829 15.647215 11.08385 33.824732 13.45249 51.176778 12.66621 92.869208 13.29082 185.983364 3.58602 279.21754-2.19472 21.102188-5.26146 41.983918-10.60865 62.490883-1.406 5.391281-1.88364 11.377789-6.54743 15.480648-5.83464-16.036679-3.59093-33.001707-5.49662-49.491543-1.39619-12.10773-2.54745-24.195863-4.77646-36.215414-3.04224-16.409-9.46965-30.718804-22.39306-41.68998-1.07532-.854863-2.14818-1.709731-3.22105-2.564594 0 0-.13472.489895-.13227.484996 3.42436-10.368609-4.81321-20.702922.03919-31.142562 3.51254-7.554168 3.57133-15.681508 3.49049-23.870086-.31598-31.710841 3.49785-63.938518-12.34043-93.596702 27.66187-10.603756 31.89945-35.561406 36.57059-60.080601 4.41885-23.191583 2.03061-47.218435 8.37719-70.199363" fill="#4bccfb"/><path d="m1122.00761 488.145418c-3.60807-5.447622-.53399-11.130391-.44336-16.666192.82548-49.253945 1.34721-98.50299-.73974-147.739788-.11757-2.755654-1.51377-5.851784 2.73361-6.770336 4.66134 9.565181 10.23634 18.515545 17.49412 26.329354 22.56942 24.298743 52.84731 18.356329 64.43821-12.644164 6.06733-16.230189 6.49599-33.442615 8.83034-50.331711.52418-3.79178-.9308-8.386986 3.38762-11.088751 6.09917 5.959561 5.68032 14.179982 6.79972 21.555337 10.43964 68.739478 11.03731 137.696958 2.39803 206.615247-1.91058 15.230808-.54623 31.703492-10.8291 45.104543-6.15307-12.960145-2.18738-27.328739-5.68767-40.702844-2.24127-8.570695-3.06674-17.540656-5.63134-25.998676-7.70358-25.396105-34.73103-34.236242-56.53866-19.100965-11.70357 8.119992-18.19222 20.364891-26.21178 31.438946" fill="#44fafc"/><path d="m1014.1888 327.813886c15.83827 29.658184 12.02445 61.885861 12.34043 93.5967.08083 8.188578.02204 16.315921-3.4905 23.870086-4.8524 10.43964 3.38517 20.773957-.03674 31.142562-21.14873-8.484965-38.473827-2.067352-53.743823 13.4035-10.082019 10.216742-15.99259 23.108301-23.468375 35.010277.703-34.537527 1.366805-69.079957 2.123692-103.619933.938148-42.740803-1.746473-85.400773-2.567043-128.102384-.090633-4.727478-1.565211-9.832173 2.106543-14.067307 5.08755 8.279209 9.616621 16.977277 15.377773 24.764142 12.666211 17.116897 29.315258 26.540008 51.358043 24.002357" fill="#85b3fb"/><path d="m588.008441 306.605885c12.617219-4.693185 22.596359-13.067923 31.691242-22.677194 1.624 1.425592 2.785047 3.221053 2.104094 5.349643-4.499676 14.037913.842617 28.159107.761785 42.192121-.08573 15.007903 2.204523 30.591432 2.168646 45.971654-.101291 39.754898-7.701998 79.215863-4.828771 119.098133.399266 5.530902-1.917934 8.492312-7.612953 8.494761 0 0 .053891.039192.053891.039192-.872012-.847516-1.746473-1.692582-2.620934-2.537649 0 0 .178812.169012.178812.169012-.925902-.818121-1.85425-1.633797-2.780148-2.449469 0 0 .066133.124922.066133.122473.044094-8.590293-6.194707-7.610504-11.730512-7.701133-4.93323-1.604402-9.864016-3.208808-14.797246-4.810761-5.102246-4.075918-10.067324-4.080817-14.880531.494793 0 0-.641762.051441-.644211.046543-10.753176-8.232672-9.930153-20.029317-8.467817-31.194004 5.996301-45.765899 8.641727-91.583235 1.393747-137.354033-1.501524-9.476999.852417-11.708466 9.109578-11.301855l.64666-.389465s.607469.448253.607469.448253c3.350875 3.55908 6.665007 3.581125 9.9375-.105328l.551132-.404162s.497243.467849.502141.465399c3.047141.134721 6.194711.722594 8.590293-1.966924" fill="#f657a9"/><path d="m379.691299 472.211125c-11.201427-8.220422-13.91299-18.461657-12.570681-32.668582 2.101646-22.214243.080833-44.78611.783831-67.176716.477647-15.257748 3.09613-30.510598-4.766669-44.791009 22.366111 3.392516 38.395442-6.963843 51.647075-23.610442 9.217356-11.578645 14.317152-25.410802 21.342234-38.17744-1.109609 38.682031-2.160433 77.356714-3.341078 116.028947-1.342308 44.034124.742192 88.002113 2.160434 131.989695.139621 4.345359 1.846898 8.908722-.820574 13.121808-5.342293-4.774015-6.324531-11.995054-9.966891-17.77825-10.843805-17.227125-23.830894-31.612863-44.467681-36.938011" fill="#f94542"/><path d="m567.173738 308.557622c-8.259613-.406612-10.611106 1.824856-9.109578 11.304305 7.24798 45.768348 4.60255 91.585686-1.39375 137.351584-1.462332 11.167133-2.285356 22.963782 8.467816 31.194-16.796016 5.379035-26.907426 18.074641-35.507515 32.428535-.509493-4.42864-3.118176-6.642964-7.436594-6.199609-9.712149.996934-10.128559-4.923434-10.101614-12.237551.164114-43.603019.345375-87.208484-.036742-130.80905-.203304-23.43898-1.601953-46.86816-2.287804-70.30714-.259645-8.884227-1.124305-17.925222 5.281058-25.621456 1.376602-1.655842 2.493559-5.472116 1.572559-6.79728-10.973625-15.838273 3.206355-32.531412-1.85425-48.526451-.60502-1.915486 1.07532-4.553565 1.697484-6.856067 2.265758 19.642301 4.769117 39.19642 12.42861 57.724212 7.451289 18.02565 18.802132 31.781873 38.28032 37.351968" fill="#f464a0"/><path d="m1216.0773 542.507976c10.28288-13.401051 8.91852-29.871285 10.82911-45.10209 8.63928-68.918289 8.04161-137.878221-2.39803-206.617699-1.11941-7.372905-.70055-15.595776-6.79973-21.552887.40416-11.105897 6.11633-15.732946 22.97848-18.689457 9.84932-1.726876 9.72439 6.743392 11.70356 12.129776 8.338 22.69679 7.33617 46.971038 11.25777 70.429613.72994 4.360056 1.69748 8.680922 2.5548 13.018933-2.12614 3.759937-1.82486 7.882394-1.35946 11.865233 2.65278 22.589013 1.41825 45.249059 1.61665 67.887063.09308 10.446988-2.94671 20.913574.13227 31.33607-5.93016 18.378375-4.56581 37.716941-7.36065 56.516621-1.78812 12.036699-3.99019 23.926426-8.25962 35.311562-2.71646 7.240633-7.08631 12.039145-15.62272 6.956496-6.75809-4.02448-17.77335-1.949781-19.27243-13.489234m-1103.097773-194.49331c7.652144-18.662512 5.628882-38.929428 9.574978-58.228802 2.020813-9.873814 4.296371-19.590862 7.336163-29.209931 2.731159-8.634382 7.191644-11.997504 15.928904-7.924035 5.663175 2.640528 12.820526 2.442121 16.484933 8.805844-1.766067 6.662559-3.904455 13.258982-5.239416 20.012171-12.178765 61.550284-13.258981 123.72518-8.864632 186.000508 1.8469 26.184836 3.64971 52.705247 14.055059 77.488985-5.91547 9.834625-16.796016 10.302472-26.101553 12.56823-5.7783 1.408446-6.704199-6.148168-8.115094-10.334312-6.900157-20.484918-8.421278-41.937379-9.942399-63.282059-.69565-9.783183-2.037959-19.230789-5.574994-28.352617.259644-28.404055.798527-56.815457.582974-85.219512-.056338-7.434142 5.048358-14.956464-.124923-22.32447" fill="#fbfafc"/><path d="m162.256496 544.958425c-10.405349-24.781285-12.210608-51.304148-14.057509-77.488984-4.3919-62.272875-3.311683-124.450224 8.867082-185.998058 1.334961-6.755639 3.470899-13.352062 5.239416-20.01462 7.938733 15.110781 2.559697 32.100305 6.767886 47.754868 1.893441 7.037327 2.667473 14.417581 4.979773 21.295693 6.508242 19.350813 16.232638 26.356298 36.847378 27.536942-2.841385 4.257179-.536434 8.222871 0 12.595175 2.180028 17.819895 8.969959 36.110086 1.57011 53.582156-4.237583 10.008535-2.68217 16.898895 3.41946 24.310992-31.468342-3.710949-43.287035 20.634336-46.383165 46.30968-1.464783 12.127328-1.89344 24.377125-2.873228 36.565692-.387016 4.837703-.394365 9.851765-4.377203 13.550464" fill="#fa8619"/><path d="m789.320585 492.84791c-7.948531-13.440242-2.35884-27.801485-2.023261-41.557707.45805-18.907461.350273-37.883504 1.494175-56.717481 1.386403-22.848656-4.568261-45.863876 2.025711-68.54107 2.373539-8.164084-2.932015-15.928904-2.126136-24.112583 11.928918 5.817491 24.195863 7.017732 36.862074 2.672371 7.098562 4.30372 9.087531 11.74276 9.587226 18.890314 3.470899 49.533183 3.240649 99.161894 2.473961 148.773464-.115125 7.559063-2.956508 15.076489-4.536418 22.613504-14.233871-8.276758-28.862105-8.014664-43.757332-2.020812" fill="#db47ec"/><path d="m1266.59297 457.213019c-3.07899-10.422492-.03919-20.889078-.13228-31.33607-.1984-22.640449 1.03613-45.298048-1.61664-67.887061-.46785-3.982839-.76669-8.105296 1.35945-11.865233 6.35883 9.327582 11.29206 19.732931 21.76109 25.726784 19.91664 11.402283 40.13947 3.806476 47.1523-18.412667 2.88793-9.146321 4.6393-18.650264 6.90751-27.985195 4.29637 3.546833 3.86526 8.894026 4.42619 13.474535 5.57989 45.660571 5.09735 91.365231.41641 137.077243-.30863 3.020195-.6785 5.68277-4.28167 6.32943-4.08572-5.991403-3.31169-13.219789-4.72503-19.835809-3.07164-14.36614-9.23205-26.397937-23.95337-30.77759-15.7256-4.680937-28.44569 1.672989-38.39789 14.123645-3.0055 3.762387-5.94487 7.576211-8.91607 11.367988" fill="#44fafc"/><path d="m612.293464 505.034515c5.69502-.002449 8.00977-2.963859 7.612953-8.494761-2.875675-39.882274 4.725028-79.343235 4.825457-119.098134.039192-15.380223-2.253511-30.963752-2.165332-45.971655.080832-14.033014-5.26391-28.154209-.764234-42.192121.683402-2.12859-.480098-3.924051-2.104094-5.349643 10.40045-15.235704 17.795399-31.994978 24.862121-48.923265-.350273 19.387555-.266992 38.797156-1.126757 58.165116-3.240649 73.155872-2.349043 146.304397-.340477 219.462717.423758 15.416965 2.074703 30.811887.683402 46.255793-8.920968-18.873164-17.51616-37.932492-31.483039-53.854047" fill="#ee2eac"/><path d="m1342.58655 482.335765c3.60317-.64666 3.97059-3.309234 4.27923-6.331879 4.68093-45.709562 5.16593-91.416673-.41641-137.074794-.55848-4.582959-.12983-9.927702-4.42375-13.476984-.79852-15.872566 13.06058-13.298173 21.46961-15.593327 8.23757-2.248614 8.73236 7.147554 10.17265 12.357577 6.35147 22.980928 6.03304 46.77263 6.53273 70.307138.65646 30.897617.91365 61.932402-6.29758 92.29848-1.33741 5.628883-2.01347 14.625789-11.52476 12.16407-8.16408-2.111445-20.23262-.389464-19.79172-14.650281" fill="#fbfafc"/><path d="m215.889112 448.531609c-6.101629-7.409648-7.657043-14.302457-3.41946-24.308539 7.399849-17.47452.609918-35.764714-1.57011-53.582159-.533984-4.374754-2.841385-8.340446 0-12.597625 26.356298-6.304936 37.182955-27.527144 47.407043-49.327428 2.954061 10.569464-.279239 21.038499-.766684 31.509983-1.979172 42.689364-2.657675 85.346885-.120024 128.036248.404163 6.826676 1.325163 13.805215-.73729 20.604942-5.295754-3.120625-5.930167-9.27859-8.930768-13.898293-7.909339-12.176313-18.238754-21.241805-31.862707-26.437129" fill="#fb7722"/><path d="m35.2735186 487.664589c-4.2326842 7.145102-11.9264697 7.649692-18.7776374 9.503942-6.0869331 1.648492-7.29452183-3.289637-8.80829433-7.497828-4.73237615-13.151203-5.9228186-27.027453-6.49599459-40.690594-1.65339229-39.336043-2.5768425-78.728419 4.14205385-117.797466.61481699-3.571328 1.07041844-7.326366 2.56704465-10.547419 2.03795906-4.384551 2.43477322-12.624568 8.90872252-10.802163 7.1279579 2.006116 18.1334269-.242497 19.8260107 11.691321-1.2859718 3.331279-3.3067846 6.571928-3.7452397 10.013434-6.6478617 52.144318-9.1144781 104.249445 2.3833343 156.126773" fill="#fbfafc"/><path d="m35.2735186 487.664589c-11.4978124-51.877328-9.031196-103.982455-2.3833343-156.126773.4384551-3.441506 2.4592679-6.682155 3.7452397-10.013434 4.8450517 6.219204 3.3753697 13.991373 5.1046955 20.974812 3.7060484 14.973611 8.0342617 29.356899 24.7812887 35.044568 3.6791039 3.635014 8.4555706 1.741574 12.6980527 2.537651 4.1053117.769134 7.5688625 2.765452 4.7985121 7.299421-5.1193926 8.384537-2.973657 17.432877-2.6552258 26.047666.2988355 8.107746-2.1775789 12.840121-9.739093 15.115679-22.6943398 4.132254-28.3624136 21.592078-31.7745253 40.729789-1.114509 6.246149-.619716 12.862164-4.5756103 18.390621" fill="#ee2eac"/><path d="m71.6241441 428.54516c7.561514-2.278008 10.0379285-7.007934 9.7366437-15.11568-.3159816-8.614789-2.4617175-17.663129 2.657675-26.047666 2.7679012-4.536419-.6956496-6.532737-4.7985121-7.301871-4.242482-.793628-9.0189488 1.099813-12.6980527-2.535201 22.5645183 1.290871 34.655102-13.893394 46.456649-29.530811 5.173281 7.370455.068585 14.890328.127372 22.32447.215554 28.404056-.323329 56.815458-.585423 85.219513-10.95403-13.060575-22.0109375-25.961934-40.8963519-27.012754" fill="#f464a0"/><path d="m595.458992 492.677671c5.535804.090633 11.777054-.889156 11.732961 7.701137-3.911801-2.567047-7.823606-5.13409-11.732961-7.701137m163.182226-222.814082c-5.080199-1.93998-6.104078-6.131024-6.057539-10.917288 4.02693 2.525403 4.438438 7.056923 6.057539 10.917288" fill="#ee2eac"/><path d="m524.455961 534.208195c.729941-4.482531-2.530305-10.532723 4.874445-12.389422-.842617 4.435992-2.116344 8.705418-4.874445 12.389422m41.325496-45.847469c4.813211-4.57316 9.780734-4.570711 14.880531-.494793-4.960176.164117-9.920352.33068-14.880531.494793m12.584398-179.848174c-3.274941 3.686453-6.586625 3.661958-9.9375.105327 3.311684-.036742 6.625816-.071034 9.9375-.105327m9.642586-1.906667c-2.395582 2.689518-5.543152 2.101645-8.590293 1.966924 2.515605-2.155533 5.535801-2.138387 8.590293-1.966924" fill="#f464a0"/><path d="m522.178195 539.55416c-.095527-2.17268.279242-4.1445 2.304953-5.413328.063688 2.157984-.046539 4.242484-2.304953 5.413328m-.704223 6.746578c-1.979168-1.75382-1.854246-3.343528.37477-4.766668-.124922 1.589703-.249844 3.176961-.37477 4.766668" fill="#f464a0"/><path d="m1023.13205 475.939464c1.07287.854864 2.14574 1.709731 3.22106 2.564594-1.07287-.854863-2.14819-1.70973-3.22106-2.564594" fill="#85b3fb"/><path d="m607.124105 500.256578c.925898.815676 1.854246 1.631347 2.780148 2.447019-.925902-.813222-1.85425-1.631343-2.780148-2.447019m2.602562 3.503738c.874461.845066 1.746469 1.692586 2.62093 2.537652-.874461-.845066-1.748922-1.692586-2.62093-2.537652" fill="#ee2eac"/><path d="m739.441781 556.786707c1.050824 1.200238 2.155535 1.898336 2.206972 2.665023.053891.869559-.835269 1.800359-1.312914 2.704215-.761785-.627067-1.988969-1.146356-2.160433-1.903238-.183711-.815676.624613-1.8567 1.266375-3.466" fill="#f628bb"/></g></g></svg>