<svg height="1597" viewBox="0 0 3021 1597" width="3021" xmlns="http://www.w3.org/2000/svg" xmlns:xlink="http://www.w3.org/1999/xlink"><linearGradient id="a" x1="50%" x2="50%" y1="0%" y2="100%"><stop offset="0" stop-color="#fff"/><stop offset="1" stop-color="#fff"/></linearGradient><mask id="b" fill="#fff"><path d="m0 0h861.533853v795h-861.533853z" fill="#fff" fill-rule="evenodd"/></mask><g fill="none" fill-rule="evenodd"><path d="m0 0h3021v1597h-3021z" fill="url(#a)"/><g transform="translate(1200 489)"><text fill="#e82d3e" font-family="SFCompactDisplay-Regular, SF Compact Display" font-size="311" letter-spacing="-2.33834549"><tspan x="0" y="296">Serde YML</tspan></text><text fill="#000" font-family="SFCompactDisplay-Medium, SF Compact Display" font-size="63" font-weight="400" letter-spacing="-.473684211"><tspan x="0" y="471">Seamless YAML Serialization for Rust</tspan> <tspan x="1007.18956" y="471"/><tspan font-family="SFCompactDisplay-Thin, SF Compact Display" font-size="52" font-weight="300" letter-spacing="-.390977444" x="0" y="546">A Rust library that simplifies YAML serialization &amp; deserialization </tspan><tspan font-family="SFCompactDisplay-Thin, SF Compact Display" font-size="52" font-weight="300" letter-spacing="-.390977444" x="0" y="609">using Serde.</tspan></text></g><g fill-rule="nonzero" transform="translate(300 398)"><path d="m430.946388 794.824599c-79.726157 0-159.456279-.453371-239.178472.167866-49.003889.381996-92.7245991-12.913847-130.4615853-44.718656-63.85547495-53.817836-80.1015449-144.194942-37.9630118-216.281179 55.6762639-95.245247 111.9090001-190.166653 167.9672601-285.188516 32.383753-54.893767 64.965774-109.671216 97.327058-164.5782008 25.875279-43.9031173 62.951373-72.8317226 113.509681-81.45637529 110.688992-17.65245011 157.636183 51.49016819 204.571477 138.37776109 76.395257 129.298415 152.378116 258.842681 229.064165 387.96794 68.537242 115.40248-9.157332 243.289227-122.270476 262.592588-12.937642 2.207382-26.269175 2.869596-39.422264 2.910573-81.04662.256426-162.095888.128213-243.143832.128213z" fill="#22293d" mask="url(#b)"/><path d="m371.217265 186.145913c188.355806-42.897239 374.08126 125.734879 344.654339 317.843235-4.307696 33.278603-14.355914 64.6578-29.617255 94.444245-.656927 1.282132-1.939059 2.244392-2.930398 3.356014-2.988559.716408-3.744621-1.746081-4.783544-3.537098-37.768707-65.815686-80.848352-131.941988-117.14988-197.87399-.432223-.621237-.86577-1.243798-1.297993-1.865039l.101778.26568c-3.448541-6.117226-6.895759-12.23445-10.344297-18.351675-.048907-.428259-.278898-.707155-.689973-.834047l-.243209-.314585c-40.240446-62.495357-76.680762-127.360676-115.163234-190.946507-2.173017-4.012941-3.847718-3.88605-6.250726.109709-37.598197 61.543671-73.374977 124.270341-111.088171 185.680512l.107065-.149362c-.679398.571011-1.241157 1.222652-1.446034 2.117501-4.880033 7.847442-9.760067 15.696208-14.638778 23.54497-35.770169 63.83565-74.949224 125.644998-112.150887 188.63074-2.972696 5.030716-4.694983 11.011798-9.991379 14.46959-93.9974797-167.768993 7.568546-376.077157 192.922576-416.589893z" fill="#e82d3e"/><g fill="#fdfdfd"><path d="m683.321703 600.232046c-43.932196 84.578435-116.45462 139.057161-210.522156 157.743247-12.042791 2.336916-26.390309 4.36245-38.533747 4.36245-4.415589 0-3.403873-.472435-3.385369-4.883237.207523-50.621753.248496-101.24483.059482-151.866583-.018505-4.819233-4.156313-4.216465 0-4.216465 101.024093-5.563397 173.132798-109.057941 130.45101-202.545209 40.940998 66.915406 79.99316 135.202831 121.93078 201.405797z"/><path d="m431.891467 542.353357c-46.733062-.054359-84.095983-37.800598-83.797259-84.655262.282862-44.367067 38.507587-81.17748 83.950584-80.841747 44.74642.330447 81.766996 38.105765 81.591761 83.254005-.179002 44.989625-37.25774 82.29571-81.745086 82.243004z"/><path d="m316.415231 374.12197c3.126023-5.965219 5.985046-12.090375 9.420367-17.870545 35.230881-58.411038 69.096358-117.715605 105.148067-175.570171 39.008542 66.695992 79.986549 131.50844 117.933696 198.598325-58.034328-79.518638-170.231477-82.712073-232.50213-5.157609"/></g><path d="m417.90869 602.542561c-.146718-.218097-.330445-.421649-.419005-.660894-.025116-.068732.220737-.237922.370098-.359524 1.764586.105741 3.501412.210162 5.238239.314584.00132.114995.003963.229991.005287.344986-1.73154.120283-3.463079.240565-5.194619.360848" fill="#e82d3e"/><g fill="#fdfdfd" transform="translate(178.5966 373.9741)"><path d="m136.479098 2.11617898c.482452-.70583345.964904-1.41166729 1.446034-2.11617898-.48113.70451169-.963582 1.41034553-1.446034 2.11617898"/><path d="m370.562748 5.61864736c.062124.39389222.292115.67146717.689973.83536877-.240566-.26700083-.470557-.54589755-.689973-.83536877"/><path d="m381.497219 24.540145c-.001319-.0013237.100458.2643569.100458.2643569s-.097814-.2630371-.100458-.2643569z"/><path d="m0 226.257983c43.9321965 84.578435 116.454621 139.057161 210.522155 157.743248 12.042791 2.336916 30.172319 4.36245 42.434465 4.36245 3.696843 0-.496844-.472435-.515349-4.883237-.070358-17.162854.544944-34.255242.515349-51.418302-.0577-33.459287-.699759-66.989386-.57483-100.448281.018508-4.819233 3.565435-4.216466 0-4.216466-101.024092-5.563397-173.1327973-109.057941-130.45101-202.5452086-40.9409954 66.9154062-79.9931585 135.2028316-121.93078 201.4057966z"/></g></g></g></svg>