<svg height="1597" viewBox="0 0 3021 1597" width="3021" xmlns="http://www.w3.org/2000/svg" xmlns:xlink="http://www.w3.org/1999/xlink"><linearGradient id="a" x1="50%" x2="50%" y1="0%" y2="100%"><stop offset="0" stop-color="#fff"/><stop offset="1" stop-color="#fff"/></linearGradient><mask id="b" fill="#fff"><path d="m0 0h130.098113v369.509434h-130.098113z" fill="#fff" fill-rule="evenodd"/></mask><g fill="none" fill-rule="evenodd"><path d="m0 0h3021v1597h-3021z" fill="url(#a)"/><g transform="translate(1161 493)"><text fill="#e82d3e" font-family="SFCompactDisplay-Regular, SF Compact Display" font-size="311" letter-spacing="-2.33834549"><tspan x="0" y="296">Serde YML</tspan></text><text fill="#000" font-family="SFCompactDisplay-Medium, SF Compact Display" font-size="63" font-weight="400" letter-spacing="-.473684211"><tspan x="0" y="381">A fork of Serde YAML</tspan> <tspan x="559.802683" y="381"/><tspan font-family="SFCompactDisplay-Thin, SF Compact Display" font-size="52" font-weight="300" letter-spacing="-.390977444" x="0" y="456">A Rust library for using the Serde serialization framework with </tspan><tspan font-family="SFCompactDisplay-Thin, SF Compact Display" font-size="52" font-weight="300" letter-spacing="-.390977444" x="0" y="519">data in YAML file format.</tspan></text></g><g fill-rule="nonzero" transform="translate(461 493)"><path d="m519.102294 492.476438c4.946103-8.398723 7.339601-17.74025 9.436486-27.089644 2.168586-9.674801 4.82137-19.388928 3.108503-29.509078-.470451-2.77729 1.81403-3.118429 3.49252-3.919666 14.660538-6.996804 28.605087-15.127137 40.728734-26.069171 15.73599-14.202032 26.799898-31.288511 30.43974-52.416562 3.19886-18.569997-4.253686-33.005024-20.780307-42.080128-1.517417-.832695-3.051535-1.637864-4.96476-2.663249 3.146805-2.218885 6.010751-4.036658 8.652732-6.134616 18.092164-14.365229 23.248445-33.543771 14.381604-55.18599-9.685953-23.640886-27.406864-39.85043-49.34316-51.918126-6.296557-3.464485-12.755167-6.628138-19.534941-9.047576-2.804035-1.000808-3.851007-2.208069-3.517077-5.66174 1.888673-19.534428-1.547866-38.430817-7.837547-56.880873-.355537-1.043082-1.171703-1.928865-1.771797-2.887399.017679-1.076507.032411-2.153998.048127-3.231488 6.054947.824831 11.601141 3.278677 17.031442 5.814122 65.358081 30.516768 105.958153 80.792115 116.515271 152.517974 12.589186 85.52088-28.863391 165.439992-105.059487 207.504389-8.307995 4.586216-16.776084 8.820479-25.66846 12.154209-1.806173.677364-3.528861 1.787298-5.607087 1.470737.083482-1.58871.165982-3.177418.249464-4.766125" fill="#c73a34"/><path d="m518.85283 492.604781c-.083699 1.592462-.166413 3.184924-.250112 4.777389-1.669071.946017-2.30913 2.626185-3.177638 4.210764-32.073734 58.470803-81.359091 93.54934-146.406582 106.083093-54.873542 10.572733-106.989917 1.759987-155.366391-26.475691-35.982021-21.000611-63.738821-50.04927-82.2404-87.633773-.412591-.837619-.71391-1.728453-1.313594-3.196752 8.367019 2.260591 16.078226 4.840459 24.087798 6.293977 12.637674 2.294091 25.28815 3.959478 38.087315 1.751117 3.481909-.601114 5.187414.569583 6.898828 3.56629 13.875445 24.289995 31.907321 44.443131 57.747889 56.464456 13.011862 6.053528 26.443207 9.795226 40.884856 5.404128 12.937025-3.932872 22.195201-12.218412 28.262937-24.153019 1.589311.64743 1.785268 2.13051 2.183085 3.280513 7.122356 20.616291 26.610608 26.510179 44.225954 24.864503 20.342973-1.900904 36.826896-11.877451 51.409358-25.474488 11.272877-10.510651 19.964848-23.023709 27.0488-36.620742 2.234289-4.28763 4.19188-6.306786 9.815514-5.710598 17.152539 1.821084 33.961413-1.077081 50.43155-6.012141 2.492281-.74696 4.977672-1.68805 7.670833-1.419026" fill="#283957"/><path d="m521.162264 117.629748c-.015752 1.077204-.031506 2.154408-.048242 3.230629-10.609566-2.684165-20.816446-6.822948-31.736146-8.39944-9.901669-1.430048-19.784632-3.133328-29.805434-1.615806-3.502062.530739-5.141347-.776453-6.797367-3.752524-14.104737-25.3526298-32.915644-45.9915085-60.031273-57.8505833-22.183009-9.7017175-43.62957-5.8803947-58.198031 9.9611904-3.076733 3.3456231-5.57849 7.0981467-7.805551 11.5032829-.561198-.8767029-1.003263-1.3592825-1.214942-1.9273702-7.331981-19.7651242-23.661808-26.126133-42.703104-24.9997863-22.374012 1.3229168-40.221041 12.6817205-56.180677 27.4018732-10.557383 9.7361174-19.157471 21.1253897-25.916441 33.7284823-2.175867 4.05819-4.741617 5.447941-8.74088 4.887716-20.491543-2.867958-39.582064 2.505286-58.392972 9.663386-.597625.228022-1.271061.25849-1.909052.380363-.271738-.211313-.543475-.423608-.814227-.635904 11.191436-26.0484879 28.174025-47.8196103 49.662923-66.1025963 37.624769-32.0104594 81.289784-49.23098385 130.564792-52.5235332 58.206893-3.88815675 110.369601 11.7588239 155.984034 48.2451848 22.178085 17.7394695 39.64606 39.3484216 51.789562 65.1089347.623224 1.320951 1.042645 2.764758 2.293028 3.696501" fill="#283957"/><path d="m61.8140758 183.140842c-2.724474 1.530177-5.0632516 2.639901-7.1875347 4.068658-16.1972886 10.887502-21.4032083 29.773483-13.5771098 50.154194 7.0379786 18.326688 19.801387 32.249929 35.0285303 44.092561 11.8404918 9.209624 24.9817254 16.184045 38.8431874 21.821284 2.453897.998455 4.109834 2.042206 3.839256 5.283741-1.673648 20.01146 2.422411 39.09339 9.694562 57.621936.286321.727673.458507 1.501622 1.003598 3.326218-28.821964-10.589148-53.4347187-26.137095-74.2928357-47.461122-34.2069574-34.971557-52.60822644-77.13318-54.921422-125.918682-4.92451884-103.8876641 65.4041041-176.0925694 129.8538057-196.12963-3.864837 10.0416701-6.885471 19.9760111-8.509923 30.2618796-1.481783 9.3848946-3.212498 18.8003143-1.774991 28.340787.48704 3.2356275-.672017 4.5531167-3.471269 5.8715906-18.958168 8.9270231-36.4867 19.9888118-50.7928944 35.5643298-12.2576737 13.34524-22.2051033 27.940027-24.5999642 46.568024-1.9560325 15.217098 3.9268242 27.125704 17.2786164 34.423097 1.0882155.594741 2.1390419 1.256439 3.586388 2.111134" fill="#c73a34" mask="url(#b)" transform="translate(0 120.8604)"/><path d="m238.673351 453.251252c-.560782-27.522508 6.310512-52.172261 18.646711-75.396472 11.079615-20.859454 25.582065-38.892425 45.640093-51.834581 17.889804-11.543189 33.386679-10.795959 49.752814 2.661085 31.480616 25.887266 49.427582 59.628821 56.494015 99.416152 1.626168 9.159731 2.422498 18.418894 1.447781 28.400677-11.806956-6.60792-23.176324-12.938218-34.510213-19.332505-4.134405-2.332263-8.095354-4.979568-12.285934-7.200586-18.591522-9.853798-29.202998-25.694304-34.605813-45.532839-.771691-2.831404-1.786811-5.596845-2.711264-8.386902-.586405-1.769135-1.455665-3.589463-3.434661-3.787346-2.226371-.221512-3.407064 1.648042-4.417261 3.351217-2.712249 4.573956-4.031906 9.662804-4.931717 14.808756-2.954697 16.90671-11.744867 29.282781-26.988455 37.604706-15.617113 8.524733-31.522008 16.446955-48.096096 25.228638" fill="#283957"/><path d="m239.191955 151.65283c4.200282 1.402837 7.812484 3.965181 11.631549 6.09899 14.007504 7.826923 28.165722 15.392784 41.626521 24.166424 9.86337 6.429997 17.771405 14.273667 21.254565 26.037201 1.870622 6.317691 6.190095 9.098736 11.929036 9.16474 6.035442.06896 9.200427-3.501181 11.105528-8.694829 4.496782-12.259059 13.000776-21.035654 23.999919-27.656768 15.021126-9.043568 30.759376-16.756215 46.255301-24.918084 5.114413-2.693368 2.791649 2.154497 2.771949 3.335678-.37432 23.163553-6.620565 44.902596-16.552892 65.656501-8.210444 17.154211-18.846102 32.62088-32.866412 45.602045-17.279863 15.998643-35.360577 17.875332-55.643876 5.751237-18.764343-11.214813-32.751161-27.105091-43.816301-45.67002-13.565215-22.758661-21.476204-47.295497-22.225832-73.944469-.037432-1.310234-.017731-2.624408.031522-3.935626.00985-.275839.263995-.542812.499423-.99302" fill="#283957"/><path d="m158.581132 380.686543c6.237243-11.555146 12.185661-22.775362 18.329576-33.886233 4.040601-7.306438 8.486933-14.367587 13.53351-21.047507 5.591807-7.401991 12.493151-12.27722 22.017496-13.11652 3.700692-.327051 7.411208-1.161424 10.895773-2.693245 5.90421-2.595722 9.442806-8.442251 8.439778-14.075017-.939172-5.276161-6.26082-9.468719-12.696507-9.545556-3.237983-.038419-6.504455.501412-9.720825 1.013661-7.001548 1.113156-12.348739-1.547582-16.844191-6.770548-10.98517-12.760901-18.768707-27.542229-26.71041-42.226033-2.235937-4.135423-4.301919-8.364429-6.668515-12.985503 28.102468-2.562228 53.7568 3.655682 78.086861 16.053084 16.029782 8.167411 30.294197 18.729583 42.074127 32.502176 14.671127 17.150478 15.601457 33.652765 2.274251 51.723321-22.405544 30.382254-53.032774 47.35443-89.627087 54.175215-10.780831 2.009592-21.677586 2.893221-33.383837.878705" fill="#283957"/><path d="m491.909434 228.539263c-10.839429 19.81812-20.016538 39.884654-33.691918 57.322714-4.10085 5.228473-9.29192 8.440179-16.319983 8.504001-4.027251.036329-8.172258.155135-12.074884 1.631872-6.588441 2.491993-10.410601 8.585495-9.304678 14.904828.976393 5.577037 6.105642 9.495691 12.9767 9.763742 2.112734.082478 4.311826.151211 6.346059-.319108 8.21936-1.89894 14.271031 1.508159 19.375747 7.502492 9.393977 11.031339 15.966715 23.847723 22.938846 36.402932 2.613197 4.705132 4.762242 9.674392 7.481421 14.312758 1.907647 3.25491 1.486669 4.341841-2.382594 4.585345-13.692063.863069-27.079924-.904302-40.175358-4.683531-29.444857-8.498109-54.735875-23.627788-73.970316-47.882989-13.689119-17.261325-14.007061-33.792134-1.075505-51.618034 20.350179-28.051123 48.496778-43.448852 82.052296-49.725964 12.260346-2.293655 24.613919-3.079153 37.824167-.701058" fill="#283957"/><path d="m368.530228 558.88225c-16.963273-.068975-26.210351-6.857116-31.612573-23.073176-2.797772-8.402161-5.819289-16.670312-3.579893-25.852877.941095-3.859654 1.722233-5.082484 5.31881-2.15104 5.093104 4.151319 10.799539 7.40202 17.335201 8.732257 17.706141 3.600502 31.399625-4.290256 43.712375-15.747031 3.950837-3.675389 7.547411-7.765617 10.302988-12.454943 1.184466-2.01506 2.389539-2.197352 4.356123-1.300674 8.753468 3.98972 17.619788 7.705509 26.865881 10.423131 1.419985.417792 2.968525.564611 1.730084 2.821083-13.209687 24.074304-29.789261 44.660434-56.300879 54.975177-5.816348 2.262385-11.838769 3.666523-18.128117 3.628093" fill="#283957"/><path d="m47.7283019 340.075806c.1294252-11.721448 4.7446137-20.337644 14.7780151-25.267086 7.6831563-3.773339 15.112364-8.638826 24.2191982-8.41646 1.3040579.031484 2.6071355.13086 3.9082519.228268 3.2258272.241063 4.4092844 1.026229 2.7238139 4.751354-5.1064161 11.281637-7.7400246 22.989313-3.1238559 35.197802 3.9651203 10.484662 11.3766799 18.207455 20.1530869 24.769224 4.981893 3.724139 10.257935 6.999614 15.903623 9.599133 2.212976 1.018358 2.810098 2.010149 1.775676 4.430594-3.609201 8.440075-6.106521 17.254036-7.922397 26.246091-.543194 2.686104-1.637426 3.040316-4.027872 2.010148-25.2967616-10.902826-47.0470741-26.138839-61.4387747-50.401345-4.3308446-7.301677-6.8262036-15.179932-6.9487654-23.147723" fill="#c73a34"/><g fill="#283957"><path d="m319.195142 104.766014c-1.375487.196761-2.110845-.835252-3.027834-1.448163-19.608274-13.1062675-40.254296-12.2916758-58.914161 2.326702-5.827894 4.565845-11.005845 9.787889-15.243242 15.851087-1.35585 1.940066-2.371019 2.057139-4.314959 1.049722-8.408034-4.353343-17.080168-8.107548-26.253014-10.540501-1.824163-.484033-2.664573-.967082-1.554171-2.832379 15.602577-26.1987615 35.364008-47.3929009 66.302115-54.9859178 5.933928-1.4560334 12.039668-1.3192842 18.00894-.2282432 11.178638 2.042382 18.812043 8.3771107 22.581127 19.3229396 3.553091 10.3201282 6.129303 20.6451755 2.415199 31.4847534"/><path d="m320.995872 521.051703c.653948 18.149481-19.571389 36.521661-38.219783 34.615475-16.034556-1.640321-29.369847-9.336681-41.689845-19.072652-12.848265-10.153896-22.815611-22.809482-31.341518-36.685494-1.591672-2.589982-1.917666-3.853577 1.85777-4.719846 8.582857-1.968974 16.899617-4.965111 24.920822-8.59991 3.297247-1.494145 4.998893-1.101726 6.925396 2.076886 7.775729 12.825307 18.226174 22.583841 33.002906 26.837688 12.240463 3.523941 24.521186 3.026547 36.777358-.110859 7.486067-1.915997 7.494905-1.881659 7.766894 5.658712"/><path d="m355.597722 91.9504707c-6.529119-.0049129-13.040555.5718435-19.328001 2.4760245-3.26358.9884447-4.443457.6091806-4.479809-3.2463432-.166026-17.6750815 16.458376-35.8689488 34.064209-37.1727919 12.698675-.9402999 23.711532 3.7317225 34.125114 10.0947125 18.264051 11.1588137 31.808587 26.8717437 42.544401 45.1894124 1.247664 2.129185 1.527651 3.200163-1.488358 3.992098-9.767155 2.563472-19.419366 5.556317-28.766051 9.421666-2.002158.82829-3.211507.656343-4.312793-1.397185-1.149424-2.14294-2.688866-4.08544-4.135961-6.057417-11.947132-16.2759307-28.226705-23.6263828-48.222751-23.3001763"/><path d="m431.09434 205.507464c5.44299-17.752048 7.877342-35.449991 6.862047-53.58962-.523325-9.372798-.462564-9.532159 8.799534-11.111998 16.339748-2.788821 32.475656-1.508029 48.39498 2.981627 1.969824.555797 3.265401 1.355554 3.844588 3.739085 4.233654 17.438244 5.206808 34.88239.902593 52.455402-.435126 1.774614-.182282 3.531521-3.15074 2.741602-21.609277-5.750774-42.939252-4.026329-64.034019 2.772097-.281265.091485-.61643.011805-1.618983.011805"/><path d="m432.739421 403.381132c9.422108 3.287946 18.902968 5.810773 28.772581 6.859491 10.77148 1.145218 21.439163.953198 32.084325-.956155 6.615645-1.186573 6.876119-1.048715 8.462466 5.528161 2.921029 12.111932.626706 24.064339-1.116317 36.029549-.258515 1.777401-.895992 3.530186-.934182 5.303648-.17626 8.075606-4.678737 11.355675-12.182544 12.70965-15.412029 2.781805-30.656611 3.538063-45.910007-.807462-3.135481-.893132-4.16269-1.990097-3.72987-5.7123 2.139607-18.400289.418129-36.557354-4.738473-54.36091-.400503-1.383516-1.07421-2.697119-.707979-4.593672"/><path d="m217.856604 402.611321c-4.755169 15.371961-7.035638 30.312965-6.867043 45.568107.057184 5.209718.551138 10.4322 1.178193 15.609524.255358 2.114516-.227751 2.902795-2.24399 3.405408-18.752499 4.670785-37.290063 4.259465-55.689597-1.870078-2.314977-.770612-3.026823-2.169491-3.394577-4.200562-3.011048-16.645184-4.395302-33.311968-1.249181-50.12796.640858-3.427008 1.256082-4.865154 5.528142-3.929624 19.640827 4.301677 39.07658 2.59259 58.229368-3.175699 1.22749-.370091 2.467798-.701893 4.508685-1.279116"/></g><path d="m90.9858713 297.762192c-6.3559935-1.00511-12.5288113.930511-17.9817297-.228702-13.6101375-2.894596-25.0438349-11.502808-22.6467959-29.034308 2.0533382-15.019709 10.2972211-26.949491 19.9503736-38.039066 12.9877349-14.920572 29.1416485-25.591023 46.7599807-34.285611 2.517187-1.241663 3.329659-.723404 3.921532 1.904211 1.970614 8.755443 4.529163 17.357765 7.858821 25.698994.90406 2.265422.616494 3.405986-1.592445 4.625073-4.429696 2.445046-8.787501 5.063827-12.959176 7.922106-17.8359765 12.220323-32.3679007 31.485244-23.3105607 61.437303" fill="#c73a34"/><path d="m560.139718 305.430551c1.002804-4.441842 2.300838-8.84039 2.959203-13.332419 3.498494-23.893854-6.72242-43.78867-29.075376-56.761924-3.386304-1.965078-6.92416-3.693993-10.491541-5.313682-2.112873-.959414-2.962153-1.738754-1.933766-4.344426 3.541795-8.978153 6.408492-18.200343 7.72916-27.795473.381834-2.770987 1.396443-2.656841 3.475858-1.851917 25.691041 9.938552 47.018559 25.185865 59.769605 50.320562 13.199798 26.019326-2.009544 54.702381-31.079997 59.249515-.446785.069864-.935884-.134811-1.405302-.211563 0 0 .052156.041327.052156.041327" fill="#c73a34"/><path d="m531.369837 422.626415c-1.369561-11.795008-3.860918-22.757184-7.474074-33.418205-1.070675-3.157698-.065871-4.300509 2.471695-5.641475 3.744902-1.980549 7.377721-4.215165 10.884696-6.596924 20.087189-13.636262 28.325188-32.243023 23.113391-56.19109-.68527-3.151808-.113063-3.742342 2.939686-4.141592 20.90322-2.729997 37.857038 17.829845 32.195933 39.462856-4.0605 15.513809-12.089082 28.818507-23.694446 39.897418-11.683032 11.152481-25.173136 19.6142-40.436881 26.629012" fill="#c73a34"/><path d="m217.575971 204c-10.958203-3.669224-22.07298-6.415963-33.645736-6.87178-9.460967-.37294-18.875941-.260466-28.147063 1.912062-3.295877.77252-5.069074.525866-5.786377-3.675144-2.877043-16.829694-1.088188-33.30322 2.651967-49.729387.442321-1.943634 1.678275-2.616506 3.309577-3.109814 17.30629-5.231037 34.795575-6.274877 52.505042-2.368864 1.81234.399579 3.34187.811985 2.988601 3.445262-2.71264 20.230559.612594 39.820804 6.387229 59.13381.07633.25652-.114495.593943-.26324 1.263855" fill="#283957"/><path d="m132.407547 119.746818c-.21249.114583-.425912.229165-.638403.343748-.043802-.256823-.086673-.512988-.131408-.769811.255361.14224.512586.283822.769811.426063" fill="#283957"/><path d="m559.657425 305.576604c-.000988.033437-.002305.066563-.003622.1.007244-.028793.014158-.057895.021073-.086687 0-.000311-.017451-.013313-.017451-.013313" fill="#c73a34"/></g></g></svg>