<svg height="5647" viewBox="0 0 5647 5647" width="5647" xmlns="http://www.w3.org/2000/svg" xmlns:xlink="http://www.w3.org/1999/xlink"><linearGradient id="a" x1="100%" x2="0%" y1="50%" y2="50%"><stop offset="0" stop-color="#fb3fb7"/><stop offset=".49829" stop-color="#feb58f"/><stop offset="1" stop-color="#fb3fb7"/></linearGradient><linearGradient id="b" x1="100%" x2="0%" y1="50%" y2="50%"><stop offset="0" stop-color="#826bd8"/><stop offset=".49829" stop-color="#27cdf7"/><stop offset="1" stop-color="#4b39b0"/></linearGradient><g fill="none" fill-rule="evenodd" transform="matrix(1 0 0 -1 0 5647)"><circle cx="2823.5" cy="2823.5" r="2823.5"/><path d="m4163.98121 170.559031c105.5952 86.109763 207.64905 182.083263 309.49133 278.619677l13.88659 13.166672c4.62863 4.389472 9.25714 8.779233 13.88584 13.16841l9.25774 8.777317c40.11875 38.029422 80.26731 75.971247 120.64925 113.256871 2.98329 2.755089 5.8284 5.685436 8.51802 8.768156l-162.01749 81.009691c-4.09583-3.727599-8.18723-7.474751-12.27869-11.223845l-3.02399-2.770961c-15.12068-13.853938-30.25736-27.675134-45.63688-40.574775-29.0797-24.378885-57.95583-49.425313-86.813-74.538846l-12.82476-11.164036c-3.20618-2.791137-6.41246-5.582005-9.6191-8.371779l-6.41382-5.577847c-68.42083-59.476273-137.08083-118.205023-208.4386-168.189402-268.96781-188.428105-534.83686-164.151439-785.24745 74.125466-84.31083 80.227995-165.42922 167.996806-246.36789 256.253794l-8.67145 9.457653c-60.69725 66.212146-121.35394 132.55721-183.24104 196.05986-77.5044 79.502534-157.55378 155.296133-240.9847 219.412803-246.82875 189.70582-494.69435 175.72189-728.24437-42.1115-98.85121-92.200229-192.27793-197.535181-285.52474-303.379241l-8.74152-9.923986c-49.53411-56.240011-99.0637-112.512352-149.3751-166.924029-58.8647-63.673012-118.30672-126.795895-180.35265-182.997798-253.9453-229.971729-515.325269-222.536113-774.77293-30.416818-90.567736 67.070326-177.436166 145.538504-264.061827 224.646406l-7.642899 6.981496c-1.27374 1.163768-2.547451 2.327606-3.821141 3.491479l-7.641998 6.983397-11.463273 10.473109c-1.27377 1.163376-2.547576 2.326616-3.821428 3.489686l-7.643758 6.976114c-13.214192 12.054377-26.435743 24.083151-39.676919 36.048152l-155.306567-77.650696c11.2144649-14.843256 26.0309147-30.699828 44.7252766-48.414654 36.2461778-34.350992 72.2982604-69.190894 108.3323234-104.073575l16.214706-15.698588 10.810214-10.464472c72.072116-69.752373 144.24823-139.229725 217.936949-204.862999 148.752349-132.4569013 308.368038-218.01085655 449.721062-218.77393891 244.177719 2.04080167 429.314009 115.70458191 597.778249 293.60924891 126.79002 133.894336 246.80519 282.358221 373.22996 417.086623 74.92405 79.839711 153.96015 152.918157 235.55302 216.165262 154.92631 120.087872 317.46402 123.335402 469.04414-.390414 112.37831-91.730663 218.91437-199.872353 325.60772-307.295845l8.20759-8.26164c27.36034-27.532154 54.74114-54.988212 82.24354-82.079411 36.19542-35.656887 71.74053-73.000136 107.20056-110.534118l6.6479-7.039492 6.64673-7.041771c3.32321-3.52109 6.64629-7.042214 9.96972-10.562138l6.64744-7.037885c65.37362-69.182964 130.99841-137.584361 200.41704-195.830083 290.80053-243.973403 590.76774-265.4461858 887.04707-23.85076z" fill="url(#a)" transform="translate(506 1994)"/><path d="m4028.45814 170.559031c99.19549 80.890989 195.26587 170.486342 290.97148 261.075876l9.26079 8.769573c6.17322 5.848107 12.34529 11.699316 18.51696 17.551558l9.25729 8.778878c2.33412 2.213591 4.66824 4.427182 7.0024 6.64066l-169.30723 84.652951c-2.06522-1.797329-4.13034-3.594994-6.19544-5.392775l-12.82486-11.164061c-1.06881-.930137-2.13765-1.860184-3.20653-2.790108l-6.41383-5.577847c-68.42082-59.476273-137.08082-118.205023-208.43859-168.189402-268.96781-188.428105-534.83686-164.151439-785.24745 74.125466-150.55505 143.264277-290.93014 310.574522-438.28039 461.771307-77.50439 79.502534-157.55377 155.296133-240.98469 219.412803-246.82875 189.70582-494.69435 175.72189-728.24437-42.1115-98.85121-92.200229-192.27793-197.535181-285.52474-303.379241l-8.74152-9.923986c-1.45689-1.654118-2.91377-3.308264-4.37066-4.96239l-8.74174-9.924127c-45.16831-51.269421-90.39054-102.426865-136.26271-152.037512-58.86469-63.673012-118.30671-126.795895-180.35265-182.997798-253.945292-229.971729-515.325261-222.536113-774.772922-30.416818-68.818119 50.963553-135.500348 108.507951-201.563141 167.913382l-163.993597-81.995596c11.2524983-10.88179 22.5004575-21.774802 33.7492345-32.66546l10.8102135-10.464472c72.072116-69.752373 144.24823-139.229725 217.936949-204.862999 148.752349-132.4569013 308.368038-218.01085655 449.721062-218.77393891 244.177717 2.04080167 429.314011 115.70458191 597.778251 293.60924891 126.79002 133.894336 246.80518 282.358221 373.22995 417.086623 74.92406 79.839711 153.96016 152.918157 235.55303 216.165262 154.92631 120.087872 317.46402 123.335402 469.04414-.390414 99.41158-81.146356 194.25134-175.135069 288.67247-270.108419l8.20958-8.260745 8.20807-8.263976c36.93387-37.192563 73.84049-74.430638 110.96873-111.003756 36.19542-35.656887 71.74053-73.000136 107.20056-110.534118l6.6479-7.039492c1.10786-1.173499 2.21567-2.347094 3.32346-3.520738l6.64645-7.042089c69.78676-73.940486 139.58604-147.714466 213.71102-209.90905 290.80053-243.973403 590.76774-265.4461858 887.04707-23.85076z" fill="url(#b)" transform="translate(641.523 2197.28)"/></g></svg>