<svg height="1597" viewBox="0 0 3021 1597" width="3021" xmlns="http://www.w3.org/2000/svg" xmlns:xlink="http://www.w3.org/1999/xlink"><linearGradient id="a" x1="50%" x2="50%" y1="0%" y2="100%"><stop offset="0" stop-color="#fff"/><stop offset="1" stop-color="#fff"/></linearGradient><g fill="none" fill-rule="evenodd"><path d="m0 0h3021v1597h-3021z" fill="url(#a)"/><g transform="translate(1042 476)"><text fill="#211f2b" font-family="SFCompactRounded-Regular, SF Compact Rounded" font-size="266" letter-spacing="-1.99999968"><tspan x="0" y="253">http-handle</tspan></text><text fill="#000" font-family="SFCompactDisplay-Medium, SF Compact Display" font-size="66" font-weight="400" letter-spacing="-.496240602"><tspan x="29" y="369">Effortlessly Handle HTTP Requests and Responses</tspan> <tspan x="29" y="448"/><tspan font-family="SFCompactDisplay-Thin, SF Compact Display" font-size="54" font-weight="300" letter-spacing="-.406015038" x="29" y="487">A fast and lightweight Rust library for handling HTTP requests and </tspan><tspan font-family="SFCompactDisplay-Thin, SF Compact Display" font-size="54" font-weight="300" letter-spacing="-.406015038" x="29" y="551">responses.</tspan></text></g><g fill-rule="nonzero" transform="translate(379 476)"><circle cx="322.5" cy="322.5" fill="#163a5c" r="322.5"/><circle cx="322.568355" cy="322.431645" fill="#fff" r="254.48654"/><g transform="matrix(-0 -1 -1 0 536.8091 633.6617)"><path d="m249.189676.02118217c8.84022 17.56595093 17.234125 34.20710043 25.59615 50.86408543 39.548797 78.7802124 79.073153 157.5741504 118.642141 236.3438054 14.769829 29.402566 29.607668 58.771349 44.510329 88.107406 1.352759 2.662499 1.680056 4.297793-.909632 6.665749-39.530732 36.148551-84.798734 61.797014-137.893183 71.640449-77.239013 14.318589-147.56546-2.527368-210.4108228-49.442043-8.8954773-6.640414-16.9429568-14.392489-25.6110262-21.349615-3.2304685-2.591767-3.4600017-4.710576-1.6269235-8.336939 14.9281647-29.526083 29.6066058-59.17463 44.4221285-88.756667 47.203095-94.253746 94.433819-188.4948257 141.656041-282.73907146.301794-.60281015.641844-1.18767323 1.624798-2.99715937" fill="#c5273e"/><g fill="#fcf8ee"><path d="m470.91144 68.7129665c-1.804386-2.4967531-3.608772-4.9924504-5.412096-7.4892035 1.804386 2.4967531 3.60771 4.9924504 5.412096 7.4892035"/><path d="m44.1788875 20.173659c-1.6141716 1.4188737-3.2283431 2.8377473-4.8414521 4.2566208 1.6141716-1.4188735 3.2272805-2.8377471 4.8414521-4.2566208"/><path d="m465.602209 61.3431637c-1.82139-2.1399232-3.643841-4.2787906-5.465231-6.4187139 1.82139 2.1399233 3.643841 4.2787907 5.465231 6.4187139"/><path d="m417.75674 10.7025721c-1.813951-1.44315492-3.627901-2.88630986-5.441852-4.32946478 1.813951 1.44315492 3.627901 2.88630986 5.441852 4.32946478"/><path d="m448.601125 40.2263338c-1.467526-1.4368207-2.936114-2.8725856-4.403638-4.3094063 1.467524 1.4368207 2.936112 2.8725856 4.403638 4.3094063"/><path d="m444.319585 36.0472021c-1.79376-2.1642046-3.588583-4.3294649-5.382343-6.4936695 1.79376 2.1642046 3.588583 4.3294649 5.382343 6.4936695"/><path d="m7.53984957 59.1126606c-1.08496982 1.8158204-2.16993966 3.6316409-3.25490948 5.4474612 1.08496982-1.8158203 2.16993966-3.6316408 3.25490948-5.4474612"/><path d="m64.9817227 3.22783191c-1.8267023 1.0630995-3.6534047 2.12619899-5.4801072 3.18929849 1.8267025-1.0641552 3.6534049-2.12619899 5.4801072-3.18929849"/><path d="m68.0984871 0c-1.0775312 1.10532788-2.1561251 2.21171147-3.2336563 3.31703936 1.0775312-1.10532789 2.1561251-2.21171148 3.2336563-3.31703936"/><path d="m2.2358242 66.5017829c-.74492051 1.0989935-1.49090368 2.1969315-2.2358242 3.2959251.74492052-1.0989936 1.49090369-2.1969316 2.2358242-3.2959251"/><path d="m58.5189794 7.40643581c-.2847914.56797172-.5695827 1.13594345-.8522486 1.70074806.2847913-.56902744.5685199-1.13488775.8522486-1.70074806"/><path d="m430.534092 21.1976973c-1.115787-.7157711-2.230511-1.4325978-3.346298-2.1483689 1.115787.7157711 2.230511 1.4325978 3.346298 2.1483689"/><path d="m4.39811276 64.4239354c-.75767237.733718-1.51534474 1.4674362-2.2730171 2.2011543.75767236-.7337181 1.51534473-1.4674363 2.2730171-2.2011543"/><path d="m9.67387152 56.9674588c-.74492052.7548324-1.48984103 1.5096647-2.23582421 2.2644971.74598318-.7548324 1.49090369-1.5096647 2.23582421-2.2644971"/><path d="m450.676488 43.4413917c-.367678-.7579996-.735357-1.515999-1.103035-2.2739984.367678.7579994.735357 1.5159988 1.103035 2.2739984"/><path d="m419.908613 11.6883937c-.760859-.3642198-1.522782-.7273839-2.283643-1.0916037.760861.3642198 1.522784.7273839 2.283643 1.0916037"/><path d="m460.243988 55.0577859c-.370866-.7590552-.741733-1.519166-1.111536-2.2782212.370866.7590552.74067 1.519166 1.111536 2.2782212"/><path d="m59.6159572 6.33109008c-.3910568.39377965-.7831762.7865036-1.1742328 1.18028326.3910566-.39377966.783176-.78650361 1.1742328-1.18028326"/><path d="m434.785453 25.4557961c-.394245-.3927239-.78849-.7854478-1.182734-1.1771162.394244.3916684.788489.7843923 1.182734 1.1771162"/><path d="m30.9643588 32.7466317c-.3974326.3948355-.7948654.7896707-1.1922979 1.1845062.3974325-.3948355.7948653-.7896707 1.1922979-1.1845062"/><path d="m449.661759 41.2833102c-.394243-.3906125-.787426-.7801694-1.181671-1.1707819.394245.3906125.788489.7801694 1.181671 1.1707819"/><path d="m38.4053814 25.3572985c-.3984952.3948353-.7959277.7896707-1.1944231 1.184506.3984954-.3948353.7959279-.7896707 1.1944231-1.184506"/><path d="m451.769322 44.4872831c-.398495-.392724-.798054-.7865036-1.196549-1.1792275.398495.3927239.798054.7865035 1.196549 1.1792275"/><path d="m32.031051 31.6955674c-.3984954.3937796-.7969906.7875593-1.1954859 1.1813389.3984953-.3937796.7969905-.7875593 1.1954859-1.1813389"/><path d="m33.0927486 30.6366908c-.39637.3958909-.7938026.7907263-1.1901726 1.1866174.39637-.3958911.7938026-.7907265 1.1901726-1.1866174"/><path d="m39.4652727 24.2981051c-.3974326.3958911-.7938026.7917822-1.1912352 1.1876731.3974326-.3958909.7938026-.791782 1.1912352-1.1876731"/><path d="m34.1545526 29.5806645c-.3974326.3948353-.7948652.7896707-1.192298 1.184506.3974328-.3948353.7948654-.7896707 1.192298-1.184506"/><path d="m439.036813 29.6723c-.394246-.3906125-.788489-.7812251-1.182734-1.1718376.394245.3906125.788488.7812251 1.182734 1.1718376"/><path d="m35.2154003 28.5230546c-.3974328.3958911-.7938028.7907265-1.1912354 1.1866175.3974326-.395891.7938026-.7907264 1.1912354-1.1866175"/><path d="m437.975115 28.6192298c-.394245-.3916682-.788489-.7833366-1.183797-1.1750048.395308.3916682.789552.7833366 1.183797 1.1750048"/><path d="m36.2804984 27.4708289c-.3984954.3937797-.7969906.788615-1.1954859 1.1823947.3984953-.3937797.7969905-.788615 1.1954859-1.1823947"/><path d="m436.91193 27.5642592c-.395308-.3916682-.789552-.7833364-1.18486-1.1750046.395308.3916682.789552.7833364 1.18486 1.1750046"/><path d="m432.662482 23.3382539c-.393182-.3906124-.785302-.7822808-1.178484-1.1728933.393182.3906125.785302.7822809 1.178484 1.1728933"/><path d="m431.600572 22.2800108c-.393182-.3906126-.785302-.7812251-1.178484-1.170782.393182.3895569.785302.7801694 1.178484 1.170782"/><path d="m37.3418772 26.4127968c-.3974326.3958911-.7938025.7917822-1.1901725 1.1866176.39637-.3948354.7938025-.7907265 1.1901725-1.1866176"/><path d="m435.849062 26.509711c-.395306-.3916682-.790614-.7843923-1.185921-1.1760605.395307.3916682.790615.7843923 1.185921 1.1760605"/><path d="m433.724605 24.398503c-.393183-.3927239-.786363-.7854478-1.179546-1.1771162.393183.3916684.786363.7843923 1.179546 1.1771162"/></g><path d="m23.9967483 39.295937c.8171812-.3177686 1.6354248-.6355371 2.4526058-.9533057-.817181.3177686-1.6354246.6355371-2.4526058.9533057" fill="#162c4b"/></g><g transform="matrix(0 -1 1 0 107.2229 589.5042)"><path d="m206.399299 0c8.84022 17.5659509 17.234125 34.2071004 25.59615 50.8640854 39.548797 78.7802126 79.073153 157.5741496 118.642141 236.3438046 14.769829 29.402567 29.607668 58.771349 44.510328 88.107406 1.352759 2.6625 1.680057 4.297794-.909631 6.665751-39.530732 36.148549-84.798734 61.797013-137.893183 71.640449-77.239013 14.318587-147.56546-2.527369-210.4108231-49.442045-8.8954773-6.640412-16.9429568-14.392489-25.6110261-21.349614-3.2304685-2.591768-3.4600018-4.710575-1.6269236-8.336938 14.9281647-29.526085 29.6066056-59.174631 44.422129-88.756668 47.2030948-94.253747 94.4338188-188.4948259 141.6560408-282.73907163.301794-.60281015.641843-1.18767324 1.624798-2.99715937" fill="#c5273e"/><g fill="#fcf8ee"><path d="m470.91144 79.08178c-1.804386-2.4967529-3.608772-4.9924504-5.412096-7.4892033 1.804386 2.4967529 3.60771 4.9924504 5.412096 7.4892033"/><path d="m44.1788875 30.5424726c-1.6141716 1.4188737-3.2283431 2.8377472-4.8414521 4.2566209 1.6141716-1.4188737 3.2272805-2.8377472 4.8414521-4.2566209"/><path d="m465.602209 71.7119774c-1.82139-2.1399232-3.643841-4.2787908-5.465231-6.418714 1.82139 2.1399232 3.643841 4.2787908 5.465231 6.418714"/><path d="m417.75674 21.0713856c-1.813951-1.4431549-3.627901-2.8863098-5.441852-4.3294647 1.813951 1.4431549 3.627901 2.8863098 5.441852 4.3294647"/><path d="m448.601125 50.5951473c-1.467526-1.4368206-2.936114-2.8725856-4.403638-4.3094062 1.467524 1.4368206 2.936112 2.8725856 4.403638 4.3094062"/><path d="m444.319585 46.4160156c-1.79376-2.1642046-3.588583-4.3294648-5.382343-6.4936693 1.79376 2.1642045 3.588583 4.3294647 5.382343 6.4936693"/><path d="m7.53984957 69.4814742c-1.08496982 1.8158205-2.16993966 3.6316409-3.25490948 5.4474612 1.08496982-1.8158203 2.16993966-3.6316407 3.25490948-5.4474612"/><path d="m64.9817227 13.5966455c-1.8267023 1.0630995-3.6534047 2.126199-5.4801072 3.1892986 1.8267025-1.0641553 3.6534049-2.1261991 5.4801072-3.1892986"/><path d="m68.0984871 10.3688136c-1.0775312 1.1053279-2.1561251 2.2117115-3.2336563 3.3170393 1.0775312-1.1053278 2.1561251-2.2117114 3.2336563-3.3170393"/><path d="m2.2358242 76.8705964c-.74492051 1.0989937-1.49090368 2.1969316-2.2358242 3.2959251.74492052-1.0989935 1.49090369-2.1969314 2.2358242-3.2959251"/><path d="m58.5189794 17.7752493c-.2847914.5679718-.5695827 1.1359436-.8522486 1.7007482.2847913-.5690275.5685199-1.1348877.8522486-1.7007482"/><path d="m430.534092 31.5665109c-1.115787-.715771-2.230511-1.4325978-3.346298-2.1483689 1.115787.7157711 2.230511 1.4325979 3.346298 2.1483689"/><path d="m4.39811276 74.7927489c-.75767237.7337182-1.51534474 1.4674363-2.2730171 2.2011545.75767236-.7337182 1.51534473-1.4674363 2.2730171-2.2011545"/><path d="m9.67387152 67.3362725c-.74492052.7548322-1.48984103 1.5096646-2.23582421 2.2644969.74598318-.7548323 1.49090369-1.5096647 2.23582421-2.2644969"/><path d="m450.676488 53.8102052c-.367678-.7579995-.735357-1.5159989-1.103035-2.2739983.367678.7579994.735357 1.5159988 1.103035 2.2739983"/><path d="m419.908613 22.0572072c-.760859-.3642197-1.522782-.7273838-2.283643-1.0916036.760861.3642198 1.522784.7273839 2.283643 1.0916036"/><path d="m460.243988 65.4265995c-.370866-.7590551-.741733-1.519166-1.111536-2.2782213.370866.7590553.74067 1.5191662 1.111536 2.2782213"/><path d="m59.6159572 16.6999036c-.3910568.3937798-.7831762.7865037-1.1742328 1.1802833.3910566-.3937796.783176-.7865035 1.1742328-1.1802833"/><path d="m434.785453 35.8246097c-.394245-.3927239-.78849-.7854478-1.182734-1.177116.394244.3916682.788489.7843921 1.182734 1.177116"/><path d="m30.9643588 43.1154453c-.3974326.3948354-.7948654.7896708-1.1922979 1.1845061.3974325-.3948353.7948653-.7896707 1.1922979-1.1845061"/><path d="m449.661759 51.6521237c-.394243-.3906125-.787426-.7801693-1.181671-1.1707817.394245.3906124.788489.7801692 1.181671 1.1707817"/><path d="m38.4053814 35.7261121c-.3984952.3948352-.7959277.7896707-1.1944231 1.1845061.3984954-.3948354.7959279-.7896709 1.1944231-1.1845061"/><path d="m451.769322 54.8560967c-.398495-.3927241-.798054-.7865037-1.196549-1.1792276.398495.3927239.798054.7865035 1.196549 1.1792276"/><path d="m32.031051 42.0643809c-.3984954.3937796-.7969906.7875594-1.1954859 1.181339.3984953-.3937796.7969905-.7875594 1.1954859-1.181339"/><path d="m33.0927486 41.0055043c-.39637.3958911-.7938026.7907264-1.1901726 1.1866175.39637-.3958911.7938026-.7907264 1.1901726-1.1866175"/><path d="m39.4652727 34.6669186c-.3974326.3958911-.7938026.7917822-1.1912352 1.1876733.3974326-.3958911.7938026-.7917822 1.1912352-1.1876733"/><path d="m34.1545526 39.9494781c-.3974326.3948352-.7948652.7896707-1.192298 1.1845061.3974328-.3948354.7948654-.7896709 1.192298-1.1845061"/><path d="m439.036813 40.0411136c-.394246-.3906126-.788489-.7812251-1.182734-1.1718376.394245.3906125.788488.781225 1.182734 1.1718376"/><path d="m35.2154003 38.8918683c-.3974328.3958909-.7938028.7907264-1.1912354 1.1866175.3974326-.3958911.7938026-.7907266 1.1912354-1.1866175"/><path d="m437.975115 38.9880434c-.394245-.3916683-.788489-.7833365-1.183797-1.1750047.395308.3916682.789552.7833364 1.183797 1.1750047"/><path d="m36.2804984 37.8396426c-.3984954.3937796-.7969906.788615-1.1954859 1.1823946.3984953-.3937796.7969905-.788615 1.1954859-1.1823946"/><path d="m436.91193 37.9330728c-.395308-.3916682-.789552-.7833364-1.18486-1.1750047.395308.3916683.789552.7833365 1.18486 1.1750047"/><path d="m432.662482 33.7070676c-.393182-.3906125-.785302-.7822808-1.178484-1.1728933.393182.3906125.785302.7822808 1.178484 1.1728933"/><path d="m431.600572 32.6488243c-.393182-.3906125-.785302-.7812251-1.178484-1.1707819.393182.3895568.785302.7801694 1.178484 1.1707819"/><path d="m37.3418772 36.7816105c-.3974326.3958909-.7938025.791782-1.1901725 1.1866175.39637-.3948355.7938025-.7907266 1.1901725-1.1866175"/><path d="m435.849062 36.8785246c-.395306-.3916683-.790614-.7843922-1.185921-1.1760605.395307.3916683.790615.7843922 1.185921 1.1760605"/><path d="m433.724605 34.7673166c-.393183-.3927239-.786363-.7854478-1.179546-1.177116.393183.3916682.786363.7843921 1.179546 1.177116"/></g><path d="m23.9967483 49.6647506c.8171812-.3177685 1.6354248-.6355371 2.4526058-.9533058-.817181.3177687-1.6354246.6355373-2.4526058.9533058" fill="#162c4b"/></g><g transform="translate(87.0966 131.589)"><path d="m236.475602 50.3306353c8.840219 17.5659509 17.234124 34.2071004 25.596149 50.8640857 39.548797 78.780212 79.073155 157.574149 118.642141 236.343805 14.769831 29.402566 29.607669 58.77135 44.510331 88.107406 1.352758 2.662499 1.680056 4.297793-.909633 6.665749-39.530732 36.148551-84.798733 61.797014-137.893183 71.64045-77.239011 14.318589-147.56546-2.527369-210.4108225-49.442045-8.8954775-6.640412-16.9429569-14.392487-25.6110263-21.349614-3.2304684-2.591766-3.4600018-4.710575-1.6269234-8.336938 14.9281647-29.526085 29.6066056-59.174631 44.422129-88.756668 47.2030942-94.253747 94.4338182-188.494825 141.6560412-282.7390713.301793-.6028101.641843-1.1876732 1.624797-2.9971594" fill="#163a5c"/><g fill="#fcf8ee"><path d="m470.91144 68.7129665c-1.804386-2.4967531-3.608772-4.9924504-5.412096-7.4892035 1.804386 2.4967531 3.60771 4.9924504 5.412096 7.4892035"/><path d="m44.1788875 20.173659c-1.6141716 1.4188737-3.2283431 2.8377473-4.8414521 4.2566208 1.6141716-1.4188735 3.2272805-2.8377471 4.8414521-4.2566208"/><path d="m465.602209 61.3431637c-1.82139-2.1399232-3.643841-4.2787906-5.465231-6.4187139 1.82139 2.1399233 3.643841 4.2787907 5.465231 6.4187139"/><path d="m417.75674 10.7025721c-1.813951-1.44315492-3.627901-2.88630986-5.441852-4.32946478 1.813951 1.44315492 3.627901 2.88630986 5.441852 4.32946478"/><path d="m448.601125 40.2263338c-1.467526-1.4368207-2.936114-2.8725856-4.403638-4.3094063 1.467524 1.4368207 2.936112 2.8725856 4.403638 4.3094063"/><path d="m444.319585 36.0472021c-1.79376-2.1642046-3.588583-4.3294649-5.382343-6.4936695 1.79376 2.1642046 3.588583 4.3294649 5.382343 6.4936695"/><path d="m7.53984957 59.1126606c-1.08496982 1.8158204-2.16993966 3.6316409-3.25490948 5.4474612 1.08496982-1.8158203 2.16993966-3.6316408 3.25490948-5.4474612"/><path d="m64.9817227 3.22783191c-1.8267023 1.0630995-3.6534047 2.12619899-5.4801072 3.18929849 1.8267025-1.0641552 3.6534049-2.12619899 5.4801072-3.18929849"/><path d="m68.0984871 0c-1.0775312 1.10532788-2.1561251 2.21171147-3.2336563 3.31703936 1.0775312-1.10532789 2.1561251-2.21171148 3.2336563-3.31703936"/><path d="m2.2358242 66.5017829c-.74492051 1.0989935-1.49090368 2.1969315-2.2358242 3.2959251.74492052-1.0989936 1.49090369-2.1969316 2.2358242-3.2959251"/><path d="m58.5189794 7.40643581c-.2847914.56797172-.5695827 1.13594345-.8522486 1.70074806.2847913-.56902744.5685199-1.13488775.8522486-1.70074806"/><path d="m430.534092 21.1976973c-1.115787-.7157711-2.230511-1.4325978-3.346298-2.1483689 1.115787.7157711 2.230511 1.4325978 3.346298 2.1483689"/><path d="m4.39811276 64.4239354c-.75767237.733718-1.51534474 1.4674362-2.2730171 2.2011543.75767236-.7337181 1.51534473-1.4674363 2.2730171-2.2011543"/><path d="m9.67387152 56.9674588c-.74492052.7548324-1.48984103 1.5096647-2.23582421 2.2644971.74598318-.7548324 1.49090369-1.5096647 2.23582421-2.2644971"/><path d="m450.676488 43.4413917c-.367678-.7579996-.735357-1.515999-1.103035-2.2739984.367678.7579994.735357 1.5159988 1.103035 2.2739984"/><path d="m419.908613 11.6883937c-.760859-.3642198-1.522782-.7273839-2.283643-1.0916037.760861.3642198 1.522784.7273839 2.283643 1.0916037"/><path d="m460.243988 55.0577859c-.370866-.7590552-.741733-1.519166-1.111536-2.2782212.370866.7590552.74067 1.519166 1.111536 2.2782212"/><path d="m59.6159572 6.33109008c-.3910568.39377965-.7831762.7865036-1.1742328 1.18028326.3910566-.39377966.783176-.78650361 1.1742328-1.18028326"/><path d="m434.785453 25.4557961c-.394245-.3927239-.78849-.7854478-1.182734-1.1771162.394244.3916684.788489.7843923 1.182734 1.1771162"/><path d="m30.9643588 32.7466317c-.3974326.3948355-.7948654.7896707-1.1922979 1.1845062.3974325-.3948355.7948653-.7896707 1.1922979-1.1845062"/><path d="m449.661759 41.2833102c-.394243-.3906125-.787426-.7801694-1.181671-1.1707819.394245.3906125.788489.7801694 1.181671 1.1707819"/><path d="m38.4053814 25.3572985c-.3984952.3948353-.7959277.7896707-1.1944231 1.184506.3984954-.3948353.7959279-.7896707 1.1944231-1.184506"/><path d="m451.769322 44.4872831c-.398495-.392724-.798054-.7865036-1.196549-1.1792275.398495.3927239.798054.7865035 1.196549 1.1792275"/><path d="m32.031051 31.6955674c-.3984954.3937796-.7969906.7875593-1.1954859 1.1813389.3984953-.3937796.7969905-.7875593 1.1954859-1.1813389"/><path d="m33.0927486 30.6366908c-.39637.3958909-.7938026.7907263-1.1901726 1.1866174.39637-.3958911.7938026-.7907265 1.1901726-1.1866174"/><path d="m39.4652727 24.2981051c-.3974326.3958911-.7938026.7917822-1.1912352 1.1876731.3974326-.3958909.7938026-.791782 1.1912352-1.1876731"/><path d="m34.1545526 29.5806645c-.3974326.3948353-.7948652.7896707-1.192298 1.184506.3974328-.3948353.7948654-.7896707 1.192298-1.184506"/><path d="m439.036813 29.6723c-.394246-.3906125-.788489-.7812251-1.182734-1.1718376.394245.3906125.788488.7812251 1.182734 1.1718376"/><path d="m35.2154003 28.5230546c-.3974328.3958911-.7938028.7907265-1.1912354 1.1866175.3974326-.395891.7938026-.7907264 1.1912354-1.1866175"/><path d="m437.975115 28.6192298c-.394245-.3916682-.788489-.7833366-1.183797-1.1750048.395308.3916682.789552.7833366 1.183797 1.1750048"/><path d="m36.2804984 27.4708289c-.3984954.3937797-.7969906.788615-1.1954859 1.1823947.3984953-.3937797.7969905-.788615 1.1954859-1.1823947"/><path d="m436.91193 27.5642592c-.395308-.3916682-.789552-.7833364-1.18486-1.1750046.395308.3916682.789552.7833364 1.18486 1.1750046"/><path d="m432.662482 23.3382539c-.393182-.3906124-.785302-.7822808-1.178484-1.1728933.393182.3906125.785302.7822809 1.178484 1.1728933"/><path d="m431.600572 22.2800108c-.393182-.3906126-.785302-.7812251-1.178484-1.170782.393182.3895569.785302.7801694 1.178484 1.170782"/><path d="m37.3418772 26.4127968c-.3974326.3958911-.7938025.7917822-1.1901725 1.1866176.39637-.3948354.7938025-.7907265 1.1901725-1.1866176"/><path d="m435.849062 26.509711c-.395306-.3916682-.790614-.7843923-1.185921-1.1760605.395307.3916682.790615.7843923 1.185921 1.1760605"/><path d="m433.724605 24.398503c-.393183-.3927239-.786363-.7854478-1.179546-1.1771162.393183.3916684.786363.7843923 1.179546 1.1771162"/></g><path d="m23.9967483 39.295937c.8171812-.3177686 1.6354248-.6355371 2.4526058-.9533057-.817181.3177686-1.6354246.6355371-2.4526058.9533057" fill="#162c4b"/></g></g></g></svg>