<svg width="4096" height="4096" viewBox="0 0 4096 4096" version="1.1" xmlns="http://www.w3.org/2000/svg" xmlns:xlink="http://www.w3.org/1999/xlink"><title>frontmatter-gen</title><defs><polygon id="path-1" points="-1.48583205e-13 0 3808.63799 0 3808.63799 1334.49344 -1.48583205e-13 1334.49344"/><polygon id="path-3" points="-9.90554702e-14 0 3611.71048 0 3611.71048 1121.38131 -9.90554702e-14 1121.38131"/><polygon id="path-5" points="0 0 4096 0 4096 396.378323 0 396.378323"/></defs><g id="frontmatter-gen" stroke="none" stroke-width="1" fill="none" fill-rule="evenodd"><g><g id="Group-3" transform="translate(149.2355, 2761.5066)"><mask id="mask-2" fill="#fff"><use xlink:href="#path-1"/></mask><path d="M3808.63799,2.43293103 C3777.29206,103.304637 3731.51738,194.973861 3680.61249,283.627745 C3450.16379,684.98107 3132.27132,988.456697 2710.83342,1172.42808 C2403.93328,1306.40454 2081.85856,1354.43665 1750.2762,1327.13501 C1069.72728,1271.08806 549.218957,939.172932 173.966986,362.638224 C106.451604,258.907634 51.0298818,148.24318 5.50614032,32.4014425 C-5.29799369,4.90778675 -1.30394931,-0.0703713038 27.3792839,0 C448.921741,1.03193512 870.464199,1.05327009 1292.00666,1.07460505 C2121.15772,1.11016332 2950.30879,0.989265196 3779.45986,1.0034885 C3788.45865,1.0034885 3797.45745,1.86399868 3808.63799,2.43293103" id="Fill-1" fill="#22242F" mask="url(#mask-2)"/></g><g id="Group-6" transform="translate(240.584, 0)"><mask id="mask-4" fill="#fff"><use xlink:href="#path-3"/></mask><path d="M1805.38999,1121.38131 C1229.40418,1121.38131 653.425338,1121.38131 77.4464977,1121.38131 C64.6697379,1121.38131 51.8929781,1121.32441 39.1231888,1121.23196 C-7.96889473,1120.8906 -8.26165191,1120.7057 15.6468511,1077.21082 C56.5910338,1002.70202 102.797875,931.663702 153.688832,863.868301 C422.781473,505.384028 759.717105,238.021382 1184.52171,104.201382 C1814.54911,-94.2635562 2410.59575,-10.8722972 2959.26453,368.484681 C3220.48758,549.092256 3429.12586,782.859446 3588.08604,1061.77142 C3591.00664,1066.89181 3593.79481,1072.09043 3596.54812,1077.29616 C3619.80837,1121.22485 3619.8014,1121.11817 3571.65679,1121.11817 C2982.90119,1121.08973 2394.14559,1121.10395 1805.38999,1121.10395 L1805.38999,1121.38131 Z" id="Fill-4" fill="#FA6238" mask="url(#mask-4)"/></g><path d="M2049.8077,1818.36397 C1387.81402,1818.34975 725.820329,1818.35686 63.8336119,1818.34263 C12.6568687,1818.34263 4.86395143,1810.05045 14.6434353,1757.50954 C34.0351133,1653.30247 56.1382804,1549.81368 88.2648956,1448.57217 C98.6159531,1415.95812 112.131576,1405.03462 146.251728,1405.11243 C685.134052,1406.31472 1224.02335,1405.95913 1762.90567,1405.95913 C2491.09733,1405.95913 3219.28899,1406.20804 3947.48066,1405.1484 C3979.68395,1405.09862 3993.36686,1414.05931 4003.08361,1445.80573 C4037.60107,1558.58235 4068.06873,1671.83544 4078.71255,1790.1307 C4080.69911,1812.14127 4075.81983,1818.39953 4056.68605,1818.33552 C4047.3945,1818.30708 4038.10991,1818.37108 4028.81836,1818.37108 C3369.14582,1818.37575 2709.48025,1818.37575 2049.8077,1818.36397" id="Fill-7" fill="#F8EBCE"/><g id="Group-11" transform="translate(0, 2090.2218)"><mask id="mask-6" fill="#fff"><use xlink:href="#path-5"/></mask><path d="M2048.08601,0.704147529 C2720.43773,0.704147529 3392.78944,0.910385505 4065.14116,0 C4093.60134,-0.0354645252 4097.21898,10.0417497 4095.71337,34.8685351 C4089.04966,144.97828 4075.50616,254.056834 4055.45229,362.459782 C4050.72635,388.026179 4041.18386,395.863222 4015.06574,395.848999 C2794.61682,395.16628 1574.16093,395.33696 353.712013,395.4223 C263.131547,395.429411 172.530171,394.34844 81.9984979,396.353926 C55.211216,396.944194 46.777021,386.859868 41.8280306,362.153981 C20.1570289,253.985718 8.80920295,144.63692 0.319244734,34.7334137 C-1.99493107,4.74356721 8.13307327,0.291671575 34.5091011,0.320118193 C705.696758,1.03128363 1376.89139,0.874827233 2048.08601,0.874827233 L2048.08601,0.704147529 Z" id="Fill-9" fill="#22242F" mask="url(#mask-6)"/></g></g></g></svg>