<svg height="1597" viewBox="0 0 3021 1597" width="3021" xmlns="http://www.w3.org/2000/svg" xmlns:xlink="http://www.w3.org/1999/xlink"><linearGradient id="a" x1="50%" x2="50%" y1="0%" y2="100%"><stop offset="0" stop-color="#fff"/><stop offset="1" stop-color="#fff"/></linearGradient><mask id="b" fill="#fff"><path d="m0 0h630.8653v344.253112h-630.8653z" fill="#fff" fill-rule="evenodd"/></mask><mask id="c" fill="#fff"><path d="m0 0h645.000003v392.810474h-645.000003z" fill="#fff" fill-rule="evenodd"/></mask><g fill="none" fill-rule="evenodd"><path d="m0 0h3021v1597h-3021z" fill="url(#a)"/><g transform="translate(1043 476)"><text fill="#211f2b" font-family="SFCompactRounded-Regular, SF Compact Rounded" font-size="266" letter-spacing="-1.99999968"><tspan x="0" y="253">MDX Gen</tspan></text><text fill="#000" font-family="SFCompactDisplay-Medium, SF Compact Display" font-size="66" font-weight="400" letter-spacing="-.496240602"><tspan x="29" y="369">Supercharge Markdown Processing with MDX Gen</tspan> <tspan x="29" y="448"/><tspan font-family="SFCompactDisplay-Thin, SF Compact Display" font-size="54" font-weight="300" letter-spacing="-.406015038" x="29" y="487">A robust Rust library for converting Markdown to responsive HTML, </tspan><tspan font-family="SFCompactDisplay-Thin, SF Compact Display" font-size="54" font-weight="300" letter-spacing="-.406015038" x="29" y="551">with support for custom blocks, enhanced table formatting, and </tspan><tspan font-family="SFCompactDisplay-Thin, SF Compact Display" font-size="54" font-weight="300" letter-spacing="-.406015038" x="29" y="615">flexible configuration options.</tspan></text></g><g fill-rule="nonzero" transform="translate(378 476)"><path d="m81.6385266 81.4542769c-.2257713-.4040221-.4515424-.8071134-.6773137-1.2111356-13.4956095 6.6738135-26.010803 15.136868-38.586439 23.4882117.220438.409607.440876.819215.662203 1.227892 12.8671833-7.8346792 25.7343665-15.670289 38.6015497-23.5049681zm494.0781474 25.0931291c-16.353304-9.4302876-32.707498-18.8615059-49.06169-28.2917931 2.242601 4.4079379 41.598796 27.3273531 49.06169 28.2917931zm-401.846149-22.8374937c.302213-.3044131.604426-.608826.906639-.9132391.74398-.0186185 1.369739-.242041 1.663952-1.0435687 1.832836-.4254336 2.95547-1.8916432 4.21499-3.1558416.252437-.3239624.504875-.6479249.757311-.9718875.280881-.2429717.561761-.4850127.843532-.7279847.534206-.405884 1.246185-.8853111.498651-1.5686113-.490652-.4487068-.880863.1805997-1.127078.6674744l-.894195.9299957c-.402656.3686471-.80531.736363-1.207966 1.104079-1.482625.7605671-2.693256 1.792034-3.205241 3.5216958-.747534.0772669-1.316406.4254334-1.623953 1.1711057-.299547.3062748-.599094.6134806-.898641.9197556-.129773.1601194-.259548.3202388-.389321.4794272zm9.704608 12.9408119c.555539-.0418916.880862-.3221007.881752-.9365123.589315.0176877.881753-.2969655.91464-.900206.57865 0 .880863-.3034821.910195-.9067226.567096-.0214113.86131-.3332718.897753-.9216175.550206-.0325824.87553-.3109295.908417-.9104463 5.579395-4.2636442 8.259317-7.0201182 9.547281-9.8194147-3.887889 1.5797826-7.839774 5.2159823-10.053044 9.2543423-.323545.2988274-.64798.5976548-.971526.8964822-.28177.3072059-.564429.6153426-.845309.9234794-.283548.3118604-.567095.6237209-.844421.9402359-.434654.4347429-1.174188.7857021-.383989 1.5518549-.329767-.0288587-.724424-.1936328-.975082-.0595794-.607094.3230316.039109.6553724.088886.9923679-.322658-.0325825-.553762-.6060334-.988416-.0512009-.423098.5390064.130663.697264.21155 1.0314666-.659537-1.0538089-1.080859-.2094584-1.492402.2457647-.150218.165705-.127107.5054933-.183106.7652218.783978.0465463 1.279075-.3602687 1.555512-1.1022173.273769-.3314098.547538-.6618889.821309-.9932987zm447.290167-4.5866758c-3.37679 18.3467036-9.158845 35.8909476-16.426191 52.8980476-34.458558 80.640593-90.00895 139.631555-168.39957 172.225161-87.242809 36.27449-175.618919 36.783706-262.356854-2.695033-84.4651115-38.445411-142.5443198-104.03292-174.93982686-194.370045-3.79011257-10.566018-7.07801742-21.3684914-8.74285814-32.6038456 24.7752831-7.4222785 48.5559284-17.4669774 71.6023727-29.5159615 7.7775527-4.0672187 14.9160127-9.4349421 23.2019952-12.4530064-.3048801 1.0249503-.3208796 2.1187892 1.0595249 1.5388218 2.0452741-.8601762 4.0185503-1.9614625 5.9127182-3.1521177 5.32429-3.3466814 10.542806-6.883272 15.917761-10.1359299 1.355517-.8201463 3.347459-2.5488772 4.698531-.3723706 1.164411 1.8776791-.646204 3.4211556-1.816836 4.735624-1.104857 1.2399944-2.404375 2.2928725-3.640784 3.4006753-4.270988 3.8279704-8.613084 7.5721577-12.784519 11.5164941-.991082.9355813-2.849695 1.599332-2.263045 3.7078809-.44621-.8834494-.856865-.2429719-1.249742.0577174-.022222.0176876.183106.3602688.282658.5520396.303992-.2457647.607983-.4905984.911085-.736363 7.946437-5.8713547 15.899984-11.7306073 24.319296-16.8534968 5.738501-3.490975 10.793466-8.178191 16.963954-10.8760165 1.911056-.8350412 4.568757-2.2407404 6.058491.2708997 1.232854 2.0778284-1.187521 3.4984225-2.335043 4.9469445-1.217743 1.5378908-2.643479 2.9203169-4.100326 4.2198906-6.858468 6.1152575-13.806712 12.1215964-20.59496 18.3197063-1.05508.96444-3.430123 1.421525-2.439929 3.9173395-.668425-1.1701749-1.018637-.1899091-1.407959.2485574-.081776.0921618.028443.3714397.050665.5641416.435543-.3137224.871086-.6265137 1.306629-.940236 2.482595-1.9335347 4.931413-3.9154777 7.452229-5.7922258 13.497387-10.0502845 25.421486-22.1486077 38.649548-32.5451971 1.791059-1.408492 3.559898-3.0515777 6.166044-3.1651506-.092442 2.3040435-1.440848 3.4165009-2.337711 4.772861-2.351932 3.5552091-4.832749 7.0210491-7.08335 10.6451468-1.1493 1.8497512-3.333236 4.2738843-1.594621 6.1171192 1.620399 1.7175598 4.131436-.2681069 6.056714-1.2902644 3.943887-2.0936541 7.824662-4.317638 11.731216-6.4885591.272881.3416502.546652.6823694.819533 1.0240194-15.881319 13.70231-32.626612 26.1962771-49.359462 38.7079317-13.335614 9.9711558-28.789389 16.4634385-41.4787994 27.8747382.9199734-.067958 1.916389.162912 2.5545927-.235525 5.0265213-3.1446701 9.9943777-6.3917424 14.9569007-9.648124 1.191077-.7810475 3.303015-2.4865051 3.551008-.634892.894197 6.6728825 3.723448 1.7184907 5.062076.9206865 4.747418-2.830948 9.275287-6.0742967 13.842266-9.2301381 8.255761-5.7056497 16.202198-11.9270328 25.853474-15.0800814 3.15902-1.0323977 5.899385-3.1856311 8.432646-6.0305432-2.397265-.7428793-4.582091.7419486-7.081574-.5902074 16.295529-13.5989771 32.293289-26.9102979 47.76484-40.8881621.215993.2439029.432876.4887367.649759.7326394-1.061302 1.4643476-2.100384 2.946383-3.186574 4.3893194-5.177629 6.8776863-11.169455 13.0636941-15.818209 20.3928799-.152884.2690379-.304879.5380756-.457764.8071135.33599-.0279279.672869-.0567866 1.008859-.0856453 4.454982-1.8329946 7.977546-5.1219586 11.674329-8.152125 6.735806-5.5222571 12.155204-12.4827959 18.468798-18.4639999.238216.354683.477321.7093661.715536 1.0640492-2.450597 3.670644-4.940301 7.314291-7.322455 11.0324121-.532429.8303867-1.964387 2.1792995-.001778 2.8365337 3.529676 1.181346 1.255075 2.5674957.247993 3.8419345-9.364174 11.8367328-19.730095 22.6894761-30.362676 33.2433919-5.126963 5.0903072-10.402367 10.2401936-17.567492 12.2184129-18.215473 5.0307277-31.692417 18.5030984-47.161303 28.4379484 2.094162.350959 3.415013-.962578 4.912747-1.83858 13.798712-8.067411 26.788558-17.7108805 41.765902-23.4807641 5.96605-2.298458 11.232565-5.8182918 16.242198-9.8864413 10.925906-8.8735932 20.906061-18.8726768 31.241762-28.4481888 3.42479-3.1735291 7.093128-5.9365194 11.458336-7.6335988-5.206961 7.0070853-11.88499 12.3338477-18.155921 18.1139715-6.214931 5.727061-13.316058 10.4328953-18.768345 17.0219944 15.129341-6.5863062 27.933414-16.8674606 41.021924-26.7678659-7.422007 11.7324691-15.959538 22.3003488-25.385043 32.0871811-.470209.4133315-.82042.9104463-.205327 1.422456.681758.5678652.936862-.2262151 1.311072-.5874148 20.913173-17.8542429 40.526828-37.1719026 59.050737-59.2264868.231104 3.315961-1.051525 4.3288091-1.784838 5.5985931-3.525231 6.1012935-8.574862 10.9551453-12.520526 16.7157196-.379545.2876563-1.176855.4459139-.639093 1.1366615.495097.6367539.892418-.115435 1.302185-.3677161 2.100384-1.6970793 4.200767-3.3950895 6.301151-5.0921689.235548.2364553.471097.4729107.705757.7093662-4.352763 6.1217739-8.705525 12.2435476-13.411167 18.8605747 5.347401-.1954947 8.799745-3.1353611 12.448528-5.6414157 1.153745-.7912878 2.271046-2.3645538 3.882555-1.055671 1.316407 1.0696348 1.323516 2.730408 1.11819 4.2804009-.42221 3.1781837-2.128827 5.7205446-3.91722 8.2079806-8.933076 12.4250785-19.731873 23.0413665-30.172461 33.9955809-5.354511 5.6162807-10.965016 10.9644547-16.459967 16.4336487 2.680811-.177807 4.358984-1.864646 6.003381-3.496561 8.159764-8.098131 16.08309-16.4699546 24.438403-24.3390778 10.088599-9.5028997 19.295443-20.15177 31.28354-27.2752211.262215.3267553.524429.6535105.786645.9802658-6.033604 8.0906839-14.263588 13.9406271-20.873175 21.8562968 1.82217.5054932 2.674589-.5566941 3.568787-1.1981026 3.898552-2.7965039 7.675333-5.7791928 11.596997-8.5384595 1.9235-1.3526365 4.071883-4.9758033 6.198931-2.5218804 1.944834 2.2444641-1.606175 4.3269472-2.920805 6.3712621-.573316.8927588-1.302183 1.6849773-2.00794 2.4753341-5.347401 5.9886514-10.707246 11.9661316-16.062647 17.9464047-.258659.2597285-.51643.5185261-.7742.7773237-.551095.4189171-1.292407.6721291-1.25863 1.5965392-.251548.226215-.503097.4515-.754645.676784.134218.049339.28977.173152.3991.136846.480874-.157327.57776-.471049.250659-.895551 1.143078 1.009124 1.415959-.174084 1.900389-.8266633.337769-.266245.675537-.53249 1.013304-.798735 3.161687-1.7631753 5.718947-4.3576679 8.361537-6.8078669 12.074316-11.1953244 23.312213-23.3709145 36.038068-33.8028791 1.857724-1.522996 3.785668-2.970587 5.789166-4.2729533 1.110189-.7214683 2.559036-1.3684624 3.611451.0670266.990193 1.3507747-.292436 2.2649446-.97775 3.1884239-2.106606 2.8383955-4.843415 4.9813888-7.400675 7.3329095-2.326155 2.1402006-4.870082 4.1407619-6.344705 7.3310477 2.777698.4784963 3.756336-3.1940095 6.824692-2.3971362-1.615065 2.5954236-3.021247 4.8557135-4.362542 7.0117397 10.020156 7.6242896 13.676939-2.2249147 18.927453-7.5274731 5.949161 12.2007252 13.656494 20.3081657 20.643847 21.7753062-.809754-4.4833431-3.289683-8.1521251-5.255848-12.128113 2.07283-.8313175 3.258573.6330302 4.651422 1.3358799 5.893162 2.9761725 10.534806 7.9193933 16.174643 11.2967954.148439.8005968.807976 1.0547399 1.202632.5771745.475541-.5734508-.400878-.8369031-.696869-1.231616-7.134017-9.715151-15.275114-18.7144192-20.905173-31.1804585 10.735689 6.7706297 18.399467 15.4114913 27.763641 21.6002919-3.502121-6.6821917-8.932186-11.8376638-11.353449-19.1947773 5.16785 4.4768264 9.682387 9.5438603 14.295585 14.5103542 7.094018 7.6382535 14.246699 15.2169276 22.573569 21.4336561.046221.583691.36799.862969.908419.9020679.847975.6860929 1.007082 2.5404992 2.72081 1.7585202-.463098 1.586299.700425 1.867439 1.86128 3.135361-.287104-1.981943-.744868-2.816984-1.927945-3.011547-.702201-.9728188-1.021303-2.5889076-2.767031-1.808791.839977-.7065734.080886-1.0677729-.295102-1.5118248-13.214729-13.181922-23.306881-28.9825407-33.978573-44.304663-1.527066-2.1923324-1.285295-2.7918492 1.170634-3.6520255 4.392762-1.5388218 8.069988-.2010802 11.692105 2.1411314.598206 1.0175029 1.36885 1.7957576 2.576814 2.1113418.32177-1.7008031-1.05419-2.0768975-1.821281-2.8840109-1.092412-1.34612-2.185713-2.6922399-3.279015-4.0392909.19466-.202942.363545-.4263644.50843-.6702672.558205.1657049 1.319961.660027 1.638174.4412593 1.490624-1.0202957.065776-1.892574-.405321-2.5786669-4.819417-7.0145327-10.3757-13.462131-14.651131-20.8974424.244437-.2606595.488874-.520388.733311-.7801166 4.686975 4.7132819 9.518836 9.2794773 14.034261 14.1668424 20.80562 22.5153929 45.430686 40.4506264 67.452271 61.5351849-14.372918-16.4941589-32.388397-29.05236-45.878673-46.4811695 1.804393-.7512578 2.97058.7056424 4.297653 1.5658188 5.158073 3.3429577 10.267259 6.7706297 15.461775 10.0493535 2.271935 1.434558 4.66831 2.6103185 7.346454 3.1511869 2.495927.5036313 3.007024-.7633598 2.89325-2.9072841l-.06222.114504c1.569732.1815307 2.599035 1.3926664 3.755446 2.2826322 10.746355 8.2750074 21.822479 15.9216393 34.32434 21.0873514 3.990996 1.6496021 7.526893 4.2617824 11.073458 6.8022813 8.909075 6.3787096 17.735486 12.8942659 27.135215 18.4807569.772422.458947 1.535067 1.598401 2.981246.07075-5.454064-3.861484-10.720579-7.760205-16.148865-11.396404-9.336619-6.2530349-17.588825-14.2962415-27.719198-19.1891921-17.27239-8.343896-30.240904-22.6326897-45.079585-34.4042577 1.758171-1.7873792 3.224795 1.6496022 4.164323-.089369 1.107525-2.0536243-1.142188-3.2200753-2.199935-4.5652644-2.502151-3.1837693-5.122518-6.2660676-7.749999-9.4554224 2.300379-1.3275015 3.98833 2.0675881 5.993606.2048039-.003556-.0037237-.054222.1331226-.054222.1331226l.127997.0046545c-3.446122-6.0519544-7.961547-11.2074264-12.384531-16.5872517 11.846768 8.9313106 21.794037 20.469216 35.195427 27.2398458-4.12788-4.914362-8.254873-9.827793-12.382753-14.7421551.249771-.3760943.499541-.7512577.7502-1.1273521 15.29289 10.2951182 30.831109 20.1778359 45.755121 31.0957441-.275547.406815-.551096.8126989-.826643 1.219514-2.607924-.3202388-4.945635-1.96891-7.664667-1.6980103.007111.0093092-.003556-.1517411-.003556-.1517411l-.09333.0465464c9.572167 7.5209568 19.746094 14.107263 29.81247 20.8481032 2.543927 1.7026649 4.766084 5.992375 8.8433 2.4567156.305769-.2653142 1.353738.3788871 2.046163.633961 8.525976 3.1418775 16.764848 6.9130615 24.384183 12.0713263 5.205183 3.5244884 10.449475 6.9866045 15.83243 10.5809125.334213-1.881403-.649758-2.435304-1.447069-3.078574-8.43531-6.8115909-16.993285-13.4155848-26.758337-18.0832512-6.315372-3.0180643-12.699187-5.9327957-18.515019-9.9553301-15.414664-10.6619032-30.839997-21.3117046-46.157775-32.125349-7.104683-5.0158329-13.822711-10.6414229-21.00206-15.5287881-4.131436-2.8123295-8.335757-5.3835491-11.533888-9.3939812.221326-.3006893.443543-.6004477.664869-.9002061 5.604284 2.896113 10.309925 7.2100272 15.499996 10.7577888 5.227405 3.5728967 10.512585 7.0424604 17.108839 6.9130616 5.122519-.1005401 6.362483-1.9009523 4.843415-6.9540223-.327989-1.0929079-1.335071-2.1290294-.00711-3.8847571 16.781737 12.7388008 34.882545 23.401635 51.610951 36.3322068-2.261268-3.0013077-4.856749-5.5055005-7.640668-7.7546193-7.851328-6.3424036-15.858208-12.4632466-24.180634-18.1242118-1.116412-.7596361-3.111909-1.2278923-2.616814-3.2312465.391989-1.5881609 2.024831-2.1979179 3.366126-2.8076748 1.71995-.7829094 3.486121-.6023096 5.134074.3369953 2.335931 1.3330872 4.658531 2.6941019 6.967798 4.0783898 11.051236 6.6263362 21.027836 14.9115838 31.511088 22.4148529.518208.3835418 1.035526.7670836 1.554622 1.1487636.356435.0958853.977749.3518902 1.02397.2671758.306659-.5687961-.167106-.6516486-.556429-.7493958-.395543-.4710491-.791087-.9420979-1.186631-1.4140776-5.002522-4.8752631-10.960572-8.6185194-15.747989-14.0532694 2.254157-1.2185831 4.021216.8192155 6.142932-.0539937-.401766-.6860929-.654202-1.4280415-1.143076-1.9046761-8.442424-8.2284609-18.179919-14.8361785-26.110356-23.7870387-4.700309-5.30442025-11.738328-7.9463902-16.488413-13.47702565 1.847947-.10984935 2.90214 1.41035393 4.169657 2.36269194 16.800403 12.61871121 33.291482 25.63120451 51.259851 36.53887251 38.703769 23.4956587 79.015491 42.6820576 122.813334 53.1568448z" fill="#211f2b" mask="url(#b)" transform="translate(7.1814 300.7469)"/><path d="m173.995854 132.107189c-27.680977.030779-49.806559 23.589741-49.818123 53.044262-.011546 28.95182 22.987788 53.086093 50.611878 53.108473 28.410734.024167 50.137216-23.077709 50.288683-53.469673.13919-28.516147-23.323241-52.713724-51.082438-52.683062m-72.010361 214.189533c-8.2859821 3.017133-15.4244422 8.385788-23.2019949 12.452075-23.0455553 12.049915-46.8270895 22.094614-71.60237255 29.516893-5.25495906-22.41113-7.45933972-45.204869-7.15357079-68.223893.59731605-44.936763 9.66549809-87.966056 27.85963834-128.708993 23.235772-52.030424 58.1369844-93.9156083 102.4690349-127.3433239 42.594323-32.1179016 90.028507-52.2771191 141.893672-59.99450132 102.84058-15.30257288 193.637063 13.41651542 271.527254 85.11462712 52.20649 48.0562971 83.744243 108.9361101 96.283437 180.4275561 7.054907 40.221619 6.462924 80.531675-1.19641 120.677888-.168884.886242-.540429 1.730593-.816865 2.595424-43.798733-10.473857-84.109568-29.661186-122.814224-53.155915-17.96837-10.907666-34.459448-23.92016-51.258961-36.539803-1.268408-.952337-2.3226-2.47254-4.170547-2.361761 0 0 .208883.00931.208883.00931-.763533-1.590023-1.968833-2.565634-3.649672-2.880288l.111996.085646c-.332434-.883449-.981305-1.159934-1.832836-1.051017l.052444.048409c-.05511-1.24651-.841753-1.702665-1.870169-1.897228l.103997.076336c-.357323-.848075-1.040858-1.055671-1.842612-1.029605l.059554.059579c-.627538-2.401791-2.47193-3.215421-4.50476-3.781425l.071109.059579c-.127107-.660027-.606204-.778254-1.139522-.810837-1.850614-2.375724-4.423872-3.913614-6.66203-5.753126-10.256591-8.429542-20.346078-17.028512-29.572477-26.698978-29.952022-31.391779-58.16454-64.478775-86.504164-97.440095-7.430897-8.642725-7.317121-8.704166-15.209337-.341652-32.375953 34.30465-64.111923 69.276772-97.889613 102.115212-33.112819 32.192375-69.213997 60.16579-107.748882 84.773907" fill="#de363d" mask="url(#c)"/><path d="m403.211 352.922779c-.428432-.315585-.74309-.592069-1.096858-.795011-.404433-.232732-.82931-.165705-.663981.408676.098665.343513.543096.614411.885308.822008.107553.065166.388433-.182461.875531-.435673m-6.209599-4.913432c-.268436-.229939-.534207-.464532-.816865-.674921-.013333-.01024-.174216.197356-.26577.303482.269325.254142.538651.508286.807976.761499.822199 1.576988 2.080829 2.559116 4.562536 3.806558-1.585733-2.373863-2.711923-3.536591-4.287877-4.196618m-50.278546 13.689278c.323548.395643.68887 1.025881 1.187522.390989.535984-.68237-.21155-.84342-.615982-1.0957-.246215-.424504-.372434-1.313538-1.051524-.663752-.585762.560418.223992.936513.479984 1.368463m-44.436047 7.315221c.059554-.343511.271104-.900205.151996-.994229-.43021-.337926-.555539.105195-.657758.462671-.474653.169427-1.322628.223423-.724424 1.011916.529763.697265.926196.00931 1.230186-.480358m91.185807-23.801002c.016888-.739155-.295992-.750326-.778644-.387265.237326.148016.474653.296034.712868.444052.303101.305343.606204.611619.909307.916963.212437.253211.420433.511079.647093.749395.009777.01024.187549-.155465.286214-.239249-.240883-.22249-.480876-.444051-.724424-.66468-.08622-.644202-.441765-.911378-1.052414-.819216m-291.486677 1.083598c38.533996-24.607185 74.635173-52.581531 107.747993-84.772977 33.77769-32.839369 65.51366-67.810561 97.889612-102.116141 7.892216-8.362514 7.778441-8.300142 15.209337.342581 28.339625 32.961322 56.552143 66.047388 86.504165 97.439166 9.227289 9.670467 19.315886 18.269436 29.572477 26.698977 2.238158 1.839511 4.811416 3.377402 6.662029 5.752197.379546.269968.759979.540868 1.139523.811768 0 0-.070219-.058649-.070219-.058649 1.09419 1.792965 2.761697 2.834671 4.503868 3.781425 0 0-.059554-.060512-.059554-.060512.395545.77267.869309 1.392668 1.843503 1.029605 0 0-.104886-.075405-.104886-.075405-.072887 1.38615.948418 1.587231 1.871057 1.896299 0 0-.052444-.048408-.052444-.048408.373324.804321.749312 1.604918 1.832837 1.051016 0 0-.111997-.085645-.111997-.085645.589317 1.831132 1.769727 2.842119 3.648784 2.880287 0 0-.207994-.008379-.207994-.00931 4.750085 5.529705 11.788103 8.171675 16.488411 13.477027 7.930437 8.95086 17.667933 15.558576 26.110356 23.787038.488874.475703.741312 1.218583 1.143078 1.904675-2.121716.872279-3.889665-1.164588-6.142933.053063 4.787416 5.435681 10.745467 9.178938 15.747988 14.054201-.279102.249488-.557317.498045-.835532.746603-10.484141-7.502339-20.46074-15.787586-31.511975-22.413922-2.308379-1.385219-4.630978-2.745303-6.967799-4.07839-1.647065-.940236-3.413236-1.119905-5.133186-.337926-1.341294.610687-2.974135 1.219515-3.366123 2.808605-.495098 2.003355 1.500399 2.471611 2.615923 3.230316 8.323314 5.661897 16.329306 11.781809 24.180633 18.125143 2.78392 2.249119 5.380289 4.753311 7.640669 7.754619-16.727516-12.930571-34.828326-23.593405-51.610062-36.332207-1.327962 1.755729-.32177 2.79185.007111 3.884758 1.519066 5.053069.278213 6.853482-4.843416 6.954023-6.596254.128467-11.881434-3.340167-17.108838-6.913063-5.190962-3.547762-9.896602-7.861675-15.499995-10.757788-.447099-.264384-.943974-.60231-1.270186.076336-.063999.134053.390211.5418.604426.823869 3.198129 4.009502 7.403342 6.580721 11.533888 9.39305 7.179348 4.888297 13.898265 10.513886 21.002948 15.52972 15.317779 10.813644 30.742222 21.463446 46.157777 32.12535 5.815831 4.022534 12.198758 6.936334 18.515019 9.955329 9.764162 4.667666 18.323025 11.27166 26.758337 18.083251.797311.643271 1.781282 1.197172 1.447069 3.078574-5.383844-3.594308-10.627249-7.056424-15.83243-10.580912-7.619337-5.159197-15.859097-8.929448-24.385072-12.071326-.691536-.255074-1.739507-.900206-2.045276-.633961-4.077215 3.53566-6.299373-.754052-8.843299-2.457647-10.066375-6.73991-20.240303-13.326215-29.81247-20.847172l.089775.095886c2.726143-.262523 5.063853 1.386148 7.67089 1.707319 1.170632.258797 1.824835.134053.82753-1.219514-14.924902-10.91884-30.462229-20.801558-45.756009-31.095745-.24977.375164-.499541.751258-.7502 1.127353 4.127881 4.913431 8.255761 9.827792 12.383641 14.741223-13.402279-6.769698-23.348658-18.307604-35.195426-27.239846 4.422095 5.380757 8.937519 10.53623 12.38453 16.587252l-.071109-.133122c-2.00883 1.85813-3.696782-1.536029-5.99627-.209458 2.627479 3.190285 5.247848 6.272584 7.749998 9.456353 1.057746 1.345189 3.30746 2.511641 2.199047 4.564333-.938639 1.739903-2.406152-1.697079-4.163434.0903 14.838682 11.771568 27.807194 26.060362 45.079584 34.403327 10.130374 4.893882 18.382579 12.937089 27.719198 19.190123 5.428287 3.635268 10.694801 7.534921 16.147976 11.396404-1.445291 1.527651-2.207936.388196-2.980358-.07075-9.399727-5.587422-18.227027-12.102048-27.135214-18.481688-3.546564-2.539568-7.082463-5.152679-11.073457-6.80135-12.501861-5.165712-23.577984-12.813275-34.324341-21.087351-1.156411-.889966-2.185714-2.101102-3.755447-2.282632-.124441-.766154-.551983-.946754-1.186633-.635823-.089774.043753-.14755.398435-.131551.405884.442654.212251.863976.92534 1.380404.115434.113776 2.143924-.39732 3.410916-2.893248 2.907285-2.678146-.540869-5.07541-1.71756-7.346454-3.151187-5.194518-3.278724-10.303702-6.707328-15.461776-10.049354-1.327962-.860177-2.49415-2.317077-4.298543-1.565819 13.491166 17.42881 31.505756 29.987011 45.878674 46.481169-22.020697-21.085489-46.645762-39.019791-67.451382-61.535184-4.515425-4.887365-9.348175-9.45356-14.03426-14.167773-.448877-.799666-1.051527-.879726-1.771505-.417987.345768.399368.691536.798735 1.038192 1.198103 4.275432 7.435312 9.831715 13.883841 14.650243 20.898373.471097.686094 1.896834 1.558371.40621 2.578667-.318212.217837-1.080857-.275554-1.638174-.440328-.439988-.27183-.893308-.788495-1.302185-.01955-.03111.057718.51554.4515.793754.688886 1.093302 1.346121 2.185716 2.693171 3.279018 4.039292-.251549.256935-.503987.514801-.755535.772668-3.622116-2.342212-7.299344-3.679952-11.692106-2.142062-2.455929.860176-2.6977 1.460624-1.170632 3.652957 10.67169 15.322121 20.763843 31.12274 33.978572 44.303732-.176884.169427-.343101.348166-.50043.537144-8.326871-6.217659-15.479553-13.795403-22.57357-21.433656-4.613199-4.966494-9.128624-10.033528-14.295586-14.510354 2.421264 7.357113 7.851329 12.511654 11.352561 19.194777-9.363285-6.188801-17.027063-14.829662-27.762753-21.600291 5.63006 12.466039 13.770268 21.464376 20.905173 31.179526-.183105.205736-.351989.423573-.505763.654442-5.639837-3.376471-10.281479-8.319692-16.174642-11.295864-1.392849-.703781-2.578593-2.167197-4.651422-1.336812 1.966165 3.97692 4.446094 7.645702 5.254959 12.128114-6.986464-1.46621-14.693797-9.573651-20.642958-21.775306-5.250515 5.303489-8.907298 15.151762-18.928341 7.527473 1.342184-2.156026 2.748364-4.415386 4.363429-7.010809-3.068356-.796874-4.047883 2.875633-6.824692 2.396205 1.473736-3.189355 4.017662-5.189916 6.344706-7.330116 2.55637-2.351521 5.294069-4.495445 7.400674-7.333841.685314-.922548 1.967943-1.836719.976862-3.187493-1.052415-1.435489-2.500372-.788495-3.611452-.067026-2.002609 1.302366-3.931442 2.749957-5.789165 4.272023-12.725855 10.432894-23.962863 22.607554-36.03718 33.803809-2.64259 2.450198-5.199849 5.044692-8.361535 6.807866-.25866-.22249-.51732-.444051-.776868-.666543 5.356291-5.980273 10.715247-11.957752 16.063536-17.946404.705757-.791289 1.433736-1.582576 2.007942-2.475334 1.313739-2.044316 4.864748-4.126799 2.919915-6.371263-2.12616-2.453923-4.275432 1.168313-6.198932 2.521881-3.920775 2.759266-7.698443 5.741956-11.596108 8.537529-.894197.642339-1.746616 1.703595-3.568785 1.198102 6.609585-7.914739 14.83957-13.764682 20.872283-21.855366.343102-.334203 1.094192-.54273.581318-1.213929-.46932-.614411-.927974.007449-1.367071.232732-11.988098 7.124383-21.194943 17.773253-31.28354 27.276153-8.355313 7.869123-16.278641 16.240015-24.439292 24.339078-1.644398 1.631915-3.322571 3.318754-6.002494 3.49656 5.494951-5.469194 11.105456-10.817368 16.459079-16.433649 10.441476-10.954213 21.239386-21.570502 30.173349-33.99558 1.788393-2.487436 3.49501-5.030728 3.916331-8.207981.206217-1.549994.199106-3.211697-1.1173-4.2804-1.612398-1.309815-2.7297.263451-3.882555 1.055669-3.648782 2.506055-7.102016 5.444991-12.448529 5.641417 4.704754-6.617027 9.058405-12.738801 13.411168-18.860575-.235548-.236455-.470208-.47291-.705757-.709366-2.100384 1.697079-4.200768 3.394159-6.301151 5.092169-.221327-.256005-.442654-.51294-.663092-.768945 3.944775-5.760575 8.995295-10.614426 12.520527-16.71572.733311-1.269784 2.015942-2.282632 1.783948-5.599524-18.523019 22.055515-38.136674 41.372243-59.049846 59.227418-.368879-.278347-.737757-.556695-1.106635-.835042 9.425505-9.786831 17.963036-20.354712 25.385931-32.08718-13.08851 9.900405-25.892584 20.181558-41.021923 26.767865 5.452286-6.589099 12.553415-11.294933 18.767456-17.021994 6.271819-5.780124 12.948959-11.107818 18.156808-18.113972-4.365207 1.697079-8.034434 4.46007-11.459223 7.632668-10.335702 9.576443-20.314968 19.575527-31.240875 28.449119-5.009633 4.06815-10.276147 7.587984-16.242196 9.886442-14.977345 5.769884-27.967191 15.413352-41.765903 23.480764-1.498623.875071-2.818585 2.189539-4.912747 1.838581 15.468886-9.934851 28.945829-23.407222 47.161303-28.43795 7.164236-1.978219 12.440529-7.129035 17.567491-12.218411 10.631693-10.554847 20.998503-21.406661 30.362678-33.244324 1.007082-1.273508 3.281681-2.659658-.247995-3.841934-1.962609-.656303-.531539-2.005216.00089-2.835603 2.383042-3.718121 4.872748-7.361768 7.323344-11.032412.809754-.431019 1.071969-1.279094.511096-1.845097-.512874-.517595-.905751.326755-1.226631.781047-6.313595 5.981205-11.732994 12.941744-18.469688 18.464001-3.695893 3.030166-7.218457 6.318198-11.67344 8.152124-.153774-.265315-.337769-.506424-.551984-.722398 4.648754-7.328256 10.64147-13.514264 15.819098-20.39288 1.08619-1.442937 2.125271-2.924042 3.185685-4.388389.4071-.187116.775089-.495253.403544-.920687-.129774-.148949-.689758.113574-1.052414.188048-15.471552 13.977864-31.470201 27.289185-47.764839 40.888161 2.498594 1.332157 4.683419-.152672 7.081572.590208-2.533259 2.844912-5.273624 4.998146-8.432644 6.030543-9.652166 3.153048-17.597714 9.374432-25.853475 15.07915-4.567868 3.156773-9.094848 6.400121-13.843155 9.230139-1.337739.797803-4.167879 5.753126-5.061187-.920687-.247993-1.850682-2.359932-.145224-3.551897.635823-4.961634 3.255451-9.930379 6.503455-14.9569006 9.647194-.6373148.399367-1.6337305.168498-2.5545927.236454 12.6894103-11.412229 28.1440743-17.903581 41.4796883-27.875668 16.731961-12.511654 33.478142-25.004692 49.359461-38.707932.333323-.284863.667536-.570658 1.00086-.855521.113775-.35096.399989-.942099.311991-1.011918-.402656-.316515-.759977-.100539-.957305.378887-.391989.155466-.783978.31-1.175967.465464-3.906553 2.169989-7.786441 4.394905-11.730328 6.488559-1.926166 1.022158-4.436315 3.007824-6.057602 1.289334-1.737727-1.843236.446209-4.266438 1.595509-6.116189 2.249713-3.624097 4.73142-7.089938 7.082463-10.646078.896863-1.355429 2.246157-2.468818 2.33771-4.771929-2.605258.113572-4.374096 1.756658-6.165156 3.164219-13.228062 10.39752-25.15216 22.495843-38.649547 32.546129-2.520816 1.876747-4.969634 3.85869-7.452229 5.791294l.053331.135916c-.99286-2.503263 1.381294-2.960347 2.437263-3.924788 6.78736-6.19904 13.735603-12.205379 20.594071-18.320637 1.457736-1.298642 2.883472-2.682 4.101215-4.21896 1.147522-1.448521 3.567896-2.869116 2.335043-4.946944-1.490623-2.51164-4.147435-1.10594-6.058491-.2709-6.170488 2.696895-11.226342 7.385042-16.963953 10.876017-8.419313 5.122889-16.37286 10.981211-24.319297 16.853497l.056887.129398c-.587538-2.112272 1.271075-2.775092 2.261268-3.711605 4.171435-3.943405 8.513532-7.688522 12.785408-11.516493 1.23552-1.107804 2.535038-2.159751 3.639895-3.399744 1.171521-1.31447 2.982136-2.857945 1.816836-4.735625-1.350183-2.177437-3.342125-.447775-4.697642.372371-5.375844 3.252657-10.593471 6.788317-15.917761 10.13593-1.894168 1.190655-3.867444 2.291942-5.912718 3.152118-1.380405.579967-1.365294-.513871-1.059525-1.538823" fill="#fefefe"/><path d="m582.898512 407.294483c-7.462896-.96444-46.819091-23.883856-49.062581-28.291793 16.354193 9.430287 32.708387 18.861505 49.062581 28.291793" fill="#fefefe"/><path d="m88.8199188 382.201167c-12.8671832 7.83468-25.7343665 15.670289-38.6015497 23.504969-.2213269-.408678-.441765-.818284-.662203-1.227892 12.5756361-8.351344 25.0908295-16.814398 38.5864389-23.488212.2257713.404022.4515425.807114.6773138 1.211135" fill="#fefefe"/><path d="m194.762187 392.256013c2.215047-4.036497 6.166932-7.673627 10.054819-9.25341-1.287962 2.799296-3.967885 5.55577-9.548168 9.819414-.165329-.19177-.334211-.379818-.506651-.566004" fill="#fefefe"/><path d="m183.502068 382.298171c.511986-1.729662 1.723506-2.760199 3.20524-3.519834.376878.188977.753756.377026 1.130634.566003-1.260407 1.264198-2.382152 2.730408-4.214989 3.155842z" fill="#de363d"/><path d="m388.933279 401.150274c1.183078.195495 1.640842 1.030535 1.927944 3.012479-1.160855-1.267923-2.325266-1.549063-1.862168-3.134431 0 0-.065776.121952-.065776.121952" fill="#fefefe"/><path d="m365.510758 351.242269c.767088.807115 2.142159 1.183208 1.821279 2.884012-1.207964-.315584-1.978608-1.093839-2.576814-2.111342.251548-.257866.503986-.514802.755535-.77267" fill="#fefefe"/><path d="m386.164648 399.3426c1.746616-.781047 2.065718.835042 2.768809 1.807859 0 0 .065776-.121951.065776-.121951-1.712839.781048-1.872834-1.073358-2.719921-1.760382.001778-.000931-.114664.074474-.114664.074474" fill="#fefefe"/><path d="m189.944637 398.397895c-.286214.734502-.78131 1.141316-1.565287 1.095702.055998-.26066.032887-.599518.183105-.766153.412433-.455223.832864-1.299573 1.49329-.244834z" fill="#fefefe"/><path d="m126.834374 361.22618c-.435542.313722-.871086.627443-1.306629.941166-.022221-.193632-.13244-.47291-.050665-.565073.389322-.438466.738646-1.418732 1.40796-.248556.002666.008377-.050666-.127537-.050666-.127537" fill="#fefefe"/><path d="m254.796272 400.247927c-.483542.652579-.757312 1.835787-1.900389.826663l.104885.081921c-.033776-.92441.707535-1.177623 1.25863-1.595608.154663.249489.333325.478495.536874.687024" fill="#fefefe"/><path d="m352.99663 391.197177c.295991.394713 1.17241.658166.696869 1.231616-.395544.477567-1.05508.223423-1.202632-.577174.153773-.230869.321768-.448706.505763-.654442" fill="#fefefe"/><path d="m183.622775 382.499809c-.295101.801527-.920861 1.025882-1.663952 1.043569 0-.00093-.079996-.072613-.079996-.072613.307546-.746603.876419-1.094769 1.623063-1.172043 0-.000924.120885.201087.120885.201087" fill="#de363d"/><g fill="#fefefe"><path d="m513.868331 355.926506c-.517318-.383542-1.035526-.767082-1.552844-1.150624.278215-.249489.556428-.498047.835532-.747534.395543.471979.791087.943028 1.186631 1.414078-.159106.159187-.315546.320238-.469319.48408"/><path d="m109.01329 357.408542c-.303991.245764-.607094.490598-.911085.736363-.099552-.191771-.30488-.534352-.282658-.551108.392877-.301621.803532-.942099 1.249762-.058649.000868.002792-.056019-.126606-.056019-.126606"/><path d="m514.337472 355.44289c.389323.097749.863086.17967.55643.748466-.046221.085645-.667538-.170359-1.023971-.266245.152884-.161982.309324-.323032.467541-.482221"/><path d="m454.549158 359.173579.092441-.046547s.010668.161052.004446.151742c-.007112-.00931-.096887-.105195-.096887-.105195"/><path d="m188.80956 376.743052c.246215-.486875.637314-1.116181 1.127077-.667475.747534.6833.035556 1.162728-.498651 1.568612-.209773-.300689-.418655-.600449-.628426-.901137"/><path d="m187.915274 377.673234c.297769-.309998.596427-.619998.894196-.929997.209771.300691.418655.600449.628426.901137-.28088.242973-.561761.485013-.843531.727986-.225771-.233663-.452431-.466395-.679091-.699126"/><path d="m187.837854 379.343968c-.376878-.188048-.753756-.377025-1.129746-.566004.402656-.368647.804422-.736363 1.207076-1.10501.226661.233663.453321.466395.679981.699126-.252437.323963-.504875.647925-.757311.971888"/><path d="m252.526471 345.824277c-.410655.252281-.807088 1.00447-1.302185.367716-.537763-.690748.258659-.849006.639093-1.136663.221327.256005.441765.512942.663092.768947"/><path d="m192.987927 345.906477c-.335991.02886-.672869.056787-1.00886.085645.151995-.269037.304881-.538074.456876-.808044.214215.215975.39821.457086.551984.722399"/><path d="m207.11774 381.967878c-.374212.3612-.629314 1.15435-1.311073.586483-.615093-.512009-.264881-1.008193.205328-1.421524.367988.278347.736867.556694 1.105745.835041"/></g><path d="m180.980452 384.390429c.299547-.307207.598206-.613481.897751-.920687.00089.00093.079998.072613.080888.073543-.302214.304413-.605316.608826-.90753.913239 0 0-.071109-.066095-.071109-.066095" fill="#de363d"/><path d="m406.203801 333.878161-.127995-.003725s.050665-.137777.05422-.134053c.002666.003723.073775.137778.073775.137778" fill="#fefefe"/><path d="m181.05165 384.456896-.461319.412401c.129773-.160119.259548-.319308.39021-.479427 0 .000931.071109.067026.071109.067026" fill="#de363d"/><path d="m193.791904 393.153241c.323546-.298828.647981-.597655.970639-.896483.17155.185255.340434.374232.506651.566003-.032888.598588-.358211.876934-.908417.909517-.178662-.204804-.36799-.397507-.568873-.579037" fill="#fefefe"/><path d="m194.360599 393.732556c-.035555.588347-.330657.900207-.896864.921618-.165328-.201081-.337768-.393782-.518207-.578105.282658-.307206.564428-.615343.846198-.922548.200883.18153.390211.374232.568873.579035" fill="#fefefe"/><path d="m193.463469 394.653988c-.030221.603241-.332435.906723-.910196.907654-.143996-.190841-.296881-.373302-.457764-.548317.283546-.311859.567094-.624651.850641-.937443.180439.185255.352879.377956.517319.578106" fill="#fefefe"/><path d="m191.717919 396.569928c-.789311-.767084-.050664-1.118042.381322-1.554647.157329.173152.310214.355613.45421.545523-.032888.60324-.325324.917893-.91553.900206 0 0 .079998.108918.079998.108918" fill="#fefefe"/><path d="m190.832701 397.503555c-.050666-.338857-.69687-.670268-.088888-.99423.249771-.134053.645315.03072.974194.06051 0 0-.079996-.108918-.079996-.107987-.00089.614411-.326214.894619-.881753.935581-.000888-.000931.076443.106126.076443.106126" fill="#fefefe"/><path d="m190.055657 398.482424c-.081776-.334203-.635538-.49339-.212439-1.032397.435543-.553902.666647.018618.989305.053061 0 .000933-.076443-.106124-.076443-.106124-.273769.33141-.54754.66282-.815977.997021.004446.003724.115554.088439.115554.088439" fill="#fefefe"/><path d="m385.870968 397.830216c.375989.444052 1.135078.806183.295102 1.511843-.001778.000914.114664-.074491.113774-.074491-.541316-.038168-.863086-.316516-.909306-.901137.157329-.188048.323547-.367716.50043-.536215" fill="#fefefe"/><path d="m254.259754 399.56053c.25777-.258797.51554-.518526.77331-.777323.259548.22249.518208.444052.776868.666544-.337769.266243-.675537.532488-1.013305.797803-.20355-.207597-.382212-.437536-.536873-.687024" fill="#fefefe"/><path d="m252.896061 401.074496c.327101.424503.230214.738225-.25066.895551-.109331.036307-.264882-.086576-.399101-.136845.251549-.225285.503097-.450569.754646-.675853 0 0-.104885-.082853-.104885-.082853" fill="#fefefe"/><path d="m173.995854 132.107189c27.759197-.030662 51.221628 24.166915 51.082438 52.683062-.151467 30.391964-21.877949 53.49384-50.288683 53.469673-27.62409-.02238-50.623424-24.156653-50.611878-53.108473.011564-29.454521 22.137146-53.013483 49.818123-53.044262" fill="#211f2b"/><path d="m451.144901 294.174603c-1.742171-.945823-3.409678-1.98846-4.50387-3.781424 2.03283.566003 3.876334 1.378701 4.50387 3.781424" fill="#211f2b"/><path d="m460.012201 300.762491c-1.879947-.039099-3.059467-1.050086-3.649674-2.880288 1.680841.314654 2.886139 1.290265 3.649674 2.880288" fill="#211f2b"/><path d="m454.694665 296.964962c-.922639-.309068-1.943944-.510149-1.870167-1.896297 1.028414.193632 1.814169.649785 1.870167 1.896297" fill="#211f2b"/><path d="m452.928317 295.143696c-.974194.363062-1.44707-.256935-1.842614-1.029604.801754-.026067 1.485291.182461 1.842614 1.029604" fill="#211f2b"/><path d="m456.474969 297.967198c-1.083524.5539-1.459514-.246697-1.832836-1.050085.850643-.10985 1.500402.166635 1.832836 1.050085" fill="#211f2b"/><path d="m446.711074 290.45192c-.379544-.2709-.759977-.5418-1.139523-.811768.534207.034444 1.012416.15174 1.139523.811768" fill="#211f2b"/><path d="m397.001401 348.009441c1.575954.660026 2.702144 1.821823 4.287877 4.196617-2.481707-1.247441-3.740337-2.22957-4.562536-3.806558.079998-.138709.171552-.269039.274659-.390059" fill="#de363d"/><path d="m403.211 352.922779c-.487098.253212-.767978.500839-.875531.435673-.342212-.207597-.786643-.478495-.885308-.822008-.165329-.574381.259548-.641408.663981-.408676.353768.202942.668426.479426 1.096858.795011" fill="#de363d"/><path d="m223.130966 319.28998c.320879-.453361.713756-1.298642 1.22663-.781047.560873.566004.298659 1.414078-.511096 1.845096-.239104-.354683-.477319-.709367-.715534-1.064049" fill="#211f2b"/><path d="m349.321626 323.497396c-.345768-.399366-.692425-.798734-1.038193-1.198102.719979-.46174 1.323517-.381681 1.771504.417986-.244437.259729-.488874.520388-.733311.780116" fill="#211f2b"/><path d="m415.662462 363.797958c-.51732.809905-.937751.096816-1.380406-.115435-.016887-.007447.040889-.362131.130663-.405884.635538-.310929 1.063082-.130331 1.187522.635822 0-.00093.062221-.114503.062221-.114503" fill="#211f2b"/><path d="m396.72701 348.399871c-.269326-.254142-.538652-.508285-.808866-.762429.092442-.106126.253326-.31279.26666-.303482.281768.21039.547538.444984.816865.675853-.103109.121021-.194663.25135-.274659.390058" fill="#de363d"/><path d="m346.722589 361.698904c-.255104-.432881-1.065746-.808044-.479096-1.369392.678202-.648857.80442.239246 1.050636.66375-.204439.223422-.394656.458016-.57154.705642" fill="#211f2b"/><path d="m463.137177 359.757364c.997304 1.353566.3431 1.478311-.826642 1.219513.275546-.405884.551093-.812699.826642-1.219513" fill="#211f2b"/><path d="m394.527607 346.031315c.240881.22156.481763.443121.721756.664681-.098663.084714-.276437.249488-.285324.240179-.226661-.238316-.435544-.496184-.647983-.749396z" fill="#de363d"/><path d="m274.746894 361.411435c.439099-.225286.898641-.847144 1.367961-.232733.511986.671199-.238216.879726-.581316 1.212997-.262216-.326755-.524429-.65351-.786645-.980264" fill="#211f2b"/><path d="m347.294039 360.993728c.404434.25228 1.151968.41333.615983 1.09663-.498653.634892-.863975.004655-1.187521-.391919.176884-.246697.367101-.482221.571538-.704711" fill="#211f2b"/><path d="m362.231918 347.203258c-.278214-.237386-.824864-.632099-.793754-.688886.408877-.768945.862197-.252281 1.302185.01955-.144886.242973-.314658.466394-.508431.669336" fill="#211f2b"/><path d="m301.780956 368.482008c.10222-.356545.22755-.799666.65776-.461739.119996.093092-.092442.649787-.151996.994229-.16444-.181531-.333324-.359337-.505764-.53249" fill="#211f2b"/><path d="m302.286898 369.014312c-.303992.488737-.700425 1.177623-1.230188.480358-.598204-.789426.249771-.843419.724424-1.012848.17244.173153.341324.35096.505764.53249" fill="#211f2b"/><path d="m394.316324 346.186408c-.303103-.305345-.606206-.611619-.910197-.916963l.068444-.057718c.608871-.0903.964416.175945 1.051546.820147.001756-.000932-.209793.154534-.209793.154534" fill="#de363d"/><path d="m393.406483 345.269724c-.237327-.148018-.474653-.296036-.71198-.444052.481764-.363061.794645-.35189.778646.386334.000888-.000931-.066666.057718-.066666.057718" fill="#de363d"/><path d="m187.694836 333.647756c-.334213.285793-.667536.570658-1.001749.856451-.272881-.34165-.545762-.682369-.819532-1.024019.391988-.154534.783977-.309998 1.175966-.464532.207105.2197.42221.430089.645315.6321" fill="#211f2b"/><path d="m187.049521 333.015377c.196438-.480358.554651-.695402.957305-.378887.087998.068889-.199104.660027-.31199 1.010986-.223105-.20108-.43821-.4124-.645315-.632099" fill="#211f2b"/><path d="m210.791324 319.669891c.363544-.074474.923527-.336995 1.053302-.188047.370656.426365.002666.733571-.403544.920687-.216883-.243903-.432877-.488737-.649758-.73264" fill="#211f2b"/><path d="m410.053023 317.599324c-.215105-.282071-.669313-.689816-.604426-.823871.326213-.678645.822199-.339787 1.269296-.075405-.221327.298828-.443543.599518-.66487.899276" fill="#211f2b"/></g></g></svg>