<svg height="4096" viewBox="0 0 4087 4096" width="4087" xmlns="http://www.w3.org/2000/svg"><g fill="none" fill-rule="evenodd"><g fill="#27384d"><path d="m102.948918 1568.20776c14.560879-74.61862 32.031579-145.89743 55.039182-215.69776 178.470909-541.538663 521.78841-937.927978 1041.32672-1177.228257 229.51056-105.7077443 472.41572-159.1859907 724.30362-173.16372817 7.4866-.41821296 17.98315-4.21747157 20.65736 5.23649752 2.30901 8.15809795-7.03893 12.99405345-13.58308 17.17618315-39.83626 25.4285262-82.94165 43.181961-127.66098 58.5085826-530.11733 181.6399039-888.337351 536.4435349-1044.94338 1075.3904619-149.001621 512.7821-19.650119 965.40044 340.09549 1355.31629 25.04566 27.1485 25.61702 26.32975-1.68463 50.78637-69.41746 62.17237-138.723005 124.46843-207.993209 186.79983-27.554933 24.79237-32.202398 25.39318-57.901879-.40643-270.589678-271.62638-486.528934-580.56206-636.502459-934.33489-30.935979-72.97521-60.187325-146.64549-83.931219-222.35971-2.892148-9.23602-5.189375-18.66054-7.221536-26.02344"/><path d="m3384.30202 1533.4142c-10.79696-369.48231-145.40264-708.464536-402.43868-998.068178-196.61899-221.535064-439.1295-372.739666-721.78256-460.1815173-36.69082-11.3506533-71.00785-27.9142427-103.25148-48.6364006-7.62797-4.9007491-20.83407-9.0475367-16.4988-20.62202228 3.5931-9.58944653 15.78018-4.72992971 24.05609-4.26459416 282.28786 15.83907974 551.81138 81.91083754 803.18094 212.69368834 509.84283 265.253045 830.47081 682.064111 984.53222 1232.779904 23.13719 82.71781 20.7575 156.31151-10.55546 237.4566-155.06277 401.92622-383.89005 754.90974-686.61734 1060.62931-31.39542 31.7135-32.71485 31.15981-66.2838 1.26642-67.39709-60.02829-134.32883-120.61026-203.0748-179.06583-21.75296-18.49562-24.70401-28.76834-3.41049-51.28116 178.61817-188.84966 302.75673-408.2053 364.45787-661.71304 24.22101-99.51112 36.45521-200.47127 37.68629-320.99318"/><path d="m.22580054 1976.03019c0-48.06504-.26506455-96.13008.21205165-144.19512.10602582-10.1667-2.13818741-24.89251 11.87489201-26.477 11.3212016-1.27231 13.3710342 12.44036 16.9170089 21.16393 69.4999261 171.08444 154.2911319 334.28763 254.1851269 489.52122 214.083805 332.68547 484.355405 613.43595 794.03916 857.76657 245.32608 193.54424 506.36165 363.13844 779.77869 514.01318 6.86222 3.78748 13.27089 8.42316 20.26271 11.92201 23.58485 11.8101 23.38458 28.04972 10.41998 48.07682-18.36014 28.34424-41.67404 52.23539-67.41475 73.417-110.89712 91.21754-239.76562 142.4398-379.62546 169.02872-12.69953 2.40914-23.30801-1.49026-34.18743-5.33075-607.457278-214.30763-1020.73415-630.21159-1259.627997-1222.75457-107.2568994-266.04234-150.60967977-518.43092-146.83398246-786.15201"/><path d="m4086.1529 1983.17986c-13.25322 602.92762-228.23825 1120.88143-659.23321 1544.8139-211.79836 208.32895-460.59384 359.98122-743.02896 454.99803-18.25411 6.13772-35.24181 8.52919-54.22043 4.37651-144.59566-31.62515-279.10708-84.22574-390.93487-184.9915-16.87578-15.2147-31.54269-32.31431-43.86524-51.28704-17.36468-26.73618-15.75073-35.32427 12.58173-51.06322 93.36162-51.87019 185.71601-105.45446 276.33863-161.96033 339.04113-211.38015 658.95637-447.05788 935.54829-737.6452 269.93585-283.60141 479.86109-606.33223 630.60036-967.62699 1.87901-4.51199 3.87583-8.98275 5.55457-13.56542 2.93338-7.98728 7.20387-14.64334 16.97002-12.13407 8.62933 2.21477 7.85769 10.22561 8.14632 16.95825 2.23832 52.93044 7.09195 105.78431 5.54279 159.12708"/><path d="m2046.06589 2195.2586c68.75775 8.7059 134.68225 33.56306 199.03992 62.31962 185.49218 82.87685 352.48874 195.68833 511.9928 320.20388 106.72677 83.31862 208.78841 172.19182 309.07116 263.12663 7.25099 6.57949 14.38417 13.34748 21.07558 20.49244 14.80238 15.80374 14.52554 28.98039-3.29269 44.30112-75.10162 64.59329-151.69939 127.31345-229.08646 189.13829-20.24504 16.16893-35.50098 17.2233-56.77094 1.93791-140.92009-101.27233-286.77628-194.69286-442.61657-271.69117-83.47177-41.24404-169.26433-76.3916-259.25669-101.41369-38.24587-10.63793-74.2652-10.12547-112.41094.21205-172.13292 46.65725-326.0294 131.86667-476.85113 223.54955-76.16777 46.29794-149.72613 96.725-221.53506 149.51997-20.62792 15.16169-36.64371 16.48702-57.18326.03534-75.01916-60.08129-149.43751-120.85176-221.80013-184.10794-31.265839-27.32522-31.819529-30.78283-1.00725-59.06817 171.39074-157.33054 347.99442-308.15816 544.38958-434.20519 138.90561-89.15593 282.28786-168.92269 442.3574-214.28408 12.22242-3.46351 24.70991-6.03758 37.15616-8.63521 4.75938-.98957 9.75438-.87766 16.72852-1.43135"/></g><path d="m3054.56525 2171.67846c-3.84049 7.23332-6.78566 14.59033-11.23874 20.88709-56.11122 79.35443-117.08196 154.70934-183.30686 225.94102-17.18797 18.48973-29.53998 17.78289-49.03106 3.29269-166.28383-123.60843-339.21194-236.37279-531.21882-316.86406-64.20452-26.91288-130.10546-48.45969-198.4391-63.16782-33.12718-7.13319-63.85111-3.27502-95.50571 4.77116-192.33673 48.90735-364.62869 141.0379-530.17623 247.06961-64.32233 41.19693-126.6714 85.56284-188.73185 130.14081-18.26589 13.12364-29.53408 12.36379-44.36591-3.94652-65.3767-71.90907-127.47838-146.36864-182.97112-226.2591-10.14314-14.608-14.1839-26.55358 1.28409-40.79638 241.50326-222.38916 490.12792-435.03573 789.35635-578.56524 53.93769-25.8703 109.71906-46.90464 167.9449-61.6599 37.61561-9.53055 73.64083-6.01402 110.01357 4.65335 147.57617 43.2821 278.04683 120.56903 404.8596 204.63573 172.11525 114.09556 328.53279 247.98261 481.45148 386.12837 17.44714 15.7684 34.90606 31.53679 51.77005 47.91189 3.90529 3.79337 5.39554 10.07834 8.30536 15.8273" fill="#c04348"/><path d="m3013.51264 1450.67165c-2.90982 3.61666-6.03758 8.5233-10.12547 12.4227-42.52224 40.56665-84.83833 81.35125-127.93782 121.29354-35.12989 32.55581-72.3155 62.94988-106.4087 96.52473-14.69046 14.47252-24.83949 13.67144-39.3179 2.47393-86.79392-67.09667-177.6286-128.48562-273.18142-182.15825-127.44893-71.59099-259.17423-135.14169-405.75493-155.27482-43.45881-5.96689-88.21349 13.53008-130.72395 27.26042-141.5268 45.7148-272.87512 112.81147-397.89724 192.89631-59.29788 37.9867-118.01263 76.73914-173.70564 119.93877-9.60122 7.45126-18.84314 12.08694-30.8594.83053-78.55335-73.57603-157.3541-146.89877-237.01483-219.27318-17.9596-16.31619-13.23556-25.99399 2.51516-39.04695 71.41428-59.19186 141.09092-120.54547 213.67738-178.24708 125.62292-99.86454 256.39399-192.54289 396.35397-271.638153 86.26968-48.754207 175.31369-91.093852 269.40572-123.119541 55.03329-18.731228 107.40416-18.165757 162.41389.5478 123.1431 41.897871 236.41991 103.033538 347.03429 170.147884 108.00497 65.53574 209.88401 139.83628 308.88856 217.91251 74.38301 58.66174 148.24766 118.22469 216.4046 184.30233 6.14949 5.96101 14.19568 10.81464 16.23373 22.20652" fill="#ede3d8"/><path d="m2038.0097 3588.39137c-37.12671-1.57861-73.82343-15.40909-108.00497-34.91195-176.2267-100.54782-348.44798-207.49843-514.60811-324.07382-14.50787-10.17847-23.53773-18.64287-3.69323-32.35554 175.20178-121.03437 352.88927-237.221 556.17023-307.93433 50.82171-17.68275 98.25648-17.1644 148.7071.29452 167.26162 57.89598 317.55323 147.51137 464.19872 244.23637 30.27037 19.9623 59.44514 41.58568 89.67428 61.61867 16.2573 10.7734 16.33976 19.2967.35342 30.36462-170.80171 118.2718-345.02569 231.1304-526.08834 333.14491-31.89611 17.97138-66.54888 28.51505-106.7091 29.61655" fill="#305877"/><path d="m3231.67549 1593.61802c-7.75755 136.13127-36.60836 267.60918-86.9824 394.28647-12.75255 32.07281-17.18797 33.95183-42.48691 11.93969-69.53526-60.49362-138.08685-122.12408-207.2687-183.03002-12.89392-11.35066-14.83183-21.02257-1.36655-33.7869 89.69784-85.05038 179.01282-170.50719 268.51628-255.76373 3.38694-3.2279 6.13183-7.64564 12.07516-7.10373 15.98634 1.45491 58.70886 55.59287 57.51312 73.45822" fill="#c04348"/><path d="m853.200002 1601.64712c-1.042588-27.90246 27.172062-69.11116 53.207291-79.41923 9.130002-3.61666 12.56406 2.4386 17.211525 6.83867 86.917612 82.32905 173.717422 164.78179 260.635032 247.11085 13.80103 13.07651 20.59846 24.58031 2.10874 40.67268-69.56472 60.54074-137.95727 122.42448-207.451306 183.0418-24.704016 21.54091-30.329275 19.59121-42.492793-11.91613-48.006136-124.38007-75.661204-253.20733-83.218489-386.32864" fill="#c04348"/><path d="m2062.34557 4096c-121.78833 0-218.40141-8.68823-314.74943-20.91654-6.55004-.83053-14.90841.34164-16.89934-8.35248-2.15586-9.4363 6.6914-10.94422 12.48159-13.48295 107.76936-47.27573 199.77621-115.19705 274.19456-206.82692 16.3751-20.16258 31.99034-19.56177 48.40668.98368 72.50988 90.74632 164.08674 156.15836 268.79902 204.44724 6.83866 3.15132 16.71084 4.84773 13.86582 15.39141-2.19709 8.14632-11.00313 6.57949-17.57084 7.46893-97.25513 13.20611-194.91669 20.8812-268.52806 21.28763" fill="#27384d"/></g></svg>