<svg xmlns="http://www.w3.org/2000/svg" xmlns:xlink="http://www.w3.org/1999/xlink" width="3314" height="3314" viewBox="0 0 3314 3314"><defs><polygon id="a" points="0 0 3313.663 0 3313.663 2255.377 0 2255.377"/></defs><g fill="none" fill-rule="evenodd"><circle cx="1657" cy="1657" r="1653" fill="#FFF"/><mask id="b" fill="#fff"><use xlink:href="#a"/></mask><path fill="#E62642" d="M114.758166,2254.27789 C-115.535408,1703.36188 -21.5414505,905.931633 601.4722,385.928072 C1201.98217,-115.278792 2057.21619,-129.373697 2666.86796,349.947319 C3324.7733,867.196823 3432.85169,1673.41282 3204.94567,2255.37742 C3149.59227,2226.59072 3094.14463,2199.06063 3039.90124,2169.35242 C2706.63946,1986.87262 2425.48485,1743.95018 2187.15949,1449.25566 C2103.07175,1345.27171 2010.82657,1247.18332 1916.08912,1152.57153 C1837.9912,1074.5888 1742.1647,1031.88521 1626.56763,1055.76068 C1549.46452,1071.67766 1481.92207,1106.90445 1420.02386,1154.16323 C1321.47471,1229.40237 1243.20925,1324.18171 1165.17416,1418.7935 C960.818976,1666.58528 732.169459,1888.21876 459.863433,2061.39969 C357.408344,2126.5546 248.785424,2182.10695 142.843259,2241.82704 C133.973731,2246.82204 124.16175,2250.15204 114.758166,2254.27789" mask="url(#b)"/><path fill="#020303" d="M2412.48948,2297.56789 C2403.46287,2292.85563 2394.65618,2287.66166 2385.37825,2283.49393 C2242.87939,2219.4595 2094.33836,2200.41148 1939.95412,2224.1194 C1762.03998,2251.42959 1605.61376,2328.74213 1458.64348,2428.22326 C1304.55245,2532.52137 1150.48236,2636.84042 996.454164,2741.24325 C993.825767,2743.03391 991.919918,2745.89268 989.678975,2748.24881 C1038.83312,2738.97089 1085.79869,2726.04881 1131.81133,2710.39363 C1313.14972,2648.67344 1478.3198,2554.0826 1644.08678,2460.50751 C1882.49592,2325.92525 2133.42921,2248.00535 2412.48948,2297.56789 M531.091921,2873.24947 C616.52003,2829.72909 703.780686,2788.02032 788.43389,2741.62023 C987.134353,2632.7041 1166.39934,2495.11647 1348.31368,2361.46619 C1484.32008,2261.53478 1630.77725,2182.04412 1796.23007,2140.96365 C2057.59317,2076.06007 2309.16524,2110.25016 2545.6057,2231.17733 C2688.72239,2304.36402 2822.08993,2396.44166 2959.69851,2480.24666 C2992.32832,2500.12194 3024.43454,2520.8559 3056.72926,2541.16052 C2454.47051,3485.83331 1210.49566,3524.18066 531.091921,2873.24947"/><path fill="#020303" d="M363.641098,2688.92036 C337.357137,2654.02867 311.34544,2619.49301 283.543083,2582.58027 C338.435722,2558.29641 390.637134,2536.01263 442.168359,2512.2733 C640.816463,2420.74019 821.097209,2299.76066 996.089748,2170.14199 C1150.47399,2055.79105 1317.18341,1966.24757 1507.37039,1925.96294 C1719.76783,1880.97653 1927.57867,1890.67332 2128.48866,1979.16964 C2137.58856,1983.1803 2146.37432,1987.89256 2153.76734,1997.35898 C2120.28932,1992.84568 2086.85319,1988.01823 2053.34376,1983.85049 C1743.21396,1945.25181 1459.51473,2020.06162 1199.98417,2187.69256 C1065.54852,2274.52387 937.521544,2371.13575 804.44721,2460.13471 C670.22099,2549.90858 527.313732,2624.3414 377.002984,2684.23951 C373.254116,2685.7265 369.39006,2686.9098 363.641098,2688.92036"/><path fill="#FEFEFE" d="M2412.48948,2297.56789 C2133.42921,2248.00535 1882.49592,2325.92525 1644.08678,2460.50751 C1478.3198,2554.0826 1313.14972,2648.67344 1131.81133,2710.39363 C1085.79869,2726.04881 1038.83312,2738.97089 989.678975,2748.24881 C991.919918,2745.89268 993.825767,2743.03391 996.454164,2741.24325 C1150.48236,2636.84042 1304.55245,2532.52137 1458.64348,2428.22326 C1605.61376,2328.74213 1762.03998,2251.42959 1939.95412,2224.1194 C2094.33836,2200.41148 2242.87939,2219.4595 2385.37825,2283.49393 C2394.65618,2287.66166 2403.46287,2292.85563 2412.48948,2297.56789"/><path fill="#FEFEFE" fill-rule="nonzero" d="M182.13 283.14 182.13 259.74 218.01 259.74 218.01 283.14 182.13 283.14ZM218.01 206.31 218.01 229.71 182.13 229.71 182.13 206.31 218.01 206.31ZM216.84 69.42C214.89 83.46 210.6 103.35 206.7 117L226.59 121.29 170.82 121.29 188.37 117C187.59 104.13 184.08 84.24 178.23 69.42L216.84 69.42ZM86.58 97.11 60.84 97.11 60.84 54.99 86.58 54.99 86.58 97.11ZM60.84 261.3 60.84 214.11 86.58 214.11 86.58 256.62 60.84 261.3ZM86.58 176.67 60.84 176.67 60.84 134.55 86.58 134.55 86.58 176.67ZM326.04 171.6C322.14 186.42 317.46 200.85 312 214.5 310.44 196.95 309.27 177.84 308.49 157.17L366.99 157.17 366.99 121.29 306.93 121.29C306.15 95.16 305.76 67.86 305.76 39 318.63 57.33 331.11 80.34 336.57 95.94L368.55 78C361.92 60.45 346.71 35.1 330.72 15.99L305.76 29.25 305.76 0 265.2 0C265.59 43.29 266.37 84.24 267.54 121.29L236.34 121.29C240.63 108.81 246.09 91.26 251.94 74.49L225.42 69.42 258.96 69.42 258.96 35.49 219.18 35.49 219.18.39 179.79.39 179.79 35.49 141.57 35.49 141.57 14.43 7.8 14.43 7.8 54.99 23.01 54.99 23.01 267.54C14.82 269.1 7.02 270.27 0 271.05L7.8 313.56C31.2 308.88 58.89 303.03 86.58 297.18L86.58 363.87 125.19 363.87 125.19 54.99 140.01 54.99 140.01 69.42 170.82 69.42 148.2 74.88C152.88 89.31 156 108.42 156.78 121.29L132.21 121.29 132.21 157.17 269.1 157.17C271.05 202.02 274.56 241.02 279.63 272.61 271.83 283.53 263.25 293.67 253.89 302.64L253.89 174.33 146.64 174.33 146.64 337.35 182.13 337.35 182.13 314.73 240.63 314.73C232.05 321.75 222.69 328.38 212.94 334.23 221.13 341.64 234.39 356.85 239.46 364.65 258.18 351.78 275.34 336.57 290.55 319.02 299.91 347.49 312.78 363.09 330.33 363.48 343.59 363.48 361.92 349.83 371.67 286.65 365.04 282.36 348.27 270.27 341.64 260.91 340.08 291.72 336.96 309.66 332.28 309.66 327.6 309.27 323.31 298.74 319.8 280.02 338.13 250.77 352.56 217.23 363.09 179.79L326.04 171.6ZM542.1 8.58C539.37 60.06 544.83 237.12 389.22 323.31 404.82 334.23 420.03 348.27 428.22 360.36 510.51 310.05 551.46 234.78 572.52 164.58 594.36 236.34 638.04 316.68 726.18 360.36 733.59 347.88 747.63 331.89 762.06 320.97 616.59 252.72 597.09 84.63 593.97 30.81 594.36 22.62 594.75 14.82 595.14 8.58L542.1 8.58Z" transform="translate(561.53 667.06)"/></g></svg>