<svg xmlns="http://www.w3.org/2000/svg" width="513" height="513" viewBox="0 0 513 513"><defs><radialGradient id="a" cx="-24.989%" cy="50%" r="134.619%" fx="-24.989%" fy="50%"><stop offset="0%" stop-color="#FFFF5C"/><stop offset="7.313%" stop-color="#DFFF00"/><stop offset="100%" stop-color="#34710C"/></radialGradient></defs><path fill="url(#a)" d="M305.003549,512 C283.189476,495.021555 260.056144,479.341744 236.43677,464.142909 C216.728884,451.271997 210.757498,433.389317 209.264652,413.736647 C206.0938,360.761973 214.113509,307.893115 224.30884,255.716861 C236.726081,192.026048 268.365165,133.241187 306.149221,77.3710395 C308.810885,72.9556818 309.829261,67.7611433 310.917072,62.8167122 C311.761861,58.9689059 309.482088,57.3239687 304.459643,58.0646714 C247.650476,66.4144111 190.042809,60.4887894 132.863323,59.6326525 C81.3543385,58.4783106 37.5873245,77.0920736 2.07146893,107.287733 C1.82844744,107.470504 1.3771218,107.470504 2.84217094e-14,107.807187 C0.509187894,105.748611 0.601767511,103.940142 1.38869426,102.38178 C17.1850914,71.4069397 40.8160387,45.2707155 72.9990281,24.9062006 C93.8988767,11.6793665 118.120019,7.42754052 144.320051,8.93780449 C192.507741,11.708225 240.799584,13.3916403 289.091427,11.6120299 C359.521371,8.21634081 429.88188,3.15647552 500.358113,0.0397524216 C504.084443,-0.152637893 507.868635,0.347576926 512,1.66545058 C489.63045,11.6505079 467.295617,21.6067067 447.356282,34.8239214 C373.662907,82.5944366 325.799245,154.865858 307.364329,230.407916 C299.552924,261.998405 295.803449,294.021773 294.646204,326.237531 C294.032864,335.99172 293.350089,345.774768 293.569966,355.528957 C294.356893,384.878099 296.266347,414.217622 299.275185,443.46095 C300.548155,455.879745 302.446037,468.260062 303.730579,480.678857 C304.806817,491.096792 305.373867,501.553206 306.172366,511.99038 L305.015121,511.99038 L305.003549,512 Z" transform="translate(.85 .749)"/></svg>