<svg height="1597" viewBox="0 0 3021 1597" width="3021" xmlns="http://www.w3.org/2000/svg" xmlns:xlink="http://www.w3.org/1999/xlink"><linearGradient id="a" x1="50%" x2="50%" y1="0%" y2="100%"><stop offset="0" stop-color="#fff"/><stop offset="1" stop-color="#fff"/></linearGradient><mask id="b" fill="#fff"><path d="m0 0h807.38315v795h-807.38315z" fill="#fff" fill-rule="evenodd"/></mask><g fill="none" fill-rule="evenodd"><path d="m0 0h3021v1597h-3021z" fill="url(#a)"/><g transform="translate(1200 489)"><text fill="#d12c32" font-family="SFCompactDisplay-Regular, SF Compact Display" font-size="311" letter-spacing="-2.33834549"><tspan x="0" y="296">LibYML</tspan></text><text fill="#000" font-family="SFCompactDisplay-Medium, SF Compact Display" font-size="49" font-weight="400" letter-spacing="-.368421053"><tspan x="0" y="458">Unleashing the Power of Safe and Efficient YAML Parsing in Rust</tspan> <tspan x="1354.86662" y="458"/><tspan font-family="SFCompactDisplay-Thin, SF Compact Display" font-size="48" font-weight="300" letter-spacing="-.360902256" x="0" y="517">A Rust library for parsing and emitting YAML data in a safe and </tspan><tspan font-family="SFCompactDisplay-Thin, SF Compact Display" font-size="48" font-weight="300" letter-spacing="-.360902256" x="0" y="575">efficient manner.</tspan></text></g><g fill-rule="nonzero" transform="translate(327 398)"><path d="m751.068591 342.183088c-5.197918 8.012154-9.454149 14.55826-13.694748 21.113986-16.819269 25.99801-33.636132 51.997223-50.444579 78.003649-1.247164 1.929074-3.005461 3.473296-1.149749 6.339248 15.402531 23.792323 30.642701 47.689274 46.451734 72.366757 21.360532-57.683422 27.355818-116.012673 18.837342-177.82364m-675.6584006 178.588537c1.51175-2.221323 2.1888501-3.177442 2.8262627-4.158817 13.5865065-20.938398 26.7063789-42.203918 41.0289169-62.626373 4.420996-6.30437 3.511781-9.935218-.152739-15.468678-15.501149-23.402657-30.6162429-47.061484-45.8840751-70.619286-5.2857127-8.157677-10.6038971-16.294908-16.6460861-25.577077-8.6784308 61.535559-2.3692502 120.147438 18.8277206 178.450231m351.9490896-469.1379693c3.001851 4.0385492 5.125759 6.5954147 6.924943 9.3627469 16.75072 25.7743138 33.372753 51.6328134 50.178793 77.3710474 19.267896 29.507386 38.795569 58.846399 58.006938 88.391067 18.795248 28.906053 37.26698 58.02137 55.999691 86.968314 23.757442 36.711349 47.811945 73.232677 71.263913 110.137655 3.414366 5.374709 4.91409 2.228539 6.140808-.165967 5.705445-11.143894 13.22691-21.118799 19.9005-31.627686 15.388098-24.23009 31.045592-48.288201 46.697073-72.349919 1.763107-2.71201 2.182838-5.001884 1.371042-8.304402-14.092831-57.376742-42.63568-106.784626-83.125802-149.316873-52.775345-55.435641-117.226162-90.032705-192.130546-105.2247691-13.065751-2.6506737-26.269808-4.6759618-41.227353-5.2412142m-292.21753 377.3854543c81.446879-125.707358 162.760263-251.207856 244.400771-377.2158786-1.666894-.075768-2.436599-.1683731-3.199089-.1334959-2.001235.0901998-4.008482.1527386-5.99769.370421-38.650045 4.2369886-76.069764 13.4686451-111.280187 30.0233292-99.935449 46.9857163-167.6202324 121.7060903-195.8407663 229.9218863-.6494393 2.487112-.5556312 4.540061.8827559 6.783031 5.0463825 7.871442 9.8137463 15.923285 14.8661421 23.791119 12.9286487 20.130207 25.9318623 40.212307 38.9507113 60.284784 5.759563 8.88048 11.630973 17.6888 17.217352 26.174804m-48.9833424 114.443197c-.3680155 2.381273.9729558 3.76915 1.7462695 5.319384 19.6046419 39.282647 45.0746809 74.281404 77.9711769 103.409947 86.612325 76.691543 187.256144 107.473752 301.257963 86.026628 113.900791-21.430288 197.13483-86.259945 251.91502-188.039079 3.500957-6.504012 3.296505-6.690422-4.144384-6.690422-207.620869-.008419-415.241739-.016839-622.8626083-.026458-1.9651546 0-3.9303092 0-5.8834371 0m625.9282004-18.518636c-2.724035-4.483536-5.068027-8.562977-7.618883-12.508922-47.745798-73.873698-95.438682-147.781068-143.303548-221.576593-51.237136-78.995848-102.670306-157.864213-153.89181-236.8696823-2.595349-4.0024691-3.502158-3.4275952-5.754752.1274826-8.103554 12.7903423-16.748312 25.2234929-24.925231 37.9789581-33.016762 51.5065336-66.48693 102.7220226-99.762265 154.0637916-52.677929 81.282114-105.335414 162.578662-157.997709 243.8716-7.442091 11.489058-14.863737 22.988939-22.6149124 34.979511 21.4399094 0 42.0066834-.049311 62.5722544.059103 2.743279.01426 3.793205-1.747647 5.181081-3.418149 10.375391-12.484865 20.842184-24.877126 36.846047-30.558515 2.411344-.856298 3.266439-2.586929 3.775166-4.904467 2.265821-10.299621 7.244854-18.25405 17.928127-21.888504 6.202144-2.110675 11.925626-5.65974 18.155431-7.656164 8.795089-2.817845 13.6286-8.010953 16.851742-17.022519 4.637476-12.96954 2.687956-10.492051 15.242576-9.701899 3.484121.220088 5.155825-.470242 6.096309-3.772761 4.84674-17.022522 16.695396-29.815267 26.63903-43.750547 1.256785-1.760702 2.526799-3.583942 5.304955-3.105281 8.639946 1.488899 17.438643 2.258605 24.313076 8.846803 2.86114 2.743279 6.496796 4.660328 9.605685 7.169085 17.645501 14.244366 39.345186 21.990732 57.302178 35.756433 1.606757 1.230329 4.131154 1.592329 6.268287 1.724622 3.512988.216482 6.469138 1.84008 9.671835 2.898423 10.694097 3.534633 18.248033 11.166746 25.702152 19.00812 5.755955 6.05542 12.104822 10.549779 21.070691 10.908173 4.906874.196033 7.73554.00842 9.592455-5.507002 2.746888-8.160085 3.332588-7.949615 12.032663-5.581571 2.497938.679507 5.273688.796164 7.482984 1.986805 5.576758 3.007864 8.702482.662668 11.288212-4.15641 5.895465-10.985141 15.757319-17.866794 25.788748-24.527151 1.12449-.746854 2.64466-1.861725 3.690978-1.607961 6.712075 1.628406 13.949711 2.508756 16.795217 10.530532 1.622394 4.572534 4.229773 8.472774 8.36333 11.398859 9.336289 6.613457 17.976235 13.777731 22.642575 24.881936 2.179231 5.187095 8.780658 5.817292 13.90762 3.45646 8.92738-4.110709 13.081387-4.977829 19.397783 2.685552 9.147469 11.096988 19.235425 21.388194 24.777304 35.072116 1.304891 3.221939 4.217747 5.78121 6.315192 8.698876 1.189438 1.654865 2.737265 2.044532 4.681976 2.040921 19.953417-.048107 39.909237-.030064 60.585451-.030064m-711.78765762-123.981535c-.5772792-47.617114 6.33924722-90.489716 20.50664092-132.217381 14.2539856-41.981427 35.8718891-79.907468 63.1194672-114.72462 28.4899315-36.402264 63.0040115-66.1958841 101.9571285-90.709805 30.301144-19.0694561 62.81399-33.6385399 97.104374-44.3085838 19.035782-5.9243278 38.337353-10.65681458 57.9444-13.69234103 14.505343-2.24537555 29.17545-4.10589831 43.982662-4.10830363 6.754167-.00120267 13.472255-1.62119242 20.291363-1.09683048 17.45428 1.34217414 34.918178 2.2092956 52.335172 4.42219921 23.04306 2.92728662 45.518463 8.10475943 67.554896 15.01286723 27.993228 8.7746438 54.751324 20.6016515 80.267063 35.2104232 19.946201 11.4193043 39.114275 23.9246147 56.744142 38.7017595 15.148768 12.6965348 29.721459 25.9078098 43.12035 40.5779168 18.003893 19.712883 33.953638 40.829275 47.566604 63.672694 17.669555 29.651705 31.412407 61.014803 40.300099 94.527063 5.064422 19.095915 9.045245 38.360203 11.369995 57.904712 2.971786 24.994987 3.89904 50.078969 1.731838 75.283222-1.707783 19.863214-4.140774 39.543626-8.525692 59.005148-5.051192 22.41888-12.195024 44.110144-21.126015 65.274643-8.784264 20.814525-19.419431 40.617606-31.705853 59.530715-9.778873 15.053759-20.432079 29.478522-32.351691 42.943559-9.119807 10.300828-18.56554 20.248068-28.475499 29.821284-21.666009 20.926369-45.701269 38.533386-71.462355 54.047765-29.237989 17.608217-60.118817 31.363095-92.691795 41.392121-21.166906 6.518445-42.808863 10.722959-64.70819 14.071178-23.645594 3.614009-47.366958 3.838907-71.106364 3.243588-15.28948-.383649-30.530854-2.31152-45.677217-4.780593-19.246248-3.136551-38.17379-7.699459-56.739329-13.468643-15.396518-4.785407-30.453883-10.713339-45.155261-17.450669-20.707485-9.489028-40.783572-20.234839-59.606482-32.99271-18.143404-12.298452-35.272962-25.958322-51.481278-40.883395-22.618521-20.82775-42.2484189-44.12578-59.2084008-69.536888-22.1530896-33.193552-39.1094632-68.955998-50.4385675-107.428051-6.66276414-22.622129-10.69289456-45.680824-13.89559145-68.885042-1.90622403-13.808999-2.15517569-27.891007-1.54061387-38.359002" fill="#fbf2e1" mask="url(#b)"/><path d="m462.329649 348.928956c-.220088-32.819525-25.958322-57.865024-59.297396-57.703047-32.504428.16154-57.828945 26.418122-57.545116 59.666999.269397 31.545903 26.423753 56.382137 59.475394 56.478835 31.703451.092122 57.582397-26.272701 57.367118-58.442787m249.757441 176.014835c-20.677418 0-40.632035-.018043-60.586655.028861-1.943507.004814-3.492538-.384853-4.680772-2.039718-2.097445-2.918869-5.011505-5.476937-6.315192-8.698876-5.54188-13.683922-15.629836-23.975127-24.777305-35.073319-6.316395-7.662178-10.471606-6.795057-19.397782-2.684348-5.126962 2.360831-11.728393 1.729431-13.908824-3.456461-4.66634-11.104205-13.305082-18.268482-22.642575-24.881935-4.132354-2.926086-6.740936-6.826325-8.36333-11.400064-2.845506-8.020571-10.081943-8.900921-16.794014-10.529328-1.046318-.253763-2.566487.861108-3.692181 1.607961-10.031429 6.660357-19.89208 13.542006-25.787545 24.527152-2.585729 4.819078-5.712657 7.164273-11.289415 4.156409-2.208093-1.19064-4.983842-1.307297-7.481781-1.986805-8.701278-2.368044-9.285774-2.578513-12.032662 5.581572-1.856915 5.515421-4.685582 5.703034-9.592456 5.507001-8.965868-.358394-15.314735-4.852753-21.07069-10.908172-7.454119-7.841375-15.008055-15.474691-25.702152-19.00812-3.203901-1.058344-6.160051-2.683145-9.671835-2.898424-2.137134-.132293-4.66273-.494293-6.268288-1.725821-17.958195-13.764501-39.656677-21.510868-57.302178-35.755234-3.108889-2.50996-6.744545-4.425805-9.606888-7.169084-6.87323-6.588199-15.671928-7.359108-24.311873-8.846804-2.778156-.478661-4.04817 1.343377-5.304955 3.105281-9.944837 13.93528-21.79229 26.728026-26.63903 43.750548-.940484 3.302518-2.612188 3.992848-6.096309 3.77276-12.555822-.790152-10.6051-3.26764-15.243779 9.7019-3.223142 9.011565-8.056652 14.204674-16.851742 17.022518-6.228602 1.996424-11.952084 5.544286-18.15543 7.656164-10.682071 3.634455-15.661104 11.58888-17.926925 21.888505-.50993 2.316334-1.363822 4.048168-3.776368 4.904467-16.003863 5.681389-26.469454 18.073649-36.844845 30.558515-1.387876 1.670501-2.437802 3.431205-5.181081 3.416949-20.565571-.107215-41.132345-.059107-62.5722545-.059107 7.7511755-11.989369 15.1716185-23.490453 22.6137105-34.978311 52.663497-81.292935 105.319779-162.589482 157.998911-243.872799 33.274133-51.340566 66.745503-102.556055 99.762265-154.0625896 8.176919-12.7554649 16.821673-25.1886158 24.924028-37.9789578 2.252594-3.5550777 3.159403-4.1299516 5.754752-.1274826 51.222708 79.005469 102.654674 157.873835 153.89181 236.869682 47.864866 73.795525 95.55775 147.702896 143.304752 221.576594 2.549652 3.945944 4.894847 8.024182 7.618883 12.508921" fill="#193745"/><path d="m86.1580466 543.462904h5.8834371c207.6208693.00842 415.2417393.01684 622.8626083.026459 7.440889 0 7.645341.185214 4.145587 6.689226-54.781389 101.780333-138.014228 166.60999-251.916223 188.039076-114.000616 21.448327-214.645637-9.333883-301.25676-86.025425-32.897698-29.129747-58.366535-64.128504-77.9711773-103.41115-.7745159-1.549032-2.1154876-2.936908-1.7474721-5.318186" fill="#1e5775"/><path d="m135.142231 429.01911c-5.587581-8.486004-11.457789-17.294324-17.218555-26.174804-13.018848-20.072477-26.0208596-40.154577-38.9495083-60.284784-5.0523954-7.867834-9.8197597-15.919677-14.8673447-23.791119-1.4383872-2.24297-1.5309926-4.295919-.8827559-6.783031 28.2217368-108.215796 95.9065199-182.93617 195.8419689-229.9218863 35.20922-16.5546841 72.630142-25.7863406 111.278984-30.0233292 1.989208-.2176824 3.996456-.2802212 5.99769-.370421.763693-.0348772 1.532196.0577279 3.200292.1334959-81.641711 126.0080226-162.953891 251.5085206-244.400771 377.2158786" fill="#db3132"/><path d="m427.359039 51.6334151c14.958748.5664553 28.161602 2.5905405 41.227357 5.2412141 74.905583 15.1932671 139.355197 49.7903308 192.130542 105.2259718 40.490123 42.531045 69.032971 91.938928 83.127001 149.31567.810598 3.302518.390866 5.593595-1.37224 8.304402-15.651481 24.061719-31.308975 48.121032-46.697074 72.34992-6.67359 10.51009-14.195055 20.483792-19.900499 31.628888-1.226719 2.394507-2.725239 5.539473-6.140809.164765-23.451968-36.904978-47.506467-73.426306-71.262709-110.136453-18.732711-28.946944-37.205647-58.063463-56.000895-86.969516-19.210169-29.544669-38.739041-58.882479-58.006938-88.391067-16.80604-25.738234-33.426869-51.5967343-50.178793-77.3698451-1.799184-2.7685347-3.923092-5.3241981-6.924943-9.3639498" fill="#db3132"/><path d="m75.4107917 520.771986c-21.1969708-58.302796-27.5061514-116.915876-18.8277206-178.451434 6.042189 9.283372 11.3591708 17.420603 16.6460861 25.577077 15.2666296 23.559005 30.3829258 47.216629 45.8840748 70.620489 3.664521 5.532257 4.572533 9.164308.151536 15.468678-14.321335 20.422455-27.4412071 41.687975-41.0277136 62.62517-.6374126.982578-1.3145127 1.938697-2.8262627 4.16002" fill="#1e5775"/><path d="m751.068591 342.183088c8.518476 61.810967 2.52319 120.140218-18.837342 177.82364-15.809033-24.677483-31.049203-48.574434-46.451734-72.366757-1.855712-2.865952-.097415-4.410174 1.149749-6.339248 16.808447-26.006426 33.62531-52.005639 50.444579-78.003649 4.240599-6.555726 8.49683-13.101832 13.694748-21.113986" fill="#1e5775"/><path d="m462.329649 348.928956c.215279 32.170086-25.663667 58.534909-57.367118 58.442787-33.051641-.096698-59.205997-24.932932-59.475394-56.478835-.283829-33.248877 25.040688-59.505459 57.545116-59.666999 33.339074-.161977 59.077308 24.883522 59.297396 57.703047" fill="#d12c32"/></g></g></svg>