<svg height="1597" viewBox="0 0 3021 1597" width="3021" xmlns="http://www.w3.org/2000/svg" xmlns:xlink="http://www.w3.org/1999/xlink"><linearGradient id="a" x1="50%" x2="50%" y1="0%" y2="100%"><stop offset="0" stop-color="#fff"/><stop offset="1" stop-color="#fff"/></linearGradient><mask id="b" fill="#fff"><path d="m0 0h375.505462v608.230182h-375.505462z" fill="#fff" fill-rule="evenodd"/></mask><mask id="c" fill="#fff"><path d="m0 0h269.910894v230.922674h-269.910894z" fill="#fff" fill-rule="evenodd"/></mask><mask id="d" fill="#fff"><path d="m0 0h87.1704576v308.332515h-87.1704576z" fill="#fff" fill-rule="evenodd"/></mask><g fill="none" fill-rule="evenodd"><path d="m0 0h3021v1597h-3021z" fill="url(#a)"/><g transform="translate(1042 476)"><text fill="#df3337" font-family="SFCompactRounded-Regular, SF Compact Rounded" font-size="266" letter-spacing="-2"><tspan x="0" y="253">StaticWeaver</tspan></text><text fill="#000" font-family="SFCompactDisplay-Medium, SF Compact Display" font-size="66" font-weight="400" letter-spacing="-.496"><tspan x="29" y="369">Weave Your Templates with Precision</tspan>  <tspan font-family="SFCompactDisplay-Thin, SF Compact Display" font-size="54" font-weight="300" letter-spacing="-.406" x="29" y="487">A powerful Rust templating engine for dynamic content generation</tspan> <tspan font-family="SFCompactDisplay-Thin, SF Compact Display" font-size="54" font-weight="300" letter-spacing="-.406" x="29" y="551">across diverse applications. From web development to report creation,</tspan> <tspan font-family="SFCompactDisplay-Thin, SF Compact Display" font-size="54" font-weight="300" letter-spacing="-.406" x="29" y="615">simplify your template rendering with flexibility and performance.</tspan></text></g><g fill-rule="nonzero" transform="translate(379 476)"><path d="m0 276.308384c.40446319-44.967493 9.86706328-87.878913 29.2978424-128.282334 30.5139898-63.4478723 76.7753856-111.5592333 138.0883276-144.86070603 5.362815-2.9123032 10.791814-2.92257422 16.406498-3.16534397 2.106885.32773915 4.219287.63026761 6.321576.98601865 20.553164 3.47067362 39.02794 12.39152795 56.829835 22.83249455 30.640844 17.9705633 57.476058 41.0757068 83.693545 64.9539787 13.983396 12.7351401 27.630351 25.8391041 40.652227 39.6013471-1.38069 1.05885-2.56834-.073764-3.764264-.429515-33.021662-9.833109-66.666565-14.082513-101.074431-12.022705-4.07313.243704-7.24173 1.766617-10.455375 4.001966-25.62642 17.823968-47.31208 39.701258-65.666437 65.108977-18.906815 26.171513-34.080619 54.447653-46.663101 84.219626-7.796947 17.400989-14.130473 35.369685-19.967612 53.521392-4.272602 13.286975-8.459715 26.601962-10.02701 40.596703-.349309 3.122392.214182 5.603313 2.071955 8.207485 12.130218 17.007889 24.926882 33.474213 38.773311 49.063765 9.213488 10.374672 18.077666 21.108829 28.482481 30.337816.694942 1.010294 1.295202 2.107427 2.100452 3.01688 10.443423 11.795807 21.84285 22.623339 32.980295 33.724451 24.254922 24.176132 49.523761 47.172029 76.173288 68.592725 19.626577 15.775364 40.507907 29.505861 63.484173 39.755414 5.857364 2.613509 11.842499 4.932894 17.767886 7.387668-64.806954 10.886356-127.409581 3.158809-187.71872-23.230262-36.399848-15.927563-68.171351-38.867436-96.547201-66.806499-1.5296062-1.506107-2.8055037-3.276457-4.1963056-4.920757-1.2648665-4.87967-4.2873097-8.901245-6.3914375-13.374744-11.1273338-23.656044-14.5946863-48.9872-15.3925819-74.760943-1.0295426-33.234245 4.9519163-65.615994 13.1919345-97.587834 1.3062322-5.068286 1.0102386-9.136546-1.3264554-13.721159-12.8702025-25.248054-22.7740352-51.607247-28.2673806-79.583659-1.8494999-9.41573-2.4332138-18.976189-3.3699138-29.304174-4.7046422 3.621004-7.8502626 7.763962-11.2394803 11.652013-14.2711159 16.369218-25.62090447 34.434087-31.57386719 55.687644-.8254726 2.945918-.59474473 6.247587-2.67405321 8.802271" fill="#1e2742" mask="url(#b)" transform="translate(.1272 36.7698)"/><path d="m644.898627 314.04793c1.039653 40.474143-5.939175 79.576879-19.956582 117.365857-24.962733 67.293906-66.820996 121.001109-126.043598 160.600589-2.30636 1.541588-4.622831 3.048628-7.2546 3.963683-.653576-1.05418-1.605902-.459394-2.469983-.496743-6.558738-.281988-13.187338-.091506-19.661507-1.008428-21.085401-2.987002-40.893065-10.219674-59.86147-19.852963-29.256476-14.857509-55.766282-33.984963-81.259412-54.618524-12.048408-9.751874-23.799901-19.882843-35.686522-29.842939-4.94824-4.524854-9.94428-8.996485-14.808869-13.610978-1.230854-1.168096-3.345094-1.794629-3.136428-4.139225 9.605082 3.291398 19.518106 5.160725 29.539602 6.454874 32.308334 4.171906 64.127637.981351 95.712536-6.386711 6.165306-1.437944 11.267057-4.115881 15.989164-8.395165 20.216725-18.321645 36.117644-40.114899 49.94477-63.555252 11.252349-19.075164 21.25546-38.81888 29.053325-59.649459 2.617981-6.257857 5.235041-12.515715 7.853022-18.773571 1.225339 1.484631.764802 3.284861.760205 4.932895-.03493 13.401822 1.764012 26.628105 3.499527 39.868394 2.823889 21.539279 6.39971 43.00666 6.572526 64.81672.029416 3.773203 1.55075 3.725582 4.217448 2.491191 33.28916-15.414945 65.329998-32.85515 91.245976-59.800724 15.918384-16.551293 28.646105-35.189473 34.147723-58.127479.236244-.984153-.015625-2.289506 1.603147-2.236042" fill="#1e2642"/><path d="m502.851706 322.102602c-2.61706 6.257856-5.235041 12.515713-7.852101 18.773571-2.759542-2.420227-2.181343-6.313881-3.869977-9.156155-6.431884-10.826597-10.704486-22.744723-16.984697-33.68897-8.72905-15.212326-17.166704-30.562844-27.461211-44.785415-3.876413-5.354941-7.755582-10.714549-11.586951-16.088165-4.168729-5.847016-8.6932-11.354154-13.236058-16.857558-3.945355-4.778828-8.056172-9.445611-12.407827-13.84161-4.779101-4.828316-7.972521-11.015209-13.157923-15.446692-8.764901-7.49038-15.781419-16.722166-23.996617-24.758778.080893-.755389-.296912-1.089664-1.001047-1.122344l.119501.012138c-13.021876-13.761309-26.668832-26.865273-40.652227-39.600413-26.217488-23.878272-53.052701-46.9834157-83.693546-64.9539791-17.800976-10.4409666-36.27575-19.361821-56.828916-22.8324945-2.103209-.355751-4.214689-.6582795-6.322495-.985085-.52764-3.3614273 1.684038-4.764823 4.17884-5.8302087 14.068884-6.0076175 28.442035-11.1608722 42.930091-16.0321405 9.983806-3.3567585 20.304971-5.47072277 30.235461-9.07398601 4.751524-1.72459892 9.901994-2.94591748 15.146228-2.71715368.089165.92906114.682992 1.17649953 1.507544 1.35764312 26.177042 5.74990797 49.409775 18.21426697 71.203905 33.39951447 47.064808 32.7907225 88.613288 71.9868319 126.626394 115.0728589 21.149747 23.970711 41.199172 48.848074 55.374688 77.975774-1.925798 7.326978-3.706355 14.695973-5.80221 21.971596-6.718684 23.325504-14.4329 46.321401-22.468849 69.208052" fill="#f5f5f5"/><path d="m502.851706 322.102602c8.035949-22.886651 15.750165-45.882548 22.468849-69.208052 2.095855-7.275623 3.876412-14.644618 5.80129-21.972529 1.151801-1.202645 1.170185-2.850678 1.542476-4.321302 5.543902-21.952921 10.063779-44.117798 12.146764-66.703789 1.741031-18.869745 2.492964-37.764701-.62416-56.621374-.982662-5.9441235-3.376349-11.6043933-3.348771-17.7343294 12.89686 10.62211 23.743828 23.2582754 34.189089 36.2483244 38.697016 48.124433 60.974664 103.286387 67.968201 164.889211 1.030461 9.082388 1.287847 18.25535 1.903734 27.379758-1.618772-.064427-1.367821 1.240926-1.603145 2.225077-5.501618 22.938006-18.229341 41.576186-34.148643 58.128415-25.91598 26.945574-57.955898 44.385778-91.245976 59.79979-2.66578 1.235325-4.187113 1.282944-4.217448-2.490257-.171896-21.810061-3.748639-43.278375-6.571608-64.817654-1.735515-13.24029-3.535375-26.465638-3.500445-39.867461.004597-1.648967.465133-3.449199-.760207-4.933828" fill="#df3337"/><path d="m264.42792 85.5409465c-.027578 6.129936 2.366109 11.7902059 3.348772 17.7343295 3.117123 18.856673 2.365189 37.751629.624159 56.622309-2.082985 22.585056-6.602862 44.750866-12.146764 66.702854-.371371 1.470625-.390676 3.118657-1.542476 4.322235-14.174596-29.1277-34.22402-54.005064-55.373768-77.975774-38.013104-43.085094-79.560666-82.2812027-126.6263928-115.0728591-21.7941312-15.1843138-45.0268642-27.6486726-71.2039056-33.39951439-.82455336-.18114359-1.41837885-.42858198-1.5075446-1.35764311 23.1509213-2.81519531 46.3404503-3.99169484 69.6559147-2.40342047 56.1955633 3.82829212 107.8188553 21.37587597 154.8790663 52.79308207 12.42805 8.2971229 24.213556 17.4551446 35.389609 27.4180414 1.599468 1.4248716 3.006817 3.0719711 4.50333 4.6163601" fill="#1e2742" mask="url(#c)" transform="translate(276.4101)"/><path d="m292.705504 490.159396c11.885703 9.959162 23.637196 20.090131 35.685602 29.842005 25.493132 20.633561 52.002936 39.761015 81.259413 54.618524 18.969324 9.633289 38.776069 16.865961 59.861471 19.852963 6.475087.916922 13.102769.72644 19.662427 1.008428.86316.037349 1.815487-.557437 2.469063.496743-4.749685 4.011303-10.379076 6.535176-15.752921 9.447478-31.562837 17.102196-64.983446 28.742071-100.264587 34.801043-5.91895-2.454775-11.903167-4.775093-17.761449-7.387669-22.975347-10.250486-43.856679-23.980983-63.483255-39.756348-26.650447-21.420695-51.919284-44.415658-76.173287-68.592723-11.137446-11.101114-22.537791-21.927711-32.981215-33.724453-.80525-.909453-1.405509-2.006586-2.102289-3.017814 16.350424 3.165344 32.739457 5.960931 49.427239 6.633216 20.213048.814213 40.297403.051356 60.153788-4.221393" fill="#df3337"/><path d="m.12722206 76.1419291c2.07930846-2.5546847 1.84858061-5.8563532 2.67405321-8.8022706 5.95296271-21.2535575 17.30275123-39.3184276 31.57386713-55.6876445 3.3892176-3.88805083 6.5348382-8.03100989 11.2394804-11.652014.9367 10.3279852 1.5204138 19.8884444 3.3699137 29.3041756 5.4933456 27.9764117 15.3971781 54.3356037 28.2673806 79.5836574 2.3366942 4.584613 2.6326876 8.652874 1.3264554 13.721159-8.2400182 31.971841-14.2214771 64.353591-13.1919345 97.587835.7978956 25.773743 4.2652481 51.104899 15.3925819 74.760943 2.1041279 4.473498 5.126571 8.495073 6.3914377 13.374745-14.4926515-14.247783-26.2450647-30.683295-36.872335-47.970367-24.2190717-39.397795-40.1631944-81.964669-47.00046071-127.962999-2.77333052-18.650319-3.65855336-37.4145529-3.17043983-56.2572199" fill="#df3337" mask="url(#d)" transform="translate(0 236.9363)"/><path d="m372.29816 166.253203c8.215199 8.035678 15.231716 17.268398 23.996617 24.758778 5.185401 4.431483 8.379742 10.618376 13.157923 15.446692 4.351655 4.396001 8.462472 9.062782 12.407828 13.84161 4.543776 5.503404 9.067328 11.009608 13.236976 16.857559 3.830451 5.372681 7.709621 10.732289 11.586031 16.08723 10.294509 14.223506 18.732162 29.574023 27.461214 44.786349 6.28021 10.944247 10.55281 22.861441 16.984695 33.688037 1.688634 2.843207 1.110436 6.736861 3.869978 9.157088-7.797867 20.830579-17.800976 40.574295-29.053327 59.649459-13.827125 23.440353-29.728044 45.233607-49.944768 63.555252-4.722109 4.279284-9.824779 6.957221-15.989166 8.395165-31.584897 7.368062-63.4042 10.558617-95.712537 6.386711-10.022413-1.294149-19.934518-3.163476-29.539601-6.454874-1.135253-1.476226-3.016928-1.775019-4.376474-3.077572-5.323288-5.096297-10.848806-9.978771-16.386276-14.838835-12.952014-11.365358-25.224713-23.452491-37.100305-35.958867-5.076013-5.345603-10.315649-10.573557-14.962379-16.288916-8.721698-10.729489-17.275174-21.592501-24.825767-33.261322-6.786708-10.488587-12.918003-21.341329-18.263351-32.604911-4.274441-9.008625-7.716055-18.430892-11.352546-27.741113-.760207-1.945892-1.802619-2.707815-3.699-2.614443 12.582482-29.771973 27.755368-58.049047 46.662182-84.220559 18.354356-25.406788 40.040017-47.28501 65.667356-65.108044 3.212725-2.235349 6.382245-3.758262 10.455373-4.001966 34.407868-2.060741 68.051852 2.188663 101.074431 12.022704 1.195006.355752 2.383576 1.488366 3.763347.428584 0-.000934-.1195-.013074-.1195-.013074-.468811 1.113006.550621.856232 1.001046 1.123278" fill="#fefefe"/><path d="m143.793741 306.022001c1.896381-.09244 2.938793.66855 3.699 2.615376 3.636491 9.309287 7.078105 18.731554 11.352546 27.740179 5.345349 11.263582 11.476643 22.116324 18.263351 32.60491 7.550593 11.668822 16.104069 22.532768 24.825766 33.261322 4.647651 5.71536 9.886369 10.943313 14.962382 16.288916 11.875589 12.507311 24.148289 24.59351 37.100305 35.959802 5.537468 4.85913 11.063905 9.741604 16.386273 14.8379 1.360467 1.302554 3.241221 1.60228 4.376476 3.077573-.209585 2.345529 1.905574 2.971129 3.136428 4.139225 4.86459 4.614493 9.860629 9.086124 14.808869 13.611912-19.856386 4.272748-39.939822 5.035606-60.153787 4.221393-16.686865-.672285-33.076817-3.466938-49.426322-6.633216-10.402977-9.227119-19.267156-19.961276-28.481562-30.335948-13.84551-15.589552-26.642174-32.055876-38.772393-49.063765-1.857773-2.604172-2.421263-5.085092-2.071954-8.207485 1.566375-13.994741 5.753489-27.309728 10.02701-40.596703 5.837139-18.151708 12.170665-36.120403 19.967612-53.521391" fill="#f5f5f5"/><path d="m372.29816 166.253203c-.450425-.267046-1.469857-.010272-1.001046-1.123278.704133.033616 1.081939.366956 1.001046 1.123278" fill="#1e2742"/></g></g></svg>