<svg height="249" viewBox="0 0 1061 249" width="1061" xmlns="http://www.w3.org/2000/svg" xmlns:xlink="http://www.w3.org/1999/xlink"><mask id="a" fill="#fff"><path d="m53.7338984 7.29916797c-1.8623007 1.12895703-3.6366875 2.41267187-5.3667539 3.73259373-1.2650664.9649961-1.9806093.6761875-2.7053554-.6181836-1.5410391-2.75112888-.9429571-5.14055076 1.3247656-7.32883591-.155-.0737461-.3096367-.14761328-.4647578-.22135938-.8719961.96233203-1.7436289 1.92466407-2.6432344 2.91739063-.3472969-.2810586-.7263203-.58875781-1.4723789-1.19398438.6646836 2.088625 1.0743437 3.7530586 1.7203789 5.32400782 1.2852891 3.12579292 1.5530273 6.36347652.5329336 9.49387112-1.5889922 4.87475-3.5005781 9.6517773-5.3795898 14.4307422-.5836719 1.4837617-1.4859415 1.52675-2.2916993.1293281-3.222789-5.5887188-8.2918945-9.0813047-13.8586953-12.06675-2.4866601-1.3336055-5.0180039-2.6389961-7.3144258-4.2516016-3.2541523-2.2861289-5.2792031-5.2951875-4.8544062-9.52450779.2027109-2.01548438.034875-4.06717578.034875-6.10251953-.058125.00108984-.1158867.0019375-.1740117.00266406-.275125 2.30998437-.5507344 4.61948437-.86436722 7.24976172-4.02225-2.24604688-6.04039844-5.44679688-8.18048828-8.60734375.42588672 1.2902539.85225781 2.58087109 1.29400781 3.91895703-.95458203.28226953-1.71577734.50738281-3.07069531.90796094 1.31846875.53099609 2.10921094.85346875 2.90334375 1.16879687 2.79702344 1.11030859 5.56328906 2.49223047 6.93285938 5.18366015 1.93762107 3.8054922 4.63316797 6.8107969 8.08966797 9.2740859.7821445.5571524 1.4069883 1.3267032 2.0018008 1.8998399-5.2524414 3.0631875-10.23666018 5.9690742-14.85541799 8.6624414 1.94403906.1872109 4.56789843-.7861406 7.29299219-2.9525078 5.0590547-4.0210391 10.4694023-4.6570235 15.0772617-1.2169922 2.3464336 1.7519844 4.6272344 4.0253984 5.9671367 6.5574687 4.2897461 8.1074688 3.7265391 16.2378243-1.1347695 24.0383204-1.8135 2.9097617-2.6313672 2.8836054-4.4610937-.0037539-1.2809297-2.0216602-2.7177071-3.8889258-4.7915586-4.8946094 1.1696445 1.7459297 2.5719101 3.4803554 3.5737187 5.4145859 1.7914609 3.4574688 1.7791094 7.2622344 1.35625 10.9852617-1.2332187 10.8544805.6421602 21.0791524 6.0698242 30.63127 3.8409727 6.759453 4.6211797 13.883277 2.7529453 21.326304-2.2261875 8.868543-4.1222734 17.769176-4.2397343 26.969395-.1398633 10.970851-.3394258 21.936375 1.7569492 32.782984 1.5533906 8.035903 4.4164101 15.535965 10.3110117 21.528168 9.4035352 9.558535 21.1216563 11.87736 34.0036094 9.793699 10.080207-1.630164 18.8968008-6.192734 27.0969061-11.998211 1.735516-1.22898 3.41218-2.538972 5.115606-3.811304-1.349711.226687-2.478184.789652-3.608352 1.349832-8.1872695 4.058215-16.7065781 7.072965-25.9476054 7.63823-9.6194453.588031-18.4802383-1.512703-26.0682149-7.621398-7.4528359-5.999469-11.1592734-14.128613-13.1358867-23.106746-2.6839219-12.193051-2.8913555-24.518457-1.4723789-36.877649.9456211-8.23825 2.6490469-16.341965 7.2461289-23.433578 4.8110547-7.422805 10.0372188-14.586953 15.0993008-21.8523358 1.0736172-1.5404336 2.7080195-1.9820625 4.2363437-1.0756758 1.3658164.8102383 2.6928828 1.9992578 3.497793 3.3343164 1.4984141 2.4853281 1.5128242 5.3334532 1.0012031 8.1333832-.8504414 4.652906-.8833789 9.203246 1.4863047 13.503406 2.5026445 4.5415 3.2805508 9.006226-.6417969 13.305902 2.8464297-2.03159 4.0741993-4.823043 4.4013946-8.100687.0472265-.475172.3851992-.922008.7479961-1.742539-4.8765664-4.480953-5.9509102-10.377008-4.7017071-17.187926.9293946-5.0655939.0484375-9.9902345-4.2712187-13.7026056-1.190957-1.0236055-1.1099453-2.2201328.2969219-2.9349492 2.7340546-1.3894297 5.4463125-2.963043 8.3612812-3.8412149 8.4946055-2.5595585 17.6456602-.1259375 22.0776914 6.4551446 5.5861762 8.2954062 8.6716442 17.1669761 2.8366212 26.8370391-1.731277 2.869195-2.013426 6.141754-1.733578 9.467715.862308-4.738641 2.613445-9.074039 5.697461-12.921793.578222 5.355129 3.023832 9.961293 5.01982 14.769199 2.385547 5.746988 2.324758 11.755902-.008598 17.627254-.333976.840996-.490914 1.731398-1.959418 1.502047-6.262605-.977106-11.3255347 3.333105-11.3662222 9.57682-.0302735 4.591391 1.9542109 8.571258 4.2021952 13.02327 3.123492-1.878528 6.26091-3.485563 9.07743-5.519817 5.183902-3.744218 7.506601-11.805672.172437-16.64591.953492-2.781887 2.125559-5.474164 2.768567-8.283176.635984-2.779343.737945-5.676511 1.074343-8.522457.202348-.050496.405059-.101234.607286-.151851 4.549855 4.761527 6.203269 10.959226 8.379082 16.935445-.748723-3.395469-1.604493-6.757152-2.713832-10.036371-1.225832-3.623004-2.700997-7.240195-5.881887-9.653594-4.87802-3.700988-6.838406-8.639676-7.363227-14.465254-.722445-8.02234-1.969226-15.9617302-5.093566-23.4978786-.272461-.6576602-.389922-1.3773203-.57907-2.0684024.149671-.1749804.299222-.3498398.448531-.5245781 2.153773.8935508 4.34666 1.7059688 6.453933 2.6949414 10.394809 4.8770508 17.461235 12.6171207 20.749051 23.5302107 3.100969 10.293696 4.44741 20.828004 3.968 31.538746-.508109 11.357989-4.0765 21.705813-12.028121 30.159489-12.20407 12.975679-27.163871 18.572027-44.9336522 14.123285-18.009668-4.509168-30.3594141-19.449231-32.507375-38.217551-.4450196-3.889652-.8027305-7.78875-1.2007657-11.683609-.6236328 8.691019-.5650234 17.301996.9376289 25.838863 1.7045157 9.685199 5.6438164 18.323059 13.1613164 25.024266 11.0240118 9.827484 24.0248789 11.676464 37.9858985 8.171406 30.2781601-7.602024 50.9795001-37.738625 47.7043981-68.325817-2.271113-21.21405-18.646742-40.6952496-36.4715-44.4566637-1.36739-.2883242-2.877066-.9482851-2.947543-2.6210742-.072293-1.7079063 1.537043-1.964625 2.776196-2.4496055.479047-.1874531.969355-.3491133 1.441015-.5530351 3.817602-1.65075 6.306321-4.5826719 8.125996-8.1577227-.278636.0495274-.399246.251875-.527847.4485313-5.087028 7.7822109-12.663864 9.2451445-21.1956448 7.7647734-5.5643789-.9653594-11.1253672-1.977582-16.6926524-.6695273-3.6745898.8630351-7.1538554 2.4998593-10.7944179 3.5416289-1.4491289.414625-3.1583672.4462304-4.6424922.1449492-2.5192344-.5108945-4.2591094-2.2757149-5.6140274-4.369668-5.8989609-9.1158164-2.2909726-22.7123437 7.6286641-28.534289 7.0148399-4.1174297 14.6498008-5.5749141 22.7009609-4.4091446 3.8746368.5610274 7.6728633 1.6386406 11.4990625 2.5107578 4.3529572.992 8.3528052.7713672 12.0215822-2.2669961 1.324402-1.0965039 3.348726-1.6974921 5.120328-1.8728359 2.187438-.2168789 4.445109.2456992 6.672145.4145039-3.490891-1.832875-7.095489-2.8744023-10.973879-1.2730586-1.541766.636711-3.021653 1.4267266-4.500571 2.2012422-2.36266 1.2364883-4.843629 1.7093594-7.4861364 1.2205039-4.5563945-.8424492-9.1085508-1.7043945-13.6644609-2.5491445-1.6453008-.3050352-3.3339532-.4599141-4.9253672-.9337539-.6801836-.2028321-1.3104766-.9715352-1.6565625-1.6368242-.124-.2377071.5686562-1.0437071 1.0410429-1.389793 1.1348907-.8319141 2.3580586-1.5476992 3.5491368-2.3050195 2.3432851-1.4899375 4.3284961-3.2847891 5.4985039-6.1474454-4.5525196 4.3121485-4.5525196 4.3121485-5.707875 2.9097618.1539101 1.7013671-.9359336 2.6325781-2.204875 3.3073125-2.889418 1.5363164-5.7656368 3.1303945-8.7786914 4.4011523-5.2075157 2.1962773-10.1596446 4.7153906-14.0052188 8.9230352-.7728203.8451132-1.5107656.8774453-2.3506719.250664-3.5967265-2.6842851-7.679039-3.3366172-12.0830976-3.0292812-2.5542305.1780078-3.8110625-.8409961-4.0037227-3.3346797-.1887851-2.4430664-.4379961-5.0545742.2159102-7.352086 1.5386172-5.4045351 3.6148906-10.6612148 5.4461914-15.9866757 2.2428984-6.5210196 5.99075-11.81003129 12.1719805-15.40857426 1.7471406-1.0171875 2.9292578-2.96873437 4.3707578-4.49221484-.1333243-.11552344-.2666485-.23153125-.3996094-.34717578-.9522813 1.10413281-1.9045625 2.20875-2.8568438 3.31288281-.1612968-.09348437-.3228359-.18745312-.4841328-.28142187.1574219-1.29969922.315086-2.59939844.4725078-3.89909766-1.2139648 2.90746094-2.5154804 5.58181641-5.3494375 7.29916797zm-10.7785546 93.78892603c-4.174586-3.9994846-6.812129-8.9461643-8.1701954-14.4188752-1.1824804-4.7655235-1.7673632-9.6734532-2.6161093-14.5185352.1755859-.0266406.3515351-.0536445.5271211-.0801641-.1922969-6.5492343 1.2603437-12.5554843 5.8466484-17.58475 3.2954453-3.6134375 7.2542422-5.3433828 12.2393086-4.5267265 3.6916641.6047422 5.0815781 2.7800703 3.7990742 6.1680312-2.2560976 5.9595078-3.83625 12.0655391-2.0100351 18.3503047.8635195 2.9722461 2.4054062 5.8823711 4.208371 8.4338164 2.6432344 3.740586 2.7316329 7.3639531.7391563 11.2367735-1.6966445 3.2978671-4.124332 5.9550272-7.4253477 7.7853592-1.2804453.709973-2.3421953 1.079188-3.3320156 1.079188-1.2833515 0-2.4456094-.620848-3.8059765-1.924422z" fill="#fff" fill-rule="evenodd"/></mask><mask id="b" fill="#fff"><path d="m55.1540106 1.33893359c1.7898867 3.04478125 4.764918 4.72217188 7.68025 6.50188672.8642461.52760547 1.4975664 1.41994532 2.237207 2.1449336-.9341171.56562889-1.8553984 1.15329689-2.8096171 1.68308199-.264711.1468868-.6287188.1186719-.9457422.1780079-3.9888282.7452109-8.0329961 1.2833515-11.9524375 2.2886718-5.3237657 1.365211-10.3163399 1.2917071-15.0176836-1.8440156-.7312852-.4876445-1.6331914-.7519922-2.4839961-1.041043-3.6013281-1.2243789-6.8782461-.3194453-10.0071875 1.4769805.33325.0882773.6463984.049043.9572461-.0053281 4.0297578-.7047656 8.0069609-1.0182774 11.3600469 1.9516679 2.6951835 2.3867579 5.8757109 2.8177305 9.2394531 2.1723008 4.7392461-.9091718 9.4060781-2.2438672 14.1734179-2.9365234 6.8074063-.9884883 13.3800118.1776445 19.5010586 3.3316523.7122735.3673985 1.0949297 1.3506797 1.6305274 2.0486641-.7923164.1790977-1.5952891.5492812-2.3747695.5055664-4.2737618-.2401289-8.5011446-.2423086-12.5295704 1.4416211.6246016-.073625 1.2519883-.1321133 1.8704141-.2401289 6.3586328-1.112125 12.358707-.5138008 17.6014609 3.5903086.7301954.5720469 1.3259766 1.3096289 1.9841211 1.9703164-.1051093.0859766-.2100976.171832-.315207.2579297-.4522852-.214336-.9044492-.4285508-1.3567344-.6428867 1.1101875 1.2640976 2.2593672 2.5057929 3.1044805 3.9223476 4.1066523 6.8861172 6.0608633 14.4915313 7.0503203 22.325086.3876211 3.070332-1.0185195 4.3705156-4.1839101 4.2442148-5.2113907-.2073125-10.1239219.8363945-14.859293 2.8952305-1.0001133.4348476-2.0387344.7984922-3.0848633 1.1152734-3.304043 1.0007188-5.3725664-.2331055-5.2291914-3.6237305.1236367-2.9163007.963543-5.8143164 1.6215664-8.6905351.2354063-1.0282071.8664258-1.9692266 1.3171367-2.9497227-1.1035273.9927266-2.0674336 2.0908047-2.5185078 3.3642266-1.0538789 2.9733359-1.9666836 6.0052812-2.7372031 9.0618086-.6983477 2.7702617-1.508707 3.5789258-4.4391758 3.7043789-6.3533047.2719765-11.7173945-3.7065586-13.2184727-9.8031445-.1457968-.5917852-.30225-1.1813907-.4538593-1.772086-.151125 1.4012969-.2030742 2.7697774-.1371992 4.1330508.0721718 1.4846094-.507625 2.157043-2.057625 1.8713828-.5701094-.1049883-1.150754-.1597226-1.7151719-.2856601-4.9803438-1.112125-9.7641524-.4784415-14.3228477 1.6850195-10.815125 5.1323164-18.23720308 13.5330742-22.62963667 24.2571367-8.76827735 21.40659-6.2039961 41.878215 7.44157417 60.535371 11.2157031 15.335192 26.4658867 24.709301 46.082711 26.001856 18.0375195 1.188293 33.8756132-9.791762 39.0013906-26.799016 3.3234179-11.027645 3.2471289-22.359477 2.9215079-33.70802-.261199 1.037653-.374785 2.092137-.506899 3.144563-.5213081 4.14516-.8290074 8.330039-1.6095777 12.427973-4.9125312 25.793332-26.9236211 37.620437-47.5622343 35.500328-20.9048985-2.147598-39.5164024-21.028535-40.91479299-41.871071-.55509375-8.276394-.16904687-16.463785 1.26155469-24.6100035 1.1747304-6.6909141 2.7545195-13.2678789 6.2291836-19.261293 7.3526914-12.6814219 18.2712304-16.3826523 32.011375-11.0674844 3.4424531 1.331668 7.1693554 1.9683789 10.7847304 2.8473985 1.118543.2719765 2.3200352.2019843 3.4506875.4396914 2.4311993.5108945 3.0350938 2.2229179 1.3635157 3.9782929-1.0519414 1.1041329-2.3848203 1.9504571-3.4437852 3.0497461-2.3808242 2.4716446-5.028418 4.7960391-6.9190547 7.6011758-3.5451406 5.2600703-7.4879531 10.0109414-13.1799648 13.1134844-3.2615391 1.7774141-5.3904883 4.4579453-6.0284102 7.9683318-.5716836 3.144078-.6507578 6.388906-.7460586 9.594985-.0441992 1.484609.3890742 2.982902.6092227 4.497906-.512711.227051-.9143789.408086-1.3185899.583066-5.0411328 2.181746-7.0790195 7.543414-4.5803711 12.360403 2.6433555 5.096836 7.6939336 7.135691 12.5602071 9.623199 2.1278594-4.424039 4.1544844-8.533477 4.0250351-13.266305-.1208515-4.407691-3.7307773-8.861762-7.6612382-8.986246-2.2041485-.069508-2.7929063-.957246-2.7939961-2.796781 0-.569383-.0845235-1.138403-.0969961-1.708633-.140711-6.521262 1.4061406-12.532961 7.0838632-16.4373867 5.0881172-3.499004 9.2022774-7.7130665 12.4339063-12.837754 2.3127695-3.667082 5.3052383-6.6823164 8.8759297-9.168371 2.3157969-1.6123633 4.5886055-3.2874532 6.9454531-4.839754 4.5088047-2.9698242 9.350375-5.0431914 14.8815742-5.3828593 14.4062816-.8843477 25.4336836 10.2717773 23.6786716 24.282082-.556183 4.4388125-1.730066 8.8141719-2.792543 13.1785117-1.966441 8.0831293-2.046363 16.3218633-2.351398 24.5506683-.298375 8.048254-.79607 16.078465-3.107992 23.874843-5.2466292 17.693493-18.077844 26.917204-36.8432581 26.601149-10.0585313-.169652-19.2258125-3.338434-28.0560898-7.737285-1.0065313-.501328-2.0026485-1.022516-3.0033672-1.534379-.1008711.161176-.2015.322836-.3023711.484012 2.8980156 2.067433 5.7115078 4.2625 8.7101523 6.17796 9.1115781 5.820735 18.8844492 9.885247 29.9458789 10.236418 13.0738867.414625 23.9454414-3.91823 31.686965-14.579808 5.047793-6.952356 7.285-14.968156 7.876422-23.342637.588636-8.338031.714695-16.711301.884832-25.072582.175586-8.643793.941019-17.172668 3.314578-25.5559882 2.607996-9.2101484 1.920426-18.114414-3.813848-26.1713867-2.064527-2.9001953-4.427672-5.6088203-6.793844-8.2862031-4.256082-4.8157774-7.3364644-10.204086-9.0782769-16.3701797-1.2390312-4.3856524-2.6037578-8.7461172-4.139832-13.0392539-3.0691211-8.5803399-8.9092305-14.6778946-17.4421015-18.3145821-3.6053243-1.53667964-7.1481641-3.22024605-10.6673907-4.93989839-1.0762812-.52603125-2.3246367-1.20803125-2.8584179-2.16116016-.4840118-.86424609-.1023243-2.19506641-.1023243-3.12325-.2770625.68962891-.64325 1.60025391-1.1618945 2.89123438-1.6588633-1.46063282-3.1037539-2.73260157-4.7723047-4.20195313.284086.60026172.4321836.98630859.6394961 1.33893359zm8.4266719 19.92621871.0473476.0501329c.0612735-.0263985.1227891-.0525547.1841836-.0782266-.0771367.009082-.1543945.0184062-.2315312.0280937zm18.4958594 4.1870586c.5065351.2401289 1.0130703.4802579 1.5197265.7203868-.3258633-.3709102-.6482148-.7438789-.9585781-1.1236289-.1872109.1342929-.3740586.2689492-.5611484.4032421z" fill="#fff" fill-rule="evenodd"/></mask><mask id="c" fill="#fff"><path d="m51.7879219.31375391c-.5685352 1.20464062-1.1321055 2.41194531-1.6979766 3.61767578-3.202082 6.82339061-7.6855781 12.58830081-14.3148555 16.54637111-8.141375 4.8610664-16.9992617 5.0603867-26.04448042 3.6598164-3.22085157-.4986641-6.39120704-1.311082-9.73060938-2.0110039 13.881582 7.325082 37.9575625 11.1268203 52.3110469-8.0405039.2195429.244125.4513164.4567656.6288398.7062187 4.2009844 5.9070742 10.0541719 9.5734297 16.9089258 11.7469414 12.2947695 3.8987344 23.6136445.3107266 34.6824605-4.648789-2.747859.6465195-5.4757378 1.395-8.2472105 1.9195781-7.5591562 1.4302383-15.1052344 1.911707-22.5029727-.8607344-10.1366367-3.7987109-16.3294921-11.3751836-20.6123359-20.77363279-.3230781-.70936719-.6672266-1.40928907-1.0312344-2.17569141-.2619257.23237891-.3258633.26398438-.3495976.31375391z" fill="#fff" fill-rule="evenodd"/></mask><mask id="d" fill="#fff"><path d="m16.5.90275391c-4.501668 1.39584765-7.86504688 4.05773046-9.22359766 8.65711328-.42249609 1.43011721-.47819922 2.96485941-.68720703 4.35356251-2.23975.7292265-4.41459375 1.4370195-6.58919531 2.1449336 1.85382422-.0927578 3.56996484-.5960235 5.29700391-1.0582383 1.08717968-.2905039 1.86629687-.111043 2.53291796 1.0213047 1.36460547 2.3183398 3.66805083 3.3103398 6.30934763 3.4385781 5.2075157.2524805 8.8914297-2.4732187 11.5363594-6.4410976 2.3405-3.5115977 4.1478242-7.36540629 6.3457969-11.34939067-3.3059805-1.03523047-6.4218438-1.66951953-9.4810352-1.66951953-2.0256562 0-4.0269726.27839453-6.0403906.90275391z" fill="#fff" fill-rule="evenodd"/></mask><mask id="e" fill="#fff"><path d="m0 1.72728125c1.09178125 2.37682813 1.99792578 4.54271094 3.07081641 6.62516016.87054296 1.68962109 1.71965234 3.47236329 2.97769531 4.86603129 1.68683594 1.8679921 3.55301172 3.7386484 5.70908598 5.0067421 4.3424218 2.5549571 10.0953437 1.4940547 12.5192773-2.5336445.2455781-.4084492 1.308418-.6176992 1.9049258-.498664 2.0502383.4100234 4.0618476 1.0072578 6.0879883 1.5329257-1.9033516-1.0015664-3.8819024-1.7686953-5.9264493-2.2833437-1.1220546-.2826328-1.6271367-.6180625-1.6064296-1.8493438.0650273-3.91205466-1.8073243-6.92644137-4.9024805-9.22310544-3.2845469-2.4372539-6.7078672-3.37003906-10.27068751-3.37003906-3.08401563 0-6.27265625.6994375-9.56374219 1.72728125z" fill="#fff" fill-rule="evenodd"/></mask><mask id="f" fill="#fff"><path d="m13.3281836.14071094c-4.65411719.81629297-7.40742579 3.90333594-9.23146094 7.86407031-1.47928125 3.21189065-2.67665625 6.54911325-4.09672266 10.07403125 5.56038281.7880781 10.8980742 1.7010039 16.0594531-.8360312 3.2045039-1.5751875 5.4253633-4.0083243 6.3209727-7.49170708 1.3453515-5.23221875-2.3234258-9.75107422-7.4621602-9.75107422-.5163437 0-1.047582.04553125-1.590082.14071094z" fill="#fff" fill-rule="evenodd"/></mask><mask id="g" fill="#fff"><path d="m2.29501278 2.29230469c-2.39983593 2.45372265-2.89668359 5.42669531-1.5886289 8.62441801 1.58402734 3.8720937 4.56717187 6.2877929 8.56241796 7.3588671 4.25438676 1.1407032 8.55854306.6322305 13.35433986-.22475-1.6548672-3.9425703-3.0653672-7.6746796-4.7788437-11.26801558-1.4072305-2.95008594-3.6920274-5.19007813-6.9546563-6.23875-1.09759376-.35286719-2.17508595-.54407422-3.21346486-.54407422-1.98121484 0-3.81978125.69604688-5.38116406 2.29230469z" fill="#fff" fill-rule="evenodd"/></mask><mask id="h" fill="#fff"><path d="m3.10149043 8.08228125c-2.39668749 2.81240235-3.38820312 6.08435545-3.03049218 9.69549215.27524609 2.7724414 1.3793789 5.2163555 4.17313281 6.3643243 2.73429687 1.1231445 5.15714062.0767734 7.36201564-1.551211 1.9875117-1.4677773 3.1273672-3.4883476 3.7723125-5.8012383 1.5805156-5.6697304.3828984-11.12306637-1.3511641-16.7896484-4.18923826 2.27753125-7.98056248 4.62662891-10.92580467 8.08228125z" fill="#fff" fill-rule="evenodd"/></mask><mask id="i" fill="#fff"><path d="m.31416953 9.78389062c-.76240625 3.70849608-.18878516 7.18873048 2.28939843 10.02062888 2.40564844 2.7496758 5.25595313 5.1249297 8.17285934 7.9154141.7143321-3.1125938 1.277418-5.5126719 1.8149531-7.9184414 1.7673633-7.9081485-3.16308978-16.96511329-10.54678119-19.8014922-.56357031 3.2259375-1.06005468 6.52210937-1.73042968 9.78389062z" fill="#fff" fill-rule="evenodd"/></mask><mask id="j" fill="#fff"><path d="m.0104929 14.0353711c-.14652344 4.3943711 1.27790234 8.8397226 1.99949999 13.2621875.28372266.0845234.56744532.1689258.85116797.2529648 2.31652344-2.2524648 4.80051953-4.3650664 6.90864063-6.7925117 2.81567191-3.2430117 3.50554301-7.0420859 2.31337501-11.21691404-.8824102-3.08970703-1.5007149-6.25207032-2.27426173-9.54109766-4.95055469 3.4468125-9.58335937 7.57538281-9.79842187 14.0353711z" fill="#fff" fill-rule="evenodd"/></mask><mask id="k" fill="#fff"><path d="m6.66863281 2.84800391c-3.4835039 3.04720312-5.2060625 7.08810156-6.66863281 11.48138279 4.87220703 1.2874688 9.6041875 1.8306953 14.2954805.0056914 2.9730937-1.1563242 4.9602422-3.3476367 5.839625-6.40271091 1.0403164-3.61307422-1.0209414-7.01278125-4.7719414-7.74842578-.6342891-.12448438-1.2507774-.18394141-1.8510391-.18394141-2.5728789 0-4.83854297 1.09371875-6.84349219 2.84800391z" fill="#fff" fill-rule="evenodd"/></mask><mask id="l" fill="#fff"><path d="m.59817654 8.83209375c-.79958203 3.17447265-.95579297 6.37110545.52627344 9.46117575 1.25537891 2.616836 3.72896094 4.1208203 6.64041797 3.9781719 2.73199605-.1341719 4.80282025-1.7333359 5.76757415-4.5521562.8464453-2.4735821.3983984-4.8644571-.6752187-7.1733516-2.0440625-4.39461329-5.53725389-7.5118086-9.62864842-10.5459336-.94646875 3.14141406-1.9065 5.95793359-2.63039844 8.83209375z" fill="#fff" fill-rule="evenodd"/></mask><mask id="m" fill="#fff"><path d="m1.27041285 10.1598867c-1.27753906 2.6636992-1.83360156 5.4414688-.51089453 8.2447891 1.15850391 2.4552969 3.01886719 4.0557929 5.95248438 4.1456445 2.86967968.0881563 5.0083164-1.1719453 5.8269101-3.7796992.6816367-2.1715742 1.238668-4.6165781.9126836-6.8059531-.5902109-3.96569925-1.879375-7.83125394-2.934707-11.964668-3.95758592 2.88578516-7.24043748 5.97694531-9.24647655 10.1598867z" fill="#fff" fill-rule="evenodd"/></mask><mask id="n" fill="#fff"><path d="m2.75204245.65148442c-2.45348047.95555078-3.18403907 2.47963672-2.51814454 4.9736836 1.3254922 4.96581248 6.08810938 8.46844918 11.31076169 8.33233978 3.8773008-.1008711 7.3526914-1.5298984 10.837043-3.0117226-2.2883086-4.32789062-7.8228984-8.99678125-12.2443945-10.32844921-1.27899221-.38507813-2.5676719-.61733599-3.85392971-.61733599-1.18260157 0-2.36326563.1965352-3.53133594.65148442z" fill="#fff" fill-rule="evenodd"/></mask><mask id="o" fill="#fff"><path d="m0 3.71745703c1.50265234 3.82753125 3.86725 7.33149997 6.18922266 9.22346877 1.90771093 1.5544805 4.06850784 2.4990117 6.57878124 2.1730273 3.8161484-.4952734 6.4574453-3.474664 6.457082-7.10832419 0-3.7800625-2.9741836-7.24552344-6.8310195-7.84154688-.72075-.11140625-1.424668-.16408203-2.1138125-.16408203-3.74615624 0-7.05843359 1.55787109-10.2802539 3.71745703z" fill="#fff" fill-rule="evenodd"/></mask><mask id="p" fill="#fff"><path d="m8.92436719 0c-.32695313 0-.65753906.01174609-.99139453.03560156-3.49173828.24957422-6.16803125 1.87792188-7.3954375 5.1984336-.35092969.9492539-.53450782 1.88094922-.53753516 2.78285547v.04480468c.0058125 1.76736328.7071875 3.41847659 2.2029375 4.85912889 3.03896875 2.9273203 8.1050469 2.9786641 11.2685-.3696992 2.3586641-2.4962266 4.0616055-5.58908203 6.1790508-8.59002734v-.00024219c-3.623125-2.40492188-6.9582891-3.96085547-10.72563674-3.96085547-.00024218 0-.00024218 0-.00048437 0z" fill="#fff" fill-rule="evenodd"/></mask><mask id="q" fill="#fff"><path d="m2.58461563 2.14905078c-.44344532.68684375-1.13489063 1.22425781-1.55036328 1.92308985-1.92696485 3.24034765-1.17666797 7.39010937 2.38021875 9.96783207 2.85054687 2.065375 6.20351171 3.4629179 9.333543 5.1565351.2500586-.1634765.5003594-.3269531.750418-.4905508.5725312-2.4496054 1.2573164-4.8793515 1.6944648-7.3518437 1.0697422-6.04742189-3.6962656-12.31692971-10.85448049-10.41273049-.31435938-.44053906-.64651953-.90541797-.67207031-.94138281-.31859766.64736719-.6259336 1.44416406-1.08173047 2.14905078z" fill="#fff" fill-rule="evenodd"/></mask><mask id="r" fill="#fff"><path d="m2.51150644 6.79033203c-1.18647656 1.46353906-1.98484765 3.42549997-2.36932031 5.27787107-.71929687 3.4663086 1.34692578 5.6116055 4.9211289 5.5803633 2.78394532-.0239766 5.14781637-1.0931133 7.18376557-2.8724648 4.4838594-3.9189571 4.5981719-9.03298832 4.0718985-14.7761016-5.2532891 1.51003906-10.38984375 2.57360547-13.80747266 6.79033203z" fill="#fff" fill-rule="evenodd"/></mask><mask id="s" fill="#fff"><path d="m3.31070312 2.08293359c-2.49598437 2.20729688-3.1618789 5.11366797-3.31070312 9.08917581.20888672 1.0996523.58803125 3.0155976.93096875 4.9375976.18176172 1.0174297.71396875 1.4551836 1.74411328 1.1049805 2.60339453-.8847109 5.39896484-1.4572422 7.73256247-2.7992031 1.7654258-1.0154922 3.3212383-2.8280235 4.2839336-4.63764846 1.4786758-2.77898047.1585117-7.04135938-2.1976094-8.79031641-.9002109-.66831641-2.1362148-.98751953-3.45880073-.98751953-1.99780469 0-4.19275.72862109-5.72446485 2.08293359z" fill="#fff" fill-rule="evenodd"/></mask><mask id="t" fill="#fff"><path d="m.62590507 11.6920859c.80890624 2.6222852 2.46498437 4.5761329 4.98349218 5.759461 4.00372266 1.8813125 8.34735545-.3016446 9.15553515-4.5921172.5789492-3.07299611-.5593321-5.63243361-2.7506445-7.72638673-2.95880471-2.8268125-6.7622383-4.00905078-10.78133987-5.13304297-1.08596874 3.96230859-1.81616406 7.77167578-.60704296 11.6920859z" fill="#fff" fill-rule="evenodd"/></mask><mask id="u" fill="#fff"><path d="m3.08048142 4.33140238c-1.21735547.98316016-2.12507422 2.56851953-2.68440625 4.05433984-1.07507032 2.85430078.06938671 4.84193358 3.05640625 5.65641008 3.7568125 1.0238477 6.92256638-.3238046 9.47207418-2.9159374 3.2506406-3.30464846 6.2842813-6.81418752 9.55575-10.39383986-2.2608203-.45870312-4.4901562-.73237504-6.6698437-.73237504-4.5217617.00024223-8.82603907 1.17896879-12.72998048 4.33140238z" fill="#fff" fill-rule="evenodd"/></mask><mask id="v" fill="#fff"><path d="m8.32253125 1.8334806c-2.82499609 2.06234765-5.47380078 4.35707421-8.32253125 6.64647265 3.53860156 2.81736715 7.285 4.67361335 11.6770703 4.80064065 5.0046836.144586 9.5576875-2.9223555 9.3898516-8.11703518-.0133203-.40760156.5129531-.83167187.8052734-1.24847656-.4406601-.1434961-1.0498828-.186-1.2292226-.4806211-1.455668-2.38869531-3.987375-3.43470312-6.5721211-3.43446102-2.0542344 0-4.14201176.66092977-5.74832035 1.83348056zm13.54966405 2.08160156c.021918.00714453.0434727.01453125.064543.02216015.0014531.00084766-.0457735-.04940625-.0457735-.04940625-.0061757.00908204-.0124726.01816407-.0187695.0272461z" fill="#fff" fill-rule="evenodd"/></mask><mask id="w" fill="#fff"><path d="m0 .66710547c2.93398047 3.32063281 5.72264844 6.44642578 8.47559375 9.60237113 2.39450785 2.7443476 5.26370315 4.4323945 9.08481645 4.0824336 3.824625-.349961 5.505164-2.9463321 3.964125-6.3577852-.5852461-1.29558203-1.4107422-2.63633203-2.4885977-3.54235547-3.8845664-3.26589844-8.2027695-4.45176953-12.71133203-4.45176953-2.07578906 0-4.19226563.25151172-6.32460547.66710547z" fill="#fff" fill-rule="evenodd"/></mask><mask id="x" fill="#fff"><path d="m9.4453125 3.38154297c-.3468125.40469531-1.14603125.63029297-1.7263125.61430859-2.57469531-.0696289-5.14624219-.25792968-7.719-.40324218 2.40964453.56296484 4.82619141.78589843 7.24697656.94598437 1.19640625.07919531 1.56465235.66298828 1.716625 1.79460938.71275782 5.30511717 5.29773044 8.39421877 10.49289454 6.74879687 3.1282148-.9907891 6.0175117-2.7081406 9.1980391-4.18439453-2.5088204-3.60810938-5.5389493-6.40307422-8.1737071-7.72941406-1.5523008-.78153907-3.044539-1.16819141-4.4624258-1.16819141-2.4358007 0-4.6516953 1.14130859-6.5730898 3.38154297z" fill="#fff" fill-rule="evenodd"/></mask><mask id="y" fill="#fff"><path d="m6.04866942 15.7611992c1.99066016 1.5621094 4.22229688 2.3853047 6.81794138 2.1551055 1.6909531-.1502774 2.757668-.9204336 3.0757812-2.6073906.7143321-3.7880547-.7060976-6.87969926-3.4285273-9.39614847-3.42186716-3.16272657-7.66862497-4.78344532-12.35095699-5.91276563-.88483204 5.21369141 1.94173827 12.6661641 5.88576171 15.7611992z" fill="#fff" fill-rule="evenodd"/></mask><mask id="z" fill="#fff"><path d="m8.79160239 1.05932813c-.84765625.45676562-1.67666407.9474375-2.50773047 1.43399218-4.32292578 2.53098047-6.37679688 6.27071875-6.28064845 11.20662109.07447266 3.8416992.1375625 3.9322774 4.02539845 3.5568867 6.48771878-.626539 10.66157818-4.6013203 10.90691408-10.22116013-.3623125-1.39475781-.579918-2.84558203-1.1155156-4.17301172-.8091484-2.00543359-1.3258555-2.86265625-2.2879454-2.86265625-.642039 0-1.4825507.38192969-2.74047261 1.05932813z" fill="#fff" fill-rule="evenodd"/></mask><mask id="A" fill="#fff"><path d="m1.51562043 1.42600008c-4.10410937 7.14707422.52675782 15.30709772 9.07936717 15.92976172 3.9374844.2863868 4.0211601.2121563 4.1432226-3.5819531-.180914-1.2444805-.2541757-2.5153594-.5623593-3.7287188-1.2626446-4.97053513-5.2253164-7.3988281-9.44603906-9.62247263-.54128906-.28529688-.99442187-.42261727-1.38930859-.42261727-.75235547 0-1.29267578.49926961-1.82488282 1.42600008z" fill="#fff" fill-rule="evenodd"/></mask><mask id="B" fill="#fff"><path d="m0 .16129688c1.05811719 2.53207031 2.11659766 5.06426171 3.20692578 7.67310546-3.55034766 3.80827736-3.71503516 6.92910546-.27669922 11.28085156 1.99635157 2.5268633 4.17725 4.9132578 6.3434961 7.4430273 2.24398824-2.9228398 3.74433984-6.0353125 4.13317184-9.5768203.6118868-5.5700703-2.6155039-9.30944528-8.30787888-9.85000778-.50496093-.04783203-1.13404296-.55303515-1.40032812-1.01525-1.15450781-2.00434375-2.19603516-4.07165625-3.27885547-6.11620312z" fill="#fff" fill-rule="evenodd"/></mask><mask id="C" fill="#fff"><path d="m6.66787514 3.02589063c-1.87392578.70973046-3.69711328 2.12204687-4.96484375 3.67313671-2.28055859 2.79-2.17666015 6.61377736-.24884765 8.36116016 1.96305078 1.7793516 5.43541406 1.6367031 8.36660937-.5834297 4.73428119-3.5864336 6.28924609-8.82446483 7.70749609-14.4767578-3.8816602 1.04419141-7.4841992 1.74750391-10.86041406 3.02589063z" fill="#fff" fill-rule="evenodd"/></mask><mask id="D" fill="#fff"><path d="m15.733832.90432813c-2.6836797 2.13803125-5.1366758 4.55905859-7.63338669 6.9149375-1.06199219 1.00192968-1.88748828 2.25597657-2.9952539 3.19820707-1.5210586 1.2934023-3.41096875 1.260707-5.09429297.158875.24739453.45725.39343359 1.0286914.76507031 1.3449882 2.35684766 2.0049493 5.11548437 3.1540079 8.22941016 3.3773047 9.47667579.6789727 12.35689059-7.64840232 10.20263279-13.85360935-.4757773-1.37078125-.9534922-2.04503125-1.6633437-2.04503125-.4761407 0-1.0567852.30370313-1.810836.90432813zm-15.733832 10.26487497c.00363281.0023008.00726563.0047227.01089844.0071446-.00242188-.0046016-.00496485-.0090821-.00738672-.0135625z" fill="#fff" fill-rule="evenodd"/></mask><mask id="E" fill="#fff"><path d="m.03041521 9.64003125c-.14216406 2.87864065.15621094 5.58000005 2.1449336 7.82410935 1.49260156 1.6846563 3.1773789 3.315668 5.70278906 2.9106094 1.71238672-.2746406 3.17120313-3.1513437 3.25294143-5.8006328.1648086-5.33539064-5.19698049-12.5455547-11.06530471-14.5741172 0 3.35369141.11976172 6.50358203-.03535938 9.64003125z" fill="#fff" fill-rule="evenodd"/></mask><mask id="F" fill="#fff"><path d="m6.53845703.28239063c-4.01801172 1.14155078-6.53651953 4.79846093-6.53845703 10.33111327.16941016.862793.39767188 2.5629492.89064453 4.1852422.1375625.4522852 1.23406641 1.0843945 1.59141406.9367812 2.29908594-.9505859 4.69976954-1.8383242 6.71525391-3.2353828 3.047082-2.1117539 4.0152266-5.91046481 2.8707695-9.35085934-.7042812-2.11732422-1.9095273-3.14928516-3.71794137-3.14928516-.54770704 0-1.15063282.09469531-1.8116836.28239063z" fill="#fff" fill-rule="evenodd"/></mask><mask id="G" fill="#fff"><path d="m0 1.04637114c1.8425625 2.00373828 3.52273828 3.90515234 5.29010156 5.72482812 1.06199219 1.09323438 2.1526836 2.21565235 3.41847656 3.05059375 2.89559378 1.90976949 6.02647268 2.12737499 9.17236718.57931249 2.1491719-1.0575117 2.713832-2.36968358 1.4186133-4.28974608-1.0995313-1.62992187-2.5382461-3.30852344-4.2404609-4.22665625-2.5189922-1.35891407-5.12771489-1.88482422-7.79117192-1.88470317-2.38736328 0-4.81880469.42249614-7.26792578 1.04637114z" fill="#fff" fill-rule="evenodd"/></mask><mask id="H" fill="#fff"><path d="m7.6825343.57761719c-5.35742969 2.17605469-8.64064453 8.79443359-7.43261328 15.14047261 3.60072266-.5842773 7.00442578-1.6580156 9.86744528-3.9494726 2.3712579-1.89717579 3.6254258-4.36991017 3.5040899-7.45731642-.1105586-2.81991015-1.3142305-4.31130078-3.3909883-4.31130078-.74145704 0-1.59407813.19011719-2.5479336.57761719z" fill="#fff" fill-rule="evenodd"/></mask><mask id="I" fill="#fff"><path d="m2.00412802 1.007379c-1.93398828.81932031-2.35527343 1.83566016-1.74411328 3.78987109.97904297 3.12930469 4.37971875 5.74129691 7.71125 6.08895701 4.57419536.4773516 8.02258206-1.71238669 11.77588286-4.69904294-3.2881797-1.90528907-6.2559453-3.91362891-9.4740118-5.39932813-1.17945309-.5444375-2.41485153-.78795703-3.66357028-.78783603-1.54273437 0-3.10557031.371879-4.6054375 1.007379z" fill="#fff" fill-rule="evenodd"/></mask><mask id="J" fill="#fff"><path d="m12.8578555.04201953c-4.97961722.41571485-8.5294805 3.56742188-12.8578555 6.84991016 3.03460937 1.37538281 5.47573828 2.87367578 8.13568359 3.60253911 4.95370311 1.3570976 10.30108201-1.78698052 11.40097661-6.30607817.5077461-2.08523438-.0107774-3.21600782-2.1096954-3.74203907-1.1361015-.28493359-2.3498242-.44635156-3.5390859-.44635156-.346207 0-.6904766.01368359-1.0300234.04201953z" fill="#fff" fill-rule="evenodd"/></mask><mask id="K" fill="#fff"><path d="m.62293457 1.94198064c-1.29836719 1.35491797-.43714844 5.37728906 1.38482812 7.24794531 2.99755468 3.07638665 10.26705471 4.07250385 14.39707811 1.71505075-.8011562-1.67630075-1.4956289-3.44112106-2.450332-5.05808591-1.6692773-2.82693359-4.02927346-4.9326328-7.37594143-5.66367577-.55267187-.12073047-1.08839062-.18321502-1.60739843-.18321502-1.61466407 0-3.06621485.60474236-4.34823437 1.94198064z" fill="#fff" fill-rule="evenodd"/></mask><mask id="L" fill="#fff"><path d="m1.21067683 3.15606641c-1.26978906 1.7805625-1.60848828 3.75620703-.69108203 5.74093359.88604297 1.9173984 2.68246875 2.58075 4.72229297 2.76675 2.23744922.2039219 4.32922266-.2940156 5.88842583-1.82500391 2.0677968-2.0303789 3.8874726-4.30379296 6.1791718-6.88454296-2.5882578-1.02251563-4.4326367-1.92696485-6.3803086-2.48423829-1.10643356-.31666015-2.1789609-.46996484-3.19445309-.46996484-2.74434766.00012109-5.07189063 1.11939063-6.52404688 3.15606641z" fill="#fff" fill-rule="evenodd"/></mask><mask id="M" fill="#fff"><path d="m4.65553459 3.49512891c-1.64057813 1.41764453-3.11065625 3.20765234-4.1094375 5.11027734-1.19301563 2.27305075-.30539844 5.16537505 1.44561719 6.57539065 1.60110156 1.2890429 4.27424609 1.4232148 6.37025781.2395234 2.11889841-1.1965273 3.46219141-2.9565039 3.85187111-5.3775312.5432265-3.37924222-.7047656-6.44109769-1.6911953-10.0427891-2.18622659 1.26542969-4.26673831 2.11248047-5.86711331 3.49512891z" fill="#fff" fill-rule="evenodd"/></mask><mask id="N" fill="#fff"><path d="m14.0071563 3.30997656c-2.2537969.89573047-4.63038286 1.54503516-7.00478911 2.08366016-2.23708594.50701953-4.54125781.72910547-7.00236719 1.10534375 3.98676953.9590625 12.3279492 1.41825 20.4395352 1.42079297h.1101953c8.8090859-.00181641 17.3243984-.54225782 19.6779765-1.56610547-7.0729648-.68769141-13.9211797-2.19010156-19.6751914-6.35366797-2.3304492 1.19822266-4.3605859 2.44161328-6.5453593 3.30997656z" fill="#fff" fill-rule="evenodd"/></mask><mask id="O" fill="#fff"><path d="m0 3.14916406c1.99126563 3.243375 3.94475 6.22542969 7.33925 7.85075004 3.466793 1.6594687 7.6926016.2986172 8.8967578-2.75657816 1.2236524-3.10302735-.9371445-6.77652735-4.6601719-7.90960156-.3050351-.09287891-.6275078-.13283985-.9438046-.18454688-.6206055-.10159766-1.22522661-.1491875-1.81664849-.1491875-3.1851289 0-5.98530078 1.38058984-8.81538281 3.14916406z" fill="#fff" fill-rule="evenodd"/></mask><mask id="P" fill="#fff"><path d="m0 .16941016c1.44404297 2.74010937 2.92041797 5.53083593 4.38734766 8.32616406 2.11151171 4.02273438 5.50322656 5.88007028 10.12973434 5.46883598 1.3222227-.1177032 2.6314883-.380961 3.9462032-.5805235-1.4417422-.1114062-1.5426133-1.2353984-1.8040547-2.2793476-.3053985-1.21832426-.4936993-2.51426957-1.064293-3.61053129-2.1739961-4.17821875-8.69235156-7.49425-13.73626953-7.49400781-.64785156 0-1.27184766.05473438-1.85866797.16941016zm18.4632852 13.21447654c.0144101.001211.0289414.0021797.0435937.0031485.00775-.0049649.0112617-.0113829.0112617-.0113829-.0182851.0027852-.0365703.0055704-.0548554.0082344z" fill="#fff" fill-rule="evenodd"/></mask><mask id="Q" fill="#fff"><path d="m9.4220625.00121094c-2.48787109.04746875-4.47962109 1.13271094-5.95866016 3.04514453-2.07469921 2.68307422-2.93083203 5.82267187-3.46340234 9.23981643 3.39328906.8049101 6.58810547.7310429 9.70191016-.6237539 2.31228514-1.0065313 3.80476564-2.75996878 4.61064454-5.08545316 1.1815117-3.41133203-1.1293203-6.57696484-4.76988282-6.57696484-.03996094 0-.08028516.00036328-.12060938.00121094z" fill="#fff" fill-rule="evenodd"/></mask><mask id="R" fill="#fff"><path d="m7.33727657 3.73392578c-5.40405078 1.96910547-8.02597266 6.21889063-7.18182813 12.00160152 4.8070586.5176758 8.81550391-.638164 11.21146486-5.1623476 1.126414-2.12689064 2.310832-4.22847267 3.3323789-6.40343751.6338046-1.34874219 1.0104062-2.81349219 1.482914-4.16974219-3.1009687 1.32004297-5.9195468 2.66805859-8.84492963 3.73392578z" fill="#fff" fill-rule="evenodd"/></mask><mask id="S" fill="#fff"><path d="m5.45574872 19.9725977c5.02962888-5.4167657 5.22616408-13.16833989.50653516-19.9725977-7.71972656 4.73052734-8.00066406 15.8049141-.50653516 19.9725977z" fill="#fff" fill-rule="evenodd"/></mask><mask id="T" fill="#fff"><path d="m3.30032077 2.34001569c-1.21650782.76906641-2.11344922 2.18634766-2.85720703 3.47308985-.87744531 1.51924218-.42673438 2.86653125 1.13016796 3.90672656 2.94948047 1.971043 6.64429297 1.6922852 9.5310469-1.07979297 2.5241992-2.42490234 4.8470195-5.05203125 7.4542891-7.79565235-2.3000547-.50048047-4.5515508-.84450781-6.7429844-.84438678-2.95771488 0-5.80596097.62653913-8.51531253 2.34001569z" fill="#fff" fill-rule="evenodd"/></mask><mask id="U" fill="#fff"><path d="m0 3.43034375c2.2843125 1.58196875 4.43978125 3.29701953 6.80389453 4.66368359 4.28235937 2.47539846 9.43223437 1.85697266 13.36221097-1.4316914-2.8917188-4.41786328-6.6344844-6.66257813-10.79901956-6.66233594-2.96086328.00012109-6.13521485 1.13489063-9.36708594 3.43034375z" fill="#fff" fill-rule="evenodd"/></mask><mask id="V" fill="#fff"><path d="m4.08584088.089125c-2.66842187.66746875-4.50166016 3.96291406-4.00432813 7.17323047.69108204 4.46206253 3.43773047 7.59100393 6.94569532 10.18773833.94816406-3.2700157 1.94185937-6.3890274 2.74374219-9.55441802.74266794-2.93107422-.61394532-6.08919922-3.19142579-7.49739844-.47299218-.25865625-1.11127734-.39827734-1.71275-.39827734-.27427734 0-.54104687.0290625-.78093359.089125z" fill="#fff" fill-rule="evenodd"/></mask><mask id="W" fill="#fff"><path d="m2.0773954 1.76627346c-1.07083204 1.53280469-1.87792188 3.49694531-2.04297266 5.33345313-.37127344 4.13183981 2.32790625 7.15845701 4.85828125 10.95910541 1.71044922-3.3460625 3.49403906-6.1356992 4.57504297-9.16728119.88991794-2.49441016.38604687-5.14781641-1.61696485-7.25315235-1.0209414-1.073375-2.04515234-1.63839846-3.0225-1.63839846-.98110156 0-1.91509765.56962502-2.75088671 1.76627346z" fill="#fff" fill-rule="evenodd"/></mask><mask id="X" fill="#fff"><path d="m.28132673 1.71807813c-.51271094 2.49247265-.39839844 4.90260156.96317969 7.13823437 2.29448437 3.7679531 6.10821094 5.1516914 10.03830858 6.3407109.2387969-.1543945.4774727-.308789.7162695-.4633046-1.1562031-3.5670586-2.09249996-7.22348442-3.54635152-10.66993364-.95264453-2.25936719-2.95723047-3.77098047-5.66416015-4.04029297-.15536329-.0155-.30382422-.02349219-.445625-.02349219-1.11333594 0-1.80950391.49200391-2.0616211 1.71807813z" fill="#fff" fill-rule="evenodd"/></mask><mask id="Y" fill="#fff"><path d="m.24762405 10.2527656c.38532031 1.8827657 1.41582813 3.8390352 2.70462891 5.2950664 1.74823047 1.9752813 4.19311328 1.465961 5.49111719-.795707 1.48836328-2.593707 1.54878906-5.35258594-.14688672-7.74430859-1.70027735-2.39814063-3.89158985-4.46121485-6.16863672-7.00781641-1.83953516 3.72230078-2.55035547 6.97742188-1.88022266 10.2527656z" fill="#fff" fill-rule="evenodd"/></mask><mask id="Z" fill="#fff"><path d="m1.51331046 1.12423438c-1.33554297 1.13077343-1.73708984 2.63851171-1.40032812 4.29434765.52905859 2.60121485 2.94403124 4.86784767 5.63618749 4.97053517 2.66539453.1015976 5.34471487-.149793 8.38998047-.2597461-1.4003282-4.36167579-3.2786133-7.83670313-7.36480078-9.62101954-.74957031-.3273164-1.51754687-.50835156-2.27438281-.50835156-1.04334375 0-2.06513281.34426953-2.98665625 1.12423438z" fill="#fff" fill-rule="evenodd"/></mask><mask id="aa" fill="#fff"><path d="m.11048722 6.82145313c-.41716797 2.63318359.33833594 5.02345317 2.41388281 6.86674217 2.84751953 2.529043 6.5062461 1.5283242 7.15458203-2.1289492.27645704-1.559082-.0155-3.41072657-.64216015-4.88698047-1.28904297-3.03485157-3.98010938-4.85416407-7.27567578-6.67226563-.60885938 2.45675-1.30066797 4.61306641-1.65062891 6.82145313z" fill="#fff" fill-rule="evenodd"/></mask><mask id="ab" fill="#fff"><path d="m2.45408829.00157422c-1.46571876.02567187-2.04442579.67122266-2.31640235 1.96026562-.61588282 2.91811719.85685937 6.05916797 3.96763672 7.73474219 2.7978711 1.50652737 5.72264844 2.78721487 8.72976944 4.23416407-.39525-3.7953203-1.3185898-7.30485938-3.53884366-10.34818751-1.6176914-2.2165-3.75596484-3.58255859-6.67614062-3.58255859-.05509766 0-.1104375.00048438-.16601953.00157422z" fill="#fff" fill-rule="evenodd"/></mask><mask id="ac" fill="#fff"><path d="m3.77825997 17.8074414c5.05820703-7.5578242 6.15471094-8.4376914 2.96800781-17.8074414-7.6240625 4.49621094-9.02899218 12.9266367-2.96800781 17.8074414z" fill="#fff" fill-rule="evenodd"/></mask><mask id="ad" fill="#fff"><path d="m.04125304 8.05697266c-.3933125 3.64310544 2.0635586 6.07357814 5.75607032 6.45817184.60425781.0627266 1.16467968.5309961 1.3425664.6169727 1.8135-2.2970274 3.75608594-4.8006406 2.2689336-8.00139064-1.39378907-2.9991289-4.0863086-4.77932812-7.20822657-7.13072656-.83373046 2.99307422-1.88167578 5.48494141-2.15934375 8.05697266z" fill="#fff" fill-rule="evenodd"/></mask><mask id="ae" fill="#fff"><path d="m2.30882075 4.90938281c-1.03062891 1.30115235-1.76167188 2.9470586-2.20269532 4.55179297-.51852344 1.88433982.94525781 4.47841012 2.6041211 5.33611722 1.33990234.6930195 3.6366875.2039218 4.99899219-1.0716797 1.56622656-1.4668086 2.26154687-3.3390391 1.87901172-5.35488674-.49830079-2.63027734-1.33857032-5.19807031-2.18634766-8.37072656-2.03485938 1.92078906-3.77921484 3.25100391-5.09308203 4.90938281z" fill="#fff" fill-rule="evenodd"/></mask><mask id="af" fill="#fff"><path d="m0 7.73740625c4.49173047 2.90564455 10.511543.94101953 15.5961484-5.16682813-2.110664-1.74665624-4.3862578-2.57069921-6.54899215-2.57057812-3.97417578.00024219-7.56654297 2.78321875-9.04715625 7.73740625z" fill="#fff" fill-rule="evenodd"/></mask><mask id="ag" fill="#fff"><path d="m.1801658 7.04123828c-.35698438 2.91278906-.07326172 5.90101952-.07326172 8.74466402 7.77409766-3.0140234 10.15262112-9.06532027 6.13848438-15.7859023-3.19324219 1.38833984-5.63727735 3.5514375-6.06522266 7.04123828z" fill="#fff" fill-rule="evenodd"/></mask><mask id="ah" fill="#fff"><path d="m.54227836 1.71020703c-.98061719 2.561375-.63210938 5.056875 1.05230469 7.16148438 1.77511328 2.21795309 3.84363672 4.20958199 6.12177344 6.66439449 1.02820703-3.5876445 1.54455078-6.75303512.74375781-9.94579293-.61309766-2.44464063-2.21310938-4.23428516-4.65290625-5.19734375-.64494531-.25441797-1.14905859-.39294922-1.56101953-.39294922-.79498047 0-1.24666016.51598047-1.70391016 1.71020703z" fill="#fff" fill-rule="evenodd"/></mask><mask id="ai" fill="#fff"><path d="m8.9144375.03281641c-2.96195312.27573047-5.08969141 1.93641015-6.29312109 4.45588672-1.10740235 2.31797656-1.76542578 4.84241796-2.62131641 7.27603907.18067188.1883008.36122266.3764805.54189453.5649023 1.78867578-.6208476 3.67035156-1.0621132 5.34628906-1.8999609 3.30791797-1.65426172 5.38273831-4.27569922 5.54742581-8.06641797.0747148-1.71166016-.392586-2.36326563-1.88107034-2.36326563-.19532422 0-.40844922.01126172-.64010156.03281641z" fill="#fff" fill-rule="evenodd"/></mask><mask id="aj" fill="#fff"><path d="m1.44591615 15.5497695c.78904688-.5770117 1.58669141-.9603945 2.09952344-1.5736132 1.36073047-1.6271368 3.30840234-3.2034141 3.72-5.07552349.62944531-2.86338281.16505078-5.95805468.16505078-8.90063281-7.22554297 3.03073438-9.09523047 9.43005469-5.98457422 15.5497695z" fill="#fff" fill-rule="evenodd"/></mask><mask id="ak" fill="#fff"><path d="m3.96884766.24364063c-1.23455078.33579296-2.48823438.60510546-3.96884766.96112109 1.25998047 3.51377734 3.07420703 6.14671875 6.83344141 6.80740625 1.85261328.32525781 3.43433989-.22026953 4.44280859-1.92732813.913168-1.54539843-.1395-2.63633203-.9783164-3.66708203-1.24472266-1.52941406-2.76420704-2.4178789-4.60071485-2.41775781-.54746484 0-1.12350781.07907422-1.72837109.24364063z" fill="#fff" fill-rule="evenodd"/></mask><mask id="al" fill="#fff"><path d="m1.32419472.44392969c-1.31435157.9589414-1.73248829 3.27267968-.8797461 5.04973047.21736328.45264843.46233594.94634765.83373047 1.2650664 1.48242969 1.2730586 3.01959375 2.48460156 4.67676172 3.83261714 2.34074219-3.94935151 2.24689453-6.77204683.00169531-8.98733589-1.06417187-1.04976172-2.2183164-1.60400781-3.22763281-1.60400781-.51670703 0-.99551172.1453125-1.40480859.44392969z" fill="#fff" fill-rule="evenodd"/></mask><mask id="am" fill="#fff"><path d="m3.4571402.00084766c-1.80417578.04795312-3.49827734 2.07675781-3.4563789 4.13983203.03596484 1.77741406 2.16999999 4.67591406 3.4311914 4.66041823 1.14917969-.01417214 3.26577734-3.32984011 3.22036719-5.04416433-.05497657-2.0633164-1.47346875-3.75705468-3.13039454-3.75693359-.02155468 0-.04323046.00024219-.06478515.00084766z" fill="#fff" fill-rule="evenodd"/></mask><mask id="an" fill="#fff"><path d="m3.59054718 11.2824258c2.85369531-5.82945314 2.14796093-9.3643008-2.11114844-11.2824258-3.14952735 4.38976953-.71009375 7.80207031 2.11114844 11.2824258z" fill="#fff" fill-rule="evenodd"/></mask><mask id="ao" fill="#fff"><path d="m1.24566117 8.09911328c-1.61115234 2.91133592-1.65147656 6.25098042-.16698828 8.58021872 2.66575781-5.3166211 5.28223047-10.72975388 1.52311719-16.679332.74375781 3.66938281.60655859 4.55227734-1.35612891 8.09911328z" fill="#fff" fill-rule="evenodd"/></mask><mask id="ap" fill="#fff"><path d="m.00206271 4.64140234c-.04032422 1.28553125.50968359 1.67169922 1.72897656 1.57094922 3.10762891-.25635547 4.85707032-2.45977734 4.67179688-6.07636328-.61503516-.09069922-1.18369141-.13598828-1.70790625-.13598828-3.07239063.00024219-4.5958711 1.55714453-4.69286719 4.64140234z" fill="#fff" fill-rule="evenodd"/></mask><mask id="aq" fill="#fff"><path d="m4.46142442 6.20278516c.43484766-4.42876172-.44574609-5.69225391-4.21309375-6.20278516-.83021875 3.65497266.38338281 5.48336719 4.21309375 6.20278516z" fill="#fff" fill-rule="evenodd"/></mask><mask id="ar" fill="#fff"><path d="m.55607151 5.83865625c3.78430078-1.34232422 4.75910547-2.82766016 3.82571484-5.828-.11189062-.00714453-.22160156-.01065625-.33010156-.01065625-3.29798828.00024219-5.00904297 3.27013672-3.49561328 5.83865625z" fill="#fff" fill-rule="evenodd"/></mask><mask id="as" fill="#fff"><path d="m.75518882.08864063c-1.07289063.91619531-.97565235 2.39886718.12048828 3.51414062.74920703.76264844 1.61151563 1.41837109 2.40794922 2.10836328 1.35770313-1.03910547 1.701125-3.49367578.45119531-4.56366015-.64385547-.55061329-1.97273828-1.14748438-2.64844141-1.14748438-.14482812 0-.259625.02748828-.3311914.08864063z" fill="#fff" fill-rule="evenodd"/></mask><mask id="at" fill="#fff"><path d="m2.57505859.23891797c-1.5828164.67400781-2.42853515 1.75997656-2.57505859 4.12663281.21978516.23431641.74073047 1.28226172 1.33094141 1.321375 1.4258789.0950586 3.41847656-2.86980078 3.20571484-4.39667187-.12000391-.86061328-.42298047-1.29025391-1.01936719-1.29025391-.25671875 0-.56792969.07967969-.94223047.23891797z" fill="#fff" fill-rule="evenodd"/></mask><mask id="au" fill="#fff"><path d="m.29710435.99357422c-.83675781 2.23962891.09118359 3.97139062 2.81894141 5.02163672 1.30139453-2.600125 1.01779297-4.45721875-.81048047-5.61875-.39403906-.25054297-.72946875-.39646094-1.01900391-.39646094-.40953906 0-.72741016.29219922-.98945703.99357422z" fill="#fff" fill-rule="evenodd"/></mask><mask id="av" fill="#fff"><path d="m.00137228 3.31409375c-.0368125 1.08839063.67521875 2.20051563 1.14917968 3.59030859 2.30962109-2.25282812 2.96849219-4.31529687 1.91655078-6.90440234-1.55569141.68611719-3.00724218 1.55992969-3.06573046 3.31409375z" fill="#fff" fill-rule="evenodd"/></mask><mask id="aw" fill="#fff"><path d="m2.04369922 3.90951172c.17982422.30455078.85455859.64845703 1.07470703.53801953.37091016-.186.69919531-.68841797.80236719-1.11442578.44332422-1.83759766-.78529297-2.96195313-3.92077344-3.33310547.73867188 1.44041016 1.33360547 2.70741406 2.04369922 3.90951172z" fill="#fff" fill-rule="evenodd"/></mask><mask id="ax" fill="#fff"><path d="m3.00682877 3.84472656c.59578125-2.47358203.0406875-3.19542187-2.95444531-3.84472656-.26204688 2.81276562.41898437 3.69905078 2.95444531 3.84472656z" fill="#fff" fill-rule="evenodd"/></mask><mask id="ay" fill="#fff"><path d="m2.69359401 3.84811719c.44913672-2.64044922-.0853711-3.39316797-2.63015625-3.84811719-.2150625 2.65074219-.00859766 2.96691797 2.63015625 3.84811719z" fill="#fff" fill-rule="evenodd"/></mask><mask id="az" fill="#fff"><path d="m.61160253 14.083082c1.63985156-1.1285937 3.26686718-2.2300625 4.87148046-3.3620468.57241016-.4036055 1.10812891-.86267192 1.63210157-1.32755082 2.96728124-2.6331836 3.24676564-7.00055079.19302343-9.39348438-5.67336328 1.73491016-8.6818164 8.03977734-6.69660546 14.083082zm4.04828515 8.1188516c-1.72122656.7082773-2.11272265 2.3943867-2.27632031 4.0999922-.24836328 2.5974609.66553125 4.7979765 2.14214844 6.900164 2.02396093 2.881668 3.92004687 5.8500391 5.97767189 8.9416836 2.1696367-2.4537226 3.6382617-5.4233046 3.8622851-8.8701171.2705235-4.1630821-1.0977148-7.7203321-4.58545699-10.2953907-.99999219-.7383086-2.12095703-1.1491797-3.26383985-1.1491797-.61769922 0-1.24145312.1198829-1.85648828.3728477z" fill="#fff" fill-rule="evenodd"/></mask><mask id="aA" fill="#fff"><path d="m2.31691987.37284768c-1.72134765.70779297-2.11272265 2.39438672-2.27632031 4.09950781-.24848438 2.59794532.66553125 4.79797657 2.14214844 6.90016411 2.02396094 2.8820312 3.92004687 5.8504023 5.97767187 8.9420468 2.16963673-2.4540859 3.63862503-5.423668 3.86216403-8.8701172.2705235-4.16308199-1.0975937-7.72021089-4.58545699-10.29539058-.99999219-.73830859-2.12059375-1.14905862-3.26359766-1.14905862-.61745703 0-1.24169531.11988284-1.85660938.37284768z" fill="#fff" fill-rule="evenodd"/></mask><mask id="aB" fill="#fff"><path d="m.61160253 14.083082c1.63985156-1.1285937 3.26686718-2.2300625 4.87148046-3.3620468.57241016-.4036055 1.10812891-.86267192 1.63210157-1.32755083 2.96728124-2.63318359 3.24676564-7.00055078.19302343-9.39348437-5.67336328 1.73491016-8.6818164 8.03977734-6.69660546 14.083082z" fill="#fff" fill-rule="evenodd"/></mask><mask id="aC" fill="#fff"><path d="m.98167589 6.67032813c3.43397656-.77354688 4.27485156-4.56583985 2.02686718-6.67032813-3.25209375 2.35503125-3.76855859 4.05506641-2.02686718 6.67032813z" fill="#fff" fill-rule="evenodd"/></mask><g fill="none" fill-rule="nonzero" transform="translate(0 .52)"><path d="m37.8322754 94.6034851 23.4552002-91.52340698h12.3304443l-1.355133 23.61984258-25.1484833 94.3957823h-12.8142395zm-17.6243286-91.52340698 19.0896454 90.79518128 1.6616211 27.2204436h-13.6564484l-27.3027649-118.01562488zm80.1212922 90.53555298 18.773025-90.53555298h20.229477l-27.250839 118.01562488h-13.6273192zm-21.9126283-90.53555298 23.2525633 91.76150518 3.443558 26.2541197h-12.8142396l-24.793869-94.4553069-1.2867432-23.56031798zm93.6935993 30.31445308v87.7011718h-19.60257v-87.7011718zm-20.915909-23.0245971c0-2.96778363.986165-5.43805188 2.958496-7.41080477s4.705393-2.95912933 8.199188-2.95912933c3.459178 0 6.192029.98637644 8.198555 2.95912933s3.009789 4.44302114 3.009789 7.41080477c0 2.8993937-1.003263 5.3270238-3.009789 7.2828903s-4.739377 2.9337997-8.198555 2.9337997c-3.493795 0-6.226857-.9779332-8.199188-2.9337997s-2.958496-4.3834966-2.958496-7.2828903zm90.249022 86.9564819c0-1.9233602-.48274-3.6780675-1.448219-5.264122-.96548-1.5860545-2.819184-3.0399729-5.561112-4.3617554-2.741928-1.3217824-6.765744-2.5200831-12.071449-3.594902-4.644603-.9870097-8.895963-2.20283-12.754082-3.6474609-3.858119-1.444631-7.166585-3.1965943-9.9254-5.2558899-2.758814-2.0592957-4.89241-4.4894588-6.400787-7.2904892-1.508377-2.8010305-2.262566-6.0514501-2.262566-9.7512589 0-3.5571187.779941-6.9204661 2.339821-10.0900421 1.559881-3.169576 3.807882-5.9777832 6.744004-8.4246216 2.936121-2.4468384 6.492818-4.3706207 10.670089-5.771347 4.177272-1.4007263 8.873589-2.1010895 14.088951-2.1010895 7.342204 0 13.637874 1.2278519 18.887009 3.6835556s9.282028 5.7804235 12.098679 9.9741592c2.81665 4.1937358 4.224975 8.9122162 4.224975 14.1554413h-19.521515c0-2.3522745-.586802-4.5426508-1.760406-6.5711288s-2.921346-3.6751124-5.243225-4.9399033c-2.321879-1.2647908-5.227183-1.8971863-8.715912-1.8971863-3.32662 0-6.084801.530655-8.274544 1.5919648s-3.820757 2.4356511-4.893043 4.123024c-1.072286 1.6873728-1.608429 3.5222905-1.608429 5.5047531 0 1.4623616.283691 2.7689463.851074 3.919754s1.530963 2.2034632 2.890739 3.1579666c1.359777.9545034 3.214536 1.8363953 5.564278 2.6456757s5.300217 1.5938644 8.851425 2.3537521c6.710653 1.4226786 12.478834 3.2191798 17.304543 5.3895035s8.547048 4.9730428 11.164016 8.4081573c2.616969 3.4351146 3.925454 7.781039 3.925454 13.0377732 0 3.8568525-.831866 7.3941295-2.495598 10.6118315s-4.059489 6.00459-7.187271 8.360664c-3.127783 2.356075-6.862842 4.184027-11.205178 5.483857s-9.219126 1.949745-14.630371 1.949745c-7.965311 0-14.702349-1.422679-20.211113-4.268036-5.508763-2.845357-9.675692-6.49113-12.500786-10.937317-2.825093-4.446187-4.23764-9.0713704-4.23764-13.8755492h18.887009c.176463 3.5908915 1.171704 6.4645332 2.985725 8.6209262 1.814021 2.156392 4.089673 3.699808 6.826958 4.630249 2.737284.93044 5.576309 1.39566 8.517074 1.39566 3.511526 0 6.45018-.470919 8.815964-1.412758 2.365784-.941838 4.16904-2.234281 5.409767-3.877327 1.240728-1.643046 1.861092-3.5317889 1.861092-5.666229zm73.657072 25.390381c-6.483531 0-12.321579-1.069964-17.514145-3.209892-5.192566-2.139929-9.618067-5.130931-13.276504-8.973008-3.658437-3.842076-6.45799-8.346944-8.398659-13.5146023-1.940669-5.1676584-2.911003-10.7521998-2.911003-16.7536239v-3.2852478c0-6.8744507.993975-13.0882213 2.981926-18.6413117 1.98795-5.5530904 4.772306-10.3146311 8.353065-14.2846222 3.58076-3.969991 7.79687-7.0093307 12.648331-9.1180191 4.851461-2.1086883 10.12297-3.1630325 15.814529-3.1630325 6.247966 0 11.719579 1.0509669 16.414841 3.1529007s8.59623 5.0597966 11.702904 8.8735886c3.106674 3.8137919 5.436785 8.3429336 6.990333 13.5874252 1.553549 5.2444916 2.330323 11.0261815 2.330323 17.3450699v8.335968h-67.755387v-14.0262604h48.473236v-1.4919128c-.11736-3.5334778-.805481-6.8396225-2.064361-9.9184342-1.258881-3.0788116-3.195539-5.5689214-5.809975-7.4703293-2.614436-1.9014078-6.071714-2.8521118-10.371834-2.8521118-3.245564 0-6.126594.6912868-8.643089 2.0738602s-4.617795 3.3745346-6.303902 5.9758835c-1.686106 2.6013489-2.967572 5.7198435-3.844398 9.355484s-1.315239 7.7242584-1.315239 12.2658539v3.2852478c0 3.8230794.531288 7.3747101 1.593864 10.6548919 1.062577 3.2801819 2.615914 6.1344045 4.660012 8.5626679 2.044097 2.4282634 4.52492 4.3267164 7.442466 5.6953584 2.917547 1.368642 6.241 2.052963 9.97036 2.052963 4.719747 0 8.906939-.941627 12.561577-2.824882s6.830335-4.56587 9.527092-8.0478443l10.299011 9.9836583c-1.851593 2.744883-4.300964 5.374516-7.348114 7.8889-3.047149 2.514384-6.746325 4.557216-11.097526 6.128495-4.351202 1.571278-9.38778 2.356918-15.109734 2.356918zm68.654394-72.6250001v71.0039061h-19.521515v-87.7011718h18.60965zm26.860764-17.2431183-.2305 18.1397858c-1.182891-.2102356-2.462247-.3708675-3.838066-.4818955s-2.736651-.166542-4.082496-.166542c-3.358704 0-6.29757.4757741-8.816597 1.4273223-2.519028.9515483-4.632571 2.305837-6.34063 4.0628663-1.708059 1.7570292-3.019498 3.8785934-3.934318 6.3646926-.914821 2.4860993-1.464684 5.2636999-1.64959 8.3328019l-4.483337.3470153c0-5.5134073.546697-10.6285069 1.640091-15.3452987 1.093393-4.7167918 2.737917-8.8619792 4.93357-12.4355622 2.195654-3.5735829 4.944758-6.3537165 8.247315-8.3404007 3.302556-1.9866841 7.162575-2.9800262 11.580055-2.9800262 1.179515 0 2.45697.1065954 3.832367.3197861s2.422775.465009 3.142136.755455zm147.040772 26.0172882v6.4742432c0 8.9210815-1.162417 16.9188995-3.487251 23.9934539-2.324834 7.0745545-5.647021 13.0951871-9.96656 18.0618971-4.31954 4.966711-9.46799 8.761928-15.445351 11.385651s-12.629122 3.935585-19.955284 3.935585c-7.208801 0-13.806948-1.311862-19.794441-3.935585s-11.171616-6.41894-15.552368-11.385651c-4.380753-4.96671-7.767741-10.9873426-10.160965-18.0618971-2.393225-7.0745544-3.589837-15.0723724-3.589837-23.9934539v-6.4742432c0-8.9219259 1.187958-16.9163666 3.563874-23.9833221 2.375915-7.0669556 5.735885-13.0924429 10.07991-18.0764618 4.344025-4.984019 9.509783-8.78789016 15.497276-11.4116135 5.987493-2.62372335 12.58564-3.93558502 19.794442-3.93558502 7.326161 0 13.982989 1.31186167 19.970481 3.93558502 5.987493 2.62372334 11.149453 6.4275945 15.485878 11.4116135 4.336426 4.9840189 7.680565 11.0095062 10.032418 18.0764618 2.351852 7.0669555 3.527778 15.0613962 3.527778 23.9833221zm-20.394119 6.4742432v-6.6363526c0-6.5882263-.636617-12.4104436-1.909851-17.4666519s-3.138969-9.3025029-5.597206-12.738884c-2.458237-3.436381-5.464648-6.0356191-9.019234-7.7977142s-7.586634-2.6431427-12.096145-2.6431427c-4.466451 0-8.455018.8810476-11.965699 2.6431427s-6.493662 4.3613332-8.948944 7.7977142c-2.455281 3.4363811-4.335159 7.6826757-5.639633 12.738884s-1.956711 10.8784256-1.956711 17.4666519v6.6363526c0 6.6025797.652237 12.4404169 1.956711 17.5135116s3.206515 9.3461965 5.706123 12.8193054c2.499609 3.473109 5.509608 6.095777 9.029999 7.868004s7.513812 2.65834 11.980263 2.65834c4.543284 0 8.578921-.886113 12.106911-2.65834 3.527989-1.772227 6.507382-4.394895 8.938179-7.868004 2.430796-3.4731089 4.274368-7.7462107 5.530716-12.8193054 1.256347-5.0730947 1.884521-10.9109319 1.884521-17.5135116zm56.76368-13.2220459v68.9775389h-19.521515v-87.7011718h18.384217zm-3.447357 21.92276-6.300735-.0937195c.034617-6.2564087.896667-11.967598 2.586151-17.1335678 1.689483-5.1659699 4.07152-9.6203893 7.14611-13.3632584 3.07459-3.742869 6.746959-6.6247431 11.017105-8.6456222 4.270147-2.0208791 9.013324-3.0313187 14.229531-3.0313187 4.224131 0 8.050377.5859578 11.478737 1.7578735s6.371869 3.0475719 8.830528 5.6269684c2.458659 2.5793966 4.341492 5.9414775 5.648498 10.0862427 1.307007 4.1447652 1.960511 9.2170156 1.960511 15.2167511v56.6344298h-19.631699v-56.7661437c0-4.1962687-.60601-7.517189-1.818031-9.9627609s-2.976016-4.1990128-5.291985-5.2603226-5.156682-1.5919647-8.52214-1.5919647c-3.391632 0-6.410497.6942419-9.056595 2.0827255-2.646098 1.3884837-4.87468 3.306778-6.685745 5.7548828-1.811066 2.4481049-3.195539 5.2681326-4.15342 8.4600831-.957881 3.1919504-1.436821 6.6015243-1.436821 10.2287216zm113.9012 48.6758729c-6.483531 0-12.321579-1.069964-17.514145-3.209892-5.192566-2.139929-9.618068-5.130931-13.276505-8.973008-3.658437-3.842076-6.45799-8.346944-8.398659-13.5146023-1.940668-5.1676584-2.911003-10.7521998-2.911003-16.7536239v-3.2852478c0-6.8744507.993976-13.0882213 2.981926-18.6413117 1.987951-5.5530904 4.772306-10.3146311 8.353066-14.2846222 3.580759-3.969991 7.79687-7.0093307 12.64833-9.1180191 4.851461-2.1086883 10.122971-3.1630325 15.81453-3.1630325 6.247965 0 11.719579 1.0509669 16.414841 3.1529007 4.695261 2.1019338 8.596229 5.0597966 11.702903 8.8735886 3.106675 3.8137919 5.436786 8.3429336 6.990334 13.5874252s2.330322 11.0261815 2.330322 17.3450699v8.335968h-67.755386v-14.0262604h48.473236v-1.4919128c-.117361-3.5334778-.805481-6.8396225-2.064362-9.9184342-1.25888-3.0788116-3.195539-5.5689214-5.809974-7.4703293-2.614436-1.9014078-6.071714-2.8521118-10.371834-2.8521118-3.245565 0-6.126595.6912868-8.643089 2.0738602-2.516495 1.3825734-4.617796 3.3745346-6.303902 5.9758835-1.686107 2.6013489-2.967573 5.7198435-3.844399 9.355484s-1.315239 7.7242584-1.315239 12.2658539v3.2852478c0 3.8230794.531289 7.3747101 1.593865 10.6548919 1.062576 3.2801819 2.615913 6.1344045 4.660011 8.5626679s4.52492 4.3267164 7.442467 5.6953584c2.917546 1.368642 6.241 2.052963 9.97036 2.052963 4.719747 0 8.906939-.941627 12.561577-2.824882 3.654637-1.883255 6.830334-4.56587 9.527091-8.0478443l10.299012 9.9836583c-1.851593 2.744883-4.300965 5.374516-7.348114 7.8889-3.04715 2.514384-6.746325 4.557216-11.097527 6.128495-4.351201 1.571278-9.387779 2.356918-15.109733 2.356918z" fill="#d4666a" transform="translate(264.042 61.904)"/><g transform="translate(0 .48)"><path d="m-.121 214.845h146.816v-214.966h-146.816z" fill="#521c38" mask="url(#a)" transform="translate(93.917 20.865)"/><path d="m73.6329074 73.2390742c4.0835235-1.7621562 8.3748438-1.7637304 12.7137539-1.5198476.7794805.0437148 1.5824532-.3264688 2.3747696-.5055664-.5357188-.6979844-.9182539-1.6812657-1.6306485-2.0486641-6.1210469-3.1540078-12.6935312-4.3201406-19.5010586-3.3316523-4.7672187.6926562-9.4340508 2.0273515-14.1732968 2.9365234-3.3638633.6454297-6.5442696.214457-9.2395743-2.1723008-3.3529648-2.9699453-7.330289-2.6564336-11.3599257-1.951668-.3108477.0543711-.6239961.0936055-.9573672.0053282 3.1289414-1.7964258 6.4059804-2.7013594 10.0073086-1.4769805.8508046.2890508 1.7527109.5533984 2.4839961 1.041043 4.7013437 3.1357226 9.6937968 3.2092265 15.0175625 1.8440156 3.9195625-1.0053203 7.9636093-1.5434609 11.9525585-2.2886719.3170235-.0593359.6810313-.0311211.9457422-.1780078.9542188-.5297852 1.8755-1.1174531 2.8094961-1.683082-.7395195-.7249883-1.3727187-1.6173282-2.2370859-2.1449336-2.915332-1.7797149-5.8903633-3.4571055-7.68025-6.5018867-.2074336-.352625-.3554102-.7386719-.6394961-1.3389336 1.6685508 1.4693515 3.1134414 2.7413203 4.7721836 4.2019531.5186445-1.2909805.884832-2.2016055 1.1620156-2.8912344 0 .9281836-.3818086 2.2590039.1023242 3.12325.5336602.9531289 1.7821368 1.6351289 2.858418 2.1611602 3.5192266 1.7196523 7.0620664 3.4032187 10.6672695 4.9398984 8.5329922 3.6366875 14.3729805 9.7342422 17.4423433 18.314582 1.535954 4.2931368 2.900559 8.6536016 4.139711 13.0392539 1.741692 6.1660937 4.822196 11.5544027 9.078278 16.3701797 2.366172 2.677383 4.729195 5.386008 6.793844 8.286203 5.734273 8.056973 6.421843 16.96136 3.813847 26.171508-2.373558 8.383199-3.138992 16.912195-3.314578 25.555988-.170137 8.36116-.296195 16.734551-.884832 25.072461-.591543 8.374481-2.828629 16.390403-7.876422 23.342637-7.741523 10.661699-18.6131991 14.994434-31.6869647 14.579809-11.0615508-.351051-20.8343008-4.415684-29.946-10.236418-2.9986445-1.915461-5.8121367-4.110528-8.7100313-6.17784.10075-.161297.2015-.322957.3023711-.484254 1.0007188.511984 1.9967149 1.033051 3.0032461 1.534379 8.8302774 4.398972 17.9976797 7.567754 28.056211 7.737406 18.765414.316055 31.5966288-8.907777 36.8432578-26.601148 2.311922-7.796379 2.809496-15.826711 3.107992-23.874844.305035-8.228805.384836-16.467539 2.351399-24.550668 1.062355-4.36434 2.236359-8.739578 2.792543-13.178512 1.755011-14.010305-9.272512-25.16643-23.6787934-24.282082-5.5310781.339668-10.3727695 2.413035-14.8814531 5.382859-2.3568477 1.552301-4.6296563 3.227391-6.9454531 4.839754-3.5708125 2.486055-6.5632813 5.501289-8.8759297 9.168371-3.2316289 5.124688-7.3457891 9.33875-12.4339063 12.837754-5.6777226 3.904426-7.2245742 9.916125-7.0838633 16.437387.0124727.570231.096875 1.13925.096875 1.708633.001211 1.839414.5899688 2.727273 2.7941172 2.796902 3.930461.124363 7.5403867 4.578434 7.6612383 8.986125.1294492 4.732828-1.8971758 8.842266-4.0250351 13.266305-4.8663946-2.487508-9.9169727-4.526363-12.5602071-9.623199-2.4987695-4.816989-.4608828-10.178657 4.5803711-12.360403.404211-.17498.8057578-.356015 1.3185899-.583066-.2201485-1.515004-.653543-3.013297-.6093438-4.497785.0954219-3.206078.1744961-6.451028.7461797-9.595106.6379219-3.510386 2.7668711-6.190797 6.0284102-7.968332 5.6918906-3.102543 9.6348242-7.853414 13.1799648-13.113484 1.8906367-2.805137 4.5381094-5.129531 6.9190547-7.601176 1.0588437-1.099289 2.3917226-1.945613 3.443664-3.049746 1.6715782-1.755375 1.0678047-3.467398-1.3635156-3.978293-1.1305312-.237707-2.3320234-.167715-3.4505664-.439691-3.615375-.87902-7.3423984-1.515731-10.7848515-2.847399-13.7400235-5.315168-24.6585625-1.613937-32.011375 11.067485-3.474543 5.993414-5.0543321 12.570378-6.2290625 19.261293-1.4306016 8.146339-1.8166485 16.33373-1.2616758 24.610003 1.3983906 20.842536 20.0100156 39.723473 40.914914 41.871071 20.6386133 2.120109 42.6495818-9.706996 47.5621138-35.500328.78057-4.098055 1.08839-8.282813 1.609578-12.427973.132234-1.052547.24582-2.10691.507019-3.144563.3255 11.348665.40191 22.680497-2.921629 33.70802-5.125656 17.007254-20.9637497 27.987309-39.0012693 26.799016-19.6169453-1.292434-34.8670078-10.666543-46.082832-26.001735-13.64544922-18.657398-16.20973047-39.129023-7.4414531-60.535613 4.3924336-10.723941 11.8145117-19.124699 22.6295156-24.257016 4.5586953-2.163461 9.342625-2.797144 14.3230898-1.685019.5642969.125937 1.1448204.180672 1.7149297.28566 1.55.28566 2.1297969-.386773 2.0577461-1.871383-.065875-1.363273-.0140468-2.731754.1371992-4.133051.1514883.590696.3080625 1.180301.4538594 1.772086 1.5010781 6.096586 6.865168 10.075121 13.2183516 9.803145 2.9304687-.125453 3.7409492-.934117 4.4392969-3.704379.7705195-3.056527 1.6833242-6.088473 2.737082-9.061809.4511953-1.2734215 1.4151016-2.3714997 2.5185078-3.3642262-.4507109.9804961-1.0817305 1.9215156-1.3170156 2.9497222-.6580235 2.876219-1.4979297 5.774235-1.6215664 8.690536-.143375 3.390625 1.9250273 4.624449 5.2291914 3.62373 1.0461289-.316781 2.08475-.680426 3.0847422-1.115273 4.7354922-2.058836 9.6480234-3.102543 14.859414-2.895231 3.1653907.12618 4.5715317-1.173883 4.1839097-4.244215-.989457-7.8335544-2.943667-15.4389684-7.0504409-22.3250856-1.0929922-1.8322696-2.6948203-3.3719766-4.0630586-5.0459766-.1870899.134293-.3739375.2689492-.5611485.4032422.9588204.4544648 1.9177618.9090508 2.8765821 1.3631523.1051094-.0859765.2100976-.171832.3150859-.2578085-.6580234-.6606875-1.2538047-1.3982696-1.984-1.9703165-5.2427539-4.1041093-11.2428281-4.7024335-17.6014609-3.5903085-.6949571.1213359-1.4011758.1803085-2.1019453.2682226z" fill="#521c38"/><path d="m-3.786 182.803h121.86v-182.924h-121.86z" fill="#521c38" mask="url(#b)" transform="translate(10.005 51.924)"/><path d="m-.121 32.658h104.773v-32.779h-104.773z" fill="#d4666a" mask="url(#c)" transform="translate(71.905 215.463)"/><path d="m-.121 19.834h32.264v-20.62h-32.264z" fill="#fbbd8a" mask="url(#d)" transform="translate(185.898 40.746)"/><path d="m-.121 20.901h32.512v-22.199h-32.512z" fill="#91586e" mask="url(#e)" transform="translate(30.167 40.705)"/><path d="m-.121 19.901h24.103v-20.923h-24.103z" fill="#d4666a" mask="url(#f)" transform="translate(7.93 57.423)"/><path d="m-.723 19.537h23.467v-20.14h-23.467z" fill="#004e4c" mask="url(#g)" transform="translate(217.022 57.392)"/><path d="m-.408 25.386h17.488v-25.507h-17.488z" fill="#91586e" mask="url(#h)" transform="translate(81.714 32.589)"/><path d="m-.569 27.841h15.049v-27.962h-15.049z" fill="#fbbd8a" mask="url(#i)" transform="translate(207.63 120.21)"/><path d="m-.257 27.672h13.653v-27.793h-13.653z" fill="#ef6a9f" mask="url(#j)" transform="translate(27.37 119.865)"/><path d="m-.121 16.281h21.418v-16.876h-21.418z" fill="#fbbd8a" mask="url(#k)" transform="translate(178.357 148.676)"/><path d="m-.479 22.535h14.979v-22.656h-14.979z" fill="#fbbd8a" mask="url(#l)" transform="translate(208.436 70.384)"/><path d="m-.684 22.76h14.583v-22.881h-14.583z" fill="#004e4c" mask="url(#m)" transform="translate(25.612 70.127)"/><path d="m-.553 14.215h23.056v-14.634h-23.056z" fill="#91586e" mask="url(#n)" transform="translate(172.046 108.489)"/><path d="m-.121 15.561h19.468v-16.235h-19.468z" fill="#d4666a" mask="url(#o)" transform="translate(0 113.781)"/><path d="m-.121 15.212h19.893v-15.333h-19.893z" fill="#ef6a9f" mask="url(#p)" transform="translate(228.35 113.916)"/><path d="m-1.014 19.318h17.398v-20.402h-17.398z" fill="#fbbd8a" mask="url(#q)" transform="translate(81.376 153.484)"/><path d="m-.698 17.801h17.664v-17.922h-17.664z" fill="#fbbd8a" mask="url(#r)" transform="translate(101.982)"/><path d="m-.121 17.686h16.412v-18.497h-16.412z" fill="#004e4c" mask="url(#s)" transform="translate(149.619 153.181)"/><path d="m-.704 19.454h16.169v-19.575h-16.169z" fill="#fbbd8a" mask="url(#t)" transform="translate(46.45 82.542)"/><path d="m-.8 15.187h23.401v-15.986h-23.401z" fill="#fbbd8a" mask="url(#u)" transform="translate(180.042 28.332)"/><path d="m-.121 13.546h22.18v-14.52h-22.18z" fill="#fbbd8a" mask="url(#v)" transform="translate(51.695 69.3)"/><path d="m-.121 14.823h23.308v-15.595h-23.308z" fill="#004e4c" mask="url(#w)" transform="translate(45.74 28.36)"/><path d="m-.121 14.849h28.897v-15.926h-28.897z" fill="#004e4c" mask="url(#x)" transform="translate(167.227 69.276)"/><path d="m-.843 18.268h17.621v-18.389h-17.621z" fill="#91586e" mask="url(#y)" transform="translate(135.553 .083)"/><path d="m-.214 17.753h15.271v-18.507h-15.271z" fill="#004e4c" mask="url(#z)" transform="translate(3.81 85.17)"/><path d="m-2.71 17.763h17.569v-18.29h-17.569z" fill="#fbbd8a" mask="url(#A)" transform="translate(229.16 85.104)"/><path d="m-.629 26.679h14.769v-26.8h-14.769z" fill="#fbbd8a" mask="url(#B)" transform="translate(91.013 128.502)"/><path d="m-.699 16.961h18.348v-17.082h-18.348z" fill="#ef6a9f" mask="url(#C)" transform="translate(99.155 52.723)"/><path d="m-.121 16.699h21.604v-17.412h-21.604z" fill="#d4666a" mask="url(#D)" transform="translate(183.163 82.717)"/><path d="m-.233 20.901h11.65v-21.022h-11.65z" fill="#ef6a9f" mask="url(#E)" transform="translate(122.844 10.393)"/><path d="m-.121 16.004h13.455v-16.651h-13.455z" fill="#004e4c" mask="url(#F)" transform="translate(29.14 148.163)"/><path d="m-.121 12.07h20.837v-12.883h-20.837z" fill="#fbbd8a" mask="url(#G)" transform="translate(70.687 19.222)"/><path d="m-1.079 15.839h14.943v-16.856h-14.943z" fill="#91586e" mask="url(#H)" transform="translate(149.06 135.583)"/><path d="m-.472 11.485h20.34v-12.035h-20.34z" fill="#ef6a9f" mask="url(#I)" transform="translate(215.743 103.005)"/><path d="m-.121 11.973h20.287v-12.178h-20.287z" fill="#ef6a9f" mask="url(#J)" transform="translate(12.287 103.09)"/><path d="m-.797 13.384h17.323v-13.818h-17.323z" fill="#004e4c" mask="url(#K)" transform="translate(148.323 45.871)"/><path d="m-.519 11.989h17.95v-12.813h-17.95z" fill="#91586e" mask="url(#L)" transform="translate(155.133 6.795)"/><path d="m-.768 16.725h13.646v-16.846h-13.646z" fill="#004e4c" mask="url(#M)" transform="translate(83.04 88.293)"/><path d="m-.121 8.041h40.47v-8.162h-40.47z" fill="#d4666a" mask="url(#N)" transform="translate(103.653 240.08)"/><path d="m-.121 12.78h17.702v-13.4h-17.702z" fill="#d4666a" mask="url(#O)" transform="translate(81.336 6.83)"/><path d="m-.121 14.497h18.76v-15.456h-18.76z" fill="#d4666a" mask="url(#P)" transform="translate(164.649 80.504)"/><path d="m-.121 13.212h15.749v-13.403h-15.749z" fill="#fbbd8a" mask="url(#Q)" transform="translate(45.683 127.097)"/><path d="m-.81 16.374h17.113v-16.495h-17.113z" fill="#004e4c" mask="url(#R)" transform="translate(63.035 90.455)"/><path d="m-2.16 20.094h12.963v-20.215h-12.963z" fill="#f06c9f" mask="url(#S)" transform="translate(108.778 75.944)"/><path d="m-.555 11.812h19.235v-12.576h-19.235z" fill="#ef6a9f" mask="url(#T)" transform="translate(158.68 19.472)"/><path d="m-.121 10.691h20.408v-12.906h-20.408z" fill="#fbbd8a" mask="url(#U)" transform="translate(41.302 114.659)"/><path d="m-.537 17.571h11.172v-17.795h-11.172z" fill="#004e4c" mask="url(#V)" transform="translate(56.16 148.073)"/><path d="m-.458 18.18h10.937v-18.924h-10.937z" fill="#91586e" mask="url(#W)" transform="translate(79.74 124.342)"/><path d="m-.353 15.318h12.473v-15.552h-12.473z" fill="#004e4c" mask="url(#X)" transform="translate(169.243 124.977)"/><path d="m-.544 17.644h10.657v-17.765h-10.657z" fill="#f06c9f" mask="url(#Y)" transform="translate(150.997 81.695)"/><path d="m-.345 10.612h14.605v-11.003h-14.605z" fill="#ef6a9f" mask="url(#Z)" transform="translate(137.185 55.09)"/><path d="m-.428 16.338h10.504v-16.459h-10.504z" fill="#d4666a" mask="url(#aa)" transform="translate(118.466 60.323)"/><path d="m-.599 14.052h13.555v-14.224h-13.555z" fill="#91586e" mask="url(#ab)" transform="translate(94.288 119.222)"/><path d="m-2.404 17.929h12.458v-18.05h-12.458z" fill="#004e4c" mask="url(#ac)" transform="translate(68.04 142.875)"/><path d="m-.473 15.253h11.49v-15.374h-11.49z" fill="#f06c9f" mask="url(#ad)" transform="translate(169.007 35.9)"/><path d="m-.534 15.611h10.626v-15.732h-10.626z" fill="#004e4c" mask="url(#ae)" transform="translate(68.663 35.315)"/><path d="m-.121 10.764h15.838v-13.271h-15.838z" fill="#004e4c" mask="url(#af)" transform="translate(143.922 34.654)"/><path d="m-.298 15.907h10.679v-16.028h-10.679z" fill="#004e4c" mask="url(#ag)" transform="translate(184.77 124.404)"/><path d="m-.559 15.657h9.941v-16.131h-9.941z" fill="#004e4c" mask="url(#ah)" transform="translate(118.086 28.984)"/><path d="m-.121 12.451h11.762v-12.725h-11.762z" fill="#d4666a" mask="url(#ai)" transform="translate(151.685 119.233)"/><path d="m-1.786 15.671h9.802v-15.792h-9.802z" fill="#004e4c" mask="url(#aj)" transform="translate(108.734 19.996)"/><path d="m-.121 8.459h12.432v-9.053h-12.432z" fill="#f06c9f" mask="url(#ak)" transform="translate(77.952 74.446)"/><path d="m-.529 10.712h8.946v-11.271h-8.946z" fill="#f06c9f" mask="url(#al)" transform="translate(71.883 166.022)"/><path d="m-.162 8.938h6.981v-9.103h-6.981z" fill="#f06c9f" mask="url(#am)" transform="translate(181.137 170.928)"/><path d="m-1.791 11.404h8.356v-11.525h-8.356z" fill="#d4666a" mask="url(#an)" transform="translate(216.993 150.538)"/><path d="m-.527 16.801h7.009v-16.922h-7.009z" fill="#d4666a" mask="url(#ao)" transform="translate(170.867 143.903)"/><path d="m-.159 6.434h6.868v-7.042h-6.868z" fill="#f06c9f" mask="url(#ap)" transform="translate(66.644 131.89)"/><path d="m-.703 6.324h5.72v-6.445h-5.72z" fill="#f06c9f" mask="url(#aq)" transform="translate(67.741 27.072)"/><g fill="#d4666a"><path d="m-1.128 5.96h6.564v-6.297h-6.564z" mask="url(#ar)" transform="translate(175.124 27.652)"/><path d="m-.439 5.832h5.545v-6.211h-5.545z" mask="url(#as)" transform="translate(20.943 90.619)"/><path d="m-.121 5.903h4.992v-6.314h-4.992z" mask="url(#at)" transform="translate(222.379 90.41)"/><path d="m-.661 6.136h5.2v-6.465h-5.2z" mask="url(#au)" transform="translate(60.842 173.963)"/><path d="m-.157 7.025h4.397v-7.146h-4.397z" mask="url(#av)" transform="translate(168.27 167.203)"/><path d="m-.121 4.679h4.606v-4.8h-4.606z" mask="url(#aw)" transform="translate(202.087 113.09)"/><path d="m-.331 3.966h4.055v-4.087h-4.055z" mask="url(#ax)" transform="translate(131.401 35.063)"/><path d="m-.273 3.969h3.537v-4.09h-3.537z" mask="url(#ay)" transform="translate(79.989 142.309)"/><path d="m-1.495 42.265h16.252v-42.386h-16.252z" mask="url(#az)" transform="translate(132.749 76.666)"/><path d="m-.329 20.436h12.743v-20.905h-12.743z" mask="url(#aA)" transform="translate(135.092 98.495)"/><path d="m-1.495 14.204h11.978v-14.325h-11.978z" mask="url(#aB)" transform="translate(132.749 76.666)"/></g><path d="m6.366 5.45-6.298 1.851-1.776-6.041 6.298-1.851z" fill="#4f5a4b" mask="url(#aC)" transform="translate(164.203 92.609)"/></g></g></svg>