<svg height="4096" viewBox="0 0 4096 4096" width="4096" xmlns="http://www.w3.org/2000/svg" xmlns:xlink="http://www.w3.org/1999/xlink"><linearGradient id="a"><stop offset="0" stop-color="#8dc85a"/><stop offset=".3944" stop-color="#6abf6b"/><stop offset=".67114" stop-color="#418c8f"/><stop offset="1" stop-color="#1a5161"/></linearGradient><linearGradient id="b" x1="99.978%" x2=".022%" xlink:href="#a" y1="0%" y2="100%"/><linearGradient id="c" x1="100%" x2="0%" xlink:href="#a" y1="25.399%" y2="74.601%"/><mask id="d" fill="#fff"><path d="m0 0h4096v4096h-4096z" fill="#fff" fill-rule="evenodd"/></mask><g fill="none" fill-rule="evenodd"><path d="m1368 1795h1520v2301h-1520z" fill="#fff"/><path d="m929 995h2326v2690h-2326z" fill="#fff"/><path d="m0-.01988287v1705.00562287c0 859.00616 456.325921 1656.30128 1368.97776 2391.88535v-1194.24081c-255.77415-185.0598-423.989319-498.76174-423.989319-854.61537 0-604.98596 464.942839-1054.090233 1021.799439-1028.73958 937.57604 0 1643.28292 1028.73958 1064.74504 2625.43328l-762.1801-302.91549v754.20688h1826.64718v-848.84933c0-1998.72529-890.04402-3247.17055287-3006.84036-3247.17055287z" fill="url(#b)" mask="url(#d)"/><path d="m3026.53419 2459.92828s-189.10888-644.05579-711.21986-440.15698c0 0 56.38058 568.35177 711.21986 440.15698" fill="url(#c)"/></g></svg>