<svg height="167" viewBox="0 0 1155 167" width="1155" xmlns="http://www.w3.org/2000/svg"><path d="m0 154.903743h8.21122995c8.72905525 0 15.09090905-5.400178 19.08556145-16.200534l47.7139038-134.70855659h5.5481283l48.1577545 141.14438459c1.4795 3.698753 3.254902 6.250892 5.326203 7.656418 2.071301 1.405525 4.734403 2.108288 7.989305 2.108288h12.427807v7.101605h-68.7967914v-7.101605h14.6470584c2.219252 0 4.068628-.554813 5.548129-1.664438 1.479501-1.109626 2.219251-2.404189 2.219251-3.88369 0-1.923351-.2959-3.550802-.8877-4.882353l-10.4304817-29.516043h-51.9304813l-5.3262032 14.868984c-2.0713013 5.918004-3.1069519 10.208556-3.1069519 12.871658 0 3.254902.8137255 6.102941 2.4411765 8.544118 1.627451 2.441176 4.4385027 3.661764 8.4331551 3.661764h13.5374331v7.101605h-60.8074866zm47.2700535-47.048128h47.0481283l-23.0802139-67.6871658zm116.6174865 48.823529h11.540107c1.775401 0 3.032976-.369875 3.772727-1.109625.73975-.739751 1.109626-1.997326 1.109626-3.772728v-137.5935824c0-1.7754011-.369876-3.0329769-1.109626-3.7727273-.739751-.73975046-1.997326-1.10962569-3.772727-1.10962569h-11.540107v-5.3262032h32.401069v147.80213859c0 1.775402.369875 3.032977 1.109626 3.772728.73975.73975 1.997326 1.109625 3.772727 1.109625h11.540107v5.326204h-48.823529zm81.33139-123.3903739c-3.254902 0-5.991979-1.1096257-8.21123-3.3288771-2.219252-2.2192513-3.328877-4.9563279-3.328877-8.2112299 0-3.402852 1.109625-6.1769162 3.328877-8.3221925 2.219251-2.1452763 4.956328-3.2179145 8.21123-3.2179145 3.402852 0 6.176916 1.0726382 8.322192 3.2179145s3.217915 4.9193405 3.217915 8.3221925c0 3.254902-1.072639 5.9919786-3.217915 8.2112299-2.145276 2.2192514-4.91934 3.3288771-8.322192 3.3288771zm-20.860963 123.3903739h9.320856c1.775401 0 3.032977-.369875 3.772727-1.109625.73975-.739751 1.109626-1.997326 1.109626-3.772728v-80.7807482c0-1.7754011-.369876-3.0329768-1.109626-3.7727273-.73975-.7397504-1.997326-1.1096257-3.772727-1.1096257h-9.320856v-5.3262032h30.181818v90.9893044c0 1.775402.369876 3.032977 1.109626 3.772728.73975.73975 1.997326 1.109625 3.772727 1.109625h9.320856v5.326204h-44.385027zm106.187005 7.989305c-13.759358 0-24.818627-4.660428-33.177807-13.981283-8.35918-9.320856-12.53877-22.266489-12.53877-38.836899 0-9.468805 1.849376-18.3088231 5.548128-26.5200531 3.698752-8.2112299 8.840018-14.7950089 15.423797-19.7513369s13.944296-7.434492 22.08155-7.434492c9.024956 0 16.42246 2.4411765 22.192514 7.3235294 5.770053 4.882353 9.949643 11.0592692 12.53877 18.5307487 2.589126 7.4714795 3.88369 15.1278966 3.88369 22.9692509 0 1.627451-.517826 2.70009-1.553476 3.217915-1.035651.517825-2.811052.776738-5.326203.776738h-55.259359c0 14.795009 2.108289 26.557041 6.324867 35.286096 4.216577 8.729055 11.133244 13.093583 20.75 13.093583 6.805704 0 13.204545-2.589127 19.196524-7.76738 5.991978-5.178253 9.801693-13.241533 11.429144-24.189839h5.326203c-.8877 10.800356-4.62344 19.714349-11.207219 26.741978-6.583779 7.02763-15.127897 10.541444-25.632353 10.541444zm16.86631-59.032085c0-11.8360075-1.553476-21.8226385-4.660428-29.9598934-3.106951-8.1372549-8.21123-12.2058824-15.312834-12.2058824-7.545454 0-13.27852 4.105615-17.199198 12.316845-3.920677 8.2112299-5.881016 18.1608734-5.881016 29.8489308zm35.614813 51.04278h9.320855c1.775401 0 3.032977-.369875 3.772728-1.109625.73975-.739751 1.109625-1.997326 1.109625-3.772728v-80.7807482c0-1.7754011-.369875-3.0329768-1.109625-3.7727273-.739751-.7397504-1.997327-1.1096257-3.772728-1.1096257h-9.320855v-5.3262032h30.181818v18.197861l.8877.2219251c3.402852-7.1016043 7.61943-12.3908199 12.649733-15.867647s10.578431-5.2152407 16.644385-5.2152407c10.800357 0 18.456774 3.328877 22.969251 9.986631 4.512478 6.6577541 6.768717 14.6470589 6.768717 23.9679145v59.6978605c0 1.775402.369875 3.032977 1.109626 3.772728.73975.73975 1.997326 1.109625 3.772727 1.109625h9.320855v5.326204h-44.385026v-5.326204h9.320855c1.775401 0 3.032977-.369875 3.772728-1.109625.73975-.739751 1.109625-1.997326 1.109625-3.772728v-63.9144381c0-6.5098039-1.294563-12.0579322-3.88369-16.644385-2.589126-4.5864527-6.990641-6.8796791-13.204545-6.8796791-5.178253 0-9.801693 1.8123886-13.870321 5.4371657-4.068627 3.6247772-7.249554 8.5811052-9.542781 14.868984-2.293226 6.2878788-3.439839 13.2785205-3.439839 20.9719255v46.160427c0 1.775402.369875 3.032977 1.109625 3.772728.739751.73975 1.997327 1.109625 3.772728 1.109625h9.320855v5.326204h-44.385026zm248.103956 9.320856c-6.213904 0-12.316845-1.368538-18.308823-4.105615-5.991979-2.737077-11.20722-5.733066-15.645722-8.987968-6.213904-4.734403-9.912656-7.101604-11.096257-7.101604-2.959002 0-4.882353 3.180927-5.770054 9.542781l-.8877 8.877005h-5.104278l-1.553476-70.1283423h5.326203c.887701 10.9483063 3.957665 21.4157753 9.209893 31.4024063s11.79902 18.049911 19.640374 24.18984c7.841355 6.139928 15.904635 9.209893 24.18984 9.209893 12.131907 0 20.971925-2.959002 26.520054-8.877006 5.548128-5.918003 8.322192-13.019607 8.322192-21.304812 0-7.249555-2.108289-12.945633-6.324866-17.088236-4.216578-4.142602-10.393494-7.841354-18.530749-11.096256l-33.73262-13.5374336c-11.688057-4.7344028-20.30615-10.837344-25.854278-18.3088235-5.548129-7.4714795-8.322193-16.4594474-8.322193-26.9639038 0-14.2032085 4.142603-24.7076649 12.427808-31.513369 8.285205-6.80570405 18.641711-10.2085561 31.069518-10.2085561 9.764706 0 20.565063 4.43850267 32.40107 13.315508 1.479501 1.0356506 2.959002 1.9603387 4.438503 2.7740642 1.4795.8137255 2.811051 1.2205882 3.994652 1.2205882 2.515151 0 3.994652-1.775401 4.438503-5.3262032l.8877-7.98930479h5.326203l2.219252 57.70053479h-5.326203c-2.367202-10.6524065-6.102942-20.1212122-11.20722-28.4064171-5.104278-8.285205-11.059269-14.7210339-17.864973-19.3074867-6.805704-4.58645274-13.833333-6.87967912-21.082888-6.87967912-8.285205 0-15.090909 2.70008912-20.417112 8.10026742-5.326203 5.4001782-7.989305 12.9086452-7.989305 22.525401 0 6.657754 1.701426 11.8360072 5.104278 15.5347594s8.433155 6.8796791 15.090909 9.5427807l42.831551 17.0882353c9.912656 3.9946524 17.347148 9.6907309 22.303476 17.0882353 4.956328 7.3975046 7.434492 15.1648846 7.434492 23.3021386 0 7.841355-1.738413 15.23886-5.215241 22.192514-3.476827 6.953654-8.80303 12.612745-15.978609 16.977273-7.17558 4.364527-16.163547 6.546791-26.963904 6.546791zm103.745829-1.331551c-6.657754 0-12.168895-2.367201-16.533423-7.101604s-6.546791-11.170232-6.546791-19.307487v-71.2379676h-16.42246v-6.2139038h4.882353c6.657754 0 11.872994-3.5877896 15.645722-10.763369 3.772727-7.1755793 5.659091-15.1278966 5.659091-23.8569518v-7.9893048h6.213903v42.6096256h27.518717v6.2139038h-27.518717v72.3475936c0 4.438503.887701 8.137255 2.663102 11.096257 1.775401 2.959001 4.808378 4.438502 9.09893 4.438502 10.504457 0 15.756685-8.877005 15.756685-26.631016h3.994652c0 9.912656-1.442513 18.456774-4.32754 25.632353-2.885027 7.17558-9.579768 10.763369-20.084224 10.763369zm81.33139 0c-10.800357 0-18.456774-3.328877-22.969252-9.986631s-6.768716-14.647059-6.768716-23.967914v-59.6978612c0-1.7754011-.369876-3.0329768-1.109626-3.7727273-.739751-.7397504-1.997326-1.1096257-3.772727-1.1096257h-9.320856v-5.3262032h30.181818v74.1229944c0 6.509804 1.294564 12.057933 3.88369 16.644385 2.589127 4.586453 6.990642 6.879679 13.204546 6.879679 5.178253 0 9.801693-1.812388 13.87032-5.437165 4.068628-3.624778 7.249555-8.581105 9.542781-14.868984 2.293227-6.287879 3.43984-13.278521 3.43984-20.971925v-46.1604282c0-1.7754011-.369876-3.0329768-1.109626-3.7727273-.73975-.7397504-1.997326-1.1096257-3.772727-1.1096257h-9.320856v-5.3262032h30.181818v90.9893044c0 1.775402.369876 3.032977 1.109626 3.772728.73975.73975 1.997326 1.109625 3.772727 1.109625h9.320856v5.326204h-30.181818v-18.197861l-.887701-.221926c-3.402852 7.101605-7.619429 12.39082-12.649732 15.867648-5.030303 3.476827-10.578432 5.21524-16.644385 5.21524zm115.50786 0c-6.953654 0-13.426471-2.330214-19.418449-6.990642-5.991979-4.660427-10.763369-11.059269-14.314171-19.196524-3.550802-8.137254-5.326203-17.16221-5.326203-27.074866s1.775401-18.9376113 5.326203-27.0748662 8.322192-14.5360963 14.314171-19.1965241c5.991978-4.6604278 12.464795-6.9906417 19.418449-6.9906417 5.770054 0 10.948307 1.8863637 15.534759 5.6590909 4.586453 3.7727273 7.989305 8.3221925 10.208557 13.6483958l.8877-.2219252v-63.0267379c0-1.7754011-.369875-3.0329769-1.109626-3.7727273-.73975-.73975046-1.997326-1.10962569-3.772727-1.10962569h-15.978609v-5.3262032h36.839572v147.80213859c0 1.775402.369875 3.032977 1.109625 3.772728.739751.73975 1.997327 1.109625 3.772728 1.109625h11.540107v5.326204h-32.40107v-16.42246l-.8877-.221925c-2.811052 5.918003-6.398842 10.615418-10.763369 14.092246-4.364528 3.476827-9.357844 5.21524-14.979947 5.21524zm2.441177-6.213904c4.438502 0 8.50713-1.627451 12.205882-4.882352 3.698752-3.254902 6.620766-7.730393 8.766043-13.426471 2.145276-5.696079 3.217914-11.872995 3.217914-18.530749v-20.417112c0-6.657754-1.072638-12.8346703-3.217914-18.5307487-2.145277-5.6960784-5.067291-10.1715686-8.766043-13.4264706-3.698752-3.2549019-7.76738-4.8823529-12.205882-4.8823529-7.249555 0-12.723708 4.0686274-16.42246 12.2058823-3.698753 8.1372549-5.548129 19.7513369-5.548129 34.8422459s1.849376 26.704991 5.548129 34.842246c3.698752 8.137255 9.172905 12.205882 16.42246 12.205882zm91.318023-125.1657749c-3.2549 0-5.99198-1.1096257-8.21123-3.3288771-2.21925-2.2192513-3.32888-4.9563279-3.32888-8.2112299 0-3.402852 1.10963-6.1769162 3.32888-8.3221925s4.95633-3.2179145 8.21123-3.2179145c3.40285 0 6.17691 1.0726382 8.32219 3.2179145s3.21791 4.9193405 3.21791 8.3221925c0 3.254902-1.07263 5.9919786-3.21791 8.2112299-2.14528 2.2192514-4.91934 3.3288771-8.32219 3.3288771zm-20.86097 123.3903739h9.32086c1.7754 0 3.03298-.369875 3.77273-1.109625.73975-.739751 1.10962-1.997326 1.10962-3.772728v-80.7807482c0-1.7754011-.36987-3.0329768-1.10962-3.7727273-.73975-.7397504-1.99733-1.1096257-3.77273-1.1096257h-9.32086v-5.3262032h30.18182v90.9893044c0 1.775402.36988 3.032977 1.10963 3.772728.73975.73975 1.99733 1.109625 3.77273 1.109625h9.32085v5.326204h-44.38503zm104.85546 7.989305c-8.13726 0-15.60874-2.404189-22.41444-7.212567s-12.16889-11.281194-16.08957-19.418449-5.88102-17.01426-5.88102-26.631016 1.96034-18.493761 5.88102-26.6310159 9.28387-14.6100713 16.08957-19.4184492 14.27718-7.2125669 22.41444-7.2125669c8.13725 0 15.60873 2.404189 22.41444 7.2125669 6.8057 4.8083779 12.16889 11.2811943 16.08957 19.4184492s5.88102 17.0142599 5.88102 26.6310159-1.96034 18.493761-5.88102 26.631016-9.28387 14.610071-16.08957 19.418449c-6.80571 4.808378-14.27719 7.212567-22.41444 7.212567zm0-5.326203c8.877 0 15.23886-4.17959 19.08556-12.53877s5.77005-20.1582 5.77005-35.397059c0-15.2388591-1.92335-27.0378787-5.77005-35.3970587s-10.20856-12.5387701-19.08556-12.5387701c-8.87701 0-15.23886 4.1795901-19.08556 12.5387701s-5.77006 20.1581996-5.77006 35.3970587c0 15.238859 1.92336 27.037879 5.77006 35.397059s10.20855 12.53877 19.08556 12.53877z" fill="#dfd5c9" transform="translate(.895 .34)"/></svg>