<svg height="2048" viewBox="0 0 2048 2048" width="2048" xmlns="http://www.w3.org/2000/svg" xmlns:xlink="http://www.w3.org/1999/xlink"><mask id="a" fill="#fff"><path d="m0 0h2048v2048h-2048z" fill="#fff" fill-rule="evenodd"/></mask><mask id="b" fill="#fff"><path d="m0 0h1453.985v760.952h-1453.985z" fill="#fff" fill-rule="evenodd"/></mask><mask id="c" fill="#fff"><path d="m0 0h740.407v193.233h-740.407z" fill="#fff" fill-rule="evenodd"/></mask><mask id="d" fill="#fff"><path d="m0 0h50.673v52.501h-50.673z" fill="#fff" fill-rule="evenodd"/></mask><mask id="e" fill="#fff"><path d="m0 0h.694v1.727h-.694z" fill="#fff" fill-rule="evenodd"/></mask><g fill="none" fill-rule="evenodd" mask="url(#a)"><g transform="translate(196.608 271.701)"><path d="m609.353387 774.962995c-3.751254-.871765-7.463595-2.04049-11.263318-2.540885-4.893354-.64512-6.614357 1.280683-4.993024 5.832704.812374 2.281472 1.221974 4.773205 2.461014 6.873088 2.486954 4.215467 3.773781 8.886272 5.398528 13.432149 1.52576 4.269398 5.742592 5.143211 8.572245 1.63567 2.466475-3.057664 3.597653-6.753622 4.354731-10.555392.254634-1.279318.40209-2.579798.616448-3.988822 1.363968.844459 1.594709 2.087595 1.75377 3.114326 1.458859 9.445376 5.921451 17.732949 9.988779 26.160469 5.196459 10.767701 10.220885 21.633024 16.858453 31.636139 21.686955 32.679936 47.578454 61.476181 79.776427 84.066986 15.63648 10.970454 30.653781 22.777174 46.503936 33.444523 36.571819 24.613547 75.838805 43.14453 118.949205 53.0391 31.543979 7.24037 63.338496 9.7362 95.543296 4.99712 9.091072-1.33734 17.624403-4.40661 26.279933-7.17824 2.27874-.72977 4.494-1.90464 7.23695-1.54146-.35225 3.47614-3.11296 3.50345-4.95343 4.25779-24.892071 10.20519-50.459986 18.28523-76.884647 23.40523-27.762006 5.37941-55.831894 8.334-84.109312 8.10599-65.888256-.5318-128.485376-14.94836-187.104598-45.52978-4.839424-2.5245-9.821525-4.809382-14.487552-7.619921-3.581952-2.157909-6.621184-2.449408-9.818112.460118-.991914.902485-2.21457 1.665024-3.464533 2.144938-2.740224 1.053355-5.297493.93184-7.336619-1.647957-1.974272-2.497195-4.07552-4.89472-6.135808-7.323648-3.390122-3.997696-3.394901-3.9936 1.043798-7.873877-81.655808-58.284032-136.15855-135.252651-160.383659-232.992768-24.154112-97.455446-11.595093-190.72 31.492096-280.759638-1.783125 1.714859-3.835904 3.373056-5.513216 5.350059-13.687467 16.135509-26.555051 32.925013-39.676587 49.515179-4.362922 5.516629-7.651328 11.115178-9.27744 17.814186-.533162 2.196822-1.467733 4.52335-.456704 6.688768 1.700523 3.64271-.465578 5.021696-3.199658 6.120107-5.135702 2.064384-8.58112 5.501611-10.366294 10.902187-6.201344 18.766506-13.040981 37.3248-17.752746 56.563712-4.227755 17.263957-7.408982 34.691754-8.712875 52.434944-1.142101 15.534762.708608 30.912512 2.706091 46.252714 11.743914 90.194603 48.196949 169.535488 105.553237 239.64672 45.359104 55.445507 100.902912 98.107397 164.36224 130.824877 14.363307 7.40557 29.096619 13.95439 44.085248 20.00281 5.475669 2.2098 9.878187 2.79484 13.838336-2.27328.649216-.8308 1.782443-1.28341 3.282261-2.31833 7.05536 9.85839 16.386048 16.88849 27.581782 22.26381-4.119211 4.06459-8.283478 6.99869-9.44128 12.27571-.447147 2.03571-2.489686 1.43974-4.066646 1.28751-5.00736-.48333-9.869994-1.72647-14.659584-3.13071-76.481194-22.43243-149.11488-52.96674-212.845909-101.96992-53.394091-41.055575-96.137899-91.385858-129.265664-149.926573-31.465472-55.602517-52.129792-114.921472-61.705557-178.182826-6.161067-40.705366-7.787862-81.522006-4.760918-122.495659 3.349846-45.350912 12.737195-89.511936 27.353771-132.603221 15.153152-44.672342 36.670805-86.049451 63.727616-124.581206 12.209493-17.388202 25.864192-33.623381 40.046592-49.471488 12.155563-13.583701 25.189035-26.29905 38.952277-38.039552 52.98927-45.200042 111.655595-80.855722 177.953451-103.339349 45.061461-15.282176 91.226795-24.557568 138.708309-27.88352 91.117568-6.382251 178.05039 9.570304 260.838743 48.021504 38.98095 18.105003 75.36025 40.37632 107.6422 68.980053 1.66639 1.476608 3.81474 2.542934 4.59844 4.870144l.02184-.058709c-5.91803-.70656-11.33841-3.04128-16.78063-5.243563-27.60499-11.168426-54.79355-23.353344-82.87232-33.368064-45.25329-16.14097-91.818662-26.080597-139.685883-29.73696-65.114112-4.973226-128.305835 4.332886-189.938347 25.698304-35.019435 12.139862-67.884373 28.399616-98.921131 48.557398-5.113856 3.321173-10.048853 6.823253-14.570837 11.279701 2.437803-.992597 4.882432-1.968128 7.312043-2.980523 69.458602-28.923904 141.659477-44.35968 217.045674-43.693397 54.213291.478549 107.324758 8.880811 159.649111 22.852949 32.98304 8.807083 65.44793 19.131051 97.25747 31.534422 5.08996 1.984512 9.74848 4.767061 14.67597 6.939989-17.72476-5.576704-34.97916-12.804096-53.66511-15.155883-49.65922-6.251178-98.94639-3.922602-147.937281 6.045014-34.217301 6.961834-67.445418 16.981333-99.071317 31.956992-1.913515.905216-4.547243 1.069056-5.264725 4.668757 86.992896-8.622763 170.693973 2.035029 249.867603 41.079467-1.09977-.14063-2.21662-.203435-3.29728-.434176-17.35816-3.713707-34.99827-5.758976-52.45884-8.866475-1.3312-.237568-2.71428-.186368-4.07278-.268288-8.23774-6.581589-16.80658-6.616405-25.645743-1.294336-18.896896-.201387-37.756246.574123-56.521387 2.811221-43.691349 5.210112-85.461675 17.319254-125.725355 34.978475-18.169856 7.968768-35.300693 17.666731-52.138666 28.114944-10.646187 6.605483-20.964011 13.742763-30.278998 21.846699-10.691242 9.302016-21.927936 18.21969-30.659925 29.745152-5.300224 6.995968-12.233387 12.742656-17.661952 19.654656-9.136128 11.633322-18.368512 23.231829-26.341376 35.730773-11.278336 17.681067-21.581824 35.900757-30.651051 54.833152-9.291776 19.397291-16.781312 39.501824-22.64064 60.116992-8.72721 30.706347-10.52672 62.086485-6.647125 93.779285 2.602325 21.261654 6.851925 42.203136 12.227243 62.924118.62737 2.41937 1.411754 4.800512 1.389909 7.338666-.473771.653312-.948224 1.306624-1.422677 1.959936" fill="#d33e35"/><g fill="#095c86"><path d="m1453.98484 0c-1.86232 3.07063467-1.76948 4.94045867-1.62543 6.70378667 1.86231 22.80106663-.29219 45.47788803-2.29718 68.13149863-2.86925 32.4259837-7.24241 64.6724267-14.61726 96.3966297-1.99953 8.600917-2.15244 17.788928-6.75703 25.73312-2.10739 15.31904-7.96536 29.639338-12.58906 44.197205-24.92006 78.464341-63.13915 150.142976-112.86937 215.642112-80.3881 105.880235-181.61459 185.449131-303.536131 238.430891-67.123883 29.168981-137.078101 48.622933-209.636693 58.409642-58.619222 7.905963-117.480107 9.566891-176.367616 4.1472-122.985131-11.319978-236.281174-51.133781-340.329131-117.488981-28.169557-17.964373-55.086421-37.679104-80.883712-58.905259-30.431915-25.038848-58.428075-52.649301-85.417301-81.312426-6.394539-6.790486-12.8197976-13.552982-19.262123-20.298411-1.2069546-1.263616-2.1394773-3.205803-4.3697493-2.707456-8.9101653 1.990656-18.126848 1.321643-27.0547627 3.237205-6.2266026 1.335296-12.4484266 2.630315-18.5494186 4.496726-5.8948267 1.802922-5.9275947 1.71008-9.0944854-3.41743-4.8994986-7.933269-9.6945493-15.934805-15.1968426-23.476906-3.75603203-5.14799-7.54551469-10.281643-12.09753603-14.762667-1.82408533-1.794731-1.865728-3.284992-.36522666-5.285888 8.93201069-11.912533 15.10468269-25.373355 21.37907199-38.750891 1.468416-3.130709 3.2617813-4.330154 6.731776-4.255061 12.3153067.264875 24.551424-.768 36.5970773-3.436544 2.603008-.576853 4.1949867-.083285 5.623808 2.280107 7.7994667 12.905813 17.209344 24.593749 27.598848 35.4816 2.069845 2.169514 2.340181 3.92192 1.117525 6.600704-3.3013756 7.234218-6.210901 14.646613-9.471317 21.899946-2.131968 4.743168-1.3694293 7.9872 2.650112 11.85519 34.31424 33.01649 70.206123 64.103082 109.034837 91.759274 5.771264 4.110336 11.408726 8.448 17.207979 12.547414 2.05824 1.455445 4.117163 2.768213 7.021227 2.69312 1.706666-5.515947 2.739541-11.320662 5.341866-16.680278 1.936043-3.988138 4.25984-5.948074 8.938838-5.404672 5.408768.628054 10.900821.749568 16.353962.704512 2.999638-.023893 4.617558.76527 5.183488 3.881643 1.110699 6.116011 3.482966 11.795797 7.141376 16.818176 1.847979 2.536789 1.010347 3.833173-1.142784 5.513216-5.537792 4.321963-11.722752 7.687509-17.562965 11.740501 1.237675 2.175659 3.269291 2.749782 4.933632 3.72463 83.236864 48.749909 172.239531 81.861973 267.272192 98.725205 63.251797 11.223723 126.953472 14.107989 191.026517 11.076267 70.868992-3.353942 139.914582-16.429739 207.270571-38.583638 127.516671-41.941674 237.301761-111.920469 328.875351-209.933653 58.7223-62.852437 105.14978-134.138539 139.72958-212.948309 12.46071-28.398934 23.8865-57.249792 32.97758-86.961494 13.80147-45.108565 24.5562-90.8499623 29.25021-137.8959357.62123-6.2347946 1.48207-12.43750397 1.8357-20.3216213" mask="url(#b)" transform="translate(167.36 743.237)"/><path d="m236.524612 597.502566c-1.0752 1.301846-2.075306 2.436438-.873813 4.00384.378197.493568.653995.436224 1.033557-.048469.866987-1.108651 1.034923-2.213888-.159744-3.955371m51.317419-33.398101c-6.272341 24.608085-8.792064 49.772544-9.392811 75.008-2.952533 123.972267 36.099414 233.781248 112.982016 330.485077 34.376363 43.238738 75.104256 79.732738 120.354134 111.280808 33.207637 23.15264 68.336298 42.88239 105.304746 59.3647 1.742848.77687 4.059819.87927 4.967766 3.11705-1.152342.56457-2.231638.22665-3.2768-.08738-75.8784-22.80857-145.148587-57.82391-204.75631-110.73604-65.312768-57.976151-111.936853-128.586412-142.545578-210.123436-25.008811-66.620758-36.895403-135.389184-34.542251-206.565376.120149-3.625643-.002048-7.261526-.089429-10.890582-.008192-.33792-.584363-.662869-.897024-.993962-2.400939.385024-2.35247 2.414592-2.706091 4.117845-7.806293 37.612885-11.298133 75.589632-8.914261 113.974613 3.80928 61.317803 17.405269 120.423083 39.746218 177.676288 7.054678 18.079744 16.264534 35.071318 23.855104 52.844544.34543.80896.746838 1.593344.91136 2.489686-21.583872-37.134336-40.6528-75.459926-55.62368-115.787776-9.429674-25.400662-17.18545-51.33312-23.107584-77.692928-11.496789-51.174059-14.366037-103.079254-10.259797-155.357867 4.340395-55.25504 16.881664-108.598613 36.846251-160.303104 16.820906-43.562325 38.467584-84.563968 65.302528-122.669739 68.687872-97.536 158.98624-168.032938 268.948138-213.889706 45.968043-19.1692803 93.530112-32.5918723 142.278656-42.1915309 1.999531-.3938987 4.087808-.3413334 6.084608-.7461547 1.899862-.3857067 3.98336.4573867 5.69071-.917504-16.336896 4.4168533-32.760491 8.6418773-48.62703 14.6650453-74.640042 28.3347623-141.668352 69.1391143-200.615936 123.0329173-22.718464 20.770816-43.137706 43.715243-62.130176 67.915093-6.705152 8.544256-13.897728 16.73967-19.531093 26.079915.008875-.006827-.009557.17408-.009557.17408s.114688-.234837.114688-.23552c1.444522-1.090901 2.988032-2.073259 4.317866-3.289771 29.554688-27.026773 60.818091-51.804842 94.624427-73.39281 28.833109-18.412203 59.277995-33.671851 90.314752-47.864491.990549-.453291 2.141525-.55296 3.809963-.963243-2.294443 2.553174-4.799147 3.57376-7.084715 4.86127-31.807488 17.915221-61.503488 38.778197-89.522176 62.218922-13.766656 11.518635-26.944171 23.561558-39.206229 36.586155-10.972502 11.655168-21.839872 23.475541-31.876438 35.930112-15.218005 18.885973-29.622954 38.397269-43.025066 58.671104-16.59631 25.105749-31.10912 51.333803-44.68736 78.142805-16.500054 32.576854-29.199019 66.623488-39.776256 101.505024-.518144 1.709398-2.28079 3.639296-.363862 5.623808 0 .000683.094208-.022528.094208-.022528-1.626112-.602794-1.452032.970752-2.008405 1.661611-.657408 2.431659-1.314816 4.863317-1.972224 7.294976"/><path d="m1193.67905 1147.35186c.91478-.55637 2.54498-1.28478 1.89645-2.23164-1.13323-1.65478-2.13811.10786-3.08838.8233-.69564.42598-1.77903.79121-.94618 1.83637.79462.99738 1.4807.03618 2.13811-.42803m-42.29871-49.4394c-18.78562 6.90312-37.67705 13.43419-57.2218 17.95481-18.41152 4.25779-36.98415 7.58102-55.66532 10.34923-1.29092.19115-2.65626.72567-3.89188-.28399.33382-2.19341 2.24938-2.04254 3.59901-2.39821 53.63781-14.1114 100.9746-40.53265 145.24212-73.33 15.43919-11.43877 27.74767-25.10234 38.36723-41.0194 44.24021-66.31287 72.78524-138.674171 85.33401-217.356283 1.89918-11.911168 2.94981-23.934976 3.28295-36.006571.18568-6.728363.17135-13.464917 1.74489-20.247893-2.12514.17408-2.06028 1.189205-1.93604 1.942869 3.63452 22.12864 2.8201 44.464128 3.05084 66.741589.31812 30.794411-2.75047 61.315755-7.86842 91.652779-.48401.993963-1.07793 2.258944-.04574 2.934784.65536.429397 1.29707-.777557 1.71145-1.510059 12.88397-16.51712 24.50159-33.888256 34.84604-52.097024 19.59116-34.485589 36.24618-70.302378 48.16759-108.191061 9.57304-30.424405 16.17988-61.405184 16.19217-93.504853.00137-2.233003.5516-4.516523-.66492-7.139328-1.67185 2.402986-.17612 4.565674.10718 6.387712 5.29886 34.015914 7.61925 68.240042 7.41035 102.640298-.46353 76.165803-14.32371 149.619371-44.66893 219.721046-35.31981 81.592315-88.67021 149.499225-157.20653 205.576195-71.62129 58.60147-152.86272 97.80019-243.123537 118.30545-54.04399 12.27776-108.760406 16.18466-164.041387 13.68473-90.901163-4.1117-175.737515-29.53147-255.649109-72.41045-25.813675-13.85062-50.637483-29.2666-74.276864-46.57015 2.415274-3.6905 5.834069-6.45667 8.854186-9.59011 12.316672 7.31205 24.521387 14.8207 36.967766 21.90405 64.011605 36.43119 132.141056 61.57585 204.780202 74.2004 111.51087 19.37954 219.774976 8.57771 324.347223-35.40104 49.33291-20.74693 94.99033-47.81739 136.90607-81.13221 1.47524-1.17282 4.70494-2.37636 3.35189-4.31718-1.68072-2.40981-3.99838.37683-5.75488 1.37967-31.09478 17.76026-63.53647 32.47582-97.57901 43.6538-28.8529 9.47405-58.38438 15.68836-88.568487 18.87915-3.531435.37342-7.058091.79121-11.677696 1.31072 2.911573-2.89451 5.772629-3.67753 8.361984-4.82099 59.609769-26.3209 111.829679-63.32007 157.918549-109.18844.31676-.31539.52907-.73523.79053-1.1066.63966-.61304 2.24665-.95778 1.22812-2.14699-.74411-.86767-1.85959.03277-2.7218.54955"/><path d="m320.74711 1164.47252c8.259584 5.67501 15.357952 12.74812 22.91712 19.24916 44.51055 38.2819 92.760747 71.04853 144.59631 98.54907 64.68608 34.31834 133.259946 57.36175 205.242368 70.44711 53.45553 9.71844 107.30769 14.12437 161.639082 11.88045 112.173056-4.6319 217.61638-33.41039 315.42477-88.84361 54.95603-31.14735 104.22955-69.8211 148.35644-115.03275 1.579-1.6186 3.08975-3.3041 4.90359-5.25039-4.50765-5.19645-10.1888-8.45004-15.86108-11.52204-2.78459-1.5087-4.08985-2.68698-3.56693-6.12762.67994-4.47761.90317-9.031 1.73329-13.51475.9216-4.98142.64717-10.00039-.50176-14.90944-.62191-2.65762.26214-3.80587 2.80644-4.22298 10.78818-1.76947 20.25404-6.63415 29.12802-12.75221 2.26578-1.56194 3.83932-1.53873 5.91599.38434 5.36235 4.96504 11.73573 8.58317 17.74934 12.67234 4.34585 2.95527 4.43801 2.88427 7.89982-1.54078 17.9712-22.97514 33.85071-47.36068 48.52189-72.5347 18.3535-31.492774 34.13812-64.247121 46.919-98.387281 8.44186-22.550528 15.64331-45.505194 21.96139-68.770474 11.70568-43.102891 19.06961-86.919168 22.64064-131.377835 2.1149-26.330453 2.01933-52.737365.86357-79.121749-.27511-6.290774.75162-12.621142-.2676-19.285334-2.2255 1.121622-1.99817 2.728619-1.66912 4.10351 5.21898 21.817344 6.04091 44.113237 6.99392 66.359978 1.53054 35.718486 1.30252 71.418539-2.47604 107.029163-2.47466 23.319893-5.73917 46.543531-11.3152 69.310464-3.02762 12.362411-6.3563 24.677717-9.586 37.004629-18.64431 71.15776-50.92625 135.875239-93.1014 195.809279-39.75987 56.50159-88.26607 104.46165-143.59484 145.68926-78.54353 58.52501-166.05525 97.32301-261.421734 118.63108-68.352683 15.27262-137.597611 21.00156-207.491072 16.12595-102.867627-7.1755-199.72096-35.25222-290.33472-84.80153-65.822038-35.9936-124.994902-80.66731-177.758891-133.91599-1.579691-1.59403-3.517099-2.92932-4.319232-5.18485 2.567509-1.80156 5.186901-3.54304 7.052629-6.14947"/></g><path d="m141.627051 875.157163c-7.223296-16.982016-12.421803-34.646699-17.569792-52.32367-11.792384-40.497152-20.025344-81.731584-24.1704963-123.689642-5.1862187-52.48751-4.9186134-104.933376 3.3225383-157.17376.177494-1.122987.279894-2.259627.486059-3.377152.372053-2.022059-.395264-2.940246-2.48832-2.950486-1.949696-.01024-4.3690667.575488-4.704256-2.481493-.3037867-2.766165 1.4465707-5.386923 4.816896-5.335723 4.621653.070315 4.325376-2.897237 4.844203-5.741226 11.885226-65.176235 33.964032-126.757547 64.96529-185.25184 16.46319-31.062699 35.667968-60.372992 56.907094-88.270848 20.61312-27.07456 43.629226-52.10112 68.294656-75.627179 21.116245-20.140032 43.631957-38.580907 67.166208-55.69536 20.719616-15.067136 42.40657-28.7409493 64.964608-41.046016 21.177685-11.5514027 42.577237-22.591488 64.776192-32.0075093 35.480234-15.0500694 72.157184-26.5857707 109.488128-36.2236587-3.556694 1.33188267-7.103147 2.6944853-10.672811 3.9908693-18.396501 6.680576-36.206592 14.7060054-54.020779 22.796288-10.231125 4.6475947-19.939328 10.174464-29.824341 15.3900374-12.259328 6.467584-23.965013 13.9352746-35.764907 21.2322986-13.469696 8.3305814-26.430805 17.3697707-39.354368 26.482688-11.132245 7.8506667-21.864448 16.2235737-32.550229 24.6831787-10.765653 8.523093-21.44256 17.216853-31.481173 26.484053-8.119638 7.496363-17.08783 14.155776-24.25856 22.751232-3.45839 4.145152-7.408982 7.970816-11.731627 11.360939-4.489216 3.519829-7.549611 8.432981-11.472213 12.524885-20.923734 21.826902-39.951702 45.277184-57.864875 69.566464-11.380053 15.43168-21.828949 31.576064-31.944704 47.911595-21.536768 34.779819-40.014507 71.112021-55.459157 108.963157-26.922326 65.979734-43.416235 134.459392-48.652971 205.593942-4.138325 56.216234-3.199659 112.289792 4.630528 168.168789 2.778453 19.827371 6.613675 39.460181 11.464021 58.888192 1.483435 5.939883 4.090539 11.789653 1.104555 17.993728-1.082709.802816-2.164053 1.608363-3.245397 2.413227" fill="#d33e35"/><path d="m0 81.4699179c142.537387-79.8890667 293.319339-101.6743254 451.764907-62.478336 113.671509 28.1197226 208.689152 88.5138771 288.641706 173.6765441-1.766058 1.226752-2.576384.172715-3.360085-.502443-26.656768-22.959445-56.123392-41.867946-86.235819-59.843242-61.728768-36.8476165-127.284565-64.7461551-196.937728-82.4989018-84.379648-21.5074133-169.895253-27.9599787-256.60689-17.9063467-65.697792 7.6171947-129.2472323 23.488512-190.902955 47.230976-2.10670933.811008-4.241408 1.5496534-6.363136 2.3217494" fill="#d33e35" mask="url(#c)" transform="translate(551.672)"/><path d="m389.788262 1432.67983c-22.443349-11.79511-46.660949-26.46835-70.060032-42.48371-39.533909-27.05817-76.210176-57.54265-110.052693-91.47665-36.292608-36.39091-67.66592-76.62046-95.348053-119.87012-42.6045443-66.56478-73.6119469-138.32875-96.6942723-213.698562-5.3896533-17.599146-10.5608533-35.263146-14.16465063-53.339477-.436224-2.187947-.811008-4.388181-1.33393067-6.558379 45.9844267 167.022588 169.6051196 390.637568 387.6536316 527.426898" fill="#095c86"/><path d="m1510.02467 463.35959c-.31471 1.119574-.89566 3.792896-1.81453 6.344022-2.54566 7.064234-4.98142 14.173525-5.87434 21.65009-.44579 3.731456-2.38456 5.410134-5.71324 6.61231-10.9213 3.943082-21.50332 8.659626-31.01082 15.44192-2.78869 1.98929-4.69197 1.401514-7.06765-.819883-11.62717-10.870784-23.83667-21.062997-36.90905-30.163627-2.90134-2.019328-3.63111-3.829077-2.21389-7.29361 4.32538-10.569728 6.69628-21.69583 7.90118-33.026048.35636-3.353259 1.44384-5.148672 4.79164-6.306475 10.94383-3.784704 21.87742-7.696384 31.52009-14.360576 1.77356-1.226069 3.25768-1.140736 4.90427.189099 8.36335 6.749525 17.63465 12.010154 27.40702 16.399701 2.73818 1.230165 4.21342 3.286357 5.00327 6.047061 1.33393 4.663296 3.51163 8.856235 7.03283 12.272299 1.54009 1.493675 2.49856 3.223552 2.04322 7.013717m-1376.590712 595.66025c-1.469781-4.35268-4.752042-7.6049-6.995285-11.5002-19.758421-34.30809-36.6114133-69.969236-50.7931306-106.939049-18.2224213-47.501995-31.7351253-96.259413-39.778304-146.494805-6.2723413-39.172779-8.579072-78.622038-7.9674027-118.289067.940032-61.001728 8.3879254-121.066837 24.8797867-179.904512 2.0063573-7.159808 4.204544-14.235648 7.1447893-20.980395-22.9758293 98.661035-25.6546133 198.41775-14.0219733 298.693291 11.6497067 100.426411 40.906752 195.637931 87.4871466 285.448877z" fill="#d33e35"/><path d="m205.983949 170.413193c-19.040256 21.164714-36.14447 43.821056-52.161878 67.336192-37.147306 54.537557-68.1055569 112.342357-91.7292369 173.986474-17.799168 46.443179-30.7848533 94.189568-37.7535146 143.501995-.3386027 2.398208-.7871147 4.781397-1.4165334 8.568149-.2955946-16.790186 2.0261547-31.945386 4.067328-47.118336 8.5640534-63.657984 26.8506454-124.339541 55.9172267-181.67808 25.4586882-50.221056 57.5720102-95.82865 95.6832422-137.235797 6.931115-7.529813 13.943467-14.985899 21.018624-22.379861 1.847979-1.931264 3.49184-4.27759 6.408875-4.862635-.002048-.006144-.034133-.118101-.034133-.118101" fill="#d33e35"/><path d="m990.237423 485.935787c.221184 4.532906.272384 9.08288.722261 13.593258.300374 3.009878-.784384 4.361558-3.555328 5.548715-9.611946 4.11648-18.846378 8.999595-26.998101 15.649451-2.519723 2.055509-4.388181 2.299904-7.027371-.0512-8.663722-7.716864-18.028544-14.52032-28.392789-19.812352-2.478763-1.266347-3.151189-2.719744-2.456917-5.402624 2.287616-8.839168 3.243349-17.864704 2.837162-26.985131-.132437-2.975061.80623-4.519936 3.71439-5.448363 10.215424-3.263829 19.758421-7.992661 28.594176-14.073173 2.366122-1.62816 3.915093-1.073835 5.834069.793259 7.196672 7.005525 15.250773 12.887381 24.303616 17.278976 2.420736 1.174186 3.183275 2.64465 3.018752 5.308416-.277845 4.516522-.076459 9.063082-.076459 13.597354zm-848.610372 389.221376c1.081344-.804864 2.162688-1.610411 3.245397-2.413227 3.205803-.287403 4.900864-5.091328 8.181077-3.588779 2.480128 1.135958 4.142422 4.077568 6.14127 6.240939 7.400789 8.013141 14.817962 16.022187 23.615488 22.553941 2.252117 1.672534 2.594133 3.099307 1.262933 5.622443-4.123989 7.813803-8.678059 15.463765-10.843477 24.154112-.459435 1.842517-1.612459 2.571605-3.2768 2.960725-7.983787 1.865728-15.779158 4.273494-22.938283 8.378368-1.645909.944128-2.988032.72431-4.297387-.480597-1.336661-1.230165-2.710869-2.425515-3.977898-3.723947-6.352896-6.509909-12.886699-12.825941-20.307968-18.122752-2.305366-1.645226-3.384662-3.148458-2.136747-6.183594 3.125248-7.600128 4.754773-15.633067 5.610155-23.782742.328362-3.130026 1.560576-4.588202 4.629162-5.709824 5.061974-1.849344 10.773846-2.161322 15.093078-5.905066" fill="#095c86"/><path d="m1379.2996 326.707405c-.98509 8.111445-1.41312 16.035157-.04164 23.936341.41643 2.39616-.34338 3.841365-2.43098 4.9664-9.01598 4.858539-17.58754 10.380629-25.12691 17.376597-1.71759 1.593344-3.1942 1.153024-4.7732-.181589-8.51559-7.195989-17.40186-13.840384-27.55721-18.621781-2.44941-1.153024-1.88348-3.262464-1.39674-5.313195 1.36739-5.758293 3.072-11.716608 1.93946-17.483776-1.42609-7.265621 1.06155-10.939051 7.54005-13.944149 6.3372-2.940246 11.91732-7.463595 17.04824-12.31599 2.20638-2.086912 3.86935-2.385237 6.31671-.192512 7.48544 6.707883 16.12595 11.747328 25.02861 16.304811 2.49105 1.275221 4.28851 2.559317 3.45361 5.468843" fill="#d33e35"/><path d="m201.669427 753.713493c-1.878698 3.467264-4.721322 5.794475-7.295658 8.331264-7.76943 7.657472-15.537494 15.327915-21.559296 24.493398-1.835008 2.794154-3.65295 3.347114-6.763862 2.20433-4.556117-1.674581-8.662357-3.855701-12.118698-7.309312-5.456555-5.451093-10.584064-11.264-16.902144-15.789397-2.00431-1.435648-2.432342-3.103403-1.20832-5.264043 1.563989-2.761386 2.948437-5.629269 4.608-8.330581 3.216042-5.234005 6.337194-10.509653 7.987882-16.480939.8192-2.96209 2.378411-4.401834 5.647019-4.782762 6.523563-.759808 12.991829-2.02752 19.457365-3.220139 1.75855-.324267 3.118422-.191829 4.122624 1.387861 5.708459 8.978432 14.088875 15.327232 21.87264 22.266539.823979.734549 1.459542 1.680725 2.152448 2.493781" fill="#095c86"/><path d="m483.030084 1174.14837c-3.020117 3.13344-6.439594 5.8996-8.854186 9.5901-4.163584 2.55113-6.815744 6.57613-9.721856 10.28779-1.923072 2.45555-3.515734 2.97301-6.160384 1.10182-5.916672-4.18748-12.23407-7.7271-18.717355-10.97728-1.179648-.59119-2.36544-1.44862-3.158699-2.48286-4.324693-5.64224-9.695232-10.07616-15.483562-14.11754-3.380566-2.36067-3.330731-2.98599-.339968-6.32286 3.46112-3.86117 7.555754-7.168 10.211328-11.73026 3.257685-2.50403 6.683306-4.72679 10.541738-6.21364 4.947968.56047 8.617984-2.42619 12.259328-4.89403 3.281579-2.22413 5.287936-2.09374 7.979008.9216 6.952278 7.78922 14.781099 14.66299 23.187456 20.89164 4.691286 3.47683 4.545195 3.59766 1.228118 8.71493-1.087488 1.67731-2.809174 3.02011-2.970966 5.23059m233.50784-485.730988c-.017066 4.31104-.068266 8.627542.899072 12.869632.574806 2.522454.216406 4.681728-2.747733 5.170518-6.550869 1.080661-11.321344 5.236053-16.239275 9.145685-6.138538 4.879019-6.779562 4.943872-12.867584.269653-5.754197-4.417536-11.380053-9.007104-17.22368-13.30176-2.37841-1.748309-2.612565-3.401045-1.097045-5.696853 3.794944-5.748736 4.881067-12.114603 4.184064-18.864811-.310613-3.006464.264192-4.919296 3.895296-5.682517 4.924757-1.035605 8.964096-4.204544 13.116757-7.002112 4.551339-3.066539 5.644971-2.953216 9.097216 1.242453 3.298646 4.008619 7.449942 6.529707 12.182187 8.357206 7.070379 2.731349 7.052629 2.762752 6.806187 10.090496-.03823 1.132544-.005462 2.267818-.005462 3.40241" fill="#d33e35"/><path d="m.13406991 34.8480429c1.77220266-8.2029227 3.63588266-15.712256 3.622912-23.4994347-.00341334-1.91146663.956416-2.93341863 2.72725333-3.32049063 6.05388796-1.323008 11.74254936-3.500032 16.73284266-7.25674666 1.8090667-1.36192 3.3512107-.718848 4.9506987.37546666 4.5274453 3.096576 9.304064 5.66818134 14.7442346 6.78638934 2.0022614.411648 3.1750827 1.40288 3.2180907 3.66114129.1256107 6.6505387 1.4554453 13.0757974 4.0577707 19.206144.8280746 1.9510614.7168 3.4577067-1.2868267 4.5943467-7.180288 4.0727893-13.2396373 9.558016-18.9446827 15.427584-1.9838293 2.0411733-3.6563626 2.2350507-5.8374826.5010773-6.258688-4.974592-13.2580694-8.7190186-20.45405869-12.1214293-2.13060267-1.0069333-4.22024534-2.0104533-3.530752-4.354048" fill="#d33e35" mask="url(#d)" transform="translate(1603.97 502.83)"/><path d="m441.346867 1143.28337c-3.858432 1.48685-7.28337 3.70961-10.541056 6.21363-29.717162-25.7809-58.66769-52.37623-84.751018-81.90498-24.385536-27.60636-47.454208-56.27631-68.506283-86.530729-.591189-.84992-1.723733-1.539414-1.23904-3.084971 9.000277 11.172523 17.793024 22.33822 26.84928 33.28614 39.126357 47.29993 82.748075 89.94134 131.859115 126.87292 2.171562 1.63362 4.222293 3.42835 6.329002 5.14799m748.603733 98.79996c-6.00064-8.34287-13.63354-14.43021-21.19953-20.54895-2.37841-1.92376-3.36077-3.20717-.88542-5.85455 3.72327-3.98131 6.61026-8.63505 9.45835-13.27992 3.8714-6.3133 10.38472-8.45619 16.8448-10.66325 1.10114-.37615 2.28079-.26829 3.25837.43349 4.37794 3.14368 9.79421 4.92749 12.84778 9.82016.47514.7605 1.01581 1.6739 1.7606 2.04118 6.70379 3.30684 6.53175 8.66918 4.7459 14.73468-.56593 1.9217-.49084 4.04343-.62191 6.07982-.09967 1.55717-.8506 2.52928-2.30605 2.97643-8.86374 2.71975-15.71976 8.82825-23.90289 14.26091m-89.08868-795.609636c-.01092 1.426773-.88542 2.133333-1.77016 2.849451-7.04512 5.705728-14.35033 11.14385-19.48945 18.823168-1.12845 1.686869-2.52518 1.632938-4.10078.68881-7.20827-4.318549-14.73945-7.99744-22.51707-11.160917-2.52724-1.027413-2.73067-2.848768-1.93673-4.961621 2.82965-7.535275 3.80792-15.383211 3.91714-23.349931.04301-3.083605 1.50938-3.810645 4.24551-3.760811 7.11134.131072 13.97896-1.344853 20.59946-3.828394 2.85696-1.07247 4.60049-.584363 6.06959 2.190677 3.72122 7.027371 8.28211 13.523627 13.13246 19.817131.68949.894293 1.28273 1.862314 1.85003 2.692437" fill="#095c86"/><path d="m1241.63509 590.67392c10.26253.106496 18.48252 8.278699 18.22856 18.123435-.24985 9.712981-8.8064 17.7664-18.86208 17.754126-10.11029-.012302-18.23607-8.213177-18.0695-18.236089.16657-10.043392 8.33604-17.749333 18.70302-17.641472m-1021.535233 469.41491c-.165888 9.43582-8.185173 17.59437-17.308331 17.60941-9.39008.01568-17.83057-8.49854-17.770814-17.92548.063124-9.90413 7.550612-17.45374 17.14754-17.28922 9.975125.17067 18.098176 8.14626 17.931605 17.60529m.17879-55.86029c-.408234 3.41675-.520192 6.8806.641707 10.12395 1.055403 2.94434.641707 4.41002-2.585259 5.49137-4.066645 1.36192-8.032938 3.20512-11.763029 5.33094-2.714965 1.54761-4.547925.97075-6.681941-.82876-3.81952-3.22013-7.709355-6.36655-11.707051-9.36072-2.180437-1.63294-2.854912-3.24813-1.3824-5.70778 2.717013-4.53632 4.362923-9.538216 5.180075-14.699859.638293-4.031147 2.62417-4.566357 6.128981-3.900757 6.244352 1.185792 12.540587 2.117632 18.835456 3.01329 2.708821.385707 4.138325 1.473878 3.751253 4.42095-.265557 2.022746-.28672 4.077566-.417792 6.117376" fill="#d33e35"/><path d="m1199.91692 377.161583c9.65018.029431 17.25918 7.458893 17.08237 16.679671-.1734 9.077419-8.04796 16.843435-17.20389 16.969046-9.34502.128341-17.07554-7.529814-16.96494-16.80384.11127-9.280854 7.81175-16.87279 17.08646-16.844877" fill="#095c86"/><path d="m1352.08223 638.658287c-1.4377.091477-2.2371-.760491-3.12798-1.430869-3.96766-2.98735-7.70321-6.314667-12.29756-8.38656-1.61314-.727723-2.54635-1.866411-2.03776-3.751254 1.13528-4.212053 1.03902-8.526506.87859-12.810922-.0983-2.610518 1.07384-3.635883 3.42426-4.065963 4.6906-.858112 9.19484-2.413227 13.58916-4.20864 2.94776-1.204224 5.05105-.96256 6.93043 1.886208 2.86038 4.337664 6.00884 8.486229 9.06104 12.694869 1.25679 1.732608 1.21173 3.213312-.39663 4.768427-4.87561 4.713131-9.66929 9.509547-14.51622 14.252032-.46968.459435-1.08886.765269-1.50733 1.052672m-167.054 70.278212c.12083 2.168832-1.28273 2.658304-2.37431 3.401728-3.70279 2.522454-7.60013 4.810752-11.03326 7.658838-2.02616 1.680725-3.51573 1.731925-5.31388.22801-3.65841-3.060394-7.49022-5.862741-11.82447-7.886848-2.08554-.973482-2.4692-2.319701-1.59949-4.366336 1.69848-3.999061 2.69108-8.155136 2.42074-12.551509-.16316-2.645333 1.38718-3.473408 3.76422-3.698005 3.84751-.363179 7.54757-1.42063 11.16502-2.786646 3.97448-1.501184 8.01928-.561834 9.69591 2.96687 2.61871 5.510485 1.98793 12.064085 5.09952 17.033898" fill="#d33e35"/><path d="m1575.12636 467.218773c.00614 8.749739-6.84851 15.679488-15.40028 15.569579-8.30191-.107179-15.49858-7.349589-15.62078-15.721131-.12015-8.198144 6.67239-14.925824 15.18592-15.041877 8.68147-.118101 15.82968 6.739968 15.83514 15.193429" fill="#095c86"/><path d="m1610.17747 632.707482c8.72653.138581 15.50472 6.687402 15.41802 14.894421-.08874 8.457557-7.40488 15.562752-15.87268 15.415296-8.19882-.142677-15.21391-7.322965-15.06918-15.425536.14541-8.158549 7.29634-15.015253 15.52384-14.884181" fill="#d33e35"/><path d="m1555.59069 790.850492c7.93668.000682 14.79134 6.763178 14.93402 14.731946.15564 8.682838-6.92771 15.850155-15.45626 15.639894-7.95785-.196608-14.94016-7.012352-15.09786-14.736043-.17203-8.400896 7.05673-15.63648 15.6201-15.635797m-559.16544-469.721498c8.83917-5.322752 17.408-5.287253 25.64574 1.294336 3.0324 8.121685 1.79132 14.813184-3.67207 19.794603-5.27974 4.814165-13.01367 5.455872-18.733734 1.553066-5.752149-3.925333-8.223403-11.291306-5.846357-17.932288.59665-1.667072 1.72305-3.145045 2.606421-4.709717m224.62853-7.111475c-7.42332-.051883-13.31336-6.030677-13.2848-13.484715.02946-7.680682 6.17005-13.879978 13.8009-13.931178 7.53186-.0512 13.80557 6.352213 13.71272 13.995349-.09216 7.550976-6.37337 13.47584-14.22882 13.420544" fill="#095c86"/><path d="m942.489259 1143.51854c7.606272.00752 13.359104 5.75284 13.274453 13.25603-.079189 7.07243-5.948075 12.76177-13.134507 12.73388-7.274496-.02809-13.430784-6.2308-13.316096-13.4145.114688-7.15639 5.800619-12.58291 13.17615-12.57541m-621.742149 20.95398c-1.865728 2.60643-4.48512 4.34791-7.052629 6.14947-10.232491-9.94373-18.980181-21.16745-27.693739-32.398-7.315456-9.42899-14.324394-19.09419-21.469184-28.65493l.008192.00546c2.118998 2.03844 4.415488 3.92328 6.327638 6.1399 12.01425 13.9305 25.440938 26.35298 39.770794 37.85182 3.879595 3.11296 7.529814 6.53995 10.108928 10.90628m1221.67992-459.566348c.69018-3.776512.94277-6.918827.42735-10.087766-.38297-2.356565.89771-3.162794 3.01534-3.486378 4.01749-.613035 8.02543-1.316182 12.00401-2.142208 2.12446-.441003 3.31162.354986 4.45304 2.074624 2.12104 3.19488 5.71938 5.976746 6.41706 9.396906.77893 3.81952-4.18747 5.827926-6.28258 8.923819-3.97448 5.872981-4.17928 5.726208-10.42978 2.587989-2.2214-1.115477-4.4148-2.304682-6.70515-3.260416-2.16474-.90385-3.38535-2.179072-2.89929-4.00657m-742.803029-146.749645c.024494 7.520939-5.462098 13.294933-12.628733 13.290158-6.888789-.005465-12.199936-5.230595-12.230079-12.032003-.029931-6.783659 6.302485-12.548779 13.626815-12.404736 6.680576.131072 11.21007 4.626432 11.231997 11.146581m-511.782311 5.947665c.657408-2.431659 1.315498-4.863317 1.972906-7.295659 1.786539.798038 2.377046.148822 2.008406-1.660245 0 0-.094891.022528-.094891.022528 1.286827 1.534635 2.422101.066219 3.587413-.21504 6.21568-1.500501 12.199936 2.326528 13.109931 8.42752.950955 6.37952-3.355307 12.010837-9.568256 12.510549-5.262677.423254-8.486229-2.029568-9.552555-7.391232-.3072-1.542826-.142677-3.205802-1.462954-4.398421m766.87804-29.364292c-5.15482.107861-9.47337-4.078251-9.66998-9.373696-.19729-5.317291 3.8045-9.616043 9.13818-9.816064 5.29613-.197974 9.89047 3.82976 10.14238 8.89105.26282 5.280427-4.3165 10.187435-9.61058 10.29871m233.99499 192.390895c-.11332 4.9152-4.39364 9.20576-9.16958 9.190101-5.09679-.016427-9.5587-4.586197-9.47132-9.700053.08807-5.161643 4.04071-9.05216 9.14364-9.000278 5.3446.054614 9.61604 4.332203 9.49726 9.51023m-610.90905-173.34467c-5.019648-.010953-8.347648-3.523955-8.177664-8.63235.135168-4.070059 2.878806-6.623915 7.015766-6.531755 4.260522.094891 8.384512 4.530176 8.383147 9.014614-.002049 3.856384-2.706774 6.159018-7.221249 6.149491m402.86727-152.947879c-1.38991-8.238421-.40414-6.86353 6.37133-6.888789 2.81941-.010923 4.23799.932523 4.29534 3.821568.03618 1.807701.27238 3.610624.39867 5.41696.50518 7.231488.35772 7.254699-6.67511 6.869675-2.87471-.157696-4.10419-1.178283-4.00999-4.067328.05803-1.798144-.25531-3.608576-.38024-5.152086m-654.860835 326.64658c.16384-2.941611 1.260202-5.395798 3.799722-6.892886 3.635883-2.144938 5.69071-2.432341 7.088128 2.28079.841728 2.838528 1.887574 5.62449 1.907371 8.6016.019115 2.7648-1.294336 4.83328-4.077568 5.58353-2.721109.733867-4.93568-.216405-6.464171-2.555221-1.391957-2.128555-2.092373-4.513109-2.253482-7.017813m455.083144 492.254544c.054613 3.41607-2.872661 6.37543-6.451883 6.5222-3.55328.14609-7.358464-3.01261-7.632213-6.33378-.271701-3.30957 3.171669-6.67375 7.0144-6.85329 3.764224-.17613 7.008939 2.8829 7.069696 6.66487m224.474521-588.98568c-3.00032-.066219-5.65999-2.875392-5.45451-5.761707.19866-2.792789 3.21263-5.532331 5.98836-5.442901 2.97711.096256 5.67842 2.9696 5.4545 5.801984-.22801 2.88768-3.08702 5.466794-5.98835 5.402624m-489.302493-11.182149c-2.945707.06144-4.845568-1.624064-4.967766-4.407296-.152234-3.462485 4.005206-7.843157 7.385771-7.604906 2.777771.195925 3.84 2.155178 4.022955 4.657834.278528 3.807915-2.80576 7.278592-6.44096 7.354368m-430.632619 69.539499c-.154283-2.506752.815104-4.035243 3.400363-4.123307 2.753877-.09489 5.279061 1.936726 5.089962 4.274859-.104448 1.301163-.578901 2.687659-1.266346 3.801771-1.084758 1.757866-2.647382 3.5328-4.856491 3.17713-2.459648-.396629-1.376939-2.947072-1.882112-4.531541-.273067-.856064-.338603-1.776981-.485376-2.598912m138.580036 59.293218c2.38319-.179541 5.136384 1.952427 5.343915 4.138325.233472 2.461014-2.174293 4.621654-5.330944 4.784128-2.486272.127659-4.554069-1.59744-4.53632-3.784704.018432-2.240512 2.430976-4.980053 4.523349-5.137749" fill="#d33e35"/><path d="m1270.94975 478.799872c2.83716.065536 4.28715 1.637035 4.74044 4.082347.43008 2.315605-2.04595 4.923392-4.44894 4.925441-2.12992.002047-4.41207-2.222764-4.25916-4.391596.1775-2.510165 1.59949-4.092587 3.96766-4.616192" fill="#095c86"/><path d="m1144.34028 880.280166c2.80098 2.640555 1.79473 5.187584.35976 7.572139-1.04516 1.734656-2.85013 2.049365-4.79573 1.684821-1.96403-.36864-2.91158-1.308672-1.79269-3.263829 1.49095-2.603008 3.66797-4.49536 6.22866-5.993131m361.94659-268.181299c2.19613 1.073152 4.42163 2.091008 6.57544 3.242667 1.11343.595285 2.69107 1.260203 1.51689 2.947072-.90044 1.292971-2.03025.44032-2.86993-.249173-2.03299-1.670486-4.41208-2.980523-5.2224-5.940566m-258.55727 84.031556c-.1024 1.916246-.91 3.309568-2.75183 3.425622-2.08487.131754-3.56898-1.092267-3.54714-3.211264.01775-1.755819 1.32233-2.910891 3.13412-2.92864 1.78654-.017067 2.95868.946858 3.16485 2.714282" fill="#d33e35"/><path d="m1388.87427 280.007339c-.18159.352256-.27579.858794-.56388 1.021269-.68403.386389-1.30731.150869-1.34417-.688128-.01229-.278528.49084-.765269.8151-.820565.327-.055979.725.306517 1.09295.487424" fill="#095c86"/><path d="m.69399893 1.183744c-.118784-.39458133-.23825066-.78916267-.3584-1.183744-.118784.17954133-.35498666.37341867-.33450666.53521067.0512.405504.21845333.79598933.33928533 1.191936.11741867-.18090667.23483733-.36181334.35362133-.54340267" fill="#095c86" mask="url(#e)" transform="translate(0 899.033)"/><g fill="#d33e35"><path d="m207.269137 167.499366c-1.307989.576854-1.250645 1.762646-1.29024 2.90816.004779.005462.037547.117419.038912.123563.398677-.994645.795989-1.995435 1.192619-2.996224zm-72.420557 892.949164c.118102.31403.236203.62874.354304.94344.546134-.53589.378198-.84104-.314709-.97689.000683 0-.039595.03345-.039595.03345m884.95152-46.37887c-1.21856.58777-1.69984-.26897-1.66844-.67243.07168-.92433.93184-1.30799 1.79405-1.3469.2915-.01297.75503.32563.87723.6144.55705 1.31755-.90727 1.01786-1.00284 1.40493m274.23846-819.325067c.83968.111957 1.30185.5632 1.29161 1.439061 0 0 .11059-.096256.11059-.096256-1.00625.869035-1.49026.086699-1.99407-.631466.19524-.238934.39253-.475819.59187-.711339"/><path d="m133.389926 1059.05418c-.018432.99192.477184 1.44726 1.458176 1.39537.000683-.00136.04096-.03413.040278-.03413.048469-1.0199-.514731-1.40425-1.45408-1.39674 0 .00137-.044374.0355-.044374.0355m1163.397804-861.600219c-1.03629.124245-1.73534-.084651-1.34758-1.36602.00068-.000679-.10991.095577-.10991.095577.8704.040277 1.32232.494933 1.35509 1.366016z"/><path d="m1296.68506 197.549261c.77277.096256 1.22675.543402 1.4138 1.284778l.10445-.103082c-.93321.086698-1.49982-.233472-1.41585-1.276591 0-.000679-.1024.094895-.1024.094895m-3.2383-2.093602c-.65536-.4608-1.6739-.953686-.55228-1.76879.45124-.328362 1.00352.413696 1.14415 1.057451-.19934.23552-.39663.473088-.59187.711339"/><path d="m1298.09859 198.833766c.1536.129707.30651.260096.45943.389803-.11947-.162475-.23893-.324949-.35635-.490155.00205-.00273-.10308.100352-.10308.100352m-113.32069 32.782473.13175.142677s-.10854-.202752-.10922-.202069c-.00069.000683-.02253.059392-.02253.059392m-574.001495 541.387093c.641707.679936.985771 1.507328.236203 2.194091-.260096.238251-1.089536-.145408-1.65888-.239616.473771-.647851.948224-1.301163 1.422677-1.954475m-403.565772-605.468672.1536-.212992s-.1024.179542-.098987.178859c.004096-.001365-.054613.034133-.054613.034133"/></g><g fill="#fefeff"><path d="m236.524612 597.502566c1.194667 1.741483 1.026731 2.84672.159744 3.955371-.379562.484693-.65536.542037-1.033557.048469-1.201493-1.567402-.201387-2.701994.873813-4.00384m55.298321-42.354483c.36864 1.80975-.221866 2.458283-2.008405 1.660246.555691-.689494.382293-2.26304 2.008405-1.660246m102.380886-258.006152-.114688.23552s.017749-.180907.008874-.174763c-.008874.006144.105814-.060757.105814-.060757m798.282411 848.800429c.95095-.71475 1.95584-2.4774 3.08907-.82193.64853.94686-.98168 1.67526-1.89645 2.23163-.39731-.47035-.79463-.94003-1.19262-1.4097m114.5972-248.60604c-.41369.731819-1.0554 1.939456-1.71144 1.509376-1.03219-.67584-.43827-1.940139.04574-2.934784.55432.475136 1.11001.950272 1.6657 1.425408m-155.70302 200.576c.86153-.51678 1.97769-1.41722 2.72179-.54886 1.01854 1.18852-.58845 1.53327-1.22811 2.1463-.49767-.5318-.99601-1.06496-1.49368-1.59744"/><path d="m1193.67905 1147.35186c-.65741.46421-1.34349 1.42541-2.13811.42803-.83285-1.04516.25054-1.41039.94549-1.83705.39732.46967.79531.93934 1.19262 1.40902"/></g></g></g></svg>