<svg height="44" viewBox="0 0 300 44" width="300" xmlns="http://www.w3.org/2000/svg"><g fill="none" fill-rule="evenodd"><path d="m7.6916556 0h284.6166884c2.674557 0 3.644415.27847683 4.622193.80139811s1.745144 1.290287 2.268065 2.26806478.801398 1.94763649.801398 4.62219271v28.6166888c0 2.6745562-.278477 3.6444149-.801398 4.6221927s-1.290287 1.7451435-2.268065 2.2680648-1.947636.8013981-4.622193.8013981h-284.6166884c-2.67455622 0-3.64441493-.2784768-4.62219271-.8013981s-1.7451435-1.290287-2.26806478-2.2680648-.80139811-1.9476365-.80139811-4.6221927v-28.6166888c0-2.67455622.27847683-3.64441493.80139811-4.62219271s1.290287-1.7451435 2.26806478-2.26806478 1.94763649-.80139811 4.62219271-.80139811z" fill="#000"/><g fill="#fff" fill-rule="nonzero" transform="translate(72.453857 13.586)"><path d="m14.112 15.414h-2.037l-.189-1.89c-.364.616-.938 1.1375-1.722 1.5645s-1.729.6405-2.835.6405c-2.03 0-3.759-.7035-5.187-2.1105s-2.142-3.2935-2.142-5.6595c0-1.568.3605-2.954 1.0815-4.158s1.6415-2.1035 2.7615-2.6985 2.338-.8925 3.654-.8925c1.722 0 3.1675.427 4.3365 1.281s1.9635 1.939 2.3835 3.255l-2.373.903c-.266-.896-.777-1.638-1.533-2.226s-1.694-.882-2.814-.882c-1.33 0-2.485.469-3.465 1.407s-1.47 2.275-1.47 4.011c0 1.722.476 3.0625 1.428 4.0215s2.114 1.4385 3.486 1.4385c1.344 0 2.3695-.3535 3.0765-1.0605s1.1025-1.4665 1.1865-2.2785h-4.914v-2.205h7.287z"/><path d="m19.047 9.177h5.019c-.028-.644-.2555-1.183-.6825-1.617s-1.0395-.651-1.8375-.651c-.728 0-1.316.2275-1.764.6825s-.693.9835-.735 1.5855zm5.292 2.667 2.058.651c-.294.938-.8435 1.7115-1.6485 2.3205s-1.7955.9135-2.9715.9135c-1.456 0-2.6915-.497-3.7065-1.491s-1.5225-2.324-1.5225-3.99c0-1.568.4935-2.856 1.4805-3.864s2.1525-1.512 3.4965-1.512c1.568 0 2.793.4795 3.675 1.4385s1.323 2.2505 1.323 3.8745c0 .434-.021.693-.063.777h-7.476c.028.77.3115 1.407.8505 1.911s1.1865.756 1.9425.756c1.316 0 2.17-.595 2.562-1.785z"/><path d="m32.34 2.058v3.129h2.121v2.163h-2.121v4.746c0 .448.105.7735.315.9765s.539.3045.987.3045c.28 0 .56-.028.84-.084v2.016c-.364.154-.861.231-1.491.231-.952 0-1.701-.2695-2.247-.8085s-.819-1.2845-.819-2.2365v-5.145h-1.89v-2.163h.525c.518 0 .91-.147 1.176-.441s.399-.679.399-1.155v-1.533z"/><path d="m40.404 2.058v3.129h2.121v2.163h-2.121v4.746c0 .448.105.7735.315.9765s.539.3045.987.3045c.28 0 .56-.028.84-.084v2.016c-.364.154-.861.231-1.491.231-.952 0-1.701-.2695-2.247-.8085s-.819-1.2845-.819-2.2365v-5.145h-1.89v-2.163h.525c.518 0 .91-.147 1.176-.441s.399-.679.399-1.155v-1.533z"/><path d="m47.838 15.414h-2.415v-10.227h2.415zm-2.331-12.705c-.308-.308-.462-.679-.462-1.113s.154-.8085.462-1.1235.679-.4725 1.113-.4725c.448 0 .826.154 1.134.462s.462.686.462 1.134c0 .434-.154.805-.462 1.113s-.686.462-1.134.462c-.434 0-.805-.154-1.113-.462z"/><path d="m53.823 9.513v5.901h-2.436v-10.227h2.373v1.365c.322-.56.7525-.9765 1.2915-1.2495s1.1165-.4095 1.7325-.4095c1.204 0 2.121.378 2.751 1.134s.945 1.729.945 2.919v6.468h-2.436v-6.048c0-.686-.168-1.2355-.504-1.6485s-.868-.6195-1.596-.6195c-.672 0-1.1935.2275-1.5645.6825s-.5565 1.0325-.5565 1.7325z"/><path d="m63.105 15.981 2.247-.588c.084.644.3605 1.1725.8295 1.5855s1.0465.6195 1.7325.6195c1.932 0 2.898-1.022 2.898-3.066v-1.071c-.238.434-.616.791-1.134 1.071s-1.127.42-1.827.42c-1.372 0-2.5025-.469-3.3915-1.407s-1.3335-2.128-1.3335-3.57c0-1.386.441-2.562 1.323-3.528s2.016-1.449 3.402-1.449c1.498 0 2.506.497 3.024 1.491v-1.302h2.352v9.261c0 1.512-.427 2.7685-1.281 3.7695s-2.177 1.5015-3.969 1.5015c-1.316 0-2.422-.357-3.318-1.071s-1.414-1.603-1.554-2.667zm5.145-3.108c.784 0 1.4175-.2625 1.9005-.7875s.7245-1.2285.7245-2.1105c0-.868-.245-1.5645-.735-2.0895s-1.12-.7875-1.89-.7875c-.784 0-1.4245.2625-1.9215.7875s-.7455 1.2215-.7455 2.0895c0 .882.245 1.5855.735 2.1105s1.134.7875 1.932.7875z"/><path d="m92.211 4.011-2.268.714c-.098-.574-.385-1.099-.861-1.575s-1.162-.714-2.058-.714c-.742 0-1.3545.21-1.8375.63s-.7245.924-.7245 1.512c0 1.022.581 1.659 1.743 1.911l2.142.441c1.288.252 2.282.763 2.982 1.533s1.05 1.687 1.05 2.751c0 1.232-.4725 2.2925-1.4175 3.1815s-2.2295 1.3335-3.8535 1.3335c-1.75 0-3.115-.4585-4.095-1.3755s-1.533-1.9845-1.659-3.2025l2.352-.672c.084.84.42 1.547 1.008 2.121s1.386.861 2.394.861c.868 0 1.5365-.1925 2.0055-.5775s.7035-.8785.7035-1.4805c0-.49-.175-.9135-.525-1.2705s-.84-.6055-1.47-.7455l-2.1-.441c-1.162-.238-2.0825-.721-2.7615-1.449s-1.0185-1.638-1.0185-2.73c0-1.246.497-2.317 1.491-3.213s2.184-1.344 3.57-1.344c1.582 0 2.793.3815 3.633 1.1445s1.365 1.6485 1.575 2.6565z"/><path d="m98.238 2.058v3.129h2.121v2.163h-2.121v4.746c0 .448.105.7735.315.9765s.539.3045.987.3045c.28 0 .56-.028.84-.084v2.016c-.364.154-.861.231-1.491.231-.952 0-1.701-.2695-2.247-.8085s-.819-1.2845-.819-2.2365v-5.145h-1.89v-2.163h.525c.518 0 .91-.147 1.176-.441s.399-.679.399-1.155v-1.533z"/><path d="m102.648 12.642c0-.868.2835-1.5645.8505-2.0895s1.3125-.8575 2.2365-.9975l2.625-.399c.504-.07.756-.315.756-.735 0-.462-.161-.8365-.483-1.1235s-.805-.4305-1.449-.4305c-.616 0-1.106.1715-1.47.5145s-.574.7875-.63 1.3335l-2.226-.504c.098-.924.539-1.7115 1.323-2.3625s1.778-.9765 2.982-.9765c1.484 0 2.5795.357 3.2865 1.071s1.0605 1.631 1.0605 2.751v5.082c0 .672.042 1.218.126 1.638h-2.268c-.07-.21-.105-.644-.105-1.302-.672 1.078-1.722 1.617-3.15 1.617-1.036 0-1.8725-.3045-2.5095-.9135s-.9555-1.3335-.9555-2.1735zm3.927 1.176c.756 0 1.3685-.2065 1.8375-.6195s.7035-1.0885.7035-2.0265v-.462l-2.667.399c-.91.154-1.365.616-1.365 1.386 0 .364.133.6755.399.9345s.63.3885 1.092.3885z"/><path d="m120.834 5.124v2.478c-.28-.042-.546-.063-.798-.063-1.834 0-2.751 1.001-2.751 3.003v4.872h-2.436v-10.227h2.373v1.638c.238-.546.623-.9765 1.155-1.2915s1.134-.4725 1.806-.4725c.224 0 .441.021.651.063z"/><path d="m126.798 2.058v3.129h2.121v2.163h-2.121v4.746c0 .448.105.7735.315.9765s.539.3045.987.3045c.28 0 .56-.028.84-.084v2.016c-.364.154-.861.231-1.491.231-.952 0-1.701-.2695-2.247-.8085s-.819-1.2845-.819-2.2365v-5.145h-1.89v-2.163h.525c.518 0 .91-.147 1.176-.441s.399-.679.399-1.155v-1.533z"/><path d="m133.413 9.177h5.019c-.028-.644-.2555-1.183-.6825-1.617s-1.0395-.651-1.8375-.651c-.728 0-1.316.2275-1.764.6825s-.693.9835-.735 1.5855zm5.292 2.667 2.058.651c-.294.938-.8435 1.7115-1.6485 2.3205s-1.7955.9135-2.9715.9135c-1.456 0-2.6915-.497-3.7065-1.491s-1.5225-2.324-1.5225-3.99c0-1.568.4935-2.856 1.4805-3.864s2.1525-1.512 3.4965-1.512c1.568 0 2.793.4795 3.675 1.4385s1.323 2.2505 1.323 3.8745c0 .434-.021.693-.063.777h-7.476c.028.77.3115 1.407.8505 1.911s1.1865.756 1.9425.756c1.316 0 2.17-.595 2.562-1.785z"/><path d="m145.257 10.269c0 .98.252 1.7675.756 2.3625s1.169.8925 1.995.8925c.798 0 1.449-.301 1.953-.903s.756-1.393.756-2.373c0-.966-.245-1.736-.735-2.31s-1.141-.861-1.953-.861-1.477.2905-1.995.8715-.777 1.3545-.777 2.3205zm7.812-10.059v13.335c0 .686.035 1.309.105 1.869h-2.331c-.07-.392-.105-.833-.105-1.323-.252.462-.644.84-1.176 1.134s-1.141.441-1.827.441c-1.456 0-2.639-.511-3.549-1.533s-1.365-2.31-1.365-3.864c0-1.498.4585-2.765 1.3755-3.801s2.0825-1.554 3.4965-1.554c.812 0 1.4665.147 1.9635.441s.8435.637 1.0395 1.029v-6.174z"/></g></g></svg>