<svg height="254" viewBox="0 0 254 254" width="254" xmlns="http://www.w3.org/2000/svg"><path d="m126.45-0c-69.83693 0-126.45 57.51227-126.45 128.45634 0 59.9092 40.37127 110.2363 94.98362 124.44366-.03653-14.84523-.0843-33.05403-.1124-38.72742-36.49066 8.06189-44.19006-15.72195-44.19006-15.72195-5.96563-15.40161-14.56423-19.49859-14.56423-19.49859-11.90316-8.26983.89639-8.10123.89639-8.10123 13.17047.93854 20.10836 13.73247 20.10836 13.73247 11.69803 20.36969 30.6852 14.47993 38.17104 11.07702 1.17739-8.60984 4.57468-14.49117 8.32884-17.81821-29.13408-3.36919-59.76308-14.79465-59.76308-65.85235 0-14.54737 5.12544-26.43367 13.5161-35.76568-1.36285-3.35795-5.85323-16.91058 1.27012-35.2655 0 0 11.0152-3.57994 36.0804 13.65941 10.46444-2.95331 21.68477-4.43418 32.83204-4.48476 11.14727.05058 22.37603 1.53145 32.86014 4.48476 25.0371-17.23935 36.03544-13.65941 36.03544-13.65941 7.14021 18.35492 2.64983 31.90755 1.28698 35.2655 8.41033 9.33201 13.49924 21.21831 13.49924 35.76568 0 51.18134-30.6852 62.44663-59.89515 65.74838 4.70394 4.13632 8.89646 12.24317 8.89646 24.67461 0 9.87153-.04496 32.59881-.08711 49.8494 53.46587-14.98854 92.74686-64.72273 92.74686-123.80579 0-70.94407-56.61307-128.45634-126.45-128.45634z" fill="#fff" transform="translate(.407 .407)"/></svg>