<svg height="256" viewBox="0 0 256 256" width="256" xmlns="http://www.w3.org/2000/svg"><path d="m45 0c-24.853 0-45 20.147-45 45s20.147 45 45 45 45-20.147 45-45-20.147-45-45-45zm-13.813 69.956h-10.365v-33.339h10.365zm-5.182-37.894c-3.32 0-6.005-2.692-6.005-6.007 0-3.318 2.685-6.011 6.005-6.011 3.313 0 6.005 2.692 6.005 6.011 0 3.315-2.693 6.007-6.005 6.007zm43.995 37.894h-10.357v-16.213c0-3.867-.067-8.84-5.385-8.84-5.392 0-6.215 4.215-6.215 8.562v16.491h-10.357v-33.339h9.939v4.559h.141c1.383-2.622 4.764-5.385 9.804-5.385 10.493 0 12.43 6.903 12.43 15.88z" transform="matrix(2.81 0 0 2.81 1.406593 1.406593)"/></svg>