<svg height="2048" viewBox="0 0 2048 2048" width="2048" xmlns="http://www.w3.org/2000/svg" xmlns:xlink="http://www.w3.org/1999/xlink"><linearGradient id="a" x1="24.419%" x2="75.194%" y1="75.581%" y2="25.194%"><stop offset="0" stop-color="#446eff"/><stop offset=".36661" stop-color="#2e96ff"/><stop offset=".83221" stop-color="#b1c5ff"/></linearGradient><path d="m1052.99468 508.031405c-9.216-31.315349-16.23516-63.339163-21.05749-96.071442v-94.39613c183.46746 2.019423 350.15323 73.975665 474.65258 190.467572zm-58.924057 0c9.676797-31.853545 17.006737-64.438177 21.990997-97.75747v-92.710102c-183.471034 2.019423-350.155611 73.976855-474.652578 190.467572zm-463.589804 15.875572h458.551962c-6.65719 20.115646-14.263367 39.933618-22.820911 59.456297-36.69254 86.404168-86.76733 161.755089-150.224372 226.050382zm-22.450605-15.875572h-254.015107v15.875572h248.7296c-122.852614 128.01786-199.002493 301.200074-201.058828 492.154643h-301.685879v15.87676h301.685879c2.056335 190.95576 78.206214 364.13083 201.058828 492.15464h-248.7296v15.872h254.015107v254.02345h15.876763v-248.73675c128.01786 122.85619 301.200074 199.0013 492.154643 201.06121v301.68707h15.87557v-301.68707c190.95695-2.05991 364.13202-78.20502 492.15583-201.06121v248.73675h15.872v-254.02345h254.02345v-15.872h-248.73675c122.85619-128.02381 199.0013-301.19888 201.06121-492.15464h301.68707v-15.87676h-301.68707c-2.05991-190.954569-78.20502-364.136783-201.06121-492.154643h248.73675v-15.875572h-254.02345v-254.016298h-15.872v248.7296c-128.02381-122.852614-301.19888-199.002493-492.15583-201.057637v-301.68707h-15.87557v301.68707c-190.954569 2.055144-364.136783 78.205023-492.154643 201.057637v-248.7296h-15.876763zm523.906976 1222.409525c183.46746-2.02419 350.15323-73.97805 474.65258-190.47591h-453.59509c-9.216 31.31535-16.23516 63.34512-21.05749 96.0774zm-15.87557-92.71963c-4.98426-33.31572-12.3142-65.90511-21.990997-97.75628h-452.661581c124.495777 116.49786 291.181544 188.45172 474.652578 190.47591zm-698.497787-621.65968h94.404465c32.728707-4.82114 64.750139-11.8403 96.061916-21.056299v-453.595088c-116.490716 124.495776-188.446958 291.180353-190.466381 474.651387zm92.701767 15.87676h-92.701767c2.019423 183.46627 73.975665 350.15204 190.466381 474.65139v-452.6592c-31.854735-9.67799-64.44294-17.00912-97.764614-21.99219zm1320.17533-15.87676c-2.02419-183.471034-73.97805-350.156801-190.47591-474.652578v453.596279c31.31535 9.215999 63.33321 16.235159 96.06549 21.056299zm-92.70772 15.87676c-33.31572 4.98307-65.90512 12.3142-97.76819 21.99219v452.6592c116.49786-124.49935 188.45172-291.18512 190.47591-474.65139zm-113.64019 485.58199v-458.55196c-20.11088 6.656-39.936 14.26337-59.45153 22.82091-86.40893 36.69254-161.75628 86.76733-226.05396 150.22556zm0-527.394528v-465.146047l-1.07162-1.072818h-465.14605c6.44882 20.115646 13.81805 39.933618 22.10768 59.456297 38.52503 87.886586 90.29418 164.335331 155.30627 229.347424 65.0121 65.012093 141.46679 116.781246 229.35219 155.30746 19.51553 8.289637 39.34065 15.658865 59.45153 22.107684zm-1000.186043 532.895558v-464.05299c20.115646 6.656 39.933618 14.26337 59.456297 22.82091 87.886586 37.32123 164.335331 88.48789 229.347424 153.49998 65.012093 65.0121 116.178753 141.46679 153.501172 229.35219 8.557544 19.51553 16.163721 39.34065 22.820911 59.45153h-464.054176zm0-532.895558v-450.340912l280.803423 280.803423c-63.258195 61.329266-137.040967 110.472931-221.347126 147.429805-19.522679 8.289637-39.340651 15.658865-59.456297 22.107684zm533.968373 533.967178h450.34567l-280.81414-280.80223c-61.3245 63.26177-110.46697 137.0374-147.42385 221.3507-8.28963 19.51553-15.65886 39.34065-22.10768 59.45153zm-200.259871-666.477541c-70.10947 70.108279-152.233079 125.840074-245.814772 167.266831 93.591219 40.25272 175.7184 95.40822 245.813581 165.5034 70.096372 70.09876 125.250679 152.22117 165.503402 245.81001 41.42676-93.57693 97.15855-175.69935 167.26802-245.81001 70.09876-70.09518 152.22117-125.25068 245.81001-165.5034-93.57693-41.426757-175.69935-97.158552-245.81001-167.266831-70.10947-70.10947-125.84126-152.233079-167.26802-245.814772-40.252723 93.592409-95.40703 175.719591-165.502211 245.814772z" fill="url(#a)" fill-rule="evenodd"/></svg>