<svg height="1597" viewBox="0 0 3021 1597" width="3021" xmlns="http://www.w3.org/2000/svg" xmlns:xlink="http://www.w3.org/1999/xlink"><linearGradient id="a" x1="50%" x2="50%" y1="0%" y2="100%"><stop offset="0" stop-color="#fff"/><stop offset="1" stop-color="#fff"/></linearGradient><mask id="b" fill="#fff"><path d="m0 0h645.000005v621.68401h-645.000005z" fill="#fff" fill-rule="evenodd"/></mask><mask id="c" fill="#fff"><path d="m0 0h240.091317v34.2487554h-240.091317z" fill="#fff" fill-rule="evenodd"/></mask><g fill="none" fill-rule="evenodd"><path d="m0 0h3021v1597h-3021z" fill="url(#a)"/><g transform="translate(1084 509)"><text fill="#211f2b" font-family="SFCompactRounded-Regular, SF Compact Rounded" font-size="201" letter-spacing="-1.511"><tspan x="0" y="191">Metadata Gen</tspan></text><text fill="#000" font-family="SFCompactDisplay-Medium, SF Compact Display" font-size="66" font-weight="400" letter-spacing="-.496"><tspan x="0" y="302">Effortlessly Extract and Process Metadata</tspan>  <tspan font-family="SFCompactDisplay-Thin, SF Compact Display" font-size="54" font-weight="300" letter-spacing="-.406" x="0" y="420">A powerful Rust library for extracting, validating, and processing</tspan> <tspan font-family="SFCompactDisplay-Thin, SF Compact Display" font-size="54" font-weight="300" letter-spacing="-.406" x="0" y="484">metadata in YAML, TOML, and JSON formats from any content or data</tspan> <tspan font-family="SFCompactDisplay-Thin, SF Compact Display" font-size="54" font-weight="300" letter-spacing="-.406" x="0" y="548">file.</tspan></text></g><g fill-rule="nonzero" transform="translate(400 476)"><path d="m379.419911 34.9201425c-5.564517-5.01198-11.444593-7.6169733-17.700331-9.0658015-31.811195-7.366809-63.0326-3.8268386-93.839833 5.9015604-1.770316.5592478-3.942591.9745786-5.079912 3.2173648 21.336754 8.3433193 40.462729 20.3724575 58.194051 34.8182416 1.759984 1.4333741 2.8156 1.1523014 4.41123-.093691 5.22736-4.0799005 10.549574-8.0352016 15.874606-11.9808441 11.810865-8.7538205 24.510174-15.9709172 38.140189-22.7968302m210.132142 391.8935655c.712823-.563112 1.2303-.891512 1.652922-1.318434 8.644018-8.726776 13.195183-19.811278 16.793102-31.367133 10.627523-34.134394 12.781956-69.046326 8.337854-104.430578-2.312209-18.409777-6.500859-36.374282-14.845287-53.037739-3.006248-6.002979-6.521521-11.658238-11.90478-16.280967-.416987 1.021908-.809555 1.707686-.980482 2.446588-3.025971 13.07133-8.232669 25.275293-14.031037 37.234888-10.370193 21.391466-23.314624 41.089736-37.640556 59.84337-2.123439 2.777885-2.227684 4.589886-.076071 7.441182 4.982238 6.600861 9.636711 13.472171 14.237651 20.365695 15.900902 23.824534 29.874649 48.656484 37.449906 76.784037.195346.727311.599184 1.395704 1.006778 2.319091m-533.3202526-201.640196c-9.3239711 6.911878-14.052637 17.065266-17.9839568 27.623362-6.8286256 18.342165-10.2537386 37.486983-10.7890593 57.049061-1.1514089 42.109712 3.5932226 82.900024 27.2562742 119.050223-.5024502 5.474639-.6508373 10.834337 1.6256844 16.093584 4.6901602 10.828543 12.240999 18.926527 21.9678695 24.970072 2.9461419 1.829387 4.4891801 3.919564 4.4694579 7.670097-.0187833 3.656843.8086158 7.336867 2.6737858 10.616048.820825 6.863583 3.8618221 12.880083 7.2380989 18.633864 13.683547 23.323238 32.49866 41.451943 54.669388 56.017497 14.461171 9.499484 29.959174 16.563004 46.924143 19.891447 8.782076 2.350965 17.673094 1.994554 26.509643.695438 5.04704-.741801 10.335445-.717654 14.960804-3.492642 1.975051.536066 3.668354-.52834 5.400165-1.119463 13.532342-4.621762 26.050393-11.293132 37.436757-20.120361 3.432627-2.661015 7.468193-4.621762 9.923155-8.50269 1.311065-1.106904 2.710413-2.121085 3.919111-3.336168 6.224746-6.257007 12.300166-12.677248 18.647942-18.799031 2.285913-2.20415 4.341732-5.155896 8.054228-5.15976.466762.308118.933524.617201 1.400286.925318 1.069702 4.158137 4.325766 6.62018 7.116947 9.344943 7.33765 7.163007 14.724136 14.30573 23.97673 18.9188 8.125605 5.926673 16.177955 11.968287 24.822914 17.090379 9.609476 5.69486 19.569257 10.560026 30.452233 13.149564 7.526421 2.772092 15.338345 4.155241 23.280813 4.376427 5.998409.166134 12.143327.962989 17.89286-1.821658 1.382441-.169996 2.808085-.169031 4.140752-.534136 44.633534-12.203964 77.216717-40.735256 101.859312-79.869074 2.827809-4.490401 4.011149-9.747717 2.838139-15.246504.818947-7.519418-.195346-15.005031-.864026-22.436553-.552226-6.145931-.695917-12.418392-2.431483-18.426199.37848-1.795581-.092977-3.488779-.506207-5.215782-6.553452-27.378992-19.060234-51.876746-34.42018-74.966239-3.139608-4.719317-6.076358-9.67914-10.620949-13.236496-7.432505-10.427701-16.422136-19.565943-23.62173-30.186821l-.061983-.305219c4.908984-6.787279 10.924298-12.573899 16.237121-18.988343 3.087016-3.726387 7.038057-6.752506 9.061006-11.378133.502451-.361241 1.142957-.619132 1.488567-1.100144 17.850596-24.866721 31.906051-51.755044 40.812097-81.363299.864026-2.871577 2.351653-5.642702 1.799428-8.832057.529686-1.492294 1.289465-2.944019 1.55149-4.484607 2.022949-11.885221 2.923603-23.880554 3.101104-35.937703.540017-7.205505-2.184484-13.545578-5.352267-19.611339-15.463255-29.608255-38.833289-51.0779585-66.791115-67.6110211-11.392937-6.7370517-23.477097-11.9016415-36.590576-14.0652252-14.213233-3.5872989-27.957826-1.8564319-41.351172 3.856781-.917558.1574393-1.88865.1661322-2.744223.4945334-19.302537 7.3948195-36.450642 18.3325073-51.262119 33.0902723-1.117599 1.113666-2.330055 2.1829016-2.449328 3.9581986-1.435973 1.212187-2.99122 2.303637-4.288199 3.656843-7.209924 7.515555-14.455537 15.000202-21.465419 22.7099-2.155371 2.370284-3.534996 2.351932-5.647164.144883-6.874644-7.184256-13.8479-14.269993-20.846514-21.327718-1.747775-1.762741-3.031605-4.13399-5.619928-4.889313-7.597796-8.5799607-16.378934-15.715923-25.879466-21.8850339-9.341816-6.0667271-18.989797-11.5635817-29.866198-14.286413-14.035732-5.6340103-28.441492-6.8143223-43.195681-3.7911005-2.751736.5843607-5.5617.9649195-8.245817 1.7830245-41.453541 12.631851-72.570698 39.1367159-95.7754405 76.0316109-4.7023694 7.475954-7.3949383 15.91876-8.0936727 24.909222-4.3079226 3.343896-9.7757066 4.063481-14.388856 6.827846-6.6924474 4.011322-11.5403863 9.03779-12.577218 17.387871-.9889345 7.966624-1.9403025 15.84342-.9776646 23.935608.4507964 3.783374 1.8276036 7.512658 1.1993062 11.423528m146.6628356 396.510498c-16.053986-5.130783-31.216709-12.452196-45.62153-21.185732-75.8934436-46.018651-125.0762643-113.465472-146.9840276-200.743854-22.6581514-90.265865-7.67856442-175.165271 42.8096874-252.489238 52.3609352-80.1916801 125.6172202-129.4460468 218.5441912-143.06116924 120.405826-17.64189916 223.131983 20.06627194 301.965932 116.42591024 56.194583 68.687018 79.530808 149.6997 68.886379 239.242119-11.122462 93.557603-55.216918 167.948175-129.290272 223.3958-21.591266 16.161197-45.167915 28.692596-70.218105 38.25293-11.006944-1.281729-22.058967-2.249547-33.006744-3.935983-10.330751-1.59178-20.550678-3.939848-30.819444-5.954684-16.468154-7.078976-32.382204-15.245537-47.301684-25.383473-3.905025-2.653287-7.806291-7.054827-11.864398-7.250902-4.344549-.210564-8.062681 4.886415-12.125482 7.553225-1.187097.778504-2.382646 1.542519-3.562231 2.331647-12.873992 8.60604-26.651455 15.437749-40.630838 21.870547-1.077215.194143-2.197632.253062-3.224133.602711-18.691144 6.368084-37.997437 9.08995-57.557301 10.330146" fill="#cc0424" mask="url(#b)"/><path d="m176.265129.87895583c10.268765 2.01483721 20.488693 4.36290494 30.818503 5.95468428 10.947778 1.68643615 22.000741 2.65425344 33.007685 3.93598359-35.052234 14.2159032-71.403324 21.9149768-109.067359 23.2614212-43.6436602 1.5589392-85.942445-5.2254407-126.8353086-21.0785199-1.45100075-.5631113-3.02503133-.8335593-4.1886494-2.0196667 19.5579873-1.24019701 38.86428-3.96302833 57.5563628-10.33014573 1.0265009-.34965056 2.1469177-.40856958 3.224133-.60271257.6827687.37669536 1.3523891.78140139 2.0511235 1.12429076 26.1076825 12.80764214 53.4484807 15.28900204 81.6626977 10.21906884 11.048267-1.98586059 22.120952-3.96013062 31.770812-10.46440377" fill="#102353" mask="url(#c)" transform="translate(202.8959 610.7512)"/><path d="m387.235311 215.885848c-.591671-.868331-1.099756-1.640075-1.634138-2.393465-18.886488-26.618839-37.803968-53.213532-59.217734-77.799182-1.620049-1.860295-2.485955-3.545766-5.201063-.554418-22.76052 25.073423-43.715036 51.626582-62.950892 79.637262-1.5205 2.212844-1.973174 3.781441-.405717 6.330413 17.464602 28.394138 38.962891 53.448242 60.783314 78.255081 1.798488 2.043814 2.54512 1.247924 3.888118-.306186 5.916702-6.849094 12.037201-13.514671 17.893796-20.416888 15.520543-18.293872 30.760277-36.82342 43.600461-57.277978 1.09412-1.743424 2.102777-3.543834 3.243855-5.474639m-93.202144-113.049175c2.587382.756289 3.872152 3.127538 5.618987 4.890279 6.998614 7.057725 13.972809 14.142496 20.847454 21.327718 2.112169 2.207048 3.491793 2.224434 5.646224-.144883 7.010822-7.709698 14.256434-15.194345 21.465419-22.7099 1.297918-1.353206 2.852226-2.444657 4.28914-3.655877.790772.765947 1.662311 1.459453 2.358227 2.306535 14.232957 17.324122 27.957826 35.06261 41.067548 53.304324 3.637363 5.061241 7.411843 10.019132 11.50188 15.536269 4.873298-13.468307 7.836344-26.426628 9.377504-39.710452 2.739527-23.621696 2.209841-46.8840834-7.85043-68.9806466 13.393346-5.7132129 27.137939-7.4440797 41.352112-3.8548491 8.792407 30.6610702 8.785833 61.6051447 1.99853 92.5385947-8.519111 38.827633-27.059051 72.775611-49.839292 104.4441-16.860723 23.439145-36.021445 44.919473-54.875065 66.642239-2.000408 2.304602-2.002285 3.564116.029115 5.844572 10.882975 12.217486 21.67579 24.522869 32.318341 36.962508 24.16832 28.248289 45.861015 58.205227 60.365388 93.104604 16.805312 40.435832 23.501515 81.559374 8.374481 124.256344-5.749531 2.784648-11.894449 1.987792-17.893797 1.820694-7.942468-.220221-15.754393-1.604335-23.278936-4.37836 15.638877-32.394834 12.752841-64.913302 1.009595-98.403451-18.183057 24.055379-35.65705 47.497421-56.285679 68.166405-9.253535-4.614035-16.640021-11.755792-23.977671-18.918799-2.791181-2.724763-6.046305-5.186807-7.116008-9.345909 24.739328-24.124923 45.641252-51.557037 65.440603-79.964697 1.88771-2.708344 1.852961-4.447904.131483-7.112782-11.79302-18.2591-25.129079-35.283798-39.004215-51.870949-8.648716-10.33884-17.553821-20.451661-26.457989-30.799193-1.516741 1.689335-2.697264 2.9672-3.838343 4.280805-20.848392 23.997427-41.307033 48.298141-58.393154 75.40282-2.578931 4.090525-2.457779 6.660746.359698 10.389065 10.454719 13.839208 20.38163 28.100507 30.904907 41.882728 9.54937 12.506285 19.617154 24.594343 29.455785 36.86785-3.711556.003865-5.768315 2.955611-8.054228 5.159761-6.347776 6.121782-12.422257 12.541058-18.647942 18.799031-1.208698 1.215083-2.608046 2.229264-3.920051 3.335202-18.814173-21.722765-35.179019-45.448779-52.728145-68.986443-7.167662 20.065306-10.994736 39.84954-9.409435 60.600624 1.016171 13.296381 4.791589 25.799769 9.379381 38.128332-4.626297 2.774989-9.914701 2.751808-14.961741 3.493609-8.835609 1.298149-17.726629 1.654562-26.509644-.695438-7.429687-25.142001-8.378238-50.604676-3.391303-76.314617 6.962924-35.894237 21.974443-68.180894 41.887432-98.246978 18.197146-27.473648 39.619365-52.24185 61.204997-76.857444 2.355411-2.686127 2.211719-4.078933-.015966-6.570918-10.058394-11.252567-19.969339-22.645187-29.860562-34.054226-25.439941-29.344569-47.744969-60.77062-61.677393-97.816194-11.999636-31.906096-17.062642-64.722057-13.303188-98.882531 1.165496-10.5870713 3.944468-20.7887542 5.96366-31.1710577 14.754189-3.0232218 29.159949-1.8429096 43.19662 3.7891689-1.567455 3.6607062-3.357493 7.2422096-4.666681 11.0004702-8.539773 24.5151406-8.002574 49.4852136-3.227889 74.6165886 1.502655 7.906739 3.642998 15.633823 6.705595 23.775273 17.852475-26.094364 36.167015-50.671321 56.934641-73.219919" fill="#102353"/><path d="m448.078448 584.937863c15.127036-42.696006 8.430831-83.820513-8.374481-124.256344-14.503433-34.898411-36.197068-64.855351-60.365388-93.104605-10.64255-12.439639-21.434427-24.745022-32.317402-36.962508-2.032339-2.280456-2.029522-3.539969-.030052-5.843607 18.853618-21.723731 38.01528-43.203094 54.876002-66.643203 22.780243-31.66849 41.319242-65.616468 49.838354-104.443135 6.787302-30.93345 6.793876-61.8775244-1.99853-92.5395605 13.113478 2.1616519 25.197636 7.3262417 36.589636 14.0632934 27.957826 16.5330626 51.327861 38.0027661 66.791114 67.6110211 3.167783 6.065761 5.892284 12.405834 5.354146 19.611339-23.046024-2.779817-46.152155-3.343895-69.335296-2.478461-5.258352.196075-7.51703 1.726036-8.397022 7.29147-1.722417 10.898086-5.614292 21.277492-8.965212 32.219043 1.844508-.203802 3.213803-.32647 4.574644-.509988 8.069256-1.084689 16.197676-2.197388 24.301681-1.834217 17.818663.798788 35.564075 2.657151 53.167671 5.734463.552226 3.189355-.935403 5.96048-1.799429 8.832057-8.906045 29.609222-22.962437 56.496578-40.813035 81.363299-.34561.481012-.985177.738903-1.488567 1.100144-6.428543-6.795004-12.778198-13.670178-19.301597-20.366662-13.386772-13.74262-27.001761-27.235074-41.547456-39.705623-2.449328-2.099834-3.535934-2.139436-4.985997 1.05185-4.575582 10.069357-10.584322 19.307086-16.748023 28.387376-2.097142 3.089868-1.420008 4.489436 1.078154 6.461774 4.087222 3.227023 7.980975 6.714836 11.897268 10.164014 15.687713 13.819889 29.801395 29.306898 44.309524 44.373747 0 0 .062924.305219.062924.308117-.484607 1.983929-2.017313 3.217365-3.233524 4.643012-16.929282 19.831562-34.314055 39.228475-53.002381 57.332067-2.547 2.467838-2.521643 3.964961-.442345 6.661713 4.854513 6.294675 9.543734 12.74679 13.908947 19.407538 2.065211 3.151683 3.295509 3.494574 6.229442.931113 21.121687-18.450344 41.010257-38.217193 60.160651-58.79152 4.545529 3.557356 7.48134 8.517179 10.621888 13.236496 15.359008 23.089493 27.865788 47.587247 34.41924 74.966239.41417 1.727003.885628 3.420201.507147 5.215782-26.868403 7.574473-54.088989 11.903573-82.043998 9.339147-3.349039-.307152-2.239893 1.39667-1.541159 3.121742 3.608249 8.916088 6.413517 18.111319 8.962395 27.394446 2.1441 7.807252 2.147858 7.815945 9.934425 7.76765 22.859131-.141018 45.637495-1.157131 67.983846-6.760233 1.17207 5.498787-.010332 10.756103-2.838139 15.246504-24.642595 39.133818-57.225779 67.66511-101.860252 79.870041-1.331728.364138-2.757372.363173-4.139814.533169" fill="#fefefe"/><path d="m195.090788 62.8748981c-2.019194 10.3823035-4.798164 20.5839865-5.963661 31.1710577-3.759454 34.1604732 1.303553 66.9764342 13.303188 98.8825312 13.932425 37.045573 36.237453 68.471625 61.677393 97.816194 9.891223 11.410006 19.802169 22.802625 29.860562 34.054225 2.227686 2.491985 2.371376 3.884791.015966 6.57092-21.585633 24.615593-43.00785 49.383796-61.204996 76.858409-19.912989 30.065119-34.924508 62.351774-41.886494 98.246013-4.987873 25.709941-4.039323 51.172616 3.390364 76.314615-16.96403-3.328441-32.462972-10.391963-46.924143-19.892413-22.169789-14.564586-40.984901-32.693293-54.6693878-56.016531-3.3762767-5.753779-6.4172738-11.770281-7.239038-18.632897 22.6403078 5.751847 45.6957228 7.035509 68.8995258 6.82205 7.566805-.069544 7.659781.055055 9.339936-7.672995 2.315968-10.649854 5.888528-20.904661 9.250718-30.819476-7.818499 0-15.439774-.097555-23.057294.019318-18.032793.276243-35.892781-.209598-53.2240223-6.604726-4.899593-1.808137-5.3926514-3.802691-4.53426-8.522973 5.5607608-30.589596 18.9897963-57.311784 37.1625243-81.802777 3.555656-4.791758 3.555656-4.910562 7.497306-.367038 18.677996 21.526691 38.824836 41.463534 60.56261 59.713942 2.173216 1.824558 2.965865 1.82166 4.287262-.780436 4.63569-9.126653 9.925972-17.869848 15.781629-26.21703 1.986321-2.831011 2.101838-4.47205-.7147-6.952445-19.746759-17.389803-38.151459-36.196559-55.422594-56.190389-2.366681-2.739252-2.993099-4.301089-.115516-7.277948 16.212702-16.771637 32.379386-33.585773 49.658036-49.209937 2.126256-1.923078 2.307512-3.214467.754144-5.531626-4.973786-7.421864-9.03565-15.400079-13.027076-23.412099-2.775214-5.569296-2.789302-5.577989-7.540508-1.729901-18.855496 15.271616-35.85991 32.568694-52.085761 50.688707-2.62401 2.931462-3.761332 3.794963-6.611679-.040568-19.202046-25.839369-33.5411271-54.115669-42.0386382-85.512743-.8659047-3.200945.4902411-3.650081 2.6146188-4.107912 17.8102124-3.842293 35.8148304-5.83105 54.0129154-5.536456 8.485302.137156 16.963091.765947 25.855989 1.191903-4.333281-12.25419-7.819439-24.236965-10.117561-36.546211-.459249-2.458177-1.913067-2.436928-3.724705-2.481359-25.523526-.620099-50.972858-.334197-75.9375839 6.232859.6996735-8.990463 3.3922426-17.433268 8.094612-24.909222 23.2047419-36.894896 54.3218989-63.3997602 95.7754409-76.0316112 2.684116-.818105 5.49314-1.198664 8.244878-1.7830247" fill="#fefefe"/><path d="m82.9758571 165.598852c24.9647259-6.567056 50.4140579-6.852958 75.9375839-6.232859 1.811638.044431 3.265456.023182 3.724705 2.481361 2.298122 12.309244 5.78428 24.292019 10.118499 36.54621-8.893836-.425955-17.371625-1.054746-25.856927-1.191903-18.198085-.294595-36.202703 1.694164-54.0119762 5.536455-2.1253169.457831-3.4814627.906967-2.615558 4.107912 8.4975111 31.397076 22.8365922 59.673374 42.0386382 85.512743 2.850347 3.835533 3.987669 2.97203 6.611679.040568 16.225851-18.120013 33.230265-35.417091 52.085761-50.689672 4.751206-3.847123 4.765294-3.83843 7.540508 1.730866 3.991426 8.011054 8.05329 15.990235 13.027076 23.411133 1.553368 2.318127 1.37305 3.609516-.754144 5.532593-17.27865 15.623198-33.445334 32.438299-49.658036 49.209936-2.876645 2.975894-2.251165 4.538696.115516 7.277948 17.271135 19.99383 35.675835 38.800587 55.422594 56.190391 2.816538 2.480393 2.701021 4.121433.7147 6.952443-5.855657 8.347184-11.145939 17.090379-15.781629 26.217032-1.321397 2.602094-2.114046 2.604992-4.287262.780434-21.737774-18.250406-41.884614-38.187249-60.56261-59.714907-3.94165-4.543524-3.94165-4.423755-7.497306.368003-18.171789 24.490993-31.6017635 51.213183-37.1625243 81.801812-.8583914 4.721247-.365333 6.715801 4.53426 8.52394 17.3312413 6.395127 35.1912293 6.880002 53.2240223 6.604724 7.61752-.116871 15.238795-.019317 23.057294-.019317-3.36219 9.914814-6.93475 20.169621-9.250718 30.819475-1.680155 7.72805-1.773131 7.603451-9.339936 7.672995-23.203803.213461-46.259218-1.070201-68.8995258-6.82205-1.8632915-3.280146-2.6916297-6.96017-2.6719075-10.617013.0197224-3.750534-1.523316-5.84071-4.4694579-7.671063-9.7278095-6.042581-17.2786483-14.140565-21.9678695-24.969108-2.2774607-5.259245-2.1281344-10.61991-1.6322585-16.096482 2.0342185-.225051 1.5946921-2.170344 2.0060439-3.350657 1.9478157-5.590545 3.5481428-11.309553 5.5494907-16.877883 10.4659887-29.117585 26.6570907-54.779231 45.3848616-78.868418 1.816334-2.336476 2.330054-3.8732.316496-6.508137-22.6788125-29.660411-40.921038-61.823434-51.7335762-98.114651.6273582-3.91087-.7494489-7.640154-1.199306-11.424495-.9635773-8.091222-.0122092-15.968019.9767254-23.935608 1.0368315-8.349114 5.8847706-13.375584 12.5781572-17.386906 4.6131493-2.76533 10.0799941-3.48395 14.3879167-6.827845" fill="#102353"/><g fill="#fefefe"><path d="m319.134822 522.953994c-9.838631-12.272543-19.905477-24.361566-29.454847-36.867851-10.523277-13.781255-20.451126-28.04352-30.905846-41.881762-2.816538-3.728319-2.938628-6.299507-.359697-10.390032 17.086121-27.103713 37.544762-51.404427 58.394093-75.402819 1.141078-1.313605 2.320661-2.590505 3.837403-4.279839 8.904167 10.346565 17.809274 20.459387 26.457988 30.799192 13.875138 16.587152 27.212135 33.610885 39.004215 51.869984 1.721479 2.665844 1.756229 4.404439-.131481 7.112782-19.798413 28.408625-40.701275 55.84074-65.440603 79.965663-.467701-.308118-.934463-.616235-1.401225-.925318"/><path d="m589.55243 426.813611c-.407596-.923386-.811434-1.591779-1.007718-2.31909-7.575258-28.127553-21.549005-52.959505-37.448967-76.784037-4.600941-6.893526-9.256351-13.763868-14.237652-20.365697-2.152552-2.851294-2.047366-4.66233.075132-7.441182 14.325934-18.753633 27.270363-38.451902 37.640557-59.84337 5.798369-11.959594 11.005065-24.163558 14.031036-37.234886.170927-.738903.563495-1.424682.980482-2.446588 5.383261 4.622727 8.899471 10.277987 11.905719 16.280965 8.34443 16.663457 12.533078 34.627963 14.845288 53.037741 4.4441 35.38425 2.28967 70.296182-8.337855 104.430578-3.597917 11.555854-8.149082 22.640357-16.793103 31.367133-.42356.42692-.941037.755322-1.652919 1.318433"/><path d="m56.2322699 225.17332c10.8125383 36.291217 29.0547638 68.455205 51.7335771 98.115617 2.014496 2.63397 1.499837 4.170695-.316497 6.508138-18.7277707 24.089185-34.9188729 49.750831-45.3848614 78.868417-2.001348 5.567364-3.601675 11.287337-5.5494909 16.876918-.4113516 1.181277.0281748 3.126571-2.0060438 3.350657-23.6574166-36.147301-28.4020481-76.937612-27.2497-119.047324.5353207-19.56208 3.9604337-38.706897 10.7890593-57.049063 3.9303806-10.558094 8.6599856-20.711484 17.9839567-27.62336"/><path d="m294.032978 102.83706c-20.767624 22.548597-39.082165 47.124589-56.934639 73.218953-3.062597-8.140485-5.202942-15.867569-6.704657-23.775273-4.774685-25.13041-5.311884-50.100483 3.226951-74.6156232 1.309188-3.7592264 3.100164-7.3397641 4.666681-11.0014361 10.8764 2.7257289 20.524382 8.2216176 29.866197 14.2883447 9.499594 6.1700766 18.280732 13.3050731 25.879467 21.8850346"/><path d="m408.355495 64.9998462c10.059332 22.0965634 10.589958 45.3589508 7.850431 68.9806468-1.54116 13.283824-4.505146 26.242144-9.377503 39.710451-4.090037-5.516172-7.864519-10.474061-11.501881-15.536267-13.109721-18.241715-26.835531-35.979237-41.067547-53.304326-.695917-.847081-1.567457-1.540587-2.35823-2.306534.118335-1.776264 1.33079-2.8454991 2.448388-3.959165 14.811479-14.7577651 31.959583-25.6954528 51.26212-33.0902724.855573-.328401 1.826664-.337094 2.744222-.4945334"/><path d="m351.629536 552.143151c20.62863-20.668985 38.102623-44.111026 56.285682-68.166405 11.743244 33.490148 14.62928 66.009582-1.008657 98.403451-10.884854-2.586641-20.844636-7.451807-30.45505-13.146667-8.64402-5.122092-16.69731-11.163706-24.821975-17.090379"/></g><path d="m484.389437 324.514936c-14.509069-15.067814-28.621812-30.553856-44.309524-44.373747-3.916293-3.449177-7.810986-6.937956-11.897268-10.164013-2.499102-1.972339-3.176236-3.371907-1.078154-6.461775 6.162762-9.081255 12.172441-18.318985 16.748023-28.388342 1.450063-3.190318 2.53573-3.150718 4.985057-1.050882 14.546635 12.470548 28.161623 25.963003 41.548396 39.705622 6.523399 6.696485 12.873054 13.571657 19.301597 20.366661-2.022948 4.625627-5.97399 7.651746-9.061006 11.378133-5.312822 6.414446-11.328137 12.201066-16.237121 18.988343" fill="#102353"/><path d="m235.754215 579.991175c-4.587793-12.328562-8.363213-24.83195-9.379382-38.128331-1.5853-20.751084 2.241772-40.535318 9.409435-60.600624 17.549126 23.537664 33.913973 47.263678 52.729084 68.986443-2.454962 3.880927-6.490528 5.842642-9.922215 8.502691-11.386365 8.827226-23.905355 15.498599-37.437697 20.120361-1.730871.592088-3.425114 1.656494-5.399225 1.11946" fill="#fefefe"/><g fill="#102353"><path d="m556.916182 489.288439c-22.346349 5.602137-45.123775 6.619215-67.982906 6.760233-7.787507.048295-7.791263.038635-9.935364-7.767651-2.548877-9.283126-5.354145-18.479322-8.962394-27.394446-.698734-1.726038-1.806942-3.428893 1.541159-3.121741 27.955009 2.563459 55.176535-1.764674 82.043996-9.339147 1.735567 6.007807 1.879259 12.280268 2.431483 18.425231.668682 7.43249 1.683913 14.918103.864026 22.437521"/><path d="m553.78822 202.852961c-17.603598-3.078278-35.349008-4.935675-53.167673-5.734462-8.104003-.364139-16.232425.749527-24.30074 1.834215-1.361782.18352-2.731075.306186-4.575584.509988 3.35092-10.941551 7.243734-21.320957 8.965213-32.219043.879992-5.565432 3.13867-7.095395 8.397022-7.29147 23.183141-.865434 46.289271-.301356 69.335294 2.478463-.179378 12.057149-1.079093 24.05248-3.102981 35.937703-.262025 1.540586-1.021805 2.992313-1.550551 4.484606"/><path d="m508.073151 355.007074c-19.151332 20.574327-39.038964 40.341174-60.160652 58.79152-2.933932 2.562494-4.16423 2.22057-6.230382-.931115-4.364272-6.660746-9.053493-13.112861-13.908006-19.407537-2.079298-2.696753-2.104656-4.193876.442345-6.661713 18.688325-18.104558 36.072159-37.500505 53.002379-57.333033 1.216213-1.424681 2.748919-2.658116 3.233526-4.642046 7.198653 10.617979 16.189223 19.756223 23.62079 30.183924"/></g><path d="m379.419911 34.9201425c-13.630015 6.825913-26.329324 14.0430097-38.140189 22.7968302-5.325032 3.9456425-10.647246 7.9009436-15.874606 11.9808441-1.59563 1.2459924-2.651246 1.5270651-4.41123.093691-17.731322-14.4457841-36.857297-26.4749223-58.194051-34.8182416 1.137321-2.2427862 3.309596-2.658117 5.079912-3.2173648 30.807233-9.728399 62.028638-13.2683694 93.839833-5.9015604 6.255738 1.4488282 12.135814 4.0538215 17.700331 9.0658015" fill="#fefefe"/><path d="m379.160985 611.630205c-9.64986 6.504274-20.722545 8.478542-31.770812 10.464404-28.214217 5.069933-55.555016 2.588573-81.662698-10.219069-.698734-.34289-1.368354-.747596-2.051123-1.124291 13.979383-6.432798 27.755907-13.264505 40.629899-21.870545 1.180524-.78913 2.376073-1.553145 3.56223-2.331648 4.063741-2.666811 7.781872-7.763788 12.125484-7.553225 4.059045.196075 7.960311 4.597614 11.865334 7.250903 14.919481 10.137934 30.833532 18.30353 47.301686 25.383471" fill="#fefefe"/><path d="m387.235311 215.885848c-1.141078 1.930805-2.149735 3.731215-3.243855 5.474639-12.840184 20.454558-28.079918 38.984106-43.600461 57.277978-5.856595 6.902217-11.977094 13.567794-17.893796 20.416888-1.342998 1.55411-2.08963 2.35-3.888118.306186-21.820423-24.806839-43.318712-49.860943-60.783314-78.255081-1.567457-2.548972-1.114783-4.117569.405717-6.330413 19.235856-28.01068 40.190372-54.563839 62.950892-79.637262 2.715108-2.991348 3.581014-1.305877 5.201063.554418 21.413766 24.58565 40.331246 51.180343 59.217734 77.799182.534382.75339 1.042467 1.525134 1.634138 2.393465" fill="#fefefe"/></g></g></svg>