<svg height="4096" viewBox="0 0 4096 4096" width="4096" xmlns="http://www.w3.org/2000/svg" xmlns:xlink="http://www.w3.org/1999/xlink"><mask id="a" fill="#fff"><path d="m0 0h4006.23916v2186.14068h-4006.23916z" fill="#fff" fill-rule="evenodd"/></mask><mask id="b" fill="#fff"><path d="m0 0h4096v2494.49875h-4096z" fill="#fff" fill-rule="evenodd"/></mask><g fill="none" fill-rule="evenodd"><path d="m518.436284 517.266227c-1.433735-2.565697-2.867469-5.125483-4.301204-7.69118-85.702351 42.381302-165.17868 96.124978-245.038843 149.159245 1.399867 2.601168 2.799734 5.202335 4.205246 7.797592 81.711601-49.753249 163.423201-99.512408 245.134801-149.265657zm3137.587726 159.351094c-103.84982-59.88598-207.70529-119.777871-311.56075-179.66385 14.24139 27.992114 264.16848 173.539282 311.56075 179.66385zm-2551.87879-145.026935c1.91917-1.933141 3.83834-3.866281 5.75751-5.799422 4.72456-.118235 8.69837-1.537054 10.56674-6.627066 11.63922-2.701668 18.76838-12.012667 26.76682-20.040817 1.60307-2.057287 3.20615-4.114574 4.80922-6.171862 1.7837-1.542965 3.5674-3.080019 5.35675-4.622985 3.39242-2.577521 7.91376-5.622069 3.16663-9.96129-3.11583-2.849462-5.59382 1.146878-7.15738 4.238721l-5.67849 5.905833c-2.55702 2.341052-5.11403 4.676191-7.67105 7.01133-9.41524 4.829896-17.10322 11.38011-20.35452 22.364133-4.74713.490675-8.35969 2.701667-10.31273 7.436975-1.90224 1.944964-3.80448 3.89584-5.70672 5.840805-.82411 1.01682-1.64823 2.03364-2.47234 3.044548zm61.62802 82.179171c3.52789-.266028 5.59382-2.045464 5.59947-5.947216 3.74238.112324 5.59947-1.885846 5.80832-5.716657 3.67465 0 5.59382-1.927229 5.78009-5.75804 3.60128-.13597 5.46965-2.116405 5.70108-5.852628 3.49402-.206911 5.55995-1.974523 5.7688-5.781687 35.43132-27.075793 52.44986-44.580471 60.62893-62.357089-24.6896 10.032232-49.7856 33.123509-63.84072 58.76866-2.05464 1.89767-4.11493 3.79534-6.16957 5.69301-1.78935 1.950876-3.58434 3.907664-5.36804 5.864452-1.80064 1.980434-3.60127 3.960869-5.3624 5.970862-2.76022 2.760786-7.45655 4.989513-2.43848 9.85488-2.09415-.183264-4.60037-1.229643-6.19215-.378352-3.85528 2.051376.24836 4.161869.56446 6.301921-2.049-.206912-3.5166-3.848547-6.27682-.325146-2.68684 3.4229.82976 4.427897 1.34342 6.550213-4.18831-6.692095-6.86387-1.330142-9.47733 1.560701-.95394 1.052291-.80718 3.210078-1.16279 4.859455 4.97856.295587 8.12262-2.287846 9.8781-6.999507 1.73854-2.104581 3.47708-4.203251 5.21563-6.307832zm2840.46592-29.127169c-21.44393 116.508676-58.16222 227.921427-104.31268 335.923101-218.8252 512.099021-571.59172 886.714491-1069.40254 1093.696521-554.02565 230.35707-1115.2482 233.59079-1666.0677-17.1145-536.386195-244.14326-905.211677-660.64936-1110.9357024-1234.32512-24.0686837-67.098308-44.9481538-135.6982-55.5205376-207.047054 157.33265-47.134345 308.348964-110.922076 454.702817-187.437795 49.390474-25.828415 94.722462-59.915539 147.341662-79.081417-1.936107 6.508832-2.03771 13.455133 6.728394 9.772115 12.988283-5.462452 25.519352-12.456047 37.548049-20.017169 33.811308-21.252724 66.950905-43.711445 101.083956-64.367083 8.608054-5.208247 21.25766-16.186358 29.837491-2.364698 7.394459 11.92399-4.103643 21.725664-11.537615 30.073048-7.01627 7.874445-15.268712 14.560629-23.120386 21.595606-27.122427 24.309096-54.696423 48.086136-81.186651 73.134201-6.293757 5.941304-18.096669 10.156378-14.371216 23.546481-2.833603-5.610246-5.44142-1.542966-7.936344.366528-.141116.112323 1.162793 2.287846 1.794991 3.505665 1.930462-1.560701 3.860924-3.11549 5.785741-4.67619 50.462953-37.285378 100.971063-74.493903 154.436957-107.026237 36.441703-22.169044 68.542689-51.934682 107.72768-69.06692 12.135945-5.302835 29.013376-14.22957 38.473768 1.720318 7.829096 13.195016-7.54122 22.216339-14.828431 31.415015-7.733138 9.766203-16.787117 18.545144-26.038658 26.797941-43.553932 38.834255-87.67797 76.976835-130.785976 116.337235-6.700171 6.124568-21.78261 9.027235-15.494497 24.876624-4.244759-7.431064-6.468741-1.205996-8.941087 1.578436-.519306.585263.180628 2.358786.321743 3.582518 2.765867-1.992259 5.531734-3.978605 8.2976-5.970863 15.765439-12.278695 31.316383-24.864801 47.324541-36.782879 85.71364-63.823202 161.436293-140.652243 245.439611-206.674615 11.37392-8.94447 22.60673-19.378701 39.15677-20.099933-.58704 14.631569-9.14994 21.696105-14.84537 30.309517-14.93568 22.576956-30.68983 44.586383-44.98202 67.600808-7.2985 11.746637-21.16734 27.140822-10.12646 38.846078 10.29016 10.90717 26.23622-1.702583 38.46248-8.193679 25.04521-13.295515 49.68964-27.418675 74.49777-41.204865 1.7329 2.169611 3.47145 4.33331 5.20435 6.50292-100.85253 87.014979-207.191632 166.356512-313.45171 245.810368-84.686318 63.320704-182.823779 104.549215-263.406454 177.015389 5.842188-.431558 12.169813 1.034555 16.222654-1.495672 31.920358-19.969875 63.468171-40.590043 94.982115-61.269328 7.563799-4.959954 20.975429-15.790271 22.55028-4.03181 5.678493 42.37539 23.645336 10.913082 32.146143 5.846716 30.147945-17.977617 58.901668-38.574138 87.903754-58.614954 52.427283-36.233087 102.890236-75.741281 164.179581-95.764362 20.060997-6.556125 37.463377-20.229992 53.550567-38.296286-15.22356-4.717572-29.09805 4.711661-44.970736-3.748046 103.482926-86.358775 205.074896-170.890821 303.325246-259.655676 1.37164 1.548878 2.74893 3.103667 4.12622 4.652544-6.73968 9.299175-13.33825 18.710674-20.23598 27.873879-32.87995 43.675974-70.93037 82.959521-100.45176 129.502691-.97087 1.708495-1.9361 3.416989-2.90698 5.125484 2.13367-.177353 4.27298-.360617 6.40665-.543881 28.29086-11.640226 50.66051-32.526422 74.13651-51.769153 42.77498-35.068473 77.19026-79.270592 117.28403-117.253556 1.51276 2.252375 3.03117 4.50475 4.54393 6.757125-15.56224 23.310012-31.37283 46.448583-46.50043 70.060093-3.38113 5.273277-12.47462 13.839396-.01129 18.013088 22.41481 7.502005 7.97021 16.304593 1.57485 24.397773-59.46613 75.167841-125.29375 144.086967-192.81476 211.108423-32.5582 32.325423-66.05906 65.029198-111.56038 77.591657-115.675317 31.947071-201.259131 117.501849-299.49255 180.591994 13.298737 2.228728 21.686651-6.112745 31.197845-11.675697 87.627168-51.231184 170.117727-112.470954 265.229665-149.111951 37.88673-14.596099 71.33114-36.948408 103.14425-62.782734 69.38374-56.350756 132.76159-119.848812 198.3973-180.657024 21.74874-20.15314 45.04411-37.699199 72.76487-48.476311-33.06622 44.497707-75.47429 78.324713-115.29713 115.030739-39.46722 36.369057-84.56213 66.252929-119.18627 108.096262 96.07718-41.825597 177.38801-107.114912 260.50512-169.986323-47.13262 74.505726-101.34925 141.615858-161.20486 203.766036-2.98601 2.624815-5.20999 5.781687-1.30391 9.033147 4.32943 3.606164 5.94944-1.436554 8.32582-3.730312 132.80675-113.381362 257.36106-236.055988 374.99506-376.111145 1.4676 21.057637-6.67759 27.489615-11.33441 35.553236-22.38658 38.745578-54.4537 69.569418-79.51019 106.151298-2.41026 1.826729-7.47349 2.831726-4.05849 7.218241 3.14406 4.043634 5.6672-.733057 8.26938-2.33514 13.33825-10.777111 26.6765-21.560134 40.01475-32.337246 1.49582 1.501583 2.99165 3.003166 4.48183 4.50475-27.64173 38.875637-55.28346 77.751273-85.16611 119.771959 33.95807-1.241467 55.88179-19.910758 79.05298-35.825176 7.32673-5.024984 14.42202-15.015833 24.65573-6.70392 8.35969 6.792596 8.40484 17.339149 7.10094 27.182205-2.6812 20.182698-13.51888 36.327675-24.87587 52.123858-56.72849 78.904064-125.30504 146.321607-191.60682 215.885114-34.00322 35.665559-69.6321 69.628535-104.52717 104.360039 17.02419-1.129144 27.68124-11.841226 38.1238-22.204515 51.81766-51.426272 102.13385-104.590598 155.19333-154.56258 64.06651-60.347096 122.53354-127.97155 198.6626-173.208225 1.66517 2.075023 3.33033 4.150045 4.9955 6.225068-38.31572 51.378978-90.57931 88.528385-132.55275 138.795955 11.57149 3.210078 16.98468-3.535223 22.66318-7.608416 24.75732-17.758883 48.74134-36.700114 73.64543-54.222527 12.21497-8.589766 25.85803-31.598279 39.36561-16.014918 12.35045 14.253217-10.19983 27.477792-18.54824 40.459984-3.64078 5.669364-8.26937 10.700259-12.7512 15.719331-33.95807 38.030257-67.99516 75.989573-102.00403 113.966625-1.64259 1.649377-3.27953 3.292842-4.91647 4.936307-3.49967 2.660286-8.20729 4.26828-7.99279 10.138643-1.59743 1.436555-3.19486 2.867197-4.79229 4.297839.85234.313323 1.84015 1.099585 2.53444.869027 3.05374-.999085 3.669-2.991343 1.59178-5.687099 7.25899 6.408332 8.99189-1.105496 12.06821-5.24963 2.14496-1.690759 4.28992-3.381518 6.43487-5.072277 20.07794-11.196846 36.31753-27.67288 53.099-43.232593 76.67659-71.094649 148.04159-148.414365 228.8557-214.661383 11.79727-9.671615 24.04046-18.864379 36.76345-27.13491 7.05013-4.581603 16.25087-8.690266 22.93411.425645 6.28811 8.577943-1.85708 14.383276-6.20909 20.247728-13.37776 18.024911-30.75756 31.633749-46.99715 46.566817-14.77199 13.591103-30.92691 26.295443-40.29134 46.554994 17.63946 3.038637 23.85419-20.283198 43.33944-15.222744-10.25629 16.481946-19.18609 30.835663-27.70383 44.527265 63.63187 48.417194 86.85386-14.129071 120.19666-47.802372 37.77948 77.479334 86.72403 128.964723 131.09643 138.281634-5.14225-28.470966-20.89076-51.769154-33.37667-77.018218 13.16327-5.279188 20.6932 4.019987 29.53833 8.483355 37.42386 18.899849 66.9001 50.291217 102.71525 71.739029.94265 5.0841 5.13096 6.698007 7.63718 3.665282 3.01987-3.641635-2.54573-5.314659-4.42539-7.821239-45.30377-61.694974-97.00289-118.843815-132.75595-198.007996 68.17579 42.996123 116.84375 97.868943 176.30988 137.170225-22.23982-42.434507-56.72284-75.173753-72.0988-121.894275 32.81785 28.429583 61.48691 60.607212 90.78251 92.146373 45.04976 48.50587 90.47206 96.633388 143.35091 136.112023.29352 3.706664 2.33688 5.480188 5.76881 5.728481 5.38497 4.356956 6.39536 16.133153 17.2782 11.167287-2.94085 10.073614 4.44797 11.858961 11.81985 19.910758-1.82322-12.586106-4.7302-17.888941-12.2432-19.124496-4.45925-6.177774-6.48567-16.440564-17.57172-11.486521 5.33418-4.487015.51366-6.780772-1.87401-9.600674-83.91865-83.710313-148.00773-184.050366-215.77711-281.351781-9.69746-13.92216-8.16212-17.729324 7.43398-23.191777 27.89574-9.772115 51.24755-1.276937 74.2494 13.597014 3.79884 6.461538 8.69273 11.403757 16.36377 13.407839 2.04336-10.800759-6.69452-13.189104-11.56584-18.314587-6.93724-8.548384-13.88013-17.096767-20.82302-25.651063 1.23617-1.28876 2.30865-2.707579 3.22873-4.256456 3.54482 1.05229 8.38226 4.191427 10.40304 2.802167 9.46604-6.479273.4177-12.018578-2.57395-16.375534-30.60516-44.545001-65.88971-85.489749-93.04036-132.706858 1.55227-1.655289 3.10454-3.304666 4.65681-4.954043 29.76411 29.931167 60.4483 58.928277 89.123 89.96494 132.12375 142.981471 288.50246 256.877155 428.34806 390.772273-91.2736-104.744302-205.67887-184.493746-291.34735-295.173441 11.45859-4.770778 18.86433 4.481103 27.29176 9.943556 32.75576 21.229077 65.20107 42.996123 98.18826 63.81729 14.42767 9.109999 29.64558 16.576534 46.65283 20.011258 15.85011 3.198254 19.09577-4.847631 18.37326-18.462381l-.39512.727145c9.96841 1.15279 16.50488 8.843971 23.84854 14.495599 68.24352 52.549504 138.5812 101.10858 217.97286 133.912854 25.34437 10.475613 47.79869 27.06397 70.32075 43.197123 56.57608 40.507278 112.62721 81.883583 172.31913 117.359967 4.90518 2.91449 9.74827 10.150466 18.93207.449292-34.63542-24.521919-68.07983-49.280308-102.55155-72.371585-59.29115-39.709193-111.69586-90.786672-176.02765-121.858805-109.68637-52.986973-192.04146-143.726351-286.27284-218.48037 11.16507-11.350551 20.4787 10.475613 26.44507-.567528 7.03321-13.04131-7.25334-20.448726-13.97044-28.991198-15.88963-20.218169-32.52998-39.791958-49.2155-60.045597 14.6083-8.430149 25.32744 13.129986 38.06172 1.300584-.02258-.023647-.34433.84538-.34433.84538l.81283.029558c-21.88421-38.432256-50.55891-71.171501-78.64657-105.335477 75.23157 56.717284 138.40058 129.987455 223.5046 172.983578-26.21364-31.208103-52.42164-62.410294-78.63528-93.618398 1.58614-2.388345 3.17228-4.770778 4.76406-7.159123 97.11578 65.377991 195.78949 128.137078 290.56275 197.470027-1.74983 2.583433-3.49967 5.160953-5.2495 7.744386-16.56133-2.03364-31.4067-12.503341-48.67361-10.783023.04516.059117-.02258-.963615-.02258-.963615l-.59268.295588c60.78697 47.76099 125.39535 89.586587 189.32074 132.393535 16.15492 10.812582 30.26648 38.053904 56.15838 15.601096 1.94175-1.684848 8.59676 2.40608 12.99393 4.025898 54.14325 19.95214 106.46328 43.90062 154.84901 76.657601 33.05493 22.381867 66.35822 44.367648 100.54207 67.192897 2.12238-11.947638-4.12622-15.465126-9.18945-19.550142-53.56749-43.25624-107.91395-85.194161-169.92581-114.835652-40.10506-19.165878-80.64476-37.675552-117.57755-63.220204-97.88909-67.707218-195.84593-135.337584-293.11976-204.008417-45.11749-31.852483-87.77957-67.57716-133.37122-98.613823-26.23622-17.859382-52.93529-34.187623-73.24466-59.655421 1.40551-1.909494 2.81667-3.813076 4.22218-5.716658 35.58937 18.39144 65.47202 45.786467 98.43098 68.316128 33.19605 22.689279 66.75899 44.722353 108.64776 43.900621 32.52998-.638469 40.40423-12.071784 30.75756-44.160737-2.08286-6.940389-8.47822-13.520162-.04515-24.669713 106.57053 80.896322 221.51768 148.609452 327.74954 230.723594-14.35993-19.059467-30.84224-34.962062-48.5212-49.244838-49.85898-40.276721-100.70577-79.146446-153.5564-115.095769-7.08965-4.823984-19.76183-7.797592-16.61778-20.519668 2.48928-10.085437 12.85846-13.95763 21.3762-17.829823 10.92235-4.971778 22.13822-3.824899 32.60336 2.140051 14.83407 8.46562 29.58348 17.108591 44.24822 25.899356 70.17963 42.079803 133.53491 94.694336 200.10762 142.343003 3.29082 2.435639 6.57599 4.871278 9.87245 7.295094 2.2635.608909 6.20909 2.234639 6.50261 1.69667 1.9474-3.612076-1.06119-4.138221-3.53354-4.758954-2.51185-2.991344-5.02371-5.982687-7.53557-8.979941-31.76795-30.95981-69.60388-54.730938-100.00583-89.243707 14.31477-7.738475 25.53628 5.202336 39.01-.342881-2.55137-4.356956-4.15444-9.068617-7.25898-12.095431-53.61266-52.253916-115.44953-94.215484-165.81088-151.056915-29.84878-33.6851245-74.54293-50.4626576-104.70781-85.5843362 11.73518-.69758594 18.42971 8.95629407 26.47894 15.0040095 106.68907 80.133707 211.41381 162.7680827 325.51992 232.0360017 245.78393 149.206539 501.77899 271.047608 779.91227 337.566566z" fill="#211f2b" mask="url(#a)" transform="translate(45.6046 1909.8593)"/><path d="m1104.94111 838.932038c-175.784932.195273-316.290953 149.80381-316.364361 336.851432-.073352 183.85528 145.981336 337.11727 321.405011 337.25927 180.41917.15359 318.39075-146.55228 319.34868-339.55303.88786-181.08858-148.10767-334.752574-324.38933-334.557672m-457.293701 1360.186362c-52.6192 19.15996-97.951188 53.253-147.341662 79.0755-146.348208 76.52163-297.370167 140.30936-454.7028166 187.44371-33.3710267-142.31936-47.36969822-287.06844-45.42794701-433.24816 3.79318842-285.36586 61.37965891-558.61855 176.91950061-817.35199 147.556158-330.413358 369.192383-596.400512 650.718086-808.679461 270.49046-203.961123 571.71591-331.9799671 901.07981-380.9883354 653.07754-97.1772686 1229.6704 85.2000724 1724.3033 540.5108694 331.53144 305.176114 531.8084 691.786517 611.43714 1145.784907 44.80139 255.42287 41.04207 511.40735-7.59767 766.35136-1.07248 5.62798-3.43193 10.98994-5.18741 16.48195-278.13893-66.51305-534.12835-188.36003-779.91792-337.56066-114.10611-69.26791-218.83085-151.90229-325.51427-232.04191-8.05488-6.04771-14.74941-15.70159-26.48459-14.9981 0 0 1.32649.05912 1.32649.05912-4.84873-10.09726-12.50285-16.29277-23.17683-18.29094l.71122.54388c-2.11109-5.61024-6.23167-7.36603-11.63922-6.67436l.33304.30741c-.34997-7.91582-5.34546-10.81258-11.8763-12.04813l.66042.48476c-2.26914-5.3856-6.60985-6.70392-11.7013-6.53839l.37819.37835c-3.98511-15.2523-15.69771-20.41917-28.60697-24.01351l.45157.37835c-.80718-4.19143-3.84963-4.94222-7.23641-5.14913-11.75211-15.08677-28.0933-24.85297-42.30647-36.53458-65.13333-53.53086-129.20548-108.13765-187.79669-169.54886-190.20695-199.34996-369.36737-409.46521-549.33497-618.78237-47.18907-54.884648-46.46655-55.274823-96.58518-2.16962-205.59985 217.84782-407.13556 439.93435-621.63698 648.47117-210.27924 204.43406-439.535706 382.07609-684.247161 538.34717" fill="#de363d" mask="url(#b)"/><path d="m2560.54612 2241.19643c-2.72071-2.00409-4.71891-3.75987-6.96547-5.04863-2.56831-1.47794-5.26644-1.05229-4.21654 2.59525.62656 2.18144 3.44887 3.90175 5.62205 5.22007.683.41383 2.4667-1.1587 5.55996-2.76669m-39.43336-31.2022c-1.70467-1.4602-3.39242-2.94996-5.18741-4.28601-.08467-.06503-1.10634 1.25329-1.68774 1.92723 1.71032 1.6139 3.42064 3.22781 5.13096 4.83581 5.22128 10.01449 13.21407 16.25138 28.97387 24.17312-10.07002-15.07495-17.22176-22.45872-27.22968-26.65015m-319.28825 86.93222c2.05465 2.51249 4.37459 6.51474 7.54122 2.48293 3.40371-4.33331-1.34342-5.35604-3.91172-6.95812-1.56356-2.69576-2.3651-8.34147-6.67759-4.21508-3.71981 3.55887 1.42244 5.94722 3.04809 8.69027m-282.18612 46.45449c.37819-2.18143 1.72161-5.71665.96523-6.31374-2.732-2.14596-3.52789.66803-4.17702 2.93814-3.01423 1.07593-8.3992 1.41882-4.60037 6.42606 3.3642 4.4279 5.8817.05912 7.81216-3.05046m579.06521-151.14559c.10725-4.69392-1.87966-4.76486-4.94469-2.45928 1.50711.93996 3.01423 1.87993 4.52699 2.8199 1.92481 1.93905 3.84963 3.88402 5.77445 5.82307 1.34906 1.60799 2.66991 3.24555 4.10929 4.75895.06209.06503 1.19101-.98726 1.81757-1.51932-1.5297-1.4129-3.05375-2.8199-4.60037-4.22098-.54753-4.09093-2.80538-5.7876-6.68324-5.20234m-1851.053368 6.88127c244.705809-156.26516 473.962278-333.9131 684.241518-538.34126 214.50142-208.54272 416.03713-430.62334 621.63697-648.47707 50.11863-53.105206 49.39612-52.709119 96.58519 2.17552 179.9676 209.31717 359.12802 419.42651 549.33497 618.77647 58.59686 61.41121 122.66336 116.018 187.79669 169.54885 14.21317 11.68161 30.55436 21.44781 42.30647 36.52868 2.41026 1.7144 4.82616 3.43472 7.23641 5.15504 0 0-.44592-.37244-.44592-.37244 6.94853 11.38602 17.53785 18.00126 28.60131 24.01351 0 0-.37819-.38427-.37819-.38427 2.51186 4.90675 5.52045 8.84398 11.70696 6.53839 0 0-.66607-.47885-.66607-.47885-.46286 8.80259 6.02282 10.07953 11.88194 12.04223 0 0-.33304-.30741-.33304-.30741 2.37075 5.10775 4.75842 10.19185 11.63922 6.67436 0 0-.71122-.54388-.71122-.54388 3.74239 11.6284 11.23845 18.04856 23.17119 18.29094 0 0-1.32084-.05321-1.32084-.05912 30.16488 35.11577 74.85902 51.8933 104.7078 85.58434 50.36135 56.84143 112.19822 98.80299 165.81088 151.05691 3.10454 3.0209 4.70762 7.73848 7.25899 12.09543-13.47372 5.53931-24.70088-7.39559-39.01001.33697 30.40195 34.51868 68.23788 58.28981 100.00583 89.24962-1.77241 1.58435-3.53918 3.16278-5.30595 4.74122-66.57836-47.64276-129.93363-100.25729-200.11326-142.33709-14.6591-8.79668-29.4085-17.43374-44.24822-25.89936-10.4595-5.97086-21.67537-7.11183-32.59772-2.14596-8.51774 3.8781-18.88691 7.74439-21.37619 17.83573-3.14406 12.72208 9.52812 15.69569 16.61213 20.51376 52.85627 35.95524 103.69742 74.81905 153.55639 115.10168 17.67897 14.28278 34.16692 30.18537 48.52121 49.24484-106.22621-82.11414-221.17337-149.82727-327.7439-230.7236-8.43307 11.14956-2.04336 17.72933.04516 24.66972 9.64666 32.08895 1.76676 43.52227-30.75757 44.16074-41.88877.81582-75.45171-21.21135-108.64775-43.90063-32.96462-22.52966-62.84726-49.92468-98.43098-68.31612-2.83925-1.67894-5.9946-3.8249-8.06617.48476-.40642.85129 2.47799 3.44064 3.83834 5.23189 20.30936 25.46189 47.01409 41.79013 73.24466 59.64951 45.59164 31.04258 88.25937 66.76725 133.37686 98.61974 97.27383 68.67083 195.22502 136.3012 293.11977 204.00842 36.93278 25.54465 77.46684 44.04841 117.57755 63.2202 62.00621 29.64149 116.35831 71.57941 169.92581 114.83565 5.06323 4.08502 11.31183 7.60251 9.18945 19.55014-34.1895-22.82525-67.48715-44.81103-100.54207-67.19289-48.38574-32.7629-100.71141-56.70546-154.85466-76.6576-4.39152-1.61982-11.04654-5.71666-12.98829-4.0259-25.8919 22.45281-40.00346-4.78852-56.15838-15.60701-63.92538-42.80104-128.53377-84.62663-189.32074-132.38762l.57011.60891c17.31206-1.66712 32.15743 8.80258 48.71312 10.84214 7.43397 1.64346 11.58841.85129 5.25514-7.74439-94.77891-69.33886-193.44696-132.09795-290.56839-197.47003-1.58614 2.38244-3.17228 4.77078-4.76406 7.15913 26.21364 31.20219 52.42728 62.41029 78.64092 93.61248-85.10967-42.99021-148.27303-116.26038-223.5046-172.98358 28.08202 34.16989 56.75671 66.90914 78.64657 105.33548l-.45157-.84538c-12.75685 11.79985-23.476-9.75438-38.07864-1.33014 16.68551 20.25955 33.32587 39.83334 49.21549 60.05151 6.7171 8.54247 21.00365 15.94989 13.9648 28.98528-5.96072 11.04906-15.28-10.77711-26.43942.57344 94.23138 74.75402 176.58646 165.4934 286.27283 218.47446 64.3318 31.07805 116.7365 82.15553 176.02765 121.86472 34.47173 23.08536 67.91613 47.84967 102.54591 72.37158-9.17816 9.70118-14.02125 2.4652-18.92643-.44929-59.69191-35.48229-115.74869-76.85269-172.31913-117.36588-22.52205-16.12724-44.97638-32.72151-70.32074-43.19121-79.39166-32.80427-149.72934-81.36926-217.97287-133.91285-7.34366-5.65163-13.88013-13.34281-23.84854-14.4956-.79025-4.86537-3.50531-6.01225-7.53558-4.03772-.5701.27785-.937 2.53022-.8354 2.57752 2.81102 1.34788 5.48658 5.87627 8.7661.73305.72252 13.61475-2.52314 21.66064-18.37325 18.46239-17.00726-3.43473-32.23082-10.90717-46.65283-20.01126-32.9872-20.82117-65.4325-42.59413-98.18827-63.81729-8.43307-5.46246-15.83882-14.71434-27.29741-9.94356 85.67413 110.6797 200.07376 190.42914 291.34736 295.17344-139.83996-133.90103-296.21867-247.7908-428.34242-390.77227-28.6747-31.03666-59.36453-60.03377-89.12299-89.97085-2.85054-5.07819-6.6776-5.5866-11.24974-2.65438 2.19576 2.53614 4.39152 5.07228 6.59292 7.60842 27.15065 47.21711 62.4352 88.16777 93.03472 132.71277 2.99165 4.35696 12.04563 9.89626 2.57959 16.37553-2.02077 1.38335-6.86386-1.74987-10.40304-2.79625-2.79409-1.72623-5.67285-5.00725-8.26938-.12415-.19756.36653 3.27388 2.8672 5.04065 4.37469 6.94289 8.54839 13.88014 17.10268 20.82303 25.65107-1.59743 1.63164-3.20051 3.26919-4.79794 4.90674-23.00184-14.87395-46.35366-23.36912-74.2494-13.60292-15.5961 5.46245-17.13144 9.27553-7.43397 23.19769 67.76937 97.30141 131.85845 197.64146 215.7771 281.34587-1.12328 1.07593-2.17882 2.21099-3.17792 3.41107-52.87886-39.48454-98.30116-87.60615-143.35092-136.11202-29.2956-31.53916-57.9703-63.71679-90.78251-92.14637 15.37596 46.72052 49.85898 79.45385 72.09316 121.89427-59.46049-39.30128-108.12845-94.1741-176.30424-137.17022 35.75306 79.16418 87.44654 136.30711 132.75595 198.00208-1.16279 1.3065-2.23527 2.68985-3.21179 4.15596-35.81515-21.4419-65.29138-52.83327-102.71525-71.73312-8.84513-4.46928-16.37506-13.76254-29.53833-8.48927 12.48591 25.25498 28.23442 48.55317 33.37103 77.01822-44.36676-9.311-93.31131-60.79639-131.09079-138.28163-33.3428 33.67921-56.56479 96.21956-120.2023 47.80237 8.52339-13.6916 17.45318-28.03941 27.70947-44.52135-19.48525-5.06046-25.70563 18.26138-43.33944 15.21683 9.35879-20.25364 25.51371-32.95798 40.29134-46.54908 16.23394-14.93307 33.61939-28.54782 46.99715-46.57273 4.35201-5.85854 12.4972-11.66388 6.20345-20.24182-6.68324-9.11591-15.87833-5.00725-22.93412-.42564-12.71734 8.27053-24.96618 17.46329-36.76344 27.129-80.81411 66.25292-152.17347 143.56673-228.85006 214.66729-16.78147 15.55971-33.02106 32.03575-53.09899 43.23259-1.64259-1.4129-3.28518-2.8199-4.93341-4.23281 34.01452-37.97705 68.04597-75.93636 102.00968-113.96662 4.48183-5.02499 9.10478-10.04997 12.75121-15.71933 8.34275-12.9822 30.89303-26.20677 18.54259-40.45999-13.50194-15.58336-27.15065 7.41924-39.36562 16.01492-24.89844 17.52241-48.8881 36.46365-73.63978 54.21662-5.6785 4.0791-11.09169 10.81849-22.66317 7.60841 41.97343-50.26166 94.23702-87.41106 132.54709-138.79004 2.17883-2.12232 6.94854-3.44655 3.69159-7.70892-2.98036-3.90175-5.89299.0473-8.68143 1.47794-76.12907 45.24259-134.5961 112.86704-198.6626 173.21414-53.05948 49.97198-103.37568 103.13039-155.19898 154.56258-10.44256 10.36329-21.09961 21.07537-38.11816 22.20451 34.89507-34.7315 70.52395-68.69448 104.52153-104.36004 66.30742-69.5635 134.87833-136.98105 191.61246-215.88511 11.35699-15.79618 22.19467-31.94707 24.87022-52.12386 1.30956-9.84306 1.2644-20.39552-7.09529-27.1822-10.23935-8.31783-17.33465 1.67302-24.65573 6.70391-23.17118 15.91442-45.10055 34.5778-79.05298 35.82518 29.87701-42.02068 57.52438-80.89632 85.16611-119.77196-1.49582-1.50158-2.986-3.00316-4.48183-4.50475-13.33825 10.77711-26.6765 21.55423-40.01475 32.33725-1.40551-1.62573-2.81102-3.25737-4.21089-4.8831 25.05085-36.58188 57.12361-67.40572 79.5102-106.1513 4.65681-8.06362 12.80201-14.4956 11.32876-35.55915-117.62835 140.06107-242.18266 262.72978-374.98941 376.11706-2.34252-1.76761-4.68504-3.53523-7.02756-5.30284 59.85561-62.15017 114.07224-129.26031 161.2105-203.76603-83.11711 62.87141-164.42794 128.16072-260.50511 169.98632 34.62413-41.84333 79.71905-71.7272 119.18062-108.09626 39.82848-36.70603 82.23091-70.53895 115.30277-115.03074-27.72076 10.77711-51.02177 28.32317-72.77051 48.4704-65.63571 60.81412-129.00792 124.31218-198.39166 180.66293-31.81311 25.83433-65.25752 48.18664-103.14424 62.78274-95.111945 36.641-177.602504 97.88076-265.229672 149.11195-9.516839 5.55704-17.899108 13.90442-31.197846 11.6757 98.23342-63.09015 183.817233-148.64493 299.492548-180.592 45.49568-12.56246 79.00218-45.27214 111.56038-77.59165 67.51537-67.02737 133.34863-135.94059 192.81477-211.11434 6.39536-8.08727 20.83995-16.88986-1.57486-24.39777-12.46333-4.16778-3.37548-12.7339.00565-18.00718 15.13324-23.61151 30.94384-46.75008 46.50607-70.06009 5.14225-2.73714 6.80742-8.12274 3.24566-11.71708-3.25695-3.28693-5.75187 2.07502-7.78958 4.95995-40.09378 37.98297-74.50906 82.18509-117.28968 117.25356-23.47035 19.24273-45.84 40.12301-74.13087 51.76915-.97652-1.68485-2.14496-3.21599-3.50531-4.58751 29.52139-46.53726 67.57746-85.82081 100.4574-129.50269 6.89773-9.16321 13.4963-18.5688 20.23034-27.86797 2.58524-1.18826 4.92211-3.14505 2.56266-5.84672-.82412-.94588-4.38023.72124-6.68324 1.19418-98.25035 88.76485-199.84797 173.2969-303.32524 259.65567 15.86704 8.45971 29.74153-.96953 44.97073 3.74805-16.08718 18.06629-33.48956 31.74016-53.55056 38.29628-61.294994 20.02308-111.752302 59.53128-164.179585 95.75845-29.007731 20.04673-57.755809 40.64325-87.909399 58.61496-8.495162 5.06636-26.46765 36.53458-32.140499-5.84672-1.57485-11.75255-14.986481-.92223-22.555924 4.03772-31.5083 20.67338-63.061757 41.29946-94.982115 61.26342-4.047196 2.53614-10.374822 1.07003-16.222654 1.50158 80.582675-72.47208 178.725781-113.69468 263.412099-177.0213 106.254433-79.45385 212.599177-158.78948 313.451707-245.81037 2.11673-1.80899 4.23911-3.6239 6.35585-5.43289.72251-2.22873 2.54008-5.98269 1.98126-6.42607-2.55702-2.00999-4.82615-.63846-6.07926 2.40608-2.48928.98727-4.97856 1.96862-7.46784 2.95588-24.80813 13.78027-49.44692 27.90935-74.49213 41.20486-12.2319 6.4911-28.17232 19.10085-38.46812 8.18777-11.03524-11.70526 2.8336-27.09353 10.1321-38.84017 14.28655-23.01442 30.04635-45.02385 44.97638-67.60672 5.69543-8.6075 14.26397-15.67795 14.84537-30.3036-16.5444.72123-27.77721 11.15546-39.15113 20.09402-84.00332 66.02828-159.725968 142.85732-245.439608 206.68053-16.008158 11.91807-31.559102 24.50418-47.324541 36.77696l.338677.86312c-6.305047-15.89669 8.771749-18.79935 15.477564-24.92392 43.102361-39.36631 87.226399-77.50889 130.780331-116.34315 9.257186-8.24688 18.311165-17.03174 26.044302-26.79203 7.287212-9.19867 22.657525-18.22 14.828432-31.41501-9.466037-15.94989-26.337823-7.02315-38.473768-1.72032-39.184991 17.12633-71.291622 46.89788-107.727675 69.06692-53.465899 32.53233-103.974009 69.73495-154.436962 107.02624l.361256.82173c-3.731098-13.41375 8.071814-17.62291 14.359927-23.57013 26.490228-25.04215 54.064225-48.8251 81.192295-73.1342 7.84603-7.03498 16.098473-13.71525 23.114742-21.58969 7.439617-8.34739 18.937719-18.14906 11.537615-30.07305-8.574186-13.82757-21.223792-2.84355-29.831846 2.3647-34.138696 20.65563-67.272649 43.10844-101.083956 64.36708-12.028697 7.56112-24.559766 14.55472-37.54805 20.01717-8.766103 3.68302-8.670145-3.26328-6.728393-9.77212" fill="#fefefe"/><path d="m3701.63146 2586.47782c-47.39228-6.12457-297.31937-151.67174-311.5664-179.66385 103.85546 59.88598 207.71093 119.77787 311.5664 179.66385" fill="#fefefe"/><path d="m564.040908 2427.12554c-81.7116 49.75325-163.423201 99.51241-245.134801 149.26566-1.405512-2.59526-2.805379-5.19642-4.205246-7.79759 79.860163-53.03427 159.336492-106.77794 245.038842-149.15925 1.433735 2.5657 2.86747 5.12549 4.301205 7.69118" fill="#fefefe"/><path d="m1236.81537 2490.97771c14.06641-25.63332 39.16241-48.73051 63.852-58.76274-8.17906 17.77661-25.19761 35.28129-60.63457 62.35708-1.0499-1.21781-2.12237-2.41199-3.21743-3.59434" fill="#fefefe"/><path d="m1165.30925 2427.74155c3.25131-10.98402 10.94493-17.52833 20.35452-22.35231 2.39332 1.20008 4.78664 2.39426 7.17996 3.59434-8.00407 8.02815-15.12759 17.33915-26.76681 20.04082z" fill="#de363d"/><path d="m2469.87706 2547.45971c7.513 1.24147 10.41998 6.5443 12.24319 19.13041-7.37188-8.0518-14.76634-9.83715-11.82549-19.90485 0 0-.4177.77444-.4177.77444" fill="#fefefe"/><path d="m2321.13497 2230.52454c4.87131 5.12549 13.60354 7.51383 11.56583 18.31459-7.67104-2.00408-12.56493-6.9463-16.36377-13.40784 1.59743-1.63755 3.20051-3.26919 4.79794-4.90675" fill="#fefefe"/><path d="m2452.29518 2535.98028c11.09169-4.95995 13.11811 5.30284 17.58301 11.48061 0 0 .4177-.77444.4177-.77444-10.87719 4.95996-11.89322-6.81624-17.27255-11.17911.01129-.00591-.72816.47294-.72816.47294" fill="#fefefe"/><path d="m1206.22206 2529.98104c-1.81757 4.66437-4.96162 7.2478-9.94018 6.95813.35561-1.65529.20885-3.80717 1.16279-4.86537 2.61911-2.89084 5.28901-8.25279 9.48297-1.55479z" fill="#fefefe"/><path d="m805.447434 2293.92624c-2.765866 1.99226-5.531733 3.98451-8.2976 5.97677-.141115-1.22964-.841049-3.00316-.321743-3.58843 2.472346-2.78443 4.690684-9.0095 8.941087-1.57843.016934.0532-.321744-.80991-.321744-.80991" fill="#fefefe"/><path d="m1618.05508 2541.72946c-3.07068 4.14413-4.80923 11.65796-12.06821 5.24963l.66606.52023c-.21449-5.87036 4.49312-7.47836 7.99279-10.13273.98217 1.58435 2.11674 3.03863 3.40936 4.36287" fill="#fefefe"/><path d="m2241.66541 2484.25369c1.87966 2.50658 7.44526 4.17961 4.42539 7.82124-2.51186 3.03273-6.70017 1.41882-7.63718-3.66528.97652-1.46611 2.04335-2.84946 3.21179-4.15596" fill="#fefefe"/><path d="m1166.07579 2429.02203c-1.87401 5.09001-5.84783 6.51475-10.56674 6.62707 0-.00591-.50801-.46112-.50801-.46112 1.95304-4.74122 5.5656-6.95221 10.30708-7.44291 0-.00589.76767 1.27696.76767 1.27696" fill="#de363d"/><g fill="#fefefe"><path d="m3263.26306 2260.27126c-3.28517-2.43564-6.57599-4.87127-9.86116-7.30691 1.76677-1.58435 3.53353-3.16279 5.30595-4.74713 2.51185 2.99725 5.02371 5.98859 7.53557 8.97994-1.01039 1.0109-2.00384 2.03364-2.98036 3.0741"/><path d="m692.276642 2269.68276c-1.930462 1.5607-3.85528 3.11549-5.785741 4.67619-.632199-1.21782-1.936107-3.39334-1.794991-3.49975 2.494924-1.91541 5.102741-5.98269 7.936409-.37244.005579.01773-.355677-.804-.355677-.804"/><path d="m3266.24229 2257.20011c2.47235.62074 5.48093 1.14097 3.53354 4.75305-.29352.54388-4.23912-1.08185-6.50261-1.69076.97087-1.02865 1.96433-2.05138 2.96907-3.06229"/><path d="m2886.56332 2280.89143.58704-.29559s.06774 1.02274.02823.96362c-.04516-.05912-.61527-.66803-.61527-.66803"/><path d="m1199.01388 2392.46439c1.56356-3.09184 4.04719-7.08818 7.15738-4.23872 4.74713 4.33922.22579 7.38377-3.16663 9.96129-1.33214-1.90949-2.65862-3.81308-3.99075-5.72257"/><path d="m1193.33482 2398.37141c1.89095-1.96861 3.78754-3.93723 5.67849-5.90584 1.33213 1.9095 2.65862 3.81308 3.99075 5.72257-1.7837 1.54297-3.5674 3.08002-5.35675 4.62299-1.43373-1.48385-2.87311-2.96179-4.31249-4.43972"/><path d="m1192.84317 2408.98122c-2.39332-1.19418-4.78664-2.39426-7.17432-3.59435 2.55702-2.34105 5.10839-4.67619 7.6654-7.01724 1.43938 1.48385 2.87876 2.96179 4.31814 4.43972-1.60307 2.05729-3.20615 4.11458-4.80922 6.17187"/><path d="m1603.64096 2196.11819c-2.60782 1.60208-5.12532 6.37877-8.26938 2.33514-3.415-4.38652 1.64259-5.39152 4.05849-7.21825 1.40551 1.62573 2.80538 3.25738 4.21089 4.88311"/><path d="m1225.54813 2196.64019c-2.13367.18327-4.27298.36062-6.40665.54388.96523-1.70849 1.93611-3.41698 2.90134-5.13139 1.36035 1.37152 2.52879 2.90267 3.50531 4.58751"/><path d="m1315.27792 2425.64406c-2.37639 2.29376-3.99639 7.33057-8.32582 3.7244-3.90608-3.25146-1.6821-6.40242 1.30391-9.02723 2.33687 1.76761 4.67939 3.53522 7.02191 5.30283"/></g><path d="m1149.29601 2441.0282c1.90224-1.95088 3.79884-3.89584 5.70107-5.84672.00565.00591.50802.46112.51367.46703-1.91918 1.93314-3.84399 3.86628-5.76317 5.79942 0 0-.45157-.41973-.45157-.41973" fill="#de363d"/><path d="m2579.55157 2120.25572-.81282-.02365s.32174-.87494.34432-.85129c.01693.02364.4685.87494.4685.87494" fill="#fefefe"/><path d="m1149.74815 2441.45029-2.92956 2.61891c.82411-1.01682 1.64823-2.02773 2.47799-3.04455 0 .00591.45157.42564.45157.42564" fill="#de363d"/><g fill="#fefefe"><path d="m1230.6537 2496.67545c2.05464-1.89767 4.11493-3.79534 6.16393-5.69301 1.08941 1.17644 2.16189 2.37652 3.21743 3.59434-.20885 3.80126-2.27478 5.56887-5.7688 5.77578-1.13457-1.30058-2.33688-2.52432-3.61256-3.67711"/><path d="m1234.26513 2500.35433c-.22579 3.73623-2.0998 5.71666-5.69543 5.85263-1.0499-1.27694-2.14496-2.50067-3.29082-3.67119 1.79499-1.95088 3.58434-3.90767 5.37369-5.85854 1.27568 1.15279 2.47799 2.37652 3.61256 3.6771"/><path d="m1228.56801 2506.20578c-.19192 3.83081-2.11109 5.75804-5.7801 5.76395-.91443-1.21191-1.88531-2.37061-2.90698-3.48202 1.80063-1.98043 3.60127-3.96678 5.4019-5.95313 1.14586 1.17644 2.24092 2.40017 3.28518 3.6712"/><path d="m1217.48309 2518.37274c-5.01243-4.87128-.32174-7.1 2.42154-9.87261.9991 1.09958 1.96998 2.25828 2.88441 3.46428-.20885 3.83081-2.06593 5.82898-5.81397 5.71666 0 0 .50802.69167.50802.69167"/><path d="m1211.86161 2524.30163c-.32175-2.15187-4.42539-4.25646-.56447-6.31374 1.58614-.85129 4.098.19508 6.18651.38426 0 0-.50801-.69167-.50801-.68576-.00565 3.90175-2.07158 5.68118-5.59947 5.9413-.00564-.00591.48544.67394.48544.67394"/><path d="m1206.92708 2530.51783c-.51931-2.12232-4.03591-3.13322-1.34907-6.55612 2.76587-3.51749 4.23347.11823 6.28247.33696 0 .00592-.48544-.67393-.48544-.67393-1.73854 2.10458-3.47709 4.20916-5.18177 6.33147.02823.02365.73381.56162.73381.56162"/><path d="m2450.4302 2526.37606c2.38767 2.8199 7.20818 5.11957 1.87401 9.60073-.01129.00586.72816-.47299.72251-.47299-3.43757-.24238-5.48093-2.01-5.77445-5.72257.9991-1.19418 2.05465-2.33514 3.17793-3.40517"/><path d="m1614.64798 2537.36422c1.63694-1.64346 3.27388-3.29284 4.91082-4.9363 1.64823 1.4129 3.29082 2.8199 4.93341 4.23281-2.14496 1.69075-4.28992 3.38151-6.43488 5.06636-1.29262-1.31832-2.42719-2.77852-3.40935-4.36287"/><path d="m1605.988 2546.97849c2.07722 2.69576 1.46195 4.68802-1.59179 5.6871-.69429.23056-1.6821-.54979-2.53444-.86902 1.59743-1.43065 3.19486-2.86129 4.79229-4.29193 0 0-.66606-.52615-.66606-.52615"/></g><path d="m1104.94111 838.932038c176.28166-.194902 325.27719 153.469092 324.38933 334.557672-.95793 193.00075-138.92951 339.70662-319.34868 339.55303-175.423675-.142-321.478363-153.40399-321.405011-337.25927.073408-187.047622 140.579429-336.656159 316.364361-336.851432" fill="#211f2b"/><path d="m2864.94497 1868.12274c-11.06346-6.00634-21.65278-12.62749-28.60132-24.01351 12.90926 3.59434 24.61622 8.75529 28.60132 24.01351" fill="#211f2b"/><path d="m2921.25576 1909.95838c-11.93839-.24829-19.4288-6.66845-23.17684-18.29094 10.67399 1.99817 18.3281 8.19368 23.17684 18.29094" fill="#211f2b"/><path d="m2887.48735 1885.8426c-5.85912-1.9627-12.3448-3.23964-11.87629-12.04222 6.53083 1.22964 11.52068 4.12639 11.87629 12.04222" fill="#211f2b"/><path d="m2876.27035 1874.27686c-6.18651 2.30558-9.18945-1.63164-11.70131-6.53839 5.09145-.16553 9.43217 1.1587 11.70131 6.53839" fill="#211f2b"/><path d="m2898.79297 1892.20719c-6.8808 3.51748-9.26848-1.56662-11.63922-6.66845 5.40191-.69759 9.52813 1.0582 11.63922 6.66845" fill="#211f2b"/><path d="m2836.78845 1844.48226c-2.41025-1.72032-4.82615-3.44064-7.23641-5.15504 3.39242.21873 6.42923.96361 7.23641 5.15504" fill="#211f2b"/><path d="m2521.11276 2209.99483c10.00792 4.19142 17.15966 11.56928 27.22968 26.65014-15.7598-7.92173-23.75259-14.15863-28.97387-24.17312.50802-.88085 1.08942-1.7085 1.74419-2.47702" fill="#de363d"/><path d="m2560.54612 2241.19643c-3.09326 1.60799-4.87696 3.18052-5.55996 2.76669-2.17318-1.31832-4.99549-3.03863-5.62205-5.22007-1.0499-3.64754 1.64823-4.07319 4.21654-2.59525 2.24656 1.28876 4.24476 3.04454 6.96547 5.04863" fill="#de363d"/><path d="m1416.96811 2027.61512c2.03771-2.87902 4.53263-8.24688 7.78958-4.95995 3.56176 3.59434 1.8966 8.97994-3.24566 11.71707-1.5184-2.25237-3.03116-4.50475-4.54392-6.75712" fill="#211f2b"/><path d="m2218.32771 2054.33384c-2.19576-2.53613-4.39717-5.07227-6.59293-7.60841 4.57215-2.93223 8.40485-2.42382 11.24974 2.65437-1.55227 1.64938-3.10454 3.30467-4.65681 4.95404" fill="#211f2b"/><path d="m2639.61773 2310.25803c-3.28518 5.14321-5.95508.61482-8.76611-.73306-.10724-.04729.25966-2.29967.82976-2.57752 4.03591-1.97452 6.75098-.82765 7.54122 4.03772 0-.00591.39513-.72714.39513-.72714" fill="#211f2b"/><path d="m2519.37027 2212.47421c-1.71032-1.6139-3.42065-3.22781-5.13661-4.84172.58704-.67394 1.60872-1.98634 1.69339-1.92723 1.78934 1.33606 3.47708 2.82582 5.18741 4.29193-.65478.76853-1.23618 1.59617-1.74419 2.47702" fill="#de363d"/><path d="m2201.82282 2296.92822c-1.62001-2.74896-6.7679-5.13139-3.04245-8.69617 4.30685-4.12049 5.10838 1.51931 6.67195 4.21507-1.29827 1.41882-2.50622 2.90858-3.6295 4.4811" fill="#211f2b"/><path d="m2941.10057 2284.59869c6.33327 8.59567 2.17882 9.38785-5.2495 7.74438 1.74983-2.57752 3.49966-5.16095 5.2495-7.74438" fill="#211f2b"/><path d="m2505.40321 2197.43296c1.52969 1.40699 3.05938 2.81399 4.58343 4.22098-.62655.53797-1.75548 1.58435-1.81192 1.52523-1.43938-1.5134-2.76587-3.15096-4.11494-4.75895z" fill="#de363d"/><path d="m1744.74926 2295.10268c2.78845-1.43065 5.70672-5.37969 8.68708-1.47794 3.25131 4.26237-1.51276 5.5866-3.69158 7.703-1.66517-2.07502-3.33033-4.15004-4.9955-6.22506" fill="#211f2b"/><path d="m2205.45175 2292.45008c2.56831 1.60208 7.31544 2.62481 3.91173 6.96403-3.16664 4.03181-5.48658.02956-7.54122-2.48884 1.12328-1.56662 2.33123-3.06229 3.62949-4.47519" fill="#211f2b"/><path d="m2300.31307 2204.87525c-1.76677-1.50749-5.23821-4.01407-5.04065-4.37469 2.59653-4.8831 5.47529-1.60208 8.26938.12415-.92008 1.54297-1.9982 2.96178-3.22873 4.25054" fill="#211f2b"/><path d="m1916.42603 2340.00356c.64914-2.2642 1.44503-5.07819 4.17703-2.93222.76202.59117-.58704 4.1264-.96523 6.31374-1.04426-1.15279-2.11674-2.28193-3.2118-3.38152" fill="#211f2b"/><path d="m1919.63896 2343.3839c-1.93047 3.10367-4.44797 7.47836-7.81217 3.05046-3.79883-5.01316 1.58614-5.35604 4.60037-6.43198 1.09506 1.09959 2.16754 2.22873 3.2118 3.38152" fill="#211f2b"/><path d="m2504.06148 2198.41786c-1.92482-1.93906-3.84964-3.88402-5.7801-5.82307l.43464-.36653c3.86657-.57344 6.12442 1.11732 6.67766 5.20825.01122-.00592-1.3322.98135-1.3322.98135" fill="#de363d"/><path d="m2498.28364 2192.59656c-1.50712-.93997-3.01423-1.87994-4.52135-2.8199 3.05939-2.30558 5.0463-2.23464 4.9447 2.45337.00564-.00591-.42335.36653-.42335.36653" fill="#de363d"/><path d="m1191.93495 2118.79256c-2.12238 1.8149-4.23911 3.6239-6.36149 5.4388-1.7329-2.16961-3.4658-4.33331-5.20435-6.50292 2.48928-.98135 4.97856-1.96861 7.46784-2.94996 1.3152 1.39518 2.6812 2.73123 4.098 4.01408" fill="#211f2b"/><path d="m1187.83695 2114.77671c1.24746-3.05046 3.52225-4.41607 6.07926-2.40608.55882.43747-1.26439 4.19143-1.98126 6.42015-1.4168-1.27693-2.7828-2.6189-4.098-4.01407" fill="#211f2b"/><path d="m1338.6066 2030.0277c2.30865-.47294 5.86476-2.14005 6.68888-1.19417 2.35381 2.70758.01693 4.65846-2.56266 5.84672-1.37729-1.54888-2.74894-3.10367-4.12622-4.65255" fill="#211f2b"/><path d="m2603.99562 2016.8788c-1.366-1.79126-4.2504-4.3806-3.83834-5.2319 2.07158-4.30966 5.22128-2.15778 8.06052-.47885-1.40551 1.89767-2.81667 3.80717-4.22218 5.71075" fill="#211f2b"/></g></svg>