<svg height="2707" viewBox="0 0 2048 2707" width="2048" xmlns="http://www.w3.org/2000/svg"><path d="m445.833054.76068647c-25.263947 4.0811657-55.581317 17.29624853-76.958503 33.62102543-64.714889 49.1681617-114.855058 153.5295991-136.038223 283.5433421-7.96786 49.167845-13.409326 117.382721-13.409326 169.467221 0 61.41146 7.190508 139.923399 17.490742 194.144667 2.332057 12.050228 3.498085 22.740406 2.526395 23.517124-.777352.776718-10.300234 8.55024-20.989144 17.100481-36.535871 29.150708-78.319504 74.045018-107.081853 115.052566-55.1929583 78.318553-90.9517626 167.327287-105.91604636 263.719597-5.83023039 38.09089-7.38496018 115.04939-2.7207708 153.14028 10.30008176 87.84207 36.73046916 162.08048 82.01186986 230.10197l14.7700091 21.96051-4.2754372 7.19019c-30.3173705 50.91784-56.1646487 124.57292-68.2137665 195.31133-9.5227232 55.97127-10.6887832 70.93498-10.6887832 145.9501 0 75.60163.971722 90.56534 9.9113992 142.84323 10.6887832 62.57812 32.4549623 128.84644 56.7475361 172.96404 7.9681772 14.38038 27.4022998 44.3078 29.7343558 45.86441.777353.38677-1.554704 7.57696-5.247127 15.93382-27.9853138 61.21807-51.8892115 142.64667-61.8007692 211.25149-6.99617 47.0279-7.9678603 62.18817-7.9678603 111.74596 0 63.15829 3.498085 93.8656 16.7133897 144.20011l1.9433806 7.38357h83.1779552 83.37261l-5.441782-10.30023c-33.620801-62.18818-36.73021-177.62752-7.773522-292.8703 13.215304-53.25116 28.179651-92.31216 56.164648-146.14665l16.71339-32.64753v-20.01714c0-18.65708-.388676-20.79385-6.413156-33.03747-4.66443-9.33012-10.883248-17.29703-21.960834-28.1806-18.851108-18.26714-32.454772-37.50756-43.33802-61.21807-47.807795-103.77906-57.136339-257.88945-23.515222-389.26578 13.992657-54.8046 37.119203-103.5825 61.411776-130.2065 16.519052-18.27031 25.069926-38.67422 25.069926-59.85802 0-21.96052-7.773522-40.03427-25.264264-58.88475-50.140169-53.63793-81.040236-118.93932-92.117822-194.92455-15.7417-108.24915 12.826628-226.2152 77.736489-319.690856 63.549812-91.732 152.751613-150.616747 252.450522-166.357179 22.347291-3.693374 64.131558-3.110043 87.452124 1.166663 25.460504 4.470092 41.394323 3.106872 57.721255-4.66665 20.210524-9.520345 30.317371-21.377186 42.171041-48.584513 10.493621-24.290672 18.657087-37.507562 40.617605-64.908276 26.430609-32.844082 51.887943-55.194544 92.698934-82.208484 46.644303-30.510758 99.698909-52.664662 152.560128-63.35484 19.237248-3.886761 28.177433-4.470092 64.131557-4.470092 35.95413 0 44.89431.583331 64.13156 4.470092 77.54183 15.743602 154.50351 55.777875 215.91497 112.522684 13.21372 12.243615 44.89114 51.50117 54.99798 67.828103 3.88676 6.410302 10.69018 20.017136 14.96372 30.120813 11.85367 27.207327 21.96051 39.064168 42.17104 48.584513 15.7436 7.580135 32.26075 9.136742 56.74798 5.053424 38.67422-6.60686 68.40826-6.023529 106.30576 1.749993 129.04301 26.040665 241.37231 132.346434 291.12348 274.799715 43.33771 124.95969 31.09409 255.75268-33.42741 355.64181-10.88357 16.91026-21.76713 30.51393-37.50756 47.22763-34.01075 36.3409-34.01075 81.4286-.19339 118.74277 55.58132 60.82813 90.36878 210.4716 79.87199 342.42809-6.99363 87.06535-29.3441 164.99713-60.05141 209.11155-5.4402 7.77353-16.71054 20.98725-25.26395 29.15071-11.07695 10.88357-17.29387 18.85048-21.96051 28.1806-6.02353 12.24362-6.41348 14.38039-6.41348 33.03747v20.01714l16.71371 32.64753c27.98722 53.83449 42.95093 92.89549 56.16465 146.14665 28.57055 113.68935 26.04383 226.79536-6.60686 291.12348-2.7201 5.44019-5.05343 10.49362-5.05343 11.07695s37.12079.9701 82.59526.9701h82.40187l2.13677-8.35685c1.16666-4.46692 3.11004-11.27034 4.08015-15.1571 2.13994-8.55024 6.41347-33.81419 9.91346-58.10803 3.30343-24.48723 3.30343-114.66262 0-141.86995-12.437-98.72563-33.23403-177.04418-67.2416-251.0892-3.69338-8.35686-6.0267-15.54705-5.24998-15.93382.97327-.58333 6.41347-8.35685 12.24361-17.10365 42.3676-64.13156 68.40827-144.78344 81.62516-251.28259 3.49681-29.34727 3.49681-155.47362 0-183.65422-9.33013-72.6818-20.60047-122.0462-39.25756-171.99076-7.77352-20.79386-28.37399-64.71489-37.11762-78.90189l-4.2767-7.19019 14.77032-21.96051c45.28109-68.02149 71.7117-142.2599 82.01193-230.10197 4.66348-38.09089 3.11004-115.04939-2.7201-153.14028-15.16027-96.58887-50.72445-185.207657-105.91582-263.719597-28.76394-41.007548-70.5482-85.901858-107.08249-115.052566-10.69018-8.550241-20.21369-16.323763-20.99041-17.100481-.97011-.776718.19656-11.466896 2.52671-23.517124 23.51712-122.629531 22.73724-275.573262-1.94338-395.094653-21.37719-104.166782-60.2448-186.9563779-110.38592-234.7641733-40.03427-38.090956-80.84526-54.41562834-129.81972-51.30616558-112.3293 6.60758895-202.89146 135.84448688-238.6522 339.51362088-5.83014 32.844082-10.8804 71.324919-10.8804 81.81854 0 4.080148-.77989 7.383578-1.74999 7.383578-.97328 0-8.55024-3.886761-16.71371-8.743627-86.6754-51.307783-183.07088-78.708497-276.93648-78.708497-93.865596 0-190.261075 27.400714-276.936481 78.708497-8.163467 4.856866-15.740432 8.743627-16.713707 8.743627-.970105 0-1.749994-3.30343-1.749994-7.383578 0-10.883565-5.24681-50.527894-10.880395-81.81854-32.457308-182.874645-106.889099-303.9491547-205.80812-334.46079977-13.603664-4.08116571-52.277888-6.80183823-66.078109-4.66408476zm33.04064 158.19393753c27.984045 22.154855 59.078134 85.510012 76.958503 156.444669 3.30343 12.825995 6.800247 27.596321 7.773522 33.036518.776719 5.249981 2.913486 17.103651 4.66348 26.237223 7.580135 41.200935 11.076952 85.705301 11.466896 139.926569l.193387 53.44455-13.410277 19.820579-13.407106 20.017137h-31.290646c-36.534286 0-72.878356 4.666649-107.665818 13.993608-12.437002 3.110043-24.487229 6.220086-26.817384 6.803417-3.693374.776718-4.276705-.389944-6.413473-16.326933-11.466896-86.482019-10.883565-182.290997 1.749994-261.972769 13.990438-88.812491 46.641133-169.269713 78.51194-192.979273 7.580135-5.63612 8.940184-5.441782 17.686982 1.554705zm1108.132706-1.360684c19.24042 14.186995 40.42421 51.889212 56.16465 100.085683 31.67742 96.392943 40.6176 228.739377 23.90389 354.672338-2.13676 15.936989-2.7201 17.103651-6.41347 16.326933-2.33015-.583331-14.38038-3.693374-26.81738-6.803417-34.78747-9.326959-71.13153-13.993608-107.66582-13.993608h-31.29065l-13.4071-20.017137-13.41028-19.820579.19339-53.44455c.38994-75.405067 7.38675-134.289814 24.09728-199.783324 17.68698-70.351643 48.97446-133.7068 76.76512-155.861655 8.7468-6.996487 10.10684-7.190825 17.88037-1.360684z"/><path d="m993.875877 1135.711c-42.174211 4.08332-53.637937 5.63675-73.85163 9.72007-32.844083 6.80025-76.765117 21.96052-107.275874 36.92423-106.109212 51.88794-179.180954 138.36996-201.531416 238.45565-4.470092 19.82375-5.053423 26.43061-5.053423 59.85802 0 33.03747.583331 40.22766 4.860036 59.07813 29.73404 130.793 150.223633 227.38187 306.087191 245.06568 33.814187 3.69337 179.960839 3.69337 213.775029 0 125.15624-14.187 232.82206-82.01193 281.21319-177.24074 12.82377-25.45734 19.04386-41.97766 24.874-67.82494 4.27671-18.85047 4.86004-26.04066 4.86004-59.07813 0-33.42741-.58333-40.03427-5.05343-59.85802-32.4573-145.36677-173.54737-259.83283-346.5114-281.59996-22.54385-2.7201-81.62199-5.05343-96.392313-3.49999zm72.681803 105.72244c57.72125 6.22008 115.82928 26.82055 162.47041 57.91464 25.07056 16.7137 60.44136 51.69455 75.59846 74.62835 18.65708 28.37082 29.34409 57.32814 34.20413 92.50554 2.13677 16.13038.97327 28.37399-4.86004 54.41466-9.13357 38.86761-37.50756 79.48521-75.79184 107.8592-17.88037 13.02034-54.99799 31.87398-77.73522 39.25756-43.14432 13.79705-71.32492 16.32376-171.99393 15.54704-65.684998-.58333-77.348451-1.16666-96.198926-4.66348-64.324944-12.05022-115.242783-37.70411-152.167013-76.76511-29.930596-31.48403-43.53426-60.2448-50.917838-106.69254-3.30343-21.57375 2.913486-57.33132 15.547044-87.4553 15.353658-36.73084 54.997986-82.3987 94.255541-108.63592 45.474471-30.31737 105.332494-51.88795 160.33048-57.71809 21.183802-2.33332 66.074942-2.33332 87.258742-.19655z"/><path d="m949.764626 1383.30656c-14.770326 7.9669-25.07056 28.17743-21.960517 43.14114 3.496817 16.13038 17.683812 32.45731 39.837716 45.86759 11.856841 7.19019 12.633559 8.16029 13.21689 15.35048.386774 4.27671-1.166662 16.52032-3.30343 27.40389-2.333325 10.68701-4.083318 21.96052-4.083318 25.07056.196557 8.35685 7.970079 21.96052 16.130375 28.56738 7.193362 5.83014 8.553411 6.02352 28.763938 6.60686 18.4637.58333 22.35046.19338 29.73404-3.30343 19.04703-9.33013 23.90389-26.43061 16.90709-59.2747-5.83014-27.40071-4.66348-31.67742 9.91346-40.03427 15.35049-8.94018 31.67742-24.68062 36.53429-35.37079 9.33012-20.40391.77671-43.53109-19.82375-54.22127-5.05026-2.52671-11.27034-3.69021-20.40391-3.69021-14.187 0-23.32057 3.30343-40.03428 13.99044l-9.52351 6.0267-6.02353-3.69337c-24.680618-14.57694-29.15071-16.32377-44.117594-16.13038-10.687008 0-16.517149.97011-21.76396 3.69338zm-471.864208-225.63187c-34.397518 10.88356-60.051409 36.14751-73.265129 72.10163-6.413473 17.10365-9.523516 44.11759-6.803417 58.69136 6.413473 34.78747 34.98085 66.46489 67.438158 75.21168 40.810991 10.68701 71.321749 3.69021 98.335689-23.12718 15.740432-15.35365 24.293842-28.76393 32.844083-50.53106 6.216915-15.35049 6.606859-18.07059 6.606859-39.83772l.193387-23.32056-8.160296-16.71371c-13.023503-26.43061-36.537456-46.06097-63.744784-53.25116-15.353657-3.88676-40.034273-3.69021-53.44455.77672zm1037.977622-.58017c-26.624 7.1902-50.33451 27.01077-62.96807 53.05461l-8.1603 16.71371.19339 23.32056c0 21.76713.38994 24.48723 6.60686 39.83772 8.55341 21.76713 17.10365 35.17741 32.84408 50.53106 27.01394 26.81739 57.5247 33.81419 98.33886 23.12718 23.51396-6.22008 47.02791-26.04383 58.30142-49.17101 9.7169-19.62719 12.04706-33.81419 8.94018-56.16465-7.19019-51.11123-37.12078-88.22884-81.62515-101.24918-13.02033-3.88676-38.28428-3.88676-52.47127 0z"/></svg>