<svg height="254" viewBox="0 0 254 254" width="254" xmlns="http://www.w3.org/2000/svg"><g fill="#fff" transform="translate(.407 .407)"><path d="m171.30041 88.95055c0-4.03797-3.27365-7.31162-7.31162-7.31162s-7.31162 3.27365-7.31162 7.31162 3.27365 7.31162 7.31162 7.31162c4.04078-.00281 7.31162-3.27365 7.31162-7.31162zm-44.85041 4.00144c-18.50104 0-33.49801 14.99697-33.49801 33.49801 0 4.62526.93854 9.03134 2.63297 13.0384s4.14756 7.61791 7.17955 10.64709c6.06117 6.06117 14.43778 9.81252 23.6883 9.81252s17.62432-3.74854 23.6883-9.81252c3.03199-3.03199 5.48512-6.64003 7.17955-10.64709s2.63297-8.41314 2.63297-13.0384c-.00562-18.50104-15.00259-33.49801-33.50363-33.49801z"/><path d="m126.45 0c-69.83693 0-126.45 56.61307-126.45 126.45s56.61307 126.45 126.45 126.45 126.45-56.61307 126.45-126.45-56.61307-126.45-126.45-126.45zm70.25 155.21878c0 22.90993-18.57129 41.48122-41.48122 41.48122h-57.53756c-22.90993 0-41.48122-18.57129-41.48122-41.48122v-57.53756c0-8.59017 2.61049-16.57057 7.08401-23.19093 7.45493-11.03487 20.07745-18.29029 34.39721-18.29029h57.54037c14.31695 0 26.94228 7.25542 34.39721 18.28748 4.47071 6.62036 7.0812 14.60076 7.0812 23.19374z"/></g></svg>