<svg height="4096" viewBox="0 0 4096 4096" width="4096" xmlns="http://www.w3.org/2000/svg" xmlns:xlink="http://www.w3.org/1999/xlink"><mask id="a" fill="#fff"><path d="m0 0h4096v3947.9344h-4096z" fill="#fff" fill-rule="evenodd"/></mask><mask id="b" fill="#fff"><path d="m0 0h1524.67291v217.49287h-1524.67291z" fill="#fff" fill-rule="evenodd"/></mask><g fill="none" fill-rule="evenodd"><path d="m2409.46348 221.756438c-35.33684-31.828015-72.6776-48.370732-112.40396-57.571353-202.01342-46.782092-400.28144-24.301908-595.91931 37.477196-11.24219 3.55144-25.03698 6.188952-32.25941 20.431513 135.49666 52.983311 256.95401 129.373001 369.55478 221.109328 11.17658 9.102481 17.88015 7.317561 28.01302-.594974 33.19576-25.908949 66.99388-51.026644 100.8099-76.083003 75.00357-55.590153 155.6491-101.421514 242.20498-144.768707m1334.42054 2488.676022c4.5267-3.57598 7.81288-5.66145 10.49669-8.37257 54.89287-55.41841 83.79453-125.80929 106.64271-199.19345 67.48889-216.76663 81.17037-438.47093 52.9486-663.17464-14.68342-116.90922-41.28297-230.99079-94.27332-336.8102-19.09084-38.12124-41.41419-74.03433-75.59997-103.39045-2.64803 6.48951-5.14099 10.84447-6.22644 15.53678-19.21609 83.00801-52.28064 160.50791-89.10252 236.45597-65.85475 135.8441-148.0569 260.93575-239.03212 380.02859-13.48466 17.64065-14.14666 29.14756-.48308 47.25439 31.63914 41.91803 61.19685 85.55351 90.4146 129.33006 100.97689 151.29502 189.7156 308.98753 237.82142 487.60839 1.24052 4.61871 3.80505 8.86326 6.39343 14.72713m-3386.790295-1280.49339c-59.21083 43.8931-89.239691 108.37105-114.205095 175.41905-43.364419 116.47986-65.115214 238.05687-68.514708 362.28365-7.311893 267.41299 22.818356 526.44728 173.087904 756.01505-3.190753 34.76608-4.133069 68.80224 10.323726 102.2005 29.784335 68.76544 77.735088 120.19078 139.504485 158.56963 18.709143 11.61732 28.508034 24.89075 28.38279 48.70809-.119281 23.22237 5.135024 46.59195 16.979576 67.41602 5.212557 43.58641 24.524067 81.79352 45.964733 118.33226 86.895829 148.1116 206.379086 263.2359 347.1718 355.73281 91.834044 60.32541 190.252364 105.1815 297.986494 126.3184 55.76959 14.92954 112.231 12.66619 168.34651 4.4163 32.05066-4.71072 65.63408-4.55738 95.0069-22.17963 12.54234 3.40423 23.29547-3.35516 34.29314-7.10902 85.93562-29.34998 165.43009-71.71577 237.73792-127.77209 21.79851-16.89848 47.42592-29.34998 63.01588-53.99538 8.32577-7.02927 17.21217-13.46971 24.88787-21.18596 39.52955-39.73442 78.11082-80.50544 118.42166-119.38113 14.51643-13.99721 27.57168-32.74194 51.14747-32.76648 2.96412 1.95667 5.92824 3.91947 8.89236 5.87613 6.79302 26.40578 27.47029 42.04071 45.19537 59.34401 46.59692 45.48787 93.50397 90.84693 152.26153 120.14171 51.60074 37.63667 102.73628 76.00326 157.63512 108.53053 61.0239 36.16457 124.27237 67.06026 193.38348 83.50483 47.79569 17.60386 97.40444 26.38739 147.84219 27.79201 38.09222 1.05501 77.11483 6.11535 113.62659-11.56824 8.77904-1.07954 17.83243-1.07341 26.29538-3.39197 283.44024-77.4999 490.35608-258.68466 646.84611-507.19957 17.95768-28.51579 25.47235-61.90178 18.02328-96.82121 5.20063-47.75122-1.24052-95.28776-5.4869-142.48081-3.50685-39.02904-4.41934-78.8616-15.44086-117.0135 2.4035-11.40264-.59044-22.1551-3.21461-33.12224-41.61696-173.86721-121.03987-329.43744-218.58148-476.06467-19.93773-29.96949-38.58723-61.46629-67.44714-84.05688-47.19929-66.21994-104.28693-124.25132-150.00714-191.69801l-.39362-1.93826c31.17395-43.10185 69.37353-79.84913 103.11201-120.58334 19.60375-23.664 44.69439-42.88103 57.5409-72.25555 3.19076-2.29402 7.25822-3.93173 9.45298-6.98634 113.3582-157.91332 202.61579-328.66459 259.17263-516.68848 5.4869-18.23563 14.93391-35.83335 11.42707-56.08699 3.36371-9.47664 8.1886-18.69566 9.85256-28.47899 12.84651-75.47576 18.56601-151.65077 19.69321-228.21834 3.42932-45.757753-13.87232-86.019671-33.98897-124.539605-98.19766-188.023894-246.60643-324.364832-424.14946-429.356187-72.34957-42.782889-149.08867-75.580036-232.36434-89.319631-90.25954-22.780738-177.54303-11.789062-262.59597 24.492054-5.82685.999801-11.99366 1.055004-17.42688 3.140479-122.57859 46.95997-231.4757 116.418526-325.53432 210.136053-7.09719 7.072211-14.79675 13.862269-15.55418 25.136097-9.11899 7.697853-18.99541 14.628988-27.23173 23.222368-45.78581 47.726689-91.79826 95.257098-136.31373 144.21667-13.68744 15.052216-22.44859 14.935675-35.86168.920062-43.65665-45.622813-87.93953-90.619985-132.38344-135.439277-11.09905-11.194089-19.25187-26.252439-35.68872-31.04903-48.24895-54.486078-104.01258-99.802204-164.34464-138.978449-59.32415-38.526068-120.59257-73.433225-189.66193-90.724259-89.13234-35.778149-180.6145-43.273588-274.30932-24.074958-17.47459 3.710917-35.31895 6.127613-52.36413 11.322897-263.246054 80.217149-460.852061 248.533313-608.211166 482.830198-29.861868 47.475205-46.960724 101.090291-51.397958 158.183208-27.356978 21.23504-62.079526 25.80468-91.374812 43.35947-42.499635 25.47345-73.285926 57.39347-79.870209 110.41972-6.280117 50.59115-12.321673 100.61186-6.208549 152.00039 2.862732 24.02589 11.605991 47.70829 7.616059 72.54383m931.365845 2517.99533c-101.94903-32.58246-198.2382-79.07627-289.714397-134.53761-481.952778-292.23627-794.28275-720.54972-933.4055374-1274.80127-143.8880426-573.22323-48.7618601-1112.36736 271.8581054-1603.404516 332.512229-509.248247 797.718029-822.032564 1387.840309-908.4938683 764.62366-112.032897 1416.97457 127.4286033 1917.6007 739.3496493 356.85738 436.189185 505.05145 950.651115 437.4552 1519.280175-70.63194 594.12704-350.64883 1066.536-821.04333 1418.64991-137.11291 102.62986-286.83377 182.2091-445.91218 242.92093-69.89836-8.13948-140.08299-14.2855-209.60562-24.99502-65.60427-10.10842-130.50477-25.01956-195.71541-37.81455-104.57916-44.95424-205.63955-96.81507-300.38403-161.19489-24.79842-16.8494-49.57297-44.80089-75.34352-46.04604-27.58957-1.33716-51.20115 31.03063-77.00151 47.96591-7.53853 4.9438-15.13073 9.79559-22.62155 14.80686-81.75484 54.65169-169.24707 98.03569-258.02157 138.88645-6.84073 1.23288-13.95581 1.60704-20.47449 3.82745-118.69601 40.4398-241.29845 57.7247-365.51117 65.60043" fill="#cc0424" mask="url(#a)"/><path d="m1119.35188 5.58171017c65.21064 12.79499713 130.11114 27.70613723 195.70944 37.81455293 69.52263 10.7095231 139.71323 16.855538 209.61159 24.9950209-222.59527 90.276495-453.43878 139.168596-692.619996 147.71904-277.154159 9.899868-545.767835-33.183574-805.453367-133.8567708-9.2144171-3.5759748-19.21012129-5.2934241-26.599547-12.8256659 124.200799-7.8757317 246.80324-25.1667658 365.50521-65.6004289 6.518678-2.22041657 13.633759-2.59457516 20.474494-3.8274584 4.335846 2.3921615 8.588195 4.96220168 13.025429 7.13968202 165.793902 81.33349108 339.418568 97.09108798 518.589777 64.89504788 70.160778-12.6109847 140.47662-25.1483645 201.75697-66.45301973" fill="#102353" mask="url(#b)" transform="translate(1288.4673 3878.5071)"/><path d="m2459.0943 1370.9588c-3.75734-5.51424-6.98388-10.41511-10.37741-15.19943-119.93652-169.03994-240.06985-337.92655-376.05556-494.054954-10.28794-11.813597-15.78678-22.516987-33.02877-3.520771-144.53812 159.225955-277.60742 327.848805-399.76256 505.727475-9.65576 14.05242-12.53042 24.01362-2.57646 40.20058 110.90699 180.31378 247.42946 339.41705 385.9976 496.95009 11.4211 12.97901 16.1625 7.9248 24.69106-1.9444 37.57335-43.4944 76.44089-85.8234 113.63254-129.65515 98.56146-116.17318 195.33968-233.84299 276.87982-363.73736 6.94809-11.07142 13.35345-22.50472 20.59974-34.76608m-591.86974-717.90607c16.43088 4.802724 24.58967 19.861078 35.68275 31.055163 44.44391 44.819292 88.73275 89.81033 132.38941 135.439277 13.41309 14.015613 22.17424 14.12602 35.85571-.920062 44.52144-48.959572 90.53388-96.489981 136.31373-144.21667 8.24228-8.59338 18.11274-15.524515 27.2377-23.216234 5.02171 4.864062 10.55632 9.268092 14.97566 14.647389 90.38479 110.014894 177.54303 222.661166 260.79484 338.503117 23.09867 32.14084 47.06808 63.62537 73.0414 98.66133 30.94733-85.52897 49.76382-167.819329 59.55078-252.176758 17.39706-150.006927 14.03335-297.732101-49.85327-438.053841 85.05294-36.281116 172.33643-47.272791 262.60194-24.479786 55.83519 194.709679 55.79344 391.216546 12.69144 587.655941-54.09966 246.570514-171.83546 462.153334-316.49882 663.260514-107.07213 148.84765-228.75014 285.25606-348.47793 423.20404-12.70337 14.63512-12.71529 22.63352.18489 37.1153 69.11111 77.58577 137.64967 155.72972 205.23399 234.72625 153.4782 179.38758 291.23522 369.62575 383.34361 591.25032 106.72024 256.7832 149.24373 517.93363 53.1812 789.07594-36.51175 17.68359-75.53436 12.62325-113.63255 11.56211-50.43775-1.39849-100.0465-10.18815-147.83026-27.80428 99.31293-205.71975 80.98548-412.22463 6.41132-624.90005-115.46946 152.76098-226.43609 301.62703-357.43588 432.88309-58.76353-29.30091-105.67058-74.65384-152.2675-120.14171-17.72508-17.3033-38.39638-32.93823-45.18941-59.35014 157.10432-153.20261 289.83964-327.40717 415.57319-507.80682 11.98769-17.19903 11.76702-28.24591.83497-45.16892-74.89025-115.95236-159.57939-224.06579-247.69188-329.40063-54.9227-65.65564-111.47357-129.87597-168.01849-195.58681-9.63189 10.72793-17.12867 18.84287-24.37496 27.18477-132.39537 152.39296-262.31567 306.71191-370.81916 478.83713-16.37721 25.97642-15.60785 42.29832 2.28422 65.97459 66.39152 87.88433 129.43125 178.44911 196.25814 265.97155 60.6422 79.41976 124.57653 156.18361 187.05565 234.12514-23.56982.02454-36.63104 18.76927-51.14747 32.76648-40.31084 38.87569-78.88615 79.64058-118.42166 119.38113-7.6757 7.71625-16.5621 14.15669-24.89384 21.17983-119.47729-137.94798-223.40041-288.61736-334.84416-438.09065-45.51743 127.42247-69.82083 253.06002-59.75356 384.83745 6.45308 84.43717 30.42845 163.83853 59.56271 242.12968-29.37878 17.62226-62.9622 17.47505-95.01286 22.18577-56.10954 8.24375-112.57096 10.50711-168.34651-4.4163-47.18139-159.66145-53.20506-321.3593-21.53609-484.62739 44.21727-227.94232 139.54623-432.9751 266.00143-623.90639 115.55893-174.46831 251.59832-331.75599 388.67545-488.07455 14.95777-17.05795 14.04527-25.90281-.10139-41.72788-63.8747-71.45816-126.81304-143.80571-189.62614-216.25753-161.55349-186.34939-303.19906-385.91699-391.67535-621.17074-76.20234-202.61608-108.35439-411.01015-84.4804-627.942396 7.40135-67.232006 25.0489-132.016646 37.87155-197.948297 93.69482-19.19863 185.17698-11.70319 274.31528 24.062691-9.95395 23.246903-21.32138 45.990838-29.63523 69.857249-54.23087 155.680644-50.81945 314.250283-20.49835 473.844258 9.54244 50.210855 23.13445 99.280835 42.58313 150.982195 113.37013-165.709323 229.67456-321.782526 361.55703-464.97486" fill="#102353"/><path d="m2845.4718 3714.58212c96.06254-271.13618 53.53904-532.29274-53.1812-789.07594-92.10242-221.61843-229.86541-411.85661-383.34361-591.25032-67.58432-78.99653-136.11692-157.14048-205.22803-234.72625-12.90614-14.48178-12.88825-22.48018-.19084-37.10917 119.72778-137.95411 241.41176-274.35639 348.48388-423.21017 144.66337-201.10718 262.3932-416.69 316.49286-663.25438 43.102-196.439396 43.14375-392.946263-12.69144-587.662075 83.27567 13.727327 160.01476 46.524474 232.35837 89.307363 177.54303 104.991355 325.95181 241.332293 424.14946 429.356187 20.11665 38.519934 37.41829 78.781852 34.0009 124.539605-146.35118-17.65292-293.08407-21.23503-440.306-15.73919-33.39257 1.24515-47.73605 10.961-53.32434 46.30366-10.93802 69.20707-35.65293 135.12032-56.93257 204.60341 11.71334-1.29422 20.40889-2.07321 29.05076-3.23862 51.2429-6.8882 102.86152-13.95427 154.32509-11.64799 113.15542 5.07261 225.84566 16.87394 337.63532 36.41606 3.50685 20.25364-5.94017 37.85136-11.42707 56.08699-56.55684 188.03003-145.82038 358.77516-259.17859 516.68848-2.19476 3.05461-6.25626 4.69232-9.45298 6.98634-40.82374-43.15091-81.14651-86.81093-122.57262-129.3362-85.01119-87.27096-171.47165-172.95327-263.84245-252.14609-15.55418-13.33476-22.45455-13.58625-31.66301 6.67965-29.05672 63.94432-67.21455 122.60748-106.35644 180.27084-13.31766 19.62186-9.0176 28.50966 6.8467 41.03477 25.95544 20.49285 50.68228 42.64181 75.55226 64.54543 99.62306 87.76165 189.25041 186.11016 281.38265 281.79049 0 0 .39959 1.93826.39959 1.95666-3.07744 12.59872-12.81072 20.43152-20.53413 29.48493-107.5075 125.9381-217.90755 249.11602-336.58566 364.08084-16.17444 15.67173-16.01341 25.17904-2.80906 42.30446 30.82804 39.97363 60.60641 80.94706 88.3272 123.24539 13.11489 20.01441 20.92776 22.1919 39.55937 5.91293 134.1309-117.16684 260.43103-242.69399 382.04345-373.34894 28.86587 22.59059 47.50941 54.08739 67.45311 84.05688 97.53565 146.62723 176.95855 302.19746 218.57551 476.06467 2.63014 10.96714 5.62408 21.7196 3.22058 33.12224-170.62477 48.10084-343.48604 75.5923-521.01118 59.3072-21.2677-1.95053-14.22419 8.8694-9.78696 19.82427 22.91378 56.62062 40.72832 115.0139 56.91468 173.96535 13.61587 49.57908 13.63973 49.63428 63.08745 49.32759 145.16434-.89552 289.81578-7.34823 431.72377-42.9301 7.4431 34.91943-.06561 68.30542-18.02328 96.82121-156.49003 248.51491-363.40588 429.69967-646.85208 507.20571-8.45699 2.31242-17.51038 2.30629-26.28942 3.38583" fill="#fefefe"/><path d="m1238.90211 399.27997c-12.82266 65.931651-30.4702 130.716292-37.87156 197.948297-23.87399 216.932246 8.27807 425.326313 84.4804 627.942393 88.4763 235.25375 230.12187 434.82136 391.67535 621.17074 62.8131 72.45796 125.75145 144.80551 189.62614 216.25753 14.14667 15.82507 15.05916 24.66993.10139 41.72789-137.07713 156.31855-273.11651 313.60624-388.67544 488.08068-126.4552 190.92516-221.78416 395.95793-265.99547 623.90026-31.67493 163.26809-25.65127 324.96594 21.53012 484.62738-107.72816-21.13689-206.15245-65.99299-297.98649-126.32453-140.78675-92.49077-260.270006-207.61508-347.1718-355.72668-21.440666-36.53873-40.752176-74.74585-45.970697-118.32612 143.774727 36.52646 290.185551 44.67821 437.538692 43.32266 48.052145-.44163 48.642575.34962 59.312215-48.72649 14.70729-67.6307 37.39443-132.7527 58.74564-195.71562-49.6505 0-98.04855-.61951-146.422753.12268-114.515225 1.75425-227.933069-1.33103-337.993167-41.94257-31.114314-11.48237-34.245426-24.14856-28.794308-54.12418 35.312986-194.25579 120.592565-363.95204 235.996429-519.47934 22.579795-30.42952 22.579795-31.18397 47.610803-2.33083 118.612509 136.70283 246.552756 263.30951 384.596046 379.20667 13.80076 11.58665 18.83439 11.56825 27.22577-4.95607 29.43843-57.95778 63.03377-113.48046 100.21946-166.4883 12.61391-17.97802 13.34749-28.39925-4.53862-44.15072-125.39957-110.43199-242.27655-229.86218-351.95495-356.83075-15.02934-17.39531-19.00734-27.31358-.73357-46.21779 102.95694-106.50639 205.62165-213.28267 315.34777-312.50217 13.50255-12.21229 14.6536-20.41311 4.78911-35.12797-31.58547-47.13171-57.37988-97.79647-82.72698-148.6759-17.62369-35.36719-17.71315-35.42239-47.88515-10.98554-119.73971 96.98068-227.724325 206.82383-330.764767 321.89293-16.663483 18.61592-23.885916 24.09949-41.986729-.25762-121.940434-164.09001-212.999153-343.65547-266.961642-543.03906-5.49883-20.32724 3.113221-23.17943 16.603843-26.08683 113.101751-24.40005 227.438055-37.02943 343.002948-35.15864 53.884956.87099 107.722197 4.86406 164.195547 7.56904-27.51801-77.81885-49.65647-153.91412-64.25043-232.0826-2.91641-15.61038-12.14872-15.47544-23.65332-15.75759-162.084282-3.93787-323.697404-2.12228-482.23309 39.58107 4.443198-57.092923 21.542055-110.70801 51.403923-158.183215 147.359104-234.296885 344.965111-402.613048 608.211167-482.830197 17.04518-5.195284 34.88357-7.611981 52.35817-11.322898" fill="#fefefe"/><path d="m526.92885 1051.61689c158.535686-41.70335 320.148808-43.51894 482.23309-39.58107 11.5046.28215 20.73691.14721 23.65332 15.7576 14.59396 78.16847 36.73242 154.26374 64.25639 232.0826-56.47931-2.70498-110.316551-6.69805-164.201507-7.56905-115.564893-1.87079-229.901197 10.7586-342.996984 35.15864-13.496586 2.9074-22.108637 5.75959-16.609807 26.08683 53.962489 199.3836 145.021208 378.94905 266.961642 543.03906 18.100813 24.35712 25.323246 18.87354 41.986729.25762 103.040442-115.0691 211.025057-224.91225 330.764767-321.89906 30.172-24.43072 30.26146-24.37552 47.88515 10.99167 25.3471 50.8733 51.14151 101.54419 82.72698 148.66977 9.86449 14.721 8.7194 22.92182-4.78911 35.13411-109.72612 99.21336-212.39083 205.99577-315.34777 312.50216-18.26781 18.89808-14.29577 28.82248.73357 46.21779 109.6784 126.96857 226.55538 246.39877 351.95495 356.83076 17.88611 15.75146 17.15253 26.1727 4.53862 44.15071-37.18569 53.00785-70.78103 108.53053-100.21946 166.48831-8.39138 16.52431-13.42501 16.54271-27.22577 4.95606-138.04329-115.89715-265.983537-242.50383-384.596046-379.2128-25.031008-28.85314-25.031008-28.09256-47.610803 2.33696-115.3979 155.5273-200.683443 325.22356-235.996429 519.47321-5.451118 29.98175-2.320006 42.64794 28.794308 54.13032 110.060098 40.61154 223.477942 43.69068 337.993167 41.94256 48.374203-.74218 96.772253-.12267 146.422753-.12267-21.35121 62.96291-44.03835 128.08491-58.74564 195.71561-10.66964 49.07611-11.26007 48.28486-59.312215 48.72649-147.353141 1.35556-293.763965-6.79619-437.538692-43.32266-11.832623-20.8302-17.092892-44.19978-16.967648-67.42215.125245-23.81734-9.673647-37.09077-28.38279-48.71422-61.77536-38.37273-109.726113-89.79807-139.504485-158.56351-14.462758-33.39825-13.514478-67.44055-10.365474-102.2189 12.918076-1.42916 10.126913-13.78253 12.739156-21.27797 12.369385-35.50213 22.532082-71.82005 35.241417-107.1811 66.463084-184.90795 169.282857-347.86935 288.211459-500.84502 11.534423-14.83753 14.796744-24.59632 2.009876-41.32919-144.019251-188.35511-259.864453-392.60277-328.528261-623.06606 3.983968-24.83554-4.759291-48.51794-7.616058-72.54997-6.119089-51.3824-.077533-101.40311 6.202585-152.00039 6.584282-53.02011 37.370574-84.94014 79.876173-110.41359 29.295286-17.56092 64.011869-22.12443 91.368847-43.35946" fill="#102353"/><g fill="#fefefe"><path d="m2026.6298 3320.96053c-62.47912-77.9354-126.40749-154.70538-187.04969-234.12514-66.82689-87.51631-129.87258-178.08722-196.2641-265.96542-17.88611-23.67627-18.66143-40.00431-2.28422-65.98073 108.50349-172.11908 238.42379-326.43803 370.82512-478.83712 7.24629-8.3419 14.7371-16.45071 24.369-27.17864 56.54491 65.7047 113.09579 129.92504 168.01848 195.58681 88.1125 105.33484 172.8076 213.44214 247.69188 329.3945 10.93206 16.92914 11.15273 27.96989-.83496 45.16892-125.72759 180.40578-258.46887 354.61034-415.57319 507.81295-2.97008-1.95667-5.9342-3.91333-8.89832-5.87613"/><path d="m3743.88641 2710.43184c-2.58839-5.86386-5.15292-10.10841-6.3994-14.72712-48.10582-178.62086-136.84453-336.31338-237.81545-487.60839-29.21776-43.77656-58.78142-87.4059-90.41461-129.33007-13.66954-18.10682-13.00157-29.6076.47712-47.25439 90.97523-119.09284 173.17737-244.18448 239.03212-380.02859 36.82189-75.94806 69.88643-153.44796 89.10252-236.45596 1.08545-4.69232 3.57841-9.04728 6.22644-15.53678 34.18579 29.35611 56.51509 65.2692 75.60593 103.39044 52.99036 105.81941 79.5899 219.90098 94.27333 336.81021 28.22176 224.7037 14.54029 446.408-52.94861 663.17464-22.84817 73.38415-51.74983 143.77504-106.64271 199.19345-2.68977 2.71111-5.97595 4.79659-10.49668 8.37256"/><path d="m357.096707 1429.93785c68.663808 230.46329 184.50901 434.71708 328.528261 623.07219 12.792831 16.72673 9.524546 26.48553-2.009876 41.3292-118.928602 152.97566-221.748376 315.93706-288.211459 500.84501-12.709335 35.35492-22.872032 71.67897-35.241418 107.17497-2.612242 7.50157.178921 19.85494-12.739155 21.27797-150.233764-229.54937-180.364013-488.58365-173.046156-755.99664 3.399494-124.22679 25.150289-245.8038 68.514708-362.28366 24.95944-67.04799 54.994265-131.52595 114.205095-175.41904"/><path d="m1867.22336 653.055183c-131.88246 143.192334-248.18689 299.259404-361.55702 464.968727-19.44868-51.69523-33.0407-100.76521-42.57717-150.982195-30.3211-159.587841-33.73252-318.15748 20.49239-473.838124 8.31385-23.872545 19.68724-46.610347 29.63523-69.863383 69.06936 17.309435 130.33778 52.210458 189.66193 90.736526 60.3261 39.182378 116.08973 84.492371 164.34464 138.978449"/><path d="m2593.21565 412.774214c63.88066 140.321741 67.25034 288.046914 49.85328 438.053841-9.78696 84.357429-28.60942 166.647785-59.55078 252.176755-25.97332-35.02983-49.94274-66.51435-73.0414-98.66132-83.25181-115.841958-170.41602-228.482096-260.79484-338.503124-4.41934-5.379296-9.95396-9.783327-14.97567-14.647389.75147-11.279961 8.45103-18.07002 15.54821-25.14223 94.05863-93.717528 202.95574-163.176084 325.53433-210.136054 5.43322-2.085474 11.60002-2.140678 17.42687-3.140479"/><path d="m2232.98383 3506.32299c130.99979-131.25606 241.96642-280.12211 357.43589-432.88309 74.57415 212.67542 92.9016 419.18643-6.40536 624.90005-69.12304-16.42617-132.37152-47.32186-193.40137-83.48643-54.89288-32.52727-106.03439-70.89386-157.62916-108.53053"/></g><path d="m3076.06065 2060.79561c-92.13821-95.68646-181.7596-194.02883-281.38265-281.79049-24.86998-21.90361-49.60279-44.05871-75.55226-64.54542-15.87027-12.52512-20.17033-21.41292-6.8467-41.03478 39.13593-57.66949 77.29972-116.33265 106.35644-180.27697 9.20846-20.25976 16.10287-20.00828 31.65704-6.67351 92.37677 79.19281 178.83722 164.87513 263.84842 252.14609 41.42611 42.52527 81.74888 86.18528 122.57262 129.33619-12.8465 29.37452-37.93715 48.59155-57.5409 72.25555-33.73848 40.73422-71.93806 77.4815-103.11201 120.58334" fill="#102353"/><path d="m1497.13063 3683.16874c-29.13426-78.29115-53.10964-157.69251-59.56271-242.12968-10.06727-131.77743 14.23612-257.41498 59.75356-384.83745 111.44375 149.47329 215.36687 300.14267 334.85012 438.09065-15.58996 24.64539-41.21737 37.10304-63.00991 53.99538-72.30783 56.05631-151.80827 98.42211-237.74389 127.77209-10.9917 3.75999-21.7508 10.51938-34.28717 7.10901" fill="#fefefe"/><path d="m3536.63359 3107.17121c-141.90798 35.57574-286.55346 42.03458-431.7178 42.9301-49.45369.30669-49.47754.24535-63.09341-49.32759-16.18636-58.95145-34.0009-117.35086-56.91468-173.96535-4.43723-10.96101-11.47478-21.7748 9.78696-19.82427 177.52514 16.27896 350.39238-11.20636 521.01117-59.3072 11.02152 38.1519 11.93402 77.98446 15.44086 117.00736 4.24639 47.19919 10.6935 94.73573 5.4869 142.48695" fill="#102353"/><path d="m3516.76982 1288.19492c-111.78967-19.54826-224.4799-31.34345-337.63533-36.41606-51.46356-2.31242-103.08219 4.75979-154.31912 11.64798-8.64784 1.16542-17.34338 1.9444-29.05673 3.23862 21.27964-69.48309 46.00052-135.39634 56.93258-204.60341 5.58829-35.34265 19.93177-45.05851 53.32434-46.30366 147.22193-5.49584 293.95481-1.91373 440.30599 15.7392-1.13912 76.56757-6.85266 152.74257-19.70513 228.21834-1.66396 9.78332-6.48886 19.00235-9.8466 28.47899" fill="#102353"/><path d="m3226.46141 2254.4325c-121.61838 130.65495-247.91255 256.18209-382.04345 373.34894-18.63161 16.27283-26.44448 14.10148-39.56534-5.91294-27.71482-42.29832-57.49319-83.27175-88.32123-123.24538-13.20435-17.12543-13.36538-26.63274 2.80906-42.30446 118.67811-114.97096 229.07219-238.14274 336.58565-364.08698 7.72342-9.04728 17.4567-16.88007 20.53414-29.47879 45.71424 67.42828 102.80784 125.45967 150.00117 191.67961" fill="#102353"/><path d="m2409.46348 221.756438c-86.55588 43.347193-167.20141 89.178554-242.20498 144.768707-33.81602 25.056359-67.61414 50.174054-100.8099 76.083003-10.13287 7.912535-16.83644 9.697455-28.01302.594974-112.60077-91.736327-234.05812-168.126017-369.55478-221.109328 7.22243-14.242561 21.01722-16.880073 32.25941-20.431513 195.63787-61.779104 393.90589-84.259288 595.91931-37.477196 39.72636 9.200621 77.06712 25.743338 112.40396 57.571353" fill="#fefefe"/><path d="m2407.8192 3884.08884c-61.28035 41.30466-131.59619 53.84203-201.75697 66.45302-179.17121 32.19604-352.79588 16.43844-518.58978-64.89505-4.43723-2.17748-8.68958-4.74752-13.02543-7.13968 88.7745-40.85076 176.26077-84.23475 258.01561-138.88644 7.49678-5.01128 15.08898-9.86307 22.62154-14.80687 25.80633-16.93528 49.4179-49.30306 77.00152-47.9659 25.77651 1.24515 50.55106 29.19663 75.34947 46.04604 94.74449 64.37981 195.80488 116.23451 300.38404 161.19488" fill="#fefefe"/><path d="m2459.0943 1370.9588c-7.24629 12.26136-13.65165 23.69466-20.59974 34.76608-81.54014 129.89437-178.31836 247.56418-276.87982 363.73736-37.19165 43.83175-76.05919 86.16075-113.63254 129.65515-8.52856 9.8692-13.26996 14.92341-24.69106 1.9444-138.56814-157.53304-275.09061-316.63631-385.9976-496.95009-9.95396-16.18696-7.0793-26.14816 2.57646-40.20058 122.15514-177.87867 255.22444-346.50152 399.76256-505.727475 17.24199-18.996216 22.74083-8.292826 33.02877 3.520771 135.98571 156.128404 256.11904 325.015014 376.05556 494.054954 3.39353 4.78432 6.62007 9.68519 10.37741 15.19943" fill="#fefefe"/></g></svg>