<svg xmlns="http://www.w3.org/2000/svg" xmlns:xlink="http://www.w3.org/1999/xlink" width="1048" height="248" viewBox="0 0 1048 248"><defs><polygon id="a" points="0 0 68.797 0 68.797 195.93 0 195.93"/></defs><g fill="none" fill-rule="evenodd"><text fill="#23573F" font-family="NotoSans-Medium, Noto Sans" font-size="110" font-weight="400" letter-spacing="-.827" transform="translate(248 .098)">
                    <tspan x="0" y="118">Banking on AI</tspan>
                </text><g transform="translate(70.113 26.035)"><mask id="b" fill="#fff"><use xlink:href="#a"/></mask><path fill="#23573F" fill-rule="nonzero" d="M68.7973943,195.929688 C64.5759646,195.280864 60.6552343,194.582695 56.8499458,193.357988 C27.8936808,184.039679 10.529047,163.84398 2.53050007,135.027222 C0.0266097673,126.005587 -0.633275715,116.757463 0.613923157,107.418619 C1.48233858,100.918421 3.75840762,94.9006266 6.67843915,89.0832724 C11.4553364,79.5672814 17.5688462,70.8977963 23.6137647,62.1829518 C30.2686561,52.588501 37.0729788,43.0905924 42.8649666,32.9288416 C46.7737547,26.0709776 49.9773379,18.9431022 51.0034522,11.0045791 C51.4762425,7.34517193 51.4361289,3.69465274 50.9167944,0 C51.591378,0.232927092 51.6924278,0.852329264 51.938928,1.31542509 C57.0832788,10.980367 58.8504246,21.3869977 58.6085175,32.2128973 C58.2707665,47.3485609 53.4105797,61.1813653 46.4069135,74.3944611 C42.4834274,81.7969452 37.6774401,88.6397915 33.0824324,95.6177968 C28.0676089,103.233287 23.8568964,111.234639 21.7648605,120.18854 C18.5364741,134.007247 20.5847218,147.254668 26.4177421,160.002522 C33.019659,174.431437 43.7395063,184.756236 58.0830589,191.404772 C61.0796433,192.794059 64.1631916,193.936322 67.2920593,194.971928 C67.7516826,195.123944 68.2832655,195.130687 68.7973943,195.929688" mask="url(#b)"/><path fill="#F5B50A" fill-rule="nonzero" d="M86.1302129,194.0899 C75.1234455,192.787348 65.0937985,188.756177 56.1169063,182.242494 C41.3618057,171.536428 32.9544666,157.008214 30.7650554,138.931846 C29.4379353,127.974159 31.8521057,117.785437 37.3406382,108.213973 C42.1744907,99.7838511 47.8911506,91.955049 53.3227276,83.9300977 C58.4710593,76.3231893 63.6347014,68.7291532 67.5082752,60.352053 C70.743092,53.3565781 72.3479457,46.0837361 71.4118576,38.3523957 C71.3692942,38.0008596 71.3567396,37.6459523 71.3169321,37.119108 C71.9409909,37.4783061 72.110632,38.0005532 72.3589693,38.444647 C77.1312734,46.9786665 78.7811401,56.2280175 78.4957512,65.881926 C78.0728733,80.1885531 72.8057318,92.892887 65.4643143,104.901811 C61.9511514,110.648674 57.8007626,115.976881 54.4661209,121.841434 C49.365252,130.810965 46.7073374,140.352701 47.7524368,150.727151 C48.9766698,162.876445 54.2637152,173.033599 63.1221036,181.352467 C68.358318,186.269679 74.4488619,189.83469 81.1371305,192.391065 C82.7784233,193.01813 84.4647293,193.526891 86.1302129,194.0899"/><path fill="#F5B50A" fill-rule="nonzero" d="M95.7468725,193.096619 C86.2831042,191.624276 78.111854,187.401552 71.1479953,180.891546 C61.7831332,172.136859 56.9734713,161.256712 56.5380388,148.440819 C56.2587741,140.215734 59.0811242,132.949022 63.3441987,126.095449 C68.6324689,117.593916 74.8822428,109.758678 80.3389293,101.37698 C83.9604911,95.8140072 87.4846776,90.1998514 89.2487612,83.6877003 C90.2761004,79.8955859 90.5752689,76.0673067 90.0326623,71.9490943 C90.7593018,72.4955535 90.9678318,73.1266021 91.2538332,73.6853207 C95.427494,81.8494152 96.227012,90.5354502 95.0753509,99.4737209 C93.6621856,110.442748 88.7765832,119.956594 82.5191542,128.870652 C79.0626402,133.794609 75.4655755,138.618651 72.8725777,144.104084 C64.9756929,160.809554 71.3516258,180.30126 87.4877397,189.283972 C90.1716823,190.77777 93.0130175,191.732158 95.7468725,193.096619"/><path fill="#F5B50A" fill-rule="nonzero" d="M104.503109,102.643031 C106.801838,106.461809 107.564304,110.690662 107.789063,115.044866 C108.256648,124.09623 105.393265,132.217109 100.825204,139.864474 C97.9379373,144.698323 94.2156319,148.933 91.0855394,153.590009 C88.0289376,158.137298 85.7519499,162.986166 85.3750037,168.566301 C84.99867,174.135711 86.5171721,179.159888 89.6258299,183.747937 C90.315724,184.765768 90.9670356,185.809955 91.5191347,186.935667 C88.1685701,185.500715 85.4904454,183.244692 83.215295,180.508105 C75.106512,170.753671 74.0709052,157.284662 80.4753158,146.319312 C84.0408409,140.214784 88.4757,134.739771 92.6649777,129.083321 C96.1273095,124.408535 99.5795364,119.729766 102.05893,114.413818 C103.800966,110.679322 104.514439,106.772583 104.503109,102.643031"/></g><rect width="248" height="248"/></g></svg>