<svg height="690" viewBox="0 0 694 690" width="694" xmlns="http://www.w3.org/2000/svg" xmlns:xlink="http://www.w3.org/1999/xlink"><mask id="a" fill="#fff"><path d="m0 0h693.026v689.09h-693.026z" fill="#fff" fill-rule="evenodd"/></mask><g fill="none" fill-rule="evenodd"><path d="m113.124 573.309871c-2.662 2.502-2.799 3.692-.067 6.341 38.833 37.645 83.724 65.151 135.464 81.184 33.293 10.318 67.412 15.071 102.277 14.488 2.967-.05 4.838-.066 4.739-4.103-.293-11.981-.081-23.974-.066-35.962 9.143-.382 18.259-.997 27.364-2.013 51.488-5.746 97.798-24.504 139.273-55.348 9.057-6.737 17.708-14.022 26.546-21.054 8.256 7.971 16.645 15.812 24.688 23.994 2.361 2.401 3.368 1.784 5.4-.161 26.057-24.934 47.326-53.47 63.974-85.405 9.123-17.499 17.131-35.518 22.405-54.626.315-.754.713-1.485.935-2.266 13.521-47.607 16.704-95.818 9.045-144.794-7.985-51.062-27.227-97.465-56.534-139.873-1.674-2.423-2.71-2.505-4.963-.874-8.764 6.347-17.724 12.424-26.472 18.792-2.295 1.671-3.45 1.59-5.133-.771-6.094-8.549-12.867-16.553-19.966-24.295-9.689-10.566-20.603-19.822-31.096-29.53 8.128-8.567 16.197-17.1910005 24.429-25.6570005 1.815-1.866 2.156-2.87-.213-4.482-3.843-2.615-7.429-5.605-11.203-8.326-29.025-20.925-60.328-37.374-94.577-48.013-32.268-10.145-65.347-15.042-99.137-15.605-4.06-.068-4.986 1.157-4.872 4.982.277 9.314-.011 18.644.196 27.961.074 3.3-.966 4.236-4.245 4.175-9.491-.177-18.932.773-28.358 1.868-57.428 6.672-108.103 29.089-152.901 65.3370005-3.59 2.904-6.557 6.637-10.929 8.548-7.928-9.678-17.892-17.343-26.262-26.585-1.629-1.7980005-2.585-.126-3.623.839-29.221 27.125-52.647 58.583-70.407 94.264-3.355 6.742-3.334 6.894 3.744 9.653 10.053 3.919 19.597 9.072 29.939 12.279-.625 1.709-1.169 3.452-1.886 5.121-12.191 28.334-20.302 57.733-23.932 88.42-2.137 18.064-1.687 36.14-1.633 54.235-11.629 2.108-23.386 3.158-35.15 4.046-3.811.287-5.276 1.531-4.706 5.515 1.79 12.502 3.099 25.063 5.712 37.454 4.792 22.729 12.437 44.489 21.466 65.828 1.219 2.88 2.546 3.362 5.218 2.119 3.618-1.683 7.375-3.062 11.033-4.661 7.448-3.255 15.346-5.438 22.481-9.436.947 1.721 1.959 3.409 2.83 5.167 9.344 18.857 20.002 36.877 33.641 53.009.984 1.305 1.908 2.66 2.963 3.906 5.709 6.747 11.451 13.467 17.181 20.196-8.181 8.064-16.244 16.254-24.612 24.119z" fill="#fcfcfd" mask="url(#a)"/><path d="m160.0556 119.273771c44.799-36.2480005 95.473-58.6650005 152.901-65.3370005 9.427-1.095 18.867-2.045 28.358-1.868 3.279.061 4.319-.875 4.246-4.175-.208-9.317.081-18.647-.197-27.96-.114-3.825.812-5.051 4.872-4.983 33.791.563 66.869 5.46 99.135 15.605-3.435 10.942-6.823 21.897-10.335 32.812-.78 2.422-.833 3.675 2.174 4.654 19.687 6.403 38.293 15.189 56.067 25.815 11.731 7.0130005 22.381 15.5530005 33.66 23.1970005 10.493 9.708 21.408 18.964 31.096 29.53 7.1 7.743 13.872 15.747 19.966 24.295 1.684 2.361 2.839 2.443 5.134.772 8.747-6.369 17.707-12.446 26.471-18.793 2.253-1.631 3.289-1.549 4.963.874 29.307 42.409 48.549 88.811 56.534 139.873 7.66 48.976 4.476 97.187-9.045 144.794-.222.781-.619 1.512-.934 2.263-12.437-3.696-24.874-7.39-37.312-11.084.372-1.784.714-3.575 1.121-5.352 2.146-9.381 4.77-18.66 5.944-28.245 1.148-2.495.927-5.218 1.287-7.841 5.352-38.993 3.551-77.6-6.137-115.807-.625-2.461-1.185-3.227-3.93-2.539-18.688 4.682-37.429 9.152-56.153 13.69-.219-.63-.477-1.248-.652-1.89-12.172-44.636-35.611-82.424-70.611-112.506-52.018-44.711-112.583-62.754-180.704-54.974-40.549 4.63-77.121 19.548-109.989 43.688-18.391 13.508-34.14 29.656-48.058 47.661-.708-.416-1.51-.727-2.108-1.264-14.148-12.723-28.57-25.147-42.19-38.45.972-2.541 2.911-4.415 4.548-6.485 8.858-11.201 19.047-21.181 28.95-31.423 4.372-1.91 7.339-5.643 10.928-8.547z" fill="#ff2722"/><path d="m634.8751 395.960371c-1.174 9.585-3.799 18.865-5.945 28.245-.406 1.777-.748 3.568-1.12 5.353-.611 1.346-1.354 2.647-1.816 4.041-13.071 39.487-33.713 74.549-61.28 105.651-5.271 5.947-11.601 10.918-16.061 17.593-8.837 7.032-17.488 14.317-26.546 21.053-41.474 30.845-87.784 49.602-139.272 55.348-9.105 1.016-18.222 1.632-27.364 2.011-26.367.652-52.42-1.798-78.014-8.287-15.59-3.953-31.1-8.226-45.631-15.361.87-2.153 1.668-4.338 2.623-6.452 7.179-15.882 14.39-31.751 21.59-47.624 40.394 16.552 82.433 21.748 125.337 15.054 69.626-10.863 122.9-47.52 160.904-106.544 16.232-25.209 26.173-52.999 32.113-82.288 20.336 3.199 40.344 8.025 60.482 12.207" fill="#47b4ec"/><path d="m115.6299 165.729071c13.62 13.302 28.041 25.726 42.19 38.449.598.538 1.4.848 2.108 1.264-.829 1.238-1.653 2.481-2.487 3.717-46.181 68.431-56.453 141.425-27.545 219.239 8.165 21.976 20.252 41.827 34.634 60.298-15.647 12.131-31.294 24.261-46.941 36.392-13.636-16.131-24.294-34.151-33.637-53.008-.872-1.758-1.884-3.446-2.831-5.167-.332-1.104-.539-2.265-1.015-3.304-9.674-21.121-16.45-43.165-20.561-65.994-1.883-10.452-3.009-21.041-4.478-31.568-.054-18.094-.504-36.171 1.633-54.235 3.63-30.686 11.742-60.085 23.932-88.42.718-1.668 1.261-3.412 1.885-5.122.845-1.41 1.773-2.776 2.524-4.233 8.767-17.009 18.16-33.618 30.589-48.308m116.1961 445.8781c14.531 7.135 30.041 11.408 45.631 15.361 25.594 6.489 51.647 8.939 78.014 8.287-.015 11.991-.227 23.984.066 35.964.099 4.037-1.772 4.054-4.739 4.104-34.865.582-68.984-4.171-102.277-14.488-51.74-16.033-96.631-43.54-135.464-81.184-2.732-2.649-2.595-3.84.067-6.341 8.368-7.865 16.431-16.055 24.611-24.119 1.912 1.594 3.939 3.069 5.717 4.8 13.991 13.624 29.27 25.613 45.83 35.937 13.548 8.446 27.318 16.504 42.544 21.679" fill="#142a6c"/><path d="m231.826 611.607171c-15.226-5.175-28.996-13.233-42.544-21.679-16.56-10.324-31.839-22.313-45.83-35.937-1.778-1.731-3.805-3.206-5.717-4.8-5.73-6.729-11.471-13.449-17.18-20.196-1.055-1.246-1.979-2.602-2.965-3.907 15.646-12.131 31.293-24.262 46.939-36.39 3.745 4.225 7.393 8.54 11.251 12.657 22.813 24.344 49.8 42.746 80.259 56.177-7.2 15.872-14.411 31.741-21.59 47.623-.955 2.114-1.753 4.3-2.623 6.452" fill="#ff2722"/><path d="m548.6536 556.842971c4.459-6.675 10.789-11.646 16.06-17.592 27.568-31.102 48.21-66.165 61.281-105.651.461-1.395 1.204-2.696 1.816-4.041 12.437 3.693 24.874 7.386 37.311 11.083-5.274 19.111-13.283 37.13-22.406 54.629-16.648 31.935-37.917 60.471-63.973 85.405-2.032 1.945-3.04 2.562-5.4.161-8.043-8.182-16.432-16.023-24.689-23.994" fill="#142a6c"/><path d="m115.6299 165.729071c-12.429 14.69-21.822 31.299-30.589 48.308-.751 1.457-1.679 2.823-2.524 4.233-10.341-3.205-19.885-8.359-29.938-12.277-7.078-2.759-7.099-2.911-3.743-9.653 17.759-35.682 41.185-67.14 70.406-94.265 1.038-.964 1.994-2.6370005 3.623-.838 8.37 9.241 18.334 16.907 26.262 26.584-9.902 10.241-20.091 20.222-28.95 31.423-1.636 2.069-3.575 3.943-4.547 6.485m-60.5631 200.3185c1.469 10.527 2.595 21.115 4.478 31.568 4.111 22.828 10.887 44.873 20.561 65.994.476 1.038.683 2.2 1.015 3.304-7.135 3.997-15.033 6.18-22.481 9.435-3.658 1.599-7.415 2.978-11.033 4.661-2.672 1.243-3.998.762-5.217-2.119-9.029-21.339-16.675-43.098-21.467-65.828-2.613-12.391-3.921-24.951-5.711-37.454-.571-3.984.894-5.228 4.706-5.515 11.763-.888 23.521-1.937 35.149-4.046" fill="#47b4ec"/><path d="m530.9368 117.034071c-11.28-7.644-21.93-16.185-33.661-23.1980005-17.774-10.625-36.38-19.411-56.066-25.815-3.007-.978-2.954-2.231-2.175-4.653 3.512-10.915 6.9-21.871 10.336-32.812 34.251 10.639 65.554 27.088 94.579 48.013 3.775 2.721 7.36 5.711 11.203 8.326 2.369 1.611 2.028 2.616.214 4.482-8.233 8.466-16.302 17.0900005-24.43 25.6570005" fill="#142a6c"/><path d="m479.1142 392.190771c9.557.006 9.557.006 9.539-9.127-.016-8.128-.016-8.128-10.518-8.179-8.259-.04-8.259-.04-8.302 8.079-.048 9.221-.048 9.221 9.281 9.227m.468-115.751c-.828 0-1.656.006-2.484-.001-7.231-.055-7.231-.056-7.276 7.331-.058 9.543-.058 9.543 9.791 9.478 8.663-.056 8.663-.056 8.633-8.393-.031-8.376-.031-8.376-8.664-8.415m-252.669 51.543c9.647-.012 9.647-.012 9.605-8.466-.043-8.756-.043-8.756-9.921-8.768-8.739-.01-8.739-.01-8.729 8.301.011 8.944.011 8.944 9.045 8.933m32.795 150.366c10.866-.079 10.866-.079 10.802-11.184-.007-1.162-.082-2.329-.003-3.486.144-2.134-.729-2.934-2.907-2.843-3.813.16-7.637.098-11.456.09-7.043-.015-7.043-.027-7.02 7.063.033 10.436.033 10.436 10.584 10.36m153.812-.089c1.495 0 3.023-.205 4.477.037 5.1.845 7.157-.974 6.326-6.269-.634-4.044 1.707-9.372-.957-11.963-2.643-2.572-7.909-.764-12.018-.835-8.639-.151-8.641-.065-8.631 8.416.012 10.675.012 10.675 10.803 10.614m-110.347-158.59c-.049-10.494-.049-10.494-9.178-10.547-11.113-.065-11.113-.065-11.124 10.923-.01 10.002-.01 10.002 10.025 9.994 10.326-.008 10.326-.008 10.277-10.37m110.31 41.414c2.158 0 4.332-.171 6.469.039 3.298.325 5.102-.583 4.473-4.284-.164-.967.004-1.988-.023-2.983-.106-3.956 1.256-9.133-.732-11.551-2.36-2.872-7.741-.821-11.796-.851-8.936-.066-8.937.053-8.945 9.127-.01 10.527-.01 10.527 10.554 10.503m.222 33.01c.833 0 1.666.003 2.499-.001 8.765-.041 8.765-.041 8.767051-8.925.001949-11.458.001949-11.458-11.667051-11.428-10.594.027-10.594.027-10.622 9.395-.032 10.984-.032 10.984 11.023 10.959m-.273-65.108c1.16 0 2.319.004 3.479-.001 7.998-.04 8.091-.042 7.954-8.086-.067-3.918 1.744-9.272-.837-11.357-2.444-1.974-7.58-.683-11.533-.708-9.853-.062-9.853-.035-9.864 9.552-.012 10.65-.012 10.65 10.801 10.6m33.602-.103c.665 0 1.329.003 1.994 0 8.996-.035 8.996-.035 8.942-9.279-.063-10.702-.063-10.702-11.953-10.713-9.862-.009-9.862-.009-9.891 9.382-.033 10.688-.033 10.688 10.908 10.61m-.325 64.583c1.164 0 2.328.008 3.493-.001 7.762-.06 7.762-.061 7.686-7.959-.111-11.471-.111-11.471-11.832-11.468095-9.752.003095-9.752.003095-9.786 9.463095-.036 10.19-.036 10.19 10.439 9.965m-117.693.466c1.997 0 4.032-.246 5.986.049 4.952.746 6.472-1.363 5.82-6.054-.61-4.39 1.92-10.441-1.092-12.83-2.806-2.226-8.568-.808-13.031-.845-8.843-.073-8.844-.031-8.873 8.326-.04 11.349-.04 11.349 11.19 11.354m34.471.236c1.33 0 2.66.022 3.99-.003 8.246-.158 7.309 1.333 7.201-7.521-.051-4.076 1.949-9.633-1.037-11.84-2.727-2.017-7.983-.683-12.126-.703-9.488-.047-9.488-.016-9.497 8.768-.012 11.312-.012 11.312 11.469 11.299m-69.425-130.836c10.806.034 10.806.034 10.842-9.772.042-11.693.042-11.693-11.92-11.637-10.091.048-10.091.048-10.103 9.987-.012 11.386-.012 11.386 11.181 11.422m152.922 12.891c-10.816-.019-10.816-.019-10.813097 9.343.004097 11.495.004097 11.495 11.603097 11.447 10.209-.042 10.21-.042 10.166-10.054-.046-10.717-.046-10.717-10.956-10.736m-153.404 20.837c11.153.029 11.153.029 11.093-10.537-.059-10.267-.059-10.267-10.825-10.181-10.916.088-10.916.088-10.913097 10.229.004097 10.461.004097 10.461 10.645097 10.489m153.624 65.011c.331 0 .663 0 .995.001 9.82.021 9.82.021 9.775-9.846-.05-11.078-.05-11.078-11.572-11.088-10.336-.009-10.336-.009-10.324 9.908.012 10.997.012 10.997 11.126 11.025m-33.744-65.161c.831 0 1.662.002 2.492-.001 9.001-.025 9.001-.026 8.988-9.16-.017-11.574-.017-11.574-11.525-11.5781-10.634-.0029-10.634-.0029-10.683 10.4031-.047 10.321-.047 10.321 10.728 10.336m-49.764.288c.999 0 1.998-.002 2.997 0 8.323.022 8.323.023 8.274-8.353-.074-12.581-.074-12.581-12.77-12.521-10.261.048-10.261.048-10.246 9.946.017 10.901.017 10.901 11.745 10.928m-103.823-22.314c-.998 0-1.996.002-2.995-.001-8.934-.02-8.964-.02-8.909 9.116.024 3.964-1.311 9.221.692 11.553 2.362 2.751 7.784.819 11.866.876 10.75.15 10.751.051 10.73-10.31-.022-11.204-.022-11.204-11.384-11.234m198.291-56.662c-.058-11.184-.058-11.184-11-11.154-.166 0-.332.001-.498.001-10.668.026-10.668.026-10.722 10.521-.058 11.514-.058 11.514 11.514 11.511094 10.762-.004094 10.762-.004094 10.706-10.879094m-164.683 10.974098c11.371-.003098 11.371-.003098 11.352-11.230098-.001-.166-.001-.332-.002-.498-.017-10.355-.017-10.355-10.286-10.278-11.596.087-11.596.087-11.617 11.512-.02 10.497-.02 10.497 10.553 10.494098m154.061 12.734902c-11.39.036-11.39.036-11.398215 11.433v.499c-.004785 10.102-.004785 10.102 10.121215 10.094 11.686-.01 11.686-.01 11.657-11.555-.026-10.504-.026-10.504-10.38-10.471m-187.925 87.475c.499 0 .999-.002 1.499 0 10.115.039 10.115.039 10.069-10.008-.05-10.905-.05-10.905-11.177-11.007-.833-.008-1.666-.021-2.499-.03-9.375-.109-9.375-.109-9.357 9.296.022 11.665.022 11.665 11.465 11.749m69.213-66.487c1.331 0 2.663-.004 3.994.001 7.693.025 7.734.026 7.73-7.88-.002-4.136 1.392-9.59-.685-12.063-2.423-2.885-8.074-.886-12.312-.96-9.884-.171-9.885-.07-9.849 9.57.042 11.332.042 11.332 11.122 11.332m-68.969 111.207c-.832 0-1.663.005-2.495 0-9.338-.057-9.447-.056-9.281 9.296.072 4.088-1.881 9.529.906 11.877 2.337 1.97 7.596.516 11.56.504 10.712-.032 10.712-.048 10.695-10.455-.017-11.111-.017-11.111-11.385-11.222m-.413-11.328c.999 0 1.999-.002 2.998 0 8.754.015 8.862.013 8.725-8.748-.064-4.118 1.939-9.713-.804-11.946-2.552-2.078-7.939-.734-12.079-.792-10.289-.144-10.29-.12-10.262 9.884.032 11.586.032 11.586 11.422 11.602m11.79-147.197c-.046-11.516-.046-11.516-11.691-11.517-.166 0-.333 0-.499 0-11.1.002-11.115.002-11.106 10.989.003 3.813-1.35 8.783.53 11.14 2.243 2.812 7.454.876 11.359.933 11.451.168 11.453.064 11.407-11.545m92.442-42.602c-.166 0-.332 0-.499 0-11.256-.016-11.256-.016-11.335 11.111-.082 11.514-.082 11.514 11.384 11.521 11.713.007 11.713.007 11.7082-11.392-.0042-11.228-.0042-11.228-11.2582-11.24m-104.168 256.672c.166 0 .331-.001.497 0 11.334.071 11.404.07 11.232-11.169-.058-3.745 1.661-8.893-.881-10.854-2.423-1.869-7.319-.574-11.127-.597-11.283-.065-11.283-.051-11.280095 11.104.002095 11.444.002095 11.444 11.559095 11.516m-66.515-100.856c.665 0 1.33.002 1.995-.001 10.182-.041 10.281-.044 10.049-10.136-.094-4.092 1.824-9.436-.909-11.947-2.676-2.46-7.929-.562-12.045-.578-10.862-.044-10.862.028-10.857208 10.9.005208 11.832.005208 11.832 11.767208 11.762m174.476 96.18v.042c4.16 0 8.323-.092 12.479.038 2.178.068 2.931-.699 2.847-2.872-.167-4.321-.301-8.659-.106-12.974.136-2.994-1.091-3.589-3.791-3.525-6.486.155-12.978.009-19.467.002-7.436-.008-7.434 0-7.41 7.654.009 2.662.182 5.339-.043 7.982-.234 2.759.547 3.894 3.514 3.713 3.979-.243 7.984-.06 11.977-.06m67.23 38.559h-.039c0 3.82.123 7.646-.045 11.458-.107 2.432.354 3.57 3.189 3.446 5.803-.255 11.626-.224 17.435-.092 2.365.054 3.193-.638 3.121-3.054-.172-5.809-.118-11.625-.135-17.439-.026-8.982-.02-9.017-9.121-8.934-4.618.042-10.66-1.484-13.461.836-2.931 2.427-.627 8.701-.943 13.281-.011.165-.001.332-.001.498m-212.683-202.717c4.346 0 8.009-.107 11.662.04 2.225.09 2.885-.789 2.855-2.898-.082-5.819-.119-11.643.05-17.459.066-2.274-.76-2.84-2.854-2.79-4.82.115-9.645.043-14.467.051-9.68.016-9.77.018-9.667 9.759.045 4.276-2.049 9.798.64 12.494 2.667 2.675 8.208.359 11.781.803m260.513 2.268v.027c3.482 0 6.971-.126 10.446.045 2.27.112 3.301-.407 3.233-2.943-.173-6.464-.217-12.936-.08-19.401.053-2.539-.984-2.99-3.211-2.956-6.798.107-13.602.135-20.397-.033-2.686-.067-3.359.896-3.275 3.447.196 5.964.337 11.95.043 17.905-.174 3.53 1.243 4.188 4.288 3.958 2.969-.224 5.967-.049 8.953-.049m-24.523 158.987h-.058c0-4.32-.104-8.644.042-12.959.08-2.382-.302-3.711-3.169-3.602-5.144.196-10.302.137-15.45.015-2.358-.056-3.171.739-3.153 3.15.066 8.639.002 17.282-.173 25.92-.051 2.51.556 3.562 3.308 3.443 5.142-.223 10.306-.234 15.448-.029 2.781.111 3.345-1.013 3.25-3.477-.161-4.148-.045-8.307-.045-12.461m-221.257 35.453h-.128c0-4.331-.068-8.663.028-12.991.049-2.174-.377-3.43-2.982-3.369-6.993.163-13.99.168-20.985.128-2.068-.012-2.987.614-2.986 2.835.002 8.994-.086 17.988-.247 26.981-.039 2.175.715 2.867 2.894 2.829 6.993-.123 13.992-.144 20.984.001 2.611.054 3.564-.793 3.465-3.424-.162-4.324-.043-8.659-.043-12.99m259.429-35.688h.194c0-4.48-.073-8.962.032-13.439.049-2.114-.622-2.916-2.846-2.878-7.133.121-14.27.108-21.403.005-2.126-.031-2.936.605-2.922 2.813.056 8.959.012 17.921-.103 26.88-.028 2.135.683 2.906 2.854 2.876 7.134-.098 14.271-.106 21.404.014 2.182.036 2.883-.698 2.826-2.832-.12-4.477-.036-8.959-.036-13.439m-100.424-.9c0 5.274.08 9.766-.036 14.254-.054 2.08.506 2.922 2.766 2.887 7.815-.121 15.635-.132 23.449.014 2.496.047 3.055-.897 3.031-3.182-.095-8.814-.081-17.63.022-26.443.025-2.114-.56-2.977-2.781-2.876-3.485.159-6.983.044-10.475.084-5.13.058-12.07-1.839-14.914.749-3.285 2.991-.603 10.033-1.062 14.513m-49.292-191.797v-.041c8.317 0 16.635-.071 24.95.044 2.499.035 3.586-.585 3.472-3.329-.212-5.148-.204-10.314-.05-15.465.077-2.582-.709-3.459-3.374-3.439-16.799.128-33.6.164-50.399.061-2.716-.017-3.389.892-3.331 3.412.119 5.152.084 10.315-.114 15.465-.1 2.619.766 3.403 3.398 3.352 8.48-.162 16.965-.06 25.448-.06m41.965 12.172v.221c-10.807 0-21.615.092-32.419-.059-2.988-.042-4.131.728-3.972 3.897.259 5.141.172 10.308.013 15.457-.074 2.415.753 3.14 3.131 3.133 22.113-.064 44.226-.065 66.338.02809 2.693.01091 3.424-.97809 3.349-3.51109-.154-5.149-.239-10.316.014-15.457.159-3.23-1.07-3.829-4.035-3.78-10.804.179-21.612.071-32.419.071m-70.637 193.939h-.067c0 8.648.107 17.297-.063 25.942-.054 2.748.561 3.798 3.53 3.77247 16.629-.14147 33.26-.16647 49.89-.03947 3.133.024 3.977-1.003 3.878-4.004-.21-6.313-.304-12.648.004-18.952.182-3.732-1.318-4.372-4.592-4.284-8.31.222-16.638-.109-24.939.256-3.919.173-4.755-1.172-4.654-4.768.223-7.975-.041-15.964.07-23.944.036-2.53-.608-3.551-3.34-3.439-5.48.226-10.979.261-16.459.073-2.744-.095-3.337.95-3.303 3.445.118 8.646.045 17.294.045 25.942m196.144-101.227h.018c0-8.315-.083-16.631.048-24.944.042-2.663-.529-3.854-3.54-3.81-12.636.185-25.276.215-37.913.107-2.788-.024-3.264 1.03-3.246 3.501.125 16.795.166 33.591.103 50.386-.01 2.639.442 3.803 3.486 3.765 12.47-.159 24.946-.162 37.415.057 3.371.059 3.731-1.335 3.682-4.119-.147-8.312-.053-16.628-.053-24.943m-172.512 187.835c0-.012 0-.023 0-.034 8.479 0 16.964-.184 25.434.087 3.596.115 4.946-.638 4.874-4.554-.226-12.299-.172-24.607.071-36.906.069-3.437-1.14-4.188-4.269-4.17-16.957.094-33.916.089-50.873-.067-2.999-.028-4.011.673-3.964 3.833.189 12.633.228 25.272.018 37.904-.057 3.476 1.198 4.048 4.271 3.973 8.142-.196 16.291-.066 24.438-.066m-160.223-148.161h-.103c0 10.151.101 20.304-.061 30.452-.05 3.08.527 4.306 4.033 4.26 15.972-.209 31.95-.151 47.924-.019 2.777.023 3.763-.643 3.745241-3.56-.131241-20.468-.159241-40.937-.062241-61.404.014-2.932-.985-3.567-3.716-3.548-15.974.109-31.951.122-47.924-.03-3.062-.029-3.97.798-3.909 3.897.197 9.981.073 19.968.073 29.952m102.4 48.254c-.877.93-.584 1.939-.201 2.955.002 4.073.004 8.145.007 12.217-.211.248-.229.51-.054.785-.107.827-.208 1.996.787 2.003 6.602.043 13.205-.074 19.808-.139 1.489-5.17.345-10.459.7-15.681.011-.164-.006-.331.001-.496.061-1.635-.661-2.53-2.359-2.366-6.216.601-12.505-.688-18.689.722m-35.376-166.89c-1.233 4.779.592 6.424 5.445 5.936 4.395-.442 8.858-.207 13.29-.27 1.001.019 2.001.039 3.001.058 2.766-2.501 1.138-5.731 1.198-8.57.092-4.394 1.935-10.238-.812-12.798-2.379-2.217-8.143-.887-12.413-.971-10.358-.204-10.359-.168-9.732 10.613.008 2 .015 4.001.023 6.002m81.634 107.59c13.361.034 26.722.067 40.082.1 1.718.533 2.444-.09 2.440016-1.893-.032016-12.269-.001016-24.538-.058016-36.807-.006-1.375.169-3.356-2.383-2.415-16.661.01-33.322.02-49.984.031-2.912-.922-1.979 1.429-1.981 2.554-.032 12.274.032 24.548.07 36.821.03.332.059.663.088.995.262 1.167 1.031.739 1.724.548.73.002 1.46.004 2.191.006 2.603.02 5.207.04 7.811.06" fill="#fcfcfc"/><path d="m574.3932 383.753071c2.509-18.97 3.913-37.978 2.53-57.132-1.055-14.603-3.331-28.987-6.982-43.159 18.724-4.537 37.466-9.006 56.154-13.689 2.745-.688 3.305.078 3.929 2.54 9.688 38.206 11.489 76.814 6.138 115.807-.36 2.622-.14 5.346-1.287 7.84-20.138-4.182-40.146-9.008-60.482-12.207m-393.1898-10.035c0-9.984.123-19.971-.073-29.952-.061-3.099.847-3.927 3.908-3.897 15.974.152 31.951.138 47.925.03 2.731-.019 3.729.616 3.715 3.547-.097 20.468-.068 40.937.062269 61.405.018731 2.917-.967269 3.583-3.744269 3.56-15.974-.132-31.952-.19-47.924.019-3.507.045-4.083-1.18-4.034-4.26.163-10.148.062-20.301.062-30.452z" fill="#142a6c"/><path d="m341.4259 521.878471c-8.146 0-16.296-.13-24.438.067-3.073.074-4.328-.497-4.27-3.974.209-12.632.17-25.271-.019-37.904-.047-3.16.965-3.86 3.964-3.833 16.957.156 33.916.161 50.873.067 3.13-.017 4.338.733 4.27 4.171-.244 12.298-.298 24.607-.072 36.905.072 3.916-1.278 4.67-4.874 4.554-8.47-.271-16.955-.087-25.434-.087zm172.5126-187.8346c0 8.315-.094 16.631.053 24.943.049 2.784-.311 4.178-3.683 4.119-12.468-.219-24.944-.216-37.414-.057-3.045.038-3.497-1.126-3.487-3.765.063-16.796.023-33.591-.102-50.386-.018-2.471.458-3.525 3.246-3.501 12.637.108 25.277.078 37.913-.107 3.011-.044 3.582 1.147 3.54 3.81-.131 8.313-.048 16.629-.048 24.944z" fill="#172c6c"/><path d="m317.7943 435.270871c0-8.648.072-17.296-.046-25.942-.034-2.495.56-3.54 3.304-3.445 5.48.188 10.979.153 16.459-.073 2.732-.112 3.376.909 3.34 3.439-.112 7.98.153 15.969-.07 23.944-.101 3.596.735 4.941 4.654 4.768 8.301-.365 16.629-.034 24.939-.256 3.274-.088 4.774.552 4.592 4.284-.308 6.304-.214 12.639-.005 18.952.1 3.001-.744 4.028-3.878 4.004-16.629-.127-33.26-.102-49.889.03947-2.969.02553-3.584-1.02447-3.53-3.77247.17-8.645.063-17.294.063-25.942z" fill="#ff2722"/><path d="m318.0476 361.063271c-.038-12.274-.102-24.548-.071-36.821.003-1.126-.93-3.477 1.982-2.555.609 1.696 2.069 1.375 3.355 1.376 14.432.011 28.864.011 43.295.001 1.291-.001 2.747.3 3.334-1.407 2.551-.942 2.376 1.039 2.383 2.414.057026 12.269.026 24.538.057026 36.807.004974 1.804-.721026 2.427-2.439026 1.894-.937-2.825-3.334-1.65-5.088-1.66-15.602-.09-31.205-.05-46.808-.049" fill="#172c6c"/><path d="m388.4315 241.331371c10.807 0 21.615.108 32.419-.071 2.965-.049 4.194.55 4.035 3.78-.253 5.142-.168 10.308-.015 15.458.076 2.532-.656 3.521-3.348 3.51009-22.113-.09209-44.225-.09109-66.338-.02809-2.378.007-3.206-.717-3.131-3.132.158-5.15.245-10.317-.013-15.457-.16-3.17.983-3.94 3.971-3.898 10.805.152 21.613.06 32.42.06zm-41.9653-12.1715c-8.483 0-16.968-.102-25.448.06-2.632.051-3.498-.733-3.398-3.352.198-5.15.233-10.313.114-15.465-.058-2.52.614-3.429 3.331-3.412 16.799.103 33.6.067 50.399-.061 2.665-.02 3.451.857 3.373 3.438-.154 5.152-.161 10.318.051 15.466.114 2.744-.973 3.364-3.472 3.329-8.316-.115-16.633-.044-24.95-.044z" fill="#ff2722"/><path d="m395.7579 420.956571c.46-4.48-2.223-11.522 1.063-14.512 2.843-2.589 9.783-.692 14.913-.75 3.492-.039 6.99.075 10.476-.084 2.221-.101 2.805.762 2.781 2.876-.104 8.814-.118 17.63-.023 26.443.023703 2.286-.535 3.229-3.031 3.183-7.814-.147-15.634-.136-23.449-.015-2.26.036-2.82-.807-2.766-2.887.117-4.487.036-8.98.036-14.254m100.424.9c0 4.48-.084 8.962.036 13.439.058 2.135-.643 2.868-2.826 2.832-7.133-.12-14.27-.112-21.404-.014-2.17.03-2.881-.741-2.854-2.876.116-8.959.159-17.92.103-26.88-.014-2.207.796-2.844 2.922-2.813 7.133.103 14.271.117 21.404-.005 2.223-.038 2.895.765 2.845 2.878-.104 4.477-.032 8.959-.032 13.439-.064 0-.129 0-.194 0" fill="#142a6c"/><path d="m236.7527 457.544771c0 4.331-.118 8.666.044 12.99.098 2.631-.854 3.478-3.465 3.424-6.993-.145-13.991-.124-20.985-.001-2.179.038-2.932-.654-2.893-2.829.16-8.993.248-17.987.246-26.981-.001-2.221.918-2.846 2.986-2.835 6.995.04 13.993.035 20.985-.128 2.605-.061 3.031 1.195 2.983 3.369-.096 4.328-.029 8.66-.029 12.991z" fill="#ff2722"/><path d="m458.0107 422.092071c0 4.154-.117 8.313.044 12.46.096 2.465-.469 3.589-3.249 3.478-5.143-.205-10.306-.194-15.448.029-2.752.119-3.36-.933-3.309-3.444.176-8.638.24-17.28.174-25.919-.019-2.412.794-3.207 3.152-3.151 5.148.123 10.307.182 15.45-.014 2.868-.109 3.249 1.219 3.169 3.601-.146 4.316-.041 8.64-.041 12.96z" fill="#172c6c"/><path d="m482.5328 263.105271c-2.985 0-5.984-.175-8.952.049-3.046.23-4.463-.429-4.289-3.959.294-5.955.154-11.94-.043-17.905-.084-2.55.59-3.513 3.275-3.447 6.796.168 13.599.14 20.397.034 2.228-.035 3.265.416 3.211 2.956-.137 6.464-.093 12.937.08 19.401.068 2.536-.962 3.055-3.233 2.943-3.474-.171-6.963-.045-10.446-.045z" fill="#142a6c"/><path d="m222.0205 260.837171c-3.573-.444-9.114 1.871-11.782-.803-2.689-2.697-.594-8.218-.639-12.495-.104-9.741-.013-9.743 9.666-9.758 4.823-.008 9.647.064 14.467-.051 2.094-.05 2.921.515 2.855 2.79-.169 5.815-.132 11.64-.05 17.459.03 2.108-.63 2.988-2.855 2.898-3.653-.148-7.316-.04-11.662-.04" fill="#172c6c"/><path d="m434.7032 463.553671c0-.166-.01-.333.001-.498.316-4.58-1.988-10.854.943-13.281 2.801-2.32 8.843-.793 13.461-.836 9.101-.083 9.095-.048 9.121 8.934.017 5.814-.037 11.63.135 17.439.072 2.416-.756 3.108-3.121 3.054-5.809-.132-11.632-.163-17.435.092-2.835.124-3.296-1.014-3.189-3.445.168-3.813.045-7.639.045-11.459zm-67.2299-38.5592c-3.994 0-7.998-.183-11.977.06-2.967.182-3.748-.953-3.514-3.712.225-2.643.051-5.321.043-7.983-.024-7.653-.026-7.662 7.41-7.654 6.489.007 12.981.154 19.467-.001 2.7-.065 3.927.53 3.791 3.524-.195 4.316-.061 8.653.106 12.974.084 2.173-.669 2.94-2.848 2.872-4.155-.129-8.318-.037-12.478-.037z" fill="#142a6c"/><path d="m192.9968 328.818571c-11.762.066-11.762.066-11.767149-11.766-.003851-10.872-.003851-10.943 10.857149-10.9 4.116.017 9.369-1.882 12.046.578 2.732 2.512.814 7.855.908 11.947.232 10.093.133 10.095-10.049 10.137-.665.002-1.33 0-1.995.004" fill="#ff2722"/><path d="m259.5117 429.669271c-11.556-.071-11.556-.071-11.559052-11.514-.001948-11.155-.001948-11.17 11.280052-11.104 3.809.022 8.704-1.272 11.127.597 2.543 1.961.824 7.108.881 10.853.173 11.239.103 11.24-11.231 11.17-.166-.001-.332 0-.498-.002m104.1685-256.6705c11.254.012 11.254.012 11.2582 11.24.0048 11.399.0048 11.399-11.7082 11.392-11.466-.007-11.466-.007-11.384-11.52.079-11.128.079-11.128 11.335-11.112z" fill="#172c6c"/><path d="m271.2379 215.601171c.046 11.608.044 11.713-11.406 11.545-3.905-.057-9.117 1.878-11.359-.933-1.88-2.357-.528-7.327-.531-11.14-.008-10.988.007-10.988 11.106-10.989h.5c11.644 0 11.644 0 11.69 11.517" fill="#142a6c"/><path d="m259.4482 362.794071c-11.39-.012-11.39-.012-11.422-11.598-.028-10.005-.027-10.029 10.262-9.884 4.14.058 9.527-1.286 12.079.792 2.743 2.233.74 7.828.804 11.945.137 8.762.029 8.764-8.725 8.749-.999-.002-1.999 0-2.998-.004m.4131 11.332c11.367.111 11.367.111 11.385 11.221.017 10.408.017 10.424-10.695 10.456-3.965.011-9.223 1.466-11.56-.504-2.787-2.348-.834-7.789-.906-11.877-.166-9.352-.057-9.354 9.281-9.297.832.005 1.663.001 2.495.001m68.969-111.2099c-11.08.003-11.08.003-11.122-11.329-.037-9.641-.035-9.741 9.849-9.57 4.238.073 9.889-1.926 12.312.96 2.077 2.473.683 7.927.685 12.062.004 7.906-.037 7.906-7.73 7.88-1.331-.004-2.663 0-3.994-.003m-69.2136 66.485c-11.442-.08-11.442-.08-11.465-11.744-.018-9.405-.018-9.405 9.358-9.297.832.01 1.665.023 2.498.03 11.128.103 11.128.103 11.178 11.007.046 10.047.046 10.047-10.07 10.009-.5-.002-.999-.001-1.499-.005" fill="#172c6c"/><path d="m447.5417 241.931071c10.354-.033 10.354-.033 10.38 10.471.03 11.545.03 11.545-11.657 11.554-10.125.009-10.125.009-10.121154-10.093 0-.166 0-.333.001154-.499.007-11.397.007-11.397 11.397-11.433m-154.0604-12.735002c-10.573.002902-10.573.002902-10.554-10.494098.022-11.426.022-11.426 11.618-11.512 10.269-.077 10.269-.077 10.286 10.278.001.166.001.332.001.498.02 11.227.02 11.227-11.351 11.230098m164.6828-10.974398c.056 10.875.056 10.875-10.706 10.879094-11.572.002906-11.572.002906-11.514-11.511094.054-10.494.054-10.494 10.722-10.521.166 0 .332-.001.498-.001 10.942-.03 10.942-.03 11 11.154" fill="#ff2722"/><path d="m259.8735 274.887771c11.361.026 11.361.026 11.384 11.23.021 10.361.02 10.46-10.731 10.31-4.081-.057-9.503 1.875-11.865-.876-2.003-2.332-.668-7.589-.692-11.553-.055-9.136-.026-9.136 8.909-9.116.998.003 1.997.001 2.995.005" fill="#142a6c"/><path d="m363.696 297.194171c-11.728-.024-11.728-.024-11.745-10.924-.015-9.898-.015-9.898 10.246-9.947 12.696-.06 12.696-.06 12.77 12.521.049 8.376.049 8.376-8.274 8.354-.999-.003-1.998 0-2.997-.004" fill="#ff2722"/><path d="m413.4603 296.909371c-10.776-.014-10.776-.014-10.728-10.336.048-10.406.048-10.406 10.683-10.402153 11.508.004153 11.508.004153 11.524 11.577153.013 9.135.013 9.135-8.987 9.161-.831.002-1.661 0-2.492 0" fill="#172c6c"/><path d="m447.2037 362.069371c-11.113-.026-11.113-.026-11.126-11.024-.011-9.916-.011-9.916 10.325-9.907 11.521.009 11.521.009 11.572 11.087.045 9.867.045 9.867-9.776 9.846-.331-.001-.663 0-.995-.002m-153.6238-65.01c-10.641-.028-10.641-.028-10.644149-10.488-.003851-10.142-.003851-10.142 10.912149-10.229 10.767-.087 10.767-.087 10.825 10.181.06 10.565.06 10.565-11.093 10.536m153.4038-20.8369c10.91.019 10.91.019 10.956 10.736.044 10.013.044 10.013-10.166 10.054-11.599.048-11.599.048-11.602097-11.447-.002903-9.362-.002903-9.362 10.812097-9.343" fill="#ff2722"/><path d="m294.0618 263.331371c-11.193-.036-11.193-.036-11.18-11.421.011-9.94.011-9.94 10.102-9.987 11.962-.057 11.962-.057 11.92 11.636-.035 9.807-.035 9.807-10.842 9.772" fill="#142a6c"/><path d="m363.4868 394.171171c-11.481.01-11.481.01-11.469-11.303.01-8.784.01-8.814 9.497-8.767 4.143.02 9.399-1.315 12.127.702 2.986 2.208.986 7.765 1.036 11.841.109 8.853 1.045 7.363-7.201 7.521-1.33.025-2.66.003-3.99.006" fill="#00c"/><path d="m329.0157 393.932071c-11.23-.005-11.23-.005-11.19-11.355.03-8.356.03-8.398 8.874-8.325 4.462.037 10.225-1.381 13.031.845 3.011 2.389.482 8.44 1.092 12.83.652 4.691-.869 6.8-5.821 6.053-1.953-.294-3.988-.048-5.986-.048m117.693-.4659c-10.475.225-10.475.225-10.439-9.965.034-9.46.034-9.46 9.787-9.463146 11.721-.003854 11.721-.003854 11.831 11.468146.077 7.898.077 7.899-7.686 7.959-1.164.009-2.329.001-3.493.001m.3259-64.5791c-10.941.074-10.941.074-10.909-10.614.029-9.392.029-9.392 9.892-9.383 11.89.011 11.89.011 11.952 10.714.055 9.244.055 9.244-8.942 9.279-.664.002-1.329 0-1.993.004" fill="#ff2722"/><path d="m413.4319 328.985371c-10.813.05-10.813.05-10.801-10.6.011-9.586.011-9.614 9.865-9.551 3.952.025 9.088-1.267 11.532.707 2.581 2.085.77 7.439.837 11.357.137 8.045.044 8.047-7.953 8.086-1.16.006-2.32.001-3.48.001m.2731 65.1106c-11.055.023-11.055.023-11.022-10.961.028-9.368.028-9.368 10.622-9.395 11.668-.03 11.668-.03 11.666 11.428-.002 8.884-.002 8.884-8.766 8.925-.834.004-1.667 0-2.5.003" fill="#142a6c"/><path d="m413.4829 361.083471c-10.563.024-10.563.024-10.554-10.502.008-9.075.009-9.193 8.945-9.127 4.056.03 9.437-2.022 11.796.85 1.988 2.419.626 7.595.733 11.551.027.995-.142 2.016.023 2.984.628 3.7-1.175 4.608-4.473 4.284-2.137-.211-4.312-.04-6.47-.04" fill="#ff2722"/><path d="m303.1734 319.669971c.049 10.362.049 10.362-10.277 10.37-10.035.007-10.035.007-10.025-9.995.01-10.987.01-10.987 11.124-10.922 9.128.053 9.128.053 9.178 10.547" fill="#142a6c"/><path d="m283.4088 437.143871c-.002-4.072-.005-8.145-.008-12.215.633-.946.383-1.954.203-2.957 6.184-1.41 12.472-.121 18.688-.722 1.698-.164 2.421.731 2.359 2.366-.006.165.01.332-.001.496-.355 5.222.789 10.51-.7 15.681-6.603.065-13.206.182-19.808.139-.994-.007-.894-1.176-.787-2.001.079-.07.233-.152.225-.213-.025-.195-.11-.383-.171-.574" fill="#ff2722"/><path d="m413.5203 478.264971c-10.792.056-10.791.056-10.803-10.619-.01-8.482-.009-8.567 8.631-8.416 4.109.071 9.375-1.737 12.018.834 2.664 2.592.322 7.92.957 11.964.831 5.295-1.227 7.114-6.326 6.268-1.454-.241-2.983-.036-4.477-.031m-153.8124.0834c-10.55.077-10.55.077-10.584-10.36-.023-7.09-.023-7.078 7.02-7.063 3.819.009 7.643.071 11.456-.089 2.178-.092 3.051.708 2.907 2.842-.078 1.157-.004 2.324.003 3.486.064 11.105.064 11.105-10.802 11.184m10.2557-217.5424c-1-.02-2.001-.039-3.001-.058-2.47-3.511-6.072-.861-9.051-1.648-1.622-.427-4.159.897-4.697-1.481-.736-3.256-3-2.37-4.988-2.538-.007-2-.015-4.001-.022-6.001 2.181-.128 5.187.742 4.718-3.109-.628-5.156 1.969-6.361 6.441-5.924 2.3.226 4.648.167 6.96.012 2.884-.194 3.74 1.118 3.676 3.831-.131 5.636-.037 11.277-.036 16.916m-43.0509 67.177c-9.034.011-9.034.011-9.044-8.933-.01-8.311-.01-8.311 8.728-8.301 9.878.012 9.878.012 9.921 8.767.042 8.455.042 8.455-9.605 8.467" fill="#172c6c"/><path d="m479.5817 276.445471c8.633.033 8.633.033 8.664 8.41.03 8.336.03 8.336-8.632 8.393-9.849.064-9.849.064-9.792-9.479.045-7.386.045-7.386 7.277-7.33.828.006 1.655.001 2.483.006m-.4675 115.7453c-9.329-.006-9.329-.006-9.281-9.227.043-8.119.043-8.119 8.302-8.079 10.502.051 10.502.051 10.518 8.179.018 9.133.018 9.133-9.539 9.127" fill="#ff2722"/><path d="m269.9636 260.805971c-.001-5.639-.095-11.28.036-16.916.064-2.713-.792-4.025-3.676-3.831-2.312.155-4.66.214-6.96-.012-4.472-.437-7.069.768-6.441 5.924.469 3.851-2.537 2.981-4.718 3.109-.627-10.781-.627-10.817 9.732-10.613 4.27.084 10.033-1.246 12.412.971 2.747 2.559.904 8.404.812 12.798-.059 2.839 1.569 6.068-1.197 8.57m99.9789 60.8509c-.587 1.707-2.043 1.406-3.334 1.407-14.431.01-28.863.011-43.295 0-1.286-.001-2.746.32-3.355-1.376 16.661-.011 33.323-.021 49.984-.031m-51.8949 39.4064c15.603-.001 31.206-.041 46.808.049 1.754.01 4.151-1.165 5.088 1.66-13.361-.034-26.722-.067-40.082-.1-2.597-1.004-5.201-.917-7.812-.06-.73-.002-1.46-.004-2.19-.006-.575-.183-1.15-.366-1.724-.548-.03-.332-.059-.664-.088-.995m-69.8207-105.9818c1.988.167 4.251-.718 4.988 2.538.538 2.378 3.075 1.053 4.697 1.481 2.979.786 6.581-1.863 9.051 1.647-4.433.064-8.896-.171-13.291.271-4.853.488-6.677-1.158-5.445-5.937" fill="#142a6c"/><path d="m322.0497 362.611871c2.611-.857 5.215-.944 7.812.06-2.604-.02-5.208-.04-7.812-.06" fill="#172c6c"/><path d="m283.6036 421.971771c.181 1.003.43 2.011-.202 2.957-.382-1.017-.676-2.027.202-2.957" fill="#b6828c"/><path d="m318.1353 362.057771c.575.183 1.15.365 1.724.548-.693.191-1.462.619-1.724-.548" fill="#172c6c"/><path d="m283.4088 437.143871c.061.191.146.379.171.574.008.061-.146.143-.225.213-.175-.277-.157-.539.054-.787" fill="#b6828c"/></g></svg>