<svg height="1600" viewBox="0 0 3000 1600" width="3000" xmlns="http://www.w3.org/2000/svg" xmlns:xlink="http://www.w3.org/1999/xlink"><linearGradient id="a" x1="50%" x2="50%" y1="0%" y2="100%"><stop offset="0" stop-color="#fff"/><stop offset="1" stop-color="#fff"/></linearGradient><mask id="b" fill="#fff"><path d="m0 0h220v372h-220z" fill="#fff" fill-rule="evenodd"/></mask><g fill="none" fill-rule="evenodd"><path d="m0 0h3000v1600h-3000z" fill="url(#a)"/><g transform="translate(976 399)"><text fill="#000" font-family="SFCompactDisplay-Medium, SF Compact Display" font-size="91" font-weight="400" letter-spacing="-.684"><tspan x="22" y="389">Speech-to-Text &amp; Analysis: Easy, Fast, Accurate</tspan> <tspan font-family="SFCompactDisplay-Thin, SF Compact Display" font-size="88" font-weight="300" letter-spacing="-.662" x="22" y="498">Analyze your conversations with ease. Our speech-</tspan> <tspan font-family="SFCompactDisplay-Thin, SF Compact Display" font-size="88" font-weight="300" letter-spacing="-.662" x="22" y="603">to-text tool offers quick conversion and insightful </tspan><tspan font-family="SFCompactDisplay-Thin, SF Compact Display" font-size="88" font-weight="300" letter-spacing="-.662" x="22" y="708">text analysis.</tspan></text><text fill="#f00" fill-rule="nonzero" font-family="NotoSans-Regular, Noto Sans" font-size="175"><tspan x="0" y="187">Audio Analyser</tspan></text></g><g fill-rule="nonzero" transform="translate(141 400)"><path d="m124.188781 344.076485c-2.276821-.96259-4.54937-2.753721-6.831886-2.765129-34.394371-.179684-68.7915903-.124068-103.1873853-.125494-10.23643697-.001426-9.99152569.035652-8.24582089-10.270482 4.67894449-27.608519 12.07754319-54.438408 22.65714079-80.351341 15.843766-38.79881 36.7680173-74.433192 63.874854-106.622215 25.0436024-29.737625 53.5572544-55.3268425 85.5964904-77.0414553 43.027494-29.1600712 90.308185-48.4532345 141.097373-59.0003729 33.465987-6.94918949 67.458817-9.08827922 101.498637-7.29857414 46.04047 2.42002351 90.558792 12.47944944 133.179047 30.35083114 6.931559 2.907736 13.638144 6.3545226 20.448669 9.5531748 2.198506 3.127349 2.056117 6.7252979 2.057539 10.2947257.005697 45.1476278.022782 90.2966817-.012815 135.4457357-.008541 11.984607-1.050841 13.048447-12.974601 13.054152-77.823406.037077-155.645386.012834-233.468793.019964-12.632865.001426-12.641408.011409-12.641408 12.428112-.004272 57.742588-.001424 115.485176-.001424 173.227764 0 1.662786.07689 3.331276-.001424 4.989783-.234944 5.076772 1.888095 6.026528 6.577007 4.58906 16.817715-5.153779 33.90882-9.108243 51.503986-10.501504 41.419909-3.279937 81.336175 2.37439 119.39852 19.711001 40.689443 18.531646 74.051484 46.15585 100.05195 82.292207 27.612324 38.376694 43.508772 81.218382 47.35616 128.737548 2.708263 33.449661-.867157 65.861149-10.334688 97.849097-1.496521 5.053955-3.321964 9.892574-6.349181 14.23065-16.897454 10.140713-33.770703 20.321354-50.729384 30.359386-1.737163 1.028191-3.981233 1.19789-5.990359 1.766891-2.48756-3.207211-.031327-5.838288 1.170448-8.45511 12.38653-26.991034 18.503615-55.640576 17.757491-85.006001-1.71865-67.676518-30.185315-121.960915-85.243361-161.800746-32.161693-23.273296-68.402866-35.561655-107.797986-34.860031-74.011616 1.317679-131.577157 34.09281-171.161654 96.705395-23.611156 37.348506-33.527215 78.792655-30.124087 123.081797 1.34986 17.586167 5.071942 34.697461 11.636133 51.157041 1.122035 2.813619 3.786158 5.702813 1.35698 9.165289-3.683637-1.938015-7.619304-3.515239-11.006769-5.878221-13.313491-9.285073-26.453265-18.815432-39.658539-28.255949-6.836158-12.59781-8.029388-26.671596-10.25922-40.423091-.828711-5.106722-1.925116-10.279037-1.607586-15.542627.007119-1.153682.071195-2.308791.081162-3.462472-.061227-1.129441-.10964-2.261729-.203618-3.392598-.075467-.757236-.172292-1.50877-.341737-2.254599-2.087441-7.368451-.148085-14.649912.428595-21.962748.029902-1.585778.009967-3.168703-.041293-4.754481 2.713959-38.753176 13.706488-75.039268 32.511972-108.972364 9.238281-16.669212 20.051398-32.224674 32.792481-46.429654 2.170027-2.420026 4.543673-4.767316 6.209639-8.229792-2.604318-1.183628-5.204364-.646005-7.66914-.65171-24.42278-.051339-48.84556.014263-73.26834-.051339-10.756162-.029946-11.975023-1.206444-11.997805-11.77212-.0655-31.346225-.041293-62.692444-.002848-94.038665.002848-3.06175-.281933-6.231881 1.910878-8.838719" fill="#f9f9f9"/><path d="m624.948788 725c3.368337-12.526915 7.624273-24.889921 9.964187-37.607825 17.440527-94.793492-7.833372-176.056668-78.440408-242.094842-35.589432-33.286329-78.20713-52.908362-126.379456-59.781131-36.893808-5.263613-73.183075-2.080931-108.523577 10.239318-1.940207.677012-3.958648 1.12883-6.400976 1.815822 0-11.708794.001422-22.854598 0-34.000402-.008535-53.427168.082501-106.854337-.168558-160.281506-.027739-5.987662 1.625136-7.465693 7.487008-7.45429 81.046317.153932 162.094059-.005702 243.140375.143954 6.233128.011403 8.34972-1.297018 8.308469-8.101374-.304404-49.624483-.123755-99.2518162-.095305-148.877724 51.345789 25.2319907 95.125621 60.0932717 131.652436 104.116346 50.351504 60.686194 80.968084 130.172158 89.797166 208.58189 11.638395 103.352387-14.336766 197.02275-75.517298 280.919866-26.367755 36.158302-58.317162 66.6368-94.824063 92.381898" fill="#f00"/><path d="m206.372271 747.806946c-49.490539-116.820215 25.748476-254.368945 150.800081-278.298516 113.436363-21.707644 212.748043 60.385474 229.771192 161.538158 7.02814 41.763448 1.966514 82.177207-15.504089 120.902068-.867831 1.92121-1.59031 3.907974-2.379766 5.864814-15.667966 7.069127-30.858555 15.577738-47.083701 20.975073-104.360481 34.722827-205.611599 26.874094-303.32727-23.98088-4.175274-2.17347-8.188098-4.660494-12.276447-7.000717" fill="#000"/><path d="m144.357901 313.469912c3.512738 19.509525 7.025477 39.020478 10.538216 58.530003-79.9845464-63.76862-130.3855136-145.588976-148.90140368-246.626157-7.32864307-39.9899573-7.47951434-80.2997435-2.92917992-120.6409412.17079766-1.51204533 1.66527722-2.87274334 2.54346186-4.30340378 1.79052887-.59396681 3.58817426-.5311434 5.39008964-.0599678 35.1288095.09423512 70.2561957.18561463 105.3850051.28556097 2.357008.00571122 4.712592.07710145 7.068177.11565219-.039853 36.13916812.044122 72.28261962-.250503 108.42178762-.045547 5.454214 2.849474 4.768868 6.184298 4.766013 29.848315-.024273 59.695207-.014279 90.613854-.014279-45.07208 47.588736-71.023362 103.211728-75.569426 168.365319l-.358675.374084.294626.425487c-.165105 8.391209-.330209 16.782417-.495314 25.173626 0 0 .03843.034268.03843.034268.138061 1.619131.276123 3.238261.414184 4.85882z" fill="#1e90ff" mask="url(#b)" transform="translate(0 343)"/><path d="m10 343.992326c-1.66710664.005116-3.33421331.010232-5 .015348 1.66710667-.005116 3.33421331-.010232 5-.015348" fill="#f3f3f2"/><path d="m145.619315 624.828246c-.17364-.271196-.347279-.542388-.523234-.815053.208368-.00586.41442-.013193.622788-.013193.405159.319573.372746.593698-.099554.828246m-.015048 31.171754-.604267-.120205s.546386-.187639.548702-.184707c0 .002932.055565.304912.055565.304912" fill="#d94442"/></g></g></svg>