<svg height="1597" viewBox="0 0 3021 1597" width="3021" xmlns="http://www.w3.org/2000/svg" xmlns:xlink="http://www.w3.org/1999/xlink"><linearGradient id="a" x1="50%" x2="50%" y1="0%" y2="100%"><stop offset="0" stop-color="#fff"/><stop offset="1" stop-color="#fff"/></linearGradient><mask id="b" fill="#fff"><path d="m0 0h820v820h-820z" fill="#fff" fill-rule="evenodd"/></mask><mask id="c" fill="#fff"><path d="m0 0h582.162v304.678h-582.162z" fill="#fff" fill-rule="evenodd"/></mask><mask id="d" fill="#fff"><path d="m0 0h296.452v77.369h-296.452z" fill="#fff" fill-rule="evenodd"/></mask><mask id="e" fill="#fff"><path d="m0 0h20.289v21.021h-20.289z" fill="#fff" fill-rule="evenodd"/></mask><mask id="f" fill="#fff"><path d="m.076 0h.347v.691h-.347z" fill="#fff" fill-rule="evenodd"/></mask><g fill="none" fill-rule="evenodd"><path d="m0 0h3021v1597h-3021z" fill="url(#a)"/><g transform="translate(1076 386)"><text fill="#000" font-family="SFCompactDisplay-Medium, SF Compact Display" font-size="91" font-weight="400" letter-spacing="-.684"><tspan x="2.636" y="411.997">Unlocking the Future of Finance</tspan> <tspan font-family="SFCompactDisplay-Thin, SF Compact Display" font-size="88" font-weight="300" letter-spacing="-.662" x="2.636" y="520.997">Explore the transformative impact of Quantum </tspan><tspan font-family="SFCompactDisplay-Thin, SF Compact Display" font-size="88" font-weight="300" letter-spacing="-.662" x="2.636" y="625.997">and AI technologies and reimagine the future of </tspan><tspan font-family="SFCompactDisplay-Thin, SF Compact Display" font-size="88" font-weight="300" letter-spacing="-.662" x="2.636" y="730.997">money.</tspan></text><text fill="#d33e35" fill-rule="nonzero" font-family="NotoSans-Regular, Noto Sans" font-size="175"><tspan x="0" y="187">Banking On Quantum</tspan></text></g><g mask="url(#b)" transform="translate(146 388)"><g fill-rule="nonzero" transform="translate(78.659 108.787)"><path d="m244.040643 310.287918c-1.501967-.349047-2.988353-.816993-4.509727-1.017347-1.959253-.2583-2.648326.512774-1.99916 2.33536.325267.91348.489267 1.911147.985367 2.75192.995753 1.687834 1.510987 3.55798 2.16152 5.378107.6109 1.709427 2.29928 2.059293 3.432247.654907.987553-1.22426 1.440466-2.704087 1.743593-4.22628.101953-.512227.160993-1.032927.24682-1.597087.54612.338113.638507.835853.702193 1.246947.584114 3.78184 2.370894 7.100106 3.999414 10.474406 2.080613 4.311287 4.092346 8.66166 6.749966 12.666814 8.683254 13.08474 19.049967 24.614486 31.941734 33.659633 6.2607 4.392467 12.273486 9.119767 18.61974 13.390873 14.643013 9.855034 30.365146 17.274666 47.626146 21.236359 12.629914 2.898976 25.36014 3.898283 38.25464 2.0008 3.63998-.535459 7.056646-1.764366 10.522239-2.8741.912386-.292193 1.799356-.7626 2.897607-.617186-.141038 1.391814-1.2464 1.402748-1.983307 1.704779-9.966552 4.086062-20.203705 7.321235-30.783892 9.371235-11.115647 2.153865-22.354567 3.336855-33.67658 3.245562-26.38104-.212928-51.44434-5.985183-74.914927-18.229697-1.93766-1.010786-3.932446-1.925632-5.80068-3.050945-1.43418-.864007-2.65106-.98072-3.93108.184227-.397153.361346-.886693.66666-1.387166.858813-1.09716.421753-2.121067.3731-2.937514-.659827-.79048-.999853-1.6318-1.9598-2.45672-2.93232-1.357373-1.60064-1.359286-1.599.417927-3.152626-32.69422-23.33638-54.516607-54.153894-64.216113-93.28812-9.67108-39.020247-4.642567-76.3625 12.60914-112.413527-.713947.686613-1.53586 1.35054-2.20744 2.142113-5.480334 6.460507-10.632394 13.182867-15.886134 19.825414-1.746873 2.208806-3.06352 4.450413-3.7146 7.132633-.213473.879587-.587666 1.811107-.18286 2.67812.680874 1.458507-.186413 2.01064-1.281113 2.450433-2.056287.82656-3.4358 2.202794-4.150567 4.365134-2.48296 7.513933-5.221486 14.9445-7.108033 22.64758-1.692753 6.912326-2.966487 13.890253-3.488553 20.99446-.457287 6.219973.28372 12.37708 1.083493 18.519153 4.702153 36.113073 19.297607 67.88042 42.262527 95.9523 18.16136 22.199861 40.40058 39.281282 65.8091 52.381054 5.750933 2.965121 11.650013 5.587207 17.65132 8.008938 2.192406.884783 3.955133 1.119028 5.54074-.9102.25994-.332645.713673-.513866 1.314186-.928238 2.8249 3.947207 6.56082 6.761993 11.043487 8.914221-1.649293 1.627424-3.316627 2.80221-3.7802 4.915079-.179033.815079-.996847.576459-1.628247.515507-2.0049-.193521-3.951853-.691262-5.86956-1.253507-30.622353-8.981734-59.7042-21.207386-85.221506-40.8278-21.378494-16.438267-38.492714-36.590041-51.75676-60.029194-12.59848-22.262727-20.87228-46.01348-24.706327-71.342733-2.466833-16.298047-3.118187-32.640647-1.906227-49.046114 1.341247-18.15808 5.099854-35.83974 10.952194-53.093086 6.06718-17.886387 14.682646-34.453394 25.51594-49.881147 4.888566-6.962073 10.35578-13.462487 16.03428-19.80792 4.866973-5.438787 10.085453-10.529893 15.596126-15.2306801 21.216407-18.097673 44.705854-32.373873 71.250894-41.3761065 18.042186-6.11884 36.526353-9.83262 55.537506-11.1643 36.48262-2.5553935 71.289707 3.83186 104.437388 19.22736 15.607607 7.2490735 30.173537 16.1663 43.098927 27.6189665.667207.59122 1.527386 1.018167 1.841173 1.94996l.008744-.0235065c-2.369524-.2829-4.539793-1.2177-6.718807-2.0994735-11.052779-4.471733-21.938824-9.35046-33.1813-13.36026-18.118993-6.462693-36.763331-10.4424265-55.928918-11.9064-26.07108-1.991233-51.372453 1.734847-76.049533 10.28936-14.021454 4.860687-27.180267 11.37094-39.607094 19.441927-2.04754 1.3297665-4.023466 2.7319665-5.834026 4.5162865.976073-.3974265 1.95488-.78802 2.927673-1.1933735 27.810573-11.58086 56.719127-17.7612 86.903053-17.4944265 21.706494.1916065 42.971827 3.5557935 63.922008 9.1501065 13.2061 3.5262735 26.204737 7.6598935 38.940979 12.6260871 2.037972.79458 3.9032 1.908686 5.876121 2.778706-7.096828-2.23286-14.005328-5.12664-21.487007-6.0682731-19.883086-2.502913-39.617207-1.570573-59.232701 2.4203671-13.700286 2.787453-27.004513 6.799166-39.667226 12.79528-.766154.36244-1.820674.42804-2.107947 1.869326 34.83114-3.452473 68.344267.814807 100.044646 16.447834-.440338-.056307-.887514-.081454-1.3202-.17384-6.950045-1.486934-14.012979-2.30584-21.004028-3.550054-.533-.09512-1.086772-.07462-1.630703-.10742-3.298314-2.635206-6.729197-2.649146-10.268315-.51824-7.56614-.080633-15.117247.229874-22.630633 1.125587-17.493607 2.08608-34.218054 6.934467-50.339254 14.005053-7.27504 3.19062-14.134066 7.073594-20.875833 11.25696-4.262633 2.644774-8.393793 5.502474-12.123427 8.747214-4.280673 3.72444-8.77974 7.294993-12.275946 11.90968-2.12216 2.80112-4.898134 5.10204-7.07168 7.86954-3.65802 4.657873-7.35458 9.301806-10.54684 14.306266-4.51574 7.079334-8.64116 14.374327-12.272394 21.95468-3.72034 7.766494-6.71908 15.81616-9.0651 24.07028-3.494293 12.294534-4.2148 24.858847-2.661446 37.548347 1.041946 8.512967 2.743446 16.89774 4.895673 25.194227.251193.968693.565253 1.92208.556507 2.938333-.189694.26158-.37966.52316-.569627.78474" fill="#d33e35"/><g fill="#095c86" transform="translate(.061)"><path d="m649.171274 297.585127c-.745656 1.229453-.708483 1.978113-.650807 2.684133.745651 9.129334-.11699 18.20892-.919769 27.279214-1.148821 12.983059-2.899794 25.894233-5.852614 38.596306-.800593 3.443727-.861817 7.12252-2.705452 10.3033-.843779 6.1336-3.189255 11.867313-5.040541 17.696147-9.977759 31.416386-25.280324 60.11584-45.191838 86.34108-32.186642 42.393453-72.716779 74.252093-121.533021 95.465493-26.875774 11.678987-54.884787 19.468167-83.936567 23.386673-23.470587 3.165474-47.037933 3.830494-70.61594 1.6605-49.242093-4.532413-94.604767-20.473486-136.264593-47.041486-11.278827-7.192767-22.056087-15.08636-32.38508-23.585114-12.184654-10.02532-23.394054-21.080286-34.200287-32.556733-2.560313-2.718847-5.132926-5.426487-7.712373-8.127293-.483253-.50594-.856627-1.283574-1.749607-1.08404-3.5675465.79704-7.2578198.529173-10.8324732 1.296146-2.4930733.53464-4.9842333 1.053154-7.4270133 1.800447-2.3602333.721873-2.3733533.6847-3.6413467-1.368307-1.9617133-3.176406-3.8816066-6.380146-6.0846733-9.399933-1.50388-2.061207-3.0211533-4.116673-4.84374-5.910833-.7303467-.718594-.74702-1.31528-.1462333-2.11642 3.5762933-4.769667 6.0477733-10.159254 8.55998-15.515494.58794-1.253506 1.3059866-1.733753 2.69534-1.703686 4.9309333.106053 9.83016-.3075 14.6531266-1.37596 1.04222-.230967 1.6796334-.033347 2.25172.912933 3.1228334 5.167367 6.8904602 9.847107 11.0503202 14.2065.828746.868653.936986 1.5703.447446 2.64286-1.321839 2.896513-2.486786 5.864367-3.792226 8.768533-.85362 1.89912-.548307 3.198 1.06108 4.746707 13.7391 13.219493 28.109873 25.666273 43.656526 36.739553 2.31076 1.64574 4.567947 3.3825 6.889914 5.023867.8241.582747 1.648473 1.108367 2.811233 1.0783.683333-2.208533 1.096887-4.532687 2.138833-6.678627.775174-1.596813 1.7056-2.381553 3.579027-2.16398 2.16562.251467 4.364587.30012 6.547973.28208 1.201027-.009566 1.848827.306407 2.07542 1.554174.444714 2.448793 1.394547 4.722926 2.85934 6.73384.739914 1.015706.404534 1.534766-.45756 2.20744-2.21728 1.730473-4.69368 3.078006-7.032046 4.700786.495553.871114 1.308993 1.100987 1.97538 1.491307 33.32726 19.519007 68.963093 32.776767 107.01328 39.528647 25.325426 4.493873 50.83098 5.648706 76.485226 4.434833 28.37528-1.342887 56.020487-6.578313 82.989194-15.448527 51.056479-16.793053 95.0134-44.811906 131.678607-84.055466 23.511859-25.165527 42.100986-53.707814 55.946414-85.262507 4.989151-11.370667 9.563931-22.92228 13.203914-34.818567 5.525979-18.061046 9.832072-36.375473 11.71151-55.212239.248734-2.496354.593407-4.97986.734997-8.136587" mask="url(#c)"/><path d="m94.7022372 239.234426c-.4305.521247-.830933.975527-.3498665 1.6031.1514265.19762.2618535.17466.4138265-.019407.3471335-.443893.4143735-.88642-.06396-1.583693m20.5470138-13.372287c-2.511387 9.852847-3.52026 19.92846-3.760794 30.0325-1.182166 49.637334 14.453867 93.60382 45.23694 132.323127 13.763974 17.312385 30.07104 31.924241 48.188667 44.555792 13.296027 9.2701 27.361213 17.169707 42.163033 23.769069.69782.311052 1.625514.352052 1.989047 1.248038-.461387.226049-.893527.090749-1.312-.034986-30.381-9.132338-58.116133-23.152152-81.982507-44.337672-26.15062-23.213108-44.818466-51.484794-57.073913-84.131454-10.0132933-26.674327-14.7725733-54.20856-13.8303933-82.70684.0481065-1.451674-.00082-2.907447-.0358065-4.360487-.00328-.1353-.2339735-.265407-.35916-.397973-.9613135.15416-.941907.96678-1.0834935 1.648746-3.1255665 15.059847-4.5236665 30.26538-3.5691865 45.634367 1.5252 24.551073 6.9689065 48.216273 15.9140128 71.13992 2.824627 7.23896 6.512167 14.042227 9.55136 21.15846.138307.3239.299027.63796.3649.996847-8.64198-14.86824-16.2769998-30.213447-22.2711998-46.36034-3.775553-10.170187-6.880893-20.5533-9.25206-31.10752-4.6032065-20.489614-5.7520265-41.271967-4.1079265-62.203834 1.7378535-22.1236 6.75926-43.481866 14.7528935-64.18386 6.7349328-17.441946 15.4020598-33.85862 26.1465198-49.115813 27.50198-39.0525002 63.6566-67.2788132 107.684313-85.6394332 18.405174-7.6752001 37.44858-13.0494801 56.96704-16.8930935.800594-.1577133 1.63672-.1366666 2.43622-.2987533.760687-.1544333 1.5949.1831333 2.278507-.36736-6.54114 1.7684667-13.116993 3.4601267-19.469807 5.8717467-29.885173 11.3449731-56.72268 27.6826531-80.32474 49.2612266-9.09626 8.31644-17.271933 17.5031735-24.87634 27.1925667-2.68468 3.42104-5.56452 6.702407-7.820066 10.442153.003553-.002733-.003827.0697-.003827.0697s.04592-.094026.04592-.0943c.578373-.436786 1.19638-.830113 1.728833-1.317193 11.83342-10.821267 24.350994-20.7421732 37.886734-29.3857932 11.544506-7.3720735 23.734353-13.4818935 36.16118-19.1644935.396606-.1814935.857446-.2214 1.525473-.3856735-.918673 1.022267-1.921533 1.4309-2.836653 1.946407-12.73542 7.1730865-24.62542 15.5264265-35.84384 24.911873-5.51204 4.6119532-10.788194 9.4338272-15.697807 14.6487532-4.393287 4.66662-8.74448 9.399387-12.763027 14.38608-6.093146 7.561767-11.860753 15.373907-17.226833 23.49136-6.645007 10.052107-12.4558 20.553574-17.8924 31.287647-6.606467 13.043467-11.691013 26.67542-15.92604 40.64166-.20746.684427-.913207 1.45714-.145687 2.25172 0 .000273.03772-.00902.03772-.00902-.65108-.241353-.58138.38868-.804146.665293-.26322.973614-.52644 1.947227-.78966 2.92084"/><path d="m477.937901 459.388928c.366269-.222765 1.018986-.514414.759321-.893527-.453735-.662559-.85608.043186-1.236559.329641-.278527.170559-.712307.316793-.378841.735266.318158.399341.592858.014486.856079-.17138m-16.936007-19.795072c-7.521586 2.763945-15.085538 5.378924-22.911072 7.188938-7.3718 1.704779-14.808107 3.035369-22.287873 4.143734-.516872.076535-1.063541.290552-1.558272-.113707.133659-.87822.900631-.817813 1.44101-.96022 21.476076-5.650073 40.429283-16.228893 58.153583-29.360645 6.181707-4.579976 11.109907-10.050742 15.361879-16.423783 17.713366-26.551052 29.142528-55.523838 34.166938-87.027418.760414-4.76912 1.181076-9.58334 1.314462-14.416694.074345-2.693973.068607-5.391226.698638-8.107066-.850886.0697-.824917.476146-.775172.777906 1.455227 8.8601 1.129141 17.80302 1.221527 26.722707.127373 12.329793-1.101262 24.550253-3.150441 36.696913-.193793.397974-.431593.90446-.018314 1.17506.2624.171927.519335-.311326.685249-.604613 5.15862-6.6133 9.810206-13.56854 13.952027-20.85916 7.844117-13.807707 14.512631-28.148413 19.285852-43.318687 3.832955-12.181646 6.478272-24.58606 6.483193-37.438466.000548-.894074.220855-1.808374-.266228-2.85852-.669393.962133-.070517 1.828053.042914 2.55758 2.121614 13.619653 3.050676 27.322673 2.967035 41.096213-.185593 30.496073-5.73508 59.906193-17.885021 87.974247-14.141721 32.668798-35.502721 59.858088-62.944021 82.310781-28.676493 23.463479-61.2048 39.158279-97.344385 47.368393-21.638707 4.9159-43.546647 6.480186-65.680633 5.479238-36.395974-1.646286-70.363654-11.824124-102.359507-28.992466-10.335553-5.545658-20.274773-11.718072-29.73976-18.646251.967053-1.477642 2.335907-2.58519 3.545133-3.83979 4.93148 2.927676 9.818134 5.934069 14.801547 8.770176 25.629647 14.586707 52.90804 24.654393 81.992073 29.709145 44.647907 7.759386 87.99584 3.434434 129.865587-14.174245 19.752435-8.306876 38.033238-19.145635 54.815907-32.484576.590673-.469586 1.883814-.951472 1.342066-1.728559-.672945-.964865-1.600914.15088-2.3042.552407-12.450059 7.111042-25.439407 13.003014-39.069721 17.478573-11.552431 3.79332-23.376558 6.281472-35.461992 7.559034-1.413953.149514-2.825993.316793-4.67564.5248 1.165767-1.158934 2.311307-1.472448 3.34806-1.930279 23.867193-10.538642 44.775555-25.352762 63.229107-43.718028.126827-.126279.211834-.294379.31652-.443072.256114-.245455.899538-.383486.491728-.859635-.297935-.347407-.744562.013121-1.089783.220035"/><path d="m128.424136 466.24388c3.30706 2.272221 6.14918 5.104228 9.1758 7.707183 17.821607 15.327714 37.140533 28.447166 57.895007 39.458124 25.8997 13.740742 53.356033 22.967107 82.17712 28.206362 21.403093 3.891173 42.964993 5.655266 64.718773 4.756821 44.91304-1.854569 87.131558-13.377207 126.293121-35.572148 22.003879-12.471107 41.732534-27.955714 59.400527-46.058035.632217-.648072 1.237107-1.322931 1.963352-2.102207-1.804821-2.08061-4.0795-3.383317-6.350628-4.613317-1.114924-.604069-1.637537-1.075841-1.428165-2.453441.272241-1.792793.361621-3.615928.693993-5.41118.369-1.994513.259121-4.004062-.2009-5.9696-.249007-1.064086.104958-1.523834 1.123672-1.690841 4.319486-.708479 8.109528-2.656252 11.662586-5.105865.907197-.625387 1.537228-.616094 2.368707.153886 2.147035 1.987955 4.698876 3.43662 7.10667 5.073886 1.740037 1.183262 1.776937 1.154834 3.163013-.616914 7.1955-9.199031 13.553507-18.962772 19.42771-29.042214 7.34857-12.609411 13.668583-25.723945 18.785928-39.393345 3.380042-9.02902 6.263435-18.219853 8.793135-27.535053 4.686844-17.257993 7.635293-34.80162 9.0651-52.602453.846786-10.542467.80852-21.115547.345765-31.679607-.110151-2.518767.300942-5.053387-.107145-7.721667-.891069.449087-.800048 1.092514-.6683 1.643007 2.089631 8.73546 2.418724 17.662527 2.8003 26.569913.612814 14.301347.521517 28.595314-.991383 42.853474-.99083 9.337066-2.29791 18.635593-4.5305 27.75126-1.21223 4.949793-2.545003 9.880726-3.838144 14.816306-7.465007 28.4909-20.390393 54.403172-37.276928 78.4002-15.919479 22.622707-35.340907 41.825465-57.494028 58.332614-31.448093 23.432865-66.486965 38.96722-104.670811 47.498772-27.367774 6.115014-55.092794 8.408828-83.07748 6.456679-41.187234-2.873003-79.9664-14.114658-116.2473-33.953738-26.354527-14.4115-50.046787-32.298434-71.172994-53.618706-.632493-.638235-1.408213-1.172873-1.72938-2.075966 1.028007-.721328 2.076787-1.4186 2.823807-2.46219"/></g><path d="m56.7674032 350.404723c-2.89214-6.79944-4.9735734-13.872213-7.03478-20.949906-4.72156-16.21468-8.01796-32.72456-9.6776401-49.524174-2.0765133-21.015506-1.9693667-42.01434 1.3303132-62.9309.0710669-.449633.1120669-.904733.1946135-1.35218.1489665-.809613-.15826-1.177246-.9963-1.181346-.78064-.0041-1.7493334.23042-1.88354-.993567-.1216334-1.107547.5791933-2.156873 1.92864-2.136373 1.8504665.028153 1.73184-1.160027 1.9395734-2.298734 4.7587331-26.095953 13.59888-50.752533 26.0114931-74.1731 6.5917069-12.437213 14.28112-24.17278 22.7850669-35.3428195 8.2533-10.8404 17.4687328-20.8608 27.3445398-30.2804135 8.454747-8.06388 17.469827-15.4474335 26.89272-22.2999 8.29594-6.03274 16.979193-11.5076067 26.01122-16.43444 8.479347-4.6250733 17.047527-9.04542 25.93578-12.8155067 14.205953-6.0259066 28.89106-10.6446933 43.83802-14.5036133-1.424067.53327333-2.844033 1.07884665-4.273293 1.59790665-7.365787 2.67484-14.49678 5.88814665-21.629414 9.12742005-4.096446 1.8608533-7.98352 4.07376-11.941386 6.1620266-4.90852 2.58956-9.595367 5.5795534-14.319934 8.5012134-5.39314 3.3354866-10.582646 6.9546933-15.75712 10.60342-4.457246 3.1433333-8.75432 6.4957668-13.032806 9.8829133-4.310467 3.4125665-8.5854 6.8934665-12.604767 10.6039665-3.251027 3.0014735-6.841807 5.66784-9.7129 9.10938-1.384707 1.65968-2.966487 3.19144-4.697233 4.5488135-1.79744 1.4093065-3.022794 3.3764865-4.593367 5.0148465-8.377667 8.739287-15.996287 18.12856-23.168553 27.8537605-4.556467 6.1787-8.7401068 12.64276-12.7903602 19.183353-8.62312 13.925513-16.0214335 28.472587-22.2053266 43.627827-10.7794469 26.417666-17.3834534 53.83628-19.4801934 82.317886-1.6569466 22.508454-1.2811135 44.95978 1.85402 67.333207 1.1124665 7.938693 2.6480534 15.799487 4.5900865 23.57828.5939535 2.378273 1.6378135 4.720467.4422535 7.20452-.4335066.32144-.8664666.643973-1.2994266.966233" fill="#d33e35"/><path d="m220.884297 32.6197913c57.070633-31.9868333 117.442313-40.70944665 180.882433-25.01573995 45.513007 11.25887335 83.55718 35.44012655 115.569433 69.53846005-.707113.49118-1.03156.0691535-1.345346-.2011735-10.67312-9.1927465-22.47128-16.763533-34.528014-23.960673-24.71562-14.7534402-50.963546-25.9237536-78.85202-33.0317869-33.78482-8.6113667-68.024466-11.19491335-102.742993-7.1695333-26.30478 3.0498533-51.74938 9.40458-76.435753 18.91084-.843507.32472-1.69822.6204666-2.54774.9296066" fill="#d33e35" mask="url(#d)" transform="translate(.061)"/><path d="m156.128826 573.631573c-8.986107-4.722652-18.682607-10.59768-28.05138-17.01008-15.829007-10.833837-30.5138404-23.039537-44.0640669-36.626393-14.53122-14.570579-27.0928-30.678114-38.1764666-47.994872-17.0584601-26.651914-29.4735334-55.385535-38.71548008-85.562901-2.15796665-7.046533-4.22846665-14.119033-5.67139332-21.356626-.17466-.876034-.32472-1.756987-.53409333-2.625914 18.41173333 66.874279 67.90829983 156.40762 155.21288023 211.176786" fill="#095c86"/><path d="m604.660981 185.524836c-.126007.448267-.358614 1.51864-.726521 2.540087-1.019258 2.828453-1.994514 5.674946-2.35203 8.668493-.17849 1.49404-.954756 2.166167-2.287528 2.647507-4.372786 1.578773-8.609728 3.467233-12.416442 6.1828-1.116565.796493-1.87862.561153-2.82982-.328274-4.65541-4.35256-9.54398-8.433426-14.778038-12.077233-1.161669-.80852-1.453862-1.533127-.886421-2.920293 1.731842-4.23202 2.681128-8.686807 3.163559-13.22332.142683-1.342614.5781-2.06148 1.918527-2.525054 4.381807-1.51536 8.759514-3.08156 12.620349-5.74984.710117-.490906 1.304344-.45674 1.963624.075714 3.348606 2.702446 7.060748 4.808753 10.973513 6.566286 1.096342.492547 1.687014 1.315827 2.003263 2.421187.534093 1.86714 1.406024 3.545953 2.815879 4.913713.616638.598054 1.0004 1.29068.818086 2.808227m-551.1740154 238.49678c-.5884865-1.742773-1.9026731-3.044931-2.8008465-4.604573-7.9110866-13.736637-14.6588667-28.015026-20.3370933-42.817392-7.2960867-19.019354-12.7064467-38.541367-15.92686-58.655147-2.5113867-15.684413-3.43498-31.479527-3.1900734-47.361833.37638-24.42452 3.3584467-48.474027 9.9616334-72.03208.8033266-2.86672 1.68346-5.69982 2.8607066-8.400354-9.1993066 39.502954-10.2718666 79.444607-5.6142666 119.593994 4.6644333 40.209793 16.37868 78.331593 35.0290333 114.291054z" fill="#d33e35"/><path d="m82.5353018 68.2318449c-7.62354 8.474153-14.4719069 17.54554-20.8851269 26.96078-14.8734331 21.8363261-27.2688265 44.9808261-36.7275265 69.6625531-7.12662 18.595413-12.3259666 37.71262-15.11615329 57.456853-.13557334.96022-.31515334 1.914427-.56716669 3.430607-.11835331-6.722633.81125338-12.790633 1.62851998-18.86574 3.4289667-25.48806 10.7507467-49.784387 22.3887334-72.7422 10.19342-20.10804 23.0512931-38.3688931 38.3106731-54.9479266 2.7751535-3.0148665 5.5828335-6.0002135 8.41566-8.9606865.7399135-.77326 1.3981-1.712707 2.5660535-1.9469535-.00082-.00246-.0136666-.0472865-.0136666-.0472865" fill="#d33e35"/><path d="m396.54304 194.564133c.08856 1.814934.10906 3.6367.289187 5.442614.120267 1.205126-.31406 1.746326-1.42352 2.221653-3.848533 1.6482-7.545913 3.603353-10.809787 6.265893-1.008873.823007-1.756986.92086-2.813693-.0205-3.468873-3.08976-7.21846-5.8138-11.368207-7.93268-.992473-.507033-1.261706-1.08896-.983726-2.16316.91594-3.53912 1.298606-7.15286 1.135973-10.804593-.053027-1.191187.322807-1.80974 1.487207-2.181473 4.09016-1.306807 7.911086-3.200187 11.44884-5.634767.947373-.6519 1.567566-.429953 2.335906.317613 2.88148 2.804947 6.106267 5.159987 9.73094 6.91834.96924.470134 1.274554 1.058894 1.20868 2.12544-.111246 1.808374-.030613 3.628774-.030613 5.444254zm-339.7756368 155.84059c.43296-.32226.86592-.644793 1.2994266-.966233 1.2835734-.115073 1.96226-2.03852 3.2756265-1.436913.99302.454826 1.6585869 1.63262 2.4589069 2.498813 2.9632066 3.208387 5.9329731 6.415133 9.45542 9.030387.9017266.669666 1.0386666 1.240933.5056666 2.251173-1.6512066 3.128573-3.4746135 6.191547-4.3416266 9.67108-.1839534.737727-.6456134 1.029647-1.312 1.185447-3.1966334.74702-6.3178269 1.711066-9.1842734 3.35462-.6590066.37802-1.19638.290006-1.7206335-.192427-.5351865-.492547-1.0854065-.971153-1.5927131-1.491033-2.54364-2.606507-5.1597134-5.135387-8.13112-7.25618-.9230469-.658734-1.3551869-1.260614-.8555334-2.475854 1.25132-3.04302 1.9037665-6.259333 2.2462534-9.522386.1314731-1.253234.62484-1.837074 1.8534731-2.28616 2.0267669-.74046 4.3137469-.865374 6.0431269-2.364334" fill="#095c86"/><path d="m552.319889 130.810582c-.394421 3.247747-.5658 6.420327-.016673 9.583887.166735.9594-.137486 1.538046-.973341 1.9885-3.609914 1.945313-7.041886 4.156306-10.060579 6.957426-.687707.63796-1.278928.46166-1.911145-.072706-3.409562-2.881207-6.967542-5.54156-11.033648-7.455987-.980721-.46166-.754128-1.30626-.559242-2.127353.54749-2.305567 1.23-4.69122.776542-7.00034-.570994-2.909087.425034-4.379894 3.018965-5.583107 2.537355-1.177247 4.771583-2.988353 6.825955-4.931207.883414-.83558 1.549252-.955026 2.529152-.07708 2.9971 2.685774 6.456679 4.70352 10.021221 6.528294.997393.510586 1.717079 1.024726 1.382793 2.189673" fill="#d33e35"/><path d="m80.8078077 301.779817c-.7522131 1.38826-1.8903731 2.320053-2.9211131 3.33576-3.1108069 3.06598-6.2210669 6.137153-8.63214 9.806926-.73472 1.118754-1.4626069 1.340154-2.7081869.882594-1.8242265-.670487-3.4683265-1.543787-4.8522131-2.92658-2.1847534-2.182567-4.23776-4.51-6.76746-6.321927-.8025069-.57482-.9738869-1.242573-.4838-2.107673.6262066-1.105634 1.1805266-2.253907 1.845-3.335487 1.2876731-2.095647 2.5373531-4.207967 3.1982731-6.598813.328-1.185994.9522935-1.762454 2.2610135-1.914974 2.6119734-.30422 5.2018065-.8118 7.7905465-1.289313.7041069-.129833 1.2485869-.076807 1.65066.555687 2.2856135 3.59488 5.6410535 6.13688 8.7576 8.915313.3299135.294107.5843869.672947.86182.998487" fill="#095c86"/><path d="m193.461977 470.118c-1.209227 1.2546-2.578353 2.362144-3.545133 3.839786-1.66706 1.021448-2.72896 2.633021-3.89254 4.119135-.76998.983179-1.407667 1.190365-2.46656.441158-2.36898-1.676628-4.898407-3.093858-7.494254-4.3952-.47232-.236707-.9471-.580014-1.264713-.994114-1.731567-2.2591-3.88188-4.0344-6.199473-5.652531-1.353547-.94519-1.333594-1.195562-.13612-2.531613 1.3858-1.545977 3.025253-2.87 4.08852-4.696687 1.304346-1.00259 2.675933-1.892562 4.220813-2.487883 1.98112.224407 3.45056-.971424 4.90852-1.959524 1.313913-.89052 2.11724-.838313 3.19472.369 2.783627 3.118731 5.918213 5.870924 9.28404 8.364817 1.878347 1.39209 1.819853 1.44047.491727 3.489377-.43542.671579-1.124767 1.209223-1.189547 2.094279m93.49435-194.482134c-.006833 1.7261-.027333 3.454387.35998 5.15288.230147 1.009967.086647 1.87452-1.100167 2.070227-2.622906.432686-4.53296 2.096466-6.502053 3.661846-2.457813 1.953514-2.714473 1.97948-5.15206.107967-2.303927-1.76874-4.556467-3.60636-6.8962-5.3259-.952293-.700007-1.046047-1.361747-.439247-2.280967 1.51946-2.30174 1.954334-4.850573 1.67526-7.553293-.124366-1.20376.10578-1.96964 1.55964-2.275227 1.971827-.414646 3.58914-1.68346 5.251827-2.80358 1.822313-1.227813 2.260193-1.18244 3.64244.497467 1.320747 1.605013 2.982887 2.614433 4.877633 3.346147 2.830914 1.093606 2.823807 1.10618 2.725134 4.04014-.015307.45346-.002187.908013-.002187 1.362293" fill="#d33e35"/><path d="m642.268231 215.281248c.709573-3.284374 1.455773-6.29104 1.45058-9.408954-.001367-.765333.38294-1.174513 1.091967-1.329493 2.42392-.52972 4.701606-1.40138 6.699673-2.905533.724333-.5453 1.341793-.28782 1.982213.150333 1.812747 1.23984 3.72526 2.269487 5.903454 2.717207.801686.16482 1.271273.5617 1.288493 1.465886.050293 2.662814.582747 5.235427 1.624693 7.68996.331554.781187.287 1.384434-.515233 1.839534-2.87492 1.630706-5.301027 3.82694-7.585273 6.17706-.794307.817266-1.463974.894893-2.337274.200626-2.50592-1.99178-5.308406-3.491013-8.189613-4.853306-.853073-.403167-1.689747-.804967-1.41368-1.74332" fill="#d33e35" mask="url(#e)" transform="translate(.061)"/><path d="m176.772408 457.759943c-1.54488.595321-2.916193 1.485293-4.22054 2.487879-11.898473-10.32243-23.489993-20.970951-33.933513-32.793986-9.76374-11.053328-19.00022-22.532507-27.429274-34.646093-.236706-.3403-.690166-.616366-.4961-1.235193 3.603627 4.473373 7.12416 8.944014 10.7502 13.327458 15.665827 18.938449 33.131554 36.01167 52.795154 50.798728.869473.654086 1.690566 1.372679 2.534073 2.061207m299.733916 39.558578c-2.4026-3.340407-5.458741-5.777721-8.488093-8.227607-.952293-.770256-1.345621-1.284121-.354514-2.344107 1.490763-1.594079 2.646686-3.457393 3.787035-5.317156 1.550072-2.527786 4.157944-3.385779 6.7445-4.269465.440886-.150607.913207-.107421 1.304621.173565 1.752886 1.2587 3.92151 1.972921 5.14413 3.9319.190242.304498.406721.670214.704928.81727 2.684135 1.324028 2.615252 3.471058 1.900214 5.899628-.226593.76943-.196528 1.618951-.249007 2.434302-.039907.623477-.340572 1.0127-.923321 1.191735-3.548958 1.088963-6.294044 3.534749-9.570493 5.709935m-35.670272-318.55464c-.004372.571267-.354514.854167-.708756 1.140894-2.8208 2.28452-5.745737 4.461893-7.803393 7.53662-.45182.675406-1.011058.653813-1.641913.275793-2.886124-1.729107-5.901538-3.2021-9.015624-4.468727-1.011883-.411366-1.093335-1.14062-.775449-1.986586 1.132966-3.017054 1.524656-6.159294 1.568386-9.349094.017221-1.234646.604342-1.525746 1.699863-1.505793 2.847314.05248 5.597044-.538467 8.24783-1.532853 1.1439-.429407 1.841994-.233974 2.430207.877126 1.489942 2.813694 3.31608 5.414734 5.258114 7.934594.276066.358066.513593.745653.740735 1.078026" fill="#095c86"/><path d="m497.200309 236.5003c4.109021.04264 7.400228 3.314713 7.298545 7.256453-.100038 3.888987-3.526 7.1135-7.5522 7.108592-4.048065-.004932-7.301551-3.288485-7.234858-7.301565.066693-4.02128 3.337672-7.106667 7.488513-7.06348m-409.0131299 187.949329c-.06642 3.778014-3.2772666 7.044621-6.9300935 7.050652-3.7597.006269-7.1391931-3.402745-7.1153936-7.177203.0254005-3.965521 3.0233205-6.988314 6.8658405-6.922442 3.9939466.068335 7.24634 3.261686 7.1796466 7.048993m.0715858-22.365936c-.1634531 1.368034-.20828 2.754928.2569335 4.053534.4225734 1.178887.2569334 1.765731-1.0351135 2.198694-1.6282465.5453-3.2163131 1.2833-4.7098065 2.134458-1.0870466.619648-1.8209466.388679-2.6753866-.331828-1.5293-1.28931-3.0867534-2.549107-4.6873934-3.747944-.8730266-.653814-1.14308-1.300521-.5535-2.285342 1.0878665-1.8163 1.7468734-3.819012 2.0740534-5.885686.2555666-1.614033 1.0506931-1.828326 2.4539866-1.561826 2.50018.47478 5.0211334.84788 7.54154 1.206493 1.0845865.154433 1.6569465.590127 1.5019665 1.770107-.1063265.809888-.1148 1.632619-.16728 2.44934" fill="#d33e35"/><path d="m480.496745 151.011931c3.863842.011815 6.910414 2.986502 6.839621 6.678415-.069428 3.634513-3.222328 6.743953-6.888276 6.794247-3.741659.051386-6.836886-3.014867-6.792603-6.7281.044551-3.715967 3.127751-6.755707 6.841258-6.744562" fill="#095c86"/><path d="m541.422309 255.712791c-.575642.036626-.895714-.304494-1.252414-.572907-1.588614-1.196107-3.084293-2.528333-4.923828-3.3579-.645886-.291373-1.019534-.747293-.8159-1.501967.454556-1.686466.416014-3.413933.351779-5.129373-.039358-1.045227.429956-1.455773 1.371042-1.627973 1.878072-.34358 3.681528-.966234 5.440972-1.6851 1.180256-.48216 2.022393-.3854 2.77488.75522 1.145269 1.73676 2.405883 3.397806 3.627955 5.082906.503207.69372.485165 1.28658-.158807 1.909234-1.952148 1.887093-3.871493 3.807533-5.812158 5.70638-.188056.183953-.43597.306406-.603521.42148m-66.886856 28.138737c.04838.86838-.513593 1.06436-.950651 1.36202-1.482562 1.009967-3.043021 1.92618-4.417614 3.066527-.811255.672946-1.407665.693446-2.127628.091293-1.464793-1.225353-2.999014-2.347387-4.734407-3.15782-.83503-.389773-.988644-.928787-.64042-1.74824.680055-1.601187 1.077483-3.26524.969241-5.025507-.065328-1.059166.555414-1.39072 1.507159-1.480646 1.540507-.145414 3.021976-.568807 4.470369-1.115747 1.591344-.60106 3.210844-.224953 3.882151 1.187907 1.048507 2.206346.795949 4.830346 2.0418 6.820213" fill="#d33e35"/><path d="m630.727089 187.070017c.002457 3.503313-2.742081 6.27792-6.166129 6.233913-3.324007-.042913-6.205486-2.942707-6.254414-6.294593-.048107-3.28246 2.671562-5.97616 6.0803-6.022627 3.475979-.047287 6.338055 2.69862 6.340243 6.083307" fill="#095c86"/><path d="m644.761223 253.330144c3.494021.055487 6.207945 2.677573 6.173231 5.963587-.035531 3.386326-2.964845 6.23118-6.355272 6.17214-3.282731-.057127-6.091507-2.932047-6.033559-6.17624.058221-3.266607 2.921386-6.011967 6.2156-5.959487" fill="#d33e35"/><path d="m622.905188 316.649123c3.177773.000273 5.922314 2.707913 5.979442 5.898533.062317 3.476527-2.77379 6.346253-6.188542 6.262067-3.186248-.07872-5.9819-2.80768-6.045041-5.900174-.068879-3.36364 2.825448-6.2607 6.254141-6.260426m-223.8846-188.072084c3.539121-2.13118 6.97-2.116967 10.268314.51824 1.214145 3.251846.717228 5.93106-1.470262 7.925573-2.113959 1.927547-5.210552 2.18448-7.500812.621833-2.303106-1.571666-3.292573-4.520933-2.340826-7.17992.238893-.66748.689893-1.259246 1.043586-1.885726m89.939158-2.847368c-2.972228-.020774-5.330545-2.414627-5.319151-5.399154.011837-3.075273 2.470472-5.557413 5.525792-5.577913 3.015687-.0205 5.527621 2.543367 5.490445 5.603607-.0369 3.02334-2.551838 5.3956-5.697086 5.37346" fill="#095c86"/><path d="m377.425123 457.8541c3.04548.003014 5.34886 2.303386 5.314967 5.307593-.031707 2.831735-2.381554 5.109693-5.258934 5.098567-2.91264-.011288-5.37756-2.494795-5.33164-5.371081.04592-2.865351 2.322514-5.038079 5.275607-5.035079m-248.939727 8.38978c-.74702 1.04359-1.7958 1.740862-2.823807 2.46219-4.096993-3.981376-7.599486-8.475248-11.088313-12.971855-2.92904-3.775279-5.735353-7.645135-8.59606-11.473166l.00328.002187c.848427.816172 1.76792 1.570844 2.533527 2.458358 4.810393 5.577642 10.186313 10.551486 15.923853 15.155514 1.553353 1.2464 3.014867 2.618534 4.04752 4.366772m489.149186-184.006057c.276342-1.51208.377477-2.770234.171107-4.039047-.153337-.943547.359435-1.266353 1.207314-1.395913 1.608565-.245454 3.213307-.526987 4.806293-.85772.850614-.176574 1.325942.142133 1.782956.83066.849244 1.2792 2.289986 2.393033 2.56933 3.762433.311877 1.5293-1.676623 2.333447-2.515486 3.573013-1.591344 2.351487-1.673344 2.29272-4.175986 1.036207-.889428-.446627-1.767644-.922773-2.684679-1.30544-.866742-.361893-1.355463-.87248-1.160849-1.604193m-297.411336-58.757182c.009774 3.011313-2.187006 5.323166-5.056459 5.321256-2.758207-.00219-4.88474-2.094283-4.896851-4.817503-.011942-2.716113 2.523498-5.024413 5.456091-4.96674 2.67484.05248 4.488407 1.85238 4.497219 4.462987m-204.912872 2.381389c.26322-.973613.526713-1.947227.789933-2.921113.715313.319526.951747.059586.804147-.664747 0 0-.037994.00902-.037994.00902.515234.614453.969787.026513 1.436367-.0861 2.4887-.600787 4.88474.93152 5.249093 3.3743.380754 2.5543-1.343433 4.809027-3.83104 5.009107-2.107126.169466-3.397806-.81262-3.824753-2.95938-.123-.617734-.057127-1.283574-.585753-1.761087m307.050778-11.757187c-2.063942.043186-3.793049-1.632894-3.87177-3.75314-.078993-2.128994 1.523286-3.850174 3.658842-3.93026 2.120521-.079267 3.960051 1.5334 4.060914 3.559893.10523 2.114233-1.728286 4.078953-3.847986 4.123507m93.6894 77.03151c-.045372 1.968-1.759172 3.6859-3.671414 3.679648-2.040707-.006594-3.827214-1.836288-3.792228-3.883828.035263-2.066673 1.617863-3.6244 3.661028-3.603626 2.139928.021866 3.850172 1.734573 3.802614 3.807806m-244.602256-69.405569c-2.00982-.004397-3.34232-1.41097-3.27426-3.456323.05412-1.629614 1.152647-2.652154 2.809047-2.615254 1.705873.037994 3.35708 1.81384 3.356533 3.609367-.00082 1.54406-1.083767 2.466013-2.89132 2.46221m161.304278-61.238908c-.556507-3.298587-.161814-2.748093 2.55102-2.758207 1.128866-.004373 1.696852.373374 1.719814 1.53012.014486.723787.109059 1.44566.159624 2.1689.202269 2.89542.143228 2.904714-2.672651 2.750554-1.151007-.06314-1.64328-.471774-1.605563-1.62852.023235-.71996-.102224-1.44484-.152244-2.062847m-262.200139 130.786228c.0656-1.177793.504573-2.160427 1.521373-2.759847 1.455773-.858813 2.278507-.973886 2.83802.913207.33702 1.13652.755767 2.251993.763693 3.444.007654 1.107-.51824 1.9352-1.63262 2.235593-1.089506.293834-1.9762-.086646-2.588193-1.023086-.557327-.852254-.837767-1.807007-.902273-2.809867m182.211024 197.094105c.021867 1.367762-1.150186 2.552662-2.583273 2.611427-1.4227.058493-2.94626-1.20622-3.055867-2.535986-.108786-1.325121 1.269907-2.672107 2.8085-2.743993 1.50716-.070521 2.806314 1.154286 2.83064 2.668552m89.877494-235.824345c-1.2013-.026513-2.266207-1.15128-2.183935-2.306933.079542-1.118207 1.286307-2.215094 2.397683-2.179287 1.192007.03854 2.273586 1.189 2.183931 2.32306-.091293 1.1562-1.236014 2.188853-2.397679 2.16316m-195.912131-4.477227c-1.179434.0246-1.94012-.65026-1.989047-1.76464-.060953-1.386347 1.603647-3.140327 2.957193-3.044934 1.112194.078447 1.5375.862914 1.610754 1.864954.11152 1.524653-1.1234 2.91428-2.5789 2.94462m-172.4212636 27.842963c-.0617735-1.00368.32636-1.615673 1.3614734-1.650933 1.1026266-.037994 2.1136866.775446 2.0379731 1.711613-.04182.520973-.2317865 1.076113-.5070331 1.522193-.4343269.703834-1.0599869 1.4145-1.9444934 1.272094-.98482-.158807-.5513135-1.17998-.75358-1.814387-.1093335-.34276-.1355735-.711487-.19434-1.04058m55.4861476 23.740449c.954207-.071887 2.05656.781733 2.139653 1.656946.09348.985367-.870566 1.850467-2.13446 1.91552-.99548.051114-1.823406-.6396-1.8163-1.51536.00738-.89708.97334-1.993966 1.811107-2.057106" fill="#d33e35"/><path d="m508.937625 191.70698c1.135972.02624 1.716534.655453 1.898027 1.634533.1722.927147-.819179 1.97128-1.781314 1.972101-.8528.000819-1.766551-.889974-1.705327-1.758354.071069-1.005047.64042-1.638633 1.588614-1.84828" fill="#095c86"/><path d="m458.24438 352.455926c1.121486 1.057253.718593 2.07706.144044 3.031813-.418472.69454-1.141165.820547-1.920165.674587-.786379-.1476-1.165769-.52398-.717776-1.306807.596962-1.04222 1.46862-1.7999 2.493897-2.399593m144.920021-107.377278c.87931.42968 1.770379.83722 2.632745 1.298333.445807.238347 1.077479.504574.607348 1.17998-.360528.517694-.812893.1763-1.149093-.099766-.81399-.668847-1.766555-1.193374-2.091-2.378547m-103.523907 33.645447c-.041.767247-.364355 1.32512-1.101807 1.371587-.834762.052753-1.428986-.437333-1.420241-1.28576.007107-.703013.529448-1.165493 1.254872-1.1726.715314-.006833 1.184628.379113 1.267176 1.086773" fill="#d33e35"/><path d="m556.153497 112.112313c-.072707.14104-.110424.343854-.225772.408907-.27388.154707-.523435.060407-.538194-.27552-.00492-.11152.196528-.306407.326359-.328547.130928-.022413.290283.122727.437607.19516" fill="#095c86"/><path d="m.42349947 360.438345c-.059392-.157987-.11912533-.315974-.1792-.47396-.059392.071886-.17749333.149513-.16725333.214293.0256.16236.10922666.318707.16964266.47724.05870934-.072433.11741867-.144867.17681067-.217573" fill="#095c86" mask="url(#f)"/><g fill="#d33e35" transform="translate(53.47 66.994)"><path d="m29.580742.07114861c-.5237065.23096694-.5007465.70574694-.5166 1.1644.0019135.00218694.0150335.04701347.01558.04947347.1596265-.39824653.3187065-.79895347.4775135-1.19966zm-28.99651208 357.52847339c.04728693.125735.09457347.251742.14186.377745.21866693-.214565.15142693-.336745-.12600653-.391138.00027346 0-.01585347.013393-.01585347.013393m354.32629208-18.569664c-.4879.235337-.6806-.107693-.668028-.269235.0287-.370093.3731-.523707.718321-.539286.116714-.005193.302307.130379.351235.246.223037.527535-.363263.407542-.401528.562521m109.802509-328.0500759c.3362.0448265.521248.2255.517148.5761865 0 0 .044279-.03854.044279-.03854-.402893.3479535-.596686.0347135-.798407-.2528331.078173-.0956669.157166-.1905134.23698-.2848134"/><path d="m.00019853 357.041338c-.00738.397155.19106.579469.58384.558693.00027347-.000545.0164-.013665.01612694-.013665.01940653-.408359-.20609347-.562249-.5822-.559242 0 .000548-.01776694.014214-.01776694.014214m465.81357347-344.9766504c-.41492.0497466-.694813-.0338934-.539558-.546943.000272-.0002704-.044007.0382696-.044007.0382696.3485.0161265.529445.1981665.542565.54694z"/><path d="m465.772664 12.1028449c.30941.03854.491179.217573.566073.514413l.04182-.041273c-.373648.034713-.600514-.09348-.566893-.5111366 0-.0002704-.041.0379966-.041.0379966m-1.296585-.8382587c-.2624-.1845-.670214-.3818469-.221127-.7082069.180672-.1314731.4018.16564.458107.4233935-.079814.0943-.158807.18942-.23698.2848134"/><path d="m466.338628 12.6171486c.0615.0519335.122724.10414.183952.1560735-.047835-.0650535-.095665-.1301066-.142679-.1962535.000821-.0010931-.041273.04018-.041273.04018m-45.372541 13.1257949.052751.0571265s-.043458-.08118-.043731-.0809065c-.000276.0002734-.00902.02378-.00902.02378m-229.824818 216.7663165c.256934.27224.394694.60352.094574.878493-.10414.095394-.43624-.05822-.6642-.09594.189693-.259393.37966-.520973.569626-.782553m-161.5839515-242.42398.0615-.08528s-.041.07188693-.0396334.07161347c.00164-.00054654-.0218666.01366653-.0218666.01366653"/></g><g fill="#fefeff"><path d="m94.763497 239.234426c.4783335.697273.4110935 1.1398.06396 1.583693-.1519731.194067-.2624.217027-.4138265.019407-.4810666-.627573-.0806335-1.081853.3498665-1.6031m22.140929-16.958338c.1476.724607-.088833.984273-.804146.664747.222493-.276067.153066-.9061.804146-.664747m40.992347-103.303245-.04592.0943s.007107-.072433.003553-.069973c-.003553.00246.042367-.024327.042367-.024327m319.624794 339.851735c.380751-.286179.7831-.991928 1.236834-.329093.259666.379114-.393055.670758-.75932.893523-.15908-.188323-.318163-.376379-.477514-.56443m45.883644-99.539528c-.165637.293013-.422572.77654-.685244.60434-.41328-.2706-.17548-.776813.018314-1.17506.221944.19024.444437.38048.66693.57072m-62.342029 80.30875c.344948-.206914.791848-.567442 1.089779-.219758.407814.475872-.23561.613907-.491724.859358-.199262-.212928-.398793-.4264-.598055-.6396"/><path d="m477.999161 459.388928c-.263221.185866-.537921.570721-.85608.17138-.333465-.418473.100314-.564707.378566-.735538.159083.188051.318434.376103.477514.564158"/></g></g></g></g></svg>