<?xml version="1.0" encoding="UTF-8"?>
<svg width="1372px" height="640px" viewBox="0 0 1372 640" version="1.1" xmlns="http://www.w3.org/2000/svg" xmlns:xlink="http://www.w3.org/1999/xlink">
    <title>Banner</title>
    <defs>
        <linearGradient x1="0.00376187705%" y1="49.9897808%" x2="99.9846885%" y2="49.9897808%" id="linearGradient-1">
            <stop stop-color="#F74C00" offset="0%"></stop>
            <stop stop-color="#F74C00" offset="33%"></stop>
            <stop stop-color="#F49600" offset="100%"></stop>
        </linearGradient>
        <linearGradient x1="0.000380010515%" y1="50.0000839%" x2="100%" y2="50.0000839%" id="linearGradient-2">
            <stop stop-color="#CC3A00" offset="0%"></stop>
            <stop stop-color="#CC3A00" offset="15%"></stop>
            <stop stop-color="#F74C00" offset="74%"></stop>
            <stop stop-color="#F74C00" offset="100%"></stop>
        </linearGradient>
        <linearGradient x1="-0.0030939853%" y1="49.9999405%" x2="99.996906%" y2="49.9999405%" id="linearGradient-3">
            <stop stop-color="#CC3A00" offset="0%"></stop>
            <stop stop-color="#CC3A00" offset="15%"></stop>
            <stop stop-color="#F74C00" offset="74%"></stop>
            <stop stop-color="#F74C00" offset="100%"></stop>
        </linearGradient>
    </defs>
    <g id="Page-1" stroke="none" stroke-width="1" fill="none" fill-rule="evenodd">
        <g id="Banner">
            <polygon id="Path" fill="#272727" fill-rule="nonzero" points="0 0 1372 0 1372 640 0 640"></polygon>
            <g id="title" transform="translate(576.000000, 146.000000)" fill="#FCC201" fill-rule="nonzero">
                <g id="Mini-Functions-Outlines" transform="translate(5.586000, 31.531000)">
                    <path d="M0,105.469 L0,8.379 L22.477,8.379 L31.122,38.969 C32.0973333,42.161 32.8288333,44.954 33.3165,47.348 C33.8041667,49.742 34.0923333,51.4266667 34.181,52.402 C34.2696667,51.4266667 34.5578333,49.742 35.0455,47.348 C35.5331667,44.954 36.2203333,42.161 37.107,38.969 L46.018,8.379 L68.628,8.379 L68.628,105.469 L50.407,105.469 L50.407,68.229 C50.407,61.7563333 50.5843333,55.7491667 50.939,50.2075 C51.2936667,44.6658333 51.737,39.4345 52.269,34.5135 C52.801,29.5925 53.2886667,24.871 53.732,20.349 L42.427,64.239 L25.802,64.239 L14.497,21.945 C15.029,25.7576667 15.5831667,29.9471667 16.1595,34.5135 C16.7358333,39.0798333 17.2235,44.1338333 17.6225,49.6755 C18.0215,55.2171667 18.221,61.4016667 18.221,68.229 L18.221,105.469 L0,105.469 Z" id="Path"></path>
                    <path d="M82.524,105.469 L82.524,87.514 L106.73,87.514 L106.73,50.274 L85.184,50.274 L85.184,32.319 L126.68,32.319 L126.68,87.514 L147.694,87.514 L147.694,105.469 L82.524,105.469 Z M115.774,20.748 C112.138667,20.748 109.234833,19.817 107.0625,17.955 C104.890167,16.093 103.804,13.566 103.804,10.374 C103.804,7.182 104.890167,4.655 107.0625,2.793 C109.234833,0.931 112.138667,0 115.774,0 C119.409333,0 122.313167,0.931 124.4855,2.793 C126.657833,4.655 127.744,7.182 127.744,10.374 C127.744,13.566 126.657833,16.093 124.4855,17.955 C122.313167,19.817 119.409333,20.748 115.774,20.748 Z" id="Shape"></path>
                    <path d="M160.792,105.469 L160.792,32.319 L180.077,32.319 L180.077,46.284 L185.929,46.284 L180.077,50.939 C180.077,44.9096667 181.850333,40.0773333 185.397,36.442 C188.943667,32.8066667 193.731667,30.989 199.761,30.989 C206.854333,30.989 212.551167,33.4716667 216.8515,38.437 C221.151833,43.4023333 223.302,50.008 223.302,58.254 L223.302,105.469 L203.352,105.469 L203.352,60.249 C203.352,56.4363333 202.3545,53.4881667 200.3595,51.4045 C198.3645,49.3208333 195.593667,48.279 192.047,48.279 C188.500333,48.279 185.7295,49.3208333 183.7345,51.4045 C181.7395,53.4881667 180.742,56.4363333 180.742,60.249 L180.742,105.469 L160.792,105.469 Z" id="Path"></path>
                    <path d="M240.124,105.469 L240.124,87.514 L264.33,87.514 L264.33,50.274 L242.784,50.274 L242.784,32.319 L284.28,32.319 L284.28,87.514 L305.294,87.514 L305.294,105.469 L240.124,105.469 Z M273.374,20.748 C269.738667,20.748 266.834833,19.817 264.6625,17.955 C262.490167,16.093 261.404,13.566 261.404,10.374 C261.404,7.182 262.490167,4.655 264.6625,2.793 C266.834833,0.931 269.738667,0 273.374,0 C277.009333,0 279.913167,0.931 282.0855,2.793 C284.257833,4.655 285.344,7.182 285.344,10.374 C285.344,13.566 284.257833,16.093 282.0855,17.955 C279.913167,19.817 277.009333,20.748 273.374,20.748 Z" id="Shape"></path>
                    <polygon id="Path" points="3.724 281.469 3.724 184.379 66.234 184.379 66.234 202.999 23.408 202.999 23.408 224.545 62.776 224.545 62.776 243.165 23.674 243.165 23.674 281.469"></polygon>
                    <path d="M113.114,282.799 C103.272,282.799 95.5801667,280.139 90.0385,274.819 C84.4968333,269.499 81.726,262.228333 81.726,253.007 L81.726,208.319 L101.676,208.319 L101.676,252.874 C101.676,256.952667 102.651333,260.078167 104.602,262.2505 C106.552667,264.422833 109.39,265.509 113.114,265.509 C116.749333,265.509 119.5645,264.422833 121.5595,262.2505 C123.5545,260.078167 124.552,256.952667 124.552,252.874 L124.552,208.319 L144.502,208.319 L144.502,253.007 C144.502,262.317 141.709,269.609833 136.123,274.8855 C130.537,280.161167 122.867333,282.799 113.114,282.799 Z" id="Path"></path>
                    <path d="M160.792,281.469 L160.792,208.319 L180.077,208.319 L180.077,222.284 L185.929,222.284 L180.077,226.939 C180.077,220.909667 181.850333,216.077333 185.397,212.442 C188.943667,208.806667 193.731667,206.989 199.761,206.989 C206.854333,206.989 212.551167,209.471667 216.8515,214.437 C221.151833,219.402333 223.302,226.008 223.302,234.254 L223.302,281.469 L203.352,281.469 L203.352,236.249 C203.352,232.436333 202.3545,229.488167 200.3595,227.4045 C198.3645,225.320833 195.593667,224.279 192.047,224.279 C188.500333,224.279 185.7295,225.320833 183.7345,227.4045 C181.7395,229.488167 180.742,232.436333 180.742,236.249 L180.742,281.469 L160.792,281.469 Z" id="Path"></path>
                    <path d="M271.113,282.799 C264.640333,282.799 258.965667,281.579833 254.089,279.1415 C249.212333,276.703167 245.444,273.2895 242.784,268.9005 C240.124,264.5115 238.794,259.391 238.794,253.539 L238.794,236.249 C238.794,230.308333 240.124,225.165667 242.784,220.821 C245.444,216.476333 249.212333,213.084833 254.089,210.6465 C258.965667,208.208167 264.640333,206.989 271.113,206.989 C280.777667,206.989 288.491667,209.427333 294.255,214.304 C300.018333,219.180667 303.077333,225.830667 303.432,234.254 L284.014,234.254 C283.748,231.150667 282.440167,228.712333 280.0905,226.939 C277.740833,225.165667 274.748333,224.279 271.113,224.279 C267.123,224.279 264.064,225.298667 261.936,227.338 C259.808,229.377333 258.744,232.347667 258.744,236.249 L258.744,253.539 C258.744,257.351667 259.808,260.299833 261.936,262.3835 C264.064,264.467167 267.123,265.509 271.113,265.509 C274.748333,265.509 277.740833,264.6445 280.0905,262.9155 C282.440167,261.1865 283.748,258.726 284.014,255.534 L303.432,255.534 C303.077333,263.957333 300.018333,270.607333 294.255,275.484 C288.491667,280.360667 280.777667,282.799 271.113,282.799 Z" id="Path"></path>
                    <path d="M357.494,281.469 C350.046,281.469 344.194,279.341 339.938,275.085 C335.682,270.829 333.554,264.977 333.554,257.529 L333.554,226.274 L314.269,226.274 L314.269,208.319 L333.554,208.319 L333.554,187.704 L353.504,187.704 L353.504,208.319 L380.769,208.319 L380.769,226.274 L353.504,226.274 L353.504,256.864 C353.504,258.814667 354.013833,260.410667 355.0335,261.652 C356.053167,262.893333 357.538333,263.514 359.489,263.514 L379.439,263.514 L379.439,281.469 L357.494,281.469 Z" id="Path"></path>
                    <path d="M397.724,281.469 L397.724,263.514 L421.93,263.514 L421.93,226.274 L400.384,226.274 L400.384,208.319 L441.88,208.319 L441.88,263.514 L462.894,263.514 L462.894,281.469 L397.724,281.469 Z M430.974,196.748 C427.338667,196.748 424.434833,195.817 422.2625,193.955 C420.090167,192.093 419.004,189.566 419.004,186.374 C419.004,183.182 420.090167,180.655 422.2625,178.793 C424.434833,176.931 427.338667,176 430.974,176 C434.609333,176 437.513167,176.931 439.6855,178.793 C441.857833,180.655 442.944,183.182 442.944,186.374 C442.944,189.566 441.857833,192.093 439.6855,193.955 C437.513167,195.817 434.609333,196.748 430.974,196.748 Z" id="Shape"></path>
                    <path d="M507.114,282.799 C500.641333,282.799 495.011,281.579833 490.223,279.1415 C485.435,276.703167 481.733167,273.2895 479.1175,268.9005 C476.501833,264.5115 475.194,259.391 475.194,253.539 L475.194,236.249 C475.194,230.397 476.501833,225.2765 479.1175,220.8875 C481.733167,216.4985 485.435,213.084833 490.223,210.6465 C495.011,208.208167 500.641333,206.989 507.114,206.989 C513.675333,206.989 519.327833,208.208167 524.0715,210.6465 C528.815167,213.084833 532.494833,216.4985 535.1105,220.8875 C537.726167,225.2765 539.034,230.397 539.034,236.249 L539.034,253.539 C539.034,259.391 537.726167,264.5115 535.1105,268.9005 C532.494833,273.2895 528.815167,276.703167 524.0715,279.1415 C519.327833,281.579833 513.675333,282.799 507.114,282.799 Z M507.114,265.509 C511.015333,265.509 513.985667,264.467167 516.025,262.3835 C518.064333,260.299833 519.084,257.351667 519.084,253.539 L519.084,236.249 C519.084,232.347667 518.064333,229.377333 516.025,227.338 C513.985667,225.298667 511.015333,224.279 507.114,224.279 C503.301333,224.279 500.353167,225.298667 498.2695,227.338 C496.185833,229.377333 495.144,232.347667 495.144,236.249 L495.144,253.539 C495.144,257.351667 496.185833,260.299833 498.2695,262.3835 C500.353167,264.467167 503.301333,265.509 507.114,265.509 Z" id="Shape"></path>
                    <path d="M554.792,281.469 L554.792,208.319 L574.077,208.319 L574.077,222.284 L579.929,222.284 L574.077,226.939 C574.077,220.909667 575.850333,216.077333 579.397,212.442 C582.943667,208.806667 587.731667,206.989 593.761,206.989 C600.854333,206.989 606.551167,209.471667 610.8515,214.437 C615.151833,219.402333 617.302,226.008 617.302,234.254 L617.302,281.469 L597.352,281.469 L597.352,236.249 C597.352,232.436333 596.3545,229.488167 594.3595,227.4045 C592.3645,225.320833 589.593667,224.279 586.047,224.279 C582.500333,224.279 579.7295,225.320833 577.7345,227.4045 C575.7395,229.488167 574.742,232.436333 574.742,236.249 L574.742,281.469 L554.792,281.469 Z" id="Path"></path>
                    <path d="M661.655,282.799 C655.625667,282.799 650.35,281.845833 645.828,279.9395 C641.306,278.033167 637.7815,275.395333 635.2545,272.026 C632.7275,268.656667 631.464,264.711 631.464,260.189 L651.414,260.189 C651.414,262.671667 652.2785,264.533667 654.0075,265.775 C655.7365,267.016333 658.285667,267.637 661.655,267.637 L667.507,267.637 C671.142333,267.637 673.913167,267.016333 675.8195,265.775 C677.725833,264.533667 678.679,262.760333 678.679,260.455 C678.679,258.238333 677.792333,256.465 676.019,255.135 C674.245667,253.805 671.674333,252.918333 668.305,252.475 L657.798,251.145 C649.818,250.169667 643.788667,247.775667 639.71,243.963 C635.631333,240.150333 633.592,235.007667 633.592,228.535 C633.592,221.441667 636.030333,216.077333 640.907,212.442 C645.783667,208.806667 652.921333,206.989 662.32,206.989 L667.374,206.989 C676.329333,206.989 683.467,208.939667 688.787,212.841 C694.107,216.742333 696.767,221.973667 696.767,228.535 L676.817,228.535 C676.817,226.407 676.019,224.811 674.423,223.747 C672.827,222.683 670.477333,222.151 667.374,222.151 L662.32,222.151 C659.216667,222.151 656.867,222.705167 655.271,223.8135 C653.675,224.921833 652.877,226.495667 652.877,228.535 C652.877,232.525 655.758667,234.919 661.522,235.717 L672.295,237.18 C680.718333,238.244 687.102333,240.7045 691.447,244.5615 C695.791667,248.4185 697.964,253.627667 697.964,260.189 C697.964,267.371 695.392667,272.934833 690.25,276.8805 C685.107333,280.826167 677.526333,282.799 667.507,282.799 L661.655,282.799 Z" id="Path"></path>
                </g>
            </g>
            <g id="Icon" transform="translate(138.000000, 133.000000)">
                <path d="M94.639107,0 C42.4595236,0 0,42.4581382 0,94.6209159 L0,283.935421 C0,336.078668 42.4581609,378.52 94.639107,378.52 L283.935399,378.52 C336.078645,378.52 378.519978,336.079576 378.519978,283.917253 L378.519978,94.6209159 C378.519978,42.4595009 336.079553,0 283.91723,0 L94.639107,0 Z" id="Path" fill="#000000" fill-rule="nonzero"></path>
                <g id="Elements" transform="translate(69.124254, 39.737205)">
                    <g id="pyramid" transform="translate(-0.000000, 0.000000)" fill="#FCC201" fill-rule="nonzero">
                        <path d="M6.01664718,202.501949 L114.234405,262.695495 C117.761303,264.621458 122.23844,264.621458 125.765338,262.695495 L233.983096,202.501949 C239.748562,199.300335 241.987131,191.934061 238.785517,186.168594 L238.785517,185.843439 L130.244396,5.92873517 C126.717498,0.163268528 119.364031,-1.75001605 113.911042,1.76407557 C112.310235,2.72705705 110.709428,4.32786409 109.746382,5.92873517 L1.54143102,185.856245 C-1.66018307,191.621712 0.265779902,198.975499 6.01856815,202.502077 L6.01664718,202.501949 Z M132.166645,55.2277011 L211.569876,187.768121 L132.166645,231.953597 L132.166645,55.2277011 Z M107.829256,55.2277011 L107.829256,231.953597 L28.7525894,187.768121 L107.829256,55.2277011 Z" id="Shape"></path>
                    </g>
                    <g id="ferris" transform="translate(21.237081, 155.996015)">
                        <g id="Group" transform="translate(47.514705, 60.968677)" fill="#A52B00" fill-rule="nonzero">
                            <path d="M52.7103035,0 C32.2894171,0 13.735816,2.45512826 0,6.45599692 L0,40.6319011 C13.735816,44.6329382 32.2894171,47.087898 52.7103035,47.087898 C76.0825316,47.087898 97.0068743,43.8721112 111.061877,38.8031876 L111.061877,8.2852157 C97.0068743,3.2161237 76.0825316,0 52.7103035,0" id="Path"></path>
                        </g>
                        <g id="Group" transform="translate(161.574413, 68.261634)" fill="#A52B00" fill-rule="nonzero">
                            <path d="M18.0525029,20.4756282 L15.6588539,15.5166936 C15.6711497,15.3283817 15.680919,15.1399015 15.680919,14.9507474 C15.680919,9.32918421 9.83516701,4.14808203 0,0 L0,29.9018318 C4.5890484,27.9661612 8.31199708,25.805965 10.9746389,23.4801959 C10.191073,26.6311347 7.51091379,33.0057769 5.37413024,37.4887104 C1.8622323,43.9004085 0.590537849,49.4818839 0.753584237,49.758288 C0.857509466,49.9322827 2.05559724,48.0840306 3.82232613,45.0890639 C7.93385747,39.2306791 15.7247125,28.0463369 17.2819066,25.1974045 C19.045772,21.9678059 18.0525029,20.4756282 18.0525029,20.4756282" id="Path"></path>
                        </g>
                        <g id="Group" transform="translate(23.598076, 65.986396)" fill="#A52B00" fill-rule="nonzero">
                            <path d="M1.12028525,17.5537628 C1.12028525,18.6364717 1.33807345,19.7030107 1.75832215,20.748832 L0.324760362,23.3006427 C0.324760362,23.3006427 -0.823638684,24.7906307 1.19860815,27.9339899 C2.98234912,30.70561 11.9170554,41.5549323 16.6327679,47.2364589 C18.6583835,50.1492287 20.0316451,51.9434127 20.1519086,51.7700917 C20.3412311,51.4950352 18.8926785,46.0264122 14.8699131,39.7873612 C12.9928584,36.43632 10.7509705,31.9968431 9.40550095,28.7175558 C13.1621369,31.0952033 18.0771096,33.2518624 23.9166295,35.108031 L23.9166295,0 C9.84478296,4.47164826 1.12028525,10.6844231 1.12028525,17.5537628" id="Path"></path>
                        </g>
                        <g id="Group" transform="translate(98.848960, 71.524777) scale(-1, 1) rotate(-84.999991) translate(-98.848960, -71.524777) translate(35.245341, -22.137166)" fill="url(#linearGradient-1)" fill-rule="nonzero">
                            <path d="M126.043113,89.4013132 L118.6665,94.7429981 C118.6665,95.506096 118.6665,96.2691938 118.6665,97.0322917 L125.91593,102.50116 C126.679028,103.009891 127.060576,103.900172 126.933394,104.790453 C126.806211,105.680734 126.170296,106.443832 125.407198,106.825381 L117.013122,110.64087 C116.885939,111.403968 116.758756,112.167066 116.50439,112.80298 L122.609172,119.543678 C123.117904,120.179593 123.37227,121.197057 123.117904,121.960155 C122.736355,122.850435 122.10044,123.48635 121.21016,123.740716 L112.180169,126.03001 C111.925803,126.665925 111.544254,127.30184 111.289888,128.064937 L115.741292,135.695916 C116.250024,136.459014 116.250024,137.476477 115.741292,138.239575 C115.359743,139.002673 114.469462,139.511405 113.579181,139.638588 L104.294824,140.14732 C103.913275,140.656052 103.404543,141.291967 103.022994,141.927882 L105.82102,150.321958 C106.202569,151.212239 105.948203,152.102519 105.312288,152.865617 C104.803556,153.501532 103.786092,153.883081 102.895811,153.755898 L93.7386373,152.484068 C93.2299054,152.9928 92.7211735,153.501532 92.0852586,154.010264 L93.2299054,162.913072 C93.3570884,163.803353 92.9755394,164.693634 92.2124416,165.202366 C91.4493437,165.711098 90.43188,165.965464 89.5415991,165.583915 L80.8931569,162.658706 C80.257242,163.167438 79.6213272,163.548987 78.9854123,163.930536 L78.2223144,172.706161 C78.2223144,173.723625 77.5863996,174.486723 76.8233017,174.868272 C75.9330209,175.249821 74.9155571,175.249821 74.1524593,174.868272 L66.2671149,170.289685 C66.1399319,170.416868 66.0127489,170.416868 65.885566,170.416868 L51.6410729,186.441922 C51.6410729,186.441922 50.1148772,188.731216 45.6634731,185.933191 C41.8479839,183.389531 26.204478,169.908136 17.9375847,162.785889 C13.8677296,159.860681 11.3240701,157.825753 11.451253,157.571387 C11.832802,157.189838 18.9550485,158.461668 27.6034908,164.184902 C35.3616522,168.509123 47.1896688,173.977991 48.3343155,172.451795 C48.3343155,172.451795 50.3692431,170.544051 51.6410729,166.855744 C51.6410729,166.855744 51.6410729,166.855744 51.6410729,166.855744 C51.7682558,166.982927 51.7682558,166.982927 51.6410729,166.855744 C51.6410729,166.855744 11.578436,96.7779257 38.7955925,26.1913751 C39.5586903,18.3060307 34.9801033,13.9818096 34.9801033,13.9818096 C33.8354565,12.4556139 22.6433548,17.6701158 15.2667423,21.739971 C6.99984895,27.2088389 0.259151328,28.4806686 0.00478537984,28.0991197 C-0.122397594,27.8447538 2.29407891,25.9370092 6.23675111,23.1389837 C13.9949125,16.3982861 28.8753205,3.80717167 32.5636267,1.39069516 C36.7606649,-1.40733027 38.2868606,0.881963264 38.2868606,0.881963264 L51.132341,15.5080053 C51.6410729,15.6351883 52.1498048,15.7623712 52.7857196,15.7623712 L59.7807832,10.0391374 C60.4166981,9.40322253 61.4341619,9.27603955 62.3244427,9.5304055 C63.2147235,9.78477145 63.8506384,10.4206863 64.1050043,11.3109671 L66.3942979,19.9594094 C67.0302127,20.2137753 67.7933106,20.4681413 68.4292254,20.7225072 L76.5689358,16.3982861 C77.3320336,15.8895542 78.3494974,15.8895542 79.2397782,16.3982861 C80.0028761,16.779835 80.511608,17.5429329 80.511608,18.4332137 L81.0203399,27.3360219 C81.6562547,27.7175708 82.2921696,28.2263027 82.9280845,28.6078516 L91.7037097,25.8098262 C92.5939905,25.5554602 93.6114543,25.6826432 94.2473692,26.1913751 C95.010467,26.82729 95.3920159,27.7175708 95.264833,28.6078516 L93.8658203,37.3834768 C94.3745521,37.8922087 94.883284,38.4009406 95.5191989,38.9096725 L104.676373,37.8922087 C105.566654,37.7650257 106.456935,38.1465747 107.09285,38.7824895 C107.728764,39.5455874 107.855947,40.4358682 107.474398,41.326149 L104.422007,49.5930423 C104.803556,50.2289572 105.312288,50.8648721 105.693837,51.5007869 L114.851011,52.1367018 C115.868475,52.1367018 116.631573,52.7726167 117.013122,53.5357145 C117.521853,54.2988124 117.521853,55.3162762 117.013122,56.079374 L112.307351,63.7103525 C112.561717,64.3462673 112.816083,64.9821822 113.070449,65.74528 L121.973258,68.0345736 C122.863538,68.2889395 123.626636,68.9248544 123.881002,69.8151352 C124.135368,70.705416 123.881002,71.5956969 123.245087,72.3587947 L117.013122,78.9723093 C117.140305,79.6082242 117.39467,80.3713221 117.521853,81.1344199 L125.661564,85.0770921 C126.551845,85.458641 127.060576,86.2217389 127.187759,87.1120197 C127.314942,88.0023005 126.806211,88.8925813 126.043113,89.4013132 Z" id="Shape"></path>
                        </g>
                        <g id="Group" transform="translate(62.099609, 95.160769)" fill="#000000">
                            <path d="M13.3625611,15.2436408 C13.082283,15.0044612 12.9354065,14.8626378 12.9354065,14.8626378 L36.9446609,12.8958065 C17.360061,-12.9408139 1.67004643,7.64092919 0,9.94210663 L0,15.2436408 L13.3625611,15.2436408 Z" id="Path"></path>
                        </g>
                        <g id="Group" transform="translate(102.806801, 94.606156)" fill="#000000">
                            <path d="M22.6459306,15.5199966 C22.9260403,15.280817 23.0730852,15.1386567 23.0730852,15.1386567 L0,13.4504192 C19.5938639,-13.4466765 34.3389506,7.91694813 36.0088286,10.2181256 L36.0088286,15.5199966 L22.6459306,15.5199966 Z" id="Path"></path>
                        </g>
                        <g id="Group" transform="translate(135.953895, 106.979426) scale(-1, 1) rotate(-89.999997) translate(-135.953895, -106.979426) translate(113.449786, 73.853504)" fill="url(#linearGradient-2)" fill-rule="nonzero">
                            <path d="M45.008217,6.7512069 C45.008217,6.7512069 34.5663503,9.36167356 23.5843871,25.6995942 L22.504194,30.2454069 C22.504194,30.2454069 49.5090216,45.053054 19.0835825,66.0268034 C19.0835825,66.0268034 22.8642584,59.5006368 18.2284297,41.9925069 C18.2284297,41.9925069 5.89622506,50.0489471 6.30129747,66.2518437 C6.30129747,66.2518437 -12.3770416,50.7240678 14.5827779,27.0498356 C14.5827779,27.0498356 24.2595078,2.02536207 45.008217,0 L45.008217,6.7512069 Z" id="Path"></path>
                        </g>
                        <g id="Group" transform="translate(110.917573, 67.524856)" fill="#000000">
                            <path d="M2.79042889,3.5644875 C2.79042889,3.5644875 10.1150521,-4.45560938 17.4400121,3.5644875 C17.4400121,3.5644875 23.1954823,14.2588483 17.4400121,19.605355 C17.4400121,19.605355 8.02239885,27.0913402 2.79042889,19.605355 C2.79042889,19.605355 -3.48803612,13.7233892 2.79042889,3.5644875" id="Path"></path>
                        </g>
                        <g id="Group" transform="translate(113.966046, 68.409522)" fill="#FFFFFF" fill-rule="nonzero">
                            <path d="M8.22205207,5.65508207 C8.22205207,8.77806047 6.38104275,11.3098273 4.1108576,11.3098273 C1.84084089,11.3098273 0,8.77806047 0,5.65508207 C0,2.53210367 1.84084089,0 4.1108576,0 C6.38104275,0 8.22205207,2.53210367 8.22205207,5.65508207" id="Path"></path>
                        </g>
                        <g id="Group" transform="translate(76.813197, 67.656871)" fill="#000000">
                            <path d="M4.2026563,1.24246351 C4.2026563,1.24246351 16.7673344,-4.32065231 20.1966985,8.0963071 C20.1966985,8.0963071 23.7889406,22.5693691 9.87845604,23.3862854 C9.87845604,23.3862854 -7.85957616,19.9698908 4.2026563,1.24246351" id="Path"></path>
                        </g>
                        <g id="Group" transform="translate(78.846730, 68.437145)" fill="#FFFFFF" fill-rule="nonzero">
                            <path d="M8.47975969,5.83244555 C8.47975969,9.05278016 6.58148201,11.6648911 4.23971141,11.6648911 C1.89878299,11.6648911 0,9.05278016 0,5.83244555 C0,2.61126876 1.89878299,0 4.23971141,0 C6.58148201,0 8.47975969,2.61126876 8.47975969,5.83244555" id="Path"></path>
                        </g>
                        <g id="Group" transform="translate(67.349095, 111.231618) scale(-1, 1) rotate(-89.999996) translate(-67.349095, -111.231618) translate(47.219182, 80.231553)" fill="url(#linearGradient-3)" fill-rule="nonzero">
                            <path d="M14.7741102,36.1935829 C-14.655822,13.2454825 8.97669539,2.37532969 8.97669539,2.37532969 C10.4260491,15.2584738 19.0013919,24.3974541 19.0013919,24.3974541 C20.9741233,8.9376812 21.1351626,-3.45773779e-15 21.1351626,-3.45773779e-15 C48.4313241,20.6935502 23.7117914,37.4818973 23.7117914,37.4818973 C25.2416648,41.6689191 31.0793394,45.9767204 36.474156,49.1572466 L40.2585796,62.0001308 C15.1364486,47.224775 14.7741102,36.1935829 14.7741102,36.1935829 Z" id="Path"></path>
                        </g>
                    </g>
                </g>
            </g>
        </g>
    </g>
</svg>