<svg height="640" viewBox="0 0 1372 640" width="1372" xmlns="http://www.w3.org/2000/svg" xmlns:xlink="http://www.w3.org/1999/xlink"><linearGradient id="a" x1=".003762%" x2="99.984689%" y1="49.989781%" y2="49.989781%"><stop offset="0" stop-color="#f74c00"/><stop offset=".33" stop-color="#f74c00"/><stop offset="1" stop-color="#f49600"/></linearGradient><linearGradient id="b"><stop offset="0" stop-color="#cc3a00"/><stop offset=".15" stop-color="#cc3a00"/><stop offset=".74" stop-color="#f74c00"/><stop offset="1" stop-color="#f74c00"/></linearGradient><linearGradient id="c" x1=".00038%" x2="100%" xlink:href="#b" y1="50.000084%" y2="50.000084%"/><linearGradient id="d" x1="-.003094%" x2="99.996906%" xlink:href="#b" y1="49.999941%" y2="49.999941%"/><g fill="none" fill-rule="evenodd"><path d="m0 0h1372v640h-1372z" fill="#272727" fill-rule="nonzero"/><g fill="#fcc201" fill-rule="nonzero" transform="translate(581.586 177.531)"><path d="m0 105.469v-97.09h22.477l8.645 30.59c.9753333 3.192 1.7068333 5.985 2.1945 8.379s.7758333 4.0786667.8645 5.054c.0886667-.9753333.3768333-2.66.8645-5.054s1.1748333-5.187 2.0615-8.379l8.911-30.59h22.61v97.09h-18.221v-37.24c0-6.4726667.1773333-12.4798333.532-18.0215s.798-10.773 1.33-15.694 1.0196667-9.6425 1.463-14.1645l-11.305 43.89h-16.625l-11.305-42.294c.532 3.8126667 1.0861667 8.0021667 1.6625 12.5685s1.064 9.6203333 1.463 15.162.5985 11.7261667.5985 18.5535v37.24z"/><path d="m82.524 105.469v-17.955h24.206v-37.24h-21.546v-17.955h41.496v55.195h21.014v17.955zm33.25-84.721c-3.635333 0-6.539167-.931-8.7115-2.793s-3.2585-4.389-3.2585-7.581 1.086167-5.719 3.2585-7.581 5.076167-2.793 8.7115-2.793 6.539167.931 8.7115 2.793 3.2585 4.389 3.2585 7.581-1.086167 5.719-3.2585 7.581-5.076167 2.793-8.7115 2.793z"/><path d="m160.792 105.469v-73.15h19.285v13.965h5.852l-5.852 4.655c0-6.0293333 1.773333-10.8616667 5.32-14.497s8.334667-5.453 14.364-5.453c7.093333 0 12.790167 2.4826667 17.0905 7.448s6.4505 11.571 6.4505 19.817v47.215h-19.95v-45.22c0-3.8126667-.9975-6.7608333-2.9925-8.8445s-4.765833-3.1255-8.3125-3.1255-6.3175 1.0418333-8.3125 3.1255-2.9925 5.0318333-2.9925 8.8445v45.22z"/><path d="m240.124 105.469v-17.955h24.206v-37.24h-21.546v-17.955h41.496v55.195h21.014v17.955zm33.25-84.721c-3.635333 0-6.539167-.931-8.7115-2.793s-3.2585-4.389-3.2585-7.581 1.086167-5.719 3.2585-7.581 5.076167-2.793 8.7115-2.793 6.539167.931 8.7115 2.793 3.2585 4.389 3.2585 7.581-1.086167 5.719-3.2585 7.581-5.076167 2.793-8.7115 2.793z"/><path d="m3.724 281.469v-97.09h62.51v18.62h-42.826v21.546h39.368v18.62h-39.102v38.304z"/><path d="m113.114 282.799c-9.842 0-17.5338333-2.66-23.0755-7.98s-8.3125-12.590667-8.3125-21.812v-44.688h19.95v44.555c0 4.078667.975333 7.204167 2.926 9.3765s4.788 3.2585 8.512 3.2585c3.635333 0 6.4505-1.086167 8.4455-3.2585s2.9925-5.297833 2.9925-9.3765v-44.555h19.95v44.688c0 9.31-2.793 16.602833-8.379 21.8785s-13.255667 7.9135-23.009 7.9135z"/><path d="m160.792 281.469v-73.15h19.285v13.965h5.852l-5.852 4.655c0-6.029333 1.773333-10.861667 5.32-14.497s8.334667-5.453 14.364-5.453c7.093333 0 12.790167 2.482667 17.0905 7.448s6.4505 11.571 6.4505 19.817v47.215h-19.95v-45.22c0-3.812667-.9975-6.760833-2.9925-8.8445s-4.765833-3.1255-8.3125-3.1255-6.3175 1.041833-8.3125 3.1255-2.9925 5.031833-2.9925 8.8445v45.22z"/><path d="m271.113 282.799c-6.472667 0-12.147333-1.219167-17.024-3.6575s-8.645-5.852-11.305-10.241-3.99-9.5095-3.99-15.3615v-17.29c0-5.940667 1.33-11.083333 3.99-15.428s6.428333-7.736167 11.305-10.1745 10.551333-3.6575 17.024-3.6575c9.664667 0 17.378667 2.438333 23.142 7.315s8.822333 11.526667 9.177 19.95h-19.418c-.266-3.103333-1.573833-5.541667-3.9235-7.315s-5.342167-2.66-8.9775-2.66c-3.99 0-7.049 1.019667-9.177 3.059s-3.192 5.009667-3.192 8.911v17.29c0 3.812667 1.064 6.760833 3.192 8.8445s5.187 3.1255 9.177 3.1255c3.635333 0 6.627833-.8645 8.9775-2.5935s3.6575-4.1895 3.9235-7.3815h19.418c-.354667 8.423333-3.413667 15.073333-9.177 19.95s-13.477333 7.315-23.142 7.315z"/><path d="m357.494 281.469c-7.448 0-13.3-2.128-17.556-6.384s-6.384-10.108-6.384-17.556v-31.255h-19.285v-17.955h19.285v-20.615h19.95v20.615h27.265v17.955h-27.265v30.59c0 1.950667.509833 3.546667 1.5295 4.788s2.504833 1.862 4.4555 1.862h19.95v17.955z"/><path d="m397.724 281.469v-17.955h24.206v-37.24h-21.546v-17.955h41.496v55.195h21.014v17.955zm33.25-84.721c-3.635333 0-6.539167-.931-8.7115-2.793s-3.2585-4.389-3.2585-7.581 1.086167-5.719 3.2585-7.581 5.076167-2.793 8.7115-2.793 6.539167.931 8.7115 2.793 3.2585 4.389 3.2585 7.581-1.086167 5.719-3.2585 7.581-5.076167 2.793-8.7115 2.793z"/><path d="m507.114 282.799c-6.472667 0-12.103-1.219167-16.891-3.6575s-8.489833-5.852-11.1055-10.241-3.9235-9.5095-3.9235-15.3615v-17.29c0-5.852 1.307833-10.9725 3.9235-15.3615s6.3175-7.802667 11.1055-10.241 10.418333-3.6575 16.891-3.6575c6.561333 0 12.213833 1.219167 16.9575 3.6575s8.423333 5.852 11.039 10.241 3.9235 9.5095 3.9235 15.3615v17.29c0 5.852-1.307833 10.9725-3.9235 15.3615s-6.295333 7.802667-11.039 10.241-10.396167 3.6575-16.9575 3.6575zm0-17.29c3.901333 0 6.871667-1.041833 8.911-3.1255s3.059-5.031833 3.059-8.8445v-17.29c0-3.901333-1.019667-6.871667-3.059-8.911s-5.009667-3.059-8.911-3.059c-3.812667 0-6.760833 1.019667-8.8445 3.059s-3.1255 5.009667-3.1255 8.911v17.29c0 3.812667 1.041833 6.760833 3.1255 8.8445s5.031833 3.1255 8.8445 3.1255z"/><path d="m554.792 281.469v-73.15h19.285v13.965h5.852l-5.852 4.655c0-6.029333 1.773333-10.861667 5.32-14.497s8.334667-5.453 14.364-5.453c7.093333 0 12.790167 2.482667 17.0905 7.448s6.4505 11.571 6.4505 19.817v47.215h-19.95v-45.22c0-3.812667-.9975-6.760833-2.9925-8.8445s-4.765833-3.1255-8.3125-3.1255-6.3175 1.041833-8.3125 3.1255-2.9925 5.031833-2.9925 8.8445v45.22z"/><path d="m661.655 282.799c-6.029333 0-11.305-.953167-15.827-2.8595s-8.0465-4.544167-10.5735-7.9135-3.7905-7.315-3.7905-11.837h19.95c0 2.482667.8645 4.344667 2.5935 5.586s4.278167 1.862 7.6475 1.862h5.852c3.635333 0 6.406167-.620667 8.3125-1.862s2.8595-3.014667 2.8595-5.32c0-2.216667-.886667-3.99-2.66-5.32s-4.344667-2.216667-7.714-2.66l-10.507-1.33c-7.98-.975333-14.009333-3.369333-18.088-7.182s-6.118-8.955333-6.118-15.428c0-7.093333 2.438333-12.457667 7.315-16.093s12.014333-5.453 21.413-5.453h5.054c8.955333 0 16.093 1.950667 21.413 5.852s7.98 9.132667 7.98 15.694h-19.95c0-2.128-.798-3.724-2.394-4.788s-3.945667-1.596-7.049-1.596h-5.054c-3.103333 0-5.453.554167-7.049 1.6625s-2.394 2.682167-2.394 4.7215c0 3.99 2.881667 6.384 8.645 7.182l10.773 1.463c8.423333 1.064 14.807333 3.5245 19.152 7.3815s6.517 9.066167 6.517 15.6275c0 7.182-2.571333 12.745833-7.714 16.6915s-12.723667 5.9185-22.743 5.9185z"/></g><g transform="translate(138 133)"><g fill-rule="nonzero"><path d="m94.639107 0c-52.1795834 0-94.639107 42.4581382-94.639107 94.6209159v189.3145051c0 52.143247 42.4581609 94.584579 94.639107 94.584579h189.296292c52.143246 0 94.584579-42.440424 94.584579-94.602747v-189.2963371c0-52.161415-42.440425-94.6209159-94.602748-94.6209159z" fill="#000"/><path d="m6.01664718 202.501949 108.21775782 60.193546c3.526898 1.925963 8.004035 1.925963 11.530933 0l108.217758-60.193546c5.765466-3.201614 8.004035-10.567888 4.802421-16.333355v-.325155l-108.541121-179.91470383c-3.526898-5.76546664-10.880365-7.67875122-16.333354-4.1646596-1.600807.96298148-3.201614 2.56378852-4.16466 4.1646596l-108.20495098 179.92750983c-3.20161409 5.765467-1.27565112 13.119254 4.47713713 16.645832zm126.14999782-147.2742479 79.403231 132.5404199-79.403231 44.185476zm-24.337389 0v176.7258959l-79.0766666-44.185476z" fill="#fcc201" transform="translate(69.124254 39.737205)"/><g fill="#a52b00"><path d="m52.7103035 0c-20.4208864 0-38.9744875 2.45512826-52.7103035 6.45599692v34.17590418c13.735816 4.0010371 32.2894171 6.4559969 52.7103035 6.4559969 23.3722281 0 44.2965708-3.2157868 58.3515735-8.2847104v-30.5179719c-14.0550027-5.069092-34.9793454-8.2852157-58.3515735-8.2852157" transform="translate(137.87604 256.701897)"/><path d="m18.0525029 20.4756282-2.393649-4.9589346c.0122958-.1883119.0220651-.3767921.0220651-.5659462 0-5.62156319-5.84575199-10.80266537-15.680919-14.9507474v29.9018318c4.5890484-1.9356706 8.31199708-4.0958668 10.9746389-6.4216359-.7835659 3.1509388-3.46372511 9.525581-5.60050866 14.0085145-3.51189794 6.4116981-4.78359239 11.9931735-4.620546 12.2695776.10392523.1739947 1.302013-1.6742574 3.06874189-4.6692241 4.11153134-5.8583848 11.90238637-17.042727 13.45958047-19.8916594 1.7638654-3.2295986.7705963-4.7217763.7705963-4.7217763" transform="translate(251.935748 263.994854)"/><path d="m1.12028525 17.5537628c0 1.0827089.2177882 2.1492479.6380369 3.1950692l-1.43356179 2.5518107s-1.14839904 1.489988.87384779 4.6333472c1.78374097 2.7716201 10.71844725 13.6209424 15.43415975 19.302469 2.0256156 2.9127698 3.3988772 4.7069538 3.5191407 4.5336328.1893225-.2750565-1.2592301-5.7436795-5.2819955-11.9827305-1.8770547-3.3510412-4.1189426-7.7905181-5.46441215-11.0698054 3.75663595 2.3776475 8.67160865 4.5343066 14.51112855 6.3904752v-35.108031c-14.07184654 4.47164826-22.79634425 10.6844231-22.79634425 17.5537628" transform="translate(113.959411 261.719616)"/></g><path d="m126.043113 89.4013132-7.376613 5.3416849v2.2892936l7.24943 5.4688683c.763098.508731 1.144646 1.399012 1.017464 2.289293-.127183.890281-.763098 1.653379-1.526196 2.034928l-8.394076 3.815489c-.127183.763098-.254366 1.526196-.508732 2.16211l6.104782 6.740698c.508732.635915.763098 1.653379.508732 2.416477-.381549.89028-1.017464 1.526195-1.907744 1.780561l-9.029991 2.289294c-.254366.635915-.635915 1.27183-.890281 2.034927l4.451404 7.630979c.508732.763098.508732 1.780561 0 2.543659-.381549.763098-1.27183 1.27183-2.162111 1.399013l-9.284357.508732c-.381549.508732-.890281 1.144647-1.27183 1.780562l2.798026 8.394076c.381549.890281.127183 1.780561-.508732 2.543659-.508732.635915-1.526196 1.017464-2.416477.890281l-9.1571737-1.27183c-.5087319.508732-1.0174638 1.017464-1.6533787 1.526196l1.1446468 8.902808c.127183.890281-.254366 1.780562-1.0174638 2.289294-.7630979.508732-1.7805616.763098-2.6708425.381549l-8.6484422-2.925209c-.6359149.508732-1.2718297.890281-1.9077446 1.27183l-.7630979 8.775625c0 1.017464-.6359148 1.780562-1.3990127 2.162111-.8902808.381549-1.9077446.381549-2.6708424 0l-7.8853444-4.578587c-.127183.127183-.254366.127183-.3815489.127183l-14.2444931 16.025054s-1.5261957 2.289294-5.9775998-.508731c-3.8154892-2.54366-19.4589951-16.025055-27.7258884-23.147302-4.0698551-2.925208-6.6135146-4.960136-6.4863317-5.214502.381549-.381549 7.5037955.890281 16.1522378 6.613515 7.7581614 4.324221 19.586178 9.793089 20.7308247 8.266893 0 0 2.0349276-1.907744 3.3067574-5.596051.1271829.127183.1271829.127183 0 0 0 0-40.0626369-70.0778183-12.8454804-140.6643689.7630978-7.8853444-3.8154892-12.2095655-3.8154892-12.2095655-1.1446468-1.5261957-12.3367485 3.6883062-19.713361 7.7581614-8.26689335 5.4688679-15.00759097 6.7406976-15.26195692 6.3591487-.12718297-.2543659 2.28929353-2.1621105 6.23196573-4.960136 7.75816139-6.7406976 22.63856939-19.33181203 26.32687559-21.74828854 4.1970382-2.79802543 5.7232339-.5087319 5.7232339-.5087319l12.8454804 14.62604204c.5087319.127183 1.0174638.2543659 1.6533786.2543659l6.9950636-5.7232338c.6359149-.63591487 1.6533787-.76309785 2.5436595-.5087319s1.5261957.8902808 1.7805616 1.7805616l2.2892936 8.6484423c.6359148.2543659 1.3990127.5087319 2.0349275.7630978l8.1397104-4.3242211c.7630978-.5087319 1.7805616-.5087319 2.6708424 0 .7630979.3815489 1.2718298 1.1446468 1.2718298 2.0349276l.5087319 8.9028082c.6359148.3815489 1.2718297.8902808 1.9077446 1.2718297l8.7756252-2.7980254c.8902808-.254366 1.9077446-.127183 2.5436595.3815489.7630978.6359149 1.1446467 1.5261957 1.0174638 2.4164765l-1.3990127 8.7756252c.5087318.5087319 1.0174637 1.0174638 1.6533786 1.5261957l9.1571741-1.0174638c.890281-.127183 1.780562.254366 2.416477.8902808.635914.7630979.763097 1.6533787.381548 2.5436595l-3.052391 8.2668933c.381549.6359149.890281 1.2718298 1.27183 1.9077446l9.157174.6359149c1.017464 0 1.780562.6359149 2.162111 1.3990127.508731.7630979.508731 1.7805617 0 2.5436595l-4.705771 7.6309785c.254366.6359148.508732 1.2718297.763098 2.0349275l8.902809 2.2892936c.89028.2543659 1.653378.8902808 1.907744 1.7805616s0 1.7805617-.635915 2.5436595l-6.231965 6.6135146c.127183.6359149.381548 1.3990128.508731 2.1621106l8.139711 3.9426722c.890281.3815489 1.399012 1.1446468 1.526195 2.0349276s-.381548 1.7805616-1.144646 2.2892935z" fill="url(#a)" transform="matrix(-.0871559 -.99619468 -.99619468 .0871559 288.059255 322.456393)"/></g><path d="m13.3625611 15.2436408c-.2802781-.2391796-.4271546-.381003-.4271546-.381003l24.0092544-1.9668313c-19.5845999-25.8366204-35.27461447-5.25487731-36.9446609-2.95369987v5.30153417z" fill="#000" transform="translate(152.460944 290.893989)"/><path d="m22.6459306 15.5199966c.2801097-.2391796.4271546-.3813399.4271546-.3813399l-23.0730852-1.6882375c19.5938639-26.8970957 34.3389506-5.53347107 36.0088286-3.2322936v5.301871z" fill="#000" transform="translate(193.168136 290.339376)"/><path d="m45.008217 6.7512069s-10.4418667 2.61046666-21.4238299 18.9483873l-1.0801931 4.5458127s27.0048276 14.8076471-3.4206115 35.7813965c0 0 3.7806759-6.5261666-.8551528-24.0342965 0 0-12.33220464 8.0564402-11.92713223 24.2593368 0 0-18.67833907-15.5277759 8.28148043-39.2020081 0 0 9.6767299-25.02447353 30.4254391-27.0498356z" fill="url(#c)" fill-rule="nonzero" transform="matrix(-.00000005 -1 -1 .00000005 259.441153 325.216753)"/><path d="m2.79042889 3.5644875s7.32462321-8.02009688 14.64958321 0c0 0 5.7554702 10.6943608 0 16.0408675 0 0-9.41761325 7.4859852-14.64958321 0 0 0-6.27846501-5.8819658 0-16.0408675" fill="#000" transform="translate(201.278908 263.258076)"/><path d="m8.22205207 5.65508207c0 3.1229784-1.84100932 5.65474523-4.11119447 5.65474523-2.27001671 0-4.1108576-2.53176683-4.1108576-5.65474523s1.84084089-5.65508207 4.1108576-5.65508207c2.27018515 0 4.11119447 2.53210367 4.11119447 5.65508207" fill="#fff" fill-rule="nonzero" transform="translate(204.327381 264.142742)"/><path d="m4.2026563 1.24246351s12.5646781-5.56311582 15.9940422 6.85384359c0 0 3.5922421 14.473062-10.31824246 15.2899783 0 0-17.7380322-3.4163946-5.67579974-22.14382189" fill="#000" transform="translate(167.174532 263.390091)"/><g fill-rule="nonzero"><path d="m8.47975969 5.83244555c0 3.22033461-1.89827768 5.83244555-4.24004828 5.83244555-2.34092842 0-4.23971141-2.61211094-4.23971141-5.83244555 0-3.22117679 1.89878299-5.83244555 4.23971141-5.83244555 2.3417706 0 4.24004828 2.61126876 4.24004828 5.83244555" fill="#fff" transform="translate(169.208065 264.170365)"/><path d="m14.7741102 36.1935829c-29.4299322-22.9481004-5.79741481-33.81825321-5.79741481-33.81825321 1.44935371 12.88314411 10.02469651 22.02212441 10.02469651 22.02212441 1.9727314-15.4597729 2.1337707-24.3974541 2.1337707-24.3974541 27.2961615 20.6935502 2.5766288 37.4818973 2.5766288 37.4818973 1.5298734 4.1870218 7.367548 8.4948231 12.7623646 11.6753493l3.7844236 12.8428842c-25.122131-14.7753558-25.4844694-25.8065479-25.4844694-25.8065479z" fill="url(#d)" transform="matrix(-.00000007 -1 -1 .00000007 188.710496 327.094749)"/></g></g></g></svg>