<svg height="256" viewBox="0 0 291 256" width="291" xmlns="http://www.w3.org/2000/svg"><g fill="none" fill-rule="evenodd"><g stroke="#fff" stroke-width="6"><path d="m229.867499 167.626812c-.252093-.284306-.421731-.496428-.6125-.687492-2.381361-2.385646-4.753043-4.781045-7.153539-7.147333-1.857153-1.830555-4.103823-2.490488-6.640857-1.916556-2.613579.591221-4.372392 2.226574-5.12601 4.791315-.774306 2.6353-.215372 5.049909 1.728077 7.018479 4.321633 4.377489 8.678213 8.720696 13.04654 13.051712 2.011201 1.993986 4.460757 2.465589 7.16078 1.829298 1.288318-.303663 2.296764-1.077674 3.215292-1.997163 6.103423-6.109777 12.211723-12.214678 18.318397-18.321205 2.38343-2.383429 4.764125-4.76974 7.151692-7.14918.955914-.952736 1.525856-2.094986 1.758222-3.418251.361441-2.057822-.081864-3.965585-1.117941-5.740578-1.433058-2.455098-3.686451-3.366163-6.417284-3.215809-1.819176.100113-3.32693.917198-4.614214 2.208176-6.653861 6.672849-13.32235 13.330921-19.985964 19.993943-.20525.20525-.413308.407693-.710691.700644z" fill="#000"/><path d="m287.360983 165.316602c-.03975.262288-.105729.523543-.115481.787014-.363363 9.825191-3.493096 18.719736-9.248451 26.641893-7.520005 10.35132-17.627359 16.822686-30.138979 19.490274-4.794048 1.021663-9.649051 1.241845-14.537227.816938-15.839732-1.376684-30.043964-10.240199-38.204987-23.880103-3.375842-5.642239-5.525797-11.721871-6.451049-18.235574-2.230341-15.702381 3.042402-31.77965 14.911156-43.011226 7.254169-6.864726 15.823772-11.167075 25.674896-12.849935 26.577614-4.540182 50.584871 12.537405 56.651796 37.093104.768691 3.111411 1.300509 6.258655 1.341663 9.47498.003103.24005.076174.479213.116663.718745z" fill="#2a2828"/><path d="m106.14027 94.6861649c-1.290978-.2394586-2.521372-.4700511-3.752651-.6957672-5.5626655-1.0196755-11.1254046-2.0394987-16.6885871-3.0564404-5.5148622-1.0080756-11.0303894-2.0123092-16.5454733-3.0188333-2.9994756-.5474078-6.0025716-1.0756796-8.997097-1.648873-5.1959781-.9945548-8.5629536-6.4221598-7.0331819-11.4043911.8558742-2.7875758 2.8494908-4.5322027 5.5269792-5.5387268 1.7843027-.6707205 3.6005234-.6092488 5.4520607-.2622888 5.8485231 1.0960717 11.7053213 2.1481823 17.5587208 3.2182467 5.5147883 1.0081495 11.0307588 2.0101666 16.5436261 3.0286599 4.7416645.8759707 9.4998045 1.6318058 14.2945925 2.1616292 6.001758.6631104 12.017851.9688431 18.054779.8558742 3.791144-.0710027 7.569802-.3339565 11.344323-.6959889 6.374061-.6113915 12.667884-1.7230527 18.950107-2.9253698 5.626871-1.0769357 11.261352-2.1137522 16.89236-3.168966 4.881748-.9149076 9.767561-1.80898 14.643325-2.7551407 2.595108-.5035945 4.977872-.1083141 7.181689 1.3760188 4.308925 2.9021702 5.518187 9.9091232.344965 13.8185563-1.613999 1.2196799-3.440859 1.8385337-5.413567 2.1795092-5.427383.9379595-10.84627 1.9254953-16.268555 2.8929346-4.793014.8552832-9.585954 1.7104186-14.37919 2.5646673-4.454254.7938855-8.908805 1.5859976-13.362543 2.3823951-.139715.0250467-.272485.0888827-.421435.1389761-.01522.1916556-.036573.360407-.040784.5296756-.111639 4.5274742-.221357 9.0550221-.331814 13.5825701-.12117 4.970484-.289404 9.940303-.34962 14.911525-.049798 4.110324.150428 8.216068.462293 12.317452.810214 10.654171 2.822671 21.092231 5.434477 31.438305 3.592691 14.231864 7.103445 28.48449 10.607772 42.738446.755613 3.073581.277065 6.027027-1.735022 8.520249-2.459161 3.047204-5.705262 4.436005-9.616542 3.645297-3.860818-.780439-6.414402-3.175911-7.433117-6.981463-1.506572-5.628349-2.87572-11.293491-4.301241-16.943561-4.198542-16.640267-8.395902-33.280829-12.594443-49.92117-.048099-.190621-.09605-.382276-.16092-.567504-.344744-.983916-1.164267-1.580235-2.171973-1.587697-1.046422-.007684-1.901188.580803-2.217633 1.612596-.27352.892003-.477662 1.805729-.702269 2.712362-5.322099 21.478793-10.62942 42.961206-15.976048 64.433867-.950816 3.81863-3.371409 6.347759-7.211539 7.35613-4.313062 1.132496-10.3604074-.969656-11.6852984-7.40615-.3373551-1.638972-.2982703-3.278018.1173281-4.901993 2.0479214-8.003354 4.0995371-16.005823 6.1473846-24.009178 1.9686437-7.693706 3.9618167-15.38128 5.8910807-23.084887 1.207489-4.821459 2.076884-9.712296 2.792821-14.63143 1.317725-9.053249 1.929633-18.156 1.82058-27.29924-.077209-6.472327-.307506-12.942807-.470051-19.4141-.048763-1.9438189-.098414-3.8877114-.15028-5.8314562-.005246-.1943153-.028815-.3882613-.050389-.6653269" fill="#2a2828" stroke-linecap="round"/><path d="m108.315844 53.2250433c.011685-10.8784835 8.816018-19.6615381 19.690808-19.6433908 10.853363.0181298 19.640333 8.8510562 19.623954 19.7266583-.016352 10.8548406-8.853785 19.6227489-19.744312 19.5891545-10.852993-.0337141-19.582112-8.808272-19.57045-19.672422" fill="#2a2828" stroke-linecap="round"/></g><path d="m229.867499 167.626812c.297383-.292951.505441-.495394.710691-.700644 6.663614-6.663022 13.332103-13.321094 19.985964-19.993943 1.287284-1.290978 2.795038-2.108063 4.614214-2.208176 2.730833-.150354 4.984226.760711 6.417284 3.215809 1.036077 1.774993 1.479382 3.682756 1.117941 5.740578-.232366 1.323265-.802308 2.465515-1.758222 3.418251-2.387567 2.37944-4.768262 4.765751-7.151692 7.14918-6.106674 6.106527-12.214974 12.211428-18.318397 18.321205-.918528.919489-1.926974 1.6935-3.215292 1.997163-2.700023.636291-5.149579.164688-7.16078-1.829298-4.368327-4.331016-8.724907-8.674223-13.04654-13.051712-1.943449-1.96857-2.502383-4.383179-1.728077-7.018479.753618-2.564741 2.512431-4.200094 5.12601-4.791315 2.537034-.573932 4.783704.086001 6.640857 1.916556 2.400496 2.366288 4.772178 4.761687 7.153539 7.147333.190769.191064.360407.403186.6125.687492" fill="#fff"/></g></svg>