<svg height="256" viewBox="0 0 192 256" width="192" xmlns="http://www.w3.org/2000/svg" xmlns:xlink="http://www.w3.org/1999/xlink"><mask id="a" fill="#fff"><path d="m0 0h191.849v180.76h-191.849z" fill="#fff" fill-rule="evenodd"/></mask><g fill="#2a2828" fill-rule="evenodd" stroke="#fff" stroke-width="3"><path d="m6.08703791 1.75855276c1.11382213-.34966422 2.32910459-.34193605 3.62890969.01098927 1.2831357.34841971 2.3198778.95052084 3.0975038 1.80327885.8089659.88712586 1.3324045 2.03367975 1.6084947 3.38985602.0947958.46565704.0935281.95532693.0939542 1.43299623.0038819 4.69476547.0028672 9.38954707.0018527 14.08432777-.0018484 8.5541641-.0036937 17.1083248.0240576 25.6623812.0610019 18.7910277 6.0631885 35.5200783 17.8512517 50.0988917 11.115195 13.7466292 25.3087154 22.8994892 42.3584038 27.5887102 4.1180432 1.132627 8.3099976 1.885991 12.5586324 2.335771 4.3812247.463939 8.7706549.592159 13.1665255.335961 12.392971-.722529 24.061162-4.023702 34.902276-10.081759 15.638075-8.738691 27.287463-21.2291436 34.83229-37.5023352 3.064306-6.6092384 5.099059-13.5402515 6.218676-20.737801.699814-4.4990684.932955-9.0295685.927579-13.5805695-.007522-6.463021-.0046-12.9260586-.001679-19.389096.002834-6.2693539.005668-12.5387075-.001027-18.80802085-.001684-1.60164571.335205-3.08370542 1.352869-4.33632581.860003-1.05858202 1.842734-1.81565247 2.956312-2.21697576 1.082133-.38999118 2.278076-.43753219 3.573005-.15268154 1.302439.28647979 2.368417.83513304 3.185726 1.6483007.847946.84364964 1.422097 1.96028602 1.760647 3.30152722.058086.23014297.083998.46806751.10995.70611408l.055558 39.85990926c-.053957.5520215-.073251.7940251-.071035 1.0357045.046103 5.0110282-.349873 9.9849974-1.175672 14.9287679-1.180316 7.0662421-3.1356 13.9073979-5.933868 20.5004376-6.620759 15.5991541-16.717103 28.5091804-30.226479 38.7074524-13.954522 10.534354-29.653629 16.750049-47.046933 18.642695-.479363.052161-.958785.103658-1.437029.155029-.220698.023707-.441145.047386-.66122.071091l-1.339359.144267v24.814457l8.404142-.000087c9.598261-.000211 19.196522-.000422 28.794895.004275.544778.000226 1.097191.002035 1.633858.084656 1.544008.237756 2.882444 1.008559 3.846666 2.116259.973441 1.118292 1.564803 2.577783 1.611461 4.175534.044908 1.53717-.46965 2.985631-1.37251 4.13306-.90613 1.151583-2.20363 2.000696-3.723945 2.333168-.201373.044016-.403094.08629-.604884.128234l-89.8178444.072822c-.5620748-.106628-.8185391-.155239-1.0732967-.211501-1.5214632-.336035-2.8027024-1.185415-3.6912296-2.351273-.8986158-1.179095-1.3945316-2.678506-1.3467723-4.292995.0446425-1.508562.6561447-2.916734 1.6275135-4.006624.9726862-1.091367 2.3094976-1.867233 3.8207565-2.097096.537974-.081806 1.0912611-.084017 1.6368367-.084244l17.3840491-.00422 19.8101553.000035v-24.737948c-1.4491903-.221301-1.792037-.286918-2.1381084-.317897-6.2218781-.556765-12.3221371-1.74385-18.3072292-3.529492-25.6913808-7.664705-47.0071553-25.898556-58.5415663-50.0995181-3.53392665-7.4146722-6.01201834-15.1718974-7.45152877-23.2620753-.94971368-5.337202-1.41931809-10.7136554-1.42001552-16.1340945-.00055623-4.4615542-.00733348-8.9231084-.01411122-13.3846626-.00421501-2.774594-.00843009-5.549188-.01114801-8.3238078-.0024158-2.4236224-.00338618-4.8472658-.00435665-7.2709133-.00143694-3.5886133-.00287432-7.1772356-.00900018-10.76578853-.00282413-1.66961884.39003978-3.2154542 1.5040298-4.49232031.91205654-1.0454282 1.93838009-1.77550095 3.08301026-2.1348368z" mask="url(#a)" transform="translate(0 75.24)"/><path d="m56.2394391 1.50140018.555554.07342279c10.2893757.35237275 19.9978327 3.566079 28.19078 9.00009203 8.1899145 5.4320015 14.8653047 13.082627 19.0916629 22.3100931 2.257584 4.9290157 3.708498 10.0870685 4.361926 15.4718985.275037 2.2671426.384556 4.5401503.383295 6.8224061l-.001649 13.2848968c-.002474 18.3106776-.004948 36.6213475.002944 54.9319745.005635 13.071222-4.151147 24.651415-12.5866624 34.612774-8.0076489 9.456203-18.1618029 15.411753-30.2983484 17.947227-4.7877432 1.000206-9.6292633 1.30323-14.5062952.961812-11.7780614-.824471-22.4910707-5.401988-30.9471702-12.526255-8.5840636-7.232077-14.8432118-17.088333-17.5273117-28.307021-.92493413-3.865887-1.41939227-7.789778-1.42001808-11.768137-.00109059-6.701705-.0100546-13.403454-.01901896-20.1052-.02228031-16.6567521-.0445738-33.3134937.05410972-49.9695522.08566387-14.4665409 5.50305768-26.8439519 15.70399932-37.0581769 7.7842347-7.79432702 17.1803643-12.64592209 28.0086104-14.70229347 2.6500337-.50324317 5.32393-.78553356 8.0186004-.88462583.1972922-.00725155.3941752-.03217335.5908114-.06209154zm1.540941 13.13788882c-4.6365029-.2988617-9.2062405.1785828-13.688891 1.4382413-8.6762517 2.4380989-16.136582 7.6386407-21.3955208 14.546311-5.1729895 6.7947752-8.2167505 15.2402838-8.1961617 24.3328875.0375984 16.5329326.0281909 33.0659513.0187854 49.5989492-.0036268 6.375228-.0072536 12.750452-.008186 19.125667-.0002675 1.897083.1227061 3.782765.3833023 5.661906.7678063 5.53706 2.629646 10.68029 5.5753082 15.424721 4.4501532 7.167681 10.871214 12.600922 18.2662068 15.842985 7.3751678 3.233372 15.719357 4.287524 24.0439239 2.707497 9.6189913-1.825647 17.6045563-6.52672 23.8534699-14.057269 6.0587003-7.301268 9.1515154-15.750553 9.1878067-25.253135.030799-8.072081.0237611-16.144283.0167177-24.2164791-.0030374-3.4810692-.006075-6.9621374-.006075-10.4431938.0004175-3.523666-.0000788-7.0475098-.000575-10.5713535-.0011123-7.8981438-.002225-15.7962877.0069531-23.6944315.0040804-3.518282-.4003973-6.9789181-1.2897682-10.3816181-2.1605428-8.2665647-6.950115-15.5848726-13.5026214-20.9405027-6.36019-5.1984421-14.3803247-8.5485066-23.2646749-9.1211823z" transform="translate(40.737)"/></g></svg>