<svg height="262" viewBox="0 0 263 262" width="263" xmlns="http://www.w3.org/2000/svg"><path d="m129.630136 256h-3.419924c-.215103-.029874-.429284-.075342-.645307-.087186-2.60347-.143511-5.20911-.254122-7.810408-.428428-3.871514-.259386-7.712365-.778948-11.537161-1.430704-6.5097921-1.109399-12.8912728-2.722963-19.1443106-4.841548-15.0853961-5.111198-28.7430492-12.777503-40.9734858-22.97641-11.8901155-9.915108-21.6829662-21.597886-29.3571011-35.044845-7.64643276-13.398333-12.6896594-27.718335-15.13500975-42.954283-.79947816-4.981572-1.31686883-9.991569-1.50723018-15.029597-.26438709-6.99652-.01421294-13.97626.85369791-20.93126.55108062-4.415685 1.30140568-8.794654 2.30611613-13.1276285 2.91549614-12.5739819 7.56964339-24.4706775 14.14832869-35.5783572 14.603801-24.6576171 35.105382-42.6140281 61.496781-53.80185304 9.4388431-4.00127302 19.2604487-6.70028496 29.3884877-8.27325 4.59315-.71327928 9.213937-1.16690911 13.860583-1.36615354 5.548181-.23800103 11.089124-.15213115 16.621644.31413241 4.82773.40684555 9.617295 1.09077772 14.370077 2.04225543 10.575747 2.1172024 20.729975 5.49830409 30.417084 10.23351784 21.960579 10.7345899 39.545151 26.4135738 52.673372 47.0268843 11.010294 17.287942 17.400987 36.1937908 19.379613 56.5910123.285707 2.945172.457249 5.898503.460013 8.859797.000263.323937.060142.647873.092384.971744v4.077865c-.031979.284522-.090805.569044-.091792.853698-.012568 3.620024-.275112 7.2234-.666758 10.820526-.522128 4.795158-1.315421 9.543334-2.383629 14.246503-3.283454 14.456473-8.956788 27.910671-16.938014 40.397072-.114494.179109-.241555.350257-.425599.615894-14.757972-14.741719-29.469949-29.437444-44.151264-44.102571.14871-.409675.244845-.676036.342032-.941936 2.398106-6.561117 3.927379-13.307989 4.360874-20.292269.266822-4.299943.147394-8.58383-.393225-12.860347-.757695-5.993388-2.284862-11.782597-4.66632-17.32808-6.281727-14.6275552-16.355283-25.9134889-30.12539-33.8809632-5.00697-2.897072-10.299253-5.1487051-15.937449-6.5201227-4.674151-1.1368382-9.419169-1.8160985-14.224921-2.0154746-4.743044-.1966782-9.462136.0765262-14.143525.8976528-2.568792.450603-5.111396 1.0176732-7.597411 1.8085972-3.032885.9649011-4.729884 4.1709072-3.831639 7.1685884.304525 1.0164229.916077 1.8250474 1.657124 2.5652391 8.949484 8.9394818 17.919234 17.8588944 26.828381 26.838383 5.617009 5.661424 7.842388 12.550359 6.850048 20.426831-.657612 5.219441-2.934908 9.724089-6.510253 13.588563-6.512885 7.039619-16.251779 9.483456-25.212448 6.653369-3.920141-1.238106-7.297558-3.364586-10.2005521-6.271659-8.8143289-8.826568-17.640831-17.641029-26.4559495-26.466873-1.1134131-1.114795-2.4132396-1.776881-3.9954167-1.912825-2.5268116-.217077-4.9458417 1.33799-5.6914291 3.756889-1.6404765 5.321892-2.6238018 10.765911-2.8743049 16.330937-.1876635 4.168604-.0076987 8.323258.592206 12.459818.7416394 5.113699 1.9907993 10.095533 3.7911715 14.936818 8.1029579 21.789366 29.250175 41.967602 59.1471048 43.977155 4.340607.29176 8.672528.188716 12.994777-.339663 5.329131-.651361 10.506196-1.910589 15.529419-3.8042.507784-.191349 1.015699-.382302 1.365233-.513904 14.772842 14.782187 29.467119 29.485808 44.163831 44.191863-.0304.021319-.13397.100741-.243726.170226-11.766871 7.455611-24.381649 12.946874-37.894343 16.357784-4.654674 1.174937-9.359554 2.100094-14.120693 2.706842-2.71533.34598-5.443294.610959-8.172443.825272-2.249199.176609-4.508596.223854-6.763256.332754-.150486.007304-.299196.051061-.448695.077908" fill="#2a2828" fill-rule="evenodd" stroke="#fff" stroke-width="6" transform="translate(3 3)"/></svg>