<svg height="256" viewBox="0 0 240 256" width="240" xmlns="http://www.w3.org/2000/svg" xmlns:xlink="http://www.w3.org/1999/xlink"><mask id="a" fill="#fff"><path d="m0 0h239.606v256h-239.606z" fill="#fff" fill-rule="evenodd"/></mask><g fill="none" fill-rule="evenodd"><path d="m131.036073 130.408139h1.458973c6.377335 0 12.754733.000064 19.132068-.000383.382603 0 .766228.012322 1.147682-.010023 2.076896-.122001 3.84231-1.644944 3.857469-3.976824.015165-2.368334-1.861141-3.955183-3.823123-3.990232-.297502-.005362-.595068-.012567-.89257-.012567-8.078012 0-16.156025 0-24.233974.00114-.382347.000063-.766674-.00415-1.146723.030452-1.810422.164712-3.183273 1.370489-3.536701 3.147968-.106615.53627-.125959 1.0968-.126598 1.646221-.00798 7.057632-.005362 14.115263-.005362 21.17283 0 6.675029-.003575 13.349993.006384 20.024958.00083.591237.024962 1.196328.149581 1.770903.395627 1.824595 2.010821 3.081701 3.873337 3.076038 1.861176-.005701 3.4546-1.273022 3.850163-3.105724.106488-.493241.138153-1.010486.140707-1.517006.01347-2.635894.006448-5.271916.006512-7.907874.000127-3.358773-.00332-6.717547.005426-10.076256.001022-.367473-.101189-.765845.238002-1.156301.410374-.010023.872141-.030835 1.333907-.031027 5.399536-.002362 10.799072.002107 16.19848-.007341.549294-.000958 1.109887-.024835 1.645519-.134323 1.842534-.37673 3.105577-1.950235 3.121921-3.825967.016471-1.885819-1.209097-3.481796-3.036054-3.896448-.491836-.111659-1.009209-.147219-1.515537-.152134-1.913015-.018451-3.82635-.00996-5.739557-.011492-3.656339-.002873-7.312678-.001851-10.969018-.014173-.407948-.00134-.85069.122129-1.206479-.182587-.136302-1.464272-.102849-9.738023.065565-10.861828m-87.0511634 26.298102c.5312265 0 .907573.000128 1.2839196 0 2.5925458-.000766 5.1856024.029112 7.7776375-.009512 3.9170687-.058351 7.4321265-1.308946 10.4444312-3.81639 4.2538334-3.540914 6.3230054-8.132406 6.2119209-13.654135-.1195116-5.938678-2.6639208-10.629444-7.5609589-13.992559-2.8485509-1.9563-6.048997-2.828185-9.5017453-2.817495-4.0376018.012676-8.0752674.001504-12.1128691.003674-.3395738.000192-.6811266.004278-1.0182744.039837-1.885691.198995-3.3011883 1.594063-3.5063753 3.469156-.0506903.463044-.0472429.933365-.0473067 1.400303-.0022983 13.685417-.0021068 27.370833-.0005107 41.056314.0000638.424675-.0046605.851584.0343468 1.273577.1778628 1.924379 1.6411136 3.411698 3.5319119 3.608905 1.9378497.202123 3.7309065-1.004037 4.2455341-2.91252.1412177-.523565.172564-1.089139.1749261-1.635815.0150028-3.485052.0066395-6.970168.009257-10.455284.0003831-.461001.0196633-.921937.0341553-1.558056m35.015042-8.819214c0 6.842804-.0033836 13.685672.0058734 20.528476.0007661.591493.0214508 1.196138.1425584 1.771606.2936078 1.395068 1.1677916 2.323518 2.484015 2.847147.5644241.224467 1.1532996.257856 1.7532196.257026 4.2077398-.006001 8.4163733.051712 12.6229639-.018003 5.5834641-.092507 10.0890251-2.420493 13.4570551-6.866617 2.255717-2.977894 3.303231-6.393423 3.316-10.116285.019216-5.610213.009895-11.220554-.000703-16.830768-.001277-.67787-.059947-1.358422-.135472-2.032846-.495539-4.42678-2.460776-8.093334-5.829701-10.981467-3.118856-2.673689-6.76779-4.006383-10.8796394-4.021514-4.1651573-.015385-8.3303785-.005235-12.4955998-.003256-.2969913.000128-.5957703.008683-.8905911.041306-1.7331094.191972-3.0852119 1.404963-3.416997 3.123262-.111659.57815-.1270449 1.181517-.1277471 1.773457-.0082994 6.842804-.0052989 13.685608-.005235 20.528476m152.4684964-65.7057691h-1.788333c-19.77074 0-39.541543.002043-59.312346-.006831-.889506-.0003831-1.785141-.0503072-2.667433-.1609448-4.766035-.5980048-8.935852-4.3424457-10.002519-9.2844283-.245279-1.1361262-.263027-2.2767212-.263155-3.4239558-.001596-19.7707396-.001149-39.5415431-.001277-59.31234652 0-.42518544.007023-.85062624-.00632-1.27542862-.006384-.20314415-.052797-.40501147-.090719-.67691309-.46713-.01915249-.881845-.05100948-1.29656-.05100948-26.148458-.00446922-52.296915-.00070226-78.4453723-.00446922-1.7061045 0-3.3926734.16298805-5.0709428.46215006-10.4469849 1.86219727-19.0500312 9.85970547-21.669199 20.13387097-.6239884 2.4478168-.8558 4.9307465-.8558 7.4509598.0082382 22.6620005.004663 45.3240011.0047269 67.9860021 0 .255111-.0130237.511307.0065757.765014.0188332.242343.0723964.482068.1159364.756205.6387996.14026 1.2327186.08459 1.8197426.084717 42.73037.006704 85.4608035.01047 128.1911735.014812.637778.000064 1.275493.002936 1.913271.007405 4.204611.029304 8.715216 2.933269 10.13531 7.91694.352853 1.238209.430293 2.507381.430101 3.787534-.002426 20.323481-.00166 40.647026-.001979 60.97057-.000064.340085.003064.680488-.008555 1.020254-.195738 5.753218-4.218401 9.417921-8.272793 10.397316-1.207501.291692-2.432559.350937-3.669619.35081-42.815471-.004661-85.6308776-.003895-128.4463486-.003767-.4677039 0-.9359187-.012002-1.4028565.007406-.2408746.009959-.4794509.076865-.7454152.122575-.0204293.395691-.0527332.731115-.0527971 1.066539-.0014045 9.821592-.0004469 19.643184.0024899 29.46484.0005107 1.533285.1171494 3.057952.38139 4.56953 1.7590292 10.062659 9.1570642 18.450112 18.9224117 21.465353 2.9508891.911212 5.9700248 1.25219 9.0526831 1.25136 38.2234687-.009959 76.4470007-.004149 114.6705327-.002362 3.699049.000128 7.398354.026622 11.096956-.01296 1.356508-.014556 2.724571-.097486 4.064416-.300375 4.759459-.7209 9.069282-2.547409 12.835812-5.554671 5.694356-4.546419 9.128207-10.423427 10.241159-17.64628.267177-1.734004.261942-3.472667.262006-5.215225.001905-44.941335.001905-89.882669.001905-134.8240032 0-.467704.004096-.9355356-.005863-1.4029842-.005299-.246748-.038688-.4927938-.072396-.8932087m-189.5313234 107.9376641c-.6617826-.011109-1.1659401-.026814-1.6700339-.026878-9.6935894-.001596-19.3871151-.003-29.0806407-.000191-1.9485112.000574-3.81632655-.370346-5.50602368-1.352805-3.62448237-2.107477-5.62815277-5.241017-5.65764762-9.478826-.0432208-6.206941-.01168302-12.414457-.01168302-18.621718-.00006384-14.582839.00044689-29.165614-.00082994-43.748453-.00012768-1.022041.05139253-2.031569.29794901-3.035223 1.15393795-4.69798 5.42264648-8.038176 9.89705285-8.209463.5519749-.021132 1.104716-.031218 1.657074-.031282 9.4809968-.001916 18.9619297-.00032 28.4429265-.004342.50154-.000191 1.0129755.062629 1.5574172-.108339.0354321-.219871.0885484-.419759.0958263-.621307.0152582-.424611.0074695-.850115.0074695-1.275301.0001915-22.618205-.0045328-45.236474.0037666-67.8547431.002043-5.4340103 1.0568348-10.6584922 3.4852438-15.5353564 5.1231652-10.28878524 13.2929182-16.78090715 24.5030662-19.41073652 2.6648146-.6251375 5.3734246-.80395798 8.1002294-.80395798h82.5226189c.382284 0 .76476.0168542 1.146916.03153778.886505.0340276 1.647753.38534824 2.312472.95117684.290671.24738642.55255.52899197.823047.79948907 24.319713 24.32226671 48.638915 48.64498031 72.958181 72.96763001.180353.1804165.360131.3614715.540165.5421434.753714.7567151 1.142957 1.6775672 1.21082 2.7351042.027133.4237171.026878.8496048.026942 1.2745349.002106 46.9796708.017748 93.9593418-.007597 140.9389478-.005427 10.003669-3.570473 18.607162-10.701203 25.642959-5.226461 5.15681-11.509821 8.345829-18.760509 9.610596-2.102434.366706-4.215082.505881-6.344648.505881-11.649251-.005937-23.298502-.003064-34.947753-.003001-30.185995 0-60.37199-.001532-90.558049.003001-2.2988742 0-4.5815327-.11134-6.8549341-.504668-5.4135809-.936685-10.3573511-2.991493-14.7716186-6.244863-7.6662339-5.650306-12.3754498-13.189559-14.1301378-22.551683-.3997126-2.132439-.5565077-4.297628-.5565715-6.470415-.0003831-9.480167.0001277-18.960334-.0014045-28.440501-.0001277-.504094-.0164074-1.008123-.0278989-1.668948" fill="#2a2828" mask="url(#a)"/><path d="m231.46846 82.1812707c.033645.400351.067098.6464606.072397.8931448.009959.4675124.005862.9353441.005862 1.4030481 0 44.9413344 0 89.8826684-.001968 134.8240024 0 1.742495.005171 3.481222-.262006 5.215225-1.112888 7.222854-4.546739 13.099861-10.241096 17.646281-3.76653 3.007261-8.076352 4.833707-12.835812 5.554607-1.339844.202953-2.707907.285883-4.064415.300375-3.698602.039646-7.397971.013152-11.09702.01296-38.223469-.001724-76.447001-.007533-114.6705328.002426-3.0825944.000766-6.1017302-.340212-9.0526192-1.25136-9.7653475-3.015305-17.1633826-11.402695-18.9224117-21.465353-.2642406-1.511579-.3809432-3.036245-.3813901-4.56953-.0029367-9.821656-.0038943-19.643248-.0024898-29.46484.0000638-.335424.0323677-.670848.0527332-1.066539.2660282-.04571.5046045-.112616.745479-.122576.4669379-.019471.9351526-.007469 1.4028566-.007469 42.8154071-.000064 85.6308778-.00083 128.4463488.00383 1.23706.000128 2.462117-.059181 3.669619-.35081 4.054392-.979394 8.076991-4.644097 8.272793-10.397316.011555-.339829.008491-.680169.008491-1.020317.000383-20.323481-.000383-40.647025.002043-60.970506.000191-1.280153-.077312-2.549325-.430101-3.787534-1.420094-4.983671-5.930699-7.8877-10.135374-7.91694-.637714-.004469-1.275493-.007342-1.913207-.007406-42.730434-.004341-85.4608037-.008107-128.1911737-.014811-.5870241-.000127-1.180943.055542-1.8197426-.084718-.0436039-.274136-.097167-.513861-.1159365-.756268-.0195994-.253643-.0065757-.509839-.0065757-.764951-.0000638-22.6620002.0034475-45.3240008-.0047272-67.9860014 0-2.5202771.2317482-5.0031429.8558004-7.4509597 2.6191678-10.2741655 11.2222141-18.2716737 21.6691989-20.133871 1.6782695-.29916201 3.3647745-.4622139 5.0709428-.4622139 26.1484576.0038308 52.2969146 0 78.4453716.00453306.414716 0 .829431.03185698 1.296497.05100948.037985.27183778.084398.47376894.090782.67691309.013343.42480238.006321.85024318.006321 1.27542862.000064 19.77080345-.000319 39.54154305.001277 59.31234655.000127 1.1472346.017875 2.2877658.263155 3.4239557 1.066666 4.9419827 5.236484 8.6864235 10.002455 9.2843645.882292.1107014 1.777991.1606256 2.667496.1610086 19.770804.008874 39.541543.0068311 59.312347.0068311z" fill="#fff"/><path d="m87.1295545 165.168989c.1696273.065055.2466842.120278.3238687.120469 2.9312897.007598 5.8670483.113894 8.7928476-.011555 4.1287042-.177033 7.3999502-2.942909 8.3003092-6.872363.187439-.817939.218466-1.684973.221467-2.529725.018833-5.353698.009895-10.707523.008618-16.061284-.000064-.339766-.007278-.679786-.020621-1.019296-.17716-4.50952-4.010277-8.325208-8.648948-8.369514-2.7615986-.02643-5.523644-.009704-8.2854341-.002234-.2392147.000638-.478174.077631-.6983.115872-.1380257 1.318841-.1307477 33.607908.0061926 34.62963m-8.1296604-17.281936c0-6.842868-.0030005-13.685672.0052989-20.52854.0007022-.591876.0160881-1.195308.1277471-1.773394.3317851-1.718362 1.6838876-2.93129 3.416997-3.123261.2948208-.032687.5935997-.041178.8905911-.041306 4.1652212-.002043 8.3304425-.01213 12.4955998.003192 4.11185.015131 7.760783 1.347889 10.87964 4.021578 3.368924 2.888132 5.334162 6.554622 5.829701 10.981403.075524.674487.134131 1.355039.135472 2.032846.010597 5.610277.019918 11.220618.000702 16.830831-.012768 3.722863-1.060282 7.138391-3.316 10.116222-3.36803 4.446188-7.873591 6.774174-13.4570547 6.86668-4.2065906.069652-8.4152241.011939-12.6229639.018004-.59992.00083-1.1887955-.032623-1.7532196-.257091-1.3162234-.523565-2.1904072-1.452014-2.484015-2.847146-.1211076-.575405-.1417923-1.180113-.1425584-1.771542-.0092571-6.842804-.0058734-13.685672-.0059373-20.528476m-34.960968.769349c.2645598.03058.4685339.074312.6725718.074631 2.7190162.003511 5.4384792.02426 8.1569846-.015194.7560129-.010981 1.5242834-.14441 2.2614631-.325401 3.1043644-.761823 6.3496273-3.65385 6.5812448-8.28403.3094405-6.185299-4.5840225-9.826124-9.0288063-9.701889-2.5471544.071184-5.0979478.009704-7.6470813.015833-.3266139.000766-.6531002.049414-.9598593.074248-.1585827 1.048088-.1925465 16.620473-.0365174 18.161802m-.0540101 8.049858c-.014492.636055-.0337722 1.097056-.0341553 1.558056-.0026175 3.485116.0057458 6.970232-.009257 10.455284-.0023622.546677-.0337084 1.11225-.1749262 1.635815-.5146275 1.908483-2.3076843 3.114579-4.245534 2.91252-1.8907983-.197206-3.3540491-1.684526-3.5319119-3.608905-.0390073-.422057-.034283-.848966-.0343469-1.273641-.001596-13.685416-.0017875-27.370833.0005108-41.05625.0000638-.467002-.0033836-.937259.0473066-1.400303.2051871-1.875093 1.6206843-3.270225 3.5063754-3.469155.3371477-.03556.6787006-.039646 1.0182744-.039838 4.0376017-.00217 8.0752673.008938 12.112869-.003674 3.4527484-.01069 6.6531945.861132 9.5017453 2.817432 4.8970382 3.363178 7.4414474 8.05388 7.560959 13.992622.1110845 5.521729-1.9580875 10.113221-6.2119209 13.654135-3.0123047 2.507445-6.5273625 3.757975-10.4444312 3.81639-2.5920351.038624-5.1850917.008746-7.7776375.009512-.3763466.000128-.7526932 0-1.2839196 0m87.051157-26.298121c-.168414 1.123805-.201867 9.397556-.065565 10.861828.355789.304716.798531.181247 1.206479.182587 3.65634.012322 7.312679.0113 10.969018.014173 1.913207.001532 3.826542-.006959 5.739557.011492.506328.004915 1.023701.040475 1.515537.152134 1.826957.414652 3.052525 2.010629 3.036054 3.896448-.016344 1.875732-1.279387 3.449237-3.121921 3.825967-.535632.109488-1.096225.133365-1.645519.134323-5.399408.009448-10.798944.004979-16.19848.007341-.461766.000192-.923533.021004-1.333907.031027-.339191.390456-.23698.788828-.238002 1.156301-.008746 3.358709-.005299 6.717483-.005426 10.076256-.000064 2.635958.006958 5.27198-.006512 7.907874-.002554.50652-.034219 1.023765-.140707 1.517006-.395563 1.832702-1.988987 3.100023-3.850163 3.105724-1.862516.005663-3.47771-1.251443-3.873337-3.076038-.124619-.574575-.148751-1.179666-.149581-1.770903-.009959-6.674965-.006384-13.349929-.006384-20.024958 0-7.057567-.002618-14.115198.005362-21.17283.000639-.549421.019983-1.109951.126598-1.646221.353428-1.777479 1.726279-2.983256 3.536701-3.147968.380049-.034602.764376-.030389 1.146723-.030452 8.077949-.00114 16.155962-.00114 24.233974-.00114.297502 0 .595068.007205.89257.012567 1.961982.035049 3.838288 1.621898 3.823123 3.990232-.015159 2.33188-1.780573 3.854823-3.857469 3.976824-.381454.022345-.765079.010023-1.147682.010023-6.377335.000447-12.754733.000383-19.132068.000383-.462724 0-.925448 0-1.458973 0" fill="#fff"/><path d="m87.1295545 165.168989c-.1369403-1.021722-.1442183-33.310789-.0061926-34.62963.220126-.038241.4590853-.115234.6983-.115872 2.7617901-.00747 5.5238355-.024196 8.2854341.002234 4.638671.044306 8.471788 3.859994 8.648948 8.369514.013343.33951.020557.67953.020621 1.019296.001277 5.353761.010215 10.707586-.008618 16.061284-.003001.844752-.034028 1.711786-.221467 2.529725-.900359 3.929454-4.171605 6.69533-8.3003092 6.872363-2.9257993.125449-5.8615579.019153-8.7928476.011555-.0771845-.000191-.1542414-.055414-.3238687-.120469m-43.0906284-16.512587c-.1560291-1.541329-.1220653-17.113714.0365174-18.161802.3067591-.024834.6332454-.073482.9598593-.074248 2.5491335-.006129 5.0999269.055351 7.6470813-.015833 4.4447838-.124235 9.3382468 3.51659 9.0288063 9.701889-.2316175 4.63018-3.4768804 7.522207-6.5812448 8.28403-.7371797.180991-1.5054502.31442-2.2614631.325401-2.7185054.039454-5.4379684.018705-8.1569846.015194-.2040379-.000319-.408012-.044051-.6725718-.074631" fill="#2a2828"/></g></svg>