<svg height="4096" viewBox="0 0 4096 4096" width="4096" xmlns="http://www.w3.org/2000/svg" xmlns:xlink="http://www.w3.org/1999/xlink"><mask id="a" fill="#fff"><path d="m0 0h2384.60525v3862.49744h-2384.60525z" fill="#fff" fill-rule="evenodd"/></mask><mask id="b" fill="#fff"><path d="m0 0h1714.03881v1466.4485h-1714.03881z" fill="#fff" fill-rule="evenodd"/></mask><mask id="c" fill="#fff"><path d="m0 0h553.566198v1958.031h-553.566198z" fill="#fff" fill-rule="evenodd"/></mask><g fill="none" fill-rule="evenodd"><path d="m0 1754.66535c2.56849803-285.56101 62.6596769-558.06516 186.052657-814.642547 193.775664-402.918587 487.553464-708.44438 876.914413-919.9216417 34.05595-18.49425431 68.5322-18.55947931 104.18762-20.1011613 13.37954 2.08127068 26.79411 4.00244362 40.14446 6.26160069 130.52056 22.04012291 247.84255 78.69100641 360.89148 144.99519131 194.58124 114.120044 364.99525 260.846662 531.48646 412.482945 88.79998 80.873079 175.46344 164.088329 258.1574 251.483909-8.76792 6.724106-16.30996-.468434-23.90454-2.727591-209.70035-62.44405-423.35853-89.429414-641.86182-76.348835-25.86595 1.547611-45.98779 11.218701-66.39568 25.414034-162.7377 113.189106-300.45005 252.118376-417.00733 413.467246-120.06561 166.19925-216.425144 345.7637-296.328783 534.82727-49.513637 110.50303-89.733981 224.61121-126.802077 339.88159-27.132679 84.37744-53.722472 168.93277-63.675401 257.8048-2.218249 19.8284 1.360136 35.58321 13.157715 52.12071 77.03159 108.00669 158.295366 212.57423 246.225561 311.57393 58.509215 65.88319 114.800185 134.04925 180.874795 192.65689 4.41315 6.41576 8.22503 13.38298 13.33868 19.15836 66.31979 74.90795 138.71057 143.66697 209.43766 214.16334 154.02816 153.52781 314.49508 299.56067 483.72991 435.59039 124.63637 100.17968 257.24091 187.37366 403.14911 252.46229 37.19653 16.5968 75.20446 31.32579 112.83296 46.91456-411.54928 69.13258-809.10023 20.05966-1192.08664-147.52117-231.153148-101.1462-432.914505-246.82329-613.112155-424.24717-9.713592-9.56436-17.816036-20.80677-26.648167-31.24871-8.032393-30.9878-27.226079-56.52636-40.588106-84.93481-70.662883-150.22505-92.681916-311.08771-97.748862-474.76097-6.537995-211.05034 31.446588-416.687 83.773898-619.72058 8.295081-32.18558 6.415407-58.02061-8.423506-87.13468-81.730775-160.33493-144.623952-327.72602-179.508825-505.38708-11.745041-59.79354-15.451851-120.50616-21.400259-186.09287-29.876302 22.99478-49.852211 49.30417-71.375057 73.9948-90.627118 103.95088-162.7026755 218.6698-200.5062965 353.63813-5.242071 18.70772-3.7768596 39.6746-16.9812745 55.89783" fill="#1e2742" mask="url(#a)" transform="translate(.8079 233.5026)"/><path d="m4095.35628 1994.33684c6.6022 257.01576-37.71606 505.33329-126.73203 745.30795-158.52303 427.34239-424.33923 768.40395-800.42571 1019.876-14.64628 9.78968-29.35677 19.35997-46.06952 25.17092-4.15046-6.69445-10.1981-2.91733-15.68535-3.15451-41.65053-1.79073-83.74471-.5811-124.85819-6.40391-133.90047-18.96862-259.68682-64.89889-380.14354-126.07401-185.78997-94.35094-354.13751-215.81769-516.02877-346.8488-76.51206-61.92818-151.1386-126.26376-226.62325-189.51423-31.42324-28.73458-63.15003-57.13117-94.04206-86.43499-7.8164-7.41786-21.24264-11.39659-19.91753-26.28568 60.99599 20.90165 123.94754 32.7726 187.58792 40.99095 205.17045 26.49322 407.23536 6.23196 607.81171-40.55809 39.15208-9.1315 71.55018-26.13744 101.53739-53.31255 128.38404-116.34955 229.36104-254.74516 317.16865-403.60049 71.45678-121.13469 134.98041-246.51494 184.49988-378.79719 16.62519-39.73982 33.24454-79.47964 49.86973-119.21945 7.78138 9.42798 4.85679 20.86014 4.8276 31.32579-.22182 85.10677 11.20216 169.09879 22.22335 253.17976 17.93279 136.78277 40.64064 273.10896 41.73809 411.6113.1868 23.9613 9.84786 23.65889 26.78243 15.82003 211.39907-97.89088 414.87081-208.64294 579.44732-379.75778 101.08791-105.10713 181.91387-223.4668 216.85128-369.13203 1.50024-6.24975-.09923-14.53925 10.1806-14.18899" fill="#1e2642"/><path d="m3193.30327 2045.47639c-16.61935 39.73981-33.24454 79.47963-49.86389 119.21945-17.52416-15.36938-13.85237-40.09559-24.57585-58.14513-40.84496-68.75309-67.97764-144.43781-107.85941-213.93802-55.43285-96.60417-109.01523-194.08591-174.38934-284.40475-24.61672-34.00595-49.25095-68.04154-73.58163-102.16608-26.47304-37.13082-55.20519-72.10328-84.0541-107.05203-25.05453-30.34741-51.15981-59.98329-78.79451-87.89959-30.34914-30.66168-50.6286-69.95085-83.55791-98.09248-55.66052-47.56682-100.21813-106.19224-152.38782-157.22784.5137-4.79701-1.88551-6.91979-6.35704-7.12732l.75888.07708c-82.69396-87.389646-169.35742-170.604896-258.1574-251.477975-166.49121-151.636283-336.90522-298.362901-531.48646-412.482945-113.0431-66.304185-230.36508-122.955069-360.88565-144.995191-13.35619-2.259157-26.76491-4.18033-40.15029-6.255672-3.35072-21.346366 10.69429-30.258473 26.53725-37.024085 89.34287-38.1507 180.61795-70.875865 272.62272-101.8103071 63.40104-21.3167182 128.94444-34.7412106 192.0069-57.623329 30.17402-10.9518717 62.8815-18.707718 96.18442-17.2549792.56623 5.8998984 4.33726 7.4712281 9.57349 8.6215601 166.23436 36.5141449 313.77122 115.6676562 452.1724 212.0998642 298.87977 208.2338 562.72873 457.144287 804.12669 730.757262 134.30909 152.223307 261.63071 310.204207 351.65073 495.176397-12.22956 46.52915-23.53679 93.32512-36.84628 139.52815-42.66625 148.12599-91.65451 294.15885-142.6859 439.49796" fill="#f5f5f5"/><path d="m3193.30327 2045.47639c51.03139-145.33911 100.01965-291.37197 142.6859-439.49796 13.30949-46.20303 24.61672-92.999 36.84044-139.53408 7.31438-7.63726 7.43113-18.10291 9.79532-27.44194 35.20593-139.40956 63.9089-280.16512 77.13666-423.59492 11.05622-119.830193 15.83129-239.820488-3.96366-359.567671-6.24028-37.747491-21.44112-73.692399-21.26599-112.619869 81.90006 67.454516 150.78251 147.699064 217.11397 230.190909 245.74105 305.608811 387.21275 655.908601 431.62442 1047.110411 6.54383 57.67669 8.17833 115.92855 12.08945 173.87208-10.27983-.40914-8.68619 7.88036-10.18059 14.1301-34.93741 145.66523-115.76338 264.0249-216.85712 369.13797-164.57652 171.11484-368.04242 281.8669-579.44732 379.75185-16.92874 7.84479-26.58979 8.14719-26.78243-15.8141-1.09161-138.50234-23.80531-274.83446-41.73226-411.61723-11.02119-84.08097-22.451-168.06706-22.22918-253.17383.02919-10.47158 2.95377-21.90375-4.82761-31.33172" fill="#df3337"/><path d="m1679.2198 543.218171c-.17513 38.92747 15.02571 74.872378 21.266 112.619869 19.79494 119.747184 15.01987 239.737479 3.96365 359.57361-13.22776 143.42386-41.93073 284.18535-77.13666 423.58898-2.35835 9.33904-2.48094 19.80468-9.79532 27.44787-90.01418-184.97219-217.33579-342.95309-351.64489-495.176396-241.39795-273.607046-505.241076-522.517532-804.126684-730.757262-138.401182-96.426279-285.938043-175.5797896-452.17240335-212.0998641-5.23623348-1.150332-9.00725558-2.7216617-9.57349265-8.62156 147.017325-17.87758155 294.279824-25.34880965 442.342061-15.26265172 356.863613 24.31113902 684.691529 135.74509882 983.542109 335.25653682 78.92294 52.689947 153.76547 110.846935 224.73774 174.115192 10.15724 9.048487 19.09445 19.508207 28.59789 29.315676" fill="#1e2742" mask="url(#b)" transform="translate(1755.3116)"/><path d="m1858.79342 3112.70218c75.47882 63.24454 150.10536 127.58012 226.61741 189.5083 161.89127 131.03111 330.2388 252.49786 516.02877 346.8488 120.46256 61.17512 246.24307 107.10539 380.14355 126.07401 41.11931 5.82281 83.20766 4.61318 124.86403 6.40391 5.4814.23718 11.52905-3.53994 15.67951 3.15451-30.16234 25.47333-65.91116 41.5009-100.03716 59.99515-200.43625 108.60557-412.67007 182.52329-636.71899 221.00011-37.58763-15.58877-75.58973-30.32369-112.79209-46.91456-145.90236-65.09456-278.50691-152.28854-403.14328-252.46822-169.24067-136.02972-329.70758-282.05665-483.7299-435.59038-70.7271-70.49638-143.12371-139.24947-209.4435-214.16335-5.11365-5.77538-8.92553-12.7426-13.35035-19.16429 103.83153 20.10116 207.90824 37.85422 313.88213 42.12349 128.36069 5.17057 255.90413.32613 381.99987-26.80748" fill="#df3337"/><path d="m.80790938 483.530767c13.20441482-16.223238 11.73920352-37.190113 16.98127452-55.897831 37.8036209-134.968329 109.8791781-249.687257 200.5062961-353.6381301 21.522846-24.69063 41.498756-51.0000261 71.375058-73.9948059 5.948408 65.5867095 9.655217 126.299332 21.400258 186.092875 34.884874 177.66106 97.77805 345.052147 179.508825 505.387074 14.838914 29.114071 16.718587 54.949103 8.423506 87.13468-52.32731 203.033588-90.311893 408.670251-83.773898 619.720581 5.066946 163.67326 27.085979 324.53592 97.748862 474.76097 13.362028 28.40845 32.555713 53.94701 40.588107 84.93482-92.033955-90.47895-166.666335-194.85082-234.153621-304.63043-153.800494-250.19127-255.0518539-520.50742-298.4711456-812.61465-17.61172395-118.436754-23.23323214-237.596913-20.13352202-357.255153" fill="#df3337" mask="url(#c)" transform="translate(0 1504.6371)"/><path d="m2364.23764 1055.77229c52.1697 51.02967 96.7273 109.66102 152.38782 157.22784 32.92931 28.14163 53.21461 67.4308 83.55791 98.09248 27.6347 27.91631 53.73998 57.55218 78.79452 87.89959 28.85474 34.94875 57.58105 69.91528 84.05993 107.05203 24.32485 34.11861 48.95908 68.1542 73.57579 102.16015 65.37412 90.32478 118.95649 187.80651 174.38935 284.41068 39.88177 69.50021 67.01444 145.17901 107.8594 213.93209 10.72348 18.05547 7.0517 42.78168 24.57586 58.15106-49.51948 132.28225-113.0431 257.6625-184.49989 378.79719-87.8076 148.85533-188.7846 287.25094-317.16864 403.60049-29.98722 27.17511-62.39115 44.18105-101.5374 53.31255-200.57634 46.79005-402.64125 67.05131-607.81171 40.55809-63.64621-8.21835-126.59192-20.0893-187.58792-40.99095-7.2093-9.37461-19.15866-11.27206-27.79231-19.54378-33.80494-32.36346-68.89412-63.36906-104.0592-94.23235-82.25031-72.17443-160.18671-148.93241-235.60132-228.35275-32.23465-33.94665-65.50837-67.14618-95.01691-103.44093-55.38616-68.13641-109.70405-137.12075-157.65324-211.22229-43.09823-66.60659-82.03433-135.52571-115.97936-207.05382-27.144357-57.20826-48.99994-117.04331-72.093072-176.16682-4.827609-12.35717-11.447329-17.19568-23.490082-16.60273 79.903638-189.06357 176.257344-368.63395 296.322944-534.8332 116.55728-161.34295 254.26963-300.27814 417.01317-413.461316 20.40205-14.195334 40.52973-23.866423 66.39567-25.414035 218.5033-13.086508 432.15564 13.898856 641.86182 76.348831 7.58875 2.25916 15.13663 9.4517 23.89871 2.72167 0-.00593-.75887-.08302-.75887-.08302-2.97713 7.06802 3.49666 5.4374 6.35703 7.13325" fill="#fefefe"/><path d="m913.145998 1943.35834c12.042753-.58703 18.662473 4.24555 23.490082 16.60865 23.093132 59.11758 44.948716 118.95263 72.09307 176.16089 33.94504 71.52811 72.88113 140.44723 115.97936 207.05382 47.94919 74.10154 102.26708 143.09181 157.65324 211.22229 29.51438 36.29475 62.78227 69.49428 95.01692 103.44093 75.4146 79.42627 153.351 156.17832 235.60132 228.35868 35.16507 30.85736 70.26009 61.86296 104.05919 94.22642 8.63949 8.27172 20.58301 10.1751 27.79232 19.54378-1.33095 14.89502 12.10113 18.86782 19.91753 26.28568 30.89203 29.30382 62.61882 57.70041 94.04206 86.44092-126.09575 27.13361-253.63335 31.97805-381.99987 26.80748-105.96806-4.26927-210.05061-22.0164-313.8763-42.12349-66.06294-58.59578-122.35391-126.76184-180.868962-192.64503-87.924358-98.9997-169.188133-203.56724-246.219724-311.57393-11.797578-16.5375-15.375963-32.2923-13.157715-52.12071 9.947093-88.87203 36.536885-173.42736 63.675401-257.8048 37.068097-115.27038 77.288441-229.37856 126.802078-339.88158" fill="#f5f5f5"/><path d="m2364.23764 1055.77229c-2.86037-1.69585-9.33416-.06523-6.35703-7.13325 4.47152.21347 6.87073 2.33031 6.35703 7.13325" fill="#1e2742"/></g></svg>