<svg height="4096" viewBox="0 0 4096 4096" width="4096" xmlns="http://www.w3.org/2000/svg" xmlns:xlink="http://www.w3.org/1999/xlink"><mask id="a" fill="#fff"><path d="m0 0h3808.63799v1334.49344h-3808.63799z" fill="#fff" fill-rule="evenodd"/></mask><mask id="b" fill="#fff"><path d="m0 0h3611.71048v1121.38131h-3611.71048z" fill="#fff" fill-rule="evenodd"/></mask><mask id="c" fill="#fff"><path d="m0 0h4096v396.378323h-4096z" fill="#fff" fill-rule="evenodd"/></mask><g fill="none" fill-rule="evenodd"><path d="m3808.63799 2.43293103c-31.34593 100.87170597-77.12061 192.54092997-128.0255 281.19481397-230.4487 401.353325-548.34117 704.828952-969.77907 888.800335-306.90014 133.97646-628.97486 182.00857-960.55722 154.70693-680.54892-56.04695-1201.057243-387.962078-1576.309214-964.496786-67.515382-103.73059-122.9371042-214.395044-168.46084568-330.2367815-10.80413401-27.49365575-6.81008963-32.4718138 21.87314358-32.4014425 421.5424571 1.03193512 843.0849151 1.05327009 1264.6273761 1.07460505 829.15106.03555827 1658.30213-.08533985 2487.4532-.07111655 8.99879 0 17.99759.86051018 29.17813 1.42944253" fill="#22242f" mask="url(#a)" transform="translate(149.2355 2761.5066)"/><path d="m1805.38999 1121.38131c-575.98581 0-1151.964652 0-1727.9434923 0-12.7767598 0-25.5535196-.0569-38.3233089-.14935-47.09208353-.34136-47.38484071-.52626-23.4763377-44.02114 40.9441827-74.5088 87.1510239-145.547118 138.0419809-213.342519 269.092641-358.484273 606.028273-625.846919 1030.832878-759.666919 630.0274-198.4649382 1226.07404-115.0736792 1774.74282 264.283299 261.22305 180.607575 469.86133 414.374765 628.82151 693.286739 2.9206 5.12039 5.70877 10.31901 8.46208 15.52474 23.26025 43.92869 23.25328 43.82201-24.89133 43.82201-588.7556-.02844-1177.5112-.01422-1766.2668-.01422z" fill="#fa6238" mask="url(#b)" transform="translate(240.584)"/><path d="m2049.8077 1818.36397c-661.99368-.01422-1323.987371-.00711-1985.9740881-.02134-51.1767432 0-58.96966047-8.29218-49.1901766-60.83309 19.391678-104.20707 41.4948451-207.69586 73.6214603-308.93737 10.3510575-32.61405 23.8666804-43.53755 57.9868324-43.45974 538.882324 1.20229 1077.771622.8467 1616.653942.8467 728.19166 0 1456.38332.24891 2184.57499-.81073 32.20329-.04978 45.8862 8.91091 55.60295 40.65733 34.51746 112.77662 64.98512 226.02971 75.62894 344.32497 1.98656 22.01057-2.89272 28.26883-22.0265 28.20482-9.29155-.02844-18.57614.03556-27.86769.03556-659.67254.00467-1319.33811.00467-1979.01066-.00711" fill="#f8ebce"/><path d="m2048.08601.70414753c672.35172 0 1344.70343.20623798 2017.05515-.70414753 28.46018-.03546453 32.07782 10.0417497 30.57221 34.8685351-6.66371 110.1097449-20.20721 219.1882989-40.26108 327.5912469-4.72594 25.566397-14.26843 33.40344-40.38655 33.389217-1220.44892-.682719-2440.90481-.512039-3661.353727-.426699-90.580466.007111-181.181842-1.07386-271.7135151.931626-26.7872819.590268-35.2214769-9.494058-40.1704673-34.199945-21.6710017-108.168263-33.01882765-217.517061-41.50878587-327.4205673-2.3141758-29.98984649 7.81382854-34.44174212 34.18985637-34.41329551 671.1876569.71116544 1342.3822889.55470904 2013.5769089.55470904z" fill="#22242f" mask="url(#c)" transform="translate(0 2090.2218)"/></g></svg>