<svg height="2048" viewBox="0 0 2048 2048" width="2048" xmlns="http://www.w3.org/2000/svg" xmlns:xlink="http://www.w3.org/1999/xlink"><mask id="a" fill="#fff"><path d="m0 0h2048v1001.285h-2048z" fill="#fff" fill-rule="evenodd"/></mask><mask id="b" fill="#fff"><path d="m0 0h799.105v530.743h-799.105z" fill="#fff" fill-rule="evenodd"/></mask><mask id="c" fill="#fff"><path d="m0 0h426.248v748.134h-426.248z" fill="#fff" fill-rule="evenodd"/></mask><g fill="none" fill-rule="evenodd"><circle cx="1027.5" cy="1021.5" fill="#fff" r="1019.5"/><path d="m1593.72459 732.847921c.39615.705064.79229 1.407167 1.18843 2.112232.28511-.559905.57021-1.116847.85231-1.676751-.74427-.068137-1.49154-.136273-2.23581-.20441 1.53656-2.03817-.06902-3.26759-1.21544-4.615508-5.01782-6.736628-9.95761-13.529542-15.06246-20.198033-92.78767-121.229675-189.60579-239.310257-286.05478-357.68116-7.35267-9.023645-11.023-7.773488-17.55637.201447-12.24444 14.948559-25.57528 29.029118-38.14684 43.725868-4.4116 5.160601-7.31966 6.019714-12.55656.485843-17.39431-18.385009-35.38283-36.219002-53.13727-54.275178-44.78525-45.544818-89.78058-90.894113-134.16968-136.8122-8.63113-8.928846-13.86203-7.809037-21.54182.631004-59.445562 65.328106-123.251711 126.556172-184.176814 190.494886-6.629405 6.958812-9.954611 4.742894-14.8854-1.087221-12.490532-14.764887-25.887392-28.812859-37.864737-43.962866-6.58739-8.330429-9.741534-7.515754-16.157862.278471-33.321089 40.499753-65.858893 81.612734-99.414067 121.937702-58.512228 70.319847-114.989717 142.289783-172.148454 213.699814-10.275728 12.83929-19.723156 26.321432-29.551721 39.507329 5.029824.290321 8.475074-.586566 11.013995-2.586225 44.215041-34.885896 88.472097-69.718468 132.399034-104.956897 38.392929-30.80363 76.464741-62.004229 114.464527-93.284815 5.48599-4.517747 8.886224-4.076341 13.519905.930212 11.461158 12.383071 24.158764 23.72632 34.86965 36.684107 8.261998 9.998294 12.886675 8.540765 21.466788-.002962 74.243935-73.963669 148.971046-147.459271 223.686156-220.960797 14.6123-14.373842 14.70233-13.935398 29.26061.302171 75.64845 73.975519 151.51297 147.737742 226.91833 221.956182 7.22362 7.109898 11.07101 6.997324 17.55036-.186635 10.62386-11.781692 22.8713-22.171029 33.14703-34.21638 7.82084-9.165843 13.12076-7.977898 21.74589-.868 64.39436 53.087233 127.22816 108.037852 193.4952 158.88843 18.88285 14.489378 36.45122 30.65847 56.75059 43.334824.49818 1.786362 1.56356 2.755086 3.54728 2.405516m-1517.9176878 268.437139c-7.6047589-19.25005-14.9964406-38.586009-22.9103117-57.711633-3.4272434-8.280067-.0090033-10.469323 7.6197644-10.673733 46.9280251-1.259044 93.7360071-5.453884 140.7570661-4.825843 16.806097.22811 33.642205-2.186293 50.475312-3.229078 5.26691-.32587 7.025548-2.070758 5.203888-7.444655-4.117494-12.143112-7.874857-24.410648-11.554192-36.692995-2.50891-8.374867-9.351393-5.850853-14.8854-5.853816-60.99713-.035549-122.000261-.260696-182.9883874.471031-11.7702702.142198-16.701059-3.143167-18.7057863-14.578252-3.6553261-20.852736-8.5681085-41.498101-13.3128298-62.152352-2.5989429-11.3077.4801742-15.330716 13.0997525-15.194443 59.4905827.63989 118.99317.130348 178.489755.465105 10.449791.059249 16.974158.088874 12.742623-13.733951-2.715986-8.878485-1.887685-18.980464-1.677609-28.513651.240087-10.931467-5.546012-12.365297-14.948423-12.30901-60.997129.352533-122.0002609-.139235-182.988387.56583-11.83029192.136273-15.61766595-3.646785-16.04982273-14.554553-.777282-19.709228-1.94470553-39.433268-3.94042956-59.053622-1.22444422-12.024614 2.15178065-15.94987 15.09547649-15.772122 55.9883122.779126 111.9946308.219222 167.9889448.592491 10.110669.065174 17.544365-2.651399 25.254162-9.622061 77.031947-69.659219 154.60409-138.737796 231.717066-208.308142 7.049557-6.357433 10.932966-6.54703 17.919501.106649 26.109472 24.863903 26.232517 24.484709 4.387592 53.658987-42.162297 56.31335-84.054495 112.822221-126.2408 169.114833-18.85584 25.163112-38.134835 50.012203-57.272778 74.967943-1.851672 2.417365-3.949433 4.920641-1.46153 7.672764 1.836666 2.035208 4.888774 1.629351 6.770456-.106649 27.664037-25.551193 59.997767-45.236721 88.943268-69.220775 32.354738-26.810238 58.488219-59.326168 86.52139-90.017225 67.608528-74.016994 134.097649-149.032335 200.973912-223.70107 27.61902-30.836217 55.442114-61.506536 82.379886-92.91747 8.51709-9.930157 14.162138-10.161229 21.193689.414744 2.166786 3.261665 5.323932 5.87159 7.976894 8.82516 12.517542 13.911699 12.400499 13.822825 25.131118-.947987 73.118527-84.847737 146.459134-169.5088392 219.211528-254.66170956 8.24699-9.65168562 11.95034-7.37355602 18.77481.69617745 40.26261 47.60372501 81.67463 94.27131411 121.265 142.40531811 32.09064 39.015562 67.85461 74.994605 97.5804 115.953538 5.30292 7.308382 10.4858 11.870567 19.55809.847263 21.86293-26.558429 22.34311-25.634142 45.50851.8917 109.20362 125.048282 220.91915 247.904345 332.6767 370.721896 19.11393 21.006784 42.62746 36.864818 64.99157 54.055957 12.37649 9.51245 24.81 18.953801 37.40858 28.170006 2.4849 1.815986 4.89177 5.495358 10.38376 2.121119-10.13768-18.070989-22.68223-34.545213-34.88765-51.229772-52.6301-71.943274-105.22718-143.91321-158.01033-215.749835-4.03946-5.49832-5.32693-8.748136.56421-14.55159 28.34828-27.915234 27.73006-27.755261 57.71693-.589529 71.80706 65.046673 144.06427 129.613429 215.92534 194.603815 5.82211 5.264287 11.92033 6.120437 19.11694 6.108587 54.99795-.100724 109.9989.364382 164.99085-.242922 13.93106-.15701 18.80183 4.094116 17.51436 17.911017-1.6446 17.653282-2.80302 35.478387-3.13614 53.11982-.30011 15.890621-6.45534 18.302061-20.51244 18.148013-58.9894-.654703-117.99381.079986-176.98621-.497693-12.06438-.118498-17.83847 2.763973-16.40395 15.295167.38714 3.389051-.12005 6.902525-.43816 10.341938-2.64096 28.652886-2.65596 28.661774 27.17486 28.685473 54.49677.041475 108.99954.521393 163.48731-.210334 13.97907-.189597 15.89677 4.476273 12.9527 16.281665-5.11686 20.54464-10.2007 41.175193-13.5169 62.042741-1.88169 11.840942-7.60176 13.553242-18.03655 13.479181-60.49595-.432519-120.99489-.038512-181.49084-.562867-10.61485-.091837-16.42796 2.452914-19.15895 13.221446-2.99209 11.80243-6.56939 23.607822-13.85303 36.435262 21.30773 1.605651 41.46004 2.974307 61.25222 3.489774 47.27015 1.226457 94.43526 4.203727 141.6694 5.806416 8.68515.296246 8.5321 3.889707 5.98417 10.205665-7.61676 18.885665-14.96043 37.877978-22.41213 56.822888-65.43874-.10072-130.87448-.13331-196.31022-.31698-27.41495-.07702-54.83289-.473992-82.24784-.728763-22.8863-17.712532-45.78761-35.404326-68.65591-53.140558-69.99139-54.281103-140.07281-108.449634-209.91115-162.920334-37.4836-29.236491-74.78713-58.71294-111.60149-88.764106-7.61976-6.218198-11.90532-5.554607-18.48371.562867-18.90685 17.588108-38.79807 34.166019-57.31179 52.136284-7.68278 7.456505-11.17905 5.696806-17.17223-1.377542-58.95639-69.614782-118.43496-138.800008-177.13626-208.625125-8.48408-10.090129-12.26845-9.639836-20.50344.053324-49.758052 58.591479-98.234638 118.261292-150.771699 174.530205-10.872944 11.645419-20.107294 24.801692-29.821819 37.463234-4.720712 6.153024-8.322019 5.836041-13.916048.515467-19.306004-18.373159-39.275249-36.064954-58.68329-54.331465-5.840119-5.498321-9.59148-6.523331-17.409316-1.433829-27.15085 17.676982-50.208215 40.262756-75.738478 59.853485-22.802272 17.496273-45.97668 34.740736-67.950652 53.161295-33.978327 28.478101-68.868985 55.756408-103.825667 82.984352-45.769605 35.653172-91.890337 70.867901-137.809996 106.334439-1.026373.793939-1.458529 2.331454-2.169788 3.52236-18.93687.01481-37.87374-.03555-56.807609.05629-74.775128.37031-149.553257.78209-224.3313858 1.17906" fill="#2997ff" mask="url(#a)" transform="translate(0 410.374)"/><path d="m717.925558 1297.71623c-20.662496 29.02616-44.749234 55.32093-69.016038 84.08047h99.459083c-83.895437 126.6717-167.646821 250.21209-248.109012 375.83509.996361.87985 1.992723 1.75674 2.989084 2.63363 170.791962-154.81505 341.583924-309.63011 512.378885-464.44516.86732.67248 1.73463 1.342 2.60195 2.01151-5.48899 8.91403-11.07102 17.77178-16.45197 26.74506-56.411468 94.06098-106.331579 191.58804-157.905289 288.22932-62.704749 117.5029-125.334471 235.04432-187.637073 352.75459-5.293921 10.00126-9.3694 12.59637-21.019626 7.65203-98.912885-41.96321-187.946186-99.10605-269.311705-168.29423-29.950866-25.47121-57.891002-52.99244-84.95182-81.42018-14.381217-15.10853-14.543276-14.97226 2.454891-27.8708 117.186514-88.93889 234.379031-177.86889 351.553541-266.82259 3.091122-2.34627 6.014182-4.90583 9.681513-7.90976-21.970971-13.80802-43.098636-27.08871-65.696835-41.29073 47.02406-28.4544 92.301487-55.85417 137.578913-83.25098.46817.45326.93634.90652 1.401508 1.36273m618.055622-.8043c44.54216 27.01465 89.08432 54.02929 135.8743 82.40963-22.89231 13.80505-44.58418 26.88726-67.72557 40.8434 126.5139 96.07545 252.46059 191.71838 379.16956 287.94195-38.38393 42.67716-79.59788 82.00082-123.97798 118.10132-73.12753 59.48318-152.75542 108.49704-239.68796 146.0373-12.6796 5.47462-17.55937 1.95225-23.21642-8.76295-42.13228-79.77601-84.54067-159.40686-127.23716-238.88663-62.77077-116.8482-125.65559-233.63122-188.94555-350.20392-14.0601-25.8978-30.00188-50.80021-43.47977-78.27404 4.51063 3.74455 9.21034 7.29061 13.5079 11.26326 152.18521 140.65747 306.02402 279.53746 459.91385 418.37006 12.1334 10.94628 25.0801 21.00975 37.65166 31.485.97535.71395 2.41588 2.24554 2.85404 2.00558 2.37386-1.30644.77428-2.86766-.14706-4.31038-41.23796-62.68559-82.35587-125.44821-123.74689-188.03604-37.85574-57.24356-76.01458-114.29457-114.01737-171.44333-2.37986-3.57865-4.56165-7.28468-7.70079-12.32086h97.94954c-24.05073-29.10318-46.76297-56.58589-69.47521-84.06861.81029-.71691 1.62359-1.43383 2.43688-2.15074" fill="#141416"/><path d="m996.46351 95.2187075c-.006002 26.6561905-.612222 53.3331175.270098 79.9596825.393143 11.855754-2.676971 16.257965-15.359572 16.557174-59.496585 1.401242-117.591662 12.317897-174.744396 28.039657-114.524549 31.508695-216.273463 86.305266-305.270751 164.214929-48.356543 42.330551-91.548213 89.214399-128.938778 141.246998-5.152869 7.169146-8.997264 9.376177-17.826467 3.981542-50.520328-30.874729-101.451806-61.08883-152.434302-91.214058-9.024274-5.335385-12.62558-8.47559-4.393594-19.196722 40.265608-52.429568 83.241199-102.465471 132.11393-147.1808 36.646295-33.532053 75.726473-64.069062 116.598301-92.834522 114.104396-80.3122151 240.369204-131.3198036 376.85272-159.2853997 52.438024-10.74483234 105.617317-15.76915978 159.012688-19.11377398 10.962978-.68729008 14.807372 1.80117399 14.417231 13.38438168-.912331 27.1212959-.291106 54.289991-.297108 81.4409115" fill="#2997ff"/><path d="m16.2169831 1.12247504c107.4239729 4.78436841 212.4470739 24.54099556 313.4937329 62.49599746 33.684221 12.6526548 66.468115 27.9211593 98.807847 43.7021685 25.920404 12.649693 51.105541 27.00576 75.615433 42.182429 34.548534 21.388941 65.38172 47.997732 98.648789 71.205622 29.473693 20.565378 54.949936 45.35522 80.099059 70.544993 35.022706 35.075494 67.743577 72.123984 96.650064 112.368965 4.828752 6.721815 10.383768 12.9963 16.082835 19.039713 5.729079 6.073037 4.10549 9.257678-2.679972 13.336982-50.706396 30.50146-101.265739 61.245841-151.648017 92.26573-7.41569 4.565147-11.24508 2.524014-15.698695-3.673447-51.579713-71.804038-113.966347-133.192076-185.542314-185.42316-36.721322-26.795425-76.071598-49.550059-117.09348-69.41926-61.225213-29.654196-125.475522-50.429909-192.31277-63.443983-37.7386915-7.346894-75.7324754-13.653966-114.2814607-13.725065-13.80200727-.026662-16.3580343-4.831768-16.22388591-17.185214.57620904-53.270906.46816985-106.5536614-.13414839-159.8245671-.12994742-11.98313945 2.34294973-18.29021087 16.2169831-14.44790386" fill="#2997ff" mask="url(#b)" transform="translate(1054.332)"/><path d="m211.254556 0c10.701883 41.0715069 22.373117 81.6601333 34.248425 122.204323 58.005044 198.028415 118.588023 395.295479 179.30305 592.524031 2.932064 9.533187 2.073753 12.978525-9.04228 15.185555-93.333861 18.533133-187.436001 21.47189-282.099344 15.298129-41.4060217-2.701761-82.421902-8.194156-123.2337082-15.597337-9.36939915-1.697488-12.42450752-3.072068-9.17432838-13.787276 69.33715508-228.467663 139.37956558-456.736842 203.12869358-686.8160815 2.634956-9.5124501 4.891775-19.03675004 6.869492-29.0113435" fill="#141416" mask="url(#c)" transform="translate(814.154 1299.866)"/><path d="m220.795203 880.215658c-49.764054-11.76688-96.295936-22.772409-142.8308181-33.774975-16.4729762-3.895631-32.9459525-7.797188-49.424931-11.669119-6.8664911-1.611577-10.8249272-3.368314-8.9342413-12.744491 23.8886667-118.388678 65.9699335-229.74152 129.6590394-333.024628 5.275914-8.555577 8.823201-10.575973 18.033542-4.923604 40.256605 24.71578 81.467556 47.950332 121.240986 73.383027 11.554192 7.388369 23.036357 14.690826 35.406845 20.366894 10.03264 4.606621 9.567471 9.207317 4.528643 17.828067-44.68021 76.431397-76.84888 157.703448-95.284568 244.150912-2.361857 11.073665-4.813747 22.144368-6.629406 33.309869-.933338 5.735317-3.343212 7.832737-5.765091 7.098048m1604.168677-12.279386c-9.31838-51.460844-23.38148-101.615245-42.08126-150.510601-16.38295-42.831207-35.25979-84.536679-59.20548-123.80405-4.74172-7.77645-3.72735-11.088477 3.97644-15.783972 50.06716-30.507384 100.0503-61.171779 149.44822-92.718986 9.94561-6.351508 13.80201-4.491085 19.33902 4.345925 48.81571 77.909662 85.98119 160.84069 111.26836 248.973792 7.88686 27.485678 14.26418 55.306114 20.06528 83.286522 1.50655 7.266908.36013 10.418962-7.46671 12.240874-62.06251 14.441978-124.02299 29.292777-186.01348 44.033964-.96335.228109-1.88168.654703-3.8444 1.35088-5.50999-1.516778-4.72071-7.198771-5.48599-11.414348z" fill="#2997ff"/><path d="m300.139188 1410.48098c18.933869-.09479 37.87074-.04443 56.80761-.05978 46.723951.0035 93.447902.0035 140.171853.0035.711258 1.09907 1.425517 2.2011 2.136775 3.30017-19.513079 18.63979-39.536343 36.79076-58.449205 56.0023-64.742488 65.76655-129.241888 131.76417-193.399163 198.0847-7.565745 7.82088-11.013996 7.26987-17.463336-.79098-20.734522-25.90372-40.112553-52.74951-59.667647-79.5005-6.572384-8.9881-3.817385-11.43509 4.681698-15.24481 63.407004-28.42181 126.639945-57.21393 189.920902-85.91125 6.272276-2.84396 12.481529-5.83308 19.336015-9.04142-3.325206-4.29557-7.451703-2.54475-10.827928-2.54179-84.927811.06813-169.858623.07998-254.783434.68433-9.831566.07109-15.605661-2.2574-19.4230461-11.46175-7.3106522-17.64143-15.5306344-34.91552-23.3724794-52.34366 74.7781295-.39697 149.5532565-.81171 224.3313855-1.17906zm1395.680342-.58064c27.41495.25181 54.82989.64878 82.24784.7258 65.43574.18664 130.87148.21923 196.31022.31995-6.41333 19.69145-16.98916 37.58766-24.91504 56.60959-3.20816 7.70239-8.91023 7.64314-15.7077 7.62833-84.45364-.17478-168.91028-.16886-253.36392-.21033-4.99081 0-9.98162 0-15.84875 2.02039 73.17555 34.06826 146.3511 68.13652 220.11786 102.47732-22.11802 31.97084-45.04034 62.25012-69.36716 91.51031-3.63132 4.3637-5.73509 6.89363-11.22408 1.17905-82.83305-86.22231-165.9332-172.19282-248.94931-258.24332-.30011-.31105-.28811-.91243-1.18243-4.01709z" fill="#141416"/><path d="m14.0486968 998.634256c-9.85557557.18071-14.64231216-1.602689-13.54991585-12.682279 2.79701474-28.395152 4.81974858-56.864366 7.10957931-85.306918.74427002-9.233979 2.79401364-13.316245 14.63630994-10.365638 60.7540411 15.132232 121.8051898 29.112067 182.8353318 43.142265 8.93124 2.052982 12.142405 5.841965 10.842933 15.055207-1.782646 12.643768-3.00409 25.48602-2.884046 38.230511.093034 10.253064-4.27355 12.021651-13.426871 11.885378-31.4214-.465106-62.851802-.177748-94.279204-.16886-30.4280391.008887-60.8650814-.340683-91.2841172.210334zm1928.7028232-.12383c-29.45569 0-58.93538-.639891-88.36106.305133-12.24144.394006-15.11949-3.714922-14.82538-14.930785.34513-13.236259-1.17643-26.552504-2.41588-39.788763-.66324-7.071385 1.11041-10.036805 8.91924-11.835016 60.62199-13.956136 121.08493-28.578825 181.58388-43.053391 7.20561-1.72415 12.39149-1.919672 13.13276 7.894949 2.25982 29.944517 5.95416 59.767574 6.51537 89.860214.17106 9.19843-2.49391 11.796505-11.68624 11.64542-30.94723-.509543-61.90646-.195522-92.86269-.195522z" fill="#2997ff"/><path d="m1169.01681 1265.41982c-41.81117 7.18989-79.24675 12.73857-116.28018 20.23655-38.73506 7.84162-74.880171-6.73071-112.249728-10.38638-18.141582-1.77155-36.046077-5.92195-57.788965-9.63095 29.602739-23.82111 56.717576-45.77885 84.01548-67.51143 6.080206-4.8377 7.544737 1.6412 9.618489 4.95323 13.89204 22.19769 27.555994 44.53165 41.406024 66.75601 8.18097 13.13257 9.25836 13.20367 17.28327.02073 13.09375-21.50744 26.17549-43.03561 38.63602-64.90151 4.31256-7.56612 7.4637-10.31231 15.39858-3.77121 25.25116 20.8083 50.9885 41.03892 79.96101 64.23496m220.16738-51.86581c-24.43487 19.97881-47.15611 38.31938-69.53523 57.05396-4.80774 4.02302-7.22962 2.83508-10.65387-1.33014-13.82301-16.82676-27.70005-33.61796-41.98823-50.0596-4.65169-5.3502-4.4266-8.80442.92434-13.3044 13.28282-11.17735 24.70196-28.72694 39.73141-32.44779 14.27618-3.53421 29.28463 13.01407 44.22404 20.22766 12.02237 5.80641 23.59456 12.51638 37.29754 19.86031m-727.109494 1.8862c26.256526-14.16944 51.522692-27.76711 76.73784-41.45959 3.631317-1.973 6.305288-1.39532 9.336387 1.33903 12.166414 10.97887 24.326826 21.97847 36.913392 32.47742 4.978806 4.15336 3.214166 6.20338-.201073 10.18196-14.519267 16.90675-28.645392 34.14825-42.66948 51.46085-3.382227 4.1741-5.467984 7.5039-11.365123 2.53882-22.379119-18.8353-45.160384-37.2055-68.751943-56.53849m671.468404 83.62157c-.98136-1.29459-1.96571-2.58918-2.94707-3.88378 2.36486-1.14943 4.27655-.92132 5.38395 1.73304-.81029.71691-1.62358 1.43383-2.43688 2.15074m-617.01965-2.70857c.726263-1.30941 1.965713-2.64548 3.166148-1.25905 1.275463 1.46642-.270098 2.3048-1.76464 2.62178-.465169-.45622-.933338-.90948-1.401508-1.36273" fill="#141416"/><g fill="#fdfdfe"><path d="m1590.17821 1140.8165c-20.29937-12.67635-37.86774-28.84544-56.75059-43.33482-66.27005-50.85354-129.10384-105.8012-193.4952-158.888433-8.62513-7.109897-13.92505-8.297843-21.74589.868-10.27873 12.045351-22.52317 22.434689-33.14703 34.216381-6.47935 7.183959-10.32674 7.296532-17.55036.186635-75.40536-74.218441-151.26988-147.980663-226.92133-221.959145-14.55528-14.234607-14.64531-14.673051-29.25761-.299208-74.71511 73.501526-149.44222 146.997127-223.689157 220.960796-8.577111 8.543727-13.201789 10.001256-21.463787.002963-10.710885-12.957788-23.408492-24.301037-34.86965-36.684108-4.633681-5.006552-8.033915-5.447959-13.519905-.930211-37.999786 31.280585-76.071598 62.481185-114.467528 93.28482-43.923935 35.23842-88.183992 70.071-132.399033 104.95393-2.53592 2.00262-5.984171 2.87951-11.010995 2.58919 9.828566-13.1859 19.275993-26.67101 29.551721-39.50733 57.155736-71.41003 113.636226-143.379969 172.148454-213.699816 33.555174-40.324968 66.092978-81.440912 99.414067-121.937702 6.413327-7.794225 9.570472-8.608901 16.157862-.278471 11.977345 15.150006 25.374206 29.195016 37.864737 43.962865 4.930789 5.830116 8.255995 8.046034 14.8854 1.087222 60.925104-63.938714 124.731252-125.16678 184.176814-190.494887 7.67979-8.44004 12.91069-9.559849 21.54182-.633966 44.3891 45.92105 89.38143 91.270345 134.16968 136.815162 17.75144 18.053215 35.74296 35.890169 53.13727 54.275179 5.2339 5.53387 8.14196 4.674757 12.55656-.485843 12.57156-14.69675 25.89939-28.777309 38.14684-43.725869 6.53337-7.974934 10.2007-9.225091 17.55337-.204409 96.45199 118.373865 193.27011 236.454448 286.05778 357.681155 5.10485 6.67146 10.04464 13.46437 15.05346 20.20396-.75328.61916-1.46153 1.27682-2.12777 1.97596"/><path d="m1593.72489 1143.22142c-1.98372.34957-3.0491-.61915-3.54728-2.40551.66924-.69914 1.37449-1.35681 2.13077-1.97596 1.15242 1.34496 2.758 2.57438 1.22144 4.61255z"/><path d="m1593.52952 1143.45161c.74427.06813 1.49154.13627 2.23581.20737-.2821.55694-.5672 1.11685-.85231 1.67379-.39614-.70507-.79228-1.40717-1.18843-2.11223 0 0-.19507.23107-.19507.23107m-42.9951 611.48138c.92134 1.43976 2.52392 3.00097.14706 4.30742-.43816.23996-1.87869-1.29163-2.85404-2.00559.90033-.76727 1.80366-1.53455 2.70698-2.30183"/></g></g></svg>