<svg height="127" viewBox="0 0 1026 127" width="1026" xmlns="http://www.w3.org/2000/svg" xmlns:xlink="http://www.w3.org/1999/xlink"><defs><path id="a" d="m57.104 35.524c1.162-2.656 2.988-3.818 5.644-3.818s4.482 1.162 5.478 3.818l34.03 90.138h21.746l-37.848-99.6c-3.984-10.458-11.62-14.442-23.24-14.442-11.786 0-19.422 3.984-23.572 14.442l-39.342 99.6h21.58z"/><path id="b" d="m179.941508 38.014v87.648h17.596v-87.648zm0-33.034v20.418h17.762v-20.418z"/><path id="c" d="m250.241261 38.014c-21.912 0-30.544 12.284-30.544 28.884v29.88c0 16.6 8.632 28.884 30.544 28.884h53.618v-17.098h-53.618c-9.628 0-13.446-5.146-13.446-12.118v-6.308h41.666c21.58 0 29.714-9.13 29.714-25.232 0-16.932-8.798-26.892-29.548-26.892zm-13.446 29.05c0-6.806 3.818-12.118 13.446-12.118h28.22c8.632 0 12.45 4.316 12.45 10.956 0 6.474-3.486 10.458-12.948 10.458h-41.168z"/><path id="d" d="m340.793015 38.014c-8.798 0-12.284 3.32-12.284 13.612v74.036h17.596v-68.226c0-1.66.664-2.49 2.158-2.49h28.718c18.426 0 26.394 7.636 26.394 21.414v49.302h17.762v-49.302c0-24.236-14.442-38.346-44.156-38.346z"/><path id="e" d="m518.410523 13.612c-24.9 0-34.86 13.612-34.86 32.204 0 15.604 6.972 32.37 36.852 32.37h26.062c13.778 0 17.596 6.64 17.596 13.944 0 8.134-4.814 13.944-15.438 13.944h-63.08v19.588h62.416c25.564 0 35.69-13.944 35.69-32.868 0-16.102-7.138-33.034-37.682-33.034h-26.228c-13.114 0-16.6-6.474-16.6-13.28 0-7.802 4.482-13.28 14.608-13.28h57.436v-19.588z"/><path id="f" d="m594.354276 38.014v16.932h11.952v40.504c0 22.908 7.802 30.212 25.896 30.212h15.77v-16.102h-12.118c-8.3 0-11.786-3.32-11.786-13.114v-41.5h24.236v-16.932h-24.236v-20.75h-17.762v20.75z"/><path id="g" d="m663.65803 38.014v53.12c0 20.252 12.948 34.528 38.014 34.528h16.268c25.066 0 38.014-14.276 38.014-34.528v-53.12h-17.264v52.456c0 10.292-7.47 18.094-21.414 18.094h-14.276c-13.944 0-21.58-7.802-21.58-18.094v-52.456z"/><path id="h" d="m851.983784 0v38.014h-38.678c-23.406 0-38.014 14.276-38.014 43.824s14.608 43.824 38.014 43.824h24.236c20.916 0 32.204-12.284 32.204-37.516v-88.146zm-19.588 108.564h-17.43c-15.106 0-21.912-7.802-21.912-26.726s6.806-26.892 21.912-26.892h37.018v32.37c0 14.94-5.478 21.248-19.588 21.248z"/><path id="i" d="m893.565538 38.014v87.648h17.596v-87.648zm0-33.034v20.418h17.762v-20.418z"/><path id="j" d="m969.011291 38.014c-23.406 0-38.014 14.276-38.014 43.824s14.608 43.824 38.014 43.824h18.426c23.239999 0 38.013999-14.276 38.013999-43.824s-14.774-43.824-38.013999-43.824zm16.766 16.932c15.105999 0 21.911999 7.968 21.911999 26.892s-6.806 26.726-21.911999 26.726h-15.106c-15.272 0-21.912-7.802-21.912-26.726s6.64-26.892 21.912-26.892z"/><path id="k" d="m138.36 0v125.662h17.596v-125.662z"/></defs><g fill="none" transform="translate(0 .724)"><use fill="#dfd5c9" xlink:href="#a"/><use fill="#8dc85a" xlink:href="#a"/><use fill="#dfd5c9" xlink:href="#k"/><use fill="#8dc85a" xlink:href="#k"/><use fill="#dfd5c9" xlink:href="#b"/><use fill="#8dc85a" xlink:href="#b"/><use fill="#dfd5c9" xlink:href="#c"/><use fill="#8dc85a" xlink:href="#c"/><use fill="#dfd5c9" xlink:href="#d"/><use fill="#8dc85a" xlink:href="#d"/><use fill="#dfd5c9" xlink:href="#e"/><use fill="#8dc85a" xlink:href="#e"/><use fill="#dfd5c9" xlink:href="#f"/><use fill="#8dc85a" xlink:href="#f"/><use fill="#dfd5c9" xlink:href="#g"/><use fill="#8dc85a" xlink:href="#g"/><use fill="#dfd5c9" xlink:href="#h"/><use fill="#8dc85a" xlink:href="#h"/><use fill="#dfd5c9" xlink:href="#i"/><use fill="#8dc85a" xlink:href="#i"/><use fill="#dfd5c9" xlink:href="#j"/><use fill="#8dc85a" xlink:href="#j"/></g></svg>