<svg height="2048" viewBox="0 0 2048 2048" width="2048" xmlns="http://www.w3.org/2000/svg" xmlns:xlink="http://www.w3.org/1999/xlink"><mask id="a" fill="#fff"><path d="m0 0h2048v2048h-2048z" fill="#fff" fill-rule="evenodd"/></mask><g fill="none" fill-rule="evenodd"><path d="m942.744092 1073.27373c8.064757 8.10539 16.132246 16.20802 24.197003 24.3134-7.195698 9.90322-14.394129 19.80369-21.592559 29.7069-15.531011 15.79504-30.796931 31.8654-46.636758 47.34107-89.51306 87.45777-179.310341 174.62094-268.705886 262.19985-47.426563 46.46555-76.182026 102.73246-86.198065 168.91084-14.268416 94.27466 41.255698 188.48324 130.104666 214.05485 79.997139 23.02491 150.289788-.16244 209.790256-56.11548 58.265203-54.79394 86.916815-124.31469 90.729196-204.00021 4.930132-103.03806 8.726116-206.13393 13.238116-309.19402 1.52222-34.72596 3.741326-69.42163 5.643417-104.13107 2.022338-10.94117 4.044676-21.87959 6.067014-32.82075 13.153398-.48181 26.306798-.96362 39.460188-1.44818 2.22184 12.1801 4.44368 24.35745 6.66279 36.5348-.05466 7.7282-.32795 15.46191-.13118 23.18184 2.89959 113.19182 5.68168 226.38914 8.92015 339.56995.91825 32.02783.64769 64.40532 5.38379 95.94309 11.80335 78.63105 46.2077 145.16183 111.93915 192.24135 43.23705 30.96785 91.58186 45.36978 144.33482 35.73087 90.93417-16.61549 157.11928-95.73385 161.03825-190.57842 3.21387-77.77756-22.88249-145.0875-76.25035-200.55598-92.47278-96.11104-186.22182-190.97488-279.4926-286.30676-6.00689-6.13961-12.48384-11.81118-18.74216-17.70025-10.24013-13.99721-20.483-27.99717-30.72587-41.98061 8.22053-8.11089 16.44106-16.21903 24.66159-24.32717 12.32806 9.30302 24.6534 18.60605 36.98146 27.90907 21.47778 18.67212 43.00475 37.28367 64.42513 56.02462 91.71577 80.24166 182.23727 161.92875 275.48892 240.31201 66.00475 55.48224 142.82354 79.88375 228.95055 58.75028 122.13009-29.96295 179.55903-160.21352 118.89982-271.11468-44.9615-82.20193-117.71922-126.26671-208.85288-132.14476-89.34089-5.75967-179.23109-2.7642-268.87532-3.91228-67.78933-.86726-135.57318-2.21081-203.35704-3.34237-10.39864-1.42065-20.79729-2.84129-31.19593-4.27295.57937-11.99013 1.15874-23.98302 1.73538-35.97315 10.94523-2.05113 21.88771-4.10225 32.8302-6.153378 1.83651.944348 3.7386 2.822018 5.49858 2.692618 58.43464-4.283961 116.82009-9.297516 175.28752-13.085903 93.06309-6.029481 186.28195-9.941761 279.24391-17.243216 76.32687-5.99369 142.29882-36.432936 192.55939-96.32028 78.94224-94.062666 53.80513-225.554921-53.79693-284.027127-77.92014-42.34403-187.08814-31.537768-256.83968 30.381429-83.61275 74.225947-164.25485 151.849328-246.32625 227.842821-33.42597 30.951339-67.23181 61.489699-100.86549 92.21803 0 0 .20224-.132153.20224-.132153-1.21887.952603-2.43774 1.905206-3.65661 2.857809-12.19142 8.614725-24.38557 17.226697-36.58519 25.824903-7.11371-8.210007-14.23015-16.422766-21.3466-24.632773 8.95841-13.741161 17.91409-27.482322 26.8725-41.223483 3.63748-2.571477 7.8106-4.622602 10.83318-7.788768 43.54039-45.625831 86.9824-91.350776 130.33969-137.158317 57.49453-60.740832 116.72444-119.948139 171.81676-182.828198 53.74227-61.338274 77.97207-134.961273 62.73074-216.604308-21.51877-115.275979-141.84515-193.953831-259.59443-140.517206-94.14257 42.72397-140.88865 121.779009-149.15017 222.834772-7.35694 89.998961-8.97754 180.465963-13.7683 270.690685-3.27673 61.720967-7.64936 123.381364-11.53279 185.069293-1.91576 9.8454-3.83151 19.6908-5.74727 29.5362-12.45377-.154178-24.91028-.308357-37.36679-.465288-1.99775-11.73684-3.992756-23.476434-5.990498-35.216027-.527448-21.995219-1.25713-43.987684-1.546816-65.985656-1.623336-123.794342-2.806677-247.594191-4.818084-371.380274-1.172409-72.064694-26.260334-135.3302-74.818313-188.122578-49.235736-53.530233-110.05619-79.743336-182.74285-65.806698-86.900418 16.665046-148.128072 93.960798-150.817235 187.357192-2.019606 70.189773 19.578419 133.113884 65.056432 186.052181 97.766386 113.80027 196.833628 226.46898 295.370688 339.600226 6.679182 10.591514 13.355631 21.183028 20.034813 31.774542-7.61383 8.210006-15.230393 16.420013-22.844223 24.630019-13.765564-10.448348-27.528395-20.896696-41.293959-31.347798-.915518-1.522512-1.571411-3.312085-2.787547-4.5345-99.712203-99.965501-199.621175-199.730019-299.15574-299.874477-48.585308-48.880099-105.413011-79.404693-174.467661-87.556883-135.813672-16.031813-241.849781 111.104899-199.345152 241.941897 29.903276 92.050085 97.238938 146.48887 187.771366 168.412506 50.35622 12.193869 103.603838 12.854634 155.679045 17.09179 86.640794 7.050915 173.388169 12.788558 260.089086 19.096112 25.798476 1.877674 51.594219 3.818672 77.392696 5.729384 8.111215 2.10344 16.225164 4.20687 24.339113 6.31031.251426 11.63222.502851 23.26443.75701 34.89665-9.936786 1.35182-19.870839 2.70363-29.807625 4.05545-14.538971.63599-29.077943 1.8171-43.616915 1.82812-136.532422.11012-273.064845-.07159-409.597267.03028-61.402559.04681-117.451388 17.91224-166.717186 54.78844-46.644957 34.91593-79.057025 80.13429-85.061183 139.76008-8.316183 82.56811 36.273641 154.21982 116.549535 185.09683 93.563202 35.98967 181.914784 20.55805 258.971334-41.85947 103.125582-83.53173 203.179396-170.91516 304.468477-256.74304 12.00285-10.16752 23.49465-20.94625 35.221479-31.44416 11.398882-7.71718 22.79503-15.43712 34.193912-23.15431m97.946758-1072.98892057c247.74462 5.81473292 467.34595 87.96160147 655.2157 251.01915657 174.54692 151.49692 286.08707 341.904645 332.17998 569.791517 21.58982 106.72733 25.17538 214.583467 12.93476 323.028787-45.67478 404.62227-341.34608 754.01007-750.38857 866.92657-106.83138 29.49215-215.61951 43.10942-325.590983 34.30472-361.148604-28.92224-639.19004-198.17171-828.699524-510.04183-81.7735169-134.57582-126.65302686-282.5817-134.68772175-440.26503-17.57521185-344.968947 104.86369975-631.267454 364.53738675-855.982654 137.20198-118.73123 297.59526-191.7815653 475.976418-223.5093031 65.578414-11.66525727 131.771729-16.87979523 198.522554-15.27193347" fill="#2d334a" mask="url(#a)"/><path d="m993.312385 1146.36041c-1.899358 34.70944-4.121198 69.40511-5.640684 104.13107-4.514733 103.06009-8.310717 206.15596-13.240849 309.19402-3.812381 79.68552-32.463994 149.20627-90.729196 204.00022-59.500468 55.95303-129.790384 79.13763-209.787523 56.11547-88.851701-25.57161-144.375815-119.78019-130.1074-214.05485 10.01604-66.17838 38.771503-122.44528 86.200798-168.91084 89.392813-87.58166 179.190094-174.74208 268.703154-262.19985 15.839827-15.47567 31.10848-31.54603 46.631292-47.34382-2.31749 4.44089-4.33163 9.07451-6.990731 13.29514-26.798714 42.53676-54.283383 84.64952-80.336018 127.6433-12.953895 21.37851-24.369175 43.87481-34.540989 66.74003-7.600165 17.08629-5.987761 35.11691 4.695104 51.17351 19.613947 29.48389 60.631885 28.34957 84.052747-3.98937 10.494295-14.48728 18.373216-31.7773 23.773405-48.96545 18.211975-57.96011 34.743223-116.45434 52.042413-174.70629 1.246198-4.19586 3.492633-8.08887 5.274477-12.12229m109.190955-6.20816c6.25832 5.88906 12.73527 11.56063 18.74216 17.70024 93.27078 95.33189 187.01982 190.19573 279.4926 286.30677 53.36786 55.46848 79.46422 122.77841 76.25035 200.55597-3.91897 94.84457-70.10408 173.96294-161.03825 190.57843-52.75296 9.63891-101.09777-4.76302-144.33482-35.73088-65.73145-47.07951-100.1358-113.6103-111.93915-192.24135-4.7361-31.53776-4.46554-63.91525-5.38379-95.94309-3.23847-113.18355-6.02056-226.37812-8.92015-339.56994-.19677-7.72269.07652-15.45364.13118-23.18184 2.78754 7.02338 6.28838 13.85129 8.25059 21.10043 15.37524 56.83681 29.18726 114.14717 46.33887 170.42784 5.7664 18.92541 17.62167 37.1818 30.60563 52.34361 15.55834 18.17104 42.74786 19.90555 61.27685 8.5514 18.14365-11.11737 27.79075-34.87188 21.79752-57.61321-3.22754-12.24893-7.70948-24.57771-13.94046-35.5354-21.88498-38.48406-44.87951-76.32938-67.24002-114.54638-10.28659-17.58186-20.0758-35.45831-30.08911-53.2026m-57.11083-241.374193c3.88344-61.687929 8.25333-123.351079 11.5328-185.072047 4.78802-90.224721 6.41135-180.691724 13.76829-270.690684 8.26153-101.055764 55.00487-180.108049 149.15017-222.832019 117.74928-53.436625 238.07567 25.241227 259.59444 140.514452 15.23859 81.643036-8.98848 155.268787-62.73075 216.607061-55.09505 62.88006-114.32223 122.087366-171.81675 182.828199-43.35729 45.804787-86.7993 91.529733-130.34243 137.158316-3.01984 3.166166-7.19297 5.217292-10.83864 7.786016.47825-1.618875.64769-3.438732 1.50309-4.829092 29.69831-48.252372 59.97052-96.157842 88.92549-144.858983 9.24263-15.547252 16.64056-32.680341 21.99976-49.992387 8.24512-26.62608-2.06333-51.903099-23.02186-62.962655-21.72921-11.464274-46.38807-5.897328-64.4388 16.194252-7.37607 9.02495-13.51687 19.688047-17.73372 30.585165-7.4034 19.137409-13.07415 38.971375-19.15209 58.612618-15.56107 50.286977-30.94451 100.631772-46.399 150.951788m94.7061 147.548573c67.78659 1.13156 135.56771 2.47512 203.35703 3.34237 89.64697 1.14808 179.53444-1.85014 268.87806 3.91228 91.13093 5.87806 163.89138 49.94283 208.85288 132.14476 60.65648 110.90116 3.23027 241.14898-118.89982 271.11468-86.12975 21.13071-162.9458-3.26804-228.95055-58.75028-93.25438-78.38601-183.77315-160.07035-275.49165-240.31201-21.41765-18.74095-42.94736-37.35525-64.42513-56.02187 5.03671 1.7648 10.42597 2.87158 15.05822 5.39074 50.72242 27.60071 101.1497 55.75757 152.0525 83.01413 18.84327 10.09043 38.60753 18.20958 60.90517 17.28176 22.56-.93884 40.2254-11.95985 47.32272-30.68979 7.22302-19.05481 1.92395-41.76861-15.99561-55.42993-12.0739-9.20116-26.05536-17.52129-40.47682-21.62354-40.57248-11.53861-81.82818-20.62688-122.78052-30.80817-29.82949-7.41709-59.60706-15.03516-89.40648-22.56513m-198.128745-131.980672c-98.534328-113.131246-197.604303-225.799956-295.370689-339.600226-45.478012-52.938297-67.076037-115.862408-65.056432-186.052181 2.691896-93.396394 63.916818-170.692146 150.819968-187.357192 72.68666-13.936638 133.504381 12.276465 182.74285 65.806698 48.557979 52.792378 73.645904 116.057884 74.81558 188.122578 2.011407 123.786083 3.197481 247.585932 4.820817 371.380274.286954 21.997972 1.019368 43.990437 1.544083 65.985656-1.770913-4.515228-4.077471-8.89555-5.233484-13.56771-11.980987-48.343227-22.475282-97.110445-36.156127-144.952592-7.19843-25.180657-17.935953-49.868493-30.679416-72.741979-10.756653-19.308107-30.080914-29.690378-53.195693-26.155285-29.763898 4.548266-46.568435 33.613671-37.249282 66.181132 5.105037 17.846164 12.850046 35.276597 21.740135 51.605754 26.440705 48.557976 54.127608 96.427655 81.041103 144.729584 2.779348 4.986023 3.656606 11.051296 5.416587 16.615489m-38.927004 85.362317c-25.798476-1.910713-51.594219-3.85171-77.392695-5.729384-86.700917-6.307554-173.448293-12.045198-260.089086-19.096112-52.072475-4.237156-105.322825-4.897921-155.676313-17.091791-90.535161-21.923635-157.86809-76.36242-187.771366-168.412506-42.504629-130.836997 63.528747-257.97371 199.34242-241.941896 69.05465 8.152189 125.885085 38.676784 174.46766 87.556883 99.534566 100.144458 199.443537 199.911729 299.15574 299.87723 1.216136 1.219662 1.872029 3.009234 2.79028 4.5345-4.815351-2.249354-9.920388-4.03342-14.402327-6.825153-48.700089-30.34839-96.856334-61.630112-146.206851-90.860708-15.260454-9.038716-33.292059-14.914019-50.798948-18.11047-21.073311-3.85171-39.626897 4.160067-51.014847 23.859127-9.740018 16.852263-7.326877 39.213655 8.420032 55.829145 9.783744 10.321701 21.986096 20.010169 34.986451 25.199929 29.476945 11.767125 59.989655 20.998564 90.319262 30.488803 44.516036 13.928378 89.237038 27.182224 133.870588 40.722403m235.188359-57.324126c33.63367-30.725578 67.43952-61.263938 100.86549-92.21803 82.0714-75.993494 162.7135-153.616874 246.32625-227.842821 69.74881-61.919197 178.91681-72.72546 256.83968-30.381429 107.60206 58.472205 132.73917 189.964461 53.7942 284.027127-50.25784 59.887344-116.22979 90.32659-192.55939 96.32028-92.95923 7.301454-186.17809 11.213735-279.24391 17.243216-58.4647 3.788387-116.85015 8.801942-175.28479 13.085898-1.75998.1294-3.66481-1.74827-5.49858-2.68986 27.33163-8.08336 54.67966-16.114409 81.99215-24.266599 46.53564-13.884326 93.4129-26.760986 139.35003-42.429379 13.85302-4.724471 26.88344-15.605069 37.04705-26.683898 13.01402-14.18993 16.87833-32.432553 7.59197-51.04961-9.08413-18.206832-24.86929-28.622142-44.30287-25.81389-20.27257 2.926638-41.58365 7.761236-59.3365 17.502015-51.09136 28.043973-100.57033 59.058635-150.81996 88.666418-5.10504 3.009234-11.15293 4.394088-16.76082 6.530562m-229.679947 154.044721c-11.726829 10.49515-23.221361 21.27388-35.221479 31.44416-101.291813 85.82788-201.342895 173.21131-304.468477 256.74303-77.059283 62.41753-165.410865 77.84639-258.971334 41.85947-80.278627-30.87975-124.86845-102.53147-116.552268-185.09682 6.006891-59.62855 38.416227-104.84691 85.061183-139.76008 49.265798-36.8762 105.31736-54.74439 166.719919-54.78844 136.52969-.10187 273.062112.07984 409.594534-.03029 14.541705-.01101 29.080677-1.19213 43.605984-1.82811-4.695104 1.60235-9.280893 3.65072-14.082579 4.74374-61.080079 13.88708-122.433446 26.65912-183.144585 42.0164-18.386879 4.65289-36.421217 14.34411-52.075207 25.38164-18.307627 12.91245-23.024594 35.13618-16.107651 53.94046 6.974334 18.97222 24.820102 32.96392 47.030294 30.00149 22.032555-2.93766 44.475043-9.21492 64.619171-18.62807 34.937258-16.32365 68.150063-36.37512 102.270187-54.51037 20.392821-10.84206 41.135452-21.01508 61.722308-31.48821" fill="#fdfdfd"/><path d="m1138.23122 942.384149c5.60789-2.136474 11.65578-3.521328 16.76082-6.530562 50.24963-29.607783 99.7286-60.622445 150.81996-88.666418 17.75285-9.740779 39.06393-14.575377 59.3365-17.502015 19.43358-2.808252 35.21874 7.607058 44.30287 25.81389 9.28636 18.617057 5.42205 36.85968-7.59197 51.04961-10.16361 11.078829-23.19403 21.959427-37.04705 26.683898-45.93713 15.668393-92.81439 28.545053-139.35003 42.429379-27.31249 8.15219-54.66052 16.183239-81.99215 24.266599-10.94522 2.04837-21.88771 4.0995-32.8302 6.14787-4.14579-11.70931-8.29158-23.418618-12.44011-35.127926 12.19142-8.611972 24.38284-17.223944 36.57699-25.835916 1.2216-.952603 2.43774-1.907959 3.65661-2.860562zm-196.261355-28.038191c-1.759981-5.564193-2.637239-11.629466-5.416587-16.615489-26.913495-48.301929-54.600398-96.171608-81.041103-144.729584-8.890089-16.329157-16.635098-33.75959-21.740135-51.605754-9.319153-32.567461 7.485384-61.632866 37.249282-66.181132 23.114779-3.535093 42.43904 6.847178 53.195693 26.155285 12.743463 22.873486 23.480986 47.561322 30.679416 72.741979 13.680845 47.842147 24.17514 96.609365 36.156127 144.952592 1.156013 4.67216 3.462571 9.052482 5.233484 13.56771 1.997742 11.739593 3.995488 23.479187 5.987758 35.216027-13.42395 6.090051-26.84517 12.182856-40.26639 18.272908-6.679182-10.591514-13.358364-21.183028-20.037545-31.774542m160.533475 225.806292c10.01331 17.74429 19.80252 35.62074 30.08911 53.2026 22.36051 38.217 45.35504 76.06232 67.24002 114.54638 6.23098 10.95769 10.71292 23.28647 13.94046 35.5354 5.99323 22.74133-3.65387 46.49584-21.79752 57.61321-18.52899 11.35415-45.71851 9.61964-61.27685-8.5514-12.98396-15.16181-24.83923-33.4182-30.60563-52.34361-17.15161-56.28067-30.96363-113.59103-46.33887-170.42784-1.96221-7.24914-5.46305-14.07705-8.25059-21.10043-2.21911-12.17735-4.44095-24.35746-6.65459-36.53756 10.98075-4.64463 21.95603-9.28925 32.93132-13.93113 10.24014 13.99721 20.48301 27.99717 30.72314 41.99438m-199.460479-140.443975c-44.63355-13.540179-89.354552-26.794025-133.870588-40.722403-30.329607-9.490239-60.842317-18.721678-90.319262-30.488803-13.000355-5.18976-25.202707-14.880981-34.986451-25.199929-15.746909-16.61549-18.16005-38.976882-8.420032-55.829145 11.38795-19.69906 29.941536-27.710837 51.014847-23.859127 17.506889 3.196451 35.538494 9.071754 50.798948 18.11047 49.350517 29.230596 97.506762 60.512318 146.206851 90.860708 4.481939 2.791733 9.586976 4.573046 14.402327 6.825153 13.762831 10.448349 27.525663 20.896697 41.291227 31.345045-3.92443 11.753359-7.851592 23.512225-11.778754 35.268336-8.113949-2.10343-16.225164-4.20687-24.339113-6.310305m237.055749 46.618355c29.79942 7.52997 59.57699 15.14804 89.40648 22.56513 40.95234 10.18129 82.20804 19.26956 122.78052 30.80817 14.42146 4.10225 28.40292 12.42238 40.47682 21.62354 17.91956 13.66132 23.21863 36.37512 15.99561 55.42993-7.09732 18.72994-24.76272 29.75095-47.32272 30.68979-22.29764.92782-42.0619-7.19133-60.90517-17.28176-50.9028-27.25656-101.33008-55.41342-152.0525-83.01413-4.63225-2.51916-10.02151-3.62594-15.05822-5.39074-12.32533-9.30577-24.6534-18.6088-36.97326-27.91182 4.15672-10.59426 8.30798-21.18853 12.45924-31.7828 10.39864 1.4234 20.79455 2.84404 31.1932 4.26469m-94.7061-147.548573c15.45449-50.320016 30.83793-100.664811 46.399-150.951788 6.07794-19.641243 11.74869-39.475209 19.15209-58.612618 4.21685-10.897118 10.35765-21.560215 17.73372-30.585165 18.05073-22.09158 42.70959-27.658526 64.4388-16.194252 20.95853 11.059556 31.26698 36.336575 23.02186 62.962655-5.3592 17.312046-12.75713 34.445135-21.99976 49.992387-28.95497 48.701141-59.22718 96.606611-88.92549 144.858983-.8554 1.39036-1.02484 3.210217-1.50309 4.829092-8.95021 13.741161-17.90863 27.482322-26.85884 41.237249-12.39912-5.99369-24.8037-11.998393-37.20829-18.000343 1.91576-9.8454 3.83425-19.6908 5.75-29.5362m-52.080125 247.582353c-1.781844 4.03342-4.028279 7.92643-5.274477 12.12229-17.29919 58.25195-33.830438 116.74618-52.042413 174.70629-5.400189 17.18815-13.27911 34.47817-23.773405 48.96545-23.420862 32.33894-64.4388 33.47326-84.052747 3.98937-10.682865-16.0566-12.295269-34.08722-4.695104-51.17351 10.171814-22.86522 21.587094-45.36152 34.540989-66.74003 26.052635-42.99378 53.537304-85.10654 80.336018-127.6433 2.659101-4.22063 4.673241-8.85425 6.990731-13.29514 7.203896-9.90046 14.402327-19.80368 21.608956-29.69589 10.816777 5.31916 21.625354 10.63282 32.431199 15.94372-2.022338 10.93841-4.047409 21.87958-6.069747 32.82075m-84.761112-49.93154c-20.586856 10.47313-41.329487 20.64615-61.722308 31.48821-34.120124 18.13525-67.332929 38.18672-102.270187 54.51037-20.144128 9.41315-42.586616 15.69041-64.619171 18.62807-22.210192 2.96243-40.05596-11.02927-47.030294-30.00149-6.916943-18.80428-2.199976-41.02801 16.107651-53.94046 15.65399-11.03753 33.688328-20.72875 52.075207-25.38164 60.711139-15.35728 122.064506-28.12932 183.144585-42.0164 4.801686-1.09302 9.387475-3.14139 14.082579-4.74374 9.947717-1.35182 19.884503-2.70363 29.818556-4.0527 4.867276 10.78699 9.737285 21.57123 14.607294 32.35547-11.398881 7.71718-22.79503 15.43712-34.193912 23.15431" fill="#e6602e"/><path d="m1020.40707 1058.21269c21.52424-.20098 38.84256-17.84341 38.69771-39.4229-.14484-21.69787-18.87606-40.171761-40.4003-39.841378-20.592322.316616-38.673118 19.063073-38.719679 40.149738-.04909 22.0613 17.793945 39.32654 40.422269 39.11454m-77.663251 15.05994c-4.870009-10.78148-9.737285-21.56572-14.604561-32.35271-.254159-11.63773-.505585-23.26995-.757011-34.90216 3.927163-11.756117 7.854325-23.512229 11.778754-35.268342 7.61383-8.207253 15.230393-16.41726 22.844222-24.627266 13.423953-6.092805 26.845173-12.182857 40.269127-18.272908 12.45924.154178 24.91575.308357 37.36953.465288 12.40185 6.00195 24.80644 12.006653 37.20556 18.000343 7.11097 8.198994 14.22742 16.409 21.34659 24.627266 4.15126 11.714815 8.29706 23.424123 12.44558 35.136189-.57937 11.99288-1.15874 23.98302-1.73538 35.97866-4.15126 10.59977-8.30252 21.19404-12.46198 31.78555-8.22599 8.11089-16.44653 16.21903-24.66706 24.32166-10.97255 4.63637-21.94783 9.281-32.92858 13.92563-13.1616.48456-26.31499.96637-39.465658 1.44817-10.808578-5.3109-21.614422-10.62179-32.431199-15.94095-8.075688-8.11365-16.140445-16.21903-24.207934-24.32442m195.689371-131.02146c-1.21614.955356-2.43501 1.907959-3.65388 2.860562 1.21614-.952603 2.43501-1.907959 3.65388-2.860562" fill="#fdfdfd"/><path d="m1020.40707 1058.21269c-22.628324.212-40.471359-17.05324-40.422269-39.11454.046561-21.086665 18.127357-39.833122 38.719679-40.149738 21.52424-.330383 40.25546 18.143508 40.4003 39.841378.14485 21.57949-17.17347 39.22192-38.69771 39.4229" fill="#e6602e"/></g></svg>