<svg width="4096" height="4096" viewBox="0 0 4096 4096" version="1.1" xmlns="http://www.w3.org/2000/svg" xmlns:xlink="http://www.w3.org/1999/xlink"><title>mdx-gen</title><defs><polygon id="path-1" points="8.02149546e-14 0 4006.23916 0 4006.23916 2186.14068 8.02149546e-14 2186.14068"/><polygon id="path-3" points="0 0 4096 0 4096 2494.49875 0 2494.49875"/></defs><g id="mdx-gen" stroke="none" stroke-width="1" fill="none" fill-rule="evenodd"><g><g id="Group-3" transform="translate(45.6046, 1909.8593)"><mask id="mask-2" fill="#fff"><use xlink:href="#path-1"/></mask><path d="M518.436284,517.266227 C517.002549,514.70053 515.568815,512.140744 514.13508,509.575047 C428.432729,551.956349 348.9564,605.700025 269.096237,658.734292 C270.496104,661.33546 271.895971,663.936627 273.301483,666.531884 C355.013084,616.778635 436.724684,567.019476 518.436284,517.266227 L518.436284,517.266227 Z M3656.02401,676.617321 C3552.17419,616.731341 3448.31872,556.83945 3344.46326,496.953471 C3358.70465,524.945585 3608.63174,670.492753 3656.02401,676.617321 L3656.02401,676.617321 Z M1104.14522,531.590386 C1106.06439,529.657245 1107.98356,527.724105 1109.90273,525.790964 C1114.62729,525.672729 1118.6011,524.25391 1120.46947,519.163898 C1132.10869,516.46223 1139.23785,507.151231 1147.23629,499.123081 C1148.83936,497.065794 1150.44244,495.008507 1152.04551,492.951219 C1153.82921,491.408254 1155.61291,489.8712 1157.40226,488.328234 C1160.79468,485.750713 1165.31602,482.706165 1160.56889,478.366944 C1157.45306,475.517482 1154.97507,479.513822 1153.41151,482.605665 L1147.73302,488.511498 C1145.176,490.85255 1142.61899,493.187689 1140.06197,495.522828 C1130.64673,500.352724 1122.95875,506.902938 1119.70745,517.886961 C1114.96032,518.377636 1111.34776,520.588628 1109.39472,525.323936 C1107.49248,527.2689 1105.59024,529.219776 1103.688,531.164741 C1102.86389,532.181561 1102.03977,533.198381 1101.21566,534.209289 L1104.14522,531.590386 Z M1165.77324,613.769557 C1169.30113,613.503529 1171.36706,611.724093 1171.37271,607.822341 C1175.11509,607.934665 1176.97218,605.936495 1177.18103,602.105684 C1180.85568,602.105684 1182.77485,600.178455 1182.96112,596.347644 C1186.5624,596.211674 1188.43077,594.231239 1188.6622,590.495016 C1192.15622,590.288105 1194.22215,588.520493 1194.431,584.713329 C1229.86232,557.637536 1246.88086,540.132858 1255.05993,522.35624 C1230.37033,532.388472 1205.27433,555.479749 1191.21921,581.1249 C1189.16457,583.02257 1187.10428,584.92024 1185.04964,586.81791 C1183.26029,588.768786 1181.4653,590.725574 1179.6816,592.682362 C1177.88096,594.662796 1176.08033,596.643231 1174.3192,598.653224 C1171.55898,601.41401 1166.86265,603.642737 1171.88072,608.508104 C1169.78657,608.32484 1167.28035,607.278461 1165.68857,608.129752 C1161.83329,610.181128 1165.93693,612.291621 1166.25303,614.431673 C1164.20403,614.224761 1162.73643,610.583126 1159.97621,614.106527 C1157.28937,617.529427 1160.80597,618.534424 1161.31963,620.65674 C1157.13132,613.964645 1154.45576,619.326598 1151.8423,622.217441 C1150.88836,623.269732 1151.03512,625.427519 1150.67951,627.076896 C1155.65807,627.372483 1158.80213,624.78905 1160.55761,620.077389 C1162.29615,617.972808 1164.03469,615.874138 1165.77324,613.769557 L1165.77324,613.769557 Z M4006.23916,584.642388 C3984.79523,701.151064 3948.07694,812.563815 3901.92648,920.565489 C3683.10128,1432.66451 3330.33476,1807.27998 2832.52394,2014.26201 C2278.49829,2244.61908 1717.27574,2247.8528 1166.45624,1997.14751 C630.070045,1753.00425 261.244563,1336.49815 55.5205376,762.82239 C31.4518539,695.724082 10.5723838,627.12419 0,555.775336 C157.33265,508.640991 308.348964,444.85326 454.702817,368.337541 C504.093291,342.509126 549.425279,308.422002 602.044479,289.256124 C600.108372,295.764956 600.006769,302.711257 608.772873,299.028239 C621.761156,293.565787 634.292225,286.572192 646.320922,279.01107 C680.13223,257.758346 713.271827,235.299625 747.404878,214.643987 C756.012932,209.43574 768.662538,198.457629 777.242369,212.279289 C784.636828,224.203279 773.138726,234.004953 765.704754,242.352337 C758.688484,250.226782 750.436042,256.912966 742.584368,263.947943 C715.461941,288.257039 687.887945,312.034079 661.397717,337.082144 C655.10396,343.023448 643.301048,347.238522 647.026501,360.628625 C644.192898,355.018379 641.585081,359.085659 639.090157,360.995153 C638.949041,361.107476 640.25295,363.282999 640.885148,364.500818 C642.81561,362.940117 644.746072,361.385328 646.670889,359.824628 C697.133842,322.53925 747.641952,285.330725 801.107846,252.798391 C837.549549,230.629347 869.650535,200.863709 908.835526,183.731471 C920.971471,178.428636 937.848902,169.501901 947.309294,185.451789 C955.13839,198.646805 939.768074,207.668128 932.480863,216.866804 C924.747725,226.633007 915.693746,235.411948 906.442205,243.664745 C862.888273,282.499 818.764235,320.64158 775.656229,360.00198 C768.956058,366.126548 753.873619,369.029215 760.161732,384.878604 C755.916973,377.44754 753.692991,383.672608 751.220645,386.45704 C750.701339,387.042303 751.401273,388.815826 751.542388,390.039558 C754.308255,388.047299 757.074122,386.060953 759.839988,384.068695 C775.605427,371.79 791.156371,359.203894 807.164529,347.285816 C892.878169,283.462614 968.600822,206.633573 1052.60414,140.611201 C1063.97806,131.666731 1075.21087,121.2325 1091.76091,120.511268 C1091.17387,135.142837 1082.61097,142.207373 1076.91554,150.820785 C1061.97986,173.397741 1046.22571,195.407168 1031.93352,218.421593 C1024.63502,230.16823 1010.76618,245.562415 1021.80706,257.267671 C1032.09722,268.174841 1048.04328,255.565088 1060.26954,249.073992 C1085.31475,235.778477 1109.95918,221.655317 1134.76731,207.869127 C1136.50021,210.038738 1138.23876,212.202437 1139.97166,214.372047 C1039.11913,301.387026 932.780028,380.728559 826.51995,460.182415 C741.833632,523.503119 643.696171,564.73163 563.113496,637.197804 C568.955684,636.766246 575.283309,638.232359 579.33615,635.702132 C611.256508,615.732257 642.804321,595.112089 674.318265,574.432804 C681.882064,569.47285 695.293694,558.642533 696.868545,570.400994 C702.547038,612.776384 720.513881,581.314076 729.014688,576.24771 C759.162633,558.270093 787.916356,537.673572 816.918442,517.632756 C869.345725,481.399669 919.808678,441.891475 981.098023,421.868394 C1001.15902,415.312269 1018.5614,401.638402 1034.64859,383.572108 C1019.42503,378.854536 1005.55054,388.283769 989.677854,379.824062 C1093.16078,293.465287 1194.75275,208.933241 1293.0031,120.168386 C1294.37474,121.717264 1295.75203,123.272053 1297.12932,124.82093 C1290.38964,134.120105 1283.79107,143.531604 1276.89334,152.694809 C1244.01339,196.370783 1205.96297,235.65433 1176.44158,282.1975 C1175.47071,283.905995 1174.50548,285.614489 1173.5346,287.322984 C1175.66827,287.145631 1177.80758,286.962367 1179.94125,286.779103 C1208.23211,275.138877 1230.60176,254.252681 1254.07776,235.00995 C1296.85274,199.941477 1331.26802,155.739358 1371.36179,117.756394 C1372.87455,120.008769 1374.39296,122.261144 1375.90572,124.513519 C1360.34348,147.823531 1344.53289,170.962102 1329.40529,194.573612 C1326.02416,199.846889 1316.93067,208.413008 1329.394,212.5867 C1351.80881,220.088705 1337.36421,228.891293 1330.96885,236.984473 C1271.50272,312.152314 1205.6751,381.07144 1138.15409,448.092896 C1105.59589,480.418319 1072.09503,513.122094 1026.59371,525.684553 C910.918393,557.631624 825.334579,643.186402 727.10116,706.276547 C740.399897,708.505275 748.787811,700.163802 758.299005,694.60085 C845.926173,643.369666 928.416732,582.129896 1023.52867,545.488899 C1061.4154,530.8928 1094.85981,508.540491 1126.67292,482.706165 C1196.05666,426.355409 1259.43451,362.857353 1325.07022,302.049141 C1346.81896,281.896001 1370.11433,264.349942 1397.83509,253.57283 C1364.76887,298.070537 1322.3608,331.897543 1282.53796,368.603569 C1243.07074,404.972626 1197.97583,434.856498 1163.35169,476.699831 C1259.42887,434.874234 1340.7397,369.584919 1423.85681,306.713508 C1376.72419,381.219234 1322.50756,448.329366 1262.65195,510.479544 C1259.66594,513.104359 1257.44196,516.261231 1261.34804,519.512691 C1265.67747,523.118855 1267.29748,518.076137 1269.67386,515.782379 C1402.48061,402.401017 1527.03492,279.726391 1644.66892,139.671234 C1646.13652,160.728871 1637.99133,167.160849 1633.33451,175.22447 C1610.94793,213.970048 1578.88081,244.793888 1553.82432,281.375768 C1551.41406,283.202497 1546.35083,284.207494 1549.76583,288.594009 C1552.90989,292.637643 1555.43303,287.860952 1558.03521,286.258869 C1571.37346,275.481758 1584.71171,264.698735 1598.04996,253.921623 C1599.54578,255.423206 1601.04161,256.924789 1602.53179,258.426373 C1574.89006,297.30201 1547.24833,336.177646 1517.36568,378.198332 C1551.32375,376.956865 1573.24747,358.287574 1596.41866,342.373156 C1603.74539,337.348172 1610.84068,327.357323 1621.07439,335.669236 C1629.43408,342.461832 1629.47923,353.008385 1628.17533,362.851441 C1625.49413,383.034139 1614.65645,399.179116 1603.29946,414.975299 C1546.57097,493.879363 1477.99442,561.296906 1411.69264,630.860413 C1377.68942,666.525972 1342.06054,700.488948 1307.16547,735.220452 C1324.18966,734.091308 1334.84671,723.379226 1345.28927,713.015937 C1397.10693,661.589665 1447.42312,608.425339 1500.4826,558.453357 C1564.54911,498.106261 1623.01614,430.481807 1699.1452,385.245132 C1700.81037,387.320155 1702.47553,389.395177 1704.1407,391.4702 C1665.82498,442.849178 1613.56139,479.998585 1571.58795,530.266155 C1583.15944,533.476233 1588.57263,526.730932 1594.25113,522.657739 C1619.00845,504.898856 1642.99247,485.957625 1667.89656,468.435212 C1680.11153,459.845446 1693.75459,436.836933 1707.26217,452.420294 C1719.61262,466.673511 1697.06234,479.898086 1688.71393,492.880278 C1685.07315,498.549642 1680.44456,503.580537 1675.96273,508.599609 C1642.00466,546.629866 1607.96757,584.589182 1573.9587,622.566234 C1572.31611,624.215611 1570.67917,625.859076 1569.04223,627.502541 C1565.54256,630.162827 1560.83494,631.770821 1561.04944,637.641184 C1559.45201,639.077739 1557.85458,640.508381 1556.25715,641.939023 C1557.10949,642.252346 1558.0973,643.038608 1558.79159,642.80805 C1561.84533,641.808965 1562.46059,639.816707 1560.38337,637.120951 C1567.64236,643.529283 1569.37526,636.015455 1572.45158,631.871321 C1574.59654,630.180562 1576.7415,628.489803 1578.88645,626.799044 C1598.96439,615.602198 1615.20398,599.126164 1631.98545,583.566451 C1708.66204,512.471802 1780.02704,435.152086 1860.84115,368.905068 C1872.63842,359.233453 1884.88161,350.040689 1897.6046,341.770158 C1904.65473,337.188555 1913.85547,333.079892 1920.53871,342.195803 C1926.82682,350.773746 1918.68163,356.579079 1914.32962,362.443531 C1900.95186,380.468442 1883.57206,394.07728 1867.33247,409.010348 C1852.56048,422.601451 1836.40556,435.305791 1827.04113,455.565342 C1844.68059,458.603979 1850.89532,435.282144 1870.38057,440.342598 C1860.12428,456.824544 1851.19448,471.178261 1842.67674,484.869863 C1906.30861,533.287057 1929.5306,470.740792 1962.8734,437.067491 C2000.65288,514.546825 2049.59743,566.032214 2093.96983,575.349125 C2088.82758,546.878159 2073.07907,523.579971 2060.59316,498.330907 C2073.75643,493.051719 2081.28636,502.350894 2090.13149,506.814262 C2127.55535,525.714111 2157.03159,557.105479 2192.84674,578.553291 C2193.78939,583.637391 2197.9777,585.251298 2200.48392,582.218573 C2203.50379,578.576938 2197.93819,576.903914 2196.05853,574.397334 C2150.75476,512.70236 2099.05564,455.553519 2063.30258,376.389338 C2131.47837,419.385461 2180.14633,474.258281 2239.61246,513.559563 C2217.37264,471.125056 2182.88962,438.38581 2167.51366,391.665288 C2200.33151,420.094871 2229.00057,452.2725 2258.29617,483.811661 C2303.34593,532.317531 2348.76823,580.445049 2401.64708,619.923684 C2401.9406,623.630348 2403.98396,625.403872 2407.41589,625.652165 C2412.80086,630.009121 2413.81125,641.785318 2424.69409,636.819452 C2421.75324,646.893066 2429.14206,648.678413 2436.51394,656.73021 C2434.69072,644.144104 2431.78374,638.841269 2424.27074,637.605714 C2419.81149,631.42794 2417.78507,621.16515 2406.69902,626.119193 C2412.0332,621.632178 2407.21268,619.338421 2404.82501,616.518519 C2320.90636,532.808206 2256.81728,432.468153 2189.0479,335.166738 C2179.35044,321.244578 2180.88578,317.437414 2196.48188,311.974961 C2224.37762,302.202846 2247.72943,310.698024 2270.73128,325.571975 C2274.53012,332.033513 2279.42401,336.975732 2287.09505,338.979814 C2289.13841,328.179055 2280.40053,325.79071 2275.52921,320.665227 C2268.59197,312.116843 2261.64908,303.56846 2254.70619,295.014164 C2255.94236,293.725404 2257.01484,292.306585 2257.93492,290.757708 C2261.47974,291.809998 2266.31718,294.949135 2268.33796,293.559875 C2277.804,287.080602 2268.75566,281.541297 2265.76401,277.184341 C2235.15885,232.63934 2199.8743,191.694592 2172.72365,144.477483 C2174.27592,142.822194 2175.82819,141.172817 2177.38046,139.52344 C2207.14457,169.454607 2237.82876,198.451717 2266.50346,229.48838 C2398.62721,372.469851 2555.00592,486.365535 2694.85152,620.260653 C2603.57792,515.516351 2489.17265,435.766907 2403.50417,325.087212 C2414.96276,320.316434 2422.3685,329.568315 2430.79593,335.030768 C2463.55169,356.259845 2495.997,378.026891 2528.98419,398.848058 C2543.41186,407.958057 2558.62977,415.424592 2575.63702,418.859316 C2591.48713,422.05757 2594.73279,414.011685 2594.01028,400.396935 L2593.61516,401.12408 C2603.58357,402.27687 2610.12004,409.968051 2617.4637,415.619679 C2685.70722,468.169183 2756.0449,516.728259 2835.43656,549.532533 C2860.78093,560.008146 2883.23525,576.596503 2905.75731,592.729656 C2962.33339,633.236934 3018.38452,674.613239 3078.07644,710.089623 C3082.98162,713.004113 3087.82471,720.240089 3097.00851,710.538915 C3062.37309,686.016996 3028.92868,661.258607 2994.45696,638.16733 C2935.16581,598.458137 2882.7611,547.380658 2818.42931,516.308525 C2708.74294,463.321552 2626.38785,372.582174 2532.15647,297.828155 C2543.32154,286.477604 2552.63517,308.303768 2558.60154,297.260627 C2565.63475,284.219317 2551.3482,276.811901 2544.6311,268.269429 C2528.74147,248.05126 2512.10112,228.477471 2495.4156,208.223832 C2510.0239,199.793683 2520.74304,221.353818 2533.47732,209.524416 C2533.45474,209.500769 2533.13299,210.369796 2533.13299,210.369796 L2533.94582,210.399354 C2512.06161,171.967098 2483.38691,139.227853 2455.29925,105.063877 C2530.53082,161.781161 2593.69983,235.051332 2678.80385,278.047455 C2652.59021,246.839352 2626.38221,215.637161 2600.16857,184.429057 C2601.75471,182.040712 2603.34085,179.658279 2604.93263,177.269934 C2702.04841,242.647925 2800.72212,305.407012 2895.49538,374.739961 C2893.74555,377.323394 2891.99571,379.900914 2890.24588,382.484347 C2873.68455,380.450707 2858.83918,369.981006 2841.57227,371.701324 C2841.61743,371.760441 2841.54969,370.737709 2841.54969,370.737709 L2840.95701,371.033297 C2901.74398,418.794287 2966.35236,460.619884 3030.27775,503.426832 C3046.43267,514.239414 3060.54423,541.480736 3086.43613,519.027928 C3088.37788,517.34308 3095.03289,521.434008 3099.43006,523.053826 C3153.57331,543.005966 3205.89334,566.954446 3254.27907,599.711427 C3287.334,622.093294 3320.63729,644.079075 3354.82114,666.904324 C3356.94352,654.956686 3350.69492,651.439198 3345.63169,647.354182 C3292.0642,604.097942 3237.71774,562.160021 3175.70588,532.51853 C3135.60082,513.352652 3095.06112,494.842978 3058.12833,469.298326 C2960.23924,401.591108 2862.2824,333.960742 2765.00857,265.289909 C2719.89108,233.437426 2677.229,197.712749 2631.63735,166.676086 C2605.40113,148.816704 2578.70206,132.488463 2558.39269,107.020665 C2559.7982,105.111171 2561.20936,103.207589 2562.61487,101.304007 C2598.20424,119.695447 2628.08689,147.090474 2661.04585,169.620135 C2694.2419,192.309414 2727.80484,214.342488 2769.69361,213.520756 C2802.22359,212.882287 2810.09784,201.448972 2800.45117,169.360019 C2798.36831,162.41963 2791.97295,155.839857 2800.40602,144.690306 C2906.97655,225.586628 3021.9237,293.299758 3128.15556,375.4139 C3113.79563,356.354433 3097.31332,340.451838 3079.63436,326.169062 C3029.77538,285.892341 2978.92859,247.022616 2926.07796,211.073293 C2918.98831,206.249309 2906.31613,203.275701 2909.46018,190.553625 C2911.94946,180.468188 2922.31864,176.595995 2930.83638,172.723802 C2941.75873,167.752024 2952.9746,168.898903 2963.43974,174.863853 C2978.27381,183.329473 2993.02322,191.972444 3007.68796,200.763209 C3077.86759,242.843012 3141.22287,295.457545 3207.79558,343.106212 C3211.0864,345.541851 3214.37157,347.97749 3217.66803,350.401306 C3219.93153,351.010215 3223.87712,352.635945 3224.17064,352.097976 C3226.11804,348.4859 3223.10945,347.959755 3220.6371,347.339022 C3218.12525,344.347678 3215.61339,341.356335 3213.10153,338.359081 C3181.33358,307.399271 3143.49765,283.628143 3113.0957,249.115374 C3127.41047,241.376899 3138.63198,254.31771 3152.1057,248.772493 C3149.55433,244.415537 3147.95126,239.703876 3144.84672,236.677062 C3091.23406,184.423146 3029.39719,142.461578 2979.03584,85.620147 C2949.18706,51.9350225 2904.49291,35.1574894 2874.32803,0.035810799 C2886.06321,-0.661775142 2892.75774,8.99210487 2900.80697,15.0398203 C3007.49604,95.1735273 3112.22078,177.807903 3226.32689,247.075822 C3472.11082,396.282361 3728.10588,518.12343 4006.23916,584.642388 L4006.23916,584.642388 Z" id="Fill-1" fill="#211F2B" mask="url(#mask-2)"/></g><g id="Group-6"><mask id="mask-4" fill="#fff"><use xlink:href="#path-3"/></mask><path d="M1104.94111,838.932038 C929.156178,839.127311 788.650157,988.735848 788.576749,1175.78347 C788.503397,1359.63875 934.558085,1512.90074 1109.98176,1513.04274 C1290.40093,1513.19633 1428.37251,1366.49046 1429.33044,1173.48971 C1430.2183,992.40113 1281.22277,838.737136 1104.94111,838.932038 M647.647409,2199.1184 C595.028209,2218.27836 549.696221,2252.3714 500.305747,2278.1939 C353.957539,2354.71553 202.93558,2418.50326 45.6029304,2465.63761 C12.2319037,2323.31825 -1.76676782,2178.56917 0.174983394,2032.38945 C3.96817181,1747.02359 61.5546423,1473.7709 177.094484,1215.03746 C324.650642,884.624102 546.286867,618.636948 827.81257,406.357999 C1098.30303,202.396876 1399.52848,74.3780319 1728.89238,25.3696636 C2381.96992,-71.807605 2958.56278,110.569736 3453.19568,565.880533 C3784.72712,871.056647 3985.00408,1257.66705 4064.63282,1711.66544 C4109.43421,1967.08831 4105.67489,2223.07279 4057.03515,2478.0168 C4055.96267,2483.64478 4053.60322,2489.00674 4051.84774,2494.49875 C3773.70881,2427.9857 3517.71939,2306.13872 3271.92982,2156.93809 C3157.82371,2087.67018 3053.09897,2005.0358 2946.41555,1924.89618 C2938.36067,1918.84847 2931.66614,1909.19459 2919.93096,1909.89808 C2919.93096,1909.89808 2921.25745,1909.9572 2921.25745,1909.9572 C2916.40872,1899.85994 2908.7546,1893.66443 2898.08062,1891.66626 L2898.79184,1892.21014 C2896.68075,1886.5999 2892.56017,1884.84411 2887.15262,1885.53578 L2887.48566,1885.84319 C2887.13569,1877.92737 2882.1402,1875.03061 2875.60936,1873.79506 L2876.26978,1874.27982 C2874.00064,1868.89422 2869.65993,1867.5759 2864.56848,1867.74143 L2864.94667,1868.11978 C2860.96156,1852.86748 2849.24896,1847.70061 2836.3397,1844.10627 L2836.79127,1844.48462 C2835.98409,1840.29319 2832.94164,1839.5424 2829.55486,1839.33549 C2817.80275,1824.24872 2801.46156,1814.48252 2787.24839,1802.80091 C2722.11506,1749.27005 2658.04291,1694.66326 2599.4517,1633.25205 C2409.24475,1433.90209 2230.08433,1223.78684 2050.11673,1014.46968 C2002.92766,959.585032 2003.65018,959.194857 1953.53155,1012.30006 C1747.9317,1230.14788 1546.39599,1452.23441 1331.89457,1660.77123 C1121.61533,1865.20529 892.358864,2042.84732 647.647409,2199.1184" id="Fill-4" fill="#DE363D" mask="url(#mask-4)"/></g><path d="M2560.54612,2241.19643 C2557.82541,2239.19234 2555.82721,2237.43656 2553.58065,2236.1478 C2551.01234,2234.66986 2548.31421,2235.09551 2549.36411,2238.74305 C2549.99067,2240.92449 2552.81298,2242.6448 2554.98616,2243.96312 C2555.66916,2244.37695 2557.45286,2242.80442 2560.54612,2241.19643 M2521.11276,2209.99423 C2519.40809,2208.53403 2517.72034,2207.04427 2515.92535,2205.70822 C2515.84068,2205.64319 2514.81901,2206.96151 2514.23761,2207.63545 C2515.94793,2209.24935 2517.65825,2210.86326 2519.36857,2212.47126 C2524.58985,2222.48575 2532.58264,2228.72264 2548.34244,2236.64438 C2538.27242,2221.56943 2531.12068,2214.18566 2521.11276,2209.99423 M2201.82451,2296.92645 C2203.87916,2299.43894 2206.1991,2303.44119 2209.36573,2299.40938 C2212.76944,2295.07607 2208.02231,2294.05334 2205.45401,2292.45126 C2203.89045,2289.7555 2203.08891,2284.10979 2198.77642,2288.23618 C2195.05661,2291.79505 2200.19886,2294.1834 2201.82451,2296.92645 M1919.63839,2343.38094 C1920.01658,2341.19951 1921.36,2337.66429 1920.60362,2337.0672 C1917.87162,2334.92124 1917.07573,2337.73523 1916.4266,2340.00534 C1913.41237,2341.08127 1908.0274,2341.42416 1911.82623,2346.4314 C1915.19043,2350.8593 1917.70793,2346.49052 1919.63839,2343.38094 M2498.7036,2192.23535 C2498.81085,2187.54143 2496.82394,2187.47049 2493.75891,2189.77607 C2495.26602,2190.71603 2496.77314,2191.656 2498.2859,2192.59597 C2500.21071,2194.53502 2502.13553,2196.47999 2504.06035,2198.41904 C2505.40941,2200.02703 2506.73026,2201.66459 2508.16964,2203.17799 C2508.23173,2203.24302 2509.36065,2202.19073 2509.98721,2201.65867 C2508.45751,2200.24577 2506.93346,2198.83877 2505.38684,2197.43769 C2504.83931,2193.34676 2502.58146,2191.65009 2498.7036,2192.23535 M647.650232,2199.11662 C892.356041,2042.85146 1121.61251,1865.20352 1331.89175,1660.77536 C1546.39317,1452.23264 1747.92888,1230.15202 1953.52872,1012.29829 C2003.64735,959.193084 2002.92484,959.589171 2050.11391,1014.47381 C2230.08151,1223.79098 2409.24193,1433.90032 2599.44888,1633.25028 C2658.04574,1694.66149 2722.11224,1749.26828 2787.24557,1802.79913 C2801.45874,1814.48074 2817.79993,1824.24694 2829.55204,1839.32781 C2831.9623,1841.04221 2834.3782,1842.76253 2836.78845,1844.48285 C2836.78845,1844.48285 2836.34253,1844.11041 2836.34253,1844.11041 C2843.29106,1855.49643 2853.88038,1862.11167 2864.94384,1868.12392 C2864.94384,1868.12392 2864.56565,1867.73965 2864.56565,1867.73965 C2867.07751,1872.6464 2870.0861,1876.58363 2876.27261,1874.27804 C2876.27261,1874.27804 2875.60654,1873.79919 2875.60654,1873.79919 C2875.14368,1882.60178 2881.62936,1883.87872 2887.48848,1885.84142 C2887.48848,1885.84142 2887.15544,1885.53401 2887.15544,1885.53401 C2889.52619,1890.64176 2891.91386,1895.72586 2898.79466,1892.20837 C2898.79466,1892.20837 2898.08344,1891.66449 2898.08344,1891.66449 C2901.82583,1903.29289 2909.32189,1909.71305 2921.25463,1909.95543 C2921.25463,1909.95543 2919.93379,1909.90222 2919.93379,1909.89631 C2950.09867,1945.01208 2994.79281,1961.78961 3024.64159,1995.48065 C3075.00294,2052.32208 3136.83981,2094.28364 3190.45247,2146.53756 C3193.55701,2149.55846 3195.16009,2154.27604 3197.71146,2158.63299 C3184.23774,2164.1723 3173.01058,2151.2374 3158.70145,2158.96996 C3189.1034,2193.48864 3226.93933,2217.25977 3258.70728,2248.21958 C3256.93487,2249.80393 3255.1681,2251.38236 3253.40133,2252.9608 C3186.82297,2205.31804 3123.4677,2152.70351 3053.28807,2110.62371 C3038.62897,2101.82703 3023.87957,2093.18997 3009.03985,2084.72435 C2998.58035,2078.75349 2987.36448,2077.61252 2976.44213,2082.57839 C2967.92439,2086.45649 2957.55522,2090.32278 2955.06594,2100.41412 C2951.92188,2113.1362 2964.59406,2116.10981 2971.67807,2120.92788 C3024.53434,2156.88312 3075.37549,2195.74693 3125.23446,2236.02956 C3142.91343,2250.31234 3159.40138,2266.21493 3173.75567,2285.2744 C3067.52946,2203.16026 2952.5823,2135.44713 2846.01177,2054.5508 C2837.5787,2065.70036 2843.96841,2072.28013 2846.05693,2079.22052 C2855.70359,2111.30947 2847.82369,2122.74279 2815.29936,2123.38126 C2773.41059,2124.19708 2739.84765,2102.16991 2706.65161,2079.48063 C2673.68699,2056.95097 2643.80435,2029.55595 2608.22063,2011.16451 C2605.38138,2009.48557 2602.22603,2007.33961 2600.15446,2011.64927 C2599.74804,2012.50056 2602.63245,2015.08991 2603.9928,2016.88116 C2624.30216,2042.34305 2651.00689,2058.67129 2677.23746,2076.53067 C2722.8291,2107.57325 2765.49683,2143.29792 2810.61432,2175.15041 C2907.88815,2243.82124 3005.83934,2311.45161 3103.73409,2379.15883 C3140.66687,2404.70348 3181.20093,2423.20724 3221.31164,2442.37903 C3283.31785,2472.02052 3337.66995,2513.95844 3391.23745,2557.21468 C3396.30068,2561.2997 3402.54928,2564.81719 3400.4269,2576.76482 C3366.2374,2553.93957 3332.93975,2531.95379 3299.88483,2509.57193 C3251.49909,2476.80903 3199.17342,2452.86647 3145.03017,2432.91433 C3140.63865,2431.29451 3133.98363,2427.19767 3132.04188,2428.88843 C3106.14998,2451.34124 3092.03842,2424.09991 3075.8835,2413.28142 C3011.95812,2370.48038 2947.34973,2328.65479 2886.56276,2280.8938 L2887.13287,2281.50271 C2904.44493,2279.83559 2919.2903,2290.30529 2935.84599,2292.34485 C2943.27996,2293.98831 2947.4344,2293.19614 2941.10113,2284.60046 C2846.32222,2215.2616 2747.65417,2152.50251 2650.53274,2087.13043 C2648.9466,2089.51287 2647.36046,2091.90121 2645.76868,2094.28956 C2671.98232,2125.49175 2698.19596,2156.69985 2724.4096,2187.90204 C2639.29993,2144.91183 2576.13657,2071.64166 2500.905,2014.91846 C2528.98702,2049.08835 2557.66171,2081.8276 2579.55157,2120.25394 L2579.1,2119.40856 C2566.34315,2131.20841 2555.624,2109.65418 2541.02136,2118.07842 C2557.70687,2138.33797 2574.34723,2157.91176 2590.23685,2178.12993 C2596.95395,2186.6724 2611.2405,2194.07982 2604.20165,2207.11521 C2598.24093,2218.16427 2588.92165,2196.3381 2577.76223,2207.68865 C2671.99361,2282.44267 2754.34869,2373.18205 2864.03506,2426.16311 C2928.36686,2457.24116 2980.77156,2508.31864 3040.06271,2548.02783 C3074.53444,2571.11319 3107.97884,2595.8775 3142.60862,2620.39941 C3133.43046,2630.10059 3128.58737,2622.86461 3123.68219,2619.95012 C3063.99028,2584.46783 3007.9335,2543.09743 2951.36306,2502.58424 C2928.84101,2486.457 2906.38668,2469.86273 2881.04232,2459.39303 C2801.65066,2426.58876 2731.31298,2378.02377 2663.06945,2325.48018 C2655.72579,2319.82855 2649.18932,2312.13737 2639.22091,2310.98458 C2638.43066,2306.11921 2635.7156,2304.97233 2631.68533,2306.94686 C2631.11523,2307.22471 2630.74833,2309.47708 2630.84993,2309.52438 C2633.66095,2310.87226 2636.33651,2315.40065 2639.61603,2310.25743 C2640.33855,2323.87218 2637.09289,2331.91807 2621.24278,2328.71982 C2604.23552,2325.28509 2589.01196,2317.81265 2574.58995,2308.70856 C2541.60275,2287.88739 2509.15745,2266.11443 2476.40168,2244.89127 C2467.96861,2239.42881 2460.56286,2230.17693 2449.10427,2234.94771 C2534.7784,2345.62741 2649.17803,2425.37685 2740.45163,2530.12115 C2600.61167,2396.22012 2444.23296,2282.33035 2312.10921,2139.34888 C2283.43451,2108.31222 2252.74468,2079.31511 2222.98622,2049.37803 C2220.13568,2044.29984 2216.30862,2043.79143 2211.73648,2046.72365 C2213.93224,2049.25979 2216.128,2051.79593 2218.3294,2054.33207 C2245.48005,2101.54918 2280.7646,2142.49984 2311.36412,2187.04484 C2314.35577,2191.4018 2323.40975,2196.9411 2313.94371,2203.42037 C2311.92294,2204.80372 2307.07985,2201.6705 2303.54067,2200.62412 C2300.74658,2198.89789 2297.86782,2195.61687 2295.27129,2200.49997 C2295.07373,2200.8665 2298.54517,2203.36717 2300.31194,2204.87466 C2307.25483,2213.42305 2314.19208,2221.97734 2321.13497,2230.52573 C2319.53754,2232.15737 2317.93446,2233.79492 2316.33703,2235.43247 C2293.33519,2220.55852 2269.98337,2212.06335 2242.08763,2221.82955 C2226.49153,2227.292 2224.95619,2231.10508 2234.65366,2245.02724 C2302.42303,2342.32865 2366.51211,2442.6687 2450.43076,2526.37311 C2449.30748,2527.44904 2448.25194,2528.5841 2447.25284,2529.78418 C2394.37398,2490.29964 2348.95168,2442.17803 2303.90192,2393.67216 C2274.60632,2362.133 2245.93162,2329.95537 2213.11941,2301.52579 C2228.49537,2348.24631 2262.97839,2380.97964 2285.21257,2423.42006 C2225.75208,2384.11878 2177.08412,2329.24596 2108.90833,2286.24984 C2144.66139,2365.41402 2196.35487,2422.55695 2241.66428,2484.25192 C2240.50149,2485.55842 2239.42901,2486.94177 2238.45249,2488.40788 C2202.63734,2466.96598 2173.16111,2435.57461 2135.73724,2416.67476 C2126.89211,2412.20548 2119.36218,2402.91222 2106.19891,2408.18549 C2118.68482,2433.44047 2134.43333,2456.73866 2139.56994,2485.20371 C2095.20318,2475.89271 2046.25863,2424.40732 2008.47915,2346.92208 C1975.13635,2380.60129 1951.91436,2443.14164 1888.27685,2394.72445 C1896.80024,2381.03285 1905.73003,2366.68504 1915.98632,2350.2031 C1896.50107,2345.14264 1890.28069,2368.46448 1872.64688,2365.41993 C1882.00567,2345.16629 1898.16059,2332.46195 1912.93822,2318.87085 C1929.17216,2303.93778 1946.55761,2290.32303 1959.93537,2272.29812 C1964.28738,2266.43958 1972.43257,2260.63424 1966.13882,2252.0563 C1959.45558,2242.94039 1950.26049,2247.04905 1943.2047,2251.63066 C1930.48736,2259.90119 1918.23852,2269.09395 1906.44126,2278.75966 C1825.62715,2345.01258 1754.26779,2422.32639 1677.5912,2493.42695 C1660.80973,2508.98666 1644.57014,2525.4627 1624.49221,2536.65954 C1622.84962,2535.24664 1621.20703,2533.83964 1619.5588,2532.42673 C1653.57332,2494.44968 1687.60477,2456.49037 1721.56848,2418.46011 C1726.05031,2413.43512 1730.67326,2408.41014 1734.31969,2402.74078 C1742.66244,2389.75858 1765.21272,2376.53401 1752.86228,2362.28079 C1739.36034,2346.69743 1725.71163,2369.70003 1713.49666,2378.29571 C1688.59822,2395.81812 1664.60856,2414.75936 1639.85688,2432.51233 C1634.17838,2436.59143 1628.76519,2443.33082 1617.19371,2440.12074 C1659.16714,2389.85908 1711.43073,2352.70968 1749.7408,2301.3307 C1751.91963,2299.20838 1756.68934,2297.88415 1753.43239,2293.62178 C1750.45203,2289.72003 1747.5394,2293.66908 1744.75096,2295.09972 C1668.62189,2340.34231 1610.15486,2407.96676 1546.08836,2468.31386 C1493.02888,2518.28584 1442.71268,2571.44425 1390.88938,2622.87644 C1380.44682,2633.23973 1369.78977,2643.95181 1352.77122,2645.08095 C1387.66629,2610.34945 1423.29517,2576.38647 1457.29275,2540.72091 C1523.60017,2471.15741 1592.17108,2403.73986 1648.90521,2324.8358 C1660.2622,2309.03962 1671.09988,2292.88873 1673.77543,2272.71194 C1675.08499,2262.86888 1675.03983,2252.31642 1666.68014,2245.52974 C1656.44079,2237.21191 1649.34549,2247.20276 1642.02441,2252.23365 C1618.85323,2268.14807 1596.92386,2286.81145 1562.97143,2288.05883 C1592.84844,2246.03815 1620.49581,2207.16251 1648.13754,2168.28687 C1646.64172,2166.78529 1645.15154,2165.28371 1643.65571,2163.78212 C1630.31746,2174.55923 1616.97921,2185.33635 1603.64096,2196.11937 C1602.23545,2194.49364 1600.82994,2192.862 1599.43007,2191.23627 C1624.48092,2154.65439 1656.55368,2123.83055 1678.94027,2085.08497 C1683.59708,2077.02135 1691.74228,2070.58937 1690.26903,2049.52582 C1572.64068,2189.58689 1448.08637,2312.2556 1315.27962,2425.64288 C1312.9371,2423.87527 1310.59458,2422.10765 1308.25206,2420.34004 C1368.10767,2358.18987 1422.3243,2291.07973 1469.46256,2216.57401 C1386.34545,2279.44542 1305.03462,2344.73473 1208.95745,2386.56033 C1243.58158,2344.717 1288.6765,2314.83313 1328.13807,2278.46407 C1367.96655,2241.75804 1410.36898,2207.92512 1443.44084,2163.43333 C1415.72008,2174.21044 1392.41907,2191.7565 1370.67033,2211.90373 C1305.03462,2272.71785 1241.66241,2336.21591 1172.27867,2392.56666 C1140.46556,2418.40099 1107.02115,2440.7533 1069.13443,2455.3494 C974.022485,2491.9904 891.531926,2553.23016 803.904758,2604.46135 C794.387919,2610.01839 786.00565,2618.36577 772.706912,2616.13705 C870.940332,2553.0469 956.524145,2467.49212 1072.19946,2435.54505 C1117.69514,2422.98259 1151.20164,2390.27291 1183.75984,2357.9534 C1251.27521,2290.92603 1317.10847,2222.01281 1376.57461,2146.83906 C1382.96997,2138.75179 1397.41456,2129.9492 1374.99975,2122.44129 C1362.53642,2118.27351 1371.62427,2109.70739 1375.0054,2104.43411 C1390.13864,2080.8226 1405.94924,2057.68403 1421.51147,2034.37402 C1426.65372,2031.63688 1428.31889,2026.25128 1424.75713,2022.65694 C1421.50018,2019.37001 1419.00526,2024.73196 1416.96755,2027.61689 C1376.87377,2065.59986 1342.45849,2109.80198 1299.67787,2144.87045 C1276.20752,2164.11318 1253.83787,2184.99346 1225.547,2196.6396 C1224.57048,2194.95475 1223.40204,2193.42361 1222.04169,2192.05209 C1251.56308,2145.51483 1289.61915,2106.23128 1322.49909,2062.5494 C1329.39682,2053.38619 1335.99539,2043.9806 1342.72943,2034.68143 C1345.31467,2033.49317 1347.65154,2031.53638 1345.29209,2028.83471 C1344.46797,2027.88883 1340.91186,2029.55595 1338.60885,2030.02889 C1240.3585,2118.79374 1138.76088,2203.32579 1035.28361,2289.68456 C1051.15065,2298.14427 1065.02514,2288.71503 1080.25434,2293.43261 C1064.16716,2311.4989 1046.76478,2325.17277 1026.70378,2331.72889 C965.408786,2351.75197 914.951478,2391.26017 862.524195,2427.48734 C833.516464,2447.53407 804.768386,2468.13059 774.614796,2486.1023 C766.119634,2491.16866 748.147146,2522.63688 742.474297,2480.25558 C740.899447,2468.50303 727.487816,2479.33335 719.918373,2484.2933 C688.410073,2504.96668 656.856616,2525.59276 624.936258,2545.55672 C620.889062,2548.09286 614.561436,2546.62675 608.713604,2547.0583 C689.296279,2474.58622 787.439385,2433.36362 872.125703,2370.037 C978.380136,2290.58315 1084.72488,2211.24752 1185.57741,2124.22663 C1187.69414,2122.41764 1189.81652,2120.60273 1191.93326,2118.79374 C1192.65577,2116.56501 1194.47334,2112.81105 1193.91452,2112.36767 C1191.3575,2110.35768 1189.08837,2111.72921 1187.83526,2114.77375 C1185.34598,2115.76102 1182.8567,2116.74237 1180.36742,2117.72963 C1155.55929,2131.5099 1130.9205,2145.63898 1105.87529,2158.93449 C1093.64339,2165.42559 1077.70297,2178.03534 1067.40717,2167.12226 C1056.37193,2155.417 1070.24077,2140.02873 1077.53927,2128.28209 C1091.82582,2105.26767 1107.58562,2083.25824 1122.51565,2060.67537 C1128.21108,2052.06787 1136.77962,2044.99742 1137.36102,2030.37177 C1120.81662,2031.093 1109.58381,2041.52723 1098.20989,2050.46579 C1014.20657,2116.49407 938.483922,2193.32311 852.770282,2257.14632 C836.762124,2269.06439 821.21118,2281.6505 805.445741,2293.92328 L805.784418,2294.7864 C799.479371,2278.88971 814.556167,2275.98705 821.261982,2269.86248 C864.364343,2230.49617 908.488381,2192.35359 952.042313,2153.51933 C961.299499,2145.27245 970.353478,2136.48759 978.086615,2126.7273 C985.373827,2117.52863 1000.74414,2108.5073 992.915047,2095.31229 C983.44901,2079.3624 966.577224,2088.28914 954.441279,2093.59197 C915.256288,2110.7183 883.149657,2140.48985 846.713604,2162.65889 C793.247705,2195.19122 742.739595,2232.39384 692.276642,2269.68513 L692.637898,2270.50686 C688.9068,2257.09311 700.709712,2252.88395 706.997825,2246.93673 C733.488053,2221.89458 761.06205,2198.11163 788.19012,2173.80253 C796.03615,2166.76755 804.288593,2160.08728 811.304862,2152.21284 C818.744479,2143.86545 830.242581,2134.06378 822.842477,2122.13979 C814.268291,2108.31222 801.618685,2119.29624 793.010631,2124.50449 C758.871935,2145.16012 725.737982,2167.61293 691.926675,2188.87157 C679.897978,2196.43269 667.366909,2203.42629 654.378625,2208.88874 C645.612522,2212.57176 645.70848,2205.62546 647.650232,2199.11662" id="Fill-7" fill="#FEFEFE"/><path d="M3701.63146,2586.47782 C3654.23918,2580.35325 3404.31209,2434.80608 3390.06506,2406.81397 C3493.92052,2466.69995 3597.77599,2526.59184 3701.63146,2586.47782" id="Fill-9" fill="#FEFEFE"/><path d="M564.040908,2427.12554 C482.329308,2476.87879 400.617707,2526.63795 318.906107,2576.3912 C317.500595,2573.79594 316.100728,2571.19478 314.700861,2568.59361 C394.561024,2515.55934 474.037353,2461.81567 559.739703,2419.43436 C561.173438,2422.00006 562.607173,2424.55985 564.040908,2427.12554" id="Fill-11" fill="#FEFEFE"/><path d="M1236.81537,2490.97771 C1250.88178,2465.34439 1275.97778,2442.2472 1300.66737,2432.21497 C1292.48831,2449.99158 1275.46976,2467.49626 1240.0328,2494.57205 C1238.9829,2493.35424 1237.91043,2492.16006 1236.81537,2490.97771" id="Fill-13" fill="#FEFEFE"/><path d="M1165.30925,2427.74155 C1168.56056,2416.75753 1176.25418,2410.21322 1185.66377,2405.38924 C1188.05709,2406.58932 1190.45041,2407.7835 1192.84373,2408.98358 C1184.83966,2417.01173 1177.71614,2426.32273 1166.07692,2429.0244 L1165.30925,2427.74155 Z" id="Fill-15" fill="#DE363D"/><path d="M2469.87706,2547.45971 C2477.39006,2548.70118 2480.29704,2554.00401 2482.12025,2566.59012 C2474.74837,2558.53832 2467.35391,2556.75297 2470.29476,2546.68527 C2470.29476,2546.68527 2469.87706,2547.45971 2469.87706,2547.45971" id="Fill-17" fill="#FEFEFE"/><path d="M2321.13497,2230.52454 C2326.00628,2235.65003 2334.73851,2238.03837 2332.7008,2248.83913 C2325.02976,2246.83505 2320.13587,2241.89283 2316.33703,2235.43129 C2317.93446,2233.79374 2319.53754,2232.1621 2321.13497,2230.52454" id="Fill-19" fill="#FEFEFE"/><path d="M2452.29518,2535.98028 C2463.38687,2531.02033 2465.41329,2541.28312 2469.87819,2547.46089 C2469.87819,2547.46089 2470.29589,2546.68645 2470.29589,2546.68645 C2459.4187,2551.64641 2458.40267,2539.87021 2453.02334,2535.50734 C2453.03463,2535.50143 2452.29518,2535.98028 2452.29518,2535.98028" id="Fill-21" fill="#FEFEFE"/><path d="M1206.22206,2529.98104 C1204.40449,2534.64541 1201.26044,2537.22884 1196.28188,2536.93917 C1196.63749,2535.28388 1196.49073,2533.132 1197.44467,2532.0738 C1200.06378,2529.18296 1202.73368,2523.82101 1206.92764,2530.51901 L1206.22206,2529.98104 Z" id="Fill-23" fill="#FEFEFE"/><path d="M805.447434,2293.92624 C802.681568,2295.9185 799.915701,2297.91075 797.149834,2299.90301 C797.008719,2298.67337 796.308785,2296.89985 796.828091,2296.31458 C799.300437,2293.53015 801.518775,2287.30508 805.769178,2294.73615 C805.786112,2294.78935 805.447434,2293.92624 805.447434,2293.92624" id="Fill-25" fill="#FEFEFE"/><path d="M1618.05508,2541.72946 C1614.9844,2545.87359 1613.24585,2553.38742 1605.98687,2546.97909 L1606.65293,2547.49932 C1606.43844,2541.62896 1611.14605,2540.02096 1614.64572,2537.36659 C1615.62789,2538.95094 1616.76246,2540.40522 1618.05508,2541.72946" id="Fill-27" fill="#FEFEFE"/><path d="M2241.66541,2484.25369 C2243.54507,2486.76027 2249.11067,2488.4333 2246.0908,2492.07493 C2243.57894,2495.10766 2239.39063,2493.49375 2238.45362,2488.40965 C2239.43014,2486.94354 2240.49697,2485.56019 2241.66541,2484.25369" id="Fill-29" fill="#FEFEFE"/><path d="M1166.07579,2429.02203 C1164.20178,2434.11204 1160.22796,2435.53678 1155.50905,2435.6491 C1155.50905,2435.64319 1155.00104,2435.18798 1155.00104,2435.18798 C1156.95408,2430.44676 1160.56664,2428.23577 1165.30812,2427.74507 C1165.30812,2427.73918 1166.07579,2429.02203 1166.07579,2429.02203" id="Fill-31" fill="#DE363D"/><path d="M3263.26306,2260.27126 C3259.97789,2257.83562 3256.68707,2255.39999 3253.4019,2252.96435 C3255.16867,2251.38 3256.93543,2249.80156 3258.70785,2248.21722 C3261.2197,2251.21447 3263.73156,2254.20581 3266.24342,2257.19716 C3265.23303,2258.20806 3264.23958,2259.2308 3263.26306,2260.27126" id="Fill-33" fill="#FEFEFE"/><path d="M692.276642,2269.68276 C690.34618,2271.24346 688.421362,2272.79825 686.490901,2274.35895 C685.858702,2273.14113 684.554794,2270.96561 684.69591,2270.8592 C687.190834,2268.94379 689.798651,2264.87651 692.632319,2270.48676 C692.637898,2270.50449 692.276642,2269.68276 692.276642,2269.68276" id="Fill-35" fill="#FEFEFE"/><path d="M3266.24229,2257.20011 C3268.71464,2257.82085 3271.72322,2258.34108 3269.77583,2261.95316 C3269.48231,2262.49704 3265.53671,2260.87131 3263.27322,2260.2624 C3264.24409,2259.23375 3265.23755,2258.21102 3266.24229,2257.20011" id="Fill-37" fill="#FEFEFE"/><path d="M2886.56332,2280.89143 L2887.15036,2280.59584 C2887.15036,2280.59584 2887.2181,2281.61858 2887.17859,2281.55946 C2887.13343,2281.50034 2886.56332,2280.89143 2886.56332,2280.89143" id="Fill-39" fill="#FEFEFE"/><path d="M1199.01388,2392.46439 C1200.57744,2389.37255 1203.06107,2385.37621 1206.17126,2388.22567 C1210.91839,2392.56489 1206.39705,2395.60944 1203.00463,2398.18696 C1201.67249,2396.27747 1200.34601,2394.37388 1199.01388,2392.46439" id="Fill-41" fill="#FEFEFE"/><path d="M1193.33482,2398.37141 C1195.22577,2396.4028 1197.12236,2394.43418 1199.01331,2392.46557 C1200.34544,2394.37507 1201.67193,2396.27865 1203.00406,2398.18814 C1201.22036,2399.73111 1199.43666,2401.26816 1197.64731,2402.81113 C1196.21358,2401.32728 1194.7742,2399.84934 1193.33482,2398.37141" id="Fill-43" fill="#FEFEFE"/><path d="M1192.84317,2408.98122 C1190.44985,2407.78704 1188.05653,2406.58696 1185.66885,2405.38687 C1188.22587,2403.04582 1190.77724,2400.71068 1193.33425,2398.36963 C1194.77363,2399.85348 1196.21301,2401.33142 1197.65239,2402.80935 C1196.04932,2404.86664 1194.44624,2406.92393 1192.84317,2408.98122" id="Fill-45" fill="#FEFEFE"/><path d="M1603.64096,2196.11819 C1601.03314,2197.72027 1598.51564,2202.49696 1595.37158,2198.45333 C1591.95658,2194.06681 1597.01417,2193.06181 1599.43007,2191.23508 C1600.83558,2192.86081 1602.23545,2194.49246 1603.64096,2196.11819" id="Fill-47" fill="#FEFEFE"/><path d="M1225.54813,2196.64019 C1223.41446,2196.82346 1221.27515,2197.00081 1219.14148,2197.18407 C1220.10671,2195.47558 1221.07759,2193.76709 1222.04282,2192.05268 C1223.40317,2193.4242 1224.57161,2194.95535 1225.54813,2196.64019" id="Fill-49" fill="#FEFEFE"/><path d="M1315.27792,2425.64406 C1312.90153,2427.93782 1311.28153,2432.97463 1306.9521,2429.36846 C1303.04602,2426.117 1305.27,2422.96604 1308.25601,2420.34123 C1310.59288,2422.10884 1312.9354,2423.87645 1315.27792,2425.64406" id="Fill-51" fill="#FEFEFE"/><path d="M1149.29601,2441.0282 C1151.19825,2439.07732 1153.09485,2437.13236 1154.99708,2435.18148 C1155.00273,2435.18739 1155.5051,2435.6426 1155.51075,2435.64851 C1153.59157,2437.58165 1151.66676,2439.51479 1149.74758,2441.44793 C1149.74758,2441.44793 1149.29601,2441.0282 1149.29601,2441.0282" id="Fill-53" fill="#DE363D"/><path d="M2579.55157,2120.25572 L2578.73875,2120.23207 C2578.73875,2120.23207 2579.06049,2119.35713 2579.08307,2119.38078 C2579.1,2119.40442 2579.55157,2120.25572 2579.55157,2120.25572" id="Fill-55" fill="#FEFEFE"/><path d="M1149.74815,2441.45029 L1146.81859,2444.0692 C1147.6427,2443.05238 1148.46682,2442.04147 1149.29658,2441.02465 C1149.29658,2441.03056 1149.74815,2441.45029 1149.74815,2441.45029" id="Fill-57" fill="#DE363D"/><path d="M1230.6537,2496.67545 C1232.70834,2494.77778 1234.76863,2492.88011 1236.81763,2490.98244 C1237.90704,2492.15888 1238.97952,2493.35896 1240.03506,2494.57678 C1239.82621,2498.37804 1237.76028,2500.14565 1234.26626,2500.35256 C1233.13169,2499.05198 1231.92938,2497.82824 1230.6537,2496.67545" id="Fill-59" fill="#FEFEFE"/><path d="M1234.26513,2500.35433 C1234.03934,2504.09056 1232.16533,2506.07099 1228.5697,2506.20696 C1227.5198,2504.93002 1226.42474,2503.70629 1225.27888,2502.53577 C1227.07387,2500.58489 1228.86322,2498.6281 1230.65257,2496.67723 C1231.92825,2497.83002 1233.13056,2499.05375 1234.26513,2500.35433" id="Fill-61" fill="#FEFEFE"/><path d="M1228.56801,2506.20578 C1228.37609,2510.03659 1226.45692,2511.96382 1222.78791,2511.96973 C1221.87348,2510.75782 1220.9026,2509.59912 1219.88093,2508.48771 C1221.68156,2506.50728 1223.4822,2504.52093 1225.28283,2502.53458 C1226.42869,2503.71102 1227.52375,2504.93475 1228.56801,2506.20578" id="Fill-63" fill="#FEFEFE"/><path d="M1217.48309,2518.37274 C1212.47066,2513.50146 1217.16135,2511.27274 1219.90463,2508.50013 C1220.90373,2509.59971 1221.87461,2510.75841 1222.78904,2511.96441 C1222.58019,2515.79522 1220.72311,2517.79339 1216.97507,2517.68107 C1216.97507,2517.68107 1217.48309,2518.37274 1217.48309,2518.37274" id="Fill-65" fill="#FEFEFE"/><path d="M1211.86161,2524.30163 C1211.53986,2522.14976 1207.43622,2520.04517 1211.29714,2517.98789 C1212.88328,2517.1366 1215.39514,2518.18297 1217.48365,2518.37215 C1217.48365,2518.37215 1216.97564,2517.68048 1216.97564,2517.68639 C1216.96999,2521.58814 1214.90406,2523.36757 1211.37617,2523.62769 C1211.37053,2523.62178 1211.86161,2524.30163 1211.86161,2524.30163" id="Fill-67" fill="#FEFEFE"/><path d="M1206.92708,2530.51783 C1206.40777,2528.39551 1202.89117,2527.38461 1205.57801,2523.96171 C1208.34388,2520.44422 1209.81148,2524.07994 1211.86048,2524.29867 C1211.86048,2524.30459 1211.37504,2523.62474 1211.37504,2523.62474 C1209.6365,2525.72932 1207.89795,2527.8339 1206.19327,2529.95621 C1206.2215,2529.97986 1206.92708,2530.51783 1206.92708,2530.51783" id="Fill-69" fill="#FEFEFE"/><path d="M2450.4302,2526.37606 C2452.81787,2529.19596 2457.63838,2531.49563 2452.30421,2535.97679 C2452.29292,2535.98265 2453.03237,2535.5038 2453.02672,2535.5038 C2449.58915,2535.26142 2447.54579,2533.4938 2447.25227,2529.78123 C2448.25137,2528.58705 2449.30692,2527.44609 2450.4302,2526.37606" id="Fill-71" fill="#FEFEFE"/><path d="M1614.64798,2537.36422 C1616.28492,2535.72076 1617.92186,2534.07138 1619.5588,2532.42792 C1621.20703,2533.84082 1622.84962,2535.24782 1624.49221,2536.66073 C1622.34725,2538.35148 1620.20229,2540.04224 1618.05733,2541.72709 C1616.76471,2540.40877 1615.63014,2538.94857 1614.64798,2537.36422" id="Fill-73" fill="#FEFEFE"/><path d="M1605.988,2546.97849 C1608.06522,2549.67425 1607.44995,2551.66651 1604.39621,2552.66559 C1603.70192,2552.89615 1602.71411,2552.1158 1601.86177,2551.79657 C1603.4592,2550.36592 1605.05663,2548.93528 1606.65406,2547.50464 C1606.65406,2547.50464 1605.988,2546.97849 1605.988,2546.97849" id="Fill-75" fill="#FEFEFE"/><path d="M1104.94111,838.932038 C1281.22277,838.737136 1430.2183,992.40113 1429.33044,1173.48971 C1428.37251,1366.49046 1290.40093,1513.19633 1109.98176,1513.04274 C934.558085,1512.90074 788.503397,1359.63875 788.576749,1175.78347 C788.650157,988.735848 929.156178,839.127311 1104.94111,838.932038" id="Fill-77" fill="#211F2B"/><path d="M2864.94497,1868.12274 C2853.88151,1862.1164 2843.29219,1855.49525 2836.34365,1844.10923 C2849.25291,1847.70357 2860.95987,1852.86452 2864.94497,1868.12274" id="Fill-79" fill="#211F2B"/><path d="M2921.25576,1909.95838 C2909.31737,1909.71009 2901.82696,1903.28993 2898.07892,1891.66744 C2908.75291,1893.66561 2916.40702,1899.86112 2921.25576,1909.95838" id="Fill-81" fill="#211F2B"/><path d="M2887.48735,1885.8426 C2881.62823,1883.8799 2875.14255,1882.60296 2875.61106,1873.80038 C2882.14189,1875.03002 2887.13174,1877.92677 2887.48735,1885.8426" id="Fill-83" fill="#211F2B"/><path d="M2876.27035,1874.27686 C2870.08384,1876.58244 2867.0809,1872.64522 2864.56904,1867.73847 C2869.66049,1867.57294 2874.00121,1868.89717 2876.27035,1874.27686" id="Fill-85" fill="#211F2B"/><path d="M2898.79297,1892.20719 C2891.91217,1895.72467 2889.52449,1890.64057 2887.15375,1885.53874 C2892.55566,1884.84115 2896.68188,1886.59694 2898.79297,1892.20719" id="Fill-87" fill="#211F2B"/><path d="M2836.78845,1844.48226 C2834.3782,1842.76194 2831.9623,1841.04162 2829.55204,1839.32722 C2832.94446,1839.54595 2835.98127,1840.29083 2836.78845,1844.48226" id="Fill-89" fill="#211F2B"/><path d="M2521.11276,2209.99483 C2531.12068,2214.18625 2538.27242,2221.56411 2548.34244,2236.64497 C2532.58264,2228.72324 2524.58985,2222.48634 2519.36857,2212.47185 C2519.87659,2211.591 2520.45799,2210.76335 2521.11276,2209.99483" id="Fill-91" fill="#DE363D"/><path d="M2560.54612,2241.19643 C2557.45286,2242.80442 2555.66916,2244.37695 2554.98616,2243.96312 C2552.81298,2242.6448 2549.99067,2240.92449 2549.36411,2238.74305 C2548.31421,2235.09551 2551.01234,2234.66986 2553.58065,2236.1478 C2555.82721,2237.43656 2557.82541,2239.19234 2560.54612,2241.19643" id="Fill-93" fill="#DE363D"/><path d="M1416.96811,2027.61512 C1419.00582,2024.7361 1421.50074,2019.36824 1424.75769,2022.65517 C1428.31945,2026.24951 1426.65429,2031.63511 1421.51203,2034.37224 C1419.99363,2032.11987 1418.48087,2029.86749 1416.96811,2027.61512" id="Fill-95" fill="#211F2B"/><path d="M2218.32771,2054.33384 C2216.13195,2051.79771 2213.93054,2049.26157 2211.73478,2046.72543 C2216.30693,2043.7932 2220.13963,2044.30161 2222.98452,2049.3798 C2221.43225,2051.02918 2219.87998,2052.68447 2218.32771,2054.33384" id="Fill-97" fill="#211F2B"/><path d="M2639.61773,2310.25803 C2636.33255,2315.40124 2633.66265,2310.87285 2630.85162,2309.52497 C2630.74438,2309.47768 2631.11128,2307.2253 2631.68138,2306.94745 C2635.71729,2304.97293 2638.43236,2306.1198 2639.2226,2310.98517 C2639.2226,2310.97926 2639.61773,2310.25803 2639.61773,2310.25803" id="Fill-99" fill="#211F2B"/><path d="M2519.37027,2212.47421 C2517.65995,2210.86031 2515.94962,2209.2464 2514.23366,2207.63249 C2514.8207,2206.95855 2515.84238,2205.64615 2515.92705,2205.70526 C2517.71639,2207.04132 2519.40413,2208.53108 2521.11446,2209.99719 C2520.45968,2210.76572 2519.87828,2211.59336 2519.37027,2212.47421" id="Fill-101" fill="#DE363D"/><path d="M2201.82282,2296.92822 C2200.20281,2294.17926 2195.05492,2291.79683 2198.78037,2288.23205 C2203.08722,2284.11156 2203.88875,2289.75136 2205.45232,2292.44712 C2204.15405,2293.86594 2202.9461,2295.3557 2201.82282,2296.92822" id="Fill-103" fill="#211F2B"/><path d="M2941.10057,2284.59869 C2947.43384,2293.19436 2943.27939,2293.98654 2935.85107,2292.34307 C2937.6009,2289.76555 2939.35073,2287.18212 2941.10057,2284.59869" id="Fill-105" fill="#211F2B"/><path d="M2505.40321,2197.43296 C2506.9329,2198.83995 2508.46259,2200.24695 2509.98664,2201.65394 C2509.36009,2202.19191 2508.23116,2203.23829 2508.17472,2203.17917 C2506.73534,2201.66577 2505.40885,2200.02821 2504.05978,2198.42022 L2505.40321,2197.43296 Z" id="Fill-107" fill="#DE363D"/><path d="M1744.74926,2295.10268 C1747.53771,2293.67203 1750.45598,2289.72299 1753.43634,2293.62474 C1756.68765,2297.88711 1751.92358,2299.21134 1749.74476,2301.32774 C1748.07959,2299.25272 1746.41443,2297.1777 1744.74926,2295.10268" id="Fill-109" fill="#211F2B"/><path d="M2205.45175,2292.45008 C2208.02006,2294.05216 2212.76719,2295.07489 2209.36348,2299.41411 C2206.19684,2303.44592 2203.8769,2299.44367 2201.82226,2296.92527 C2202.94554,2295.35865 2204.15349,2293.86298 2205.45175,2292.45008" id="Fill-111" fill="#211F2B"/><path d="M2300.31307,2204.87525 C2298.5463,2203.36776 2295.07486,2200.86118 2295.27242,2200.50056 C2297.86895,2195.61746 2300.74771,2198.89848 2303.5418,2200.62471 C2302.62172,2202.16768 2301.5436,2203.58649 2300.31307,2204.87525" id="Fill-113" fill="#211F2B"/><path d="M1916.42603,2340.00356 C1917.07517,2337.73936 1917.87106,2334.92537 1920.60306,2337.07134 C1921.36508,2337.66251 1920.01602,2341.19774 1919.63783,2343.38508 C1918.59357,2342.23229 1917.52109,2341.10315 1916.42603,2340.00356" id="Fill-115" fill="#211F2B"/><path d="M1919.63896,2343.3839 C1917.70849,2346.48757 1915.19099,2350.86226 1911.82679,2346.43436 C1908.02796,2341.4212 1913.41293,2341.07832 1916.42716,2340.00238 C1917.52222,2341.10197 1918.5947,2342.23111 1919.63896,2343.3839" id="Fill-117" fill="#211F2B"/><path d="M2504.06148,2198.41786 C2502.13666,2196.4788 2500.21184,2194.53384 2498.28138,2192.59479 L2498.71602,2192.22826 C2502.58259,2191.65482 2504.84044,2193.34558 2505.39368,2197.43651 C2505.4049,2197.43059 2504.06148,2198.41786 2504.06148,2198.41786" id="Fill-119" fill="#DE363D"/><path d="M2498.28364,2192.59656 C2496.77652,2191.65659 2495.26941,2190.71662 2493.76229,2189.77666 C2496.82168,2187.47108 2498.80859,2187.54202 2498.70699,2192.23003 C2498.71263,2192.22412 2498.28364,2192.59656 2498.28364,2192.59656" id="Fill-121" fill="#DE363D"/><path d="M1191.93495,2118.79256 C1189.81257,2120.60746 1187.69584,2122.41646 1185.57346,2124.23136 C1183.84056,2122.06175 1182.10766,2119.89805 1180.36911,2117.72844 C1182.85839,2116.74709 1185.34767,2115.75983 1187.83695,2114.77848 C1189.15215,2116.17366 1190.51815,2117.50971 1191.93495,2118.79256" id="Fill-123" fill="#211F2B"/><path d="M1187.83695,2114.77671 C1189.08441,2111.72625 1191.3592,2110.36064 1193.91621,2112.37063 C1194.47503,2112.8081 1192.65182,2116.56206 1191.93495,2118.79078 C1190.51815,2117.51385 1189.15215,2116.17188 1187.83695,2114.77671" id="Fill-125" fill="#211F2B"/><path d="M1338.6066,2030.0277 C1340.91525,2029.55476 1344.47136,2027.88765 1345.29548,2028.83353 C1347.64929,2031.54111 1345.31241,2033.49199 1342.73282,2034.68025 C1341.35553,2033.13137 1339.98388,2031.57658 1338.6066,2030.0277" id="Fill-127" fill="#211F2B"/><path d="M2603.99562,2016.8788 C2602.62962,2015.08754 2599.74522,2012.4982 2600.15728,2011.6469 C2602.22886,2007.33724 2605.37856,2009.48912 2608.2178,2011.16805 C2606.81229,2013.06572 2605.40113,2014.97522 2603.99562,2016.8788" id="Fill-129" fill="#211F2B"/></g></g></svg>