<svg height="4096" viewBox="0 0 4096 4096" width="4096" xmlns="http://www.w3.org/2000/svg" xmlns:xlink="http://www.w3.org/1999/xlink"><mask id="a" fill="#fff"><path d="m0 0h2610.3954v1329.96045h-2610.3954z" fill="#fff" fill-rule="evenodd"/></mask><g fill="none" fill-rule="evenodd"><g fill="#11355c"><path d="m2602.26788 1.23290114c33.93626 377.33190886-31.9449 766.52375186-320.76896 1017.19601886-434.27704 376.91061-803.9628 368.33362-1323.551938 202.91457-395.173779-125.81705-727.815526-377.991681-957.946982-739.282473 2.36098022-8.521347 17.8167262-3.48167 24.4923412-1.995203 75.5739968 16.851917 160.9238088 52.550954 240.8275258 72.145282 410.267458 100.610714 951.120503 155.832538 1357.933243 26.915373 68.85312-21.820053 132.81833-57.312416 202.07878-77.105469l-56.42969 79.561715c-173.52073 193.407544-391.53048 344.740938-643.49157 394.994626-141.017652 28.123619-268.404981 19.673818-408.834274-5.524567l128.119006 43.719596c718.235828 197.80335 1383.255318-412.474515 1740.691128-1003.3329305 4.76722-7.89337429-.73168-14.19694511 16.88139-10.20653836" mask="url(#a)" transform="translate(203.6357 2766.0396)"/><path d="m3907.27065 3077.20464c-68.64946-385.00271-250.90506-737.62907-475.21327-1045.29579 4.78231-9.49908 22.14645-2.67087 29.69706.50079 148.21374 62.2726 364.2472 269.84529 441.84274 416.71134l56.35426 135.24458c-58.9189-458.99216-374.52086-789.23409-714.12486-1047.76794-246.9525-188.00221-514.04498-386.11557-809.65027-474.27017-8.28983-7.01104-9.33832-9.59447.03772-16.17625 30.56451-21.4544 151.25359-55.325166 193.03465-66.851241 478.63028-132.001384 795.63525-125.061892 1107.61653 310.091171 209.72746 292.52384 366.58555 596.33529 358.86145 972.99948-3.83942 187.46168-64.99861 642.58267-164.42379 796.49949-6.57001 10.1668-8.4935 21.74852-24.03222 18.31454"/><path d="m980.483406 128.201046c8.915906 8.974441-106.304455 153.265006-119.255902 172.334698-292.919952 431.234196-400.567073 842.619696-208.724229 1353.725616 95.932736 255.57681 239.613092 507.54477 374.671725 741.8659l96.62669 132.58961c-191.194135-38.33016-371.790265-141.17455-534.886477-251.02202-334.723634-225.45798-458.354515-439.22296-399.397897-872.64313 62.004017-455.804611 320.957535-926.354648 670.955881-1200.699087 14.912645-11.693004 109.691292-86.533003 120.010209-76.151587"/><path d="m1802.65743 3069.39553-233.6767 59.62558c-273.26271 60.25355-852.841872 170.97541-1099.017433 37.13781-246.892153-134.21916-412.1607684-571.75693-469.963297-844.07437 279.825186 272.93746 671.152001 362.28442 1022.14603 492.696 256.7962 95.40411 505.50623 227.18292 780.5114 254.61498"/><path d="m2715.46443 3967.493c24.38674-60.72254 58.82085-117.11287 84.24098-177.43001 179.57782-426.01964 262.55911-1071.05061 269.49873-1536.39404.39978-26.63716-13.49455-60.45228-6.75859-90.53136 13.35123-14.18105 65.02125 47.76564 75.16667 59.8243 94.91442 112.81246 180.19635 310.10707 226.64656 452.72039 99.10083 304.26454 134.37975 595.29397-79.22484 854.7658-152.12105 184.79875-359.90239 334.9239-569.56951 437.04492"/><path d="m1259.57767 96.4049766c-141.58338 328.2944204-233.06571 683.7188374-256.35116 1045.3355334-16.194967 251.37973 11.72193 413.43635 49.79933 654.88776 1.27478 8.10799 9.27798 21.97903-8.23703 16.60549-10.44715-3.20345-63.233534-51.43809-75.785199-63.26623-179.743763-169.52074-249.290848-374.84386-275.057967-624.26813-41.954544-405.996068 76.539509-656.517302 373.464826-901.998858 19.9665-16.50216 179.40433-140.4193932 192.1672-127.2955654"/><path d="m3454.57118 2870.56675c-13.86416-2.49599-12.65727-16.34318-16.02148-26.75639-72.50397-224.23383-106.8551-416.03567-208.86755-638.38559-79.90371-174.16297-201.76197-327.13386-279.12368-492.80729-5.52907-11.84403-13.70575-28.99006-12.69498-42.18543 201.75443 139.77552 396.19964 269.28091 460.29308 532.3298 51.57196 211.66644 55.67539 450.16875 56.41461 667.8049"/><path d="m2964.3472 334.832575-56.66352-15.810596c-577.66322-8.195437-1049.25582 399.787883-1474.68485 758.932441l-177.08106 194.9417c4.81248-203.90024 47.53642-410.042113 116.65355-600.429029 107.47363-296.085002 254.17875-426.130927 525.51044-551.121277 359.71382-165.7131668 568.12879-152.136245 934.40507-17.185776 262.13669 96.580562 508.89307 248.804246 697.55274 465.208297-70.82186 23.918593-149.00576 7.392586-222.79205 11.557871-198.526 11.200166-413.63167 40.412805-608.32579 82.296177-206.17467 44.347569-417.0185 106.270415-598.33877 219.925466 30.38348-76.278771 96.242-161.357105 150.83873-222.516845 119.31625-133.654779 404.4593-325.798429 580.92182-325.798429z"/></g><path d="m2012.60741 1799.35637c-303.7518 8.13979-325.40795 485.32726-24.28114 521.87684 367.46809 44.60194 385.88072-531.56669 24.28114-521.87684m499.13988 61.62873c108.39389 21.56568 215.43002 57.11369 318.68707 97.45495 48.12478 18.80738 168.63283 63.71138 204.77167 92.77299 21.95032 17.65476-19.50638 39.15686-31.57529 45.98506-142.14911 80.43611-344.24298 120.47531-499.3888 169.33792 59.42429 119.16372 126.18044 235.13194 174.79551 360.18588 22.75744 58.54451 53.52561 125.03804 51.47389 188.23273-13.12493 13.67231-140.26334-50.97705-163.4281-62.29645-115.83135-56.597-227.20475-125.7455-338.23871-191.90518l-133.69333 423.23749c-23.30054 46.55739-33.99661 102.55027-69.9167 140.80094-36.71965-.04769-191.82775-494.08707-199.98935-564.2292-59.59778 29.79291-476.77469 276.02168-505.29503 258.41461-12.22731-7.55952 5.63467-63.01982 9.66267-77.336 45.94483-163.20127 136.90668-323.58065 209.07121-475.10482-185.12197-46.85151-372.28057-98.45653-543.379974-187.15961-1.312494-9.96012 1.651932-16.54191 7.309234-24.16502 16.72298-22.55136 166.9658-82.85261 202.33525-96.77134 108.65035-42.74981 221.23063-76.09594 333.73549-105.43576-55.40383-110.52314-113.08567-221.13372-159.70937-336.33883-27.07207-66.89893-61.28743-139.60064-66.52232-212.01619 12.36309-13.3305 187.02282 74.67307 213.8686 88.53615 102.24629 52.78943 196.88162 120.76943 298.92424 173.73373 52.75621-190.18819 100.79047-395.75773 199.98935-564.22133 18.19388-.11916 66.22814 141.71515 77.31645 164.79115l126.29358 399.24735c109.58569-67.66998 218.35673-139.32243 333.01136-197.4059 29.81775-15.11108 127.40996-67.36792 151.57795-71.32653 9.21763-1.51031 15.14648-2.90934 21.18848 6.4387 15.84798 24.49093-79.17959 243.51815-95.69136 281.23624-15.12385 34.52258-136.67285 263.63711-127.18367 275.30627" fill="#d51f29"/><path d="m2012.60741 1799.35637c361.59958-9.68985 343.18695 566.47878-24.28114 521.87684-301.12681-36.54958-279.47066-513.73705 24.28114-521.87684" fill="#fefefe"/></g></svg>