<svg xmlns="http://www.w3.org/2000/svg" xmlns:xlink="http://www.w3.org/1999/xlink" width="384" height="512" viewBox="0 0 384 512"><defs><polygon id="a" points="0 0 383.698 0 383.698 361.52 0 361.52"/></defs><g fill="none" fill-rule="evenodd"><g transform="translate(0 150.48)"><mask id="b" fill="#fff"><use xlink:href="#a"/></mask><path fill="#2A2828" stroke="#FFF" stroke-width="10" d="M12.7731144,5.42528601 C14.6581551,4.83351172 16.7133478,4.87335252 18.9077978,5.46919336 C21.0714326,6.05670175 22.8348706,7.05206237 24.1490872,8.49325487 C25.5392225,10.017701 26.4108255,11.9996105 26.8840895,14.3243193 C27.0474077,15.1265727 27.0310681,15.971153 27.0318013,16.793 C27.0395645,26.1818356 27.0375349,35.5707036 27.0355061,44.9595696 C27.0318088,62.0702047 27.0281215,79.180833 27.0836316,96.2912569 C27.207158,134.342309 39.3604297,168.218381 63.2309143,197.740053 C85.7304381,225.566161 114.45974,244.09621 148.972547,253.588358 C157.313542,255.882468 165.804084,257.409372 174.409589,258.32039 C183.280853,259.259791 192.168729,259.518801 201.069654,259.000042 C226.16111,257.537171 249.784262,250.851089 271.733423,238.585811 C303.386613,220.897737 326.965383,195.615021 342.236844,162.676502 C348.444378,149.287806 352.567872,135.247675 354.835968,120.667038 C356.251558,111.566283 356.725763,102.402081 356.714889,93.1961747 C356.699845,80.2712099 356.70569,67.346212 356.711532,54.4212146 C356.717201,41.8814936 356.722867,29.3417731 356.709477,16.8021662 C356.706613,14.0782885 357.228611,11.533093 358.967513,9.39271872 C360.436109,7.58501637 362.099596,6.26623123 364.005929,5.57920602 C365.836335,4.91954446 367.858929,4.86490524 370.044207,5.34560949 C372.240522,5.82870316 374.053155,6.73217571 375.434685,8.10670508 C376.89024,9.55488482 377.847762,11.4849968 378.427406,13.7813907 C378.534793,14.2068703 378.567982,14.6496329 378.61673,15.0892257 C378.64264,15.322874 378.668849,15.5564855 378.697816,15.7893896 L378.697816,94.3526754 C378.603138,95.2777018 378.549965,95.8962753 378.555626,96.5138141 C378.646757,106.419098 377.863881,116.251112 376.231529,126.023443 C373.896932,140.000061 370.030259,153.531727 364.495422,166.572432 C351.393251,197.442429 331.412892,222.990615 304.678498,243.172497 C277.062705,264.019828 245.994329,276.320343 211.573288,280.065857 C210.615479,280.170079 209.65755,280.272974 208.701977,280.375618 C208.260387,280.423051 207.819297,280.470431 207.378952,280.517862 L202.914423,280.998753 L202.914423,334.423808 L221.722751,334.423633 C240.918932,334.423212 260.115113,334.42279 279.311665,334.432184 C280.299649,334.432594 281.302253,334.428314 282.275828,334.578197 C284.880201,334.979236 287.138443,336.278547 288.76501,338.14715 C290.419328,340.047634 291.418069,342.52967 291.497319,345.243487 C291.57308,347.836761 290.702459,350.279179 289.179681,352.21445 C287.645895,354.16371 285.449631,355.600955 282.876484,356.163668 C282.380848,356.272003 281.884134,356.374952 281.387428,356.477997 L102.653143,356.519879 C101.784845,356.356085 101.261942,356.258356 100.742837,356.143713 C98.1784077,355.577325 96.0176238,354.147202 94.5197427,352.181796 C92.9885906,350.172735 92.1533192,347.615854 92.2346268,344.867271 C92.3098203,342.32633 93.3490539,339.959539 94.9835925,338.125564 C96.6257094,336.283086 98.8797264,334.966253 101.432714,334.577943 C102.410128,334.429313 103.415734,334.432595 104.406201,334.432184 L139.17381,334.423743 L180.794124,334.423817 L180.794124,281.236636 C176.842203,280.631634 175.757923,280.43573 174.961714,280.346824 L174.827562,280.332574 C174.783464,280.328136 174.739826,280.323991 174.696165,280.320083 C162.386121,279.218519 150.316779,276.869521 138.475221,273.336613 C87.633953,258.16875 45.4514858,222.085526 22.6257415,174.193615 C15.6353915,159.526884 10.7337782,144.182498 7.88632804,128.179573 C6.00751025,117.62099 5.07860753,106.98475 5.07722781,96.261515 C5.07611523,87.3374769 5.06255996,78.4134388 5.04900306,69.4894008 C5.0405736,63.9405725 5.03214389,58.3917442 5.02670838,52.8428299 C5.02187716,47.9959826 5.01993668,43.1490933 5.0179959,38.302196 C5.01512167,31.1240982 5.012246,23.9459827 4.99999285,16.7680368 C4.99519519,13.9316748 5.61399907,11.2806839 7.5151311,9.10158806 C9.07331735,7.31554546 10.8125824,6.04075941 12.7731144,5.42528601 Z" mask="url(#b)"/></g><path fill="#2A2828" stroke="#FFF" stroke-width="10" d="M112.368265,5.00457011 C113.100666,5.10756726 113.678815,5.17956498 114.258128,5.19979254 C134.136978,5.89429237 153.014617,12.2020916 168.994136,22.8581076 C184.970865,33.512263 198.051349,48.5137131 206.336526,66.6028538 C210.765323,76.2723069 213.611434,86.3911184 214.89328,96.9546762 C215.433599,101.408546 215.647792,105.873976 215.645314,110.358377 L215.642017,136.928149 C215.637068,173.549881 215.63212,210.171598 215.647904,246.793231 C215.658963,272.446418 207.50414,295.174933 190.948304,314.725444 C175.228465,333.288945 155.293474,344.977385 131.468892,349.954635 C122.074465,351.917222 112.574496,352.510796 103.004951,351.840877 C79.8862368,350.222552 58.8578189,341.237984 42.2595766,327.253959 C25.4139989,313.061554 13.1288856,293.720359 7.86143101,271.704065 C6.04811496,264.125067 5.07751892,256.432448 5.076292,248.632843 C5.07411071,235.228648 5.0561821,221.824369 5.03825234,208.420093 C4.99369819,175.11143 4.94910011,141.802789 5.14643849,108.495506 C5.31454132,80.1070334 15.9534826,55.8227904 35.9696016,35.7806068 C51.2482583,20.4821414 69.6923568,10.963623 90.9448258,6.92760754 C96.1458597,5.93992776 101.393788,5.38660033 106.682355,5.19212161 C107.105831,5.17655657 107.528761,5.12844547 107.951107,5.06721182 L112.368265,5.00457011 Z M115.689411,27.28272 C106.189564,26.6703748 96.8265262,27.6486935 87.6419198,30.229637 C69.8635517,35.2255063 54.5766429,45.8817741 43.8006238,60.0361864 C33.1961265,73.965303 26.9574122,91.2785879 26.9996183,109.917986 C27.0748109,142.981976 27.0559942,176.046118 27.0371843,209.110219 C27.0299305,221.860956 27.0226769,234.611687 27.020812,247.362397 C27.0202641,251.248734 27.2725252,255.111674 27.8063752,258.96123 C29.3808203,270.315391 33.1985645,280.86204 39.2388879,290.590887 C48.3574717,305.277821 61.5147618,316.410493 76.667405,323.053614 C91.7784129,329.678481 108.874838,331.839182 125.931242,328.601828 C145.63962,324.861256 162.000988,315.22882 174.804342,299.799535 C187.226321,284.829953 193.566427,267.506377 193.640833,248.023738 C193.702443,231.876443 193.688372,215.728914 193.674282,199.581397 C193.668208,192.61984 193.662133,185.658285 193.662133,178.696754 C193.662968,171.649486 193.661975,164.601626 193.660983,157.553766 C193.658758,141.758346 193.656533,125.962927 193.674888,110.167508 C193.683249,102.958595 192.852617,95.8681204 191.03035,88.8961938 C186.601896,71.9522586 176.78691,56.9501783 163.355805,45.9723899 C150.324549,35.3214142 133.892686,28.4560836 115.689411,27.28272 Z" transform="translate(81.474)"/></g></svg>