<svg xmlns="http://www.w3.org/2000/svg" width="580" height="512" viewBox="0 0 580 512"><g fill="none" fill-rule="evenodd"><path fill="#000" stroke="#FFF" stroke-width="50"/><path fill="#000" stroke="#FFF" stroke-width="66" d="M459.734997,335.253624 C459.230812,334.685011 458.891536,334.260768 458.509998,333.878639 C453.747276,329.107347 449.003913,324.31655 444.202919,319.583973 C440.488614,315.922865 435.995275,314.602998 430.921205,315.750863 C425.694048,316.933305 422.176423,320.204009 420.669186,325.333492 C419.120574,330.604093 420.238441,335.43331 424.125339,339.37045 C432.768605,348.125428 441.481765,356.811842 450.218421,365.473875 C454.240823,369.461847 459.139934,370.405052 464.53998,369.132471 C467.116617,368.525143 469.133507,366.977122 470.970563,365.138145 C483.17741,352.91859 495.39401,340.708787 507.607359,328.495734 C512.374217,323.728875 517.135609,318.956253 521.910743,314.197374 C523.82257,312.291901 524.962455,310.007403 525.427186,307.360872 C526.150069,303.245228 525.263459,299.429702 523.191303,295.879715 C520.325189,290.969521 515.818402,289.14739 510.356736,289.448098 C506.718384,289.648324 503.702876,291.282494 501.128308,293.86445 C487.820587,307.210148 474.483608,320.526292 461.156381,333.852336 C460.74588,334.262837 460.329765,334.667722 459.734997,335.253624 L459.734997,335.253624 Z"/><path fill="#000" stroke="#FFF" stroke-width="10" d="M574.721965,330.633203 C574.642466,331.157781 574.510509,331.68029 574.491003,332.207232 C573.764279,351.857613 567.504812,369.646705 555.994102,385.491017 C540.954092,406.193657 520.739383,419.136391 495.716145,424.471566 C486.128048,426.514891 476.418043,426.955257 466.641689,426.105441 C434.962226,423.352074 406.553763,405.625045 390.231715,378.345236 C383.480032,367.060759 379.180121,354.901493 377.329618,341.874089 C372.868935,310.469327 383.414423,278.314788 407.151929,255.851636 C421.660268,242.122184 438.799474,233.517486 458.501723,230.151766 C511.65695,221.071402 559.671464,255.226576 571.805314,304.337975 C573.342696,310.560795 574.406332,316.855283 574.488639,323.287935 C574.494845,323.768034 574.640988,324.24636 574.721965,324.725425 L574.721965,330.633203 Z"/><path fill="#000" stroke="#FFF" stroke-linecap="round" stroke-width="10" d="M212.280539,189.37233 C209.698583,188.893413 207.237797,188.432228 204.775238,187.980795 C193.649907,185.941444 182.524429,183.901798 171.398064,181.867915 C160.368339,179.851763 149.337285,177.843296 138.307117,175.830248 C132.308166,174.735432 126.301974,173.678889 120.312923,172.532502 C109.920967,170.543392 103.187016,159.688182 106.246559,149.72372 C107.958308,144.148568 111.945541,140.659314 117.300518,138.646266 C120.869123,137.304825 124.501565,137.427769 128.204639,138.121689 C139.901685,140.313832 151.615282,142.418053 163.322081,144.558182 C174.351657,146.574481 185.383598,148.578515 196.409333,150.615502 C205.892662,152.367443 215.408943,153.879113 224.998517,154.93876 C237.002035,156.264981 249.03422,156.876446 261.108075,156.650509 C268.690364,156.508503 276.24768,155.982596 283.796722,155.258531 C296.544844,154.035748 309.13249,151.812425 321.696937,149.407791 C332.950678,147.25392 344.219639,145.180287 355.481655,143.069859 C365.245153,141.240044 375.016778,139.451899 384.768306,137.559578 C389.958521,136.552389 394.72405,137.34295 399.131684,140.311615 C407.749534,146.115956 410.168058,160.129862 399.821615,167.948728 C396.593615,170.388088 392.939895,171.625795 388.994481,172.307746 C378.139714,174.183665 367.30194,176.158737 356.45737,178.093616 C346.871342,179.804182 337.285462,181.514453 327.698991,183.22295 C318.790481,184.810721 309.88138,186.394945 300.973905,187.98774 C300.694475,188.037834 300.428935,188.165506 300.131034,188.265693 C300.100594,188.649004 300.057889,188.986507 300.049466,189.325044 C299.826188,198.379992 299.606752,207.435088 299.385838,216.490184 C299.143498,226.431152 298.80703,236.370789 298.686598,246.313234 C298.587003,254.533882 298.987455,262.745369 299.611185,270.948137 C301.231613,292.25648 305.256527,313.1326 310.480137,333.824748 C317.665521,362.288477 324.687029,390.793728 331.695681,419.30164 C333.206908,425.448803 332.249813,431.355694 328.225637,436.342137 C323.307316,442.436547 316.815114,445.214148 308.992554,443.632731 C301.270919,442.071854 296.16375,437.280909 294.12632,429.669805 C291.113175,418.413109 288.37488,407.082824 285.523838,395.782683 C277.126754,362.50215 268.732035,329.221026 260.334951,295.940344 C260.238754,295.559102 260.142852,295.175791 260.013112,294.805336 C259.323625,292.837505 257.684578,291.644867 255.669166,291.629942 C253.576323,291.614574 251.866791,292.791549 251.233899,294.855134 C250.686861,296.639141 250.278577,298.466592 249.829361,300.279857 C239.185164,343.237444 228.570521,386.202271 217.877265,429.147592 C215.975634,436.784851 211.134448,441.843109 203.454189,443.859851 C194.828064,446.124845 182.733373,441.92054 180.083591,429.047553 C179.408881,425.769608 179.487051,422.491515 180.318247,419.243567 C184.41409,403.236857 188.517322,387.23192 192.613017,371.225211 C196.550304,355.837798 200.536651,340.46265 204.395177,325.055436 C206.810155,315.412517 208.548945,305.630844 209.980821,295.792576 C212.616269,277.686078 213.840086,259.480575 213.62198,241.194095 C213.467562,228.249441 213.006968,215.308481 212.681878,202.365895 C212.584351,198.478258 212.485051,194.590473 212.381317,190.702984 C212.370826,190.314353 212.323688,189.926461 212.280539,189.37233"/><path fill="#000" stroke="#FFF" stroke-linecap="round" stroke-width="10" d="M216.631688,106.450087 C216.655058,84.6931195 234.263725,67.1270104 256.013304,67.1633051 C277.720029,67.1995646 295.29397,84.8654174 295.261212,106.616622 C295.228509,128.326303 277.553642,145.862119 255.772589,145.794931 C234.066602,145.727502 216.608364,128.178387 216.631688,106.450087"/><path fill="#FFF" d="M459.734997,335.253624 C460.329765,334.667722 460.74588,334.262837 461.156381,333.852336 C474.483608,320.526292 487.820587,307.210148 501.128308,293.86445 C503.702876,291.282494 506.718384,289.648324 510.356736,289.448098 C515.818402,289.14739 520.325189,290.969521 523.191303,295.879715 C525.263459,299.429702 526.150069,303.245228 525.427186,307.360872 C524.962455,310.007403 523.82257,312.291901 521.910743,314.197374 C517.135609,318.956253 512.374217,323.728875 507.607359,328.495734 C495.39401,340.708787 483.17741,352.91859 470.970563,365.138145 C469.133507,366.977122 467.116617,368.525143 464.53998,369.132471 C459.139934,370.405052 454.240823,369.461847 450.218421,365.473875 C441.481765,356.811842 432.768605,348.125428 424.125339,339.37045 C420.238441,335.43331 419.120574,330.604093 420.669186,325.333492 C422.176423,320.204009 425.694048,316.933305 430.921205,315.750863 C435.995275,314.602998 440.488614,315.922865 444.202919,319.583973 C449.003913,324.31655 453.747276,329.107347 458.509998,333.878639 C458.891536,334.260768 459.230812,334.685011 459.734997,335.253624"/></g></svg>