<svg xmlns="http://www.w3.org/2000/svg" xmlns:xlink="http://www.w3.org/1999/xlink" width="2978" height="3973" viewBox="0 0 2978 3973"><defs><polygon id="a" points="0 0 2977.405 0 2977.405 2805.31 0 2805.31"/><polygon id="c" points="0 0 1712.176 0 1712.176 2771.055 0 2771.055"/></defs><g fill="none" fill-rule="evenodd"><g transform="translate(0 1167.69)"><mask id="b" fill="#fff"><use xlink:href="#a"/></mask><path fill="#000" stroke="#FFF" stroke-width="66" d="M97.3795177,36.5663428 C113.000342,31.6624686 130.036517,31.9009233 148.239663,36.8434729 C166.196373,41.7193965 180.779192,50.0486806 191.676067,61.9983808 C203.123668,74.5520163 210.395296,90.8334629 214.296526,109.996599 C215.456811,115.696167 215.550315,121.653037 215.558127,127.528992 L215.558891,129.381472 L215.559281,130.304956 C215.619524,203.162139 215.603775,276.019574 215.588032,348.876993 C215.559343,481.644829 215.53072,614.412613 215.961444,747.178798 C216.915565,1041.08624 310.790391,1302.74476 495.1663,1530.77052 C668.977009,1745.72953 890.917311,1888.86796 1157.52991,1962.19512 C1221.94991,1979.91321 1287.52536,1991.70313 1353.98824,1998.73919 C1422.51167,2005.99532 1491.16343,2007.99772 1559.91596,2003.99073 C1753.73397,1992.69083 1936.21265,1941.05118 2105.75905,1846.30799 C2350.2872,1709.66355 2532.44112,1514.35067 2650.41695,1259.89243 C2698.35713,1156.49282 2730.19794,1048.06109 2747.71416,935.456712 C2758.65253,865.134516 2762.30927,794.321674 2762.22525,723.187259 C2762.1085,622.889433 2762.15386,522.59135 2762.1992,422.293271 C2762.24318,324.990908 2762.28715,227.688549 2762.18325,130.386975 C2762.15957,107.860302 2766.65022,86.895546 2781.00316,69.228843 C2793.12806,54.3042379 2806.91188,43.5043564 2822.63477,37.8379671 C2837.8063,32.3702879 2854.57188,31.8290398 2872.70217,35.8172317 C2890.92966,39.8264842 2905.92112,47.3992248 2917.37527,58.795341 C2929.36688,70.7261838 2937.35017,86.5823899 2942.13064,105.5213 C2943.02823,109.077657 2943.33314,112.774141 2943.74073,116.449731 C2943.95211,118.355897 2944.16577,120.261788 2944.40527,122.16104 L2944.40527,732.423927 C2944.32198,733.325629 2944.22749,734.227319 2944.13455,735.129122 C2943.6623,739.711184 2943.25972,744.294848 2943.30167,748.871266 C2944.01194,826.072525 2937.91069,902.702763 2925.18822,978.867808 C2906.9968,1087.77501 2876.86506,1193.21436 2833.73713,1294.82868 C2731.66333,1535.32454 2576.00478,1734.36074 2367.72767,1891.58982 C2152.58532,2054.0021 1910.54565,2149.83067 1642.3865,2179.01032 C1634.95147,2179.81935 1627.51551,2180.61808 1620.09783,2181.41485 C1616.67176,2181.78287 1613.24958,2182.15046 1609.83316,2182.51846 L1580.36727,2185.69233 L1580.36727,2589.25167 L1627.91675,2589.25167 L1720.51654,2589.25031 C1869.4754,2589.24704 2018.43426,2589.24377 2167.39557,2589.31667 C2175.3566,2589.31997 2183.43296,2589.30966 2191.27691,2590.51725 C2212.88852,2593.84514 2231.62573,2604.63001 2245.12278,2620.13544 C2258.80817,2635.85724 2267.0916,2656.38415 2267.74734,2678.83934 C2268.37598,2700.35735 2261.16063,2720.62774 2248.52386,2736.68758 C2235.81463,2752.8395 2217.61603,2764.74888 2196.29359,2769.41181 C2192.42748,2770.25685 2188.55298,2771.06 2184.67856,2771.86377 L2182.53044,2772.30967 L796.018451,2772.30967 C794.948887,2772.10618 793.878931,2771.90447 792.808965,2771.70282 C788.693567,2770.92722 784.577095,2770.15682 780.490235,2769.25425 C759.203502,2764.5528 741.271645,2752.67649 728.838999,2736.36331 C716.186142,2719.76119 709.250699,2698.63902 709.92283,2675.9178 C710.547171,2654.82004 719.144208,2635.15086 732.721442,2619.91701 C746.343149,2604.63326 765.050405,2593.73388 786.222352,2590.51362 C794.09255,2589.31685 802.188563,2589.31998 810.174415,2589.31667 C959.161461,2589.24377 1108.14919,2589.24704 1257.13671,2589.25031 L1349.75427,2589.25167 L1397.12127,2589.25167 L1397.12127,2186.94839 L1368.80566,2182.88784 C1367.83583,2182.74876 1366.82695,2182.58629 1365.78977,2182.4208 C1362.36769,2181.87476 1358.73667,2181.32093 1355.08452,2180.99401 C1259.17377,2172.41143 1165.13817,2154.11077 1072.87751,2126.58497 C676.791152,2008.41751 348.163002,1727.30537 170.335783,1354.19661 C115.867589,1239.91472 77.673995,1120.35279 55.4869115,995.65939 C40.8479694,913.391447 33.61002,830.518448 33.5992698,746.967555 C33.5906368,677.721804 33.4854532,608.476052 33.380259,539.2303 C33.3148467,496.171648 33.2494328,453.112996 33.2072536,410.053776 C33.1697634,372.442222 33.1547049,334.830343 33.1396444,297.218401 C33.1173421,241.520567 33.0950302,185.822596 32.9999528,130.125851 C32.9602578,106.6583 38.2460129,84.8095172 53.9460207,66.8140169 C66.8082136,52.0709625 81.2131283,41.6414871 97.3795177,36.5663428 Z" mask="url(#b)"/></g><g transform="translate(632.215)"><mask id="d" fill="#fff"><use xlink:href="#c"/></mask><path fill="#000" stroke="#FFF" stroke-width="66" d="M872.089966,32.9998 C872.713629,33.0844622 873.337132,33.172917 873.960714,33.2606299 C878.241003,33.8626938 882.52516,34.40376 886.818803,34.5536791 C1042.16857,39.9810747 1189.69476,89.273772 1314.57219,172.548867 C1439.42772,255.809349 1541.64814,373.044239 1606.3953,514.40762 C1641.01216,589.98708 1663.25885,669.078727 1673.27819,751.64704 C1677.49951,786.443508 1679.17559,821.33019 1679.15601,856.34858 L1679.13043,1062.53098 C1679.09203,1346.70596 1679.05363,1630.88082 1679.1761,1915.05503 C1679.26253,2115.53631 1615.52276,2293.15644 1486.13947,2445.94301 C1363.30053,2591.00306 1207.52727,2682.34821 1021.35368,2721.24217 C947.930154,2736.58106 873.681814,2741.22322 798.889391,2735.98736 C618.225347,2723.34076 453.896935,2653.12836 324.188167,2543.84868 C192.535221,2432.93102 96.5295221,2281.77127 55.3632049,2109.70909 C41.1863165,2050.45488 33.6016004,1990.31207 33.5920082,1929.33343 C33.5777031,1841.42797 33.4761181,1753.52204 33.3610098,1665.61544 L33.2297212,1566.73608 C32.9139733,1325.10889 32.7049007,1083.48244 34.1364301,841.865207 C35.4502191,619.998251 118.573754,430.193804 275.012644,273.551202 C394.411733,153.997313 538.543084,79.6003975 704.628702,48.0593973 C745.274647,40.3407054 786.286893,36.0143858 827.617118,34.4945317 C831.229694,34.3617501 834.835716,33.9100543 838.43508,33.3449258 L840.427954,33.0285736 L872.089966,32.9998 Z M897.349748,217.494144 C824.290864,212.784883 752.284083,220.308475 681.649544,240.157312 C544.928326,278.577111 427.367396,360.527371 344.496468,469.379189 C262.957602,576.481331 214.985008,709.604042 215.309535,852.924523 C215.893025,1109.49878 215.747017,1366.07429 215.601053,1622.64947 C215.544766,1721.59139 215.48848,1820.53326 215.474009,1919.47497 C215.469795,1949.36479 217.408975,1979.07479 221.514827,2008.6818 C233.619561,2095.97548 262.97163,2177.06061 309.411115,2251.85837 C379.536315,2364.80619 480.720004,2450.42132 597.249474,2501.5094 C713.461622,2552.45835 844.942783,2569.07296 976.115641,2544.17598 C1127.68417,2515.40887 1253.5131,2441.33112 1351.97828,2322.67101 C1447.48683,2207.57478 1496.23668,2074.38015 1496.80877,1924.58383 C1497.28105,1800.8032 1497.18016,1677.02079 1497.07914,1553.23844 C1497.03382,1497.70844 1496.9885,1442.17846 1496.99501,1386.64867 C1496.99501,1337.52828 1496.98518,1288.41176 1496.97536,1239.29524 C1496.94972,1111.15254 1496.92408,983.009844 1497.07299,854.867148 C1497.13728,799.427379 1490.75463,744.897545 1476.74046,691.279855 C1442.688,560.989979 1367.2098,445.636979 1263.93305,361.224686 C1163.71491,279.312323 1037.34289,226.517952 897.349748,217.494144 Z" mask="url(#d)"/></g></g></svg>