<svg xmlns="http://www.w3.org/2000/svg" width="291" height="256" viewBox="0 0 291 256"><g fill="none" fill-rule="evenodd"><path fill="#2A2828" stroke="#2A2828" stroke-width="50"/><path fill="#000" stroke="#FFF" stroke-width="6" d="M229.867499,167.626812 C229.615406,167.342506 229.445768,167.130384 229.254999,166.93932 C226.873638,164.553674 224.501956,162.158275 222.10146,159.791987 C220.244307,157.961432 217.997637,157.301499 215.460603,157.875431 C212.847024,158.466652 211.088211,160.102005 210.334593,162.666746 C209.560287,165.302046 210.119221,167.716655 212.06267,169.685225 C216.384303,174.062714 220.740883,178.405921 225.10921,182.736937 C227.120411,184.730923 229.569967,185.202526 232.26999,184.566235 C233.558308,184.262572 234.566754,183.488561 235.485282,182.569072 C241.588705,176.459295 247.697005,170.354394 253.803679,164.247867 C256.187109,161.864438 258.567804,159.478127 260.955371,157.098687 C261.911285,156.145951 262.481227,155.003701 262.713593,153.680436 C263.075034,151.622614 262.631729,149.714851 261.595652,147.939858 C260.162594,145.48476 257.909201,144.573695 255.178368,144.724049 C253.359192,144.824162 251.851438,145.641247 250.564154,146.932225 C243.910293,153.605074 237.241804,160.263146 230.57819,166.926168 C230.37294,167.131418 230.164882,167.333861 229.867499,167.626812 L229.867499,167.626812 Z"/><path fill="#2A2828" stroke="#FFF" stroke-width="6" d="M287.360983,165.316602 C287.321233,165.57889 287.255254,165.840145 287.245502,166.103616 C286.882139,175.928807 283.752406,184.823352 277.997051,192.745509 C270.477046,203.096829 260.369692,209.568195 247.858072,212.235783 C243.064024,213.257446 238.209021,213.477628 233.320845,213.052721 C217.481113,211.676037 203.276881,202.812522 195.115858,189.172618 C191.740016,183.530379 189.590061,177.450747 188.664809,170.937044 C186.434468,155.234663 191.707211,139.157394 203.575965,127.925818 C210.830134,121.061092 219.399737,116.758743 229.250861,115.075883 C255.828475,110.535701 279.835732,127.613288 285.902657,152.168987 C286.671348,155.280398 287.203166,158.427642 287.24432,161.643967 C287.247423,161.884017 287.320494,162.12318 287.360983,162.362712 L287.360983,165.316602 Z"/><path fill="#2A2828" stroke="#FFF" stroke-linecap="round" stroke-width="6" d="M106.14027,94.6861649 C104.849292,94.4467063 103.618898,94.2161138 102.387619,93.9903977 C96.8249535,92.9707222 91.2622144,91.950899 85.6990319,90.9339573 C80.1841697,89.9258817 74.6686425,88.9216481 69.1535586,87.915124 C66.154083,87.3677162 63.150987,86.8394444 60.1564616,86.266251 C54.9604835,85.2716962 51.593508,79.8440912 53.1232797,74.8618599 C53.9791539,72.0742841 55.9727705,70.3296572 58.6502589,69.3231331 C60.4345616,68.6524126 62.2507823,68.7138843 64.1023196,69.0608443 C69.9508427,70.156916 75.8076409,71.2090266 81.6610404,72.279091 C87.1758287,73.2872405 92.6917992,74.2892576 98.2046665,75.3077509 C102.946331,76.1837216 107.704471,76.9395567 112.499259,77.4693801 C118.501017,78.1324905 124.51711,78.4382232 130.554038,78.3252543 C134.345182,78.2542516 138.12384,77.9912978 141.898361,77.6292654 C148.272422,77.0178739 154.566245,75.9062127 160.848468,74.7038956 C166.475339,73.6269599 172.10982,72.5901434 177.740828,71.5349296 C182.622576,70.620022 187.508389,69.7259496 192.384153,68.7797889 C194.979261,68.2761944 197.362025,68.6714748 199.565842,70.1558077 C203.874767,73.0579779 205.084029,80.0649309 199.910807,83.974364 C198.296808,85.1940439 196.469948,85.8128977 194.49724,86.1538732 C189.069857,87.0918327 183.65097,88.0793685 178.228685,89.0468078 C173.435671,89.902091 168.642731,90.7572264 163.849495,91.6114751 C159.395241,92.4053606 154.94069,93.1974727 150.486952,93.9938702 C150.347237,94.0189169 150.214467,94.0827529 150.065517,94.1328463 C150.050297,94.3245019 150.028944,94.4932533 150.024733,94.6625219 C149.913094,99.1899961 149.803376,103.717544 149.692919,108.245092 C149.571749,113.215576 149.403515,118.185395 149.343299,123.156617 C149.293501,127.266941 149.493727,131.372685 149.805592,135.474069 C150.615806,146.12824 152.628263,156.5663 155.240069,166.912374 C158.83276,181.144238 162.343514,195.396864 165.847841,209.65082 C166.603454,212.724401 166.124906,215.677847 164.112819,218.171069 C161.653658,221.218273 158.407557,222.607074 154.496277,221.816366 C150.635459,221.035927 148.081875,218.640455 147.06316,214.834903 C145.556588,209.206554 144.18744,203.541412 142.761919,197.891342 C138.563377,181.251075 134.366017,164.610513 130.167476,147.970172 C130.119377,147.779551 130.071426,147.587896 130.006556,147.402668 C129.661812,146.418752 128.842289,145.822433 127.834583,145.814971 C126.788161,145.807287 125.933395,146.395774 125.61695,147.427567 C125.34343,148.31957 125.139288,149.233296 124.914681,150.139929 C119.592582,171.618722 114.285261,193.101135 108.938633,214.573796 C107.987817,218.392426 105.567224,220.921555 101.727094,221.929926 C97.414032,223.062422 91.3666866,220.96027 90.0417956,214.523776 C89.7044405,212.884804 89.7435253,211.245758 90.1591237,209.621783 C92.2070451,201.618429 94.2586608,193.61596 96.3065083,185.612605 C98.275152,177.918899 100.268325,170.231325 102.197589,162.527718 C103.405078,157.706259 104.274473,152.815422 104.99041,147.896288 C106.308135,138.843039 106.920043,129.740288 106.81099,120.597048 C106.733781,114.124721 106.503484,107.654241 106.340939,101.182948 C106.292176,99.2391291 106.242525,97.2952366 106.190659,95.3514918 C106.185413,95.1571765 106.161844,94.9632305 106.14027,94.6861649"/><path fill="#2A2828" stroke="#FFF" stroke-linecap="round" stroke-width="6" d="M108.315844,53.2250433 C108.327529,42.3465598 117.131862,33.5635052 128.006652,33.5816525 C138.860015,33.5997823 147.646985,42.4327087 147.630606,53.3083108 C147.614254,64.1631514 138.776821,72.9310597 127.886294,72.8974653 C117.033301,72.8637512 108.304182,64.0891933 108.315844,53.2250433"/><path fill="#FFF" d="M229.867499,167.626812 C230.164882,167.333861 230.37294,167.131418 230.57819,166.926168 C237.241804,160.263146 243.910293,153.605074 250.564154,146.932225 C251.851438,145.641247 253.359192,144.824162 255.178368,144.724049 C257.909201,144.573695 260.162594,145.48476 261.595652,147.939858 C262.631729,149.714851 263.075034,151.622614 262.713593,153.680436 C262.481227,155.003701 261.911285,156.145951 260.955371,157.098687 C258.567804,159.478127 256.187109,161.864438 253.803679,164.247867 C247.697005,170.354394 241.588705,176.459295 235.485282,182.569072 C234.566754,183.488561 233.558308,184.262572 232.26999,184.566235 C229.569967,185.202526 227.120411,184.730923 225.10921,182.736937 C220.740883,178.405921 216.384303,174.062714 212.06267,169.685225 C210.119221,167.716655 209.560287,165.302046 210.334593,162.666746 C211.088211,160.102005 212.847024,158.466652 215.460603,157.875431 C217.997637,157.301499 220.244307,157.961432 222.10146,159.791987 C224.501956,162.158275 226.873638,164.553674 229.254999,166.93932 C229.445768,167.130384 229.615406,167.342506 229.867499,167.626812"/></g></svg>