<svg xmlns="http://www.w3.org/2000/svg" xmlns:xlink="http://www.w3.org/1999/xlink" width="959" height="1024" viewBox="0 0 959 1024"><defs><polygon id="a" points="0 0 958.425 0 958.425 1024 0 1024"/></defs><g fill="none" fill-rule="evenodd"><mask id="b" fill="#fff"><use xlink:href="#a"/></mask><path fill="#000" d="M524.144292,521.632557 C526.278391,521.632557 528.129288,521.632557 529.980185,521.632557 C555.489524,521.632557 580.999118,521.632812 606.508456,521.631025 C608.038868,521.631025 609.573366,521.68031 611.099182,521.590932 C619.406769,521.102926 626.468422,515.011156 626.529059,505.683634 C626.589722,496.210298 619.084496,489.862906 611.236569,489.722709 C610.046561,489.701258 608.856297,489.67244 607.666288,489.67244 C575.354238,489.67244 543.042188,489.67244 510.730394,489.676999 C509.201003,489.677254 507.663696,489.6604 506.143498,489.798809 C498.901812,490.457654 493.410408,495.280764 491.996698,502.390682 C491.570236,504.535761 491.49286,506.77788 491.490306,508.975565 C491.458385,537.206091 491.468855,565.436616 491.468855,593.666886 C491.468855,620.366999 491.454555,647.066856 491.494392,673.766714 C491.497712,676.131664 491.59424,678.552029 492.092716,680.850329 C493.675223,688.148707 500.135998,693.177131 507.586064,693.154481 C515.030768,693.131676 521.404463,688.062393 522.986715,680.731583 C523.412667,678.758621 523.539328,676.689641 523.549543,674.663562 C523.603425,664.119984 523.575335,653.575896 523.57559,643.032064 C523.576101,629.59697 523.562311,616.161877 523.597297,602.727038 C523.601382,601.257148 523.192541,599.66366 524.549303,598.101838 C526.1908,598.061745 528.037867,597.978496 529.884934,597.97773 C551.483077,597.968281 573.08122,597.986157 594.678853,597.948363 C596.876027,597.944532 599.118401,597.849025 601.260927,597.411071 C608.631064,595.904153 613.683237,589.610131 613.748611,582.107205 C613.814495,574.56393 608.912222,568.18002 601.604395,566.521413 C599.637051,566.074777 597.56756,565.932538 595.542247,565.912875 C587.890186,565.839074 580.236848,565.873037 572.584021,565.866909 C557.958664,565.855417 543.333306,565.859503 528.707949,565.810217 C527.076156,565.804855 525.305189,566.298734 523.88203,565.079869 C523.336823,559.22278 523.470635,526.127776 524.144292,521.632557 M175.939639,626.824965 C178.064544,626.824965 179.56993,626.825476 181.075317,626.824965 C191.4455,626.821901 201.817726,626.941413 212.185867,626.786916 C227.854142,626.553511 241.914373,621.551134 253.963592,611.521354 C270.978925,597.3577 279.255613,578.991732 278.811275,556.904817 C278.333229,533.150102 268.155592,514.38704 248.567439,500.934581 C237.173236,493.109381 224.371452,489.621839 210.560458,489.664601 C194.410051,489.715304 178.259389,489.670614 162.108982,489.679297 C160.750687,489.680063 159.384475,489.696406 158.035884,489.838646 C150.49312,490.634623 144.831131,496.214895 144.010383,503.715268 C143.807622,505.567442 143.821412,507.448728 143.821156,509.31648 C143.811963,564.058147 143.812729,618.799814 143.819113,673.541736 C143.819369,675.240435 143.800472,676.948072 143.956501,678.636045 C144.667952,686.333561 150.520955,692.282837 158.084149,693.071665 C165.835547,693.880156 173.007774,689.055514 175.066285,681.421584 C175.631156,679.327322 175.756541,677.065029 175.765989,674.878325 C175.826,660.938116 175.792547,646.997652 175.803017,633.057188 C175.80455,631.213185 175.88167,629.369438 175.939639,626.824965 M315.999806,591.548109 C315.999806,618.919325 315.986272,646.290797 316.0233,673.662014 C316.026364,676.027986 316.109103,678.446563 316.593534,680.748438 C317.767965,686.328709 321.2647,690.042506 326.529594,692.137023 C328.78729,693.034892 331.142792,693.168449 333.542472,693.165129 C350.373431,693.141125 367.207965,693.371976 384.034328,693.093116 C406.368182,692.72309 424.390426,683.411146 437.862548,665.626648 C446.885417,653.715071 451.075473,640.052957 451.126546,625.161507 C451.203412,602.720654 451.166128,580.27929 451.123737,557.838437 C451.11863,555.126954 450.883948,552.404746 450.581849,549.707053 C448.599693,531.999931 440.738743,517.333715 427.263046,505.781184 C414.78762,495.08643 400.191885,489.755652 383.744487,489.69513 C367.083857,489.633586 350.422972,489.67419 333.762087,489.682106 C332.574122,489.682617 331.379006,489.716836 330.199723,489.847328 C323.267285,490.615216 317.858875,495.467182 316.531735,502.340374 C316.085099,504.652974 316.023555,507.066444 316.020746,509.434204 C315.987549,536.80542 315.999551,564.176637 315.999806,591.548109 M925.87379,328.725032 L918.72046,328.725032 C839.637502,328.725032 760.554288,328.733203 681.471074,328.697708 C677.913051,328.696175 674.330513,328.496479 670.801346,328.053928 C651.737206,325.661909 635.057934,310.684146 630.791269,290.916215 C629.81015,286.371711 629.739158,281.80933 629.738648,277.220392 C629.732263,198.137434 629.734051,119.05422 629.73354,39.9710059 C629.73354,38.2702642 629.761631,36.568501 629.708259,34.8692914 C629.682722,34.0567148 629.497071,33.2492456 629.345383,32.1616391 C627.476865,32.0850291 625.818004,31.9576012 624.159142,31.9576012 C519.565313,31.9397243 414.971484,31.9547921 310.377655,31.9397243 C303.553237,31.9397243 296.806961,32.5916765 290.093883,33.7883245 C248.305944,41.2371136 213.893759,73.2271464 203.417088,114.323808 C200.921134,124.115076 199.993888,134.046794 199.993888,144.127647 C200.02684,234.77565 200.01254,325.423652 200.012795,416.071654 C200.012795,417.092099 199.9607,418.116886 200.039098,419.131713 C200.114431,420.101084 200.328684,421.059986 200.502844,422.15653 C203.058042,422.717571 205.433718,422.494891 207.781814,422.495402 C378.703294,422.522215 549.625029,422.537282 720.546509,422.554647 C723.097622,422.554902 725.648479,422.566394 728.199592,422.584269 C745.018038,422.701483 763.060456,434.317344 768.740831,454.252029 C770.152243,459.204865 770.462002,464.281554 770.461236,469.402165 C770.451532,550.696088 770.454597,631.990266 770.45332,713.284444 C770.453065,714.644782 770.465578,716.006397 770.419101,717.365458 C769.636147,740.378333 753.545496,755.037143 737.327927,758.954723 C732.497923,760.121493 727.597693,760.358473 722.649453,760.357962 C551.38757,760.33932 380.125941,760.342385 208.864058,760.342896 C206.993242,760.342896 205.120383,760.294887 203.252631,760.372518 C202.289133,760.412355 201.334828,760.679979 200.270971,760.862822 C200.189253,762.445584 200.060038,763.787281 200.059783,765.128977 C200.054164,804.415345 200.057995,843.701713 200.069742,882.988336 C200.071785,889.121476 200.53834,895.220142 201.595302,901.266458 C208.631419,941.51709 238.223559,975.066902 277.284949,987.127868 C289.088505,990.772716 301.165048,992.136629 313.495681,992.133309 C466.389554,992.093472 619.283682,992.116711 772.177811,992.123861 C786.974009,992.124372 801.771228,992.230349 816.565638,992.072021 C821.991668,992.013798 827.463919,991.682077 832.823299,990.870521 C851.861136,987.986921 869.100426,980.680882 884.166547,968.651837 C906.943973,950.466158 920.679378,926.958128 925.131184,898.066714 C926.199894,891.130701 926.178953,884.176046 926.179209,877.205814 C926.186826,697.440477 926.186826,517.67514 926.186826,337.909803 C926.186826,336.038987 926.203213,334.167661 926.163376,332.297866 C926.142181,331.310874 926.008624,330.326691 925.87379,328.725032 M167.748499,760.475686 C165.101368,760.431252 163.084738,760.368432 161.068363,760.368177 C122.294005,760.361793 83.5199026,760.356175 44.7458,760.367411 C36.9517552,760.369709 29.4804938,758.886029 22.7217053,754.956192 C8.22377578,746.526284 0.209094194,733.992124 0.0911148125,717.040887 C-0.0817683939,692.213122 0.0443827198,667.383059 0.0443827198,642.554017 C0.0441273531,584.222662 0.0461702861,525.891561 0.0410629536,467.560206 C0.0405522204,463.472041 0.246633088,459.433929 1.232859,455.41931 C5.84861078,436.627391 22.9234449,423.266609 40.8210703,422.58146 C43.0289702,422.496934 45.2399345,422.456586 47.4493665,422.456331 C85.3733535,422.44867 123.297085,422.455054 161.221072,422.438966 C163.227232,422.4382 165.272975,422.68948 167.450741,422.005609 C167.59247,421.126126 167.804935,420.326573 167.834046,419.520381 C167.895079,417.821937 167.863924,416.119919 167.863924,414.419177 C167.86469,323.946356 167.845793,233.47328 167.878991,143.000204 C167.887163,121.264163 172.10633,100.366235 181.819966,80.858778 C202.312627,39.7036371 234.991639,13.7351494 279.832231,3.21583193 C290.491489,0.715281922 301.325929,0 312.233149,0 C422.263222,0 532.293552,0 642.323626,0 C643.852761,0 645.382662,0.0674167895 646.911287,0.126151114 C650.457308,0.262261526 653.5023,1.66754407 656.161177,3.93085849 C657.323861,4.92040417 658.371375,6.04682636 659.453364,7.12881476 C756.732216,104.417882 854.009025,201.708736 951.286089,298.999335 C952.0075,299.721001 952.726613,300.445221 953.446747,301.167908 C956.461605,304.194769 958.018575,307.878177 958.29003,312.108325 C958.398561,313.803194 958.397539,315.506744 958.397795,317.206465 C958.406222,505.125147 958.468787,693.04383 958.367406,880.962257 C958.3457,920.976931 944.085517,955.390904 915.562597,983.534094 C894.656752,1004.16133 869.523314,1016.91741 840.52056,1021.97647 C832.110826,1023.4433 823.660234,1024 815.141969,1024 C768.544965,1023.97625 721.947961,1023.98774 675.350958,1023.988 C554.606977,1023.988 433.862996,1023.98187 313.11876,1024 C303.923263,1024 294.792629,1023.55464 285.699024,1021.98133 C264.0447,1018.23459 244.269619,1010.01536 226.612549,997.001874 C195.947614,974.400651 177.11075,944.24364 170.091998,906.795145 C168.493148,898.265389 167.865967,889.60463 167.865712,880.913482 C167.86418,842.992815 167.866223,805.072148 167.860094,767.151481 C167.859583,765.135106 167.794465,763.118986 167.748499,760.475686" mask="url(#b)"/><path fill="#FFF" d="M925.873841,328.725083 C926.00842,330.326487 926.142232,331.310925 926.163427,332.297662 C926.203264,334.167712 926.186877,336.039038 926.186877,337.909854 C926.186877,517.675191 926.186877,697.440528 926.179005,877.205865 C926.179005,884.175842 926.199689,891.130752 925.13098,898.066765 C920.679429,926.958179 906.944024,950.466209 884.166598,968.651888 C869.100478,980.680933 851.861187,987.986717 832.82335,990.870317 C827.46397,991.682128 821.991719,992.013849 816.565689,992.071817 C801.771279,992.2304 786.973804,992.124423 772.177606,992.123657 C619.283734,992.116762 466.389605,992.093523 313.495477,992.13336 C301.165099,992.136425 289.088556,990.772512 277.285,987.127919 C238.22361,975.066698 208.63147,941.517141 201.595353,901.266509 C200.538391,895.220193 200.07158,889.121528 200.069793,882.988387 C200.058046,843.701764 200.054216,804.415396 200.059834,765.129028 C200.060089,763.787332 200.189304,762.445635 200.270766,760.862873 C201.334879,760.680031 202.289184,760.412406 203.252683,760.372569 C205.120434,760.294682 206.993293,760.342691 208.864109,760.342691 C380.125737,760.342436 551.387621,760.339371 722.649505,760.358013 C727.597744,760.358524 732.497974,760.121288 737.327978,758.954774 C753.545547,755.037194 769.635942,740.378384 770.419152,717.365509 C770.465373,716.006193 770.453116,714.644833 770.453116,713.28424 C770.454648,631.990317 770.451583,550.696139 770.461287,469.402216 C770.462053,464.281605 770.152038,459.204916 768.740882,454.25208 C763.060507,434.317395 745.018089,422.701278 728.199387,422.58432 C725.64853,422.566445 723.097418,422.554953 720.54656,422.554698 C549.624825,422.537333 378.703345,422.522266 207.781865,422.495453 C205.433769,422.494942 203.058093,422.717622 200.502895,422.156581 C200.328479,421.060037 200.114227,420.101135 200.039149,419.131508 C199.960751,418.116937 200.012846,417.09215 200.012846,416.071705 C200.012591,325.423703 200.026636,234.775701 199.993937,144.127698 C199.993937,134.04659 200.92093,124.115127 203.417139,114.323859 C213.89381,73.2271974 248.305995,41.2371647 290.093935,33.7883756 C296.807012,32.5917276 303.553033,31.93952 310.377706,31.93952 C414.971535,31.9548432 519.565364,31.93952 624.159193,31.9576522 C625.818055,31.9576522 627.476916,32.0850802 629.345179,32.1616902 C629.497122,33.2490413 629.682773,34.0567659 629.70831,34.8693425 C629.761682,36.568552 629.733591,38.2703153 629.733591,39.971057 C629.733847,119.054271 629.732314,198.137229 629.738699,277.220443 C629.739209,281.809381 629.810201,286.371506 630.79132,290.916266 C635.057985,310.684197 651.737257,325.66196 670.801141,328.053724 C674.330308,328.49653 677.913102,328.696226 681.471125,328.697759 C760.554339,328.733255 839.637298,328.725083 918.720511,328.725083 L925.873841,328.725083 Z"/><path fill="#FFF" d="M348.518218 660.675957C349.196727 660.936175 349.504955 661.157068 349.813693 661.157834 361.538852 661.188222 373.281886 661.613408 384.985083 661.111612 401.499898 660.403481 414.584884 649.339977 418.18632 633.622161 418.936076 630.350404 419.060184 626.88227 419.072187 623.503258 419.14752 602.088468 419.111768 580.673168 419.106661 559.258122 419.106406 557.899061 419.077549 556.538979 419.024178 555.180939 418.315535 537.142862 402.983068 521.880109 384.428384 521.702885 373.38199 521.597163 362.333808 521.664069 351.286648 521.693947 350.329789 521.696501 349.373952 522.004473 348.493448 522.157437 347.941345 527.432801 347.970457 656.589069 348.518218 660.675957M315.999576 591.548211C315.999576 564.176739 315.987574 536.805523 316.020772 509.434051 316.023581 507.066547 316.085124 504.652821 316.531761 502.340476 317.858901 495.467028 323.267311 490.615318 330.199748 489.84743 331.379032 489.716683 332.574147 489.682719 333.762113 489.682208 350.422998 489.674036 367.083883 489.633688 383.744512 489.694976 400.19191 489.755498 414.787645 495.086532 427.263071 505.781286 440.738768 517.333817 448.599719 531.999778 450.581875 549.7069 450.883973 552.404848 451.1184 555.127057 451.123763 557.838284 451.166154 580.279392 451.203437 602.720756 451.126572 625.161609 451.075498 640.053059 446.885443 653.715173 437.862574 665.626494 424.390452 683.411248 406.368208 692.723192 384.034353 693.093218 367.207991 693.371823 350.373457 693.140972 333.542498 693.165231 331.142817 693.168551 328.787316 693.034739 326.529619 692.13687 321.264726 690.042608 317.76799 686.328811 316.593559 680.748284 316.109129 678.446665 316.02639 676.027832 316.023326 673.662116 315.986297 646.290899 315.999832 618.919427 315.999576 591.548211M176.155704 594.625609C177.213944 594.747929 178.02984 594.922855 178.845992 594.924132 189.722056 594.938177 200.599908 595.021172 211.47393 594.863355 214.497982 594.819432 217.571064 594.285716 220.519782 593.561751 232.93724 590.514461 245.918292 578.946353 246.844762 560.425633 248.082524 535.684437 228.508672 521.121134 210.729536 521.618078 200.540919 521.902811 190.337745 521.656893 180.141211 521.681408 178.834755 521.684473 177.528811 521.879062 176.301774 521.9784 175.667443 526.170754 175.531588 588.460292 176.155704 594.625609M175.939664 626.825042C175.881696 629.36926 175.804575 631.213262 175.803043 633.057265 175.792573 646.997729 175.826026 660.938193 175.766015 674.878402 175.756566 677.065106 175.631181 679.327399 175.06631 681.421661 173.0078 689.055591 165.835573 693.879977 158.084174 693.071742 150.520981 692.282914 144.667978 686.333638 143.956526 678.636122 143.800497 676.947893 143.819394 675.240256 143.819139 673.541557 143.812755 618.79989 143.811989 564.058223 143.821182 509.316556 143.821437 507.44855 143.807647 505.567519 144.010409 503.715345 144.831157 496.214972 150.493146 490.634445 158.03591 489.838722 159.384501 489.696483 160.750712 489.68014 162.109008 489.679374 178.259414 489.670691 194.410077 489.715125 210.560484 489.664678 224.371477 489.621916 237.173261 493.109203 248.567465 500.934402 268.155617 514.387116 278.333254 533.149924 278.811301 556.904893 279.255639 578.991808 270.978951 597.357776 253.963617 611.521431 241.914398 621.55121 227.854167 626.553332 212.185892 626.786992 201.817752 626.941489 191.445526 626.821978 181.075342 626.825042 179.569956 626.825553 178.06457 626.825042 175.939664 626.825042M524.144292 521.632557C523.470635 526.127776 523.336823 559.22278 523.88203 565.079869 525.305189 566.298734 527.076156 565.804855 528.707949 565.810217 543.333306 565.859503 557.958664 565.855417 572.584021 565.866909 580.236848 565.873037 587.890186 565.839074 595.542247 565.912875 597.56756 565.932538 599.637051 566.074777 601.604395 566.521413 608.912222 568.18002 613.814495 574.56393 613.748611 582.107205 613.683237 589.610131 608.631064 595.904153 601.260927 597.411071 599.118401 597.849025 596.876027 597.944532 594.678853 597.948363 573.08122 597.986157 551.483077 597.968281 529.884934 597.97773 528.037867 597.978496 526.1908 598.061745 524.549303 598.101838 523.192541 599.66366 523.601382 601.257148 523.597297 602.727038 523.562311 616.161877 523.576101 629.59697 523.57559 643.032064 523.575335 653.575896 523.603425 664.119984 523.549543 674.663562 523.539328 676.689641 523.412667 678.758621 522.986715 680.731583 521.404463 688.062393 515.030768 693.131676 507.586064 693.154481 500.135998 693.177131 493.675223 688.148707 492.092716 680.850329 491.59424 678.552029 491.497712 676.131664 491.494392 673.766714 491.454555 647.066856 491.468855 620.366999 491.468855 593.666886 491.468855 565.436616 491.458385 537.206091 491.490306 508.975565 491.49286 506.77788 491.570236 504.535761 491.996698 502.390682 493.410408 495.280764 498.901812 490.457654 506.143498 489.798809 507.663696 489.6604 509.201003 489.677254 510.730394 489.676999 543.042188 489.67244 575.354238 489.67244 607.666288 489.67244 608.856297 489.67244 610.046561 489.701258 611.236569 489.722709 619.084496 489.862906 626.589722 496.210298 626.529059 505.683634 626.468422 515.011156 619.406769 521.102926 611.099182 521.590932 609.573366 521.68031 608.038868 521.631025 606.508456 521.631025 580.999118 521.632812 555.489524 521.632557 529.980185 521.632557 528.129288 521.632557 526.278391 521.632557 524.144292 521.632557"/><path fill="#000" d="M348.518218 660.675957C347.970457 656.589069 347.941345 527.432801 348.493448 522.157437 349.373952 522.004473 350.329789 521.696501 351.286648 521.693947 362.333808 521.664069 373.38199 521.597163 384.428384 521.702885 402.983068 521.880109 418.315535 537.142862 419.024178 555.180939 419.077549 556.538979 419.106406 557.899061 419.106661 559.258122 419.111768 580.673168 419.14752 602.088468 419.072187 623.503258 419.060184 626.88227 418.936076 630.350404 418.18632 633.622161 414.584884 649.339977 401.499898 660.403481 384.985083 661.111612 373.281886 661.613408 361.538852 661.188222 349.813693 661.157834 349.504955 661.157068 349.196727 660.936175 348.518218 660.675957M176.155704 594.625609C175.531588 588.460292 175.667443 526.170754 176.301774 521.9784 177.528811 521.879062 178.834755 521.684473 180.141211 521.681408 190.337745 521.656893 200.540919 521.902811 210.729536 521.618078 228.508672 521.121134 248.082524 535.684437 246.844762 560.425633 245.918292 578.946353 232.93724 590.514461 220.519782 593.561751 217.571064 594.285716 214.497982 594.819432 211.47393 594.863355 200.599908 595.021172 189.722056 594.938177 178.845992 594.924132 178.02984 594.922855 177.213944 594.747929 176.155704 594.625609"/></g></svg>