<svg xmlns="http://www.w3.org/2000/svg" width="3915" height="3465" viewBox="0 0 3915 3465"><g fill="none" fill-rule="evenodd"><path fill="#000" stroke="#FFF" stroke-width="50" d="M1575.78159,31.9542761 C1659.25744,24.4030831 1742.92643,22.8366934 1826.55305,28.0652041 C2188.20481,50.6800211 2511.67806,173.999672 2794.84517,400.100242 C3028.28053,586.491131 3200.70343,819.223245 3313.26346,1096.05732 C3347.41452,1180.04916 3374.11232,1266.33948 3394.09842,1354.65296 L3394.1,1354.661 L3392.98537,1354.43136 C3347.13638,1345.04484 3301.14719,1339.77481 3254.5874,1338.73461 L3253.989,1338.722 L3253.55464,1337.07211 C3252.04159,1331.34403 3250.53759,1325.69307 3249.00076,1320.06479 L3248.0744,1316.69011 C3166.34495,1020.54585 3011.35554,769.291184 2783.73016,563.321477 C2599.92901,397.006616 2387.77737,281.419352 2148.85778,215.232383 C2080.96553,196.423852 2012.00416,182.727494 1942.15136,173.343584 C1857.70957,161.998062 1772.89954,157.150529 1687.80973,159.975707 C1348.31315,171.247352 1042.88429,279.399361 773.482915,486.300515 C556.154388,653.207987 393.723033,863.615546 285.280645,1115.38413 C236.891965,1227.72559 202.9094,1344.379 182.100563,1464.94483 C163.190679,1574.50422 155.606594,1684.87625 160.799655,1795.79812 C178.226346,2168.01592 309.705685,2494.96713 556.029176,2774.44707 C739.806014,2982.96066 964.63943,3131.43014 1227.7277,3221.51384 C1318.53001,3252.60529 1411.58078,3274.47067 1506.5939,3288.23565 C1599.99972,3301.76763 1693.86388,3306.84212 1788.09389,3303.41542 C1990.5499,3296.05257 2184.49203,3251.21681 2369.71172,3169.03447 C2500.16136,3111.15285 2620.58697,3036.98305 2731.33236,2947.1585 L2732.127,2946.511 L2734.80739,2948.07496 C2736.68842,2949.17528 2738.56336,2950.2767 2740.4351,2951.37771 L2743.2407,2953.02873 C2763.11253,2964.7249 2782.79509,2976.29699 2803.00977,2986.8468 C2819.80653,2995.61358 2836.98439,3003.6501 2854.41592,3011.65229 L2857.245,3012.949 L2854.7342,3015.18093 C2675.80394,3173.47244 2472.03185,3288.53797 2243.63586,3360.64525 L2236.41517,3362.90804 C2152.97765,3388.86051 2067.93778,3407.81717 1981.46756,3420.53817 C1915.66253,3430.21915 1849.49603,3435.4245 1783.10038,3438.34415 C1779.43674,3438.50549 1775.78452,3439.03919 1772.13681,3439.63015 C1771.61244,3439.7151 1771.08815,3439.80071 1770.56371,3439.88294 L1694.06914,3439.88294 C1693.33819,3439.78342 1692.60751,3439.6802 1691.87679,3439.57728 C1688.42899,3439.09162 1684.97934,3438.62379 1681.51532,3438.3653 C1665.87532,3437.19781 1650.21797,3436.1897 1634.56436,3435.18226 L1624.92541,3434.56051 C1595.55859,3432.65765 1566.2046,3430.64366 1536.98485,3427.4106 C1412.38811,3413.62354 1290.80467,3385.84088 1172.5139,3344.20881 C896.253079,3246.9803 659.978855,3089.40258 463.857136,2872.07684 C301.953785,2692.67023 183.573195,2487.76293 108.358457,2258.02061 C79.520321,2169.93364 58.3232019,2080.01044 44.3879345,1988.40697 C27.7023984,1878.72706 21.7097352,1768.38794 26.708895,1657.5747 C37.920916,1409.06161 99.2184502,1173.4971 214.148081,952.789516 C382.514076,629.463317 628.862202,383.11062 951.829487,213.939722 C1087.95021,142.638294 1231.72592,92.1868715 1382.19291,60.798041 C1446.18083,47.4487893 1510.71471,37.8405106 1575.78159,31.9542761 Z"/><path fill="#000" stroke="#FFF" stroke-width="66" d="M3111.1874,2268.77844 C3107.7754,2264.93044 3105.4794,2262.05944 3102.8974,2259.47344 C3070.6664,2227.18444 3038.5664,2194.76344 3006.0764,2162.73644 C2980.9404,2137.96044 2950.5324,2129.02844 2916.1944,2136.79644 C2880.8204,2144.79844 2857.0154,2166.93244 2846.8154,2201.64544 C2836.3354,2237.31344 2843.9004,2269.99444 2870.2044,2296.63844 C2928.6964,2355.88644 2987.6614,2414.67044 3046.7854,2473.28944 C3074.0064,2500.27744 3107.1604,2506.66044 3143.7044,2498.04844 C3161.1414,2493.93844 3174.7904,2483.46244 3187.2224,2471.01744 C3269.8304,2388.32344 3352.5044,2305.69544 3435.1564,2223.04544 C3467.4154,2190.78644 3499.6374,2158.48844 3531.9524,2126.28344 C3544.8904,2113.38844 3552.6044,2097.92844 3555.7494,2080.01844 C3560.6414,2052.16644 3554.6414,2026.34544 3540.6184,2002.32144 C3521.2224,1969.09244 3490.7234,1956.76144 3453.7624,1958.79644 C3429.1404,1960.15144 3408.7334,1971.21044 3391.3104,1988.68344 C3301.2524,2078.99844 3210.9964,2169.11344 3120.8064,2259.29544 C3118.0284,2262.07344 3115.2124,2264.81344 3111.1874,2268.77844 L3111.1874,2268.77844 Z"/><path fill="#000" stroke="#FFF" stroke-width="50" d="M3889.3444,2237.51044 C3888.8064,2241.06044 3887.9134,2244.59644 3887.7814,2248.16244 C3882.8634,2381.14344 3840.5034,2501.52844 3762.6064,2608.75244 C3660.8254,2748.85444 3524.0254,2836.44244 3354.6844,2872.54744 C3289.7984,2886.37533 3224.0874,2889.35544 3157.9274,2883.60444 C2943.5414,2864.97144 2751.2914,2745.00644 2640.8344,2560.39444 C2595.1434,2484.02844 2566.0444,2401.74244 2553.5214,2313.58144 C2523.3344,2101.05444 2594.6994,1883.45344 2755.3394,1731.43744 C2853.5224,1638.52544 2969.5094,1580.29444 3102.8414,1557.51744 C3462.5614,1496.06744 3787.4924,1727.20744 3869.6064,2059.56144 C3880.0104,2101.67344 3887.2084,2144.27044 3887.7654,2187.80244 C3887.8074,2191.05144 3888.7964,2194.28844 3889.3444,2197.53044 L3889.3444,2237.51044 Z"/><path fill="#000" stroke="#FFF" stroke-linecap="round" stroke-width="50" d="M1436.5766,1281.54874 C1419.1036,1278.30774 1402.4506,1275.18674 1385.7856,1272.13174 C1310.4966,1258.33074 1235.2066,1244.52774 1159.9106,1230.76374 C1085.2686,1217.11974 1010.6176,1203.52774 935.9726,1189.90474 C895.3756,1182.49574 854.7296,1175.34574 814.1996,1167.58774 C743.8736,1154.12674 698.3026,1080.66574 719.0076,1013.23274 C730.5916,975.503739 757.5746,951.890739 793.8136,938.267739 C817.9636,929.189739 842.5456,930.021739 867.6056,934.717739 C946.7636,949.552739 1026.0336,963.792739 1105.2576,978.275739 C1179.8986,991.920739 1254.5556,1005.48274 1329.1706,1019.26774 C1393.3476,1031.12374 1457.7476,1041.35374 1522.6436,1048.52474 C1603.8756,1057.49974 1685.3016,1061.63774 1767.0096,1060.10874 C1818.3216,1059.14774 1869.4646,1055.58874 1920.5516,1050.68874 C2006.8226,1042.41374 2092.0076,1027.36774 2177.0356,1011.09474 C2253.1936,996.518739 2329.4546,982.485739 2405.6686,968.203739 C2471.7416,955.820739 2537.8696,943.719739 2603.8616,930.913739 C2638.9856,924.097739 2671.2356,929.447739 2701.0636,949.537739 C2759.3836,988.817739 2775.7506,1083.65474 2705.7326,1136.56774 C2683.8876,1153.07574 2659.1616,1161.45174 2632.4616,1166.06674 C2559.0036,1178.76174 2485.6606,1192.12774 2412.2716,1205.22174 C2347.3996,1216.79774 2282.5286,1228.37174 2217.6536,1239.93374 C2157.3666,1250.67874 2097.0756,1261.39974 2036.7956,1272.17874 C2034.9046,1272.51774 2033.1076,1273.38174 2031.0916,1274.05974 C2030.8856,1276.65374 2030.5966,1278.93774 2030.5396,1281.22874 C2029.0286,1342.50674 2027.5436,1403.78574 2026.0486,1465.06474 C2024.4086,1532.33874 2022.1316,1599.60374 2021.3166,1666.88774 C2020.6426,1722.51974 2023.3526,1778.08974 2027.5736,1833.60074 C2038.5396,1977.80174 2065.7776,2119.07774 2101.1276,2259.10874 C2149.7536,2451.73274 2197.2706,2644.63774 2244.7006,2837.56074 C2254.9276,2879.16074 2248.4506,2919.13474 2221.2176,2952.87974 C2187.9336,2994.12274 2143.9986,3012.91974 2091.0606,3002.21774 C2038.8056,2991.65474 2004.2436,2959.23274 1990.4556,2907.72574 C1970.0646,2831.54774 1951.5336,2754.87174 1932.2396,2678.39974 C1875.4136,2453.17874 1818.6036,2227.95374 1761.7776,2002.73174 C1761.1266,2000.15174 1760.4776,1997.55774 1759.5996,1995.05074 C1754.9336,1981.73374 1743.8416,1973.66274 1730.2026,1973.56174 C1716.0396,1973.45774 1704.4706,1981.42274 1700.1876,1995.38774 C1696.4856,2007.46074 1693.7226,2019.82774 1690.6826,2032.09874 C1618.6496,2322.80774 1546.8166,2613.56574 1474.4516,2904.19174 C1461.5826,2955.87574 1428.8206,2990.10674 1376.8456,3003.75474 C1318.4696,3019.08274 1236.6206,2990.63074 1218.6886,2903.51474 C1214.1226,2881.33174 1214.6516,2859.14774 1220.2766,2837.16774 C1247.9946,2728.84474 1275.7626,2620.53374 1303.4796,2512.21074 C1330.1246,2408.07874 1357.1016,2304.02974 1383.2136,2199.76374 C1399.5566,2134.50674 1411.3236,2068.31074 1421.0136,2001.73174 C1438.8486,1879.19874 1447.1306,1755.99574 1445.6546,1632.24474 C1444.6096,1544.64374 1441.4926,1457.06774 1439.2926,1369.48074 C1438.6326,1343.17174 1437.9606,1316.86174 1437.2586,1290.55374 C1437.1876,1287.92374 1436.8686,1285.29874 1436.5766,1281.54874"/><path fill="#000" stroke="#FFF" stroke-linecap="round" stroke-width="50" d="M1466.02234,720.384939 C1466.1805,573.147939 1585.3445,454.271939 1732.5315,454.517558 C1879.4285,454.762939 1998.3575,574.313939 1998.13581,721.511939 C1997.9145,868.428939 1878.3025,987.099939 1730.9025,986.645249 C1584.0105,986.188939 1465.8645,867.427939 1466.02234,720.384939"/><path fill="#FFF" d="M3111.1874,2268.77844 C3115.2124,2264.81344 3118.0284,2262.07344 3120.8064,2259.29544 C3210.9964,2169.11344 3301.2524,2078.99844 3391.3104,1988.68344 C3408.7334,1971.21044 3429.1404,1960.15144 3453.7624,1958.79644 C3490.7234,1956.76144 3521.2224,1969.09244 3540.6184,2002.32144 C3554.6414,2026.34544 3560.6414,2052.16644 3555.7494,2080.01844 C3552.6044,2097.92844 3544.8904,2113.38844 3531.9524,2126.28344 C3499.6374,2158.48844 3467.4154,2190.78644 3435.1564,2223.04544 C3352.5044,2305.69544 3269.8304,2388.32344 3187.2224,2471.01744 C3174.7904,2483.46244 3161.1414,2493.93844 3143.7044,2498.04844 C3107.1604,2506.66044 3074.0064,2500.27744 3046.7854,2473.28944 C2987.6614,2414.67044 2928.6964,2355.88644 2870.2044,2296.63844 C2843.9004,2269.99444 2836.3354,2237.31344 2846.8154,2201.64544 C2857.0154,2166.93244 2880.8204,2144.79844 2916.1944,2136.79644 C2950.5324,2129.02844 2980.9404,2137.96044 3006.0764,2162.73644 C3038.5664,2194.76344 3070.6664,2227.18444 3102.8974,2259.47344 C3105.4794,2262.05944 3107.7754,2264.93044 3111.1874,2268.77844"/></g></svg>