<svg xmlns="http://www.w3.org/2000/svg" width="523" height="522" viewBox="0 0 523 522"><path fill-rule="evenodd" stroke="#FFF" stroke-width="10" d="M259.260272,512 L252.420424,512 C251.990219,511.940253 251.561857,511.849316 251.129809,511.825628 C245.922871,511.538606 240.711589,511.317384 235.508993,510.968772 C227.765965,510.449999 220.084263,509.410875 212.434672,508.107364 C199.415088,505.888565 186.652126,502.661437 174.146051,498.424269 C143.975259,488.201871 116.659952,472.869262 92.1990793,452.471449 C68.4188483,432.641232 48.8331469,409.275677 33.4848771,382.381758 C18.1920115,355.585093 8.10555819,326.945087 3.2148575,296.473191 C1.61590119,286.510048 0.58111983,276.490054 0.200397146,266.413997 C-0.328377048,252.420958 0.171971256,238.461477 1.90779296,224.551478 C3.00995421,215.720107 4.51060432,206.962169 6.52002522,198.296221 C12.3510175,173.148257 21.6593121,149.354866 34.8166827,127.139507 C64.0242846,77.8242723 105.027447,41.9114504 157.810245,19.5358005 C176.687931,11.5332545 196.331142,6.13523061 216.587221,2.98930052 C225.773521,1.56274196 235.015093,0.655482307 244.308385,0.256993442 C255.404747,-0.219008614 266.486633,-0.0472688623 277.551674,0.885258251 C287.207133,1.69894935 296.786263,3.06681371 306.291828,4.96976912 C327.443322,9.20417392 347.751778,15.9663773 367.125996,25.4368047 C411.047155,46.9059845 446.216298,78.2639524 472.472739,119.490573 C494.493329,154.066457 507.274714,191.878155 511.231967,232.672597 C511.80338,238.562942 512.146465,244.469605 512.151992,250.392192 C512.152518,251.040065 512.272275,251.687938 512.33676,252.33568 L512.33676,260.49141 C512.272802,261.060454 512.15515,261.629499 512.153176,262.198806 C512.12804,269.438854 511.602951,276.645607 510.81966,283.839857 C509.775403,293.430173 508.188817,302.926526 506.052401,312.332864 C499.485494,341.24581 488.138826,368.154205 472.176373,393.127008 C471.947387,393.485227 471.693265,393.827522 471.325176,394.358796 C441.809232,364.875358 412.385277,335.483909 383.022649,306.153654 C383.320068,305.334304 383.512338,304.801582 383.706713,304.269781 C388.502924,291.147548 391.56147,277.653805 392.42846,263.685243 C392.962104,255.085359 392.723247,246.517585 391.64201,237.96455 C390.126621,225.977774 387.072285,214.399356 382.30937,203.30839 C369.745916,174.05328 349.598803,151.481412 322.05859,135.546464 C312.044649,129.75232 301.460085,125.249053 290.183692,122.506218 C280.835391,120.232542 271.345355,118.874021 261.733851,118.475269 C252.247763,118.081913 242.809578,118.628321 233.4468,120.270575 C228.309215,121.171781 223.224008,122.305921 218.251978,123.887769 C212.186209,125.817571 208.79221,132.229583 210.5887,138.224946 C211.197751,140.257792 212.420854,141.875041 213.902948,143.355424 C231.801915,161.234388 249.741415,179.073213 267.559711,197.03219 C278.793728,208.355038 283.244485,222.132909 281.259805,237.885853 C279.944581,248.324735 275.38999,257.334031 268.2393,265.062978 C255.213531,279.142216 235.735742,284.02989 217.814403,278.369716 C209.974122,275.893505 203.219288,271.640544 197.4133,265.826397 C179.784642,248.173261 162.131638,230.54434 144.501401,212.892652 C142.274575,210.663062 139.674922,209.33889 136.510567,209.067001 C131.456944,208.632848 126.618884,211.742983 125.127709,216.58078 C121.846756,227.224565 119.880106,238.112602 119.379099,249.242654 C119.003772,257.579862 119.363702,265.889171 120.563511,274.162289 C122.04679,284.389688 124.54511,294.353357 128.145854,304.035926 C144.35177,347.614657 186.646204,387.97113 246.440064,391.990235 C255.121278,392.573756 263.785121,392.367668 272.429618,391.310909 C283.087879,390.008187 293.44201,387.489733 303.488456,383.702509 C304.504024,383.319812 305.519855,382.937905 306.218921,382.674703 C335.764607,412.239076 365.153161,441.646317 394.546584,471.058428 C394.485784,471.101066 394.278643,471.259909 394.059132,471.39888 C370.525391,486.310102 345.295834,497.292629 318.270446,504.114448 C308.961098,506.464321 299.551339,508.314636 290.029061,509.528132 C284.5984,510.220092 279.142471,510.75005 273.684174,511.178676 C269.185777,511.531894 264.666982,511.626384 260.157662,511.844184 C259.856689,511.858792 259.55927,511.946307 259.260272,512" transform="translate(5 5)"/></svg>