<svg xmlns="http://www.w3.org/2000/svg" xmlns:xlink="http://www.w3.org/1999/xlink" width="480" height="512" viewBox="0 0 480 512"><defs><polygon id="a" points="0 0 479.212 0 479.212 512 0 512"/></defs><g fill="none" fill-rule="evenodd"><mask id="b" fill="#fff"><use xlink:href="#a"/></mask><path fill="#2A2828" d="M262.072146,260.816278 C263.139195,260.816278 264.064644,260.816278 264.990093,260.816278 C277.744762,260.816278 290.499559,260.816406 303.254228,260.815512 C304.019434,260.815512 304.786683,260.840155 305.549591,260.795466 C309.703385,260.551463 313.234211,257.505578 313.264529,252.841817 C313.294861,248.105149 309.542248,244.931453 305.618285,244.861355 C305.02328,244.850629 304.428148,244.83622 303.833144,244.83622 C287.677119,244.83622 271.521094,244.83622 255.365197,244.838499 C254.600502,244.838627 253.831848,244.8302 253.071749,244.899404 C249.450906,245.228827 246.705204,247.640382 245.998349,251.195341 C245.785118,252.267881 245.74643,253.38894 245.745153,254.487783 C245.729193,268.603045 245.734428,282.718308 245.734428,296.833443 C245.734428,310.183499 245.727277,323.533428 245.747196,336.883357 C245.748856,338.065832 245.79712,339.276015 246.046358,340.425164 C246.837611,344.074354 250.067999,346.588566 253.793032,346.57724 C257.515384,346.565838 260.702232,344.031197 261.493358,340.365792 C261.706333,339.37931 261.769664,338.34482 261.774772,337.331781 C261.801713,332.059992 261.787668,326.787948 261.787795,321.516032 C261.788051,314.798485 261.781156,308.080938 261.798648,301.363519 C261.800691,300.628574 261.59627,299.83183 262.274652,299.050919 C263.0954,299.030873 264.018933,298.989248 264.942467,298.988865 C275.741538,298.984141 286.54061,298.993078 297.339426,298.974181 C298.438014,298.972266 299.559201,298.924512 300.630464,298.705536 C304.315532,297.952076 306.841618,294.805066 306.874305,291.053602 C306.907248,287.281965 304.456111,284.09001 300.802198,283.260707 C299.818526,283.037389 298.78378,282.966269 297.771124,282.956437 C293.945093,282.919537 290.118424,282.936519 286.292011,282.933454 C278.979332,282.927709 271.666653,282.929751 264.353974,282.905109 C263.538078,282.902427 262.652594,283.149367 261.941015,282.539934 C261.668411,279.61139 261.735317,263.063888 262.072146,260.816278 M87.9698193,313.412483 C89.0322721,313.412483 89.7849652,313.412738 90.5376584,313.412483 C95.72275,313.41095 100.908863,313.470706 106.092933,313.393458 C113.927071,313.276755 120.957186,310.775567 126.981796,305.760677 C135.489463,298.67885 139.627807,289.495866 139.405638,278.452408 C139.166614,266.575051 134.077796,257.19352 124.28372,250.467291 C118.586618,246.554691 112.185726,244.81092 105.280229,244.8323 C97.2050256,244.857652 89.1296945,244.835307 81.054491,244.839648 C80.3753435,244.840032 79.6922377,244.848203 79.0179421,244.919323 C75.2465601,245.317312 72.4155657,248.107448 72.0051915,251.857634 C71.903811,252.783721 71.9107059,253.724364 71.9105782,254.65824 C71.9059816,282.029073 71.9063646,309.399907 71.9095567,336.770868 C71.9096844,337.620217 71.9002358,338.474036 71.9782503,339.318022 C72.3339761,343.166781 75.2604776,346.141419 79.0420743,346.535833 C82.9177736,346.940078 86.5038871,344.527757 87.5331423,340.710792 C87.8155778,339.663661 87.8782703,338.532515 87.8829946,337.439163 C87.9130002,330.469058 87.8962737,323.498826 87.9015087,316.528594 C87.9022748,315.606593 87.9408351,314.684719 87.9698193,313.412483 M157.999903,295.774054 C157.999903,309.459663 157.993136,323.145399 158.01165,336.831007 C158.013182,338.013993 158.054552,339.223281 158.296767,340.374219 C158.883982,343.164355 160.63235,345.021253 163.264797,346.068512 C164.393645,346.517446 165.571396,346.584224 166.771236,346.582565 C175.186716,346.570562 183.603983,346.685988 192.017164,346.546558 C203.184091,346.361545 212.195213,341.705573 218.931274,332.813324 C223.442709,326.857536 225.537736,320.026478 225.563273,312.580754 C225.601706,301.360327 225.583064,290.139645 225.561869,278.919219 C225.559315,277.563477 225.441974,276.202373 225.290925,274.853527 C224.299847,265.999966 220.369371,258.666858 213.631523,252.890592 C207.39381,247.543215 200.095942,244.877826 191.872243,244.847565 C183.541929,244.816793 175.211486,244.837095 166.881044,244.841053 C166.287061,244.841308 165.689503,244.858418 165.099861,244.923664 C161.633643,245.307608 158.929438,247.733591 158.265867,251.170187 C158.042549,252.326487 158.011778,253.533222 158.010373,254.717102 C157.993774,268.40271 157.999775,282.088318 157.999903,295.774054 M462.936895,164.362516 L459.36023,164.362516 C419.818751,164.362516 380.277144,164.366602 340.735537,164.348854 C338.956525,164.348088 337.165256,164.248239 335.400673,164.026964 C325.868603,162.830955 317.528967,155.342073 315.395634,145.458108 C314.905075,143.185855 314.869579,140.904665 314.869324,138.610196 C314.866132,99.0687168 314.867025,59.5271099 314.86677,19.985503 C314.86677,19.1351321 314.880815,18.2842505 314.854129,17.4346457 C314.841361,17.0283574 314.748535,16.6246228 314.672691,16.0808195 C313.738433,16.0425146 312.909002,15.9788006 312.079571,15.9788006 C259.782656,15.9698621 207.485742,15.9773961 155.188827,15.9698621 C151.776618,15.9698621 148.403481,16.2958382 145.046942,16.8941623 C124.152972,20.6185568 106.946879,36.6135732 101.708544,57.1619042 C100.460567,62.0575378 99.9969438,67.0233972 99.9969438,72.0638237 C100.01342,117.387825 100.00627,162.711826 100.006398,208.035827 C100.006398,208.54605 99.9803501,209.058443 100.019549,209.565856 C100.057215,210.050542 100.164342,210.529993 100.251422,211.078265 C101.529021,211.358785 102.716859,211.247446 103.890907,211.247701 C189.351647,211.261108 274.812515,211.268641 360.273255,211.277323 C361.548811,211.277451 362.82424,211.283197 364.099796,211.292135 C372.509019,211.350741 381.530228,217.158672 384.370416,227.126015 C385.076121,229.602433 385.231001,232.140777 385.230618,234.701083 C385.225766,275.348044 385.227298,315.995133 385.22666,356.642222 C385.226532,357.322391 385.232789,358.003199 385.20955,358.682729 C384.818073,370.189166 376.772748,377.518572 368.663964,379.477361 C366.248961,380.060746 363.798846,380.179236 361.324727,380.178981 C275.693785,380.16966 190.062971,380.171192 104.432029,380.171448 C103.496621,380.171448 102.560191,380.147443 101.626316,380.186259 C101.144567,380.206178 100.667414,380.33999 100.135485,380.431411 C100.094627,381.222792 100.030019,381.89364 100.029891,382.564488 C100.027082,402.207672 100.028997,421.850856 100.034871,441.494168 C100.035892,444.560738 100.26917,447.610071 100.797651,450.633229 C104.315709,470.758545 119.111779,487.533451 138.642474,493.563934 C144.544253,495.386358 150.582524,496.068315 156.747841,496.066655 C233.194777,496.046736 309.641841,496.058355 386.088905,496.06193 C393.487004,496.062186 400.885614,496.115174 408.282819,496.036011 C410.995834,496.006899 413.73196,495.841038 416.411649,495.435261 C425.930568,493.993461 434.550213,490.340441 442.083273,484.325919 C453.471987,475.233079 460.339689,463.479064 462.565592,449.033357 C463.099947,445.565351 463.089477,442.088023 463.089604,438.602907 C463.093413,348.720239 463.093413,258.83757 463.093413,168.954902 C463.093413,168.019494 463.101607,167.08383 463.081688,166.148933 C463.07109,165.655437 463.004312,165.163346 462.936895,164.362516 M83.8742493,380.237843 C82.5506841,380.215626 81.5423689,380.184216 80.5341815,380.184088 C61.1470025,380.180896 41.7599513,380.178087 22.3729,380.183705 C18.4758776,380.184855 14.7402469,379.443014 11.3608526,377.478096 C4.11188789,373.263142 0.104547097,366.996062 0.0455574062,358.520444 C-0.040884197,346.106561 0.0221913599,333.69153 0.0221913599,321.277009 C0.0220636766,292.111331 0.0230851431,262.945781 0.0205314768,233.780103 C0.0202761102,231.736021 0.123316544,229.716964 0.616429501,227.709655 C2.92430539,218.313695 11.4617225,211.633304 20.4105352,211.29073 C21.5144851,211.248467 22.6199672,211.228293 23.7246833,211.228165 C42.6866768,211.224335 61.6485426,211.227527 80.6105361,211.219483 C81.6136162,211.2191 82.6364873,211.34474 83.7253705,211.002804 C83.7962348,210.563063 83.9024673,210.163287 83.9170232,209.76019 C83.9475395,208.910969 83.9319622,208.059959 83.9319622,207.209588 C83.9323452,161.973178 83.9228966,116.73664 83.9394955,71.5001019 C83.9435813,60.6320813 86.053165,50.1831173 90.9099829,40.429389 C101.156313,19.8518185 117.495819,6.8675747 139.916115,1.60791597 C145.245745,0.357640961 150.662965,0 156.116574,0 C211.131611,0 266.146776,0 321.161813,0 C321.92638,0 322.691331,0.0337083948 323.455644,0.0630755569 C325.228654,0.131130763 326.75115,0.833772037 328.080589,1.96542924 C328.661931,2.46020208 329.185688,3.02341318 329.726682,3.56440738 C378.366108,52.2089408 427.004512,100.854368 475.643045,149.499667 C476.00375,149.8605 476.363306,150.22261 476.723373,150.583954 C478.230802,152.097384 479.009288,153.939089 479.145015,156.054163 C479.19928,156.901597 479.19877,157.753372 479.198897,158.603232 C479.203111,252.562574 479.234393,346.521915 479.183703,440.481129 C479.17285,460.488465 472.042758,477.695452 457.781298,491.767047 C447.328376,502.080666 434.761657,508.458703 420.26028,510.988237 C416.055413,511.72165 411.830117,512 407.570984,512 C384.272483,511.988125 360.973981,511.993871 337.675479,511.993999 C277.303488,511.993999 216.931498,511.990934 156.55938,512 C151.961632,512 147.396315,511.77732 142.849512,510.990663 C132.02235,509.117294 122.13481,505.007679 113.306275,498.500937 C97.9738069,487.200325 88.5553749,472.12182 85.0459991,453.397573 C84.2465738,449.132695 83.9329836,444.802315 83.9328559,440.456741 C83.9320898,421.496408 83.9331113,402.536074 83.9300469,383.57574 C83.9297915,382.567553 83.8972323,381.559493 83.8742493,380.237843" mask="url(#b)"/><path fill="#FFF" d="M462.936921,164.362541 C463.00421,165.163243 463.071116,165.655463 463.081714,166.148831 C463.101632,167.083856 463.093439,168.019519 463.093439,168.954927 C463.093439,258.837596 463.093439,348.720264 463.089502,438.602933 C463.089502,442.087921 463.099845,445.565376 462.56549,449.033383 C460.339714,463.47909 453.472012,475.233105 442.083299,484.325944 C434.550239,490.340467 425.930594,493.993359 416.411675,495.435159 C413.731985,495.841064 410.99586,496.006924 408.282844,496.035909 C400.885639,496.1152 393.486902,496.062211 386.088803,496.061828 C309.641867,496.058381 233.194803,496.046762 156.747738,496.06668 C150.58255,496.068212 144.544278,495.386256 138.6425,493.56396 C119.111805,487.533349 104.315735,470.758571 100.797677,450.633254 C100.269195,447.610097 100.03579,444.560764 100.034896,441.494194 C100.029023,421.850882 100.027108,402.207698 100.029917,382.564514 C100.030044,381.893666 100.094652,381.222818 100.135383,380.431437 C100.66744,380.340015 101.144592,380.206203 101.626341,380.186285 C102.560217,380.147341 103.496646,380.171346 104.432054,380.171346 C190.062869,380.171218 275.69381,380.169686 361.324752,380.179007 C363.798872,380.179262 366.248987,380.060644 368.663989,379.477387 C376.772773,377.518597 384.817971,370.189192 385.209576,358.682755 C385.232687,358.003096 385.226558,357.322417 385.226558,356.64212 C385.227324,315.995159 385.225792,275.34807 385.230644,234.701108 C385.231027,232.140802 385.076019,229.602458 384.370441,227.12604 C381.530254,217.158698 372.509044,211.350639 364.099694,211.29216 C362.824265,211.283222 361.548709,211.277477 360.27328,211.277349 C274.812413,211.268666 189.351673,211.261133 103.890933,211.247726 C102.716884,211.247471 101.529047,211.358811 100.251447,211.078291 C100.16424,210.530019 100.057113,210.050568 100.019574,209.565754 C99.9803757,209.058468 100.006423,208.546075 100.006423,208.035853 C100.006295,162.711852 100.013318,117.38785 99.9969686,72.0638492 C99.9969686,67.0232951 100.460465,62.0575633 101.708569,57.1619297 C106.946905,36.6135987 124.152998,20.6185824 145.046967,16.8941878 C148.403506,16.2958638 151.776516,15.96976 155.188853,15.96976 C207.485767,15.9774216 259.782682,15.96976 312.079597,15.9788261 C312.909027,15.9788261 313.738458,16.0425401 314.672589,16.0808451 C314.748561,16.6245206 314.841387,17.028383 314.854155,17.4346713 C314.880841,18.284276 314.866796,19.1351576 314.866796,19.9855285 C314.866923,59.5271354 314.866157,99.0686147 314.869349,138.610222 C314.869605,140.904691 314.905101,143.185753 315.39566,145.458133 C317.528993,155.342098 325.868628,162.83098 335.400571,164.026862 C337.165154,164.248265 338.956551,164.348113 340.735563,164.348879 C380.27717,164.366627 419.818649,164.362541 459.360256,164.362541 L462.936921,164.362541 Z"/><path fill="#FFF" d="M174.259109 330.337978C174.598364 330.468088 174.752477 330.578534 174.906846 330.578917 180.769426 330.594111 186.640943 330.806704 192.492542 330.555806 200.749949 330.20174 207.292442 324.669988 209.09316 316.811081 209.468038 315.175202 209.530092 313.441135 209.536093 311.751629 209.57376 301.044234 209.555884 290.336584 209.553331 279.629061 209.553203 278.949531 209.538775 278.269489 209.512089 277.590469 209.157768 268.571431 201.491534 260.940055 192.214192 260.851442 186.690995 260.798582 181.166904 260.832035 175.643324 260.846973 175.164894 260.84825 174.686976 261.002236 174.246724 261.078719 173.970672 263.716401 173.985228 328.294535 174.259109 330.337978M157.999788 295.774105C157.999788 282.08837 157.993787 268.402761 158.010386 254.717025 158.01179 253.533273 158.042562 252.326411 158.26588 251.170238 158.92945 247.733514 161.633655 245.307659 165.099874 244.923715 165.689516 244.858341 166.287074 244.841359 166.881056 244.841104 175.211499 244.837018 183.541941 244.816844 191.872256 244.847488 200.095955 244.877749 207.393823 247.543266 213.631536 252.890643 220.369384 258.666909 224.299859 265.999889 225.290937 274.85345 225.441987 276.202424 225.5592 277.563528 225.561881 278.919142 225.583077 290.139696 225.601719 301.360378 225.563286 312.580805 225.537749 320.026529 223.442721 326.857587 218.931287 332.813247 212.195226 341.705624 203.184104 346.361596 192.017177 346.546609 183.603995 346.685911 175.186728 346.570486 166.771249 346.582616 165.571409 346.584276 164.393658 346.517369 163.26481 346.068435 160.632363 345.021304 158.883995 343.164406 158.29678 340.374142 158.054564 339.223333 158.013195 338.013916 158.011663 336.831058 157.993149 323.14545 157.999916 309.459714 157.999788 295.774105M88.0778521 297.312804C88.6069718 297.373965 89.0149199 297.461428 89.4229958 297.462066 94.8610281 297.469089 100.299954 297.510586 105.736965 297.431677 107.248991 297.409716 108.785532 297.142858 110.259891 296.780876 116.46862 295.257231 122.959146 289.473177 123.422381 280.212817 124.041262 267.842219 114.254336 260.560567 105.364768 260.809039 100.270459 260.951406 95.1688726 260.828447 90.0706056 260.840704 89.4173777 260.842236 88.7644053 260.939531 88.150887 260.9892 87.8337216 263.085377 87.7657941 294.230146 88.0778521 297.312804M87.969832 313.412521C87.9408479 314.68463 87.9022876 315.606631 87.9015215 316.528632 87.8962864 323.498864 87.9130129 330.469096 87.8830074 337.439201 87.8782831 338.532553 87.8155906 339.6637 87.5331551 340.71083 86.5038999 344.527795 82.9177864 346.939988 79.0420871 346.535871 75.2604904 346.141457 72.3339888 343.166819 71.9782631 339.318061 71.9002486 338.473946 71.9096972 337.620128 71.9095695 336.770779 71.9063774 309.399945 71.9059944 282.029112 71.910591 254.658278 71.9107186 253.724275 71.9038237 252.783759 72.0052043 251.857672 72.4155785 248.107486 75.2465729 245.317222 79.0179549 244.919361 79.6922505 244.848242 80.3753562 244.84007 81.0545038 244.839687 89.1297072 244.835346 97.2050384 244.857562 105.280242 244.832339 112.185739 244.810958 118.586631 246.554601 124.283732 250.467201 134.077809 257.193558 139.166627 266.574962 139.40565 278.452447 139.627819 289.495904 135.489475 298.678888 126.981809 305.760715 120.957199 310.775605 113.927084 313.276666 106.092946 313.393496 100.908876 313.470745 95.7227628 313.410989 90.5376711 313.412521 89.784978 313.412776 89.0322849 313.412521 87.969832 313.412521M262.072146 260.816278C261.735317 263.063888 261.668411 279.61139 261.941015 282.539934 262.652594 283.149367 263.538078 282.902427 264.353974 282.905109 271.666653 282.929751 278.979332 282.927709 286.292011 282.933454 290.118424 282.936519 293.945093 282.919537 297.771124 282.956437 298.78378 282.966269 299.818526 283.037389 300.802198 283.260707 304.456111 284.09001 306.907248 287.281965 306.874305 291.053602 306.841618 294.805066 304.315532 297.952076 300.630464 298.705536 299.559201 298.924512 298.438014 298.972266 297.339426 298.974181 286.54061 298.993078 275.741538 298.984141 264.942467 298.988865 264.018933 298.989248 263.0954 299.030873 262.274652 299.050919 261.59627 299.83183 261.800691 300.628574 261.798648 301.363519 261.781156 308.080938 261.788051 314.798485 261.787795 321.516032 261.787668 326.787948 261.801713 332.059992 261.774772 337.331781 261.769664 338.34482 261.706333 339.37931 261.493358 340.365792 260.702232 344.031197 257.515384 346.565838 253.793032 346.57724 250.067999 346.588566 246.837611 344.074354 246.046358 340.425164 245.79712 339.276015 245.748856 338.065832 245.747196 336.883357 245.727277 323.533428 245.734428 310.183499 245.734428 296.833443 245.734428 282.718308 245.729193 268.603045 245.745153 254.487783 245.74643 253.38894 245.785118 252.267881 245.998349 251.195341 246.705204 247.640382 249.450906 245.228827 253.071749 244.899404 253.831848 244.8302 254.600502 244.838627 255.365197 244.838499 271.521094 244.83622 287.677119 244.83622 303.833144 244.83622 304.428148 244.83622 305.02328 244.850629 305.618285 244.861355 309.542248 244.931453 313.294861 248.105149 313.264529 252.841817 313.234211 257.505578 309.703385 260.551463 305.549591 260.795466 304.786683 260.840155 304.019434 260.815512 303.254228 260.815512 290.499559 260.816406 277.744762 260.816278 264.990093 260.816278 264.064644 260.816278 263.139195 260.816278 262.072146 260.816278"/><path fill="#2A2828" d="M174.259109 330.337978C173.985228 328.294535 173.970672 263.716401 174.246724 261.078719 174.686976 261.002236 175.164894 260.84825 175.643324 260.846973 181.166904 260.832035 186.690995 260.798582 192.214192 260.851442 201.491534 260.940055 209.157768 268.571431 209.512089 277.590469 209.538775 278.269489 209.553203 278.949531 209.553331 279.629061 209.555884 290.336584 209.57376 301.044234 209.536093 311.751629 209.530092 313.441135 209.468038 315.175202 209.09316 316.811081 207.292442 324.669988 200.749949 330.20174 192.492542 330.555806 186.640943 330.806704 180.769426 330.594111 174.906846 330.578917 174.752477 330.578534 174.598364 330.468088 174.259109 330.337978M88.0778521 297.312804C87.7657941 294.230146 87.8337216 263.085377 88.150887 260.9892 88.7644053 260.939531 89.4173777 260.842236 90.0706056 260.840704 95.1688726 260.828447 100.270459 260.951406 105.364768 260.809039 114.254336 260.560567 124.041262 267.842219 123.422381 280.212817 122.959146 289.473177 116.46862 295.257231 110.259891 296.780876 108.785532 297.142858 107.248991 297.409716 105.736965 297.431677 100.299954 297.510586 94.8610281 297.469089 89.4229958 297.462066 89.0149199 297.461428 88.6069718 297.373965 88.0778521 297.312804"/></g></svg>