<svg xmlns="http://www.w3.org/2000/svg" xmlns:xlink="http://www.w3.org/1999/xlink" width="240" height="256" viewBox="0 0 240 256"><defs><polygon id="a" points="0 0 239.606 0 239.606 256 0 256"/></defs><g fill="none" fill-rule="evenodd"><mask id="b" fill="#fff"><use xlink:href="#a"/></mask><path fill="#2A2828" d="M131.036073,130.408139 C131.569598,130.408139 132.032322,130.408139 132.495046,130.408139 C138.872381,130.408139 145.249779,130.408203 151.627114,130.407756 C152.009717,130.407756 152.393342,130.420078 152.774796,130.397733 C154.851692,130.275732 156.617106,128.752789 156.632265,126.420909 C156.64743,124.052575 154.771124,122.465726 152.809142,122.430677 C152.51164,122.425315 152.214074,122.41811 151.916572,122.41811 C143.83856,122.41811 135.760547,122.41811 127.682598,122.41925 C127.300251,122.419313 126.915924,122.4151 126.535875,122.449702 C124.725453,122.614414 123.352602,123.820191 122.999174,125.59767 C122.892559,126.13394 122.873215,126.69447 122.872576,127.243891 C122.864596,134.301523 122.867214,141.359154 122.867214,148.416721 C122.867214,155.09175 122.863639,161.766714 122.873598,168.441679 C122.874428,169.032916 122.89856,169.638007 123.023179,170.212582 C123.418806,172.037177 125.034,173.294283 126.896516,173.28862 C128.757692,173.282919 130.351116,172.015598 130.746679,170.182896 C130.853167,169.689655 130.884832,169.17241 130.887386,168.66589 C130.900856,166.029996 130.893834,163.393974 130.893898,160.758016 C130.894025,157.399243 130.890578,154.040469 130.899324,150.68176 C130.900346,150.314287 130.798135,149.915915 131.137326,149.525459 C131.5477,149.515436 132.009467,149.494624 132.471233,149.494432 C137.870769,149.49207 143.270305,149.496539 148.669713,149.487091 C149.219007,149.486133 149.7796,149.462256 150.315232,149.352768 C152.157766,148.976038 153.420809,147.402533 153.437153,145.526801 C153.453624,143.640982 152.228056,142.045005 150.401099,141.630353 C149.909263,141.518694 149.39189,141.483134 148.885562,141.478219 C146.972547,141.459768 145.059212,141.468259 143.146005,141.466727 C139.489666,141.463854 135.833327,141.464876 132.176987,141.452554 C131.769039,141.451214 131.326297,141.574683 130.970508,141.269967 C130.834206,139.805695 130.867659,131.531944 131.036073,130.408139 M43.9849096,156.706241 C44.5161361,156.706241 44.8924826,156.706369 45.2688292,156.706241 C47.861375,156.705475 50.4544316,156.735353 53.0464667,156.696729 C56.9635354,156.638378 60.4785932,155.387783 63.4908979,152.880339 C67.7447313,149.339425 69.8139033,144.747933 69.7028188,139.226204 C69.5833072,133.287526 67.038898,128.59676 62.1418599,125.233645 C59.293309,123.277345 56.0928629,122.40546 52.6401146,122.41615 C48.6025128,122.428826 44.5648472,122.417654 40.5272455,122.419824 C40.1876717,122.420016 39.8461189,122.424102 39.5089711,122.459661 C37.6232801,122.658656 36.2077828,124.053724 36.0025958,125.928817 C35.9519055,126.391861 35.9553529,126.862182 35.9552891,127.32912 C35.9529908,141.014537 35.9531823,154.699953 35.9547784,168.385434 C35.9548422,168.810109 35.9501179,169.237018 35.9891252,169.659011 C36.166988,171.58339 37.6302388,173.070709 39.5210371,173.267916 C41.4588868,173.470039 43.2519436,172.263879 43.7665712,170.355396 C43.9077889,169.831831 43.9391352,169.266257 43.9414973,168.719581 C43.9565001,165.234529 43.9481368,161.749413 43.9507543,158.264297 C43.9511374,157.803296 43.9704176,157.34236 43.9849096,156.706241 M78.9999516,147.887027 C78.9999516,154.729831 78.996568,161.572699 79.005825,168.415503 C79.0065911,169.006996 79.0272758,169.611641 79.1483834,170.187109 C79.4419912,171.582177 80.316175,172.510627 81.6323984,173.034256 C82.1968225,173.258723 82.785698,173.292112 83.385618,173.291282 C87.5933578,173.285281 91.8019913,173.342994 96.0085819,173.273279 C101.592046,173.180772 106.097607,170.852786 109.465637,166.406662 C111.721354,163.428768 112.768868,160.013239 112.781637,156.290377 C112.800853,150.680164 112.791532,145.069823 112.780934,139.459609 C112.779657,138.781739 112.720987,138.101187 112.645462,137.426763 C112.149923,132.999983 110.184686,129.333429 106.815761,126.445296 C103.696905,123.771607 100.047971,122.438913 95.9361216,122.423782 C91.7709643,122.408397 87.6057431,122.418547 83.4405218,122.420526 C83.1435305,122.420654 82.8447515,122.429209 82.5499307,122.461832 C80.8168213,122.653804 79.4647188,123.866795 79.1329337,125.585094 C79.0212747,126.163244 79.0058888,126.766611 79.0051866,127.358551 C78.9968872,134.201355 78.9998877,141.044159 78.9999516,147.887027 M231.468448,82.1812579 L229.680115,82.1812579 C209.909375,82.1812579 190.138572,82.1833009 170.367769,82.1744269 C169.478263,82.1740438 168.582628,82.1241197 167.700336,82.0134821 C162.934301,81.4154773 158.764484,77.6710364 157.697817,72.7290538 C157.452538,71.5929276 157.43479,70.4523326 157.434662,69.305098 C157.433066,49.5343584 157.433513,29.7635549 157.433385,9.99275148 C157.433385,9.56756604 157.440408,9.14212524 157.427065,8.71732286 C157.420681,8.51417871 157.374268,8.31231139 157.336346,8.04040977 C156.869216,8.02125728 156.454501,7.98940029 156.039786,7.98940029 C129.891328,7.98493107 103.742871,7.98869803 77.5944137,7.98493107 C75.8883092,7.98493107 74.2017403,8.14791912 72.5234709,8.44708113 C62.076486,10.3092784 53.4734397,18.3067866 50.8542719,28.5809521 C50.2302835,31.0287689 49.9984719,33.5116986 49.9984719,36.0319119 C50.0067101,58.6939124 50.0031349,81.355913 50.0031988,104.017914 C50.0031988,104.273025 49.9901751,104.529221 50.0097745,104.782928 C50.0286077,105.025271 50.0821709,105.264996 50.1257109,105.539133 C50.7645105,105.679393 51.3584295,105.623723 51.9454535,105.62385 C94.6758235,105.630554 137.406257,105.63432 180.136627,105.638662 C180.774405,105.638726 181.41212,105.641598 182.049898,105.646067 C186.254509,105.675371 190.765114,108.579336 192.185208,113.563007 C192.538061,114.801216 192.615501,116.070388 192.615309,117.350541 C192.612883,137.674022 192.613649,157.997567 192.61333,178.321111 C192.613266,178.661196 192.616394,179.001599 192.604775,179.341365 C192.409037,185.094583 188.386374,188.759286 184.331982,189.738681 C183.124481,190.030373 181.899423,190.089618 180.662363,190.089491 C137.846892,190.08483 95.0314854,190.085596 52.2160144,190.085724 C51.7483105,190.085724 51.2800957,190.073722 50.8131579,190.09313 C50.5722833,190.103089 50.333707,190.169995 50.0677427,190.215705 C50.0473134,190.611396 50.0150095,190.94682 50.0149456,191.282244 C50.0135411,201.103836 50.0144987,210.925428 50.0174355,220.747084 C50.0179462,222.280369 50.1345849,223.805036 50.3988255,225.316614 C52.1578547,235.379273 59.5558897,243.766726 69.3212372,246.781967 C72.2721263,247.693179 75.291262,248.034157 78.3739203,248.033327 C116.597389,248.023368 154.820921,248.029178 193.044453,248.030965 C196.743502,248.031093 200.442807,248.057587 204.141409,248.018005 C205.497917,248.003449 206.86598,247.920519 208.205825,247.71763 C212.965284,246.99673 217.275107,245.170221 221.041637,242.162959 C226.735993,237.61654 230.169844,231.739532 231.282796,224.516679 C231.549973,222.782675 231.544738,221.044012 231.544802,219.301454 C231.546707,174.360119 231.546707,129.418785 231.546707,84.4774508 C231.546707,84.0097468 231.550803,83.5419152 231.540844,83.0744666 C231.535545,82.8277186 231.502156,82.5816728 231.468448,82.1812579 M41.9371246,190.118922 C41.275342,190.107813 40.7711845,190.092108 40.2670907,190.092044 C30.5735013,190.090448 20.8799756,190.089044 11.18645,190.091853 C9.2379388,190.092427 7.37012345,189.721507 5.68042632,188.739048 C2.05594395,186.631571 0.0522735485,183.498031 0.0227787031,179.260222 C-0.0204420985,173.053281 0.0110956799,166.845765 0.0110956799,160.638504 C0.0110318383,146.055665 0.0115425715,131.47289 0.0102657384,116.890051 C0.0101380551,115.86801 0.0616582721,114.858482 0.30821475,113.854828 C1.4621527,109.156848 5.73086123,105.816652 10.2052676,105.645365 C10.7572425,105.624233 11.3099836,105.614147 11.8623416,105.614083 C21.3433384,105.612167 30.8242713,105.613763 40.3052681,105.609741 C40.8068081,105.60955 41.3182436,105.67237 41.8626853,105.501402 C41.8981174,105.281531 41.9512337,105.081643 41.9585116,104.880095 C41.9737698,104.455484 41.9659811,104.02998 41.9659811,103.604794 C41.9661726,80.986589 41.9614483,58.36832 41.9697477,35.7500509 C41.9717907,30.3160406 43.0265825,25.0915587 45.4549915,20.2146945 C50.5781567,9.92590926 58.7479097,3.43378735 69.9580577,0.803957983 C72.6228723,0.178820481 75.3314823,0 78.0582871,0 C105.565806,0 133.073388,0 160.580906,0 C160.96319,0 161.345666,0.0168541974 161.727822,0.0315377784 C162.614327,0.0655653815 163.375575,0.416886018 164.040294,0.982714622 C164.330965,1.23010104 164.592844,1.51170659 164.863341,1.78220369 C189.183054,26.1044704 213.502256,50.427184 237.821522,74.7498337 C238.001875,74.9302502 238.181653,75.1113052 238.361687,75.2919771 C239.115401,76.0486922 239.504644,76.9695443 239.572507,78.0270813 C239.59964,78.4507984 239.599385,78.8766861 239.599449,79.3016162 C239.601555,126.281287 239.617197,173.260958 239.591852,220.240564 C239.586425,230.244233 236.021379,238.847726 228.890649,245.883523 C223.664188,251.040333 217.380828,254.229352 210.13014,255.494119 C208.027706,255.860825 205.915058,256 203.785492,256 C192.136241,255.994063 180.48699,255.996936 168.837739,255.996999 C138.651744,255.996999 108.465749,255.995467 78.27969,256 C75.9808158,256 73.6981573,255.88866 71.4247559,255.495332 C66.011175,254.558647 61.0674048,252.503839 56.6531373,249.250469 C48.9869034,243.600163 44.2776875,236.06091 42.5229995,226.698786 C42.1232869,224.566347 41.9664918,222.401158 41.966428,220.228371 C41.9660449,210.748204 41.9665557,201.268037 41.9650235,191.78787 C41.9648958,191.283776 41.9486161,190.779747 41.9371246,190.118922" mask="url(#b)"/><path fill="#FFF" d="M231.46846,82.1812707 C231.502105,82.5816217 231.535558,82.8277313 231.540857,83.0744155 C231.550816,83.5419279 231.546719,84.0097596 231.546719,84.4774636 C231.546719,129.418798 231.546719,174.360132 231.544751,219.301466 C231.544751,221.043961 231.549922,222.782688 231.282745,224.516691 C230.169857,231.739545 226.736006,237.616552 221.041649,242.162972 C217.275119,245.170233 212.965297,246.996679 208.205837,247.717579 C206.865993,247.920532 205.49793,248.003462 204.141422,248.017954 C200.44282,248.0576 196.743451,248.031106 193.044402,248.030914 C154.820933,248.02919 116.597401,248.023381 78.3738692,248.03334 C75.2912748,248.034106 72.272139,247.693128 69.32125,246.78198 C59.5559025,243.766675 52.1578674,235.379285 50.3988383,225.316627 C50.1345977,223.805048 50.0178951,222.280382 50.0174482,220.747097 C50.0145115,210.925441 50.0135539,201.103849 50.0149584,191.282257 C50.0150222,190.946833 50.0473261,190.611409 50.0676916,190.215718 C50.3337198,190.170008 50.5722961,190.103102 50.8131706,190.093142 C51.2801085,190.073671 51.7483232,190.085673 52.2160272,190.085673 C95.0314343,190.085609 137.846905,190.084843 180.662376,190.089503 C181.899436,190.089631 183.124493,190.030322 184.331995,189.738693 C188.386387,188.759299 192.408986,185.094596 192.604788,179.341377 C192.616343,179.001548 192.613279,178.661208 192.613279,178.32106 C192.613662,157.997579 192.612896,137.674035 192.615322,117.350554 C192.615513,116.070401 192.53801,114.801229 192.185221,113.56302 C190.765127,108.579349 186.254522,105.67532 182.049847,105.64608 C181.412133,105.641611 180.774354,105.638738 180.13664,105.638674 C137.406206,105.634333 94.6758363,105.630567 51.9454663,105.623863 C51.3584422,105.623736 50.7645233,105.679405 50.1257237,105.539145 C50.0821198,105.265009 50.0285567,105.025284 50.0097872,104.782877 C49.9901878,104.529234 50.0032115,104.273038 50.0032115,104.017926 C50.0031477,81.3559258 50.006659,58.6939252 49.9984843,36.0319246 C49.9984843,33.5116475 50.2302325,31.0287817 50.8542847,28.5809649 C53.4734525,18.3067994 62.0764988,10.3092912 72.5234836,8.4470939 C74.2017531,8.14793189 75.8882581,7.98488 77.5944264,7.98488 C103.742884,7.9887108 129.891341,7.98488 156.039798,7.98941306 C156.454514,7.98941306 156.869229,8.02127004 157.336295,8.04042254 C157.37428,8.31226032 157.420693,8.51419148 157.427077,8.71733563 C157.44042,9.14213801 157.433398,9.56757881 157.433398,9.99276425 C157.433462,29.7635677 157.433079,49.5343073 157.434675,69.3051108 C157.434802,70.4523454 157.45255,71.5928766 157.69783,72.7290665 C158.764496,77.6710492 162.934314,81.41549 167.700285,82.013431 C168.582577,82.1241324 169.478276,82.1740566 170.367781,82.1744396 C190.138585,82.1833136 209.909324,82.1812707 229.680128,82.1812707 L231.46846,82.1812707 Z"/><path fill="#FFF" d="M87.1295545 165.168989C87.2991818 165.234044 87.3762387 165.289267 87.4534232 165.289458 90.3847129 165.297056 93.3204715 165.403352 96.2462708 165.277903 100.374975 165.10087 103.646221 162.334994 104.54658 158.40554 104.734019 157.587601 104.765046 156.720567 104.768047 155.875815 104.78688 150.522117 104.777942 145.168292 104.776665 139.814531 104.776601 139.474765 104.769387 139.134745 104.756044 138.795235 104.578884 134.285715 100.745767 130.470027 96.107096 130.425721 93.3454974 130.399291 90.583452 130.416017 87.8216619 130.423487 87.5824472 130.424125 87.3434879 130.501118 87.1233619 130.539359 86.9853362 131.8582 86.9926142 164.147267 87.1295545 165.168989M78.9998941 147.887053C78.9998941 141.044185 78.9968936 134.201381 79.005193 127.358513 79.0058952 126.766637 79.0212811 126.163205 79.1329401 125.585119 79.4647252 123.866757 80.8168277 122.653829 82.5499371 122.461858 82.8447579 122.429171 83.1435368 122.42068 83.4405282 122.420552 87.6057494 122.418509 91.7709707 122.408422 95.936128 122.423744 100.047978 122.438875 103.696911 123.771633 106.815768 126.445322 110.184692 129.333454 112.14993 132.999944 112.645469 137.426725 112.720993 138.101212 112.7796 138.781764 112.780941 139.459571 112.791538 145.069848 112.800859 150.680189 112.781643 156.290402 112.768875 160.013265 111.721361 163.428793 109.465643 166.406624 106.097613 170.852812 101.592052 173.180798 96.0085883 173.273304 91.8019977 173.342956 87.5933642 173.285243 83.3856244 173.291308 82.7857044 173.292138 82.1968289 173.258685 81.6324048 173.034217 80.3161814 172.510652 79.4419976 171.582203 79.1483898 170.187071 79.0272822 169.611666 79.0065975 169.006958 79.0058314 168.415529 78.9965743 161.572725 78.999958 154.729857 78.9998941 147.887053M44.0389261 148.656402C44.3034859 148.686982 44.50746 148.730714 44.7114979 148.731033 47.4305141 148.734544 50.1499771 148.755293 52.8684825 148.715839 53.6244954 148.704858 54.3927659 148.571429 55.1299456 148.390438 58.23431 147.628615 61.4795729 144.736588 61.7111904 140.106408 62.0206309 133.921109 57.1271679 130.280284 52.6823841 130.404519 50.1352297 130.475703 47.5844363 130.414223 45.0353028 130.420352 44.7086889 130.421118 44.3822026 130.469766 44.0754435 130.4946 43.9168608 131.542688 43.882897 147.115073 44.0389261 148.656402M43.984916 156.70626C43.970424 157.342315 43.9511438 157.803316 43.9507607 158.264316 43.9481432 161.749432 43.9565065 165.234548 43.9415037 168.7196 43.9391415 169.266277 43.9077953 169.83185 43.7665775 170.355415 43.25195 172.263898 41.4588932 173.469994 39.5210435 173.267935 37.6302452 173.070729 36.1669944 171.583409 35.9891316 169.65903 35.9501243 169.236973 35.9548486 168.810064 35.9547847 168.385389 35.9531887 154.699973 35.9529972 141.014556 35.9552955 127.329139 35.9553593 126.862137 35.9519119 126.39188 36.0026021 125.928836 36.2077892 124.053743 37.6232864 122.658611 39.5089775 122.459681 39.8461252 122.424121 40.1876781 122.420035 40.5272519 122.419843 44.5648536 122.417673 48.6025192 122.428781 52.6401209 122.416169 56.0928693 122.405479 59.2933154 123.277301 62.1418662 125.233601 67.0389044 128.596779 69.5833136 133.287481 69.7028252 139.226223 69.8139097 144.747952 67.7447377 149.339444 63.4909043 152.880358 60.4785996 155.387803 56.9635418 156.638333 53.0464731 156.696748 50.454438 156.735372 47.8613814 156.705494 45.2688356 156.70626 44.892489 156.706388 44.5161424 156.70626 43.984916 156.70626M131.036073 130.408139C130.867659 131.531944 130.834206 139.805695 130.970508 141.269967 131.326297 141.574683 131.769039 141.451214 132.176987 141.452554 135.833327 141.464876 139.489666 141.463854 143.146005 141.466727 145.059212 141.468259 146.972547 141.459768 148.885562 141.478219 149.39189 141.483134 149.909263 141.518694 150.401099 141.630353 152.228056 142.045005 153.453624 143.640982 153.437153 145.526801 153.420809 147.402533 152.157766 148.976038 150.315232 149.352768 149.7796 149.462256 149.219007 149.486133 148.669713 149.487091 143.270305 149.496539 137.870769 149.49207 132.471233 149.494432 132.009467 149.494624 131.5477 149.515436 131.137326 149.525459 130.798135 149.915915 130.900346 150.314287 130.899324 150.68176 130.890578 154.040469 130.894025 157.399243 130.893898 160.758016 130.893834 163.393974 130.900856 166.029996 130.887386 168.66589 130.884832 169.17241 130.853167 169.689655 130.746679 170.182896 130.351116 172.015598 128.757692 173.282919 126.896516 173.28862 125.034 173.294283 123.418806 172.037177 123.023179 170.212582 122.89856 169.638007 122.874428 169.032916 122.873598 168.441679 122.863639 161.766714 122.867214 155.09175 122.867214 148.416721 122.867214 141.359154 122.864596 134.301523 122.872576 127.243891 122.873215 126.69447 122.892559 126.13394 122.999174 125.59767 123.352602 123.820191 124.725453 122.614414 126.535875 122.449702 126.915924 122.4151 127.300251 122.419313 127.682598 122.41925 135.760547 122.41811 143.83856 122.41811 151.916572 122.41811 152.214074 122.41811 152.51164 122.425315 152.809142 122.430677 154.771124 122.465726 156.64743 124.052575 156.632265 126.420909 156.617106 128.752789 154.851692 130.275732 152.774796 130.397733 152.393342 130.420078 152.009717 130.407756 151.627114 130.407756 145.249779 130.408203 138.872381 130.408139 132.495046 130.408139 132.032322 130.408139 131.569598 130.408139 131.036073 130.408139"/><path fill="#2A2828" d="M87.1295545 165.168989C86.9926142 164.147267 86.9853362 131.8582 87.1233619 130.539359 87.3434879 130.501118 87.5824472 130.424125 87.8216619 130.423487 90.583452 130.416017 93.3454974 130.399291 96.107096 130.425721 100.745767 130.470027 104.578884 134.285715 104.756044 138.795235 104.769387 139.134745 104.776601 139.474765 104.776665 139.814531 104.777942 145.168292 104.78688 150.522117 104.768047 155.875815 104.765046 156.720567 104.734019 157.587601 104.54658 158.40554 103.646221 162.334994 100.374975 165.10087 96.2462708 165.277903 93.3204715 165.403352 90.3847129 165.297056 87.4534232 165.289458 87.3762387 165.289267 87.2991818 165.234044 87.1295545 165.168989M44.0389261 148.656402C43.882897 147.115073 43.9168608 131.542688 44.0754435 130.4946 44.3822026 130.469766 44.7086889 130.421118 45.0353028 130.420352 47.5844363 130.414223 50.1352297 130.475703 52.6823841 130.404519 57.1271679 130.280284 62.0206309 133.921109 61.7111904 140.106408 61.4795729 144.736588 58.23431 147.628615 55.1299456 148.390438 54.3927659 148.571429 53.6244954 148.704858 52.8684825 148.715839 50.1499771 148.755293 47.4305141 148.734544 44.7114979 148.731033 44.50746 148.730714 44.3034859 148.686982 44.0389261 148.656402"/></g></svg>