<svg xmlns="http://www.w3.org/2000/svg" width="4165" height="4162" viewBox="0 0 4165 4162"><path fill-rule="evenodd" stroke="#FFF" stroke-width="66" d="M2074.08218,4096 L2019.36339,4096 C2015.92175,4095.52202 2012.49485,4094.79453 2009.03848,4094.60503 C1967.38297,4092.30885 1925.69271,4090.53907 1884.07195,4087.75018 C1822.12772,4083.6 1760.6741,4075.287 1699.47737,4064.85891 C1595.3207,4047.10852 1493.21701,4021.2915 1393.16841,3987.39415 C1151.80207,3905.61497 933.279619,3782.9541 737.592634,3619.77159 C547.350786,3461.12986 390.665175,3274.20541 267.879017,3059.05406 C145.536092,2844.68074 64.8444655,2615.5607 25.71886,2371.78553 C12.9272095,2292.08039 4.64895864,2211.92043 1.60317717,2131.31198 C-2.62701638,2019.36766 1.37577005,1907.69182 15.2623437,1796.41183 C24.0796337,1725.76086 36.0848345,1655.69735 52.1602017,1586.36977 C98.80814,1385.18606 173.274496,1194.83893 278.533461,1017.11605 C512.194277,622.594179 840.219572,335.291603 1262.48196,156.286404 C1413.50345,92.2660358 1570.64914,49.0818449 1732.69776,23.9144041 C1806.18817,12.5019357 1880.12075,5.24385845 1954.46708,2.05594753 C2043.23798,-1.75206891 2131.89307,-0.378150899 2220.41339,7.08206601 C2297.65706,13.5915948 2374.29011,24.5345096 2450.33463,39.758153 C2619.54658,73.6333913 2782.01423,127.731018 2937.00797,203.494438 C3288.37724,375.247876 3569.73038,626.111619 3779.78192,955.924587 C3955.94663,1232.53166 4058.19772,1535.02524 4089.85573,1861.38078 C4094.42704,1908.50353 4097.17172,1955.75684 4097.21593,2003.13753 C4097.22015,2008.32052 4098.1782,2013.50351 4098.69408,2018.68544 L4098.69408,2083.93128 C4098.18241,2088.48364 4097.2412,2093.03599 4097.22541,2097.59045 C4097.02432,2155.51083 4092.82361,2213.16485 4086.55728,2270.71886 C4078.20323,2347.44139 4065.51054,2423.41221 4048.41921,2498.66291 C3995.88395,2729.96648 3905.11061,2945.23364 3777.41099,3145.01606 C3775.5791,3147.88181 3773.54612,3150.62017 3770.60141,3154.87037 C3534.47385,2919.00286 3299.08222,2683.87127 3064.18119,2449.22924 C3066.56054,2442.67444 3068.0987,2438.41266 3069.6537,2434.15825 C3108.02339,2329.18039 3132.49176,2221.23044 3139.42768,2109.48195 C3143.69683,2040.68287 3141.78598,1972.14068 3133.13608,1903.7164 C3121.01297,1807.82219 3096.57828,1715.19485 3058.47496,1626.46712 C2957.96733,1392.42624 2796.79043,1211.8513 2576.46872,1084.37171 C2496.35719,1038.01856 2411.68068,1001.99243 2321.46954,980.049745 C2246.68313,961.860334 2170.76284,950.992169 2093.87081,947.802152 C2017.9821,944.655301 1942.47662,949.026571 1867.5744,962.164597 C1826.47372,969.374244 1785.79206,978.447367 1746.01582,991.102153 C1697.48967,1006.54057 1670.33768,1057.83667 1684.7096,1105.79957 C1689.58201,1122.06233 1699.36683,1135.00032 1711.22358,1146.84339 C1854.41532,1289.8751 1997.93132,1432.5857 2140.47768,1576.25752 C2230.34982,1666.8403 2265.95588,1777.06327 2250.07844,1903.08682 C2239.55665,1986.59788 2203.11992,2058.67225 2145.9144,2120.50382 C2041.70825,2233.13773 1885.88594,2272.23912 1742.51523,2226.95773 C1679.79297,2207.14804 1625.7543,2173.12435 1579.3064,2126.61118 C1438.27714,1985.38609 1297.0531,1844.35472 1156.01121,1703.14122 C1138.1966,1685.3045 1117.39937,1674.71112 1092.08454,1672.53601 C1051.65555,1669.06279 1012.95107,1693.94386 1001.02167,1732.64624 C974.774049,1817.79652 959.040845,1904.90082 955.032795,1993.94123 C952.030179,2060.6389 954.909616,2127.11337 964.508091,2193.29831 C976.374321,2275.1175 996.36088,2354.82685 1025.16684,2432.28741 C1154.81416,2780.91726 1493.16964,3103.76904 1971.52051,3135.92188 C2040.97023,3140.59005 2110.28097,3138.94134 2179.43695,3130.48727 C2264.70304,3120.0655 2347.53608,3099.91786 2427.90765,3069.62007 C2436.03219,3066.5585 2444.15884,3063.50324 2449.75137,3061.39762 C2686.11685,3297.91261 2921.22528,3533.17054 3156.37267,3768.46742 C3155.88627,3768.80853 3154.22915,3770.07927 3152.47306,3771.19104 C2964.20313,3890.48082 2762.36667,3978.34103 2546.16356,4032.91558 C2471.68879,4051.71457 2396.41071,4066.51709 2320.23249,4076.22506 C2276.7872,4081.76073 2233.13977,4086.0004 2189.47339,4089.42941 C2153.48621,4092.25515 2117.33585,4093.01107 2081.26129,4094.75347 C2078.85351,4094.87033 2076.47416,4095.57045 2074.08218,4096" transform="translate(33 33)"/></svg>