<svg xmlns="http://www.w3.org/2000/svg" width="263" height="262" viewBox="0 0 263 262"><path fill="#2A2828" fill-rule="evenodd" stroke="#FFF" stroke-width="6" d="M129.630136,256 L126.210212,256 C125.995109,255.970126 125.780928,255.924658 125.564905,255.912814 C122.961435,255.769303 120.355795,255.658692 117.754497,255.484386 C113.882983,255.225 110.042132,254.705438 106.217336,254.053682 C99.7075439,252.944283 93.3260632,251.330719 87.0730254,249.212134 C71.9876293,244.100936 58.3299762,236.434631 46.0995396,226.235724 C34.2094241,216.320616 24.4165734,204.637838 16.7424385,191.190879 C9.09600574,177.792546 4.0527791,163.472544 1.60742875,148.236596 C0.807950593,143.255024 0.290559915,138.245027 0.100198573,133.206999 C-0.164188524,126.210479 0.0859856281,119.230739 0.953896482,112.275739 C1.5049771,107.860054 2.25530216,103.481085 3.26001261,99.1481105 C6.17550875,86.5741286 10.829656,74.677433 17.4083413,63.5697533 C32.0121423,38.9121362 52.5137233,20.9557252 78.9051223,9.76790026 C88.3439654,5.76662724 98.165571,3.0676153 108.29361,1.49465026 C112.88676,0.781370981 117.507547,0.327741153 122.154193,0.128496721 C127.702374,-0.109504307 133.243317,-0.0236344312 138.775837,0.442629125 C143.603567,0.849474676 148.393132,1.53340685 153.145914,2.48488456 C163.721661,4.60208696 173.875889,7.98318865 183.562998,12.7184024 C205.523577,23.4529923 223.108149,39.1319762 236.23637,59.7452867 C247.246664,77.0332287 253.637357,95.9390775 255.615983,116.336299 C255.90169,119.281471 256.073232,122.234802 256.075996,125.196096 C256.076259,125.520033 256.136138,125.843969 256.16838,126.16784 L256.16838,130.245705 C256.136401,130.530227 256.077575,130.814749 256.076588,131.099403 C256.06402,134.719427 255.801476,138.322803 255.40983,141.919929 C254.887702,146.715087 254.094409,151.463263 253.026201,156.166432 C249.742747,170.622905 244.069413,184.077103 236.088187,196.563504 C235.973693,196.742613 235.846632,196.913761 235.662588,197.179398 C220.904616,182.437679 206.192639,167.741954 191.511324,153.076827 C191.660034,152.667152 191.756169,152.400791 191.853356,152.134891 C194.251462,145.573774 195.780735,138.826902 196.21423,131.842622 C196.481052,127.542679 196.361624,123.258792 195.821005,118.982275 C195.06331,112.988887 193.536143,107.199678 191.154685,101.654195 C184.872958,87.0266398 174.799402,75.7407061 161.029295,67.7732318 C156.022325,64.8761598 150.730042,62.6245267 145.091846,61.2531091 C140.417695,60.1162709 135.672677,59.4370106 130.866925,59.2376345 C126.123881,59.0409563 121.404789,59.3141607 116.7234,60.1352873 C114.154608,60.5858903 111.612004,61.1529605 109.125989,61.9438845 C106.093104,62.9087856 104.396105,66.1147917 105.29435,69.1124729 C105.598875,70.1288958 106.210427,70.9375203 106.951474,71.677712 C115.900958,80.6171938 124.870708,89.5366064 133.779855,98.516095 C139.396864,104.177519 141.622243,111.066454 140.629903,118.942926 C139.972291,124.162367 137.694995,128.667015 134.11965,132.531489 C127.606765,139.571108 117.867871,142.014945 108.907202,139.184858 C104.987061,137.946752 101.609644,135.820272 98.7066499,132.913199 C89.892321,124.086631 81.0658189,115.27217 72.2507004,106.446326 C71.1372873,105.331531 69.8374608,104.669445 68.2552837,104.533501 C65.7284721,104.316424 63.309442,105.871491 62.5638546,108.29039 C60.9233781,113.612282 59.9400528,119.056301 59.6895497,124.621327 C59.5018862,128.789931 59.681851,132.944585 60.2817557,137.081145 C61.0233951,142.194844 62.272555,147.176678 64.0729272,152.017963 C72.1758851,173.807329 93.3231022,193.985565 123.220032,195.995118 C127.560639,196.286878 131.89256,196.183834 136.214809,195.655455 C141.54394,195.004094 146.721005,193.744866 151.744228,191.851255 C152.252012,191.659906 152.759927,191.468953 153.109461,191.337351 C167.882303,206.119538 182.57658,220.823159 197.273292,235.529214 C197.242892,235.550533 197.139322,235.629955 197.029566,235.69944 C185.262695,243.155051 172.647917,248.646314 159.135223,252.057224 C154.480549,253.232161 149.775669,254.157318 145.01453,254.764066 C142.2992,255.110046 139.571236,255.375025 136.842087,255.589338 C134.592888,255.765947 132.333491,255.813192 130.078831,255.922092 C129.928345,255.929396 129.779635,255.973153 129.630136,256" transform="translate(3 3)"/></svg>