<svg xmlns="http://www.w3.org/2000/svg" xmlns:xlink="http://www.w3.org/1999/xlink" width="192" height="256" viewBox="0 0 192 256"><defs><polygon id="a" points="0 0 191.849 0 191.849 180.76 0 180.76"/></defs><g fill="none" fill-rule="evenodd"><g transform="translate(0 75.24)"><mask id="b" fill="#fff"><use xlink:href="#a"/></mask><path fill="#2A2828" stroke="#FFF" stroke-width="3" d="M6.08703791,1.75855276 C7.20086004,1.40888854 8.4161425,1.41661671 9.7159476,1.76954203 C10.9990833,2.11796174 12.0358254,2.72006287 12.8134514,3.57282088 C13.6224173,4.45994674 14.1458559,5.60650063 14.4219461,6.9626769 C14.5167419,7.42833394 14.5154742,7.91800383 14.5159003,8.39567313 C14.5197822,13.0904386 14.5187675,17.7852202 14.517753,22.4800009 C14.5159046,31.034165 14.5140593,39.5883257 14.5418106,48.1423821 C14.6028125,66.9334098 20.6049991,83.6624604 32.3930623,98.2412738 C43.5082573,111.987903 57.7017777,121.140763 74.7514661,125.829984 C78.8695093,126.962611 83.0614637,127.715975 87.3100985,128.165755 C91.6913232,128.629694 96.0807534,128.757914 100.476624,128.501716 C112.869595,127.779187 124.537786,124.478014 135.3789,118.419957 C151.016975,109.681266 162.666363,97.1908134 170.21119,80.9176218 C173.275496,74.3083834 175.310249,67.3773703 176.429866,60.1798208 C177.12968,55.6807524 177.362821,51.1502523 177.357445,46.5992513 C177.349923,40.1362303 177.352845,33.6731927 177.355766,27.2101553 C177.3586,20.9408014 177.361434,14.6714478 177.354739,8.40213445 C177.353055,6.80048874 177.689944,5.31842903 178.707608,4.06580864 C179.567611,3.00722662 180.550342,2.25015617 181.66392,1.84883288 C182.746053,1.4588417 183.941996,1.41130069 185.236925,1.69615134 C186.539364,1.98263113 187.605342,2.53128438 188.422651,3.34445204 C189.270597,4.18810168 189.844748,5.30473806 190.183298,6.64597926 C190.241384,6.87612223 190.267296,7.11404677 190.293248,7.35209334 L190.348806,47.2120026 C190.294849,47.7640241 190.275555,48.0060277 190.277771,48.2477071 C190.323874,53.2587353 189.927898,58.2327045 189.102099,63.176475 C187.921783,70.2427171 185.966499,77.0838729 183.168231,83.6769126 C176.547472,99.2760667 166.451128,112.186093 152.941752,122.384365 C138.98723,132.918719 123.288123,139.134414 105.894819,141.02706 C105.415456,141.079221 104.936034,141.130718 104.45779,141.182089 C104.237092,141.205796 104.016645,141.229475 103.79657,141.25318 L102.457211,141.397447 L102.457211,166.211904 L110.861353,166.211817 C120.459614,166.211606 130.057875,166.211395 139.656248,166.216092 C140.201026,166.216318 140.753439,166.218127 141.290106,166.300748 C142.834114,166.538504 144.17255,167.309307 145.136772,168.417007 C146.110213,169.535299 146.701575,170.99479 146.748233,172.592541 C146.793141,174.129711 146.278583,175.578172 145.375723,176.725601 C144.469593,177.877184 143.172093,178.726297 141.651778,179.058769 C141.450405,179.102785 141.248684,179.145059 141.046894,179.187003 L51.2290496,179.259825 C50.6669748,179.153197 50.4105105,179.104586 50.1557529,179.048324 C48.6342897,178.712289 47.3530505,177.862909 46.4645233,176.697051 C45.5659075,175.517956 45.0699917,174.018545 45.117751,172.404056 C45.1623935,170.895494 45.7738957,169.487322 46.7452645,168.397432 C47.7179507,167.306065 49.0547621,166.530199 50.566021,166.300336 C51.103995,166.21853 51.6572821,166.216319 52.2028577,166.216092 L69.5869068,166.211872 L89.3970621,166.211907 L89.3970621,141.473959 C87.9478718,141.252658 87.6050251,141.187041 87.2589537,141.156062 C81.0370756,140.599297 74.9368166,139.412212 68.9517245,137.62657 C43.2603437,129.961865 21.9445692,111.728014 10.4101582,87.5270519 C6.87623155,80.1123797 4.39813986,72.3551545 2.95862943,64.2649766 C2.00891575,58.9277746 1.53931134,53.5513212 1.53861391,48.1308821 C1.53805768,43.6693279 1.53128043,39.2077737 1.52450269,34.7462195 C1.52028768,31.9716255 1.5160726,29.1970315 1.51335468,26.4224117 C1.51093888,23.9987893 1.5099685,21.5751459 1.50899803,19.1514984 C1.50756109,15.5628851 1.50612371,11.9742628 1.49999785,8.38570987 C1.49717372,6.71609103 1.89003763,5.17025567 3.00402765,3.89338956 C3.91608419,2.84796136 4.94240774,2.11788861 6.08703791,1.75855276 Z" mask="url(#b)"/></g><path fill="#2A2828" stroke="#FFF" stroke-width="3" d="M56.2394391,1.50140018 L56.7949931,1.57482297 C67.0843688,1.92719572 76.7928258,5.14090197 84.9857731,10.574915 C93.1756876,16.0069165 99.8510778,23.657542 104.077436,32.8850081 C106.33502,37.8140238 107.785934,42.9720766 108.439362,48.3569066 C108.714399,50.6240492 108.823918,52.8970569 108.822657,55.1793127 L108.821008,68.4642095 C108.818534,86.7748871 108.81606,105.085557 108.823952,123.396184 C108.829587,136.467406 104.672805,148.047599 96.2372896,158.008958 C88.2296407,167.465161 78.0754867,173.420711 65.9389412,175.956185 C61.151198,176.956391 56.3096779,177.259415 51.432646,176.917997 C39.6545846,176.093526 28.9415753,171.516009 20.4854758,164.391742 C11.9014122,157.159665 5.642264,147.303409 2.9581641,136.084721 C2.03322997,132.218834 1.53877183,128.294943 1.53814602,124.316584 C1.53705543,117.614879 1.52809142,110.91313 1.51912706,104.211384 C1.49684675,87.5546319 1.47455326,70.8978903 1.57323678,54.2418318 C1.65890065,39.7752909 7.07629446,27.3978799 17.2772361,17.1836549 C25.0614708,9.38932788 34.4576004,4.53773281 45.2858465,2.48136143 C47.9358802,1.97811826 50.6097765,1.69582787 53.3044469,1.5967356 C53.5017391,1.58948405 53.6986221,1.56456225 53.8952583,1.53464406 L56.2394391,1.50140018 Z M57.7803801,14.639289 C53.1438772,14.3404273 48.5741396,14.8178718 44.0914891,16.0775303 C35.4152374,18.5156292 27.9549071,23.716171 22.6959683,30.6238413 C17.5229788,37.4186165 14.4792178,45.8641251 14.4998066,54.9567288 C14.537405,71.4896614 14.5279975,88.0226801 14.518592,104.555678 C14.5149652,110.930906 14.5113384,117.30613 14.510406,123.681345 C14.5101385,125.578428 14.6331121,127.46411 14.8937083,129.343251 C15.6615146,134.880311 17.5233543,140.023541 20.4690165,144.767972 C24.9191697,151.935653 31.3402305,157.368894 38.7352233,160.610957 C46.1103911,163.844329 54.4545803,164.898481 62.7791472,163.318454 C72.3981385,161.492807 80.3837035,156.791734 86.6326171,149.261185 C92.6913174,141.959917 95.7841325,133.510632 95.8204238,124.00805 C95.8512228,115.935969 95.8441849,107.863767 95.8371415,99.7915709 C95.8341041,96.3105017 95.8310665,92.8294335 95.8310665,89.3483771 C95.831484,85.8247111 95.8309877,82.3008673 95.8304915,78.7770236 C95.8293792,70.8788798 95.8282665,62.9807359 95.8374446,55.0825921 C95.841525,51.5643101 95.4370473,48.103674 94.5476764,44.700974 C92.3871336,36.4344093 87.5975614,29.1161014 81.045055,23.7604713 C74.684865,18.5620292 66.6647303,15.2119647 57.7803801,14.639289 Z" transform="translate(40.737)"/></g></svg>