<svg xmlns="http://www.w3.org/2000/svg" width="1091" height="1090" viewBox="0 0 1091 1090"><path fill-rule="evenodd" stroke="#FFF" stroke-width="66" d="M518.520544,1024 L504.840848,1024 C503.980438,1023.88051 503.123713,1023.69863 502.259619,1023.65126 C491.845741,1023.07721 481.423178,1022.63477 471.017987,1021.93754 C455.53193,1020.9 440.168526,1018.82175 424.869344,1016.21473 C398.830176,1011.77713 373.304253,1005.32287 348.292102,996.848537 C287.950517,976.403742 233.319905,945.738524 184.398159,904.942897 C136.837697,865.282464 97.6662937,818.551354 66.9697542,764.763516 C36.384023,711.170185 16.2111164,653.890175 6.429715,592.946383 C3.23180237,573.020097 1.16223966,552.980108 0.400794292,532.827994 C-0.656754096,504.841916 0.343942512,476.922954 3.81558593,449.102957 C6.01990842,431.440214 9.02120863,413.924339 13.0400504,396.592442 C24.702035,346.296514 43.3186241,298.709732 69.6333654,254.279013 C128.048569,155.648545 210.054893,83.8229008 315.620489,39.071601 C353.375862,23.066509 392.662284,12.2704612 433.174441,5.97860103 C451.547041,3.12548392 470.030187,1.31096461 488.616771,0.513986883 C510.809495,-0.438017229 532.973267,-0.0945377247 555.103348,1.7705165 C574.414266,3.3978987 593.572526,6.13362741 612.583656,9.93953824 C654.886645,18.4083478 695.503557,31.9327546 734.251993,50.8736094 C822.09431,93.8119691 892.432595,156.527905 944.945479,238.981147 C988.986658,308.132915 1014.54943,383.75631 1022.46393,465.345194 C1023.60676,477.125883 1024.29293,488.93921 1024.30398,500.784383 C1024.30504,502.08013 1024.54455,503.375877 1024.67352,504.67136 L1024.67352,520.98282 C1024.5456,522.120909 1024.3103,523.258997 1024.30635,524.397612 C1024.25608,538.877708 1023.2059,553.291213 1021.63932,567.679714 C1019.55081,586.860347 1016.37763,605.853053 1012.1048,624.665728 C998.970988,682.491621 976.277653,736.308411 944.352746,786.254015 C943.894774,786.970453 943.386529,787.655043 942.650351,788.717593 C883.618464,729.750716 824.770555,670.967818 766.045298,612.307309 C766.640136,610.668609 767.024675,609.603165 767.413425,608.539562 C777.005847,582.295096 783.122941,555.307609 784.85692,527.370486 C785.924207,510.170717 785.446494,493.03517 783.284021,475.929101 C780.253242,451.955547 774.144571,428.798712 764.618739,406.616779 C739.491832,348.106559 699.197606,302.962824 644.11718,271.092927 C624.089298,259.504639 602.92017,250.498107 580.367384,245.012436 C561.670782,240.465084 542.69071,237.748042 523.467702,236.950538 C504.495526,236.163825 485.619155,237.256643 466.8936,240.541149 C456.618431,242.343561 446.448016,244.611842 436.503955,247.775538 C424.372417,251.635142 417.58442,264.459167 421.1774,276.449891 C422.395502,280.515583 424.841707,283.750081 427.805896,286.710848 C463.60383,322.468775 499.48283,358.146426 535.119421,394.06438 C557.587455,416.710076 566.48897,444.265818 562.51961,475.771706 C559.889163,496.649469 550.779981,514.668062 536.4786,530.125955 C510.427061,558.284431 471.471485,568.059779 435.628806,556.739432 C419.948243,551.78701 406.438576,543.281089 394.8266,531.652794 C359.569284,496.346523 324.263276,461.088681 289.002802,425.785304 C284.549149,421.326125 279.349843,418.677779 273.021135,418.134002 C262.913888,417.265697 253.237768,423.485966 250.255418,433.16156 C243.693512,454.44913 239.760211,476.225204 238.758199,498.485308 C238.007545,515.159724 238.727404,531.778342 241.127023,548.324579 C244.09358,568.779375 249.09022,588.706714 256.291709,608.071851 C288.70354,695.229315 373.292409,775.942261 492.880128,783.980471 C510.242556,785.147511 527.570242,784.735336 544.859237,782.621818 C566.175759,780.016375 586.88402,774.979465 606.976913,767.405018 C609.008048,766.639625 611.039709,765.875811 612.437842,765.349405 C671.529214,824.478152 730.306321,883.292634 789.093167,942.116855 C788.971568,942.202133 788.557287,942.519818 788.118265,942.79776 C741.050781,972.620204 690.591668,994.585258 636.540891,1008.2289 C617.922196,1012.92864 599.102678,1016.62927 580.058121,1019.05626 C569.196799,1020.44018 558.284942,1021.5001 547.368348,1022.35735 C538.371554,1023.06379 529.333963,1023.25277 520.315323,1023.68837 C519.713378,1023.71758 519.11854,1023.89261 518.520544,1024" transform="translate(33 33)"/></svg>