<svg xmlns="http://www.w3.org/2000/svg" xmlns:xlink="http://www.w3.org/1999/xlink" width="3754" height="4010" viewBox="0 0 3754 4010"><defs><polygon id="a" points="0 0 3753.132 0 3753.132 4009.921 0 4009.921"/></defs><g fill="none" fill-rule="evenodd"><mask id="b" fill="#fff"><use xlink:href="#a"/></mask><path fill="#000" d="M2052.5168,2042.681 C2060.8738,2042.681 2068.1218,2042.681 2075.3698,2042.681 C2175.2628,2042.681 2275.1568,2042.682 2375.0498,2042.675 C2381.0428,2042.675 2387.0518,2042.868 2393.0268,2042.518 C2425.5588,2040.607 2453.2118,2016.752 2453.44925,1980.226 C2453.6868,1943.129 2424.2968,1918.273 2393.5648,1917.724 C2388.9048,1917.64 2384.2438,1917.52715 2379.5838,1917.52715 C2253.0518,1917.52715 2126.5198,1917.52715 1999.9888,1917.545 C1993.9998,1917.546 1987.9798,1917.48 1982.0268,1918.022 C1953.6688,1920.602 1932.1648,1939.489 1926.6288,1967.331 C1924.9588,1975.731 1924.6558,1984.511 1924.6458,1993.117 C1924.5208,2103.666 1924.5618,2214.215 1924.5618,2324.763 C1924.5618,2429.319 1924.5058,2533.874 1924.6618,2638.429 C1924.6748,2647.69 1925.0528,2657.168 1927.0048,2666.168 C1933.2018,2694.748 1958.5018,2714.439 1987.6758,2714.3503 C2016.8288,2714.261 2041.7878,2694.41 2047.9838,2665.703 C2049.6518,2657.977 2050.1478,2649.875 2050.1878,2641.941 C2050.3988,2600.653 2050.2888,2559.363 2050.2898,2518.074 C2050.2918,2465.463 2050.2378,2412.852 2050.3748,2360.242 C2050.3908,2354.486 2048.7898,2348.246 2054.1028,2342.13 C2060.5308,2341.973 2067.7638,2341.647 2074.9968,2341.644 C2159.5738,2341.607 2244.1508,2341.677 2328.7258,2341.529 C2337.3298,2341.514 2346.1108,2341.14 2354.5008,2339.425 C2383.3618,2333.524 2403.1458,2308.877 2403.4018,2279.496 C2403.6598,2249.957 2384.4628,2224.958 2355.8458,2218.463 C2348.1418,2216.714 2340.0378,2216.157 2332.1068,2216.08 C2302.1418,2215.791 2272.1718,2215.924 2242.2038,2215.9 C2184.9318,2215.855 2127.6598,2215.871 2070.3878,2215.678 C2063.9978,2215.657 2057.0628,2217.591 2051.4898,2212.818 C2049.3548,2189.882 2049.8788,2060.284 2052.5168,2042.681 M688.9688,2454.608 C697.2898,2454.608 703.1848,2454.61 709.0798,2454.608 C749.6888,2454.596 790.3058,2455.064 830.9068,2454.459 C892.2628,2453.545 947.3218,2433.956 994.5058,2394.68 C1061.1368,2339.216 1093.5478,2267.296 1091.8078,2180.805 C1089.9358,2087.783 1050.0808,2014.308 973.3748,1961.629 C928.7558,1930.986 878.6248,1917.329 824.5418,1917.49645 C761.2978,1917.695 698.0528,1917.52 634.8088,1917.554 C629.4898,1917.557 624.1398,1917.621 618.8588,1918.178 C589.3218,1921.295 567.1498,1943.147 563.9358,1972.518 C563.1418,1979.771 563.1958,1987.138 563.1948,1994.452 C563.1588,2208.817 563.1618,2423.182 563.1868,2637.548 C563.1878,2644.2 563.1138,2650.887 563.7248,2657.497 C566.5108,2687.64 589.4308,2710.937 619.0478,2714.026 C649.4018,2717.192 677.4878,2698.299 685.5488,2668.405 C687.7608,2660.204 688.2518,2651.345 688.2888,2642.782 C688.5238,2588.193 688.3928,2533.603 688.4338,2479.013 C688.4398,2471.792 688.7418,2464.572 688.9688,2454.608 M1237.4358,2316.466 C1237.4358,2423.65 1237.3828,2530.835 1237.5278,2638.019 C1237.5398,2647.284 1237.8638,2656.755 1239.7608,2665.769 C1244.3598,2687.621 1258.0528,2702.164 1278.6698,2710.366 C1287.5108,2713.882 1296.7348,2714.405 1306.1318,2714.392 C1372.0408,2714.298 1437.9638,2715.202 1503.8548,2714.11 C1591.3128,2712.661 1661.8868,2676.196 1714.6428,2606.553 C1749.9758,2559.908 1766.3838,2506.408 1766.5838,2448.094 C1766.8848,2360.217 1766.7388,2272.338 1766.5728,2184.461 C1766.5528,2173.843 1765.6338,2163.183 1764.4508,2152.619 C1756.6888,2083.279 1725.9058,2025.847 1673.1358,1980.608 C1624.2828,1938.728 1567.1268,1917.853 1502.7198,1917.616 C1437.4778,1917.375 1372.2348,1917.534 1306.9918,1917.565 C1302.3398,1917.567 1297.6598,1917.701 1293.0418,1918.212 C1265.8948,1921.219 1244.7158,1940.219 1239.5188,1967.134 C1237.7698,1976.19 1237.5288,1985.641 1237.5178,1994.913 C1237.3878,2102.097 1237.4348,2209.281 1237.4358,2316.466 M3625.6648,1287.267 L3597.6528,1287.267 C3287.9688,1287.267 2978.2838,1287.299 2668.5988,1287.16 C2654.6658,1287.154 2640.6368,1286.372 2626.8168,1284.639 C2552.1628,1275.272 2486.8478,1216.62 2470.1398,1139.21 C2466.2978,1121.414 2466.0198,1103.548 2466.0178,1085.578 C2465.9928,775.894 2465.9998,466.209 2465.9978,156.524 C2465.9978,149.864 2466.1078,143.2 2465.8988,136.546 C2465.7988,133.364 2465.0718,130.202 2464.4778,125.943 C2457.1608,125.643 2450.6648,125.144 2444.1688,125.144 C2034.5858,125.073995 1625.0028,125.133 1215.4198,125.073995 C1188.6958,125.073995 1162.2778,127.627 1135.9898,132.313 C972.3508,161.482 837.5948,286.753 796.5688,447.685 C786.7948,486.027 783.16376,524.919 783.16376,564.395 C783.2928,919.367 783.2368,1274.339 783.2378,1629.311 C783.2378,1633.307 783.0338,1637.32 783.3408,1641.294 C783.6358,1645.09 784.4748,1648.845 785.1568,1653.139 C795.1628,1655.336 804.4658,1654.464 813.6608,1654.466 C1482.9788,1654.571 2152.2978,1654.63 2821.6158,1654.698 C2831.6058,1654.699 2841.5948,1654.744 2851.5848,1654.814 C2917.4448,1655.273 2988.0978,1700.76 3010.3418,1778.823 C3015.8688,1798.218 3017.0818,1818.098 3017.0788,1838.15 C3017.0408,2156.492 3017.0528,2474.835 3017.0478,2793.178 C3017.0468,2798.505 3017.0958,2803.837 3016.9138,2809.159 C3013.8478,2899.276 2950.8378,2956.679 2887.3308,2972.02 C2868.4168,2976.589 2849.2278,2977.517 2829.8508,2977.515 C2159.1998,2977.442 1488.5498,2977.454 817.8988,2977.456 C810.5728,2977.456 803.2388,2977.268 795.9248,2977.572 C792.1518,2977.728 788.4148,2978.776 784.2488,2979.492 C783.9288,2985.69 783.4228,2990.944 783.4218,2996.198 C783.3998,3150.041 783.4148,3303.884 783.4608,3457.728 C783.4688,3481.745 785.2958,3505.627 789.4348,3529.304 C816.9878,3686.923 932.8688,3818.302 1085.8308,3865.532 C1132.0528,3879.805 1179.3438,3885.146 1227.6298,3885.133 C1826.3528,3884.977 2425.0768,3885.068 3023.8008,3885.096 C3081.7418,3885.098 3139.6868,3885.513 3197.6208,3884.893 C3218.8688,3884.665 3240.2978,3883.366 3261.2848,3880.188 C3335.8358,3868.896 3403.3438,3840.286 3462.3418,3793.181 C3551.5368,3721.967 3605.3238,3629.911 3622.7568,3516.774 C3626.9418,3489.613 3626.8598,3462.379 3626.8608,3435.084 C3626.89063,2731.134 3626.89063,2027.184 3626.89063,1323.234 C3626.89063,1315.908 3626.9548,1308.58 3626.7988,1301.258 C3626.7158,1297.393 3626.1928,1293.539 3625.6648,1287.267 M656.8928,2977.976 C646.5268,2977.802 638.6298,2977.556 630.7338,2977.555 C478.8958,2977.53 327.0588,2977.508 175.2218,2977.552 C144.7008,2977.561 115.4438,2971.751 88.9768,2956.362 C32.2038,2923.351 0.8188,2874.268 0.3568,2807.888 C-0.3202,2710.664 0.1738,2613.431 0.1738,2516.202 C0.1728,2287.78 0.1808,2059.359 0.1608,1830.937 C0.1588,1814.928 0.9658,1799.115 4.8278,1783.394 C22.9028,1709.806 89.7668,1657.486 159.8528,1654.803 C168.4988,1654.472 177.1568,1654.314 185.8088,1654.313 C334.3168,1654.283 482.8238,1654.308 631.3318,1654.245 C639.1878,1654.242 647.1988,1655.226 655.7268,1652.548 C656.2818,1649.104 657.1138,1645.973 657.2278,1642.816 C657.4668,1636.165 657.3448,1629.5 657.3448,1622.84 C657.3478,1268.554 657.2738,914.267 657.4038,559.98 C657.4358,474.863 673.9578,393.028 711.9958,316.638 C792.2438,155.477 920.2128,53.786 1095.8058,12.593 C1137.5468,2.801 1179.9738,0 1222.6858,0 C1653.5568,0 2084.4288,0 2515.2998,0 C2521.2878,0 2527.2788,0.264 2533.2648,0.494 C2547.1508,1.027 2559.0748,6.53 2569.4868,15.393 C2574.0398,19.268 2578.1418,23.679 2582.3788,27.916 C2963.3168,408.894 3344.2468,789.879 3725.1778,1170.863 C3728.0028,1173.689 3730.8188,1176.525 3733.6388,1179.355 C3745.4448,1191.208 3751.5418,1205.632 3752.6048,1222.197 C3753.0298,1228.834 3753.0258,1235.505 3753.0268,1242.161 C3753.0598,1978.039 3753.3048,2713.917 3752.9078,3449.794 C3752.8228,3606.489 3696.9808,3741.252 3585.2868,3851.459 C3503.4208,3932.234 3404.9998,3982.186 3291.4268,4001.997 C3258.4948,4007.741 3225.4028,4009.92101 3192.0458,4009.92101 C3009.5748,4009.828 2827.1038,4009.873 2644.6328,4009.874 C2171.8068,4009.874 1698.9808,4009.85 1226.1538,4009.92101 C1190.1448,4009.92101 1154.3898,4008.177 1118.7798,4002.016 C1033.9828,3987.344 956.5448,3955.158 887.4008,3904.198 C767.3188,3815.693 693.5548,3697.6 666.0698,3550.954 C659.8088,3517.552 657.3528,3483.637 657.3518,3449.603 C657.3458,3301.108 657.3538,3152.613 657.3298,3004.118 C657.3278,2996.222 657.0728,2988.327 656.8928,2977.976" mask="url(#b)"/><path fill="#FFF" d="M3625.665,1287.2672 C3626.192,1293.5382 3626.716,1297.3932 3626.799,1301.2572 C3626.955,1308.5802 3626.89083,1315.9082 3626.89083,1323.2342 C3626.89083,2027.1842 3626.89083,2731.1342 3626.86,3435.0842 C3626.86,3462.3782 3626.941,3489.6132 3622.756,3516.7742 C3605.324,3629.9112 3551.537,3721.9672 3462.342,3793.1812 C3403.344,3840.2862 3335.836,3868.8952 3261.285,3880.1872 C3240.298,3883.3662 3218.869,3884.6652 3197.621,3884.8922 C3139.687,3885.5132 3081.741,3885.0982 3023.8,3885.0952 C2425.077,3885.0682 1826.353,3884.9772 1227.629,3885.1332 C1179.344,3885.1452 1132.053,3879.8042 1085.831,3865.5322 C932.869,3818.3012 816.988,3686.9232 789.435,3529.3042 C785.296,3505.6272 783.468,3481.7452 783.461,3457.7282 C783.415,3303.8842 783.4,3150.0412 783.422,2996.1982 C783.423,2990.9442 783.929,2985.6902 784.248,2979.4922 C788.415,2978.7762 792.152,2977.7282 795.925,2977.5722 C803.239,2977.2672 810.573,2977.4552 817.899,2977.4552 C1488.549,2977.4542 2159.2,2977.4422 2829.851,2977.5152 C2849.228,2977.5172 2868.417,2976.5882 2887.331,2972.0202 C2950.838,2956.6792 3013.847,2899.2762 3016.914,2809.1592 C3017.095,2803.8362 3017.047,2798.5052 3017.047,2793.1772 C3017.053,2474.8352 3017.041,2156.4922 3017.079,1838.1502 C3017.082,1818.0982 3015.868,1798.2182 3010.342,1778.8232 C2988.098,1700.7602 2917.445,1655.2722 2851.584,1654.8142 C2841.595,1654.7442 2831.605,1654.6992 2821.616,1654.6982 C2152.297,1654.6302 1482.979,1654.5712 813.661,1654.4662 C804.466,1654.4642 795.163,1655.3362 785.157,1653.1392 C784.474,1648.8452 783.635,1645.0902 783.341,1641.2932 C783.034,1637.3202 783.238,1633.3072 783.238,1629.3112 C783.237,1274.3392 783.292,919.3672 783.163954,564.3952 C783.163954,524.9182 786.794,486.0272 796.569,447.6852 C837.595,286.7532 972.351,161.4822 1135.99,132.3132 C1162.278,127.6272 1188.695,125.073195 1215.42,125.073195 C1625.003,125.1332 2034.586,125.073195 2444.169,125.1442 C2450.665,125.1442 2457.161,125.6432 2464.477,125.9432 C2465.072,130.2012 2465.799,133.3642 2465.899,136.5462 C2466.108,143.2002 2465.998,149.8642 2465.998,156.5242 C2465.999,466.2092 2465.993,775.8932 2466.018,1085.5782 C2466.02,1103.5482 2466.298,1121.4132 2470.14,1139.2102 C2486.848,1216.6202 2552.163,1275.2722 2626.816,1284.6382 C2640.636,1286.3722 2654.666,1287.1542 2668.599,1287.1602 C2978.284,1287.2992 3287.968,1287.2672 3597.653,1287.2672 L3625.665,1287.2672 Z"/><path fill="#FFF" d="M1364.7759 2587.1664C1367.4329 2588.1854 1368.6399 2589.0504 1369.8489 2589.0534 1415.7639 2589.1724 1461.7489 2590.8374 1507.5779 2588.8724 1572.2489 2586.0994 1623.4889 2542.7754 1637.5919 2481.2254 1640.5279 2468.4134 1641.0139 2454.8324 1641.0609 2441.6004 1641.3559 2357.7414 1641.2159 2273.8804 1641.1959 2190.0204 1641.1949 2184.6984 1641.0819 2179.3724 1640.8729 2174.0544 1638.0979 2103.4184 1578.0569 2043.6504 1505.3979 2042.9564 1462.1409 2042.5424 1418.8769 2042.8044 1375.6169 2042.9214 1371.8699 2042.9314 1368.1269 2044.1374 1364.6789 2044.7364 1362.5169 2065.3944 1362.6309 2571.1624 1364.7759 2587.1664M1237.4349 2316.4664C1237.4349 2209.2814 1237.3879 2102.0974 1237.5179 1994.9124 1237.5289 1985.6414 1237.7699 1976.1894 1239.5189 1967.1344 1244.7159 1940.2184 1265.8949 1921.2194 1293.0419 1918.2124 1297.6599 1917.7004 1302.3399 1917.5674 1306.9919 1917.5654 1372.2349 1917.5334 1437.4779 1917.3754 1502.7199 1917.6154 1567.1269 1917.8524 1624.2829 1938.7284 1673.1359 1980.6084 1725.9059 2025.8474 1756.6889 2083.2784 1764.4509 2152.6184 1765.6339 2163.1834 1766.5519 2173.8434 1766.5729 2184.4604 1766.7389 2272.3384 1766.8849 2360.2174 1766.5839 2448.0944 1766.3839 2506.4084 1749.9759 2559.9084 1714.6429 2606.5524 1661.8869 2676.1964 1591.3129 2712.6614 1503.8549 2714.1104 1437.9639 2715.2014 1372.0409 2714.2974 1306.1319 2714.3924 1296.7349 2714.4054 1287.5109 2713.8814 1278.6699 2710.3654 1258.0529 2702.1644 1244.3599 2687.6214 1239.7609 2665.7684 1237.8639 2656.7554 1237.5399 2647.2834 1237.5279 2638.0194 1237.3829 2530.8354 1237.4359 2423.6504 1237.4349 2316.4664M689.8149 2328.5173C693.9589 2328.9963 697.1539 2329.6813 700.3499 2329.6863 742.9399 2329.7413 785.5369 2330.0663 828.1189 2329.4483 839.9609 2329.2763 851.9949 2327.1863 863.5419 2324.3513 912.1679 2312.4183 963.0009 2267.1183 966.6289 2194.5923 971.4759 2097.7073 894.8259 2040.6783 825.2039 2042.6243 785.3059 2043.7393 745.3509 2042.7763 705.4219 2042.8723 700.3059 2042.8843 695.1919 2043.6463 690.3869 2044.0353 687.9029 2060.4523 687.3709 2304.3743 689.8149 2328.5173M688.9689 2454.6083C688.7419 2464.5713 688.4399 2471.7923 688.4339 2479.0133 688.3929 2533.6033 688.5239 2588.1933 688.2889 2642.7823 688.2519 2651.3453 687.7609 2660.2043 685.5489 2668.4053 677.4879 2698.2993 649.4019 2717.1913 619.0479 2714.0263 589.4309 2710.9373 566.5109 2687.6403 563.7249 2657.4973 563.1139 2650.8863 563.1879 2644.1993 563.1869 2637.5473 563.1619 2423.1823 563.1589 2208.8173 563.1949 1994.4523 563.1959 1987.1373 563.1419 1979.7713 563.9359 1972.5183 567.1499 1943.1473 589.3219 1921.2943 618.8589 1918.1783 624.1399 1917.6213 629.4899 1917.5573 634.8089 1917.5543 698.0529 1917.5203 761.2979 1917.6943 824.5419 1917.49675 878.6249 1917.3293 928.7559 1930.9853 973.3749 1961.6283 1050.0809 2014.3083 1089.9359 2087.7823 1091.8079 2180.8053 1093.5479 2267.2963 1061.1369 2339.2163 994.5059 2394.6803 947.3219 2433.9563 892.2629 2453.5443 830.9069 2454.4593 790.3059 2455.0643 749.6889 2454.5963 709.0799 2454.6083 703.1849 2454.6103 697.2899 2454.6083 688.9689 2454.6083M2052.5168 2042.681C2049.8788 2060.284 2049.3548 2189.882 2051.4898 2212.818 2057.0628 2217.591 2063.9978 2215.657 2070.3878 2215.678 2127.6598 2215.871 2184.9318 2215.855 2242.2038 2215.9 2272.1718 2215.924 2302.1418 2215.791 2332.1068 2216.08 2340.0378 2216.157 2348.1418 2216.714 2355.8458 2218.463 2384.4628 2224.958 2403.6598 2249.957 2403.4018 2279.496 2403.1458 2308.877 2383.3618 2333.524 2354.5008 2339.425 2346.1108 2341.14 2337.3298 2341.514 2328.7258 2341.529 2244.1508 2341.677 2159.5738 2341.607 2074.9968 2341.644 2067.7638 2341.647 2060.5308 2341.973 2054.1028 2342.13 2048.7898 2348.246 2050.3908 2354.486 2050.3748 2360.242 2050.2378 2412.852 2050.2918 2465.463 2050.2898 2518.074 2050.2888 2559.363 2050.3988 2600.653 2050.1878 2641.941 2050.1478 2649.875 2049.6518 2657.977 2047.9838 2665.703 2041.7878 2694.41 2016.8288 2714.261 1987.6758 2714.3503 1958.5018 2714.439 1933.2018 2694.748 1927.0048 2666.168 1925.0528 2657.168 1924.6748 2647.69 1924.6618 2638.429 1924.5058 2533.874 1924.5618 2429.319 1924.5618 2324.763 1924.5618 2214.215 1924.5208 2103.666 1924.6458 1993.117 1924.6558 1984.511 1924.9588 1975.731 1926.6288 1967.331 1932.1648 1939.489 1953.6688 1920.602 1982.0268 1918.022 1987.9798 1917.48 1993.9998 1917.546 1999.9888 1917.545 2126.5198 1917.52715 2253.0518 1917.52715 2379.5838 1917.52715 2384.2438 1917.52715 2388.9048 1917.64 2393.5648 1917.724 2424.2968 1918.273 2453.6868 1943.129 2453.44925 1980.226 2453.2118 2016.752 2425.5588 2040.607 2393.0268 2042.518 2387.0518 2042.868 2381.0428 2042.675 2375.0498 2042.675 2275.1568 2042.682 2175.2628 2042.681 2075.3698 2042.681 2068.1218 2042.681 2060.8738 2042.681 2052.5168 2042.681"/><path fill="#000" d="M1364.7759 2587.1664C1362.6309 2571.1624 1362.5169 2065.3944 1364.6789 2044.7364 1368.1269 2044.1374 1371.8699 2042.9314 1375.6169 2042.9214 1418.8769 2042.8044 1462.1409 2042.5424 1505.3979 2042.9564 1578.0569 2043.6504 1638.0979 2103.4184 1640.8729 2174.0544 1641.0819 2179.3724 1641.1949 2184.6984 1641.1959 2190.0204 1641.2159 2273.8804 1641.3559 2357.7414 1641.0609 2441.6004 1641.0139 2454.8324 1640.5279 2468.4134 1637.5919 2481.2254 1623.4889 2542.7754 1572.2489 2586.0994 1507.5779 2588.8724 1461.7489 2590.8374 1415.7639 2589.1724 1369.8489 2589.0534 1368.6399 2589.0504 1367.4329 2588.1854 1364.7759 2587.1664M689.8149 2328.5173C687.3709 2304.3743 687.9029 2060.4523 690.3869 2044.0353 695.1919 2043.6463 700.3059 2042.8843 705.4219 2042.8723 745.3509 2042.7763 785.3059 2043.7393 825.2039 2042.6243 894.8259 2040.6783 971.4759 2097.7073 966.6289 2194.5923 963.0009 2267.1183 912.1679 2312.4183 863.5419 2324.3513 851.9949 2327.1863 839.9609 2329.2763 828.1189 2329.4483 785.5369 2330.0663 742.9399 2329.7413 700.3499 2329.6863 697.1539 2329.6813 693.9589 2328.9963 689.8149 2328.5173"/></g></svg>