<svg xmlns="http://www.w3.org/2000/svg" width="1166" height="1024" viewBox="0 0 1166 1024"><g fill="none" fill-rule="evenodd"><path fill="#000" stroke="#FFF" stroke-width="50" d="M467.287919,26.9836256 C491.064023,24.8328484 514.895188,24.3823286 538.714282,25.871548 C641.898451,32.3238631 734.196426,67.4954277 814.990246,132.006906 C881.58615,185.181667 930.765302,251.583651 962.87633,330.558633 C969.135779,345.953256 974.514774,361.619333 979.071427,377.535199 L979.497,379.035 L979.42308,379.028339 C978.447395,378.937444 977.471145,378.852419 976.49429,378.773274 L975.274,378.677 L974.585786,376.308962 C949.232071,289.921526 903.180198,216.223275 836.598309,155.32219 L834.510942,153.423197 C778.130298,102.406439 713.057912,66.9399009 639.768222,46.6367412 C618.929189,40.8635994 597.762841,36.6549539 576.322168,33.7746492 C550.393807,30.2909383 524.352222,28.8093303 498.225283,29.676805 C394.122301,33.1331339 300.472019,66.3098159 217.865438,129.751947 C151.216684,180.937933 101.393087,245.457479 68.1359559,322.669914 C53.2853655,357.147752 42.8487823,392.947081 36.4624227,429.949473 C30.6555561,463.593084 28.3352211,497.486461 29.9298834,531.547861 C35.2729159,645.670025 75.593292,745.908736 151.114719,831.595749 C207.483027,895.551348 276.435617,941.105786 357.133398,968.737405 C385.004592,978.280728 413.564564,984.998734 442.728676,989.22387 C471.383758,993.375217 500.179454,994.931618 529.0874,993.880374 C591.184026,991.622066 650.669468,977.870746 707.47958,952.663986 C743.542036,936.662767 777.106505,916.602251 808.246247,892.620851 L808.928,892.093 L810.553846,893.021289 C811.196526,893.386769 811.839319,893.750583 812.482552,894.112388 L812.622,894.19 L812.345719,894.411392 C766.207811,931.125225 714.668649,958.437335 657.770859,976.4006 L655.711979,977.045803 C631.9263,984.444119 607.683027,989.844087 583.032986,993.470456 C564.179025,996.244179 545.220731,997.725731 526.196712,998.562284 C524.685687,998.628829 523.176858,998.797861 521.671909,999.031348 L521.881,999 L501.876,999 L501.627933,998.966099 C500.787457,998.853417 499.946168,998.751232 499.103551,998.671775 L498.260472,998.600347 C493.578347,998.250837 488.891047,997.948733 484.203758,997.647068 C474.844385,997.044717 465.484361,996.451144 456.172362,995.420806 C420.685997,991.494117 386.057986,983.580842 352.367631,971.723628 C273.539698,943.980561 206.122514,899.016231 150.161522,837.004923 C103.979656,785.83037 70.2156777,727.380284 48.761353,661.848362 C40.5414498,636.740417 34.5015635,611.108648 30.5295208,584.998429 C25.7719576,553.72529 24.061727,522.26422 25.4871444,490.667889 C28.6837818,419.814806 46.1404501,352.646615 78.9092283,289.71839 C126.966977,197.42939 197.286627,127.115032 289.472432,78.8279262 C328.253236,58.514145 369.218152,44.1509693 412.085423,35.2084536 C430.331827,31.401862 448.733927,28.6621007 467.287919,26.9836256 Z"/><path fill="#000" stroke="#FFF" stroke-width="66" d="M919.469995,670.507247 C918.461623,669.370022 917.783071,668.521536 917.019995,667.757279 C907.494553,658.214695 898.007825,648.6331 888.405839,639.167947 C880.977229,631.84573 871.990549,629.205996 861.842411,631.501725 C851.388096,633.86661 844.352846,640.408019 841.338371,650.666983 C838.241147,661.208186 840.476882,670.86662 848.250679,678.740899 C865.53721,696.250856 882.963531,713.623685 900.436841,730.947749 C908.481645,738.923693 918.279868,740.810104 929.079961,738.264942 C934.233234,737.050286 938.267014,733.954244 941.941126,730.27629 C966.35482,705.83718 990.78802,681.417575 1015.21472,656.991468 C1024.74843,647.457751 1034.27122,637.912507 1043.82149,628.394748 C1047.64514,624.583803 1049.92491,620.014806 1050.85437,614.721744 C1052.30014,606.490456 1050.52692,598.859403 1046.38261,591.75943 C1040.65038,581.939042 1031.6368,578.294779 1020.71347,578.896196 C1013.43677,579.296648 1007.40575,582.564989 1002.25662,587.728901 C975.641174,614.420296 948.967215,641.052584 922.312762,667.704673 C921.491761,668.525674 920.65953,669.335444 919.469995,670.507247 L919.469995,670.507247 Z"/><path fill="#000" stroke="#FFF" stroke-width="33" d="M1149.44393,661.266406 C1149.28493,662.315562 1149.02102,663.360579 1148.98201,664.414463 C1147.52856,703.715226 1135.00962,739.29341 1111.9882,770.982035 C1081.90818,812.387314 1041.47877,838.272781 991.432289,848.943133 C972.256096,853.029783 952.836086,853.910513 933.283379,852.210882 C869.924452,846.704147 813.107526,811.250089 780.463431,756.690472 C766.960064,734.121518 758.360242,709.802986 754.659236,683.748177 C745.737871,620.938653 766.828846,556.629576 814.303858,511.703272 C843.320536,484.244368 877.598949,467.034972 917.003445,460.303533 C1023.3139,442.142804 1119.34293,510.453152 1143.61063,608.67595 C1146.68539,621.12159 1148.81266,633.710566 1148.97728,646.575869 C1148.98969,647.536068 1149.28198,648.49272 1149.44393,649.45085 L1149.44393,661.266406 Z"/><path fill="#000" stroke="#FFF" stroke-linecap="round" stroke-width="33" d="M424.561079,378.74466 C419.397166,377.786825 414.475594,376.864455 409.550475,375.961591 C387.299814,371.882889 365.048857,367.803596 342.796128,363.735829 C320.736679,359.703527 298.67457,355.686592 276.614235,351.660496 C264.616332,349.470865 252.603948,347.357778 240.625846,345.065004 C219.841934,341.086785 206.374032,319.376365 212.493119,299.44744 C215.916616,288.297136 223.891082,281.318629 234.601036,277.292533 C241.738247,274.609651 249.003129,274.855537 256.409278,276.243377 C279.803371,280.627664 303.230564,284.836106 326.644161,289.116364 C348.703315,293.148962 370.767197,297.15703 392.818666,301.231004 C411.785324,304.734886 430.817886,307.758227 449.997034,309.87752 C474.00407,312.529962 498.068439,313.752893 522.21615,313.301017 C537.380729,313.017006 552.495361,311.965191 567.593443,310.517062 C593.089688,308.071496 618.26498,303.624851 643.393873,298.815582 C665.901356,294.50784 688.439278,290.360573 710.963311,286.139719 C730.490306,282.480088 750.033555,278.903798 769.536612,275.119156 C779.917042,273.104778 789.4481,274.685899 798.263368,280.623231 C815.499068,292.231912 820.336116,320.259724 799.643229,335.897456 C793.18723,340.776176 785.87979,343.251591 777.988961,344.615493 C756.279428,348.367331 734.603881,352.317474 712.91474,356.187231 C693.742684,359.608364 674.570924,363.028905 655.397982,366.445901 C637.580962,369.621442 619.76276,372.789891 601.947809,375.975481 C601.388949,376.075668 600.85787,376.331011 600.262068,376.531385 C600.201187,377.298007 600.115777,377.973013 600.098932,378.650088 C599.652376,396.759984 599.213504,414.870177 598.771676,432.980369 C598.286996,452.862303 597.614059,472.741578 597.373197,492.626468 C597.174005,509.067765 597.97491,525.490738 599.22237,541.896275 C602.463225,584.512959 610.513053,626.265199 620.960275,667.649496 C635.331041,724.576954 649.374058,781.587457 663.391363,838.60328 C666.413816,850.897606 664.499625,862.711389 656.451275,872.684274 C646.614632,884.873093 633.630228,890.428296 617.985107,887.265463 C602.541838,884.143709 592.327499,874.561819 588.252639,859.339611 C582.226351,836.826218 576.749761,814.165647 571.047676,791.565366 C554.253509,725.0043 537.46407,658.442051 520.669903,591.880689 C520.477508,591.118204 520.285705,590.351582 520.026224,589.610672 C518.647249,585.67501 515.369157,583.289733 511.338332,583.259884 C507.152646,583.229148 503.733582,585.583098 502.467798,589.710268 C501.373722,593.278282 500.557154,596.933184 499.658722,600.559715 C478.370329,686.474887 457.141042,772.404541 435.75453,858.295184 C431.951269,873.569702 422.268896,883.686218 406.908377,887.719703 C389.656128,892.249689 365.466746,883.841079 360.167183,858.095106 C358.817762,851.539216 358.974101,844.98303 360.636495,838.487134 C368.828181,806.473714 377.034643,774.463841 385.226033,742.450421 C393.100608,711.675595 401.073301,680.925299 408.790355,650.110872 C413.620311,630.825035 417.097891,611.261689 419.961641,591.585152 C425.232538,555.372156 427.680173,518.961151 427.243961,482.388191 C426.935125,456.498882 426.013937,430.616962 425.363756,404.731791 C425.168702,396.956516 424.970101,389.180946 424.762635,381.405967 C424.741652,380.628706 424.647375,379.852922 424.561079,378.74466"/><path fill="#000" stroke="#FFF" stroke-linecap="round" stroke-width="33" d="M433.263375,212.900173 C433.310117,169.386239 468.52745,134.254021 512.026607,134.32661 C555.440059,134.399129 590.587941,169.730835 590.522423,213.233243 C590.457018,256.652605 555.107285,291.724239 511.545178,291.589861 C468.133204,291.455005 433.216727,256.356773 433.263375,212.900173"/><path fill="#FFF" d="M919.469995,670.507247 C920.65953,669.335444 921.491761,668.525674 922.312762,667.704673 C948.967215,641.052584 975.641174,614.420296 1002.25662,587.728901 C1007.40575,582.564989 1013.43677,579.296648 1020.71347,578.896196 C1031.6368,578.294779 1040.65038,581.939042 1046.38261,591.75943 C1050.52692,598.859403 1052.30014,606.490456 1050.85437,614.721744 C1049.92491,620.014806 1047.64514,624.583803 1043.82149,628.394748 C1034.27122,637.912507 1024.74843,647.457751 1015.21472,656.991468 C990.78802,681.417575 966.35482,705.83718 941.941126,730.27629 C938.267014,733.954244 934.233234,737.050286 929.079961,738.264942 C918.279868,740.810104 908.481645,738.923693 900.436841,730.947749 C882.963531,713.623685 865.53721,696.250856 848.250679,678.740899 C840.476882,670.86662 838.241147,661.208186 841.338371,650.666983 C844.352846,640.408019 851.388096,633.86661 861.842411,631.501725 C871.990549,629.205996 880.977229,631.84573 888.405839,639.167947 C898.007825,648.6331 907.494553,658.214695 917.019995,667.757279 C917.783071,668.521536 918.461623,669.370022 919.469995,670.507247"/></g></svg>