<svg height="124" viewBox="0 0 740 124" width="740" xmlns="http://www.w3.org/2000/svg"><path d="m37.8322754 94.6034851 23.4552002-91.52340698h12.3304443l-1.355133 23.61984258-25.1484833 94.3957823h-12.8142395zm-17.6243286-91.52340698 19.0896454 90.79518128 1.6616211 27.2204436h-13.6564484l-27.3027649-118.01562488zm80.1212922 90.53555298 18.773025-90.53555298h20.229477l-27.250839 118.01562488h-13.6273192zm-21.9126283-90.53555298 23.2525633 91.76150518 3.443558 26.2541197h-12.8142396l-24.793869-94.4553069-1.2867432-23.56031798zm93.6935993 30.31445308v87.7011718h-19.60257v-87.7011718zm-20.915909-23.0245971c0-2.96778363.986165-5.43805188 2.958496-7.41080477s4.705393-2.95912933 8.199188-2.95912933c3.459178 0 6.192029.98637644 8.198555 2.95912933s3.009789 4.44302114 3.009789 7.41080477c0 2.8993937-1.003263 5.3270238-3.009789 7.2828903s-4.739377 2.9337997-8.198555 2.9337997c-3.493795 0-6.226857-.9779332-8.199188-2.9337997s-2.958496-4.3834966-2.958496-7.2828903zm90.249022 86.9564819c0-1.9233602-.48274-3.6780675-1.448219-5.264122-.96548-1.5860545-2.819184-3.0399729-5.561112-4.3617554-2.741928-1.3217824-6.765744-2.5200831-12.071449-3.594902-4.644603-.9870097-8.895963-2.20283-12.754082-3.6474609-3.858119-1.444631-7.166585-3.1965943-9.9254-5.2558899-2.758814-2.0592957-4.89241-4.4894588-6.400787-7.2904892-1.508377-2.8010305-2.262566-6.0514501-2.262566-9.7512589 0-3.5571187.779941-6.9204661 2.339821-10.0900421 1.559881-3.169576 3.807882-5.9777832 6.744004-8.4246216 2.936121-2.4468384 6.492818-4.3706207 10.670089-5.771347 4.177272-1.4007263 8.873589-2.1010895 14.088951-2.1010895 7.342204 0 13.637874 1.2278519 18.887009 3.6835556s9.282028 5.7804235 12.098679 9.9741592c2.81665 4.1937358 4.224975 8.9122162 4.224975 14.1554413h-19.521515c0-2.3522745-.586802-4.5426508-1.760406-6.5711288s-2.921346-3.6751124-5.243225-4.9399033c-2.321879-1.2647908-5.227183-1.8971863-8.715912-1.8971863-3.32662 0-6.084801.530655-8.274544 1.5919648s-3.820757 2.4356511-4.893043 4.123024c-1.072286 1.6873728-1.608429 3.5222905-1.608429 5.5047531 0 1.4623616.283691 2.7689463.851074 3.919754s1.530963 2.2034632 2.890739 3.1579666c1.359777.9545034 3.214536 1.8363953 5.564278 2.6456757s5.300217 1.5938644 8.851425 2.3537521c6.710653 1.4226786 12.478834 3.2191798 17.304543 5.3895035s8.547048 4.9730428 11.164016 8.4081573c2.616969 3.4351146 3.925454 7.781039 3.925454 13.0377732 0 3.8568525-.831866 7.3941295-2.495598 10.6118315s-4.059489 6.00459-7.187271 8.360664c-3.127783 2.356075-6.862842 4.184027-11.205178 5.483857s-9.219126 1.949745-14.630371 1.949745c-7.965311 0-14.702349-1.422679-20.211113-4.268036-5.508763-2.845357-9.675692-6.49113-12.500786-10.937317-2.825093-4.446187-4.23764-9.0713704-4.23764-13.8755492h18.887009c.176463 3.5908915 1.171704 6.4645332 2.985725 8.6209262 1.814021 2.156392 4.089673 3.699808 6.826958 4.630249 2.737284.93044 5.576309 1.39566 8.517074 1.39566 3.511526 0 6.45018-.470919 8.815964-1.412758 2.365784-.941838 4.16904-2.234281 5.409767-3.877327 1.240728-1.643046 1.861092-3.5317889 1.861092-5.666229zm73.657072 25.390381c-6.483531 0-12.321579-1.069964-17.514145-3.209892-5.192566-2.139929-9.618067-5.130931-13.276504-8.973008-3.658437-3.842076-6.45799-8.346944-8.398659-13.5146023-1.940669-5.1676584-2.911003-10.7521998-2.911003-16.7536239v-3.2852478c0-6.8744507.993975-13.0882213 2.981926-18.6413117 1.98795-5.5530904 4.772306-10.3146311 8.353065-14.2846222 3.58076-3.969991 7.79687-7.0093307 12.648331-9.1180191 4.851461-2.1086883 10.12297-3.1630325 15.814529-3.1630325 6.247966 0 11.719579 1.0509669 16.414841 3.1529007s8.59623 5.0597966 11.702904 8.8735886c3.106674 3.8137919 5.436785 8.3429336 6.990333 13.5874252 1.553549 5.2444916 2.330323 11.0261815 2.330323 17.3450699v8.335968h-67.755387v-14.0262604h48.473236v-1.4919128c-.11736-3.5334778-.805481-6.8396225-2.064361-9.9184342-1.258881-3.0788116-3.195539-5.5689214-5.809975-7.4703293-2.614436-1.9014078-6.071714-2.8521118-10.371834-2.8521118-3.245564 0-6.126594.6912868-8.643089 2.0738602s-4.617795 3.3745346-6.303902 5.9758835c-1.686106 2.6013489-2.967572 5.7198435-3.844398 9.355484s-1.315239 7.7242584-1.315239 12.2658539v3.2852478c0 3.8230794.531288 7.3747101 1.593864 10.6548919 1.062577 3.2801819 2.615914 6.1344045 4.660012 8.5626679 2.044097 2.4282634 4.52492 4.3267164 7.442466 5.6953584 2.917547 1.368642 6.241 2.052963 9.97036 2.052963 4.719747 0 8.906939-.941627 12.561577-2.824882s6.830335-4.56587 9.527092-8.0478443l10.299011 9.9836583c-1.851593 2.744883-4.300964 5.374516-7.348114 7.8889-3.047149 2.514384-6.746325 4.557216-11.097526 6.128495-4.351202 1.571278-9.38778 2.356918-15.109734 2.356918zm68.654394-72.6250001v71.0039061h-19.521515v-87.7011718h18.60965zm26.860764-17.2431183-.2305 18.1397858c-1.182891-.2102356-2.462247-.3708675-3.838066-.4818955s-2.736651-.166542-4.082496-.166542c-3.358704 0-6.29757.4757741-8.816597 1.4273223-2.519028.9515483-4.632571 2.305837-6.34063 4.0628663-1.708059 1.7570292-3.019498 3.8785934-3.934318 6.3646926-.914821 2.4860993-1.464684 5.2636999-1.64959 8.3328019l-4.483337.3470153c0-5.5134073.546697-10.6285069 1.640091-15.3452987 1.093393-4.7167918 2.737917-8.8619792 4.93357-12.4355622 2.195654-3.5735829 4.944758-6.3537165 8.247315-8.3404007 3.302556-1.9866841 7.162575-2.9800262 11.580055-2.9800262 1.179515 0 2.45697.1065954 3.832367.3197861s2.422775.465009 3.142136.755455zm147.040772 26.0172882v6.4742432c0 8.9210815-1.162417 16.9188995-3.487251 23.9934539-2.324834 7.0745545-5.647021 13.0951871-9.96656 18.0618971-4.31954 4.966711-9.46799 8.761928-15.445351 11.385651s-12.629122 3.935585-19.955284 3.935585c-7.208801 0-13.806948-1.311862-19.794441-3.935585s-11.171616-6.41894-15.552368-11.385651c-4.380753-4.96671-7.767741-10.9873426-10.160965-18.0618971-2.393225-7.0745544-3.589837-15.0723724-3.589837-23.9934539v-6.4742432c0-8.9219259 1.187958-16.9163666 3.563874-23.9833221 2.375915-7.0669556 5.735885-13.0924429 10.07991-18.0764618 4.344025-4.984019 9.509783-8.78789016 15.497276-11.4116135 5.987493-2.62372335 12.58564-3.93558502 19.794442-3.93558502 7.326161 0 13.982989 1.31186167 19.970481 3.93558502 5.987493 2.62372334 11.149453 6.4275945 15.485878 11.4116135 4.336426 4.9840189 7.680565 11.0095062 10.032418 18.0764618 2.351852 7.0669555 3.527778 15.0613962 3.527778 23.9833221zm-20.394119 6.4742432v-6.6363526c0-6.5882263-.636617-12.4104436-1.909851-17.4666519s-3.138969-9.3025029-5.597206-12.738884c-2.458237-3.436381-5.464648-6.0356191-9.019234-7.7977142s-7.586634-2.6431427-12.096145-2.6431427c-4.466451 0-8.455018.8810476-11.965699 2.6431427s-6.493662 4.3613332-8.948944 7.7977142c-2.455281 3.4363811-4.335159 7.6826757-5.639633 12.738884s-1.956711 10.8784256-1.956711 17.4666519v6.6363526c0 6.6025797.652237 12.4404169 1.956711 17.5135116s3.206515 9.3461965 5.706123 12.8193054c2.499609 3.473109 5.509608 6.095777 9.029999 7.868004s7.513812 2.65834 11.980263 2.65834c4.543284 0 8.578921-.886113 12.106911-2.65834 3.527989-1.772227 6.507382-4.394895 8.938179-7.868004 2.430796-3.4731089 4.274368-7.7462107 5.530716-12.8193054 1.256347-5.0730947 1.884521-10.9109319 1.884521-17.5135116zm56.76368-13.2220459v68.9775389h-19.521515v-87.7011718h18.384217zm-3.447357 21.92276-6.300735-.0937195c.034617-6.2564087.896667-11.967598 2.586151-17.1335678 1.689483-5.1659699 4.07152-9.6203893 7.14611-13.3632584 3.07459-3.742869 6.746959-6.6247431 11.017105-8.6456222 4.270147-2.0208791 9.013324-3.0313187 14.229531-3.0313187 4.224131 0 8.050377.5859578 11.478737 1.7578735s6.371869 3.0475719 8.830528 5.6269684c2.458659 2.5793966 4.341492 5.9414775 5.648498 10.0862427 1.307007 4.1447652 1.960511 9.2170156 1.960511 15.2167511v56.6344298h-19.631699v-56.7661437c0-4.1962687-.60601-7.517189-1.818031-9.9627609s-2.976016-4.1990128-5.291985-5.2603226-5.156682-1.5919647-8.52214-1.5919647c-3.391632 0-6.410497.6942419-9.056595 2.0827255-2.646098 1.3884837-4.87468 3.306778-6.685745 5.7548828-1.811066 2.4481049-3.195539 5.2681326-4.15342 8.4600831-.957881 3.1919504-1.436821 6.6015243-1.436821 10.2287216zm113.9012 48.6758729c-6.483531 0-12.321579-1.069964-17.514145-3.209892-5.192566-2.139929-9.618068-5.130931-13.276505-8.973008-3.658437-3.842076-6.45799-8.346944-8.398659-13.5146023-1.940668-5.1676584-2.911003-10.7521998-2.911003-16.7536239v-3.2852478c0-6.8744507.993976-13.0882213 2.981926-18.6413117 1.987951-5.5530904 4.772306-10.3146311 8.353066-14.2846222 3.580759-3.969991 7.79687-7.0093307 12.64833-9.1180191 4.851461-2.1086883 10.122971-3.1630325 15.81453-3.1630325 6.247965 0 11.719579 1.0509669 16.414841 3.1529007 4.695261 2.1019338 8.596229 5.0597966 11.702903 8.8735886 3.106675 3.8137919 5.436786 8.3429336 6.990334 13.5874252s2.330322 11.0261815 2.330322 17.3450699v8.335968h-67.755386v-14.0262604h48.473236v-1.4919128c-.117361-3.5334778-.805481-6.8396225-2.064362-9.9184342-1.25888-3.0788116-3.195539-5.5689214-5.809974-7.4703293-2.614436-1.9014078-6.071714-2.8521118-10.371834-2.8521118-3.245565 0-6.126595.6912868-8.643089 2.0738602-2.516495 1.3825734-4.617796 3.3745346-6.303902 5.9758835-1.686107 2.6013489-2.967573 5.7198435-3.844399 9.355484s-1.315239 7.7242584-1.315239 12.2658539v3.2852478c0 3.8230794.531289 7.3747101 1.593865 10.6548919 1.062576 3.2801819 2.615913 6.1344045 4.660011 8.5626679s4.52492 4.3267164 7.442467 5.6953584c2.917546 1.368642 6.241 2.052963 9.97036 2.052963 4.719747 0 8.906939-.941627 12.561577-2.824882 3.654637-1.883255 6.830334-4.56587 9.527091-8.0478443l10.299012 9.9836583c-1.851593 2.744883-4.300965 5.374516-7.348114 7.8889-3.04715 2.514384-6.746325 4.557216-11.097527 6.128495-4.351201 1.571278-9.387779 2.356918-15.109733 2.356918z" fill="#d4666a" transform="translate(.042 .424)"/></svg>