<svg height="4096" viewBox="0 0 4096 4096" width="4096" xmlns="http://www.w3.org/2000/svg" xmlns:xlink="http://www.w3.org/1999/xlink"><mask id="a" fill="#fff"><path d="m0 0h654.544v1690.515h-654.544z" fill="#fff" fill-rule="evenodd"/></mask><mask id="b" fill="#fff"><path d="m0 0h376.603v118.612h-376.603z" fill="#fff" fill-rule="evenodd"/></mask><g fill="none" fill-rule="evenodd"><circle cx="2048" cy="2048" fill="#fff" r="2048"/><g transform="translate(847.269 467.817)"><path d="m57.976635 1231.27059c1.2579087-11.88255 3.596995-23.76511 3.6021929-35.64767.1039594-144.3736.686132-288.752406-.6497462-433.110416-.6601421-70.780752 21.1505381-133.520244 59.0021523-191.893442-.109157 269.681056.389848 539.367308-.748508 809.043168-.30668 72.68841 14.980549 140.70903 50.124021 203.69803 23.817096 42.68053 48.07602 85.90164 91.671391 112.92589 27.440081 41.10034 67.979045 67.09539 111.745949 84.44101 103.886619 41.17312 209.847228 77.00792 316.161299 111.55363 1.299493 1.06558 2.448244 2.59898 3.950457 3.12918 161.745218 57.26083 323.563207 114.29815 485.199267 171.85007 15.84861 5.64499 29.86234 3.38387 44.93645-1.89206 90.35111-31.60886 181.10765-62.07935 271.23525-94.31196 64.06497-22.91265 129.59577-41.85405 191.85705-69.74116 2.573-.09876 5.35911.41584 7.693-.38465 102.78465-35.3254 205.76162-70.11021 308.18241-106.45962 50.11883-17.79264 94.7434-45.40426 131.46185-84.64893 63.78948-58.47716 111.70437-127.36065 132.19996-212.25389 18.1773-75.31858 13.67066-152.0562 12.78181-229.05892-2.69255-233.59675-.87326-467.245484-.81608-700.873423 37.24345 59.615513 61.12292 123.139899 60.86822 194.741929-.52499 145.350823-.11435 290.706844-.05198 436.057664.0052 12.84418-1.48142 26.00024 6.669 37.42018-8.44151 7.57864-5.31233 17.6783-5.3851 26.80593-.31708 37.95558-.7693 75.92155-.06238 113.86672 1.70494 91.86372-23.05299 176.72057-66.05579 257.06039-10.11005 18.88422-26.31212 34.07269-32.88236 55.02571-8.47789 9.7254-17.1377 19.30006-25.40248 29.20219-16.31642 19.54956-34.34298 36.92637-36.48454 65.82189-3.18116 42.88844-11.65905 85.35585-16.18648 128.18193-3.50343 33.13705-15.47436 59.3816-41.63574 82.13831-76.21263 66.2949-150.40325 134.9133-225.21242 202.80918-10.81178 9.81376-23.053 19.00377-28.30295 33.2618-18.1617 49.31834-38.09592 98.03371-51.83935 148.89064-29.97669 89.16078-59.42319 178.49828-90.07561 267.41994-29.20219 84.72691-53.78859 171.03399-87.20114 254.30547-2.8017-12.60508-4.24674-25.71436-8.64942-37.73726-15.82782-43.18473-20.65153-84.27988-4.26234-130.54181 58.01974-163.78802 112.08382-328.97949 167.52017-493.68236 4.17916-12.42314 8.51427-24.87228 17.89141-34.17665 62.64073-62.1885 121.31541-128.7485 189.14891-185.21405 62.4588-51.99009 100.45076-112.34371 91.25556-196.74834-13.01572 5.6294-26.97227 12.12686-41.26149 17.77186-94.09364 37.16548-190.7239 67.14217-286.13263 100.5859-177.75496 62.31326-355.60869 124.33544-533.27529 186.8878-21.39484 7.53186-40.75208 7.97369-62.61993-.56138-54.73462-21.35846-110.48285-40.11793-165.86201-59.81303-191.384045-68.06222-382.721304-136.24918-574.224898-203.96833-40.117929-14.18526-80.474965-27.6376-120.16666-49.90051-1.834883 32.45093 6.320731 58.27964 9.590254 84.69052 3.446254 27.85072 15.458761 49.77576 35.886781 69.51765 71.591635 69.18497 141.44195 140.16844 212.888041 209.50416 24.674761 23.94185 42.950822 49.80174 53.975716 83.29746 54.344771 165.07712 110.721949 329.4837 166.558538 494.06701 6.632609 19.55476 6.871716 39.26546 1.824487 58.75784-7.147208 27.58563-15.708264 54.8022-23.666355 82.1747-1.439838-2.11037-3.446254-4.03362-4.236345-6.36231-71.550051-212.04597-143.167675-424.06075-214.249909-636.26266-8.52467-25.45446-22.283695-46.04881-42.399838-63.7375-69.564426-61.16971-136.924913-124.96959-208.313827-183.89897-35.949157-29.67521-56.210843-63.55037-60.067736-108.93385-1.091574-12.87017-4.189563-25.55841-6.107614-38.37141-10.208812-68.17657-19.040163-136.90932-77.501726-184.84499-4.14798-15.30282-14.367188-27.34132-22.091371-40.69491-35.4137662-61.19049-63.5919591-125.09953-66.1753499-196.91468-2.042802-57.00613-.8472691-114.13181-1.2942944-171.20032-.0831675-11.13925 1.2994924-22.59557-4.3299087-33.06429" fill="#da131b"/><path d="m1403.43103 15.9390538c87.27391 6.9756751 171.2575 29.2073909 253.66611 57.182863 112.07342 38.0491372 218.27314 88.2563252 313.5883 159.5360812 2.35468 194.445645-3.27472 388.823716-5.42668 583.227777-1.06558 95.933726 4.07001 191.649135 5.71257 287.468505.96163 56.11728-22.87106 93.12682-72.06465 117.30778-51.05965 25.0958-103.80865 46.81811-152.8151 76.05669-7.38112 4.40268-15.18847 8.46229-24.3369 7.82814-.0052-11.21202-1.60097-22.69953.23391-33.59967 18.05775-107.10936 28.47968-215.20634 34.19744-323.396877 5.99846-113.658802 12.77661-227.811411.42624-341.511797-4.25714-39.197888-4.07521-79.185868-15.38599-117.536487-13.08329-81.836833-38.9172-158.517279-90.82932-224.635452-6.44029-8.207594-13.79542-15.365198-23.65596-19.518376-70.82234-29.857137-143.78104-52.203208-220.09763-62.77068-1.12276-.899248-2.048-1.975228-2.76532-3.222741.72252-19.934213 2.74973-39.889218-1.07598-59.740264.20792-34.2286292.42104-68.4520607.62896-102.6754922" fill="#5e1b29"/><path d="m1722.26772 1762.4142c57.10489-9.2212 114.1838-18.60873 171.33028-27.55964 19.51837-3.0564 34.85758-10.4999 47.76414-27.05543 29.76357-38.17909 61.47638-74.87155 93.13722-111.52763 10.85336-12.56869 16.1085-25.59481 15.32361-42.34786-1.09157-23.32849-.23391-46.74534-.2599-70.12581-.04678-33.25661-1.024-34.20264-31.10985-22.91265-68.01543 25.51683-135.84373 51.53267-203.85397 77.0547-32.31577 12.12167-64.87585 23.58319-97.33717 35.35139 3.95045-67.3137 18.54115-133.76974 16.31642-201.59285 4.8757-3.40467 9.41353-7.50587 14.68427-10.11005 59.69868-29.4465 120.10948-57.50514 179.12203-88.24593 66.27411-34.51452 102.87821-85.00759 101.99456-165.56573-2.91087-265.870939-1.19554-531.788665-1.00841-797.690797.0104-10.021686-3.53462-20.828264 3.72175-30.085848 38.06473 24.778721 68.24414 58.425178 100.67427 89.524629-.19232 5.187574-.5198 10.380346-.52499 15.567919-.2755 434.700995-.54059 869.401987-.70173 1304.102987-.0052 6.87171 1.21113 13.74863 1.86087 20.62554-36.71845 39.24467-81.34302 66.85629-131.46185 84.64894-102.42079 36.35459-205.39776 71.13941-308.18241 106.45961-2.33389.80049-5.12.28589-7.70859.39505-2.26112-9.94372 2.37547-18.40602 5.42148-27.38811 12.42315-36.56771 27.58043-72.40771 30.79797-111.52243" fill="#fff"/><path d="m2032.09426 279.999545c-7.25637 9.257584-3.71655 20.064163-3.72175 30.085848-.18713 265.902132-1.90766 531.819858 1.00841 797.690797.88365 80.55814-35.72565 131.05121-101.99456 165.56573-59.01775 30.74079-119.42855 58.80463-179.12203 88.24593-5.27594 2.60418-9.80857 6.70538-14.71546 10.11525-10.15163-.2547-17.88621 5.91009-26.3485 9.9853-159.41653 76.70124-318.93702 153.19456-478.01568 230.60272-19.79906 9.63703-35.81921 9.90213-55.78461-.12995-94.90453-47.67578-190.427611-94.12483-286.049459-140.34518-90.148386-43.57977-180.697015-86.33827-271.068914-129.45543-43.948832-21.74311-87.965238-43.35107-131.825705-65.2761-23.354478-11.67464-44.369868-26.80593-62.999391-45.12357-34.405361-33.82839-45.019615-75.86437-44.879269-122.86961.748507-244.179816.732913-488.359633.992812-732.539451.015594-17.319634 3.253929-35.330599-.395046-51.823756-11.118457-50.222782 15.635493-76.690843 55.644264-96.385949 5.577421 9.652629 3.072 20.261685 3.170762 30.408122.592568 59.480365.774497 118.965929 1.096771 178.446294-.145543 231.824244-.41064 463.653685-.311878 695.48313.015594 35.62168 19.513178 60.64991 49.411898 76.65965 43.319879 23.19334 87.73133 44.34908 131.680163 66.37287 4.3507 2.74973 8.493482 5.94128 13.093685 8.18681 172.401056 84.05116 345.748142 166.24666 516.600207 253.33864 39.22387 19.99659 68.36889 17.84982 105.14452-.30149 153.44926-75.75001 307.9901-149.29088 462.13068-223.63744 1.8037-1.61657 3.6074-3.22794 5.41109-4.8445.44183-1.32549.94603-2.62498 1.50741-3.90888 9.14843.63415 16.95578-3.42546 24.3369-7.82814 49.00645-29.23338 101.75545-50.96089 152.8151-76.05669 49.19359-24.17576 73.02628-61.1853 72.06465-117.30258-1.64256-95.82457-6.77815-191.539979-5.71257-287.468507 2.15196-194.404061 7.78136-388.782132 5.42668-583.232974 22.84508 12.698639 44.23992 27.278944 61.40882 47.343106" fill="#1c1c23"/><path d="m1722.26772 1762.4142c-3.21754 39.11472-18.37482 74.95472-30.79797 111.52243-3.04601 8.98209-7.6826 17.44439-5.42148 27.38811-62.24569 27.87671-127.77649 46.81811-191.84146 69.73076-90.1276 32.23261-180.88414 62.7031-271.23525 94.31196-15.07411 5.27593-29.08784 7.53705-44.93645 1.89206-161.63606-57.55192-323.454049-114.58924-485.199267-171.84488-1.502213-.53539-2.650964-2.06879-3.955655-3.13437-6.201177-38.9224-22.268101-75.02749-32.300182-112.85832-1.944041-7.33433-3.524224-14.76743-5.265544-22.14854 97.0253 11.59667 192.719919 31.24499 288.92394 47.73295 80.921988 13.87338 161.386558 30.51728 242.448888 43.42903 41.7397 6.64821 81.85243-10.26079 122.60451-16.85701 139.07688-22.5176 277.99781-46.02802 416.97592-69.16418" fill="#f59f32"/><path d="m2133.40112 1709.8201c-.64974-6.87691-1.86607-13.75383-1.86089-20.62554.16116-434.701.42625-869.401991.70175-1304.102986.00519-5.187574.33267-10.380346.52499-15.567919 58.40439 58.643492 106.44402 124.85003 144.80504 198.120609-.06238 233.617543-1.88167 467.266276.81088 700.863026.88885 77.00272 5.39549 153.74554-12.78181 229.05892-20.49559 84.89324-68.41048 153.78193-132.19996 212.25389m-1872.421423-13.53135c-43.595371-27.02944-67.859492-70.25056-91.671391-112.93109-35.14867-62.98899-50.4307-131.00962-50.12402-203.69283 1.138355-269.68106.634152-539.367311.748507-809.048367 33.417747-72.314152 83.448203-132.714558 136.872934-192.81868 8.29596 10.276386 5.286335 20.833462 5.296731 30.397726.441828 398.419167.826478 796.833141.74331 1195.247111-.005198 30.92272 5.894497 62.05855-1.866071 92.84613" fill="#13827d"/><path d="m1669.03791 2946.68943c-55.86257 65.0266-117.27658 124.00276-187.10611 174.10599-37.55013 26.94627-77.23663 41.55777-124.95919 40.37783-101.08491-2.49503-202.33616-3.03042-303.37949.12475-53.42993 1.66855-97.498312-14.54392-138.941724-45.46664-66.118172-49.33913-125.297055-105.82546-178.394314-168.83525 12.480325.10396 24.960649.21312 37.45137.30148 2.079188 8.33755 9.101645 11.97093 15.287229 16.72187 26.015837 19.9758 52.977705 38.95878 77.200243 60.94619 17.189686 15.60951 29.342538 13.59269 46.002031-.03119 50.09803-40.96 101.531935-80.27744 151.822295-121.00353 12.288-9.94891 24.92946-13.83179 40.36223-13.74863 66.54441.36386 133.09401.43663 199.63322-.2599 19.28447-.20272 34.96674 5.61901 49.79135 17.69909 50.13442 40.85084 100.82502 81.02075 151.2869 121.47135 6.48187 5.19797 11.47192 13.11968 21.7691 4.66778 33.95834-27.88191 71.31095-51.54307 102.82623-82.49698 12.72463-4.90168 25.8703-6.18558 39.34863-4.57421m725.62356-1580.11101c-6.97568 144.3944-13.67586 288.80439-21.04658 433.18319-3.53462 69.15898-8.82096 138.2348-12.23082 207.39898-.85247 17.26246-5.60341 30.32496-17.26766 43.84488-41.78648 48.43987-81.69129 98.50152-122.3758 147.89263-4.51183 5.47866-7.57344 11.23281-7.98408 18.57234-11.49791 203.62526-101.77104 368.04743-248.85279 505.3466-68.88349 64.30408-131.50863 135.12642-201.7176 198.17259-2.46384-31.25539 18.06294-55.296 26.54083-83.14672 23.89507-78.50494 58.6123-150.72553 119.75082-208.87521 22.42404-21.32727 49.1468-41.55777 58.85661-73.67082 8.48829-28.08463 14.27363-57.05292 23.83789-84.7321 14.00333-40.55456 16.18128-85.56378 43.55379-121.12829 66.3053-86.15634 133.42148-171.69933 199.22258-258.24032 20.67752-27.20098 48.51784-51.89653 51.34554-88.38108 2.73933-35.28901 8.31155-70.20378 11.07687-105.35764 6.16999-78.40098 21.23371-155.21137 36.3494-232.15692 18.74908-95.43992 46.3399-189.27886 52.80618-286.9747.38464-5.80613 2.32349-9.9749 8.13482-11.74741m-1759.941525 1549.26054c-100.081706-90.48625-194.346884-186.8722-284.687594-286.91232-53.045279-58.73706-91.089219-127.58417-118.227817-202.10226-23.172549-63.62315-36.027127-129.55419-42.134742-196.80552-1.153949-12.69344-5.125198-22.72033-13.140467-32.5237-40.476588-49.51066-80.319025-99.54631-120.598091-149.21811-7.7501726-9.55387-13.2444264-18.9466-13.998132-32.17023-11.0508832-194.21694-22.689137-388.39748-34.18704564-582.57283 8.20239594 6.60662 8.82095434 16.40479 10.79618274 25.61559 9.2471878 43.03399 18.5255635 86.05758 27.6999797 129.10717 26.4316751 124.10152 51.543066 248.36938 64.8810562 374.82038 2.890071 27.38291-.291087 56.61109 19.674314 81.62892 57.151675 71.62282 111.501645 145.48077 168.965198 216.84369 51.433909 63.87265 97.274802 130.00122 111.220955 213.02319 10.640243 63.34246 38.335025 115.51448 87.507817 159.12024 83.874436 74.37775 109.562802 178.98169 136.228386 282.14579" fill="#da131b"/><path d="m634.719945 2915.83896c-26.665584-103.1641-52.35395-207.76804-136.228386-282.14579-49.172792-43.60576-76.867574-95.77778-87.507817-159.12024-13.946153-83.02197-59.787046-149.15054-111.220955-213.02319-57.463553-71.36292-111.813523-145.22087-168.965198-216.84369-19.965401-25.01783-16.784243-54.24601-19.674314-81.62892-13.3379902-126.451-38.4493811-250.71886-64.8810562-374.82038-9.1744162-43.04959-18.4527919-86.07318-27.6999797-129.10717-1.9752284-9.2108-2.5937868-19.00897-10.79618274-25.61559-.6653401-17.23127 1.85567512-35.30981-2.54700508-51.50668-17.14290358-63.03578 10.07886292-109.3237 52.77498482-150.75672 5.6345989 10.46872 4.2467411 21.92504 4.3351066 33.06429.4470253 57.06851-.7537056 114.19419 1.2942944 171.20032 2.5781929 71.81515 30.7615837 135.72419 66.1701519 196.91468 7.724183 13.35359 17.943391 25.39209 22.091371 40.69491 9.444711 100.54952 18.962193 201.09385 28.266558 301.65896 1.528203 16.47757 9.88134 28.59403 20.885442 40.38303 73.774782 79.06631 147.476792 158.2106 220.326335 238.12418 20.188914 22.14335 42.560975 42.97681 52.4787 73.14583 53.424731 162.53531 104.042559 325.94388 152.617584 489.9814 12.225625 41.28747 30.668021 80.91159 34.810802 124.47578-9.870944-3.56581-15.99935-11.17044-21.285685-19.68991-.634152-3.0772-1.751716-5.71777-5.473462-5.95688z" fill="#5e1b29"/><path d="m661.251421 2940.91189c-4.14798-43.56419-22.585178-83.18831-34.810802-124.47578-48.575026-164.03233-99.198051-327.44609-152.617584-489.9814-9.917726-30.16902-32.289787-51.00248-52.4787-73.14583-72.854742-79.90838-146.551554-159.05267-220.326335-238.12418-11.004102-11.789-19.362437-23.90546-20.885442-40.38303-9.309564-100.55992-18.827046-201.10944-28.266558-301.65896 58.466761 47.94087 67.298111 116.66843 77.501725 184.85019 1.918051 12.8078 5.016041 25.50124 6.107615 38.36621 3.862091 45.38867 24.123776 79.25864 60.072934 108.93385 71.388913 58.93458 138.744203 122.72926 208.308629 183.89897 20.116142 17.68869 33.875168 38.28304 42.399838 63.7427 71.082233 212.19671 142.705055 424.21669 214.255106 636.25746.784894 2.33389 2.796508 4.25194 4.231147 6.36231 1.330681 17.53276 10.998904 33.63606 8.956102 51.76138-12.480325-.10915-24.965848-.21311-37.446173-.31707-24.534416-7.70339-50.836142 6.25316-75.001502-6.08682" fill="#f59f32"/><path d="m650.323168 130.723736c-5.81133 1.772508-7.750173 5.941279-8.134823 11.747411-6.466274 97.695838-34.057096 191.534782-52.806172 286.974701-15.115696 76.945543-30.179412 153.755939-36.349401 232.156913-2.76532 35.153868-8.337544 70.06863-11.076874 105.357645-2.827695 36.484548-30.66802 61.180102-51.345543 88.381076-65.801096 86.540995-132.917279 172.083978-199.222578 258.240328-27.372508 35.5645-29.550457 80.57372-43.553787 121.12828-9.564264 27.67919-15.349604 56.64747-23.837888 84.7321-9.709808 32.11306-36.432569 52.34356-58.85661 73.67083-61.138517 58.14968-95.855756 130.37027-119.7508219 208.8752-8.4778884 27.85072-29.0046701 51.89133-26.5408325 83.14672 0 0 .2598984-.5042.2598984-.499-1.9492385 1.95963-3.9036751 3.91927-5.8529137 5.8789 0 0 .5769747-.43663.5769747-.43663-3.5554112.03119-7.10562441.06238-10.66103558.09357-.98241624-.95643-2.03760406-1.81929-3.17076142-2.59379 27.7363655-108.82469 65.6971371-214.5202 98.3767716-321.83228 12.0488934-39.56695 28.3861114-77.90197 35.1954514-119.02311 17.439188-31.09425 24.37328-65.95184 35.736041-99.23444 12.168447-35.65807 18.250071-74.02948 45.425056-103.19009 20.012183-21.47281 39.483776-43.44463 59.381604-65.0214 63.789482-69.169381 127.604954-138.317969 191.607553-207.295025 6.201178-6.684589 9.57466-13.665462 10.369949-22.855472 8.509077-98.667858 18.047351-197.262945 20.235696-296.367432 6.570233-20.953015 22.772304-36.141482 32.882355-55.025705 43.002802-80.339818 67.760731-165.196671 66.055797-257.060386-.706924-37.93998-.2547-75.9111475.062376-113.8667211.072771-9.1276345-3.056406-19.22728931 5.385096-26.8059289 15.755046 20.142132 33.261807 39.1926904 46.776528 60.7486701 13.587492 21.6755329 3.487838 46.5010359 2.832894 69.9750659" fill="#5e1b29" mask="url(#a)" transform="translate(1744.338 1235.855)"/><path d="m437.082747 437.201218c-.317076-59.485563-.499005-118.971127-1.091574-178.451492-.098761-10.146437 2.40666-20.755492-3.175959-30.408122 127.100751-90.75135 268.137259-150.3044872 419.320203-186.9709644 43.429035-10.5362843 87.143959-19.8510457 131.612589-25.0022335 6.138802 54.8645685-3.004427 109.7863149.602964 164.6664769-5.780142 1.720528-11.445929 3.997239-17.33003 5.062823-94.395127 17.142903-185.198457 45.684954-272.825828 84.700913-94.441908 42.051574-179.423512 98.553503-257.112365 166.402599" fill="#b9222a"/><path d="m1877.91052 2482.57676c-6.80934 41.12114-23.14656 79.45617-35.19545 119.02311-32.67963 107.31208-70.6404 213.00759-98.36118 321.83228-2.84329 5.87371-5.81652 11.72143-3.16036 18.53077-23.59359 8.54026-48.32552-.22352-72.15302 4.72495-13.48353-1.60617-26.62919-.32747-39.36942 4.56902-4.05441-18.06295 5.03683-33.86997 8.65462-50.60744 33.41255-83.27667 57.99895-169.58375 87.20114-254.30546 30.65242-88.92686 60.09892-178.26436 90.06522-267.40434 28.34452 30.00268 42.51419 68.51443 62.31845 103.63711m-893.548114-2301.548114c-3.622985-54.874965 5.525441-109.796711-.618559-164.6560815 14.424366-1.2267208 28.245763-7.63061932 43.096363-4.8860914 50.7062 3.4254619 101.3916 6.4506802 151.47403 16.5815228 80.55294 16.2956346 155.06583 46.9532589 224.48471 90.5434311 3.83091 19.851046 1.7985 39.811249 1.07598 59.735066-91.57782-13.041705-183.68584-16.030538-275.87183-11.581076-47.99805 2.318295-95.76739 9.356345-143.640694 14.263229" fill="#f59f32"/><path d="m375.963939 118.612467c-69.418883-43.5901726-143.931777-74.2529949-224.489909-90.5486294-50.077238-10.1308427-100.7626391-13.150863-151.47403-16.5815229 117.947127-16.35281216 235.899452-14.15407105 353.841381-.2495025 7.667005.9044467 15.183269 3.1083858 22.761908 4.7041624-.218314 34.2286295-.431431 68.4520609-.63935 102.6754924" fill="#f59f32" mask="url(#b)" transform="translate(1026.835)"/><path d="m1741.19353 2941.96499c-2.65616-6.81453.31707-12.65705 3.16036-18.53076 1.11757.7745 2.17276 1.63736 3.15517 2.58859.02079 3.39947.05198 6.80414.07797 10.20881-2.13117 1.91286-4.26233 3.82051-6.3935 5.73336" fill="#5e1b29"/><path d="m1747.58859 2936.23111c-.02599-3.40467-.05718-6.80934-.08317-10.20881 3.56061-.02599 7.11083-.05718 10.66624-.08836-3.52942 3.43066-7.05365 6.86651-10.58307 10.29717m-1113.095797-20.96445c3.721747.23911 4.83931 2.87968 5.473462 5.95688-1.824487-1.98563-3.648974-3.97125-5.473462-5.95688" fill="#1c1c23"/><path d="m1757.59364 2926.36901c1.94924-1.95964 3.89848-3.91407 5.85292-5.87891-1.94924 1.95444-3.90368 3.91927-5.85292 5.87891" fill="#1c1c23"/><path d="m1638.32779 2900.64737c-3.61779 16.74266-12.71423 32.54449-8.65462 50.60744-31.49969 30.9591-68.84711 54.62546-102.81064 82.50737-10.29718 8.4519-15.28723.53019-21.76909-4.66778-50.46189-40.4558-101.14729-80.62571-151.28691-121.47135-14.82461-12.08008-30.50688-17.90181-49.79135-17.69909-66.53921.69653-133.08881.62376-199.63322.2599-15.43277-.08317-28.07423 3.79972-40.36223 13.74863-50.29036 40.72089-101.724265 80.04353-151.822295 121.00353-16.659492 13.61868-28.812345 15.6355-46.00203.03119-24.222538-21.98741-51.179209-40.97559-77.195046-60.94619-6.185584-4.75094-13.213239-8.38433-15.292427-16.72187 2.032407-18.10972-7.630619-34.20784-8.961299-51.74579 7.958091-27.36731 16.513949-54.58907 23.661157-82.1747 5.052427-19.48718 4.81332-39.19788-1.824487-58.75784-55.836589-164.58331-112.208568-328.98989-166.55334-494.06181-11.024893-33.49572-29.300954-59.35562-53.975716-83.30266-71.446091-69.33572-141.301604-140.31399-212.88804-209.49897-20.433219-19.74188-32.445726-41.66692-35.89198-69.51764-3.269523-26.41088-11.425137-52.24479-9.590254-84.69572 39.696894 22.26291 80.053929 35.72045 120.171858 49.90571 191.503594 67.71915 382.840853 135.90611 574.219699 203.96832 55.38436 19.69511 111.13259 38.45458 165.8672 59.81304 21.86266 8.53507 41.2199 8.08804 62.61475.55618 177.67179-62.55236 355.52552-124.57453 533.27528-186.8826 95.40874-33.44373 192.03899-63.42042 286.13783-100.5911 14.28922-5.645 28.24577-12.14246 41.25629-17.77186 9.1952 84.40463-28.79156 144.75825-91.25036 196.74834-67.8335 56.46555-126.51338 123.03075-189.15411 185.21925-9.37194 9.30437-13.70705 21.75351-17.89141 34.17665-55.43115 164.70287-109.49523 329.89434-167.51497 493.68236-16.38919 46.25673-11.57068 87.35707 4.25714 130.54181 4.40788 12.0229 5.85291 25.12698 8.65462 37.73725" fill="#13827d"/><path d="m1877.91052 2482.57676c-19.80426-35.12268-33.97393-73.63443-62.31845-103.63711 13.75382-50.87773 33.68804-99.5931 51.84974-148.91143 5.24995-14.25804 17.49117-23.44805 28.30295-33.25661 74.80917-67.90108 148.99979-136.51428 225.21242-202.81438 26.16138-22.75671 38.13231-48.99606 41.63574-82.13831 4.52743-42.82608 13.00532-85.29349 16.18648-128.17674 2.14156-28.89551 20.16812-46.27752 36.48454-65.82708 8.26478-9.90213 16.92459-19.47679 25.40248-29.197-2.18834 99.09929-11.73182 197.69438-20.23569 296.36744-.79529 9.18481-4.16878 16.16568-10.36995 22.85027-64.0026 68.97705-127.81807 138.12564-191.60756 207.30022-19.89782 21.57158-39.36942 43.54339-59.3816 65.01621-27.17498 29.1606-33.25661 67.53202-45.43025 103.19009-11.35757 33.2826-18.29166 68.14018-35.73085 99.23443" fill="#f59f32"/><path d="m1721.75416 1304.54689c-.56138 1.2787-1.06558 2.58339-1.50221 3.91407-1.8037 1.61657-3.61259 3.22794-5.41629 4.83931-154.14058 74.34656-308.68142 147.88743-462.13068 223.63225-36.77563 18.1565-65.92065 20.29807-105.14452.30668-170.852065-87.09718-344.199151-169.28748-516.600207-253.34384-4.600203-2.24033-8.742984-5.43188-13.083289-8.1868 2.547005-49.33913.415838-98.51712-3.648975-147.7107-12.719431-153.797527-48.528243-301.752532-117.458517-440.065304-11.835777-23.749522-5.353909-32.736812 8.192-47.415878 130.370274-141.353584 292.936771-224.515898 478.722599-266.011289.093563 198.136203.140345 396.267208.415837 594.403411.015594 10.941726-3.191553 22.673543 4.860102 32.53929-14.00333 36.98355 2.094781 63.18132 40.27907 63.33206 109.90586.44183 219.81173.47302 329.7176-.01559 39.06794-.17673 54.07967-25.04902 39.66051-63.18132 7.47988-6.710582 5.96727-15.697871 5.96207-24.196552-.06758-202.835167-.18193-405.670335-.29109-608.505502h-.03119c36.71326 5.301929 72.4701 14.705056 108.22693 24.388873 80.43858 21.779492 155.25815 56.850193 228.73665 95.237198 11.31598 38.345421 11.13405 78.333401 15.39119 117.531289 12.35037 113.700386 5.57222 227.852995-.42624 341.511797-5.71776 108.190537-16.13969 216.287517-34.19224 323.396877-1.84008 10.90014-.24431 22.38245-.23911 33.59967" fill="#b9222a"/><path d="m983.68563 374.505389c-185.785827 41.495391-348.352325 124.657705-478.727797 266.011289-13.540711 14.679066-20.022579 23.666356-8.186802 47.415878 68.930274 138.312772 104.739086 286.267777 117.45332 440.065304 4.07001 49.19358 6.201177 98.37157 3.654172 147.7107-43.959228-22.0186-88.37068-43.17954-131.695756-66.37288-29.893523-16.00454-49.391107-41.03277-49.4067-76.65445-.098762-231.829445.166335-463.664085.311878-695.488328 77.683655-67.843899 162.665259-124.34063 257.107167-166.392204 87.627371-39.015959 178.430701-67.55801 272.825828-84.700913 5.884101-1.070782 11.549888-3.342295 17.33003-5.068021 47.8837-4.906883 95.65304-11.944934 143.65109-14.263228 92.18599-4.45466 184.2992-1.465827 275.87183 11.575878.72252 1.257909 1.64776 2.333889 2.74973 3.217543-2.10518 62.417219 2.76532 124.933198-2.37027 187.329625 0 0 .03118-.010396.03118-.010396-140.57388-26.114599-280.78392-25.220548-420.5989 5.624203" fill="#f5f1ef"/><path d="m1404.25491 368.890542c5.13559-62.391228.25989-124.912406 2.37027-187.329624 76.33738 10.588264 149.29608 32.929137 220.11322 62.786274 9.86055 4.153178 17.22087 11.31598 23.66115 19.518376 51.91213 66.12337 77.74604 142.803817 90.82413 224.635451-73.4837-38.381807-148.30327-73.452507-228.74185-95.232-35.75164-9.678619-71.51367-19.086944-108.22692-24.378477" fill="#f5f1ef"/><path d="m1714.83514 1313.29923c1.8089-1.61137 3.61259-3.22274 5.41629-4.83931-1.80889 1.61137-3.61259 3.22274-5.41629 4.83931" fill="#5e1b29"/><path d="m983.68563 374.505389c139.81498-30.844751 280.02502-31.738802 420.5989-5.624203.10916 202.835167.22871 405.670335.29629 608.505502.0052 8.498681 1.5178 17.48597-5.97247 24.196552-136.55066-.04679-273.10132-.09357-409.646781-.13515-8.051655-9.865747-4.844508-21.597564-4.860101-32.53929-.275493-198.136203-.322275-396.267208-.415838-594.403411" fill="#f59f32"/><path d="m988.961569 1001.44549c136.545461.04678 273.096121.09356 409.646781.13515 14.42956 38.1323-.58217 63.00978-39.65531 63.18132-109.90067.48861-219.80654.45742-329.7124.01559-38.189487-.15074-54.282401-26.34851-40.279071-63.33206" fill="#f59f32"/><path d="m992.968164 15.9390538c-87.273909 6.9756751-171.252305 29.2073909-253.666112 57.182863-112.078619 38.0491372-218.273137 88.2563252-313.588304 159.5360812-2.35468 194.445645 3.274721 388.823716 5.42668 583.227777 1.065584 95.933726-4.07001 191.649135-5.712569 287.468505-.961624 56.11728 22.871066 93.12682 72.06465 117.30778 51.059655 25.0958 103.80865 46.81811 152.815107 76.05669 7.381116 4.40268 15.188467 8.46229 24.336893 7.82814.005198-11.21202 1.600975-22.69953-.233908-33.59967-18.057747-107.10936-28.479676-215.20634-34.197442-323.396877-5.998457-113.658802-12.776609-227.811411-.426234-341.511797 4.257137-39.197888 4.075209-79.185868 15.38599-117.536487 13.08329-81.836833 38.917198-158.517279 90.82932-224.635452 6.440284-8.207594 13.795411-15.365198 23.655959-19.518376 70.822335-29.857137 143.781036-52.203208 220.097625-62.77068 1.122761-.899248 2.048-1.975228 2.76532-3.222741-.722518-19.934213-2.749726-39.889218 1.075979-59.740264-.207918-34.2286292-.421035-68.4520607-.628954-102.6754922" fill="#5e1b29"/><path d="m650.079425 1740.76205c-57.104894-8.96129-114.183797-18.08373-171.330274-26.78513-19.518376-2.96804-34.857584-10.20362-47.764142-26.28613-29.763574-37.10311-61.476386-72.76118-93.137219-108.38287-10.85336-12.21523-16.108507-24.87228-15.323614-41.15232 1.091574-22.67355.233909-45.43026.259899-68.15058.046781-32.31578 1.024-33.23062 31.109847-22.2629 68.015432 24.79431 135.843736 50.07723 203.859168 74.87675 32.310579 11.78379 64.87066 22.92304 97.33198 34.35858-3.950457-65.41645-18.541158-129.99602-16.316427-195.90628-4.875695-3.30591-9.413523-7.29275-14.684264-9.82416-59.69868-28.61482-120.109482-55.87817-179.12203-85.7509-66.274112-33.5477-102.878213-82.61133-101.994559-160.89795 2.910863-258.36508 1.195533-516.782136 1.008406-775.1784-.010395-9.735797 3.53462-20.240893-3.721746-29.238578-38.064731 24.076995-68.244142 56.777421-100.674274 86.998416.192325 5.04203.519797 10.084061.524995 15.131289.275492 422.433787.540589 844.862373.701726 1267.296163.005198 6.67939-1.211127 13.36398-1.860873 20.04337 36.718457 38.1375 81.343025 64.97462 131.461848 82.26307 102.420791 35.3254 205.397766 69.12779 308.182416 103.45518 2.333888.7797 5.12.28069 7.708589.37946 2.261116-9.65783-2.375472-17.88102-5.421483-26.60841-12.423147-35.53852-27.580426-70.36491-30.797969-108.37767" fill="#fff"/><path d="m1750.80665 1736.42279c44.37507-11.35237 89.91448-15.66668 135.15241-21.44682 24.13937-3.0824 42.76369-11.37836 58.57592-31.4997 30.89153-39.31224 64.55878-76.46733 97.47752-114.1682 8.31675-9.52268 12.87017-19.15452 12.43874-32.31578-.93043-28.45888-.95123-56.99054.0052-85.44942.59777-17.73547-4.14278-20.08495-20.65673-13.70185-62.54197 24.16017-125.65572 46.83371-188.59793 69.94908-4.74575 1.74132-9.82936 2.57819-14.76223 3.8309-1.25791 1.16435-2.3131 2.84329-3.79972 3.41507-200.74558 77.09628-401.56914 153.99504-602.21596 231.34603-15.65628 6.03484-29.6804 5.74376-45.00922-.40024-53.70542-21.52999-107.67074-42.41544-161.56329-63.47761-110.99224-43.38225-222.000077-86.72292-332.997519-130.07399-32.450924-11.763-65.011005-23.22453-97.321584-35.34619-68.015431-25.52203-135.843736-51.53787-203.859167-77.0547-30.085848-11.28479-31.063066-10.34396-31.10465 22.91265-.031188 23.38047.826477 46.79732-.259898 70.12581-.784894 16.75825 4.465055 29.77916 15.323614 42.34785 31.660832 36.65608 63.373645 73.34855 93.137218 111.52764 12.901361 16.55553 28.245767 23.99902 47.758944 27.05543 57.146477 8.9509 114.225381 18.34363 171.330274 27.55963 138.98331 23.13617 277.899046 46.65178 416.981118 69.16419 40.75208 6.59622 80.85961 23.51041 122.59931 16.85701 81.06753-12.91175 161.5269-29.55565 242.44889-43.42384 96.20922-16.49315 191.90384-36.14148 288.91874-47.73295" fill="#1c1c23"/></g></g></svg>