<svg xmlns="http://www.w3.org/2000/svg" xmlns:xlink="http://www.w3.org/1999/xlink" width="4096" height="4096" viewBox="0 0 4096 4096"><defs><polygon id="a" points="0 0 654.544 0 654.544 1690.515 0 1690.515"/><polygon id="c" points="0 0 376.603 0 376.603 118.612 0 118.612"/></defs><g fill="none" fill-rule="evenodd"><circle cx="2048" cy="2048" r="2048" fill="#FFF"/><g transform="translate(847.269 467.817)"><path fill="#DA131B" d="M57.976635,1231.27059 C59.2345437,1219.38804 61.57363,1207.50548 61.5788279,1195.62292 C61.6827873,1051.24932 62.2649599,906.870514 60.9290817,762.512504 C60.2689396,691.731752 82.0796198,628.99226 119.931234,570.619062 C119.822077,840.300118 120.321082,1109.98637 119.182726,1379.66223 C118.876046,1452.35064 134.163275,1520.37126 169.306747,1583.36026 C193.123843,1626.04079 217.382767,1669.2619 260.978138,1696.28615 C288.418219,1737.38649 328.957183,1763.38154 372.724087,1780.72716 C476.610706,1821.90028 582.571315,1857.73508 688.885386,1892.28079 C690.184879,1893.34637 691.33363,1894.87977 692.835843,1895.40997 C854.581061,1952.6708 1016.39905,2009.70812 1178.03511,2067.26004 C1193.88372,2072.90503 1207.89745,2070.64391 1222.97156,2065.36798 C1313.32267,2033.75912 1404.07921,2003.28863 1494.20681,1971.05602 C1558.27178,1948.14337 1623.80258,1929.20197 1686.06386,1901.31486 C1688.63686,1901.2161 1691.42297,1901.7307 1693.75686,1900.93021 C1796.54151,1865.60481 1899.51848,1830.82 2001.93927,1794.47059 C2052.0581,1776.67795 2096.68267,1749.06633 2133.40112,1709.82166 C2197.1906,1651.3445 2245.10549,1582.46101 2265.60108,1497.56777 C2283.77838,1422.24919 2279.27174,1345.51157 2278.38289,1268.50885 C2275.69034,1034.9121 2277.50963,801.263366 2277.56681,567.635427 C2314.81026,627.25094 2338.68973,690.775326 2338.43503,762.377356 C2337.91004,907.728179 2338.32068,1053.0842 2338.38305,1198.43502 C2338.38825,1211.2792 2336.90163,1224.43526 2345.05205,1235.8552 C2336.61054,1243.43384 2339.73972,1253.5335 2339.66695,1262.66113 C2339.34987,1300.61671 2338.89765,1338.58268 2339.60457,1376.52785 C2341.30951,1468.39157 2316.55158,1553.24842 2273.54878,1633.58824 C2263.43873,1652.47246 2247.23666,1667.66093 2240.66642,1688.61395 C2232.18853,1698.33935 2223.52872,1707.91401 2215.26394,1717.81614 C2198.94752,1737.3657 2180.92096,1754.74251 2178.7794,1783.63803 C2175.59824,1826.52647 2167.12035,1868.99388 2162.59292,1911.81996 C2159.08949,1944.95701 2147.11856,1971.20156 2120.95718,1993.95827 C2044.74455,2060.25317 1970.55393,2128.87157 1895.74476,2196.76745 C1884.93298,2206.58121 1872.69176,2215.77122 1867.44181,2230.02925 C1849.28011,2279.34759 1829.34589,2328.06296 1815.60246,2378.91989 C1785.62577,2468.08067 1756.17927,2557.41817 1725.52685,2646.33983 C1696.32466,2731.06674 1671.73826,2817.37382 1638.32571,2900.6453 C1635.52401,2888.04022 1634.07897,2874.93094 1629.67629,2862.90804 C1613.84847,2819.72331 1609.02476,2778.62816 1625.41395,2732.36623 C1683.43369,2568.57821 1737.49777,2403.38674 1792.93412,2238.68387 C1797.11328,2226.26073 1801.44839,2213.81159 1810.82553,2204.50722 C1873.46626,2142.31872 1932.14094,2075.75872 1999.97444,2019.29317 C2062.43324,1967.30308 2100.4252,1906.94946 2091.23,1822.54483 C2078.21428,1828.17423 2064.25773,1834.67169 2049.96851,1840.31669 C1955.87487,1877.48217 1859.24461,1907.45886 1763.83588,1940.90259 C1586.08092,2003.21585 1408.22719,2065.23803 1230.56059,2127.79039 C1209.16575,2135.32225 1189.80851,2135.76408 1167.94066,2127.22901 C1113.20604,2105.87055 1057.45781,2087.11108 1002.07865,2067.41598 C810.694605,1999.35376 619.357346,1931.1668 427.853752,1863.44765 C387.735823,1849.26239 347.378787,1835.81005 307.687092,1813.54714 C305.852209,1845.99807 314.007823,1871.82678 317.277346,1898.23766 C320.7236,1926.08838 332.736107,1948.01342 353.164127,1967.75531 C424.755762,2036.94028 494.606077,2107.92375 566.052168,2177.25947 C590.726929,2201.20132 609.00299,2227.06121 620.027884,2260.55693 C674.372655,2425.63405 730.749833,2590.04063 786.586422,2754.62394 C793.219031,2774.1787 793.458138,2793.8894 788.410909,2813.38178 C781.263701,2840.96741 772.702645,2868.18398 764.744554,2895.55648 C763.304716,2893.44611 761.2983,2891.52286 760.508209,2889.19417 C688.958158,2677.1482 617.340534,2465.13342 546.2583,2252.93151 C537.73363,2227.47705 523.974605,2206.8827 503.858462,2189.19401 C434.294036,2128.0243 366.933549,2064.22442 295.544635,2005.29504 C259.595478,1975.61983 239.333792,1941.74467 235.476899,1896.36119 C234.385325,1883.49102 231.287336,1870.80278 229.369285,1857.98978 C219.160473,1789.81321 210.329122,1721.08046 151.867559,1673.14479 C147.719579,1657.84197 137.500371,1645.80347 129.776188,1632.44988 C94.3624218,1571.25939 66.1842289,1507.35035 63.6008381,1435.5352 C61.5580361,1378.52907 62.753569,1321.40339 62.3065437,1264.33488 C62.2233762,1253.19563 63.6060361,1241.73931 57.976635,1231.27059"/><path fill="#5E1B29" d="M1403.43103,15.9390538 C1490.70494,22.9147289 1574.68853,45.1464447 1657.09714,73.1219168 C1769.17056,111.171054 1875.37028,161.378242 1970.68544,232.657998 C1973.04012,427.103643 1967.41072,621.481714 1965.25876,815.885775 C1964.19318,911.819501 1969.32877,1007.53491 1970.97133,1103.35428 C1971.93296,1159.47156 1948.10027,1196.4811 1898.90668,1220.66206 C1847.84703,1245.75786 1795.09803,1267.48017 1746.09158,1296.71875 C1738.71046,1301.12143 1730.90311,1305.18104 1721.75468,1304.54689 C1721.74948,1293.33487 1720.15371,1281.84736 1721.98859,1270.94722 C1740.04634,1163.83786 1750.46827,1055.74088 1756.18603,947.550343 C1762.18449,833.891541 1768.96264,719.738932 1756.61227,606.038546 C1752.35513,566.840658 1752.53706,526.852678 1741.22628,488.502059 C1728.14299,406.665226 1702.30908,329.98478 1650.39696,263.866607 C1643.95667,255.659013 1636.60154,248.501409 1626.741,244.348231 C1555.91866,214.491094 1482.95996,192.145023 1406.64337,181.577551 C1405.52061,180.678303 1404.59537,179.602323 1403.87805,178.35481 C1404.60057,158.420597 1406.62778,138.465592 1402.80207,118.614546 C1403.00999,84.3859168 1403.22311,50.1624853 1403.43103,15.9390538"/><path fill="#FFF" d="M1722.26772,1762.4142 C1779.37261,1753.193 1836.45152,1743.80547 1893.598,1734.85456 C1913.11637,1731.79816 1928.45558,1724.35466 1941.36214,1707.79913 C1971.12571,1669.62004 2002.83852,1632.92758 2034.49936,1596.2715 C2045.35272,1583.70281 2050.60786,1570.67669 2049.82297,1553.92364 C2048.7314,1530.59515 2049.58906,1507.1783 2049.56307,1483.79783 C2049.51629,1450.54122 2048.53907,1449.59519 2018.45322,1460.88518 C1950.43779,1486.40201 1882.60949,1512.41785 1814.59925,1537.93988 C1782.28348,1550.06155 1749.7234,1561.52307 1717.26208,1573.29127 C1721.21253,1505.97757 1735.80323,1439.52153 1733.5785,1371.69842 C1738.4542,1368.29375 1742.99203,1364.19255 1748.26277,1361.58837 C1807.96145,1332.14187 1868.37225,1304.08323 1927.3848,1273.34244 C1993.65891,1238.82792 2030.26301,1188.33485 2029.37936,1107.77671 C2026.46849,841.905771 2028.18382,575.988045 2028.37095,310.085913 C2028.38135,300.064227 2024.83633,289.257649 2032.0927,280.000065 C2070.15743,304.778786 2100.33684,338.425243 2132.76697,369.524694 C2132.57465,374.712268 2132.24717,379.90504 2132.24198,385.092613 C2131.96648,819.793608 2131.70139,1254.4946 2131.54025,1689.1956 C2131.53505,1696.06731 2132.75138,1702.94423 2133.40112,1709.82114 C2096.68267,1749.06581 2052.0581,1776.67743 2001.93927,1794.47008 C1899.51848,1830.82467 1796.54151,1865.60949 1693.75686,1900.92969 C1691.42297,1901.73018 1688.63686,1901.21558 1686.04827,1901.32474 C1683.78715,1891.38102 1688.42374,1882.91872 1691.46975,1873.93663 C1703.8929,1837.36892 1719.05018,1801.52892 1722.26772,1762.4142"/><path fill="#1C1C23" d="M2032.09426,279.999545 C2024.83789,289.257129 2028.37771,300.063708 2028.37251,310.085393 C2028.18538,575.987525 2026.46485,841.905251 2029.38092,1107.77619 C2030.26457,1188.33433 1993.65527,1238.8274 1927.38636,1273.34192 C1868.36861,1304.08271 1807.95781,1332.14655 1748.26433,1361.58785 C1742.98839,1364.19203 1738.45576,1368.29323 1733.54887,1371.7031 C1723.39724,1371.4484 1715.66266,1377.61319 1707.20037,1381.6884 C1547.78384,1458.38964 1388.26335,1534.88296 1229.18469,1612.29112 C1209.38563,1621.92815 1193.36548,1622.19325 1173.40008,1612.16117 C1078.49555,1564.48539 982.972469,1518.03634 887.350621,1471.81599 C797.202235,1428.23622 706.653606,1385.47772 616.281707,1342.36056 C572.332875,1320.61745 528.316469,1299.00949 484.456002,1277.08446 C461.101524,1265.40982 440.086134,1250.27853 421.456611,1231.96089 C387.05125,1198.1325 376.436996,1156.09652 376.577342,1109.09128 C377.325849,864.911464 377.310255,620.731647 377.570154,376.551829 C377.585748,359.232195 380.824083,341.22123 377.175108,324.728073 C366.056651,274.505291 392.810601,248.03723 432.819372,228.342124 C438.396793,237.994753 435.891372,248.603809 435.990134,258.750246 C436.582702,318.230611 436.764631,377.716175 437.086905,437.19654 C436.941362,669.020784 436.676265,900.850225 436.775027,1132.67967 C436.790621,1168.30135 456.288205,1193.32958 486.186925,1209.33932 C529.506804,1232.53266 573.918255,1253.6884 617.867088,1275.71219 C622.217788,1278.46192 626.36057,1281.65347 630.960773,1283.899 C803.361829,1367.95016 976.708915,1450.14566 1147.56098,1537.23764 C1186.78485,1557.23423 1215.92987,1555.08746 1252.7055,1536.93615 C1406.15476,1461.18614 1560.6956,1387.64527 1714.83618,1313.29871 C1716.63988,1311.68214 1718.44358,1310.07077 1720.24727,1308.45421 C1720.6891,1307.12872 1721.1933,1305.82923 1721.75468,1304.54533 C1730.90311,1305.17948 1738.71046,1301.11987 1746.09158,1296.71719 C1795.09803,1267.48381 1847.84703,1245.7563 1898.90668,1220.6605 C1948.10027,1196.48474 1971.93296,1159.4752 1970.97133,1103.35792 C1969.32877,1007.53335 1964.19318,911.817941 1965.25876,815.889413 C1967.41072,621.485352 1973.04012,427.107281 1970.68544,232.656439 C1993.53052,245.355078 2014.92536,259.935383 2032.09426,279.999545"/><path fill="#F59F32" d="M1722.26772,1762.4142 C1719.05018,1801.52892 1703.8929,1837.36892 1691.46975,1873.93663 C1688.42374,1882.91872 1683.78715,1891.38102 1686.04827,1901.32474 C1623.80258,1929.20145 1558.27178,1948.14285 1494.20681,1971.0555 C1404.07921,2003.28811 1313.32267,2033.7586 1222.97156,2065.36746 C1207.89745,2070.64339 1193.88372,2072.90451 1178.03511,2067.25952 C1016.39905,2009.7076 854.581061,1952.67028 692.835843,1895.41464 C691.33363,1894.87925 690.184879,1893.34585 688.880188,1892.28027 C682.679011,1853.35787 666.612087,1817.25278 656.580006,1779.42195 C654.635965,1772.08762 653.055782,1764.65452 651.314462,1757.27341 C748.339762,1768.87008 844.034381,1788.5184 940.238402,1805.00636 C1021.16039,1818.87974 1101.62496,1835.52364 1182.68729,1848.43539 C1224.42699,1855.0836 1264.53972,1838.1746 1305.2918,1831.57838 C1444.36868,1809.06078 1583.28961,1785.55036 1722.26772,1762.4142"/><path fill="#13827D" d="M2133.40112 1709.8201C2132.75138 1702.94319 2131.53505 1696.06627 2131.54023 1689.19456 2131.70139 1254.49356 2131.96648 819.792569 2132.24198 385.091574 2132.24717 379.904 2132.57465 374.711228 2132.76697 369.523655 2191.17136 428.167147 2239.21099 494.373685 2277.57201 567.644264 2277.50963 801.261807 2275.69034 1034.91054 2278.38289 1268.50729 2279.27174 1345.51001 2283.77838 1422.25283 2265.60108 1497.56621 2245.10549 1582.45945 2197.1906 1651.34814 2133.40112 1709.8201M260.979697 1696.28875C217.384326 1669.25931 193.120205 1626.03819 169.308306 1583.35766 134.159636 1520.36867 118.877606 1452.34804 119.184286 1379.66483 120.322641 1109.98377 119.818438 840.297519 119.932793 570.616463 153.35054 498.302311 203.380996 437.901905 256.805727 377.797783 265.101687 388.074169 262.092062 398.631245 262.102458 408.195509 262.544286 806.614676 262.928936 1205.02865 262.845768 1603.44262 262.84057 1634.36534 268.740265 1665.50117 260.979697 1696.28875"/><path fill="#DA131B" d="M1669.03791 2946.68943C1613.17534 3011.71603 1551.76133 3070.69219 1481.9318 3120.79542 1444.38167 3147.74169 1404.69517 3162.35319 1356.97261 3161.17325 1255.8877 3158.67822 1154.63645 3158.14283 1053.59312 3161.298 1000.16319 3162.96655 956.094808 3146.75408 914.651396 3115.83136 848.533224 3066.49223 789.354341 3010.0059 736.257082 2946.99611 748.737407 2947.10007 761.217731 2947.20923 773.708452 2947.29759 775.78764 2955.63514 782.810097 2959.26852 788.995681 2964.01946 815.011518 2983.99526 841.973386 3002.97824 866.195924 3024.96565 883.38561 3040.57516 895.538462 3038.55834 912.197955 3024.93446 962.295985 2983.97446 1013.72989 2944.65702 1064.02025 2903.93093 1076.30825 2893.98202 1088.94971 2890.09914 1104.38248 2890.1823 1170.92689 2890.54616 1237.47649 2890.61893 1304.0157 2889.9224 1323.30017 2889.71968 1338.98244 2895.54141 1353.80705 2907.62149 1403.94147 2948.47233 1454.63207 2988.64224 1505.09395 3029.09284 1511.57582 3034.29081 1516.56587 3042.21252 1526.86305 3033.76062 1560.82139 3005.87871 1598.174 2982.21755 1629.68928 2951.26364 1642.41391 2946.36196 1655.55958 2945.07806 1669.03791 2946.68943M2394.66147 1366.57842C2387.68579 1510.97282 2380.98561 1655.38281 2373.61489 1799.76161 2370.08027 1868.92059 2364.79393 1937.99641 2361.38407 2007.16059 2360.5316 2024.42305 2355.78066 2037.48555 2344.11641 2051.00547 2302.32993 2099.44534 2262.42512 2149.50699 2221.74061 2198.8981 2217.22878 2204.37676 2214.16717 2210.13091 2213.75653 2217.47044 2202.25862 2421.0957 2111.98549 2585.51787 1964.90374 2722.81704 1896.02025 2787.12112 1833.39511 2857.94346 1763.18614 2920.98963 1760.7223 2889.73424 1781.24908 2865.69363 1789.72697 2837.84291 1813.62204 2759.33797 1848.33927 2687.11738 1909.47779 2628.9677 1931.90183 2607.64043 1958.62459 2587.40993 1968.3344 2555.29688 1976.82269 2527.21225 1982.60803 2498.24396 1992.17229 2470.56478 2006.17562 2430.01022 2008.35357 2385.001 2035.72608 2349.43649 2102.03138 2263.28015 2169.14756 2177.73716 2234.94866 2091.19617 2255.62618 2063.99519 2283.4665 2039.29964 2286.2942 2002.81509 2289.03353 1967.52608 2294.60575 1932.61131 2297.37107 1897.45745 2303.54106 1819.05647 2318.60478 1742.24608 2333.72047 1665.30053 2352.46955 1569.86061 2380.06037 1476.02167 2386.52665 1378.32583 2386.91129 1372.5197 2388.85014 1368.35093 2394.66147 1366.57842M634.719945 2915.83896C534.638239 2825.35271 440.373061 2728.96676 350.032351 2628.92664 296.987072 2570.18958 258.943132 2501.34247 231.804534 2426.82438 208.631985 2363.20123 195.777407 2297.27019 189.669792 2230.01886 188.515843 2217.32542 184.544594 2207.29853 176.529325 2197.49516 136.052737 2147.9845 96.2103 2097.94885 55.931234 2048.27705 48.1810614 2038.72318 42.6868076 2029.33045 41.933102 2016.10682 30.8822188 1821.88988 19.243965 1627.70934 7.74605636 1433.53399 15.9484523 1440.14061 16.5670107 1449.93878 18.5422391 1459.14958 27.7894269 1502.18357 37.0678026 1545.20716 46.2422188 1588.25675 72.6738939 1712.35827 97.7852848 1836.62613 111.123275 1963.07713 114.013346 1990.46004 110.832188 2019.68822 130.797589 2044.70605 187.949264 2116.32887 242.299234 2190.18682 299.762787 2261.54974 351.196696 2325.42239 397.037589 2391.55096 410.983742 2474.57293 421.623985 2537.91539 449.318767 2590.08741 498.491559 2633.69317 582.365995 2708.07092 608.054361 2812.67486 634.719945 2915.83896"/><path fill="#5E1B29" d="M634.719945,2915.83896 C608.054361,2812.67486 582.365995,2708.07092 498.491559,2633.69317 C449.318767,2590.08741 421.623985,2537.91539 410.983742,2474.57293 C397.037589,2391.55096 351.196696,2325.42239 299.762787,2261.54974 C242.299234,2190.18682 187.949264,2116.32887 130.797589,2044.70605 C110.832188,2019.68822 114.013346,1990.46004 111.123275,1963.07713 C97.7852848,1836.62613 72.6738939,1712.35827 46.2422188,1588.25675 C37.0678026,1545.20716 27.7894269,1502.18357 18.5422391,1459.14958 C16.5670107,1449.93878 15.9484523,1440.14061 7.74605636,1433.53399 C7.08071626,1416.30272 9.60173148,1398.22418 5.19905128,1382.02731 C-11.9438523,1318.99153 15.2779142,1272.70361 57.9740361,1231.27059 C63.608635,1241.73931 62.2207772,1253.19563 62.3091427,1264.33488 C62.756168,1321.40339 61.5554371,1378.52907 63.6034371,1435.5352 C66.18163,1507.35035 94.3650208,1571.25939 129.773589,1632.44988 C137.497772,1645.80347 147.71698,1657.84197 151.86496,1673.14479 C161.309671,1773.69431 170.827153,1874.23864 180.131518,1974.80375 C181.659721,1991.28132 190.012858,2003.39778 201.01696,2015.18678 C274.791742,2094.25309 348.493752,2173.39738 421.343295,2253.31096 C441.532209,2275.45431 463.90427,2296.28777 473.821995,2326.45679 C527.246726,2488.9921 577.864554,2652.40067 626.439579,2816.43819 C638.665204,2857.72566 657.1076,2897.34978 661.250381,2940.91397 C651.379437,2937.34816 645.251031,2929.74353 639.964696,2921.22406 C639.330544,2918.14686 638.21298,2915.50629 634.491234,2915.26718 L634.719945,2915.83896 Z"/><path fill="#F59F32" d="M661.251421,2940.91189 C657.103441,2897.3477 638.666243,2857.72358 626.440619,2816.43611 C577.865593,2652.40378 527.242568,2488.99002 473.823035,2326.45471 C463.905309,2296.28569 441.533248,2275.45223 421.344335,2253.30888 C348.489593,2173.4005 274.792781,2094.25621 201.018,2015.1847 C190.013898,2003.3957 181.655563,1991.27924 180.132558,1974.80167 C170.822994,1874.24175 161.305512,1773.69223 151.866,1673.14271 C210.332761,1721.08358 219.164111,1789.81114 229.367725,1857.9929 C231.285776,1870.8007 234.383766,1883.49414 235.47534,1896.35911 C239.337431,1941.74778 259.599116,1975.61775 295.548274,2005.29296 C366.937187,2064.22754 434.292477,2128.02222 503.856903,2189.19193 C523.973045,2206.88062 537.732071,2227.47497 546.256741,2252.93463 C617.338974,2465.13134 688.961796,2677.15132 760.511847,2889.19209 C761.296741,2891.52598 763.308355,2893.44403 764.742994,2895.5544 C766.073675,2913.08716 775.741898,2929.19046 773.699096,2947.31578 C761.218771,2947.20663 748.733248,2947.10267 736.252923,2946.99871 C711.718507,2939.29532 685.416781,2953.25187 661.251421,2940.91189"/><g transform="translate(1744.338 1235.855)"><mask id="b" fill="#fff"><use xlink:href="#a"/></mask><path fill="#5E1B29" d="M650.323168,130.723736 C644.511838,132.496244 642.572995,136.665015 642.188345,142.471147 C635.722071,240.166985 608.131249,334.005929 589.382173,429.445848 C574.266477,506.391391 559.202761,583.201787 553.032772,661.602761 C550.267452,696.756629 544.695228,731.671391 541.955898,766.960406 C539.128203,803.444954 511.287878,828.140508 490.610355,855.341482 C424.809259,941.882477 357.693076,1027.42546 291.387777,1113.58181 C264.015269,1149.14631 261.83732,1194.15553 247.83399,1234.71009 C238.269726,1262.38928 232.484386,1291.35756 223.996102,1319.44219 C214.286294,1351.55525 187.563533,1371.78575 165.139492,1393.11302 C104.000975,1451.2627 69.283736,1523.48329 45.3886701,1601.98822 C36.9107817,1629.83894 16.384,1653.87955 18.8478376,1685.13494 C18.8478376,1685.13494 19.107736,1684.63074 19.107736,1684.63594 C17.1584975,1686.59557 15.2040609,1688.55521 13.2548223,1690.51484 C13.2548223,1690.51484 13.831797,1690.07821 13.831797,1690.07821 C10.2763858,1690.1094 6.72617259,1690.14059 3.17076142,1690.17178 C2.18834518,1689.21535 1.13315736,1688.35249 0,1687.57799 C27.7363655,1578.7533 65.6971371,1473.05779 98.3767716,1365.74571 C110.425665,1326.17876 126.762883,1287.84374 133.572223,1246.7226 C151.011411,1215.62835 157.945503,1180.77076 169.308264,1147.48816 C181.476711,1111.83009 187.558335,1073.45868 214.73332,1044.29807 C234.745503,1022.82526 254.217096,1000.85344 274.114924,979.27667 C337.904406,910.107289 401.719878,840.958701 465.722477,771.981645 C471.923655,765.297056 475.297137,758.316183 476.092426,749.126173 C484.601503,650.458315 494.139777,551.863228 496.328122,452.758741 C502.898355,431.805726 519.100426,416.617259 529.210477,397.733036 C572.213279,317.393218 596.971208,232.536365 595.266274,140.67265 C594.55935,102.73267 595.011574,64.7615025 595.32865,26.8059289 C595.401421,17.6782944 592.272244,7.57863959 600.713746,0 C616.468792,20.142132 633.975553,39.1926904 647.490274,60.7486701 C661.077766,82.424203 650.978112,107.249706 650.323168,130.723736" mask="url(#b)"/></g><path fill="#B9222A" d="M437.082747,437.201218 C436.765671,377.715655 436.583742,318.230091 435.991173,258.749726 C435.892412,248.603289 438.397833,237.994234 432.815214,228.341604 C559.915965,137.590254 700.952473,78.0371168 852.135417,41.3706396 C895.564452,30.8343553 939.279376,21.5195939 983.748006,16.3684061 C989.886808,71.2329746 980.743579,126.154721 984.35097,181.034883 C978.570828,182.755411 972.905041,185.032122 967.02094,186.097706 C872.625813,203.240609 781.822483,231.78266 694.195112,270.798619 C599.753204,312.850193 514.7716,369.352122 437.082747,437.201218"/><path fill="#F59F32" d="M1877.91052 2482.57676C1871.10118 2523.6979 1854.76396 2562.03293 1842.71507 2601.59987 1810.03544 2708.91195 1772.07467 2814.60746 1744.35389 2923.43215 1741.5106 2929.30586 1738.53737 2935.15358 1741.19353 2941.96292 1717.59994 2950.50318 1692.86801 2941.7394 1669.04051 2946.68787 1655.55698 2945.0817 1642.41132 2946.3604 1629.67109 2951.25689 1625.61668 2933.19394 1634.70792 2917.38692 1638.32571 2900.64945 1671.73826 2817.37278 1696.32466 2731.0657 1725.52685 2646.34399 1756.17927 2557.41713 1785.62577 2468.07963 1815.59207 2378.93965 1843.93659 2408.94233 1858.10626 2447.45408 1877.91052 2482.57676M984.362406 181.028646C980.739421 126.153681 989.887847 71.231935 983.743847 16.3725645 998.168213 15.1458437 1011.98961 8.74194518 1026.84021 11.4864731 1077.54641 14.911935 1128.23181 17.9371533 1178.31424 28.0679959 1258.86718 44.3636305 1333.38007 75.0212548 1402.79895 118.611427 1406.62986 138.462473 1404.59745 158.422676 1403.87493 178.346493 1312.29711 165.304788 1220.18909 162.315955 1128.0031 166.765417 1080.00505 169.083712 1032.23571 176.121762 984.362406 181.028646"/><g transform="translate(1026.835)"><mask id="d" fill="#fff"><use xlink:href="#c"/></mask><path fill="#F59F32" d="M375.963939,118.612467 C306.545056,75.0222944 232.032162,44.3594721 151.47403,28.0638376 C101.396792,17.9329949 50.7113909,14.9129746 0,11.4823147 C117.947127,-4.87049746 235.899452,-2.67175635 353.841381,11.2328122 C361.508386,12.1372589 369.02465,14.341198 376.603289,15.9369746 C376.384975,50.1656041 376.171858,84.3890355 375.963939,118.612467" mask="url(#d)"/></g><path fill="#5E1B29" d="M1741.19353,2941.96499 C1738.53737,2935.15046 1741.5106,2929.30794 1744.35389,2923.43423 C1745.47146,2924.20873 1746.52665,2925.07159 1747.50906,2926.02282 C1747.52985,2929.42229 1747.56104,2932.82696 1747.58703,2936.23163 C1745.45586,2938.14449 1743.3247,2940.05214 1741.19353,2941.96499"/><path fill="#1C1C23" d="M1747.58859 2936.23111C1747.5626 2932.82644 1747.53141 2929.42177 1747.50542 2926.0223 1751.06603 2925.99631 1754.61625 2925.96512 1758.17166 2925.93394 1754.64224 2929.3646 1751.11801 2932.80045 1747.58859 2936.23111M634.492793 2915.26666C638.21454 2915.50577 639.332103 2918.14634 639.966255 2921.22354 638.141768 2919.23791 636.317281 2917.25229 634.492793 2915.26666"/><path fill="#1C1C23" d="M1757.59364,2926.36901 C1759.54288,2924.40937 1761.49212,2922.45494 1763.44656,2920.4901 C1761.49732,2922.44454 1759.54288,2924.40937 1757.59364,2926.36901"/><path fill="#13827D" d="M1638.32779,2900.64737 C1634.71,2917.39003 1625.61356,2933.19186 1629.67317,2951.25481 C1598.17348,2982.21391 1560.82606,3005.88027 1526.86253,3033.76218 C1516.56535,3042.21408 1511.5753,3034.29237 1505.09344,3029.0944 C1454.63155,2988.6386 1403.94615,2948.46869 1353.80653,2907.62305 C1338.98192,2895.54297 1323.29965,2889.72124 1304.01518,2889.92396 C1237.47597,2890.62049 1170.92637,2890.54772 1104.38196,2890.18386 C1088.94919,2890.10069 1076.30773,2893.98358 1064.01973,2903.93249 C1013.72937,2944.65338 962.295465,2983.97602 912.197435,3024.93602 C895.537943,3038.5547 883.38509,3040.57152 866.195405,3024.96721 C841.972867,3002.9798 815.016196,2983.99162 789.000359,2964.02102 C782.814775,2959.27008 775.78712,2955.63669 773.707932,2947.29915 C775.740339,2929.18943 766.077313,2913.09131 764.746633,2895.55336 C772.704724,2868.18605 781.260582,2840.96429 788.40779,2813.37866 C793.460217,2793.89148 793.22111,2774.18078 786.583303,2754.62082 C730.746714,2590.03751 674.374735,2425.63093 620.029963,2260.55901 C609.00507,2227.06329 590.729009,2201.20339 566.054247,2177.25635 C494.608156,2107.92063 424.752643,2036.94236 353.166207,1967.75738 C332.732988,1948.0155 320.720481,1926.09046 317.274227,1898.23974 C314.004704,1871.82886 305.84909,1845.99495 307.683973,1813.54402 C347.380867,1835.80693 387.737902,1849.26447 427.855831,1863.44973 C619.359425,1931.16888 810.696684,1999.35584 1002.07553,2067.41805 C1057.45989,2087.11316 1113.20812,2105.87263 1167.94273,2127.23109 C1189.80539,2135.76616 1209.16263,2135.31913 1230.55748,2127.78727 C1408.22927,2065.23491 1586.083,2003.21274 1763.83276,1940.90467 C1859.2415,1907.46094 1955.87175,1877.48425 2049.97059,1840.31357 C2064.25981,1834.66857 2078.21636,1828.17111 2091.22688,1822.54171 C2100.42208,1906.94634 2062.43532,1967.29996 1999.97652,2019.29005 C1932.14302,2075.7556 1873.46314,2142.3208 1810.82241,2204.5093 C1801.45047,2213.81367 1797.11536,2226.26281 1792.931,2238.68595 C1737.49985,2403.38882 1683.43577,2568.58029 1625.41603,2732.36831 C1609.02684,2778.62504 1613.84535,2819.72538 1629.67317,2862.91012 C1634.08105,2874.93302 1635.52608,2888.0371 1638.32779,2900.64737"/><path fill="#F59F32" d="M1877.91052,2482.57676 C1858.10626,2447.45408 1843.93659,2408.94233 1815.59207,2378.93965 C1829.34589,2328.06192 1849.28011,2279.34655 1867.44181,2230.02822 C1872.69176,2215.77018 1884.93298,2206.58017 1895.74476,2196.77161 C1970.55393,2128.87053 2044.74455,2060.25733 2120.95718,1993.95723 C2147.11856,1971.20052 2159.08949,1944.96117 2162.59292,1911.81892 C2167.12035,1868.99284 2175.59824,1826.52543 2178.7794,1783.64218 C2180.92096,1754.74667 2198.94752,1737.36466 2215.26394,1717.8151 C2223.52872,1707.91297 2232.18853,1698.33831 2240.66642,1688.6181 C2238.47808,1787.71739 2228.9346,1886.31248 2220.43073,1984.98554 C2219.63544,1994.17035 2216.26195,2001.15122 2210.06078,2007.83581 C2146.05818,2076.81286 2082.24271,2145.96145 2018.45322,2215.13603 C1998.5554,2236.70761 1979.0838,2258.67942 1959.07162,2280.15224 C1931.89664,2309.31284 1925.81501,2347.68426 1913.64137,2383.34233 C1902.2838,2416.62493 1895.34971,2451.48251 1877.91052,2482.57676"/><path fill="#B9222A" d="M1721.75416,1304.54689 C1721.19278,1305.82559 1720.68858,1307.13028 1720.25195,1308.46096 C1718.44825,1310.07753 1716.63936,1311.6889 1714.83566,1313.30027 C1560.69508,1387.64683 1406.15424,1461.1877 1252.70498,1536.93252 C1215.92935,1555.08902 1186.78433,1557.23059 1147.56046,1537.2392 C976.708395,1450.14202 803.361309,1367.95172 630.960253,1283.89536 C626.36005,1281.65503 622.217269,1278.46348 617.876964,1275.70856 C620.423969,1226.36943 618.292802,1177.19144 614.227989,1127.99786 C601.508558,974.200333 565.699746,826.245328 496.769472,687.932556 C484.933695,664.183034 491.415563,655.195744 504.961472,640.516678 C635.331746,499.163094 797.898243,416.00078 983.684071,374.505389 C983.777634,572.641592 983.824416,770.772597 984.099908,968.9088 C984.115502,979.850526 980.908355,991.582343 988.96001,1001.44809 C974.95668,1038.43164 991.054791,1064.62941 1029.23908,1064.78015 C1139.14494,1065.22198 1249.05081,1065.25317 1358.95668,1064.76456 C1398.02462,1064.58783 1413.03635,1039.71554 1398.61719,1001.58324 C1406.09707,994.872658 1404.58446,985.885369 1404.57926,977.386688 C1404.51168,774.551521 1404.39733,571.716353 1404.28817,368.881186 L1404.25698,368.881186 C1440.97024,374.183115 1476.72708,383.586242 1512.48391,393.270059 C1592.92249,415.049551 1667.74206,450.120252 1741.22056,488.507257 C1752.53654,526.852678 1752.35461,566.840658 1756.61175,606.038546 C1768.96212,719.738932 1762.18397,833.891541 1756.18551,947.550343 C1750.46775,1055.74088 1740.04582,1163.83786 1721.99327,1270.94722 C1720.15319,1281.84736 1721.74896,1293.32967 1721.75416,1304.54689"/><path fill="#F5F1EF" d="M983.68563,374.505389 C797.899803,416.00078 635.333305,499.163094 504.957833,640.516678 C491.417122,655.195744 484.935254,664.183034 496.771031,687.932556 C565.701305,826.245328 601.510117,974.200333 614.224351,1127.99786 C618.294361,1177.19144 620.425528,1226.36943 617.878523,1275.70856 C573.919295,1253.68996 529.507843,1232.52902 486.182767,1209.33568 C456.289244,1193.33114 436.79166,1168.30291 436.776067,1132.68123 C436.677305,900.851785 436.942402,669.017145 437.087945,437.192902 C514.7716,369.349003 599.753204,312.852272 694.195112,270.800698 C781.822483,231.784739 872.625813,203.242688 967.02094,186.099785 C972.905041,185.029003 978.570828,182.75749 984.35097,181.031764 C1032.23467,176.124881 1080.00401,169.08683 1128.00206,166.768536 C1220.18805,162.313876 1312.30126,165.302709 1403.87389,178.344414 C1404.59641,179.602323 1405.52165,180.678303 1406.62362,181.561957 C1404.51844,243.979176 1409.38894,306.495155 1404.25335,368.891582 C1404.25335,368.891582 1404.28453,368.881186 1404.28453,368.881186 C1263.71065,342.766587 1123.50061,343.660638 983.68563,374.505389"/><path fill="#F5F1EF" d="M1404.25491,368.890542 C1409.3905,306.499314 1404.5148,243.978136 1406.62518,181.560918 C1482.96256,192.149182 1555.92126,214.490055 1626.7384,244.347192 C1636.59895,248.50037 1643.95927,255.663172 1650.39955,263.865568 C1702.31168,329.988938 1728.14559,406.669385 1741.22368,488.501019 C1667.73998,450.119212 1592.92041,415.048512 1512.48183,393.269019 C1476.73019,383.5904 1440.96816,374.182075 1404.25491,368.890542"/><path fill="#5E1B29" d="M1714.83514,1313.29923 C1716.64404,1311.68786 1718.44773,1310.07649 1720.25143,1308.45992 C1718.44254,1310.07129 1716.63884,1311.68266 1714.83514,1313.29923"/><path fill="#F59F32" d="M983.68563,374.505389 C1123.50061,343.660638 1263.71065,342.766587 1404.28453,368.881186 C1404.39369,571.716353 1404.51324,774.551521 1404.58082,977.386688 C1404.58602,985.885369 1406.09862,994.872658 1398.60835,1001.58324 C1262.05769,1001.53645 1125.50703,1001.48967 988.961569,1001.44809 C980.909914,991.582343 984.117061,979.850526 984.101468,968.9088 C983.825975,770.772597 983.779193,572.641592 983.68563,374.505389"/><path fill="#F59F32" d="M988.961569,1001.44549 C1125.50703,1001.49227 1262.05769,1001.53905 1398.60835,1001.58064 C1413.03791,1039.71294 1398.02618,1064.59042 1358.95304,1064.76196 C1249.05237,1065.25057 1139.1465,1065.21938 1029.24064,1064.77755 C991.051153,1064.62681 974.958239,1038.42904 988.961569,1001.44549"/><path fill="#5E1B29" d="M992.968164,15.9390538 C905.694255,22.9147289 821.715859,45.1464447 739.302052,73.1219168 C627.223433,111.171054 521.028915,161.378242 425.713748,232.657998 C423.359068,427.103643 428.988469,621.481714 431.140428,815.885775 C432.206012,911.819501 427.070418,1007.53491 425.427859,1103.35428 C424.466235,1159.47156 448.298925,1196.4811 497.492509,1220.66206 C548.552164,1245.75786 601.301159,1267.48017 650.307616,1296.71875 C657.688732,1301.12143 665.496083,1305.18104 674.644509,1304.54689 C674.649707,1293.33487 676.245484,1281.84736 674.410601,1270.94722 C656.352854,1163.83786 645.930925,1055.74088 640.213159,947.550343 C634.214702,833.891541 627.43655,719.738932 639.786925,606.038546 C644.044062,566.840658 643.862134,526.852678 655.172915,488.502059 C668.256205,406.665226 694.090113,329.98478 746.002235,263.866607 C752.442519,255.659013 759.797646,248.501409 769.658194,244.348231 C840.480529,214.491094 913.43923,192.145023 989.755819,181.577551 C990.87858,180.678303 991.803819,179.602323 992.521139,178.35481 C991.798621,158.420597 989.771413,138.465592 993.597118,118.614546 C993.3892,84.3859168 993.176083,50.1624853 992.968164,15.9390538"/><path fill="#FFF" d="M650.079425,1740.76205 C592.974531,1731.80076 535.895628,1722.67832 478.749151,1713.97692 C459.230775,1711.00888 443.891567,1703.7733 430.985009,1687.69079 C401.221435,1650.58768 369.508623,1614.92961 337.84779,1579.30792 C326.99443,1567.09269 321.739283,1554.43564 322.524176,1538.1556 C323.61575,1515.48205 322.758085,1492.72534 322.784075,1470.00502 C322.830856,1437.68924 323.808075,1436.7744 353.893922,1447.74212 C421.909354,1472.53643 489.737658,1497.81935 557.75309,1522.61887 C590.063669,1534.40266 622.62375,1545.54191 655.08507,1556.97745 C651.134613,1491.561 636.543912,1426.98143 638.768643,1361.07117 C633.892948,1357.76526 629.35512,1353.77842 624.084379,1351.24701 C564.385699,1322.63219 503.974897,1295.36884 444.962349,1265.49611 C378.688237,1231.94841 342.084136,1182.88478 342.96779,1104.59816 C345.878653,846.23308 344.163323,587.816024 343.976196,329.41976 C343.965801,319.683963 347.510816,309.178867 340.25445,300.181182 C302.189719,324.258177 272.010308,356.958603 239.580176,387.179598 C239.772501,392.221628 240.099973,397.263659 240.105171,402.310887 C240.380663,824.744674 240.64576,1247.17326 240.806897,1669.60705 C240.812095,1676.28644 239.59577,1682.97103 238.946024,1689.65042 C275.664481,1727.78792 320.289049,1754.62504 370.407872,1771.91349 C472.828663,1807.23889 575.805638,1841.04128 678.590288,1875.36867 C680.924176,1876.14837 683.710288,1875.64936 686.298877,1875.74813 C688.559993,1866.0903 683.923405,1857.86711 680.877394,1849.13972 C668.454247,1813.6012 653.296968,1778.77481 650.079425,1740.76205"/><path fill="#1C1C23" d="M1750.80665,1736.42279 C1795.18172,1725.07042 1840.72113,1720.75611 1885.95906,1714.97597 C1910.09843,1711.89357 1928.72275,1703.59761 1944.53498,1683.47627 C1975.42651,1644.16403 2009.09376,1607.00894 2042.0125,1569.30807 C2050.32925,1559.78539 2054.88267,1550.15355 2054.45124,1536.99229 C2053.52081,1508.53341 2053.50001,1480.00175 2054.45644,1451.54287 C2055.05421,1433.8074 2050.31366,1431.45792 2033.79971,1437.84102 C1971.25774,1462.00119 1908.14399,1484.67473 1845.20178,1507.7901 C1840.45603,1509.53142 1835.37242,1510.36829 1830.43955,1511.621 C1829.18164,1512.78535 1828.12645,1514.46429 1826.63983,1515.03607 C1625.89425,1592.13235 1425.07069,1669.03111 1224.42387,1746.3821 C1208.76759,1752.41694 1194.74347,1752.12586 1179.41465,1745.98186 C1125.70923,1724.45187 1071.74391,1703.56642 1017.85136,1682.50425 C906.85912,1639.122 795.851283,1595.78133 684.853841,1552.43026 C652.402917,1540.66726 619.842836,1529.20573 587.532257,1517.08407 C519.516826,1491.56204 451.688521,1465.5462 383.67309,1440.02937 C353.587242,1428.74458 352.610024,1429.68541 352.56844,1462.94202 C352.537252,1486.32249 353.394917,1509.73934 352.308542,1533.06783 C351.523648,1549.82608 356.773597,1562.84699 367.632156,1575.41568 C399.292988,1612.07176 431.005801,1648.76423 460.769374,1686.94332 C473.670735,1703.49885 489.015141,1710.94234 508.528318,1713.99875 C565.674795,1722.94965 622.753699,1732.34238 679.858592,1741.55838 C818.841902,1764.69455 957.757638,1788.21016 1096.83971,1810.72257 C1137.59179,1817.31879 1177.69932,1834.23298 1219.43902,1827.57958 C1300.50655,1814.66783 1380.96592,1798.02393 1461.88791,1784.15574 C1558.09713,1767.66259 1653.79175,1748.01426 1750.80665,1736.42279"/></g></g></svg>