<svg width="4096" height="4096" viewBox="0 0 4096 4096" version="1.1" xmlns="http://www.w3.org/2000/svg" xmlns:xlink="http://www.w3.org/1999/xlink"><title>staticdatagen</title><g id="staticdatagen" stroke="none" stroke-width="1" fill="none" fill-rule="evenodd"><g><path d="M467.364103,2279.42975 C470.677662,2282.2109 442.010913,2319.38506 437.914913,2324.97296 C380.838728,2402.70681 308.139979,2477.76707 255.249067,2556.55602 C246.615959,2569.41178 240.650503,2573.07901 259.822933,2571.57831 L1220.24566,1772.79989 L2034.92431,3052.88078 L2880.32821,1792.944 L3757.36583,2545.71825 C3780.608,2555.43434 3743.80176,2508.99993 3740.99233,2505.32246 C3685.08193,2432.24434 3622.62843,2363.78099 3560.31672,2297.40733 C3555.95815,2292.76697 3552.38203,2285.34545 3549.86667,2279.42975 L4096,2279.42975 C4060.58535,2654.21374 3910.57198,3023.69665 3672.72566,3318.62636 C3114.82946,4010.43559 2163.47569,4282.26078 1311.50769,3963.22779 C594.592164,3694.76252 56.0206769,3034.67271 0,2279.42975 L467.364103,2279.42975 Z" id="Fill-1" fill="#007AFF"/><path d="M1978.6815,1261.72275 C2398.61077,1225.27077 2684.14923,1634.05852 2481.34472,1997.84084 C2265.63781,2384.7533 1661.27301,2310.07718 1547.64577,1883.93158 C1471.3709,1597.8575 1670.97213,1288.43304 1978.6815,1261.72275" id="Fill-3" fill="#FF3B2F"/><polygon id="Fill-5" fill="#FF3B2F" points="1486.11282 804.345841 2029.66777 0 2557.37436 804.345841"/></g></g></svg>