<svg height="1597" viewBox="0 0 3021 1597" width="3021" xmlns="http://www.w3.org/2000/svg" xmlns:xlink="http://www.w3.org/1999/xlink"><linearGradient id="a" x1="50%" x2="50%" y1="0%" y2="100%"><stop offset="0" stop-color="#fff"/><stop offset="1" stop-color="#fff"/></linearGradient><mask id="b" fill="#fff"><path d="m0 0h599.748896v210.143618h-599.748896z" fill="#fff" fill-rule="evenodd"/></mask><mask id="c" fill="#fff"><path d="m-0 0h568.738583v176.584702h-568.738583z" fill="#fff" fill-rule="evenodd"/></mask><mask id="d" fill="#fff"><path d="m0 0h644.999994v62.4179726h-644.999994z" fill="#fff" fill-rule="evenodd"/></mask><g fill="none" fill-rule="evenodd"><path d="m0 0h3021v1597h-3021z" fill="url(#a)"/><g transform="translate(1043 509)"><text fill="#211f2b" font-family="SFCompactRounded-Regular, SF Compact Rounded" font-size="201" letter-spacing="-1.511"><tspan x="0" y="191">FrontMatter Gen</tspan></text><text fill="#000" font-family="SFCompactDisplay-Medium, SF Compact Display" font-size="66" font-weight="400" letter-spacing="-.496"><tspan x="29" y="302">Seamlessly handle frontmatter like a pro</tspan>  <tspan font-family="SFCompactDisplay-Thin, SF Compact Display" font-size="54" font-weight="300" letter-spacing="-.406" x="29" y="420">A robust Rust library for parsing and serializing frontmatter in various</tspan> <tspan font-family="SFCompactDisplay-Thin, SF Compact Display" font-size="54" font-weight="300" letter-spacing="-.406" x="29" y="484">formats, including YAML, TOML, and JSON.</tspan></text></g><g fill-rule="nonzero" transform="translate(378 476)"><path d="m599.748896.38311536c-4.936065 15.88433834-12.144236 30.31955534-20.160265 44.27994464-36.288918 63.20139-86.347669 110.98991-152.71179 139.960012-48.327781 21.097367-99.045113 28.661018-151.25962 24.361809-107.166516-8.825752-189.1313265-61.09266-248.2225177-151.8799854-10.6316945-16.3345288-19.35899201-33.760938-26.52764752-52.00261772-1.70133456-4.32944526-1.07238959-5.1133593 3.44437926-5.10239281 66.38058646.16261448 132.76117296.16597411 199.14175996.16933374 130.566999.00559939 261.134-.01343853 391.701001-.01119877 1.417046 0 2.834093.13550514 4.5947.22509532" fill="#22242f" mask="url(#b)" transform="translate(23.5002 434.8564)"/><path d="m284.296028 176.584702c-90.700889 0-181.400682 0-272.1004737 0-2.0119653 0-4.02393063-.00896-6.03479831-.023519-7.41562343-.053754-7.46172411-.08287-3.69683537-6.932039 6.44750918-11.732953 13.72373288-22.919407 21.73756758-33.595197 42.374207-56.4507695 95.4316978-98.552553 162.3259768-119.6252823 99.210856-31.252413 193.070739-18.12073297 279.469997 41.6168765 41.134977 28.4404016 73.989393 65.2518848 99.020964 109.1723488.459909.806312.898964 1.624942 1.33253 2.444692 3.662808 6.917482 3.66171 6.900683-3.919655 6.900683-92.711758-.004479-185.423515-.002239-278.135273-.002239z" fill="#fa6238" mask="url(#c)" transform="translate(37.8849)"/><path d="m322.784657 286.33905c-104.24461-.002239-208.489221-.00112-312.7327333-.00336-8.05883771 0-9.28599386-1.305776-7.74601167-9.57943 3.05362114-16.40956 6.53422237-32.706012 11.59322297-48.648584 1.6299883-5.135757 3.7583029-6.855889 9.1312272-6.843701 84.8581778.189391 169.7174538.133396 254.5756308.133396 114.668851 0 229.337703.039196 344.006556-.127667 5.071075-.007839 7.225732 1.403208 8.755836 6.402339 5.435488 17.759013 10.233252 35.593057 11.909342 54.221094.312825 3.46602-.455519 4.451513-3.468529 4.441433-1.463146-.004478-2.925197.006058-4.388344.006058-103.879098 0-207.757098 0-311.636197-.001578" fill="#f8ebce"/><path d="m322.513541.11088261c105.875697 0 211.751392.03247643 317.62709-.11089729 4.481644-.00556994 5.051316 1.58129605 4.814227 5.49078737-1.049339 17.33905881-3.182044 34.51573521-6.339941 51.58602351-.744197 4.0259584-2.246859 5.2600631-6.359698 5.2578234-192.184948-.1075082-384.370993-.0806311-576.5559402-.0671926-14.2637695.0011198-28.5308317-.1691015-42.7869178.1467038-4.21821208.0929499-5.54635068-1.495036-6.32567168-5.3854893-3.41254784-17.0333323-5.19949795-34.2525642-6.53641763-51.55914648-.36441489-4.72252216 1.23044906-5.42356529 5.38390067-5.41908578 105.69239164.11198772 211.38588064.08735042 317.07936864.08735042z" fill="#22242f" mask="url(#d)" transform="translate(0 329.1487)"/></g></g></svg>