<svg height="2049" viewBox="0 0 3535 2049" width="3535" xmlns="http://www.w3.org/2000/svg"><g fill="none" fill-rule="evenodd" transform="translate(.79 .13)"><path d="m1650.07446 601.601348c14.4601-103.246142 14.29079-207.652354 24.70633-311.230841 8.72874-86.84214 15.38816-173.910023 44.45886-257.3221205 9.88254-28.36839054 24.81294-40.13211746 55.35724-28.74462914 26.58753 9.90761654 58.21039 6.23929014 79.68734 29.87334494-11.17429 15.9148928-13.25614 34.7957999-16.73635 53.0935372-37.71792 198.3592615-48.41564 399.3208395-55.12522 600.4391835-8.76009 262.702333-9.21785 525.392127 3.71222 788.125807 7.43698 151.17894 17.17529 301.8625 45.54995 450.71503 4.90991 25.76608 3.93169 54.25988 23.99775 75.54872-.36997 16.27859-13.58848 19.41391-25.01359 23.18256-20.58653 6.77857-42.06975 11.04261-62.25495 18.77431-28.39347 10.87957-40.50209-1.59901-49.79518-27.00766-28.53143-78.03816-35.62352-159.67566-43.94467-241.27554-11.70729-114.79667-9.13633-230.67816-26.60634-345.01707 3.56173-39.53641-.66469-78.9474-1.74951-118.4211-5.14193-187.27904-7.42444-374.54553.87162-561.818293 2.201-49.581977 1.9878-99.276826 2.8845-148.915239m589.12757-268.763536c-1.89374-14.710929 8.71619-20.091141 19.32612-24.493133 16.24097-6.734671 32.80801-12.710594 49.38759-18.579916 41.90671-14.830072 46.81662-13.15581 60.90049 30.450244 20.91259 64.725581 26.43703 132.178891 33.50404 199.425271 6.835 64.988947 2.16337 131.407602 23.16376 194.722287-9.40597 10.841943-5.63104 23.909964-5.39902 36.012305 2.10066 109.316126 8.97329 218.52565 6.5779 327.93584-1.9439 88.42861-3.63697 176.85095-5.44292 265.27956-16.22842 83.95138-13.37528 169.80902-25.45254 254.19307-6.91025 48.27769-13.97726 96.43623-31.92384 142.18684-8.76636 22.3423-21.54594 33.78623-47.09881 21.27629-19.43899-9.51883-40.37667-15.93997-60.43019-24.25485-8.15183-3.38614-18.86836-5.24852-17.06242-18.29773 2.33895-5.70629 5.14193-11.26208 6.93533-17.1314 37.06578-121.42474 47.44996-247.00064 54.15955-372.60163 14.29707-267.83172 13.88321-535.632083-17.97166-802.410334-7.83204-65.628553-14.35978-132.379551-43.17338-193.712714m-938.8332 1380.205598c-.06271 13.93337-9.81983 19.57695-20.76837 23.99148-14.34096 5.78781-28.76344 11.38122-43.18592 16.95582-48.53478 18.76177-52.54799 17.30071-68.70117-33.39117-29.92351-93.89662-35.41659-191.67476-43.59978-288.876-2.36404-28.03605-6.10761-55.5579-12.75449-82.79131 6.82873-10.7855 2.46436-22.46144 2.10066-33.59183-3.6307-112.60195-8.96075-225.16626-5.52443-337.89362 3.01618-99.000917 5.71255-198.008105 8.54688-297.009022 16.15318-71.485334 14.52908-145.03371 25.2268-217.177462 7.48088-50.466138 15.88981-100.537225 32.08688-149.159793 9.19277-27.609643 23.05716-39.643008 52.35988-24.969702 15.65152 7.838304 32.66378 13.3502 49.55689 18.222489 15.82083 4.565029 25.19544 13.456801 27.22713 29.860804-23.01953 24.135706-22.78751 56.73051-29.03308 86.095933-30.60701 143.886183-40.10076 290.06742-45.96381 436.775392-9.13006 228.345481-5.86305 456.107781 26.85716 682.603421 8.40267 58.1853 16.42282 117.32374 45.56877 170.35457" fill="#fbfafc"/><path d="m2239.20203 332.837812c28.8136 61.333163 35.34134 128.084161 43.17338 193.712714 31.85487 266.778251 32.26873 534.578614 17.97166 802.410334-6.70959 125.60099-17.09377 251.17689-54.15955 372.60163-1.7934 5.86932-4.59638 11.42511-6.93533 17.1314-11.7261-19.61458-11.59442-41.50539-12.91125-63.35231-5.42411-90.13423-3.62443-180.95823-24.95089-269.6314-11.16175-46.42157-31.10239-87.7263-68.70744-118.84123 4.04456-19.30104 11.31224-38.54564 11.61323-57.89685 1.95644-127.00561 2.54588-254.055114-6.33962-380.860064-1.27921-18.297737-6.37097-37.335411-24.5433-48.359202 68.13681-33.215597 81.70021-98.336229 93.94678-163.287553 14.13403-74.978082 12.68551-151.436036 18.57365-227.20422 1.51122-19.438994 1.96271-39.241686 13.26868-56.423249" fill="#9d57f2"/><path d="m1942.12152 690.850788c24.21095 28.694464 42.50242 62.932177 76.92825 82.06391-2.06304 20.950219 11.51917 40.828159 5.43665 61.728213-16.8743 58.053616-1.63037 116.96631-5.17955 175.465139-2.92839 48.21498-2.65248 96.79365-3.82509 145.19048-.85908 35.21593-15.16869 71.98071 5.17955 106.39401-40.33905 30.23077-73.73023 66.3873-95.80289 112.21316-8.80398 4.76569-6.95414 20.25418-20.56771 20.90632-8.83534-15.20631 4.23268-25.64693 6.94787-38.08161 1.66799-7.65646 9.62544-15.9776 2.55842-23.27036-6.91025-7.12972-15.68915-2.17592-23.16375 1.44225-9.569 4.62773-18.605 7.98253-29.81691 3.93169-14.7172-5.31751-20.34197 3.61189-23.32052 16.8743-5.47428 24.36772-11.83898 48.53478-18.14725 72.70811-2.11947 8.10794 4.49605 23.03207-9.06108 22.51161-12.89871-.49538-16.75516-14.1403-16.23469-26.50601 1.72443-40.70275-5.68748-81.07315-5.77526-121.45609-.50793-240.89931-4.28285-481.842506 5.94457-722.654023.33234-7.756786-5.58715-19.20071 8.53434-22.969366 6.70332 13.312575 3.68087 27.126803 3.45513 40.35786-.5769 33.867745 6.01354 66.305783 17.94031 97.659 9.27428 24.373991 25.59049 40.069411 53.96515 34.538703 12.79839-2.495716 19.56441 4.063377 26.04826 12.685512 5.35512 7.11718 8.60959 18.974967 21.06309 12.165048 11.45646-6.264373 15.53865-17.971664 11.82016-29.660143-4.70298-14.779906-12.23403-28.669381-18.71787-42.859847-4.7218-10.340291-8.78517-20.247908 7.81322-23.364417 1.24159 1.222775 1.39835 2.570963.4703 4.038294-.11914 12.252837 2.50199 22.981908 15.5073 27.948257" fill="#f628bb"/><path d="m2872.33948 1249.65227c-16.61093 47.51894-12.96769 97.659-18.51094 146.57629-6.42114 56.58629-11.41884 113.32307-30.93935 167.35093-13.90829 38.48921-17.90269 41.08526-55.40741 25.50271-20.78091-8.62841-52.98066-2.80298-56.39189-37.97502 11.9393-10.50333 13.16208-25.82878 16.76143-39.63046 13.68881-52.49783 21.53966-105.96134 27.15815-159.97666 24.84429-238.6795 23.24528-477.051732-9.18022-714.796904-6.06371-44.421238-9.40596-90.955682-34.43837-131.012552 9.15514-16.360108 74.62692-50.046004 89.53224-44.596815 12.91753 4.721794 15.98387 18.742953 20.17893 29.910969 20.60534 54.849317 26.39941 112.601942 32.54464 170.385921 5.34886 50.309371 1.90628 102.067262 22.66211 150.050224-10.8733 2.351492-7.29903 10.277585-6.99804 17.332059 5.34259 126.046202 4.00694 252.123758 1.89373 378.213858-.23201 14.17165-8.10167 28.71954 1.13499 42.66545" fill="#fbfafc"/><path d="m972.009726 1208.86048c-62.555938.48284-98.154381 25.83505-118.232981 86.04577-21.031737 63.05132-22.448903 128.80529-25.352211 194.35859-.990761 22.29214 3.611891 46.0328-12.37825 65.65364-2.269972-4.58384-5.091762-8.98583-6.740941-13.78288-34.871048-101.81643-43.248627-207.93453-49.444023-314.17804-9.982864-171.26381-7.487148-342.40848 12.528745-512.926084 8.47791-72.244083 18.372985-144.513247 42.721894-213.728608 21.602366 49.080325 11.788809 102.092344 18.71787 153.035051 5.317506 39.128814 10.402997 77.950367 26.048252 114.520759 13.958453 32.619887 35.103062 58.392231 69.754637 70.732857 20.128765 36.557851 13.425448 75.605147 12.202672 114.664984-1.799675 57.319951 3.373606 115.103931-2.006606 171.972391-3.436312 36.36973 3.50529 62.58729 32.180942 83.63157" fill="#fb7722"/><path d="m815.110077 500.300359c-24.348908 69.215362-34.237712 141.484526-42.721893 213.734879-20.015893 170.511334-22.511609 341.656002-12.522475 512.926082 6.189125 106.23724 14.566705 212.35534 49.444023 314.17178 1.642909 4.80331 4.464698 9.2053 6.734671 13.78914-19.545595 31.88622-55.971762 31.2717-85.688341 42.32684-10.735342 3.9944-15.707962-14.4601-19.890481-24.35518-20.448568-48.36547-26.117229-100.04184-32.644969-151.54263-7.167346-56.58002-4.759418-114.33264-20.711935-169.85292 5.279882-17.40731 2.92212-35.27237 1.881193-52.74238-6.490116-109.29104-4.753148-218.494298.313532-327.7728 1.247858-26.813271 9.525107-53.614 1.956441-80.659285 15.98387-58.686951 13.143268-119.775559 22.875307-179.283964 6.878895-42.013311 13.030397-84.001538 29.92351-123.613193 8.233354-19.30104 18.937343-29.265092 40.45192-18.046911 20.103683 10.478245 47.581642 6.483845 60.599497 30.920542" fill="#fbfafc"/><path d="m1892.97096 1419.1045c-1.64291 4.11981-3.71222 6.78483-3.24192 8.87296.43895 1.93762 3.58054 3.267 5.53071 4.87229 1.22277-2.31387 3.49902-4.69672 3.36106-6.92279-.13168-1.96272-2.95974-3.74985-5.64985-6.82246m25.35848-736.875846c6.48385 14.190466 14.02116 28.079941 18.71788 42.859847 3.71849 11.688479-.3637 23.39577-11.82017 29.660143-12.44722 6.809919-15.70796-5.047868-21.06309-12.165048-6.47757-8.622135-13.24987-15.181228-26.04825-12.685512-28.37466 5.530708-44.68461-10.164712-53.95889-34.538703-11.93303-31.353217-18.52348-63.791255-17.94658-97.659.22574-13.231057 3.24819-27.045285-3.45512-40.35786-14.12149 3.768656-8.202 15.21258-8.53435 22.969366-10.22742 240.811517-6.45249 481.754713-5.94457 722.654023.08779 40.38294 7.49969 80.75334 5.77526 121.45609-.52046 12.36571 3.34226 26.01063 16.24097 26.50601 13.55713.52046 6.9416-14.40367 9.05481-22.51161 6.31454-24.17333 12.67297-48.34039 18.14724-72.70811 2.97856-13.26241 8.60332-22.19181 23.32052-16.8743 11.21818 4.05084 20.24791.69604 29.81691-3.93169 7.48088-3.61189 16.25978-8.57197 23.16376-1.44225 7.06701 7.29276-.89043 15.6139-2.55842 23.27036-2.71519 12.43468-11.78804 14.316-2.95271 29.52231 13.61357-.65215 7.76856-7.58133 16.57254-12.34702-10.15844 40.00043-21.72777 79.70615-30.19941 120.05774-21.15088 100.68772-19.89048 203.05597-20.42349 305.22983-.27591 53.18133.52046 106.40028-5.08549 159.4123-1.63037 15.36307-1.04093 31.44727-13.46934 43.48691-20.05979-21.28257-19.08784-49.7701-23.99776-75.53617-28.36839-148.8588-38.10669-299.54236-45.54995-450.7213-12.92379-262.73369-12.46604-525.423482-3.70595-788.125814 6.70959-201.118344 17.40104-402.079922 55.11896-600.4391835 3.4802-18.2977373 5.56206-37.1723738 16.73634-53.0935373 19.3951 44.2393889 16.18453 91.5952878 18.0281 137.9541538 3.75612 94.54249-1.38581 189.310723 8.76636 283.746612 7.46834 69.466187 25.14528 136.411575 45.06712 202.986996-16.59213 3.116509-12.53502 13.024126-7.81323 23.364417z" fill="#ee2eac"/><path d="m1300.36883 1713.04341c-29.14595-53.03083-37.1661-112.16927-45.56877-170.35457-32.72021-226.49564-35.98722-454.25794-26.85716-682.603421 5.86305-146.707972 15.3568-292.889209 45.96381-436.775392 6.24557-29.365423 6.01355-61.960227 29.03308-86.095933 13.43799 23.615243 10.65383 50.422243 12.99905 75.749372 4.10727 44.327178 4.35182 89.011782 6.20793 133.545891-1.58647 5.894405-5.8944 12.654158-4.33928 17.551531 12.94888 40.947301-23.35188 83.681735 4.74688 124.227715 2.35149 3.398689-.50166 13.168351-4.03203 17.407306-16.39773 19.702362-14.17792 42.841036-13.51323 65.584659 1.74951 60.003786 5.33004 119.98249 5.85678 179.992547.97195 111.611185.51419 223.241175.09406 334.864895-.07525 18.72414.99076 33.88656 25.86013 31.32814 11.05514-1.13499 17.73338 4.53367 19.0314 15.87726l.55182 1.54258s-1.31684.96568-1.31684.97195c-18.95615 4.75315-10.60993 20.24164-12.47858 31.71692 0 0 .06898-.17558.06898-.17558-5.18582 3.24819-6.14523 8.30233-5.90068 13.85812.50793 1.81849.22575 3.51156-.84026 5.07295-5.70629 3.63697-6.02609 7.70662-.95941 12.1964-17.78981 91.38209-14.1403 184.57012-23.43966 276.66079-1.34192 13.28122-1.24159 27.07036-11.16802 37.85587" fill="#f75997"/><path d="m2711.39088 505.688096c25.03241 40.05687 28.37466 86.591314 34.43837 131.012552 32.4255 237.745172 34.02451 476.117412 9.18022 714.796902-5.61849 54.0216-13.46934 107.47883-27.15815 159.97666-3.59935 13.80168-4.82213 29.12714-16.76143 39.63046-14.93668-41.0539-9.19277-84.48437-14.07133-126.69835-3.57426-30.99579-6.52147-61.94141-12.22775-92.71146-7.78814-42.00704-24.24231-78.64014-57.32622-106.72635-2.75282-2.18845-5.49936-4.37691-8.2459-6.56536 0 0-.34488 1.25413-.33861 1.24159 8.76636-26.54364-12.32182-52.99948.10033-79.72496 8.9921-19.33867 9.14259-40.14466 8.93566-61.10742-.80891-81.179752 8.95448-163.682606-31.5915-239.607556 70.81438-27.145615 81.66259-91.0372 93.62071-153.80634 11.31224-59.370451 5.19836-120.879192 21.4456-179.710368" fill="#4bccfb"/><path d="m2872.33948 1249.65227c-9.23666-13.94591-1.367-28.4938-1.13499-42.66545 2.11321-126.0901 3.44886-252.167656-1.89373-378.213858-.30099-7.054474-3.87526-14.980567 6.99804-17.332059 11.93303 24.486863 26.20502 47.399794 44.78493 67.403146 57.77771 62.204782 135.28913 46.992201 164.96182-32.369061 15.53238-41.549283 16.62974-85.613094 22.60567-128.84918 1.34191-9.706956-2.38285-21.470683 8.6723-28.387202 15.6139 15.256475 14.54162 36.300754 17.4073 55.181661 26.72548 175.973065 28.25552 352.504213 6.13896 528.935033-4.8911 38.99087-1.39835 81.16094-27.72251 115.46763-15.75186-33.17797-5.59969-69.96157-14.56044-104.19928-5.73763-21.94098-7.85084-44.90408-14.41621-66.55661-19.72117-65.01403-88.91145-87.64478-144.73898-48.89847-29.96114 20.78718-46.57207 52.13412-67.10216 80.4837" fill="#44fafc"/><path d="m2596.32332 839.20355c40.54598 75.92495 30.78259 158.427804 31.5915 239.60755.20693 20.96276.05644 41.76876-8.93567 61.10742-12.42214 26.72548 8.66603 53.18133-.09406 79.72496-54.14073-21.72151-98.49299-5.29242-137.58418 34.31296-25.80997 26.15486-40.94103 59.15725-60.07904 89.62631 1.79968-88.41607 3.49902-176.84469 5.43665-265.26703 2.40166-109.416454-4.47097-218.625978-6.57163-327.942104-.23202-12.102342-4.00694-25.170362 5.39275-36.012305 13.02413 21.194775 24.61855 43.461829 39.3671 63.396205 32.4255 43.819255 75.04706 67.94242 131.47658 61.446034" fill="#85b3fb"/><path d="m1505.30161 784.911066c32.30008-12.014553 57.84668-33.453883 81.12958-58.053617 4.15744 3.649515 7.12972 8.245896 5.38648 13.695086-11.51917 35.937057 2.1571 72.087315 1.95017 108.011831-.21947 38.420232 5.64358 78.314065 5.55064 117.687435-.25821 101.772539-19.71602 202.792609-12.36056 304.891219 1.02212 14.15911-4.90991 21.74032-19.48916 21.74659 0 0 .13796.10033.13796.10033-2.23235-2.16964-4.47097-4.33301-6.70959-6.49638 0 0 .45776.43267.45776.43267-2.37031-2.09439-4.74688-4.18252-7.11718-6.27064 0 0 .1693.3198.1693.31353.11288-21.99115-15.85845-19.48289-30.03011-19.7149-12.62907-4.10727-25.25188-8.21455-37.88095-12.31555-13.06175-10.43435-25.77235-10.44689-38.09416 1.26667 0 0-1.64291.13169-1.64918.11915-27.52813-21.07564-25.42119-51.27505-21.67761-79.85665 15.35053-117.1607 22.12282-234.453082 3.56799-351.626323-3.8439-24.261119 2.18219-29.973675 23.32052-28.932749l1.65545-.997032s1.55512 1.147528 1.55512 1.147528c8.57824 9.111245 17.06242 9.16768 25.44-.269638l1.4109-1.034656s1.27294 1.197693 1.28548 1.191422c7.80068.344886 15.85846 1.84984 21.99115-5.035326" fill="#f657a9"/><path d="m972.009726 1208.86048c-28.675652-21.04428-35.617254-47.26184-32.180942-83.63157 5.380212-56.86846.206931-114.65244 2.006606-171.972391 1.222776-39.059837 7.926093-78.107133-12.202672-114.664984 57.257245 8.684841 98.292332-17.827439 132.216512-60.442731 23.59643-29.641331 36.65191-65.051654 54.63612-97.734247-2.8406 99.025999-5.53071 198.033187-8.55316 297.034104-3.43631 112.727359 1.90001 225.285409 5.53071 337.893619.35743 11.12412 4.72806 22.80633-2.10067 33.59183-13.67627-12.22148-16.1908-30.70734-25.51524-45.51232-27.76014-44.10144-61.00709-80.92893-113.837264-94.56131" fill="#f94542"/><path d="m1451.96477 789.907514c-21.14461-1.040927-27.16443 4.67163-23.32052 28.939019 18.55483 117.166971 11.78253 234.459357-3.568 351.620057-3.74357 28.58786-5.85051 58.78728 21.67761 79.85664-42.9978 13.77033-68.88301 46.27108-90.89924 83.01705-1.3043-11.33732-7.98253-17.00599-19.03768-15.871-24.8631 2.55215-25.92911-12.60399-25.86013-31.32813.42013-111.62373.88416-223.25372-.09406-334.87117-.52046-60.003787-4.101-119.98249-5.85678-179.986277-.66469-22.743623-2.87822-45.888568 13.51951-65.590929 3.5241-4.238955 6.38351-14.008617 4.02575-17.401035-28.09248-40.54598 8.20827-83.280415-4.74688-124.227716-1.54885-4.903643 2.75282-11.657126 4.34556-17.55153 5.80034 50.284289 12.20894 100.342834 31.81724 147.773981 19.0753 46.145664 48.13346 81.361597 97.99762 95.62104" fill="#f464a0"/><path d="m3113.15789 1388.82042c26.32417-34.30669 22.83142-76.47049 27.72252-115.46135 22.11656-176.43082 20.58652-352.968247-6.13896-528.941311-2.86568-18.874636-1.7934-39.925186-17.40731-55.175391 1.03466-28.431097 15.6578-40.276342 58.82491-47.845009 25.21426-4.420803 24.89445 17.263082 29.96113 31.052226 21.34527 58.103782 18.78058 120.245857 28.81988 180.299809 1.86865 11.161745 4.34556 22.22316 6.54028 33.328469-5.44292 9.625438-4.67163 20.17893-3.48021 30.374996 6.79111 57.827873 3.63071 115.837591 4.13863 173.790881.23828 26.74429-7.54359 53.53875.33861 80.22034-15.18122 47.04864-11.68848 96.55537-18.84328 144.68255-4.57757 30.81395-10.21488 61.25165-21.14461 90.3976-6.95414 18.53602-18.14097 30.82021-39.99416 17.80863-17.30071-10.30267-45.49979-4.99144-49.33743-34.53244m-2823.930301-497.902874c19.58949-47.776032 14.409939-99.659335 24.511945-149.065734 5.173281-25.276964 10.998709-50.152606 18.780577-74.777422 6.991767-22.104018 18.410609-30.713611 40.777994-20.285531 14.497727 6.759753 32.820547 6.251831 42.201429 22.542962-4.521133 17.05615-9.995405 33.942993-13.412906 51.231157-31.177638 157.568726-33.942992 316.736462-22.693458 476.161302 4.728065 67.03318 9.343259 134.92543 35.980952 198.3718-15.143604 25.17664-42.997802 26.37433-66.819976 32.17467-14.792448 3.60562-17.162751-15.73931-20.774641-26.45584-17.664403-52.44139-21.558472-107.35969-25.452542-162.00207-1.780863-25.04495-5.217175-49.23082-14.271984-72.5827.664688-72.71438 2.04423-145.44757 1.492413-218.161951-.144225-19.031403 12.923796-38.288548-.319803-57.150643" fill="#fbfafc"/><path d="m415.37663 1395.09357c-26.637693-63.44009-31.259157-131.33862-35.987222-198.3718-11.243264-159.41856-8.47791-318.592574 22.699729-476.15503 3.4175-17.294434 8.885501-34.181277 13.412906-51.237427 20.323155 38.683599 6.552822 82.176781 17.325787 122.252463 4.847208 18.015558 6.828731 36.909007 12.748218 54.516973 16.6611 49.538083 41.555554 67.472123 94.329288 70.494573-7.273946 10.898378-1.373271 21.05055 0 32.243648 5.580873 45.61893 22.963096 92.44182 4.019482 137.17032-10.848213 25.62185-6.866354 43.26117 8.753819 62.23614-80.558956-9.50003-110.81481 52.8239-118.740903 118.55278-3.749845 31.04596-4.847207 62.40544-7.355465 93.60817-.990761 12.38452-1.009573 25.22052-11.205639 34.68919" fill="#fa8619"/><path d="m2020.6607 1261.69065c-20.34824-34.40702-6.03863-71.1718-5.17955-106.38773 1.17261-48.4031.8967-96.98177 3.82509-145.19675 3.54919-58.492559-11.69475-117.411524 5.18582-175.46514 6.07626-20.900055-7.50596-40.777994-5.44291-61.728213 30.53803 14.892778 61.94141 17.965393 94.36691 6.841271 18.17232 11.017521 23.26408 30.061465 24.5433 48.359202 8.8855 126.80495 8.29606 253.85445 6.33334 380.86007-.29472 19.3512-7.56866 38.59581-11.61323 57.89057-36.43871-21.1885-73.88699-20.51754-112.01877-5.17328" fill="#db47ec"/><path d="m3242.478 1170.46533c-7.8822-26.68158-.10033-53.47604-.33862-80.22034-.50792-57.95955 2.65249-115.963003-4.13862-173.790876-1.19769-10.196067-1.96271-20.749559 3.48021-30.374997 16.27859 23.87861 28.90766 50.516303 55.70839 65.860567 50.9866 29.189845 102.75704 9.74458 120.70989-47.136426 7.39309-23.414582 11.8766-47.744678 17.68321-71.6421 10.99871 9.079891 9.89508 22.768706 11.33105 34.494809 14.28453 116.891063 13.04921 233.894993 1.06601 350.917743-.7901 7.7317-1.73696 14.54789-10.96108 16.20334-10.45943-15.33799-8.47791-33.84266-12.09607-50.77967-7.86339-36.77732-23.63406-67.57872-61.32062-78.79063-40.25753-11.9832-72.82098 4.28285-98.29861 36.15653-7.69408 9.63171-15.21885 19.3951-22.82514 29.10205" fill="#44fafc"/><path d="m1567.47127 1292.88836c14.57925-.00627 20.50501-7.58748 19.48916-21.74659-7.36173-102.09862 12.09607-203.11868 12.35317-304.891223.10033-39.37337-5.76899-79.267203-5.54325-117.687435.20693-35.924516-13.47561-72.074775-1.95644-108.011832 1.74951-5.449189-1.22905-10.04557-5.38648-13.695085 26.62515-39.003401 45.55622-81.907143 63.64703-125.243559-.8967 49.632142-.6835 99.32072-2.8845 148.902697-8.29606 187.279034-6.01355 374.539257-.87162 561.824557 1.08482 39.46743 5.31124 78.87843 1.74951 118.41483-22.83768-48.3153-44.84137-97.10718-80.59658-137.86636" fill="#ee2eac"/><path d="m3437.02157 1234.77956c9.22412-1.65545 10.16472-8.47164 10.95482-16.20961 11.9832-117.01648 13.22479-234.026683-1.06601-350.911475-1.42971-11.732373-.33235-25.414917-11.32478-34.501079-2.04423-40.633769 33.43507-34.043323 54.96219-39.918916 21.08817-5.756451 22.35484 18.297737 26.04198 31.635396 16.25978 58.831176 15.44459 119.737934 16.7238 179.986274 1.68054 79.0979 2.33895 158.54695-16.12182 236.28411-3.42377 14.40994-5.15447 37.44202-29.50338 31.14002-20.90005-5.4053-51.79551-.99703-50.6668-37.50472" fill="#fbfafc"/><path d="m552.676128 1148.24092c-15.620172-18.9687-19.602031-36.61429-8.753818-62.22986 18.943614-44.73477 1.56139-91.557668-4.019482-137.170328-1.367-11.199369-7.273946-21.35154 0-32.249918 67.472122-16.140636 95.188366-70.46949 121.362031-126.278216 7.562396 27.057826-.714853 53.858556-1.962711 80.665556-5.06668 109.284772-6.803648 218.488026-.307262 327.772796 1.034657 17.47629 3.392418 35.34135-1.887463 52.74865-13.557131-7.9888-15.181228-23.75319-22.862766-35.57963-20.247907-31.17136-46.69121-54.37902-81.568529-67.67905" fill="#fb7722"/><path d="m90.3002078 1248.42135c-10.8356717 18.29146-30.5317625 19.58321-48.0707519 24.33009-15.5825487 4.22014-18.6739759-8.42147-22.5492335-19.19444-12.11488295-33.66708-15.16241562-69.19028-16.62974617-104.16792-4.23268426-100.70027-6.5967168-201.544753 10.60365787-301.561514 1.5739315-9.142598 2.7402712-18.755495 6.5716343-27.001391 5.2171752-11.224451 6.2330195-32.318895 22.8063298-27.653537 18.2475722 5.135657 46.4215728-.620793 50.7545873 29.929781-3.2920877 8.528075-8.4653685 16.824136-9.5878137 25.63439-17.018526 133.489456-23.3330639 266.878581 6.101336 399.684541" fill="#fbfafc"/><path d="m90.3002078 1248.42135c-29.4343999-132.80596-23.119862-266.195085-6.101336-399.684541 1.1224452-8.810254 6.295726-17.106315 9.5878137-25.63439 12.4033325 15.921163 8.6409465 35.817915 13.0680205 53.695519 9.487484 38.332443 20.56771 75.15366 63.440099 89.714094 9.418506 9.305635 21.646261 4.458428 32.507015 6.496387 10.509598 1.968982 19.376288 7.079556 12.284191 18.686517-13.105645 21.464414-7.612562 44.628164-6.797378 66.682024.765019 20.75583-5.574602 32.87071-24.932078 38.69614-58.09751 10.57857-72.607779 55.27572-81.342785 104.26826-2.8531431 15.99014-1.586473 32.92714-11.7135622 47.07999" fill="#ee2eac"/><path d="m183.357809 1097.07561c19.357476-5.8317 25.697097-17.94031 24.925808-38.69614-.808913-22.05386-6.301997-45.21761 6.803648-66.682026 7.085827-11.613231-1.780863-16.723806-12.284191-18.692788-10.860754-2.031688-23.088509 2.815519-32.507015-6.490115 57.765167 3.304629 88.717062-35.567089 118.929022-75.598877 13.243599 18.868366.175578 38.119241.326073 57.150644.551817 72.714382-.827724 145.447572-1.498683 218.161952-28.042317-33.43507-56.348001-66.46255-104.694662-69.15265" fill="#f464a0"/><path d="m1524.37502 1261.25484c14.17166.23202 30.14926-2.27624 30.03638 19.71491-10.01421-6.57164-20.02843-13.14327-30.03638-19.71491m417.7465-570.404052c-13.00531-4.966349-15.62644-15.69542-15.5073-27.948257 10.30894 6.465033 11.3624 18.065723 15.5073 27.948257" fill="#ee2eac"/><path d="m1342.60726 1367.57298c1.86865-11.47528-6.47758-26.96377 12.47858-31.71692-2.1571 11.35614-5.41784 22.28587-12.47858 31.71692m105.79327-117.36952c12.32182-11.70729 25.03868-11.70102 38.09416-1.26667-12.69805.42014-25.3961.84654-38.09416 1.26667m32.21606-460.411326c-8.38385 9.437319-16.86176 9.374612-25.44.269638 8.47791-.09406 16.96209-.181849 25.44-.269638m24.68502-4.881068c-6.13269 6.885166-14.19047 5.380212-21.99115 5.035326 6.43995-5.518166 14.17165-5.474271 21.99115-5.035326" fill="#f464a0"/><path d="m1336.77618 1381.25865c-.24455-5.56206.71486-10.60992 5.90068-13.85812.16304 5.52444-.11914 10.86076-5.90068 13.85812m-1.80281 17.27124c-5.06667-4.48978-4.74687-8.55943.95941-12.20267-.3198 4.06964-.6396 8.13302-.95941 12.20267" fill="#f464a0"/><path d="m2619.21806 1218.40503c2.74655 2.18845 5.49309 4.37691 8.2459 6.56536-2.74654-2.18845-5.49935-4.37691-8.2459-6.56536" fill="#85b3fb"/><path d="m1554.23771 1280.65684c2.3703 2.08813 4.74687 4.17625 7.11718 6.26437-2.37031-2.08185-4.74688-4.17624-7.11718-6.26437m6.66256 8.96957c2.23862 2.16337 4.47096 4.33302 6.70958 6.49639-2.23862-2.16337-4.47724-4.33302-6.70958-6.49639" fill="#ee2eac"/><path d="m1892.97096 1425.37397c2.69011 3.07261 5.51817 4.85974 5.64985 6.82246.13796 2.22607-2.13829 4.60892-3.36106 6.92279-1.95017-1.60529-5.09176-2.93467-5.53071-4.87229-.4703-2.08813 1.59901-4.75315 3.24192-8.87296" fill="#f628bb"/></g></svg>