<svg height="1597" viewBox="0 0 3021 1597" width="3021" xmlns="http://www.w3.org/2000/svg" xmlns:xlink="http://www.w3.org/1999/xlink"><linearGradient id="a" x1="50%" x2="50%" y1="0%" y2="100%"><stop offset="0" stop-color="#fff"/><stop offset="1" stop-color="#fff"/></linearGradient><mask id="b" fill="#fff"><path d="m0 0h644.999997v372.039135h-644.999997z" fill="#fff" fill-rule="evenodd"/></mask><mask id="c" fill="#fff"><path d="m0 0h1.50953963v9.08250765h-1.50953963z" fill="#fff" fill-rule="evenodd"/></mask><g fill="none" fill-rule="evenodd"><path d="m0 0h3021v1597h-3021z" fill="url(#a)"/><g transform="translate(1043 476)"><text fill="#2a3640" font-family="SFCompactRounded-Regular, SF Compact Rounded" font-size="266" letter-spacing="-1.99999968"><tspan x="0" y="253">RSS Gen</tspan></text><text fill="#000" font-family="SFCompactDisplay-Medium, SF Compact Display" font-size="66" font-weight="400" letter-spacing="-.496240602"><tspan x="29" y="369">Harness the Power of Flexible RSS Feed Management</tspan><tspan x="29" y="448">with RSS Gen</tspan> <tspan x="29" y="527"/><tspan font-family="SFCompactDisplay-Thin, SF Compact Display" font-size="54" font-weight="300" letter-spacing="-.406015038" x="29" y="566">A comprehensive Rust library for generating, parsing, serializing, and</tspan><tspan font-family="SFCompactDisplay-Thin, SF Compact Display" font-size="54" font-weight="300" letter-spacing="-.406015038" x="29" y="630">deserializing RSS feeds.</tspan></text></g><g fill-rule="nonzero" transform="translate(378 476)"><path d="m641.186053 3.56328259c1.032539 7.64700651 2.528024 15.26259991 3.024866 22.94611371 4.952712 76.5855297-13.330408 146.9130297-56.715206 209.3795727-51.903031 74.731298-123.328396 117.776804-211.400857 131.788816-51.501259 8.193768-102.38994 4.89113-152.451103-10.322226-107.678289-32.721581-192.3588335-125.709079-216.64621838-238.407973-8.11067543-37.6339355-8.69183992-75.7085058-4.19711539-113.90703113.1975794-1.68358099.43401331-3.36206793.65226001-5.04055487.2372606.94834088.52081597 1.88649368.70599498 2.84417363 2.10806467 10.92417377 3.34231584 22.11493567 6.43745078 32.73431597 21.379909 73.3660954 62.9773983 130.7479354 128.35303 168.8708994 7.463376 4.35201 15.6468 7.405039 23.496241 11.060015 9.933532 6.849788 19.595081 14.166532 29.847716 20.467862 45.945888 28.238823 95.820219 39.793809 149.122014 35.937619 50.245514-3.635449 95.483755-20.937363 135.319563-52.792957 1.622797-1.298132 3.410105-2.379767 5.119703-3.561584 3.039747-1.286246 6.135709-2.452781 9.113453-3.878264 33.602551-16.084439 62.308605-38.771605 86.103281-67.930753 26.789782-32.829405 46.558468-69.604145 57.823801-110.9575807 2.613173-9.5946286 4.221089-19.4787687 6.291126-29.23046371" fill="#2a3640" mask="url(#b)" transform="translate(0 272.9609)"/><path d="m351.745717 419.241296c8.470286.491575 16.934785 1.201344 25.411687 1.433124 24.007962.656282 46.838715-4.948862 68.867578-14.338881 19.938158-8.49856 37.990632-20.05864 54.332679-34.657316 22.620775-20.208067 40.717063-43.908948 53.696127-71.606104 10.056709-21.458654 17.070364-43.941209 19.552093-67.759253.153765-1.473027.686982-2.903604 1.043286-4.354558.441453.029716.882907.059431 1.32436.089146 0 12.543231.490228 25.110232-.093416 37.624598-1.66413 35.687161-8.097448 70.484565-20.938454 103.763943-10.565952 27.383024-25.680362 51.931214-44.967914 73.896725-15.423592 17.565107-32.94285 32.376035-52.389126 44.783424-19.963786 12.737652-41.556155 21.82882-64.181888 28.338156-29.518693 8.493468-59.697085 11.234063-90.133405 9.288139-28.505996-1.821969-56.024919-8.830522-82.504692-20.041662-21.133554-8.948534-40.37233-21.122446-58.173491-35.690558-16.405703-13.427046-30.329676-29.366305-43.133482-46.392292-14.671304-19.508484-25.6878015-41.060529-33.9150405-64.104278-7.0988045-19.883745-11.8638572-40.45179-14.4042818-61.454526-1.4839123-12.271548-2.1196384-24.678088-2.582586-37.046423-.4199596-11.229815-.088456-22.489347.4513739-33.769255 1.2003568 8.363568 2.1444391 16.777228 3.6498453 25.083064 4.3219458 23.8554 13.3973709 45.86421 25.4340068 66.614792 9.4623173 16.31367 20.8268523 31.168746 34.1035263 44.386089 27.693356 27.568956 60.239394 45.990712 98.162237 53.911098 18.269067 3.815438 36.685285 4.908958 55.204841 1.845741.671272-.111219 1.371481-.032261 2.058462-.041601-13.256834 15.138644-17.396907 32.659603-12.440061 52.275911 4.898976 19.387077 21.705626 33.713221 40.044135 35.110687 35.093903 2.674372 57.211221-31.847952 49.23447-63.286683-2.320525-9.148051-7.261663-16.616767-12.71287-23.901247" fill="#efe4c0"/><path d="m641.186053 276.524144c-2.070037 9.751696-3.677953 19.635836-6.291126 29.230464-11.265333 41.353435-31.034019 78.128176-57.823801 110.957581-23.794676 29.159146-52.50073 51.846314-86.103281 67.930753-2.977744 1.425481-6.073706 2.592018-9.113453 3.878264 6.961575-6.612068 14.167022-12.973678 20.840081-19.877803 31.504406-32.597626 52.690042-71.505921 65.80303-115.176296 13.303128-44.302038 18.054955-89.643259 13.983496-135.802074-5.061008-57.389481-26.443397-107.53863-64.535712-150.0263391-2.677656-2.9868068-5.30819-6.018611-7.960218-9.030039.195926-.3115857.391851-.6240202.587778-.9356059 1.735226 1.0417317 3.58371 1.9272462 5.189973 3.1481182 39.980479 30.3902074 71.112048 68.4732678 94.113926 113.7295888 15.356631 30.213614 25.859753 62.0327 31.172903 95.660171.32489 2.057994.103337 4.20683.136404 6.313217" fill="#dd633d"/><path d="m162.445065 488.470264c-7.849441-3.654975-16.032038-6.708005-23.496241-11.060015-65.3748047-38.122962-106.9731206-95.504803-128.3530297-168.870898-3.09513491-10.61938-4.3293861-21.810142-6.43745076-32.734316-.18517901-.95768-.46873437-1.895833-.70599498-2.844173 4.71710468-36.996332 16.10230724-71.741945 33.33883594-104.529748 21.7750678-41.421357 51.0432722-76.2926237 87.0903515-105.2454621 2.702456-2.170062 5.561984-4.1346643 8.715814-5.6025975-7.519591 9.2898351-15.352498 18.3326092-22.502557 27.9136538-27.3238249 36.6108818-42.4754363 78.2563758-47.5711659 123.8803168-6.2258176 55.744106-.3397704 110.08565 19.2305099 162.561927 14.4728971 38.807264 36.095854 72.980647 65.30619 101.914807 5.027114 4.980276 10.250981 9.749997 15.384738 14.616505" fill="#dd633d"/><path d="m327.380209 348.214893c-.398465.782786-.822557 1.239551-.771304 1.631792.042988.329415.779571.895703.95979.809103.409213-.19612.846533-.699581.916801-1.137669.045468-.28102-.540655-.669866-1.105287-1.303226m-37.540085-98.890643c-.4522-.046695-.904401-.092541-1.3566-.139238-.585298 1.386429-1.563275 2.749935-1.640158 4.166078-.071095 1.30068.827519 2.657393 1.29956 3.990333.896961-1.610566 2.043582-3.13793 2.587546-4.865659.271155-.861742-.558843-2.089406-.890348-3.151514m15.028434 103.98893c2.075825-.883815 3.758142-1.600377 5.440462-2.31609-1.475646-.770899-2.949637-1.544343-4.427763-2.310148-.119871-.061978-.263715-.103578-.396812-.104429-1.391323-.005943-2.787606-.056883-4.161568.102731-.113258.012735-.400119 1.835553-.032241 2.192984 1.008564.97636 2.323005 1.619906 3.577922 2.434952m19.049466-15.75757c-.124004 2.996995 1.922059 4.321447 4.1657 3.971655 1.972487-.30734 3.735822-2.031674 5.591745-3.12944-1.586421-1.698013-2.939717-4.346067-4.822921-4.833396-2.016302-.520443-5.164345.209703-4.934524 3.991181m-36.198364-13.916075c.795278 2.267698 1.105287 3.9343 1.907178 5.294409 2.247776 3.809494 4.807214 7.427963 7.021923 11.256135 1.051551 1.817724 1.965047 2.968978 4.183061 1.947623 4.588967-2.114877 9.248204-4.071838 13.807411-6.251239.768822-.36762 1.818722-1.733674 1.647597-2.277037-.82752-2.639564-.695249-5.941353-4.703879-6.568768-1.584767-.247911-3.142257-2.066483-4.303759-3.514889-3.153829-3.93345.202541-6.988177 1.515328-10.368923.698554-1.800744 1.117688-2.80512 3.462186-2.290621 1.373135.301397 3.081081-1.001828 4.638568-1.583399-.660526-1.70905-.91928-4.442853-2.063423-4.915751-2.49661-1.030694-5.45782-1.281151-8.202438-1.165686-3.178631.133294-4.074766-.869383-3.428292-4.005615.418306-2.028278.262888-4.379179-.343076-6.357365-.356305-1.160592-2.099798-1.872909-3.219139-2.78729-.410866 1.325299-1.317748 2.71937-1.15241 3.964014.943256 7.109584.219901 8.300742-6.646604 9.536047-2.837206.510253-2.701629 1.306621-.854798 3.373953 3.30594 3.700823 2.952942 5.735044.119043 9.651514-1.545915 2.136101-2.34946 4.83849-3.384477 7.062888m38.899992-261.1010812c.112431.8345739.225687 1.6691478.338118 2.5037218.14219 1.9858276.284381 3.9725039.426573 5.9583315.134751 1.1266324.270328 2.2532647.405079 3.379897.12483 1.4178418.24966 2.8356836.373665 4.2535254.141363 1.1300283.282728 2.2600568.424093 3.3909341.199233 2.276188.399292 4.5523758.599352 6.8277147.081016.5535527.161204 1.1071053.24222 1.6606578.208327 2.277037.416653 4.5532249.624979 6.8302618.071096.5510056.142191 1.1020112.213286 1.6521677.166166 1.9943174.333158 3.9886354.500149 5.9821034.09507.556949.190967 1.113898.286863 1.671695.181046 1.708202.361265 3.417254.54231 5.125456.083496.556948.167818 1.113048.251314 1.669997.073575 2.247321.147152 4.494643.220727 6.741965-5.407393-.938153-6.32006-.149426-6.494492 5.619577-.008267.281871.007439.565439-.003307.848158-.199233 5.090647 1.111901 10.421562-2.78926 14.883943-.737408.843913-.375317 2.704087-.514201 4.096459-.139711 1.393221.071095 2.951149-.469562 4.153343-1.960087 4.364745-1.135047 8.265932.585298 12.569549 1.957606 4.896224 1.292946 10.115069-.875466 14.964598-1.122648 2.508816-2.812407 4.783305-3.700274 7.362589-1.734401 5.040555-3.276181 6.229164-8.336363 5.755419-.939122-.088296-2.431301.098485-2.824806.720807-4.074765 6.443963-6.697032 13.478836-7.505537 21.16235-.071923.687696-.143018 1.828762.19014 2.021486.959788.554402 2.93889 1.235305 3.089347.979754 2.205615-3.748366 5.251975-2.660789 8.38679-1.945075 1.125128.2564 2.561919.165557 3.569656-.354037 2.115506-1.090974 4.100394-2.485043 6.029892-3.910526 2.895903-2.138648 4.694784-1.216627 5.266028 2.097897.506763 2.940112.663835 5.965124.731623 8.958722.081016 3.572622.635727 7.375325-.321583 10.678811-1.73936 6.003328-4.208688 11.830064-6.895438 17.46832-.767997 1.612264-3.232366 2.566549-5.102343 3.373955-1.847658.796368-4.356667.450822-5.825698 1.608867-4.665024 3.6779-9.050626 7.746341-13.360997 11.865723-.734104.700431-1.04494 2.537683-.740717 3.606583 2.107238 7.398246 5.736416 9.879894 13.165072 9.353509.543135-.038204 1.171421-.115464 1.631889.105277 3.410105 1.636886 5.919114-.548458 8.855526-1.721786 2.570184-1.026449 5.641345-.955981 8.488472-.935606 1.568235.011037 3.128203.925417 4.696438 1.41954 8.217319 2.588623 14.060378 7.442396 16.315594 16.478378 1.254092 5.026122 4.617901 8.119903 9.950065 9.469825 3.231538.817593 6.081974 3.484325 8.871232 5.637406.486095.375262.271155 2.776254-.389372 3.478383-5.311496 5.64335-14.451402 5.989744-19.924105.7259-1.793922-1.725182-3.248899-1.680185-5.084155-.438937-4.273998 2.891718-5.008101 6.151056-2.999239 11.205195 1.374788 3.458855 2.548691 6.938936.023148 10.754374-.997818 1.506986-1.27972 5.146681-.300917 6.101813 3.217485 3.142175 1.83939 5.727402.236434 8.674305-.497669.914381-1.244998 2.178552-.973843 2.946055.748156 2.125064 7.964352 2.093652 9.312685.175744 1.302867-1.853382 2.828941-3.540359 4.151648-5.379308.42244-.588363.653087-1.416994.722529-2.159875.164511-1.762538.339771-3.551396.225687-5.310539-.328197-5.032064 3.300154-3.691483 5.63308-3.40282 3.241458.40158 1.581461 3.244055 1.627755 5.095741.019842.766652-.624152 1.542646-.938295 2.326278-.935815 2.327978-.740716 4.139758 2.070037 4.767175 3.449787.770049 6.895439 1.560475 10.342744 2.341561-13.644552 5.497321-27.969471 7.461074-42.449809 7.804922-34.544979.82184-66.038638-9.0623-94.298278-29.556482-5.586785-4.051461-5.587612-4.25777-.237261-8.27612 16.895932-12.690109 30.582645-28.351742 41.375109-46.729349.480309 1.35162.961443 2.70154 1.441751 4.05231 1.285506-.701278 2.688403-1.248889 3.817663-2.156478.816772-.655432 1.08462-2.10299 1.93198-2.627676.997817-.618077 2.876062-1.276057 3.470452-.779388 3.008333 2.516457 4.312027 1.180969 5.261896-1.889041.453853-1.467085 1.499619-2.895114 1.473992-4.325692-.033895-1.869512-.326543-4.525207-1.503753-5.357233-1.159849-.820141-3.896199-.328566-5.319764.596003-1.278065.830328-1.770774 3.002938-2.504875 4.63303-1.686453 3.744972-3.491121 7.322687-8.095796 7.893219 5.027114-12.670581 10.924735-25.060141 14.90443-38.068627 8.690186-28.407776 13.100588-57.797004 16.560295-87.29915 2.465196-21.027358 4.448429-42.114995 6.629243-63.1780108 2.628882-25.3853108 5.238748-50.7740179 7.856881-76.16102667.503455.00849008 1.006085.01698015 1.509541.02547021.119043 1.10965226.238913 2.21930446.357957 3.32895666.074402 1.1223873.148804 2.2447746.223207 3.3680109.24718 2.5555113.495189 5.1118716.743196 7.6682318.047121.5832678.094243 1.1673846.142191 1.7515015.168645 1.3983147.338116 2.7966293.507588 4.1940949.090936 1.4059556.181872 2.8110622.271982 4.2161689.193446 1.7056553.386893 3.4121594.579511 5.1178145.113257 1.7014102.226514 3.4019714.339771 5.1033814.044642.9636231.089283 1.9272461.133924 2.8925671.31001 2.7261617.621673 5.4514743.933335 8.176787.090937.8294799.181873 1.6589598.272809 2.4892886.141365 1.7166923.281901 3.4325355.423265 5.1492278" fill="#dd613a"/><path d="m369.866888 350.481827c-3.447304-.781086-6.89213-1.571512-10.341917-2.341561-2.810752-.627417-3.006679-2.439197-2.070864-4.767175.31497-.783632.958137-1.560475.939122-2.326278-.046294-1.851686 1.612877-4.694161-1.628582-5.095741-2.332925-.288663-5.961277-1.629244-5.63308 3.40282.11491 1.759143-.061176 3.548001-.225687 5.310539-.069441.742881-.299262 1.571512-.722529 2.159875-1.322707 1.838949-2.84878 3.525926-4.151647 5.379308-1.348334 1.917906-8.564529 1.94932-9.312685-.175744-.270329-.767503.477-2.031674.973843-2.946055 1.603782-2.946903 2.981877-5.53213-.235608-8.674305-.978803-.955134-.696901-4.594827.300917-6.101813 2.524717-3.815438 1.350814-7.295519-.023975-10.754374-2.008862-5.054138-1.274758-8.313477 3.000066-11.205195 1.835256-1.241248 3.290234-1.286245 5.083329.438937 5.473527 5.263845 14.612609 4.91745 19.924105-.7259.660526-.702129.875466-3.103121.390198-3.478383-2.790085-2.153081-5.64052-4.819813-8.872058-5.637407-5.332165-1.349921-8.695973-4.443702-9.950065-9.469824-2.255217-9.035982-8.098276-13.889755-16.315595-16.478378-1.567408-.494123-3.127376-1.408503-4.695611-1.41954-2.847127-.020375-5.918288-.090843-8.488472.935606-2.936412 1.173328-5.446247 3.358672-8.855526 1.721786-.461295-.220741-1.088754-.143483-1.632716-.105277-7.428655.526385-11.057834-1.955263-13.164245-9.353511-.304223-1.068898.006613-2.90615.73989-3.606581 4.311198-4.119382 8.6968-8.187825 13.360997-11.865723 1.469032-1.158046 3.978867-.812499 5.826525-1.608867 1.869977-.807406 4.334346-1.76254 5.102343-3.373955 2.68675-5.638256 5.156078-11.464992 6.895438-17.46832.95731-3.303486.402599-7.106189.321583-10.678811-.068615-2.993598-.225687-6.01861-.731623-8.958722-.571244-3.314524-2.370951-4.236546-5.266028-2.097897-1.930325 1.425483-3.915213 2.819552-6.030717 3.910526-1.006912.519592-2.443703.610437-3.568831.354037-3.135642-.715714-6.181175-1.803291-8.387617 1.945075-.150457.255551-2.129558-.425352-3.08852-.979754-.333158-.192726-.26289-1.33379-.19014-2.021486.807678-7.683514 3.430772-14.718387 7.505537-21.162349.393505-.622323 1.884857-.809104 2.824806-.720808 5.059356.473745 6.601135-.714864 8.336363-5.755419.887041-2.579284 2.577626-4.853773 3.699447-7.362589 2.168413-4.849529 2.833073-10.068374.875466-14.964598-1.720345-4.303617-2.545384-8.204804-.584471-12.56955.53983-1.202194.329024-2.760121.468735-4.153342.139711-1.392372-.223207-3.252546.514202-4.096459 3.90116-4.462381 2.590853-9.793296 2.790086-14.883943.010746-.282719-.005787-.566287.003307-.848158.173605-5.769003 1.086272-6.55773 6.495318-5.619578.450548 2.287226.900268 4.574451 1.349989 6.860827.073575.549307.147152 1.099464.220727 1.648771.185179 1.712447.369531 3.424895.554709 5.138191.083497.552704.166993 1.105407.249662 1.658111.115736 1.144461.231474 2.288923.34721 3.433384.139711.839668.280249 1.680185.421614 2.520702.184352 1.708202.367877 3.416405.552229 5.124607.105817.551854.211634 1.103709.31745 1.656412.187659 1.429728.374492 2.858607.561325 4.288335.087629.550157.174432 1.099464.262061 1.649621.124003 1.143612.24718 2.288074.370357 3.432536.153765.837121.306704 1.674241.460468 2.511362.147152 1.147008.294303 2.294866.440627 3.441875.092589.559496.184352 1.11984.276115 1.679337.467082 3.399423.934989 6.799696 1.40207 10.19912.105816.554403.210806 1.107955.316624 1.661507.106642.843065.213286 1.685279.319928 2.527494.203367 1.131726.407559 2.263453.610926 3.396029.082669.562041.165338 1.124933.248007 1.687826.047949.416861.096724.834573.143845 1.253133.815946 4.41314 1.633543 8.823731 2.450315 13.234323.136404.552703.271982 1.104558.40756 1.657261.094243.555251.188486 1.110502.282729 1.665752.143843.586665.287688 1.173328.431532 1.759992.176086.855799.352171 1.711598.528256 2.568246.146325.548459.29265 1.097766.438974 1.647074.350517 1.694618.701036 3.388387 1.051553 5.082156.064481.422806.12979.845612.194271 1.270115 1.05238 4.123627 2.105585 8.245556 3.157965 12.368335.186004.547609.37201 1.095219.558016 1.642828.128137.559495.256274 1.118992.384412 1.678487.152938.118012.169473.253854.049601.408372.805198 2.698994 1.611223 5.396289 2.417248 8.093585.153765.090843.184352.21395.091763.371016.516683 1.54774 1.035019 3.09463 1.553354 4.640673 0 0-.029761-.048394-.030587-.047545 1.072219 2.892566 2.145266 5.785135 3.218312 8.677702.230647.543363.461295 1.086728.69194 1.630941.086803.243665.174434.487331.262063.730996 0 0-.033069-.013585-.033895-.013585.853146 1.98498 1.706292 3.968259 2.559439 5.95239 0 0-.026454-.036508-.027281-.036508.280248.579871.561324 1.158894.842399 1.737917 0 0-.033069-.036508-.033895-.035658.552231 1.152102 1.106115 2.304205 1.659171 3.456308 0 0-.02976-.0433-.030587-.0433.284382.579872.570417 1.158046.855626 1.737069 0 0-.030587-.040752-.030587-.039903.324889.57138.650606 1.142763.976323 1.713295 11.423231 21.273571 27.241981 38.547467 45.931009 53.203028 1.434311 1.124934 2.683443 2.0945.590257 3.883358-8.60421 7.351551-17.700302 13.858342-28.311721 17.843582-.646474.296303-1.292946.592606-1.938593.888909 0 0 .077709-.052637.076882-.052637-.581165.285266-1.161502.570532-1.74184.855798 0 0 .057042-.038206.057042-.038206-.581991.269985-1.162329.539969-1.743494.809954l-.152937.17914s-.216594-.0849-.218246-.0849c-2.885156-1.243797-4.956846-.366772-6.257233 2.524946 0 0-.32737.011038-.328197.011038-.725009.291209-1.44919.581569-2.172546.871929z" fill="#dd633c"/><path d="m351.745717 419.241296c5.451207 7.28448 10.392345 14.753196 12.71287 23.901247 7.976751 31.438731-14.140567 65.961055-49.23447 63.286683-18.338509-1.397466-35.145159-15.72361-40.044135-35.110687-4.956846-19.616308-.816773-37.137267 12.440061-52.275911 6.712739-5.41327 13.593297-10.481841 22.290097-12.041467 13.929761-2.499477 26.717859-.288662 37.764119 9.424827 1.23425 1.08588 2.708242 1.883948 4.071458 2.815308" fill="#eaab22"/><g fill="#d37a5d"><path d="m1.50953963 9.08250765c-.50345544-.00849008-1.00608419-.01698015-1.50953963-.02547021.1661651-3.01906909.33233019-6.03813817.49932198-9.05720724.20419293.00849007.40921255.01613113.61340548.0246212.13227073 3.01906908.26454145 6.03898717.39681217 9.05805625" mask="url(#c)" transform="translate(320.1815)"/><path d="m343.946209 199.190809c-.816772-4.410592-1.634371-8.822033-2.451143-13.234323.817599 4.410592 1.634371 8.822033 2.451143 13.234323"/><path d="m333.419773 127.048047c-.449721-2.287225-.89944-4.57445-1.349987-6.860826-.074403-2.24817-.147978-4.495492-.22238-6.742814.524122 4.534547 1.048244 9.069094 1.572367 13.60364"/><path d="m350.438882 227.209144c-1.053205-4.121929-2.105585-8.244707-3.157963-12.368334 1.053205 4.121929 2.105585 8.244707 3.157963 12.368334"/><path d="m339.856481 175.430412c-.467082-3.400272-.934989-6.799698-1.402071-10.199122.467082 3.399424.934162 6.79885 1.402071 10.199122"/><path d="m358.681166 252.674432c-1.073046-2.892566-2.146091-5.785135-3.21831-8.677701 1.073044 2.891718 2.145264 5.785135 3.21831 8.677701"/></g><path d="m372.662596 349.477708c1.300387-2.892569 3.372076-3.768744 6.257232-2.524949-2.084918.841366-4.170662 1.683583-6.257232 2.524949" fill="#dd613a"/><g fill="#d37a5d"><path d="m330.054062 97.3435828c-.208326-2.2770369-.416652-4.5532249-.625806-6.8302618.209154 2.2770369.41748 4.5532249.625806 6.8302618"/><path d="m325.92333 54.8997676c-.311663-2.7253127-.622499-5.4506254-.933336-8.176787.311663 2.7244636.622499 5.4506252.933336 8.176787"/><path d="m329.186449 88.8530028c-.200059-2.2761878-.399293-4.5523758-.599351-6.8285636.199232 2.2761878.399292 4.5523758.599351 6.8285636"/><path d="m353.847746 239.032587c-.806025-2.697296-1.612049-5.394591-2.417247-8.093584.806024 2.697296 1.612049 5.39544 2.417247 8.093584"/><path d="m330.767001 104.977769c-.166992-1.993468-.333156-3.987786-.500149-5.9812543.166166 1.9934683.333157 3.9869373.500149 5.9812543"/><path d="m326.619736 62.5383689c-.141365-1.7166922-.281903-3.4325355-.423267-5.1492277.140538 1.7166922.281902 3.4325355.423267 5.1492277"/><path d="m327.384096 71.0008466c-.142192-1.9858274-.284383-3.9725039-.425748-5.9591805.141365 1.9866766.283556 3.972504.425748 5.9591805"/><path d="m334.195127 133.8345c-.185178-1.712447-.36953-3.425743-.554709-5.13819.184352 1.712447.369531 3.425743.554709 5.13819"/><path d="m362.160547 260.974834c-.853144-1.98328-1.706291-3.967409-2.559437-5.951539.853973 1.983281 1.706293 3.96741 2.559437 5.951539"/><path d="m324.856401 43.8307532c-.113256-1.7014101-.226514-3.4028203-.33977-5.1033814.113256 1.7005611.226514 3.4019713.33977 5.1033814"/><path d="m331.596421 111.775344c-.181046-1.709051-.361264-3.417253-.54231-5.126304.180219 1.709051.361264 3.417253.54231 5.126304"/><path d="m335.766091 146.571219c-.184353-1.708202-.368705-3.416404-.553058-5.124607.184353 1.708203.368705 3.416405.553058 5.124607"/><path d="m336.644203 152.516391c-.186833-1.429728-.373666-2.858607-.560497-4.288335.186831 1.428879.373664 2.858607.560497 4.288335"/><path d="m347.08615 213.57129c-.350518-1.693769-.701035-3.388386-1.051552-5.082157.350517 1.693771.701034 3.388388 1.051552 5.082157"/><path d="m328.163335 78.6341841c-.124831-1.4178416-.248834-2.8356834-.373666-4.2535252.124832 1.4178418.248835 2.8356836.373666 4.2535252"/><path d="m355.492947 244.044531c-.518337-1.546891-1.036673-3.092934-1.553354-4.641523.518335 1.546043 1.035843 3.093783 1.553354 4.641523"/><path d="m338.17846 163.55187c-.14715-1.147858-.294301-2.294866-.440626-3.442724.146325 1.147858.293476 2.294866.440626 3.442724"/><path d="m334.791587 138.925911c-.115738-1.144462-.230648-2.288074-.346385-3.432536.115737 1.143613.230647 2.288074.346385 3.432536"/><path d="m323.937367 33.6093874c-.090936-1.4051067-.181872-2.8102133-.272808-4.2161689.090936 1.4059556.181872 2.8110622.272808 4.2161689"/><path d="m337.277035 157.598038c-.123177-1.144462-.246354-2.288074-.370357-3.432536.124003 1.144462.24718 2.288074.370357 3.432536"/><path d="m322.271749 15.7793054c-.074403-1.1223872-.148805-2.2456236-.223206-3.3680109.074401 1.1223873.148803 2.2456237.223206 3.3680109"/><path d="m345.595872 206.841381c-.176085-.855799-.352171-1.711599-.528256-2.568246.176085.856647.352171 1.712447.528256 2.568246"/><path d="m364.601109 266.096978c-.553058-1.152101-1.106941-2.303355-1.659171-3.456307.553057 1.152103 1.106113 2.304206 1.659171 3.456307"/><path d="m340.492702 179.619583c-.106643-.842216-.213287-1.685279-.319929-2.527494.106642.842215.213286 1.685278.319929 2.527494"/><path d="m323.157218 25.1989539c-.047121-.584117-.094243-1.1682337-.142191-1.7515016.047948.5841168.09507 1.1673846.142191 1.7515016"/><path d="m365.425734 267.790662c-.285209-.578172-.570417-1.157195-.855627-1.736218.28521.578174.570418 1.157196.855627 1.736218"/><path d="m362.97517 262.676584c-.281074-.579023-.561323-1.158046-.841572-1.737917.281076.579023.561325 1.158894.841572 1.737917"/></g><path d="m382.642422 345.283612c.645647-.296303 1.292119-.592608 1.938593-.888911-.645647.296303-1.292119.592608-1.938593.888911" fill="#dd613a"/><path d="m380.977794 346.086858c.580338-.285266 1.160676-.571383 1.74184-.8558-.580338.285266-1.161502.570534-1.74184.8558" fill="#dd613a"/><path d="m351.381311 230.53063c-.128137-.559495-.256274-1.118992-.384411-1.678487.128137.559495.256274 1.118992.384411 1.678487" fill="#d37a5d"/><path d="m379.290847 346.858266c.581164-.269985 1.162329-.539969 1.743493-.809954-.581164.269985-1.162329.539969-1.743493.809954" fill="#dd613a"/><path d="m366.371552 269.46482c-.325717-.571382-.651433-1.141914-.976323-1.714146.325717.571383.651432 1.142764.976323 1.714146" fill="#d37a5d"/><path d="m341.352049 184.702758c-.082669-.562892-.165339-1.124934-.248008-1.687826.082669.562043.165339 1.124934.248008 1.687826" fill="#d37a5d"/><path d="m370.161935 350.360334c.723355-.29036 1.447538-.580721 2.172547-.87193-.723356.290361-1.448365.58157-2.172547.87193" fill="#dd613a"/><path d="m344.636496 202.513822c-.094243-.555251-.188486-1.110501-.282729-1.666601.094243.5561.188486 1.11135.282729 1.666601" fill="#d37a5d"/><path d="m359.634839 255.0362c-.08763-.243665-.175259-.487331-.262062-.730995.238088.186781.325718.430447.262062.730995" fill="#d37a5d"/><g fill="#dd633c"><path d="m287.719991 323.639197c1.034192-2.22355 1.838562-4.926789 3.384477-7.062891 2.833899-3.91562 3.186896-5.95069-.119043-9.650662-1.847658-2.068181-1.983235-2.863701.853971-3.373955 6.867332-1.235306 7.590686-2.427312 6.64743-9.536046-.165337-1.244646.740717-2.639564 1.15241-3.964015 1.119342.913532 2.862835 1.625849 3.218313 2.78729.606791 1.977337.761382 4.329087.343903 6.357364-.647301 3.136233.24966 4.13891 3.428292 4.004767 2.743791-.115464 5.705828.134992 8.201611 1.166537 1.144969.472895 1.402897 3.206698 2.063423 4.914901-1.55666.581569-3.264607 1.885644-4.637742 1.584247-2.344499-.515347-2.763631.489028-3.463012 2.290621-1.312788 3.380746-4.668331 6.434624-1.514501 10.368923 1.161502 1.448406 2.718991 3.26698 4.302932 3.514889 4.00863.626568 3.876359 3.928355 4.704705 6.567919.170299.544214-.879601 1.910266-1.647597 2.277037-4.559206 2.179401-9.218443 4.136362-13.808237 6.251239-2.217188 1.022204-3.130683-.129049-4.182235-1.946774-2.215535-3.829022-4.774146-7.44664-7.021922-11.256984-.802718-1.360109-1.112727-3.025861-1.907178-5.294407"/><path d="m274.230361 273.763852c4.604675-.570532 6.410169-4.148249 8.095795-7.893219.734102-1.630092 1.227637-3.802701 2.504876-4.63303 1.423565-.924569 4.160741-1.416144 5.319763-.596003 1.17721.832026 1.469858 3.487721 1.503754 5.357233.025627 1.430578-1.020139 2.858607-1.473992 4.325692-.949043 3.07001-2.253563 4.405497-5.261896 1.889041-.59439-.496669-2.472635.161311-3.469626.779388-.847359.524686-1.116034 1.972244-1.932806 2.627676-1.129261.907589-2.532158 1.4552-3.817663 2.156478-.480308-1.35077-.960616-2.70069-1.441752-4.05231 0 0-.026453.039054-.026453.039054"/><path d="m323.922984 337.552045c-.234781-3.778081 2.913262-4.508227 4.929564-3.986938 1.883204.486481 3.2365 3.135384 4.822921 4.832548-1.855923 1.097767-3.619258 2.8221-5.591745 3.12944-2.243641.349791-4.289704-.97466-4.16074-3.97505"/><path d="m304.868807 353.313097c-1.254919-.815048-2.569358-1.458594-3.577923-2.434954-.367879-.357431-.081016-2.180249.03224-2.192984 1.373137-.159614 2.770245-.108674 4.160742-.102731.133097.000851.277768.042451.397638.105277 1.478126.764957 2.952118 1.538401 4.426936 2.3093-1.681491.716561-3.36381 1.432275-5.439633 2.316092"/><path d="m289.840043 249.32425c.331502 1.062108 1.162329 2.289772.890347 3.151514-.543964 1.727729-1.689759 3.255093-2.587546 4.865659-.472042-1.33294-1.370657-2.689653-1.29956-3.990333.076882-1.416143 1.054858-2.779649 1.640983-4.166078.451374.046697.903575.092543 1.355776.139238"/><path d="m327.380209 348.214893c.564632.63336 1.150755 1.022206 1.105287 1.303226-.070268.438088-.507588.941549-.916801 1.137669-.180219.0866-.916802-.479688-.95979-.809103-.051253-.392241.372839-.849006.771304-1.631792"/></g></g></g></svg>