<svg height="2048" viewBox="0 0 2048 2048" width="2048" xmlns="http://www.w3.org/2000/svg"><path d="m192 2048c-106.000384 0-192-85.91974-192-192v-1664c0-106.000384 85.999616-192 192-192h1664c106.08026 0 192 85.999616 192 192v1664c0 106.08026-85.91974 192-192 192zm621.28128-1517.28128c24.961024 25.040896 24.961024 65.519616 0 90.560512l-240.00512 240.00512c-12.000051 12.000051-28.319744 18.719949-45.279232 18.719949s-33.28-6.719898-45.279232-18.719949l-143.998976-143.998976c-24.961024-25.040896-24.961024-65.519616 0-90.560512 25.040896-24.961024 65.519616-24.961024 90.560512 0l98.719744 98.799616 194.719744-194.799616c25.040896-24.961024 65.519616-24.961024 90.560512 0zm210.71872 109.279232c-35.360768 0-64 28.639232-64 64s28.639232 64 64 64h640c35.36077 0 64-28.639232 64-64s-28.63923-64-64-64zm-64 703.999998c0-35.36077 28.639232-64 64-64h640c35.36077 0 64 28.63923 64 64s-28.63923 64-64 64h-640c-35.360768 0-64-28.63923-64-64zm-146.720768-82.72077c24.961024-25.04089 24.961024-65.51961 0-90.56051-25.040896-24.96102-65.519616-24.96102-90.560512 0l-194.719744 194.79962-98.719744-98.79962c-25.040896-24.96102-65.519616-24.96102-90.560512 0-24.961024 25.0409-24.961024 65.51962 0 90.56051l143.998976 143.99898c12.000051 12.00005 28.319744 18.71995 45.279232 18.71995s33.28-6.7199 45.279232-18.71995z" fill="#00b140" fill-rule="evenodd"/></svg>