<svg height="2048" viewBox="0 0 2048 2048" width="2048" xmlns="http://www.w3.org/2000/svg"><path d="m704.218855 1440.0827h639.548535c70.6989 0 127.90971-57.22845 127.90971-127.94913s-57.21081-127.94912-127.90971-127.94912h-639.548535c-70.698893 0-127.909707 57.22844-127.909707 127.94912s57.210814 127.94913 127.909707 127.94913zm0-767.694754c-70.698893 0-127.909707 57.228445-127.909707 127.949126 0 70.72068 57.210814 127.949125 127.909707 127.949125h639.548535c70.6989 0 127.90971-57.228445 127.90971-127.949125 0-70.720681-57.21081-127.949126-127.90971-127.949126zm1336.304695-264.278919c-21.23493-211.915739-188.74037-379.4651187-400.58123-400.70467358l-59.58354-6.74739713c-70.57418-7.12228807-133.53134 44.48151351-140.64951 115.20539271-7.1201 70.59593 44.46781 133.57249 115.1699 140.692858l59.45883 6.122686c90.80949 9.121493 162.50928 80.966206 171.62924 171.682136l5.49628 58.850201c6.62029 65.724267 61.95627 115.579644 127.90971 115.207486h12.74109c34.10072-3.250722 65.32988-19.869074 86.94023-46.358062 21.6097-26.489307 31.85239-60.475154 28.22999-94.33689zm-2039.80808736 59.624293c-3.62240292 33.861736 6.6202867 67.848222 28.22999226 94.33689 21.6097056 26.489307 52.8363026 43.109259 86.9402281 46.358068h12.741086c65.953443.372791 121.290381-49.483225 127.909708-115.207492l6.120799-59.477151c9.118683-90.837482 80.941263-162.559364 171.629246-171.682137l58.83207-5.497974c70.698894-7.122288 122.288076-70.096928 115.169901-140.692858-7.120094-70.7206808-70.075333-122.32576185-140.649514-115.20539302l-59.458828 6.12268553h-.125032c-211.975165 21.24147409-379.6040351 189.17598049-400.58122718 401.34441949zm6.74723709 1172.65374c21.23493017 211.91573 188.74036727 379.46511 400.58122727 400.70467l59.58354 6.7474h12.741086c70.698893 3.49877 130.78128-50.85338 134.279611-121.57726 3.497691-70.59593-50.837713-130.82159-121.539804-134.32099l-59.458828-6.12269c-90.809497-9.12149-162.509284-80.96621-171.629246-171.68214l-5.49628-58.8502c-7.120094-70.72068-70.075334-122.32576-140.649515-115.20539-70.698893 7.12229-122.28807592 70.09693-115.16990068 140.69286zm1560.14668027 407.45399h12.74109l59.45883-6.12269h.12503c211.97516-21.24147 379.60403-189.17598 400.58123-401.34442l6.74531-59.6019c7.1201-70.59593-44.46781-133.57249-115.1699-140.69286-70.57418-7.12229-133.53134 44.48151-140.64951 115.20539l-6.1208 59.47715c-9.11868 90.83749-80.94126 162.55937-171.62925 171.68214l-58.83207 5.49797c-70.69889 3.49877-125.03813 63.72507-121.5398 134.321 3.49769 70.72068 63.58072 125.07666 134.27961 121.57726z" fill-rule="evenodd"/></svg>