<svg height="2048" viewBox="0 0 2048 2048" width="2048" xmlns="http://www.w3.org/2000/svg"><g fill="#ff2500" fill-rule="evenodd"><path d="m1021.92345 1741.84142c-376.517475 0-681.970395-306.15858-681.970395-683.363v-375.115426c0-377.204412 305.45292-683.362994 681.970395-683.362994 376.51748 0 681.9704 306.158582 681.9704 683.362994v375.115426c0 377.28634-305.45292 683.363-681.9704 683.363zm0-1537.059852c-262.511695 0-477.585704 215.595116-477.585704 478.560945v375.115427c0 263.04776 215.155763 478.56095 477.585704 478.56095 262.5117 0 477.58571-215.59512 477.58571-478.56095v-375.115427c0-262.965829-215.07401-478.560945-477.58571-478.560945z"/><path d="m1021.92345 2048c-563.652097 0-1021.92345-459.20715-1021.92345-1024.01024 0-56.080945 45.1874112-103.441419 103.230619-103.441419 58.122919 0 103.23062 45.279685 103.23062 103.441419 0 452.71493 365.746403 819.20819 817.538761 819.20819 451.79236 0 817.53876-366.49326 817.53876-819.20819 0-56.080945 45.18741-103.441419 103.23062-103.441419 58.12292 0 103.23062 45.279685 103.23062 103.441419-4.15105 564.80309-462.42036 1024.01024-1026.07246 1024.01024z"/></g></svg>