<svg height="2048" viewBox="0 0 2048 2048" width="2048" xmlns="http://www.w3.org/2000/svg" xmlns:xlink="http://www.w3.org/1999/xlink"><mask id="a" fill="#fff"><path d="m0 0h2048v1130.53h-2048z" fill="#fff" fill-rule="evenodd"/></mask><g fill="none" fill-rule="evenodd"><ellipse cx="1017.5" cy="1041" fill="#fff" rx="999.5" ry="1006"/><path d="m347.573869 684.707132c-51.077448 19.924324-133.768929-31.618625-158.693695 52.871417-13.969246 47.349634 20.125231 106.563677 69.999376 113.187118 83.31501 11.065168 74.831729-83.615198 117.6857-119.159825-10.422239-16.859666-18.087822-29.264104-28.991381-46.89871zm35.412639-56.978329c-48.509491-34.904694-37.906757-139.761883-129.915626-122.491796-49.570585 9.304679-78.488127 71.170258-61.967334 117.650447 27.71424 77.961107 108.554276 29.191201 157.761136 50.908417 12.621-17.037876 21.861815-29.512517 34.121824-46.067068zm54.796746.113406c12.238131-63.650371 110.017382-111.172814 43.428274-187.75685-28.551082-32.836388-92.749994-33.560025-122.42507.761439-62.002885 71.718386 30.738904 121.503545 34.824663 183.514932 16.813415 1.323068 27.610318 2.173612 44.172133 3.480479zm1177.901676-12.231629c68.88086-127.406048 78.89835-167.662417 39.84025-186.555288-43.29974-20.944977-102.80304-30.006642-131.89561 9.734-54.90887 75.009855 37.97513 117.771953 51.03643 176.821288zm-80.57749 65.418963c-53.16682 28.113845-146.90681-13.044371-165.32827 79.416482-8.97554 45.041015 28.1354 99.872733 74.87002 101.903237 89.24674 3.874699 77.57744-95.819825 123.72956-135.071742-12.20805-16.970372-20.98943-29.1723-33.27131-46.247977zm29.29494-60.947533c-55.05929-29.110196-51.64628-142.391818-147.56315-109.622934-45.57234 15.569-69.97203 80.105017-50.22146 123.066925 36.9113 80.283227 115.33926 17.845217 169.13507 35.382619 10.40583-17.731812 17.98664-30.654676 28.64954-48.82661zm74.21367 102.286657c48.02817 34.021749 46.08374 138.095898 138.30592 113.351826 47.32534-12.696052 75.74515-74.199813 55.86878-120.893313-34.94773-82.09232-114.63642-26.26695-168.62641-42.135666-9.35841 18.196235-16.21176 31.52142-25.54829 49.677153zm-1204.850185 16.865067c-18.09876-.97205-30.528326-1.638984-48.304383-2.592133-7.009235 62.621619-96.895917 114.934107-35.552113 186.377079 29.727036 34.62118 97.300665 36.530178 126.992149.345618 61.278169-74.685839-34.936788-122.432393-43.135653-184.130564zm1143.796265-12.018317c-1.54788 65.281255-99.55139 119.940164-25.96398 188.493988 33.11269 30.846385 105.30262 30.603373 131.69596-10.284829 48.29892-74.823546-45.08554-117.742252-56.53059-178.209159zm53.21331-112.077361c12.56083 17.931622 21.37776 30.519669 32.95954 47.049918 53.629-24.938481 143.84659 22.76757 168.27089-66.836535 13.04763-47.86806-27.51187-101.398312-72.94747-108.17296-94.23498-14.048822-80.00046 91.64001-128.28296 127.959577zm-1186.021237 120.269582c51.356395 41.498433 46.515838 151.95571 146.570424 132.007084 46.414652-9.253375 77.585651-73.187261 58.636374-118.179674-33.585808-79.753999-119.878991-30.638474-174.738637-55.115232-11.352063 15.38269-19.239163 26.07254-30.468161 41.287822zm32.346954-52.860617c55.269862-23.321099 142.760878 44.684596 174.626511-48.715904 16.157068-47.349634-16.083229-110.50588-66.307426-120.372187-88.401697-17.364593-87.121821 83.920313-135.215626 118.033867 9.752218 18.512151 16.947419 32.172153 26.896541 51.054224zm555.080613-410.985424c71.53906-89.134281 93.15201-158.328038 53.50593-186.7821001-45.813-32.87959-108.682808-35.955048-141.691578 3.9152012-61.833329 74.6885389 36.254951 120.5881979 46.198604 182.8668989zm-84.917588 65.513467c-59.139573 23.439905-151.575068-24.735971-181.676769 67.616876-16.293807 49.984969 24.615736 103.407214 70.294732 112.26907 98.53952 19.116983 87.499221-93.986431 142.063511-127.705764-11.078586-18.838868-19.367698-32.938993-30.681474-52.180182zm40.521205 52.857917c-10.627347 64.2066-106.199632 116.616294-42.175746 191.83406 33.241226 39.049407 107.189619 35.830841 139.178319-3.523681 60.93632-74.963953-37.38168-123.420644-44.73003-188.310379zm64.759543-3.161862c48.99628 41.112313 46.45841 145.588782 140.58673 133.076339 50.00268-6.647741 85.99236-67.51697 70.40959-117.034815-29.89659-94.998983-122.43874-40.772096-180.63482-63.03204-11.16336 17.278188-19.34308 29.936439-30.3615 46.990516zm-74.621153-108.391672c-23.489007-34.688682-47.401906-71.286363-72.698602-106.928195-17.447883-24.584764-42.692618-42.111365-72.389572-29.069695-46.472082 20.407649-65.817901 63.539666-71.303866 110.427576-3.407533 29.139898 15.347574 53.865069 44.286994 58.55251 48.443857 7.846603 97.97889 9.134569 141.64509 12.739254 12.134209-18.215136 20.491691-30.759981 30.459956-45.72145zm100.407373 51.988473c64.14695-27.733126 161.11124 31.070496 189.315-68.896742 13.98566-49.571847-23.85273-109.247615-74.47894-117.553242-98.11289-16.095527-91.53028 93.208791-147.02166 134.693723 18.97389 14.313436 29.30588 27.595419 32.1856 51.756261zm-506.516429 683.61034c-5.546129 30.89228-11.094994 61.78457-16.944684 94.36715-49.280698-39.13852-98.996227-78.62265-149.253241-118.538797-35.78457 23.520907-70.948344 46.634097-107.285339 70.516827-43.42007-22.68657-87.469138-45.70525-131.865523-68.902144-54.38106 23.880024-108.5132545 47.654754-166.465934 73.106254 4.2170276-399.89325 171.448699-711.321857 515.2349-914.572103 355.800081-210.3570121 720.68783-198.3602955 1064.49317 29.447713 313.19498 207.527267 469.50121 506.324624 468.27237 885.53751-59.15505-25.3462-114.76676-49.17762-171.46145-73.473472-43.69354 22.605562-87.84927 45.448732-132.62032 68.610522-35.85841-23.14288-71.96841-46.44508-109.19148-70.468217-62.14509 47.357737-124.2601 94.691167-184.92842 140.920247-5.18787-35.15311-10.32925-69.9984-15.4679-104.84369 3.50872-4.27432 7.01744-8.55134 11.15516-13.5925-6.66466-4.13391-12.55537-7.7872-18.44881-11.44319-35.42905-146.89835-240.42801-313.785827-391.01035-318.31936-199.0891-5.994308-403.759882 135.876383-458.89574 318.09255-2.431218 1.77939-4.862435 3.55878-7.504231 5.49208.828638 3.05116 1.509598 5.55689 2.187822 8.06262z" fill="#cc2330" mask="url(#a)"/><g transform="translate(37.674 59.454)"><path d="m961.144821 822.889466h-33.862021c.317234 14.78596 1.41935 28.437862-11.316511 37.858646 14.885396 22.289645 29.262124 43.817852 45.178532 67.654677zm53.013669 103.339711c16.54814-23.591112 31.4226-44.795302 43.35717-61.806176-4.27993-16.676057-7.40578-28.842883-10.71212-41.719845h-32.64505zm-480.016429 28.294755c-.680959-2.505729-1.359184-5.011458-2.187822-8.062615 2.639061-1.933299 5.070278-3.712691 7.501496-5.492082 151.42192-32.857989 299.873872-50.079474 418.038157 83.690805 20.442465-71.785893-31.425333-110.551786-57.003711-159.289291-65.497932 0-129.270219-.218711-193.039771.110706-24.725128.126907-37.586789-12.080421-37.616871-35.533826-.030083-23.3373 16.827089-28.491865 36.607737-27.776328 84.611295 3.061957 169.528886-7.798001 253.593225 8.462235v-63.455961h-142.525688c-13.195303-12.191127-28.682351-23.194193-19.589214-43.493836 8.702063-19.427498 26.962176-17.860469 44.615167-17.807415 83.366971.280814 166.736674.310516 250.103644.054003 17.38225-.054003 34.96141-.526527 43.08096 18.212436 8.78684 20.278042-7.18973 31.013794-19.67399 43.456033h-102.27249v55.198937c69.66573 0 138.45087.124207 207.236-.075604 20.85542-.062103 37.35433 6.096914 36.43271 29.634024-.85598 21.852223-14.0841 33.381815-37.21486 33.238708-48.22507-.302416-96.45288-.091805-144.0763-.091805-35.72988 50.508796-80.126261 96.948483-56.43488 171.096994 94.83116-141.781587 231.70953-120.725905 369.649-95.404003 5.89071 3.655988 11.78415 7.309275 18.44881 11.443188-4.13772 5.043859-7.64644 9.318179-11.1579 13.592498-17.41506 16.403344-34.82739 32.806687-51.52048 48.532297-191.0762 2.26541-191.0762 2.26541-237.57289-27.800631-29.8337 27.125591-59.85882 54.424001-90.59499 82.370431v63.57747c110.22522-83.84201 228.36216-62.1788 350.36061-38.8469-38.9241 93.87573-215.83688 95.52281-317.13853 42.26258-10.90629 7.30657-22.12162 14.82106-32.85562 22.01153v81.7737c80.96583-32.73108 160.46856-37.93425 241.58481-1.08546-53.10118 69.8742-101.18131 73.01986-235.52181 19.86493v281.88368c46.39004-36.24936 84.38704-65.94279 123.94834-96.85937-13.88173 64.3605-59.56073 98.91958-116.69571 127.16843 3.50599 39.23302 7.12957 79.7891 13.45238 150.56244 113.71753-183.80925 286.88641-275.43036 413.59687-426.1143.99273 4.37152-.74933-3.29417-3.59076-15.79311 29.3469-6.20762 57.69834-12.20463 102.34086-21.64972-49.11114-4.08531-81.86284-6.80705-117.21532-9.7475 3.18875-23.4777 5.90712-43.49113 9.3885-69.10735 33.20293 18.33124 61.86614 34.15676 89.34519 49.32614.73839-40.65059-95.11284-60.60192-22.3951-121.30104 17.82255 34.81019 32.68607 63.83938 49.98628 97.62622 7.98555-42.31117-22.35955-79.92951 2.53513-112.16377 6.53612-8.46223 36.19753.49143 56.0192 1.48778-8.14417 34.39707-15.36399 64.88164-26.68323 112.69299 30.30681-41.63344 49.90149-68.55382 73.75969-101.3308 96.029 63.89338-37.63054 68.76713-22.01222 107.02 30.27125-12.71766 64.49426-27.0986 102.19865-42.93761 5.89071 18.04773 10.88715 33.35481 17.16893 52.5879-37.28322 5.40028-72.27471 10.46574-107.26619 15.5339 25.64401 33.45472 102.31898-15.86872 100.93245 69.29096-41.50299-11.6511-74.29571-20.85587-116.70118-32.76078 33.53932 25.3192 59.63183 45.01671 86.51196 65.31095-6.5033 23.36161-22.62481 35.62294-46.59514 42.7972-19.4388-27.62242-38.69164-54.98022-65.04396-92.42575 5.5598 45.31373 9.7112 79.14647 14.30836 116.6163-21.39144 2.16011-43.2259 4.36342-69.49071 7.01496 8.42585-37.55083 15.83436-70.57083 27.21377-121.28754-29.59303 42.54339-48.80758 70.16311-70.04039 100.68818-17.7952-13.31168-61.18246-8.57834-45.2305-42.55689 11.44778-24.39575 48.85955-36.9109 79.71878-58.19609-129.70778 24.77647-186.19462 124.5736-253.19121 211.77459-20.60108 26.81507-40.95057 50.7059-76.93751 57.26454-46.21501 8.42443-51.19504 47.73305-58.28906 83.09407-10.02022 49.93907-37.39261 89.84712-69.2309 127.87857h-232.385021c-80.665011-226.30403-233.807106-394.30666-469.320714-496.64732 14.130598 51.72385 85.059799 39.31402 78.417023 92.94957-1.427554 11.5215-22.977604 20.61286-35.120018 30.70868-23.598399-33.43042-43.917799-62.2166-62.987406-89.23148-22.794374 28.91578 61.5872 102.70517-48.063722 99.92673 5.496903-38.55258 9.886222-69.32876 16.091433-112.8631-24.949379 35.37182-42.49298 60.2428-59.784981 84.75736-38.347056-6.39933-36.372546-13.17128 29.937615-99.98344-39.044425 9.20747-74.711399 17.6184-113.258094 26.70707-3.51419-18.75786-6.541589-34.92629-10.282765-54.90462h127.476204c-54.364651-13.30629-86.993287-21.2906-126.830797-31.0408 18.569142-16.95957-.836842-65.44326 48.542309-37.80734 21.848141 12.22893 42.577758 26.40466 62.872545 39.10341 4.558875-40.52638-91.858457-61.97899-17.729566-121.20383 17.724096 37.15661 32.002372 67.08495 52.630802 110.32767-2.704695-46.40998-4.553405-78.13392-6.560732-112.58229h59.207942c-7.928121 33.72474-15.238182 64.81144-27.793548 118.22288 30.495509-48.87521 48.89236-78.36343 69.64112-111.61834 88.718932 68.55113-31.783589 72.57973-27.656809 113.37883 32.82007-10.72225 68.065888-22.23564 108.349168-35.39612 30.741639 127.02803-81.389727 27.37941-100.210469 70.13071 28.786273 11.20557 61.841534 24.30395 95.071821 36.9595 65.39948 24.90338 121.582758 60.76392 155.023623 124.5223 3.929876 7.48748 8.576263 16.00912 15.320226 20.44815 89.315113 58.74422 187.540132 108.55908 212.516859 227.07627 2.319092 10.99766 24.344994 17.94782 38.883073 27.91673 14.163415-113.77844 44.513981-228.92856-96.740035-291.66089 32.092619-15.6176 71.86723 4.58754 117.672026 54.95323v-192.15268c-52.934362 49.06152-121.437815 23.02948-178.154375 30.08495-22.269297-19.87842-40.439162-36.09816-62.705724-55.97658 85.087147-29.76903 164.959072-34.48347 246.63595 1.65789v-68.21901c-16.397729-11.13807-34.994219-23.76932-44.560472-30.26586-118.366659 28.22185-228.102359 71.65629-322.211538-37.62373 56.702886-52.4718 274.481458-25.88353 368.344507 43.94206v-92.67957c-29.68328-22.88907-61.133226-47.13902-80.257528-61.887176-126.253759 14.804856-243.031512 72.563526-345.090691-37.785742z" fill="#25171c"/><path d="m0 1252.33439c39.3425156-32.50427 79.0296132-65.29206 115.254482-95.2177 140.160105 437.50889 433.341975 681.90925 906.305408 680.03266 381.16789-1.51208 743.474-283.05015 829.52379-683.55634 40.55949 33.81654 80.2712 66.92564 119.79148 99.87274-99.32714 425.74168-552.29114 752.70148-1023.597304 734.34324-488.568081-19.02788-844.614292-370.06482-947.277856-735.4746" fill="#25171c"/><g fill="#fdfdfd"><path d="m1389.36428 941.196317c-137.93946-25.321902-274.81783-46.377584-369.64899 95.404003-23.691385-74.151211 20.705-120.588198 56.43487-171.096994 47.62343 0 95.85124-.210611 144.07631.091805 23.13075.143107 36.35887-11.386485 37.21486-33.238708.92162-23.53711-15.5773-29.696127-36.43271-29.634024-68.78514.199811-137.57027.075604-207.23601.075604v-55.198937h102.2725c12.48426-12.442239 28.46356-23.177991 19.67399-43.456033-8.11956-18.738963-25.69871-18.266439-43.08096-18.212436-83.36697.256513-166.736676.226811-250.103647-.056703-17.652992-.059403-35.913104-1.617383-44.615168 17.807415-9.093136 20.302343 6.393911 31.305409 19.589215 43.496536h142.525687v63.455961c-84.064339-16.262936-168.981929-5.400277-253.593224-8.462235-19.780649-.715537-36.63782 4.439028-36.607738 27.776328.030083 23.453405 12.891744 35.660733 37.616871 35.533826 63.769552-.329417 127.541839-.110706 193.039771-.110706 25.578378 48.737505 77.446177 87.503398 57.003712 159.289291-118.164286-133.770279-266.616237-116.548794-418.035423-83.690805 55.135858-182.216165 259.803905-324.086857 458.89574-318.092549 150.582344 4.533533 355.578564 171.42101 391.010344 318.319361m-348.70688-670.281911c-2.87973-24.160842-13.21172-37.442825-32.18561-51.75626 55.49138-41.484933 48.90877-150.7892506 147.01893-134.6937233 50.62895 8.3029267 88.46733 67.9813943 74.48168 117.5532423-28.20377 99.967238-125.16805 41.163615-189.315 68.896741m-100.408744-51.989822c-9.968266 14.961469-18.325747 27.509014-30.459957 45.72145-43.663465-3.601986-93.198498-4.889952-141.642354-12.739255-28.942155-4.687441-47.697262-29.412612-44.289729-58.549809 5.485964-46.890611 24.831784-90.022627 71.3066-110.4302763 29.694219-13.0416704 54.941689 4.4849305 72.389572 29.0696943 25.293962 35.641832 49.209595 72.239513 72.695868 106.928196m74.623334 108.392751c11.01843-17.054077 19.19541-29.712327 30.35877-46.993216 58.19608 22.262645 150.74097-31.964242 180.63482 63.03474 15.58277 49.517845-20.40691 110.387074-70.40686 117.034816-94.12832 12.512443-91.59044-91.964027-140.58673-133.07634m-64.761178 3.162402h52.275278c7.34835 64.889735 105.66362 113.346426 44.7273 188.310379-31.9887 39.354523-105.937097 42.573088-139.175589 3.523681-64.026621-75.217766 31.545664-127.63016 42.173011-191.83406m-40.522025-52.858727c11.313776 19.241189 19.605623 33.341314 30.681474 52.180182-54.561555 33.719334-43.521257 146.822747-142.060776 127.705764-45.681731-8.861855-86.588539-62.284101-70.297467-112.26907 30.104436-92.352847 122.53993-44.179671 181.676769-67.616876m84.919778-65.512387h-41.987046c-9.943653-62.281401-108.031933-108.18106-46.198604-182.8668986 33.00877-39.8729494 95.878585-36.79749132 141.691585-3.9152013 39.64607 28.4540625 18.03039 97.6451189-53.505935 186.7820999m-555.082256 410.985424c-9.949122-18.882071-17.144323-32.544773-26.896541-51.056924 48.096539-34.110853 46.813929-135.398459 135.215626-118.031167 50.226932 9.866307 82.464494 73.019853 66.310161 120.372187-31.868368 93.397801-119.359384 25.394805-174.629246 48.715904m-32.345586 52.858457c11.228998-15.215282 19.116097-25.902432 30.468161-41.285122 54.859645 24.476758 141.152829-24.641467 174.738637 55.112532 18.946541 44.995113-12.221723 108.926299-58.636374 118.179675-100.054586 19.951325-95.214029-90.508652-146.570424-132.007085m1186.020417-120.267962c48.2825-36.319566 34.04798-142.011099 128.28296-127.959577 45.4356 6.774649 85.99783 60.3022 72.94747 108.17026-24.4243 89.606806-114.64189 41.900754-168.27089 66.839236-11.57905-16.53025-20.39871-29.118297-32.95954-47.049919m-53.21386 112.077901h49.20139c11.44505 60.464208 104.82951 103.385614 56.5306 178.206459-26.39335 40.888202-98.58328 41.133914-131.69597 10.284829-73.58741-68.553824 24.4161-123.212733 25.96398-188.491288"/><path d="m396.091291 679.77833c8.198864 61.700872 104.413822 109.447426 43.135652 184.130564-29.688749 36.18456-97.265112 34.275562-126.992148-.345617-61.343805-71.440272 28.542877-123.755461 35.552113-186.37438 17.776057.953149 30.205622 1.620084 48.304383 2.589433m1204.850459-16.862636c9.33653-18.155733 16.18988-31.480918 25.54829-49.679854 53.98999 15.871416 133.68142-39.953953 168.62641 42.138366 19.8791 46.6908-8.54345 108.194561-55.86878 120.893314-92.22218 24.744072-90.27775-79.330078-138.30592-113.351826m-74.2134-102.286658c-10.6629 18.169234-18.2437 31.094799-28.64953 48.82661-53.79582-17.537401-132.22378 44.897908-169.13508-35.385319-19.75057-42.959208 4.64912-107.495225 50.22146-123.064225 95.91687-32.771584 92.50387 80.512738 147.56315 109.622934m-29.29603 60.945913c12.28462 17.075678 21.06326 29.277605 33.2713 46.247977-46.15211 39.251917-34.48008 138.946441-123.72682 135.071742-46.73462-2.030504-83.84556-56.862222-74.87275-101.903237 18.42146-92.460853 112.16145-51.302637 165.32827-79.416482m80.57859-65.419232h-41.01894c-13.0613-59.049335-105.9453-101.811433-51.03642-176.821289 29.09256-39.740642 88.59586-30.678977 131.8956-9.734 39.0581 18.892871 29.04061 59.14924-39.84024 186.555289m-1177.900863 12.231088c-16.56455-1.304167-27.358719-2.154711-44.172133-3.480479-4.088493-62.011387-96.830283-111.793846-34.824663-183.512232 29.672341-34.321464 93.873988-33.597827 122.422335-.764139 66.591843 76.586736-31.187408 124.109179-43.425539 187.75685m-54.796746-.112866c-12.260009 16.554551-21.500824 29.029192-34.121824 46.067068-49.20686-21.717216-130.046896 27.052691-157.761136-50.908416-16.523528-46.480189 12.396749-108.343069 61.964599-117.650447 92.008869-17.270088 81.40887 87.587101 129.918361 122.491795m-35.41346 56.978869c10.90356 17.634606 18.569142 30.039044 28.991381 46.89871-42.85397 35.544627-34.370689 130.224994-117.685699 119.159825-49.874146-6.62344-83.968622-65.837484-69.999377-113.187118 24.924767-84.490042 107.616247-32.947093 158.693695-52.871417m704.257559 300.975019v-103.523321h32.64778c3.30634 12.874262 6.42946 25.043788 10.70939 41.717145-11.93457 17.013574-26.80903 38.215064-43.35717 61.806176m-53.012579-103.338361v105.513323c-15.916408-23.836825-30.293136-45.365032-45.178532-67.654677 12.735861-9.420784 11.633745-23.072686 11.316511-37.858646z"/></g></g></g></svg>