<svg height="2048" viewBox="0 0 2048 2048" width="2048" xmlns="http://www.w3.org/2000/svg" xmlns:xlink="http://www.w3.org/1999/xlink"><mask id="a" fill="#fff"><path d="m0 0h714.652149v1686.38484h-714.652149z" fill="#fff" fill-rule="evenodd"/></mask><mask id="b" fill="#fff"><path d="m0 0h802.652201v982.685033h-802.652201z" fill="#fff" fill-rule="evenodd"/></mask><g fill="none" fill-rule="evenodd"><path d="m452.773082 472.588724c10.166883 143.261408 95.561184 197.894507 192.024421 285.804202 8.714471 7.93886 21.026414 18.272229 25.434658 28.917697-1.908807 2.494171-1.822898 6.72718-2.68468 7.868047-.818827 1.083168-3.369273 2.572852-5.36936 5.245365-.708755.946789-1.959816 1.647045-2.68468 2.622683-1.755781 2.368282-2.182645 4.563467-2.68468 5.245365-12.336104 16.800904-28.280419 31.95214-34.90084 52.453649-.955746.582236-1.683294 2.011598-2.68468 2.622683-22.60769 13.83465-38.654022 22.791111-67.103576 22.279688 7.815103 7.883783 19.396813 8.140806 29.563696 10.459257 5.398891 3.611434-1.871222 5.211271-2.370573 8.345376-1.871221 11.809939 21.498918 1.374286 23.78895 3.517017l-2.655149 20.952611c2.268555 2.462699 20.612973-9.132181 22.830519-13.047846-1.401403 6.200022-2.757166 27.732245 1.353079 31.409246 5.122369 4.579203 13.176409-17.876204 18.728327-18.348287.563783 38.758002 16.913484 68.643469 40.377587 98.271913 10.940071 13.81629 18.978003 24.00541 29.45094 38.10758-13.815363 7.43792-23.700355 19.63077-34.876678 30.19756l10.701135 5.19554-29.504633 23.63037c12.346843 6.76389 24.768857.43536 37.558673 2.59645-14.032823 14.14151-32.191998 23.53333-42.941457 40.63847l42.941457-3.92091c-11.463584 12.75672-40.863515 36.78574-45.588551 52.51659-1.5947 5.30831 3.033688 4.23039 6.660691 3.90255 9.938685-.9022 18.250454-7.41957 28.22941-6.57506-10.958864 11.41653-35.832424 37.75089-40.251407 52.51135-1.205422 4.02057.209405 4.24874 3.868624 3.81075 5.930458-.71337 31.279206-9.58852 33.671256-7.77625l-37.564042 48.52749c-1.00944 5.89317 2.069888 3.80552 6.091539 3.3413 9.380271-1.08054 19.042435-7.29106 28.787823-7.28319-12.204555 11.19886-27.797177 22.73866-32.202736 39.3009l45.612713-9.17939c-4.478047 6.91864-23.045293 19.15345-25.622586 25.03088-2.18533 4.98048 1.914177 8.88303.233567 12.96392-2.048411 4.97523-20.540487 19.30819-22.903005 27.60374l32.183944-5.27684-42.928033 47.23451c16.0168 2.72234 32.106088-8.45815 48.337663-7.88116-3.447129 1.92505-40.031264 44.09254-37.612367 45.87072 13.122716 2.11912 24.782281-9.12694 37.572097-3.92091-18.478653 13.98152-33.639041 30.88995-48.310817 48.50651l56.321902-17.05006-16.078549 23.60676 16.121504 2.6358-18.765914 24.91548c1.779943 1.54214 30.264398-10.4068 21.44254-.03671-.652378.76582-12.985798 6.77701-17.141682 10.82381-7.96813 7.75527-16.626223 19.38687-23.107041 28.54003l40.216506-6.55671c-6.472763 4.42709-48.07188 48.87107-42.887762 53.77811l48.251753-17.0658c-5.278081 14.47196-16.110765 25.72065-26.766259 36.78312l13.380445 7.79986-32.17589 39.39269 32.183944-5.27684c-12.822032 12.51544-26.59981 24.54569-34.887417 40.63847 5.562657 4.09925 28.760977-10.28878 36.205595-10.50384 8.497012-.24654-5.844549 8.22997-6.727809 9.0535-18.006148 16.77992-33.778643 35.4744-48.257122 55.25467 19.216939-.36193 36.597557-16.3498 56.311162-18.39812-10.016541 5.71745-6.335844 14.04971-9.460812 22.20363-4.82437 12.59412-22.078808 15.37679 6.816403 17.14972-4.416299 2.94265-37.037846 39.00191-34.887417 40.63847 10.795098-.12589 20.210271-6.0243 29.504633-10.4645 2.27124 2.28697-27.450853 36.73329-25.507144 44.53052l24.146012-10.48286-14.701308 15.76232c11.272971.00525 21.348575-12.08794 32.183944-9.17152l-56.348749 61.62255 60.421408-28.76821c-6.078115 16.42062-19.689443 27.86601-30.836234 40.607 3.806876 5.39748 3.86057 2.57285 7.270113 1.98799 8.043301-1.38215 15.893306-6.82946 23.713779-8.40307 2.531653-.5088 9.970901-1.98013 9.197713 2.43385l-42.936087 23.63823c-715.2792903-253.18327-909.899797-1151.795598-316.829825-1640.524612 29.499264-24.309644 61.167749-47.103377 94.001386-66.841685-6.290206 51.16329-7.264744 117.847614.448341 168.725032 1.041656 6.86356.657747 19.239999 7.605699 22.730789" fill="#d55b35"/><path d="m64.4323198 1686.38484-24.1486965-11.81518 29.5046331 1.30871c4.3142808-3.80813-23.8963366-31.77642-26.8333765-36.67559l48.3108164 14.41164c-10.3413873-10.9156-19.5525243-22.99306-29.5046331-34.21027-2.3974192-2.70398-7.3587078-3.48292-7.8634277-4.18055-.7651338-1.06744 5.8069629-16.7196-8.2446522-21.9571 12.8032389-4.17269 24.3366241 9.94521 37.5989433 7.85493-11.8018533-17.80539-27.7381137-32.3062-42.9683033-47.19517 9.4071187-3.7347 19.7619294 4.52413 29.5180565 3.92091 2.1531134-1.65229-14.9617216-22.50524-16.0785485-24.93384-3.6592188-7.95722 14.4945873 3.77142 10.6850264-5.16406-1.7020871-3.99959-13.0448601-11.15689-16.0704944-15.78593l13.3858144-5.19553-16.0704944-14.43525c20.0384514-1.06743 36.5465487 13.00589 56.3111627 14.42476-12.7522298-12.9613-23.8372735-27.23918-37.4942407-39.40581-4.0511821-3.61143-20.4357841-13.21307-21.493548-14.43524-10.620594-12.2794 30.5758205 5.29519 32.1758897 1.37953-9.5896769-17.61394-25.3219017-28.02074-40.2514071-40.64371l45.5858663 11.80207c-15.8261886-16.22129-29.7865245-34.59581-45.5321727-49.85457 19.5954793-7.53497 7.6781848-8.38734 2.6444098-22.28231 3.0632199-2.6594 38.2191044 10.24157 45.6127131 3.93402-13.087815-14.72898-29.3516064-25.66819-45.6127131-36.74378l21.4505931.02623-24.1352731-32.78353c2.2578159-1.97488 32.1866284 9.55967 38.3076988 11.07821 3.5437776.87859 5.1438469 4.96736 4.6015415-1.86735-6.451286-6.91602-11.1736381-15.29811-17.3859876-22.36886-3.5061921-3.9891-34.4686064-30.76931-30.8926127-34.05029l18.7659132 2.59646-10.7118732-14.42476 13.3911838 1.31397-10.7199272-23.56743 56.3219016 22.29543-42.8850782-47.25025 24.127219 1.3533c-9.412488-4.95162-15.8933055-19.32655-24.0144625-27.69028-5.6834675-5.85645-13.8126785-9.04301-18.9055165-15.62594l26.8199531 3.9314c1.879276-9.00367-22.8707888-31.46432-18.7524897-36.70182l32.1302501 11.83354-24.0896335-39.38744c-.856413-3.30983 9.6031003 2.08241 7.9332293-5.0985-2.6470944-11.37195-17.8933921-20.71132-24.0547327-30.26575 15.6892699-2.33157 27.9260413 14.4772 42.9817267 9.12693-.2630987-10.30452-32.500736-34.97347-40.2970467-43.22181 13.5549493 1.11202 26.5917553 10.98118 40.2567765 9.16628l-48.3108165-56.37456c15.4557027.870731 29.9905602 12.331853 45.6100284 9.184634-7.4124014-17.663766-17.6437169-34.41484-32.173205-47.25287 4.6928206-4.747056 25.1876677 5.672862 26.8145837 3.936646-3.3021563-23.522839-25.4266042-39.447767-42.9226637-53.767614l36.192171 6.606538c4.9237031-9.022028-9.8125054-15.657415-14.6905689-22.366237l-32.2349527-24.857784c13.9495973 2.627928 28.6052653 8.159165 42.9226637 3.926155-3.4873993-5.672862-33.7705896-18.733821-29.1717328-24.684687.595999-.771069 6.8351953 1.004487 5.0042435-4.141216-10.9373862-10.700544-23.0211309-20.564453-34.8820471-30.197566 22.6560145-46.452952 73.399151-83.10494 72.4997832-138.989058l21.4505931 15.709868-5.3425131-28.823281 26.8199528 2.596456c2.279294-11.225081-12.91331-13.310114-13.393868-23.580538 19.117606 7.374983 32.822897-1.007111 45.610028-14.448358l-16.081233-1.324455 8.024509-10.454012c-18.819607 6.986826-29.343553.786804-45.6234523-5.255856-2.2041222-8.374225-6.8056637-16.971378-11.2595478-24.406683-8.2392829-13.748102-26.7501515-39.358596-37.064692-51.651109 47.4731963-59.972881 121.0710141-99.88224 164.8635141-162.844979 25.402442-36.526099 52.166016-99.126907 64.13432-141.915972 1.374556-4.914907 4.255218-30.703744 7.254005-30.942408.187928-.015736-.391963 3.07903 2.657833 2.622683 3.828354-18.172567 2.260501-38.070859 2.711527-55.076332.306054-11.5161993 3.618949-29.1852112 2.985364-38.1233131-.349008-4.9358885-5.307612-2.5885877-5.906296-7.6084019-2.453797-20.5854349-.520828-41.0266222-5.133108-64.42095 35.733091 18.5843281 71.213822 46.0385684 102.05811 72.0844282 564.411014 476.6463158 378.440546 1353.8654218-303.9755767 1612.4986318-3.8793626 1.47132-12.1911318 1.40313-12.8569325 1.80178" fill="#d55b35" mask="url(#a)" transform="translate(1333.3479 291.6236)"/><path d="m1620.60861 401.776297c-.45103 17.005473 1.11683 36.903765-2.71153 55.076332-3.04979.456347-2.4699-2.638418-2.65783-2.622682v-26.226825z" fill="#3d3937"/><path d="m656.808761 808.292083c.502035-.681898.928899-2.877083 2.68468-5.245365z" fill="#f6f3e7"/><path d="m662.178121 800.424035c2.000087-2.672513 4.550533-4.162197 5.36936-5.245365z" fill="#f6f3e7"/><path d="m85.8963364 2.62268249c1.1060881 1.53689194 1.5839612 3.69273694 2.68468 5.24536497-5.2888196 2.66202274-1.8980688 9.13218044-1.3799256 13.10029904 2.0484109 15.6836413 7.1868884 39.004534 7.0419157 53.8436715-.0912792 9.4888652-3.020265 18.7364437-2.9773102 32.717964-7.6271758 20.632643-9.613839 52.23859-8.0191391 74.712356 2.0645189 29.124889 14.3227678 55.624473 24.1272188 82.648593 12.403222 34.189289 15.3161 44.509545 36.992206 75.326064 46.783233 66.516473 157.295401 205.691742 232.332206 234.625175 58.764961 22.659977 101.118472-20.842457 134.489045-63.644635 49.497445-63.495144 82.331081-148.074031 117.014462-220.079779 3.224301-1.702121 17.184637-12.455119 21.47744-15.736095 19.404867-6.564574 29.641552-21.928248 37.58552-39.340237 21.442539-46.995848 11.713259-84.017634 8.019139-132.529392-.381225-5.0093231 3.006841-10.5510512-5.334459-9.0954624-.083225-14.3303371-.732918-29.06719-.110072-43.3817911.442972-10.1655173 7.162726-23.3051566.110072-32.6760011 2.51286-3.9654959 4.746514-8.38733858 5.36936-13.11341242.647008.53502722 4.703559-.5402726 5.36936 0 11.860916 9.63311282 23.944661 19.49702162 34.882047 30.19756612 1.830952 5.1457031-4.408245 3.370147-5.004244 4.1412157-4.598857 5.9508666 25.684334 19.0118254 29.171733 24.6846876-14.317398 4.2330095-28.973066-1.2982279-42.922664-3.9261557l32.234953 24.8577846c4.878064 6.7088218 19.614272 13.3442085 14.690569 22.3662367l-36.192171-6.606538c17.49606 14.319847 39.620507 30.244775 42.922664 53.767614-1.626916 1.736216-22.121763-8.683702-26.814584-3.936646 14.529488 12.83803 24.760804 29.589103 32.173205 47.25287-15.619468 3.147219-30.154326-8.313903-45.610028-9.184634l48.310816 56.37456c-13.665021 1.814896-26.704512-8.054258-40.256776-9.166275 7.79631 8.248336 40.033948 32.917288 40.297046 43.221807-15.055685 5.350272-27.292457-11.4585-42.981726-9.126935 6.16134 9.554432 21.407638 18.893805 24.054732 30.265756 1.669871 7.180905-8.789642 1.788669-7.933229 5.098495l24.089634 39.387445-32.130251-11.833543c-4.118299 5.237497 20.631766 27.69815 18.75249 36.701819l-26.819953-3.931401c5.092838 6.582933 13.222049 9.769492 18.905516 15.625942 8.121157 8.363734 14.601975 22.738657 24.014463 27.690282l-24.127219-1.353304 42.885078 47.250247-56.321901-22.295424 10.719927 23.567425-13.391184-1.313964 10.711873 14.424754-18.765913-2.596456c-3.575994 3.280976 27.386421 30.061187 30.892613 34.050287 6.212349 7.070752 10.934701 15.452845 17.385987 22.368859.542306 6.834711-1.057764 2.745949-4.601541 1.86735-6.121071-1.518533-36.049883-13.053091-38.307699-11.078211l24.135273 32.783531-21.450593-.026227c16.261107 11.075589 32.524898 22.014797 45.612713 36.743782-7.393609 6.307551-42.549493-6.593424-45.612713-3.934024 5.033775 13.894972 16.951069 14.747344-2.64441 22.282311 15.745648 15.258766 29.705984 33.63328 45.532173 49.854571l-45.585866-11.802071c14.929505 12.622971 30.66173 23.029775 40.251407 40.64371-1.60007 3.915665-42.796484-13.65893-32.17589-1.379531 1.057764 1.222171 17.439681 10.823811 21.493548 14.435245 13.656967 12.166624 24.742011 26.444507 37.494241 39.405804-19.764614-1.418871-36.275396-15.492185-56.311163-14.424753l16.070494 14.435244-13.385814 5.195534c3.025634 4.629035 14.368407 11.788958 16.070494 15.785926 3.809561 8.935479-14.344245-2.793157-10.685026 5.164062 1.116827 2.428604 18.231662 23.281552 16.078548 24.933842-9.756127.603217-20.110937-7.65561-29.518056-3.92091 15.23019 14.888968 31.16645 29.38978 42.968303 47.195171-13.262319 2.090278-24.795704-12.027622-37.598943-7.854934 14.051615 5.237497 7.476834 20.889666 8.244652 21.957098.50472.697634 5.466009 1.47657 7.863428 4.180556 9.952109 11.217213 19.163246 23.294666 29.504633 34.21027l-48.310816-14.41164c2.937039 4.899171 31.147657 32.867457 26.833376 36.678215l-29.504633-1.311342 24.148696 11.815185c-34.659218 20.729682-111.194075 37.155543-155.206719 46.390008-192.249935 40.339479-390.69611 29.347817-575.0262385-35.899278l42.9360871-23.638237c.7731879-4.413975-6.6660604-2.94265-9.1977136-2.43385-7.8204728 1.57361-15.6704771 7.020921-23.7137784 8.403075-3.4095436.584858-3.4632372 3.409487-7.2701134-1.987993 11.1467913-12.740992 24.7581189-24.186378 30.8362344-40.606993l-60.42140794 28.768204 56.34874834-61.622548c-10.8353684-2.916423-20.9109724 9.176766-32.1839437 9.171521l14.7013076-15.762322-24.1460118 10.482862c-1.9437084-7.797235 27.7783838-42.243547 25.5071446-44.530526-9.2943622 4.440201-18.7095349 10.338614-29.5046332 10.464503-2.1504286-1.636554 30.471118-37.695815 34.8874166-40.638465-28.8952108-1.772933-11.6407725-4.5556-6.8164025-17.149721 3.1249675-8.15392-.5557288-16.486182 9.4608122-22.20363-19.7136051 2.048315-37.0942234 18.036188-56.3111628 18.398118 14.4784792-19.780271 30.2509742-38.474752 48.2571229-55.254675.8832597-.823522 15.2248202-9.300032 6.727808-9.0535-7.4446176.21506-30.6429374 14.603096-36.2055944 10.503844 8.2876072-16.09278 22.0653849-28.123025 34.8874166-40.638466l-32.1839438 5.276838 32.1758897-39.392691-13.3804451-7.799858c10.6554949-11.062475 21.4881787-22.31116 26.7662596-36.783122l-48.2517536 17.065795c-5.184117-4.907039 36.4149995-49.351016 42.8877629-53.778104l-40.2165063 6.556706c6.4808175-9.153162 15.1389105-20.784759 23.1070407-28.540031 4.1558847-4.046799 16.4893046-10.057987 17.1416818-10.823811 8.8218584-10.370086-19.6625963 1.578855-21.4425391.036718l18.7659131-24.915484-16.1215033-2.635796 16.0785485-23.606765-56.32190161 17.050059c14.67177621-17.616558 29.83216411-34.524992 48.31081651-48.506513-12.7898155-5.206024-24.4493807 6.040038-37.5720965 3.920911-2.4188967-1.778179 34.1652375-43.945668 37.6123667-45.870717-16.2315753-.57699-32.3208625 10.603505-48.33766331 7.881161l42.92803311-47.234512-32.1839438 5.276838c2.3625184-8.295545 20.8545942-22.628505 22.903005-27.603734 1.6806097-4.080894-2.4188966-7.983445-.2335671-12.963919 2.5772928-5.877432 21.1445396-18.112245 25.6225858-25.030882l-45.612713 9.179389c4.4055598-16.56224 19.9981812-28.102043 32.2027365-39.300897-9.7453884-.007868-19.4075517 6.202644-28.7878236 7.283189-4.0216506.464215-7.1009786 2.55187-6.0915389-3.341297l37.5640425-48.527495c-2.3920499-1.812273-27.7407984 7.062884-33.6712565 7.776254-3.6592188.437988-5.0740452.209815-3.8686239-3.810758 4.4189833-14.760457 29.2925434-41.094812 40.2514072-52.511348-9.9789556-.844504-18.2907248 5.672862-28.2294102 6.575065-3.6270026.327835-8.2553909 1.405757-6.660691-3.902552 4.7250368-15.73085 34.1249674-39.759866 45.5885509-52.5165941l-42.9414565 3.9209101c10.7494587-17.105135 28.9086342-26.496961 42.9414565-40.6384649-12.7898155-2.1610904-25.2118298 4.1674424-37.5586731-2.5964557l29.5046331-23.6303692-10.7011344-5.195534c11.1763228-10.5667878 21.0613145-22.75963866 34.8766778-30.1975662.7329176.98612862 4.6337576 1.59983632 5.36936 2.62268249" fill="#ede6d6" mask="url(#b)" transform="translate(632.6601 1065.315)"/><path d="m825.943601 1230.54396c-3.213562 38.36198-8.821859 85.90072 25.966225 112.32425 83.705637 63.58169 177.384864 95.76725 273.968904 35.12559 29.6684-18.6263 79.68131-51.51736 90.61332-84.57627 5.83918-17.66377 3.46324-47.57808 9.46887-60.25088.23357-.49045 3.55989-1.93554 4.89417-4.3012 27.59314-48.9445 61.57314-97.54543 91.75431-145.19171 7.05265 9.37085.3329 22.51049-.11007 32.67601-.62285 14.3146.02684 29.05145.11007 43.38179.2282 39.75986 8.15337 102.4446-5.36936 139.00217-5.75595 15.56037-21.96337 32.0754-34.90084 41.96292-4.2928 3.28097-18.25314 14.03397-21.47744 15.73609-15.49597 8.18015-54.201 15.83314-64.33567 22.38722-2.18802 1.41625-21.33515 35.18591-28.25357 43.21132-15.20872 17.64016-33.61757 31.04731-52.38348 44.55413-76.31471 39.21435-181.71525 32.34554-237.368666-36.93786-6.896943-8.58667-23.423833-41.36233-28.414653-44.3653-9.01784-5.42895-35.682082-11.21197-48.28397-17.08678-16.725556-7.79723-40.237984-23.29204-51.04919-37.98955-29.875119-40.62273-26.696458-109.42618-26.8468-157.36095-.042955-13.98152 2.886031-23.2291 2.97731-32.71797.144973-14.83913-4.993505-38.16003-7.041916-53.84367-.518143-3.96812-3.908894-10.43827 1.379926-13.1003 33.413527 47.17419 61.546289 97.8418 93.896683 145.61134 3.012211 4.44807 5.425738 9.43641 10.805837 11.74961" fill="#f6f3e7"/><path d="m750.772561 1330.2059c10.811206 14.69751 34.323634 30.19232 51.04919 37.98955 12.601888 5.87481 39.26613 11.65783 48.28397 17.08678 18.443751 89.94227 122.037498 127.34697 206.795529 108.91476 11.45553-2.49155 49.033-15.69676 57.28839-22.19576 2.7679-2.17945 1.46583-5.24799 1.6994-5.41584 18.76591-13.50682 37.17476-26.91397 52.38348-44.55413 6.91842-8.02541 26.06555-41.79507 28.25357-43.21132 10.13467-6.55408 48.8397-14.20707 64.33567-22.38722-34.68338 72.00575-67.51702 156.58464-117.01446 220.07978-33.37057 42.80218-75.72409 86.30461-134.48905 63.64464-75.036803-28.93344-185.54897-168.10871-232.332203-234.62518-21.676107-30.81652-24.588985-41.13677-36.992206-75.32606z" fill="#48443e"/><path d="m750.772561 1330.2059h-10.73872c-9.804451-27.02412-22.0627-53.52371-24.127219-82.6486-1.5947-22.47376.391963-54.07971 8.019139-74.71235.150342 47.93477-3.028319 116.73822 26.8468 157.36095" fill="#3d3937"/><path d="m1322.6094 1159.73154c8.3413-1.45559 4.95323 4.08614 5.33446 9.09546 3.69412 48.51176 13.4234 85.53354-8.01914 132.52939l-2.68468-2.62268c13.52273-36.55757 5.59756-99.24231 5.36936-139.00217" fill="#3d3937"/><path d="m1319.92472 1301.35639c-7.94397 17.41199-18.18065 32.77566-37.58552 39.34024 12.93747-9.88752 29.14489-26.40255 34.90084-41.96292z" fill="#48443e"/><path d="m1115.88904 1466.58539c-.23357.16785 1.0685 3.23639-1.6994 5.41584-8.25539 6.499-45.83286 19.70421-57.28839 22.19576-84.758031 18.43221-188.351778-18.97249-206.795529-108.91476 4.99082 3.00297 21.51771 35.77863 28.414653 44.3653 55.653416 69.2834 161.053956 76.15221 237.368666 36.93786" fill="#222123"/><path d="m880.979541 968.275714v2.622683c1.742357-.873353 1.742357-1.749329 0-2.622683m-119.46826-469.460165c7.678185 12.082698 16.207413 22.484257 24.16212 34.094872 17.216853 25.125299 36.253918 49.406093 51.00892 76.057793-.400018.133756-2.373257 4.233009-6.048584 5.775146-10.432667 4.377257-37.990907 13.018996-44.84758 19.25049-12.765653 11.602747.985278 32.140974-32.315493 22.198384 3.170607 12.287268 3.162553 21.794492.013424 34.079137 27.340781-22.618014 51.430414-46.765052 82.325712-65.100225 7.017753-4.16482 22.572789-3.204918 14.295921-13.58025 4.44583.920562 8.668831 3.086897 13.409976 2.612192l.026847-15.712491c9.329263.062944 11.039404 12.832785 21.450593 10.464503l.04027-20.968346 20.121677 18.345664 1.34234-15.709868c9.071534-1.906691 11.936087 7.212376 18.75249 10.477616l.053693-23.604142c16.250368 9.006291 29.585174 46.198552 26.8468 2.622682 6.655322.726483 7.774833 20.018936 13.557634 11.587011 1.694033-2.467944.550359-9.412807 5.181432-8.951215-.945007 3.002972 2.179961 21.183407 8.043302 15.712491 5.170693-4.825736-1.081926-35.183286 14.803325-10.532693l12.04884-15.678396 5.43111 23.596274 24.10037-20.973591 9.4286 23.546443 16.1215-23.538575 6.71707 23.583161c4.77873 4.159574 21.84793-20.388734 25.49909-23.583161l6.7305 23.580538c6.77344 4.474296 30.55971-22.106591 32.15172-20.965724 3.49277 42.618591 15.76981 11.340479 25.47225 13.095054 6.92379 1.253642 1.43362 23.299911 8.10236 23.551688 5.13311.194079 8.097-9.439034 12.04348-10.417294 3.26457 11.406046 24.50844 12.591498 34.95453 18.350909 11.91729 6.56982 37.00026 28.199082 48.36182 37.992179 3.79346 3.270485 28.81468 30.952898 32.16516 27.56177.66311-6.850447-6.75734-11.42965-7.53322-17.621804-.49129-3.944514 3.35317-12.664934 2.1907-13.824159-.86178-.857617-20.85191-1.324455-24.30172-3.823871-3.70217-2.683004-1.32355-9.918985-5.22439-13.255038-1.69672-1.44772-37.79761-18.828237-40.28899-19.651759 6.55599-30.451967 31.28726-55.453999 45.63956-81.303158 11.08504-7.757894 14.92682-20.485773 21.47744-31.472189 4.29549-7.201887 11.11189-16.166215 14.17243-21.681717 19.28674-34.734806 33.9075-71.995257 52.94457-106.829725-4.5908 35.193776-16.96986 69.209968-23.31645 104.422103-12.371 68.622487-11.54144 139.581785-33.24707 206.465433l2.72226 7.917879c12.88647 14.603096 28.02269 28.238422 40.41786 43.124768 9.39101 11.277535 16.72556 27.632583 29.53148 36.717555.74634 14.506057 8.41647 10.346482 10.73872 13.113412 10.31454 12.292513 28.82541 37.903008 37.06469 51.651109 4.45389 7.435305 9.05543 16.032458 11.25955 24.406683-4.37334-1.62344-8.33056-5.308309-13.4234-5.245365-48.01013-52.451027-126.13969-69.393556-175.62103-7.647742-25.75682 32.138352-52.57677 121.152195-57.94613 162.38601h-5.36936c-1.72088-4.20416-16.40876-27.556526-20.3633-33.871945-35.59617-56.87287-93.09128-134.937014-172.09067-105.618047-43.464969 16.129498-78.27453 60.751818-98.009613 99.724879-.604053 1.193321-4.674028.167852-4.851216.424875h-8.05404c2.488698-28.345952-42.952196-119.227146-65.718282-139.057248-60.434831-52.637238-128.934441-9.937344-183.956958 23.659218 6.620421-20.501509 22.564736-35.652745 34.90084-52.453649l2.68468-5.245365c.724864-.975638 1.975925-1.675894 2.68468-2.622683l5.36936-5.245365c.861782-1.140867.775873-5.373876 2.68468-7.868047 2.128951-2.782666 7.503681-9.024651 10.73872-13.113413 7.986923-10.092082 19.351173-19.782894 24.16212-31.47219l40.425911-43.143126c6.239197-10.356974-8.813804-30.373286-12.819347-42.836274-16.478565-51.291801-6.781501-118.781289-14.921451-174.256269-8.301031-56.571262-45.465056-127.813809-44.901273-180.374989.032216-2.987235-1.992032-11.044116 2.649779-10.472371 29.44557 68.837548 45.588551 143.678415 85.944661 207.173558" fill="#ede6d6"/><path d="m871.583161 976.143762c-.6309 7.188773-15.313415 29.465838-18.916256 40.530938-14.22075 43.66242-11.619295 84.83853-16.011431 128.60586-2.818914 28.11515-8.381571 57.44986-10.711873 85.2634-5.380099-2.3132-7.793626-7.30154-10.805837-11.74961-32.350394-47.76954-60.483156-98.43715-93.896683-145.61134-1.100719-1.55262-1.578592-3.70847-2.68468-5.24536 51.148523-20.48315 72.556161-66.66072 111.577985-99.682917 2.276609-3.535376-7.46878-24.459137-9.944055-29.764824-40.425911-86.606221-123.0711-86.338707-206.323026-62.021195l5.355936-13.100299c1.001386-.611085 1.728934-2.040447 2.68468-2.622683 55.022517-33.596562 123.522127-76.296456 183.956958-23.659218 22.766086 19.830102 68.20698 110.711296 65.718282 139.057248" fill="#3d3937"/><path d="m662.149664 947.289534c-1.191998-1.285115-5.812333-1.862105-4.827055 3.385883 8.478219 45.19931 46.426171 76.781653 90.752922 47.748557-9.487659-2.937404-17.998094 2.153226-27.883086 1.172339-22.564735-2.234525-44.963021-24.493231-55.895037-42.65793-1.849745-3.073784-1.809475-9.284296-2.147744-9.648849m59.420022-26.07471c0-10.493352-8.709102-18.998712-19.447822-18.998712-10.741405 0-19.447822 8.50536-19.447822 18.998712 0 10.49073 8.706417 18.99609 19.447822 18.99609 10.73872 0 19.447822-8.50536 19.447822-18.99609m-102.345371-57.845885-5.355936 13.100299c83.251926-24.317512 165.897115-24.587648 206.320342 62.021196 2.475275 5.303064 12.220663 26.229448 9.944054 29.764824-39.021823 33.022192-60.426777 79.197142-111.5753 99.682912-.738287-1.02284-4.639127-1.63655-5.36936-2.62268-10.475621-14.10216-18.510869-24.29128-29.453624-38.10758-23.464103-29.631062-39.81112-59.513907-40.374903-98.271908-5.554603.46946-13.608643 22.92749-18.728327 18.348286-4.110245-3.677-2.757167-25.211846-1.355764-31.409245-2.217545 3.913042-20.561964 15.510544-22.830518 13.047845l2.657833-20.955233c-2.292717-2.142731-25.662856 8.292922-23.78895-3.514394.496666-3.134106 7.76678-4.733942 2.370573-8.345376-10.166883-2.318451-21.748593-2.578097-29.566381-10.459258 28.449554.511423 44.495886-8.44766 67.106261-22.279688" fill="#222123"/><path d="m1413.88825 860.745732c-4.97203.060322-15.6141 4.883435-22.8681 5.203402-34.54915 1.513288-73.9871-4.631657-105.68243 12.150888-21.75396 11.518822-55.34199 56.290635-60.91539 79.726925-.88326 3.718964-2.1021 6.045284 1.35039 9.234465 22.68555 20.706079 45.96709 40.761728 67.37473 62.779148 11.45016 11.77322 22.58622 30.60146 34.83104 40.71977-.62284 4.72608-2.8565 9.14792-5.36936 13.11341-30.18117 47.64628-64.16117 96.24721-91.75431 145.19171-1.33428 2.36566-4.6606 3.81075-4.89417 4.3012-8.04867 1.53689-4.79752-3.80552-5.75595-8.66535-12.5831-63.71545-13.43146-139.12281-37.43518-199.12192-2.17459-5.43682-4.19884 3.54324-2.44843-9.89538 5.36936-41.233815 32.18931-130.247658 57.94613-162.38601 49.48134-61.745814 127.6109-44.803285 175.62103 7.647742" fill="#3d3937"/><path d="m1217.90688 619.458944c2.49138.823522 38.59227 18.204039 40.28899 19.651759 3.90084 3.336053 1.52222 10.572034 5.22439 13.255038 3.44981 2.499416 23.43994 2.966254 24.30172 3.823871 1.16247 1.159225-2.68199 9.879645-2.1907 13.824159.77588 6.192154 8.19633 10.771357 7.53322 17.621804-3.35048 3.391128-28.3717-24.291285-32.16516-27.56177-11.36156-9.793097-36.44453-31.422359-48.36182-37.992179-.28995-2.703986 3.50888-3.239013 5.36936-2.622682" fill="#3d3937"/><g fill="#48443e"><path d="m1282.3392 506.683597h2.68468c-6.55062 10.986416-10.3924 23.714295-21.47744 31.472189 4.77873-8.605021 8.75743-29.935298 18.79276-31.472189"/><path d="m1298.44728 472.588724 2.68468-2.622682c-.79467 1.712611-2.57461 2.389263-2.68468 2.622682"/><path d="m1282.3392 504.060914 2.68468-2.622682c-.49935 1.214302-1.42288 2.145354-2.68468 2.622682"/><path d="m1287.70856 493.570184 2.68468-2.622682c-.80809 1.686384-2.61219 2.452208-2.68468 2.622682"/></g><path d="m1612.55457 291.623632c4.61228 23.394328 2.67931 43.835516 5.13311 64.42095.59868 5.019815 5.55729 2.672514 5.90629 7.608402.63359 8.938102-2.67931 26.607114-2.98536 38.123313l-5.36936 26.226825c-.92353-29.804164-3.84178-59.687008-8.05404-89.171205-13.13077-91.935512-53.54863-222.513627-118.19841-292.3582847-70.75742-76.4485719-57.50047 57.8327717-61.70468 94.3169077-5.61635 48.71895-22.7285 101.754835-39.01646 148.095012-6.04858 17.215288-24.75274 51.063628-27.50723 65.047771-.93695 4.765414 2.76522 8.982688 2.10211 13.737611l-10.70114-2.604324c-2.435 8.707306 6.94796 3.94976 8.03257 5.245365 3.4874 4.159575-1.3155 10.603505-8.05136 7.86018-19.03707 34.834468-33.65783 72.094919-52.94457 106.829725-3.06054 5.515502-9.87694 14.47983-14.17243 21.681717h-2.68468v-2.622683c1.2618-.477328 2.18533-1.40838 2.68468-2.622682.84568-2.056184 1.26717-4.529373 2.68468-7.868048.07249-.170474 1.87659-.936298 2.68468-2.622682 2.47528-5.16144 5.13848-12.158756 8.05404-18.358778.11007-.233419 1.8927-.910071 2.68468-2.622682 2.49944-5.397481 5.69689-12.838031 8.05404-18.358778 1.64034-3.84223-.08054-2.420736 0-2.622682.51546-1.279869-.4913-3.860589 0-5.245365.12618-.354062 2.16654-1.151358 2.68468-2.622683.28995-.820899-.32485-1.943407 0-2.622682 8.73595 1.460834 4.08608-3.058048 5.36936-7.868048 10.75483-40.315875 39.4809-92.528238 54.42115-134.357401 14.48653-40.554539 22.38755-73.613452 31.48861-114.797435 10.15078-45.938906 9.93063-76.983599 16.39803-121.671486 3.86862-26.7303799 18.55919-56.79681198 50.88005-42.4009078 62.50204 27.8423973 129.49554 210.1476798 142.12696 274.2250578" fill="#222123"/><path d="m1615.23925 428.003122v26.226825c-2.99879.238664-5.87945 26.027501-7.25401 30.942408-11.9683 42.789065-38.73187 105.389873-64.13432 141.915972-43.7925 62.962738-117.39031 102.872098-164.86351 162.844978-2.32225-2.76693-9.99238 1.392645-10.73872-13.113412-2.04036-39.623487 59.42808-74.541882 85.94735-98.313876 19.86931-17.808014 36.21364-36.707064 53.65601-56.424391 43.916-49.644757 76.3174-91.072649 85.56612-159.007994 5.60561-41.176115 1.41214-84.214335 13.76704-124.241715 4.21226 29.484197 7.13051 59.367041 8.05404 89.171205" fill="#f6f3e7"/><path d="m1607.18521 338.831917c-12.3549 40.02738-8.16143 83.0656-13.76704 124.241715-9.24872 67.935345-41.65012 109.363237-85.56612 159.007994 12.11328-33.614921 22.13519-64.74354 24.27488-100.863123 3.52498-59.50342-20.75526-189.184579-39.67957-247.32945-7.65134-23.50448-24.1487-50.730547-45.08115-19.061656-29.89123 45.215046-62.64969 158.000884-75.1254 212.481867-20.47337 89.386265-22.70434 181.972202-33.5236 272.793074-12.39517-14.886346-27.53139-28.521672-40.41786-43.124768l-2.72226-7.917879c21.70564-66.883648 20.87607-137.842946 33.24708-206.465433 6.34658-35.212135 18.72564-69.228327 23.31644-104.422103 6.73586 2.743325 11.53876-3.700605 8.05136-7.86018-1.08461-1.295605-10.46757 3.461941-8.03257-5.245365l10.70114 2.604324c.66311-4.754923-3.03906-8.972197-2.10211-13.737611 2.75449-13.984143 21.45865-47.832483 27.50723-65.047771 16.28796-46.340177 33.40011-99.376062 39.01646-148.095012 4.20421-36.484136-9.05274-170.7654796 61.70468-94.3169077 64.64978 69.8446577 105.06764 200.4227727 118.19841 292.3582847" fill="#3d3937"/><path d="m1507.85205 622.081626c-17.44237 19.717327-33.7867 38.616377-53.65601 56.424391-26.51927 23.771994-87.98771 58.690389-85.94735 98.313876-12.80592-9.084972-20.14047-25.44002-29.53148-36.717555 10.81926-90.820872 13.05023-183.406809 33.5236-272.793074 12.47571-54.480983 45.23417-167.266821 75.1254-212.481867 20.93245-31.668891 37.42981-4.442824 45.08115 19.061656 18.92431 58.144871 43.20455 187.82603 39.67957 247.32945-2.13969 36.119583-12.1616 67.248202-24.27488 100.863123" fill="#222123"/><path d="m654.124081 178.848285c18.948472 79.663981 53.763402 173.128517 83.17944 250.510764 7.656708 20.147447 17.584654 48.136714 26.89244 66.833818l-2.68468 2.622682c-40.35611-63.495143-56.499091-138.33601-85.944661-207.173558-4.641811-.571745-2.617563 7.485136-2.649779 10.472371-11.315926.839259-2.405473-17.351667-3.167922-24.209982-1.50879-13.561891-15.146965-41.477723-19.643804-57.101043-10.556162-36.701818-18.317571-73.519035-22.798302-111.484987-3.951849-33.4759192 5.637828-133.1299857-57.685719-85.1453869-85.045293 64.4445541-121.503247 261.1509859-119.632025 360.6739189.099333 5.22176 1.96787 30.425739 2.794751 33.536241.735603 2.759061 1.377241-1.898823 2.673942 6.997316-4.196155 13.341586-3.686066 33.090385-2.68468 47.208285-6.947952-3.49079-6.564043-15.867229-7.605699-22.730789-7.713085-50.877418-6.738547-117.561742-.448341-168.725032 9.578938-77.919897 55.258768-227.2160978 126.354464-271.27716364 70.464795-43.67028616 64.869922 69.73712734 69.957391 107.03691764 2.89677 21.243728 8.161427 41.223323 13.093184 61.955628" fill="#222123"/><path d="m541.367521 616.836261c19.568633 23.407441 37.389539 44.931796 60.335499 65.635252 31.021477 27.994513 72.035333 46.591954 79.267861 91.725697-3.235039 4.088762-8.609769 10.330747-10.73872 13.113413-4.408244-10.645468-16.720187-20.978837-25.434658-28.917697-96.463237-87.909695-181.857538-142.542794-192.024421-285.804202-1.001386-14.1179-1.511475-33.866699 2.68468-47.208285 12.376374 84.925082 31.593314 126.484109 85.909759 191.455822" fill="#f6f3e7"/><path d="m850.105721 611.590896c8.276868 10.375332-7.278168 9.41543-14.295921 13.58025-30.895298 18.335173-54.984931 42.482211-82.325712 65.100225 3.149129-12.284645 3.157183-21.791869-.013424-34.079137 33.300771 9.94259 19.54984-10.595637 32.315493-22.198384 6.856673-6.231494 34.414913-14.873233 44.84758-19.25049 3.675327-1.542137 5.648566-5.64139 6.048584-5.775146 4.827054-1.610327 9.611154 1.833255 13.4234 2.622682" fill="#3d3937"/><path d="m764.195961 496.192867c2.872607 5.769901 13.079761 18.214529 16.875898 24.299153 2.268555 3.635038 3.699489 8.245714 4.601542 12.418401-7.954707-11.610615-16.483935-22.012174-24.16212-34.094872z" fill="#48443e"/><path d="m455.457762 425.380439c-1.296701-8.896139-1.938339-4.238255-2.673942-6.997316-.826881-3.110502-2.695418-28.314481-2.794751-33.536241-1.871222-99.522933 34.586732-296.2293648 119.632025-360.6739189 63.323547-47.9845988 53.73387 51.6694677 57.685719 85.1453869 4.480731 37.965952 12.24214 74.783169 22.798302 111.484987 4.496839 15.62332 18.135014 43.539152 19.643804 57.101043.762449 6.858315-8.148004 25.049241 3.167922 24.209982-.563783 52.56118 36.600242 123.803727 44.901273 180.374989 8.13995 55.47498-1.557114 122.964468 14.921451 174.256269 4.005543 12.462988 19.058544 32.4793 12.819347 42.836274l-40.425911 43.143126-10.711873-95.754137c-2.93704-115.203951-10.330649-288.592113-75.729453-387.61149-14.038192-21.254219-31.284576-41.047604-47.202044-7.810349-17.810167 37.184392-37.974799 140.541687-43.1616 183.385828-7.533212 62.233632-3.667273 121.553465 13.03949 181.901389-54.316445-64.971713-73.533385-106.53074-85.909759-191.455822" fill="#3d3937"/><path d="m705.133001 742.72502c-4.810947 11.689296-16.175197 21.380108-24.16212 31.47219-7.232528-45.133743-48.246384-63.731184-79.267861-91.725697-22.94596-20.703456-40.766866-42.227811-60.335499-65.635252-16.706763-60.347924-20.572702-119.667757-13.03949-181.901389 5.186801-42.844141 25.351433-146.201436 43.1616-183.385828 15.917468-33.237255 33.163852-13.44387 47.202044 7.810349 65.398804 99.019377 72.792413 272.407539 75.729453 387.61149z" fill="#222123"/><path d="m879.637201 976.143762c.177188-.257023 4.247163.768446 4.851216-.424875 19.735083-38.973061 54.544644-83.595381 98.009613-99.724879 78.99939-29.318967 136.4945 48.745177 172.09067 105.618047 3.95454 6.315419 18.64242 29.667785 20.3633 33.871945 4.62839 11.30114 10.07292 43.3136 12.64216 57.15087 9.17892 49.44281 30.59461 165.80599 24.24803 210.99481-7.50368 53.43716-96.58942 74.69137-142.9082 70.15676-13.53616-1.32708-41.29844-9.77474-44.26501-24.94958-1.93834-9.91899-.91279-38.52459-.17182-49.88342 2.086-32.02296 13.61402-91.93814 42.16827-110.92111 27.18507-18.07553 90.863-20.19728 91.95566-62.33854.89132-34.41222-27.43743-11.48473-42.61661-7.48252-13.12271 3.46194-32.74504 1.83588-43.80055 7.04191-23.03187 10.84216-24.68832 52.09958-54.30571 52.09434-29.394561-.00262-33.193383-42.46123-56.641378-52.43529-15.546982-6.61441-29.461679-3.75044-44.681129-6.18167-19.037066-3.04231-43.387114-25.63934-39.456742 9.57804 5.466008 48.98909 81.8371 41.62459 105.779076 69.87875 15.359054 18.12798 29.365033 92.02993 30.946303 116.63856 1.58665 24.68993 5.49554 38.02103-18.620937 49.94637-29.57712 14.62407-54.155365 7.95722-84.782194 4.33267-12.717329-1.50542-5.353252-.96515-11.401836-2.94003-10.236685-3.34392-19.292111-4.88606-29.292544-10.23108-56.942062-30.4441-32.390664-85.53355-27.711266-135.56646 5.082099-54.36034 5.796224-109.18227 19.002165-162.40175 1.9276-7.75789 16.757772-59.136241 18.599463-61.821868" fill="#f6f3e7"/><path d="m879.637201 976.143762c-1.841691 2.685627-16.671863 54.063978-18.599463 61.821868-13.205941 53.21948-13.920066 108.04141-19.002165 162.40175-4.679398 50.03291-29.230796 105.12236 27.711266 135.56646 10.000433 5.34502 19.055859 6.88716 29.292544 10.23108 6.048584 1.97488-1.315493 1.43461 11.401836 2.94003 30.626829 3.62455 55.205074 10.2914 84.782194-4.33267 24.116477-11.92534 20.207587-25.25644 18.620937-49.94637-1.58127-24.60863-15.587249-98.51058-30.946303-116.63856-23.941976-28.25416-100.313068-20.88966-105.779076-69.87875-3.930372-35.21738 20.419676-12.62035 39.456742-9.57804 15.21945 2.43123 29.134147-.43274 44.681129 6.18167 23.447995 9.97406 27.246817 52.43267 56.641378 52.43529 29.61739.00524 31.27384-41.25218 54.30571-52.09434 11.05551-5.20603 30.67784-3.57997 43.80055-7.04191 15.17918-4.00221 43.50793-26.9297 42.61661 7.48252-1.09266 42.14126-64.77059 44.26301-91.95566 62.33854-28.55425 18.98297-40.08227 78.89815-42.16827 110.92111-.74097 11.35883-1.76652 39.96443.17182 49.88342 2.96657 15.17484 30.72885 23.6225 44.26501 24.94958 46.31878 4.53461 135.40452-16.7196 142.9082-70.15676 6.34658-45.18882-15.06911-161.552-24.24803-210.99481-2.56924-13.83727-8.01377-45.84973-12.64216-57.15087h5.36936c-1.75041 13.43862.27384 4.45856 2.44843 9.89538 24.00372 59.99911 24.85208 135.40647 37.43518 199.12192.95843 4.85983-2.29272 10.20224 5.75595 8.66535-6.00563 12.6728-3.62969 42.58711-9.46887 60.25088-10.93201 33.05891-60.94492 65.94997-90.61332 84.57627-96.58404 60.64166-190.263267 28.4561-273.968904-35.12559-34.788084-26.42353-29.179787-73.96227-25.966225-112.32425 2.330302-27.81354 7.892959-57.14825 10.711873-85.2634 4.392136-43.76733 1.790681-84.94344 16.011431-128.60586 3.602841-11.0651 18.285356-33.342165 18.916256-40.530938z" fill="#222123"/><path d="m880.979541 968.275714c1.742357.873354 1.742357 1.74933 0 2.622683z" fill="#f6f3e7"/><path d="m721.568343 921.213775c0 10.493353-8.706417 18.998712-19.447821 18.998712-10.73872 0-19.445138-8.505359-19.445138-18.998712 0-10.493352 8.706418-18.998712 19.445138-18.998712 10.741404 0 19.447821 8.50536 19.447821 18.998712" fill="#f6f3e7"/><path d="m662.149664 947.289534c.338269.364553.297999 6.575065 2.147744 9.648849 10.932016 18.164699 33.330302 40.423405 55.895037 42.65793 9.884992.980887 18.395427-4.109743 27.883086-1.172339-44.326751 29.033096-82.274703-2.549247-90.752922-47.748557-.985278-5.247988 3.635057-4.670998 4.827055-3.385883" fill="#ede6d6"/><path d="m1384.34254 952.552733c-7.15735-1.450343-4.62033 1.79916-6.66069 5.166684-13.78852 22.743903-33.77864 46.384763-64.30614 41.85539-10.0058-1.487061-20.75258-11.705032-31.02416-9.019405 41.02996 37.601398 100.84195 18.159458 101.99099-38.002669m-28.83078-31.314829c0-10.412049-8.6393-18.854464-19.30016-18.854464-10.65818 0-19.30017 8.442415-19.30017 18.854464 0 10.414672 8.64199 18.854464 19.30017 18.854464 10.66086 0 19.30016-8.439792 19.30016-18.854464m71.79909-55.246807c16.28258 6.042661 26.80384 12.242682 45.62345 5.255856l-8.02451 10.454013 16.08123 1.324454c-12.78713 13.441248-26.48974 21.823341-45.60734 14.448358.47787 10.270425 15.67048 12.355457 13.39118 23.580538l-26.81995-2.596455 5.34251 28.82328-21.44791-15.709868c.89669 55.884118-49.84645 92.536107-72.50246 138.989057-.66312-.54027-4.72236.53503-5.36936 0-12.24215-10.11831-23.3782-28.94655-34.82836-40.71977-21.40764-22.01742-44.69187-42.073069-67.37741-62.779148-3.44982-3.191804-2.23366-5.515501-1.34771-9.234465 5.57071-23.43629 39.15874-68.208103 60.9127-79.726925 31.69534-16.782545 71.13597-10.6376 105.68243-12.150888 7.25401-.319967 17.89876-5.14308 22.86811-5.204198 5.09552-.062148 9.05005 3.622721 13.4234 5.246161" fill="#222123"/><path d="m1384.34254 952.552733c-1.14904 56.162127-60.96103 75.604067-101.99099 38.002669 10.27158-2.685627 21.01836 7.532344 31.02416 9.019405 30.5275 4.529373 50.51762-19.111487 64.30614-41.85539 2.04036-3.367524-.49666-6.617027 6.66069-5.166684" fill="#ede6d6"/><path d="m1355.51284 921.238691c0 10.412049-8.64199 18.854464-19.30017 18.854464s-19.30016-8.442415-19.30016-18.854464c0-10.41205 8.64198-18.854465 19.30016-18.854465s19.30017 8.442415 19.30017 18.854465" fill="#f6f3e7"/><path d="m1403.14953 181.470968c-9.10106 41.183983-17.00208 74.242896-31.48861 114.797435-14.94025 41.829163-43.66632 94.041526-54.42115 134.357401-3.02295 1.885709-3.9599 4.914907-5.36936 7.868048-.32485.679275.28995 1.801783 0 2.622682l-2.68468 2.622683c-.4913 1.384776.51546 3.965496 0 5.245365v2.622682c-2.35715 5.520747-5.5546 12.961297-8.05404 18.358778l-2.68468 2.622682c-2.91556 6.200022-5.57876 13.197338-8.05404 18.358778l-2.68468 2.622682c-1.41751 3.338675-1.839 5.811864-2.68468 7.868048l-2.68468 2.622682v2.622683c-10.03533 1.536891-14.01403 22.867168-18.79276 31.472189-14.3523 25.849159-39.08357 50.851191-45.63956 81.303158-1.86048-.616331-5.6593-.081304-5.36936 2.622682-10.44609-5.759411-31.68996-6.944863-34.95453-18.350909-3.94648.97826-6.91037 10.611373-12.04348 10.417294-6.66874-.251777-1.17857-22.298046-8.09968-23.551688-9.70511-1.754575-21.98216 29.523537-25.47492-13.095054-1.59202-1.140867-25.37828 25.44002-32.15173 20.965724l-6.7305-23.580538c-3.65116 3.194427-20.72036 27.742735-25.49909 23.583161l-6.71707-23.583161-16.1215 23.538575-9.42859-23.546443-24.10038 20.973591-5.4311-23.596274-12.048848 15.678396c-15.885252-24.650593-9.632632 5.706957-14.803326 10.532693-5.863341 5.470916-8.988308-12.709519-8.043301-15.712491-4.631073-.461592-3.487399 6.483271-5.181432 8.951215-5.782801 8.431925-6.902313-10.860528-13.557634-11.587011 2.738373 43.57587-10.596432 6.383609-26.8468-2.622682l-.053694 23.604142c-6.816402-3.26524-9.680956-12.384307-18.75249-10.477616l-1.34234 15.709868-20.121676-18.345664-.04027 20.968346c-10.411189 2.368282-12.121331-10.401559-21.450593-10.464503l-.026847 15.712491c-4.741145.474705-8.964147-1.69163-13.409977-2.612192-3.812245-.789427-8.596345-4.233009-13.4234-2.622682-14.755001-26.6517-33.792067-50.932494-51.00892-76.057793-.902052-4.172687-2.332987-8.783363-4.601541-12.418401-3.796138-6.084624-14.003291-18.529252-16.875899-24.299153-9.3051-18.697104-19.235732-46.686371-26.892439-66.833818-29.416039-77.382247-64.230969-170.846783-83.17944-250.510764 179.296353-73.117765 379.449987-86.9681508 569.656877-49.01269 61.22681 12.216455 120.77033 31.00273 179.36884 51.635373" fill="#d55b35"/><path d="m1317.24004 430.625804c-1.28328 4.81 3.36659 9.328882-5.36936 7.868048 1.40946-2.953141 2.34641-5.982339 5.36936-7.868048" fill="#48443e"/><path d="m1309.186 443.739217 2.68468-2.622683c-.51814 1.471325-2.5585 2.268621-2.68468 2.622683" fill="#48443e"/><path d="m1309.186 451.607264v-2.622682c-.08054.201946 1.64034-1.219548 0 2.622682" fill="#48443e"/></g></svg>