<svg height="256" viewBox="0 0 1000 256" width="1000" xmlns="http://www.w3.org/2000/svg" xmlns:xlink="http://www.w3.org/1999/xlink"><mask id="a" fill="#fff"/><g fill="none" fill-rule="evenodd"><text fill="#db3132" font-family="NotoSans-Medium, Noto Sans" font-size="166" font-weight="400" letter-spacing="-1.2481203" transform="translate(279.9998 3.78)"><tspan x="0" y="177">LibYML</tspan></text><g fill-rule="nonzero"><path d="m241.865134 110.187258c-1.673875 2.580015-3.044501 4.687943-4.410093 6.79897-5.416276 8.371686-10.831777 16.743759-16.244568 25.118156-.401621.621186-.967842 1.118445-.370251 2.041317 4.960046 7.661428 9.867808 15.356546 14.95876 23.303006 6.87869-18.574787 8.80934-37.35754 6.066152-57.261449m-217.5809394 57.507756c.4868258-.715294.704871-1.023177.9101358-1.339192 4.3752358-6.742427 8.6002024-13.590192 13.2124609-20.16648 1.4236848-2.030086 1.1308921-3.199265-.0491861-4.981108-4.9918044-7.53595-9.8592883-15.15439-14.7759581-22.740299-1.7021476-2.626874-3.414752-5.247165-5.3605062-8.23614-2.7946979 19.815224-.762965 38.688986 6.0630537 57.463219m113.3374694-151.0683274c.96668 1.3004636 1.650638 2.1238065 2.230026 3.0149223 5.394201 8.2996532 10.746962 16.6264155 16.158978 24.9144505 6.204802 9.5017494 12.49326 18.9492806 18.679859 28.4630354 6.052597 9.3081127 12.001012 18.6836111 18.03347 28.0048912 7.650562 11.821516 15.396786 23.581843 22.948977 35.46571 1.099521 1.730724 1.582475.717618 1.977512-.053443 1.837313-3.588474 4.259436-6.800519 6.408519-10.184513 4.955399-7.802394 9.997551-15.549408 15.037766-23.297584.56777-.873301.702935-1.61067.441514-2.674122-4.538287-18.4760326-13.729884-34.3859926-26.768838-48.0819114-16.99514-17.8509735-37.750109-28.9916634-61.87142-33.8836991-4.207538-.8535503-8.459614-1.5057185-13.276363-1.6877369m-94.1022332 121.5228634c26.2281774-40.4793505 52.4133655-80.8920895 78.7038972-121.4682579-.536787-.0243982-.784653-.0542182-1.030196-.0429874-.644454.0290455-1.290844.0491838-1.931425.1192803-12.446397 1.3643636-24.4965955 4.3370731-35.8353385 9.6678896-32.1820149 15.1299916-53.978412 39.1908919-63.0662147 74.0377394-.2091377.800881-.1789289 1.461957.2842721 2.184221 1.6250766 2.534704 3.1603013 5.127498 4.7873143 7.66104 4.1633872 6.48218 8.3507866 12.948869 12.5432206 19.412459 1.8547406 2.859626 3.7454993 5.696016 5.54447 8.428616m-15.7740091 36.852149c-.1185113.7668.313319 1.213714.5623477 1.712909 6.3132442 12.649506 14.5153106 23.919546 25.1089042 33.299303 27.8915958 24.695642 60.3017254 34.6079 97.0135064 27.701657 36.679247-6.900823 63.48294-27.776788 81.123696-60.550949 1.127406-2.094374 1.061567-2.1544-1.334608-2.1544-66.859738-.002711-133.7194763-.005423-200.5792147-.00852-.6328348 0-1.2656697 0-1.8946316 0m201.5664213-5.963234c-.877216-1.443755-1.632047-2.757386-2.453494-4.02803-15.375485-23.78826-30.73393-47.587363-46.147758-71.3504501-16.499794-25.4376567-33.062716-50.8342624-49.557476-76.2750173-.835775-1.2888454-1.127793-1.1037287-1.853191.041051-2.609571 4.1186511-5.393426 8.122282-8.026623 12.2297023-10.632323 16.5857517-21.4106544 33.0777835-32.1262449 49.6104788-16.9637695 26.1738633-33.9209551 52.3523743-50.8796899 78.5297223-2.3965619 3.699622-4.7865398 7.402728-7.2826356 11.263843 6.9042515 0 13.5273291-.015879 20.1500194.019032.8834127.004592 1.2215185-.562765 1.6684533-1.100687 3.3411666-4.020284 6.7117674-8.010748 11.8654598-9.840226.7765201-.275739 1.0518847-.833024 1.2157091-1.5793.7296578-3.316608 2.333046-5.878034 5.7733594-7.048374 1.997264-.679664 3.8403858-1.822508 5.8465575-2.465381 2.8322652-.907382 4.388791-2.579628 5.4267331-5.481465 1.4933973-4.176355.8655973-3.378573 4.9085367-3.124134 1.1219845.070871 1.6603202-.151424 1.9631823-1.214876 1.5607861-5.481467 5.3763852-9.600892 8.5785142-14.088227.4047199-.566968.8137001-1.154074 1.7083446-.999939 2.782304.479444 5.615731.727299 7.829491 2.848782.921368.88337 2.092151 1.500684 3.0933 2.308535 5.682346 4.586865 12.670253 7.081292 18.452907 11.514021.517421.396181 1.330348.51275 2.018564.55535 1.131281.06971 2.083244.592529 3.114602.933329 3.443799 1.138196 5.876378 3.595832 8.276814 6.120854 1.853578 1.949921 3.898091 3.397161 6.785352 3.512568 1.580151.063125 2.491061.002712 3.08904-1.773323.884575-2.62765 1.073186-2.559877 3.874854-1.797337.804407.21881 1.698276.256375 2.409731.639777 1.795872.96857 2.802443.213387 3.635121-1.338417 1.898504-3.537353 5.074298-5.753332 8.304699-7.898051.362118-.240496.851655-.599499 1.188598-.517784 2.161477.524368 4.492198.807852 5.408531 3.390964.522456 1.472414 1.362105 2.72834 2.693227 3.670576 3.006546 2.129617 5.788851 4.436603 7.291543 8.012297.701774 1.67031 2.827618 1.873241 4.478644 1.113023 2.874866-1.3237 4.212573-1.602923 6.246629.864782 2.945742 3.57337 6.194346 6.887267 7.978987 11.293662.420211 1.037505 1.358232 1.861623 2.033669 2.801148.383032.532887.881476.658365 1.507727.657202 6.425559-.015491 12.851893-.009681 19.510213-.009681m-229.2155726-39.923614c-.18590008-15.333309 2.04141525-29.1388265 6.60371304-42.5756595 4.59018286-13.5185476 11.55175356-25.7312097 20.32623726-36.9427706 9.1745563-11.721987 20.2890572-21.3159074 32.8330525-29.2096983 9.7578177-6.1406047 20.2278652-10.83203296 31.2703299-14.2679213 6.1300551-1.90770808 12.3457019-3.43162835 18.6597209-4.40910605 4.671126-.72303917 9.395312-1.3221509 14.163649-1.32292545 2.175031-.00038727 4.338444-.52204435 6.534388-.35319321 5.620767.43219696 11.244632.71142098 16.853392 1.42400377 7.420511.94262311 14.65822 2.60983449 21.75457 4.83433208 9.014603 2.8255457 17.63146 6.63399096 25.848243 11.33819916 6.423236 3.6771596 12.595893 7.7040269 18.273204 12.4624534 4.878328 4.0884439 9.571143 8.3426406 13.885961 13.0665998 5.797758 6.3477959 10.934023 13.1475398 15.31778 20.5034081 5.690091 9.5482221 10.115675 19.6475342 12.977761 30.4389035 1.630886 6.1491246 2.912822 12.3524676 3.661457 18.6460456.956998 8.0487 1.2556 16.126058.5577 24.242144-.549954 6.396205-1.333445 12.733545-2.745512 19.0004-1.626625 7.219161-3.927139 14.204021-6.803168 21.019256-2.82878 6.702539-6.253602 13.079381-10.210174 19.169639-3.149071 4.8475-6.579702 9.492455-10.418151 13.828367-2.936833 3.316996-5.978624 6.520132-9.169908 9.602828-6.977062 6.738554-14.71709 12.408235-23.012881 17.40406-9.415452 5.670068-19.359944 10.099312-29.849356 13.328784-6.816337 2.099021-13.785654 3.452928-20.837851 4.531096-7.614543 1.163756-15.253487 1.236177-22.898241 1.044477-4.923641-.123541-9.831791-.744339-14.709344-1.539412-6.197831-1.010008-12.2930303-2.479322-18.2716543-4.337072-4.9581101-1.540962-9.8070037-3.44983-14.5412592-5.619335-6.6683907-3.055587-13.1334533-6.515873-19.1949577-10.624068-5.8426846-3.960256-11.3588823-8.358906-16.5784143-13.164967-7.2837974-6.706798-13.6051748-14.209056-19.0667642-22.391753-7.1339157-10.688741-12.59434316-22.204698-16.24263222-34.593183-2.14559676-7.284611-3.44341169-14.7098-4.47476984-22.18185-.61385756-4.446672-.69402697-8.981255-.49612084-12.352082" fill="#fbf2e1" mask="url(#a)"/><path d="m148.703761 112.127711c-.070758-10.596869-8.34552-18.6836361-19.063928-18.6313365-10.450072.0521585-18.591825 8.5299645-18.500575 19.2654635.08661 10.185637 8.495154 18.204836 19.121153 18.236058 10.192561.029745 18.512562-8.48301 18.44335-18.870185m80.296239 56.832208c-6.647726 0-13.063073-.005826-19.478421.009319-.624831.001554-1.12284-.124263-1.504853-.658591-.674323-.942453-1.611184-1.76841-2.030315-2.80872-1.781697-4.418306-5.024943-7.741162-7.965826-11.32458-2.030702-2.473987-3.366589-2.194009-6.236327-.866731-1.648302.762273-3.770642.558405-4.471643-1.116032-1.500214-3.58536-4.277543-5.898584-7.279517-8.033956-1.328539-.944783-2.16719-2.204104-2.688785-3.680887-.914821-2.589707-3.241313-2.873957-5.399223-3.399742-.336388-.081936-.825118.278037-1.187025.519184-3.225073 2.150516-6.395242 4.372484-8.290615 7.919401-.831304 1.555999-1.836602 2.313223-3.629512 1.342035-.709895-.384438-1.60229-.422105-2.405369-.641506-2.797434-.764601-2.985348-.832558-3.868464 1.802195-.596992 1.780836-1.5064 1.841413-3.083944 1.778117-2.882499-.115719-4.92364-1.566871-6.774162-3.522064-2.396476-2.531847-4.825043-4.996515-8.263161-6.1374-1.030044-.341721-1.980437-.866342-3.109465-.935851-.687082-.042716-1.499053-.159599-2.015235-.557239-5.773504-4.444324-12.749498-6.945495-18.422472-11.544759-.999498-.810424-2.16835-1.429018-3.088584-2.314776-2.209722-2.127218-5.038476-2.376131-7.8161916-2.856483-.8931686-.154552-1.3014743.433754-1.7055267 1.002643-3.1972341 4.499465-7.0061533 8.630026-8.564365 14.12631-.3023627 1.066327-.8398105 1.289223-1.9599444 1.218161-4.0366578-.255127-3.4095065-1.055066-4.9008274 3.132579-1.0362302 2.909681-2.5901887 4.586448-5.4177825 5.496282-2.0024762.644612-3.842558 1.790156-5.8369144 2.472046-3.4342523 1.173504-5.0349961 3.741853-5.7634503 7.067427-.1639409.747905-.4384646 1.307085-1.2140907 1.58357-5.1451921 1.834424-8.509847 5.835675-11.8455028 9.866826-.4461977.539377-.7837457 1.107878-1.6657013 1.103275-6.6117672-.034617-13.223921-.019084-20.1167849-.019084 2.4919789-3.871164 4.8776282-7.584669 7.2702373-11.293904 16.9311504-26.248112 33.8599809-52.497389 50.7961578-78.7423953 10.6975298-16.5769989 21.4584709-33.1136127 32.0732569-49.7441999 2.628854-4.1185235 5.408116-8.1329772 8.012997-12.262762.724203-1.1478743 1.015739-1.3334914 1.850135-.0411619 16.467941 25.5095274 33.003158 50.9747864 49.475738 76.4812072 15.388405 23.8273249 30.721519 47.6907619 46.072031 71.5433279.819705 1.274079 1.573678 2.590872 2.449447 4.038919" fill="#193745"/><path d="m27.020216 175h1.8989287c67.0113792.002717 134.0227583.005434 201.0341373.008539 2.401609 0 2.467598.059771 1.338023 2.158711-17.681153 32.84601-44.545251 53.767494-81.308076 60.682975-36.794657 6.92169-69.2786823-3.012181-97.2331495-27.76167-10.6180083-9.400597-18.8382893-20.695211-25.1658522-33.372298-.2499815-.499896-.6827914-.947784-.5640113-1.716257" fill="#1e5775"/><path d="m43.286456 138c-1.7995784-2.743536-3.6901816-5.591278-5.5455369-8.462349-4.1929479-6.489458-8.3804732-12.982028-12.5443707-19.49015-1.6272123-2.543681-3.1626254-5.146852-4.7882885-7.6917-.4632577-.725155-.4930829-1.388876-.284307-2.192963 9.0893041-34.9863095 30.8883728-59.1435049 63.0743323-74.3340489 11.3397454-5.3521512 23.3918078-8.3367579 35.8393438-9.7065819.640659-.070377 1.287129-.0905959 1.931661-.1197576.245961-.0112758.49347.0186635 1.03071.0431594-26.2941414 40.7385599-52.4821516 81.3130364-78.713544 121.954391" fill="#db3132"/><path d="m138 17c4.815025.1826863 9.064851.8354698 13.270546 1.690333 24.111126 4.8999487 44.856612 16.0577752 61.844304 33.9362075 13.03324 13.7165982 22.220809 29.651031 26.757492 48.1554835.260921 1.065088.125815 1.803979-.441706 2.678236-5.038007 7.760094-10.077949 15.519413-15.031176 23.33342-2.148141 3.389588-4.569202 6.606185-6.40571 10.200567-.394865.772247-.877219 1.786524-1.976646.053138-7.548881-11.902147-15.291709-23.680564-22.938532-35.519877-6.029815-9.3356178-11.97601-18.7259254-18.025954-28.048356-6.183502-9.5283891-12.46959-18.9900648-18.671674-28.5068177-5.409644-8.3007838-10.759671-16.6403545-16.151896-24.9523865-.579133-.8928743-1.262792-1.7170959-2.229048-3.0199478" fill="#db3132"/><path d="m24.1616604 167c-6.7173499-18.622767-8.7167381-37.344642-5.9665311-57 1.9147782 2.965245 3.5997372 5.564395 5.2751681 8.169693 4.8380164 7.525091 9.628392 15.081682 14.540728 22.557218 1.1612916 1.767083 1.4490419 2.927214.0480218 4.940922-4.538451 6.523231-8.6961571 13.315749-13.0017402 20.003396-.2019969.31385-.4165709.619248-.8956466 1.328771" fill="#1e5775"/><path d="m241.825231 110c2.683967 19.81303.794996 38.510023-5.935194 57-4.981047-7.910177-9.782858-15.570161-14.635825-23.196607-.58469-.918659-.030693-1.413648.362258-2.031998 5.295938-8.336159 10.594527-16.670007 15.893875-25.003469 1.33611-2.101388 2.677147-4.199692 4.314886-6.767926" fill="#1e5775"/><path d="m148.999566 112.382172c.070012 10.248264-8.346179 18.647175-18.656579 18.617828-10.74885-.030805-19.254607-7.94276-19.342219-17.992181-.092305-10.591929 8.143578-18.956358 18.714466-19.007819 10.842328-.0516002 19.212757 7.92702 19.284332 18.382172" fill="#d12c32"/></g></g></svg>