<svg height="1600" viewBox="0 0 3000 1600" width="3000" xmlns="http://www.w3.org/2000/svg" xmlns:xlink="http://www.w3.org/1999/xlink"><linearGradient id="a" x1="50%" x2="50%" y1="0%" y2="100%"><stop offset="0" stop-color="#fff"/><stop offset="1" stop-color="#fff"/></linearGradient><mask id="b" fill="#fff"><path d="m0 0h804.57v800h-804.57z" fill="#fff" fill-rule="evenodd"/></mask><g fill="none" fill-rule="evenodd"><path d="m0 0h3000v1600h-3000z" fill="url(#a)"/><g transform="translate(164 400)"><g transform="translate(873 111)"><text fill="#000" font-family="SFCompactDisplay-Medium, SF Compact Display" font-size="91" font-weight="400" letter-spacing="-.684"><tspan x="0" y="306">The QR Code Library for Rust </tspan><tspan font-family="AppleColorEmoji, Apple Color Emoji" font-weight="normal" x="1140.408" y="306">🦀</tspan> <tspan font-family="SFCompactDisplay-Thin, SF Compact Display" font-weight="300" letter-spacing="-.7" x="0" y="442">A Rust library for generating and manipulating</tspan> <tspan font-family="SFCompactDisplay-Thin, SF Compact Display" font-weight="300" letter-spacing="-.7" x="0" y="551">QR code images in various formats</tspan> <tspan font-family="SFCompactDisplay-Thin, SF Compact Display" font-size="88" font-weight="300" letter-spacing="-.662" x="1304.309" y="551">.</tspan></text><text fill="#ff2722" fill-rule="nonzero" font-family="NotoSans-Regular, Noto Sans" font-size="175"><tspan x="6" y="187">QR Code</tspan></text></g><g fill-rule="nonzero"><path d="m131.331466 665.584897c-3.090452 2.904701-3.249503 4.286233-.077784 7.361593 45.083226 43.704015 97.199495 75.637145 157.267121 94.250678 38.651555 11.978697 78.262056 17.496699 118.738626 16.819864 3.444543-.058047 5.616683-.076622 5.501749-4.763383-.340159-13.909359-.094037-27.832649-.076623-41.750135 10.614579-.443483 21.197812-1.157468 31.768274-2.336995 59.775066-6.670826 113.538725-28.447953 161.689184-64.256338 10.514737-7.821329 20.558128-16.27886 30.818616-24.442671 9.584815 9.253944 19.324036 18.356964 28.661568 27.855868 2.741007 2.787445 3.910085 2.071138 6.269138-.186913 30.250911-28.947162 54.943186-62.076071 74.270705-99.151054 10.591359-20.315489 19.888258-41.234672 26.011116-63.418131.3657-.875358.827758-1.724013 1.085489-2.630716 15.697224-55.269413 19.392533-111.240041 10.500806-168.098797-9.270197-59.2805-31.609224-113.152128-65.633227-162.385755-1.943432-2.812985-3.146178-2.908183-5.761801-1.014672-10.174578 7.368559-20.576703 14.42366-30.732706 21.816599-2.664383 1.93995-4.005282 1.845913-5.959163-.895094-7.074838-9.924973-14.937962-19.217228-23.179556-28.205314-11.248458-12.266612-23.919082-23.012378-36.100945-34.282895 9.436213-9.94587 18.80393-19.957916 28.360882-29.78653 2.107127-2.166336 2.503011-3.331931-.247283-5.203384-4.461536-3.0358884-8.624708-6.5071331-13.006138-9.6660818-33.696615-24.2929081-70.037876-43.3893976-109.799301-55.7407596-37.461579-11.7778519-75.864691-17.4630309-115.093239-18.1197333-4.713462-.075858-5.788503 1.3463075-5.656155 5.7869466.321584 10.8131013-.01277 21.6447779.227547 32.4613621.08591 3.8311396-1.121479 4.9177901-4.928239 4.8469721-11.01859-.2054884-21.979132.8974154-32.92226 2.1686572-66.671117 7.7458677-125.502329 33.7709153-177.51063 75.8530817-4.167815 3.371403-7.612358 7.705235-12.688038 9.923813-9.204022-11.235688-20.771742-20.13438-30.488905-30.863893-1.89119-2.087391-3.00106-.14628-4.206127.974038-33.924161 31.490807-61.1206085 68.012016-81.7391054 109.435923-3.8949919 7.827134-3.870612 8.003599 4.346602 11.206664 11.6710445 4.549768 22.7511646 10.532151 34.757724 14.255322-.7255946 1.984066-1.3571522 4.007604-2.1895543 5.945232-14.1531586 32.894397-23.5696354 67.025207-27.7838889 102.651323-2.4809532 20.971426-1.958525 41.956784-1.8958337 62.964199-13.5007038 2.447286-27.1500094 3.666285-40.8074417 4.69721-4.4243858.333193-6.1251796 1.777416-5.4634373 6.402647 2.078103 14.514214 3.5977884 29.096924 6.6313544 43.482273 5.5632791 26.387265 14.4387526 51.649567 24.9209828 76.423109 1.4151997 3.34354 2.9557822 3.903119 6.0578444 2.460056 4.2003221-1.953881 8.5620166-3.554833 12.8087768-5.411194 8.646766-3.778897 17.8159602-6.313254 26.0993484-10.954738 1.099421 1.997997 2.2743038 3.957683 3.2854925 5.998636 10.84793 21.892061 23.22135 42.812405 39.055566 61.540873 1.142376 1.515041 2.215095 3.08813 3.439899 4.534676 6.627872 7.832939 13.294054 15.634532 19.946306 23.446574-9.497743 9.361912-18.858495 18.870104-28.573336 28.000987z" fill="#fcfcfd" mask="url(#b)"/><path d="m185.816773 138.471051c52.009462-42.0821665 110.839513-68.1072141 177.51063-75.8530818 10.944289-1.2712418 21.90367-2.3741456 32.92226-2.1686572 3.806759.070818 5.014149-1.0158325 4.929399-4.8469721-.241478-10.8165842.094037-21.6482608-.228707-32.4602011-.132349-4.4406391.942692-5.8639656 5.656155-5.7881053 39.229709.6567001 77.631659 6.3418791 115.090917 18.119731-3.987868 12.7031302-7.921171 25.4213528-11.998433 38.0931374-.905542 2.8118242-.967072 4.2664963 2.523909 5.4030678 22.85565 7.4335718 44.456312 17.6336908 65.091062 29.9699603 13.619121 8.141753 25.983253 18.056278 39.077624 26.93059 12.181863 11.270516 24.853647 22.016283 36.100945 34.282895 8.242755 8.989247 16.104717 18.281502 23.179555 28.205314 1.955042 2.741007 3.295941 2.836205 5.960325.896255 10.154842-7.3941 20.556966-14.449201 30.731544-21.81776 2.615624-1.893512 3.818369-1.798314 5.761802 1.014672 34.024003 49.234788 56.36303 103.105254 65.633226 162.385755 8.892888 56.858756 5.196419 112.829383-10.500805 168.098797-.257731.906703-.718629 1.755358-1.084329 2.627233-14.438752-4.290877-28.877505-8.579431-43.317418-12.867986.431874-2.071137.828919-4.150401 1.301426-6.213411 2.491402-10.890885 5.537739-21.663354 6.900695-32.791073 1.332773-2.896573 1.076202-6.057844 1.494145-9.10302 6.213412-45.268978 4.122538-90.089828-7.124759-134.446298-.725594-2.857102-1.375727-3.746391-4.562539-2.947656-21.69586 5.435574-43.45325 10.625027-65.190904 15.893425-.254248-.7314-.553774-1.448868-.75694-2.194198-14.1311-51.820227-41.34264-95.690259-81.975939-130.613999-60.39037-51.907298-130.703392-72.854344-209.788562-63.822142-47.075418 5.375205-89.533733 22.694278-127.691884 50.719645-21.351057 15.682131-39.63488 34.429175-55.793002 55.332105-.821954-.482956-1.753037-.844012-2.447285-1.467443-16.425141-14.770785-33.168382-29.194445-48.98054-44.638581 1.128445-2.949978 3.379529-5.125601 5.280007-7.52877 10.283707-13.003817 22.112641-24.590112 33.609543-36.480576 5.075679-2.217417 8.520222-6.551249 12.686877-9.922652z" fill="#ff2722"/><path d="m737.059136 459.690747c-1.362957 11.127719-4.410454 21.901348-6.901856 32.791072-.471346 2.063011-.868392 4.142275-1.300266 6.214573-.709341 1.562641-1.571928 3.073038-2.108287 4.691405-15.174796 45.842488-39.139155 86.547766-71.143102 122.655676-6.119375 6.904178-13.468197 12.675267-18.646041 20.424618-10.259327 8.16381-20.302718 16.621341-30.818615 24.44151-48.149299 35.809546-101.912958 57.585511-161.688024 64.256338-10.570462 1.179526-21.154856 1.894673-31.768274 2.334673-30.610805.75694-60.857072-2.087391-90.570462-9.620804-18.099233-4.589241-36.105589-9.549986-52.975374-17.833375 1.010028-2.499528 1.936467-5.036207 3.045176-7.490458 8.33447-18.43823 16.70609-36.861368 25.064941-55.289149 46.89547 19.216067 95.700706 25.248371 145.510165 17.476962 80.832402-12.611415 142.680927-55.168411 186.801724-123.692406 18.844563-29.266424 30.385581-61.529263 37.281632-95.532369 23.609108 3.713884 46.837424 9.316635 70.216663 14.171734" fill="#47b4ec"/><path d="m134.240694 192.403397c15.812158 15.442975 32.554238 29.866636 48.98054 44.63742.694249.624592 1.625332.984487 2.447285 1.467443-.962428 1.437258-1.919052 2.88032-2.887286 4.315256-53.613896 79.445065-65.539189 164.187552-31.978406 254.525824 9.479168 25.513068 23.511588 48.559114 40.208391 70.003048-18.165407 14.083501-36.330813 28.165842-54.49622 42.249343-15.830733-18.727307-28.204153-39.647651-39.0509222-61.539712-1.0123496-2.040952-2.1872324-4.000638-3.2866534-5.998636-.3854359-1.28169-.6257528-2.629555-1.1783657-3.835783-11.2310438-24.520455-19.0976505-50.112467-23.8703217-76.615827-2.1860715-12.134264-3.4933028-24.427578-5.1987404-36.648914-.0626913-21.006254-.5851195-41.992773 1.8958337-62.964199 4.2142535-35.624954 13.6318913-69.755765 27.7838889-102.651322.8335631-1.936467 1.4639597-3.961167 2.1883934-5.946394.9810039-1.636941 2.0583668-3.222801 2.9302413-4.914307 10.1780611-19.746622 21.0828771-39.028864 35.5123421-56.08324m134.898025 517.642804c16.869785 8.283388 34.876141 13.244134 52.975373 17.833375 29.713391 7.533413 59.959657 10.377744 90.570463 9.620804-.017414 13.920968-.263536 27.844258.076623 41.752456.114934 4.686761-2.057206 4.706497-5.501749 4.764545-40.47657.675673-80.087071-4.842329-118.738626-16.819864-60.067626-18.613534-112.183895-50.547824-157.267121-94.250679-3.171719-3.07536-3.012668-4.458053.077784-7.361593 9.714841-9.130882 19.075593-18.639074 28.572175-28.000986 2.219739 1.850556 4.572988 3.56296 6.637159 5.572566 16.242871 15.816802 33.981048 29.735449 53.206403 41.721111 15.728569 9.805395 31.71487 19.160342 49.391516 25.168265" fill="#142a6c"/><path d="m269.138719 710.046201c-17.676646-6.007923-33.662947-15.36287-49.391516-25.168265-19.225355-11.985662-36.963532-25.904309-53.206403-41.721111-2.064171-2.009606-4.41742-3.72201-6.637159-5.572566-6.652251-7.812042-13.317273-15.613636-19.945145-23.446575-1.224804-1.446545-2.297523-3.020795-3.442221-4.535837 18.164246-14.083501 36.329652-28.167003 54.493898-42.247021 4.347763 4.905019 8.582914 9.914525 13.061864 14.694162 26.484784 28.2622 57.81538 49.626028 93.176798 65.218766-8.35885 18.426621-16.73047 36.849759-25.06494 55.287989-1.108709 2.454251-2.035148 4.992091-3.045176 7.490458" fill="#ff2722"/><path d="m636.960165 646.467627c5.176682-7.749351 12.525505-13.52044 18.644879-20.423457 32.005109-36.107911 55.969467-76.81435 71.144263-122.655677.535199-1.619527 1.397786-3.129925 2.108288-4.691404 14.438752 4.287393 28.877505 8.574787 43.316257 12.866824-6.122857 22.186942-15.420917 43.106125-26.012277 63.421614-19.327518 37.074983-44.019794 70.203892-74.269543 99.151054-2.359054 2.258051-3.529293 2.974358-6.269138.186913-9.337532-9.498904-19.076753-18.601924-28.662729-27.855867" fill="#142a6c"/><path d="m134.240694 192.403397c-14.429465 17.054376-25.334281 36.336618-35.5123421 56.08324-.8718745 1.691506-1.9492374 3.277366-2.9302413 4.914307-12.0053985-3.720849-23.0855186-9.704392-34.7565631-14.253-8.217214-3.203065-8.2415939-3.379529-4.345441-11.206664 20.6173359-41.425068 47.8137835-77.946277 81.7379445-109.437083 1.205067-1.119158 2.314937-3.06143 4.206127-.972878 9.717163 10.728352 21.284883 19.628206 30.488905 30.862732-11.49574 11.889304-23.324674 23.476759-33.609543 36.480576-1.899316 2.402009-4.150401 4.577631-5.278846 7.52877m-70.3108155 232.560043c1.7054376 12.221335 3.0126689 24.513489 5.1987404 36.648914 4.7726712 26.502198 12.6392779 52.095372 23.8703217 76.615826.5526129 1.205068.7929298 2.554093 1.1783657 3.835784-8.2833882 4.640323-17.4525824 7.174679-26.0993484 10.953576-4.2467602 1.856362-8.6084546 3.457314-12.8087768 5.411195-3.1020621 1.443062-4.6414837.884645-6.0566835-2.460056-10.4822301-24.773542-19.3588645-50.034684-24.9221437-76.423109-3.033566-14.385349-4.5520904-28.966898-6.6301934-43.482274-.6629032-4.62523 1.0378906-6.069454 5.4634373-6.402647 13.6562713-1.030925 27.3067379-2.248763 40.8062807-4.697209" fill="#47b4ec"/><path d="m616.391821 135.870869c-13.095532-8.874313-25.459664-18.789999-39.078785-26.931752-20.63475-12.3351082-42.235412-22.5352272-65.089901-29.96996-3.490981-1.1354105-3.429451-2.5900826-2.525069-5.4019069 4.077261-12.6717845 8.010564-25.391168 11.999593-38.0931373 39.763747 12.351362 76.105008 31.4478515 109.801623 55.7407596 4.382591 3.1589487 8.544602 6.6301934 13.006138 9.6660816 2.750294 1.870292 2.35441 3.037049.248444 5.203384-9.558113 9.828614-18.92583 19.84066-28.362043 29.786531" fill="#142a6c"/><path d="m556.228301 455.314425c11.095213.006965 11.095213.006965 11.074315-10.596004-.018575-9.436213-.018575-9.436213-12.210886-9.495421-9.588298-.046438-9.588298-.046438-9.638219 9.379326-.055726 10.705133-.055726 10.705133 10.77479 10.712099m.543325-134.381286c-.961267 0-1.922535.006966-2.883803-.001161-8.39484-.063852-8.39484-.065013-8.447082 8.510935-.067335 11.078959-.067335 11.078959 11.366875 11.003497 10.057322-.065013 10.057322-.065013 10.022493-9.743865-.035989-9.724129-.035989-9.724129-10.058483-9.769406m-293.336429 59.838918c11.199698-.013931 11.199698-.013931 11.150938-9.828614-.049921-10.165291-.049921-10.165291-11.517798-10.179222-10.145555-.01161-10.145555-.01161-10.133945 9.637057.01277 10.38355.01277 10.38355 10.500805 10.370779m38.073401 174.567618c12.614898-.091715 12.614898-.091715 12.540597-12.98408-.008126-1.349026-.095198-2.703856-.003483-4.047077.167177-2.47747-.846333-3.406231-3.374885-3.300585-4.426708.185753-8.866186.113774-13.299859.104486-8.176581-.017414-8.176581-.031346-8.149879 8.1998.038311 12.115689.038311 12.115689 12.287509 12.027456m178.568257-.103324c1.735622 0 3.509556-.237995 5.197579.042955 5.920853.981004 8.30893-1.130767 7.344179-7.278005-.736043-4.694887 1.981744-10.880436-1.111031-13.888461-3.068394-2.985967-9.181964-.886967-13.952313-.969395-10.02946-.175303-10.031782-.075461-10.020172 9.770567.013931 12.393157.013931 12.393157 12.541758 12.322339m-128.107504-184.115283c-.056887-12.183024-.056887-12.183024-10.655212-12.244554-12.901653-.075462-12.901653-.075462-12.914423 12.681072-.01161 11.611836-.01161 11.611836 11.638537 11.602548 11.987985-.009288 11.987985-.009288 11.931098-12.039066m128.064549 48.079641c2.505333 0 5.029241-.198522 7.510194.045277 3.828818.37731 5.923174-.676834 5.192936-4.973515-.190396-1.12264.004644-2.307972-.026702-3.463118-.123061-4.592724 1.458155-10.60297-.849816-13.41015-2.739846-3.334252-8.986925-.953141-13.694583-.98797-10.374262-.076622-10.375423.061531-10.38471 10.596004-.01161 12.221335-.01161 12.221335 12.252681 12.193472m.257731 38.323006c.967073 0 1.934145.003483 2.901218-.001161 10.175739-.047599 10.175739-.047599 10.178177-10.361491.002205-13.302181.002205-13.302181-13.544937-13.267353-12.299119.031346-12.299119.031346-12.331625 10.907139-.037151 12.75189-.037151 12.75189 12.797167 12.722866m-.31694-75.587224c1.346704 0 2.692247.004644 4.03895-.001161 9.285289-.046438 9.393258-.04876 9.234208-9.387453-.077784-4.548607 2.024699-10.764341-.971717-13.184925-2.837365-2.291718-8.800011-.79293-13.389252-.821953-11.438854-.071979-11.438854-.040634-11.451625 11.089407-.013931 12.364133-.013931 12.364133 12.539436 12.306085m39.010289-.119578c.772033 0 1.542905.003483 2.314937 0 10.443919-.040633 10.443919-.040633 10.381228-10.772468-.07314-12.424502-.07314-12.424502-13.876852-12.437272-11.449303-.010449-11.449303-.010449-11.482971 10.892046-.038311 12.408249-.038311 12.408249 12.663658 12.317694m-.377309 74.977725c1.351347 0 2.702695.009287 4.055203-.001161 9.011305-.069657 9.011305-.070818 8.923073-9.240013-.128866-13.317273-.128866-13.317273-13.736377-13.314005-11.321598.003698-11.321598.003698-11.361071 10.986298-.041794 11.830095-.041794 11.830095 12.119172 11.568881m-136.635853.541003c2.31842 0 4.680956-.285594 6.949455.056887 5.749031.866069 7.513677-1.582377 6.756737-7.0284-.70818-5.096577 2.229027-12.121494-1.267759-14.895007-3.257629-2.584278-9.947031-.938048-15.128357-.981004-10.266294-.084749-10.267455-.035989-10.301122 9.666082-.046438 13.175637-.046438 13.175637 12.991046 13.181442m40.019156.273984c1.544065 0 3.08813.025541 4.632196-.003482 9.573205-.183431 8.485393 1.547548 8.360011-8.731516-.059209-4.732038 2.262694-11.183445-1.203907-13.745664-3.165914-2.341639-9.267875-.79293-14.077697-.816149-11.015106-.054565-11.015106-.018576-11.025555 10.179222-.013931 13.132682-.013931 13.132682 13.314952 13.117589m-80.599051-151.894237c12.545241.039472 12.545241.039472 12.587035-11.344817.04876-13.575005.04876-13.575005-13.838541-13.509991-11.715161.055725-11.715161.055725-11.729092 11.594421-.013931 13.218593-.013931 13.218593 12.980598 13.260387m177.53501 14.965825c-12.556851-.022058-12.556851-.022058-12.553588 10.846769.004864 13.345136.004864 13.345136 13.470739 13.28941 11.852153-.04876 11.853314-.04876 11.802232-11.672205-.053404-12.441916-.053404-12.441916-12.719383-12.463974m-178.094589 24.190744c12.948091.033668 12.948091.033668 12.878434-12.232945-.068496-11.919488-.068496-11.919488-12.567299-11.819646-12.672945.102164-12.672945.102164-12.669682 11.875372.004863 12.144712.004863 12.144712 12.358547 12.177219m178.349998 75.474611c.384275 0 .769711 0 1.155147.001161 11.400542.02438 11.400542.02438 11.3483-11.430727-.058048-12.86102-.058048-12.86102-13.43453-12.872629-11.999594-.010449-11.999594-.010449-11.985662 11.502706.013931 12.766983.013931 12.766983 12.916745 12.799489m-39.175144-75.648754c.964751 0 1.929501.002322 2.893091-.001161 10.449723-.029024 10.449723-.030184 10.434631-10.634315-.019736-13.436851-.019736-13.436851-13.379965-13.441721-12.345557-.003257-12.345557-.003257-12.402444 12.077604-.054564 11.982179-.054564 11.982179 12.454687 11.999593m-57.773586.334354c1.159791 0 2.319581-.002322 3.479372 0 9.662598.025541 9.662598.026702 9.605712-9.697427-.085911-14.605929-.085911-14.605929-14.82535-14.536272-11.912522.055725-11.912522.055725-11.895108 11.546822.019736 12.655532.019736 12.655532 13.635374 12.686877m-120.533457-25.905469c-1.158629 0-2.317259.002322-3.477049-.001161-10.37194-.023219-10.406769-.023219-10.342916 10.583233.027863 4.602011-1.522007 10.705133.803378 13.412471 2.742167 3.193778 9.036846.950819 13.775849 1.016994 12.480228.174142 12.481389.059208 12.457009-11.969409-.025541-13.0073-.025541-13.0073-13.216271-13.042128m230.206214-65.781829c-.067335-12.98408-.067335-12.98408-12.770465-12.949251-.192718 0-.385436.001161-.578154.001161-12.385029.030184-12.385029.030184-12.447721 12.214369-.067335 13.367195-.067335 13.367195 13.367195 13.363926 12.494159-.004858 12.494159-.004858 12.429145-12.630205m-191.188959 12.740504c13.201178-.003706 13.201178-.003706 13.17912-13.037707-.001161-.192718-.001161-.385436-.002322-.578154-.019736-12.021652-.019736-12.021652-11.941546-11.932258-13.462392.101002-13.462392.101002-13.486772 13.364872-.023219 12.186507-.023219 12.186507 12.25152 12.183247m178.857334 14.784493c-13.223237.041794-13.223237.041794-13.233008 13.273158v.579314c-.005321 11.727931-.005321 11.727931 11.750473 11.718644 13.566878-.01161 13.566878-.01161 13.53321-13.414794-.030185-12.194633-.030185-12.194633-12.050675-12.156322m-218.171792 101.554224c.579314 0 1.15979-.002322 1.740266 0 11.743023.045277 11.743023.045277 11.68962-11.618802-.058048-12.660175-.058048-12.660175-12.975954-12.778592-.967073-.009287-1.934145-.02438-2.901218-.034828-10.883919-.126544-10.883919-.126544-10.863022 10.792204.025541 13.542498.025541 13.542498 13.310308 13.640018m80.352929-77.188176c1.545226 0 3.091614-.004644 4.63684.001161 8.931199.029024 8.978798.030185 8.974154-9.148297-.002322-4.801695 1.616045-11.133524-.795252-14.004557-2.812985-3.349344-9.373521-1.028603-14.293633-1.114513-11.474844-.198523-11.476005-.081267-11.434211 11.110305.04876 13.155901.04876 13.155901 12.912102 13.155901m-80.069657 129.105922c-.965912 0-1.930662.005805-2.896574 0-10.840964-.066174-10.967508-.065013-10.77479 10.792205.083589 4.745969-2.183749 11.062706 1.051822 13.788619 2.713144 2.287075 8.818587.599051 13.420598.58512 12.436112-.03715 12.436112-.055726 12.416376-12.137747-.019737-12.899331-.019737-12.899331-13.217432-13.028197m-.479473-13.151257c1.15979 0 2.320742-.002322 3.480532 0 10.162969.017414 10.288352.015092 10.129301-10.156003-.074301-4.780798 2.251085-11.276321-.933405-13.868725-2.962748-2.412457-9.216793-.852139-14.023132-.919474-11.945029-.167177-11.94619-.139314-11.913683 11.474844.03715 13.450783.03715 13.450783 13.260387 13.469358m13.687617-170.888563c-.053404-13.369516-.053404-13.369516-13.572683-13.370677-.192718 0-.386597 0-.579315 0-12.88656.002321-12.903974.002321-12.893526 12.757695.003483 4.426707-1.567284 10.196636.615304 12.932998 2.604014 3.264595 8.653732 1.016994 13.187247 1.083168 13.294055.19504 13.296377.074301 13.242973-13.403184m107.320669-49.458852c-.192718 0-.385436 0-.579315 0-13.067668-.018575-13.067668-.018575-13.159384 12.899331-.095198 13.367195-.095198 13.367195 13.216271 13.375321 13.598224.008127 13.598224.008127 13.59287-13.225558-.005095-13.035162-.005095-13.035162-13.070442-13.049094m-120.933985 297.983718c.192718 0 .384275-.001161.576993 0 13.158223.082428 13.239489.081267 13.039806-12.966666-.067335-4.347763 1.92834-10.324341-1.022798-12.600967-2.812986-2.169818-8.497004-.666386-12.917907-.693088-13.099014-.075462-13.099014-.059208-13.095747 12.891205.002537 13.285927.002537 13.285927 13.419653 13.369516m-77.220683-117.088914c.772033 0 1.544066.002322 2.316099-.001161 11.820807-.047599 11.935741-.051082 11.6664-11.767404-.109129-4.750613 2.117575-10.954737-1.055305-13.869886-3.106706-2.855941-9.205183-.652455-13.983659-.67103-12.610254-.051082-12.610254.032507-12.604918 12.65437.006273 13.736377.006273 13.736377 13.661383 13.655111m202.558157 111.660305v.04876c4.829558 0 9.662598-.106807 14.487512.044116 2.528553.078945 3.402749-.811505 3.305229-3.334252-.193879-5.016471-.349446-10.052678-.123061-15.062184.15789-3.475888-1.266598-4.166654-4.401167-4.092353-7.52993.179947-15.066827.010448-22.60024.002322-8.632835-.009288-8.630513 0-8.60265 8.885922.010448 3.090452.211293 6.198319-.049921 9.266714-.271663 3.203065.63504 4.520745 4.079583 4.310612 4.619426-.282111 9.269036-.069657 13.904715-.069657m78.050762 44.765125h-.045277c0 4.434835.142797 8.876635-.052242 13.302181-.124222 2.823434.410976 4.144597 3.702274 4.000639 6.737001-.296043 13.497221-.260053 20.241187-.106808 2.74565.062692 3.706918-.740687 3.62333-3.545545-.199684-6.743967-.136993-13.49606-.156729-20.245832-.030185-10.427665-.023219-10.468298-10.589038-10.371939-5.361273.04876-12.375742-1.722852-15.627566.970555-3.402749 2.817629-.727917 10.101438-1.094778 15.418595-.01277.191557-.001161.385436-.001161.578154m-246.914626-235.344585c5.045495 0 9.29806-.124221 13.539015.046438 2.583117.104486 3.349345-.91599 3.314516-3.364437-.095198-6.755576-.138153-13.516957.058048-20.26905.076623-2.640004-.882323-3.297102-3.313355-3.239055-5.595786.13351-11.197377.049921-16.795484.059209-11.23801.018575-11.342495.020897-11.222917 11.329725.052242 4.964228-2.37879 11.375001.743009 14.504926 3.096257 3.105545 9.529089.416782 13.677168.932244m302.442932 2.633038v.031346c4.042433 0 8.092992-.14628 12.127298.052243 2.63536.130026 3.832301-.472508 3.753356-3.41668-.200844-7.50439-.251926-15.018068-.092876-22.523618.06153-2.947656-1.142376-3.471245-3.727815-3.431773-7.892148.124222-15.791261.156729-23.679926-.038311-3.118315-.077784-3.899635 1.040212-3.802115 4.001799.227546 6.923914.39124 13.87337.04992 20.786835-.202005 4.098159 1.443063 4.862065 4.97816 4.595046 3.446865-.260053 6.927397-.056887 10.393998-.056887m-28.470011 184.57618h-.067335c0-5.01531-.120739-10.035264.04876-15.044769.092876-2.765386-.350608-4.308291-3.679055-4.181747-5.971934.227547-11.960122.159051-17.9367.017414-2.737523-.065013-3.681376.857944-3.660479 3.656997.076622 10.02946.002322 20.063562-.200845 30.091861-.059208 2.913988.645489 4.135309 3.840427 3.997155 5.969612-.258892 11.964765-.271662 17.934378-.033667 3.228605.128865 3.883382-1.176044 3.773092-4.036628-.186914-4.815627-.052243-9.644024-.052243-14.466616m-256.868624 41.15921h-.148602c0-5.02808-.078945-10.057322.032507-15.081919.056886-2.523909-.437679-3.982064-3.461957-3.911246-8.118533.189235-16.24171.19504-24.362565.148602-2.400848-.013931-3.467762.712824-3.466601 3.291297.002322 10.441597-.099842 20.883194-.286755 31.32363-.045277 2.525069.83008 3.328448 3.359793 3.284332 8.118533-.142797 16.244032-.167177 24.361404.001161 3.031244.062691 4.137631-.920635 4.022697-3.975098-.188074-5.019954-.049921-10.052678-.049921-15.080759m301.184461-41.432033h.225224c0-5.201063-.084749-10.404447.037151-15.602026.056886-2.454251-.722112-3.385334-3.304068-3.341218-8.281066.140475-16.566777.125383-24.847843.005805-2.468183-.03599-3.408553.702375-3.3923 3.265756.065013 10.400963.013932 20.80541-.119578 31.206373-.032507 2.478632.79293 3.373725 3.313355 3.338897 8.282228-.113774 16.567938-.123061 24.849004.016253 2.533196.041794 3.347023-.810344 3.280849-3.287814-.139314-5.19758-.041794-10.400964-.041794-15.602026m-116.587384-1.044857c0 6.122858.092876 11.337852-.041794 16.548202-.062691 2.414779.587441 3.3923 3.211192 3.351666 9.072835-.140475 18.151475-.153245 27.223149.016254 2.897735.054564 3.546706-1.041374 3.518844-3.694148-.110291-10.232625-.094037-20.467573.025541-30.699037.029023-2.454252-.650133-3.456153-3.228606-3.338897-4.045916.184592-8.106924.051082-12.160966.09752-5.955681.067335-14.012684-2.134989-17.314429.869553-3.813726 3.472405-.700054 11.647825-1.232931 16.848887m-57.225616-222.666995v-.047599c9.655633 0 19.312426-.082428 28.965737.051082 2.901218.040633 4.163172-.679157 4.030824-3.864807-.246122-5.976578-.236835-11.974053-.058048-17.954114.089393-2.997576-.823115-4.015731-3.91705-3.992512-19.502823.148602-39.007967.190396-58.51079.070818-3.153144-.019736-3.934464 1.035569-3.867129 3.961166.138153 5.981222.09752 11.975214-.132348 17.954114-.116095 3.040532.889289 3.950717 3.944913 3.891509 9.844867-.188074 19.69554-.069657 29.543891-.069657m48.719325 14.1311v.256571c-12.546401 0-25.093964.106807-37.636883-.068497-3.468923-.04876-4.79589.845173-4.611299 4.524228.300686 5.968451.199684 11.967087.015092 17.944826-.08591 2.803697.874197 3.645387 3.634939 3.637261 25.672118-.074301 51.344237-.075462 77.015194.032714 3.126442.012563 3.975098-1.135618 3.888026-4.076308-.178786-5.977739-.277467-11.976375.016254-17.944826.184591-3.749873-1.242218-4.445283-4.684439-4.388396-12.542919.20781-25.090482.082427-37.636884.082427m-82.006124 225.153754h-.077783c0 10.039908.124221 20.080976-.07314 30.117401-.062692 3.190294.651293 4.409293 4.098158 4.380181 19.305461-.164766 38.613244-.19379 57.919865-.046349 3.637261.027862 4.617104-1.164435 4.50217-4.64845-.2438-7.329086-.352929-14.683713.004644-22.002351.211293-4.33267-1.530134-5.075679-5.331089-4.973516-9.647506.257732-19.315909-.126543-28.952967.297204-4.549769.200845-5.520324-1.360635-5.403068-5.535416.258892-9.258588-.047599-18.533428.081267-27.797821.041794-2.937207-.705859-4.122538-3.877578-3.992511-6.362014.262375-12.746085.303008-19.108099.084749-3.185651-.11029-3.874095 1.102904-3.834623 3.999478.136993 10.037585.052243 20.077493.052243 30.117401m227.713652-117.519628h.020897c0-9.65331-.096359-19.307782.055725-28.958771.04876-3.091614-.614143-4.474307-4.109768-4.423225-14.669781.214776-29.344207.249604-44.01515.124222-3.236732-.027863-3.789345 1.19578-3.768448 4.064491.145119 19.498178.192718 38.997518.119578 58.495697-.01161 3.063751.51314 4.415098 4.047076 4.370982 14.477064-.184591 28.961094-.188074 43.436997.066174 3.913567.068496 4.33151-1.54987 4.274623-4.781959-.17066-9.649828-.06153-19.3043-.06153-28.957611m-200.278048 218.067307c0-.013932 0-.026702 0-.039473 9.843707 0 19.694379-.213615 29.527638.101003 4.174781.133509 5.742065-.740687 5.658477-5.286973-.262375-14.278541-.199684-28.567531.082427-42.846072.080106-3.99019-1.323484-4.862064-4.956101-4.841167-19.686253.109129-39.374828.103324-59.061081-.077784-3.481693-.032507-4.656576.78132-4.602011 4.449927.21942 14.666299.264697 29.339563.020897 44.004702-.066174 4.035467 1.39082 4.699531 4.958423 4.612459 9.452467-.227546 18.91306-.076622 28.371331-.076622m-186.011116-172.007721h-.119578c0 11.784818.117256 23.571958-.070818 35.353292-.058048 3.575731.611821 4.999057 4.682117 4.945653 18.542715-.242639 37.092397-.175303 55.637435-.022058 3.223962.026702 4.36866-.746492 4.348315-4.132987-.152637-23.762353-.185144-47.525867-.072531-71.287059.016253-3.40391-1.143538-4.141114-4.314096-4.119056-18.545038.126544-37.093558.141636-55.637435-.034829-3.554833-.033667-4.608977.92644-4.538159 4.524228.228708 11.587456.08475 23.181878.08475 34.772816m118.881423 56.020549c-1.018154 1.079685-.677996 2.251085-.233351 3.430612.002322 4.728555.004644 9.455949.008126 14.183343-.24496.287916-.265857.592085-.062691.911347-.124222.960106-.241478 2.317259.913669 2.325385 7.664601.049921 15.330363-.08591 22.996125-.161372 1.728657-6.002119.400528-12.142391.812666-18.204879.012771-.190396-.006966-.384275.001161-.575832.070818-1.898155-.767389-2.937207-2.738684-2.746811-7.216474.697732-14.517698-.798734-21.697021.838207m-41.069817-193.751179c-1.431453 5.548187.687284 7.457952 6.321381 6.891408 5.102381-.513141 10.283707-.240317 15.429044-.313457 1.162112.022058 2.323064.045277 3.484015.067335 3.211191-2.90354 1.321163-6.653413 1.39082-9.949354.106807-5.10122 2.246441-11.88582-.942693-14.857856-2.761903-2.573829-9.453627-1.029764-14.41089-1.127283-12.025134-.236835-12.026295-.19504-11.298379 12.321177.009288 2.321903.017415 4.644966.026702 6.96803m94.773107 124.906761c15.511471.039473 31.022943.077784 46.533254.116095 1.994514.618787 2.837365-.104485 2.832759-2.197681-.037188-14.243712-.001199-28.487425-.067373-42.731138-.006966-1.596308.196201-3.896153-2.766547-2.803697-19.342611.011609-38.685223.023219-58.028995.035989-3.38069-1.070397-2.297523 1.659-2.299845 2.96507-.03715 14.249517.037151 28.499035.081267 42.747391.034829.385436.068496.769711.102164 1.155147.304169 1.35483 1.196941.857943 2.00148.636201.847494.002322 1.694989.004644 2.543644.006966 3.021957.023219 6.045074.046438 9.068192.069657" fill="#fcfcfc"/><path d="m666.84259 445.518665c2.912827-22.023248 4.542802-44.090612 2.937207-66.327475-1.224804-16.953374-3.86713-33.652499-8.105763-50.105502 21.737654-5.267236 43.496205-10.455528 65.192065-15.892264 3.186811-.798734 3.836944.090555 4.561378 2.948817 11.247297 44.355309 13.33817 89.177321 7.12592 134.446299-.417943 3.044014-.162534 6.206446-1.494145 9.101859-23.379239-4.855099-46.607555-10.457851-70.216662-14.171734m-456.474249-11.650147c0-11.590939.142797-23.185361-.08475-34.772817-.070818-3.597788.983326-4.559056 4.536998-4.524227 18.545038.176464 37.093559.160211 55.638596.034828 3.170559-.022058 4.329188.715146 4.312935 4.117895-.112613 23.762353-.078945 47.525867.072594 71.288221.021443 3.386495-1.123255 4.159688-4.347217 4.132987-18.545038-.153246-37.094719-.220581-55.637435.022058-4.071457.052242-4.740165-1.369923-4.683278-4.945653.189235-11.781335.071979-23.568475.071979-35.353292z" fill="#142a6c"/><path d="m396.378876 605.875541c-9.45711 0-18.918864-.150923-28.37133.077784-3.567603.085911-5.024597-.576993-4.957262-4.613621.242639-14.665138.197361-29.338403-.022058-44.004702-.054565-3.668606 1.120318-4.481272 4.602011-4.449926 19.686253.181108 39.374828.186913 59.061081.077783 3.633777-.019736 5.036207.850978 4.957262 4.842329-.283272 14.27738-.345964 28.567531-.083588 42.844911.083588 4.546286-1.483696 5.421643-5.658478 5.286973-9.833258-.314618-19.683931-.101003-29.527638-.101003zm200.278745-218.066841c0 9.65331-.10913 19.307782.06153 28.95761.056887 3.232089-.361056 4.850455-4.275784 4.781959-14.474742-.254248-28.958771-.250765-43.435835-.066174-3.535097.044116-4.059847-1.307231-4.048238-4.370982.07314-19.49934.026702-38.997519-.118417-58.495697-.020897-2.868711.531716-4.092354 3.768448-4.064491 14.670943.125383 29.345369.090554 44.015151-.124222 3.495624-.051082 4.158528 1.331611 4.109768 4.423225-.152085 9.650989-.055726 19.305461-.055726 28.958772z" fill="#172c6c"/><path d="m368.943737 505.328327c0-10.039908.083589-20.079815-.053403-30.117401-.039473-2.896574.650132-4.109768 3.835783-3.999478 6.362014.218259 12.746085.177626 19.108099-.084749 3.171719-.130027 3.919372 1.055305 3.877578 3.992512-.130027 9.264392.177625 18.539232-.081267 27.79782-.117256 4.174781.853299 5.736261 5.403068 5.535416 9.637058-.423747 19.305461-.039472 28.952967-.297203 3.800955-.102164 5.542382.640845 5.331089 4.973515-.357573 7.318638-.248444 14.673265-.005805 22.002351.116095 3.484015-.863748 4.676313-4.502169 4.64845-19.305461-.147441-38.613244-.118417-57.918705.046349-3.446865.029113-4.16085-1.189886-4.098158-4.380181.197361-10.036425.07314-20.077493.07314-30.117401z" fill="#ff2722"/><path d="m369.237806 419.17691c-.044116-14.249518-.118417-28.499035-.082427-42.747392.003483-1.307231-1.079685-4.036628 2.301006-2.96623.707019 1.968973 2.402008 1.596308 3.894991 1.597469 16.754851.01277 33.509702.01277 50.263391.001161 1.498789-.001161 3.189134.348285 3.870612-1.633459 2.961587-1.093616 2.758421 1.206228 2.766547 2.802537.066234 14.243712.030185 28.487425.066234 42.731138.005745 2.094356-.837105 2.817629-2.83162 2.198842-1.087811-3.279688-3.870612-1.91557-5.906921-1.92718-18.113163-.104485-36.227488-.058047-54.341813-.056886" fill="#172c6c"/><path d="m450.950094 280.173993c12.546401 0 25.093964.125383 37.636883-.082428 3.442221-.056886 4.86903.638524 4.684439 4.388397-.293721 5.969612-.19504 11.967087-.017414 17.945986.088232 2.939529-.761584 4.08771-3.886866 4.075148-25.672118-.107016-51.343075-.105855-77.015194-.032715-2.760742.008127-3.72201-.832402-3.634938-3.6361.18343-5.978899.284433-11.977535-.015093-17.944825-.185752-3.680216 1.141215-4.574149 4.610138-4.525389 12.54408.176465 25.091643.069657 37.638045.069657zm-48.719674-14.13052c-9.848351 0-19.699024-.118417-29.543891.069657-3.055624.059209-4.061008-.850977-3.944913-3.891509.229868-5.9789.270501-11.972892.132348-17.954113-.067335-2.925598.712824-3.980903 3.867129-3.961167 19.502823.119578 39.007967.077784 58.51079-.070818 3.093935-.023219 4.006443.994936 3.915889 3.991351-.178787 5.981222-.186913 11.978697.059209 17.955275.132348 3.18565-1.129606 3.90544-4.030824 3.864807-9.654472-.13351-19.310104-.051082-28.965737-.051082z" fill="#ff2722"/><path d="m459.455688 488.71012c.534038-5.201062-2.580795-13.376482 1.234091-16.847726 3.300585-3.005704 11.357588-.803379 17.313268-.870714 4.054043-.045277 8.115051.087071 12.162127-.09752 2.578473-.117256 3.256469.884645 3.228606 3.338896-.120739 10.232626-.136992 20.467574-.026702 30.699038.027518 2.653935-.621109 3.748712-3.518843 3.695309-9.071675-.17066-18.150315-.15789-27.22315-.017415-2.62375.041794-3.273883-.936888-3.211191-3.351666.135831-5.209189.041794-10.425344.041794-16.548202m116.587383 1.044857c0 5.201062-.09752 10.404446.041795 15.602025.067335 2.478632-.746492 3.329609-3.280849 3.287815-8.281066-.139314-16.566777-.130027-24.849004-.016254-2.519264.034829-3.344701-.860265-3.313355-3.338896.13467-10.400963.184591-20.804249.119578-31.206373-.016253-2.56222.924117-3.301746 3.3923-3.265757 8.281066.119578 16.567937.135832 24.849004-.005804 2.580795-.044117 3.360954.888127 3.302906 3.341218-.120739 5.197579-.03715 10.400963-.03715 15.602026-.074301 0-.149763 0-.225225 0" fill="#142a6c"/><path d="m274.858378 531.187242c0 5.028081-.136992 10.060805.051082 15.080759.113774 3.054463-.991452 4.037789-4.022696 3.975098-8.118533-.168338-16.242871-.143958-24.362565-.001161-2.529714.044116-3.40391-.759263-3.358633-3.284332.185752-10.440436.287916-20.882033.285594-31.32363-.001161-2.578473 1.065754-3.304067 3.466601-3.291297 8.120855.046438 16.245193.040633 24.362565-.148602 3.024279-.070818 3.518844 1.387337 3.463118 3.911246-.111451 5.024597-.033667 10.053839-.033667 15.081919z" fill="#ff2722"/><path d="m531.728163 490.028381c0 4.822592-.135831 9.650989.051082 14.465454.111451 2.861745-.544486 4.166655-3.771931 4.037789-5.970773-.237995-11.964765-.225225-17.934377.033668-3.194938.138153-3.900797-1.083168-3.841588-3.998317.204327-10.028298.278628-20.06124.202005-30.090699-.022058-2.800215.921796-3.723171 3.659319-3.658158 5.976578.142797 11.965926.211293 17.936699-.016254 3.329609-.126543 3.771931 1.4152 3.679055 4.180586-.169499 5.010667-.047599 10.030621-.047599 15.045931z" fill="#172c6c"/><path d="m560.19713 305.452433c-3.46544 0-6.947134-.203167-10.392837.056886-3.536258.267019-5.181326-.498048-4.979321-4.596206.34132-6.913466.178787-13.86176-.049921-20.786835-.09752-2.960426.684961-4.078422 3.802116-4.0018 7.889826.19504 15.787778.162534 23.679926.039473 2.586599-.040634 3.790506.482955 3.727815 3.431772-.159051 7.50439-.107969 15.019228.092876 22.523618.078944 2.944173-1.116836 3.546707-3.753356 3.41668-4.033145-.198523-8.083705-.052243-12.127298-.052243z" fill="#142a6c"/><path d="m257.75501 302.819279c-4.148079-.515463-10.580911 2.17214-13.678329-.932244-3.121798-3.131086-.689605-9.540699-.741848-14.506088-.120739-11.308828-.015092-11.311149 11.221756-11.328564 5.599269-.009287 11.199698.074301 16.795484-.059208 2.431032-.058048 3.391139.59789 3.314516 3.239054-.196201 6.750933-.153245 13.513474-.058047 20.269051.034828 2.447285-.7314 3.468922-3.314517 3.364437-4.240955-.171821-8.49352-.046438-13.539015-.046438" fill="#172c6c"/><path d="m504.669288 538.163283c0-.192718-.011609-.386597.001161-.578154.366861-5.317157-2.307971-12.600966 1.094778-15.418595 3.251824-2.693407 10.266293-.920635 15.627566-.970556 10.565819-.096359 10.558853-.055725 10.589038 10.37194.019736 6.749772-.042955 13.501865.156729 20.245832.083588 2.804858-.87768 3.608237-3.62333 3.545545-6.743966-.153245-13.504186-.189235-20.241187.106808-3.291298.143958-3.826496-1.177205-3.702274-3.999478.195039-4.426707.052242-8.868507.052242-13.303342zm-78.050646-44.765357c-4.63684 0-9.285289-.212454-13.904715.069657-3.444543.211293-4.351246-1.106387-4.079583-4.309452.261214-3.068394.059208-6.177422.049921-9.267875-.027863-8.884761-.030185-8.895209 8.60265-8.885922 7.533413.008127 15.07031.178787 22.600241-.001161 3.134568-.075461 4.559056.615305 4.401166 4.091193-.226385 5.010666-.070818 10.045713.123061 15.062184.09752 2.522747-.776676 3.413197-3.306389 3.334252-4.823754-.149763-9.656794-.042955-14.486352-.042955z" fill="#142a6c"/><path d="m224.059905 381.74238c-13.65511.076623-13.65511.076623-13.661252-13.659754-.004307-12.621864-.004307-12.704291 12.604786-12.65437 4.778476.019736 10.876954-2.184911 13.984821.67103 3.171719 2.91631.945014 9.119273 1.054144 13.869886.26934 11.717483.154406 11.719804-11.666401 11.768564-.772033.002322-1.544065 0-2.316098.004644" fill="#ff2722"/><path d="m301.280471 498.825142c-13.415954-.082428-13.415954-.082428-13.419556-13.367195-.002203-12.950413-.002203-12.967827 13.095651-12.891204 4.422064.025541 10.104921-1.47673 12.917906.693088 2.9523 2.276625.956624 8.252042 1.022798 12.599805.200845 13.047933.119578 13.049094-13.038645 12.967827-.192718-.00116-.385436 0-.578154-.002321m120.934566-297.981977c13.065347.013932 13.065347.013932 13.070442 13.049094.005354 13.233685.005354 13.233685-13.59287 13.225558-13.311469-.008126-13.311469-.008126-13.216271-13.37416.091716-12.919067.091716-12.919067 13.159384-12.900492z" fill="#172c6c"/><path d="m314.89402 250.302481c.053403 13.476324.051082 13.598224-13.241812 13.403184-4.533515-.066174-10.584394 2.180267-13.187247-1.083168-2.182589-2.736362-.612982-8.50629-.616465-12.932998-.009288-12.756534.008127-12.756534 12.893526-12.757695h.580476c13.518118 0 13.518118 0 13.571522 13.370677" fill="#142a6c"/><path d="m301.206751 421.186285c-13.223237-.013932-13.223237-.013932-13.260387-13.464715-.032507-11.615319-.031346-11.643181 11.913683-11.474843 4.806339.067335 11.060384-1.492984 14.023132.919473 3.18449 2.592405.859104 9.087928.933405 13.867565.159051 10.172256.033668 10.174578-10.129301 10.157163-1.15979-.002322-2.320742 0-3.480532-.004643m.479589 13.155901c13.196535.128865 13.196535.128865 13.217432 13.027035.019736 12.083183.019736 12.101758-12.416376 12.138908-4.603172.012771-10.707454 1.701955-13.420598-.585119-3.235571-2.725914-.968233-9.042651-1.051822-13.78862-.192718-10.857217-.066174-10.859539 10.77479-10.793365.965912.005805 1.930662.001161 2.896574.001161m80.069657-129.109289c-12.863341.003483-12.863341.003483-12.912101-13.152419-.042956-11.192732-.040634-11.308827 11.43421-11.110305 4.920112.08475 11.480648-2.235992 14.293634 1.114514 2.411296 2.871033.792929 9.202862.795251 14.003396.004644 9.178481-.042955 9.178481-8.974154 9.148297-1.545226-.004644-3.091614 0-4.63684-.003483m-80.353626 77.185854c-13.283606-.092877-13.283606-.092877-13.310308-13.634214-.020897-10.918748-.020897-10.918748 10.864184-10.793365.965911.01161 1.932984.026702 2.900056.034829 12.919067.119578 12.919067.119578 12.977115 12.778592.053404 11.664078.053404 11.664078-11.690781 11.619962-.580475-.002322-1.15979-.001161-1.740266-.005804" fill="#172c6c"/><path d="m519.574163 280.870216c12.020491-.038312 12.020491-.038312 12.050676 12.156322.034828 13.403184.034828 13.403184-13.533211 13.413632-11.754633.010449-11.754633.010449-11.750337-11.717482 0-.192718 0-.386597.001509-.579315.008127-13.231363.008127-13.231363 13.231363-13.273157m-178.856637-14.78461c-12.274739.00326-12.274739.00326-12.252681-12.183247.025541-13.26503.025541-13.26503 13.487933-13.364872 11.92181-.089393 11.92181-.089393 11.941546 11.932258.001161.192718.001161.385436.001161.578154.023219 13.034001.023219 13.034001-13.177959 13.037707m191.188727-12.740852c.065013 12.625347.065013 12.625347-12.429146 12.630204-13.434529.00327-13.434529.00327-13.367194-13.363925.062691-12.183024.062691-12.183024 12.447721-12.21437.192718 0 .385436-.001161.578154-.001161 12.70313-.034828 12.70313-.034828 12.770465 12.949252" fill="#ff2722"/><path d="m301.700504 319.131342c13.189568.030185 13.189568.030185 13.21627 13.037485.02438 12.028617.023219 12.143551-12.458169 11.969409-4.737843-.066175-11.032521 2.176784-13.774689-1.016994-2.325385-2.707338-.775515-8.81046-.803378-13.412471-.063852-10.606452-.030185-10.606452 10.342916-10.583233 1.15863.003483 2.31842.001161 3.47705.005804" fill="#142a6c"/><path d="m422.23338 345.027989c-13.615638-.027863-13.615638-.027863-13.635374-12.682233-.017414-11.491097-.017414-11.491097 11.895108-11.547984 14.739439-.069657 14.739439-.069657 14.825349 14.536273.056887 9.724129.056887 9.724129-9.605711 9.698588-1.159791-.003483-2.319581 0-3.479372-.004644" fill="#ff2722"/><path d="m480.007314 344.69735c-12.510412-.016253-12.510412-.016253-12.454687-11.999594.055726-12.08086.055726-12.08086 12.402444-12.076561 13.360229.004989 13.360229.004989 13.378804 13.440679.015092 10.605291.015092 10.605291-10.43347 10.635476-.964751.002322-1.92834 0-2.893091 0" fill="#172c6c"/><path d="m519.181761 420.344943c-12.901652-.030185-12.901652-.030185-12.916745-12.798328-.01277-11.511994-.01277-11.511994 11.986823-11.501546 13.375321.010449 13.375321.010449 13.43453 12.871468.052243 11.455108.052243 11.455108-11.349461 11.430728-.384275-.001161-.769711 0-1.155147-.002322m-178.349765-75.47345c-12.353684-.032507-12.353684-.032507-12.357503-12.176059-.004308-11.774369-.004308-11.774369 12.668638-11.875372 12.499964-.101002 12.499964-.101002 12.567299 11.819647.069657 12.265451.069657 12.265451-12.878434 12.231784m178.094356-24.190629c12.66598.022058 12.66598.022058 12.719384 12.463975.051082 11.624606.051082 11.624606-11.802232 11.672205-13.465876.055726-13.465876.055726-13.469579-13.289411-.003262-10.868827-.003262-10.868827 12.552427-10.846769" fill="#ff2722"/><path d="m341.391458 305.714924c-12.994529-.041795-12.994529-.041795-12.979436-13.259226.01277-11.539857.01277-11.539857 11.727931-11.594422 13.8873-.066174 13.8873-.066174 13.83854 13.508831-.040633 11.38545-.040633 11.38545-12.587035 11.344817" fill="#142a6c"/><path d="m421.990509 457.613573c-13.328883.011609-13.328883.011609-13.314951-13.122234.011609-10.197797.011609-10.232626 11.025555-10.178061 4.809822.023219 10.911782-1.526651 14.078858.814988 3.466601 2.563381 1.144698 9.014788 1.202745 13.746825.126544 10.277903 1.213195 8.548086-8.360011 8.731516-1.544065.029024-3.08813.003483-4.632196.006966" fill="#00c"/><path d="m381.971237 457.335989c-13.037484-.005805-13.037484-.005805-12.991046-13.182603.034829-9.70091.034829-9.74967 10.302283-9.66492 5.180165.042955 11.870728-1.603274 15.128358.981004 3.495624 2.773512.559578 9.798429 1.267759 14.895006.75694 5.446023-1.008867 7.89447-6.757898 7.027239-2.267339-.34132-4.629875-.055726-6.949456-.055726m136.635854-.540887c-12.160966.261214-12.160966.261214-12.119172-11.568881.039472-10.9826.039472-10.9826 11.362231-10.986412 13.607512-.004315 13.607512-.004315 13.735216 13.31412.089393 9.169194.089393 9.170355-8.923072 9.240012-1.351348.010449-2.703856.001161-4.055203.001161m.378354-74.973197c-12.70197.085911-12.70197.085911-12.664819-12.322338.033667-10.903655.033667-10.903655 11.484131-10.893207 13.803712.012771 13.803712.012771 13.875691 12.438434.063852 10.731834.063852 10.731834-10.381227 10.772468-.770872.002322-1.542905 0-2.313776.004643" fill="#ff2722"/><path d="m479.974343 381.936027c-12.553368.058048-12.553368.058048-12.539436-12.306085.01277-11.12888.01277-11.161387 11.452785-11.088247 4.58808.029024 10.550727-1.470925 13.388092.820793 2.996416 2.420584.893933 8.636317.971716 13.184925.159051 9.339854.051082 9.342176-9.233046 9.387453-1.346704.006966-2.693407.001161-4.040111.001161m.317056 75.590242c-12.834318.026702-12.834318.026702-12.796007-12.725188.032507-10.875793.032507-10.875793 12.331626-10.907139 13.545981-.034828 13.545981-.034828 13.543659 13.267353-.002322 10.313892-.002322 10.313892-10.1769 10.361491-.968233.004644-1.935306 0-2.902378.003483" fill="#142a6c"/><path d="m480.033551 419.200361c-12.263129.027863-12.263129.027863-12.252681-12.192312.009288-10.535633.010449-10.672626 10.384711-10.596003 4.708819.034829 10.955898-2.347444 13.694582.986809 2.307972 2.808341.726756 8.817426.850978 13.410149.031345 1.155147-.164855 2.340478.026702 3.464279.729077 4.29552-1.364118 5.349664-5.192936 4.973516-2.480953-.244961-5.006022-.046438-7.511356-.046438" fill="#ff2722"/><path d="m351.969583 371.1213c.056887 12.029779.056887 12.029779-11.931097 12.039066-11.650148.008127-11.650148.008127-11.638538-11.603709.011609-12.755373.011609-12.755373 12.914423-12.679911 10.597165.06153 10.597165.06153 10.655212 12.244554" fill="#142a6c"/><path d="m329.023843 507.502789c-.002322-4.727394-.005805-9.455949-.009288-14.181021.734883-1.09826.444645-2.268499.235674-3.432934 7.179323-1.636941 14.479385-.140475 21.695859-.838207 1.971296-.190396 2.810664.848656 2.738685 2.746811-.006966.191557.011609.385436-.001161.575832-.412138 6.062488.91599 12.201599-.812666 18.204879-7.665762.075462-15.331524.211293-22.996126.161372-1.153985-.008126-1.03789-1.365278-.913668-2.323063.091715-.081267.270501-.176465.261214-.247283-.029024-.226386-.127705-.444644-.198523-.666386" fill="#ff2722"/><path d="m480.076971 555.242387c-12.528987.065014-12.527826.065014-12.541758-12.328142-.011609-9.84719-.010448-9.945871 10.020172-9.770567 4.770349.082427 10.883919-2.016573 13.952314.968233 3.092774 3.009186.373826 9.194735 1.11103 13.889623.964751 6.147237-1.424487 8.259008-7.344179 7.276843-1.688023-.279789-3.463118-.041794-5.197579-.03599m-178.568721.096824c-12.248037.089393-12.248037.089393-12.28751-12.027457-.026701-8.231145-.026701-8.217214 8.149879-8.199799 4.433674.010448 8.873152.082427 13.299859-.103325 2.528553-.106808 3.542063.821954 3.374886 3.299424-.090554 1.343221-.004644 2.698051.003483 4.047076.074301 12.892366.074301 12.892366-12.540597 12.984081m11.906369-252.556154c-1.160951-.023219-2.323063-.045277-3.484015-.067335-2.86755-4.0761-7.049297-.999579-10.507771-1.913248-1.883063-.495726-4.828397 1.041373-5.452989-1.719369-.85446-3.780058-3.482854-2.751455-5.790825-2.946495-.008127-2.321902-.017415-4.644966-.025541-6.966869 2.532035-.148602 6.021855.861426 5.477368-3.609398-.729077-5.985865 2.285914-7.384812 7.477688-6.877476 2.670189.262375 5.396103.193879 8.080222.013931 3.348184-.225224 4.341958 1.297944 4.267658 4.447605-.152085 6.543122-.042956 13.092049-.041795 19.638654m-49.980002 77.989232c-10.488035.012771-10.488035.012771-10.499645-10.370779-.011609-9.648667-.011609-9.648667 10.132784-9.637057 11.467878.013931 11.467878.013931 11.517799 10.178061.04876 9.815844.04876 9.815844-11.150938 9.829775" fill="#172c6c"/><path d="m556.771046 320.939756c10.022493.038312 10.022493.038312 10.058483 9.763602.034828 9.677691.034828 9.677691-10.021333 9.743865-11.43421.074301-11.43421.074301-11.368036-11.004658.052243-8.574787.052243-8.574787 8.448244-8.509774.961267.006965 1.921374.001161 2.882642.006965m-.542745 134.374669c-10.830516-.006966-10.830516-.006966-10.77479-10.712099.049921-9.425764.049921-9.425764 9.638219-9.379326 12.192311.059208 12.192311.059208 12.210886 9.495421.020898 10.602969.020898 10.602969-11.074315 10.596004" fill="#ff2722"/><path d="m313.414619 302.783057c-.001161-6.546605-.11029-13.095532.041795-19.638654.0743-3.149661-.919474-4.672829-4.267658-4.447605-2.684119.179948-5.410033.248444-8.080222-.013931-5.191774-.507336-8.206765.891611-7.477688 6.877476.544487 4.470824-2.945333 3.460796-5.477368 3.609398-.727917-12.516217-.727917-12.558011 11.298379-12.321177 4.957262.09752 11.647825-1.446546 14.409729 1.127284 3.189133 2.970874 1.0495 9.756635.942692 14.857856-.068496 3.295941 1.821533 7.044653-1.389659 9.949353m116.070644 70.644938c-.681478 1.981744-2.371824 1.632297-3.870612 1.633458-16.753689.01161-33.50854.012771-50.263391 0-1.492983-.001161-3.187972.371505-3.894992-1.597469 19.342612-.01277 38.686384-.02438 58.028995-.035989m-60.247457 45.748915c18.114325-.001161 36.22865-.047599 54.341813.056886 2.036309.01161 4.81911-1.352508 5.906921 1.92718-15.511471-.039473-31.022943-.077784-46.533254-.116095-3.014991-1.165596-6.038108-1.064593-9.069352-.069657-.847495-.002322-1.694989-.004644-2.542484-.006966-.667547-.212454-1.335094-.424908-2.00148-.636202-.034828-.385435-.068496-.770871-.102164-1.155146m-81.058439-123.039719c2.307971.193879 4.935204-.833563 5.790826 2.946494.624591 2.760743 3.569925 1.222482 5.452988 1.719369 3.458475.912508 7.640221-2.162852 10.507771 1.912087-5.146497.074301-10.327823-.198522-15.430205.314618-5.634097.566545-7.751672-1.344381-6.32138-6.892568" fill="#142a6c"/><path d="m373.88405 420.974759c3.031244-.994935 6.054362-1.095938 9.069352.069657-3.023117-.023219-6.046235-.046438-9.069352-.069657" fill="#172c6c"/><path d="m329.249996 489.888718c.210133 1.164434.499209 2.334673-.234512 3.432933-.443483-1.180687-.784803-2.353248.234512-3.432933" fill="#b6828c"/><path d="m369.339622 420.331476c.667547.212454 1.335094.423747 2.00148.636201-.804539.221742-1.697311.718629-2.00148-.636201" fill="#172c6c"/><path d="m329.023843 507.502789c.070818.221742.169499.44.198523.666386.009287.070818-.169499.166016-.261214.247283-.203167-.321584-.18227-.625753.062691-.913669" fill="#b6828c"/></g></g></g></svg>