<svg width="3021" height="1597" viewBox="0 0 3021 1597" version="1.1" xmlns="http://www.w3.org/2000/svg" xmlns:xlink="http://www.w3.org/1999/xlink"><title>github-metadata-gen</title><defs><linearGradient x1="50%" y1="0%" x2="50%" y2="100%" id="linearGradient-1"><stop stop-color="#FFF" offset="0%"/><stop stop-color="#FFF" offset="100%"/></linearGradient><polygon id="path-2" points="6.65301626e-15 0 645.000005 0 645.000005 621.68401 6.65301626e-15 621.68401"/><polygon id="path-4" points="0 0 240.091317 0 240.091317 34.2487554 0 34.2487554"/></defs><g id="github-metadata-gen" stroke="none" stroke-width="1" fill="none" fill-rule="evenodd"><g><rect id="Rectangle" fill="url(#linearGradient-1)" x="0" y="0" width="3021" height="1597"/><g id="Elements" transform="translate(400, 476)"><g id="Text" transform="translate(684, 33)"><text id="MDX-Gen" font-family="SFCompactRounded-Regular, SF Compact Rounded" font-size="201" font-weight="normal" letter-spacing="-1.511" fill="#211F2B"><tspan x="0" y="191">Metadata Gen</tspan></text><text id="Effortlessly-Extract" font-family="SFCompactDisplay-Medium, SF Compact Display" font-size="66" font-weight="400" letter-spacing="-.496" fill="#000"><tspan x="0" y="302">Effortlessly Extract and Process Metadata</tspan>  <tspan x="0" y="420" font-family="SFCompactDisplay-Thin, SF Compact Display" font-size="54" font-weight="300" letter-spacing="-.406">A powerful Rust library for extracting, validating, and processing </tspan> <tspan x="0" y="484" font-family="SFCompactDisplay-Thin, SF Compact Display" font-size="54" font-weight="300" letter-spacing="-.406">metadata in YAML, TOML, and JSON formats from any content or data </tspan> <tspan x="0" y="548" font-family="SFCompactDisplay-Thin, SF Compact Display" font-size="54" font-weight="300" letter-spacing="-.406">file.</tspan></text></g><g id="metadata-gen"><g id="Fill-1-Clipped"><mask id="mask-3" fill="#fff"><use xlink:href="#path-2"/></mask><path d="M379.419911,34.9201425 C373.855394,29.9081625 367.975318,27.3031692 361.71958,25.854341 C329.908385,18.487532 298.68698,22.0275024 267.879747,31.7559014 C266.109431,32.3151492 263.937156,32.73048 262.799835,34.9732662 C284.136589,43.3165855 303.262564,55.3457237 320.993886,69.7915078 C322.75387,71.2248819 323.809486,70.9438092 325.405116,69.6978168 C330.632476,65.6179163 335.95469,61.6626152 341.279722,57.7169727 C353.090587,48.9631522 365.789896,41.7460555 379.419911,34.9201425 M589.552053,426.813708 C590.264876,426.250596 590.782353,425.922196 591.204975,425.495274 C599.848993,416.768498 604.400158,405.683996 607.998077,394.128141 C618.6256,359.993747 620.780033,325.081815 616.335931,289.697563 C614.023722,271.287786 609.835072,253.323281 601.490644,236.659824 C598.484396,230.656845 594.969123,225.001586 589.585864,220.378857 C589.168877,221.400765 588.776309,222.086543 588.605382,222.825445 C585.579411,235.896775 580.372713,248.100738 574.574345,260.060333 C564.204152,281.451799 551.259721,301.150069 536.933789,319.903703 C534.81035,322.681588 534.706105,324.493589 536.857718,327.344885 C541.839956,333.945746 546.494429,340.817056 551.095369,347.71058 C566.996271,371.535114 580.970018,396.367064 588.545275,424.494617 C588.740621,425.221928 589.144459,425.890321 589.552053,426.813708 M56.2318004,225.173512 C46.9078293,232.08539 42.1791634,242.238778 38.2478436,252.796874 C31.419218,271.139039 27.994105,290.283857 27.4587843,309.845935 C26.3073754,351.955647 31.0520069,392.745959 54.7150585,428.896158 C54.2126083,434.370797 54.0642212,439.730495 56.3407429,444.989742 C61.0309031,455.818285 68.5817419,463.916269 78.3086124,469.959814 C81.2547543,471.789201 82.7977925,473.879378 82.7780703,477.629911 C82.759287,481.286754 83.5866861,484.966778 85.4518561,488.245959 C86.2726811,495.109542 89.3136782,501.126042 92.689955,506.879823 C106.373502,530.203061 125.188615,548.331766 147.359343,562.89732 C161.820514,572.396804 177.318517,579.460324 194.283486,582.788767 C203.065562,585.139732 211.95658,584.783321 220.793129,583.484205 C225.840169,582.742404 231.128574,582.766551 235.753933,579.991563 C237.728984,580.527629 239.422287,579.463223 241.154098,578.8721 C254.68644,574.250338 267.204491,567.578968 278.590855,558.751739 C282.023482,556.090724 286.059048,554.129977 288.51401,550.249049 C289.825075,549.142145 291.224423,548.127964 292.433121,546.912881 C298.657867,540.655874 304.733287,534.235633 311.081063,528.11385 C313.366976,525.9097 315.422795,522.957954 319.135291,522.95409 C319.602053,523.262208 320.068815,523.571291 320.535577,523.879408 C321.605279,528.037545 324.861343,530.499588 327.652524,533.224351 C334.990174,540.387358 342.37666,547.530081 351.629254,552.143151 C359.754859,558.069824 367.807209,564.111438 376.452168,569.23353 C386.061644,574.92839 396.021425,579.793556 406.904401,582.383094 C414.430822,585.155186 422.242746,586.538335 430.185214,586.759521 C436.183623,586.925655 442.328541,587.72251 448.078074,584.937863 C449.460515,584.767867 450.886159,584.768832 452.218826,584.403727 C496.85236,572.199763 529.435543,543.668471 554.078138,504.534653 C556.905947,500.044252 558.089287,494.786936 556.916277,489.288149 C557.735224,481.768731 556.720931,474.283118 556.052251,466.851596 C555.500025,460.705665 555.356334,454.433204 553.620768,448.425397 C553.999248,446.629816 553.527791,444.936618 553.114561,443.209615 C546.561109,415.830623 534.054327,391.332869 518.694381,368.243376 C515.554773,363.524059 512.618023,358.564236 508.073432,355.00688 C500.640927,344.579179 491.651296,335.440937 484.451702,324.820059 L484.389719,324.51484 C489.298703,317.727561 495.314017,311.940941 500.62684,305.526497 C503.713856,301.80011 507.664897,298.773991 509.687846,294.148364 C510.190297,293.787123 510.830803,293.529232 511.176413,293.04822 C529.027009,268.181499 543.082464,241.293176 551.98851,211.684921 C552.852536,208.813344 554.340163,206.042219 553.787938,202.852864 C554.317624,201.36057 555.077403,199.908845 555.339428,198.368257 C557.362377,186.483036 558.263031,174.487703 558.440532,162.430554 C558.980549,155.225049 556.256048,148.884976 553.088265,142.819215 C537.62501,113.21096 514.254976,91.7412565 486.29715,75.2081939 C474.904213,68.4711422 462.820053,63.3065524 449.706574,61.1429687 C435.493341,57.5556698 421.748748,59.2865368 408.355402,64.9997497 C407.437844,65.157189 406.466752,65.1658819 405.611179,65.4942831 C386.308642,72.8891026 369.160537,83.8267904 354.34906,98.5845554 C353.231461,99.6982214 352.019005,100.767457 351.899732,102.542754 C350.463759,103.754941 348.908512,104.846391 347.611533,106.199597 C340.401609,113.715152 333.155996,121.199799 326.146114,128.909497 C323.990743,131.279781 322.611118,131.261429 320.49895,129.05438 C313.624306,121.870124 306.65105,114.784387 299.652436,107.726662 C297.904661,105.963921 296.620831,103.592672 294.032508,102.837349 C286.434712,94.2573883 277.653574,87.121426 268.153042,80.9523151 C258.811226,74.885588 249.163245,69.3887334 238.286844,66.6659021 C224.251112,61.0318918 209.845352,59.8515798 195.091163,62.8748016 C192.339427,63.4591623 189.529463,63.8397211 186.845346,64.6578261 C145.391805,77.2896771 114.274648,103.794542 91.0699055,140.689437 C86.3675361,148.165391 83.6749672,156.608197 82.9762328,165.598659 C78.6683102,168.942555 73.2005262,169.66214 68.5873768,172.426505 C61.8949294,176.437827 57.0469905,181.464295 56.0101588,189.814376 C55.0212243,197.781 54.0698563,205.657796 55.0324942,213.749984 C55.4832906,217.533358 56.8600978,221.262642 56.2318004,225.173512 M202.894636,621.68401 C186.84065,616.553227 171.677927,609.231814 157.273106,600.498278 C81.3796624,554.479627 32.1968417,487.032806 10.2890784,399.754424 C-12.369073,309.488559 2.61051398,224.589153 53.0987658,147.265186 C105.459701,67.0735059 178.715986,17.8191392 271.642957,4.20401676 C392.048783,-13.4378824 494.77494,24.2702887 573.608889,120.629927 C629.803472,189.316945 653.139697,270.329627 642.495268,359.872046 C631.372806,453.429649 587.27835,527.820221 513.204996,583.267846 C491.61373,599.429043 468.037081,611.960442 442.986891,621.520776 C431.979947,620.239047 420.927924,619.271229 409.980147,617.584793 C399.649396,615.993013 389.429469,613.644945 379.160703,611.630109 C362.692549,604.551133 346.778499,596.384572 331.859019,586.246636 C327.953994,583.593349 324.052728,579.191809 319.994621,578.995734 C315.650072,578.78517 311.93194,583.882149 307.869139,586.548959 C306.682042,587.327463 305.486493,588.091478 304.306908,588.880606 C291.432916,597.486646 277.655453,604.318355 263.67607,610.751153 C262.598855,610.945296 261.478438,611.004215 260.451937,611.353864 C241.760793,617.721948 222.4545,620.443814 202.894636,621.68401" id="Fill-1" fill="#CC0424" fill-rule="nonzero" mask="url(#mask-3)"/></g><g id="Fill-4-Clipped" transform="translate(202.8959, 610.7512)"><mask id="mask-5" fill="#fff"><use xlink:href="#path-4"/></mask><path d="M176.265129,0.878955832 C186.533894,2.89379304 196.753822,5.24186077 207.083632,6.83364011 C218.03141,8.52007626 229.084373,9.48789355 240.091317,10.7696237 C205.039083,24.9855269 168.687993,32.6846005 131.023958,34.0310449 C87.3802978,35.5899841 45.081513,28.8056042 4.1886494,12.952525 C2.73764865,12.3894137 1.16361807,12.1189657 0,10.9328583 C19.5579873,9.69266129 38.86428,6.96982997 57.5563628,0.60271257 C58.5828637,0.253062009 59.7032805,0.194142992 60.7804958,0 C61.4632645,0.376695356 62.1328849,0.781401393 62.8316193,1.12429076 C88.9393018,13.9319329 116.2801,16.4132928 144.494317,11.3433596 C155.542584,9.35749901 166.615269,7.38322898 176.265129,0.878955832" id="Fill-4" fill="#102353" fill-rule="nonzero" mask="url(#mask-5)"/></g><path d="M387.235311,215.885848 C386.64364,215.017517 386.135555,214.245773 385.601173,213.492383 C366.714685,186.873544 347.797205,160.278851 326.383439,135.693201 C324.76339,133.832906 323.897484,132.147435 321.182376,135.138783 C298.421856,160.212206 277.46734,186.765365 258.231484,214.776045 C256.710984,216.988889 256.25831,218.557486 257.825767,221.106458 C275.290369,249.500596 296.788658,274.5547 318.609081,299.361539 C320.407569,301.405353 321.154201,300.609463 322.497199,299.055353 C328.413901,292.206259 334.5344,285.540682 340.390995,278.638465 C355.911538,260.344593 371.151272,241.815045 383.991456,221.360487 C385.085576,219.617063 386.094233,217.816653 387.235311,215.885848 M294.033167,102.836673 C296.620549,103.592962 297.905319,105.964211 299.652154,107.726952 C306.650768,114.784677 313.624963,121.869448 320.499608,129.05467 C322.611777,131.261718 323.991401,131.279104 326.145832,128.909787 C333.156654,121.200089 340.402266,113.715442 347.611251,106.199887 C348.909169,104.846681 350.463477,103.75523 351.900391,102.54401 C352.691163,103.309957 353.562702,104.003463 354.258618,104.850545 C368.491575,122.174667 382.216444,139.913155 395.326166,158.154869 C398.963529,163.21611 402.738009,168.174001 406.828046,173.691138 C411.701344,160.222831 414.66439,147.26451 416.20555,133.980686 C418.945077,110.35899 418.415391,87.0966026 408.35512,65.0000394 C421.748466,59.2868265 435.493059,57.5559597 449.707232,61.1451903 C458.499639,91.8062605 458.493065,122.750335 451.705762,153.683785 C443.186651,192.511418 424.646711,226.459396 401.86647,258.127885 C385.005747,281.56703 365.845025,303.047358 346.991405,324.770124 C344.990997,327.074726 344.98912,328.33424 347.02052,330.614696 C357.903495,342.832182 368.69631,355.137565 379.338861,367.577204 C403.507181,395.825493 425.199876,425.782431 439.704249,460.681808 C456.509561,501.11764 463.205764,542.241182 448.07873,584.938152 C442.329199,587.7228 436.184281,586.925944 430.184933,586.758846 C422.242465,586.538625 414.43054,585.154511 406.905997,582.380486 C422.544874,549.985652 419.658838,517.467184 407.915592,483.977035 C389.732535,508.032414 372.258542,531.474456 351.629913,552.14344 C342.376378,547.529405 334.989892,540.387648 327.652242,533.224641 C324.861061,530.499878 321.605937,528.037834 320.536234,523.878732 C345.275562,499.753809 366.177486,472.321695 385.976837,443.914035 C387.864547,441.205691 387.829798,439.466131 386.10832,436.801253 C374.3153,418.542153 360.979241,401.517455 347.104105,384.930304 C338.455389,374.591464 329.550284,364.478643 320.646116,354.131111 C319.129375,355.820446 317.948852,357.098311 316.807773,358.411916 C295.959381,382.409343 275.50074,406.710057 258.414619,433.814736 C255.835688,437.905261 255.95684,440.475482 258.774317,444.203801 C269.229036,458.043009 279.155947,472.304308 289.679224,486.086529 C299.228594,498.592814 309.296378,510.680872 319.135009,522.954379 C315.423453,522.958244 313.366694,525.90999 311.080781,528.11414 C304.733005,534.235922 298.658524,540.655198 292.432839,546.913171 C291.224141,548.128254 289.824793,549.142435 288.512788,550.248373 C269.698615,528.525608 253.333769,504.799594 235.784643,481.26193 C228.616981,501.327236 224.789907,521.11147 226.375208,541.862554 C227.391379,555.158935 231.166797,567.662323 235.754589,579.990886 C231.128292,582.765875 225.839888,582.742694 220.792848,583.484495 C211.957239,584.782644 203.066219,585.139057 194.283204,582.789057 C186.853517,557.647056 185.904966,532.184381 190.891901,506.47444 C197.854825,470.580203 212.866344,438.293546 232.779333,408.227462 C250.976479,380.753814 272.398698,355.985612 293.98433,331.370018 C296.339741,328.683891 296.196049,327.291085 293.968364,324.7991 C283.90997,313.546533 273.999025,302.153913 264.107802,290.744874 C238.667861,261.400305 216.362833,229.974254 202.430409,192.92868 C190.430773,161.022584 185.367767,128.206623 189.127221,94.046149 C190.292717,83.4590777 193.071689,73.2573948 195.090881,62.8750913 C209.84507,59.8518695 224.25083,61.0321817 238.287501,66.6642602 C236.720046,70.3249664 234.930008,73.9064698 233.62082,77.6647304 C225.081047,102.179871 225.618246,127.149944 230.392931,152.281319 C231.895586,160.188058 234.035929,167.915142 237.098526,176.056592 C254.951001,149.962228 273.265541,125.385271 294.033167,102.836673" id="Fill-7" fill="#102353" fill-rule="nonzero"/><path d="M448.078448,584.937863 C463.205484,542.241857 456.509279,501.11735 439.703967,460.681519 C425.200534,425.783108 403.506899,395.826168 379.338579,367.576914 C368.696029,355.137275 357.904152,342.831892 347.021177,330.614406 C344.988838,328.33395 344.991655,327.074437 346.991125,324.770799 C365.844743,303.047068 385.006405,281.567705 401.867127,258.127596 C424.64737,226.459106 443.186369,192.511128 451.705481,153.684461 C458.492783,122.751011 458.499357,91.8069366 449.706951,61.1449005 C462.820429,63.3065524 474.904587,68.4711422 486.296587,75.2081939 C514.254413,91.7412565 537.624448,113.21096 553.087701,142.819215 C556.255484,148.884976 558.979985,155.225049 558.441847,162.430554 C535.395823,159.650737 512.289692,159.086659 489.106551,159.952093 C483.848199,160.148168 481.589521,161.678129 480.709529,167.243563 C478.987112,178.141649 475.095237,188.521055 471.744317,199.462606 C473.588825,199.258804 474.95812,199.136136 476.318961,198.952618 C484.388217,197.867929 492.516637,196.75523 500.620642,197.118401 C518.439305,197.917189 536.184717,199.775552 553.788313,202.852864 C554.340539,206.042219 552.85291,208.813344 551.988884,211.684921 C543.082839,241.294143 529.026447,268.181499 511.175849,293.04822 C510.830239,293.529232 510.190672,293.787123 509.687282,294.148364 C503.258739,287.35336 496.909084,280.478186 490.385685,273.781702 C476.998913,260.039082 463.383924,246.546628 448.838229,234.076079 C446.388901,231.976245 445.302295,231.936643 443.852232,235.127929 C439.27665,245.197286 433.26791,254.435015 427.104209,263.515305 C425.007067,266.605173 425.684201,268.004741 428.182363,269.977079 C432.269585,273.204102 436.163338,276.691915 440.079631,280.141093 C455.767344,293.960982 469.881026,309.447991 484.389155,324.51484 C484.389155,324.51484 484.452079,324.820059 484.452079,324.822957 C483.967472,326.806886 482.434766,328.040322 481.218555,329.465969 C464.289273,349.297531 446.9045,368.694444 428.216174,386.798036 C425.669174,389.265874 425.694531,390.762997 427.773829,393.459749 C432.628342,399.754424 437.317563,406.206539 441.682776,412.867287 C443.747987,416.01897 444.978285,416.361861 447.912218,413.7984 C469.033905,395.348056 488.922475,375.581207 508.072869,355.00688 C512.618398,358.564236 515.554209,363.524059 518.694757,368.243376 C534.053765,391.332869 546.560545,415.830623 553.113997,443.209615 C553.528167,444.936618 553.999625,446.629816 553.621144,448.425397 C526.752741,455.99987 499.532155,460.32897 471.577146,457.764544 C468.228107,457.457392 469.337253,459.161214 470.035987,460.886286 C473.644236,469.802374 476.449504,478.997605 478.998382,488.280732 C481.142482,496.087984 481.14624,496.096677 488.932807,496.048382 C511.791938,495.907364 534.570302,494.891251 556.916653,489.288149 C558.088723,494.786936 556.906321,500.044252 554.078514,504.534653 C529.435919,543.668471 496.852735,572.199763 452.218262,584.404694 C450.886534,584.768832 449.46089,584.767867 448.078448,584.937863" id="Fill-9" fill="#FEFEFE" fill-rule="nonzero"/><path d="M195.090788,62.8748981 C193.071594,73.2572016 190.292624,83.4588846 189.127127,94.0459558 C185.367673,128.206429 190.43068,161.02239 202.430315,192.928487 C216.36274,229.97406 238.667768,261.400112 264.107708,290.744681 C273.998931,302.154687 283.909877,313.547306 293.96827,324.798906 C296.195956,327.290891 296.339646,328.683697 293.984236,331.369826 C272.398603,355.985419 250.976386,380.753622 232.77924,408.228235 C212.866251,438.293354 197.854732,470.580009 190.892746,506.474248 C185.904873,532.184189 186.853423,557.646864 194.28311,582.788863 C177.31908,579.460422 161.820138,572.3969 147.358967,562.89645 C125.189178,548.331864 106.374066,530.203157 92.6895792,506.879919 C89.3133025,501.12614 86.2723054,495.109638 85.4505412,488.247022 C108.090849,493.998869 131.146264,495.282531 154.350067,495.069072 C161.916872,494.999528 162.009848,495.124127 163.690003,487.396077 C166.005971,476.746223 169.578531,466.491416 172.940721,456.576601 C165.122222,456.576601 157.500947,456.479046 149.883427,456.595919 C131.850634,456.872162 113.990646,456.386321 96.6594047,449.991193 C91.7598117,448.183056 91.2667533,446.188502 92.1251447,441.46822 C97.6859055,410.878624 111.114941,384.156436 129.287669,359.665443 C132.843325,354.873685 132.843325,354.754881 136.784975,359.298405 C155.462971,380.825096 175.609811,400.761939 197.347585,419.012347 C199.520801,420.836905 200.31345,420.834007 201.634847,418.231911 C206.270537,409.105258 211.560819,400.362063 217.416476,392.014881 C219.402797,389.18387 219.518314,387.542831 216.701776,385.062436 C196.955017,367.672633 178.550317,348.865877 161.279182,328.872047 C158.912501,326.132795 158.286083,324.570958 161.163666,321.594099 C177.376368,304.822462 193.543052,288.008326 210.821702,272.384162 C212.947958,270.461084 213.129214,269.169695 211.575846,266.852536 C206.60206,259.430672 202.540196,251.452457 198.54877,243.440437 C195.773556,237.871141 195.759468,237.862448 191.008262,241.710536 C172.152766,256.982152 155.148352,274.27923 138.922501,292.399243 C136.298491,295.330705 135.161169,296.194206 132.310822,292.358675 C113.108776,266.519306 98.7696949,238.243006 90.2721838,206.845932 C89.4062791,203.644987 90.7624249,203.195851 92.8868026,202.73802 C110.697015,198.895727 128.701633,196.90697 146.899718,197.201564 C155.38502,197.33872 163.862809,197.967511 172.755707,198.393467 C168.422426,186.139277 164.936268,174.156502 162.638146,161.847256 C162.178897,159.389079 160.725079,159.410328 158.913441,159.365897 C133.389915,158.745798 107.940583,159.0317 82.9758571,165.598756 C83.6755306,156.608293 86.3680997,148.165488 91.0704691,140.689534 C114.275211,103.794638 145.392368,77.2897738 186.84591,64.6579228 C189.530026,63.8398178 192.33905,63.4592588 195.090788,62.8748981" id="Fill-11" fill="#FEFEFE" fill-rule="nonzero"/><path d="M82.9758571,165.598852 C107.940583,159.031796 133.389915,158.745894 158.913441,159.365993 C160.725079,159.410424 162.178897,159.389175 162.638146,161.847354 C164.936268,174.156598 168.422426,186.139373 172.756645,198.393564 C163.862809,197.967609 155.38502,197.338818 146.899718,197.201661 C128.701633,196.907066 110.697015,198.895825 92.8877418,202.738116 C90.7624249,203.195947 89.4062791,203.645083 90.2721838,206.846028 C98.7696949,238.243104 113.108776,266.519402 132.310822,292.358771 C135.161169,296.194304 136.298491,295.330801 138.922501,292.399339 C155.148352,274.279326 172.152766,256.982248 191.008262,241.709667 C195.759468,237.862544 195.773556,237.871237 198.54877,243.440533 C202.540196,251.451587 206.60206,259.430768 211.575846,266.851666 C213.129214,269.169793 212.948896,270.461182 210.821702,272.384259 C193.543052,288.007457 177.376368,304.822558 161.163666,321.594195 C158.287021,324.570089 158.912501,326.132891 161.279182,328.872143 C178.550317,348.865973 196.955017,367.67273 216.701776,385.062534 C219.518314,387.542927 219.402797,389.183967 217.416476,392.014977 C211.560819,400.362161 206.270537,409.105356 201.634847,418.232009 C200.31345,420.834103 199.520801,420.837001 197.347585,419.012443 C175.609811,400.762037 155.462971,380.825194 136.784975,359.297536 C132.843325,354.754012 132.843325,354.873781 129.287669,359.665539 C111.11588,384.156532 97.6859055,410.878722 92.1251447,441.467351 C91.2667533,446.188598 91.7598117,448.183152 96.6594047,449.991291 C113.990646,456.386418 131.850634,456.871293 149.883427,456.596015 C157.500947,456.479144 165.122222,456.576698 172.940721,456.576698 C169.578531,466.491512 166.005971,476.746319 163.690003,487.396173 C162.009848,495.124223 161.916872,494.999624 154.350067,495.069168 C131.146264,495.282629 108.090849,493.998967 85.4505412,488.247118 C83.5872497,484.966972 82.7589115,481.286948 82.7786337,477.630105 C82.7983561,473.879571 81.2553177,471.789395 78.3091758,469.959042 C68.5813663,463.916461 61.0305275,455.818477 56.3413063,444.989934 C54.0638456,439.730689 54.2131719,434.370024 54.7090478,428.893452 C56.7432663,428.668401 56.3037399,426.723108 56.7150917,425.542795 C58.6629074,419.95225 60.2632345,414.233242 62.2645824,408.664912 C72.7305711,379.547327 88.9216731,353.885681 107.649444,329.796494 C109.465778,327.460018 109.979498,325.923294 107.96594,323.288357 C85.2871275,293.627946 67.044902,261.464923 56.2323638,225.173706 C56.859722,221.262836 55.4829149,217.533552 55.0330578,213.749211 C54.0694805,205.657989 55.0208486,197.781192 56.0097832,189.813603 C57.0466147,181.464489 61.8945538,176.438019 68.5879404,172.426697 C73.2010897,169.661367 78.6679345,168.942747 82.9758571,165.598852" id="Fill-13" fill="#102353" fill-rule="nonzero"/><path d="M319.134822,522.953994 C309.296191,510.681451 299.229345,498.592428 289.679975,486.086143 C279.156698,472.304888 269.228849,458.042623 258.774129,444.204381 C255.957591,440.476062 255.835501,437.904874 258.414432,433.814349 C275.500553,406.710636 295.959194,382.409922 316.808525,358.41153 C317.949603,357.097925 319.129186,355.821025 320.645928,354.131691 C329.550095,364.478256 338.455202,374.591078 347.103916,384.930883 C360.979054,401.518035 374.316051,418.541768 386.108131,436.800867 C387.82961,439.466711 387.86436,441.205306 385.97665,443.913649 C366.178237,472.322274 345.275375,499.754389 320.536047,523.879312 C320.068346,523.571194 319.601584,523.263077 319.134822,522.953994" id="Fill-15" fill="#FEFEFE" fill-rule="nonzero"/><path d="M589.55243,426.813611 C589.144834,425.890225 588.740996,425.221832 588.544712,424.494521 C580.969454,396.366968 566.995707,371.535016 551.095745,347.710484 C546.494804,340.816958 541.839394,333.946616 536.858093,327.344787 C534.705541,324.493493 534.810727,322.682457 536.933225,319.903605 C551.259159,301.149972 564.203588,281.451703 574.573782,260.060235 C580.372151,248.100641 585.578847,235.896677 588.604818,222.825349 C588.775745,222.086446 589.168313,221.400667 589.5853,220.378761 C594.968561,225.001488 598.484771,230.656748 601.491019,236.659726 C609.835449,253.323183 614.024097,271.287689 616.336307,289.697467 C620.780407,325.081717 618.625977,359.993649 607.998452,394.128045 C604.400535,405.683899 599.84937,416.768402 591.205349,425.495178 C590.781789,425.922098 590.264312,426.2505 589.55243,426.813611" id="Fill-17" fill="#FEFEFE" fill-rule="nonzero"/><path d="M56.2322699,225.17332 C67.0448082,261.464537 85.2870337,293.628525 107.965847,323.288937 C109.980343,325.922907 109.465684,327.459632 107.64935,329.797075 C88.9215793,353.88626 72.7304771,379.547906 62.2644886,408.665492 C60.2631406,414.232856 58.6628136,419.952829 56.7149977,425.54241 C56.3036461,426.723687 56.7431725,428.668981 54.7089539,428.893067 C31.0515373,392.745766 26.3069058,351.955455 27.4592539,309.845743 C27.9945746,290.283663 31.4196876,271.138846 38.2483132,252.79668 C42.1786938,242.238586 46.9082988,232.085196 56.2322699,225.17332" id="Fill-19" fill="#FEFEFE" fill-rule="nonzero"/><path d="M294.032978,102.83706 C273.265354,125.385657 254.950813,149.961649 237.098339,176.056013 C234.035742,167.915528 231.895397,160.188444 230.393682,152.28074 C225.618997,127.15033 225.081798,102.180257 233.620633,77.6651168 C234.929821,73.9058904 236.720797,70.3253527 238.287314,66.6636807 C249.163714,69.3894096 258.811696,74.8852983 268.153511,80.9520254 C277.653105,87.122102 286.434243,94.2570985 294.032978,102.83706" id="Fill-21" fill="#FEFEFE" fill-rule="nonzero"/><path d="M408.355495,64.9998462 C418.414827,87.0964096 418.945453,110.358797 416.205926,133.980493 C414.664766,147.264317 411.70078,160.222637 406.828423,173.690944 C402.738386,168.174772 398.963904,163.216883 395.326542,158.154677 C382.216821,139.912962 368.491011,122.17544 354.258995,104.850351 C353.563078,104.00327 352.691538,103.309764 351.900765,102.543817 C352.0191,100.767553 353.231555,99.6983179 354.349153,98.584652 C369.160632,83.8268869 386.308736,72.8891992 405.611273,65.4943796 C406.466846,65.1659786 407.437937,65.1572856 408.355495,64.9998462" id="Fill-23" fill="#FEFEFE" fill-rule="nonzero"/><path d="M351.629536,552.143151 C372.258166,531.474166 389.732159,508.032125 407.915218,483.976746 C419.658462,517.466894 422.544498,549.986328 406.906561,582.380197 C396.021707,579.793556 386.061925,574.92839 376.451511,569.23353 C367.807491,564.111438 359.754201,558.069824 351.629536,552.143151" id="Fill-25" fill="#FEFEFE" fill-rule="nonzero"/><path d="M484.389437,324.514936 C469.880368,309.447122 455.767625,293.96108 440.079913,280.141189 C436.16362,276.692012 432.268927,273.203233 428.182645,269.977176 C425.683543,268.004837 425.006409,266.605269 427.104491,263.515401 C433.267253,254.434146 439.276932,245.196416 443.852514,235.127059 C445.302577,231.936741 446.388244,231.976341 448.837571,234.076177 C463.384206,246.546725 476.999194,260.03918 490.385967,273.781799 C496.909366,280.478284 503.259021,287.353456 509.687564,294.14846 C507.664616,298.774087 503.713574,301.800206 500.626558,305.526593 C495.313736,311.941039 489.298421,317.727659 484.389437,324.514936" id="Fill-27" fill="#102353" fill-rule="nonzero"/><path d="M235.754215,579.991175 C231.166422,567.662613 227.391002,555.159225 226.374833,541.862844 C224.789533,521.11176 228.616605,501.327526 235.784268,481.26222 C253.333394,504.799884 269.698241,528.525898 288.513352,550.248663 C286.05839,554.12959 282.022824,556.091305 278.591137,558.751354 C267.204772,567.57858 254.685782,574.249953 241.15344,578.871715 C239.422569,579.463803 237.728326,580.528209 235.754215,579.991175" id="Fill-29" fill="#FEFEFE" fill-rule="nonzero"/><path d="M556.916182,489.288439 C534.569833,494.890576 511.792407,495.907654 488.933276,496.048672 C481.145769,496.096967 481.142013,496.087307 478.997912,488.281021 C476.449035,478.997895 473.643767,469.801699 470.035518,460.886575 C469.336784,459.160537 468.228576,457.457682 471.576677,457.764834 C499.531686,460.328293 526.753212,456.00016 553.620673,448.425687 C555.35624,454.433494 555.499932,460.705955 556.052156,466.850918 C556.720838,474.283408 557.736069,481.769021 556.916182,489.288439" id="Fill-31" fill="#102353" fill-rule="nonzero"/><path d="M553.78822,202.852961 C536.184622,199.774683 518.439212,197.917286 500.620547,197.118499 C492.516544,196.75436 484.388122,197.868026 476.319807,198.952714 C474.958025,199.136234 473.588732,199.2589 471.744223,199.462702 C475.095143,188.521151 478.987957,178.141745 480.709436,167.243659 C481.589428,161.678227 483.848106,160.148264 489.106458,159.952189 C512.289599,159.086755 535.395729,159.650833 558.441752,162.430652 C558.262374,174.487801 557.362659,186.483132 555.338771,198.368355 C555.076746,199.908941 554.316966,201.360668 553.78822,202.852961" id="Fill-33" fill="#102353" fill-rule="nonzero"/><path d="M508.073151,355.007074 C488.921819,375.581401 469.034187,395.348248 447.912499,413.798594 C444.978567,416.361088 443.748269,416.019164 441.682117,412.867479 C437.317845,406.206733 432.628624,399.754618 427.774111,393.459942 C425.694813,390.763189 425.669455,389.266066 428.216456,386.798229 C446.904781,368.693671 464.288615,349.297724 481.218835,329.465196 C482.435048,328.040515 483.967754,326.80708 484.452361,324.82315 C491.651014,335.441129 500.641584,344.579373 508.073151,355.007074" id="Fill-35" fill="#102353" fill-rule="nonzero"/><path d="M379.419911,34.9201425 C365.789896,41.7460555 353.090587,48.9631522 341.279722,57.7169727 C335.95469,61.6626152 330.632476,65.6179163 325.405116,69.6978168 C323.809486,70.9438092 322.75387,71.2248819 320.993886,69.7915078 C303.262564,55.3457237 284.136589,43.3165855 262.799835,34.9732662 C263.937156,32.73048 266.109431,32.3151492 267.879747,31.7559014 C298.68698,22.0275024 329.908385,18.487532 361.71958,25.854341 C367.975318,27.3031692 373.855394,29.9081625 379.419911,34.9201425" id="Fill-37" fill="#FEFEFE" fill-rule="nonzero"/><path d="M379.160985,611.630205 C369.511125,618.134479 358.43844,620.108747 347.390173,622.094609 C319.175956,627.164542 291.835157,624.683182 265.727475,611.87554 C265.028741,611.53265 264.359121,611.127944 263.676352,610.751249 C277.655735,604.318451 291.432259,597.486744 304.306251,588.880704 C305.486775,588.091574 306.682324,587.327559 307.868481,586.549056 C311.932222,583.882245 315.650353,578.785268 319.993965,578.995831 C324.05301,579.191906 327.954276,583.593445 331.859299,586.246734 C346.77878,596.384668 362.692831,604.550264 379.160985,611.630205" id="Fill-39" fill="#FEFEFE" fill-rule="nonzero"/><path d="M387.235311,215.885848 C386.094233,217.816653 385.085576,219.617063 383.991456,221.360487 C371.151272,241.815045 355.911538,260.344593 340.390995,278.638465 C334.5344,285.540682 328.413901,292.206259 322.497199,299.055353 C321.154201,300.609463 320.407569,301.405353 318.609081,299.361539 C296.788658,274.5547 275.290369,249.500596 257.825767,221.106458 C256.25831,218.557486 256.710984,216.988889 258.231484,214.776045 C277.46734,186.765365 298.421856,160.212206 321.182376,135.138783 C323.897484,132.147435 324.76339,133.832906 326.383439,135.693201 C347.797205,160.278851 366.714685,186.873544 385.601173,213.492383 C386.135555,214.245773 386.64364,215.017517 387.235311,215.885848" id="Fill-41" fill="#FEFEFE" fill-rule="nonzero"/></g></g></g></g></svg>