<svg height="1600" viewBox="0 0 3000 1600" width="3000" xmlns="http://www.w3.org/2000/svg" xmlns:xlink="http://www.w3.org/1999/xlink"><linearGradient id="a" x1="50%" x2="50%" y1="0%" y2="100%"><stop offset="0" stop-color="#fff"/><stop offset="1" stop-color="#fff"/></linearGradient><mask id="b" fill="#fff"><path d="m0 0h800v441.613h-800z" fill="#fff" fill-rule="evenodd"/></mask><g fill="none" fill-rule="evenodd"><path d="m0 0h3000v1600h-3000z" fill="url(#a)"/><g transform="translate(976 399)"><text fill="#000" font-family="SFCompactDisplay-Medium, SF Compact Display" font-size="91" font-weight="400" letter-spacing="-.684"><tspan x="22" y="389">A Smarter Way to Handle Bank Statements</tspan> <tspan font-family="SFCompactDisplay-Thin, SF Compact Display" font-size="88" font-weight="300" letter-spacing="-.662" x="22" y="498">Streamline bank statement analysis with Bank </tspan><tspan font-family="SFCompactDisplay-Thin, SF Compact Display" font-size="88" font-weight="300" letter-spacing="-.662" x="22" y="603">Statement Parser, a powerful Python tool designed </tspan><tspan font-family="SFCompactDisplay-Thin, SF Compact Display" font-size="88" font-weight="300" letter-spacing="-.662" x="22" y="708">for quick, accurate financial data processing and </tspan><tspan font-family="SFCompactDisplay-Thin, SF Compact Display" font-size="88" font-weight="300" letter-spacing="-.662" x="22" y="813">insights extraction.</tspan></text><text fill="#f00" fill-rule="nonzero" font-family="NotoSans-Regular, Noto Sans" font-size="175"><tspan x="0" y="187">Bank Statement Parser</tspan></text></g><g fill-rule="nonzero" transform="translate(141 401)"><ellipse cx="397.461" cy="406.641" fill="#fff" rx="390.43" ry="392.969"/><path d="m135.771064 267.463766c-19.952131 7.78294-52.2534961-12.351028-61.9897344 20.6529-5.4567375 18.495954 7.8614196 41.626443 27.3435104 44.213725 32.544931 4.322332 29.231149-32.662192 45.970984-46.546814-4.071188-6.585808-7.065557-11.431292-11.32476-18.319811zm13.833064-22.257164c-18.949023-13.634648-14.807329-54.594494-50.7482991-47.848365-19.3635128 3.634641-30.6594294 27.800887-24.2059936 45.957213 10.8258767 30.453562 42.4040207 11.402815 61.6254537 19.886104 4.930079-6.655422 8.539773-11.528329 13.328839-17.994952zm21.404983.0443c4.78052-24.86343 42.975546-43.426888 16.964172-73.342531-11.152768-12.826717-36.230472-13.109387-47.822301.297437-24.21988 28.014999 12.007387 47.46233 13.603386 71.685531 6.567742.516824 10.785283.849068 17.254743 1.359563zm460.117915-4.777981c26.90659-49.767996 30.819673-65.493142 15.5626-72.873171-16.913964-8.181633-40.157444-11.721346-51.521731 3.802344-21.448781 29.30073 14.834037 46.004677 19.936109 69.070827zm-31.475587 25.554286c-20.768293 10.981973-57.385482-5.095458-64.581366 31.022069-3.506071 17.594149 10.990392 39.012792 29.246106 39.805958 34.862013 1.513554 30.303692-37.429625 48.331867-52.762408-4.76877-6.629052-8.198997-11.395431-12.996607-18.065619zm11.443337-23.807634c-21.507538-11.371172-20.174331-55.621812-57.641864-42.821465-17.801698 6.081642-27.332829 31.291027-19.617761 48.073025 14.418479 31.360641 45.054405 6.970789 66.068397 13.821338 4.064778-6.92649 7.026032-11.974485 11.191228-19.072898zm28.98972 39.955732c18.761007 13.289748 18.001464 53.943719 54.025758 44.278064 18.486464-4.959396 29.587954-28.984306 21.823746-47.223958-13.651459-32.067317-44.779859-10.260529-65.869702-16.459247-3.655629 7.107906-6.33272 12.313057-9.979802 19.405141zm-470.644678 6.587918c-7.069829-.379707-11.925129-.640228-18.868903-1.012552-2.737983 24.461574-37.849973 44.896143-13.887546 72.803558 11.612125 13.523901 38.008078 14.269603 49.606316.135007 23.936789-29.17416-13.647185-47.825161-16.849867-71.926013zm446.795487-4.694656c-.604641 25.500494-38.887268 46.851634-10.142182 73.630476 12.934647 12.049371 41.133843 11.954444 51.443743-4.017512 18.866768-29.227952-17.611542-45.993074-22.082265-69.612964zm20.786452-43.780226c4.906575 7.004541 8.350689 11.921748 12.874822 18.378877 20.948832-9.741595 56.190084 8.893584 65.730827-26.108025 5.096732-18.698464-10.746826-39.608722-28.49511-42.25507-36.810545-5.487821-31.250184 35.796885-50.110539 49.984218zm-463.289619 46.980313c20.061095 16.210328 18.170252 59.357709 57.254081 51.565275 18.130726-3.6146 30.3069-28.588778 22.904837-46.163942-13.119458-31.153911-46.827738-11.968156-68.257291-21.529391-4.4344 6.008864-7.515299 10.184588-11.901627 16.128058zm12.635531-20.648682c21.589793-9.109805 55.765977 17.454923 68.213492-19.029653 6.311355-18.495953-6.282513-43.166366-25.901343-47.020393-34.531918-6.783045-34.031966 32.781378-52.818612 46.106987 3.809461 7.23131 6.620087 12.567249 10.506463 19.943059zm216.828399-160.541206c27.944949-34.8180844 36.387509-61.8469 20.900757-72.9617698-17.895706-12.8435919-42.454229-14.0449428-55.348281 1.5293757-24.153648 29.1752152 14.162092 47.1047723 18.046332 71.4323941zm-33.170938 25.591202c-23.1014 9.156214-59.209021-9.66249-70.967499 26.412846-6.36477 19.525382 9.615523 40.393449 27.458884 43.855112 38.492006 7.467573 34.179388-36.713455 55.493567-49.885071-4.327573-7.358934-7.565508-12.866797-11.984952-20.382887zm15.828598 20.647627c-4.151308 25.080707-41.484238 45.553247-16.474904 74.935191 12.984856 15.253677 41.870952 13.996425 54.36654-1.376438 23.803254-29.282799-14.602221-48.211196-17.472671-73.558753zm25.2967-1.235103c19.139175 16.0595 18.14782 56.870627 54.9167 51.982953 19.5323-2.596774 33.590771-26.37382 27.503751-45.716731-11.678357-37.108984-47.82764-15.926603-70.560488-24.621895-4.360688 6.749293-7.555892 11.693923-11.859963 18.355673zm-29.148892-42.340503c-9.175395-13.5502689-18.516373-27.8462403-28.397896-41.7688331-6.81558-9.6034249-16.676807-16.4497545-28.277181-11.3553514-18.15316 7.9717392-25.710122 24.820186-27.853077 43.1357787-1.331068 11.3827748 5.995147 21.0410458 17.29961 22.8720778 18.923384 3.06508 38.27301 3.568192 55.330122 4.976272 4.739926-7.115289 8.004568-12.01562 11.898422-17.859944zm39.221636 20.308c25.057406-10.833254 62.934088 12.136915 73.951184-26.912794 5.463149-19.3640057-9.317474-42.6748563-29.093341-45.9192424-38.325354-6.2873162-35.754021 36.4096898-57.430345 52.6147444 7.411677 5.591186 11.447611 10.779462 12.572502 20.217292zm-197.858011 267.035331c-2.166457 12.067299-4.333983 24.134602-6.619018 36.862174-19.250276-15.288486-38.670408-30.711977-58.302057-46.304225-13.97835 9.187856-27.714201 18.216447-41.908342 27.54564-16.9609677-8.861943-34.1676376-17.853616-51.5099782-26.914904-21.242605 9.328136-42.3879968 18.615141-65.0257658 28.557135 1.64727667-156.208325 66.9721586-277.860144 201.263665-357.2547842 138.984428-82.1707209 281.518728-77.4845027 415.81771 11.5030147 122.341808 81.0653515 183.398939 197.7830875 182.921732 345.9131445-23.110254-9.900861-44.833581-19.210011-66.979948-28.700579-17.067792 8.830299-34.316127 17.753413-51.804821 26.800989-14.007193-9.040189-28.112664-18.142612-42.652928-27.526652-24.27543 18.499119-48.53911 36.988743-72.237676 55.04698-2.026512-13.731685-4.034864-27.343129-6.042149-40.954572 1.370594-1.669657 2.741188-3.340368 4.357485-5.309572-2.603383-1.614808-4.904442-3.041875-7.206568-4.469996-13.839475-57.382177-93.917206-122.572608-152.738442-124.34352-77.769192-2.341527-157.718729 53.07672-179.256177 124.254922-.949694.695074-1.899389 1.390149-2.93134 2.145344.323686 1.19186.589686 2.170661.854618 3.149461z" fill="#cc2330" mask="url(#b)"/><g transform="translate(14.716 23.224)"><path d="m375.447255 321.441249h-13.227354c.12392 5.775766.554434 11.108541-4.420513 14.788535 5.814609 8.706894 11.430519 17.116352 17.647867 26.427613zm20.708468 40.367081c6.464118-9.21528 12.274455-17.498168 16.936397-24.143042-1.671848-6.514086-2.892883-11.266753-4.184422-16.296817h-12.751975zm-187.506447 11.05264c-.266-.978801-.530932-1.957601-.854619-3.14946 1.030884-.755195 1.980578-1.45027 2.930273-2.145344 59.149197-12.835154 117.13825-19.562298 163.296181 32.691725 7.985339-28.041368-12.275523-43.184298-22.267078-62.222389-25.585134 0-50.496188-.085434-75.406173.043245-9.658255.049573-14.682342-4.718915-14.694092-13.880403-.011752-9.116134 6.573082-11.129637 14.299899-10.85013 33.051292 1.196077 66.222232-3.046095 99.059869 3.305561v-24.787489h-55.674105c-5.154416-4.762159-11.204046-9.060233-7.652038-16.989782 3.399244-7.588868 10.532101-6.975594 17.427802-6.956023 32.565228.109693 65.131524.121296 97.696751.021095 6.789943-.021095 13.656803-.205674 16.828503 7.114234 3.43236 7.921112-2.808489 12.114766-7.685153 16.975016h-39.950198v21.562088c27.21318 0 54.082379.048518 80.951575-.029533 8.14665-.024259 14.591538 2.381608 14.23153 11.575793-.334368 8.536026-5.501603 13.039773-14.537057 12.983872-18.837921-.118131-37.676912-.035861-56.279814-.035861-13.956986 19.730001-31.299326 37.870507-22.044878 66.834774 37.043427-55.383442 90.511549-47.158564 144.394163-37.267195 2.301059 1.428121 4.603184 2.855186 7.206568 4.469996-1.616297 1.970258-2.986891 3.639914-4.358556 5.30957-6.802759 6.407558-13.604451 12.815115-20.12519 18.957932-74.639153.884926-74.639153.884926-92.801925-10.859623-11.653791 10.595935-23.382355 21.259379-35.388674 32.175954v24.834954c43.056734-32.750791 89.203983-24.288598 136.859635-15.174573-15.204729 36.670213-84.311294 37.313603-123.882258 16.508823-4.26027 2.854129-8.641259 5.789477-12.834228 8.598255v31.942857c31.627282-12.78558 62.683041-14.818069 94.369081-.424008-20.742652 27.294614-39.523955 28.523387-92.000722 7.759739v110.11083c18.121113-14.159908 32.963693-25.758906 48.417328-37.835697-5.422551 25.140824-23.265913 38.640467-45.584269 49.675176 1.369528 15.325401 2.784989 31.167622 5.254837 58.813462 44.420917-71.8005 112.065022-107.590001 161.561303-166.450925.387785 1.707626-.292707-1.286785-1.402641-6.169184 11.463635-2.424852 22.538418-4.767435 39.976905-8.456923-19.184042-1.595825-31.977677-2.659005-45.787242-3.807618 1.245606-9.170978 2.30747-16.988726 3.667384-26.995063 12.969896 7.160642 24.166465 13.342486 34.90047 19.268026.288434-15.879139-37.153459-23.672628-8.748087-47.383226 6.961935 13.597733 12.767998 24.937262 19.525894 38.135248 3.119356-16.527803-8.734201-31.222469.990285-43.813979 2.553172-3.305559 14.139662.191965 21.882503.581164-3.181317 13.436358-6.001559 25.344395-10.423138 44.020706 11.8386-16.263065 19.492773-26.77884 28.812383-39.58235 37.511335 24.958356-14.699432 26.862165-8.598524 41.804694 11.824709-4.967837 25.193074-10.585392 39.921354-16.772506 2.301059 7.049895 4.252793 13.029224 6.706614 20.542151-14.56376 2.109485-28.232313 4.088181-41.900862 6.067931 10.017193 13.068252 39.968358-6.19872 39.426744 27.066786-16.212108-4.551212-29.021766-8.146826-45.586405-12.797182 13.101299 9.890314 23.293687 17.584655 33.793739 25.512094-2.540351 9.12563-8.837817 13.915213-18.201229 16.717659-7.593282-10.79001-15.113924-21.476652-25.407801-36.103815 2.171797 17.700679 3.793438 30.916595 5.589204 45.55325-8.356032.843793-16.88512 1.704461-27.144813 2.740219 3.291348-14.668295 6.185298-27.566735 10.630381-47.377953-11.559779 16.618514-19.065464 27.407469-27.359532 39.331327-6.951251-5.199876-23.899402-3.350915-17.668167-16.623788 4.47179-9.529592 19.085765-14.418323 31.140154-22.732851-50.66711 9.67831-72.732285 48.66157-98.902832 82.724462-8.047299 10.474638-15.996319 19.806995-30.05372 22.368964-18.052741 3.290794-19.998066 18.645726-22.769168 32.458627-3.914149 19.507452-14.60649 35.096536-27.043324 49.952574h-90.775413c-31.509775-88.400026-91.330916-154.026064-183.328433-194.00289 5.519765 20.204632 33.226489 15.357041 30.631654 36.308431-.557638 4.500587-8.975628 8.0519-13.718759 11.99558-9.218126-13.05876-17.155393-24.303363-24.604459-34.856052-8.904054 11.295228 24.057503 40.119213-18.774895 39.033885 2.147228-15.059604 3.861806-27.081551 6.285717-44.087155-9.745853 13.817119-16.598823 23.532347-23.353512 33.108349-14.9793208-2.499739-14.2080278-5.145032 11.694383-39.056038-15.251731 3.596669-29.1841449 6.882189-44.24145 10.432451-1.3727307-7.32729-2.5553086-13.643084-4.0167057-21.447121h49.7953997c-21.236195-5.19777-33.9817577-8.316641-49.5432875-12.125314 7.2535722-6.624833-.3268915-25.563777 18.9618424-14.768494 8.5344311 4.776926 16.6319391 10.314321 24.5595921 15.274771 1.780811-15.830619-35.8822158-24.210546-6.925613-47.345253 6.923476 14.514303 12.500928 26.205063 20.55891 43.096753-1.056521-18.128901-1.778674-30.521068-2.562786-43.977464h23.128106c-3.096923 13.173728-5.952416 25.316973-10.856857 46.18082 11.91231-19.091882 19.098582-30.61072 27.203567-43.600921 34.655839 26.777789-12.415466 28.351461-10.803443 44.288612 12.820342-4.188379 26.588242-8.685798 42.323901-13.826611 12.008455 49.620332-31.792867 10.695083-39.144721 27.394813 11.24464 4.377176 24.156853 9.493731 37.137436 14.437306 25.546676 9.727885 47.493273 23.73591 60.556113 48.641532 1.535108 2.924797 3.350103 6.253563 5.984464 7.987559 34.888721 22.946965 73.257875 42.405898 83.014411 88.701682.905895 4.295962 9.509765 7.010869 15.188703 10.904975 5.532585-44.44471 17.388276-89.425233-37.789082-113.930053 12.536181-6.100626 28.073141 1.792008 45.965642 21.466109v-75.059653c-20.677488 19.164659-47.436654 8.995892-69.591564 11.751935-8.698945-7.765009-15.79655-14.100845-24.494427-21.865855 33.237172-11.628529 64.437148-13.470107 96.342183.647614v-26.648055c-6.405364-4.350809-13.669619-9.284892-17.406437-11.822604-46.236983 11.024162-89.102498 27.990743-125.863902-14.696771 22.149568-20.496801 107.219337-10.110756 143.884596 17.164869v-36.202962c-11.595033-8.941045-23.88017-18.413683-31.350602-24.174682-49.317882 5.783148-94.934199 28.345132-134.801072-14.760058z" fill="#25171c"/><path d="m0 489.193199c15.3681726-12.696983 30.8709475-25.504715 45.0212892-37.19442 54.7500496 170.901937 169.2742358 266.370843 354.0256058 265.637799 148.893731-.590656 290.419577-110.566482 324.032782-267.014237 15.843553 13.209588 31.355942 26.142832 46.793554 39.012795-38.79967 166.30537-215.73876 294.024062-399.84276 286.852874-190.846937-7.432767-329.92751-144.556594-370.030471-287.294811" fill="#25171c"/><g fill="#fdfdfd" transform="translate(57.834)"><path d="m484.886905 367.65487c-53.88261-9.89137-107.350732-18.116247-144.39416 37.267194-9.254449-28.965321 8.087892-47.104772 22.044875-66.834774 18.602905 0 37.441896-.08227 56.279817.035862 9.035451.055901 14.202686-4.447847 14.537057-12.983873.360008-9.194185-6.084884-11.600051-14.231529-11.575792-26.8692.078051-53.738396.029533-80.95158.029533v-21.562089h39.950202c4.876665-4.86025 11.11858-9.053904 7.685154-16.975015-3.171704-7.319909-10.038561-7.135329-16.828503-7.114234-32.565228.1002-65.131524.088598-97.696753-.02215-6.895701-.023204-14.028558-.63179-17.427802 6.956023-3.552007 7.930604 2.497621 12.228677 7.652038 16.990837h55.674105v24.787489c-32.837637-6.352711-66.008576-2.109484-99.059869-3.305561-7.726817-.279507-14.31165 1.733995-14.299899 10.850129.011751 9.161488 5.035838 13.929976 14.694092 13.880403 24.909985-.128678 49.821039-.043244 75.406173-.043244 9.991555 19.038091 30.252417 34.18102 22.267078 62.222389-46.157931-52.254024-104.146984-45.52688-163.295113-32.691726 21.537448-71.178201 101.485917-126.596448 179.256177-124.254922 58.821237 1.770912 138.897898 66.961343 152.73844 124.343521m-136.213647-261.828913c-1.124895-9.4378308-5.160829-14.6261062-12.572506-20.2172927 21.676324-16.2050545 19.104992-58.9020603 57.429279-52.614744 19.776937 3.2433313 34.557556 26.5552364 29.094411 45.9192426-11.0171 39.0497081-48.893778 16.0795396-73.951184 26.9127941m-39.222172-20.3085278c-3.893854 5.8443247-7.158496 10.7457103-11.898422 17.8599438-17.056044-1.407026-36.405669-1.910137-55.329054-4.9762719-11.305531-1.8310319-18.631745-11.4893034-17.300678-22.8710227 2.142955-18.3166479 9.699917-35.1650943 27.854145-43.1368335 11.599307-5.0944034 21.461601 1.7519262 28.277181 11.3553511 9.880456 13.9225928 19.222501 28.2185642 28.396828 41.7688332m29.149745 42.3409248c4.304075-6.66175 7.498208-11.606379 11.858896-18.356728 22.732848 8.696347 58.883201-12.4860337 70.560488 24.62295 6.08702 19.342911-7.971451 43.119957-27.502684 45.716732-36.768881 4.887674-35.777521-35.923454-54.9167-51.982954m-25.297339 1.235314h20.420033c2.87045 25.347556 41.274858 44.275954 17.471605 73.558753-12.495588 15.372863-41.381685 16.630115-54.365473 1.376438-25.010403-29.381944 12.322527-49.855539 16.473835-74.935191m-15.828919-20.647944c4.419445 7.516091 7.658448 13.023953 11.984953 20.382887-21.313111 13.171617-17.000494 57.352645-55.4925 49.885072-17.844429-3.461663-33.823653-24.329731-27.459952-43.855112 11.759547-36.075337 47.867168-17.257687 70.967499-26.412847m33.171794-25.59078h-16.401193c-3.88424-24.3286761-42.19998-42.2582333-18.046332-71.4323936 12.894052-15.57537332 37.452578-14.37402232 55.348284-1.52937575 15.486748 11.11486995 7.043122 38.14263065-20.900759 72.96176935m-216.829041 160.541207c-3.886376-7.375811-6.697002-12.712804-10.506463-19.944114 18.787714-13.324555 18.286694-52.890032 52.818612-46.105932 19.619899 3.854026 32.212698 28.523384 25.902411 47.020393-12.448583 36.483521-46.624767 9.919847-68.21456 19.029653m-12.634996 20.647838c4.386328-5.943471 7.467226-10.118139 11.901627-16.127004 21.429552 9.561235 55.137832-9.625574 68.257291 21.528337 7.400993 17.576218-4.774112 42.549342-22.904838 46.163942-39.083828 7.793488-37.192985-35.354947-57.25408-51.565275m463.289298-46.97968c18.860355-14.187333 13.299995-55.473095 50.110539-49.984218 17.748285 2.646348 33.592908 23.555551 28.49511 42.254014-9.540743 35.002665-44.781995 16.367485-65.730826 26.109081-4.523068-6.45713-7.968248-11.374336-12.874823-18.378877m-20.786667 43.780437h19.219296c4.470723 23.618835 40.949034 40.385011 22.082269 69.611909-10.309904 15.971956-38.5091 16.067937-51.443746 4.017512-28.745087-26.778842 9.53754-48.129982 10.142181-73.629421"/><path d="m96.889582 265.538452c3.202682 24.101907 40.786656 42.752908 16.849867 71.926013-11.59717 14.134596-37.9941907 13.388894-49.6063159-.135007-23.9624277-27.90636 11.1495631-48.341984 13.8875463-72.802503 6.9437734.372324 11.799073.632845 18.8689026 1.011497m470.644785-6.586968c3.647083-7.092084 6.324173-12.297236 9.979802-19.406196 21.089844 6.199773 52.219313-15.607015 65.869702 16.460302 7.765275 18.238596-3.337285 42.263507-21.823745 47.223958-36.024295 9.665655-35.264752-30.988317-54.025759-44.278064m-28.989614-39.955732c-4.165196 7.097358-7.126446 12.146408-11.191224 19.072897-21.013996-6.850548-51.649923 17.538248-66.068401-13.822392-7.715068-16.780943 1.816062-41.990329 19.61776-48.071971 37.467534-12.801402 36.13433 31.450294 57.641865 42.821466m-11.443763 23.807001c4.79868 6.670188 8.227837 11.436566 12.996603 18.065619-18.028171 15.332782-13.468783 54.275962-48.330797 52.762407-18.255713-.793165-32.752177-22.211809-29.247172-39.805958 7.195884-36.117526 43.813073-20.040096 64.581366-31.022068m31.476016-25.554392h-16.023026c-5.102071-23.06615-41.384889-39.770097-19.936104-69.070827 11.364283-15.52369 34.607763-11.983977 51.521726-3.802344 15.257073 7.380029 11.343991 23.105176-15.562596 72.873171m-460.1175972 4.77777c-6.4705284-.50944-10.6870013-.841684-17.2547422-1.359562-1.5970678-24.223202-37.8243353-43.669478-13.6033861-71.684477 11.59076-13.406824 36.6695325-13.124154 47.8212325-.298492 26.012442 29.916698-12.182584 48.480155-16.9631042 73.342531m-21.4049823-.044088c-4.7890668 6.466622-8.3987607 11.339529-13.3288396 17.994951-19.2214327-8.483289-50.7995768 10.567459-61.6254535-19.886103-6.45450415-18.156327 4.84248084-42.321518 24.2049253-45.957213 35.9409702-6.74613 31.8003449 34.213716 50.7493678 47.848365m-13.833385 22.257374c4.2592038 6.888519 7.2535723 11.734003 11.32476 18.319811-16.7398347 13.884622-13.4260525 50.869147-45.9709834 46.546814-19.48209141-2.587281-32.8002482-25.717771-27.34351101-44.213725 9.73623861-33.003928 42.03760311-12.86996 61.98973441-20.6529m275.1006525 117.568385v-40.438803h12.753041c1.291539 5.029009 2.511508 9.782731 4.183356 16.295762-4.661942 6.645928-10.472279 14.927762-16.936397 24.143041m-20.708042-40.366553v41.216148c-6.217348-9.311261-11.833258-17.720719-17.647867-26.427613 4.974947-3.679994 4.544433-9.012769 4.420513-14.788535z"/></g></g></g></g></svg>