<svg height="1597" viewBox="0 0 3021 1597" width="3021" xmlns="http://www.w3.org/2000/svg" xmlns:xlink="http://www.w3.org/1999/xlink"><linearGradient id="a" x1="50%" x2="50%" y1="0%" y2="100%"><stop offset="0" stop-color="#fff"/><stop offset="1" stop-color="#fff"/></linearGradient><g fill="none" fill-rule="evenodd"><path d="m0 0h3021v1597h-3021z" fill="url(#a)"/><g transform="translate(1070 537)"><text fill="#c04348" font-family="SFCompactDisplay-Regular, SF Compact Display" font-size="311" letter-spacing="-2.33834549"><tspan x="0" y="296">NaluFX</tspan></text><text fill="#000" font-family="SFCompactDisplay-Medium, SF Compact Display" font-size="63" font-weight="400" letter-spacing="-.473684211"><tspan x="20" y="382">Intelligent Cash Optimization for Fund Managers</tspan> <tspan x="1340.39358" y="382"/><tspan font-family="SFCompactDisplay-Thin, SF Compact Display" font-size="52" font-weight="300" letter-spacing="-.390977444" x="20" y="457">A Rust application for optimising cash allocation across complex </tspan><tspan font-family="SFCompactDisplay-Thin, SF Compact Display" font-size="52" font-weight="300" letter-spacing="-.390977444" x="20" y="520">fund structures using AI-driven predictions and suggestions.</tspan></text></g><g fill-rule="nonzero" transform="translate(532 537)"><g fill="#27384d"><path d="m13.1199549 199.854602c1.8556589-9.509502 4.0821495-18.593373 7.0142707-27.488826 22.7445837-69.014448 66.4974488-119.5308601 132.7081414-150.0276242 29.249149-13.47154357 60.205324-20.28688649 92.306272-22.06822901.954103-.05329765 2.291798-.53748051 2.632603.66734661.294264 1.03967947-.897051 1.65598044-1.731047 2.18895693-5.076789 3.24064714-10.5702 5.50316984-16.269295 7.45641607-67.558898 23.1484448-113.210961 68.3651184-133.1690533 137.0492726-18.9889762 65.349672-2.5042388 123.03199 43.3422473 172.723414 3.191854 3.459843 3.264669 3.3555-.214691 6.472286-8.846659 7.923335-17.679055 15.862432-26.506947 23.806033-3.51164 3.159575-4.103919 3.236143-7.379097-.051796-34.4843295-34.616447-62.0039319-73.987645-81.1167688-119.072952-3.9425247-9.300063-7.6703574-18.688707-10.6963126-28.337834-.3685794-1.177051-.6613413-2.378125-.9203227-3.316464"/><path d="m431.300209 195.420462c-1.37598-47.087345-18.530317-90.287717-51.287352-127.1952121-25.0574-28.2327401-55.963281-47.5024672-91.984984-58.64617972-4.67593-1.44654322-9.04934-3.55743035-13.158514-6.19829129-.972119-.62455836-2.655123-1.1530308-2.10263-2.62809952.457909-1.22209255 2.011048-.60278889 3.065742-.54348587 35.975162 2.01855459 70.323618 10.4388323 102.358508 27.1059827 64.975087 33.8042211 105.836368 86.9232098 125.470171 157.1072048 2.948636 10.541674 2.645365 19.920558-1.345203 30.261803-19.761417 51.222043-48.923488 96.206759-87.503479 135.168091-4.001077 4.041613-4.169227 3.97105-8.447301.161394-8.58918-7.65009-17.119055-15.370741-25.880138-22.820401-2.772228-2.357108-3.148314-3.666278-.434638-6.535343 22.763351-24.067267 38.583744-52.022258 46.447024-84.329641 3.086759-12.681837 4.645903-25.54834 4.802794-40.907822"/><path d="m.02877634 251.828066c0-6.125476-.0337802-12.250952.02702416-18.376429.01351208-1.295658-.27249361-3.172336 1.51335294-3.374266 1.44278985-.162145 1.7040234 1.585417 2.1559274 2.697161 8.85716836 21.803242 19.66307886 42.602086 32.39371006 62.385273 27.2831411 42.397904 61.7269339 78.17714 101.1934671 109.314978 31.264701 24.66555 64.531441 46.278873 99.376093 65.506562.874531.482682 1.691261 1.07346 2.582308 1.519358 3.005687 1.505096 2.980164 3.574696 1.327937 6.126978-2.339842 3.612229-5.310998 6.656951-8.591431 9.356365-14.132884 11.624892-30.556067 18.152729-48.380002 21.541258-1.618446.307024-2.970406-.189921-4.356894-.679358-77.41521-27.311666-130.0837956-80.315051-160.5287635-155.829562-13.66897004-33.90481-19.19390934-66.069566-18.71272916-100.188318"/><path d="m520.745072 252.73923c-1.689009 76.837944-29.087004 142.846706-84.013608 196.873256-26.99188 26.549734-58.698726 45.876513-94.692655 57.985589-2.32633.782199-4.491266 1.086972-6.909928.557748-18.427474-4.030353-35.569799-10.733846-49.82129-23.575577-2.150673-1.938982-4.019844-4.118181-5.590247-6.536092-2.21298-3.407296-2.007296-4.501775 1.603433-6.507569 11.898136-6.61041 23.667909-13.439264 35.216984-20.640452 43.207878-26.938583 83.978326-56.973685 119.227589-94.006541 34.401005-36.142563 61.154172-77.271832 80.364597-123.315745.239464-.575014.493941-1.144774.707882-1.728796.373834-1.01791.918071-1.866168 2.162683-1.546383 1.099734.282254 1.001395 1.303166 1.038179 2.161183.285254 6.74553.903808 13.481302.706381 20.279379"/><path d="m260.753514 279.766843c8.762585 1.109492 17.164096 4.277324 25.365928 7.9421 23.639384 10.561942 44.92166 24.938796 65.249082 40.807233 13.60141 10.618242 26.608289 21.944368 39.388463 33.533228.924077.838499 1.833139 1.701021 2.685902 2.611585 1.886436 2.014051 1.851155 3.693302-.419625 5.645797-9.571056 8.23186-19.332784 16.225005-29.195101 24.10405-2.580056 2.060591-4.524295 2.194961-7.234968.24697-17.959055-12.906289-36.547173-24.811932-56.407678-34.624705-10.63776-5.256199-21.571285-9.735453-33.040038-12.924303-4.874107-1.355713-9.464461-1.290405-14.325808.027024-21.936861 5.946065-41.549645 16.805273-60.770578 28.489469-9.706928 5.900274-19.081309 12.32677-28.23274 19.055035-2.628851 1.932227-4.669926 2.101129-7.287515.004504-9.560547-7.656845-19.044526-15.401519-28.26652-23.462975-3.984563-3.482365-4.055126-3.923007-.128366-7.527731 21.842277-20.050425 44.348898-39.272109 69.377774-55.33572 17.702326-11.362157 35.975162-21.527745 56.374649-27.308664 1.557642-.441395 3.149066-.769438 4.735233-1.100484.606542-.126112 1.243112-.11185 2.131906-.182413"/></g><path d="m389.278091 276.761757c-.489438.921824-.864774 1.859412-1.432281 2.66188-7.150893 10.11304-14.92109 19.716376-23.360884 28.794241-2.190459 2.356357-3.764616 2.266277-6.248587.419625-21.191445-15.752832-43.229647-30.12368-67.699274-40.381601-8.182314-3.429815-16.580822-6.175771-25.289358-8.050196-4.221774-.909064-8.137275-.417373-12.171382.608043-24.511663 6.232822-46.468793 17.974069-67.566404 31.486899-8.197328 5.250195-16.143181 10.904249-24.052252 16.585328-2.327831 1.672495-3.763865 1.575659-5.654054-.50295-8.331699-9.164193-16.246024-18.653426-23.318097-28.834778-1.292656-1.861664-1.807616-3.384026.163646-5.199148 30.777515-28.341587 62.462592-55.441565 100.596684-73.733168 6.873895-3.296947 13.982751-5.977593 21.403134-7.858024 4.793786-1.214587 9.384891-.766435 14.020284.593029 18.807314 5.515932 35.434679 15.365487 51.595877 26.079065 21.934609 14.540499 41.86868 31.603253 61.356853 49.208743 2.223488 2.009547 4.448478 4.019093 6.597648 6.105958.497696.483433.687615 1.284398 1.058447 2.017054" fill="#c04348"/><path d="m384.046289 184.875635c-.370832.460912-.769438 1.086221-1.290405 1.583166-5.419094 5.169871-10.811916 10.367518-16.304575 15.45782-4.477003 4.148958-9.215989 8.022421-13.560875 12.301247-1.872172 1.844398-3.165579 1.742308-5.010728.315281-11.061139-8.550894-22.637239-16.374388-34.814624-23.214503-16.242271-9.123657-33.029529-17.222647-51.709979-19.788442-5.538452-.760429-11.242051 1.724293-16.659644 3.474106-18.036375 5.825959-34.775589 14.376853-50.708584 24.582978-7.557005 4.841078-15.039696 9.779743-22.137291 15.285165-1.223593.949599-2.401396 1.540377-3.932765.105844-10.01095-9.376633-20.053428-18.720986-30.205504-27.944482-2.288796-2.079359-1.686758-3.312711.320536-4.976199 9.101136-7.543494 17.980825-15.362484 27.231346-22.716058 16.009561-12.726878 32.67521-24.537937 50.511907-34.617948 10.994329-6.213305 22.342223-11.609129 34.333444-15.690528 7.01352-2.387134 13.687737-2.31507 20.698254.069813 15.69353 5.339523 30.129686 13.130738 44.226538 21.683885 13.764305 8.351967 26.747914 17.820932 39.365193 27.771077 9.479475 7.475934 18.89289 15.066721 27.578906 23.487748.7837.759679 1.809118 1.378233 2.06885 2.83003" fill="#ede3d8"/><path d="m259.726822 457.309642c-4.73148-.20118-9.408162-1.963756-13.764305-4.449228-22.458579-12.813955-44.406701-26.443891-65.582381-41.300423-1.848904-1.297159-2.999682-2.375874-.470671-4.123436 22.327961-15.42479 44.972705-30.231777 70.879116-39.243584 6.476791-2.253514 12.521944-2.187455 18.951442.037534 21.316056 7.378346 40.469431 18.799057 59.158138 31.125827 3.857699 2.544024 7.575772 5.299737 11.428216 7.85277 2.071854 1.372977 2.082362 2.459198.045041 3.86971-21.76721 15.072724-43.970559 29.455583-67.045438 42.456456-4.064885 2.290298-8.481083 3.633998-13.599158 3.774374" fill="#305877"/><path d="m411.849269 203.092921c-.988633 17.348761-4.665421 34.104491-11.085159 50.248423-1.625203 4.087404-2.190459 4.326869-5.414592 1.521611-8.861671-7.709392-17.597982-15.563665-26.414615-23.325604-1.643219-1.446544-1.890189-2.679145-.174155-4.30585 11.431219-10.83894 22.813646-21.729676 34.220093-32.594889.431636-.411368.781449-.974371 1.538875-.905309 2.037322.185415 7.48194 7.084833 7.329553 9.361618" fill="#c04348"/><path d="m108.733008 204.116161c-.132869-3.555928 3.462846-8.807623 6.780812-10.121298 1.16354-.460912 1.601182.310779 2.193461.87153 11.076903 10.49213 22.138793 21.000023 33.215695 31.492154 1.758823 1.666489 2.625097 3.132549.268741 5.183383-8.865426 7.715397-17.581469 15.601948-26.437886 23.327105-3.148315 2.745204-3.865206 2.496731-5.415342-1.518609-6.117969-15.851171-9.64237-32.269098-10.605481-49.234265" fill="#c04348"/><path d="m262.82822 522c-15.520876 0-27.833383-1.10724-40.11211-2.665633-.834747-.105844-1.899949.043539-2.153676-1.064452-.274746-1.202575.852761-1.394747 1.590671-1.718286 13.734279-6.024886 25.459762-14.680874 34.943741-26.358314 2.086865-2.569547 4.076894-2.492979 6.169015.125362 9.240761 11.564838 20.911445 19.901041 34.256125 26.055044.871529.401608 2.129653.617801 1.76708 1.961503-.28 1.038178-1.402255.838499-2.239253.95185-12.39433 1.683006-24.840457 2.66113-34.221593 2.712926" fill="#27384d"/></g></g></svg>