<svg height="2048" viewBox="0 0 2048 2048" width="2048" xmlns="http://www.w3.org/2000/svg" xmlns:xlink="http://www.w3.org/1999/xlink"><mask id="a" fill="#fff"><path d="m0 0h568.133v1618h-568.133z" fill="#fff" fill-rule="evenodd"/></mask><g fill="none" fill-rule="evenodd"><g transform="translate(579 215)"><path d="m568.133321 1618c-34.860839-5.35803-67.238483-11.12355-98.662801-21.23726-239.122704-76.9512-382.5209705-243.72858-448.5734872-481.69923-20.67728762-74.50124-26.12666451-150.87285-15.82721576-227.993626 7.17143056-53.679056 25.96735556-103.374387 50.08116436-151.414473 39.4479255-78.583668 89.9336836-150.176835 139.8530106-222.144583 54.956523-79.231594 111.147059-157.665936 158.977668-241.58233 32.279024-56.632683 58.734421-115.495138 67.208139-181.0519736 3.904333-30.2196207 3.573072-60.3658437-.715626-90.8765244 5.570755 1.92352695 6.405231 7.03859005 8.440845 10.8628653 42.482381 79.8137135 57.075585 165.7523417 55.077901 255.1533187-2.78917 124.991287-42.924906 239.223478-100.761633 348.338075-32.400402 61.130192-72.088555 117.638858-110.034425 175.263676-41.412736 62.889207-76.185071 128.964889-93.461239 202.906783-26.660223 114.115772-9.745661 223.513832 38.423797 328.786432 54.519055 119.15491 143.044246 204.41777 261.494229 259.32181 24.745987 11.47282 50.210128 20.9057 76.048519 29.4578 3.795599 1.25536 8.185445 1.31104 12.431154 7.90924" fill="#23573f" mask="url(#a)"/><g fill="#f5b50a"><path d="m711.268855 1602.80692c-90.894595-10.75656-173.720067-44.04623-247.851822-97.83665-121.848573-88.41138-191.276922-208.38631-209.357221-357.66212-10.959443-90.48929 8.976932-174.628409 54.301587-253.67018 39.918266-69.61649 87.126812-134.267243 131.981126-200.537808 42.515255-62.818341 85.156945-125.530381 117.145167-194.709015 26.713326-57.769083 39.966311-117.828681 32.236035-181.674589-.351491-2.903008-.455168-5.833855-.783901-10.184569 5.153518 2.966281 6.554425 7.279031 8.605211 10.946386 39.409995 70.474484 53.034701 146.856221 50.677941 226.57882-3.492153 118.14505-46.988548 223.058259-107.614447 322.228728-29.011926 47.457965-63.286104 91.458644-90.823791 139.888497-42.123304 74.07097-64.072534 152.86724-55.442036 238.54012 10.109795 100.32965 53.770557 184.20808 126.9237 252.90583 43.240996 40.60666 93.537101 70.04675 148.769254 91.15746 13.553902 5.17834 27.479526 9.37972 41.233197 14.02909"/><path d="m790.68385 1594.60434c-78.152409-12.15871-145.63112-47.03023-203.139115-100.79028-77.335635-72.29677-117.054133-162.14573-120.649963-267.9802-2.306186-67.92328 21.000963-127.93226 56.205708-184.52951 43.670876-70.206203 95.281912-134.910106 140.343581-204.126705 29.907091-45.939392 59.010051-92.301453 73.577967-146.079217 8.483833-31.315525 10.954386-62.929702 6.473506-96.938165 6.000636 4.512695 7.72269 9.723935 10.084508 14.337869 34.46636 67.419619 41.068831 139.149457 31.55834 212.962273-11.670011 90.582933-52.01563 169.148885-103.689883 242.761755-28.544115 40.66235-58.248908 80.4996-79.662051 125.79866-65.212984 137.95485-12.560119 298.91862 120.692951 373.09843 22.164171 12.33588 45.6281 20.21728 68.204451 31.48509"/><path d="m862.993415 847.632773c18.98305 31.535718 25.279545 66.457856 27.135621 102.415155 3.861345 74.746742-19.784652 141.809492-57.507995 204.961922-23.843236 39.91824-54.582274 74.88847-80.43078 113.34635-25.241615 37.55181-44.045126 77.59407-47.157972 123.67519-3.107788 45.99255 9.4321 87.48252 35.103597 125.37093 5.69719 8.40531 11.075763 17.02828 15.635033 26.32448-27.669179-11.84993-49.785305-30.48031-68.573644-53.07922-66.962853-80.55275-75.514961-191.78069-22.626925-282.33326 29.444336-50.41159 66.067689-95.6246 100.663014-142.33593 28.59216-38.60468 57.100872-77.242261 77.575862-121.141701 14.38585-30.839705 20.277751-63.101808 20.184189-97.203916"/></g></g><path d="m0 0h2048v2048h-2048z"/></g></svg>