<svg height="1600" viewBox="0 0 3000 1600" width="3000" xmlns="http://www.w3.org/2000/svg" xmlns:xlink="http://www.w3.org/1999/xlink"><linearGradient id="a" x1="50%" x2="50%" y1="0%" y2="100%"><stop offset="0" stop-color="#fff"/><stop offset="1" stop-color="#fff"/></linearGradient><mask id="b" fill="#fff"><path d="m0 0h221.927v632.031h-221.927z" fill="#fff" fill-rule="evenodd"/></mask><g fill="none" fill-rule="evenodd"><path d="m0 0h3000v1600h-3000z" fill="url(#a)"/><g transform="translate(938.462 399.952)"><text fill="#000" font-family="SFCompactDisplay-Medium, SF Compact Display" font-size="91" font-weight="400" letter-spacing="-.684"><tspan x="59.82" y="386.9">AI-Driven Banking for Smarter Financial Future</tspan> <tspan font-family="SFCompactDisplay-Thin, SF Compact Display" font-size="88" font-weight="300" letter-spacing="-.662" x="59.82" y="495.9">Integrating cutting-edge artificial intelligence </tspan><tspan font-family="SFCompactDisplay-Thin, SF Compact Display" font-size="88" font-weight="300" letter-spacing="-.662" x="59.82" y="600.9">technologies to redefine banking services.</tspan></text><text fill="#23573f" fill-rule="nonzero" font-family="NotoSans-Regular, Noto Sans" font-size="175"><tspan x=".231" y="187.048">Banking on AI</tspan></text></g><g transform="translate(139 400.04)"><g fill-rule="nonzero" transform="translate(226.172 83.984)"><path d="m221.927079 632.03125c-13.617516-2.09298-26.265033-4.345137-38.540157-8.295805-93.4073064-30.059062-149.4222542-95.206476-175.22401856-188.163761-8.07706548-29.102047-10.20572833-58.934707-6.18250616-89.060011 2.80134006-20.968381 10.14349822-40.380619 19.56295482-59.146278 15.4093459-30.696745 35.1303452-58.662826 54.6300823-86.775228 21.4673918-30.949841 43.4168196-61.588256 62.1006516-94.368097 12.608994-22.1221423 22.943133-45.1152888 26.253179-70.7234277 1.52513-11.8045393 1.395731-23.5804077-.279541-35.4986423 2.176076.75137772 2.502043 2.74944924 3.297205 4.24330676 16.59468 31.17723184 22.29515 64.74700844 21.514805 99.66926524-1.08952 48.824721-16.767541 93.446671-39.360013 136.06956-12.656407 23.878982-28.159592 45.952679-42.982197 68.462374-16.1768502 24.566096-29.7597935 50.37691-36.5082967 79.260462-10.4141496 44.576473-3.8068988 87.310091 15.0092957 128.4322 21.296506 46.544887 55.876659 79.850691 102.146183 101.297582 9.666401 4.48157 19.613331 8.166289 29.706453 11.506953 1.482656.490375 3.197439.512125 4.85592 3.089547" fill="#23573f" mask="url(#b)"/><g fill="#f5b50a" transform="translate(98.09 119.74)"><path d="m179.748514 506.357395c-35.505702-4.201781-67.859402-17.205559-96.8171184-38.217441-47.5970989-34.535696-74.7175477-81.400903-81.7801645-139.711766-4.28103242-35.347379 3.50661406-68.214222 21.2115574-99.089914 15.5930727-27.193942 34.033911-52.448142 51.5551274-78.335081 16.6075214-24.538415 33.2644321-49.035306 45.7598311-76.0582094 10.434893-22.5660481 15.61184-46.0268285 12.592201-70.96663633-.137301-1.1339875-.1778-2.27884961-.306211-3.97834727 2.013093 1.15870352 2.560322 2.84337148 3.36141 4.27593203 15.394529 27.52909527 20.71668 57.36571137 19.796071 88.50735157-1.364122 46.1504104-18.354902 87.1321324-42.036894 125.8705964-11.332783 18.538268-24.7211339 35.726033-35.4780429 54.643945-16.4544156 28.933972-25.0283336 59.713765-21.6570453 93.179734 3.9491387 39.19127 21.0041238 71.956281 49.5795702 98.79134 16.891014 15.861976 36.53793 27.362012 58.11299 35.608383 5.294493 2.022789 10.73419 3.663953 16.106718 5.480113"/><path d="m210.769996 503.153262c-30.528285-4.749496-56.887156-18.371183-79.351217-39.371203-30.209232-28.240926-45.7242706-63.338176-47.1288917-104.679766-.9008539-26.532531 8.2035012-49.973539 21.9553547-72.081839 17.058936-27.424299 37.219497-52.699261 54.821711-79.736995 11.682458-17.945075 23.050802-36.055255 28.741394-57.062194 3.313997-12.232627 4.279057-24.581915 2.528713-37.86647 2.343998 1.762771 3.016676 3.798412 3.939261 5.60073 13.463422 26.335788 16.042512 54.355256 12.327477 83.188387-4.558599 35.383959-20.318606 66.073784-40.503861 94.828811-11.150045 15.883731-22.75348 31.445156-31.117989 49.140102-25.473822 53.888613-4.906296 116.765086 47.145684 145.741574 8.65788 4.818703 17.823477 7.897375 26.642364 12.298863"/><path d="m239.01592 211.367494c7.415254 12.31864 9.874822 25.9601 10.599852 40.00592 1.508338 29.197946-7.72838 55.394332-22.464061 80.06325-9.313764 15.593063-21.321201 29.253309-31.418273 44.275918-9.860006 14.668676-17.205128 30.310184-18.421083 48.310622-1.21398 17.965839 3.684414 34.172859 13.712343 48.973019 2.225464 3.283324 4.326469 6.651672 6.107434 10.283-10.808273-4.628879-19.447384-11.906371-26.786579-20.73407-26.157365-31.465918-29.498032-74.914332-8.838643-110.28643 11.501694-19.692027 25.807691-37.353359 39.32149-55.599973 11.168812-15.079953 22.305028-30.172758 30.303071-47.320977 5.619473-12.046759 7.920996-24.649143 7.884449-37.970279"/></g></g><path d="m0 0h800v800h-800z"/></g></g></svg>