<svg width="3021" height="1597" viewBox="0 0 3021 1597" version="1.1" xmlns="http://www.w3.org/2000/svg" xmlns:xlink="http://www.w3.org/1999/xlink"><title>github-mdx-gen</title><defs><linearGradient x1="50%" y1="0%" x2="50%" y2="100%" id="linearGradient-1"><stop stop-color="#FFF" offset="0%"/><stop stop-color="#FFF" offset="100%"/></linearGradient><polygon id="path-2" points="1.24071907e-14 0 599.748896 0 599.748896 210.143618 1.24071907e-14 210.143618"/><polygon id="path-4" points="-1.55983344e-14 0 568.738583 0 568.738583 176.584702 -1.55983344e-14 176.584702"/><polygon id="path-6" points="0 0 644.999994 0 644.999994 62.4179726 0 62.4179726"/></defs><g id="github-mdx-gen" stroke="none" stroke-width="1" fill="none" fill-rule="evenodd"><g><rect id="Rectangle" fill="url(#linearGradient-1)" x="0" y="0" width="3021" height="1597"/><g id="Elements" transform="translate(378, 476)"><g id="Text" transform="translate(665, 33)"><text id="MDX-Gen" font-family="SFCompactRounded-Regular, SF Compact Rounded" font-size="201" font-weight="normal" letter-spacing="-1.511" fill="#211F2B"><tspan x="0" y="191">FrontMatter Gen</tspan></text><text id="Seamlessly-handle-fr" font-family="SFCompactDisplay-Medium, SF Compact Display" font-size="66" font-weight="400" letter-spacing="-.496" fill="#000"><tspan x="29" y="302">Seamlessly handle frontmatter like a pro</tspan>  <tspan x="29" y="420" font-family="SFCompactDisplay-Thin, SF Compact Display" font-size="54" font-weight="300" letter-spacing="-.406">A robust Rust library for parsing and serializing frontmatter in various </tspan> <tspan x="29" y="484" font-family="SFCompactDisplay-Thin, SF Compact Display" font-size="54" font-weight="300" letter-spacing="-.406">formats, including YAML, TOML, and JSON.</tspan></text></g><g id="frontmatter-gen" transform="translate(0, -0)"><g id="Fill-1-Clipped" transform="translate(23.5002, 434.8564)"><mask id="mask-3" fill="#fff"><use xlink:href="#path-2"/></mask><path d="M599.748896,0.383115356 C594.812831,16.2674537 587.60466,30.7026707 579.588631,44.66306 C543.299713,107.86445 493.240962,155.65297 426.876841,184.623072 C378.54906,205.720439 327.831728,213.28409 275.617221,208.984881 C168.450705,200.159129 86.4858945,147.892221 27.3947033,57.1048956 C16.7630088,40.7703668 8.03571129,23.3439576 0.867055779,5.10227788 C-0.834278783,0.772832623 -0.205333813,-0.0110814186 4.31143504,-0.000114932973 C70.6920215,0.162499547 137.072608,0.16585918 203.453195,0.169218811 C334.020194,0.174818197 464.587195,0.155780284 595.154196,0.158020038 C596.571242,0.158020038 597.988289,0.29352518 599.748896,0.383115356" id="Fill-1" fill="#22242F" fill-rule="nonzero" mask="url(#mask-3)"/></g><g id="Fill-4-Clipped" transform="translate(37.8849, 0)"><mask id="mask-5" fill="#fff"><use xlink:href="#path-4"/></mask><path d="M284.296028,176.584702 C193.595139,176.584702 102.895346,176.584702 12.1955543,176.584702 C10.183589,176.584702 8.17162367,176.575742 6.16075599,176.561183 C-1.25486744,176.507429 -1.30096812,176.478313 2.46392062,169.629144 C8.9114298,157.896191 16.1876535,146.709737 24.2014882,136.033947 C66.5756952,79.5831775 119.633186,37.481394 186.527465,16.4086647 C285.738321,-14.8437483 379.598204,-1.71206827 465.997462,58.0255412 C507.132439,86.4659428 539.986855,123.277426 565.018426,167.19789 C565.478335,168.004202 565.91739,168.822832 566.350956,169.642582 C570.013764,176.560064 570.012666,176.543265 562.431301,176.543265 C469.719543,176.538786 377.007786,176.541026 284.296028,176.541026 L284.296028,176.584702 Z" id="Fill-4" fill="#FA6238" fill-rule="nonzero" mask="url(#mask-5)"/></g><path d="M322.784657,286.33905 C218.540047,286.336811 114.295436,286.33793 10.0519237,286.33569 C1.99308599,286.33569 0.765929844,285.029914 2.30591203,276.75626 C5.35953317,260.3467 8.8401344,244.050248 13.899135,228.107676 C15.5291233,222.971919 17.6574379,221.251787 23.0303622,221.263975 C107.88854,221.453366 192.747816,221.397371 277.605993,221.397371 C392.274844,221.397371 506.943696,221.436567 621.612549,221.269704 C626.683624,221.261865 628.838281,222.672912 630.368385,227.672043 C635.803873,245.431056 640.601637,263.2651 642.277727,281.893137 C642.590552,285.359157 641.822208,286.34465 638.809198,286.33457 C637.346052,286.330092 635.884001,286.340628 634.420854,286.340628 C530.541756,286.340628 426.663756,286.340628 322.784657,286.33905" id="Fill-7" fill="#F8EBCE" fill-rule="nonzero"/><g id="Fill-9-Clipped" transform="translate(0, 329.1487)"><mask id="mask-7" fill="#fff"><use xlink:href="#path-6"/></mask><path d="M322.513541,0.110882605 C428.389238,0.110882605 534.264933,0.143359044 640.140631,-1.46847574e-05 C644.622275,-0.00558462366 645.191947,1.58128137 644.954858,5.49077269 C643.905519,22.8298315 641.772814,40.0065079 638.614917,57.0767962 C637.87072,61.1027546 636.368058,62.3368593 632.255219,62.3346196 C440.070271,62.2271114 247.884226,62.2539885 55.6992788,62.267427 C41.4355093,62.2685468 27.1684471,62.0983255 12.912361,62.4141308 C8.69414892,62.5070807 7.36601032,60.9190948 6.58668932,57.0286415 C3.17414148,39.9953092 1.38719137,22.7760773 0.0502716922,5.46949502 C-0.314143195,0.746972857 1.28072075,0.0459297275 5.43417236,0.0504092364 C111.126564,0.162396957 216.820053,0.137759658 322.513541,0.137759658 L322.513541,0.110882605 Z" id="Fill-9" fill="#22242F" fill-rule="nonzero" mask="url(#mask-7)"/></g></g></g></g></g></svg>