<svg height="2048" viewBox="0 0 2048 2048" width="2048" xmlns="http://www.w3.org/2000/svg" xmlns:xlink="http://www.w3.org/1999/xlink"><mask id="a" fill="#fff"><path d="m0 0h2048v2048.00077h-2048z" fill="#fff" fill-rule="evenodd"/></mask><g fill="none" fill-rule="evenodd"><path d="m1988.34539 1024.76235c0-533.032727-432.10848-965.1386338-965.13863-965.1386338-533.032729 0-965.1412096 432.1059068-965.1412096 965.1386338 0 533.03273 432.1084806 965.13863 965.1412096 965.13863 533.03015 0 965.13863-432.1059 965.13863-965.13863m59.65461-.76196c0 565.53977-458.46061 1024.00038-1024.00039 1024.00038-565.539774 0-1024.00038226-458.46061-1024.00038226-1024.00038 0-565.539782 458.46060826-1024.00039 1024.00038226-1024.00039 565.53978 0 1024.00039 458.460608 1024.00039 1024.00039" fill="#92c44c" mask="url(#a)"/><path d="m1944.51107 1024.9495c0-509.229067-412.81224-922.038739-922.03873-922.038739-509.229064 0-922.038736 412.809672-922.038736 922.038739 0 509.22906 412.809672 922.03873 922.038736 922.03873 509.22649 0 922.03873-412.80967 922.03873-922.03873m43.83355-.18792c0 533.03273-432.10591 965.14121-965.13863 965.14121-533.032731 0-965.1386376-432.10848-965.1386376-965.14121 0-533.030155 432.1059066-965.138636 965.1386376-965.138636 533.03272 0 965.13863 432.108481 965.13863 965.138636" fill="#6db856"/><path d="m643.913225 444.350366c-1.431258-.756816-6.167793.749093-7.722613 0-18.505953-8.92734-23.440703-13.643282-46.335674-18.019429-152.670899-29.188901-275.094899 106.000578-305.516844 244.075739-15.290773 69.408266-10.312262 188.308181 14.631776 255.319863 1.042553 2.803309 2.190648 4.190805 2.574205 5.148409-.625532 5.259099 2.558758 10.265926 1.428683 15.514728-2.291042 10.626315-15.192953 33.76841-19.499597 47.501789-29.762948 94.944375-13.97278 176.991975 38.664547 258.758995 85.417241 132.68736 259.399976 197.95373 396.481495 266.37607 44.181066 22.05064 83.550944 47.12081 130.545614 65.0939 225.165633 86.11743 341.154123 4.10843 535.195063-91.70602 127.61874-63.01394 273.1282-117.66687 351.0159-244.91235 53.09553-86.74296 61.20428-172.66475 28.36258-269.050672-3.14825-9.236244-14.80167-29.577605-15.45552-36.2242-1.30255-13.290616 15.14662-68.862535 17.74656-87.528089 15.78245-113.331912 7.66856-217.860045-59.44609-313.33985-55.88855-79.501721-142.42557-130.321659-241.49897-115.028312-23.5308 3.632202-42.53357 6.538478-64.3551 18.019429-94.51963-31.675582-193.25065-55.499841-293.45927-59.206695-3.71715-2.123719-2.94746-2.090254-7.72261-2.574205-74.00065-7.488359-158.735727-1.39007-232.599941 8.08815-75.709917 9.715046-151.569139 27.533687-223.034194 53.69275m1300.598625 580.598874c0 509.22906-412.81225 922.03873-922.04131 922.03873-509.226491 0-922.038738-412.80967-922.038738-922.03873 0-509.229065 412.812247-922.038737 922.038738-922.038737 509.22906 0 922.04131 412.809672 922.04131 922.038737" fill="#283b30"/><path d="m541.721954 1155.5744c-7.210346 9.03288-5.158705 33.56762 7.004409 39.10216 11.560751 5.25909 41.035389-6.48957 40.960878-20.54988-.028458-5.76879-15.208539-25.85788-20.483084-28.28535-8.386757-3.86131-22.513989 3.50864-27.482203 9.73307zm904.585626-20.91027c-3.08132.91127-5.49077 5.34148-8.82694 6.72125-11.33937 4.68248-34.06702 1.10176-31.15817 19.20099 2.33223 14.50307 11.94431 20.797 26.46282 19.86771 16.06818-1.02968 36.51251-52.5704 13.52229-45.78995zm-851.873648-17.77487c-15.272753 1.91005-17.121032 4.56406-13.112996 19.46355 3.016968 11.22611 16.433719 31.60351 29.737206 28.30595 2.360546-.58434 22.995366-15.7773 23.85515-17.51746 12.40509-25.16542-21.999148-32.56111-40.47936-30.25204zm777.631028-15.76192c-14.54682-.01023-44.57749 1.20737-43.30068 21.13171 1.06314 16.60104 5.46503 25.12165 22.59636 20.51383 21.22946-5.70959 29.38969-20.79442 20.70432-41.64554zm-651.616013 32.42216c11.166898-13.8801-5.910372-37.55249-23.227044-32.27022-2.337377.71306-12.544096 10.39721-13.468236 12.44628-8.826946 19.61801 25.530957 33.70148 36.69528 19.82394zm47.025561-45.64836c-2.664301.08238-5.604042-2.22926-10.379191-1.45442-2.123718.34494-23.986434 8.92734-25.003244 9.80514-8.240028 7.12282 2.718359 31.32034 8.384182 37.95664.602364.70533 13.936742 10.83997 14.804248 11.16432 6.29393 2.34768 17.247168-5.36464 19.916618-11.136 22.488247 8.51032 35.073531-28.37031 12.801517-44.97907-8.662197-6.46125-12.08074-1.61145-20.52413-1.35661zm-68.883128-19.98354c-5.194744 5.20761-3.987442 22.28746 3.691409 24.79216 20.042753 6.54105 44.296904-32.70527 4.842078-27.72933-2.617966.3295-6.723822 1.12493-8.533487 2.93717zm-34.782646-2.86252c-1.570265.23425-24.990374 15.98066-26.42678 17.60241-17.514885 19.75444 12.721717 44.20423 34.823834 27.10122 14.086045-10.89918 8.216859-47.17744-8.397054-44.70363zm671.802926-2.56391c-18.2923 5.23593-15.19295 46.35112 13.41418 29.0396 18.23051-11.03304.00514-32.88031-13.41418-29.0396zm-141.52717-23.10348c-26.17193 4.10586-23.93753 56.20775-5.58602 58.89264 13.64585 1.99501 10.99442-7.61707 15.44007-12.81696 6.19354-7.23609 24.55276-7.13054 18.65783-26.61984-1.94867-6.43809-21.66707-20.53186-28.51188-19.45584zm-204.868037-10.32513c-1.472445 2.35282-.828894 29.08593.965326 33.05793 2.172629 4.80861 26.782021 17.55092 32.280521 19.20614 20.93343 6.30165 75.57348-5.23336 52.86128-32.28052-1.59601-1.89977-32.05141-17.28579-35.69649-18.34893-7.19747-2.09798-47.071895-6.96322-50.410637-1.63462zm292.429587-5.12524c-24.46266 4.76485-20.75581 55.26559 5.70959 44.56462 24.08168-9.73821 11.3857-47.89564-5.70959-44.56462zm-522.74878-2.38629c-17.288355 1.49047-16.29986 20.88967-14.734744 34.31929 2.311635 19.83682 36.139252 12.54667 36.26047-7.82558.058976-9.93643-11.300987-27.37409-21.525726-26.49371zm370.90163-10.28909c-3.85101 1.02453-21.54352 11.88767-23.20903 15.46582-2.51499 5.40068-3.01696 20.67085-1.92035 26.46281 4.30407 22.72508 60.05618-1.67838 64.01531-16.05016 3.69913-13.42962-27.45389-28.91861-38.88593-25.87847zm-213.782506-5.27455c-5.640081.84949-29.232662 21.18055-32.720709 26.55292-16.392532 25.25037 8.005775 68.02334 39.879571 65.81725 23.680103-1.63719 56.362199-45.73846 52.935933-68.31423-.787706-5.18187-25.088193-19.25505-30.934211-20.73779-3.892196-.98592-26.23114-3.75834-29.160584-3.31815zm-92.550361-15.275325c-33.722075 1.822537-37.809911 37.513875-31.673008 63.858285 7.817858 33.57277 20.140573 6.84481 29.932846 18.99762 9.398419 11.6663-.417021 41.09717 28.864551 34.3682 17.05925-3.91794 17.072121-27.12181 13.491403-40.70331-1.819962-6.90917-10.538791-13.99595-11.146303-17.01549-.69761-3.47518 3.899919-10.33801 4.453373-15.32424 2.422326-21.81638-8.968528-45.529948-33.922862-44.181065zm406.430797-2.890831c-7.19233 2.527869-15.55849 34.805816-3.54468 41.473006 39.59383 21.98113 40.1653-54.344027 3.54468-41.473006zm-455.34325-17.967945c-23.291399 3.158549-28.80277 43.923641 2.049066 33.202081 26.383018-9.171885 10.278797-34.872739-2.049066-33.202081zm494.14165-5.102072c-20.77383 6.154922-.49682 52.722273 11.85679 50.737563.92414-.1493 14.91751-8.94793 15.79531-10.09088 13.86724-18.078636-11.03561-45.571136-27.6521-40.646683zm-110.65731-17.836661c-12.33301 2.553611-40.29659 24.354545-34.05415 37.946343 6.77273 14.75019 44.9765 14.665241 59.28135 12.999731 36.83429-4.28605 14.93811-59.265902-25.2272-50.946074zm-173.318592 31.127277c-2.453216 4.319514-4.836929 6.420065-2.386287 11.941733.597215 1.343734 17.867549 18.472484 19.527909 19.273064 1.82254.87523 35.32581 8.91447 37.24101 8.89905 4.3916-.03864 12.7243-5.04804 13.79516-9.27231 2.33223-9.207926-14.01396-22.882098-14.74504-28.262185-.53028-3.887048 6.7264-6.026212 3.67854-16.351345-1.64749-5.573152-18.5806-26.146191-23.89376-27.713881-19.20099-5.670972-35.53689 3.014393-34.499486 23.996731.406725 8.201414 5.336326 11.7255 5.503649 15.329385.09782 2.067086-3.572995 1.016811-4.221695 2.159758zm-104.602785-46.616263c-14.891771 2.643708-21.525495 8.600416-14.214755 23.314567 6.656892 13.388435 19.394054 11.218381 30.813223 15.504431 5.985025 2.24728 10.023951 8.229731 16.320455 9.416439 21.731431 4.095559 47.375652-2.280745 42.335361-29.376818-2.432623-13.06666-29.057617-18.390114-40.147288-19.162375-3.925661-.272866-32.185274-.216233-35.106996.303756zm203.287477-5.125241c-6.64402 1.387496-38.60277 18.101804-40.07264 24.395733-.45306 1.935802 4.90644 26.462819 6.13176 28.977816 6.92975 14.222478 26.08183 16.711733 39.71997 11.617383 39.75858-14.858306 35.80975-73.681445-5.77909-64.990932zm122.30558-7.683999c-2.07223 2.06966-3.35676 7.99033-3.28725 10.986703.22138 9.470497 19.91147 36.01569 30.94193 30.895598 27.42557-12.726865-9.34436-60.169447-27.65468-41.882301zm-383.435424.169898c-2.605095 2.095402-15.733536 20.508684-16.199467 23.878317-2.239557 16.119666 12.137373 25.60046 25.847584 12.757756 23.098334-21.633612 10.989278-53.231968-9.648117-36.636073zm145.329269-46.567353c-19.237028 3.737744-18.444173 18.392688-14.660093 34.087611 2.476385 10.276223 17.391323 7.179455 25.762635 5.403254 33.716923-7.156287 16.124815-44.783429-11.102542-39.490865zm105.529495-2.713211c-11.03304 1.964117-21.2552 19.787907-16.05788 30.496596 3.27696 6.754712 30.22373 15.131172 37.32853 11.612235 13.2031-6.538479 5.40841-46.855664-21.27065-42.108831zm86.20495-15.272754c-2.79044 2.880535-2.09025 11.298182-5.62721 13.689618-6.53075 4.412186-51.55873-5.457313-42.62882 14.019116 10.31484 22.49597 68.55621 25.515511 82.26127 7.583605 23.23991-30.409073-22.30291-47.370504-34.00524-35.292339zm-268.026133 14.577718c-2.3451-2.046492.93701-15.733535-14.678112-17.674485-31.526278-3.915365-43.45514 40.47936-8.906746 47.705151 17.988538 3.760912 54.869161 4.324663 68.3271-9.18476 31.078366-31.19678-39.954223-16.665398-44.742242-20.845906zm132.944773-66.213678c-11.50412 1.94095-33.281886 20.361954-34.867596 32.303687-7.099655 53.448201 87.906496 30.93936 79.218556-13.362693-2.03104-10.361172-35.65015-20.408291-44.35096-18.940994zm102.95787-2.424901c-40.33263 6.597686-31.79657 43.709987 7.07906 43.393359 38.55128-.314052 20.76868-47.9497-7.07906-43.393359zm-221.353241-.113265c-5.915522 1.08374-16.830147 8.592694-19.641178 14.016542-19.020794 36.703002 45.277677 37.380018 56.959415 10.541366 7.411134-17.025786-24.205242-26.964789-37.318237-24.557908zm146.673001-51.520121c-20.22552 4.092984-31.00886 36.679835-13.14388 50.71697 4.55119 3.575569 21.92707 9.084366 27.39468 7.66598 19.47385-5.055737 21.39421-65.59587-14.2508-58.38295zm-79.952204-.092672c-6.499866 2.203519-15.751556 27.088351-14.145252 33.732371 2.834199 11.715203 22.457357 28.470698 35.711934 24.048215 7.931122-2.643707 21.795782-29.304739 20.156022-35.74025-1.65264-6.492143-33.083675-24.967206-41.722704-22.040336zm163.003754-18.333481c-9.11268 14.495343-32.24191 17.702801-33.61653 37.336256-1.39522 19.916618 16.13768 21.504902 32.31913 22.081523 5.31831.187917 10.80651-3.20231 15.368-2.78014 8.11389.749093 15.53017 14.330594 27.97902 7.411134 17.88815-9.941577 19.40436-28.753861 17.21371-47.396247-2.03877-17.360433-29.11425-33.729797-45.1361-24.457513 9.75109-21.322133-27.79883-37.851098-39.90788-21.862716-16.686 22.037762 5.22048 31.958744 25.78065 29.667703zm-239.400985-.025742c19.4893 2.499552 39.627299-.558603 35.889554-24.303062-4.296346-27.283989-47.275259-11.313627-45.671529 6.904016.908694 10.327707 8.649325 9.547723 9.781975 17.399046-11.985494-1.5368-16.371938-10.124345-31.850628-2.239558-20.125127 10.255629-22.1536 70.419928 6.687783 68.62056 7.418856-.460783 15.661458-6.705802 21.432823-7.079062 15.458096-1.001365 29.842749 11.985495 39.503737-11.926288 12.765478-31.588059-20.416013-31.271431-35.773715-47.375652zm151.878045-18.019429h-55.34539c-7.781819 0-12.670232 13.725656-11.133433 21.270648 5.403255 26.519451 56.743183 20.410865 72.965813 7.097081 12.47202-10.235035 2.89856-24.66345 6.73412-30.589268.66672-1.029681 17.31152-6.368581 22.58864-9.591484 6.29908-3.845861 24.9878-18.948717 25.60304-25.963423 1.35403-15.391167-40.11897-24.434346-51.87536-20.887093-3.18944.962753-5.34148 5.223061-8.91447 6.515311-5.80483 2.097977-19.02595 1.987286-20.92056 7.444599-1.09404 3.148251 4.59495 34.388793 6.10601 37.011907 3.13796 5.44959 13.04607 2.316783 14.19159 7.691722zm-75.341807-61.196555c-5.207615.952455-18.361798 3.822693-23.118928 5.210189-23.021107 6.716098-14.02169 31.593207-1.98986 44.461654 8.13706 8.703384 43.081881 10.559385 53.908985 4.880691 14.82741-7.779245 15.11315-36.219053 2.61282-45.957267-8.754873-6.821641-20.282159-10.631463-31.413017-8.595267zm216.503437-.175046c-.55345-.880378-17.02321-7.915678-19.12634-8.113892-5.70958-.538008-11.6251 2.448068-17.79289 2.772418-4.82921.252272-9.31605-2.823902-14.24565-1.686104-14.06288 3.238349-13.19794 27.20419-4.84465 36.018265 8.09072 8.538635 51.19062 17.985964 55.93745 2.285893 1.0683-3.531808 1.24334-29.415431.07208-31.27658zm-311.679487-7.58618c-2.952612.360389-19.92434 5.647804-21.239758 7.197475-1.302548 1.531651-9.001992 22.429041-8.891301 24.557907.427318 8.324977 21.92707 19.157228 29.38454 19.252473 46.886554.602364 46.721805-56.635065.746519-51.007855zm146.600927-51.236959c-6.27849-.041187-33.789005 1.840556-36.607758 4.324663-6.257891 5.521668-10.881161 28.601982-8.435667 36.829139 6.093141 20.500961 63.670365 14.093767 66.324365-7.43945 1.28196-10.402359-9.36238-33.6397-21.28094-33.714352zm-58.805121 4.713368c-15.990956-3.418543-53.175334-15.723239-56.236063 8.886152-3.668241 29.456618 36.136677 40.566883 55.049355 27.080628 3.663093-2.612817.839191-29.582754 1.186708-35.96678zm159.335511-7.449747c-6.47669-6.597685-51.29616 2.162331-53.55889 18.539418-3.95912 28.632873 10.7473 33.868804 36.83429 29.129694 20.6065-3.742893 29.9071-34.239489 16.7246-47.669112zm17.76973-49.115815c-12.91993 4.347831-8.38933 47.555847 9.93643 50.99241 4.6902.880378 18.34893.880378 23.03913 0 18.89981-3.539531 26.52717-46.80418 2.58193-51.360521-4.77773-.908694-31.7039-.929288-35.55749.368111zm-280.395182-4.955343c-50.315394 8.734275-17.478846 72.703248 23.965841 49.707882 13.753973-7.629941 15.082262-15.141469 12.56469-30.864708-3.37993-21.121345-18.245959-22.014593-36.530531-18.843174zm171.853872-13.48883c-9.9596 13.28032-.11842 40.868065 14.81454 46.963781 11.75639 4.80089 47.20318-.705332 54.62976-10.984129 5.65038-7.817858 6.21413-35.979652-2.515-35.979652zm-32.17756 0h-60.493792c-4.360702 0-21.468863 32.440121 8.440815 43.045842 40.342927 14.302278 64.416887 2.579353 52.052977-43.045842zm-242.729426-30.612435c-13.535165 3.45973-24.138312 32.195571-8.435667 43.648205 13.375565 9.756234 47.092491-13.802882 29.593051-32.162106-2.769844-2.903703-17.465975-12.428258-21.157384-11.486099zm517.533446-2.4249c-18.00913 1.910059-37.90258 22.737945-21.29382 38.239802 12.50291 11.674016 27.23508 14.65237 29.71147-6.430362 1.14552-9.745937 3.44171-33.068226-8.41765-31.80944zm-135.80729 33.037335c19.64633-5.019698 39.57067 9.681582 57.6596 7.671129 26.69965-2.970632 3.91022-44.497693-13.15676-48.335831-26.95449-6.059677-46.00875 14.518511-44.50284 40.664702zm-276.067947-35.390158c-7.457469-7.076487-25.587589-6.945203-34.177708-.713055-6.402046 4.643865-26.385593 30.97025-20.704324 38.867909 3.050432 4.242288 46.299635 6.546201 52.894746 3.619331 13.131016-5.827998 11.22353-33.011594 1.987286-41.774185zm22.925862-28.54535c-8.5721 2.950038-12.410238 28.632873-8.173098 35.668173 4.165062 6.911738 33.26644 10.363746 39.974816 6.414917 6.80877-4.008036 7.025003-30.730849 2.78014-36.301427-4.754555-6.232148-27.752494-8.131911-34.581858-5.781663zm203.557765-2.378564c-5.21276.962752-13.82862 4.744258-16.01412 9.71762-1.07087 2.440346-3.36964 26.923601-2.73381 28.257039 3.87933 8.147356 42.29675 9.061199 48.81978-2.754398 14.00882-25.379079-3.28468-40.162733-30.07185-35.220261zm-74.72914-13.149035c-2.76213.779984-17.272915 19.759591-18.449326 22.943881-9.740788 26.349554 52.421096 38.07248 52.184266 17.131329-.02317-1.89204-11.02532-28.504162-12.70112-31.080941-3.84329-5.907798-14.08347-10.958387-21.03382-8.994269zm-64.295901-10.034248c-28.470698 5.928392-24.140887 28.916035-10.170681 47.604757 25.260665 33.796726 38.396829-18.091506 34.046424-41.77161-1.722143-9.377826-16.474907-7.375095-23.875743-5.833147zm-213.571421-2.5047c-16.734901 2.466087-22.542306 5.30286-19.345144 23.162688 4.710794 26.323812 55.039059 21.214017 56.223193.664145 1.54967-26.918453-15.306218-27.005975-36.878049-23.826833zm525.186552-7.882213c-19.01564 2.615391-20.85877 36.589737-6.40462 43.789786 11.56333 5.761069 29.54929 7.318462 37.52675-4.736535 17.0644-25.790952-5.81255-42.531001-31.12213-39.053251zm-465.995302-7.784394c-16.606191 2.643708-23.250212 21.358172-12.281528 34.342458 2.005305 2.370842 10.906903 8.762591 13.779715 8.528338 7.853897-.638403 27.595468-23.747033 27.446164-31.850628-.151878-8.286363-22.712203-12.011236-28.944351-11.020168zm361.639642 24.660876c9.42159 9.58891 43.19515-8.103595 30.50689-24.076531-4.21912-5.310584-24.96978-5.323455-30.08729-1.281954-5.4985 4.342682-4.83693 20.86135-.4196 25.358485zm-297.245925-29.755226c-26.684201 3.652796-28.509311 30.754017 2.556184 35.011751 23.669807 3.240923 30.159376-39.490866-2.556184-35.011751zm357.737145-2.442919c-33.83276 6.196109 2.81103 50.271632 11.72808 47.993461 11.94688-3.053006 33.22782-56.225766-11.72808-47.993461zm-298.710645-18.240811c-4.857523 1.104334-13.509423 14.716725-14.227626 19.512467-4.077539 27.330326 62.035746 25.059878 58.316021 0-.50197-3.385078-6.765009-14.590589-9.836034-16.078479-1.549671-.749093-32.57398-3.817544-34.252361-3.433988zm73.382838-2.427474c-1.124928.656422-15.723239 19.574248-15.61063 20.874221 1.722798 19.744146 37.532557 24.120293 52.540167 22.475376 5.68899-.625531 8.83981-4.762277 12.593-5.017124 12.19916-.828893 18.71961 10.971258 32.42983-1.459573 8.93763-8.106169 8.46913-13.233984 2.00015-22.830617-6.34026-9.406142-25.37908-13.509423-36.84201-14.621479-5.99274-.579196-44.811743-.759391-47.110507.579196zm105.009507-3.132807-12.30469 17.283207c-5.89493 22.217956 7.9028 30.478577 28.47069 25.947977 28.08972-6.188386 5.59375-32.638334-8.44339-40.65698 100.2112 3.706854 198.93965 27.531113 293.45928 59.206695-3.10192 1.632046-6.0082 6.700654-7.72262 7.722613-54.11234 32.306262-94.33428 83.345007-124.05089 138.597725-1.48275 1.16354-3.44171.113265-4.65931.409298 4.84722-14.606034 10.95324-28.671486-5.85117-39.197406-21.18313-13.267448-54.32343 7.483211-42.79872 24.750973.71306 1.070868 19.20614 15.13632 20.36968 15.679477 6.11116 2.841921 21.27065.468505 28.28021-1.233044-2.13917 6.445807-11.02017 28.233871-16.75807 30.877579-5.26168 2.4249-13.44764-23.067444-17.91389-25.808971-15.2779-25.27611-72.91691 10.667502-54.32343 33.750391 15.03078 18.660405 52.77119 10.17068 68.37601-5.354345-5.29771 21.515198-15.78502 40.278572-21.87044 61.765454-16.48263 58.215627-31.87894 146.371821-4.30664 202.551252 17.69765 36.056878 33.39772 20.313045 34.07474-13.246854.68731-34.110779-6.53333-61.284078-2.72351-99.191808 10.94294 3.333594 11.50927-11.576196 13.13102-12.63162 11.37798-7.387966 3.67081 12.500336 12.61102 15.205824-1.22274 12.757756-2.31935 25.772932-2.5742 38.613062-4.63357-6.327394-4.45852-15.295921-7.06362-22.660719-1.46472-4.13932 1.36176-6.88857-5.79453-5.642655-.75424 32.252203 3.17914 66.303776 10.28395 97.806886 18.0117 79.856961 80.48506 156.69953 151.87804 195.63951-15.59196 29.47722 7.30044 60.47321 39.50116 40.78569 8.20142-5.01197 10.77305-10.38691 9.40872-20.19205 133.35407 41.84111 243.8003-60.52469 278.01404-182.768496 2.69777-9.637821 11.65858-35.657876 6.34542-43.805232-1.16869-1.79422-5.70701-1.624323-6.37888-4.352979-.96533-3.928236 2.1855-11.09482-2.54074-13.622689.89582-9.779401 5.22821-27.211912 5.14841-36.038858 5.18959-4.579509 7.03787-12.737162 7.73033-19.298808 16.38224-155.054612-105.64276-377.839109-285.74438-341.089771.75682-12.626471-2.59222-24.794734-7.72261-36.038858 99.07339-15.293346 185.61041 35.526592 241.49896 115.030886 67.11465 95.477232 75.22854 200.005365 59.4461 313.337276-2.59995 18.665555-19.04911 74.237473-17.74399 87.528089.65127 6.646596 12.30727 26.987957 15.45294 36.224201 32.8417 96.385929 24.73296 182.307709-28.36258 269.050669 1.36948-6.24502-3.17399-5.32603-6.77788-7.24639-23.29397-12.4231-50.88944-19.2988-75.59665-28.79247 10.65721-13.39101 25.48205-37.08398 33.90484-52.33099 2.97836-5.38781 20.20493-37.81764 17.56637-40.32749-26.70222-2.37084-44.66759 26.16421-63.13235 41.09975-21.09046 17.05925-49.64353 32.00765-75.84635 38.71603-.00773 5.27454 10.1887 2.04649 12.97913 1.37977 21.54609-5.14583 41.02509-17.09786 61.64447-24.56306 2.87539 2.76985-20.09681 24.45237-23.11893 27.05232-8.80892 7.58618-18.45962 11.46293-25.77808 16.69628-2.74667-4.03635-21.41738-12.53122-24.57078-12.80409-10.38691-.90354-29.05504-3.15597-38.56415-2.7544-9.17704.38613-20.25384 5.51137-28.08457 5.08921-6.42521-.34495-20.97719-10.71642-24.2387-.73108-4.41219 13.51457 8.04953 23.35061-17.68993 28.65089-23.20903 4.7803-52.30011-3.41597-76.10377-2.55103-20.12513-11.54531-4.23972-25.73432.7285-40.62867-7.94142-.02059-15.84423-.4788-23.77535.65385-26.87984 3.83814-56.04815 34.64879-45.72817-21.24748-9.35465-1.78907-11.84133 18.74021-20.56531 14.26881-20.34394-10.42295-4.74941-29.04217-5.38524-33.24842-1.24076-8.18597-14.79652-5.50107-17.25489-7.46004-1.23304-.98077-.33464-4.33753-.54315-4.46367 6.36343-3.9617 13.96763-1.60888 20.73264-3.73002 11.54787-3.62191 22.3724-39.16137 12.8324-49.13641-8.2529-8.62873-10.38434.60494-16.95371 1.39007-9.13585 1.08889-21.71083-10.42553-32.76189-7.29787-6.09057 1.72472-16.89193 20.73264-17.28836 26.79232-.62553 9.57346 11.3162 18.97446 10.27108 29.40771-2.17006-.56376-4.7108.38355-7.64796-1.25107-8.38676-4.6696-6.05968-16.9846-23.24249-19.34257-.83662-.11326-1.72214.06951-2.57421 0 1.47502-7.56558-4.00803-5.22048-8.92476-5.18187-13.76427.10554-34.12108 1.23047-47.70773 2.60767 10.98156-14.50307 12.74231-50.09916-11.51184-49.11839-8.81407.35524-12.2738 7.06876-18.27942 7.94914-9.2208 1.35146-19.3297-7.34163-26.58123 4.11615-7.84875 12.40509-.91385 29.49266 7.46261 39.6273-10.17068.26257-18.97445.51742-28.90316 3.39538-4.31437 1.25106-8.39448.53543-7.13569 6.90144-6.18582 1.66551-30.59185 14.80167-36.38895 18.95644-3.62963 2.60252-7.68143 3.68626-7.37252 9.3598-.19307-.42731-3.75834-1.26908-4.62327-4.28862-3.71458-12.95854 4.28347-20.33879 7.19747-31.75023.30118-.0901 1.64749-3.57042 4.34783-4.56149 6.77273-2.48411 34.26523-14.99217 26.47312-26.226-3.1637-4.55891-52.42624-1.66551-62.380692-4.83178-10.718986 4.01576-16.827573 10.85027-14.775932 22.74825-5.992747.3089-8.821798 6.00304-13.962483 7.93112-16.897076 6.34026-38.149706-1.16612-56.804963-.16475-14.142678.75682-31.05005 8.09072-43.805232 7.90795-10.175829-.14415-12.907059-4.45852-20.431458-5.50364-21.600147-2.99638-31.801718 7.75865-45.318864 21.87816l-38.499797 11.73579c6.523033 17.18024-5.372364 33.87653-5.148408 51.47379-5.279693 5.0789-28.038232-16.23036-32.195571-18.01171-7.027578-3.01182-1.912634 13.81576-4.950195 18.15329-8.113891 11.58649-41.905469-10.93264-50.36173-15.59968 7.107378-16.06818 26.393315-18.76337 33.49297-34.72344-19.144356-2.50212-36.252516-21.22688-49.00255-.09524-10.175829 16.86876-4.909007 26.05867 10.361172 34.81868-3.037561 15.70522 19.072279 17.10559 11.558177 33.42604-6.263039 13.59953-30.362738 12.43856-42.448627 12.90964 2.471236-12.03698-10.031673-20.9463-11.908268-30.8055-1.109482-5.828 3.78408-13.89813-.844339-16.93054-12.680529-8.30439-36.345188 4.55891-38.731475 19.41979l-120.987595 15.44523c-20.125128-14.53138-38.579597-29.02415-54.055712-48.88414 21.57183 10.10375 41.648048 18.4313 64.352529 25.7163 9.699601 3.11221 18.745354 10.60315 30.877578 7.69687l-25.72917-10.27107c-20.349084-8.21429-40.476786-17.74914-58.488492-30.31898-24.550185-17.1339-44.616106-48.11702-75.359826-49.46333 13.84407 36.69528 36.360633 72.8371 61.770602 102.95014-25.868177 6.5668-50.420936 16.8147-75.223393 26.45767-4.080114 1.58829-8.010923 2.23441-9.725343 7.00699-52.637326-81.76445-68.42492-163.81463-38.664546-258.759003 4.306643-13.733379 17.208554-36.8729 19.499596-47.501788 1.130076-5.248803-2.054215-10.25563-1.428683-15.514729 55.855081 139.86423 175.625077 234.23198 325.134853 151.37607 87.610464-48.54949 135.413435-93.968743 156.24132-195.13754.973049-4.721091 4.391592-7.79469 5.022272-11.69461 3.125084-19.334847 2.458365-41.689236 4.880692-61.209425-9.895241-12.711421-5.900076 5.060885-12.477168 11.123136 0-21.309262-1.832833-45.941822-5.148408-66.929308 6.592537-8.760017 9.323767-8.839817 20.593633-7.722612 1.930653 14.142677 7.635089 33.186639 7.817858 50.081141.25742 23.389219-9.501388 89.33518 2.800734 105.323562 7.725187 10.036822 15.952343-1.861149 20.771253-9.462774 24.63256-38.842166 19.182969-142.824568 8.533487-187.149789-6.075122-25.288982-17.942203-50.338562-27.036866-74.618456 17.038657 7.534696 53.685027 9.413865 62.411579-10.997 9.020011-21.103325-28.372878-39.704524-45.733311-38.154853-15.772148 1.408089-24.95176 31.106682-28.277632 31.070644l-16.716882-28.257039c16.178873 7.34163 28.671486 3.02469 39.725119-10.446121 6.901441-8.412499 3.130232-19.738997-3.652796-26.931323-15.6872-16.624211-43.367617 4.561489-42.510407 24.483255-21.772619-32.308836-45.581433-64.012734-74.721424-90.027641-13.192796-11.776984-40.178178-33.248421-55.288756-41.243899 71.467629-26.159062 147.324277-43.977703 223.034195-53.69275 73.864213-9.478219 158.599295-15.576509 232.599935-8.088149z" fill="#92c44c"/><path d="m1653.00125 1211.4632c24.70721 9.49109 52.30268 16.36679 75.59665 28.7899 3.60388 1.92293 8.14736 1.00394 6.77788 7.24896-77.8877 127.24548-223.39716 181.89841-351.0159 244.91235-194.04094 95.81445-310.02943 177.82345-535.195063 91.70602-46.99467-17.97309-86.364548-43.04326-130.545614-65.0939-137.081519-68.42234-311.064254-133.68871-396.481495-266.37607 1.71442-4.77257 5.645229-5.42127 9.725343-7.00698 24.802457-9.64297 49.355216-19.89087 75.223393-26.45767 108.631415 128.73595 299.197173 166.78011 453.600511 211.32929 159.997085 46.1632 315.623165 10.71641 469.303155-38.80613 114.72713-36.97072 245.63313-83.01293 323.01114-180.24577" fill="#c4da46"/><path d="m1107.26997 385.143671c14.03456 8.018646 36.5331 34.466019 8.44081 40.654406-20.56531 4.530599-34.36305-3.727448-28.47069-25.945404l12.30727-17.283207c4.77515.483951 4.00546.450486 7.72261 2.574205" fill="#539b53"/><path d="m785.720467 1198.37955c.813449 1.14809 24.85909 10.51047 26.251734 10.15523 10.577405-2.70034 12.847853-19.22415 4.327237-26.57865-14.147826-12.20688-36.721022 7.76894-30.578971 16.42342m445.800673-19.68237c-8.74972 7.03016-8.95823 23.80624 5.23078 28.23645 27.13984 8.46913 19.95781-48.47999-5.23078-28.23645m-67.60632 55.92201c25.90936-9.74336 36.9424-63.22245-1.32829-61.99713-26.59668.85206-50.08114 47.3216-50.25619 70.98111-.02527 3.79437-.4891 4.68762 3.97457 3.93853 15.0591-2.53302 46.30993-87.55898 47.60991-12.92251m-221.407301 18.01943c-6.819067-29.37424-27.628933-85.10576-65.413102-79.68449-28.290503 4.05952-18.016854 61.44883 8.780611 61.66764-1.946099-61.83496 18.827729-17.51746 35.984799 1.36175 2.198371 2.41975 18.045171 19.5897 20.647692 16.6551m-5.869186-128.14903c-19.491873 4.2809-12.827259 26.35728.947307 33.98979 7.913104 4.38387 15.071966 3.15083 23.018534 5.29772 4.584657 1.23819 8.188543 5.05831 14.245645 6.34798 7.156288 1.52651 34.334731 4.03121 38.546131-2.3245 8.69309-13.12072-7.28242-26.22599-17.568941-31.52371-15.970363-8.22715-41.53221-15.66403-59.188676-11.78728m47.069323-15.99353c.633254 3.67339 5.611765 11.19007 9.506536 12.38192 3.480324 1.06573 33.657718 1.43384 36.829138.4891-2.914 11.40888-10.91205 18.78912-7.19747 31.75024.86493 3.01696 4.4302 3.85873 4.62327 4.28862 3.51636 7.79727.48395 13.01518 14.31 15.29335 10.03424 1.65264 59.27877 1.36947 66.46852-2.73123 14.46446-8.25548-.75939-42.67258-12.51835-43.70741-3.12509-.27544-21.20372 1.94095-24.4987 2.82905-1.25879-6.36859 2.82132-5.65038 7.13569-6.90145 9.92871-2.88053 18.73248-3.1328 28.90316-3.39537 19.76217-.51227 30.36532-.69504 48.90988-2.5742 13.58665-1.3772 33.94346-2.50213 47.70773-2.60767 4.91673-.03862 10.39978-2.38372 8.92476 5.18187-6.0365-.48395-23.30684-2.06451-25.37135 4.21397-6.8757 20.90254 4.86782 43.74345 29.7475 29.76295 19.74415-11.09482 9.25684-21.23204-1.80194-33.97692 17.18281 2.3554 14.85573 14.67296 23.24249 19.33999 2.93716 1.63462 5.4779.68732 7.64796 1.25364 5.21276 1.35661 22.17162 1.96669 23.16784 2.57421.20851.12613-.68989 3.48289.54315 4.46367 2.45837 1.95639 16.01413-.72593 17.25489 7.45747.63583 4.20625-14.9587 22.82546 5.38524 33.25099 8.72398 4.46882 11.21066-16.06046 20.56531-14.26881-10.31998 55.89369 18.84833 25.08304 45.72817 21.2449 7.93112-1.13265 15.83393-.67186 23.77535-.65127-4.96822 14.89435-20.85363 29.08078-.7285 40.62866 23.80366-.8675 52.89474 7.32876 76.10377 2.54847 25.73946-5.30029 13.27774-15.13375 17.68993-28.64832 3.26151-9.98791 17.81349.38613 24.2387.73107 7.83073.4196 18.90753-4.70307 28.08457-5.09177 9.50911-.39901 28.17724 1.85342 38.56415 2.7544 3.1534.27543 21.82411 8.76773 24.57078 12.80666-70.10072 50.13005-104.20378 48.78889-181.52 74.61073-51.86507 17.32182-102.01829 44.07553-155.15243 61.08072-175.44231 56.14597-328.931809 46.58795-500.579741-15.35513-38.476629-13.88526-77.215827-33.86623-115.790276-46.38458-71.802276-23.3017-109.501496-24.47554-174.458963-71.37754l120.987595-15.44522c-5.722456 35.63986 26.148765 29.30474 51.484082 28.31625 12.085889-.47366 36.185588.68731 42.448627-12.90964 7.514102-16.32045-14.595738-17.72339-11.558177-33.42604 1.016811.58177 4.098133-.58177 5.148408 0 8.456261 4.66446 42.247839 27.18617 50.36173 15.59968 3.037561-4.34011-2.077383-21.16511 4.950195-18.15329 4.157339 1.78135 26.915878 23.08804 32.195571 18.00913-.223956-17.59726 11.671441-34.29354 5.148408-51.47378l38.499797-11.7358c13.517146-14.11694 23.718717-24.87453 45.318864-21.87816 7.524399 1.04513 10.255629 5.35949 20.431458 5.50622 12.755182.18277 29.662554-7.15114 43.805232-7.91053 18.655257-1.00136 39.907887 6.50502 56.804963.16733 5.140685-1.92808 7.969736-7.6248 13.962483-7.93113" fill="#c4da46"/><path d="m916.015869 1005.98714c2.929444-.44019 25.268388 2.33222 29.160585 3.31814 5.848591 1.48275 30.149078 15.55592 30.934211 20.73779 3.426265 22.57577-29.253256 66.67704-52.93336 68.31423-31.87637 2.2061-56.274677-40.56688-39.882145-65.81725 3.488047-5.37236 27.083202-25.70343 32.720709-26.55291" fill="#539b53"/><path d="m1135.58621 730.11251c-20.56016 2.291041-42.46664-7.629941-25.78065-29.667703 12.10906-15.988382 49.65897.540583 39.90789 21.862716 16.02184-9.272284 43.09732 7.09708 45.13609 24.457513 2.19065 18.642386.67444 37.45467-17.2137 47.396247-12.45143 6.91946-19.86513-6.662041-27.97903-7.411134-4.56406-.42217-10.04969 2.968057-15.36799 2.78014-16.18145-.576621-33.71436-2.164905-32.31914-22.081523 1.37463-19.633455 24.50385-22.840913 33.61653-37.336256" fill="#539b53"/><path d="m823.466023 990.712323c24.954334-1.348883 36.345188 22.362107 33.922862 44.181067-.553454 4.98623-5.150983 11.84906-4.453373 15.32424.607512 3.01954 9.326341 10.10632 11.146303 17.01548 3.580718 13.58151 3.567847 36.78538-13.491403 40.70332-29.278998 6.72897-19.466132-22.70191-28.864551-34.3682-9.792273-12.15282-22.114988 14.57515-29.932846-18.99763-6.136903-26.34697-2.046492-62.035741 31.673008-63.858277" fill="#539b53"/><path d="m1048.06327 712.067596c-1.14552-5.377512-11.05363-2.242132-14.19158-7.691722-1.51106-2.625688-7.20005-33.863655-6.10602-37.014481 1.89462-5.454739 15.11573-5.344048 20.92056-7.442024 3.57042-1.292251 5.72246-5.552559 8.91447-6.515311 11.75639-3.547253 53.22939 5.495926 51.87536 20.887092-.61781 7.012132-19.30653 22.117562-25.60303 25.963423-5.27712 3.222904-21.92192 8.559229-22.58864 9.591485-3.83557 5.925818 5.7379 20.354232-6.73412 30.589268-16.22264 13.313783-67.562563 19.42237-72.965818-7.097081-1.5368-7.544993 3.351614-21.270649 11.133433-21.270649z" fill="#539b53"/><path d="m896.18523 730.087025c15.357702 16.104221 48.536619 15.787594 35.773715 47.375653-9.663562 23.911782-24.045641 10.924922-39.503737 11.926288-5.771365.373259-14.013967 6.615704-21.432823 7.079061-28.843958 1.799369-26.812911-58.36493-6.687783-68.62056 15.47869-7.884787 19.865134.702758 31.850628 2.239558-1.13265-7.853897-8.875856-7.071339-9.78455-17.399046-1.601155-18.217642 41.377757-34.190579 45.674104-6.904015 3.737745 23.744459-16.400254 26.802613-35.889554 24.303061" fill="#539b53"/><path d="m1027.46037 974.675031c-2.48668-2.617966-18.58832-2.893405-23.14467-2.599946-.47107 6.417491-.6384 4.419908 3.85874 5.071182 5.42899.787706 10.13206.975623 16.05016 2.074808 5.07633.942159 4.61555-3.094193 3.23577-4.546044m-42.742082 3.367059c.6487-1.142947 4.319515-.092671 4.224269-2.159757-.169897-3.603886-5.099498-7.127972-5.503648-15.329386-1.039979-20.984912 15.298495-29.667703 34.496911-23.999305 5.31316 1.570264 22.24884 22.143304 23.89376 27.716456 3.05043 10.325133-4.20625 12.464296-3.67854 16.351345.73365 5.380086 17.07985 19.054259 14.74504 28.262187-1.07086 4.22427-9.40356 9.2311-13.79258 9.26974-1.91521.01799-35.42105-8.02125-37.24359-8.89905-1.65778-.79801-18.930693-17.926762-19.525335-19.270497-2.450642-5.521668-.069503-7.622218 2.383713-11.941733" fill="#539b53"/><path d="m989.217225 1029.06179c3.338743-5.32861 43.213165-.46336 50.408065 1.63462 3.64765 1.06314 34.10306 16.45173 35.69649 18.34892 22.71478 27.04717-31.92528 38.58217-52.85871 32.28052-5.50107-1.65521-30.10789-14.39495-32.280518-19.20613-1.794221-3.96943-2.440346-30.70511-.965327-33.05793" fill="#539b53"/><path d="m1024.25755 802.59695c8.69823-1.467297 42.31992 8.577248 44.35096 18.938419 8.68794 44.304628-86.320785 66.813469-79.218556 13.362694 1.58571-11.939159 23.363476-30.360163 34.867596-32.301113" fill="#539b53"/><path d="m1083.40349 926.300072c41.58885-8.690513 45.53767 50.132626 5.77909 64.990932-13.63813 5.096924-32.79021 2.605094-39.71997-11.617383-1.22532-2.514998-6.58224-27.042015-6.13175-28.977816 1.46987-6.29393 33.43119-23.008237 40.07263-24.395733" fill="#539b53"/><path d="m994.53759 385.702788c2.29619-1.341161 41.11776-1.160966 47.11051-.579196 11.46293 1.109482 30.50174 5.215337 36.84201 14.621479 6.46897 9.594059 6.93491 14.724448-2.00273 22.828043-13.70764 12.430831-20.2281.633254-32.42725 1.462148-3.75319.254846-6.90659 4.391592-12.59558 5.014549-15.00504 1.647491-50.814791-2.728656-52.537589-22.475376-.11261-1.297399 14.485702-20.215225 15.610629-20.871647" fill="#539b53"/><path d="m972.72018 650.870269c11.130859-2.036196 22.658145 1.776201 31.41301 8.595267 12.50034 9.738215 12.21718 38.178022-2.61281 45.957267-10.827106 5.678694-45.771928 3.822693-53.908987-4.880691-12.029256-12.868447-21.031248-37.745555 1.992434-44.461654 4.754555-1.384922 17.908738-4.257734 23.116353-5.210189" fill="#539b53"/><path d="m880.117563 931.42454c2.921721-.519989 31.181334-.576622 35.106996-.303756 11.089671.772261 37.714665 6.095715 40.144713 19.16495 5.042866 27.096073-20.601355 33.472376-42.332787 29.374243-6.296503-1.186708-10.338004-7.169158-16.320454-9.413864-11.41917-4.28605-24.158906-2.115996-30.813224-15.507006-7.313313-14.714151-.677015-20.670859 14.214756-23.314567" fill="#539b53"/><path d="m1033.90515 521.57649h66.92931c8.72655 0 8.1628 28.161793 2.515 35.979651-7.42658 10.278797-42.87337 15.782446-54.62976 10.984129-14.93296-6.095715-24.77414-33.683461-14.81455-46.96378" fill="#539b53"/><path d="m1269.44483 1141.95969c-.99622-.60494-17.95507-1.2176-23.16784-2.57421 1.04256-10.43582-10.8966-19.83424-10.27107-29.40771.39385-6.05967 11.19779-25.0676 17.28835-26.79231 11.05106-3.13023 23.62605 8.38676 32.7619 7.29529 6.56679-.78256 8.70081-10.01623 16.95113-1.39007 9.54258 9.97762-1.28452 45.51708-12.8324 49.13899-6.76501 2.12114-14.36664-.23168-20.73007 3.73002" fill="#539b53"/><path d="m891.311232 868.810114c4.78802 4.180507 75.823183-10.350875 44.744816 20.845905-13.460513 13.509423-50.338562 12.945672-68.329674 9.18476-34.548394-7.223217-22.616958-51.620515 8.906746-47.705151 15.617696 1.94095 12.333012 15.627993 14.678112 17.674486" fill="#539b53"/><path d="m1158.0392 946.913269c40.16273-8.317254 62.05891 46.662598 25.22462 50.948648-14.30485 1.662936-52.50861 1.750459-59.28135-12.999731-6.24244-13.591797 21.72371-35.395306 34.05673-37.948917" fill="#539b53"/><path d="m1027.46964 1157.40491c-.3089-5.67612 3.74289-6.75728 7.37252-9.3598 5.79454-4.15477 30.20314-17.29351 36.38895-18.95644 3.29498-.88553 21.37362-3.10449 24.4987-2.82905 11.75897 1.0374 26.98281 35.45451 12.51836 43.70741-7.18976 4.10328-56.43428 4.38387-66.46853 2.73123-13.82605-2.27817-10.79364-7.49351-14.31-15.29335" fill="#6db856"/><g fill="#539b53"><path d="m1001.7276 521.57649c12.3639 45.625194-11.710055 57.34812-52.055556 43.043267-29.907104-10.603147-12.798943-43.043267-8.438242-43.043267z"/><path d="m1159.3384 854.232653c11.70233-12.078166 57.24257 4.883265 34.00523 35.292339-13.70506 17.931906-71.94643 14.912364-82.26126-7.583606-8.92992-19.476428 36.09549-9.60693 42.62882-14.019115 3.53695-2.391436 2.83677-10.809084 5.62721-13.689618"/><path d="m1024.14686 591.871569c11.91856.077226 22.5629 23.311993 21.28094 33.714352-2.654 21.533218-60.233799 27.942986-66.32694 7.442024-2.445494-8.227156 2.180351-31.310045 8.438241-36.829139 2.818754-2.486681 30.329269-4.368424 36.607759-4.327237"/><path d="m1156.17985 1116.21765c-18.54457 1.87916-29.14772 2.06193-48.90988 2.5742-8.37646-10.13464-15.31137-27.22221-7.46262-39.6273 7.24896-11.45778 17.36043-2.76469 26.57866-4.11615 6.00562-.88038 9.46792-7.5939 18.282-7.95172 24.25157-.9782 22.49339 34.6179 11.51184 49.12097"/><path d="m862.050254 535.066092c18.284572-3.173994 33.1506-2.280745 36.533105 18.843174 2.514997 15.720665 1.186708 23.232192-12.567265 30.864708-41.442112 22.995365-74.281235-40.973608-23.96584-49.707882"/><path d="m1142.44544 540.01989c3.85358-1.297399 30.77976-1.276805 35.56006-.368111 23.94524 4.556341 16.3153 47.82099-2.58451 51.363095-4.6902.877804-18.34635.877804-23.03655 0-18.32833-3.436562-22.85893-46.647153-9.939-50.994984"/><path d="m1140.7251 521.575975c-1.50591-26.146191 17.54577-46.724379 44.50027-40.664703 17.06954 3.838139 39.85897 45.3652 13.15933 48.335831-18.08894 2.013028-38.01328-12.688252-57.6596-7.671128"/><path d="m877.545418 643.108786c45.972712-5.62721 46.140035 51.610219-.746519 51.007855-7.45747-.095246-28.957223-10.927497-29.387115-19.252473-.108116-2.128867 7.591328-23.026256 8.893876-24.557907 1.315418-1.547097 18.287146-6.837087 21.239758-7.197475"/><path d="m1189.22491 650.69548c1.16869 1.86115.99621 27.744773-.07208 31.276581-4.74683 15.702645-47.84673 6.255316-55.93746-2.285894-8.35329-8.814075-9.21822-32.779915 4.84465-36.018264 4.92961-1.137798 9.41644 1.94095 14.24565 1.686104 6.16779-.321776 12.08331-3.310427 17.7929-2.772418 2.10312.198214 18.57288 7.233514 19.12634 8.113891"/><path d="m1124.67571 589.13622c13.1825 13.429623 3.88447 43.926219-16.72461 47.669112-26.08698 4.73911-40.79341-.496821-36.83428-29.129694 2.2653-16.377087 47.08219-25.137103 53.55889-18.539418"/><path d="m1129.80018 1011.26245c11.43204-3.04013 42.58248 12.44885 38.88335 25.87848-3.95655 14.37178-59.71124 38.77523-64.01531 16.04758-1.09661-5.78938-.59207-21.05956 1.92293-26.46024 1.66551-3.57814 19.35544-14.44128 23.20903-15.46582"/><path d="m864.65715 486.185559c9.23367 8.762591 11.141156 35.948761-1.98986 41.774185-6.595111 2.92687-49.84174.622957-52.894746-3.619331-5.681269-7.897658 14.304852-34.224044 20.704324-38.867908 8.592693-6.232149 26.722813-6.363433 34.180282.713054"/><path d="m1052.53467 748.539692c35.645-7.21292 33.72465 53.327213 14.25079 58.380376-5.46761 1.420961-22.84349-4.09041-27.39468-7.66598-17.86498-14.034561-7.08164-46.621411 13.14389-50.714396"/><path d="m972.581173 748.446506c8.639029-2.929444 40.070057 15.548193 41.725277 22.040336 1.63977 6.432936-12.2249 33.096543-20.158594 35.74025-13.254578 4.419909-32.877736-12.333012-35.711934-24.048215-1.606304-6.646595 7.645386-31.528852 14.145251-33.732371"/><path d="m965.340967 596.584937c-.347518 6.384026 2.476384 33.356537-1.186708 35.969355-18.912678 13.483681-58.717597 2.373416-55.05193-27.083202 3.063303-24.606818 40.247682-12.304696 56.238638-8.886153"/><path d="m983.708171 1108.49503c-2.051641-11.89797 4.056945-18.73248 14.775931-22.74824 9.954448 3.16627 59.216988.27029 62.378118 4.83178 7.79469 11.23383-19.69781 23.74189-26.47054 26.22599-2.70034.99107-4.04665 4.4714-4.34783 4.56149-3.174.94731-33.348819.57663-36.829143-.4891-3.894771-1.19185-8.873282-8.70595-9.506536-12.38192"/><path d="m952.113676 432.078362c7.400837-1.541948 22.156175-3.544679 23.878318 5.833147 4.347831 23.680104-8.788333 75.568337-34.048998 41.77161-13.967632-18.688722-18.300018-41.676364 10.17068-47.604757"/><path d="m1263.72881 421.692736c25.30957-3.47775 48.1891 13.2623 31.12213 39.053251-7.97746 12.054998-25.96085 10.49503-37.52675 4.736535-14.45158-7.200049-12.60845-41.176969 6.40462-43.789786"/><path d="m905.860634 800.057755c13.112996-2.406881 44.731945 7.534695 37.320811 24.557907-11.681738 26.838652-75.982783 26.161637-56.961989-10.538792 2.811031-5.423848 13.728231-12.932801 19.641178-14.019115"/><path d="m594.435219 1116.88977c18.477638-2.31164 52.88445 5.08663 40.476786 30.24947-.85721 1.74274-21.49203 16.93569-23.852575 17.52004-13.306062 3.29755-26.720239-17.08242-29.739781-28.30595-4.008036-14.8995-2.159757-17.5535 13.11557-19.46356"/><path d="m1091.13846 455.262932c26.78717-4.942472 44.08067 9.841182 30.07185 35.217687-6.52303 11.815597-44.93788 10.904328-48.81978 2.756972-.63325-1.333437 1.66294-25.816693 2.73638-28.257038 2.18293-4.973363 10.80136-8.754869 16.01155-9.717621"/><path d="m1194.08423 1039.38666c6.84481-1.07344 26.56321 13.02033 28.51189 19.45584 5.89492 19.4893-12.4643 19.38375-18.65526 26.62242-4.44823 5.19731-1.7968 14.81197-15.44265 12.81438-18.3515-2.68232-20.58591-54.78678 5.58602-58.89264"/><path d="m738.543028 429.574434c21.571831-3.179142 38.427719-3.091619 36.878049 23.826834-1.184134 20.549871-51.512399 25.659666-56.223193-.664145-3.197162-17.859828 2.610243-20.696601 19.345144-23.162689"/><path d="m541.721954 1155.5744c4.968214-6.22443 19.095446-13.59438 27.482203-9.73307 5.274545 2.42747 20.454626 22.51656 20.483084 28.28535.074511 14.06031-29.400127 25.80897-40.960878 20.54988-12.163114-5.53454-14.214755-30.06928-7.004409-39.10216"/></g><path d="m636.190612 1234.63104c-25.335317.99106-57.209112 7.32618-51.484082-28.31625 2.386287-14.86088 26.050945-27.72418 38.731475-19.4198 4.628419 3.03242-.265143 11.10255.844339 16.93054 1.876595 9.85921 14.379504 18.76853 11.908268 30.80551" fill="#6db856"/><path d="m1016.41163 442.112095c6.95035-1.964117 17.18796 3.089045 21.03382 8.996844 1.67581 2.576778 12.67796 29.1889 12.69855 31.078366.2394 20.941151-61.925051 9.218225-52.184263-17.128754 1.178986-3.184291 15.689773-22.166472 18.451893-22.946456" fill="#539b53"/><path d="m1127.21439 800.171277c27.84774-4.556341 45.63034 43.079306 7.07906 43.395933-38.87563.316628-47.41169-36.795674-7.07906-43.395933" fill="#539b53"/><path d="m921.154753 388.128203c1.678381-.380982 32.702689 2.687469 34.25236 3.436562 3.071026 1.485316 9.334064 12.693401 9.836034 16.075905 3.719725 25.059878-62.39356 27.330326-58.31602.002574.715628-4.795742 9.370103-18.408133 14.227626-19.515041" fill="#539b53"/><path d="m887.583012 457.639952c6.826789-2.350248 29.827303-.450486 34.579284 5.784237 4.247437 5.568003 4.02863 32.290816-2.78014 36.301426-6.705802 3.946255-35.809754.494248-39.972242-6.41749-4.239714-7.0353-.401576-32.718135 8.173098-35.668173" fill="#539b53"/><path d="m663.809248 1065.05508c16.613914-2.47381 22.480525 33.80445 8.397054 44.70363-22.102116 17.10301-52.338718-7.34678-34.826407-27.10122 1.43898-1.62175 24.859089-17.36816 26.429353-17.60241" fill="#539b53"/><path d="m1470.23275 1103.34662c1.36176 9.80515-1.2073 15.18009-9.40871 20.19206-32.2033 19.68752-55.09312-11.31105-39.50117-40.78569 12.2352 6.67234 35.48541 16.38224 48.90988 20.59363" fill="#6db856"/><path d="m767.475023 1087.9014c-4.131597 13.24171-8.381608 22.45993-1.08374 35.83292.620383 1.14037 8.165376 10.26078 8.806353 10.50275-2.66945 5.77137-13.625263 13.48369-19.916618 11.13601-.867507-.32435-14.201884-10.45899-14.804248-11.16432-5.665823-6.63887-16.62421-30.83382-8.384183-37.95664 1.016811-.88038 22.879527-9.4602 25.003245-9.80515 4.775149-.77483 7.71489 1.53423 10.379191 1.45443" fill="#6db856"/><path d="m1372.06574 1101.12683c8.68279 20.85369.52513 35.93595-20.70433 41.64553-17.13133 4.60783-21.53579-3.91279-22.59636-20.51383-1.27681-19.92434 28.75386-21.14194 43.30069-21.1317" fill="#6db856"/><path d="m1446.30707 1134.66516c22.99022-6.78302 2.54589 44.76027-13.52229 45.78737-14.51852.92929-24.13059-5.36464-26.46282-19.86513-2.90885-18.09923 19.82137-14.51851 31.15816-19.20356 3.33875-1.3772 5.74563-5.80998 8.82695-6.71868" fill="#539b53"/><path d="m967.604207 872.217845c27.227357-5.289989 44.816893 32.334578 11.102543 39.490866-8.371312 1.778775-23.286251 4.875542-25.762635-5.403255-3.784081-15.694922-4.576935-30.349867 14.660092-34.087611" fill="#539b53"/><path d="m1219.86617 406.370301c44.9559-8.232305 23.67238 44.940455 11.7255 47.993461-8.91704 2.278171-45.55826-41.797352-11.7255-47.993461" fill="#539b53"/><path d="m1268.69522 964.750959c16.61649-4.921878 41.51934 22.570622 27.6521 40.649261-.8778 1.14037-14.87117 9.939-15.79531 10.0883-12.35361 1.98471-32.63062-44.582639-11.85679-50.737561" fill="#539b53"/><path d="m1073.13396 869.506178c26.67905-4.746832 34.47374 35.570353 21.26808 42.108832-7.10481 3.518937-34.049-4.857524-37.32854-11.614809-5.19474-10.70869 5.02742-28.529905 16.06046-30.494023" fill="#539b53"/><path d="m667.081062 1188.29536c-15.270179-8.76002-20.537001-17.94992-10.361172-34.81868 12.750033-21.13165 29.858194-2.40688 49.00255.09524-7.102229 15.96007-26.385592 18.65526-33.49297 34.72344-1.050275-.57919-4.131597.58177-5.148408 0" fill="#6db856"/><path d="m758.998941 490.964827c3.691409-.942159 18.384966 8.582396 21.15481 11.486098 17.502014 18.35665-16.217486 41.915766-29.590477 32.162107-15.705219-11.455209-5.102072-40.191049 8.435667-43.648205" fill="#539b53"/><path d="m775.197636 1134.23707c-.640977-.24197-8.18597-9.36238-8.806353-10.50275-7.297868-13.37299-3.047857-22.59121 1.08374-35.83292 8.44339-.25485 11.859359-5.10465 20.52413 1.35661 22.272014 16.60876 9.684156 53.48938-12.801517 44.97906" fill="#539b53"/><path d="m797.73505 413.908342c6.229574-.991068 28.792474 2.733805 28.944352 11.020168.149303 8.101021-19.592268 31.212226-27.448739 31.850628-2.870238.231679-11.77441-6.157496-13.777141-8.530912-10.968683-12.984286-4.324663-31.696176 12.281528-34.339884" fill="#539b53"/><path d="m1229.89759 987.822006c36.61805-12.87102 36.04915 63.454134-3.54468 41.473004-12.01381-6.66976-3.64765-38.945135 3.54468-41.473004" fill="#539b53"/><path d="m758.897775 1021.55103c10.224739-.88038 21.584702 16.55728 21.525726 26.49371-.121219 20.37225-33.951409 27.6624-36.263045 7.82558-1.562542-13.42962-2.551036-32.82882 14.737319-34.31929" fill="#539b53"/><path d="m1276.53136 488.538897c11.85935-1.258786 9.56316 22.063503 8.41764 31.80944-2.47638 21.082732-17.20855 18.104378-29.71403 6.430362-16.6062-15.501857 3.28725-36.329743 21.29639-38.239802" fill="#539b53"/><path d="m1205.71037 918.615558c18.31031-18.287146 55.08024 29.155436 27.65467 41.884875-11.03304 5.117518-30.72055-21.425101-30.94193-30.898172-.06951-2.996374 1.21502-8.917043 3.28726-10.986703" fill="#539b53"/><path d="m1212.81234 1118.79185c.84949.06693 1.73759-.11584 2.5742 0 11.05878 12.74746 21.54609 22.8821 1.80195 33.97692-24.87969 13.9805-36.62321-8.86041-29.74751-29.76295 2.06451-6.27848 19.33485-4.69792 25.37136-4.21397" fill="#6db856"/><path d="m1281.64604 1023.93603c17.09529-3.33102 29.79127 34.82898 5.70959 44.56462-26.4654 10.70354-30.17225-39.79719-5.70959-44.56462" fill="#539b53"/><path d="m822.273651 918.786742c20.637395-16.595894 32.749025 15.002462 9.648117 36.636074-13.710211 12.842704-28.087141 3.359336-25.847583-12.757756.468505-3.369633 13.596946-21.78549 16.199466-23.878318" fill="#539b53"/><path d="m720.448175 1133.5495c-11.164323 13.87754-45.522226-.20593-36.692706-19.82394.921565-2.05164 11.130859-11.73322 13.465662-12.44628 17.316671-5.28227 34.393942 18.39012 23.227044 32.27022" fill="#6db856"/><path d="m862.127222 408.813478c32.715561-4.479116 26.225992 38.252673 2.556185 35.009176-31.065496-4.25516-29.240385-31.356381-2.556185-35.009176" fill="#539b53"/><path d="m774.554599 969.854061c12.327864-1.670658 28.432085 24.030196 2.046493 33.199509-30.849263 10.72414-25.340466-30.04096-2.046493-33.199509" fill="#539b53"/><path d="m1159.37392 438.568188c-4.41733-4.497134-5.0789-21.015802.4196-25.358485 5.11751-4.0415 25.86817-4.028629 30.08729 1.281954 12.68826 15.972937-21.0853 33.665442-30.50689 24.076531" fill="#539b53"/><path d="m1335.61217 1062.4922c13.41933-3.84071 31.64469 18.00656 13.41418 29.03703-28.6097 17.31152-31.70647-23.8011-13.41418-29.03703" fill="#539b53"/><path d="m698.592152 1067.91734c1.809666-1.81224 5.915521-2.60767 8.533487-2.93717 39.454827-4.97594 15.200675 34.27038-4.844652 27.7319-7.676277-2.5047-8.883579-19.58712-3.688835-24.79473" fill="#539b53"/><path d="m779.058942 583.357389c1.670658.85721 1.670658 1.716994 0 2.574204z" fill="#92c44c"/><path d="m936.637818 1124.49062c17.656467-3.87675 43.218314 3.56013 59.188676 11.78728 10.286516 5.29772 26.262026 18.40041 17.568946 31.52371-4.2114 6.35571-31.389848 3.84843-38.543561 2.3245-6.059677-1.28967-9.660988-5.10979-14.24822-6.34798-7.946568-2.14689-15.10543-.91385-23.018533-5.29772-13.774567-7.63251-20.439181-29.71146-.947308-33.98979" fill="#6db856"/><path d="m942.507519 1252.63759c-2.602521 2.9346-18.449321-14.23535-20.647692-16.65252-17.15707-18.88179-37.930898-63.19671-35.984799-1.36176-26.797465-.2188-37.071114-57.60811-8.780611-61.66763 37.784169-5.42385 58.594035 50.31024 65.413102 79.68191" fill="#283b30"/><path d="m1163.91585 1234.61842c-1.29998-74.63647-32.55339 10.39206-47.60991 12.92251-4.46624.75166-4.00289-.14158-3.97457-3.93854.17505-23.65951 23.65694-70.12904 50.25619-70.9811 38.27069-1.22532 27.23508 52.25377 1.32829 61.99713" fill="#283b30"/><path d="m785.720467 1198.37955c-6.142051-8.65448 16.431145-28.6303 30.578971-16.42342 8.520616 7.3545 6.250168 23.87831-4.327237 26.57865-1.392644.35524-25.438285-9.00714-26.251734-10.15523" fill="#6db856"/><path d="m1231.52243 1178.69615c25.18601-20.24096 32.36804 36.70816 5.23078 28.23645-14.18901-4.42763-13.9805-21.20372-5.23078-28.23645" fill="#92c44c"/><path d="m1643.99153 1172.85014v2.5742c1.67066-.85721 1.67066-1.71699 0-2.5742m-1164.82737 23.16783-5.148408 2.57421c-22.704481-7.285-42.780699-15.61255-64.355104-25.7163 15.47869 19.85998 33.933159 34.35018 54.058287 48.88414 64.954893 46.90457 102.656687 48.07841 174.458963 71.37753 38.571875 12.51835 77.313647 32.49932 115.790276 46.38458 171.647932 61.94308 325.137426 71.50367 500.577166 15.35513 53.13672-17.00519 103.28736-43.7589 155.15243-61.08072 77.31879-25.82184 111.42185-24.48068 181.52258-74.61073 7.31846-5.23336 16.96915-9.11011 25.77808-16.69629 3.02211-2.59994 25.99431-24.28504 23.11892-27.05231-20.61937 7.46519-40.09837 19.41465-61.64446 24.56306-2.79044.66672-12.98686 3.89477-12.97914-1.37978 26.20025-6.70837 54.7559-21.65678 75.84635-38.7186 18.46477-14.93296 36.43014-43.46801 63.13236-41.09717 2.63856 2.50985-14.58802 34.93967-17.56637 40.32748-8.42537 15.24701-23.24764 38.93999-33.90484 52.331-77.37801 97.23284-208.28401 143.27505-323.01114 180.24577-153.67999 49.52254-309.30607 84.96933-469.303155 38.80613-154.403338-44.54918-344.969096-82.59334-453.600511-211.32929-25.409969-30.11304-47.929107-66.25487-61.770602-102.95272 30.741145 1.34888 50.809641 32.332 75.359826 49.46333 18.011706 12.57242 38.139408 22.10727 58.488492 30.32155" fill="#283b30"/><path d="m479.16416 1196.01797 25.72917 10.27108c-12.134798 2.90627-21.177977-4.58466-30.877578-7.69687z" fill="#539b53"/><path d="m1643.99153 1172.85014c1.67066.85721 1.67066 1.71699 0 2.5742z" fill="#92c44c"/><path d="m1027.46037 974.675031c1.37978 1.451851 1.84056 5.488203-3.23577 4.546044-5.9181-1.099185-10.62117-1.287102-16.05016-2.074808-4.49714-.651274-4.32981 1.346309-3.85874-5.071182 4.55635-.293459 20.65799-.01802 23.14467 2.599946" fill="#6db856"/><path d="m779.058942 583.357389v2.574204c1.670658-.85721 1.670658-1.716994 0-2.574204m-135.145717-139.007023c15.110578 7.995478 42.09596 29.46434 55.288756 41.243898 29.139991 26.014907 52.948805 57.718806 74.721424 90.027642-.85721-19.921766 26.823207-41.107466 42.510407-24.483256 6.783028 7.192327 10.554237 18.518825 3.652795 26.92875-11.053632 13.473384-23.546245 17.790324-39.725118 10.448694l16.716882 28.254465c3.325872.038613 12.505484-29.65998 28.275058-31.06807 17.363007-1.549671 54.755896 17.051528 45.735885 38.154854-8.726552 20.410864-45.372922 18.529121-62.414154 10.997 9.097238 24.277319 20.964319 49.329474 27.039441 74.615881 10.646908 44.327795 16.099072 148.310197-8.533487 187.152363-4.81891 7.601625-13.046067 19.497022-20.771253 9.462775-12.302122-15.988382-2.545888-81.936918-2.800734-105.323562-.185343-16.894502-5.887205-35.938464-7.817858-50.081142-3.75319-27.51052-2.687469-40.175604-12.824685-68.262745-27.43072-76.008526-85.744166-165.724688-159.646992-202.028689-1.142947-13.643282 10.590275-23.268232 12.87102-36.038858 1.55482.749093 6.291355-.756816 7.722613 0" fill="#539b53"/><path d="m589.854938 426.330937c6.190961 8.222008-4.945046 11.944307-8.273492 18.74278-2.502127 5.117518-2.890832 11.807875-4.597529 17.296078-180.698833-36.489344-300.27319 177.918693-288.421554 333.470126.993643 13.056364 4.407038 25.608183 10.407507 37.215269.257421 11.890249 3.310427 31.284303 5.148409 43.761471-3.675964 1.184134-9.85148-3.70428-10.36632 3.827841-1.08374 15.823633 8.623583 30.197989 5.217911 45.082037-24.944038-67.011682-29.922549-185.911597-14.631776-255.319863 30.421945-138.075161 152.845945-273.26464 305.516844-244.075739" fill="#92c44c"/><path d="m304.118279 876.816661c11.596789 78.706291 59.335405 163.521169 129.554545 203.804889 114.758021 65.83012 276.163194-44.33294 325.863354-149.226613 5.753346-12.145095 6.91946-26.532322 11.117987-37.356851 1.346309-3.467453 2.52272-2.919147 4.543471-4.350405 2.182925-1.544522 5.127814-2.064511 7.722612-2.574204-20.83046 101.168797-68.633431 146.588053-156.24132 195.137543-149.509776 82.85591-269.282346-11.51184-325.134853-151.376072-.383557-.957604-1.531652-2.3451-2.574205-5.148409 3.405672-14.884048-6.301651-29.258404-5.217911-45.082037.51484-7.532121 6.690356-2.643707 10.36632-3.827841" fill="#539b53"/><path d="m636.190612 444.350366c-2.280745 12.770626-14.013967 22.395576-12.87102 36.038858-11.275015-5.537113-34.702846-15.669181-46.335675-18.019429 1.706697-5.488203 2.095402-12.17856 4.597529-17.296078 3.328446-6.798473 14.464453-10.520772 8.273492-18.74278 22.894971 4.376147 27.829721 9.092089 46.335674 18.019429" fill="#6db856"/><path d="m519.819596 599.558143c-56.357052 5.809979-104.039035 40.126694-136.96568 84.415876-149.746603 201.405732 119.74168 480.325901 297.160977 302.306811 69.55757-69.791822 76.098623-167.320694 43.081881-256.864385-29.801562-80.817139-116.63719-138.79079-203.277178-129.858302m255.379069 158.846415c3.315575 20.987486 5.148409 45.617471 5.148409 66.929307 0 22.230827-3.338743 42.34051-5.148409 64.355104-2.023324 1.428683-3.199735.880377-4.54347 4.34783-4.198527 10.824529-5.364641 25.211756-11.120562 37.359425-49.697585 104.891096-211.102758 215.056736-325.860779 149.224036-70.221715-40.28372-117.96033-125.096021-129.554546-203.802312-1.840556-12.479742-4.893562-31.871222-5.148408-43.76147-2.839347-131.685987 68.077403-295.498042 212.680746-316.318205 144.878783-20.856202 243.161897 112.647173 263.547019 241.666285" fill="#283b30"/><path d="m576.983917 462.369795c11.632829 2.350248 35.06066 12.482316 46.335675 18.019429 73.902826 36.304001 132.216272 126.020163 159.646992 202.028689 10.137216 28.087141 9.071495 40.752225 12.824685 68.262745-11.269866-1.117205-14.003671-1.037404-20.593633 7.722612-20.385123-129.019111-118.668237-262.522486-263.544446-241.66371-144.603343 20.817589-215.520093 184.629644-212.68332 316.31563-6.000469-11.607086-9.413864-24.158905-10.407507-37.215269-11.851636-155.551433 107.722721-369.95947 288.421554-333.470126" fill="#c4da46"/><path d="m782.920248 887.113477c-2.594798.509693-5.539687 1.029682-7.722612 2.574204 1.809665-22.012019 5.148408-42.121702 5.148408-64.355103 6.577091-6.062251 2.579352-23.834556 12.477167-11.12571-2.422326 19.522764-1.758181 41.877153-4.880691 61.209426-.63068 3.902493-4.049223 6.976093-5.022272 11.697183" fill="#6db856"/><path d="m461.144731 652.860901c-43.017525 11.813023-83.924203 92.079282-90.097145 133.858615-13.311209 90.097145 18.552289 167.866426 100.393962 208.510535 17.818641 8.850109 24.225835 14.389799 46.335674 18.019429 39.737989 6.52561 64.128573 2.36569 100.393961-12.87102 1.907486-.800578 3.418543-1.771053 5.148409-2.574205 1.809665-.83919 3.397949-1.680955 5.148408-2.574204 35.969354-18.333482 66.002594-42.97119 79.800328-82.374532 6.685208-5.439294 14.917513-25.407395 15.445225-33.464654.102968-1.552245.254846-3.73517 0-5.148408 13.463088-39.928481 5.848592-86.727512-9.83346-125.312258-39.987687-98.401527-157.263279-158.416522-252.735362-96.069298m58.673835-53.304045c86.642563-8.932489 173.475617 49.041163 203.277178 129.860876 33.016742 89.541117 26.475689 187.069989-43.081881 256.864385-177.419297 178.019083-446.90758-100.901079-297.160977-302.309385 32.92922-44.286608 80.608629-78.603323 136.96568-84.415876" fill="#6db856"/><path d="m685.100491 781.571108c5.410977-.893249 9.820589 11.408872 11.694609 15.344831 8.680217 18.230513 23.461297 58.197607 26.918453 77.326518.254846 1.413238.102968 3.596163 0 5.148408-11.313627 2.280745-12.12965 23.996731-15.445225 33.464654-13.797734 39.403342-43.830974 64.04105-79.800328 82.374532l-5.148408 2.574204c-1.729866.803152-3.240923 1.773627-5.148409 2.574205-9.305748-9.534853-16.232931 2.28847-17.211129 2.51757-16.88163 3.97715-55.53588 4.63872-74.288957 5.20504-4.952768.15188-10.332855-2.61282-8.893875 5.14841-22.109839-3.62963-28.517033-9.16932-46.335674-18.019429-2.808457-26.341831 2.355396-37.359425 28.316245-43.76147 31.951022 15.151765 79.609837 14.129806 111.609769-.368111 63.68581-28.846532 90.411197-103.987551 73.732929-169.529362" fill="#fefefe"/><path d="m723.713553 874.242457c-3.457156-19.128911-18.238236-59.096005-26.918453-77.326518-1.87402-3.935959-6.283632-16.23808-11.694609-15.344831-20.410865-80.219924-104.2321-137.151023-185.342698-100.393962-6.85768 1.449277-17.538053-8.394479-18.145565-14.281684-1.155818-11.172046 12.935376-9.467923 12.984286-19.170098-1.274231-1.112057-29.814433 4.136746-33.451783 5.135537 95.472083-62.347224 212.747675-2.332229 252.735362 96.069298 15.682052 38.584746 23.296548 85.383777 9.83346 125.312258" fill="#c4da46"/><path d="m371.047586 786.719516c11.053633-2.625688 10.301965 12.43598 14.902068 19.849688 6.121457 9.86435 22.246272 16.724604 34.007811 16.18917 3.089045 49.519965 33.789003 106.891252 79.800328 128.710207-25.960849 6.402045-31.124702 17.419639-28.316245 43.76147-81.841673-40.644109-113.705171-118.41339-100.393962-208.510535" fill="#c4da46"/><path d="m461.144731 652.860901c3.63735-.998791 32.177552-6.247594 33.451783-5.135537-.04891 9.702175-14.140104 7.998052-12.984286 19.170098.607512 5.887205 11.287885 15.730961 18.145565 14.281684-45.401238 20.575614-71.550004 73.756097-77.226124 120.987595-.687313 5.722456.074652 5.5783 0 7.722612-.159601 4.633568-2.630837 11.962327-2.574204 12.871021-11.761539.535434-27.886354-6.32482-34.007811-16.18917-4.600103-7.413708-3.848435-22.475376-14.902068-19.849688 6.172942-41.779333 47.07962-122.045592 90.097145-133.858615" fill="#fefefe"/><path d="m618.171183 1000.37846c-36.265388 15.23671-60.655972 19.39663-100.393961 12.87102-1.43898-7.76123 3.941107-4.99653 8.893875-5.14841 18.753077-.56632 57.407327-1.22789 74.288957-5.20504.978198-.2291 7.905381-12.052423 17.211129-2.51757" fill="#c4da46"/><path d="m723.713553 879.390865c-.527712 8.057259-8.760017 28.02536-15.445225 33.464654 3.315575-9.467923 4.131598-31.183909 15.445225-33.464654" fill="#c4da46"/><path d="m628.468 995.230051c-1.750459.893249-3.338743 1.735014-5.148408 2.574204z" fill="#c4da46"/><path d="m659.242353 762.293665c0-25.013541-20.277006-45.293122-45.293122-45.293122-25.013541 0-45.293122 20.279581-45.293122 45.293122 0 25.013542 20.279581 45.293122 45.293122 45.293122 25.016116 0 45.293122-20.27958 45.293122-45.293122m25.85788 19.278215c16.678269 65.541811-10.047118 140.680256-73.730354 169.529362-32.002506 14.497917-79.661322 15.519877-111.612343.368111-46.011325-21.821529-76.711284-79.192816-79.801287-128.710207-.055674-.908694 2.415562-8.237453 2.575163-12.871021v-7.722612c5.67612-47.231497 31.824885-100.411981 77.226124-120.987594 81.110598-36.757061 164.931833 20.174037 185.342697 100.393961" fill="#283b30"/><path d="m422.531669 809.887353c.074652-2.144312-.687313-2.000156 0-7.722612z" fill="#c4da46"/><path d="m659.242353 762.293665c0 25.013542-20.277006 45.293122-45.293122 45.293122-25.013541 0-45.293122-20.27958-45.293122-45.293122 0-25.013541 20.279581-45.293122 45.293122-45.293122 25.016116 0 45.293122 20.279581 45.293122 45.293122" fill="#fefefe"/><path d="m1465.08434 426.330937c5.13039 11.244123 8.47686 23.409812 7.72262 36.038858-16.76322 3.421117-46.71409 16.85074-61.7809 25.742041 1.26651-14.783654-12.29698-23.911782-18.01943-36.038858 1.71442-1.021959 4.62069-6.090567 7.72261-7.722612 21.82153-11.480951 40.8243-14.387227 64.3551-18.019429" fill="#6db856"/><path d="m1490.29456 599.5584c-190.14617 19.563952-246.52639 318.879538-83.56382 416.69929 133.84832 80.34606 280.82508-37.120019 299.61677-174.904295 17.04123-124.980185-84.51885-255.327586-216.05295-241.794995m260.52849 223.198944c.07621 8.826946-4.25618 26.259457-5.14943 36.038858-1.50076 16.379661-4.01318 32.50705-5.1484 48.909879-2.62827.723351-2.22154 3.022115-2.57421 5.148408-.27286 1.632045.43504 3.971997 0 5.148408-57.59524 155.672423-176.18883 242.103903-332.87033 135.946293-52.13279-35.32323-116.64749-112.551926-130.48641-174.559355-3.67854-16.469758-2.92172-44.371557-2.57421-61.780899.25485-12.837556 1.34889-25.855306 2.57421-38.613062 12.97914-135.261557 110.58781-283.154733 263.55474-262.26764 138.9092 18.966736 211.55582 179.831327 212.67404 306.02911" fill="#283b30"/><path d="m1750.821 822.758374c-1.1172-126.197784-73.76124-287.064949-212.67045-306.031685-152.9695-20.887092-250.5756 127.008658-263.55731 262.270215-8.94021-2.705489-1.23562-22.59379-12.61103-15.205824-1.62432 1.055423-2.18807 15.965214-13.13101 12.631619 9.64811-95.984349 77.58651-238.397045 162.17486-288.310863 15.06681-8.891301 45.01768-22.320924 61.7809-25.742041 180.10161-36.751913 302.12661 186.035158 285.74438 341.08977-.69246 6.561647-2.54074 14.7193-7.73034 19.298809" fill="#c4da46"/><path d="m1393.00663 452.072978c5.72245 12.127076 19.28594 21.255204 18.01943 36.038858-84.58835 49.913818-152.52675 192.326514-162.17486 288.310863-3.80983 37.907731 3.41082 65.081029 2.7235 99.191808-.67701 33.5599-16.37708 49.303732-34.07474 13.246855-27.5723-56.179431-12.17598-144.335626 4.30665-202.551253 6.08284-21.486882 16.57272-40.250255 21.87044-61.765454-15.60483 15.525025-53.34524 24.014751-68.37601 5.354345-18.59605-23.082889 39.04552-59.029075 54.32085-33.75039 4.46882 2.741527 12.65222 28.231296 17.91646 25.80897 5.7379-2.643707 14.61891-24.431771 16.75807-30.877578-7.00956 1.701548-22.17162 4.074965-28.28021 1.233043-1.16611-.543157-19.65662-14.611182-20.37225-15.679477-11.52213-17.267761 21.61817-38.020995 42.8013-24.750973 16.8044 10.525921 10.69839 24.591372 5.85116 39.197407 1.2176-.296034 3.174.754241 4.65931-.411873 29.71404-55.250143 69.93855-106.288889 124.0509-138.595151" fill="#539b53"/><path d="m1737.94998 918.003927 10.29682 2.574204c-34.21375 122.243809-144.65998 224.609609-278.01405 182.768489-13.42447-4.21139-36.67468-13.92129-48.90988-20.59363-71.39297-38.93998-133.86633-115.782552-151.87804-195.639513 6.88342 1.202154 5.25395-1.632045 5.14841-7.722612 13.83892 62.004855 78.35362 139.233555 130.48641 174.556785 156.6815 106.16018 275.27766 19.72612 332.87033-135.943723" fill="#539b53"/><path d="m1269.44483 887.113477c-7.1048-31.50311-11.04076-65.557256-10.28395-97.806886 7.15629-1.245915 4.32982 1.500761 5.79454 5.642656 2.60509 7.364798 2.42747 16.333325 7.06361 22.660719-.34494 17.409342-1.10176 45.308567 2.57421 61.780899.10554 6.090567 1.73501 8.924766-5.14841 7.722612" fill="#6db856"/><path d="m1745.6726 858.797232c4.72623 2.527868 1.57541 9.694453 2.54073 13.620114.67187 2.73123 5.21019 2.561333 6.37888 4.355553 5.31316 8.147356-3.64764 34.167412-6.34541 43.805232l-10.29682-2.574204c.43504-1.176411-.27029-3.518937 0-5.148408 2.50985-.6487 2.4249-2.97578 2.57421-5.148409 1.1378-16.402828 3.65022-32.530217 5.14841-48.909878" fill="#6db856"/><path d="m1364.69038 951.468581c1.95125 2.419752 3.73775 3.55755 5.14841 5.148408 42.89396 48.379591 102.95272 67.709291 167.32327 54.058291 21.25006-4.50744 21.73658-7.20005 38.61306-15.445229 81.63059-39.87957 116.40036-121.86025 100.39396-211.084739-13.33952-74.355887-52.77118-120.650374-123.5618-144.155432-177.67929-58.99561-298.04135 174.917171-187.9169 311.478701m125.60315-351.909151c131.5341-13.535165 233.09675 116.81481 216.05295 241.79242-18.78912 137.784277-165.76845 255.25036-299.61677 174.90687-162.95999-97.819753-106.58235-397.137913 83.56382-416.69929" fill="#6db856"/><path d="m1737.94998 912.855519c.35267-2.128867-.05406-4.425057 2.57421-5.148409-.14931 2.172629-.06436 4.499709-2.57421 5.148409" fill="#539b53"/><path d="m1552.60728 639.98988c-1.83025 8.881004-15.64858 10.330281-23.25536 16.634507-3.51636 2.916574-7.85389 11.336795-9.45247 11.728074-10.91205 2.656579-28.80792-4.175359-39.36988 2.527869-81.30624 9.995634-118.99001 91.569589-118.41339 164.749065.02832 3.704279-1.18156 2.419751 0 10.296816.36039 2.396584-.55346 5.719882 0 7.722613-20.51641.831467-15.1183 36.213903-12.25579 49.581745 3.69399 17.257465 16.71174 30.488874 14.82999 48.238012-110.12445-136.56153 10.23761-370.474311 187.9169-311.478701" fill="#c4da46"/><path d="m1362.11618 853.648824c18.32061 66.218827 73.06878 113.663983 144.15543 108.116573-3.92824 11.22353 13.66645 8.623584 19.42752 7.835878 9.72534-1.330864 14.74247-9.691879 24.15376-11.869656 26.16421-6.054528 26.92102 17.859829 25.92223 37.498432-16.87648 8.245179-17.363 10.937789-38.61306 15.445229-14.03456-4.0724-30.04611-3.09935-44.82976-5.36722-22.67874-3.47775-77.5788-14.508214-96.02812-26.246585-5.58602-3.554976-14.16069-24.79216-26.46539-22.444486-1.41066-1.590858-3.19716-2.728656-5.14841-5.148408 1.88175-17.749138-11.136-30.980547-14.82999-48.238012-2.86251-13.367842-8.26062-48.750278 12.25579-49.581745" fill="#fefefe"/><path d="m1676.16908 784.145312c16.0064 89.224489-18.76337 171.205169-100.39396 211.084739.99879-19.638603.24198-43.55296-25.92223-37.498432-9.41129 2.177777-14.42842 10.538792-24.15376 11.869656-5.76107.787706-23.35576 3.387652-19.42752-7.835878 70.49201-5.501074 118.24607-66.368131 123.5618-133.858615l20.69145-11.483525z" fill="#c4da46"/><path d="m1676.16908 784.145312-25.64422 32.277945-20.69145 11.483525c6.84738-86.918003-56.29012-168.463641-149.30384-157.026452 10.56196-6.703228 28.45783.12871 39.36988-2.527869 1.59858-.391279 5.93611-8.8115 9.45247-11.728074 7.60678-6.304226 21.42511-7.753503 23.25536-16.634507 70.79062 23.505058 110.22228 69.799545 123.5618 144.155432" fill="#fefefe"/><path d="m1369.83879 956.616989c12.3047-2.347674 20.87937 18.88951 26.46539 22.444486 18.44932 11.738371 73.34938 22.768835 96.02812 26.246585 14.78365 2.26787 30.7952 1.29482 44.82976 5.36722-64.37055 13.651-124.42931-5.6787-167.32327-54.058291" fill="#c4da46"/><path d="m1579.03793 762.983294c0-24.763843-20.07622-44.840061-44.84007-44.840061-24.76384 0-44.83748 20.076218-44.83748 44.840061 0 24.763844 20.07364 44.840062 44.83748 44.840062 24.76385 0 44.84007-20.076218 44.84007-44.840062m-98.50707-92.102449c93.01371-11.437189 156.14864 70.108449 149.30384 157.026452-5.31831 67.490484-53.07237 128.357541-123.5618 133.858615-71.08922 5.54741-125.8374-41.897746-144.15543-108.116574-.55603-2.00273.35781-5.326028 0-7.722612v-10.296817c-.57663-73.179475 37.10715-154.75343 118.41339-164.749064" fill="#283b30"/><path d="m1362.11618 845.926211c-1.18156-7.877065.02832-6.592537 0-10.296816z" fill="#fefefe"/><path d="m1579.03793 762.983294c0 24.763844-20.07622 44.840062-44.84007 44.840062-24.76384 0-44.83748-20.076218-44.83748-44.840062 0-24.763843 20.07364-44.840061 44.83748-44.840061 24.76385 0 44.84007 20.076218 44.84007 44.840061" fill="#fefefe"/></g></svg>