<?xml version="1.0" encoding="UTF-8"?>
<svg width="2003px" height="618px" viewBox="0 0 2003 618" version="1.1" xmlns="http://www.w3.org/2000/svg" xmlns:xlink="http://www.w3.org/1999/xlink">
    <title>logo</title>
    <defs>
        <linearGradient x1="0.00376187705%" y1="49.9897808%" x2="99.9846885%" y2="49.9897808%" id="linearGradient-1">
            <stop stop-color="#F74C00" offset="0%"></stop>
            <stop stop-color="#F74C00" offset="33%"></stop>
            <stop stop-color="#F49600" offset="100%"></stop>
        </linearGradient>
        <linearGradient x1="0.000380010515%" y1="50.0000839%" x2="100%" y2="50.0000839%" id="linearGradient-2">
            <stop stop-color="#CC3A00" offset="0%"></stop>
            <stop stop-color="#CC3A00" offset="15%"></stop>
            <stop stop-color="#F74C00" offset="74%"></stop>
            <stop stop-color="#F74C00" offset="100%"></stop>
        </linearGradient>
        <linearGradient x1="-0.0030939853%" y1="49.9999405%" x2="99.996906%" y2="49.9999405%" id="linearGradient-3">
            <stop stop-color="#CC3A00" offset="0%"></stop>
            <stop stop-color="#CC3A00" offset="15%"></stop>
            <stop stop-color="#F74C00" offset="74%"></stop>
            <stop stop-color="#F74C00" offset="100%"></stop>
        </linearGradient>
    </defs>
    <g id="Page-1" stroke="none" stroke-width="1" fill="none" fill-rule="evenodd">
        <g id="logo">
            <polygon id="Path" fill="#FFFFFF" fill-rule="nonzero" points="0 0 2003 0 2003 618 0 618"></polygon>
            <g id="Group-2" transform="translate(156.000000, 33.000000)">
                <g id="title" transform="translate(639.441691, 18.978863)" fill="#FCC201" fill-rule="nonzero">
                    <g id="Mini-Functions-Outlines" transform="translate(8.155071, 46.032502)">
                        <path d="M0,153.975515 L0,12.2326071 L32.8144541,12.2326071 L45.435398,56.8913316 C46.8592993,61.5513724 47.9272253,65.6289082 48.639176,69.1239388 C49.3511267,72.6189694 49.7718248,75.0784354 49.9012704,76.5023367 C50.030716,75.0784354 50.4514141,72.6189694 51.1633648,69.1239388 C51.8753155,65.6289082 52.8785187,61.5513724 54.1729745,56.8913316 L67.1822551,12.2326071 L100.190878,12.2326071 L100.190878,153.975515 L73.5898112,153.975515 L73.5898112,99.6083724 C73.5898112,90.1588452 73.8487024,81.3889073 74.3664847,73.2985587 C74.884267,65.20821 75.5314949,57.5709209 76.3081684,50.3866913 C77.0848418,43.2024617 77.7967925,36.3094847 78.4440204,29.7077602 L61.9397092,93.7833214 L37.6686633,93.7833214 L21.164352,32.0377806 C21.9410255,37.6039405 22.7500604,43.720244 23.5914566,50.3866913 C24.4328529,57.0531386 25.1448036,64.4315366 25.7273087,72.5218852 C26.3098138,80.6122338 26.6010663,89.6410629 26.6010663,99.6083724 L26.6010663,153.975515 L0,153.975515 Z" id="Path"></path>
                        <path d="M120.477822,153.975515 L120.477822,127.762786 L155.816465,127.762786 L155.816465,73.3956429 L124.36119,73.3956429 L124.36119,47.1829133 L184.94172,47.1829133 L184.94172,127.762786 L215.620322,127.762786 L215.620322,153.975515 L120.477822,153.975515 Z M169.019914,30.2902653 C163.712645,30.2902653 159.473303,28.9310867 156.301886,26.2127296 C153.130469,23.4943724 151.544761,19.8051735 151.544761,15.1451327 C151.544761,10.4850918 153.130469,6.79589286 156.301886,4.07753571 C159.473303,1.35917857 163.712645,0 169.019914,0 C174.327183,0 178.566525,1.35917857 181.737942,4.07753571 C184.909359,6.79589286 186.495067,10.4850918 186.495067,15.1451327 C186.495067,19.8051735 184.909359,23.4943724 181.737942,26.2127296 C178.566525,28.9310867 174.327183,30.2902653 169.019914,30.2902653 Z" id="Shape"></path>
                        <path d="M234.742257,153.975515 L234.742257,47.1829133 L262.89667,47.1829133 L262.89667,67.5705918 L271.440078,67.5705918 L262.89667,74.3664847 C262.89667,65.5641854 265.485581,58.5094014 270.663405,53.2021327 C275.841228,47.8948639 282.831289,45.2412296 291.633588,45.2412296 C301.989234,45.2412296 310.306113,48.8657058 316.584223,56.1146582 C322.862334,63.3636105 326.001389,73.0073061 326.001389,85.0457449 L326.001389,153.975515 L296.876134,153.975515 L296.876134,87.9582704 C296.876134,82.3921105 295.419871,78.0880451 292.507346,75.046074 C289.59482,72.0041029 285.549646,70.4831173 280.371823,70.4831173 C275.194,70.4831173 271.148825,72.0041029 268.2363,75.046074 C265.323774,78.0880451 263.867512,82.3921105 263.867512,87.9582704 L263.867512,153.975515 L234.742257,153.975515 Z" id="Path"></path>
                        <path d="M350.560038,153.975515 L350.560038,127.762786 L385.898681,127.762786 L385.898681,73.3956429 L354.443405,73.3956429 L354.443405,47.1829133 L415.023936,47.1829133 L415.023936,127.762786 L445.702538,127.762786 L445.702538,153.975515 L350.560038,153.975515 Z M399.10213,30.2902653 C393.794861,30.2902653 389.555518,28.9310867 386.384102,26.2127296 C383.212685,23.4943724 381.626977,19.8051735 381.626977,15.1451327 C381.626977,10.4850918 383.212685,6.79589286 386.384102,4.07753571 C389.555518,1.35917857 393.794861,0 399.10213,0 C404.409398,0 408.648741,1.35917857 411.820158,4.07753571 C414.991574,6.79589286 416.577283,10.4850918 416.577283,15.1451327 C416.577283,19.8051735 414.991574,23.4943724 411.820158,26.2127296 C408.648741,28.9310867 404.409398,30.2902653 399.10213,30.2902653 Z" id="Shape"></path>
                        <polygon id="Path" points="5.43671429 410.920122 5.43671429 269.177214 96.6958469 269.177214 96.6958469 296.360785 34.1736327 296.360785 34.1736327 327.81606 91.6474694 327.81606 91.6474694 354.999632 34.5619694 354.999632 34.5619694 410.920122"></polygon>
                        <path d="M165.136547,412.861805 C150.768087,412.861805 139.538684,408.978438 131.448335,401.211703 C123.357986,393.444969 119.312812,382.830431 119.312812,369.368091 L119.312812,304.12752 L148.438067,304.12752 L148.438067,369.173923 C148.438067,375.128419 149.861968,379.691376 152.709771,382.862793 C155.557574,386.034209 159.699832,387.619918 165.136547,387.619918 C170.443815,387.619918 174.553712,386.034209 177.466238,382.862793 C180.378763,379.691376 181.835026,375.128419 181.835026,369.173923 L181.835026,304.12752 L210.960281,304.12752 L210.960281,369.368091 C210.960281,382.959877 206.882746,393.606776 198.727674,401.308788 C190.572603,409.010799 179.37556,412.861805 165.136547,412.861805 Z" id="Path"></path>
                        <path d="M234.742257,410.920122 L234.742257,304.12752 L262.89667,304.12752 L262.89667,324.515198 L271.440078,324.515198 L262.89667,331.311091 C262.89667,322.508792 265.485581,315.454008 270.663405,310.146739 C275.841228,304.83947 282.831289,302.185836 291.633588,302.185836 C301.989234,302.185836 310.306113,305.810312 316.584223,313.059265 C322.862334,320.308217 326.001389,329.951913 326.001389,341.990351 L326.001389,410.920122 L296.876134,410.920122 L296.876134,344.902877 C296.876134,339.336717 295.419871,335.032651 292.507346,331.99068 C289.59482,328.948709 285.549646,327.427724 280.371823,327.427724 C275.194,327.427724 271.148825,328.948709 268.2363,331.99068 C265.323774,335.032651 263.867512,339.336717 263.867512,344.902877 L263.867512,410.920122 L234.742257,410.920122 Z" id="Path"></path>
                        <path d="M395.801267,412.861805 C386.35174,412.861805 378.067223,411.081929 370.947716,407.522175 C363.82821,403.962422 358.326773,398.978767 354.443405,392.571211 C350.560038,386.163655 348.618354,378.688173 348.618354,370.144765 L348.618354,344.902877 C348.618354,336.230023 350.560038,328.72218 354.443405,322.379346 C358.326773,316.036513 363.82821,311.08522 370.947716,307.525466 C378.067223,303.965713 386.35174,302.185836 395.801267,302.185836 C409.910836,302.185836 421.172601,305.745589 429.586563,312.865096 C438.000526,319.984603 442.466398,329.693021 442.984181,341.990351 L414.635599,341.990351 C414.247262,337.459756 412.33794,333.900003 408.907632,331.311091 C405.477324,328.72218 401.108536,327.427724 395.801267,327.427724 C389.976216,327.427724 385.510344,328.916348 382.40365,331.893596 C379.296956,334.870845 377.743609,339.207271 377.743609,344.902877 L377.743609,370.144765 C377.743609,375.710924 379.296956,380.01499 382.40365,383.056961 C385.510344,386.098932 389.976216,387.619918 395.801267,387.619918 C401.108536,387.619918 405.477324,386.357823 408.907632,383.833634 C412.33794,381.309446 414.247262,377.717331 414.635599,373.05729 L442.984181,373.05729 C442.466398,385.35462 438.000526,395.063038 429.586563,402.182545 C421.172601,409.302052 409.910836,412.861805 395.801267,412.861805 Z" id="Path"></path>
                        <path d="M521.909972,410.920122 C511.036544,410.920122 502.493136,407.813428 496.279748,401.60004 C490.06636,395.386652 486.959666,386.843244 486.959666,375.969816 L486.959666,330.340249 L458.805253,330.340249 L458.805253,304.12752 L486.959666,304.12752 L486.959666,274.031423 L516.084921,274.031423 L516.084921,304.12752 L555.889437,304.12752 L555.889437,330.340249 L516.084921,330.340249 L516.084921,374.998974 C516.084921,377.846776 516.829233,380.176797 518.317858,381.989035 C519.806482,383.801273 521.974695,384.707392 524.822498,384.707392 L553.947753,384.707392 L553.947753,410.920122 L521.909972,410.920122 Z" id="Path"></path>
                        <path d="M580.642254,410.920122 L580.642254,384.707392 L615.980897,384.707392 L615.980897,330.340249 L584.525621,330.340249 L584.525621,304.12752 L645.106152,304.12752 L645.106152,384.707392 L675.784754,384.707392 L675.784754,410.920122 L580.642254,410.920122 Z M629.184345,287.234872 C623.877077,287.234872 619.637734,285.875693 616.466317,283.157336 C613.294901,280.438979 611.709192,276.74978 611.709192,272.089739 C611.709192,267.429698 613.294901,263.740499 616.466317,261.022142 C619.637734,258.303785 623.877077,256.944606 629.184345,256.944606 C634.491614,256.944606 638.730957,258.303785 641.902374,261.022142 C645.07379,263.740499 646.659499,267.429698 646.659499,272.089739 C646.659499,276.74978 645.07379,280.438979 641.902374,283.157336 C638.730957,285.875693 634.491614,287.234872 629.184345,287.234872 Z" id="Shape"></path>
                        <path d="M740.342086,412.861805 C730.892559,412.861805 722.672765,411.081929 715.682703,407.522175 C708.692642,403.962422 703.288289,398.978767 699.469645,392.571211 C695.651,386.163655 693.741678,378.688173 693.741678,370.144765 L693.741678,344.902877 C693.741678,336.359469 695.651,328.883987 699.469645,322.47643 C703.288289,316.068874 708.692642,311.08522 715.682703,307.525466 C722.672765,303.965713 730.892559,302.185836 740.342086,302.185836 C749.921059,302.185836 758.173214,303.965713 765.098553,307.525466 C772.023891,311.08522 777.395883,316.068874 781.214527,322.47643 C785.033172,328.883987 786.942494,336.359469 786.942494,344.902877 L786.942494,370.144765 C786.942494,378.688173 785.033172,386.163655 781.214527,392.571211 C777.395883,398.978767 772.023891,403.962422 765.098553,407.522175 C758.173214,411.081929 749.921059,412.861805 740.342086,412.861805 Z M740.342086,387.619918 C746.037691,387.619918 750.374118,386.098932 753.351367,383.056961 C756.328615,380.01499 757.817239,375.710924 757.817239,370.144765 L757.817239,344.902877 C757.817239,339.207271 756.328615,334.870845 753.351367,331.893596 C750.374118,328.916348 746.037691,327.427724 740.342086,327.427724 C734.775926,327.427724 730.471861,328.916348 727.42989,331.893596 C724.387918,334.870845 722.866933,339.207271 722.866933,344.902877 L722.866933,370.144765 C722.866933,375.710924 724.387918,380.01499 727.42989,383.056961 C730.471861,386.098932 734.775926,387.619918 740.342086,387.619918 Z" id="Shape"></path>
                        <path d="M809.947796,410.920122 L809.947796,304.12752 L838.102209,304.12752 L838.102209,324.515198 L846.645617,324.515198 L838.102209,331.311091 C838.102209,322.508792 840.691121,315.454008 845.868944,310.146739 C851.046767,304.83947 858.036828,302.185836 866.839128,302.185836 C877.194774,302.185836 885.511652,305.810312 891.789763,313.059265 C898.067873,320.308217 901.206929,329.951913 901.206929,341.990351 L901.206929,410.920122 L872.081673,410.920122 L872.081673,344.902877 C872.081673,339.336717 870.625411,335.032651 867.712885,331.99068 C864.80036,328.948709 860.755185,327.427724 855.577362,327.427724 C850.399539,327.427724 846.354365,328.948709 843.441839,331.99068 C840.529314,335.032651 839.073051,339.336717 839.073051,344.902877 L839.073051,410.920122 L809.947796,410.920122 Z" id="Path"></path>
                        <path d="M965.958429,412.861805 C957.15613,412.861805 949.454118,411.470265 942.852394,408.687185 C936.250669,405.904106 931.105207,402.0531 927.416008,397.134168 C923.726809,392.215236 921.88221,386.454907 921.88221,379.853183 L951.007465,379.853183 C951.007465,383.477659 952.269559,386.196016 954.793748,388.008254 C957.317937,389.820492 961.039497,390.726612 965.958429,390.726612 L974.501837,390.726612 C979.809106,390.726612 983.85428,389.820492 986.63736,388.008254 C989.42044,386.196016 990.81198,383.607105 990.81198,380.24152 C990.81198,377.00538 989.517525,374.416469 986.928613,372.474785 C984.339701,370.533101 980.58578,369.238646 975.666848,368.591418 L960.327547,366.649734 C948.677445,365.225833 939.875145,361.730802 933.920649,356.164642 C927.966152,350.598482 924.988904,343.090639 924.988904,333.641112 C924.988904,323.285465 928.548657,315.454008 935.668164,310.146739 C942.787671,304.83947 953.20804,302.185836 966.929271,302.185836 L974.307669,302.185836 C987.381672,302.185836 997.802042,305.033639 1005.56878,310.729244 C1013.33551,316.42485 1017.21888,324.062139 1017.21888,333.641112 L988.093623,333.641112 C988.093623,330.534418 986.928613,328.204397 984.598593,326.65105 C982.268572,325.097703 978.838264,324.32103 974.307669,324.32103 L966.929271,324.32103 C962.398676,324.32103 958.968368,325.130065 956.638348,326.748134 C954.308327,328.366204 953.143317,330.663863 953.143317,333.641112 C953.143317,339.466163 957.350298,342.961193 965.764261,344.126203 L981.491899,346.262055 C993.789229,347.815402 1003.10931,351.407517 1009.45214,357.0384 C1015.79498,362.669282 1018.96639,370.27421 1018.96639,379.853183 C1018.96639,390.338275 1015.21247,398.460985 1007.70463,404.221313 C1000.19678,409.981641 989.129188,412.861805 974.501837,412.861805 L965.958429,412.861805 Z" id="Path"></path>
                    </g>
                </g>
                <g id="Icon-Copy">
                    <path d="M138.164819,0 C61.9871908,0 0,61.9851682 0,138.138261 L0,414.520881 C0,490.645461 61.9852014,552.606093 138.164819,552.606093 L414.520849,552.606093 C490.645427,552.606093 552.606061,490.646787 552.606061,414.494357 L552.606061,138.138261 C552.606061,61.9871576 490.646753,0 414.494324,0 L138.164819,0 Z" id="Path" fill="#000000" fill-rule="nonzero"></path>
                    <g id="Elements" transform="translate(100.915365, 58.012843)">
                        <g id="pyramid" transform="translate(-0.000000, 0.000000)" fill="#FCC201" fill-rule="nonzero">
                            <path d="M8.78377865,295.635134 L166.77224,383.512447 C171.921202,386.324184 178.457431,386.324184 183.606394,383.512447 L341.594855,295.635134 C350.011932,290.961057 353.280046,280.206942 348.605969,271.789865 L348.605969,271.315166 L190.145427,8.6554348 C184.996464,0.238357771 174.261045,-2.55487037 166.300158,2.57539604 C163.96312,3.98126478 161.626081,6.31830305 160.220119,8.6554348 L2.25035447,271.333862 C-2.42372207,279.750939 0.388015411,290.486825 8.78658309,295.635321 L8.78377865,295.635134 Z M192.951742,80.6276131 L308.873514,274.125034 L192.951742,338.631964 L192.951742,80.6276131 Z M157.421282,80.6276131 L157.421282,338.631964 L41.9762658,274.125034 L157.421282,80.6276131 Z" id="Shape"></path>
                        </g>
                        <g id="ferris" transform="translate(31.004281, 227.740538)">
                            <g id="Group" transform="translate(69.367314, 89.008936)" fill="#A52B00" fill-rule="nonzero">
                                <path d="M76.9524328,0 C47.1397248,0 20.05309,3.58427253 0,9.42519084 L0,59.3190218 C20.05309,65.160186 47.1397248,68.7442127 76.9524328,68.7442127 C111.073842,68.7442127 141.621552,64.0494452 162.140627,56.6492601 L162.140627,12.0956903 C141.621552,4.69525931 111.073842,0 76.9524328,0" id="Path"></path>
                            </g>
                            <g id="Group" transform="translate(235.884510, 99.656016)" fill="#A52B00" fill-rule="nonzero">
                                <path d="M26.3550752,29.8926263 L22.8605571,22.6530155 C22.8785079,22.3780967 22.8927703,22.102932 22.8927703,21.8267836 C22.8927703,13.619793 14.3584836,6.05583696 0,0 L0,43.6540591 C6.69960929,40.8281494 12.1347887,37.6744518 16.022013,34.2790323 C14.8780753,38.8791274 10.9652772,48.1855474 7.84576011,54.7302382 C2.71869629,64.0907568 0.862133609,72.2392226 1.10016708,72.6427484 C1.25188882,72.8967655 3.00099217,70.1984791 5.58026183,65.8260896 C11.582738,57.2733602 22.9567049,40.9451989 25.230072,36.7860067 C27.8051614,32.0710752 26.3550752,29.8926263 26.3550752,29.8926263" id="Path"></path>
                            </g>
                            <g id="Group" transform="translate(34.451126, 96.334367)" fill="#A52B00" fill-rule="nonzero">
                                <path d="M1.63551848,25.6269584 C1.63551848,27.2076187 1.95347021,28.7646723 2.56699655,30.2914799 L0.474121723,34.0169004 C0.474121723,34.0169004 -1.20244044,36.1921525 1.74986307,40.781182 C4.35396887,44.827505 17.3978586,60.6665666 24.2823864,68.9610985 C27.239608,73.2134877 29.2444498,75.8328395 29.420024,75.5798059 C29.6964183,75.1782474 27.5816581,67.1945361 21.7087725,58.0860675 C18.9684368,53.1938404 15.6954767,46.7125924 13.7312088,41.9251197 C19.2155687,45.3962771 26.390999,48.5448107 34.9161873,51.2546545 L34.9161873,0 C14.3725221,6.52821536 1.63551848,15.5983232 1.63551848,25.6269584" id="Path"></path>
                            </g>
                            <g id="Group" transform="translate(144.310836, 104.419918) scale(-1, 1) rotate(-84.999991) translate(-144.310836, -104.419918) translate(51.455116, -32.318326)" fill="url(#linearGradient-1)" fill-rule="nonzero">
                                <path d="M184.01192,130.518098 L173.242711,138.316491 C173.242711,139.430547 173.242711,140.544603 173.242711,141.658659 L183.826244,149.642728 C184.9403,150.385432 185.497329,151.685164 185.311652,152.984896 C185.125976,154.284628 184.197596,155.398684 183.08354,155.955712 L170.828923,161.525993 C170.643247,162.640049 170.457571,163.754105 170.086219,164.682485 L178.998668,174.523314 C179.741372,175.451694 180.112724,176.937103 179.741372,178.051159 C179.184344,179.350891 178.255964,180.279271 176.956232,180.650623 L163.773234,183.992791 C163.401882,184.921171 162.844854,185.849551 162.473502,186.963608 L168.972163,198.104169 C169.714867,199.218225 169.714867,200.703633 168.972163,201.817689 C168.415135,202.931745 167.115403,203.674449 165.815671,203.860125 L152.261321,204.602829 C151.704293,205.345533 150.961589,206.273913 150.404561,207.202294 L154.489433,219.456911 C155.046462,220.756643 154.675109,222.056375 153.746729,223.170431 C153.004025,224.098811 151.518617,224.655839 150.218885,224.470163 L136.850212,222.613403 C136.107508,223.356107 135.364804,224.098811 134.436423,224.841515 L136.107508,237.838837 C136.293184,239.138569 135.736156,240.438301 134.622099,241.181005 C133.508043,241.923709 132.022635,242.295061 130.722903,241.738033 L118.096934,237.467484 C117.168554,238.210189 116.240174,238.767217 115.311794,239.324245 L114.197737,252.13589 C114.197737,253.621298 113.269357,254.735354 112.155301,255.292382 C110.855569,255.84941 109.370161,255.84941 108.256105,255.292382 L96.7441918,248.608046 C96.5585157,248.793722 96.3728397,248.793722 96.1871637,248.793722 L75.3914497,272.1889 C75.3914497,272.1889 73.1633374,275.531068 66.6646768,271.446196 C61.0943963,267.732675 38.256246,248.051018 26.1873048,237.653161 C20.2456722,233.382612 16.5321519,230.411796 16.7178279,230.040444 C17.2748559,229.483416 27.672713,231.340176 40.2986822,239.695597 C51.6249193,246.008581 68.892789,253.99265 70.5638732,251.764538 C70.5638732,251.764538 73.5346895,248.979398 75.3914497,243.594793 C75.3914497,243.594793 75.3914497,243.594793 75.3914497,243.594793 C75.5771257,243.780469 75.5771257,243.780469 75.3914497,243.594793 C75.3914497,243.594793 16.9035039,141.287307 56.6381718,38.2371169 C57.7522279,26.7252037 51.0678913,20.4122191 51.0678913,20.4122191 C49.3968071,18.1841069 33.0573175,25.7968236 22.2881084,31.7384562 C10.2191672,39.722525 0.378338273,41.5792852 0.00698623602,41.0222571 C-0.178689782,40.6509051 3.34915457,37.8657648 9.10511113,33.7808924 C20.4313482,23.9400635 42.1554424,5.55813765 47.5400469,2.0302933 C53.6673555,-2.0545791 55.8954677,1.28758923 55.8954677,1.28758923 L74.6487456,22.6403313 C75.3914497,22.8260073 76.1341537,23.0116834 77.0625338,23.0116834 L87.2747148,14.6562625 C88.2030949,13.7278825 89.6885031,13.5422064 90.9882352,13.9135585 C92.2879673,14.2849105 93.2163474,15.2132906 93.5876995,16.5130227 L96.9298678,29.138992 C97.8582479,29.510344 98.972304,29.881696 99.9006841,30.2530481 L111.783949,23.9400635 C112.898005,23.1973594 114.383413,23.1973594 115.683146,23.9400635 C116.797202,24.4970915 117.539906,25.6111476 117.539906,26.9108797 L118.28261,39.908201 C119.21099,40.4652291 120.13937,41.2079332 121.06775,41.7649612 L133.879395,37.6800888 C135.179128,37.3087368 136.664536,37.4944128 137.592916,38.2371169 C138.706972,39.165497 139.264,40.4652291 139.078324,41.7649612 L137.035888,54.5766065 C137.778592,55.3193105 138.521296,56.0620146 139.449676,56.8047187 L152.818349,55.3193105 C154.118081,55.1336345 155.417814,55.6906626 156.346194,56.6190427 C157.274574,57.7330988 157.46025,59.0328309 156.903222,60.332563 L152.446997,72.4015042 C153.004025,73.3298843 153.746729,74.2582644 154.303757,75.1866445 L167.672431,76.1150246 C169.157839,76.1150246 170.271895,77.0434047 170.828923,78.1574608 C171.571627,79.2715169 171.571627,80.7569251 170.828923,81.8709812 L163.95891,93.0115423 C164.330262,93.9399223 164.701614,94.8683024 165.072966,95.9823586 L178.070288,99.3245269 C179.37002,99.6958789 180.484076,100.624259 180.855428,101.923991 C181.22678,103.223723 180.855428,104.523455 179.927048,105.637512 L170.828923,115.292664 C171.014599,116.221045 171.385951,117.335101 171.571627,118.449157 L183.454892,124.205113 C184.754624,124.762141 185.497329,125.876197 185.683005,127.17593 C185.868681,128.475662 185.125976,129.775394 184.01192,130.518098 Z" id="Shape"></path>
                            </g>
                            <g id="Group" transform="translate(90.659998, 138.926399)" fill="#000000">
                                <path d="M19.5081705,22.2543823 C19.098989,21.905201 18.8845621,21.6981512 18.8845621,21.6981512 L53.9359737,18.8267496 C25.3441707,-18.8924565 2.43812172,11.1550883 0,14.5146061 L0,22.2543823 L19.5081705,22.2543823 Z" id="Path"></path>
                            </g>
                            <g id="Group" transform="translate(150.088938, 138.116713)" fill="#000000">
                                <path d="M33.061078,22.6578376 C33.4700136,22.3086563 33.6846863,22.1011147 33.6846863,22.1011147 L0,19.6364355 C28.6053276,-19.6309717 50.1318644,11.5580518 52.5697403,14.9175696 L52.5697403,22.6578376 L33.061078,22.6578376 Z" id="Path"></path>
                            </g>
                            <g id="Group" transform="translate(198.480795, 156.180605) scale(-1, 1) rotate(-89.999997) translate(-198.480795, -156.180605) translate(165.626765, 107.819657)" fill="url(#linearGradient-2)" fill-rule="nonzero">
                                <path d="M65.7080602,9.85617158 C65.7080602,9.85617158 50.4638482,13.6672246 34.4311424,37.5191598 L32.854155,44.1556487 C32.854155,44.1556487 72.2788413,65.7735184 27.8603614,96.3933581 C27.8603614,96.3933581 33.3798175,86.8657255 26.611913,61.3053872 C26.611913,61.3053872 8.60797288,73.0670853 9.19934317,96.7218971 C9.19934317,96.7218971 -18.0693982,74.0527025 21.2895803,39.4903941 C21.2895803,39.4903941 35.4167596,2.95685147 65.7080602,0 L65.7080602,9.85617158 Z" id="Path"></path>
                            </g>
                            <g id="Group" transform="translate(161.929955, 98.580384)" fill="#000000">
                                <path d="M4.07378212,5.20383999 C4.07378212,5.20383999 14.7670913,-6.50479999 25.4608924,5.20383999 C25.4608924,5.20383999 33.8633754,20.8166715 25.4608924,28.6221036 C25.4608924,28.6221036 11.7120007,39.5509872 4.07378212,28.6221036 C4.07378212,28.6221036 -5.09222765,20.0349479 4.07378212,5.20383999" id="Path"></path>
                            </g>
                            <g id="Group" transform="translate(166.380460, 99.871918)" fill="#FFFFFF" fill-rule="nonzero">
                                <path d="M12.0034769,8.25592521 C12.0034769,12.8152005 9.3157643,16.5113586 6.00149254,16.5113586 C2.68746669,16.5113586 0,12.8152005 0,8.25592521 C0,3.6966499 2.68746669,0 6.00149254,0 C9.3157643,0 12.0034769,3.6966499 12.0034769,8.25592521" id="Path"></path>
                            </g>
                            <g id="Group" transform="translate(112.140549, 98.773114)" fill="#000000">
                                <path d="M6.13551061,1.81388806 C6.13551061,1.81388806 24.4788417,-6.30777448 29.4854133,11.8199002 C29.4854133,11.8199002 34.7297726,32.9493048 14.4216818,34.1419312 C14.4216818,34.1419312 -11.4742938,29.154294 6.13551061,1.81388806" id="Path"></path>
                            </g>
                            <g id="Group" transform="translate(115.109330, 99.912246)" fill="#FFFFFF" fill-rule="nonzero">
                                <path d="M12.3797075,8.51486038 C12.3797075,13.2162672 9.60838809,17.0297208 6.18960784,17.0297208 C2.77205709,17.0297208 0,13.2162672 0,8.51486038 C0,3.812224 2.77205709,0 6.18960784,0 C9.60838809,0 12.3797075,3.812224 12.3797075,8.51486038" id="Path"></path>
                            </g>
                            <g id="Group" transform="translate(98.323788, 162.388434) scale(-1, 1) rotate(-89.999996) translate(-98.323788, -162.388434) translate(68.935876, 117.131050)" fill="url(#linearGradient-3)" fill-rule="nonzero">
                                <path d="M21.5689087,52.8394654 C-21.3962183,19.3372459 13.1051901,3.46777359 13.1051901,3.46777359 C15.2211198,22.2760371 27.7403702,35.6181491 27.7403702,35.6181491 C30.6203856,13.0482328 30.8554888,-5.04799475e-15 30.8554888,-5.04799475e-15 C70.7054972,30.2107733 34.6171416,54.7202917 34.6171416,54.7202917 C36.8506228,60.8329774 45.3731173,67.1219905 53.2490776,71.7652805 L58.774005,90.5147683 C22.0978911,68.944041 21.5689087,52.8394654 21.5689087,52.8394654 Z" id="Path"></path>
                            </g>
                        </g>
                    </g>
                </g>
            </g>
        </g>
    </g>
</svg>