<svg height="618" viewBox="0 0 2003 618" width="2003" xmlns="http://www.w3.org/2000/svg" xmlns:xlink="http://www.w3.org/1999/xlink"><linearGradient id="a" x1=".003762%" x2="99.984689%" y1="49.989781%" y2="49.989781%"><stop offset="0" stop-color="#f74c00"/><stop offset=".33" stop-color="#f74c00"/><stop offset="1" stop-color="#f49600"/></linearGradient><linearGradient id="b" x1=".00038%" x2="100%" y1="50.000084%" y2="50.000084%"><stop offset="0" stop-color="#cc3a00"/><stop offset=".15" stop-color="#cc3a00"/><stop offset=".74" stop-color="#f74c00"/><stop offset="1" stop-color="#f74c00"/></linearGradient><linearGradient id="c" x1="-.003094%" x2="99.996906%" y1="49.999941%" y2="49.999941%"><stop offset="0" stop-color="#cc3a00"/><stop offset=".148874563" stop-color="#cc3a00"/><stop offset=".74" stop-color="#f74c00"/><stop offset="1" stop-color="#f74c00"/></linearGradient><g fill="none" fill-rule="evenodd"><path d="m0 0h2003v618h-2003z" fill-rule="nonzero"/><g fill="#fcc201" fill-rule="nonzero" transform="translate(803.596762 98.011365)"><path d="m0 153.975515v-141.7429079h32.8144541l12.6209439 44.6587245c1.4239013 4.6600408 2.4918273 8.7375766 3.203778 12.2326072s1.1326488 5.9544966 1.2620944 7.3783979c.1294456-1.4239013.5501437-3.8833673 1.2620944-7.3783979s1.7151539-7.5725664 3.0096097-12.2326072l13.0092806-44.6587245h33.0086229v141.7429079h-26.6010668v-54.3671426c0-9.4495272.2588912-18.2194651.7766735-26.3098137.5177823-8.0903487 1.1650102-15.7276378 1.9416837-22.9118674.7766734-7.1842296 1.4886241-14.0772066 2.135852-20.6789311l-16.5043112 64.0755612h-24.2710459l-16.5043113-61.7455408c.7766735 5.5661599 1.5857084 11.6824634 2.4271046 18.3489107.8413963 6.6664473 1.553347 14.0448453 2.1358521 22.1351939s.8737576 17.1191777.8737576 27.0864872v54.3671426z"/><path d="m120.477822 153.975515v-26.212729h35.338643v-54.3671431h-31.455275v-26.2127296h60.58053v80.5798727h30.678602v26.212729zm48.542092-123.6852497c-5.307269 0-9.546611-1.3591786-12.718028-4.0775357-3.171417-2.7183572-4.757125-6.4075561-4.757125-11.0675969 0-4.6600409 1.585708-8.34923984 4.757125-11.06759699 3.171417-2.71835714 7.410759-4.07753571 12.718028-4.07753571s9.546611 1.35917857 12.718028 4.07753571c3.171417 2.71835715 4.757125 6.40755609 4.757125 11.06759699 0 4.6600408-1.585708 8.3492397-4.757125 11.0675969-3.171417 2.7183571-7.410759 4.0775357-12.718028 4.0775357z"/><path d="m234.742257 153.975515v-106.7926017h28.154413v20.3876785h8.543408l-8.543408 6.7958929c0-8.8022993 2.588911-15.8570833 7.766735-21.164352 5.177823-5.3072688 12.167884-7.9609031 20.970183-7.9609031 10.355646 0 18.672525 3.6244762 24.950635 10.8734286 6.278111 7.2489523 9.417166 16.8926479 9.417166 28.9310867v68.9297701h-29.125255v-66.0172446c0-5.5661599-1.456263-9.8702253-4.368788-12.9121964-2.912526-3.0419711-6.9577-4.5629567-12.135523-4.5629567s-9.222998 1.5209856-12.135523 4.5629567c-2.912526 3.0419711-4.368788 7.3460365-4.368788 12.9121964v66.0172446z"/><path d="m350.560038 153.975515v-26.212729h35.338643v-54.3671431h-31.455276v-26.2127296h60.580531v80.5798727h30.678602v26.212729zm48.542092-123.6852497c-5.307269 0-9.546612-1.3591786-12.718028-4.0775357-3.171417-2.7183572-4.757125-6.4075561-4.757125-11.0675969 0-4.6600409 1.585708-8.34923984 4.757125-11.06759699 3.171416-2.71835714 7.410759-4.07753571 12.718028-4.07753571 5.307268 0 9.546611 1.35917857 12.718028 4.07753571 3.171416 2.71835715 4.757125 6.40755609 4.757125 11.06759699 0 4.6600408-1.585709 8.3492397-4.757125 11.0675969-3.171417 2.7183571-7.41076 4.0775357-12.718028 4.0775357z"/><path d="m5.43671429 410.920122v-141.742908h91.25913261v27.183571h-62.5222142v31.455275h57.4738367v27.183572h-57.0855v55.92049z"/><path d="m165.136547 412.861805c-14.36846 0-25.597863-3.883367-33.688212-11.650102-8.090349-7.766734-12.135523-18.381272-12.135523-31.843612v-65.240571h29.125255v65.046403c0 5.954496 1.423901 10.517453 4.271704 13.68887 2.847803 3.171416 6.990061 4.757125 12.426776 4.757125 5.307268 0 9.417165-1.585709 12.329691-4.757125 2.912525-3.171417 4.368788-7.734374 4.368788-13.68887v-65.046403h29.125255v65.240571c0 13.591786-4.077535 24.238685-12.232607 31.940697-8.155071 7.702011-19.352114 11.553017-33.591127 11.553017z"/><path d="m234.742257 410.920122v-106.792602h28.154413v20.387678h8.543408l-8.543408 6.795893c0-8.802299 2.588911-15.857083 7.766735-21.164352 5.177823-5.307269 12.167884-7.960903 20.970183-7.960903 10.355646 0 18.672525 3.624476 24.950635 10.873429 6.278111 7.248952 9.417166 16.892648 9.417166 28.931086v68.929771h-29.125255v-66.017245c0-5.56616-1.456263-9.870226-4.368788-12.912197-2.912526-3.041971-6.9577-4.562956-12.135523-4.562956s-9.222998 1.520985-12.135523 4.562956c-2.912526 3.041971-4.368788 7.346037-4.368788 12.912197v66.017245z"/><path d="m395.801267 412.861805c-9.449527 0-17.734044-1.779876-24.853551-5.33963-7.119506-3.559753-12.620943-8.543408-16.504311-14.950964-3.883367-6.407556-5.825051-13.883038-5.825051-22.426446v-25.241888c0-8.672854 1.941684-16.180697 5.825051-22.523531 3.883368-6.342833 9.384805-11.294126 16.504311-14.85388 7.119507-3.559753 15.404024-5.33963 24.853551-5.33963 14.109569 0 25.371334 3.559753 33.785296 10.67926 8.413963 7.119507 12.879835 16.827925 13.397618 29.125255h-28.348582c-.388337-4.530595-2.297659-8.090348-5.727967-10.67926-3.430308-2.588911-7.799096-3.883367-13.106365-3.883367-5.825051 0-10.290923 1.488624-13.397617 4.465872-3.106694 2.977249-4.660041 7.313675-4.660041 13.009281v25.241888c0 5.566159 1.553347 9.870225 4.660041 12.912196s7.572566 4.562957 13.397617 4.562957c5.307269 0 9.676057-1.262095 13.106365-3.786284 3.430308-2.524188 5.33963-6.116303 5.727967-10.776344h28.348582c-.517783 12.29733-4.983655 22.005748-13.397618 29.125255-8.413962 7.119507-19.675727 10.67926-33.785296 10.67926z"/><path d="m521.909972 410.920122c-10.873428 0-19.416836-3.106694-25.630224-9.320082s-9.320082-14.756796-9.320082-25.630224v-45.629567h-28.154413v-26.212729h28.154413v-30.096097h29.125255v30.096097h39.804516v26.212729h-39.804516v44.658725c0 2.847802.744312 5.177823 2.232937 6.990061 1.488624 1.812238 3.656837 2.718357 6.50464 2.718357h29.125255v26.21273z"/><path d="m580.642254 410.920122v-26.21273h35.338643v-54.367143h-31.455276v-26.212729h60.580531v80.579872h30.678602v26.21273zm48.542091-123.68525c-5.307268 0-9.546611-1.359179-12.718028-4.077536-3.171416-2.718357-4.757125-6.407556-4.757125-11.067597s1.585709-8.34924 4.757125-11.067597c3.171417-2.718357 7.41076-4.077536 12.718028-4.077536 5.307269 0 9.546612 1.359179 12.718029 4.077536 3.171416 2.718357 4.757125 6.407556 4.757125 11.067597s-1.585709 8.34924-4.757125 11.067597c-3.171417 2.718357-7.41076 4.077536-12.718029 4.077536z"/><path d="m740.342086 412.861805c-9.449527 0-17.669321-1.779876-24.659383-5.33963-6.990061-3.559753-12.394414-8.543408-16.213058-14.950964-3.818645-6.407556-5.727967-13.883038-5.727967-22.426446v-25.241888c0-8.543408 1.909322-16.01889 5.727967-22.426447 3.818644-6.407556 9.222997-11.39121 16.213058-14.950964 6.990062-3.559753 15.209856-5.33963 24.659383-5.33963 9.578973 0 17.831128 1.779877 24.756467 5.33963 6.925338 3.559754 12.29733 8.543408 16.115974 14.950964 3.818645 6.407557 5.727967 13.883039 5.727967 22.426447v25.241888c0 8.543408-1.909322 16.01889-5.727967 22.426446-3.818644 6.407556-9.190636 11.391211-16.115974 14.950964-6.925339 3.559754-15.177494 5.33963-24.756467 5.33963zm0-25.241887c5.695605 0 10.032032-1.520986 13.009281-4.562957 2.977248-3.041971 4.465872-7.346037 4.465872-12.912196v-25.241888c0-5.695606-1.488624-10.032032-4.465872-13.009281-2.977249-2.977248-7.313676-4.465872-13.009281-4.465872-5.56616 0-9.870225 1.488624-12.912196 4.465872-3.041972 2.977249-4.562957 7.313675-4.562957 13.009281v25.241888c0 5.566159 1.520985 9.870225 4.562957 12.912196 3.041971 3.041971 7.346036 4.562957 12.912196 4.562957z"/><path d="m809.947796 410.920122v-106.792602h28.154413v20.387678h8.543408l-8.543408 6.795893c0-8.802299 2.588912-15.857083 7.766735-21.164352s12.167884-7.960903 20.970184-7.960903c10.355646 0 18.672524 3.624476 24.950635 10.873429 6.27811 7.248952 9.417166 16.892648 9.417166 28.931086v68.929771h-29.125256v-66.017245c0-5.56616-1.456262-9.870226-4.368788-12.912197-2.912525-3.041971-6.9577-4.562956-12.135523-4.562956s-9.222997 1.520985-12.135523 4.562956c-2.912525 3.041971-4.368788 7.346037-4.368788 12.912197v66.017245z"/><path d="m965.958429 412.861805c-8.802299 0-16.504311-1.39154-23.106035-4.17462-6.601725-2.783079-11.747187-6.634085-15.436386-11.553017s-5.533798-10.679261-5.533798-17.280985h29.125255c0 3.624476 1.262094 6.342833 3.786283 8.155071s6.245749 2.718358 11.164681 2.718358h8.543408c5.307269 0 9.352443-.90612 12.135523-2.718358s4.17462-4.401149 4.17462-7.766734c0-3.23614-1.294455-5.825051-3.883367-7.766735s-6.342833-3.236139-11.261765-3.883367l-15.339301-1.941684c-11.650102-1.423901-20.452402-4.918932-26.406898-10.485092-5.954497-5.56616-8.931745-13.074003-8.931745-22.52353 0-10.355647 3.559753-18.187104 10.67926-23.494373s17.539876-7.960903 31.261107-7.960903h7.378398c13.074003 0 23.494373 2.847803 31.261111 8.543408 7.76673 5.695606 11.6501 13.332895 11.6501 22.911868h-29.125257c0-3.106694-1.16501-5.436715-3.49503-6.990062-2.330021-1.553347-5.760329-2.33002-10.290924-2.33002h-7.378398c-4.530595 0-7.960903.809035-10.290923 2.427104-2.330021 1.61807-3.495031 3.915729-3.495031 6.892978 0 5.825051 4.206981 9.320081 12.620944 10.485091l15.727638 2.135852c12.29733 1.553347 21.617411 5.145462 27.960241 10.776345 6.34284 5.630882 9.51425 13.23581 9.51425 22.814783 0 10.485092-3.75392 18.607802-11.26176 24.36813-7.50785 5.760328-18.575442 8.640492-33.202793 8.640492z"/></g><g transform="translate(156 33)"><g fill-rule="nonzero"><path d="m138.164819 0c-76.1776282 0-138.164819 61.9851682-138.164819 138.138261v276.38262c0 76.12458 61.9852014 138.085212 138.164819 138.085212h276.35603c76.124578 0 138.085212-61.959306 138.085212-138.111736v-276.356096c0-76.1511034-61.959308-138.138261-138.111737-138.138261z" fill="#000"/><path d="m8.78377865 295.635134 157.98846135 87.877313c5.148962 2.811737 11.685191 2.811737 16.834154 0l157.988461-87.877313c8.417077-4.674077 11.685191-15.428192 7.011114-23.845269v-.474699l-158.460542-262.6597312c-5.148963-8.41707703-15.884382-11.21030517-23.845269-6.08003876-2.337038 1.40586874-4.674077 3.74290701-6.080039 6.08003876l-157.96976453 262.6784272c-4.67407654 8.417077-1.86233906 19.152963 6.53622862 24.301459zm184.16796335-215.0075209 115.921772 193.4974209-115.921772 64.50693zm-35.53046 0v258.0043509l-115.4450162-64.50693z" fill="#fcc201" transform="translate(100.915365 58.012843)"/><path d="m76.9524328 0c-29.812708 0-56.8993428 3.58427253-76.9524328 9.42519084v49.89383096c20.05309 5.8411642 47.1397248 9.4251909 76.9524328 9.4251909 34.1214092 0 64.6691192-4.6947675 85.1881942-12.0949526v-44.5535698c-20.519075-7.40043099-51.066785-12.0956903-85.1881942-12.0956903" fill="#a52b00" transform="translate(201.28696 374.762317)"/><path d="m26.3550752 29.8926263-3.4945181-7.2396108c.0179508-.2749188.0322132-.5500835.0322132-.8262319 0-8.2069906-8.5342867-15.77094664-22.8927703-21.8267836v43.6540591c6.69960929-2.8259097 12.1347887-5.9796073 16.022013-9.3750268-1.1439377 4.6000951-5.0567358 13.9065151-8.17625289 20.4512059-5.12706382 9.3605186-6.9836265 17.5089844-6.74559303 17.9125102.15172174.2540171 1.90082509-2.4442693 4.48009475-6.8166588 6.00247617-8.5527294 17.37644307-24.8808907 19.64981017-29.0400829 2.5750894-4.7149315 1.1250032-6.8933804 1.1250032-6.8933804" fill="#a52b00" transform="translate(367.804156 385.409397)"/><path d="m1.63551848 25.6269584c0 1.5806603.31795173 3.1377139.93147807 4.6645215l-2.09287483 3.7254205s-1.67656216 2.1752521 1.27574135 6.7642816c2.6041058 4.046323 15.64799553 19.8853846 22.53252333 28.1799165 2.9572216 4.2523892 4.9620634 6.871741 5.1376376 6.6187074.2763943-.4015585-1.8383659-8.3852698-7.7112515-17.4937384-2.7403357-4.8922271-6.0132958-11.3734751-7.9775637-16.1609478 5.4843599 3.4711574 12.6597902 6.619691 21.1849785 9.3295348v-51.2546545c-20.5436652 6.52821536-33.28066882 15.5983232-33.28066882 25.6269584" fill="#a52b00" transform="translate(166.370772 382.087748)"/><path d="m184.01192 130.518098-10.769209 7.798393v3.342168l10.583533 7.984069c1.114056.742704 1.671085 2.042436 1.485408 3.342168-.185676 1.299732-1.114056 2.413788-2.228112 2.970816l-12.254617 5.570281c-.185676 1.114056-.371352 2.228112-.742704 3.156492l8.912449 9.840829c.742704.92838 1.114056 2.413789.742704 3.527845-.557028 1.299732-1.485408 2.228112-2.78514 2.599464l-13.182998 3.342168c-.371352.92838-.92838 1.85676-1.299732 2.970817l6.498661 11.140561c.742704 1.114056.742704 2.599464 0 3.71352-.557028 1.114056-1.85676 1.85676-3.156492 2.042436l-13.55435.742704c-.557028.742704-1.299732 1.671084-1.85676 2.599465l4.084872 12.254617c.557029 1.299732.185676 2.599464-.742704 3.71352-.742704.92838-2.228112 1.485408-3.527844 1.299732l-13.368673-1.85676c-.742704.742704-1.485408 1.485408-2.413789 2.228112l1.671085 12.997322c.185676 1.299732-.371352 2.599464-1.485409 3.342168-1.114056.742704-2.599464 1.114056-3.899196.557028l-12.625969-4.270549c-.92838.742705-1.85676 1.299733-2.78514 1.856761l-1.114057 12.811645c0 1.485408-.92838 2.599464-2.042436 3.156492-1.299732.557028-2.78514.557028-3.899196 0l-11.5119132-6.684336c-.1856761.185676-.3713521.185676-.5570281.185676l-20.795714 23.395178s-2.2281123 3.342168-8.7267729-.742704c-5.5702805-3.713521-28.4084308-23.395178-40.477372-33.793035-5.9416326-4.270549-9.6551529-7.241365-9.4694769-7.612717.557028-.557028 10.9548851 1.299732 23.5808543 9.655153 11.3262371 6.312984 28.5941068 14.297053 30.265191 12.068941 0 0 2.9708163-2.78514 4.8275765-8.169745.185676.185676.185676.185676 0 0 0 0-58.4879458-102.307486-18.7532779-205.3576761 1.1140561-11.5119132-5.5702805-17.8248978-5.5702805-17.8248978-1.6710842-2.2281122-18.0105738 5.3846045-28.7797829 11.3262371-12.0689412 7.9840688-21.90977013 9.840829-22.28112216 9.2838009-.18567602-.371352 3.34216833-3.1564923 9.09812489-7.2413647 11.32623707-9.8408289 33.05033127-28.22275475 38.43493577-31.7505991 6.1273086-4.0848724 8.3554208-.74270407 8.3554208-.74270407l18.7532779 21.35274207c.7427041.185676 1.4854081.3713521 2.4137882.3713521l10.212181-8.3554209c.9283801-.92838 2.4137883-1.1140561 3.7135204-.742704 1.2997321.371352 2.2281122 1.2997321 2.5994643 2.5994642l3.3421683 12.6259693c.9283801.371352 2.0424362.742704 2.9708163 1.1140561l11.8832649-6.3129846c1.114056-.7427041 2.599464-.7427041 3.899197 0 1.114056.557028 1.85676 1.6710841 1.85676 2.9708162l.742704 12.9973213c.92838.5570281 1.85676 1.2997322 2.78514 1.8567602l12.811645-4.0848724c1.299733-.371352 2.785141-.185676 3.713521.5570281 1.114056.9283801 1.671084 2.2281122 1.485408 3.5278443l-2.042436 12.8116453c.742704.742704 1.485408 1.4854081 2.413788 2.2281122l13.368673-1.4854082c1.299732-.185676 2.599465.3713521 3.527845 1.2997322.92838 1.1140561 1.114056 2.4137882.557028 3.7135203l-4.456225 12.0689412c.557028.9283801 1.299732 1.8567602 1.85676 2.7851403l13.368674.9283801c1.485408 0 2.599464.9283801 3.156492 2.0424362.742704 1.1140561.742704 2.5994643 0 3.7135204l-6.870013 11.1405611c.371352.92838.742704 1.8567601 1.114056 2.9708163l12.997322 3.3421683c1.299732.371352 2.413788 1.2997321 2.78514 2.5994641s0 2.599464-.92838 3.713521l-9.098125 9.655152c.185676.928381.557028 2.042437.742704 3.156493l11.883265 5.755956c1.299732.557028 2.042437 1.671084 2.228113 2.970817.185676 1.299732-.557029 2.599464-1.671085 3.342168z" fill="url(#a)" transform="matrix(-.0871559 -.99619468 -.99619468 .0871559 420.541318 470.758129)"/></g><path d="m19.5081705 22.2543823c-.4091815-.3491813-.6236084-.5562311-.6236084-.5562311l35.0514116-2.8714016c-28.591803-37.7192061-51.49785198-7.6716613-53.9359737-4.3121435v7.7397762z" fill="#000" transform="translate(222.579644 424.67978)"/><path d="m33.061078 22.6578376c.4089356-.3491813.6236083-.5567229.6236083-.5567229l-33.6846863-2.4646792c28.6053276-39.2674072 50.1318644-8.0783837 52.5697403-4.7188659v7.740268z" fill="#000" transform="translate(282.008584 423.870094)"/><path d="m65.7080602 9.85617158s-15.244212 3.81105302-31.2769178 27.66298822l-1.5769874 6.6364889s39.4246863 21.6178697-4.9937936 52.2377094c0 0 5.5194561-9.5276326-1.2484484-35.0879709 0 0-18.00394012 11.7616981-17.41256983 35.4165099 0 0-27.26874137-22.6691946 12.09023713-57.231503 0 0 14.1271793-36.53354263 44.4184799-39.4903941z" fill="url(#b)" fill-rule="nonzero" transform="matrix(-.00000005 -1 -1 .00000005 378.761391 474.788013)"/><path d="m4.07378212 5.20383999s10.69330918-11.70863998 21.38711028 0c0 0 8.402483 15.61283151 0 23.41826361 0 0-13.7488917 10.9288836-21.38711028 0 0 0-9.16600977-8.5871557 0-23.41826361" fill="#000" transform="translate(293.849601 384.333765)"/><path d="m12.0034769 8.25592521c0 4.55927529-2.6877126 8.25543339-6.00198436 8.25543339-3.31402585 0-6.00149254-3.6961581-6.00149254-8.25543339 0-4.55927531 2.68746669-8.25592521 6.00149254-8.25592521 3.31427176 0 6.00198436 3.6966499 6.00198436 8.25592521" fill="#fff" fill-rule="nonzero" transform="translate(298.300106 385.625299)"/><path d="m6.13551061 1.81388806s18.34333109-8.12166254 23.34990269 10.00601214c0 0 5.2443593 21.1294046-15.0637315 22.322031 0 0-25.8959756-4.9876372-8.28617119-32.32804314" fill="#000" transform="translate(244.060195 384.526495)"/><path d="m12.3797075 8.51486038c0 4.70140682-2.77131941 8.51486042-6.19009966 8.51486042-3.41755075 0-6.18960784-3.8134536-6.18960784-8.51486042 0-4.70263638 2.77205709-8.51486038 6.18960784-8.51486038 3.41878025 0 6.19009966 3.812224 6.19009966 8.51486038" fill="#fff" fill-rule="nonzero" transform="translate(247.028976 385.665627)"/><path d="m21.5689087 52.8394654c-42.965127-33.5022195-8.4637186-49.37169181-8.4637186-49.37169181 2.1159297 18.80826351 14.6351801 32.15037551 14.6351801 32.15037551 2.8800154-22.5699163 3.1151186-35.6181491 3.1151186-35.6181491 39.8500084 30.2107733 3.7616528 54.7202917 3.7616528 54.7202917 2.2334812 6.1126857 10.7559757 12.4016988 18.631936 17.0449888l5.5249274 18.7494878c-36.6761139-21.5707273-37.2050963-37.6753029-37.2050963-37.6753029z" fill="url(#c)" fill-rule="nonzero" transform="matrix(-.00000007 -1 -1 .00000007 275.50082 477.529724)"/></g></g></svg>