<svg height="1597" viewBox="0 0 2584 1597" width="2584" xmlns="http://www.w3.org/2000/svg" xmlns:xlink="http://www.w3.org/1999/xlink"><linearGradient id="a" x1="50%" x2="50%" y1="58.854%" y2="158.854%"><stop offset="0" stop-color="#d7d7d7"/><stop offset=".5259" stop-color="#fefefe"/><stop offset="1" stop-color="#fefefe"/></linearGradient><g fill="none" fill-rule="evenodd"><path d="m0 0h2584v1597h-2584z" fill="#272727"/><g transform="translate(133 504)"><g fill="#d7d7d7" fill-rule="nonzero" transform="translate(718.116 42.637)"><path d="m1.30241935 179.785682v-177.35614576h54.05040325c11.1429211 0 20.8692351 2.33336711 29.1789419 7.00010131 8.3097069 4.66673425 14.749447 11.22648205 19.3192205 19.67924355 4.569773 8.4527616 6.85466 18.350591 6.85466 29.6934883 0 11.1708052-2.315412 21.0078962-6.946236 29.5112731-4.6308248 8.5033769-11.0592592 15.1036165-19.2853037 19.8007205-8.2260444 4.697103-17.9331387 7.045655-29.1212827 7.045655h-21.4899194v64.625664zm32.56048385-96.2096352h21.4899194c6.8964914 0 12.4193373-2.3485517 16.5685379-7.0456551 4.1492005-4.6971034 6.2238008-10.5798711 6.2238008-17.6483031 0-7.1848473-2.0746003-13.1258227-6.2238008-17.8229261-4.1492006-4.6971034-9.6720465-7.0456551-16.5685379-7.0456551h-21.4899194zm88.7815858 96.2096352 38.855511-177.35614576h41.24328l39.28965 177.35614576h-33.211693l-7.597447-40.087348h-37.770161l-7.597446 40.087348zm46.235887-69.241783h26.699597l-7.597446-42.7598378c-1.012993-6.1548251-2.062164-12.269158-3.147514-18.3429986-1.085349-6.0738406-1.91745-10.8114363-2.496303-14.212787-.578853 3.4013507-1.338598 8.0984541-2.279234 14.0913102-.940636 5.992856-1.989808 12.0666967-3.147514 18.2215218zm143.700269 71.671319c-11.142921 0-20.83871-2.105598-29.087365-6.316794-8.248656-4.211196-14.61604-10.123068-19.102151-17.735614-4.486111-7.612547-6.729167-16.601831-6.729167-26.967853h32.560484c0 5.992856 2.062164 10.730452 6.186492 14.212787 4.124328 3.482336 9.731967 5.223503 16.822917 5.223503 6.801523 0 12.119736-1.700675 15.954637-5.102026s5.752352-8.098454 5.752352-14.09131c0-5.183011-1.447133-9.637161-4.341398-13.362449-2.894265-3.725289-6.946236-6.23581-12.155914-7.531563l-16.063172-4.130211c-13.458333-3.56332-23.913866-10.1635604-31.366599-19.8007209-7.452733-9.6371604-11.1791-21.4204112-11.1791-35.3497523 0-15.549032 4.703181-27.9801591 14.109543-37.2933814 9.406362-9.31322226 22.141129-13.9698334 38.204301-13.9698334 16.207886 0 29.051188 4.49464205 38.529906 13.4839262 9.478719 8.9892841 14.218078 21.096473 14.218078 36.3215668h-32.560484c0-5.6689179-1.772737-10.1230677-5.318212-13.3624493-3.545475-3.2393817-8.646617-4.8590725-15.303427-4.8590725-6.222671 0-10.998208 1.6196908-14.326613 4.8590725-3.328405 3.2393816-4.992608 8.0174696-4.992608 14.3342638 0 4.6971034 1.410954 8.8678073 4.232863 12.5121117 2.821909 3.6443043 6.910058 6.1143329 12.264449 7.4100855l15.846102 4.1302116c14.037187 3.5633199 24.673611 10.0015909 31.909274 19.3148132 7.235663 9.3132225 10.853495 21.1774575 10.853495 35.5927055 0 10.366022-2.279234 19.517275-6.837702 27.45376-4.558467 7.936485-10.925851 14.09131-19.10215 18.464476-8.176299 4.373165-17.83591 6.559747-28.978831 6.559747zm130.241936 0c-11.142922 0-20.83871-2.105598-29.087366-6.316794s-14.616039-10.123068-19.10215-17.735614c-4.486112-7.612547-6.729167-16.601831-6.729167-26.967853h32.560484c0 5.992856 2.062164 10.730452 6.186492 14.212787 4.124328 3.482336 9.731967 5.223503 16.822916 5.223503 6.801524 0 12.119736-1.700675 15.954637-5.102026 3.834902-3.401351 5.752353-8.098454 5.752353-14.09131 0-5.183011-1.447133-9.637161-4.341398-13.362449-2.894266-3.725289-6.946237-6.23581-12.155914-7.531563l-16.063172-4.130211c-13.458334-3.56332-23.913867-10.1635604-31.3666-19.8007209-7.452733-9.6371604-11.179099-21.4204112-11.179099-35.3497523 0-15.549032 4.703181-27.9801591 14.109543-37.2933814 9.406362-9.31322226 22.141129-13.9698334 38.204301-13.9698334 16.207885 0 29.051187 4.49464205 38.529906 13.4839262 9.478718 8.9892841 14.218078 21.096473 14.218078 36.3215668h-32.560484c0-5.6689179-1.772738-10.1230677-5.318213-13.3624493-3.545474-3.2393817-8.646617-4.8590725-15.303427-4.8590725-6.22267 0-10.998208 1.6196908-14.326613 4.8590725-3.328405 3.2393816-4.992607 8.0174696-4.992607 14.3342638 0 4.6971034 1.410954 8.8678073 4.232863 12.5121117 2.821908 3.6443043 6.910058 6.1143329 12.264448 7.4100855l15.846103 4.1302116c14.037186 3.5633199 24.673611 10.0015909 31.909274 19.3148132 7.235663 9.3132225 10.853494 21.1774575 10.853494 35.5927055 0 10.366022-2.279233 19.517275-6.837701 27.45376s-10.925851 14.09131-19.102151 18.464476c-8.176299 4.373165-17.835909 6.559747-28.97883 6.559747zm82.052419-2.429536-14.760753-177.35614576h26.699597l8.031586 118.56136876c.144713 2.267567.289427 5.466457.43414 9.596668.144713 4.130212.325605 8.422392.542675 12.876542s.325604 8.462885.325604 12.026205c.289427-3.56332.615032-7.572055.976815-12.026205s.759745-8.74633 1.193884-12.876542c.43414-4.130211.723567-7.329101.86828-9.596668l11.721774-118.56136876h24.745968l11.287634 118.56136876c.289427 2.267567.615032 5.466457.976815 9.596668.361783 4.130212.795923 8.422392 1.302419 12.876542.506497 4.45415.904458 8.462885 1.193885 12.026205.144713-3.56332.289426-7.572055.434139-12.026205.144714-4.45415.289427-8.74633.43414-12.876542.144713-4.130211.289427-7.329101.43414-9.596668l7.380376-118.56136876h26.916667l-15.846102 177.35614576h-33.862903l-10.636425-117.8325078c-.289427-2.7534744-.578853-6.3572865-.86828-10.8114362-.289426-4.4541498-.578853-9.110761-.868279-13.9698335-.289427-4.8590724-.578853-9.1512531-.86828-12.8765421-.144713 3.725289-.361783 8.0174697-.65121 12.8765421-.289426 4.8590725-.578853 9.5156837-.868279 13.9698335-.289427 4.4541497-.578853 8.0579618-.86828 10.8114362l-11.721774 117.8325078zm178.431452 2.429536c-10.564068 0-19.753361-2.227075-27.567877-6.681224-7.814516-4.45415-13.856295-10.68996-18.125336-18.707429-4.269041-8.01747-6.403562-17.371185-6.403562-28.061144v-75.3156236c0-10.6899595 2.134521-20.043674 6.403562-28.0611436s10.31082-14.2532793 18.125336-18.70742913c7.814516-4.45414978 17.003809-6.68122467 27.567877-6.68122467 10.708781 0 19.934251 2.22707489 27.676411 6.68122467 7.742159 4.45414983 13.74776 10.68995953 18.016801 18.70742913s6.403562 17.3711841 6.403562 28.0611436v75.3156236c0 10.689959-2.134521 20.043674-6.403562 28.061144-4.269041 8.017469-10.274642 14.253279-18.016801 18.707429-7.74216 4.454149-16.96763 6.681224-27.676411 6.681224zm0-31.583971c6.512096 0 11.396169-1.903137 14.652217-5.70941 3.256049-3.806273 4.884073-9.191745 4.884073-16.156416v-75.3156236c0-7.1266397-1.591846-12.5526039-4.775538-16.2778929-3.183691-3.7252889-8.103942-5.5879333-14.760752-5.5879333s-11.577061 1.8626444-14.760753 5.5879333c-3.183692 3.725289-4.775538 9.1512532-4.775538 16.2778929v75.3156236c0 6.964671 1.628024 12.350143 4.884073 16.156416 3.256048 3.806273 8.140121 5.70941 14.652218 5.70941zm79.23051 29.154435v-177.35614576h51.011425c11.287635 0 21.05578 2.18658263 29.304436 6.55974787 8.248655 4.37316519 14.652217 10.60897489 19.210685 18.70742909 4.558468 8.0984541 6.837702 17.65463 6.837702 28.6685277 0 11.4998049-2.496304 21.7848416-7.488912 30.8551103-4.992607 9.0702686-11.757952 15.6300168-20.296035 19.6792438l29.955646 72.886087h-35.382393l-25.614247-67.0552h-15.194893v67.0552zm32.343414-98.6391714h18.668011c7.235663 0 12.843302-2.0246136 16.822917-6.0738406 3.979614-4.0492271 5.969422-9.718145 5.969422-17.0067537 0-7.6125469-1.989808-13.5244185-5.969422-17.7356146-3.979615-4.2111962-9.587254-6.3167943-16.822917-6.3167943h-18.668011zm97.464382 98.6391714v-177.35614576h51.445565c10.998207 0 20.585461 2.34855171 28.76176 7.04565512 8.176297 4.69710344 14.543687 11.29734354 19.102147 19.80072044 4.55847 8.5033768 6.83771 18.5049677 6.83771 30.0047726v63.4108956c0 11.337836-2.27924 21.298935-6.83771 29.883296-4.55846 8.584362-10.92585 15.265586-19.102147 20.043674-8.176299 4.778088-17.763553 7.167132-28.76176 7.167132zm32.560484-32.798739h18.885081c6.512096 0 11.830309-2.267567 15.954637-6.802702 4.124328-4.535134 6.186492-10.366021 6.186492-17.492661v-63.4108956c0-7.1266397-2.062164-12.9170344-6.186492-17.3711842s-9.442541-6.6812246-15.954637-6.6812246h-18.885081zm-891.8316533 356.20081c-10.6364247 0-19.9342518-2.227075-27.8934812-6.681224-7.9592294-4.45415-14.1457213-10.68996-18.55947578-18.707429-4.41375448-8.01747-6.62063172-17.371185-6.62063172-28.061144v-75.315624c0-10.851928 2.20687724-20.246135 6.62063172-28.18262s10.60024638-14.131803 18.55947578-18.585952c7.9592294-4.45415 17.2570565-6.681225 27.8934812-6.681225s19.8980735 2.227075 27.7849462 6.681225c7.8868728 4.454149 14.0371864 10.631119 18.4509409 18.530908 4.4137542 7.899789 6.6206322 17.312343 6.6206322 28.237664h-32.5604843c0-7.126639-1.7863044-12.552604-5.358913-16.277893-3.5726087-3.725288-8.6013945-5.587933-15.0863575-5.587933-6.4849631 0-11.5001821 1.879095-15.045657 5.637283-3.5454749 3.758189-5.3182123 9.167704-5.3182123 16.228543v75.315624c0 6.952017 1.7727374 12.334325 5.3182123 16.146926 3.5454749 3.8126 8.5606939 5.7189 15.045657 5.7189 6.484963 0 11.5137488-1.915158 15.0863575-5.745474 3.5726086-3.830315 5.358913-9.236666 5.358913-16.219052v-15.207378h-23.4435484v-30.855111h56.0040327v46.161189c0 10.75829-2.206878 20.129087-6.6206322 28.112392-4.4137545 7.983304-10.5640681 14.202031-18.4509409 18.656181-7.8868727 4.454149-17.1485215 6.681224-27.7849462 6.681224z"/><path d="m134.583 500.758v-177.356h97.682v31.584h-65.772v39.844h58.174v30.127h-58.174v44.217h65.772v31.584z"/><path d="m260.483871 500.758217v-177.356146h37.987231l41.02621 137.268798c-.43414-5.992856-.940636-12.917034-1.519489-20.772535-.578853-7.8555-1.049172-15.711001-1.410955-23.566501-.361783-7.855501-.542674-14.536726-.542674-20.043675v-72.886087h28.653225v177.356146h-37.987231l-40.59207-137.268798c.43414 5.183011.86828 11.337836 1.30242 18.464476.434139 7.126639.832101 14.334263 1.193884 21.622872s.542675 13.767372.542675 19.43629v77.74516z"/><path d="m395.067 500.758v-177.356h97.682v31.584h-65.773v39.844h58.175v30.127h-58.175v44.217h65.773v31.584z"/><path d="m522.053091 500.758217v-177.356146h51.011425c11.287635 0 21.05578 2.186583 29.304436 6.559748s14.652217 10.608975 19.210685 18.707429 6.837702 17.65463 6.837702 28.668528c0 11.499805-2.496304 21.784841-7.488912 30.85511-4.992607 9.070269-11.757952 15.630017-20.296035 19.679244l29.955646 72.886087h-35.382393l-25.614247-67.0552h-15.194893v67.0552zm32.343414-98.639172h18.668011c7.235663 0 12.843302-2.024613 16.822917-6.07384 3.979614-4.049227 5.969422-9.718145 5.969422-17.006754 0-7.612547-1.989808-13.524418-5.969422-17.735614-3.979615-4.211197-9.587254-6.316795-16.822917-6.316795h-18.668011zm89.215726 98.639172 38.855511-177.356146h41.24328l39.28965 177.356146h-33.211694l-7.597446-40.087348h-37.770161l-7.597446 40.087348zm46.235887-69.241783h26.699597l-7.597446-42.759838c-1.012993-6.154825-2.062164-12.269158-3.147514-18.342999-1.085349-6.07384-1.91745-10.811436-2.496303-14.212787-.578853 3.401351-1.338598 8.098455-2.279234 14.091311s-1.989808 12.066696-3.147514 18.221522z"/><path d="m817.268 500.758v-144.557h-40.158v-32.799h112.877v32.799h-40.158v144.557z"/><path d="m963.790323 503.187753c-10.564069 0-19.753361-2.227075-27.567877-6.681224-7.814516-4.45415-13.856295-10.68996-18.125336-18.707429-4.269041-8.01747-6.403562-17.371185-6.403562-28.061144v-75.315624c0-10.689959 2.134521-20.043674 6.403562-28.061143 4.269041-8.01747 10.31082-14.25328 18.125336-18.707429 7.814516-4.45415 17.003808-6.681225 27.567877-6.681225 10.708781 0 19.934251 2.227075 27.676411 6.681225 7.742159 4.454149 13.747756 10.689959 18.016796 18.707429 4.26905 8.017469 6.40357 17.371184 6.40357 28.061143v75.315624c0 10.689959-2.13452 20.043674-6.40357 28.061144-4.26904 8.017469-10.274637 14.253279-18.016796 18.707429-7.74216 4.454149-16.96763 6.681224-27.676411 6.681224zm0-31.583971c6.512096 0 11.396169-1.903137 14.652217-5.70941 3.256049-3.806274 4.884073-9.191746 4.884073-16.156416v-75.315624c0-7.126639-1.591846-12.552604-4.775538-16.277893-3.183691-3.725288-8.103942-5.587933-14.760752-5.587933s-11.577061 1.862645-14.760753 5.587933c-3.183692 3.725289-4.775538 9.151254-4.775538 16.277893v75.315624c0 6.96467 1.628024 12.350142 4.884073 16.156416 3.256048 3.806273 8.140121 5.70941 14.652218 5.70941zm79.230507 29.154435v-177.356146h51.01143c11.28763 0 21.05578 2.186583 29.30443 6.559748 8.24866 4.373165 14.65222 10.608975 19.21069 18.707429s6.8377 17.65463 6.8377 28.668528c0 11.499805-2.4963 21.784841-7.48891 30.85511s-11.75795 15.630017-20.29604 19.679244l29.95565 72.886087h-35.38239l-25.61425-67.0552h-15.19489v67.0552zm32.34342-98.639172h18.66801c7.23566 0 12.8433-2.024613 16.82291-6.07384 3.97962-4.049227 5.96943-9.718145 5.96943-17.006754 0-7.612547-1.98981-13.524418-5.96943-17.735614-3.97961-4.211197-9.58725-6.316795-16.82291-6.316795h-18.66801zm140.35184 105.38624v-183.380645h53.53564c11.0368 0 20.67048 2.412628 28.90105 7.237884 8.23057 4.825255 14.60897 11.607827 19.13523 20.347715 4.52625 8.739888 6.78937 18.973931 6.78937 30.702128 0 11.550259-2.29336 21.7215-6.88008 30.513723-4.58672 8.792222-10.95393 15.616662-19.10163 20.473318-8.1477 4.856657-17.76235 7.284985-28.84394 7.284985h-21.28525v66.820892zm33.34194-100.025806h20.22581c6.49081 0 11.68878-2.369893 15.59391-7.109678 3.90513-4.739784 5.8577-10.676008 5.8577-17.808669 0-7.250134-1.95257-13.245094-5.8577-17.984879s-9.1031-7.109677-15.59391-7.109677h-20.22581zm108.36129 91.690322v-175.045161h50.92981c11.26957 0 21.02209 2.158091 29.25754 6.474273 8.23546 4.316182 14.62878 10.470738 19.17995 18.463668 4.55118 7.99293 6.82676 17.424587 6.82676 28.294971 0 11.34996-2.49231 21.500981-7.47692 30.453063-4.98462 8.952081-11.73914 15.426354-20.26357 19.422819l29.90772 71.936367h-35.32578l-25.57326-66.181458h-15.17059v66.181458zm33.34194-91.690322h18.76574c7.27355 0 12.91055-2.148321 16.911-6.444962s6.00067-10.311939 6.00067-18.045893c0-8.077685-2.00022-14.350781-6.00067-18.819288s-9.63745-6.70276-16.911-6.70276h-18.76574zm154.20645 100.025806c-10.98663 0-20.5435-2.241319-28.67059-6.723957-8.1271-4.482638-14.41055-10.758331-18.85035-18.827079-4.43981-8.068749-6.65971-17.482288-6.65971-28.24062v-75.797333c0-10.758331 2.2199-20.171871 6.65971-28.240619 4.4398-8.068749 10.72325-14.344442 18.85035-18.82708 8.12709-4.482638 17.68396-6.723957 28.67059-6.723957 11.13713 0 20.73162 2.241319 28.78346 6.723957 8.05185 4.482638 14.29768 10.758331 18.73748 18.82708 4.4398 8.068748 6.6597 17.482288 6.6597 28.240619v75.797333c0 10.758332-2.2199 20.171871-6.6597 28.24062-4.4398 8.068748-10.68563 14.344441-18.73748 18.827079-8.05184 4.482638-17.64633 6.723957-28.78346 6.723957zm0-33.341935c6.94623 0 12.15591-1.865561 15.62903-5.596682 3.47312-3.731122 5.20968-9.010261 5.20968-15.83742v-73.828571c0-6.985929-1.69797-12.304762-5.09391-15.956498-3.39594-3.651735-8.64421-5.477603-15.7448-5.477603-7.1006 0-12.34887 1.825868-15.74481 5.477603-3.39593 3.651736-5.0939 8.970569-5.0939 15.956498v73.828571c0 6.827159 1.73656 12.106298 5.20967 15.83742 3.47312 3.731121 8.6828 5.596682 15.62904 5.596682z"/></g><path d="m147.070249 0c-81.0876665 0-147.070249 65.9804257-147.070249 147.041971v294.196876c0 81.031193 65.9804649 146.985503 147.070249 146.985503h294.168589c81.031199 0 146.985512-65.952898 146.985512-147.013737v-294.168642c0-81.0594278-65.952902-147.041971-147.013746-147.041971z" fill="#2f3a3e"/><path d="m427.005179 248.742822h-1.125129c0-72.562182-59.106873-131.669051-131.669059-131.669051-72.562187 0-131.669059 59.106869-131.669059 131.669051h-1.125129c-18.323467 0-32.921193 14.962818-32.921193 32.921191v157.491133c0 18.323466 14.962819 32.92119 32.921193 32.92119h265.590022c18.323467 0 32.921192-14.962817 32.921192-32.92119v-157.491133c.365306-18.323466-14.597351-32.921191-32.921192-32.921191zm-105.121279 160.850286c.745223 2.615575 0 5.611056-1.490446 7.861464-1.870353 2.250258-4.485853 3.360798-7.101354 3.360798h-38.166408c-2.995481 0-5.231001-1.125129-7.101354-3.360798-1.870352-2.250258-2.250258-5.231001-1.490446-7.861464l12.332729-47.503204c-10.476965-5.611057-17.578319-16.453114-17.578319-29.180487 0-18.323466 14.962818-32.92119 32.921193-32.92119 17.958374 0 32.921192 14.962817 32.921192 32.92119 0 12.71241-7.101353 23.56943-17.578319 29.180487zm59.106872-160.850286h-173.561209c0-47.884756 38.895846-86.780599 86.780605-86.780599s86.780604 38.895843 86.780604 86.780599z" fill="url(#a)" fill-rule="nonzero"/></g></g></svg>