<svg height="2048" viewBox="0 0 2080 2048" width="2080" xmlns="http://www.w3.org/2000/svg" xmlns:xlink="http://www.w3.org/1999/xlink"><mask id="a" fill="#fff"><path d="m0 0h2079.90024v2048h-2079.90024z" fill="#fff" fill-rule="evenodd"/></mask><g fill="none" fill-rule="evenodd"><path d="m1934.82827 881.498068c-13.39036 20.640115-24.35484 37.503542-35.27905 54.391754-43.32813 66.973488-86.65006 133.950078-129.95031 200.945248-3.21282 4.96949-7.74237 8.94756-2.96187 16.33054 39.67847 61.29142 78.93868 122.85237 119.66434 186.42405 55.02688-148.5983 70.47134-298.86032 48.52689-458.091592m-1740.564031 460.062042c3.89442-5.72235 5.638698-8.18541 7.280737-10.71353 35.000208-53.93942 68.79832-108.72154 105.694618-161.33184 11.388932-16.24069 9.046703-25.59412-.39347-39.84887-39.93252-60.2876-78.870523-121.23512-118.201995-181.922388-13.616528-21.014996-27.316706-41.977323-42.881993-65.889123-22.356511 158.521791-6.103427 309.511891 48.502103 459.705751m906.656271-1208.546617c7.73307 10.403709 13.20447 16.990452 17.83935 24.119378 43.15154 66.397226 85.97157 133.011324 129.26562 199.315604 49.63604 76.013995 99.94129 151.594245 149.43171 227.704283 48.41845 74.464902 96.00349 149.468889 144.26084 224.039129 61.20156 94.57213 123.16838 188.654746 183.58301 283.725683 8.79575 13.84579 12.65919 5.74094 15.81934-.42755 14.6978-28.70779 34.07385-54.40415 51.26569-81.4761 39.64129-62.419151 79.97657-124.395265 120.29636-186.380673 4.54194-6.98641 5.62321-12.885356 3.53194-21.392975-36.30455-147.808261-109.8338-275.087941-214.14043-384.655291-135.9546-142.807788-301.98639-231.933307-494.94762-271.069593-33.65869-6.828402-67.67367-12.045748-106.20581-13.501895m-752.781762 972.182907c209.815356-323.834804 419.286814-647.136716 629.600979-971.746063-4.294086-.195186-6.276925-.433746-8.241175-.343899-5.155382.232364-10.326254.39347-15.450654.954242-99.566405 10.914909-195.963367 34.696585-286.66896 77.343117-257.443771 121.039933-431.806585 313.527135-504.50552 592.301917-1.673021 6.407049-1.431362 11.695652 2.274068 17.473769 12.999989 20.277628 25.281198 41.019984 38.296678 61.288317 33.3055 51.857438 66.803088 103.590949 100.340952 155.29967 14.837213 22.87701 29.962557 45.56813 44.353632 67.42893m-126.18602 294.81719c-.948045 6.1344 2.506432 9.70971 4.498566 13.70327 50.503531 101.19605 116.116915 191.35637 200.861599 266.39443 223.122065 197.56513 482.390668 276.8632 776.070827 221.61325 293.4199-55.20658 507.83916-222.2143 648.95844-484.40759 9.01882-16.75499 8.49213-17.2352-10.67635-17.2352-534.85225-.02169-1069.704503-.04338-1604.556756-.06816-5.062436 0-10.124872 0-15.156326 0m1612.454032-47.70587c-7.01739-11.55004-13.05575-22.05909-19.62701-32.22424-122.99798-190.30608-245.85965-380.698904-369.16436-570.803601-131.99202-203.501253-264.48904-406.674099-396.44079-610.200138-6.68588-10.310763-9.02191-8.82983-14.82482.328408-20.87557 32.949209-43.145336 64.978256-64.209903 97.837618-85.054502 132.686014-171.277021 264.622268-256.997633 396.883831-135.703647 209.390905-271.354626 418.818992-407.017997 628.237782-19.171576 29.59697-38.290482 59.22182-58.258291 90.11074 55.231363 0 108.213443-.12703 161.192424.15203 7.066963.03696 9.771679-4.50189 13.346986-8.80527 26.728051-32.16227 53.691564-64.08598 94.919126-78.72181 6.211863-2.20591 8.414674-6.66419 9.725206-12.6344 5.836983-26.53286 18.663473-47.02427 46.18466-56.38699 15.977346-5.43731 30.721613-14.58006 46.770217-19.72305 22.657035-7.25905 35.108644-20.63702 43.411783-43.85172 11.946605-33.41084 6.924446-27.02858 39.26641-24.99307 8.975445.56697 13.281924-1.21139 15.704705-9.71901 12.48569-43.85173 43.009019-76.80713 68.624822-112.705813 3.237604-4.535744 6.509289-9.232595 13.666098-7.999516 22.257369 3.835554 44.923698 5.818393 62.63293 22.790256 7.370585 7.066963 16.736401 12.005473 24.745212 18.468283 45.456586 36.69492 101.357157 56.65034 147.616175 92.11217 4.13917 3.16945 10.64227 4.102 16.14774 4.4428 9.04981.55768 16.66515 4.74023 24.91562 7.46663 27.54907 9.10557 47.00877 28.76666 66.21133 48.96683 14.82792 15.59937 31.18324 27.17729 54.28022 28.10055 12.6406.505 19.92753.02169 24.71113-14.18659 7.07626-21.0212 8.58508-20.47901 30.99735-14.37869 6.43494 1.75048 13.58555 2.051 19.27692 5.11821 14.36629 7.74856 22.41847 1.7071 29.07957-10.70733 15.18731-28.29883 40.59244-46.02666 66.43441-63.18441 2.8968-1.92397 6.81291-4.79599 9.50833-4.14227 17.29098 4.19494 35.93586 6.46281 43.26617 27.12771 4.17945 11.77931 10.89632 21.82672 21.54478 29.36461 24.05122 17.03693 46.30859 35.49282 58.32955 64.09837 5.61392 13.36248 22.61986 14.98593 35.82743 8.90419 22.99783-10.5896 33.69897-12.82339 49.97064 6.91825 23.5648 28.58696 49.55239 55.09814 63.82883 90.3493 3.36153 8.30004 10.86534 14.89298 16.26857 22.40918 3.06411 4.2631 7.05147 5.26692 12.06124 5.25762 51.40201-.12393 102.81021-.07745 156.07422-.07745m-1833.63663374-319.38891c-1.48712931-122.666477 16.33053874-233.110614 52.82717054-340.605278 36.7197013-108.148381 92.4095962-205.849678 162.6020992-295.542165 73.39293-93.775896 162.304673-170.527259 262.651822-233.677586 78.058798-49.124838 161.81516-86.6562639 250.150641-114.1433706 49.038089-15.2616646 98.760877-27.4530268 149.270604-35.2728484 37.367222-5.78431336 75.158896-10.57720721 113.303763-10.58340358 17.399414-.00309818 34.705884-4.17635481 52.272594-2.82554569 44.96398 3.45757565 89.95274 5.6913678 134.82067 11.39203017 59.36124 7.5409849 117.26014 20.8786759 174.02821 38.6746566 72.11337 22.6043656 141.04492 53.0719275 206.77603 90.7055935 51.38342 29.417277 100.76231 61.632215 146.17862 99.699627 39.02475 32.707551 76.56547 66.741125 111.08236 104.532798 46.37984 50.782368 87.46799 105.180319 122.53636 164.027265 45.51855 76.385777 80.92152 157.180274 103.81711 243.511228 13.04646 49.192999 23.30146 98.819743 29.29025 149.168365 7.65562 64.389601 10.04432 129.008464 4.46139 193.937154-4.39942 51.16964-10.66705 101.86836-21.96304 152.0032-13.01238 57.75329-31.41561 113.63217-54.42274 168.15405-22.62915 53.62031-50.02641 104.63504-81.67747 153.35711-25.19136 38.78-52.63509 75.93964-83.34121 110.62693-23.49354 26.53597-47.8267 52.16106-73.35575 76.82263-55.81382 53.90843-117.73107 99.26588-184.09422 139.23248-75.32 45.36054-154.87212 80.79449-238.78339 106.63027-54.52808 16.79217-110.27994 27.62342-166.69481 36.24877-60.91343 9.31005-122.02205 9.88941-183.177149 8.35581-39.387239-.98832-78.650551-5.95471-117.669107-12.31529-49.580271-8.08007-98.339524-19.83458-146.166222-34.69658-39.662978-12.32769-78.452267-27.59864-116.324494-44.95468-53.344567-24.44469-105.062587-52.12698-153.552297-84.99254-46.739235-31.68205-90.8667-66.87125-132.620953-105.31974-58.267585-53.65438-108.836178-113.67245-152.526798-179.13402-57.068588-85.50993-100.7499129-177.63759-129.9348256-276.74547-17.1639508-58.27688-27.5459723-117.6784-35.79644179-177.4548-4.91062492-35.57337-5.55194943-71.85004-3.96877635-98.81665" fill="#fbf2e1" mask="url(#a)"/><path d="m1191.0077 898.876103c-.56697-84.546399-66.87125-149.066124-152.75606-148.646823-83.734676.414111-148.97318 68.053709-148.242009 153.706161.693994 81.26542 68.070246 145.246059 153.214599 145.494539 81.67128.23794 148.33805-67.680498 147.78347-150.553877m643.4003 453.431927c-53.26711 0-104.67221-.04648-156.07732.07435-5.00667.0124-8.99713-.99142-12.05814-5.25452-5.40323-7.5193-12.91014-14.10914-16.26857-22.40918-14.27644-35.25116-40.26403-61.76234-63.82883-90.3524-16.27167-19.73854-26.97591-17.50475-49.97064-6.91515-13.20757 6.08174-30.21352 4.45519-35.83053-8.90419-12.02096-28.60555-34.27523-47.06145-58.32955-64.09837-10.64536-7.53789-17.36533-17.5853-21.54478-29.36771-7.33031-20.6618-25.9721-22.92967-43.26307-27.12461-2.69542-.65372-6.61153 2.2183-9.51143 4.14227-25.84197 17.15775-51.244 34.88557-66.43131 63.18441-6.6611 12.41443-14.71638 18.45589-29.08267 10.70733-5.68827-3.06721-12.83888-3.36773-19.27382-5.11821-22.41537-6.10032-23.92109-6.64251-30.99735 14.37869-4.7836 14.20828-12.07053 14.69159-24.71113 14.18659-23.09698-.92326-39.4523-12.50118-54.28022-28.10055-19.20256-20.20017-38.66226-39.86436-66.21133-48.96683-8.25357-2.7264-15.86891-6.91205-24.91562-7.46663-5.50547-.3408-12.01166-1.27335-16.14774-4.44589-46.262117-35.45874-102.15959-55.41416-147.616176-92.10908-8.008811-6.46591-17.374627-11.40132-24.74831-18.468283-17.706133-16.971863-40.372463-18.957801-62.629831-22.790257-7.15681-1.233078-10.428495 3.460674-13.666099 7.999517-25.618901 35.898683-56.139132 68.854083-68.624821 112.705813-2.422782 8.50762-6.729261 10.28598-15.704706 9.71901-32.345062-2.03551-27.319804-8.41777-39.269508 24.99307-8.303139 23.2147-20.754748 36.59267-43.411783 43.85172-16.045506 5.14299-30.789773 14.28264-46.770217 19.72305-27.518088 9.36272-40.344579 29.85412-46.181561 56.38699-1.313631 5.96711-3.513343 10.42849-9.728305 12.6344-41.227562 14.63583-68.187977 46.55954-94.916028 78.72181-3.575307 4.30338-6.280023 8.83913-13.346985 8.80218-52.978982-.27597-105.961062-.15204-161.192425-.15204 19.967809-30.88582 39.083617-60.51377 58.255193-90.10765 135.666469-209.41878 271.31435-418.846867 407.021096-628.240871 85.717513-132.258464 171.94313-264.194718 256.997632-396.880733 21.064567-32.859361 43.334324-64.888409 64.206804-97.837617 5.80291-9.158238 8.13894-10.639171 14.82482-.328408 131.95485 203.526039 264.44877 406.698885 396.44079 610.200138 123.30471 190.104697 246.16638 380.497521 369.16746 570.803601 6.56816 10.16515 12.60962 20.6711 19.62701 32.22424" fill="#193745"/><path d="m221.951798 1400.01513h15.156326c534.852253.02169 1069.704506.04338 1604.556756.06816 19.16848 0 19.69517.47713 10.67945 17.23212-141.12237 262.19638-355.53854 429.2041-648.96154 484.40758-293.67706 55.25305-552.948761-24.04502-776.067729-221.61015-84.747781-75.04116-150.358068-165.20148-200.861599-266.39753-1.995231-3.99046-5.449709-7.56577-4.501664-13.70018" fill="#1e5775"/><path d="m348.139987 1105.1964c-14.394172-21.8608-29.516419-44.55192-44.35673-67.42893-33.537864-51.708721-67.032354-103.442232-100.337854-155.29967-13.015479-20.268333-25.296689-41.010689-38.299776-61.288317-3.70543-5.778117-3.943991-11.06672-2.274068-17.473769 72.702034-278.774782 247.064847-471.261984 504.508618-592.301917 90.702495-42.646532 187.102555-66.428208 286.665862-77.343117 5.1244-.560772 10.295273-.721878 15.450654-.954242 1.967348-.089847 3.947089.148713 8.244273.343899-210.317263 324.609347-419.785622 647.911259-629.600979 971.746063" fill="#db3132"/><path d="m1100.91989 133.012873c38.53524 1.459246 72.54712 6.673493 106.20582 13.501895 192.96432 39.139385 358.99301 128.264903 494.94761 271.072692 104.30663 109.564252 177.83588 236.843931 214.14352 384.652192 2.08818 8.507619 1.00691 14.409664-3.53503 21.392975-40.31979 61.985409-80.65507 123.964621-120.29636 186.380673-17.19184 27.07505-36.56789 52.76831-51.26569 81.4792-3.16015 6.16849-7.02049 14.27024-15.81934.42445-60.41463-95.070937-122.38144-189.153553-183.57991-283.722584-48.25735-74.570241-95.84549-149.577325-144.26394-224.042227-49.48733-76.110039-99.79567-151.68719-149.43171-227.704283-43.29405-66.30428-86.11098-132.918379-129.26562-199.312506-4.63488-7.132024-10.10628-13.71567-17.83935-24.122477" fill="#db3132"/><path d="m194.265788 1341.56104c-54.60553-150.19387-70.858614-301.18706-48.502103-459.70885 15.565287 23.914899 29.262367 44.877225 42.881993 65.889123 39.328374 60.690367 78.269475 121.634787 118.201995 181.925487 9.440173 14.25165 11.779303 23.60818.390371 39.84887-36.893199 52.6103-70.691311 107.39242-105.691519 161.32874-1.642039 2.53122-3.386317 4.99428-7.280737 10.71663" fill="#1e5775"/><path d="m1934.82827 881.498068c21.94445 159.231272 6.49999 309.493292-48.52689 458.091592-40.72566-63.57168-79.98587-125.13263-119.66434-186.42405-4.7805-7.38298-.25095-11.36105 2.96187-16.33054 43.30025-66.99517 86.62218-133.97176 129.95031-200.945248 10.92421-16.888212 21.88869-33.751639 35.27905-54.391754" fill="#1e5775"/><path d="m1191.0077 898.876103c.55458 82.873379-66.11219 150.791817-147.78347 150.553877-85.144353-.24848-152.520605-64.229119-153.214599-145.494539-.731171-85.652452 64.507333-153.29205 148.242009-153.706161 85.88481-.419301 152.18909 64.100424 152.75606 148.646823" fill="#d12c32"/></g></svg>