<svg height="4096" viewBox="0 0 4096 4096" width="4096" xmlns="http://www.w3.org/2000/svg"><g fill="none" fill-rule="evenodd"><path d="m467.364103 2279.42975c3.313559 2.78115-25.35319 39.95531-29.44919 45.54321-57.076185 77.73385-129.774934 152.79411-182.665846 231.58306-8.633108 12.85576-14.598564 16.52299 4.573866 15.02229l960.422727-798.77842 814.67865 1280.08089 845.4039-1259.93678 877.03762 752.77425c23.24217 9.71609-13.56407-36.71832-16.3735-40.39579-55.9104-73.07812-118.3639-141.54147-180.67561-207.91513-4.35857-4.64036-7.93469-12.06188-10.45005-17.97758h546.13333c-35.41465 374.78399-185.42802 744.2669-423.27434 1039.19661-557.8962 691.80923-1509.24997 963.63442-2361.21797 644.60143-716.915526-268.46527-1255.4870131-928.55508-1311.50769-1683.79804z" fill="#007aff"/><g fill="#ff3b2f"><path d="m1978.6815 1261.72275c419.92927-36.45198 705.46773 372.33577 502.66322 736.11809-215.70691 386.91246-820.07171 312.23634-933.69895-113.90926-76.27487-286.07408 123.32636-595.49854 431.03573-622.20883"/><path d="m1486.11282 804.345841 543.55495-804.345841 527.70659 804.345841z"/></g></g></svg>