<svg height="2048" viewBox="0 0 2048 2048" width="2048" xmlns="http://www.w3.org/2000/svg" xmlns:xlink="http://www.w3.org/1999/xlink"><mask id="a" fill="#fff"><path d="m156.336 0v144.225h-156.336v-144.225z" fill="#fff" fill-rule="evenodd"/></mask><mask id="b" fill="#fff"><path d="m156.336 0v144.225h-156.336v-144.225z" fill="#fff" fill-rule="evenodd"/></mask><mask id="c" fill="#fff"><path d="m156.336 0v144.225h-156.336v-144.225z" fill="#fff" fill-rule="evenodd"/></mask><mask id="d" fill="#fff"><path d="m156.336 0v144.225h-156.336v-144.225z" fill="#fff" fill-rule="evenodd"/></mask><mask id="e" fill="#fff"><path d="m156.336 0v144.225h-156.336v-144.225z" fill="#fff" fill-rule="evenodd"/></mask><mask id="f" fill="#fff"><path d="m156.336 0v144.225h-156.336v-144.225z" fill="#fff" fill-rule="evenodd"/></mask><mask id="g" fill="#fff"><path d="m156.336 0v144.225h-156.336v-144.225z" fill="#fff" fill-rule="evenodd"/></mask><mask id="h" fill="#fff"><path d="m156.336 0v144.225h-156.336v-144.225z" fill="#fff" fill-rule="evenodd"/></mask><mask id="i" fill="#fff"><path d="m156.336 0v144.225h-156.336v-144.225z" fill="#fff" fill-rule="evenodd"/></mask><mask id="j" fill="#fff"><path d="m156.336 0v144.225h-156.336v-144.225z" fill="#fff" fill-rule="evenodd"/></mask><mask id="k" fill="#fff"><path d="m156.336 0v144.225h-156.336v-144.225z" fill="#fff" fill-rule="evenodd"/></mask><mask id="l" fill="#fff"><path d="m156.336 0v144.225h-156.336v-144.225z" fill="#fff" fill-rule="evenodd"/></mask><mask id="m" fill="#fff"><path d="m156.336 0v144.225h-156.336v-144.225z" fill="#fff" fill-rule="evenodd"/></mask><mask id="n" fill="#fff"><path d="m156.336 0v144.225h-156.336v-144.225z" fill="#fff" fill-rule="evenodd"/></mask><mask id="o" fill="#fff"><path d="m156.336 0v144.225h-156.336v-144.225z" fill="#fff" fill-rule="evenodd"/></mask><mask id="p" fill="#fff"><path d="m156.336 0v144.225h-156.336v-144.225z" fill="#fff" fill-rule="evenodd"/></mask><mask id="q" fill="#fff"><path d="m156.336 0v144.225h-156.336v-144.225z" fill="#fff" fill-rule="evenodd"/></mask><mask id="r" fill="#fff"><path d="m156.336 0v144.225h-156.336v-144.225z" fill="#fff" fill-rule="evenodd"/></mask><mask id="s" fill="#fff"><path d="m156.336 0v144.225h-156.336v-144.225z" fill="#fff" fill-rule="evenodd"/></mask><mask id="t" fill="#fff"><path d="m156.336 0v144.225h-156.336v-144.225z" fill="#fff" fill-rule="evenodd"/></mask><mask id="u" fill="#fff"><path d="m156.336 0v144.225h-156.336v-144.225z" fill="#fff" fill-rule="evenodd"/></mask><mask id="v" fill="#fff"><path d="m156.336 0v144.225h-156.336v-144.225z" fill="#fff" fill-rule="evenodd"/></mask><mask id="w" fill="#fff"><path d="m156.336 0v144.225h-156.336v-144.225z" fill="#fff" fill-rule="evenodd"/></mask><mask id="x" fill="#fff"><path d="m156.336 0v144.225h-156.336v-144.225z" fill="#fff" fill-rule="evenodd"/></mask><mask id="y" fill="#fff"><path d="m156.336 0v144.225h-156.336v-144.225z" fill="#fff" fill-rule="evenodd"/></mask><mask id="z" fill="#fff"><path d="m156.336 0v144.225h-156.336v-144.225z" fill="#fff" fill-rule="evenodd"/></mask><mask id="A" fill="#fff"><path d="m156.336 0v144.225h-156.336v-144.225z" fill="#fff" fill-rule="evenodd"/></mask><mask id="B" fill="#fff"><path d="m156.336 0v144.225h-156.336v-144.225z" fill="#fff" fill-rule="evenodd"/></mask><mask id="C" fill="#fff"><path d="m156.336 0v144.225h-156.336v-144.225z" fill="#fff" fill-rule="evenodd"/></mask><mask id="D" fill="#fff"><path d="m156.336 0v144.225h-156.336v-144.225z" fill="#fff" fill-rule="evenodd"/></mask><mask id="E" fill="#fff"><path d="m156.336 0v144.225h-156.336v-144.225z" fill="#fff" fill-rule="evenodd"/></mask><mask id="F" fill="#fff"><path d="m156.336 0v144.225h-156.336v-144.225z" fill="#fff" fill-rule="evenodd"/></mask><mask id="G" fill="#fff"><path d="m156.336 0v144.225h-156.336v-144.225z" fill="#fff" fill-rule="evenodd"/></mask><mask id="H" fill="#fff"><path d="m156.336 0v144.225h-156.336v-144.225z" fill="#fff" fill-rule="evenodd"/></mask><mask id="I" fill="#fff"><path d="m156.336 0v144.225h-156.336v-144.225z" fill="#fff" fill-rule="evenodd"/></mask><mask id="J" fill="#fff"><path d="m156.336 0v144.225h-156.336v-144.225z" fill="#fff" fill-rule="evenodd"/></mask><mask id="K" fill="#fff"><path d="m156.336 0v144.225h-156.336v-144.225z" fill="#fff" fill-rule="evenodd"/></mask><mask id="L" fill="#fff"><path d="m156.336 0v144.225h-156.336v-144.225z" fill="#fff" fill-rule="evenodd"/></mask><mask id="M" fill="#fff"><path d="m156.336 0v144.225h-156.336v-144.225z" fill="#fff" fill-rule="evenodd"/></mask><mask id="N" fill="#fff"><path d="m156.336 0v144.225h-156.336v-144.225z" fill="#fff" fill-rule="evenodd"/></mask><mask id="O" fill="#fff"><path d="m156.336 0v144.225h-156.336v-144.225z" fill="#fff" fill-rule="evenodd"/></mask><mask id="P" fill="#fff"><path d="m156.336 0v144.225h-156.336v-144.225z" fill="#fff" fill-rule="evenodd"/></mask><mask id="Q" fill="#fff"><path d="m156.336 0v144.225h-156.336v-144.225z" fill="#fff" fill-rule="evenodd"/></mask><mask id="R" fill="#fff"><path d="m156.336 0v144.225h-156.336v-144.225z" fill="#fff" fill-rule="evenodd"/></mask><mask id="S" fill="#fff"><path d="m156.336 0v144.225h-156.336v-144.225z" fill="#fff" fill-rule="evenodd"/></mask><mask id="T" fill="#fff"><path d="m156.336 0v144.225h-156.336v-144.225z" fill="#fff" fill-rule="evenodd"/></mask><mask id="U" fill="#fff"><path d="m156.336 0v144.225h-156.336v-144.225z" fill="#fff" fill-rule="evenodd"/></mask><mask id="V" fill="#fff"><path d="m156.336 0v144.225h-156.336v-144.225z" fill="#fff" fill-rule="evenodd"/></mask><mask id="W" fill="#fff"><path d="m156.336 0v144.225h-156.336v-144.225z" fill="#fff" fill-rule="evenodd"/></mask><mask id="X" fill="#fff"><path d="m156.336 0v144.225h-156.336v-144.225z" fill="#fff" fill-rule="evenodd"/></mask><mask id="Y" fill="#fff"><path d="m156.336 0v144.225h-156.336v-144.225z" fill="#fff" fill-rule="evenodd"/></mask><mask id="Z" fill="#fff"><path d="m156.336 0v144.225h-156.336v-144.225z" fill="#fff" fill-rule="evenodd"/></mask><mask id="aa" fill="#fff"><path d="m156.336 0v144.225h-156.336v-144.225z" fill="#fff" fill-rule="evenodd"/></mask><mask id="ab" fill="#fff"><path d="m156.336 0v144.225h-156.336v-144.225z" fill="#fff" fill-rule="evenodd"/></mask><mask id="ac" fill="#fff"><path d="m156.336 0v144.225h-156.336v-144.225z" fill="#fff" fill-rule="evenodd"/></mask><mask id="ad" fill="#fff"><path d="m156.336 0v144.225h-156.336v-144.225z" fill="#fff" fill-rule="evenodd"/></mask><mask id="ae" fill="#fff"><path d="m156.336 0v144.225h-156.336v-144.225z" fill="#fff" fill-rule="evenodd"/></mask><mask id="af" fill="#fff"><path d="m156.336 0v144.225h-156.336v-144.225z" fill="#fff" fill-rule="evenodd"/></mask><mask id="ag" fill="#fff"><path d="m156.336 0v144.225h-156.336v-144.225z" fill="#fff" fill-rule="evenodd"/></mask><mask id="ah" fill="#fff"><path d="m156.336 0v144.225h-156.336v-144.225z" fill="#fff" fill-rule="evenodd"/></mask><mask id="ai" fill="#fff"><path d="m156.336 0v144.225h-156.336v-144.225z" fill="#fff" fill-rule="evenodd"/></mask><mask id="aj" fill="#fff"><path d="m156.336 0v144.225h-156.336v-144.225z" fill="#fff" fill-rule="evenodd"/></mask><mask id="ak" fill="#fff"><path d="m156.336 0v144.225h-156.336v-144.225z" fill="#fff" fill-rule="evenodd"/></mask><mask id="al" fill="#fff"><path d="m156.336 0v144.225h-156.336v-144.225z" fill="#fff" fill-rule="evenodd"/></mask><mask id="am" fill="#fff"><path d="m156.336 0v144.225h-156.336v-144.225z" fill="#fff" fill-rule="evenodd"/></mask><mask id="an" fill="#fff"><path d="m156.336 0v144.225h-156.336v-144.225z" fill="#fff" fill-rule="evenodd"/></mask><mask id="ao" fill="#fff"><path d="m156.336 0v144.225h-156.336v-144.225z" fill="#fff" fill-rule="evenodd"/></mask><mask id="ap" fill="#fff"><path d="m156.336 0v144.225h-156.336v-144.225z" fill="#fff" fill-rule="evenodd"/></mask><mask id="aq" fill="#fff"><path d="m156.336 0v144.225h-156.336v-144.225z" fill="#fff" fill-rule="evenodd"/></mask><mask id="ar" fill="#fff"><path d="m156.336 0v144.225h-156.336v-144.225z" fill="#fff" fill-rule="evenodd"/></mask><mask id="as" fill="#fff"><path d="m156.336 0v144.225h-156.336v-144.225z" fill="#fff" fill-rule="evenodd"/></mask><mask id="at" fill="#fff"><path d="m156.336 0v144.225h-156.336v-144.225z" fill="#fff" fill-rule="evenodd"/></mask><mask id="au" fill="#fff"><path d="m156.336 0v144.225h-156.336v-144.225z" fill="#fff" fill-rule="evenodd"/></mask><mask id="av" fill="#fff"><path d="m156.336 0v144.225h-156.336v-144.225z" fill="#fff" fill-rule="evenodd"/></mask><mask id="aw" fill="#fff"><path d="m156.336 0v144.225h-156.336v-144.225z" fill="#fff" fill-rule="evenodd"/></mask><mask id="ax" fill="#fff"><path d="m156.336 0v144.225h-156.336v-144.225z" fill="#fff" fill-rule="evenodd"/></mask><mask id="ay" fill="#fff"><path d="m156.336 0v144.225h-156.336v-144.225z" fill="#fff" fill-rule="evenodd"/></mask><mask id="az" fill="#fff"><path d="m156.336 0v144.225h-156.336v-144.225z" fill="#fff" fill-rule="evenodd"/></mask><mask id="aA" fill="#fff"><path d="m156.336 0v144.225h-156.336v-144.225z" fill="#fff" fill-rule="evenodd"/></mask><mask id="aB" fill="#fff"><path d="m156.336 0v144.225h-156.336v-144.225z" fill="#fff" fill-rule="evenodd"/></mask><mask id="aC" fill="#fff"><path d="m156.336 0v144.225h-156.336v-144.225z" fill="#fff" fill-rule="evenodd"/></mask><mask id="aD" fill="#fff"><path d="m156.336 0v144.225h-156.336v-144.225z" fill="#fff" fill-rule="evenodd"/></mask><mask id="aE" fill="#fff"><path d="m156.336 0v144.225h-156.336v-144.225z" fill="#fff" fill-rule="evenodd"/></mask><mask id="aF" fill="#fff"><path d="m156.336 0v144.225h-156.336v-144.225z" fill="#fff" fill-rule="evenodd"/></mask><mask id="aG" fill="#fff"><path d="m156.336 0v144.225h-156.336v-144.225z" fill="#fff" fill-rule="evenodd"/></mask><mask id="aH" fill="#fff"><path d="m156.336 0v144.225h-156.336v-144.225z" fill="#fff" fill-rule="evenodd"/></mask><mask id="aI" fill="#fff"><path d="m156.336 0v144.225h-156.336v-144.225z" fill="#fff" fill-rule="evenodd"/></mask><mask id="aJ" fill="#fff"><path d="m156.336 0v144.225h-156.336v-144.225z" fill="#fff" fill-rule="evenodd"/></mask><mask id="aK" fill="#fff"><path d="m156.336 0v144.225h-156.336v-144.225z" fill="#fff" fill-rule="evenodd"/></mask><mask id="aL" fill="#fff"><path d="m156.336 0v144.225h-156.336v-144.225z" fill="#fff" fill-rule="evenodd"/></mask><mask id="aM" fill="#fff"><path d="m156.336 0v144.225h-156.336v-144.225z" fill="#fff" fill-rule="evenodd"/></mask><mask id="aN" fill="#fff"><path d="m156.336 0v144.225h-156.336v-144.225z" fill="#fff" fill-rule="evenodd"/></mask><mask id="aO" fill="#fff"><path d="m156.336 0v144.225h-156.336v-144.225z" fill="#fff" fill-rule="evenodd"/></mask><mask id="aP" fill="#fff"><path d="m156.336 0v144.225h-156.336v-144.225z" fill="#fff" fill-rule="evenodd"/></mask><mask id="aQ" fill="#fff"><path d="m156.336 0v144.225h-156.336v-144.225z" fill="#fff" fill-rule="evenodd"/></mask><mask id="aR" fill="#fff"><path d="m156.336 0v144.225h-156.336v-144.225z" fill="#fff" fill-rule="evenodd"/></mask><mask id="aS" fill="#fff"><path d="m156.336 0v144.225h-156.336v-144.225z" fill="#fff" fill-rule="evenodd"/></mask><mask id="aT" fill="#fff"><path d="m156.336 0v144.225h-156.336v-144.225z" fill="#fff" fill-rule="evenodd"/></mask><mask id="aU" fill="#fff"><path d="m156.336 0v144.225h-156.336v-144.225z" fill="#fff" fill-rule="evenodd"/></mask><mask id="aV" fill="#fff"><path d="m156.336 0v144.225h-156.336v-144.225z" fill="#fff" fill-rule="evenodd"/></mask><mask id="aW" fill="#fff"><path d="m156.336 0v144.225h-156.336v-144.225z" fill="#fff" fill-rule="evenodd"/></mask><mask id="aX" fill="#fff"><path d="m156.336 0v144.225h-156.336v-144.225z" fill="#fff" fill-rule="evenodd"/></mask><mask id="aY" fill="#fff"><path d="m156.336 0v144.225h-156.336v-144.225z" fill="#fff" fill-rule="evenodd"/></mask><mask id="aZ" fill="#fff"><path d="m156.336 0v144.225h-156.336v-144.225z" fill="#fff" fill-rule="evenodd"/></mask><mask id="a0" fill="#fff"><path d="m156.336 0v144.225h-156.336v-144.225z" fill="#fff" fill-rule="evenodd"/></mask><mask id="a1" fill="#fff"><path d="m156.336 0v144.225h-156.336v-144.225z" fill="#fff" fill-rule="evenodd"/></mask><mask id="a2" fill="#fff"><path d="m156.336 0v144.225h-156.336v-144.225z" fill="#fff" fill-rule="evenodd"/></mask><mask id="a3" fill="#fff"><path d="m156.336 0v144.225h-156.336v-144.225z" fill="#fff" fill-rule="evenodd"/></mask><mask id="a4" fill="#fff"><path d="m156.336 0v144.225h-156.336v-144.225z" fill="#fff" fill-rule="evenodd"/></mask><mask id="a5" fill="#fff"><path d="m156.336 0v144.225h-156.336v-144.225z" fill="#fff" fill-rule="evenodd"/></mask><mask id="a6" fill="#fff"><path d="m156.336 0v144.225h-156.336v-144.225z" fill="#fff" fill-rule="evenodd"/></mask><mask id="a7" fill="#fff"><path d="m156.336 0v144.225h-156.336v-144.225z" fill="#fff" fill-rule="evenodd"/></mask><mask id="a8" fill="#fff"><path d="m156.336 0v144.225h-156.336v-144.225z" fill="#fff" fill-rule="evenodd"/></mask><mask id="a9" fill="#fff"><path d="m156.336 0v144.225h-156.336v-144.225z" fill="#fff" fill-rule="evenodd"/></mask><mask id="ba" fill="#fff"><path d="m156.336 0v144.225h-156.336v-144.225z" fill="#fff" fill-rule="evenodd"/></mask><mask id="bb" fill="#fff"><path d="m156.336 0v144.225h-156.336v-144.225z" fill="#fff" fill-rule="evenodd"/></mask><mask id="bc" fill="#fff"><path d="m156.336 0v144.225h-156.336v-144.225z" fill="#fff" fill-rule="evenodd"/></mask><mask id="bd" fill="#fff"><path d="m156.336 0v144.225h-156.336v-144.225z" fill="#fff" fill-rule="evenodd"/></mask><mask id="be" fill="#fff"><path d="m156.336 0v144.225h-156.336v-144.225z" fill="#fff" fill-rule="evenodd"/></mask><mask id="bf" fill="#fff"><path d="m156.336 0v144.225h-156.336v-144.225z" fill="#fff" fill-rule="evenodd"/></mask><mask id="bg" fill="#fff"><path d="m156.336 0v144.225h-156.336v-144.225z" fill="#fff" fill-rule="evenodd"/></mask><mask id="bh" fill="#fff"><path d="m156.336 0v144.225h-156.336v-144.225z" fill="#fff" fill-rule="evenodd"/></mask><mask id="bi" fill="#fff"><path d="m156.336 0v144.225h-156.336v-144.225z" fill="#fff" fill-rule="evenodd"/></mask><mask id="bj" fill="#fff"><path d="m156.336 0v144.225h-156.336v-144.225z" fill="#fff" fill-rule="evenodd"/></mask><mask id="bk" fill="#fff"><path d="m156.336 0v144.225h-156.336v-144.225z" fill="#fff" fill-rule="evenodd"/></mask><mask id="bl" fill="#fff"><path d="m156.336 0v144.225h-156.336v-144.225z" fill="#fff" fill-rule="evenodd"/></mask><mask id="bm" fill="#fff"><path d="m156.336 0v144.225h-156.336v-144.225z" fill="#fff" fill-rule="evenodd"/></mask><mask id="bn" fill="#fff"><path d="m156.336 0v144.225h-156.336v-144.225z" fill="#fff" fill-rule="evenodd"/></mask><mask id="bo" fill="#fff"><path d="m156.336 0v144.225h-156.336v-144.225z" fill="#fff" fill-rule="evenodd"/></mask><mask id="bp" fill="#fff"><path d="m156.336 0v144.225h-156.336v-144.225z" fill="#fff" fill-rule="evenodd"/></mask><mask id="bq" fill="#fff"><path d="m156.336 0v144.225h-156.336v-144.225z" fill="#fff" fill-rule="evenodd"/></mask><mask id="br" fill="#fff"><path d="m156.336 0v144.225h-156.336v-144.225z" fill="#fff" fill-rule="evenodd"/></mask><mask id="bs" fill="#fff"><path d="m156.336 0v144.225h-156.336v-144.225z" fill="#fff" fill-rule="evenodd"/></mask><mask id="bt" fill="#fff"><path d="m156.336 0v144.225h-156.336v-144.225z" fill="#fff" fill-rule="evenodd"/></mask><mask id="bu" fill="#fff"><path d="m156.336 0v144.225h-156.336v-144.225z" fill="#fff" fill-rule="evenodd"/></mask><mask id="bv" fill="#fff"><path d="m156.336 0v144.225h-156.336v-144.225z" fill="#fff" fill-rule="evenodd"/></mask><mask id="bw" fill="#fff"><path d="m156.336 0v144.225h-156.336v-144.225z" fill="#fff" fill-rule="evenodd"/></mask><mask id="bx" fill="#fff"><path d="m156.336 0v144.225h-156.336v-144.225z" fill="#fff" fill-rule="evenodd"/></mask><mask id="by" fill="#fff"><path d="m156.336 0v144.225h-156.336v-144.225z" fill="#fff" fill-rule="evenodd"/></mask><mask id="bz" fill="#fff"><path d="m156.336 0v144.225h-156.336v-144.225z" fill="#fff" fill-rule="evenodd"/></mask><mask id="bA" fill="#fff"><path d="m156.336 0v144.225h-156.336v-144.225z" fill="#fff" fill-rule="evenodd"/></mask><mask id="bB" fill="#fff"><path d="m156.336 0v144.225h-156.336v-144.225z" fill="#fff" fill-rule="evenodd"/></mask><mask id="bC" fill="#fff"><path d="m156.336 0v144.225h-156.336v-144.225z" fill="#fff" fill-rule="evenodd"/></mask><mask id="bD" fill="#fff"><path d="m156.336 0v144.225h-156.336v-144.225z" fill="#fff" fill-rule="evenodd"/></mask><mask id="bE" fill="#fff"><path d="m156.336 0v144.225h-156.336v-144.225z" fill="#fff" fill-rule="evenodd"/></mask><mask id="bF" fill="#fff"><path d="m156.336 0v144.225h-156.336v-144.225z" fill="#fff" fill-rule="evenodd"/></mask><mask id="bG" fill="#fff"><path d="m156.336 0v144.225h-156.336v-144.225z" fill="#fff" fill-rule="evenodd"/></mask><mask id="bH" fill="#fff"><path d="m156.336 0v144.225h-156.336v-144.225z" fill="#fff" fill-rule="evenodd"/></mask><mask id="bI" fill="#fff"><path d="m156.336 0v144.225h-156.336v-144.225z" fill="#fff" fill-rule="evenodd"/></mask><mask id="bJ" fill="#fff"><path d="m156.336 0v144.225h-156.336v-144.225z" fill="#fff" fill-rule="evenodd"/></mask><mask id="bK" fill="#fff"><path d="m156.336 0v144.225h-156.336v-144.225z" fill="#fff" fill-rule="evenodd"/></mask><mask id="bL" fill="#fff"><path d="m156.336 0v144.225h-156.336v-144.225z" fill="#fff" fill-rule="evenodd"/></mask><mask id="bM" fill="#fff"><path d="m156.336 0v144.225h-156.336v-144.225z" fill="#fff" fill-rule="evenodd"/></mask><mask id="bN" fill="#fff"><path d="m156.336 0v144.225h-156.336v-144.225z" fill="#fff" fill-rule="evenodd"/></mask><mask id="bO" fill="#fff"><path d="m156.336 0v144.225h-156.336v-144.225z" fill="#fff" fill-rule="evenodd"/></mask><mask id="bP" fill="#fff"><path d="m156.336 0v144.225h-156.336v-144.225z" fill="#fff" fill-rule="evenodd"/></mask><mask id="bQ" fill="#fff"><path d="m156.336 0v144.225h-156.336v-144.225z" fill="#fff" fill-rule="evenodd"/></mask><mask id="bR" fill="#fff"><path d="m156.336 0v144.225h-156.336v-144.225z" fill="#fff" fill-rule="evenodd"/></mask><mask id="bS" fill="#fff"><path d="m156.336 0v144.225h-156.336v-144.225z" fill="#fff" fill-rule="evenodd"/></mask><mask id="bT" fill="#fff"><path d="m156.336 0v144.225h-156.336v-144.225z" fill="#fff" fill-rule="evenodd"/></mask><mask id="bU" fill="#fff"><path d="m156.336 0v144.225h-156.336v-144.225z" fill="#fff" fill-rule="evenodd"/></mask><mask id="bV" fill="#fff"><path d="m156.336 0v144.225h-156.336v-144.225z" fill="#fff" fill-rule="evenodd"/></mask><mask id="bW" fill="#fff"><path d="m156.336 0v144.225h-156.336v-144.225z" fill="#fff" fill-rule="evenodd"/></mask><mask id="bX" fill="#fff"><path d="m156.336 0v144.225h-156.336v-144.225z" fill="#fff" fill-rule="evenodd"/></mask><mask id="bY" fill="#fff"><path d="m156.336 0v144.225h-156.336v-144.225z" fill="#fff" fill-rule="evenodd"/></mask><mask id="bZ" fill="#fff"><path d="m156.336 0v144.225h-156.336v-144.225z" fill="#fff" fill-rule="evenodd"/></mask><mask id="b0" fill="#fff"><path d="m156.336 0v144.225h-156.336v-144.225z" fill="#fff" fill-rule="evenodd"/></mask><mask id="b1" fill="#fff"><path d="m156.336 0v144.225h-156.336v-144.225z" fill="#fff" fill-rule="evenodd"/></mask><mask id="b2" fill="#fff"><path d="m156.336 0v144.225h-156.336v-144.225z" fill="#fff" fill-rule="evenodd"/></mask><mask id="b3" fill="#fff"><path d="m156.336 0v144.225h-156.336v-144.225z" fill="#fff" fill-rule="evenodd"/></mask><mask id="b4" fill="#fff"><path d="m156.336 0v144.225h-156.336v-144.225z" fill="#fff" fill-rule="evenodd"/></mask><mask id="b5" fill="#fff"><path d="m156.336 0v144.225h-156.336v-144.225z" fill="#fff" fill-rule="evenodd"/></mask><mask id="b6" fill="#fff"><path d="m156.336 0v144.225h-156.336v-144.225z" fill="#fff" fill-rule="evenodd"/></mask><mask id="b7" fill="#fff"><path d="m156.336 0v144.225h-156.336v-144.225z" fill="#fff" fill-rule="evenodd"/></mask><mask id="b8" fill="#fff"><path d="m156.336 0v144.225h-156.336v-144.225z" fill="#fff" fill-rule="evenodd"/></mask><mask id="b9" fill="#fff"><path d="m156.336 0v144.225h-156.336v-144.225z" fill="#fff" fill-rule="evenodd"/></mask><mask id="ca" fill="#fff"><path d="m156.336 0v144.225h-156.336v-144.225z" fill="#fff" fill-rule="evenodd"/></mask><mask id="cb" fill="#fff"><path d="m156.336 0v144.225h-156.336v-144.225z" fill="#fff" fill-rule="evenodd"/></mask><mask id="cc" fill="#fff"><path d="m156.336 0v144.225h-156.336v-144.225z" fill="#fff" fill-rule="evenodd"/></mask><mask id="cd" fill="#fff"><path d="m156.336 0v144.225h-156.336v-144.225z" fill="#fff" fill-rule="evenodd"/></mask><mask id="ce" fill="#fff"><path d="m156.336 0v144.225h-156.336v-144.225z" fill="#fff" fill-rule="evenodd"/></mask><mask id="cf" fill="#fff"><path d="m156.336 0v144.225h-156.336v-144.225z" fill="#fff" fill-rule="evenodd"/></mask><mask id="cg" fill="#fff"><path d="m156.336 0v144.225h-156.336v-144.225z" fill="#fff" fill-rule="evenodd"/></mask><mask id="ch" fill="#fff"><path d="m156.336 0v144.225h-156.336v-144.225z" fill="#fff" fill-rule="evenodd"/></mask><mask id="ci" fill="#fff"><path d="m156.336 0v144.225h-156.336v-144.225z" fill="#fff" fill-rule="evenodd"/></mask><mask id="cj" fill="#fff"><path d="m156.336 0v144.225h-156.336v-144.225z" fill="#fff" fill-rule="evenodd"/></mask><mask id="ck" fill="#fff"><path d="m156.336 0v144.225h-156.336v-144.225z" fill="#fff" fill-rule="evenodd"/></mask><mask id="cl" fill="#fff"><path d="m156.336 0v144.225h-156.336v-144.225z" fill="#fff" fill-rule="evenodd"/></mask><mask id="cm" fill="#fff"><path d="m156.336 0v144.225h-156.336v-144.225z" fill="#fff" fill-rule="evenodd"/></mask><mask id="cn" fill="#fff"><path d="m156.336 0v144.225h-156.336v-144.225z" fill="#fff" fill-rule="evenodd"/></mask><mask id="co" fill="#fff"><path d="m156.336 0v144.225h-156.336v-144.225z" fill="#fff" fill-rule="evenodd"/></mask><mask id="cp" fill="#fff"><path d="m156.336 0v144.225h-156.336v-144.225z" fill="#fff" fill-rule="evenodd"/></mask><mask id="cq" fill="#fff"><path d="m156.336 0v144.225h-156.336v-144.225z" fill="#fff" fill-rule="evenodd"/></mask><mask id="cr" fill="#fff"><path d="m156.336 0v144.225h-156.336v-144.225z" fill="#fff" fill-rule="evenodd"/></mask><mask id="cs" fill="#fff"><path d="m156.336 0v144.225h-156.336v-144.225z" fill="#fff" fill-rule="evenodd"/></mask><mask id="ct" fill="#fff"><path d="m156.336 0v144.225h-156.336v-144.225z" fill="#fff" fill-rule="evenodd"/></mask><mask id="cu" fill="#fff"><path d="m156.336 0v144.225h-156.336v-144.225z" fill="#fff" fill-rule="evenodd"/></mask><mask id="cv" fill="#fff"><path d="m156.336 0v144.225h-156.336v-144.225z" fill="#fff" fill-rule="evenodd"/></mask><mask id="cw" fill="#fff"><path d="m156.336 0v144.225h-156.336v-144.225z" fill="#fff" fill-rule="evenodd"/></mask><mask id="cx" fill="#fff"><path d="m156.336 0v144.225h-156.336v-144.225z" fill="#fff" fill-rule="evenodd"/></mask><mask id="cy" fill="#fff"><path d="m156.336 0v144.225h-156.336v-144.225z" fill="#fff" fill-rule="evenodd"/></mask><mask id="cz" fill="#fff"><path d="m156.336 0v144.225h-156.336v-144.225z" fill="#fff" fill-rule="evenodd"/></mask><mask id="cA" fill="#fff"><path d="m156.336 0v144.225h-156.336v-144.225z" fill="#fff" fill-rule="evenodd"/></mask><mask id="cB" fill="#fff"><path d="m156.336 0v144.225h-156.336v-144.225z" fill="#fff" fill-rule="evenodd"/></mask><mask id="cC" fill="#fff"><path d="m156.336 0v144.225h-156.336v-144.225z" fill="#fff" fill-rule="evenodd"/></mask><mask id="cD" fill="#fff"><path d="m156.336 0v144.225h-156.336v-144.225z" fill="#fff" fill-rule="evenodd"/></mask><mask id="cE" fill="#fff"><path d="m156.336 0v144.225h-156.336v-144.225z" fill="#fff" fill-rule="evenodd"/></mask><mask id="cF" fill="#fff"><path d="m156.336 0v144.225h-156.336v-144.225z" fill="#fff" fill-rule="evenodd"/></mask><g fill="none"><path d="m0 0h156.336v144.225h-156.336z" fill="#000" mask="url(#a)" transform="translate(687.878)"/><path d="m0 0h156.336v144.225h-156.336z" fill="#000" mask="url(#b)" transform="translate(859.847)"/><path d="m0 0h156.336v144.225h-156.336z" fill="#000" mask="url(#c)" transform="translate(687.878)"/><g fill="#fff"><path d="m0 0h156.336v144.225h-156.336z" mask="url(#d)"/><path d="m0 0h156.336v144.225h-156.336z" mask="url(#e)" transform="translate(171.97)"/><path d="m0 0h156.336v144.225h-156.336z" mask="url(#f)" transform="translate(343.939)"/><path d="m0 0h156.336v144.225h-156.336z" mask="url(#g)" transform="translate(515.908)"/><path d="m0 0h156.336v144.225h-156.336z" mask="url(#h)" transform="translate(515.908)"/></g><path d="m0 0h156.336v144.225h-156.336z" fill="#000" mask="url(#i)" transform="translate(687.878 158.648)"/><path d="m0 0h156.336v144.225h-156.336z" fill="#000" mask="url(#j)" transform="translate(859.847 158.648)"/><path d="m0 0h156.336v144.225h-156.336z" fill="#000" mask="url(#k)" transform="translate(687.878 158.648)"/><path d="m0 0h156.336v144.225h-156.336z" fill="#fff" mask="url(#l)" transform="translate(0 158.648)"/><path d="m0 0h156.336v144.225h-156.336z" fill="#fff" mask="url(#m)" transform="translate(171.97 158.648)"/><path d="m0 0h156.336v144.225h-156.336z" fill="#fff" mask="url(#n)" transform="translate(343.939 158.648)"/><path d="m0 0h156.336v144.225h-156.336z" fill="#fff" mask="url(#o)" transform="translate(515.908 158.648)"/><g fill="#000"><path d="m0 0h156.336v144.225h-156.336z" mask="url(#p)" transform="translate(515.908 158.648)"/><path d="m0 0h156.336v144.225h-156.336z" mask="url(#q)" transform="translate(687.878 317.296)"/><path d="m0 0h156.336v144.225h-156.336z" mask="url(#r)" transform="translate(859.847 317.296)"/><path d="m0 0h156.336v144.225h-156.336z" mask="url(#s)" transform="translate(687.878 317.296)"/></g><path d="m0 0h156.336v144.225h-156.336z" fill="#fff" mask="url(#t)" transform="translate(0 317.296)"/><path d="m0 0h156.336v144.225h-156.336z" fill="#fff" mask="url(#u)" transform="translate(171.97 317.296)"/><path d="m0 0h156.336v144.225h-156.336z" fill="#000" mask="url(#v)" transform="translate(343.939 317.296)"/><path d="m0 0h156.336v144.225h-156.336z" fill="#fff" mask="url(#w)" transform="translate(515.908 317.296)"/><path d="m0 0h156.336v144.225h-156.336z" fill="#000" mask="url(#x)" transform="translate(515.908 317.296)"/><path d="m0 0h156.336v144.225h-156.336z" fill="#000" mask="url(#y)" transform="translate(687.878 793.24)"/><path d="m0 0h156.336v144.225h-156.336z" fill="#fff" mask="url(#z)" transform="translate(859.847 793.24)"/><path d="m0 0h156.336v144.225h-156.336z" fill="#000" mask="url(#A)" transform="translate(687.878 793.24)"/><path d="m0 0h156.336v144.225h-156.336z" fill="#fff" mask="url(#B)" transform="translate(0 793.24)"/><path d="m0 0h156.336v144.225h-156.336z" fill="#000" mask="url(#C)" transform="translate(171.97 793.24)"/><path d="m0 0h156.336v144.225h-156.336z" fill="#000" mask="url(#D)" transform="translate(343.939 793.24)"/><path d="m0 0h156.336v144.225h-156.336z" fill="#fff" mask="url(#E)" transform="translate(515.908 793.24)"/><path d="m0 0h156.336v144.225h-156.336z" fill="#000" mask="url(#F)" transform="translate(515.908 793.24)"/><path d="m0 0h156.336v144.225h-156.336z" fill="#000" mask="url(#G)" transform="translate(687.878 951.887)"/><path d="m0 0h156.336v144.225h-156.336z" fill="#fff" mask="url(#H)" transform="translate(859.847 951.887)"/><path d="m0 0h156.336v144.225h-156.336z" fill="#fff" mask="url(#I)" transform="translate(687.878 951.887)"/><path d="m0 0h156.336v144.225h-156.336z" fill="#000" mask="url(#J)" transform="translate(0 951.887)"/><path d="m0 0h156.336v144.225h-156.336z" fill="#000" mask="url(#K)" transform="translate(171.97 951.887)"/><path d="m0 0h156.336v144.225h-156.336z" fill="#000" mask="url(#L)" transform="translate(343.939 951.887)"/><path d="m0 0h156.336v144.225h-156.336z" fill="#fff" mask="url(#M)" transform="translate(515.908 951.887)"/><path d="m0 0h156.336v144.225h-156.336z" fill="#000" mask="url(#N)" transform="translate(515.908 951.887)"/><path d="m0 0h156.336v144.225h-156.336z" fill="#000" mask="url(#O)" transform="translate(687.878 1110.535)"/><path d="m0 0h156.336v144.225h-156.336z" fill="#fff" mask="url(#P)" transform="translate(859.847 1110.535)"/><path d="m0 0h156.336v144.225h-156.336z" fill="#fff" mask="url(#Q)" transform="translate(687.878 1110.535)"/><path d="m0 0h156.336v144.225h-156.336z" fill="#000" mask="url(#R)" transform="translate(0 1110.535)"/><path d="m0 0h156.336v144.225h-156.336z" fill="#000" mask="url(#S)" transform="translate(171.97 1110.535)"/><path d="m0 0h156.336v144.225h-156.336z" fill="#000" mask="url(#T)" transform="translate(343.939 1110.535)"/><path d="m0 0h156.336v144.225h-156.336z" fill="#fff" mask="url(#U)" transform="translate(515.908 1110.535)"/><path d="m0 0h156.336v144.225h-156.336z" fill="#fff" mask="url(#V)" transform="translate(515.908 1110.535)"/><path d="m0 0h156.336v144.225h-156.336z" fill="#000" mask="url(#W)" transform="translate(687.878 1269.183)"/><path d="m0 0h156.336v144.225h-156.336z" fill="#fff" mask="url(#X)" transform="translate(859.847 1269.183)"/><path d="m0 0h156.336v144.225h-156.336z" fill="#fff" mask="url(#Y)" transform="translate(687.878 1269.183)"/><path d="m0 0h156.336v144.225h-156.336z" fill="#000" mask="url(#Z)" transform="translate(0 1269.183)"/><path d="m0 0h156.336v144.225h-156.336z" fill="#fff" mask="url(#aa)" transform="translate(171.97 1269.183)"/><path d="m0 0h156.336v144.225h-156.336z" fill="#000" mask="url(#ab)" transform="translate(343.939 1269.183)"/><path d="m0 0h156.336v144.225h-156.336z" fill="#fff" mask="url(#ac)" transform="translate(515.908 1269.183)"/><path d="m0 0h156.336v144.225h-156.336z" fill="#fff" mask="url(#ad)" transform="translate(515.908 1269.183)"/><path d="m0 0h156.336v144.225h-156.336z" fill="#000" mask="url(#ae)" transform="translate(687.878 1427.831)"/><path d="m0 0h156.336v144.225h-156.336z" fill="#fff" mask="url(#af)" transform="translate(859.847 1427.831)"/><path d="m0 0h156.336v144.225h-156.336z" fill="#fff" mask="url(#ag)" transform="translate(687.878 1427.831)"/><path d="m0 0h156.336v144.225h-156.336z" fill="#fff" mask="url(#ah)" transform="translate(0 1427.831)"/><path d="m0 0h156.336v144.225h-156.336z" fill="#fff" mask="url(#ai)" transform="translate(171.97 1427.831)"/><path d="m0 0h156.336v144.225h-156.336z" fill="#000" mask="url(#aj)" transform="translate(343.939 1427.831)"/><path d="m0 0h156.336v144.225h-156.336z" fill="#fff" mask="url(#ak)" transform="translate(515.908 1427.831)"/><path d="m0 0h156.336v144.225h-156.336z" fill="#000" mask="url(#al)" transform="translate(515.908 1427.831)"/><path d="m0 0h156.336v144.225h-156.336z" fill="#000" mask="url(#am)" transform="translate(687.878 1586.479)"/><path d="m0 0h156.336v144.225h-156.336z" fill="#000" mask="url(#an)" transform="translate(859.847 1586.479)"/><path d="m0 0h156.336v144.225h-156.336z" fill="#000" mask="url(#ao)" transform="translate(687.878 1586.479)"/><path d="m0 0h156.336v144.225h-156.336z" fill="#fff" mask="url(#ap)" transform="translate(0 1586.479)"/><path d="m0 0h156.336v144.225h-156.336z" fill="#000" mask="url(#aq)" transform="translate(171.97 1586.479)"/><path d="m0 0h156.336v144.225h-156.336z" fill="#f1b800" mask="url(#ar)" transform="translate(343.939 1586.479)"/><path d="m0 0h156.336v144.225h-156.336z" fill="#fff" mask="url(#as)" transform="translate(515.908 1586.479)"/><path d="m0 0h156.336v144.225h-156.336z" fill="#f1b800" mask="url(#at)" transform="translate(515.908 1586.479)"/><path d="m0 0h156.336v144.225h-156.336z" fill="#000" mask="url(#au)" transform="translate(687.878 1745.127)"/><path d="m0 0h156.336v144.225h-156.336z" fill="#000" mask="url(#av)" transform="translate(859.847 1745.127)"/><path d="m0 0h156.336v144.225h-156.336z" fill="#000" mask="url(#aw)" transform="translate(687.878 1745.127)"/><path d="m0 0h156.336v144.225h-156.336z" fill="#fff" mask="url(#ax)" transform="translate(0 1745.127)"/><path d="m0 0h156.336v144.225h-156.336z" fill="#000" mask="url(#ay)" transform="translate(171.97 1745.127)"/><path d="m0 0h156.336v144.225h-156.336z" fill="#f1b800" mask="url(#az)" transform="translate(343.939 1745.127)"/><path d="m0 0h156.336v144.225h-156.336z" fill="#fff" mask="url(#aA)" transform="translate(515.908 1745.127)"/><path d="m0 0h156.336v144.225h-156.336z" fill="#f1b800" mask="url(#aB)" transform="translate(515.908 1745.127)"/><path d="m0 0h156.336v144.225h-156.336z" fill="#000" mask="url(#aC)" transform="translate(687.878 1903.775)"/><path d="m0 0h156.336v144.225h-156.336z" fill="#fff" mask="url(#aD)" transform="translate(859.847 1903.775)"/><path d="m0 0h156.336v144.225h-156.336z" fill="#fff" mask="url(#aE)" transform="translate(687.878 1903.775)"/><path d="m0 0h156.336v144.225h-156.336z" fill="#fff" mask="url(#aF)" transform="translate(0 1903.775)"/><path d="m0 0h156.336v144.225h-156.336z" fill="#fff" mask="url(#aG)" transform="translate(171.97 1903.775)"/><path d="m0 0h156.336v144.225h-156.336z" fill="#000" mask="url(#aH)" transform="translate(343.939 1903.775)"/><path d="m0 0h156.336v144.225h-156.336z" fill="#fff" mask="url(#aI)" transform="translate(515.908 1903.775)"/><path d="m0 0h156.336v144.225h-156.336z" fill="#000" mask="url(#aJ)" transform="translate(515.908 1903.775)"/><path d="m0 0h156.336v144.225h-156.336z" fill="#000" mask="url(#aK)" transform="translate(687.878 634.591)"/><path d="m0 0h156.336v144.225h-156.336z" fill="#f1b900" mask="url(#aL)" transform="translate(859.847 634.591)"/><path d="m0 0h156.336v144.225h-156.336z" fill="#000" mask="url(#aM)" transform="translate(687.878 634.591)"/><path d="m0 0h156.336v144.225h-156.336z" fill="#fff" mask="url(#aN)" transform="translate(0 634.591)"/><path d="m0 0h156.336v144.225h-156.336z" fill="#fff" mask="url(#aO)" transform="translate(171.97 634.591)"/><path d="m0 0h156.336v144.225h-156.336z" fill="#000" mask="url(#aP)" transform="translate(343.939 634.591)"/><path d="m0 0h156.336v144.225h-156.336z" fill="#fff" mask="url(#aQ)" transform="translate(515.908 634.591)"/><path d="m0 0h156.336v144.225h-156.336z" fill="#000" mask="url(#aR)" transform="translate(515.908 634.591)"/><path d="m0 0h156.336v144.225h-156.336z" fill="#000" mask="url(#aS)" transform="translate(687.878 475.944)"/><path d="m0 0h156.336v144.225h-156.336z" fill="#000" mask="url(#aT)" transform="translate(859.847 475.944)"/><path d="m0 0h156.336v144.225h-156.336z" fill="#fff" mask="url(#aU)" transform="translate(687.878 475.944)"/><path d="m0 0h156.336v144.225h-156.336z" fill="#fff" mask="url(#aV)" transform="translate(0 475.944)"/><path d="m0 0h156.336v144.225h-156.336z" fill="#fff" mask="url(#aW)" transform="translate(171.97 475.944)"/><path d="m0 0h156.336v144.225h-156.336z" fill="#000" mask="url(#aX)" transform="translate(343.939 475.944)"/><path d="m0 0h156.336v144.225h-156.336z" fill="#fff" mask="url(#aY)" transform="translate(515.908 475.944)"/><path d="m0 0h156.336v144.225h-156.336z" fill="#000" mask="url(#aZ)" transform="translate(515.908 475.944)"/><g transform="matrix(-1 0 0 1 2048 0)"><path d="m0 0h156.336v144.225h-156.336z" fill="#000" mask="url(#a0)" transform="translate(687.878)"/><path d="m0 0h156.336v144.225h-156.336z" fill="#000" mask="url(#a1)" transform="translate(859.847)"/><path d="m0 0h156.336v144.225h-156.336z" fill="#000" mask="url(#a2)" transform="translate(687.878)"/><g fill="#fff"><path d="m0 0h156.336v144.225h-156.336z" mask="url(#a3)"/><path d="m0 0h156.336v144.225h-156.336z" mask="url(#a4)" transform="translate(171.97)"/><path d="m0 0h156.336v144.225h-156.336z" mask="url(#a5)" transform="translate(343.939)"/><path d="m0 0h156.336v144.225h-156.336z" mask="url(#a6)" transform="translate(515.908)"/><path d="m0 0h156.336v144.225h-156.336z" mask="url(#a7)" transform="translate(515.908)"/></g><path d="m0 0h156.336v144.225h-156.336z" fill="#000" mask="url(#a8)" transform="translate(687.878 158.648)"/><path d="m0 0h156.336v144.225h-156.336z" fill="#000" mask="url(#a9)" transform="translate(859.847 158.648)"/><path d="m0 0h156.336v144.225h-156.336z" fill="#000" mask="url(#ba)" transform="translate(687.878 158.648)"/><path d="m0 0h156.336v144.225h-156.336z" fill="#fff" mask="url(#bb)" transform="translate(0 158.648)"/><path d="m0 0h156.336v144.225h-156.336z" fill="#fff" mask="url(#bc)" transform="translate(171.97 158.648)"/><path d="m0 0h156.336v144.225h-156.336z" fill="#fff" mask="url(#bd)" transform="translate(343.939 158.648)"/><path d="m0 0h156.336v144.225h-156.336z" fill="#fff" mask="url(#be)" transform="translate(515.908 158.648)"/><g fill="#000"><path d="m0 0h156.336v144.225h-156.336z" mask="url(#bf)" transform="translate(515.908 158.648)"/><path d="m0 0h156.336v144.225h-156.336z" mask="url(#bg)" transform="translate(687.878 317.296)"/><path d="m0 0h156.336v144.225h-156.336z" mask="url(#bh)" transform="translate(859.847 317.296)"/><path d="m0 0h156.336v144.225h-156.336z" mask="url(#bi)" transform="translate(687.878 317.296)"/></g><path d="m0 0h156.336v144.225h-156.336z" fill="#fff" mask="url(#bj)" transform="translate(0 317.296)"/><path d="m0 0h156.336v144.225h-156.336z" fill="#fff" mask="url(#bk)" transform="translate(171.97 317.296)"/><path d="m0 0h156.336v144.225h-156.336z" fill="#000" mask="url(#bl)" transform="translate(343.939 317.296)"/><path d="m0 0h156.336v144.225h-156.336z" fill="#fff" mask="url(#bm)" transform="translate(515.908 317.296)"/><path d="m0 0h156.336v144.225h-156.336z" fill="#000" mask="url(#bn)" transform="translate(515.908 317.296)"/><path d="m0 0h156.336v144.225h-156.336z" fill="#000" mask="url(#bo)" transform="translate(687.878 793.24)"/><path d="m0 0h156.336v144.225h-156.336z" fill="#fff" mask="url(#bp)" transform="translate(859.847 793.24)"/><path d="m0 0h156.336v144.225h-156.336z" fill="#000" mask="url(#bq)" transform="translate(687.878 793.24)"/><path d="m0 0h156.336v144.225h-156.336z" fill="#fff" mask="url(#br)" transform="translate(0 793.24)"/><path d="m0 0h156.336v144.225h-156.336z" fill="#000" mask="url(#bs)" transform="translate(171.97 793.24)"/><path d="m0 0h156.336v144.225h-156.336z" fill="#000" mask="url(#bt)" transform="translate(343.939 793.24)"/><path d="m0 0h156.336v144.225h-156.336z" fill="#fff" mask="url(#bu)" transform="translate(515.908 793.24)"/><path d="m0 0h156.336v144.225h-156.336z" fill="#000" mask="url(#bv)" transform="translate(515.908 793.24)"/><path d="m0 0h156.336v144.225h-156.336z" fill="#000" mask="url(#bw)" transform="translate(687.878 951.887)"/><path d="m0 0h156.336v144.225h-156.336z" fill="#fff" mask="url(#bx)" transform="translate(859.847 951.887)"/><path d="m0 0h156.336v144.225h-156.336z" fill="#fff" mask="url(#by)" transform="translate(687.878 951.887)"/><path d="m0 0h156.336v144.225h-156.336z" fill="#000" mask="url(#bz)" transform="translate(0 951.887)"/><path d="m0 0h156.336v144.225h-156.336z" fill="#000" mask="url(#bA)" transform="translate(171.97 951.887)"/><path d="m0 0h156.336v144.225h-156.336z" fill="#000" mask="url(#bB)" transform="translate(343.939 951.887)"/><path d="m0 0h156.336v144.225h-156.336z" fill="#fff" mask="url(#bC)" transform="translate(515.908 951.887)"/><path d="m0 0h156.336v144.225h-156.336z" fill="#000" mask="url(#bD)" transform="translate(515.908 951.887)"/><path d="m0 0h156.336v144.225h-156.336z" fill="#000" mask="url(#bE)" transform="translate(687.878 1110.535)"/><path d="m0 0h156.336v144.225h-156.336z" fill="#fff" mask="url(#bF)" transform="translate(859.847 1110.535)"/><path d="m0 0h156.336v144.225h-156.336z" fill="#fff" mask="url(#bG)" transform="translate(687.878 1110.535)"/><path d="m0 0h156.336v144.225h-156.336z" fill="#000" mask="url(#bH)" transform="translate(0 1110.535)"/><path d="m0 0h156.336v144.225h-156.336z" fill="#000" mask="url(#bI)" transform="translate(171.97 1110.535)"/><path d="m0 0h156.336v144.225h-156.336z" fill="#000" mask="url(#bJ)" transform="translate(343.939 1110.535)"/><path d="m0 0h156.336v144.225h-156.336z" fill="#fff" mask="url(#bK)" transform="translate(515.908 1110.535)"/><path d="m0 0h156.336v144.225h-156.336z" fill="#fff" mask="url(#bL)" transform="translate(515.908 1110.535)"/><path d="m0 0h156.336v144.225h-156.336z" fill="#000" mask="url(#bM)" transform="translate(687.878 1269.183)"/><path d="m0 0h156.336v144.225h-156.336z" fill="#fff" mask="url(#bN)" transform="translate(859.847 1269.183)"/><path d="m0 0h156.336v144.225h-156.336z" fill="#fff" mask="url(#bO)" transform="translate(687.878 1269.183)"/><path d="m0 0h156.336v144.225h-156.336z" fill="#000" mask="url(#bP)" transform="translate(0 1269.183)"/><path d="m0 0h156.336v144.225h-156.336z" fill="#fff" mask="url(#bQ)" transform="translate(171.97 1269.183)"/><path d="m0 0h156.336v144.225h-156.336z" fill="#000" mask="url(#bR)" transform="translate(343.939 1269.183)"/><path d="m0 0h156.336v144.225h-156.336z" fill="#fff" mask="url(#bS)" transform="translate(515.908 1269.183)"/><path d="m0 0h156.336v144.225h-156.336z" fill="#fff" mask="url(#bT)" transform="translate(515.908 1269.183)"/><path d="m0 0h156.336v144.225h-156.336z" fill="#000" mask="url(#bU)" transform="translate(687.878 1427.831)"/><path d="m0 0h156.336v144.225h-156.336z" fill="#fff" mask="url(#bV)" transform="translate(859.847 1427.831)"/><path d="m0 0h156.336v144.225h-156.336z" fill="#fff" mask="url(#bW)" transform="translate(687.878 1427.831)"/><path d="m0 0h156.336v144.225h-156.336z" fill="#fff" mask="url(#bX)" transform="translate(0 1427.831)"/><path d="m0 0h156.336v144.225h-156.336z" fill="#fff" mask="url(#bY)" transform="translate(171.97 1427.831)"/><path d="m0 0h156.336v144.225h-156.336z" fill="#000" mask="url(#bZ)" transform="translate(343.939 1427.831)"/><path d="m0 0h156.336v144.225h-156.336z" fill="#fff" mask="url(#b0)" transform="translate(515.908 1427.831)"/><path d="m0 0h156.336v144.225h-156.336z" fill="#000" mask="url(#b1)" transform="translate(515.908 1427.831)"/><path d="m0 0h156.336v144.225h-156.336z" fill="#000" mask="url(#b2)" transform="translate(687.878 1586.479)"/><path d="m0 0h156.336v144.225h-156.336z" fill="#000" mask="url(#b3)" transform="translate(859.847 1586.479)"/><path d="m0 0h156.336v144.225h-156.336z" fill="#000" mask="url(#b4)" transform="translate(687.878 1586.479)"/><path d="m0 0h156.336v144.225h-156.336z" fill="#fff" mask="url(#b5)" transform="translate(0 1586.479)"/><path d="m0 0h156.336v144.225h-156.336z" fill="#000" mask="url(#b6)" transform="translate(171.97 1586.479)"/><path d="m0 0h156.336v144.225h-156.336z" fill="#f1b800" mask="url(#b7)" transform="translate(343.939 1586.479)"/><path d="m0 0h156.336v144.225h-156.336z" fill="#fff" mask="url(#b8)" transform="translate(515.908 1586.479)"/><path d="m0 0h156.336v144.225h-156.336z" fill="#f1b800" mask="url(#b9)" transform="translate(515.908 1586.479)"/><path d="m0 0h156.336v144.225h-156.336z" fill="#000" mask="url(#ca)" transform="translate(687.878 1745.127)"/><path d="m0 0h156.336v144.225h-156.336z" fill="#000" mask="url(#cb)" transform="translate(859.847 1745.127)"/><path d="m0 0h156.336v144.225h-156.336z" fill="#000" mask="url(#cc)" transform="translate(687.878 1745.127)"/><path d="m0 0h156.336v144.225h-156.336z" fill="#fff" mask="url(#cd)" transform="translate(0 1745.127)"/><path d="m0 0h156.336v144.225h-156.336z" fill="#000" mask="url(#ce)" transform="translate(171.97 1745.127)"/><path d="m0 0h156.336v144.225h-156.336z" fill="#f1b800" mask="url(#cf)" transform="translate(343.939 1745.127)"/><path d="m0 0h156.336v144.225h-156.336z" fill="#fff" mask="url(#cg)" transform="translate(515.908 1745.127)"/><path d="m0 0h156.336v144.225h-156.336z" fill="#f1b800" mask="url(#ch)" transform="translate(515.908 1745.127)"/><path d="m0 0h156.336v144.225h-156.336z" fill="#000" mask="url(#ci)" transform="translate(687.878 1903.775)"/><path d="m0 0h156.336v144.225h-156.336z" fill="#fff" mask="url(#cj)" transform="translate(859.847 1903.775)"/><path d="m0 0h156.336v144.225h-156.336z" fill="#fff" mask="url(#ck)" transform="translate(687.878 1903.775)"/><path d="m0 0h156.336v144.225h-156.336z" fill="#fff" mask="url(#cl)" transform="translate(0 1903.775)"/><path d="m0 0h156.336v144.225h-156.336z" fill="#fff" mask="url(#cm)" transform="translate(171.97 1903.775)"/><path d="m0 0h156.336v144.225h-156.336z" fill="#000" mask="url(#cn)" transform="translate(343.939 1903.775)"/><path d="m0 0h156.336v144.225h-156.336z" fill="#fff" mask="url(#co)" transform="translate(515.908 1903.775)"/><path d="m0 0h156.336v144.225h-156.336z" fill="#000" mask="url(#cp)" transform="translate(515.908 1903.775)"/><path d="m0 0h156.336v144.225h-156.336z" fill="#000" mask="url(#cq)" transform="translate(687.878 634.591)"/><path d="m0 0h156.336v144.225h-156.336z" fill="#f1b900" mask="url(#cr)" transform="translate(859.847 634.591)"/><path d="m0 0h156.336v144.225h-156.336z" fill="#000" mask="url(#cs)" transform="translate(687.878 634.591)"/><path d="m0 0h156.336v144.225h-156.336z" fill="#fff" mask="url(#ct)" transform="translate(0 634.591)"/><path d="m0 0h156.336v144.225h-156.336z" fill="#fff" mask="url(#cu)" transform="translate(171.97 634.591)"/><path d="m0 0h156.336v144.225h-156.336z" fill="#000" mask="url(#cv)" transform="translate(343.939 634.591)"/><path d="m0 0h156.336v144.225h-156.336z" fill="#fff" mask="url(#cw)" transform="translate(515.908 634.591)"/><path d="m0 0h156.336v144.225h-156.336z" fill="#000" mask="url(#cx)" transform="translate(515.908 634.591)"/><path d="m0 0h156.336v144.225h-156.336z" fill="#000" mask="url(#cy)" transform="translate(687.878 475.944)"/><path d="m0 0h156.336v144.225h-156.336z" fill="#000" mask="url(#cz)" transform="translate(859.847 475.944)"/><path d="m0 0h156.336v144.225h-156.336z" fill="#fff" mask="url(#cA)" transform="translate(687.878 475.944)"/><path d="m0 0h156.336v144.225h-156.336z" fill="#fff" mask="url(#cB)" transform="translate(0 475.944)"/><path d="m0 0h156.336v144.225h-156.336z" fill="#fff" mask="url(#cC)" transform="translate(171.97 475.944)"/><path d="m0 0h156.336v144.225h-156.336z" fill="#000" mask="url(#cD)" transform="translate(343.939 475.944)"/><path d="m0 0h156.336v144.225h-156.336z" fill="#fff" mask="url(#cE)" transform="translate(515.908 475.944)"/><path d="m0 0h156.336v144.225h-156.336z" fill="#000" mask="url(#cF)" transform="translate(515.908 475.944)"/></g></g></svg>