<svg height="1597" viewBox="0 0 3021 1597" width="3021" xmlns="http://www.w3.org/2000/svg" xmlns:xlink="http://www.w3.org/1999/xlink"><linearGradient id="a" x1="50%" x2="50%" y1="0%" y2="100%"><stop offset="0" stop-color="#fff"/><stop offset="1" stop-color="#fff"/></linearGradient><mask id="b" fill="#fff"><path d="m0 0h576v576h-576z" fill="#fff" fill-rule="evenodd"/></mask><g fill="none" fill-rule="evenodd"><path d="m0 0h3021v1597h-3021z" fill="url(#a)"/><g transform="translate(1127 511)"><text fill="#211f2b" font-family="SFCompactRounded-Regular, SF Compact Rounded" font-size="201" letter-spacing="-1.51127795"><tspan x="2" y="191">PythonDev</tspan></text><text fill="#000" font-family="SFCompactDisplay-Medium, SF Compact Display" font-size="66" font-weight="400" letter-spacing="-.496240602"><tspan x="0" y="300">Develop in Python like a pro</tspan> <tspan x="0" y="379"/><tspan font-family="SFCompactDisplay-Thin, SF Compact Display" font-size="54" font-weight="300" letter-spacing="-.406015038" x="0" y="418">A secure, Alpine-based Docker environment that accelerates </tspan><tspan font-family="SFCompactDisplay-Thin, SF Compact Display" font-size="54" font-weight="300" letter-spacing="-.406015038" x="0" y="482">your Python workflow with a fully configured NeoVim, </tspan><tspan font-family="SFCompactDisplay-Thin, SF Compact Display" font-size="54" font-weight="300" letter-spacing="-.406015038" x="0" y="546">powerful developer tools, and hardened security features.</tspan></text></g><g fill-rule="nonzero" transform="translate(515 511)"><path d="m559.222141 288.214303c0-149.915399-121.53051-271.4451391-271.44524-271.4451391-149.915455 0-271.4459649 121.5297401-271.4459649 271.4451391s121.5305099 271.445137 271.4459649 271.445137c149.91473 0 271.44524-121.529738 271.44524-271.445137m16.777859-.214303c0 159.058002-128.942047 288-288.00011 288-159.058061 0-288.0001072-128.941998-288.0001072-288s128.9420462-288 288.0001072-288c159.058063 0 288.00011 128.941998 288.00011 288" fill="#92c44c" mask="url(#b)"/><path d="m546.669327 288.552501c0-143.249376-116.126864-259.3753627-259.375707-259.3753627-143.249566 0-259.375708 116.1259867-259.375708 259.3753627 0 143.249374 116.126142 259.37536 259.375708 259.37536 143.248843 0 259.375707-116.125986 259.375707-259.37536m12.330673-.052863c0 149.945498-121.554304 271.500362-271.5 271.500362-149.945697 0-271.5-121.554864-271.5-271.500362 0-149.944773 121.554303-271.499638 271.5-271.499638 149.945696 0 271.5 121.554865 271.5 271.499638" fill="#6db856"/><path d="m180.663317 125.910206c-.402039-.212589-1.732526.210419-2.169273 0-5.198301-2.507684-6.584467-3.832388-13.015639-5.061645-42.885082-8.19914-77.2738456 29.775484-85.8193356 68.560695-4.2951608 19.496731-2.8967027 52.895629 4.1100494 71.719161.2928519.787448.6153505 1.177195.7230912 1.446185-.1757112 1.477277.7187523 2.883691.4013155 4.358075-.6435511 2.984924-4.2676833 9.485522-5.4774148 13.343218-8.3603784 26.669805-3.9249381 49.716915 10.8608276 72.685211 23.9936067 37.271781 72.8651597 55.605056 111.3712037 74.824841 12.410411 6.194009 23.469366 13.236201 36.670115 18.284829 63.248772 24.190322 95.829808 1.154055 150.335688-25.760154 35.84796-17.700569 76.721403-33.052537 98.599969-68.795698 14.914475-24.366034 17.192213-48.501401 7.967017-75.576135-.88434-2.594454-4.157772-8.308328-4.341438-10.175351-.365885-3.733325 4.254668-19.343436 4.984989-24.586576 4.433272-31.83485 2.154089-61.196726-16.69834-88.016933-15.69903-22.331974-40.007181-36.607258-67.836787-32.311368-6.609775 1.020283-11.947632 1.836654-18.077275 5.061645-26.550457-8.897648-54.283889-15.589865-82.432377-16.631117-1.044143-.596551-.827938-.587151-2.169273-.723093-20.786699-2.103474-44.588686-.390469-65.33706 2.271956-21.26683 2.728949-42.5756 7.734192-62.650053 15.082254m365.336683 163.089794c0 143.042068-115.958494 259-259.000361 259-143.041146 0-258.999639-115.957932-258.999639-259s115.958493-259 258.999639-259c143.041867 0 259.000361 115.957932 259.000361 259" fill="#283b30"/><path d="m152.823762 324.769988c-2.027908 2.533746-1.450884 9.415803 1.969988 10.968256 3.251457 1.475188 11.541189-1.820341 11.520272-5.764294-.008043-1.61816-4.277436-7.253201-5.7609-7.934113-2.358772-1.083107-6.332052.984183-7.72936 2.730151zm254.414402-5.865384c-.86662.255614-1.544277 1.498299-2.482574 1.885328-3.189194 1.313448-9.581338.309047-8.763225 5.385927.655939 4.068148 3.359333 5.833611 7.442659 5.572943 4.519171-.288828 10.269132-14.746131 3.80314-12.844198zm-239.589176-4.985896c-4.295457.535774-4.815285 1.280231-3.688026 5.459575.848521 3.148953 4.621978 8.864865 8.363579 7.939891.663903-.163908 6.467439-4.425572 6.709253-4.913692 3.488928-7.058964-6.187253-9.133474-11.384806-8.485774zm218.708464-4.421276c-4.091288-.002852-12.537404.338688-12.178302 5.927516.299008 4.656634 1.537038 7.046687 6.355219 5.754181 5.970779-1.601554 8.26584-5.832887 5.823083-11.681697zm-183.266784 9.094516c3.140687-3.893404-1.66229-10.533569-6.532598-9.051879-.657386.200015-3.528023 2.916444-3.787937 3.491213-2.482575 5.502902 7.180573 9.453351 10.320535 5.560666zm13.225923-12.804481c-.749333.023107-1.576134-.625313-2.919143-.407969-.597295.096757-6.746177 2.504142-7.032154 2.750367-2.317506 1.997969.764537 8.785435 2.358048 10.646934.169415.197847 3.919704 3.040639 4.16369 3.13162 1.770165.65853 4.85076-1.504795 5.601542-3.123676 6.324812 2.387166 9.864419-7.957944 3.600422-12.616744-2.43624-1.812397-3.397704-.452016-5.772405-.380532zm-19.373356-5.605434c-1.46102 1.460748-1.121467 6.251689 1.038208 6.954264 5.637017 1.834781 12.458489-9.173912 1.361832-7.778148-.736302.092426-1.891072.315546-2.40004.823884zm-9.782607-.802944c-.441637.065707-7.028535 4.482615-7.432523 4.93752-4.926056 5.541171 3.577978 12.399399 9.794191 7.601962 3.961696-3.057248 2.310989-13.233392-2.361668-12.539482zm188.944346-.719184c-5.144703 1.468692-4.273012 13.001608 3.772733 8.145682 5.127325-3.094796.001446-9.223011-3.772733-8.145682zm-39.804469-6.480585c-7.360847 1.151705-6.732422 15.766417-1.571066 16.519536 3.83789.559605 3.092177-2.136608 4.342514-3.59519 1.741931-2.029742 6.905456-2.000135 5.247509-7.466933-.548063-1.805901-6.093857-5.759239-8.018957-5.457413zm-57.619066-2.896225c-.414125.659972-.233126 8.158678.271497 9.272834.611051 1.348827 7.532435 4.923077 9.078886 5.387371 5.88752 1.767629 21.255016-1.467971 14.867217-9.054768-.448877-.53289-9.014448-4.848708-10.039626-5.146922-2.024286-.588488-13.238954-1.953201-14.177974-.458515zm82.245722-1.437643c-6.880115 1.336553-5.837564 15.502139 1.605821 12.50049 6.772964-2.731593 3.202224-13.434849-1.605821-12.50049zm-147.022918-.66936c-4.862344.418081-4.58433 5.859606-4.144141 9.626648.650146 5.564279 10.164152 3.519373 10.198309-2.195095.016523-2.787194-3.178463-7.678502-6.054168-7.431553zm104.315959-2.886116c-1.083096.287383-6.059108 3.334522-6.527532 4.338202-.70734 1.514904-.848519 5.798226-.540098 7.422885 1.210518 6.374443 16.89078-.470789 18.004284-4.50211 1.040379-3.767043-7.721397-8.111744-10.936654-7.258977zm-60.126258-1.479525c-1.586271.238284-8.221676 5.941199-9.202688 7.448162-4.610394 7.082793 2.251621 19.08072 11.216116 18.461906 6.66002-.459236 15.851849-12.829754 14.888213-19.162315-.221542-1.453528-7.056046-5.401091-8.700237-5.817003-1.094678-.276553-7.377499-1.054224-8.201404-.93075zm-26.029758-4.284767c-9.484322.511226-10.634025 10.522737-8.908023 17.912411 2.19877 9.417248 5.66453 1.919987 8.418603 5.328881 2.643302 3.272427-.117287 11.527861 8.118145 9.640368 4.797909-1.098993 4.801529-7.607737 3.794453-11.417382-.511864-1.93804-2.964031-3.9259-3.134894-4.772889-.196203-.974797 1.096851-2.899838 1.25251-4.298488.681278-6.11955-2.522396-12.771266-9.540794-12.392901zm114.308525-.810886c-2.022841.709074-4.37582 9.76312-.99694 11.633284 11.135751 6.165763 11.296477-15.243638.99694-11.633284zm-128.065136-5.040054c-6.550698.885981-8.100769 12.320693.576299 9.313268 7.420215-2.572737 2.890909-9.781892-.576299-9.313268zm138.977173-1.431144c-5.842633 1.726471-.139731 14.788732 3.334718 14.232015.259914-.041879 4.195544-2.509917 4.442425-2.830517 3.900157-5.071103-3.103761-12.78282-7.777143-11.401498zm-31.122332-5.003229c-3.468654.716295-11.333402 6.831512-9.577718 10.644046 1.904828 4.137466 12.649626 4.113637 16.67286 3.646458 10.359632-1.202248 4.201338-16.624237-7.095142-14.290504zm-48.745795 8.731281c-.689966 1.211634-1.360385 1.800844-.671142 3.349686.167966.376921 5.025242 5.181579 5.492217 5.406144.512589.245504 9.935373 2.500531 10.474022 2.496212 1.235136-.010845 3.578705-1.415994 3.879884-2.600913.655939-2.582847-3.941422-6.418487-4.147038-7.927615-.149141-1.090327 1.891798-1.690367 1.034589-4.586594-.463356-1.563283-5.225788-7.334073-6.720112-7.773814-5.400272-1.590722-9.994739.845545-9.702969 6.731144.114391 2.300518 1.50084 3.289033 1.547899 4.299932.027512.579823-1.004903.285218-1.18735.605818zm-29.419498-13.075981c-4.188306.741567-6.054038 2.412439-3.997895 6.539796 1.872249 3.75549 5.454571 3.146784 8.666209 4.349032 1.683286.630368 2.819232 2.30846 4.590122 2.641335 6.111958 1.148815 13.324386-.639755 11.906806-8.240272-.684174-3.665232-8.172445-5.158474-11.291411-5.375095-1.104091-.07654-9.052098-.060654-9.873831.085204zm57.174534-1.437643c-1.868628.389196-10.857016 5.077602-11.270416 6.843065-.127423.542998 1.379934 7.422888 1.724555 8.128351 1.94899 3.989442 7.335506 4.687684 11.171228 3.258706 11.182088-4.167793 10.071481-20.667833-1.625367-18.230122zm34.398403-2.155381c-.582814.580545-.944087 2.241308-.924538 3.081798.062263 2.656498 5.600095 10.102493 8.702408 8.666294 7.713432-3.569918-2.628098-16.877683-7.77787-11.748092zm-107.841083.047657c-.732682.587765-4.425052 5.752738-4.556095 6.697928-.629874 4.521608 3.413632 7.180994 7.269624 3.578583 6.496399-6.068283 3.090731-14.931702-2.713529-10.276511zm40.873808-13.062261c-5.410408 1.048446-5.187418 5.159195-4.123147 9.561661.696483 2.882507 4.891304 2.013856 7.245733 1.515627 9.482873-2.007357 4.535099-12.561866-3.122586-11.077288zm29.680135-.761063c-3.103039.55094-5.978018 5.550558-4.516274 8.554373.921644 1.894714 8.500414 4.244332 10.498637 3.257261 3.713367-1.83406 1.521113-13.143133-5.982363-11.811634zm24.245113-4.284046c-.784811.807997-.587882 3.169168-1.582651 3.839972-1.836772 1.23763-14.500876-1.53079-11.989342 3.932398 2.901046 6.310177 19.281411 7.157166 23.135955 2.12722 6.536217-8.529822-6.272686-13.287546-9.563962-9.89959zm-75.38226 4.089087c-.659558-.574047.263534-4.413297-4.128214-4.957738-8.866755-1.09827-12.221743 11.354563-2.505019 13.381416 5.05927 1.054945 15.431933 1.213079 19.216974-2.576349 8.74078-8.750776-11.237112-4.674686-12.583741-5.847329zm37.390673-18.573106c-3.23553.544442-9.36052 5.71158-9.8065 9.061267-1.996775 14.992356 24.723672 8.678569 22.280192-3.74827-.571229-2.906335-10.026592-5.724577-12.473692-5.312997zm28.956866-.68019c-11.343539 1.850667-8.942775 12.260762 1.990983 12.171947 10.842535-.088092 5.841184-13.450013-1.990983-12.171947zm-62.255524-.031772c-1.663739.303992-4.733474 2.410273-5.524075 3.931676-5.349592 10.295286 12.734331 10.48519 16.019816 2.95688 2.084379-4.775776-6.807716-7.563692-10.495741-6.888556zm41.251732-14.451525c-5.688421 1.148093-8.721232 10.288787-3.696712 14.22624 1.28002 1.002956 6.166981 2.548187 7.704744 2.150326 5.477014-1.418147 6.017115-18.399808-4.008032-16.376566zm-22.486531-.025994c-1.828085.618092-4.43012 7.598351-3.978347 9.462016.797117 3.286144 6.316124 7.986103 10.043969 6.745585 2.230626-.741567 6.130057-8.220054 5.668875-10.025231-.464805-1.821063-9.304773-7.003365-11.734497-6.18237zm45.844751-5.142588c-2.562938 4.06598-9.068026 4.96568-9.454638 10.472914-.392405 5.586662 4.538717 6.03218 9.089745 6.193924 1.495773.052711 3.039327-.898256 4.322245-.779837 2.282028.210123 4.367855 4.019769 7.869089 2.078842 5.031037-2.788637 5.45747-8.065531 4.841351-13.294768-.573404-4.869645-8.188373-9.461293-12.694513-6.860394 2.74249-5.980913-7.818412-10.617329-11.224078-6.132548-4.692932 6.181649 1.468258 8.964509 7.250799 8.321867zm-67.331446-.007221c5.481359.701131 11.145164-.15669 10.093925-6.817071-1.208346-7.653228-13.296151-3.173501-12.845102 1.936594.255569 2.896948 2.432619 2.678161 2.751177 4.880477-3.370916-.431076-4.604602-2.839905-8.957979-.628202-5.660185 2.87673-6.230692 19.752969 1.880937 19.248242 2.086551-.129251 4.40478-1.880995 6.027974-1.985695 4.347585-.280885 8.393263 3.361962 11.110413-3.345354 3.590286-8.860531-5.741997-8.771716-10.061345-13.288991zm42.715649-5.054496h-15.565873c-2.188634 0-3.563498 3.850082-3.131274 5.966471 1.519664 7.438774 15.959001 5.7253 20.52161 1.990749 3.507752-2.870953.815219-6.91816 1.893969-8.580367.187515-.288828 4.86886-1.786403 6.353048-2.690436 1.771614-1.078774 7.02781-5.315163 7.200846-7.282806.380821-4.317262-11.283447-6.853896-14.589927-5.858883-.897029.270055-1.50229 1.465082-2.507192 1.827562-1.632607.588487-5.351042.557438-5.8839 2.088229-.307699.883092 1.292328 9.646143 1.717313 10.381934.88255 1.528623 3.669203.649863 3.99138 2.157547zm-21.189858-17.165789c-1.46464.267166-5.16425 1.072275-6.502191 1.461471-6.474678 1.883883-3.943595 8.861975-.559647 12.471607 2.288545 2.441322 12.116764 2.961935 15.161884 1.369046 4.170204-2.182098 4.250568-10.159536.734854-12.89113-2.462305-1.913488-5.70435-2.982152-8.8349-2.410994zm60.891518-.049101c-.155657-.246948-4.787772-2.220368-5.379276-2.275967-1.605818-.150913-3.269556.686689-5.004245.77767-1.358213.070763-2.620135-.792112-4.006584-.472957-3.95518.908366-3.711916 7.630845-1.362556 10.103215 2.275512 2.395109 14.397345 5.045109 15.732389.641199.300459-.990681.349689-8.251103.020272-8.77316zm-87.65975-2.127943c-.830421.10109-5.603714 1.584224-5.973675 2.01891-.366341.429632-2.531807 6.291403-2.500675 6.888556.120183 2.335177 6.166981 5.373651 8.264392 5.400367 13.186827.168965 13.140492-15.88628.209958-14.307833zm41.231461-14.372097c-1.765823-.011553-9.503146.51628-10.295919 1.213079-1.76003 1.548842-3.060323 8.022928-2.372529 10.330667 1.713694 5.750572 17.907269 3.953337 18.653705-2.086785.360551-2.917888-2.633166-9.436021-5.985257-9.456961zm-16.53892 1.322112c-4.497451-.958911-14.955545-4.410409-15.816374 2.492588-1.031692 8.262656 10.163428 11.379114 15.482613 7.596185 1.030243-.732902.236022-8.298038.333761-10.088773zm44.813058-2.089673c-1.821566-1.850668-14.427027.606539-15.063419 5.200353-1.113501 8.031594 3.022674 9.500286 10.359631 8.170954 5.795572-1.049891 8.411362-9.604264 4.703788-13.371307zm4.997731-13.777112c-3.633726 1.219578-2.359496 13.339537 2.794618 14.303501 1.319117.246948 5.16063.246948 6.479747 0 5.315565-.992847 7.460758-13.128691.726167-14.406757-1.343735-.254891-8.916711-.260667-10.000532.103256zm-78.86105-1.389986c-14.151188 2.449986-4.91592 20.393446 6.740384 13.943187 3.868301-2.140217 4.241881-4.24722 3.533815-8.657629-.950604-5.924591-5.13167-6.175149-10.274199-5.285558zm48.333843-3.783651c-2.801134 3.725164-.033305 11.463596 4.166585 13.17346 3.30648 1.346662 13.275878-.197847 15.364601-3.081076 1.589168-2.192929 1.747722-10.092384-.707343-10.092384zm-9.049928 0h-17.013858c-1.226446 0-6.038111 9.099536 2.373976 12.074468 11.346435 4.011826 18.117228.723515 14.639882-12.074468zm-68.267569-8.586866c-3.80676.970463-6.788892 9.03094-2.372528 12.243433 3.761873 2.736648 13.244747-3.871744 8.323035-9.021553-.779017-.814496-4.912299-3.486158-5.950507-3.22188zm145.556107-.680191c-5.065062.535777-10.660088 6.378052-5.98888 10.726362 3.51644 3.274591 7.659858 4.110027 8.356341-1.803733.322178-2.73376.96798-9.275721-2.367461-8.922629zm-38.195754 9.267057c5.525523-1.408038 11.129237 2.715708 16.216743 2.151771 7.509267-.83327 1.099748-12.481716-3.700335-13.558323-7.580941-1.699755-12.939945 4.072479-12.516408 11.406552zm-77.644017-9.927029c-2.097411-1.984973-7.196501-1.948148-9.612469-.200014-1.800573 1.302616-7.420939 8.687234-5.823084 10.902547.857933 1.189973 13.021757 1.836226 14.876629 1.015232 3.693094-1.634768 3.156614-9.259836.558924-11.717765zm6.447891-8.007044c-2.4109.827493-3.490376 8.031594-2.298681 10.005014 1.171422 1.93876 9.356175 2.907057 11.242903 1.7994 1.914964-1.124264 1.97578-8.620081.781914-10.182643-1.337217-1.748133-7.80538-2.281021-9.726136-1.621771zm57.250552-.667193c-1.466087.270054-3.889294 1.330776-4.503965 2.725817-.301182.684523-.947711 7.552139-.768884 7.926172 1.091061 2.285354 11.895947 2.541689 13.730547-.772616 3.939976-7.118896-.923815-11.265749-8.457698-9.879373zm-21.017545-3.688338c-.776848.218788-4.858001 5.542616-5.188867 6.435817-2.739593 7.391117 14.743416 10.679428 14.676808 4.805382-.006517-.530722-3.100868-7.99549-3.572186-8.718283-1.080924-1.657153-3.960971-3.073856-5.915755-2.522916zm-18.0832-2.814632c-8.007375 1.662929-6.789617 8.111022-2.860501 13.353256 7.104553 9.480067 10.799095-5.074714 9.575545-11.717043-.484352-2.630504-4.633562-2.068733-6.715044-1.636213zm-60.06689-.702575c-4.706686.691744-6.340016 1.487466-5.440816 6.497193 1.32491 7.383897 15.479717 5.950586 15.812754.186295.435845-7.550695-4.304868-7.575245-10.371938-6.683488zm147.70854-2.21098c-5.348142.733623-5.866522 10.263514-1.801297 12.283146 3.252182 1.615995 8.310728 2.052847 10.554386-1.32861 4.799356-7.234428-1.634778-11.930054-8.753089-10.954536zm-131.061021-2.183543c-4.670486.741567-6.539115 5.991022-3.454176 9.633147.563991.665027 3.067563 2.457929 3.87554 2.392221 2.208906-.179074 7.761216-6.661103 7.719225-8.934183-.042716-2.324345-6.3878-3.369182-8.140589-3.091185zm101.711027 6.917439c2.649819 2.689713 12.148621-2.273079 8.580052-6.753528-1.186626-1.489633-7.022742-1.493243-8.46204-.359592-1.546451 1.218134-1.360385 5.851662-.118012 7.11312zm-83.600316-8.346417c-7.504923 1.024619-8.018234 8.62658.718926 9.820885 6.657125.909088 8.482314-11.077288-.718926-9.820885zm100.613451-.685245c-9.515452 1.738025.790601 14.101321 3.298519 13.462288 3.360056-.856376 9.345313-15.77147-3.298519-13.462288zm-84.012268-5.116594c-1.366177.309769-3.799521 4.128079-4.001515 5.473297-1.146807 7.666226 17.447533 7.029359 16.401361 0-.141179-.949523-1.902656-4.092697-2.766381-4.510054-.435845-.210123-9.161421-1.070831-9.633465-.963243zm20.638898-.680912c-.316385.184128-4.422155 5.490626-4.390666 5.855272.484718 5.538283 10.556201 6.765803 14.777086 6.3044 1.600027-.175463 2.486194-1.335831 3.541777-1.407316 3.43101-.232507 5.264884 3.077466 9.120879-.409414 2.513705-2.273801 2.38194-3.712166.562541-6.404046-1.783196-2.638447-7.137857-3.789428-10.361802-4.101362-1.685457-.162466-12.603288-.213011-13.249815.162466zm29.533889-.878761-3.46069 4.847984c-1.657947 6.232193 2.22266 8.549318 8.007372 7.278473 7.900224-1.735858 1.57324-9.155135-2.374701-11.404386 28.184366 1.039782 55.95171 7.722547 82.535324 16.607629-.872414.457793-1.689805 1.87955-2.171985 2.166212-15.219077 9.061989-26.531484 23.378487-34.889271 38.877015-.417022.326376-.967979.031771-1.310429.114809 1.363279-4.09703 3.080595-8.042425-1.645639-10.994972-5.957749-3.721553-15.278447 2.09906-12.037126 6.942711.200548.300381 5.40172 4.245776 5.728966 4.398133 1.718761.797166 5.982363.131417 7.953799-.345872-.601641 1.808065-3.099419 7.919673-4.713201 8.661239-1.479846.680191-3.782145-6.470476-5.038276-7.239482-4.296904-7.090013-20.507856 2.992262-15.278446 9.467071 4.227402 5.234291 14.841879 2.852902 19.230729-1.501907-1.489979 6.035067-4.439531 11.298241-6.151053 17.325367-4.635735 16.329631-8.965942 41.057668-1.211241 56.816141 4.977458 10.114046 9.393097 5.697861 9.583509-3.715776.193305-9.56816-1.837497-17.19034-.765987-27.823555 3.077699.935082 3.236979-3.247152 3.693095-3.543201 3.200053-2.072343 1.032414 3.506376 3.546845 4.265272-.343895 3.578583-.652316 7.229373-.723992 10.831062-1.30319-1.77485-1.253958-4.290545-1.986641-6.356389-.411952-1.16109.382994-1.932262-1.62971-1.582779-.21213 9.046825.894132 18.598378 2.892358 27.43508 5.065784 22.400081 22.636396 43.954617 42.715647 54.877381-4.385233 8.268435 2.053246 16.962889 11.109688 11.440489 2.306647-1.40587 3.029917-2.913554 2.646199-5.663921 37.505788 11.736538 68.568753-16.97733 78.191355-51.267028.758747-2.703434 3.278972-10.002125 1.784648-12.287479-.328694-.503284-1.605095-.455627-1.794058-1.221022-.271499-1.10188.614671-3.112125-.714583-3.821199.25195-2.743147 1.470433-7.63301 1.447989-10.108991 1.45957-1.284564 1.979399-3.572807 2.174153-5.413365 4.607499-43.493213-29.711991-105.984831-80.365511-95.676549.212856-3.541757-.729061-6.954986-2.171981-10.108991 27.864357-4.289822 52.202865 9.965299 67.921501 32.266456 18.875973 26.781607 21.158001 56.102014 16.719195 87.891903-.731235 5.235736-5.357555 20.8238-4.990491 24.551852.18317 1.864387 3.461416 7.570191 4.346134 10.160981 9.236717 27.036498 6.956137 51.137776-7.976966 75.469397.385166-1.751744-.892683-1.493965-1.906276-2.032631-6.551421-3.484711-14.312638-5.413362-21.261532-8.076361 2.997336-3.756212 7.166818-10.402151 9.535724-14.678976.837663-1.511294 5.68263-10.607944 4.940536-11.311963-7.50999-.665027-12.562745 7.339127-17.755952 11.528584-5.931685 4.785163-13.962226 8.978227-21.33176 10.859945-.002175 1.479522 2.865568.574046 3.650375.387029 6.059831-1.443418 11.538293-4.795993 17.337487-6.890001.808702.77695-5.652221 6.858952-6.502191 7.588245-2.477506 2.127942-5.191762 3.215381-7.250077 4.683349-.7725-1.132207-6.023631-3.515039-6.910523-3.59158-2.921315-.253445-8.17172-.885258-10.846154-.772616-2.58104.10831-5.696386 1.545953-7.898776 1.427536-1.807088-.096759-5.899828-3.005983-6.817126-.20507-1.240927 3.790872 2.263927 6.549906-4.975287 8.036648-6.527532 1.340886-14.709389-.958188-21.40416-.715571-5.660186-3.238488-1.19242-7.218542.20489-11.396445-2.233521-.005775-4.456184-.134305-6.686809.183407-7.559946 1.076608-15.763523 9.719073-12.861032-5.959973-2.630992-.501838-3.33037 5.256677-5.783987 4.002438-5.721726-2.923664-1.33577-8.146403-1.514597-9.326266-.348963-2.296186-4.161516-1.543065-4.852932-2.092561-.346792-.275108-.094117-1.216688-.15276-1.25207 1.789712-1.111267 3.928391-.451295 5.831048-1.046281 3.247834-1.015955 6.29223-10.984863 3.609108-13.782888-2.321125-2.42038-2.920592.169688-4.768225.389919-2.569455.305436-6.106164-2.924388-9.214271-2.047072-1.712971.483789-4.750849 5.815559-4.862345 7.515314-.17593 2.68538 3.182677 5.322385 2.888738 8.248938-.610329-.158136-1.324911.107587-2.150987-.350928-2.358773-1.309835-1.704283-4.764224-6.536942-5.425641-.235299-.031769-.484351.019498-.723996 0 .414849-2.122164-1.127257-1.464357-2.510086-1.453527-3.871196.029604-9.596542.34515-13.417783.731458 3.088561-4.068148 3.583771-14.052942-3.237701-13.777834-2.478954.099646-3.452002 1.982806-5.14108 2.229754-2.593347.379088-5.436472-2.059345-7.475962 1.154591-2.207459 3.479659-.25702 8.272766 2.098856 11.115558-2.8605.073652-5.336557.145138-8.129004.952413-1.213415.350926-2.360944.15019-2.00691 1.935872-1.73976.467179-8.603948 4.151906-10.23438 5.317329-1.020832.730014-2.1604 1.034006-2.073519 2.625448-.054301-.119861-1.057032-.35598-1.300293-1.202969-1.044724-3.634903 1.204725-5.705082 2.024286-8.90602.084707-.025273.463356-1.001512 1.222826-1.27951 1.904828-.696799 9.637084-4.205341 7.445556-7.356459-.88979-1.278786-14.744862-.46718-17.544549-1.355327-3.014711 1.126431-4.732749 3.043528-4.155726 6.380942-1.685458.086647-2.481127 1.683868-3.926943 2.224699-4.752297 1.778459-10.729592-.327099-15.976377-.046212-3.977623.21229-8.732816 2.269467-12.320207 2.2182-2.861948-.040435-3.630106-1.250626-5.74634-1.543785-6.075034-.840493-8.944223 2.176321-12.745916 6.136879l-10.828054 3.291919c1.8346 4.819101-1.510976 9.502453-1.447988 14.438529-1.484912 1.424645-7.885744-4.552657-9.054994-5.05233-1.976504-.844823-.537928 3.875356-1.392241 5.092044-2.282029 3.25004-11.785899-3.066634-14.164219-4.37575 1.998948-4.507165 7.423111-5.263173 9.419886-9.740013-5.384343-.701851-10.196008-5.954194-13.78195-.026715-2.861949 4.73173-1.380657 7.309523 2.914076 9.766728-.854313 4.405354 5.364072 4.798161 3.250733 9.376089-1.761477 3.814703-8.53951 3.489048-11.938662 3.621187.695034-3.376403-2.821404-5.87549-3.349196-8.641021-.312042-1.634769 1.064271-3.898461-.23747-4.74906-3.566395-2.329402-10.222072 1.278786-10.893214 5.447301l-34.027721 4.332426c-5.660185-4.076089-10.850498-8.141348-15.20315-13.712125 6.067069 2.834127 11.713499 5.170026 18.099127 7.213487 2.728009.872983 5.272124 2.974211 8.684308 2.158992l-7.23632-2.881062c-5.723173-2.304129-11.384083-4.978678-16.449869-8.504551-6.904731-4.806102-12.548265-13.496946-21.1949257-13.87459 3.8936397 10.29312 10.2264157 20.430992 17.3729607 28.877777-7.275416 1.842004-14.180871 4.716566-21.1565536 7.421443-1.1475307.44552-2.2530694.626758-2.7352495 1.965479-14.8042301-22.935136-19.2444856-45.950421-10.8743905-72.582559 1.2112419-3.852247 4.8399-10.342942 5.4842548-13.324372.3178335-1.472303-.5777472-2.87673-.4018166-4.351921 15.7092224 39.232272 49.3944934 65.702666 91.4440674 42.461373 24.640414-13.618256 38.084983-26.358472 43.942819-54.736577.27367-1.324278 1.235134-2.18643 1.412512-3.280368.878929-5.423473.691414-11.693936 1.372693-17.169399-2.783033-3.565586-1.659394 1.419591-3.509199 3.120068 0-5.977302-.515484-12.886798-1.447988-18.773841 1.854149-2.457207 2.622306-2.479592 5.791952-2.166213.542996 3.967057 2.147366 9.308937 2.19877 14.047888.072399 6.560735-2.672262 25.058745.787706 29.543527 2.172706 2.815354 4.486591-.522057 5.841907-2.654332 6.9279-10.895327 5.395204-40.062655 2.400041-52.495992-1.708626-7.093624-5.046239-14.120095-7.60411-20.930667 4.792117 2.113501 15.098896 2.640613 17.553236-3.084687 2.536875-5.919536-7.979862-11.13722-12.862478-10.702533-4.435912.394973-7.017674 8.725504-7.953075 8.715395l-4.701617-7.926171c4.550302 2.059345 8.063845.848433 11.172676-2.930164 1.941028-2.359727.880377-5.536839-1.027348-7.554305-4.412019-4.663133-12.197127 1.27951-11.956037 6.867616-6.123542-9.062711-12.819763-17.955735-21.015376-25.252983-3.710469-3.303474-11.300099-9.326266-15.549943-11.569018 20.100246-7.337684 41.434903-12.335858 62.728292-15.060953 20.774285-2.658665 44.605998-4.369251 65.418653-2.268747z" fill="#92c44c"/><path d="m464.735229 341c6.956883 2.669035 14.727022 4.602583 21.285975 8.096145 1.014755.540757 2.294076.282323 1.908468 2.038515-21.931073 35.78331-62.902607 51.152522-98.836597 68.872974-54.636688 26.944439-87.295914 50.006582-150.696475 25.789088-13.23243-5.054299-24.317924-12.104401-36.758119-18.305367-38.598454-19.241373-87.587293-37.595241-111.638481-74.908889.4827344-1.342117 1.589544-1.524541 2.7383939-1.970466 6.983702-2.711746 13.8970961-5.593607 21.1808761-7.440288 30.587672 36.202452 84.245843 46.901033 127.721653 59.42892 45.050857 12.981775 88.870958 3.013613 132.143093-10.912857 32.304061-10.396713 69.163655-23.344463 90.951213-50.687775" fill="#c4da46"/><path d="m310.933653 108.695325c3.891557 2.165935 10.130039 9.309696 2.3405 10.981256-5.702428 1.22377-9.528319-1.00683-7.894463-7.008174l3.412608-4.668407c1.324072.130721 1.110649.121682 2.141355.695325" fill="#539b53"/><path d="m220.531726 336.365839c.228703.324 6.989199 2.966139 7.380745 2.865887 2.973865-.762057 3.612207-5.425209 1.216614-7.500707-3.977699-3.444879-10.324213 2.192457-8.597359 4.63482m125.338037-5.554522c-2.460007 1.983967-2.51863 6.718311 1.470648 7.968552 7.630437 2.390056 5.611191-13.681441-1.470648-7.968552m-19.007695 15.781638c7.284485-2.749654 10.386453-17.841881-.373453-17.496085-7.477726.240458-14.080444 13.354533-14.12966 20.031436-.007057 1.070801-.137512 1.322884 1.117461 1.111484 4.233905-.714838 13.020159-24.709843 13.385652-3.646835m-62.249248 5.085227c-1.917199-8.289645-7.767947-24.017525-18.391066-22.4876-7.95395 1.145629-5.065487 17.341351 2.468692 17.403101-.547151-17.45032 5.293465-4.943567 10.117221.384297.618078.682873 5.073447 5.52837 5.805153 4.700202m-1.650137-36.16468c-5.480192 1.208104-3.606418 7.438235.266338 9.59219 2.22479 1.237163 4.237523.88919 6.471721 1.495059 1.288989.349427 2.302231 1.427496 4.005201 1.791451 2.012009.430793 9.6533 1.137639 10.837347-.655993 2.444085-3.702772-2.047472-7.401184-4.939555-8.896242-4.490109-2.321768-11.67689-4.420515-16.641052-3.326465m13.233664-4.513502c.178041 1.03666 1.577763 3.157927 2.672788 3.494277.978502.300757 9.462956.404641 10.35461.138028-.819279 3.219677-3.067952 5.302439-2.023588 8.960171.243177.85141 1.245562 1.088965 1.299843 1.210283.988635 2.200452.136065 3.672988 4.023296 4.315905 2.821153.466389 16.666382.386476 18.6878-.770774 4.066721-2.329763-.213505-12.042543-3.519567-12.334581-.878628-.077731-5.961482.547752-6.887875.798381-.353912-1.797267.793222-1.594583 2.006218-1.947645 2.791483-.812908 5.266687-.884101 8.1262-.9582 5.556186-.144567 8.53729-.196146 13.751142-.72646 3.819923-.388657 9.543294-.706121 13.413154-.735905 1.382352-.010899 2.923926-.672705 2.50922 1.462365-1.697178-.136575-6.552779-.582621-7.133222 1.189216-1.933121 5.898864 1.368601 12.344751 8.363588 8.399342 5.55112-3.131047 2.602585-5.991851-.50662-9.588558 4.830993.664713 4.176728 4.140826 6.534688 5.4579.82579.461302 1.540126.193967 2.150244.353787 1.465581.382846 6.233609.555015 6.513699.726462.058623.035595-.193964.9829.152708 1.259684.691178.552109 4.502415-.204863 4.851258 2.104557.178766 1.187038-4.205678 6.441528 1.514075 9.383695 2.45277 1.261137 3.151906-4.53239 5.781991-4.026772-2.90149 15.773646 5.299258 7.078635 12.856596 5.995481 2.229855-.319643 4.451751-.189605 6.684502-.183794-1.396828 4.203305-5.863053 8.206829-.204819 11.465733 6.692461-.244816 14.871495 2.068234 21.396776.719198 7.236717-1.495784 3.733071-4.270865 4.97357-8.084785.916982-2.818668 5.00831.108969 6.814775.206314 2.20163.118415 5.315902-1.327244 7.896051-1.436938 2.673511-.112604 7.922105.52305 10.842412.777314.886587.077728 6.135906 2.474323 6.90814 3.614141-19.709003 14.147101-29.297168 13.768615-51.034828 21.055745-14.582001 4.888356-28.682711 12.438466-43.621515 17.237467-49.326069 15.844841-92.480047 13.147491-140.739317-4.333341-10.817806-3.918531-21.709433-9.55732-32.554742-13.090099-20.187399-6.575926-30.786635-6.907193-49.049598-20.143312l34.015982-4.358764c-1.608884 10.057853 7.351794 8.270032 14.474886 7.991072 3.397979-.133671 10.173673.193964 11.934543-3.643204 2.11261-4.605761-4.10363-5.001682-3.249612-9.433095.285879.16418 1.152201-.16418 1.447489 0 2.3775 1.316348 11.878091 7.672154 14.159333 4.402354.854018-1.224814-.584062-5.972963 1.391761-5.123003 1.168846.502711 7.56747 6.515629 9.051869 5.08232-.062965-4.966087 3.281457-9.677911 1.447489-14.526312l10.82432-3.311937c3.800381-3.983913 6.66858-7.019791 12.741518-6.174191 2.115505.294944 2.883397 1.512491 5.744358 1.553899 3.586153.051579 8.339706-2.018109 12.315957-2.232415 5.244975-.282591 11.220208 1.835769 15.970865.047222 1.445318-.544119 2.240713-2.151779 3.925589-2.238228" fill="#c4da46"/><path d="m258.428037 283.013207c.804502-.12373 6.939363.655549 8.008262.932674 1.606177.416777 8.279729 4.372511 8.495347 5.829048.940942 6.345674-8.033712 18.741808-14.536891 19.201994-8.754089.620098-15.454505-11.402675-10.952685-18.500134.95791-1.510081 7.437759-7.224807 8.985967-7.463582" fill="#539b53"/><path d="m319.34655 205.892051c-5.703167.628509-11.779789-2.093146-7.151275-8.138834 3.358923-4.386143 13.774864.1483 11.070019 5.997667 4.444286-2.543694 11.954733 1.946965 12.520266 6.709507.607663 5.114224.187082 10.275057-4.774895 13.002361-3.453893 1.898238-5.510373-1.827618-7.761082-2.033119-1.266021-.115816-2.787676.814236-4.262915.762684-4.48856-.158186-9.352001-.593905-8.964982-6.057693.381308-5.386108 6.797104-6.26602 9.324864-10.242573" fill="#539b53"/><path d="m231.340827 279.015344c6.844295-.376378 9.968497 6.239694 9.304119 12.327833-.151798 1.391307-1.412775 3.306241-1.22144 4.275919.166625.842542 2.557962 2.819965 3.057128 4.747826.982094 3.789645.978564 10.264216-3.700325 11.357438-8.030433 1.877583-5.33903-6.334509-7.916761-9.589751-2.685755-3.390999-6.06554 4.066901-8.209766-5.300904-1.683186-7.351589-.561297-17.309819 8.687045-17.818361" fill="#539b53"/><path d="m295.267046 200.776637c-.330595-1.517991-3.190055-.63292-4.095661-2.171258-.436089-.741193-2.077919-9.559207-1.762185-10.448638.546784-1.539792 4.362369-1.508545 6.037631-2.100773 1.030415-.364783 1.65149-1.567405 2.572697-1.839175 3.39287-1.001337 15.361892 1.551418 14.971122 5.896115-.178299 1.979421-5.571825 6.243459-7.388982 7.329089-1.522966.909777-6.32662 2.416143-6.519034 2.707533-1.106938 1.67277 1.655946 5.745697-1.943454 8.634896-4.68182 3.758283-19.498415 5.482646-21.057783-2.003401-.443518-2.129839.967269-6.004388 3.213085-6.004388z" fill="#539b53"/><path d="m251.161069 205.715154c4.308588 4.433315 13.616901 4.346151 10.036281 13.041997-2.711103 6.582652-6.745981 3.007512-11.082735 3.283177-1.619151.102754-3.931605 1.82123-6.012958 1.948788-8.092144.495346-7.522336-16.067226-1.876251-18.890488 4.342532-2.170595 5.573144.193462 8.935663.616526-.317764-2.162092-2.490113-1.946662-2.745046-4.789767-.449202-5.015117 11.60849-9.412291 12.813826-1.900599 1.04862 6.536589-4.601076 7.378465-10.06878 6.690366" fill="#539b53"/><path d="m288.853228 273.994447c-.692484-.72289-5.176425-.798946-6.445265-.717914-.131182 1.77204-.17778 1.220454 1.074572 1.400288 1.51185.217507 2.821548.269396 4.469604.57291 1.413643.260155 1.285326-.854389.901089-1.255284m-11.902699.929735c.180649-.315598 1.202887-.025589 1.176363-.596367-.047312-.995129-1.420094-1.968223-1.532641-4.232852-.28961-5.794493 4.260284-8.192043 9.606606-6.626847 1.479594.433592 6.195796 6.114356 6.653869 7.653252.849476 2.851044-1.171345 3.441724-1.024389 4.515042.204304 1.485585 4.75635 5.261389 4.106158 7.803943-.29821 1.166433-2.618678 2.548953-3.84092 2.55963-.533342.00496-9.863957-2.214889-10.371493-2.457273-.461655-.220352-5.271768-4.950056-5.437363-5.321097-.682448-1.52468-.019355-2.104698.66381-3.297431" fill="#539b53"/><path d="m278.229756 289.684427c.940023-1.512798 12.166669-.131549 14.192394.46407 1.026996.301827 9.601718 4.670664 10.050348 5.209278 6.395348 7.67872-8.988564 10.953519-14.882372 9.164474-1.548827-.469916-8.476878-4.086742-9.088582-5.452641-.505163-1.126925-.687079-8.717213-.271788-9.385181" fill="#539b53"/><path d="m287.673609 225.040548c2.38723-.415165 11.614708 2.426895 12.172128 5.358542 2.384406 12.535799-23.690753 18.904576-21.741545 3.780915.435198-3.378132 6.412109-8.590274 9.569417-9.139457" fill="#539b53"/><path d="m304.896119 261.242434c11.30083-2.417876 12.373832 13.947912 1.570337 18.081793-3.705854 1.418068-8.909998.72479-10.793004-3.232191-.332953-.699723-1.788575-7.523636-1.666164-8.062215.399404-1.751099 9.08417-6.401357 10.888831-6.787387" fill="#539b53"/><path d="m279.338363 109.273561c.63811-.360182 11.426598-.311789 13.09198-.155549 3.18554.297962 8.476413 1.400628 10.23837 3.926737 1.797722 2.576575 1.927207 3.954389-.556558 6.130686-3.809344 3.338418-5.621375.170067-9.011511.392674-1.043009.068441-1.919337 1.179404-3.500303 1.346705-4.169891.442449-14.121396-.732807-14.600341-6.035975-.031114-.348429 4.025747-5.42899 4.338363-5.605278" fill="#539b53"/><path d="m273.575831 183.150191c3.14877-.55836 6.409684.487065 8.886318 2.35697 3.536177 2.670386 3.456075 10.46907-.739129 12.602272-3.062843 1.557196-12.948262 1.048248-15.250127-1.338369-3.402914-3.528749-5.949457-10.35048.563633-12.192149 1.344999-.37977 5.066141-1.167544 6.539305-1.428724" fill="#539b53"/><path d="m247.804242 262.130562c.815982-.146078 8.708368-.161987 9.804732-.085332 3.097139.216947 10.533006 1.71244 11.211673 5.383918 1.408379 7.611971-5.753576 9.403235-11.822761 8.251966-1.758497-.333376-2.887213-2.013997-4.558-2.644592-3.189162-1.20406-6.747134-.594437-8.605562-4.356309-2.042472-4.133577-.189077-5.806966 3.969918-6.549651" fill="#539b53"/><path d="m290.142545 146h18.966488c2.472938 0 2.313182 8.092924.712703 10.339562-2.104551 2.953843-12.149494 4.53544-15.481031 3.156536-4.231715-1.751741-7.020518-9.6797-4.19816-13.496098" fill="#539b53"/><path d="m357.467903 320c-.28187-.163179-5.080193-.328441-6.55509-.694378.294981-2.815002-3.083076-5.350172-2.906089-7.93256.111436-1.63456 3.168294-6.761839 4.891552-7.22707 3.126778-.844361 6.684736 2.26228 9.269626 1.967862 1.858002-.211091 2.4618-2.70182 4.796139-.374963 2.69997 2.691405-.363441 12.277968-3.630789 13.254958-1.914087.572165-4.064886-.062495-5.865349 1.006151" fill="#539b53"/><path d="m250.377683 243.991152c1.331428 1.16447 21.084514-2.883212 12.442405 5.806577-3.743029 3.763018-13.997884 3.605986-19.000759 2.558393-9.607036-2.01201-6.289205-14.378772 2.476742-13.288156 4.342887.540647 3.429499 4.35314 4.081612 4.923186" fill="#539b53"/><path d="m325.73221 266.244132c11.182694-2.37415 17.279348 13.319784 7.023407 14.543232-3.982965.474684-14.620214.499667-16.505979-3.710758-1.738111-3.879762 6.048633-10.103548 9.482572-10.832474" fill="#539b53"/><path d="m289.004604 324.547092c-.085511-1.556503 1.036124-1.852979 2.040895-2.56664 1.604071-1.13932 8.360973-4.742219 10.073357-5.198227.912132-.24283 5.916744-.851312 6.781843-.775781 3.255173.284476 7.469507 9.72232 3.465391 11.985427-1.990303 1.125199-15.622399 1.202142-18.400126.748956-3.827391-.624719-2.987945-2.054867-3.96136-4.193735" fill="#6db856"/><g fill="#539b53"><path d="m282.103604 146c3.407428 13.093024-3.227232 16.457142-14.346248 12.35209-8.242247-3.042776-3.527324-12.35209-2.325537-12.35209z"/><path d="m326.73802 240.079731c3.252849-3.32585 15.911481 1.344658 9.452294 9.718116-3.809539 4.937739-19.998653 4.106276-22.865823-2.088226-2.482213-5.363039 10.033314-2.645369 11.849357-3.86031.983151-.658507.788525-2.976395 1.564172-3.76958"/><path d="m287.94414 166.000186c3.37497.021603 6.389121 6.521395 6.026109 9.431395-.751531 6.023793-17.056362 7.816889-18.781752 2.081863-.692489-2.301499.617408-8.758804 2.38945-10.302739.798185-.695635 8.588318-1.222041 10.366193-1.210519"/><path d="m324.828963 313.303126c-5.218193.508716-8.201777.558195-13.762584.696874-2.357023-2.743598-4.308414-7.369456-2.099881-10.727699 2.03976-3.101791 4.884992-.748442 7.478878-1.114302 1.689901-.238332 2.664146-2.055782 5.14431-2.152649 6.824066-.264813 6.329338 9.371579 3.239277 13.297776"/><path d="m241.872021 150.390313c4.929737-.906327 8.937793-.651262 9.849757 5.380628.678073 4.489001.31995 6.633902-3.388283 8.81335-11.173283 6.566276-20.027099-11.699925-6.461474-14.193978"/><path d="m322.035886 151.289492c1.06434-.36949 8.50122-.363625 9.821516-.104836 6.613559 1.297614 4.506206 13.619083-.713829 14.62785-1.295411.249992-5.067173.249992-6.362584 0-5.062196-.978709-6.313525-13.284782-2.745103-14.523014"/><path d="m322.022631 146.780655c-.408796-7.380912 4.762992-13.190011 12.080088-11.479401 4.633715 1.083484 10.820157 12.806323 3.572245 13.644914-4.910442.568266-10.319123-3.581817-15.652333-2.165513"/><path d="m246.398754 181.106049c12.812895-1.532645 12.859529 14.056727-.208059 13.892665-2.078446-.025942-8.070567-2.976249-8.190381-5.243666-.030132-.579825 2.115753-6.271506 2.478781-6.688671.366616-.421372 5.096747-1.862171 5.919659-1.960328"/><path d="m334.782225 183.219778c.316036.505146.269394 7.530369-.019492 8.488957-1.283631 4.261945-12.938644 1.697791-15.126528-.620428-2.258884-2.392279-2.492778-8.896985 1.310084-9.775924 1.333058-.308816 2.54638.526805 3.852288.457635 1.667885-.087335 3.267551-.898502 4.811531-.752478.568722.053799 5.022451 1.96329 5.172117 2.202238"/><path d="m316.276315 165.60157c3.715657 3.656426 1.094888 11.959604-4.714046 12.978665-7.352951 1.290298-11.498148-.135267-10.382216-7.931017.638504-4.458919 13.270721-6.843971 15.096262-5.047648"/><path d="m317.125983 285.104839c3.172318-.825011 11.816367 3.37829 10.789882 7.022738-1.097918 3.900123-16.569489 10.522576-17.763841 4.354891-.304302-1.571086-.164295-5.715011.533601-7.180613.462169-.971013 5.371011-3.918983 6.440358-4.197016"/><path d="m242.897419 137.435826c2.626477 2.351845 3.169053 9.648507-.566007 11.212028-1.875951.78556-14.177265.167199-15.04568-.971414-1.616012-2.119701 4.068953-9.1856 5.889255-10.431995 2.444154-1.672685 7.601187-1.707921 9.722432.191381"/><path d="m296.183918 211.161065c9.929874-1.949259 9.394908 14.411434 3.969941 15.777028-1.52315.384008-6.363669-1.105415-7.631525-2.071696-4.976771-3.792776-1.972781-12.599222 3.661584-13.705332"/><path d="m274.08041 211.084958c2.46003-.796883 11.410259 4.229503 11.881596 5.995531.466937 1.749922-3.481135 9.003099-5.740316 9.722255-3.774344 1.202327-9.36219-3.354892-10.16925-6.541725-.457408-1.808043 2.177083-8.576648 4.02797-9.176061"/><path d="m271.800385 167.661758c-.097226 1.737918.692828 9.080622-.33201 9.791907-5.291275 3.670651-16.427656.646113-15.402098-7.372837.857033-6.698694 11.260255-3.349697 15.734108-2.41907"/><path d="m277.109886 311.290421c-.571871-3.290067 1.130824-5.179969 4.118611-6.290421 2.774682.875548 16.506019.074742 17.387145 1.3361 2.172676 3.106417-5.490526 6.565189-7.378342 7.2521-.752687.274055-1.127955 1.236447-1.211905 1.261359-.884714.261954-9.29558.159452-10.265678-.135247-1.08562-.329575-2.47332-2.407399-2.649831-3.423891"/><path d="m267.985427 121.372046c2.101785-.436683 6.292195-1.00386 6.781271 1.651959 1.234753 6.706251-2.495823 21.4011-9.669671 11.829801-3.966707-5.292682-5.197073-11.802828 2.8884-13.48176"/><path d="m355.514653 119.121956c7.16733-.93004 13.646504 3.546683 8.813368 10.443853-2.259109 3.22382-7.351763 2.806644-10.62707 1.266673-4.092493-1.92548-3.570543-11.011791 1.813702-11.710526"/><path d="m255.388113 225.098092c3.62082-.66155 12.351589 2.070972 10.305193 6.74994-3.225615 7.37682-20.980714 7.190737-15.728605-2.896672.776195-1.490789 3.790702-3.554685 5.423412-3.853268"/><path d="m167.117703 314.107181c5.092585-.619283 14.575379 1.362696 11.155727 8.10376-.236254.466876-5.923376 4.537031-6.573961 4.693577-3.667258.883406-7.364313-4.576339-8.196523-7.583096-1.104647-3.991541-.595246-4.702541 3.614757-5.214241"/><path d="m306.246788 128.252424c7.453461-1.316649 12.265333 2.621641 8.367415 9.381813-1.815017 3.147615-12.50385 2.904858-13.583979.734444-.1762-.355221.462709-6.877436.761391-7.527532.607395-1.324878 3.005451-2.332252 4.455173-2.588725"/><path d="m336.555211 292.015679c1.948666-.290022 7.562344 3.517842 8.117118 5.256592 1.678239 5.265632-3.548491 5.237115-5.31101 7.192864-1.266377 1.404212-.511535 4.001908-4.396405 3.462197-5.224532-.724711-5.860652-14.802329 1.590297-15.911653"/><path d="m207.650105 121.396305c6.037983-.897307 10.755967-.872604 10.322212 6.725074-.331441 5.800159-14.418384 7.242388-15.736941-.187453-.89489-5.0409.73061-5.841573 5.414729-6.537621"/><path d="m152.11757 325.954722c1.33435-1.702488 5.128605-3.718294 7.381099-2.66216 1.416623.663954 5.49365 6.15866 5.501331 7.736522.019974 3.845733-7.896247 7.059191-11.001204 5.62074-3.266737-1.51379-3.817762-8.224457-1.881226-10.695102"/></g><path d="m178.907955 347.711998c-7.241306.26991-16.351431 1.995252-14.71511-7.711802.682045-4.047294 7.445845-7.550555 11.070177-5.288895 1.322888.825866-.075783 3.023729.241328 4.610956.536366 2.685111 4.10993 5.111524 3.403605 8.389741" fill="#6db856"/><path d="m285.492535 125.117696c1.958915-.536371 4.844326.84357 5.928259 2.4569.472317.703678 3.573208 7.97104 3.579012 8.487024.067473 5.718707-17.453213 2.517356-14.707829-4.6776.332291-.869581 4.422071-6.053323 5.200558-6.266324" fill="#539b53"/><path d="m317.119499 225.084338c7.495732-1.251023 12.282246 11.828174 1.90546 11.915109-10.464091.086936-12.761729-10.102893-1.90546-11.915109" fill="#539b53"/><path d="m259.930901 110.009149c.457881-.106906 8.921659.754118 9.344427.964318.83781.416788 2.546437 3.561837 2.68338 4.510986 1.014782 7.031936-17.021661 7.669036-15.909262.000722.195231-1.345711 2.556268-5.165422 3.881455-5.476026" fill="#539b53"/><path d="m249.721953 129.261076c1.875485-.630637 8.194284-.120878 9.499768 1.552073 1.166875 1.494052 1.106763 8.664532-.763771 9.740691-1.842247 1.058891-9.837809.132621-10.981345-1.721992-1.164752-1.887769-.110323-8.779194 2.245348-9.570772" fill="#539b53"/><path d="m186.578813 299.033372c4.501453-.684477 6.09098 9.353342 2.275138 12.369033-5.988453 4.732226-14.180902-2.032778-9.436033-7.498628.389884-.448721 6.73544-4.80559 7.160895-4.870405" fill="#539b53"/><path d="m413.904521 309.699031c.376391 2.713454-.333698 4.200902-2.600568 5.587902-8.900996 5.448277-15.227744-3.130192-10.918128-11.286933 3.381811 1.846487 9.808171 4.533581 13.518696 5.699031" fill="#6db856"/><path d="m215.820826 305.460908c-1.165858 3.782225-2.36513 6.415222-.305811 10.234945.17506.325723 2.304114 2.930783 2.484985 2.999897-.753268 1.648474-3.844789 3.851341-5.62009 3.180774-.244794-.092644-4.007501-2.987397-4.177476-3.188861-1.598788-1.896258-4.691035-8.807053-2.365857-10.841542.286925-.251462 6.456166-2.702114 7.055439-2.800641 1.347456-.221315 2.176995.438221 2.92881.415428" fill="#6db856"/><path d="m385.047873 309c2.413678 5.834945.145978 10.055008-5.755475 11.652566-4.762237 1.289285-5.986607-1.094811-6.281429-5.739833-.354933-5.574892 7.993117-5.915581 12.036904-5.912733" fill="#6db856"/><path d="m407.148044 319.17196c6.36921-1.896665.705313 12.515843-3.746215 12.80304-4.02221.259848-6.685138-1.500058-7.331259-5.554677-.805868-5.060897 5.491312-4.059658 8.632056-5.36969.924967-.385092 1.591769-1.624583 2.445418-1.878673" fill="#539b53"/><path d="m272.708914 245.145556c7.623927-1.516418 12.549169 9.268966 3.108821 11.320374-2.344049.5099-6.520379 1.397613-7.21379-1.548887-1.05958-4.499075-1.281587-8.700033 4.104969-9.771487" fill="#539b53"/><path d="m343.737886 114.247384c11.938395-2.354799 6.286388 12.854932 3.113799 13.728225-2.36799.651657-12.098356-11.955867-3.113799-13.728225" fill="#539b53"/><path d="m357.420689 272.158124c4.497386-1.341124 11.237541 6.150093 7.484262 11.076201-.237584.31073-4.025001 2.7082-4.275127 2.748882-3.343603.540798-8.831738-12.147976-3.209135-13.825083" fill="#539b53"/><path d="m301.652437 244.107296c7.111782-1.314688 9.189598 9.851605 5.669391 11.66251-1.893916.974609-9.076375-1.345345-9.950596-3.216851-1.384751-2.965891 1.34015-7.901675 4.281205-8.445659" fill="#539b53"/><path d="m188.314815 333.955075c-4.222538-2.339505-5.678929-4.793818-2.86509-9.298894 3.525662-5.643551 8.256442-.642797 13.550275.025435-1.963921 4.262396-7.296192 4.982191-9.261538 9.273459-.290424-.154682-1.142476.155371-1.423647 0" fill="#6db856"/><path d="m213.608323 138.018444c1.046139-.266293 5.210268 2.425738 5.995237 3.246443 4.960041 5.188344-4.596008 11.847117-8.385891 9.090333-4.450833-3.237713-1.445919-11.359641 2.390654-12.336776" fill="#539b53"/><path d="m218.42865 318.644998c-.172124-.068328-2.198208-2.643743-2.364802-2.96576-1.959723-3.776255-.818452-6.37929.291021-10.118475 2.267334-.071964 3.184636-1.441447 5.511418.383079 5.980784 4.68997 2.600521 15.104294-3.437637 12.701156" fill="#539b53"/><path d="m223.926573 117.043609c1.73756-.276363 8.03083.762332 8.073192 3.073014.041644 2.259-5.464698 8.703645-7.656034 8.881665-.80057.064605-3.284132-1.71704-3.842736-2.378876-3.059398-3.620716-1.20624-8.838595 3.425578-9.575803" fill="#539b53"/><path d="m345.635854 278.407845c10.051488-3.56401 9.895328 17.570567-.972999 11.483951-3.297736-1.846869-1.001263-10.78398.972999-11.483951" fill="#539b53"/><path d="m213.190833 287.009065c2.75933-.248595 5.825021 4.675307 5.809167 7.481073-.032775 5.752546-9.162462 7.811078-9.786299 2.209722-.42168-3.792144-.688443-9.269929 3.977132-9.690795" fill="#539b53"/><path d="m359.456578 138.013443c3.212942-.345296 2.590857 6.052219 2.280512 8.725618-.670902 5.783184-4.66215 4.966195-8.050141 1.763906-4.498961-4.2523.890583-9.965577 5.769629-10.489524" fill="#539b53"/><path d="m339.887586 259.153533c4.939892-5.093323 14.859957 8.120351 7.460883 11.665745-2.976576 1.425327-8.288019-5.967304-8.347744-8.605737-.018753-.834547.327797-2.483568.886861-3.060008" fill="#539b53"/><path d="m341.662536 314.15179c.238333.018971.487497-.032834.722216 0 3.102642 3.613135 6.044954 6.485694.505553 9.630406-6.980225 3.962628-10.274978-2.511392-8.345937-8.436.579217-1.77957 5.42457-1.331577 7.118168-1.194406" fill="#6db856"/><path d="m360.63009 288.05771c4.824644-.936184 8.407711 9.788694 1.611364 12.524899-7.469082 3.008233-8.515232-11.185012-1.611364-12.524899" fill="#539b53"/><path d="m230.679384 259.276811c5.877165-4.564722 9.326343 4.126446 2.747613 10.076799-3.904426 3.532402-7.998722.923989-7.360935-3.509037.133422-.926822 3.87217-5.992127 4.613322-6.567762" fill="#539b53"/><path d="m202.973231 318.411769c-3.213136 3.954896-13.101474-.058687-10.560303-5.649533.265229-.584687 3.203504-3.343796 3.875469-3.547007 4.983805-1.50537 9.89871 5.240915 6.684834 9.19654" fill="#6db856"/><path d="m241.710095 115.092761c9.166777-1.261206 7.348424 10.770984.716233 9.857697-8.704436-1.198145-8.193046-8.829163-.716233-9.857697" fill="#539b53"/><path d="m217.425089 273.022177c3.465066-.47638 7.991576 6.852096.57522 9.466683-8.670987 3.057937-7.122596-8.566038-.57522-9.466683" fill="#539b53"/><path d="m326.952779 124.211322c-1.199348-1.307563-1.378971-6.110445.113926-7.373101 1.389453-1.175086 7.02346-1.171343 8.168992.372734 3.444986 4.644208-5.724864 9.788389-8.282918 7.000367" fill="#539b53"/><path d="m375.162818 299.119414c3.713644-1.025354 8.7573 4.807211 3.712218 7.752016-7.917402 4.621656-8.774397-6.35418-3.712218-7.752016" fill="#539b53"/><path d="m196.865925 299.933957c.496386-.501545 1.622612-.721683 2.340713-.812874 10.822359-1.377112 4.169507 9.484469-1.328875 7.674918-2.105584-.693187-2.436743-5.420817-1.011838-6.862044" fill="#539b53"/><path d="m218.95 164c.133333.333.133333.667 0 1z" fill="#92c44c"/><path d="m264.325723 316.283354c4.828535-1.039444 11.818964.95455 16.186397 3.160434 2.813066 1.420438 7.181908 4.933563 4.804601 8.452215-1.151697 1.704109-8.584219 1.03185-10.540553.623251-1.657147-.34579-2.642002-1.37005-3.896478-1.702036-2.173157-.57563-4.1309-.245024-6.294905-1.420438-3.766947-2.046448-5.589527-7.96631-.259062-9.113426" fill="#6db856"/><path d="m265 351.907964c-.727446.80313-5.15688-3.895875-5.77136-4.557397-4.795675-5.167495-10.602292-17.295431-10.058326-.372681-7.49032-.059881-10.361969-15.765965-2.454321-16.876959 10.561279-1.484378 16.377969 13.768712 18.284007 21.807037" fill="#283b30"/><path d="m326.422373 347.322353c-.363272-20.846888-9.096853 2.902631-13.304309 3.609417-1.248064.209948-1.118584-.039545-1.11067-1.100083.048917-6.608393 6.610793-19.587907 14.043796-19.825898 10.694519-.342247 7.610683 14.595123.371183 17.316564" fill="#283b30"/><path d="m221.281393 337.328153c-1.667882-2.274793 4.461898-7.52535 8.303758-4.316825 2.313784 1.933098 1.697241 6.27631-1.175067 6.986082-.378174.093374-6.907798-2.367487-7.128691-2.669257" fill="#6db856"/><path d="m346.703688 332.177456c7.04502-5.440581 9.053974 9.86681 1.463152 7.589693-3.968944-1.190105-3.91062-5.699361-1.463152-7.589693" fill="#92c44c"/><path d="m462.927917 330.851084v.720699c.469455-.239993.469455-.480706 0-.720699m-327.316535 6.486301-1.446702.720702c-6.379961-2.039582-12.021379-4.371048-18.083787-7.199796 4.349512 5.560201 9.535219 9.617025 15.190381 13.6861 18.252327 13.131879 28.846532 13.46052 49.022975 19.983578 10.838698 3.504764 21.725137 9.098839 32.537072 12.986298 48.233075 17.342213 91.363628 20.018893 140.662202 4.298978 14.93142-4.760946 29.023752-12.251186 43.597838-17.100779 21.726583-7.229344 31.309544-6.853859 51.007852-20.888777 2.056488-1.465185 4.768332-2.550559 7.243642-4.674463.849213-.727906 7.304402-6.799086 6.496417-7.573839-5.794044 2.09003-11.267644 5.435522-17.322096 6.876923-.784113.186662-3.649308 1.09042-3.647138-.386297 7.362271-1.878143 15.38641-6.063252 21.312827-10.840052 5.188601-4.180783 10.23687-12.169746 17.740195-11.505981.741436.702683-4.099234 9.782064-4.93615 11.29049-2.36753 4.268708-6.532588 10.902035-9.527262 14.651119-21.743223 27.222293-58.527814 40.112737-90.766142 50.463435-43.184083 13.864834-86.915017 23.788877-131.874204 10.864559-43.387344-12.472441-96.936329-23.12367-127.461761-59.165894-7.140202-8.430753-13.46808-18.549386-17.357541-28.823689 8.638263.377646 14.277511 9.051995 21.176114 13.848256 5.06129 3.519902 10.717175 6.189376 16.435268 8.489129" fill="#283b30"/><path d="m134.500625 337 7.499375 2.819588c-3.536974.797822-6.172822-1.258568-9-2.112923z" fill="#539b53"/><path d="m461.95 330c.133333.333001.133333.666999 0 1z" fill="#92c44c"/><path d="m288.734501 274.729912c.39754.393425.5303 1.487203-.932287 1.231895-1.705116-.297859-3.060159-.348781-4.624353-.562235-1.295711-.176483-1.2475.364825-1.111776-1.374197 1.31277-.079522 5.951956-.004884 6.668416.704537" fill="#6db856"/><path d="m218.763521 164.155305v.723956c.469227-.241078.469227-.482879 0-.723956m-37.957559-39.093632c4.244017 2.248608 11.823237 8.286402 15.528618 11.599225 8.184373 7.316301 14.87141 16.232545 20.986554 25.318919-.24076-5.602697 7.533671-11.560856 11.93964-6.885547 1.905108 2.022733 2.964304 5.20814 1.025938 7.573305-3.104566 3.789186-6.613291 5.003261-11.157353 2.938538l4.695169 7.946143c.934118.010859 3.51234-8.341423 7.941445-8.737427 4.876642-.435822 15.378956 4.795485 12.84556 10.730478-2.450973 5.740248-12.743617 5.211036-17.529885 3.092741 2.555086 6.82763 5.888121 13.873171 7.594404 20.984592 2.990333 12.466525 4.521649 41.71001-2.396749 52.633784-1.353458 2.137843-3.664169 5.483244-5.833896 2.661263-3.455222-4.496491-.715048-23.043524-.786625-29.620665-.052056-4.751325-1.653503-10.107152-2.195754-14.084568-1.054136-7.736919-.754813-11.298783-3.601992-19.197869-7.7043-21.376253-24.082444-46.607572-44.839083-56.817526-.321012-3.836968 2.974427-6.54384 3.615006-10.135386.436693.210671 1.767015-.212843 2.169003 0" fill="#539b53"/><path d="m165.481603 120.130709c1.743517 2.319261-1.392639 3.369245-2.330006 5.286955-.704657 1.443547-.814125 3.33076-1.29477 4.87887-50.888957-10.292898-84.5638516 50.187227-81.2261577 94.065106.2798328 3.682934 1.2411235 7.223545 2.9309938 10.497667.0724957 3.353996.9322926 8.824662 1.4499107 12.344216-1.0352362.33402-2.7744038-1.044901-2.9193947 1.079756-.3052061 4.463523 2.4285998 8.518235 1.469484 12.716721-7.024816-18.902626-8.4268794-52.441861-4.1206453-72.020514 8.5675209-38.948181 43.0449412-77.082369 86.0405852-68.848777" fill="#92c44c"/><path d="m84.947909 246.136319c3.2710196 22.257899 16.736294 46.243287 36.542482 57.6354 32.368937 18.616557 77.895287-12.53722 91.913839-42.20083 1.622804-3.434596 1.951721-7.50326 3.135968-10.564404.379743-.980585.711564-.825526 1.281543-1.230281.615721-.436786 1.446364-.583837 2.178259-.727977-5.875492 28.610227-19.358919 41.454654-44.069821 55.184301-42.171104 23.431399-75.9544574-3.255513-91.7083564-42.808691-.1081871-.270807-.4320217-.663187-.7260868-1.455954.9606125-4.209163-1.7774596-8.274187-1.4717771-12.749062.1452171-2.130061 1.8870987-.747633 2.9239503-1.082502" fill="#539b53"/><path d="m178 125c-.616348 3.543571-3.78713 6.214286-3.478261 10-3.046956-1.536429-9.378087-4.347857-12.521739-5 .461217-1.522857.566261-3.379286 1.242435-4.799286.899478-1.886428 3.908869-2.919285 2.235826-5.200714 6.18713 1.214286 7.520696 2.522857 12.521739 5" fill="#6db856"/><path d="m146.407442 167.932674c-15.919471 1.63615-29.38845 11.300091-38.689411 23.772382-42.2997055 56.717933 33.824058 135.264731 83.940614 85.132718 19.64829-19.654098 21.495975-47.119235 12.169564-72.335662-8.418203-22.758941-32.947117-39.084919-57.420767-36.569438m72.13826 44.73279c.936568 5.910292 1.454298 12.84635 1.454298 18.847983 0 6.260431-.943112 11.923525-1.454298 18.123062-.571539.402332-.903846.247923-1.283418 1.224394-1.18598 3.048299-1.515378 7.09989-3.141283 10.520799-14.038336 29.538415-59.631299 60.562197-92.047597 42.023029-19.835894-11.344311-33.3208705-35.228331-36.5959492-57.392835-.5199115-3.514424-1.3823101-8.975265-1.4542977-12.323681-.8020452-37.084133 19.2301799-83.215299 60.0770419-89.078471 40.924666-5.873322 68.687211 31.722606 74.445503 68.05572" fill="#283b30"/><path d="m162.411081 130.150891c3.274357.658432 9.868719 3.496975 13.04236 5.048221 20.801838 10.170722 37.215647 35.305091 44.936724 56.599207 2.853378 7.868733 2.553404 11.416911 3.609835 19.124101-3.172192-.312989-3.941691-.290633-5.796604 2.163523-5.737914-36.145259-33.402207-73.546804-74.181317-67.703128-40.702304 5.832137-60.6636352 51.724789-59.865153 88.617185-1.6889852-3.251775-2.6497725-6.768221-2.9294587-10.426018-3.3359457-43.578403 30.3213117-103.645738 81.1836137-93.423091" fill="#c4da46"/><path d="m220.19074 249.291712c-.736088.140241-1.571491.283315-2.19074.708288.513363-6.056569 1.460494-11.589714 1.460494-17.707196 1.86578-1.668018.731707-6.558037 3.539506-3.06122-.687162 5.371655-.498758 11.522427-1.384548 16.841668-.17891 1.073765-1.148678 1.91946-1.424712 3.21846" fill="#6db856"/><path d="m129.48423 183.245676c-12.165521 3.322095-23.734086 25.894826-25.479818 37.644142-3.76446 25.337403 5.246659 47.207926 28.391797 58.637991 5.03918 2.488855 6.851159 4.046744 13.103906 5.06748 11.238055 1.835153 18.135805.665287 28.391796-3.619629.539444-.225141.966777-.498061 1.45599-.723926.51178-.235999.960953-.472723 1.455989-.723925 10.172271-5.1558 18.665786-12.084494 22.567838-23.165626 1.890602-1.529656 4.21873-7.145148 4.367969-9.411036.029119-.436527.072071-1.050416 0-1.447852 3.807413-11.228813 1.654004-24.389784-2.78094-35.240708-11.308671-27.672788-44.474657-44.550395-71.474527-27.016911m16.593185-14.990332c24.502848-2.512023 49.059568 13.79151 57.487563 36.519885 9.337261 25.181036 7.487426 52.608413-12.183721 72.236213-50.174855 50.063089-126.3871726-28.37572-84.038261-85.016399 9.31251-12.45442 22.796429-22.105075 38.734419-23.739699" fill="#6db856"/><path d="m193.1288 220.012966c1.517923-.250561 2.754936 3.20025 3.280649 4.304308 2.435032 5.113757 6.581518 16.324743 7.551343 21.690506.071491.396421.028885 1.008743 0 1.444156-3.173774.639761-3.40269 6.731212-4.332797 9.387016-3.870632 11.05285-12.295755 17.96386-22.386117 23.106501l-1.444265.722078c-.485274.225288-.909166.497512-1.444266.722078-2.61051-2.674577-4.55377.641929-4.82818.706192-4.735747 1.115612-15.579293 1.301186-20.840031 1.460042-1.389383.042603-2.89864-.73291-2.494968 1.444157-6.202399-1.018131-7.999787-2.572044-12.998391-5.054547-.787847-7.389026.660752-10.479521 7.943461-12.275329 8.963112 4.250152 22.332679 3.963487 31.309512-.103257 17.865565-8.091608 25.362748-29.169069 20.68405-47.553901" fill="#fefefe"/><path d="m204.039607 245c-.974855-5.347637-5.142849-16.520752-7.590512-21.617235-.528439-1.100328-1.771869-4.539482-3.297665-4.289768-5.755491-22.426109-29.391547-38.341644-52.263253-28.065919-1.93374.405157-4.94541-2.346743-5.116717-3.992557-.32592-3.123233 3.647539-2.646832 3.661331-5.359151-.35931-.310885-8.407125 1.15646-9.432791 1.435679 26.921382-17.429655 59.990955-.651993 71.266751 26.856926 4.422052 10.786669 6.569201 23.869705 2.772856 35.032025" fill="#c4da46"/><path d="m103.844812 221.085788c3.190887-.741882 2.973901 3.51376 4.301828 5.608488 1.7671 2.787151 6.421902 4.725501 9.817143 4.574216.891725 13.991761 9.75398 30.201897 23.036217 36.366797-7.494202 1.808884-8.984868 4.921882-8.174141 12.364711-23.625498-11.483907-32.823637-33.457453-28.981047-58.914212" fill="#c4da46"/><path d="m129.9 182.509379c1.04562-.285017 9.25-1.782825 9.6163-1.465486-.01406 2.768631-4.06482 2.282339-3.73256 5.470415.17464 1.679984 3.2449 4.489017 5.21626 4.075448-13.05138 5.871496-20.5683 21.04718-22.2 34.525249-.19758 1.632971.02146 1.591834 0 2.203739-.04588 1.322244-.75628 3.413593-.74 3.672899-3.38106.152793-8.01642-1.804862-9.77614-4.619772-1.32238-2.11559-1.1063-6.413616-4.28386-5.664344 1.77452-11.92223 13.53386-34.827161 25.9-38.198148" fill="#fefefe"/><path d="m173 281.948576c-10.090634 3.894944-16.877173 4.95834-27.934038 3.290205-.400388-1.983995 1.09659-1.277257 2.474669-1.316082 5.217935-.144768 15.973256-.313885 20.670472-1.330559.272178-.058565 2.199626-3.080949 4.788897-.643564" fill="#c4da46"/><path d="m204 248c-.136667 2.166923-2.268667 7.537154-4 9 .858667-2.546308 1.07-8.386615 4-9" fill="#c4da46"/><path d="m176 280c-.34.347-.6485.674-1 1z" fill="#c4da46"/><path d="m185.35534 214.927485c0-7.008782-5.70762-12.691112-12.749216-12.691112-7.040872 0-12.749217 5.68233-12.749217 12.691112 0 7.008783 5.708345 12.691112 12.749217 12.691112 7.041596 0 12.749216-5.682329 12.749216-12.691112m7.278539 5.401747c4.694639 18.364786-2.828087 39.418543-20.753798 47.50205-9.008142 4.062309-22.42326 4.348662-31.41691.103144-12.951378-6.114382-21.592876-22.18979-22.462919-36.064541-.01541-.254615.680199-2.30813.725124-3.606454v-2.163872c1.597728-13.234244 8.958145-28.135391 21.737795-33.900668 22.831206-10.299312 46.425408 5.652756 52.170708 28.130341" fill="#283b30"/><path d="m119.014216 228c.007465-.555333-.068731-.518 0-2z" fill="#c4da46"/><path d="m185 214.5c0 6.90324-5.59605 12.5-12.5 12.5-6.903239 0-12.5-5.59676-12.5-12.5 0-6.903239 5.596761-12.5 12.5-12.5 6.90395 0 12.5 5.596761 12.5 12.5" fill="#fefefe"/><path d="m411.844625 120c1.412513 3.094 2.333872 6.441583 2.126213 9.916667-4.615294.941375-12.861447 4.63675-17.009681 7.083333.348699-4.067958-3.385637-6.579708-4.961157-9.916667.472019-.281208 1.272181-1.675916 2.126209-2.125 6.007962-3.159166 11.239854-3.958875 17.718416-4.958333" fill="#6db856"/><path d="m419.590229 168.877343c-53.577563 5.507756-69.46384 89.772791-23.545811 117.311567 37.714495 22.619483 79.128197-10.45024 84.423139-49.240057 4.801714-35.185136-23.814911-71.881282-60.877328-68.07151m73.409498 62.836244c.021194 2.485012-1.199545 7.392712-1.451236 10.145865-.42287 4.611296-1.130796 9.151571-1.450667 13.769389-.740569.203642-.625964.850803-.725336 1.449409-.076884.459463.122581 1.118219 0 1.449409-16.228634 43.825791-49.644798 68.158475-93.793008 38.272378-14.689477-9.944398-32.86781-31.686262-36.767208-49.142948-1.036504-4.63666-.823255-12.491734-.725337-17.392912.07181-3.614102.380078-7.278933.725337-10.87057 3.657137-38.079607 31.160371-79.715339 74.261925-73.835086 39.140502 5.339624 59.610169 50.627144 59.92553 86.155066" fill="#283b30"/><path d="m492.407823 231c-.314722-35.322701-20.778972-80.349345-59.910507-85.658126-43.092401-5.846287-70.58861 35.549664-74.245633 73.409311-2.518509-.757265-.348081-6.323991-3.552601-4.256103-.45758.295412-.616392 4.468656-3.699082 3.535584 2.717929-26.865974 21.856573-66.727221 45.685605-80.698076 4.244408-2.488671 12.681743-6.247616 17.40404-7.205185 50.735675-10.286843 85.110829 52.071154 80.49586 95.470867-.19507 1.836602-.715742 4.119926-2.177682 5.401728" fill="#c4da46"/><path d="m391.935084 127c1.601098 3.420429 5.396059 5.995009 5.041699 10.164723-23.667174 14.078142-42.675819 54.245497-45.375287 81.317785-1.065961 10.691837.954321 18.356038.762015 27.976948-.189423 9.465536-4.582182 13.906067-9.533852 3.736262-7.714519-15.845351-3.406747-40.709716 1.204967-57.129374 1.701933-6.060353 4.636921-11.352544 6.119182-17.420884-4.366112 4.378818-14.92559 6.773337-19.131085 1.510188-5.203033-6.510505 10.924638-16.64909 15.198559-9.519263 1.250342.773245 3.539995 7.962608 5.012889 7.279394 1.60542-.745655 4.090259-6.890956 4.68878-8.70899-1.961222.47992-6.20345 1.14934-7.912587.347779-.326269-.153197-5.499772-4.121069-5.7-4.422381-3.223804-4.870354 6.048599-10.723783 11.975477-6.980986 4.701742 2.968825 2.993328 6.935971 1.63711 11.055588.340675-.083496.888061.212733 1.303639-.116168 8.313761-15.583247 19.568272-29.978673 34.708494-39.090621" fill="#539b53"/><path d="m489.096773 257.915062 2.903227.72767c-9.646694 34.555631-40.787421 63.492186-78.387098 51.664623-3.785079-1.190467-10.340562-3.935241-13.790323-5.821365-20.129514-11.007474-37.74411-32.729175-42.822579-55.302978 1.940806.339823 1.481371-.461343 1.451613-2.183012 3.901935 17.527406 22.092096 39.358257 36.79113 49.343355 44.176933 30.009143 77.615562 5.57614 93.85403-38.428293" fill="#539b53"/><path d="m356.632492 248.925581c-1.802504-8.645873-2.801066-17.991865-2.609062-26.842616 1.815567-.341935 1.098486.411876 1.470088 1.548599.660918 2.021232.615855 4.4826 1.792054 6.219122-.087512 4.777908-.279519 12.434712.653083 16.955462.026776 1.671526.440176 2.449358-1.306163 2.119433" fill="#6db856"/><path d="m491.120593 241c1.287189.695583.429063 2.667583.691968 3.747792.182984.751541 1.418995.704791 1.737288 1.1985 1.44704 2.241875-.993435 9.401708-1.728172 12.053708l-2.80434-.708333c.118483-.323709-.073613-.968292 0-1.416667.683558-.1785.660422-.818833.701086-1.416667.30988-4.5135.994138-8.951208 1.40217-13.458333" fill="#6db856"/><path d="m384.144044 267.373297c.550146.681418 1.053841 1.001829 1.451571 1.449824 12.093757 13.623999 29.027052 19.067365 47.176036 15.223157 5.991358-1.269324 6.12853-2.02758 10.886777-4.349474 23.015374-11.230339 32.818553-34.316617 28.305621-59.442797-3.761017-20.939087-14.878595-33.975907-34.837688-40.59508-50.09587-16.613537-84.031406 49.25778-52.982317 87.71437m35.413238-99.09984c37.085442-3.811588 65.72057 32.895788 60.915148 68.090273-5.297507 38.800923-46.737662 71.880114-84.475588 49.25488-45.945829-27.546661-30.05041-111.836546 23.56044-117.345153" fill="#6db856"/><path d="m489 257c.137001-.4135-.021001-.8595 1-1-.058002.422-.025002.874-1 1" fill="#539b53"/><path d="m437 180.624795c-.516951 2.491276-4.419912 2.897824-6.568432 4.666269-.993189.81815-2.218317 3.180169-2.669832 3.289929-3.082088.745217-8.136743-1.171261-11.119948.709111-22.964793 2.80395-33.608503 25.686866-33.445637 46.214985.007998 1.039115-.33373.678782 0 2.888436.101791.672284-.156324 1.604527 0 2.166328-5.794822.233241-4.270136 10.158631-3.461625 13.908544 1.04336 4.84102 4.720199 8.55266 4.188702 13.531603-31.104441-38.30789 2.891594-103.924502 53.076772-87.375205" fill="#c4da46"/><path d="m382.284936 240c5.200009 18.976721 20.739393 32.57336 40.916191 30.983606-1.114968 3.216393 3.879001 2.471311 5.514187 2.245574 2.760381-.381394 4.184412-2.77746 6.855655-3.401558 7.426289-1.735082 7.641097 5.118197 7.357606 10.746147-4.790116 2.36287-4.928207 3.134507-10.959693 4.426231-3.983483-1.167052-8.528103-.888199-12.724203-1.538116-6.436995-.996639-22.01949-4.157705-27.256031-7.521639-1.585502-1.018771-4.019284-7.104836-7.511774-6.432049-.400393-.455902-.907462-.781967-1.461293-1.47541.534104-5.086475-3.160774-8.878278-4.209253-13.823852-.812477-3.830902-2.344644-13.970656 3.478608-14.208934" fill="#fefefe"/><path d="m471.931559 220c4.500734 25.361707-5.275948 48.66439-28.229115 60 .280843-5.582195.068041-12.379756-7.288901-10.658781-2.646298.619025-4.057032 2.99561-6.791636 3.373903-1.619918.223902-6.567252.962927-5.462696-2.227317 19.821183-1.563659 33.248832-18.864878 34.743527-38.048781l5.818092-3.264146z" fill="#c4da46"/><path d="m472 220.657534-7.209342 9.103658-5.816973 3.238808c1.924999-24.514315-15.824802-47.513411-41.973685-44.287671 2.969277-1.890576 8.00033.036301 11.068027-.712959.449408-.110356 1.668815-2.485192 2.657366-3.307781 2.138489-1.778041 6.023227-2.186795 6.537764-4.691589 19.901318 6.629356 30.986713 19.686233 34.736843 40.657534" fill="#fefefe"/><path d="m385 269.049418c3.456309-.641965 5.864877 5.165283 7.433953 6.137381 5.182292 3.209824 20.603356 6.226073 26.973664 7.177054 4.152629.620143 8.650168.354065 12.592383 1.467651-18.081262 3.732828-34.95137-1.552824-47-14.782086" fill="#c4da46"/><path d="m443.664474 215.130691c0-6.944668-5.609795-12.574757-12.529431-12.574757-6.919633 0-12.528707 5.630089-12.528707 12.574757 0 6.944667 5.609074 12.574757 12.528707 12.574757 6.919636 0 12.529431-5.63009 12.529431-12.574757m-27.525326-25.828822c25.990345-3.207396 43.631815 19.660917 41.719207 44.035834-1.486068 18.926746-14.82974 35.996046-34.52624 37.538744-19.864097 1.555692-35.1621-11.749626-40.280614-30.319754-.155368-.561638.099982-1.493609 0-2.165697v-2.887596c-.161124-20.522142 10.368661-43.398397 33.087647-46.201531" fill="#283b30"/><path d="m383.02592 238c-.118156-2.295.002832-1.92075 0-3z" fill="#fefefe"/><path d="m444 214.5c0 6.903381-5.59678 12.5-12.500361 12.5-6.903578 0-12.499639-5.596619-12.499639-12.5s5.596061-12.5 12.499639-12.5c6.903581 0 12.500361 5.596619 12.500361 12.5" fill="#fefefe"/></g></g></svg>