<?xml version="1.0" encoding="UTF-8"?>
<svg width="2048px" height="2048px" viewBox="0 0 2048 2048" version="1.1" xmlns="http://www.w3.org/2000/svg" xmlns:xlink="http://www.w3.org/1999/xlink">
    <title>Icon</title>
    <defs>
        <linearGradient x1="0.00376187705%" y1="49.9897808%" x2="99.9846885%" y2="49.9897808%" id="linearGradient-1">
            <stop stop-color="#F74C00" offset="0%"></stop>
            <stop stop-color="#F74C00" offset="33%"></stop>
            <stop stop-color="#F49600" offset="100%"></stop>
        </linearGradient>
        <linearGradient x1="0.000380010515%" y1="50.0000839%" x2="100%" y2="50.0000839%" id="linearGradient-2">
            <stop stop-color="#CC3A00" offset="0%"></stop>
            <stop stop-color="#CC3A00" offset="15%"></stop>
            <stop stop-color="#F74C00" offset="74%"></stop>
            <stop stop-color="#F74C00" offset="100%"></stop>
        </linearGradient>
        <linearGradient x1="-0.0030939853%" y1="49.9999405%" x2="99.996906%" y2="49.9999405%" id="linearGradient-3">
            <stop stop-color="#CC3A00" offset="0%"></stop>
            <stop stop-color="#CC3A00" offset="15%"></stop>
            <stop stop-color="#F74C00" offset="74%"></stop>
            <stop stop-color="#F74C00" offset="100%"></stop>
        </linearGradient>
    </defs>
    <g id="Page-1" stroke="none" stroke-width="1" fill="none" fill-rule="evenodd">
        <g id="mini-functions" transform="translate(-138.000000, -133.000000)">
            <g id="Icon" transform="translate(138.000000, 133.000000)">
                <path d="M512.049304,0 C229.729233,0 0,229.721738 0,511.95088 L0,1536.24584 C0,1818.36931 229.72186,2048.00012 512.049304,2048.00012 L1536.24572,2048.00012 C1818.36919,2048.00012 2048,1818.37423 2048,1536.14754 L2048,511.95088 C2048,229.72911 1818.3741,0 1536.14742,0 L512.049304,0 Z" id="Path" fill="#000000" fill-rule="nonzero"></path>
                <g id="Elements" transform="translate(402.000000, 315.000000)">
                    <g id="pyramid" fill="#FCC201" fill-rule="nonzero">
                        <path d="M31.1639431,1048.88304 L591.690751,1360.66271 C609.958741,1370.63846 633.148607,1370.63846 651.416597,1360.66271 L1211.9434,1048.88304 C1241.80633,1032.2999 1253.40126,994.145406 1236.81812,964.282482 L1236.81812,962.598298 L674.616414,30.7085923 C656.348424,0.845668853 618.260262,-9.06441724 590.015853,9.13724022 C581.724282,14.1251179 573.43271,22.4166893 568.444501,30.7085923 L7.98402615,962.664631 C-8.59911658,992.527554 1.37663876,1030.61737 31.173893,1048.88371 L31.1639431,1048.88304 Z M684.572933,286.058477 L1095.85146,972.56742 L684.572933,1201.43137 L684.572933,286.058477 Z M558.514515,286.058477 L558.514515,1201.43137 L148.927473,972.56742 L558.514515,286.058477 Z" id="Shape"></path>
                    </g>
                    <g id="ferris" transform="translate(366.000000, 1048.000000)">
                        <g id="Group" transform="translate(123.054047, 157.897275)" fill="#A52B00" fill-rule="nonzero">
                            <path d="M136.509658,0 C83.6234471,0 35.5731503,6.35831511 0,16.7198038 L0,105.228894 C35.5731503,115.590819 83.6234471,121.948697 136.509658,121.948697 C197.039282,121.948697 251.229349,113.620421 287.629132,100.492874 L287.629132,21.4571324 C251.229349,8.32914851 197.039282,0 136.509658,0" id="Path"></path>
                        </g>
                        <g id="Group" transform="translate(418.446989, 176.784646)" fill="#A52B00" fill-rule="nonzero">
                            <path d="M46.7525479,53.0279816 L40.5534524,40.1852843 C40.5852963,39.6975925 40.610597,39.2094644 40.610597,38.7195915 C40.610597,24.1608122 25.4712114,10.7427433 0,0 L0,77.4400555 C11.8847623,72.427037 21.5264911,66.8325398 28.4222269,60.8092402 C26.3929403,68.9695723 19.4518378,85.4786827 13.9179749,97.0886276 C4.82282738,113.693706 1.52938068,128.148665 1.95163981,128.864499 C2.22078638,129.315113 5.32360576,124.528491 9.89909748,116.772097 C20.5471814,101.599995 40.7240137,72.6346768 44.7568501,65.2564838 C49.3249261,56.8924378 46.7525479,53.0279816 46.7525479,53.0279816" id="Path"></path>
                        </g>
                        <g id="Group" transform="translate(61.114526, 170.892212)" fill="#A52B00" fill-rule="nonzero">
                            <path d="M2.90132566,45.4609061 C2.90132566,48.2649161 3.46535568,51.0270491 4.55371985,53.7355274 L0.841067551,60.3442317 C0.841067551,60.3442317 -2.13306749,64.203017 3.10416708,72.3437193 C7.72371682,79.5216883 30.8629062,107.619369 43.0757046,122.333442 C48.3216635,129.876962 51.8781497,134.523557 52.1896094,134.074688 C52.6799186,133.362344 48.9284429,119.199651 38.5102459,103.041696 C33.6490313,94.3631369 27.8429683,82.8657363 24.3584581,74.373006 C34.0874305,80.5306607 46.8162748,86.1159974 61.9395203,90.9231209 L61.9395203,0 C25.4961149,11.5807183 2.90132566,27.6706231 2.90132566,45.4609061" id="Path"></path>
                        </g>
                        <g id="Group" transform="translate(256.000000, 185.235565) scale(-1, 1) rotate(-84.999991) translate(-256.000000, -185.235565) translate(91.278729, -57.331048)" fill="url(#linearGradient-1)" fill-rule="nonzero">
                            <path d="M326.427682,231.532393 L307.323659,245.36634 C307.323659,247.342619 307.323659,249.318897 307.323659,251.295175 L326.098302,265.458502 C328.074581,266.776021 329.06272,269.081679 328.73334,271.387337 C328.40396,273.692995 326.757062,275.669273 324.780784,276.657412 L303.041723,286.538804 C302.712343,288.515082 302.382964,290.49136 301.724204,292.138259 L317.53443,309.595383 C318.851949,311.242282 319.510708,313.877319 318.851949,315.853597 C317.86381,318.159255 316.216911,319.806154 313.911253,320.464913 L290.525294,326.393748 C289.866535,328.040647 288.878396,329.687545 288.219636,331.663823 L299.747926,351.426606 C301.065445,353.402884 301.065445,356.037922 299.747926,358.0142 C298.759787,359.990478 296.454129,361.307997 294.148471,361.637377 L270.103752,362.954895 C269.115613,364.272414 267.798094,365.919313 266.809955,367.566211 L274.056309,389.305272 C275.044448,391.61093 274.385689,393.916588 272.73879,395.892866 C271.421271,397.539765 268.786234,398.527904 266.480576,398.198524 L242.765237,394.904727 C241.447718,396.222246 240.130199,397.539765 238.483301,398.857283 L241.447718,421.913863 C241.777098,424.219521 240.788959,426.525179 238.81268,427.842698 C236.836402,429.160216 234.201364,429.818976 231.895706,428.830837 L209.497886,421.255103 C207.850988,422.572622 206.204089,423.560761 204.557191,424.548901 L202.580913,447.2761 C202.580913,449.911138 200.934014,451.887416 198.957736,452.875555 C196.652078,453.863694 194.01704,453.863694 192.040762,452.875555 L171.61922,441.017886 C171.289841,441.347266 170.960461,441.347266 170.631081,441.347266 L133.740554,482.849109 C133.740554,482.849109 129.787998,488.777943 118.259708,481.53159 C108.378317,474.943996 67.8646127,440.029747 46.4549318,421.584483 C35.9147812,414.00875 29.3271871,408.738675 29.6565668,408.079915 C30.6447059,407.091776 49.0899695,410.385573 71.4877895,425.20766 C91.5799516,436.40657 122.212264,450.569897 125.176682,446.617341 C125.176682,446.617341 130.446757,441.676645 133.740554,432.124634 C133.740554,432.124634 133.740554,432.124634 133.740554,432.124634 C134.069934,432.454013 134.069934,432.454013 133.740554,432.124634 C133.740554,432.124634 29.9859465,250.636416 100.473204,67.8306786 C102.449482,47.4091368 90.5918125,36.2102268 90.5918125,36.2102268 C87.6273951,32.2576703 58.6419809,45.7622383 39.537958,56.3023889 C18.1282771,70.4657163 0.671152636,73.7595133 0.0123932234,72.7713742 C-0.316986483,72.1126148 5.94122794,67.1719192 16.1519988,59.9255657 C36.2441609,42.4684412 74.7815866,9.8598503 84.333598,3.60163588 C95.2031283,-3.64471765 99.1556848,2.28411706 99.1556848,2.28411706 L132.423035,40.1627833 C133.740554,40.492163 135.058073,40.8215427 136.704971,40.8215427 L154.820855,25.9994559 C156.467754,24.3525574 159.102791,24.0231777 161.408449,24.6819371 C163.714107,25.3406965 165.361006,26.987595 166.019765,29.293253 L171.9486,51.691073 C173.595498,52.3498324 175.571777,53.0085918 177.218675,53.6673512 L198.298976,42.4684412 C200.275255,41.1509224 202.910292,41.1509224 205.21595,42.4684412 C207.192228,43.4565803 208.509747,45.4328586 208.509747,47.7385165 L209.827266,70.795096 C211.474165,71.7832351 213.121063,73.1007539 214.767962,74.088893 L237.495161,66.8425395 C239.800819,66.1837801 242.435857,66.5131598 244.082756,67.8306786 C246.059034,69.4775771 247.047173,71.7832351 246.717793,74.088893 L243.094616,96.8160928 C244.412135,98.1336116 245.729654,99.4511304 247.376553,100.768649 L271.091892,98.1336116 C273.397549,97.8042319 275.703207,98.792371 277.350106,100.43927 C278.997004,102.415548 279.326384,104.721206 278.338245,107.026864 L270.433132,128.436545 C271.421271,130.083443 272.73879,131.730342 273.726929,133.37724 L297.442268,135.024139 C300.077306,135.024139 302.053584,136.671037 303.041723,138.647315 C304.359242,140.623594 304.359242,143.258631 303.041723,145.23491 L290.854674,164.997692 C291.513433,166.644591 292.172193,168.291489 292.830952,170.267767 L315.887532,176.196602 C318.19319,176.855361 320.169468,178.50226 320.828227,180.807918 C321.486987,183.113576 320.828227,185.419234 319.181329,187.395512 L303.041723,204.523257 C303.371103,206.170155 304.029862,208.146434 304.359242,210.122712 L325.439543,220.333483 C327.745201,221.321622 329.06272,223.2979 329.3921,225.603558 C329.721479,227.909216 328.40396,230.214874 326.427682,231.532393 Z" id="Shape"></path>
                        </g>
                        <g id="Group" transform="translate(160.826173, 246.448287)" fill="#000000">
                            <path d="M34.606491,39.4781296 C33.8806241,38.8586998 33.5002419,38.4914042 33.5002419,38.4914042 L95.6796431,33.3976854 C44.9592553,-33.5142461 4.32510252,19.7885529 0,25.7481647 L0,39.4781296 L34.606491,39.4781296 Z" id="Path"></path>
                        </g>
                        <g id="Group" transform="translate(266.250056, 245.011946)" fill="#000000">
                            <path d="M58.6486519,40.1938385 C59.3740826,39.5744088 59.754901,39.2062407 59.754901,39.2062407 L0,34.8340267 C50.7443798,-34.824334 88.931349,20.5033894 93.2560153,26.4630012 L93.2560153,40.1938385 L58.6486519,40.1938385 Z" id="Path"></path>
                        </g>
                        <g id="Group" transform="translate(352.094722, 277.056361) scale(-1, 1) rotate(-89.999997) translate(-352.094722, -277.056361) translate(293.813362, 191.266526)" fill="url(#linearGradient-2)" fill-rule="nonzero">
                            <path d="M116.562719,17.4843414 C116.562719,17.4843414 89.5202711,24.2449535 61.0790757,66.5570598 L58.2815811,78.3298497 C58.2815811,78.3298497 128.218947,116.678839 49.4228481,170.996859 C49.4228481,170.996859 59.2140793,154.095329 47.2081648,108.752604 C47.2081648,108.752604 15.2701011,129.617251 16.3191616,171.579671 C16.3191616,171.579671 -32.054183,131.365685 37.7666205,70.053928 C37.7666205,70.053928 62.8275099,5.24530243 116.562719,0 L116.562719,17.4843414 Z" id="Path"></path>
                        </g>
                        <g id="Group" transform="translate(287.255412, 174.876531)" fill="#000000">
                            <path d="M7.22667995,9.23134449 C7.22667995,9.23134449 26.1960605,-11.5391806 45.1663135,9.23134449 C45.1663135,9.23134449 60.0718862,36.9277045 45.1663135,50.7741396 C45.1663135,50.7741396 20.7764868,70.1614171 7.22667995,50.7741396 C7.22667995,50.7741396 -9.03334994,35.5409671 7.22667995,9.23134449" id="Path"></path>
                        </g>
                        <g id="Group" transform="translate(295.150378, 177.167646)" fill="#FFFFFF" fill-rule="nonzero">
                            <path d="M21.2935506,14.6455867 C21.2935506,22.7335066 16.5256867,29.2903009 10.6463391,29.2903009 C4.76742768,29.2903009 0,22.7335066 0,14.6455867 C0,6.55766678 4.76742768,0 10.6463391,0 C16.5256867,0 21.2935506,6.55766678 21.2935506,14.6455867" id="Path"></path>
                        </g>
                        <g id="Group" transform="translate(198.931567, 175.218424)" fill="#000000">
                            <path d="M10.8840802,3.21774412 C10.8840802,3.21774412 43.4242061,-11.1896675 52.3056067,20.9678951 C52.3056067,20.9678951 61.6088302,58.450372 25.5833218,60.5660298 C25.5833218,60.5660298 -20.354807,51.718218 10.8840802,3.21774412" id="Path"></path>
                        </g>
                        <g id="Group" transform="translate(204.198030, 177.239186)" fill="#FFFFFF" fill-rule="nonzero">
                            <path d="M21.9609643,15.1049244 C21.9609643,23.4449783 17.0447863,30.2098487 10.9800459,30.2098487 C4.91748671,30.2098487 0,23.4449783 0,15.1049244 C0,6.76268929 4.91748671,0 10.9800459,0 C17.0447863,0 21.9609643,6.76268929 21.9609643,15.1049244" id="Path"></path>
                        </g>
                        <g id="Group" transform="translate(174.421343, 288.068729) scale(-1, 1) rotate(-89.999996) translate(-174.421343, -288.068729) translate(122.288699, 207.784458)" fill="url(#linearGradient-3)" fill-rule="nonzero">
                            <path d="M38.2621347,93.7344938 C-37.9557907,34.3032797 23.2479332,6.15165198 23.2479332,6.15165198 C27.0014836,39.5165441 49.2099899,63.1847645 49.2099899,63.1847645 C54.318989,23.1468939 54.7360502,-8.95488304e-15 54.7360502,-8.95488304e-15 C125.427915,53.592358 61.4090286,97.070983 61.4090286,97.070983 C65.3711095,107.914573 80.4895763,119.070959 94.4611249,127.307916 L104.262062,160.568543 C39.2005223,122.303183 38.2621347,93.7344938 38.2621347,93.7344938 Z" id="Path"></path>
                        </g>
                    </g>
                </g>
            </g>
        </g>
    </g>
</svg>