<?xml version="1.0" encoding="UTF-8"?>
<svg width="2048px" height="2048px" viewBox="0 0 2048 2048" version="1.1" xmlns="http://www.w3.org/2000/svg" xmlns:xlink="http://www.w3.org/1999/xlink">
    <title>Icon</title>
    <g id="Page-1" stroke="none" stroke-width="1" fill="none" fill-rule="evenodd">
        <g id="mini-functions" transform="translate(-138.000000, -133.000000)" fill-rule="nonzero">
            <g id="Icon" transform="translate(138.000000, 133.000000)">
                <path d="M512.049304,0 C229.729233,0 0,229.721738 0,511.95088 L0,1536.24584 C0,1818.36931 229.72186,2048.00012 512.049304,2048.00012 L1536.24572,2048.00012 C1818.36919,2048.00012 2048,1818.37423 2048,1536.14754 L2048,511.95088 C2048,229.72911 1818.3741,0 1536.14742,0 L512.049304,0 Z" id="Path" fill="#000000"></path>
                <g id="pyramid" transform="translate(400.376054, 340.860695)" fill="#FCC201">
                    <path d="M31.1639431,1048.88304 L591.690751,1360.66271 C609.958741,1370.63846 633.148607,1370.63846 651.416597,1360.66271 L1211.9434,1048.88304 C1241.80633,1032.2999 1253.40126,994.145406 1236.81812,964.282482 L1236.81812,962.598298 L674.616414,30.7085923 C656.348424,0.845668853 618.260262,-9.06441724 590.015853,9.13724022 C581.724282,14.1251179 573.43271,22.4166893 568.444501,30.7085923 L7.98402615,962.664631 C-8.59911658,992.527554 1.37663876,1030.61737 31.173893,1048.88371 L31.1639431,1048.88304 Z M684.572933,286.058477 L1095.85146,972.56742 L684.572933,1201.43137 L684.572933,286.058477 Z M558.514515,286.058477 L558.514515,1201.43137 L148.927473,972.56742 L558.514515,286.058477 Z" id="Shape"></path>
                </g>
            </g>
        </g>
    </g>
</svg>