<svg height="2048" viewBox="0 0 2048 2048" width="2048" xmlns="http://www.w3.org/2000/svg" xmlns:xlink="http://www.w3.org/1999/xlink"><mask id="a" fill="#fff"><path d="m0 0h2048v1311.259h-2048z" fill="#fff" fill-rule="evenodd"/></mask><mask id="b" fill="#fff"><path d="m0 0h1959.277v1090.958h-1959.277z" fill="#fff" fill-rule="evenodd"/></mask><g fill="none" fill-rule="evenodd"><path d="m789.355548 764.286519-.164977 5.88067c39.687177 23.547306 83.345889 32.017441 128.706687 28.016287 173.653032-15.315187 290.251972-162.155494 269.839012-338.374531-18.44128-159.192588-181.21384-281.849508-335.842132-253.078132-159.754671 29.731654-264.386697 174.474945-243.128727 338.747973 7.158419 55.334936 29.623542 103.722227 77.821151 135.189766 36.814152 24.039755 82.492834 17.338335 107.150953-14.555994 17.197911-22.250521 16.481667-27.930108-4.361847-45.86759-16.739193-14.400051-28.549177-31.561925-21.640236-55.289795 6.993442-24.031548 25.414602-33.958514 48.290157-36.765477 32.999548-4.050399 64.474059 14.707832 81.523088 48.161585 37.437849 73.457087 3.709985 154.764643-74.187619 178.607419-11.238598 3.43894-22.666316 6.233593-34.00551 9.327819m236.505482-764.29021237c406.37207 20.89628417 713.75355 206.83710037 909.04279 574.82427637 83.68389 157.686512 118.44991 328.5953 112.43426 507.888047-1.10656 32.87923-1.53711 33.05158-30.48867 20.69109-94.78568-40.45885-179.97047-96.28623-256.72932-165.910419-89.62711-81.295245-184.93589-154.362476-300.56106-192.785867-145.87241-48.47347-277.31934-18.425828-393.50784 82.842358-62.776 54.71527-103.601926 126.235388-145.908626 196.967588-28.20715 47.16027-60.687622 91.6531-90.822193 137.6356-9.021459 13.76397-18.988522 15.99641-31.418177 5.70831-32.641426-27.01497-65.544402-53.72216-97.642609-81.39373-95.006991-81.9026-200.70936-112.82024-320.96195-68.37255-54.543211 20.16172-95.662877 59.33609-129.406837 106.72207-51.018323 71.65144-112.993575 131.33635-186.835144 178.01238-20.1071506 12.7093-20.5578211 12.44666-26.8591615-10.44815-53.6217508-194.86646-48.0648216-388.481289 19.3265248-578.374014 126.0147357-355.084993 372.3021817-578.759771 726.9195667-680.6804529 79.084638-22.7306595 160.338128-31.19669133 243.418446-33.32653647" fill="#f94443" mask="url(#a)"/><path d="m246.89742 588.77428c43.602378-8.74919 87.683593-15.553204 130.722633-26.575871 199.401611-51.058831 376.865221-147.320445 534.225705-280.667629 67.821898-57.472989 128.058852-124.187618 192.673742-185.6822799 27.81281-26.4691738 57.64962-50.7879837 87.34962-75.0903786 8.10402-6.6275529 18.75513-10.4686609 28.74634-14.1661377 41.05126-15.20028213 61.25901-4.7316213 74.421 37.8611779 1.00596 3.2460646 1.72221 6.5865153 2.67988 9.8489949 6.1927 21.0809528 5.98346 20.8265205 22.66229 5.6836908 7.44814-6.7588727 15.35902-13.4685005 24.11088-18.1631881 31.58718-16.9484787 55.28762-8.9625853 71.31057 23.6047578 6.59106 13.3946331 11.91058 27.4294508 18.23606 40.9636109 5.62534 12.040397 13.77362 15.393159 25.90954 7.928441 73.41906-45.1576413 149.89223-40.881536 225.44393-9.134942 48.02458 20.182232 92.76973 48.321631 140.05795 70.510596 38.12995 17.89234 77.55156 33.117245 117.06571 47.640409 13.67302 5.027091 20.0307 8.626078 15.10953 25.073899-17.33874 57.928505-33.53874 116.214036-49.71057 174.499567-3.41624 12.30714-9.41982 9.208811-17.20998 5.453881-67.10163-32.341637-121.25855-80.310346-170.66332-136.663012-75.96615-86.650636-170.104-134.664486-287.4393-115.713378-70.46959 11.379692-126.27226 51.633355-171.54051 106.003911-32.00163 38.439806-58.58315 81.586612-90.76586 119.849957-80.94768 96.236991-175.854071 175.537815-285.636619 235.77673-3.86289 2.117534-7.53666 4.592094-11.294931 6.902504.422504 1.760508.845007 3.516912 1.267511 5.27742 13.117733-1.978007 26.255585-3.812382 39.341127-5.979161 13.210281-2.183194 26.448729-4.304831 39.534271-7.132314 146.838131-31.697348 273.661661-103.574492 387.673271-201.128787 26.66601-22.816838 52.13292-47.373665 80.44067-67.830848 36.81013-26.59639 55.27957-20.276619 75.89775 20.908595 11.01729 22.004296 11.01729 22.004296 29.41833 4.510019 21.89776-20.822417 45.19582-16.427303 58.41013 11.424834 5.7219 12.065019 7.41594 29.920426 16.538 35.320958 7.42399 4.399218 23.00029-6.689109 35.28106-9.442724 41.176-9.24164 80.48494-1.900035 115.99939 19.948319 33.62325 20.678785 70.29254 29.686512 108.04425 35.136289 16.4374 2.37607 18.25216 6.557789 11.00119 21.150716-57.50879 115.717483-132.26779 218.032125-226.35735 305.462474-157.73872 146.565355-341.7612 238.275909-553.27458 267.847519-276.422016 38.64089-529.147613-24.56503-754.635807-193.897983-149.3812-112.175948-259.7834193-256.467827-335.23050218-429.030425-4.9372571-11.293514-3.72205609-15.672213 8.60700318-19.398416 114.136347-34.471482 220.204886-87.389311 322.672084-148.362797 33.63934-20.013979 67.725326-38.472637 107.674053-41.960822 39.723392-3.467667 57.549023 7.407265 73.471375 44.480523 1.822802 4.239171 11.737555 9.20881 15.157822 7.637075 15.660803-7.19387 30.931292-15.696836 45.264226-25.389888 37.639041-25.455548 69.270482-25.911064 102.286125-1.949281 11.146049 8.092591 9.814157 12.048604.692102 20.986567-124.863917 122.312205-267.247651 217.482222-425.911861 287.664519-2.257377 1.001314-4.615349 1.756404-6.925036 2.626398.398361 1.793338.800745 3.582572 1.199106 5.37591" fill="#24365f" mask="url(#b)" transform="translate(75.527 957.042)"/><path d="m789.355548 764.286519c11.339194-3.094226 22.766912-5.888879 34.00551-9.327819 77.897604-23.842776 111.625468-105.150332 74.187619-178.607419-17.049029-33.453753-48.52354-52.211984-81.523088-48.161585-22.875555 2.806963-41.296715 12.733929-48.290157 36.765477-6.908941 23.72787 4.901043 40.889744 21.640236 55.289795 20.843514 17.937482 21.559758 23.617069 4.361847 45.86759-24.658119 31.894329-70.336801 38.595749-107.150953 14.555994-48.197609-31.467539-70.662732-79.85483-77.821151-135.189766-21.25797-164.273028 83.374056-309.016319 243.128727-338.747973 154.628292-28.771376 317.400852 93.885544 335.842132 253.078132 20.41296 176.219037-96.18598 323.059344-269.839012 338.374531-45.360798 4.001154-89.01951-4.468981-128.706687-28.016287z"/></g></svg>