<svg height="249" viewBox="0 0 1442 249" width="1442" xmlns="http://www.w3.org/2000/svg"><g fill="none" transform="translate(0 .52)"><path d="m0 154.903743h8.21122995c8.72905525 0 15.09090905-5.400178 19.08556145-16.200534l47.7139038-134.70855659h5.5481283l48.1577545 141.14438459c1.4795 3.698753 3.254902 6.250892 5.326203 7.656418 2.071301 1.405525 4.734403 2.108288 7.989305 2.108288h12.427807v7.101605h-68.7967914v-7.101605h14.6470584c2.219252 0 4.068628-.554813 5.548129-1.664438 1.479501-1.109626 2.219251-2.404189 2.219251-3.88369 0-1.923351-.2959-3.550802-.8877-4.882353l-10.4304817-29.516043h-51.9304813l-5.3262032 14.868984c-2.0713013 5.918004-3.1069519 10.208556-3.1069519 12.871658 0 3.254902.8137255 6.102941 2.4411765 8.544118 1.627451 2.441176 4.4385027 3.661764 8.4331551 3.661764h13.5374331v7.101605h-60.8074866zm47.2700535-47.048128h47.0481283l-23.0802139-67.6871658zm116.6174865 48.823529h11.540107c1.775401 0 3.032976-.369875 3.772727-1.109625.73975-.739751 1.109626-1.997326 1.109626-3.772728v-137.5935824c0-1.7754011-.369876-3.0329769-1.109626-3.7727273-.739751-.73975046-1.997326-1.10962569-3.772727-1.10962569h-11.540107v-5.3262032h32.401069v147.80213859c0 1.775402.369875 3.032977 1.109626 3.772728.73975.73975 1.997326 1.109625 3.772727 1.109625h11.540107v5.326204h-48.823529zm81.33139-123.3903739c-3.254902 0-5.991979-1.1096257-8.21123-3.3288771-2.219252-2.2192513-3.328877-4.9563279-3.328877-8.2112299 0-3.402852 1.109625-6.1769162 3.328877-8.3221925 2.219251-2.1452763 4.956328-3.2179145 8.21123-3.2179145 3.402852 0 6.176916 1.0726382 8.322192 3.2179145s3.217915 4.9193405 3.217915 8.3221925c0 3.254902-1.072639 5.9919786-3.217915 8.2112299-2.145276 2.2192514-4.91934 3.3288771-8.322192 3.3288771zm-20.860963 123.3903739h9.320856c1.775401 0 3.032977-.369875 3.772727-1.109625.73975-.739751 1.109626-1.997326 1.109626-3.772728v-80.7807482c0-1.7754011-.369876-3.0329768-1.109626-3.7727273-.73975-.7397504-1.997326-1.1096257-3.772727-1.1096257h-9.320856v-5.3262032h30.181818v90.9893044c0 1.775402.369876 3.032977 1.109626 3.772728.73975.73975 1.997326 1.109625 3.772727 1.109625h9.320856v5.326204h-44.385027zm106.187005 7.989305c-13.759358 0-24.818627-4.660428-33.177807-13.981283-8.35918-9.320856-12.53877-22.266489-12.53877-38.836899 0-9.468805 1.849376-18.3088231 5.548128-26.5200531 3.698752-8.2112299 8.840018-14.7950089 15.423797-19.7513369s13.944296-7.434492 22.08155-7.434492c9.024956 0 16.42246 2.4411765 22.192514 7.3235294 5.770053 4.882353 9.949643 11.0592692 12.53877 18.5307487 2.589126 7.4714795 3.88369 15.1278966 3.88369 22.9692509 0 1.627451-.517826 2.70009-1.553476 3.217915-1.035651.517825-2.811052.776738-5.326203.776738h-55.259359c0 14.795009 2.108289 26.557041 6.324867 35.286096 4.216577 8.729055 11.133244 13.093583 20.75 13.093583 6.805704 0 13.204545-2.589127 19.196524-7.76738 5.991978-5.178253 9.801693-13.241533 11.429144-24.189839h5.326203c-.8877 10.800356-4.62344 19.714349-11.207219 26.741978-6.583779 7.02763-15.127897 10.541444-25.632353 10.541444zm16.86631-59.032085c0-11.8360075-1.553476-21.8226385-4.660428-29.9598934-3.106951-8.1372549-8.21123-12.2058824-15.312834-12.2058824-7.545454 0-13.27852 4.105615-17.199198 12.316845-3.920677 8.2112299-5.881016 18.1608734-5.881016 29.8489308zm35.614813 51.04278h9.320855c1.775401 0 3.032977-.369875 3.772728-1.109625.73975-.739751 1.109625-1.997326 1.109625-3.772728v-80.7807482c0-1.7754011-.369875-3.0329768-1.109625-3.7727273-.739751-.7397504-1.997327-1.1096257-3.772728-1.1096257h-9.320855v-5.3262032h30.181818v18.197861l.8877.2219251c3.402852-7.1016043 7.61943-12.3908199 12.649733-15.867647s10.578431-5.2152407 16.644385-5.2152407c10.800357 0 18.456774 3.328877 22.969251 9.986631 4.512478 6.6577541 6.768717 14.6470589 6.768717 23.9679145v59.6978605c0 1.775402.369875 3.032977 1.109626 3.772728.73975.73975 1.997326 1.109625 3.772727 1.109625h9.320855v5.326204h-44.385026v-5.326204h9.320855c1.775401 0 3.032977-.369875 3.772728-1.109625.73975-.739751 1.109625-1.997326 1.109625-3.772728v-63.9144381c0-6.5098039-1.294563-12.0579322-3.88369-16.644385-2.589126-4.5864527-6.990641-6.8796791-13.204545-6.8796791-5.178253 0-9.801693 1.8123886-13.870321 5.4371657-4.068627 3.6247772-7.249554 8.5811052-9.542781 14.868984-2.293226 6.2878788-3.439839 13.2785205-3.439839 20.9719255v46.160427c0 1.775402.369875 3.032977 1.109625 3.772728.739751.73975 1.997327 1.109625 3.772728 1.109625h9.320855v5.326204h-44.385026zm248.103956 9.320856c-6.213904 0-12.316845-1.368538-18.308823-4.105615-5.991979-2.737077-11.20722-5.733066-15.645722-8.987968-6.213904-4.734403-9.912656-7.101604-11.096257-7.101604-2.959002 0-4.882353 3.180927-5.770054 9.542781l-.8877 8.877005h-5.104278l-1.553476-70.1283423h5.326203c.887701 10.9483063 3.957665 21.4157753 9.209893 31.4024063s11.79902 18.049911 19.640374 24.18984c7.841355 6.139928 15.904635 9.209893 24.18984 9.209893 12.131907 0 20.971925-2.959002 26.520054-8.877006 5.548128-5.918003 8.322192-13.019607 8.322192-21.304812 0-7.249555-2.108289-12.945633-6.324866-17.088236-4.216578-4.142602-10.393494-7.841354-18.530749-11.096256l-33.73262-13.5374336c-11.688057-4.7344028-20.30615-10.837344-25.854278-18.3088235-5.548129-7.4714795-8.322193-16.4594474-8.322193-26.9639038 0-14.2032085 4.142603-24.7076649 12.427808-31.513369 8.285205-6.80570405 18.641711-10.2085561 31.069518-10.2085561 9.764706 0 20.565063 4.43850267 32.40107 13.315508 1.479501 1.0356506 2.959002 1.9603387 4.438503 2.7740642 1.4795.8137255 2.811051 1.2205882 3.994652 1.2205882 2.515151 0 3.994652-1.775401 4.438503-5.3262032l.8877-7.98930479h5.326203l2.219252 57.70053479h-5.326203c-2.367202-10.6524065-6.102942-20.1212122-11.20722-28.4064171-5.104278-8.285205-11.059269-14.7210339-17.864973-19.3074867-6.805704-4.58645274-13.833333-6.87967912-21.082888-6.87967912-8.285205 0-15.090909 2.70008912-20.417112 8.10026742-5.326203 5.4001782-7.989305 12.9086452-7.989305 22.525401 0 6.657754 1.701426 11.8360072 5.104278 15.5347594s8.433155 6.8796791 15.090909 9.5427807l42.831551 17.0882353c9.912656 3.9946524 17.347148 9.6907309 22.303476 17.0882353 4.956328 7.3975046 7.434492 15.1648846 7.434492 23.3021386 0 7.841355-1.738413 15.23886-5.215241 22.192514-3.476827 6.953654-8.80303 12.612745-15.978609 16.977273-7.17558 4.364527-16.163547 6.546791-26.963904 6.546791zm103.745829-1.331551c-6.657754 0-12.168895-2.367201-16.533423-7.101604s-6.546791-11.170232-6.546791-19.307487v-71.2379676h-16.42246v-6.2139038h4.882353c6.657754 0 11.872994-3.5877896 15.645722-10.763369 3.772727-7.1755793 5.659091-15.1278966 5.659091-23.8569518v-7.9893048h6.213903v42.6096256h27.518717v6.2139038h-27.518717v72.3475936c0 4.438503.887701 8.137255 2.663102 11.096257 1.775401 2.959001 4.808378 4.438502 9.09893 4.438502 10.504457 0 15.756685-8.877005 15.756685-26.631016h3.994652c0 9.912656-1.442513 18.456774-4.32754 25.632353-2.885027 7.17558-9.579768 10.763369-20.084224 10.763369zm81.33139 0c-10.800357 0-18.456774-3.328877-22.969252-9.986631s-6.768716-14.647059-6.768716-23.967914v-59.6978612c0-1.7754011-.369876-3.0329768-1.109626-3.7727273-.739751-.7397504-1.997326-1.1096257-3.772727-1.1096257h-9.320856v-5.3262032h30.181818v74.1229944c0 6.509804 1.294564 12.057933 3.88369 16.644385 2.589127 4.586453 6.990642 6.879679 13.204546 6.879679 5.178253 0 9.801693-1.812388 13.87032-5.437165 4.068628-3.624778 7.249555-8.581105 9.542781-14.868984 2.293227-6.287879 3.43984-13.278521 3.43984-20.971925v-46.1604282c0-1.7754011-.369876-3.0329768-1.109626-3.7727273-.73975-.7397504-1.997326-1.1096257-3.772727-1.1096257h-9.320856v-5.3262032h30.181818v90.9893044c0 1.775402.369876 3.032977 1.109626 3.772728.73975.73975 1.997326 1.109625 3.772727 1.109625h9.320856v5.326204h-30.181818v-18.197861l-.887701-.221926c-3.402852 7.101605-7.619429 12.39082-12.649732 15.867648-5.030303 3.476827-10.578432 5.21524-16.644385 5.21524zm115.50786 0c-6.953654 0-13.426471-2.330214-19.418449-6.990642-5.991979-4.660427-10.763369-11.059269-14.314171-19.196524-3.550802-8.137254-5.326203-17.16221-5.326203-27.074866s1.775401-18.9376113 5.326203-27.0748662 8.322192-14.5360963 14.314171-19.1965241c5.991978-4.6604278 12.464795-6.9906417 19.418449-6.9906417 5.770054 0 10.948307 1.8863637 15.534759 5.6590909 4.586453 3.7727273 7.989305 8.3221925 10.208557 13.6483958l.8877-.2219252v-63.0267379c0-1.7754011-.369875-3.0329769-1.109626-3.7727273-.73975-.73975046-1.997326-1.10962569-3.772727-1.10962569h-15.978609v-5.3262032h36.839572v147.80213859c0 1.775402.369875 3.032977 1.109625 3.772728.739751.73975 1.997327 1.109625 3.772728 1.109625h11.540107v5.326204h-32.40107v-16.42246l-.8877-.221925c-2.811052 5.918003-6.398842 10.615418-10.763369 14.092246-4.364528 3.476827-9.357844 5.21524-14.979947 5.21524zm2.441177-6.213904c4.438502 0 8.50713-1.627451 12.205882-4.882352 3.698752-3.254902 6.620766-7.730393 8.766043-13.426471 2.145276-5.696079 3.217914-11.872995 3.217914-18.530749v-20.417112c0-6.657754-1.072638-12.8346703-3.217914-18.5307487-2.145277-5.6960784-5.067291-10.1715686-8.766043-13.4264706-3.698752-3.2549019-7.76738-4.8823529-12.205882-4.8823529-7.249555 0-12.723708 4.0686274-16.42246 12.2058823-3.698753 8.1372549-5.548129 19.7513369-5.548129 34.8422459s1.849376 26.704991 5.548129 34.842246c3.698752 8.137255 9.172905 12.205882 16.42246 12.205882zm91.318023-125.1657749c-3.2549 0-5.99198-1.1096257-8.21123-3.3288771-2.21925-2.2192513-3.32888-4.9563279-3.32888-8.2112299 0-3.402852 1.10963-6.1769162 3.32888-8.3221925s4.95633-3.2179145 8.21123-3.2179145c3.40285 0 6.17691 1.0726382 8.32219 3.2179145s3.21791 4.9193405 3.21791 8.3221925c0 3.254902-1.07263 5.9919786-3.21791 8.2112299-2.14528 2.2192514-4.91934 3.3288771-8.32219 3.3288771zm-20.86097 123.3903739h9.32086c1.7754 0 3.03298-.369875 3.77273-1.109625.73975-.739751 1.10962-1.997326 1.10962-3.772728v-80.7807482c0-1.7754011-.36987-3.0329768-1.10962-3.7727273-.73975-.7397504-1.99733-1.1096257-3.77273-1.1096257h-9.32086v-5.3262032h30.18182v90.9893044c0 1.775402.36988 3.032977 1.10963 3.772728.73975.73975 1.99733 1.109625 3.77273 1.109625h9.32085v5.326204h-44.38503zm104.85546 7.989305c-8.13726 0-15.60874-2.404189-22.41444-7.212567s-12.16889-11.281194-16.08957-19.418449-5.88102-17.01426-5.88102-26.631016 1.96034-18.493761 5.88102-26.6310159 9.28387-14.6100713 16.08957-19.4184492 14.27718-7.2125669 22.41444-7.2125669c8.13725 0 15.60873 2.404189 22.41444 7.2125669 6.8057 4.8083779 12.16889 11.2811943 16.08957 19.4184492s5.88102 17.0142599 5.88102 26.6310159-1.96034 18.493761-5.88102 26.631016-9.28387 14.610071-16.08957 19.418449c-6.80571 4.808378-14.27719 7.212567-22.41444 7.212567zm0-5.326203c8.877 0 15.23886-4.17959 19.08556-12.53877s5.77005-20.1582 5.77005-35.397059c0-15.2388591-1.92335-27.0378787-5.77005-35.3970587s-10.20856-12.5387701-19.08556-12.5387701c-8.87701 0-15.23886 4.1795901-19.08556 12.5387701s-5.77006 20.1581996-5.77006 35.3970587c0 15.238859 1.92336 27.037879 5.77006 35.397059s10.20855 12.53877 19.08556 12.53877z" fill="#dfd5c9" transform="translate(287.895 41.82)"/><g transform="translate(0 .48)"><path d="m76.989588 88.093564c-13.041792 0-25.7433308-.0069368-38.4448699.0102016-1.3816331.0016323-2.7059388.3219598-3.9065161 1.0662619-2.9558701 1.8317833-3.4070661 10.3888096-.6499862 12.5139875 1.7660158 1.36129 5.2481437.856927 5.394968-.907526.1447622-1.7371132 1.0087985-1.6820246 2.2621666-1.6787605 9.545229.0253001 19.0900458.0118338 28.6348622.0012242.7819629-.0008162 1.6187795.2244334 1.9928514-.8948761 1.150261-3.4428055 2.6564475-6.7383011 4.716524-10.1105126m53.074097-26.8577182v-.0326445c8.790073 0 17.580148-.0236678 26.369809.0216274 1.565576.0081611 1.869535-.6018893 1.070662-1.7428262-2.156997-3.0804479-3.067226-6.6032331-4.02942-10.1480536-.981165-3.614599-4.961918-7.635626-10.307808-7.4630164-8.712537.2811536-17.440334.0836524-26.161532.0885491-5.334341.0028564-9.054853 2.7376771-10.285949 7.8641397-.798048 3.3236518-1.811796 6.4999938-3.641326 9.4310915-1.076849 1.7252794-.855788 1.9750123 1.233572 1.9774608 8.58386.0089773 17.167719.0036722 25.751992.0036722m66.383142 45.7713172h-.011136c0 22.367014.004949 44.734027-.014023 67.101041-.001237 1.126247-.01196 1.843617 1.56104 1.834805 1.604756-.009551 1.347814-.900346 1.353175-1.817258.006599-1.019743.004537-2.039486.003712-3.059229-.003299-4.062241-.003712-4.118962 4.066126-4.127531 1.356475-.002856 1.736734-.412141 1.696316-1.736705-.097333-3.192664.012372-6.390633-.056503-9.58493-.023508-1.111557.235496-1.583274 1.45422-1.503702 1.573825.102831 3.161259-.017547 4.738383.051007 1.006737.043663 1.264504-.335018 1.263276-1.292327-.02723-18.288042-.030529-36.576085-.004959-54.8637185.00165-1.0360654-.237558-1.4767704-1.362661-1.4029116-1.368436.0901815-2.760379-.0946699-4.118091.0550879-1.676107.1852595-1.985428-.4798788-1.979654-2.0137775.050316-13.8687486.027633-27.7379046-.008249-41.606653-.003711-1.4726899.616992-3.3069214-.35345-4.3209514-.816607-.8528462-2.614792-.2395314-3.970855-.2117834-1.084685.0224434-1.416689-.2987002-1.382458-1.3767957.076712-2.4450978-.037531-4.8959085.045367-7.3405982.040831-1.2013298-.428512-1.4265791-1.544542-1.4894204-1.803134-.1016071-1.365961 1.0911535-1.366374 2.0133699-.011548 22.2307216-.00866 44.4618515-.00866 66.6929809m-99.3489091 70.384703c1.9190265.905078 3.5555401 1.855043 5.4234261 1.898297 1.264091.029381 1.398542.614539 1.390706 1.628977-.032169 4.147118-.000824 8.294235 0 12.441761.002887 14.889307.021447 29.779023-.025571 44.66833-.004536 1.412297.303135 2.084781 1.853039 2.213319 3.624003.300333 7.243057.699008 10.846026 1.187048 1.809321.244836 2.296811-.272176 2.291037-2.114161-.057328-18.424742-.008661-36.849892.003711-55.274635.0033-4.707385-.003299-4.615571 4.768903-4.773082 1.949546-.064474 2.4292.557411 2.423013 2.419798-.060214 18.558994-.031344 37.117989-.02887 55.676983.000826 4.19282-.000412 4.11488 4.325544 4.133888 1.719823.007517 2.326505-.355249 2.318668-2.233551-.082485-19.308601-.019384-38.61761-.111768-57.926212-.009073-1.913803.591009-2.221888 2.309184-2.203118 5.908028.065698 11.819768.055088 17.726559-.080796 4.918202-.112624 9.213637-1.878709 12.747731-5.332941.741958-.725123 1.499175-1.43474 2.638301-2.523037 0 1.542468.039181 2.476519-.01196 3.405671-.044543.81653.162496 1.147875 1.098295 1.247441 1.571762.167305 1.768078-.65004 1.550728-1.79016-.724223-3.799042.386445-6.863168 3.539456-9.205026.536568-.398676.901567-1.019744 1.361836-1.524106 2.793374-3.061677 5.376822-6.29678 7.906241-9.661238.739071.857743.461094 1.704468.462332 2.472846.016497 12.849822.003299 25.699643.008248 38.549057.000413.874881-.381083 1.898704 1.280589 1.894216 1.608881-.004489 1.337916-.961391 1.33709-1.879935-.006599-8.362789-.015672-16.725579-.030932-25.08796-.004536-2.65076-.009073-2.752775 2.655623-2.629541 1.577536.073043 1.985015-.411325 1.916964-1.932982-.136513-3.053924-.014435-6.118457-.094445-9.176054-.03217-1.222957.165796-1.971748 1.632389-1.71467 1.177894.206887 1.677344-.16404 1.674076-1.50411-.044574-18.220712-.037563-36.441833-.005806-54.6629529.002062-1.0634053-.290349-1.5518539-1.374622-1.3482317-1.730134.3252245-1.942535-.5586346-1.93841-2.0129614.041243-14.5493935-.01691-29.0991945.061451-43.6485872.010724-1.9941911-.431812-2.9482362-2.572724-2.5116117-1.709513.3480756-1.964394-.4978336-1.952434-1.9974555.066402-8.3619734.026396-16.7247629.027633-25.0875523 0-1.0111737.25488-2.0011282-1.469892-1.9280854-1.775502.0750831-1.118505 1.2400955-1.119329 2.0007201-.023096 18.5610345-.007837 37.1216611-.000826 55.6826959.00165 4.7612482.000413 9.5229051.000413 14.6983346-3.447484-5.6226638-7.747456-10.0199224-11.748006-14.6420224-1.085097-1.25397-1.5-2.4169416-1.500412-3.9826693-.005362-14.1417408-.054441-28.2834814-.118367-42.424814-.003712-.8238739.40088-1.9138032-1.285125-1.8982969-1.618367.0146902-1.316469.980161-1.316882 1.8807503-.005774 13.2578819-.000413 26.5157637-.021859 39.7736457-.000825.5451683.323756 1.1821505-.234671 1.6889617-2.171845-2.5058989-4.358949-4.9428355-6.433874-7.4699531-.733296-.8932444-1.498763-1.1678693-2.630877-1.1658289-18.484189.0334613-36.968791.0342774-55.45298-.0069368-1.281413-.0024485-2.130602.3346093-2.972367 1.3290523-5.733159 6.7697219-11.5380804 13.4802749-17.3190809 20.2104149-3.5889469 4.1785384-6.5072857 8.7067847-8.2299968 13.9981033-3.6557598 11.2281897-3.3315918 22.6089937-1.5795984 34.0518227.2750893 1.797098-.3542755 2.740126-1.9116029 3.490141-2.3170193-9.602477-2.4250755-19.196385-1.4047292-28.94862-7.2690399 0-14.546741-.237899-21.798459.086101-4.6307394.206886-8.3058835 3.963899-8.3446517 8.078779-.1047567 11.080064-.0065989 22.16176.0070113 33.243048.0020621 1.664069.7374209 2.967007 1.864586 4.161399 1.5614517 1.654685 3.5386306 1.912171 5.6473739 1.910947 8.7954354-.006121 17.5925204.097118 26.3850685-.061209 2.4230133-.043663 3.2565301 1.190312 4.0834478 2.995571-10.5486661 0-20.924112.003265-31.2999707-.00612-.7506186-.000817-1.5177343-.008978-2.2493812-.153432-4.6624963-.92344-7.4934008-4.509475-7.5193837-9.768149-.0536156-10.741781-.0127853-21.484379-.0008249-32.226569.0004125-.539455.0507286-1.087073.1517734-1.617143 1.0327192-5.417409 6.0923835-9.480467 11.9719543-9.510663 6.6652457-.034685 13.3304916.040806 19.9957374.013874.6998898-.002857 1.8398403.47335 1.9701675-.816121.1105307-1.094826.7431947-2.138645.4182015-3.348136-9.3398399 0-18.6141039.017955-27.8879554-.025299-1.0397305-.004897-1.3548254.504771-1.7693153 1.282942-1.334204 2.504266-3.9341488 3.470961-7.0615889 2.750327-2.718724-.626781-4.4055538-2.713194-4.4649433-5.5998129-.0416553-2.0390777-.0321694-4.0793796-.0251581-6.1188654.014435-4.2817775 2.4865272-6.6403665 6.8479512-6.4742864 13.2554296.5043627 26.5158083.3056376 39.7749497.3317532 1.1560354.0024486 1.8728347-.3966347 2.5900464-1.2564178 2.7525432-3.3003926 5.592521-6.5293744 8.3875446-9.7954896 3.2763264-3.8284225 6.5402801-7.6674547 9.5868838-11.2412473-2.0068734-3.7835361-5.431674-2.9111028-8.5620008-2.9845534-.7551551-.0175471-1.5115479-.0073456-2.2675283-.0114258-3.2486934-.0175465-3.2701397-.0179546-3.2746765-3.2216368-.0206217-14.1417407-.0400057-28.2834813-.0206217-42.4252219.0020623-1.3951585-.1142422-1.9517528-1.7569419-1.2690678-5.6279901 2.3398182-11.1240031 4.9216163-16.3841073 7.9939029-42.6466844 24.910046-65.64530839 74.025826-56.55251264 122.742115 7.01993364 37.612558 28.60805454 65.096648 62.42713434 83.315729 2.4939512 1.343742 5.0613143 2.59812 8.0353308 3.588075v-72.574356c3.3344787 1.9187 3.0894969 5.099939 2.9686557 8.247309-.0313446.814896-.014848 1.631425-.0156726 2.447546-.022271 20.464228-.0296946 40.928864-.0956834 61.393092-.0045362 1.394751.4103661 2.019899 1.7841632 2.41735 3.0833102.892836 6.0849597 2.059889 9.1600211 2.983329 4.596508 1.380469 4.6117676 1.332317 4.6117676-3.416689.0004124-18.695695.0004124-37.391389.0004124-56.399658m119.4399171-134.9223089c-.500688-.1954609-.68628-1.1250225-1.247595-.8614155-.75103.3529722-.330354 1.2184683-.330767 1.8403523-.015672 38.3429857-.007423 76.6859711-.004536 115.0293651.000824 12.916743-.011136 25.833895.004124 38.751046.000825.63331-.263542 1.334766.371597 2.090086 2.408166-2.575677 4.25708-5.477394 6.174869-8.319535.226011-.335018.073413-.929562.073825-1.40332.005362-6.934578.038356-13.869156-.019384-20.802918-.011136-1.313547.183943-2.067642 1.724773-1.821174 1.803959.288091 2.415177-.363174 2.407753-2.299012-.08496-21.754923-.091146-43.509846-.028457-65.2647695.006187-2.0619293-.29736-3.2550975-2.696041-2.7939894-1.59527.3068612-1.354825-.8165285-1.354825-1.7477225-.002474-14.752607-.012785-29.5052139.002475-44.2578211.001237-1.1454255.008248-1.9701155-1.465356-2.4214303-1.593209-.4876322-.280451-2.4708057-1.40308-3.4358685 1.698378.8932442 2.622629 2.3940903 3.666483 3.7525233 14.058015 18.2957954 22.603518 38.8045023 24.851663 61.726886 3.976216 40.531821-8.131015 75.543403-37.718997 104.063967-18.319218 17.658405-40.353174 28.756423-65.771925 32.317158-31.419987 4.401747-60.8219645-1.582458-87.3311741-19.142112-29.0031604-19.211483-47.41434994-45.839463-54.01690661-79.819876-5.74800628-29.579889-1.34451464-57.9564079 13.86417301-84.1812248 17.2126744-29.6810879 42.4095385-50.0392203 75.9700262-58.90188379 38.7760495-10.23945919 74.5743705-3.25550573 106.6909485 20.90289309 6.577398 4.9477322 12.617404 10.4847035 18.056089 16.6509039-.156722.1162972-.313033.2325945-.469755.3488917" fill="#dfd5c9"/><path d="m217.00759 42.1205431c.663184.7500149 1.326368 1.5000299 2.333517 2.6389264-1.726424-.4043878-2.215975-1.4029116-2.803272-2.2900348.156722-.1162973.313033-.2325945.469755-.3488916" fill="#dfd5c9"/><path d="m84.8933547 70.0592531c-.7555681.0979761-1.10077.5970343-1.0582898 1.3756133.0362937.6737075.3254056 1.197249 1.0954081 1.1682767.7860873-.0297884 1.3144072-.5349667 1.304509-1.2686598-.0090729-.6916621-.4070663-1.2792689-1.3416273-1.2752302m-14.2444316-3.2183306v-.0285642c2.5995323 0 5.1990651-.0024486 7.7985974.0016323.6503987.0008162 1.2183115-.0106096 1.2616164-.9103828.0461924-.9609818-.632664-.7483824-1.0974702-.6867656-1.4129776.1868918-2.2939231-.5019143-3.1072312-1.5306341-.6157544-.7793957-1.2459444-1.6628461-2.4122898-1.7158942-3.8863077-.1766903-7.8357162-.6169872-10.5684625 3.1371685-.3447896.47335-.6854554.8479493-.5064619 1.3853646.2078641.6227003.8182572.3297128 1.2438823.3346098 2.4626067.02734 4.9252134.0134657 7.3878195.0134657m-20.0749233 19.4754981c2.1314269-1.9950074 3.6462742-3.6574454 3.7832003-6.5534497.2016772-4.2699442 1.8868572-7.9147395 8.4572444-7.63685 6.0074234.2546293 12.0342309.0542718 18.096095.0542718-.5856475-1.8350474-1.6208417-2.6119946-3.622766-2.5589464-5.3549624.1415967-10.718586.1391482-16.074786.0191788-3.6289523-.0812043-6.3233431 1.232342-8.1050313 4.5029462-.3913939-.668403-.7048391-1.2674356-1.076849-1.8281106-1.5379432-2.3210475-4.2108878-3.277541-6.8306292-2.4655008-2.3974428.7426698-3.7250479 2.6352537-3.7221703 5.4565836.0028964 2.7866439.0482634 5.5745127.1538449 8.3591167.0255706.6728914-.279626 1.9072744.5703877 1.8970729.9976628-.012242.7180368-1.2821261.7485565-2.0101054.1002199-2.375728.0697002-4.757168.1097057-7.135752.0441298-2.6103622 1.5791861-4.2785134 3.9151772-4.2854502 2.2036018-.0065288 3.5312068 1.4163778 3.5827603 4.0410219.0635139 3.2420399.0152598 6.4865278.0152598 10.1439732m77.7529522 78.9792714c25.144485.333793 46.191501-20.000672 46.590731-45.013141.405004-25.3768678-20.33599-46.6184504-45.874757-46.9812164-25.506598-.3623573-46.9309846 20.1336995-47.3042318 45.2547124-.3819079 25.699643 20.2415448 46.390345 46.5882578 46.739645m-31.2290341 12.096134c0 19.008676 0 37.703963-.0004124 56.399657 0 4.749007-.0152596 4.797158-4.6117676 3.41669-3.0750614-.923441-6.0767109-2.090494-9.1600211-2.98333-1.3737971-.39745-1.7886994-1.022599-1.7841632-2.416942.0659888-20.464636.0734124-40.928864.0956834-61.3935.0008246-.815713-.015672-1.63265.0156726-2.447546.1208412-3.14737.365823-6.328201-2.9686557-8.247308v72.574354c-2.9740165-.989954-5.5413796-2.244332-8.0353308-3.587666-33.8190798-18.219488-55.4072007-45.70358-62.42713434-83.316137-9.09279575-48.7162886 13.90582824-97.8320688 56.55251264-122.7421149 5.2601042-3.0722866 10.7561172-5.6540846 16.3841073-7.9939028 1.6426997-.682685 1.7590042-.1260907 1.7569419 1.2690678-.019384 14.1417406 0 28.2834812.0206217 42.4252219.0045368 3.2036818.0259831 3.2040899 3.2746765 3.2216364.7559804.0044889 1.5123732-.0061207 2.2675283.0114258 3.1303268.0734512 6.5551274-.798982 8.5620008 2.9845541-3.0466037 3.5737926-6.3105574 7.4128247-9.5868838 11.2412472-2.7950236 3.2661152-5.6350014 6.495097-8.3875446 9.7954896-.7172117.8601913-1.434011 1.2588664-2.5900464 1.256826-13.2591414-.0265244-26.5195201.1722013-39.7749497-.3321614-4.361424-.1656726-6.8335162 2.1925083-6.8479512 6.4742858-.0070113 2.0394858-.0164972 4.0797877.0251581 6.118866.0593895 2.8866185 1.7462193 4.9730315 4.4649433 5.5998125 3.1274401.720635 5.7273849-.24606 7.0615889-2.750327.4144899-.778171.7295848-1.287839 1.7693153-1.282942 9.2738515.043254 18.5481155.0253 27.8879554.0253.3249932 1.209491-.3076708 2.253309-.4182015 3.348135-.1303272 1.289471-1.2702777.813264-1.9701675.816121-6.6652458.026932-13.3304917-.048559-19.9957374-.013874-5.8795708.030196-10.9392351 4.093253-11.9719543 9.510663-.1010448.530071-.1513609 1.077687-.1517734 1.617144-.0119604 10.742189-.0527907 21.484787.0008249 32.226568.0259829 5.258674 2.8568874 8.844709 7.5193837 9.76815.7316469.144861 1.4987626.152614 2.2493812.15343 10.3758587.009386 20.7513046.006122 31.2999707.006122-.8269177-1.80526-1.6604345-3.038826-4.0834478-2.995572-8.7925481.158328-17.5896331.055497-26.3850685.061209-2.1087433.001224-4.0859222-.256262-5.6473739-1.910946-1.1271651-1.194394-1.8625239-2.49733-1.864586-4.1614-.0136102-11.081288-.111768-22.162984-.0070113-33.243047.0387682-4.114882 3.7139123-7.871893 8.3446517-8.07878 7.251718-.324 14.5294191-.086101 21.798459-.086101-1.0203463 9.752235-.9122901 19.346551 1.4047292 28.94862 1.5573274-.750015 2.1866922-1.693043 1.9116029-3.49014-1.7519934-11.44283-2.0761614-22.823634 1.5795984-34.0514152 1.7227111-5.2917272 4.6410499-9.8199729 8.2299968-13.9985114 5.7810005-6.7301399 11.5859219-13.4402849 17.3190809-20.2104148.841765-.9944431 1.690954-1.3315009 2.972367-1.3286443 18.484189.0408056 36.968791.0399894 55.45298.0065288 1.132114-.0020405 1.897581.2725844 2.630877 1.1658282 2.074925 2.5271182 4.262029 4.9640549 6.433874 7.4699538.558427-.5068113.233846-1.1437935.234671-1.6889624.021446-13.2578816.016085-26.5157634.021859-39.7736453.000413-.9005893-.301485-1.8660601 1.316882-1.8807503 1.686005-.0155063 1.281413 1.074831 1.285125 1.8982969.063926 14.1413326.113005 28.2830732.118367 42.4248137.000412 1.5657276.415315 2.7286999 1.500412 3.9826693 4.00055 4.6221 8.300522 9.0197666 11.748006 14.6420229 0-5.17543.001237-9.9366783-.000413-14.6983352-.007011-18.5606264-.02227-37.121661.000826-55.6826955.000824-.7606246-.656173-1.925637 1.119329-2.0007201 1.724772-.0730428 1.469892.9173198 1.469892 1.9280854-.001237 8.3627894.038769 16.7255789-.027633 25.0875523-.01196 1.4996219.242921 2.345531 1.952434 1.9974555 2.140912-.4366245 2.583448.5174206 2.572724 2.5116117-.078361 14.549393-.020208 29.0991939-.061451 43.6485868-.004125 1.4543275.208276 2.3381859 1.93841 2.012962 1.084273-.2036222 1.376684.2848264 1.374622 1.3486393-.031757 18.2207129-.038768 36.4418329.005806 54.6625449.003268 1.34007-.496182 1.710997-1.674076 1.504111-1.466593-.257078-1.664559.491712-1.632389 1.71467.08001 3.057596-.042068 6.122129.094445 9.176053.068051 1.521657-.339428 2.006025-1.916964 1.932982-2.664696-.123234-2.660159-.021219-2.655623 2.629542.01526 8.362381.024333 16.72517.030932 25.08796.000826.918544.271791 1.875445-1.33709 1.879934-1.661672.004489-1.280176-1.019335-1.280589-1.893808-.004949-12.849822.008249-25.699643-.008248-38.549465-.001238-.768377.276739-1.614695-.462332-2.472438-2.529419 3.36405-5.112867 6.599153-7.906241 9.66083-.460269.504363-.825268 1.125839-1.361836 1.524513-3.153011 2.341451-4.263679 5.405984-3.539456 9.204619.21735 1.14012.021034 1.957465-1.550728 1.79016-.935799-.099566-1.142838-.430911-1.098295-1.24744.051141-.929154.01196-1.863204.01196-3.405672-1.139126 1.088297-1.896343 1.797914-2.638301 2.523037-3.534094 3.454231-7.829529 5.220317-12.747731 5.33335-5.906791.135476-11.818531.146085-17.726559.080795-1.718175-.019179-2.318257.288908-2.309184 2.203119.092384 19.308192.029283 38.617202.111768 57.925803.007837 1.878302-.598845 2.241068-2.318668 2.233936-4.325956-.019392-4.324718.058547-4.325544-4.134273-.002474-18.558995-.031344-37.117989.02887-55.676983.006187-1.862388-.473467-2.484272-2.423013-2.419798-4.772202.157919-4.765603.065698-4.768903 4.773082-.012372 18.424742-.061039 36.849893-.003711 55.274636.005774 1.841984-.481716 2.358997-2.291037 2.11416-3.602969-.487632-7.222023-.886715-10.846026-1.187047-1.549904-.128131-1.857575-.801023-1.853039-2.21332.047018-14.889307.028458-29.779022.025571-44.66833-.000824-4.147117-.032169-8.294643 0-12.441761.007836-1.014438-.126615-1.599597-1.390706-1.628977-1.867886-.042846-3.5043996-.993219-5.4234261-1.898296m99.3487021-70.384663c0-22.2311294-.002474-44.4622593.008662-66.6929809.000412-.9222164-.436761-2.114977 1.366372-2.0133699 1.116443.0628413 1.585785.2880906 1.544955 1.4894204-.082898 2.4446897.031345 4.8955004-.045779 7.3405982-.033819 1.0780955.297773 1.3992391 1.38287 1.3767957 1.35565-.027748 3.154248-.6410628 3.970443.2117834.970443 1.01403.349738 2.8482615.353451 4.3209514.03588 13.8687484.058564 27.7379044.008248 41.606653-.005362 1.5338987.303547 2.199037 1.980066 2.0137775 1.357299-.1497578 2.749656.0350936 4.117679-.0550879 1.125103-.0738588 1.364311.3668462 1.363074 1.4029116-.025983 18.2876335-.022271 36.5756765.004545 54.8637185.001229.957309-.256126 1.33599-1.262862 1.292327-1.577536-.068554-3.164971.051824-4.738796-.051007-1.218311-.079572-1.477729.392145-1.453808 1.503702.068463 3.194297-.041243 6.392266.056503 9.58493.040417 1.324564-.339841 1.733849-1.696316 1.736705-4.07025.008569-4.069837.06529-4.066126 4.127531.000826 1.019743.002475 2.039486-.003711 3.059229-.005775.916912.251581 1.807707-1.353589 1.817258-1.572999.008812-1.561864-.708558-1.561038-1.834805.018971-22.367014.014435-44.734027.014435-67.101041z" fill="#0e0f13"/><path d="m130.063644 61.2359687c-8.58386 0-17.168133.0053045-25.751992-.0036728-2.088947-.0024485-2.310421-.2521814-1.233572-1.9774606 1.82953-2.9310977 2.843277-6.1078478 3.641325-9.4310916 1.231097-5.1264626 4.951608-7.8612833 10.285949-7.8645478 8.721199-.0044886 17.449408.1926045 26.161533-.0885491 5.346302-.1722014 9.326643 3.8488256 10.307808 7.4634244.962607 3.5444125 1.872423 7.0676059 4.02942 10.1476457.798873 1.1413448.494913 1.7509871-1.070662 1.7432341-8.789662-.0452952-17.579736-.0220355-26.369809-.0220355zm-53.074056 26.8575953c-2.0600765 3.3722115-3.566263 6.6677071-4.716524 10.1105126-.3740719 1.1193095-1.2108885.8940599-1.9928514.8948761-9.5448164.0106096-19.0896332.0240759-28.6348622-.0012242-1.2533681-.0032641-2.1174044-.0583527-2.2621666 1.6787605-.1468243 1.764453-3.6289522 2.268816-5.394968.907526-2.7570799-2.1251779-2.3058839-10.6822042.6499862-12.5139875 1.2005773-.7443021 2.524883-1.0646296 3.9065161-1.0662619 12.7015391-.0171384 25.4030779-.0102016 38.4448699-.0102016" fill="#0e0f13"/><path d="m162.311621 119.778433c.135689-18.843005-15.09527-34.4268305-33.760515-34.544007-18.645036-.1146018-34.5354673 15.346398-34.7272459 33.790319-.1921915 18.474526 15.1381619 34.116296 33.5831709 34.265239 19.672806.159144 34.766427-14.331897 34.90459-33.511551m-33.984876 45.517503c-26.346713-.349708-46.9701652-21.040409-46.5882567-46.740052.3732467-25.1210133 21.7976347-45.6166621 47.3046437-45.2543048 25.538767.362766 46.279761 21.6039412 45.874345 46.9812158-.39923 25.01247-21.445833 45.346527-46.590732 45.013141m-77.7527864-78.9793525c0-3.6578529.048254-6.9019333-.0152599-10.1443807-.0515534-2.6246447-1.3791585-4.0471432-3.5827602-4.0406139-2.3359911.0065288-3.8710474 1.6750875-3.9151772 4.2854497-.0400055 2.378584-.0094858 4.7596165-.1097058 7.135752-.0305197.7279799.2491064 1.997864-.7485564 2.0096973-.8500137.0106096-.5448172-1.2237729-.5703877-1.8970723-.1055815-2.7841959-.1509486-5.5720647-.153845-8.3591173-.0028775-2.8209213 1.3247275-4.7135052 3.7221704-5.456583 2.6197414-.8116321 5.2926859.1448614 6.8306292 2.4655008.3720099.561083.685455 1.1601157 1.076849 1.8285186 1.7816881-3.2710122 4.4760789-4.5841504 8.1050313-4.5029467 5.3562.11997 10.719823.1224185 16.0751984-.0195869 2.0015119-.0530476 3.0367061.723899 3.6223536 2.558947-6.0618641 0-12.0886716.2003575-18.0956827-.0538643-6.5707996-.278297-8.2559796 3.3669064-8.4576568 7.6364419-.136926 2.8960049-1.6517733 4.5588509-3.7832002 6.5538578m22.4974419-21.1313656c-.0061866-.2036222-.0119604-.4076524-.0181471-.6112746-2.2638161-.275441-4.5239202-.4080605-6.7580417.6112746zm-2.4221886 1.6555005c-2.4626067 0-4.9256251.0142824-7.3878195-.0134656-.4256251-.0044889-1.0364311.2880905-1.2438822-.3342018-.1794059-.5378234.1616716-.9120146.5064612-1.3857727 2.7327469-3.7541557 6.6817431-3.3138588 10.5680502-3.1371685 1.1663459.0530482 1.7965354.9369066 2.4127028 1.7158942.8133074 1.029128 1.6942535 1.717526 3.1072311 1.5306341.4643939-.0616167 1.143662-.2738081 1.0974702.6867657-.0433049.9001812-.6112177.911607-1.2616164.9103828-2.5995323-.0040803-5.1990651-.0016324-7.7985974-.0016324zm14.2441428 3.2185347c.934561-.0040387 1.3325544.5835681 1.3416273 1.2752302.0098982.7336931-.5184217 1.2388714-1.304509 1.2686598-.7700025.0289723-1.0591144-.4945692-1.0954081-1.1682767-.0424802-.778579.3027217-1.2776372 1.0582898-1.3756133" fill="#dfd5c9"/><path d="m119.873377 98.3813378c3.548117-1.2768209 8.377646-1.4841159 11.803272-1.2188764-3.545642-1.5041103-8.299285-.5929119-11.803272 1.2188764m-10.727247 32.6501352c-1.512785 2.814393.15796 4.488257 1.723536 6.104991 9.818256 10.139485 27.00536 9.611455 36.120839-1.139304 4.457108-5.256634 6.699477-11.022527 3.532032-17.850601.344377 6.291067-3.890019 15.798466-11.205663 19.784399-4.234396 2.307174-8.660984 3.230206-13.437311 2.799703-7.084684-.638615-12.377783-4.352781-16.733433-9.699188m53.165656-11.253081c-.138163 19.179654-15.231783 33.670694-34.905002 33.511959-18.445009-.14935-33.7749501-15.790713-33.5827592-34.265646.1913669-18.443921 16.0817972-33.9049213 34.7268332-33.7903196 18.665658.1171765 33.896617 15.7010026 33.760928 34.5440066m-89.2403855-54.5931741h-6.7761888c2.2341215-1.0193351 4.4942256-.8867156 6.7580417-.6112746.0061867.2036222.0119605.4076524.0181471.6112746" fill="#0e0f13"/><path d="m109.145924 131.031596c4.35565 5.346407 9.648749 9.060572 16.733433 9.699187 4.776739.430503 9.202914-.492529 13.437311-2.799703 7.316057-3.986341 11.55004-13.493332 11.205663-19.784399 3.167858 6.827667.925488 12.593967-3.531619 17.850194-9.115892 10.751167-26.302996 11.278788-36.121252 1.139712-1.565576-1.617143-3.236321-3.290599-1.723536-6.104991m10.727453-32.6502582c3.503987-1.8117883 8.25763-2.7229867 11.803272-1.2188764-3.425626-.2652395-8.255155-.0579445-11.803272 1.2188764" fill="#dfd5c9"/></g></g></svg>