<svg height="2194" viewBox="0 0 2048 2194" width="2048" xmlns="http://www.w3.org/2000/svg" xmlns:xlink="http://www.w3.org/1999/xlink"><linearGradient id="a" x1="50%" x2="50%" y1="58.854%" y2="158.854%"><stop offset="0" stop-color="#d7d7d7"/><stop offset=".5259" stop-color="#fefefe"/><stop offset="1" stop-color="#fefefe"/></linearGradient><path d="m1844.52547 813.598434h-6.95231c0-448.370193-365.22826-813.598434-813.59848-813.598434-448.370222 0-813.598485 365.228241-813.598485 813.598434h-6.952304c-113.2228421 0-203.423891 92.456995-203.423891 203.423876v973.1561c0 113.22283 92.4569997 203.42387 203.423891 203.42387h1641.111749c113.22284 0 203.42389-92.45699 203.42389-203.42387v-973.1561c2.25726-113.222832-90.19874-203.423876-203.42389-203.423876zm-649.55666 993.912686c4.60482 16.16195 0 34.67137-9.20964 48.57691-11.55712 13.9046-27.71861 20.76676-43.88009 20.76676h-235.834692c-18.509429 0-32.322967-6.9523-43.880092-20.76676-11.557125-13.90461-13.904608-32.32297-9.209642-48.57691l76.205371-293.52784c-64.738391-34.67137-108.618483-101.66571-108.618483-180.30963 0-113.22284 92.456999-203.42388 203.423888-203.42388 110.96689 0 203.42389 92.457 203.42389 203.42388 0 78.55146-43.88009 145.63826-108.61848 180.30963zm365.22827-993.912686h-1072.454971c0-295.885495 240.341971-536.227451 536.227481-536.227451 295.88552 0 536.22749 240.341956 536.22749 536.227451z" fill="url(#a)"/></svg>