<svg height="1000" viewBox="0 0 3292 1000" width="3292" xmlns="http://www.w3.org/2000/svg" xmlns:xlink="http://www.w3.org/1999/xlink"><mask id="a" fill="#fff"><path d="m0 0h1000v1000h-1000z" fill="#fff" fill-rule="evenodd"/></mask><g fill="none" fill-rule="evenodd"><g transform="translate(1109.292 181.028)"><text fill="#000" font-family="SFCompactDisplay-Medium, SF Compact Display" font-size="91" font-weight="400" letter-spacing="-.684"><tspan x="0" y="485.101">Enterprise Unified eXecution Intelligence System</tspan> <tspan font-family="SFCompactDisplay-Thin, SF Compact Display" font-size="88" font-weight="300" letter-spacing="-.662" x="0" y="594.101">An ultra-fast, automated security auditor for your codebase.</tspan></text><text fill="#7539c9" font-family="KintoSans-Black, Kinto Sans" font-size="333" font-weight="800" letter-spacing="-2.504"><tspan x="4.409" y="360">euxis</tspan></text></g><g><g fill-rule="nonzero"><path d="m800.905581 848.01334c129.316592-112.679903 183.1428-284.682271 146.144609-451.15218-36.286115-163.263628-158.849799-292.941068-319.62134-338.7041493-77.413369-22.0363388-159.635454-23.7516753-237.701042-4.6623244-171.909159 42.0382087-303.7373571 178.2877797-339.0208234 351.8833167-11.3995039 56.085019-12.9658288 114.767976-3.3147226 172.148223 19.6501457 116.814909 83.780929 221.886745 178.816701 292.493532 171.165903 127.16552 413.425002 118.517781 574.696618-22.006418m46.352495 12.828869c-191.373489 184.852431-500.737644 185.561751-692.575045 2.004551-49.728325-47.581887-88.9562864-104.159316-115.4279272-167.280207-60.758695-144.871131-50.5301936-310.800012 27.5154419-446.850125 76.3982503-133.17543 210.7866903-223.2156333 363.2726723-244.03154004 44.21875-6.03733599 89.113418-6.17570979 133.429441-.78536479 160.391181 19.50945863 301.005017 115.94228183 377.098982 258.17309183 49.621076 92.749089 68.883379 199.825473 55.083259 304.535793-14.790298 112.223643-67.052676 215.661172-148.396824 294.233801" fill="#2613a8" mask="url(#a)"/><path d="m837.067905 769.92564c78.392322-98.997102 108.435581-222.51753 87.281465-345.189019-33.06991-191.777354-190.021662-336.6385128-383.733415-355.1107912-112.257864-10.7046467-225.596944 23.4761741-313.520652 95.1488142-190.2623474 155.095832-211.8703994 439.3929-49.426533 622.830429 78.307522 88.428335 189.19111 140.360894 307.380058 144.362515 136.194207 4.612461 266.850154-54.48811 352.019077-162.041948m-36.162654 78.0877c-161.271616 140.524199-403.530715 149.171938-574.695371 22.006418-95.037019-70.606787-159.1678024-175.678623-178.8167013-292.493532-9.652353-57.380247-8.0860281-116.063204 3.3134758-172.148223 35.2834661-173.595537 167.1116645-309.845108 339.0220685-351.8833167 78.065589-19.0893509 160.287676-17.3740144 237.699798 4.6623244 160.772788 45.7630813 283.335224 175.4405213 319.621337 338.7041493 36.998194 166.469909-16.828017 338.472277-146.144607 451.15218" fill="#fefefe"/><path d="m523.738679 903.408982c123.914265-7.180479 236.796914-71.488142 306.972266-172.987192 51.127541-73.947703 75.496616-161.810079 71.225388-251.027518-7.859062-164.189858-114.45521-305.923271-266.60074-359.920217-230.473003-81.7938731-480.657257 57.752984-529.804446 298.38751-9.7109651 47.545735-10.6550003 97.986099-2.945588 148.098606 8.598575 55.885561 29.654173 108.137251 59.971791 154.989871 78.541971 121.382492 216.37483 190.849877 361.181329 182.45894m313.329849-133.483342c-85.168924 107.553838-215.826118 166.654409-352.019075 162.041948-118.190198-4.001621-229.073786-55.93418-307.381307-144.362515-162.443866-183.437529-140.8345669-467.734597 49.42778-622.830429 87.92371-71.6726401 201.262787-105.8534609 313.519406-95.1488142 193.711753 18.4722784 350.664751 163.3334372 383.734661 355.1107912 21.152871 122.671489-8.890391 246.191917-87.281465 345.189019" fill="#2613a8"/><path d="m823.155173 696.405771c0-.344064-.279345-.623305-.623537-.623305s-.623538.279241-.623538.623305c0 .344065.279346.623306.623538.623306s.623537-.279241.623537-.623306m1.247073-2.49322c0-.344065-.279343-.623305-.623538-.623305-.344191 0-.623535.27924-.623535.623305 0 .344063.279344.623303.623535.623303.344195 0 .623538-.27924.623538-.623303m-306.043196 174.44697c61.371009-6.559665 112.68187-45.860317 136.544632-98.752763 27.118872-60.110327 16.914065-128.112945-22.766585-177.266807-64.672012-80.11095-183.696501-84.805686-254.471694-10.905351-55.53969 57.992334-63.486048 147.762021-17.466519 214.4183 35.514175 51.440147 95.154243 79.240813 158.160166 72.506621m178.6047-81.878642c26.848257-50.470283 33.225793-108.531179 18.809617-163.961729-14.458577-57.413906-48.960127-107.065166-98.37419-140.677531-19.607746 14.147785-40.331621 23.342785-64.057207 30.883535 67.506614 19.975691 120.005938 73.502663 135.211511 143.090971 21.005716 96.129898-27.615207 186.691182-117.544211 224.283978 56.104614-6.088448 100.525391-45.81544 125.95448-93.619224m-383.151033-139.812383c18.294575-64.470972 67.526565-114.8328 133.065296-133.803723-23.436263-7.321345-44.953279-16.877861-64.812932-31.1902-56.982557 37.943091-94.156587 96.851684-104.321487 163.704927-5.970991 40.638264-1.065 80.88634 13.788899 119.086235 21.35739 55.002959 71.777839 108.367873 134.691479 114.733069-92.438118-41.822547-137.264194-133.580579-112.411255-232.530308m356.159361 196.470845c50.841963-26.880669 85.692693-73.002774 102.03934-126.307852 12.319844-40.115935 14.98983-81.296474 9.602471-123.005578-9.276985-72.764671-44.350942-139.302522-100.803491-187.61243-8.861707 17.381495-18.60011 33.098763-31.411301 47.372457 46.886242 37.388352 78.412275 88.243837 91.752226 145.966904 11.818521 52.684262 7.903955 107.108796-11.64393 157.271167-13.122959 33.64104-33.629847 61.486584-59.535315 86.315332m-405.942557-96.314397c-25.454029-70.69031-19.80229-147.81438 15.120772-213.59429 17.32186-32.021692 40.145808-59.495747 69.856101-81.636799-12.146501-14.190171-21.191531-28.789231-29.726504-45.59479-15.739321 13.059495-29.109204 26.886902-41.401611 42.756257-61.232584 78.937886-79.780316 184.475955-46.833867 278.996477 16.705803 47.924705 49.531286 88.136629 94.321198 112.29096-27.502971-27.924082-48.280471-56.960139-61.336089-93.217815m492.797522 33.081311c38.101856-38.800759 61.561812-88.793591 71.409957-141.41428 16.618508-88.807305-1.609974-179.61168-50.323179-255.342038-21.363626-33.031446-47.259119-62.429021-79.25031-86.634463 2.651279 24.700346 1.339358 47.686601-3.955718 71.177734 33.753306 28.825381 59.492913 64.045876 78.078059 104.068315 31.643257 68.442671 38.98478 145.490699 21.579368 218.767725-7.63708 32.158818-20.874771 60.067942-37.538177 89.377007m-559.762905-130.987627c-8.820555-79.146072 10.719849-157.617727 54.467207-222.862842 15.497388-22.213357 32.589785-41.773928 53.656607-59.237698-5.389854-23.440022-6.237864-45.817932-4.427112-69.93237-50.945469 38.780813-88.382632 90.758249-111.59941 149.176924-27.658856 70.859851-32.457596 148.294326-11.014158 221.520241 12.246267 41.817559 33.578716 81.427371 64.518623 111.702559-24.619736-41.651758-40.30668-82.854739-45.601757-130.366814m332.70938-154.665752c89.476316-15.51158 152.833914-96.143611 146.326682-186.273569-5.584397-77.334747-62.263913-141.902952-137.552268-158.806994-97.203186-21.824415-193.928745 42.00829-212.353017 140.035529-5.791412 30.812478-2.877 62.283166 8.04238 92.089631 29.023154 79.223362 111.736589 127.482158 195.536223 112.955403m299.675637 183.939912c-2.260945 4.030293-3.604045 8.531804-4.682763 13.621716 3.251123-2.722597 3.756186-6.549692 5.51082-9.744755 30.266487-55.081499 43.854607-118.323309 42.409248-182.104903-1.899294-83.86948-31.148169-164.921621-83.088804-230.851123-52.697607-66.890642-127.944809-115.34765-213.227214-133.924643 21.073057 11.476298 41.952817 22.335525 60.056592 39.153551 18.788418 17.453797 33.273181 37.338486 44.246186 60.515473 110.164029 71.89329 169.178067 197.420763 167.326162 327.437279-.567419 39.922713-6.451115 78.022876-18.550227 115.897405m-509.90364-443.515442c24.630962-50.389254 57.330491-76.883473 107.217193-100.313523-80.906424 16.495154-153.673194 60.729891-206.920762 122.806121-62.050664 72.33833-94.67038 165.007637-92.623931 260.486802 1.277004 59.573037 15.487412 118.735937 45.243846 169.524106-55.943742-167.89728-1.412934-356.025806 147.083654-452.503506m204.193413 668.731885c-144.806499 8.390937-282.639358-61.076448-361.181329-182.45894-30.317617-46.85262-51.373215-99.105557-59.971791-154.991119-7.7094118-50.111259-6.7653766-100.552871 2.945589-148.097358 49.147188-240.634526 299.331442-380.1813826 529.804445-298.38751 152.14553 53.996946 258.741678 195.730359 266.60074 359.91897 4.269981 89.217441-20.097847 177.081062-71.225388 251.028767-70.176599 101.499048-183.058001 165.806711-306.972266 172.98719" fill="#fefefe"/><path d="m620.454634 701.438464c1.495241-71.80852-58.306948-127.972075-129.004822-122.855986-68.214951 4.93658-118.119114 64.150591-111.361221 132.231746 6.350103 63.971079 60.72752 111.286191 124.328296 109.094648 63.205454-2.176582 114.683423-53.453423 116.037747-118.470408m-102.095459 166.921182c-63.005923 6.732947-122.647239-21.066475-158.160166-72.506621-46.019527-66.656279-38.073172-156.425967 17.466518-214.418301 70.775193-73.900332 189.799683-69.205598 254.471697 10.905352 39.68065 49.153862 49.885454 117.156479 22.766582 177.266806-23.864009 52.892449-75.173623 92.193098-136.544631 98.752764m311.91841-186.289897c-1.159777-.929974-.865468-2.545582-.828056-3.876961 12.099114-37.874529 17.98156-75.974692 18.550227-115.897405 1.851904-130.016516-57.163381-255.543989-167.327407-327.437279-10.971758-23.176987-25.457771-43.061676-44.244942-60.515473-18.103774-16.818026-38.983535-27.677253-60.056592-39.153551 85.282405 18.576993 160.529607 67.034001 213.227215 133.924643 51.940635 65.929502 81.189509 146.981643 83.088803 230.851123 1.444112 63.781594-12.142761 127.023404-42.409248 182.104903m-510.731694-447.393026c-148.49659 96.478948-203.028645 284.606226-147.083655 452.503506-29.757682-50.788171-43.96809-109.949824-45.245094-169.522861-2.046449-95.480412 30.573267-188.149717 92.623931-260.488047 53.247567-62.07623 126.015585-106.309721 206.922008-122.806121-49.886702 23.43005-82.58623 49.924269-107.21719 100.313523" fill="#2613a8"/></g><path d="m756.82667 779.906006c16.664651-29.309068 29.901096-57.216941 37.539424-89.375759 17.404165-73.278277 10.062639-150.326302-21.580618-218.768973-18.583896-40.022439-44.324751-75.241687-78.078059-104.068315 5.295078-23.491133 6.608247-46.477388 3.95572-71.177734 31.991189 24.205442 57.886682 53.604262 79.250308 86.634463 48.713208 75.730356 66.942937 166.534733 50.323181 255.342038-9.848145 52.620686-33.306855 102.613518-71.409956 141.41428" fill="#7539c9"/><path d="m669.971704 843.13884c25.905469-24.8275 46.412356-52.673044 59.536563-86.314082 19.546638-50.16237 23.461203-104.588152 11.642683-157.272417-13.338704-57.721819-44.865984-108.577304-91.750979-145.965654 12.809944-14.274941 22.549592-29.992209 31.410053-47.373704 56.452549 48.311155 91.527754 114.849004 100.803489 187.61243 5.388609 41.710349 2.718623 82.890891-9.602468 123.006823-16.346648 53.305078-51.197378 99.427183-102.039341 126.306604m-472.90769-194.220835c5.295076 47.513323 20.98202 88.716302 45.601757 130.366814-30.938661-30.273943-52.272356-69.883752-64.518624-111.702558-21.443438-73.225918-16.644697-150.660393 11.014158-221.518994 23.216778-58.418675 60.653942-110.396111 111.59941-149.178174-1.810752 24.115686-.962741 46.492348 4.427112 69.932373-21.066821 17.463769-38.159219 37.024338-53.656606 59.238943-43.747359 65.243869-63.287762 143.71677-54.467207 222.861596" fill="#7539c9" fill-rule="nonzero"/><path d="m264.029397 746.825444c13.055618 36.257674 33.833118 65.293731 61.336089 93.217813-44.789912-24.154331-77.615396-64.366255-94.321199-112.29096-32.946449-94.521767-14.398717-200.058589 46.833867-278.997724 12.292408-15.868108 25.66229-29.696761 41.401612-42.75501 8.534973 16.805562 17.580002 31.404619 29.726504 45.59479-29.710293 22.139807-52.534244 49.613862-69.856102 81.636799-34.923061 65.779912-40.574801 142.90398-15.120771 213.594292" fill="#7539c9"/><path d="m313.813215 646.668621c-24.854184 98.949729 19.97314 190.707761 112.410008 232.530307-62.91239-6.365195-113.33409-59.731355-134.690232-114.733069-14.853899-38.199895-19.761136-78.447971-13.790144-119.086235 10.166147-66.853242 47.340178-125.761836 104.322732-163.704927 19.858408 14.312339 41.37667 23.86761 64.811684 31.188955-65.538728 18.972168-114.770718 69.333997-133.064048 133.804969m383.14991 139.812758c-25.429087 47.802537-69.849863 87.530774-125.95448 93.619222 89.930251-37.592793 138.549929-128.15408 117.545459-224.283977-15.205574-69.589554-67.706143-123.115281-135.212756-143.090972 23.725583-7.541995 44.44946-16.736997 64.057207-30.883535 49.41406 33.612365 83.915612 83.263628 98.374189 140.677534 14.417422 55.430547 8.038638 113.490198-18.809619 163.961728" fill="#2613a8" fill-rule="nonzero"/><path d="m830.277585 682.069749c-1.755878 3.195063-2.259697 7.022158-5.51082 9.744755 1.077473-5.089912 2.421819-9.591423 4.682764-13.621716-.037412 1.331379-.331721 2.946987.828056 3.876961m-5.875339 11.842802c0 .344063-.279343.623303-.623538.623303-.344191 0-.623535-.27924-.623535-.623303 0-.344065.279344-.623305.623535-.623305.344195 0 .623538.27924.623538.623305m-1.247073 2.49322c0 .344065-.279345.623306-.623537.623306s-.623538-.279241-.623538-.623306c0-.344064.279346-.623305.623538-.623305s.623537.279241.623537.623305" fill="#7539c9" fill-rule="nonzero"/><path d="m490.218699 601.707109c-55.569619 5.771807-93.932112 55.060306-87.872578 108.710694 6.095698 53.969519 53.755127 92.275376 107.495288 87.045842 54.200334-5.273164 93.884724-53.515754 88.301572-107.762021-5.484631-53.287625-52.917092-93.707732-107.924282-87.994515m130.235686 99.731355c-1.353076 65.015738-52.832293 116.293826-116.037747 118.470408-63.600776 2.190295-117.978193-45.123569-124.328296-109.094648-6.757893-68.081155 43.14627-127.295166 111.361219-132.231746 70.697876-5.116089 130.500065 51.046218 129.004824 122.855986" fill="#fefefe" fill-rule="nonzero"/><path d="m490.218699 601.707109c55.00719-5.713217 102.439651 34.70689 107.924282 87.994515 5.583152 54.246267-34.101238 102.488857-88.301572 107.762021-53.740161 5.229534-101.39959-33.076323-107.495288-87.045842-6.059534-53.650388 32.302959-102.938887 87.872578-108.710694m-3.076905-161.458535c40.725696 4.393057 79.099412-11.462585 104.434969-40.830241 26.537737-30.760123 35.580271-72.14012 24.738208-111.554214-15.30908-55.646212-67.978006-91.683236-124.83336-87.619285-55.572114 3.971702-102.157812 45.682053-110.670339 101.512764-10.423044 68.355407 36.647764 130.973913 106.330522 138.490976m42.631226 54.004426c-83.799636 14.526756-166.513069-33.732041-195.536223-112.955402-10.91938-29.80771-13.833792-61.277154-8.04238-92.089632 18.424272-98.027239 115.151076-161.859944 212.353017-140.035529 75.2896 16.904042 131.969116 81.471001 137.552268 158.806994 6.507232 90.129959-56.849119 170.76199-146.326682 186.273569" fill="#7539c9" fill-rule="nonzero"/><path d="m487.632019 222.593574c-55.557151 7.044597-92.844663 57.580952-85.394644 111.554212 7.417598 53.737651 56.401419 91.025026 110.251324 84.338205 54.018259-6.708012 92.643884-56.274504 85.624104-110.397358-6.946201-53.56063-55.118179-92.514725-110.480784-85.495059m-.4901 217.654502c-69.682756-7.515818-116.753567-70.134324-106.33177-138.490979 8.513774-55.829463 55.099473-97.541059 110.671587-101.512761 56.855354-4.062705 109.52428 31.973073 124.833359 87.620532 10.842063 39.412847 1.799529 80.792844-24.738208 111.554212-25.335556 29.366408-63.709272 45.223298-104.434968 40.828996" fill="#fefefe" fill-rule="nonzero"/><path d="m487.632019 222.593574c55.362605-7.019666 103.534583 31.934429 110.480784 85.495059 7.01978 54.122854-31.605845 103.689346-85.624104 110.397358-53.849905 6.686821-102.833726-30.600554-110.251324-84.338205-7.450019-53.97326 29.837493-104.509615 85.394644-111.554212" fill="#2613a8"/></g></g></svg>