<svg height="4096" viewBox="0 0 4096 4096" width="4096" xmlns="http://www.w3.org/2000/svg" xmlns:xlink="http://www.w3.org/1999/xlink"><mask id="a" fill="#fff"><path d="m0 0h4096v4096h-4096z" fill="#fff" fill-rule="evenodd"/></mask><g fill="none" fill-rule="evenodd"><path d="m1935.20041 303.502491c-1109.686432 70.501973-1862.9836476 1207.874249-1485.648862 2271.650189 485.504967 1368.72938 2295.029652 1585.87084 3050.259602 336.50214 719.26853-1189.87277-193.81658-2695.238255-1564.61074-2608.152329m-1305.876047 3217.021999c-976.442174-955.90533-793.518659-2551.462636 388.302187-3236.999958 1546.6329-897.141199 3416.51263 468.367046 3025.9632 2225.326908-344.33536 1549.06691-2285.32596 2116.8743-3414.265387 1011.67305" fill="#0f2a4c" mask="url(#a)"/><path d="m1368.57609 2941.54281c-19.96205 5.23795-111.02925 134.08916-117.0962 159.16101-12.03099 49.77492-4.6317 114.28408 6.14129 164.09932 14.40972 66.68732 16.73701 80.71857 74.50745 115.07351 407.02912 242.03469 979.95311 255.11515 1391.47098 17.2812 14.28393-8.25164 65.97026-37.77777 72.96927-47.47575 30.472-42.1917 40.09564-209.37962 23.23283-258.8837-9.30342-27.31339-90.86135-145.3084-115.40936-149.09424-370.5359 304.52127-950.59615 302.19905-1322.91612 2.03986-4.01985-3.10589-8.07974-3.46892-12.90014-2.20121m2043.05381-317.49225c-78.34433 7.81947-160.18245 12.0663-237.60044-5.46267-273.85348-281.53538-545.53407-564.29237-823.87058-841.21214l-247.36703 239.88534 940.05189 1142.55836c162.4354-142.70382 294.79334-331.53502 368.78616-535.76889m-2362.30366 529.29205 920.7074-1126.92519-4.72891-16.3477-237.64046-233.00513-828.80534 841.5233c-72.803444 16.07687-152.674518 14.94169-226.19273 5.49149 64.820911 160.68802 157.780823 313.03221 274.322372 440.90959 17.171594 18.84855 65.163998 71.89069 82.758738 83.68616 5.83823 3.91261 12.57992 8.72415 19.57893 4.66748m832.25911-1349.9788c53.47039 50.65079 108.1759 100.25283 160.57699 152.12522 137.68726-126.09106 268.29545-259.89211 403.0493-388.93348 98.64374-94.46169 201.85629-184.70537 300.43714-279.23621 50.63419-48.5533 28.50496-49.16411-20.72828-88.90682-378.13532-305.206985-1041.23449-312.173628-1400.45419 28.17774-7.96538 7.54288-26.12621 20.07016-20.30514 31.73309 197.19029 176.48831 385.42596 363.15287 577.42418 545.04046m1614.41008 611.76812c2.32729-2.90421 14.5241-51.07143 16.90856-60.75213 131.53453-534.42627-86.46409-1183.26915-507.15387-1531.163391-5.25497-4.350551-36.25305-30.338609-40.07849-25.820951 20.77403 164.854183-13.92368 327.461062-51.59483 486.587502 214.21321 267.80953 303.99383 596.12918 244.44505 938.00756-11.67074 66.99848-37.13936 130.03825-50.30254 196.52965 91.99927 51.35379 206.44226 66.35887 307.91077 34.25123 13.38046-4.22955 73.66117-29.89492 79.86535-37.63947m-2383.06052-1617.736472c-3.65962-4.315977-56.70686 37.962157-62.93392 43.119433-414.2683 343.399639-602.658362 960.584329-484.201235 1484.955359 4.460155 19.75899 17.068668 79.60643 26.417838 92.93468 7.456464 10.643 81.094757 37.55303 97.551584 41.44259 74.97634 17.73066 163.882085 11.7609 236.00507-15.81756 13.168892-5.03051 51.640583-19.70713 54.905645-31.53717 2.962-10.72944-32.324683-120.65144-37.482452-144.64573-75.531-351.37469.325935-702.8531 221.1722-984.01392-9.29199-58.90243-28.59074-115.30401-38.17435-174.22948-16.70271-102.7191-22.15782-208.474936-13.26038-312.208202m1669.67597 293.855212c44.28133-144.853169 38.54603-296.148615-14.56983-437.613545-385.42025-239.314868-890.10388-262.47939-1304.40648-82.003561-29.49992 12.849971-135.44575 62.959097-153.4236 81.640535-19.01856 19.764754-44.95607 134.06035-47.88376 164.957904-8.60581 90.912106.28591 194.910437 36.60758 278.798277 400.1216-305.287657 970.16936-336.836353 1395.21636-63.52957 12.53418 8.05573 82.15834 63.42585 88.45973 57.74996m-847.41219-787.749331c1370.79988-87.085926 2283.88499 1418.279561 1564.61647 2608.152321-755.22995 1249.36871-2564.754643 1032.22725-3050.265328-336.50213-377.334785-1063.77594 375.968148-2201.148219 1485.648858-2271.650191" fill="#fefefe"/><path d="m1881.58649 1803.36208c-191.99821-181.88183-380.2396-368.54639-577.42418-545.04046-5.82107-11.66293 12.33977-24.19021 20.29943-31.73309 359.22541-340.351367 1022.32458-333.384724 1400.4599-28.17774 49.23325 39.74272 71.35676 40.35352 20.72829 88.90682-98.58085 94.53084-201.7934 184.77452-300.43715 279.23621-134.75385 129.04137-265.36204 262.84242-403.04929 388.93348-52.40682-51.86663-107.10661-101.46867-160.577-152.12522" fill="#ec2013"/><g fill="#0f2a4c"><path d="m1368.57609 2941.54281c4.8204-1.26771 8.88029-.90468 12.90014 2.20121 372.31997 300.15919 952.38022 302.48141 1322.91612-2.03986 24.54801 3.78584 106.10594 121.78085 115.40936 149.09424 16.86281 49.50408 7.23917 216.692-23.23283 258.8837-6.99901 9.69798-58.68534 39.22411-72.96927 47.47575-411.51787 237.83395-984.44186 224.75349-1391.47098-17.2812-57.77044-34.35494-60.09773-48.38619-74.50745-115.07351-10.77299-49.81524-18.17228-114.3244-6.14129-164.09932 6.06695-25.07185 97.13415-153.92306 117.0962-159.16101"/><path d="m2782.61203 1091.25356c-6.3014 5.67588-75.92556-49.69424-88.45973-57.75573-425.047-273.306784-995.09477-241.752326-1395.22209 63.53533-36.32167-83.8936-45.20767-187.886169-36.60186-278.798276 2.92769-30.897554 28.86521-145.19315 47.87805-164.957904 17.98357-18.6872 123.92939-68.790564 153.42931-81.640535 414.3026-180.481591 918.98623-157.311307 1304.40648 81.997799 53.11586 141.470692 58.85117 292.760376 14.56984 437.619316"/><path d="m3411.6299 2624.05172c-73.99854 204.23387-206.35076 393.06506-368.79188 535.76889l-940.04617-1142.55837 247.36703-239.88533c278.33651 276.91976 550.01138 559.67099 823.87058 841.21213 77.41799 17.52897 159.25611 13.28214 237.60044 5.46268"/><path d="m1049.32624 3153.34491c-6.99901 4.05091-13.7407-.75486-19.57893-4.66748-17.59474-11.79546-65.587144-64.84337-82.758738-83.68615-116.541549-127.87739-209.501461-280.22157-274.322372-440.91536 73.518212 9.45596 153.389286 10.58538 226.19273-5.48573l828.80534-841.5233 237.64046 233.00513 4.72891 16.3477z"/><path d="m1112.93376 797.395458c-8.89743 103.733266-3.44232 209.489102 13.26039 312.208202 9.58361 58.92547 28.88236 115.32705 38.17434 174.22948-220.840541 281.16082-296.697476 632.63923-221.172193 984.01392 5.157768 23.99429 40.444451 133.91629 37.482451 144.64573-3.259343 11.83004-41.736753 26.50666-54.899926 31.53717-72.128703 27.57846-161.034449 33.54822-236.010789 15.81756-16.451108-3.88956-90.09512-30.79959-97.551583-41.44259-9.343452-13.32825-21.957684-73.17569-26.417838-92.93468-118.45141-524.37103 69.932934-1141.55572 484.201228-1484.955359 6.22706-5.157276 59.27431-47.43541 62.93392-43.119433"/><path d="m3495.99601 2415.13366c-6.20991 7.74455-66.4849 33.40416-79.86536 37.63946-101.46851 32.10188-215.9115 17.10257-307.91076-34.25122 13.16317-66.4914 38.63179-129.53693 50.30253-196.53541 59.54878-341.87262-30.23184-670.19227-244.44505-938.00757 37.67115-159.12067 72.36886-321.733313 51.59484-486.587496 3.82544-4.511895 34.82351 21.476163 40.07849 25.820952 420.68977 347.900004 638.6884 996.737124 507.15387 1531.169154-2.38447 9.68069-14.58128 57.84792-16.90856 60.75213"/></g></g></svg>