<svg height="4096" viewBox="0 0 4096 4096" width="4096" xmlns="http://www.w3.org/2000/svg"><g fill="none" fill-rule="evenodd"><circle cx="2048" cy="2048" fill="#fff" r="1798" stroke="#f56a01" stroke-opacity=".66" stroke-width="500"/><g fill="#f56a01" transform="translate(1024 1024)"><path d="m1134.66162 714.755982c-126.71612-46.527094-276.523209-5.992013-362.17818 98.253945-43.795249 53.312719-70.055705 117.198649-75.783331 186.108378-5.463466 67.411835 11.191091 136.761465 46.263159 194.567855 71.817531 118.25664 212.190621 178.44296 347.357192 151.56666 129.97583-25.73033 236.5945-135.70346 257.12282-266.82302 2.81982-18.06447 4.5821-35.95388 4.5821-54.1925v-.70496c-.79316-137.819457-88.29658-261.18337-217.39038-308.781997zm0 0c-126.71612-46.527094-276.523209-5.992013-362.17818 98.253945-43.795249 53.312719-70.055705 117.198649-75.783331 186.108378-5.463466 67.411835 11.191091 136.761465 46.263159 194.567855 71.817531 118.25664 212.190621 178.44296 347.357192 151.56666 129.97583-25.73033 236.5945-135.70346 257.12282-266.82302 2.81982-18.06447 4.5821-35.95388 4.5821-54.1925v-.70496c-.79316-137.819457-88.29658-261.18337-217.39038-308.781997zm849.28585-48.464877c-29.52017-78.691134-68.29162-153.328489-115.87672-222.502154 50.22896-55.956586 61.24207-139.053413 28.63814-207.784929-32.77989-69.173664-111.03114-112.089128-186.81221-103.539422-39.38956 4.582101-76.83907 20.531927-106.18329 46.703052-127.95007-88.0303914-276.70368-146.806801-430.91421-168.6615643-170.07148-23.9685033-345.169007-7.2257424-506.508053 53.3127188-78.691134 29.5201726-153.328489 68.2916235-222.502153 115.8767165-55.956586-50.22896-139.053413-61.242064-207.784929-28.638132-69.173665 32.779889-112.089129 111.03113-103.539423 186.812206 4.582102 39.389557 20.531928 76.839074 46.703052 106.18329-88.0303908 127.950074-146.806823 276.703681-168.6615863 430.914211-23.9685033 170.071472-7.2257424 345.169002 53.3127188 506.237352 29.5201726 78.69113 68.2916465 153.32849 115.8767385 222.50215-50.228959 55.95659-61.242064 139.05341-28.638132 207.78493 32.779889 69.17366 111.031131 112.08913 186.812207 103.53942 39.389556-4.5821 76.839074-20.53193 106.183289-46.70305 128.21401 88.29658 276.861591 147.15871 431.072122 169.18943 170.071479 23.96851 345.169009 7.22575 506.508049-53.31271 78.69114-29.52018 153.32849-68.02769 222.50216-115.87672 55.95658 50.22896 139.05341 61.24206 207.78492 28.63813 69.17367-32.77989 112.08913-111.03113 103.53943-186.81221-4.58233-39.38955-20.53193-76.83907-46.70306-106.18328 88.29659-128.21401 147.15872-276.8616 169.18944-431.07213 23.26242-170.15945 6.52079-345.507381-54.01655-506.598282zm-1691.890063-367.800913c.881139-1.057321 1.762503-2.467458 2.819824-3.52478 1.938685-2.203072 4.582101-3.965349 7.04956-5.463465 5.992013-3.52478 7.04956-3.348597 12.777411-3.965349 5.022896-.704956 7.754516-.881139 13.394164.704956 2.643641 1.057547 5.463465 2.203072 8.107107 3.52478 2.203072 1.762503 4.405918 3.52478 6.60899 5.022896 2.203072 2.467233 1.938685.440569 5.463465 7.04956.176183.176182.176183.704956.44057 1.057321.881364 1.58632 1.762502 3.08421 2.203072 4.846488.440569.881364.704956 1.762502.881138 2.643641.881139 3.084211 1.057547 5.992013 1.057547 8.988245 0 2.819824-.176408 5.727852-1.057547 8.635654-.704956 5.287283-5.463465 11.896048-8.988245 15.420828-3.52478 3.700962-9.869384 7.490129-14.804075 8.635654-1.586095.176408-3.084211.440795-4.582102.704956-4.405918 1.057547-8.811836.881364-13.217981-.704956-2.819823-.704956-5.992013-1.762277-8.371267-3.52478-2.203072-1.762277-4.405919-3.52478-6.608991-5.022896-.176182 0-.176182-.176182-.176182-.176182-2.203072-1.938686-3.965349-4.405919-5.287283-7.04956-1.938685-2.467459-3.084211-5.287283-3.348597-8.107107-.440569-2.819824-.881139-5.992013-1.057547-8.811837-.792934-5.551443 1.145525-12.953594 4.053553-17.359512.704731-1.321483 1.585869-2.643416 2.643416-3.524555zm50.932111 1454.596918c-3.52478 3.70096-9.869384 7.49013-14.804076 8.63565-1.586094.17619-3.08421.44057-4.582101.70496-4.405918 1.05732-8.811837.88114-13.217981-.70496-2.819824-.70495-5.992013-1.7625-8.371268-3.52478-2.202846-1.7625-4.405918-3.52478-6.60899-5.02289-.176183 0-.176183-.17618-.176183-.17618-2.203072-1.93869-3.965349-4.40592-5.287282-7.04956-1.938686-2.46724-3.084211-5.28706-3.348598-8.10689-.440569-2.81982-.881138-5.99223-1.057546-8.81206-.176183-5.02289 1.762502-12.51302 4.582101-16.91894.704956-1.32193 1.58632-2.64364 2.643641-3.52478.881364-1.05755 1.762503-2.46723 2.819824-3.52478 1.938685-2.20307 4.582101-3.96535 7.04956-5.46347 5.992013-3.52478 7.04956-3.34859 12.777411-3.96535 5.022896-.70495 7.754516-.88136 13.394164.70496 2.643641 1.05732 5.463465 2.20285 8.107107 3.52478 2.203072 1.76228 4.405918 3.52478 6.60899 5.0229 2.203072 2.46746 1.938685.44057 5.463465 7.04956.176409.17618.176409.70495.440795 1.05732.881139 1.58609 1.762277 3.08421 2.202847 4.84649.440569.88113.704956 1.7625.881138 2.64364.881364 3.08421 1.057547 5.99201 1.057547 8.98824-.440569 2.46746-.704956 5.37526-1.586095 8.19509-.705181 5.2875-5.46369 11.89627-8.98847 15.42105zm1320.832362-459.45715c-.17618.17619-.17618.70496-.44057.88114v.17641c0 .17618-.17618.44057-.17618.70496-.17641.17618-.17641.44057-.17641.70495v.17619c-.44057.88113-.88113 1.76227-1.3217 2.81982-1.93869 4.40592-3.96535 8.81184-5.99224 13.39416-7.75452 16.74276-16.03781 33.31002-25.11448 49.34692-8.63566 15.15667-17.6239 30.13602-27.14024 44.76527-4.84649 7.22574-9.6932 14.2753-14.80408 21.58925-2.81982 3.96535-5.46346 7.75451-8.37127 11.63166-1.05732 1.58609-2.20307 3.08421-3.52478 4.5821-.44057.44057-1.76227 2.20307-2.64364 3.3486 0 .17618-.17618.17618-.17618.44057 0 .17618-.17618.17618-.17618.44057 0 0-.17641.1764-.17641.1764-21.32486 27.3162-44.76527 53.04879-69.79177 77.10527-13.21798 12.51302-26.87631 24.85054-40.97543 36.3058-2.81982 2.46746-5.99201 4.84648-8.98824 7.22574-1.5861 1.05732-3.08421 2.46746-4.40592 3.52478l-.17618.17618h-.17619c-.17618 0-.17618.17618-.44056.17618-.17641 0-.17641.17619-.44057.44057-7.22575 5.46347-14.80408 11.01491-22.20623 16.30219-29.78411 20.9725-60.80217 39.6535-93.4061 55.69266-7.49013 3.70096-14.80408 7.22574-22.47039 10.83872-4.40592 1.93869-8.81184 3.96535-13.39416 5.99201-.17641 0-.4408.17619-.70496.17619-.17641 0-.17641.17641-.44079.17641-.17619 0-.17619.17618-.44057.17618 0 0-.17619 0-.44057.17618h-.17619-.17618-.17641-.17618c-1.76228.70496-3.52478 1.5861-5.46346 2.20307-16.74277 6.87338-33.92587 13.04158-51.10875 18.50504-35.51173 11.45548-72.08147 20.09113-108.82716 25.73033-3.08421.44057-6.3446.88114-9.51701 1.32171h-.17619-.70495-.17618-.44057-.70496c-.70496 0-1.58632.17618-1.93869.17618-2.46745.44057-5.02289.70496-7.49012.88136-8.98825 1.05733-18.32886 1.93846-27.3162 2.64365-18.50504 1.3217-37.00963 1.93846-55.51444 2.20284-19.56258 0-38.949664-.88114-58.600453-2.20284-8.988245-.70496-18.328855-1.58632-27.316198-2.64365-1.321933-.1764-5.727852-.70495-7.754516-.88136h-.176182-.176409c-4.846487-.70496-9.693201-1.32171-14.275302-2.20285-36.305797-5.99201-72.257424-14.53968-107.06533-25.99426-17.18333-5.46347-34.365758-11.89605-51.108744-18.68122 0 0-1.586095-.70496-3.084211-1.32193-.440569-.17619-.704956-.17619-.881139-.44057-.176182 0-.440569-.17619-.704956-.17619h-.176182-.176183c-1.321933-.70495-2.819824-1.3217-2.819824-1.3217-3.52478-1.58632-7.049559-3.08422-10.574339-4.84649-8.811837-3.96535-17.6239-8.37127-26.260457-12.77741-31.900104-16.03781-62.563997-34.80791-91.820234-55.51444-6.60899-4.5821-13.041573-9.51702-19.386402-14.2753-1.057547-.88137-6.168421-4.84649-7.04956-5.46347-3.700962-3.08421-7.490129-6.16842-11.191091-9.25263-13.658551-11.45548-26.876306-23.35265-39.653492-35.68769-13.217981-12.77741-25.730329-25.99427-37.891666-39.38956-5.727852-6.3446-11.455478-13.04157-16.918943-19.56258-2.467459-3.08421-4.846488-5.99224-7.225743-8.98825-1.58632-1.93868-3.08421-3.70096-4.405918-5.72785-.440795-.4408-.704956-.88136-1.057547-1.32193-.176183-.17619-.176183-.44057-.440569-.70496 0-.17618-.176183-.17618-.44057-.44057-21.589248-28.3742-41.23936-58.33426-58.334261-89.70649-8.635654-15.68522-16.742761-31.72189-24.232439-48.02499-1.762502-3.96535-3.52478-7.9307-5.287282-12.16043-.176183-.70496-.704956-1.76228-1.057547-2.64364-.176183-.70496-.440569-1.05733-.704956-1.32171-.440569-.88114-.881139-1.93869-1.057321-2.81983-3.700963-8.98824-7.225743-18.32885-10.57434-27.31619-12.513025-34.36576-22.470387-69.79177-29.520173-105.7434-1.762502-8.81184-3.348597-17.6239-4.846487-26.61237-.704956-3.96535-1.057547-7.9307-1.762503-11.89605 0-.44057 0-.70495-.176183-.88136v-.17619-.70495c-.440569-3.08421-.704956-5.99201-1.057321-8.98825-2.203072-18.68122-3.52478-37.71571-4.405918-56.39647-1.321934-37.89167 0-75.959293 4.405918-113.675002.176183-2.467233.704956-5.022896.881139-7.490129v-.176183-.440569c0-.176183 0-.704956.176182-.881139.704956-3.965349 1.057547-7.930698 1.762503-11.896047 1.586095-9.869384 3.348597-19.826972 5.287283-29.520173 3.700962-18.064469 7.930698-35.953883 13.041573-53.576654 5.022895-17.6239 10.574339-34.807907 16.918943-51.990786 3.084211-8.371267 6.168421-16.566578 9.517019-24.674587.440569-.881364.881138-1.938685 1.057321-2.819824v-.176408c0-.176183.176182-.704956.440569-1.057321.440569-.881139.881139-2.203072 1.057547-2.643641 2.202846-4.846488 4.405918-9.693202 6.60899-14.804076 14.980258-32.603932 32.603932-63.885931 52.166743-93.848252 4.846487-7.225742 9.693201-14.275302 14.804075-21.589248 2.202847-3.084211 4.405919-6.168421 6.873377-9.517019 1.321708-1.938685 2.819824-3.965349 4.229736-5.727852.44057-.440569 2.202847-2.819824 3.348598-4.229736.176182-.176182.440569-.440569.704956-.704955 0-.176183.176182-.176183.176182-.176183v-.176408c1.057321-1.321708 2.203072-2.819824 2.203072-2.819824 1.057321-1.586095 2.467459-3.084211 3.52478-4.405919 2.643641-3.348597 5.463465-6.60899 8.107107-10.13377 5.727852-7.04956 11.896047-13.922937 17.800082-20.70811 23.792546-26.436413 49.522875-51.108745 76.839073-73.843293 3.700963-3.084211 7.490129-6.168421 11.191092-8.988245 1.057321-.881139 4.582101-3.52478 5.992013-4.582101.176183 0 .176183-.176183.440569-.176183 7.04956-5.463465 14.275302-10.838726 21.589249-15.861396 14.539689-10.398158 29.520173-20.091133 44.941226-29.256238 15.420827-9.252631 31.018063-17.800082 47.142944-25.994264 7.754515-3.96535 15.685214-7.754516 23.616589-11.455479 3.965349-1.762277 7.930698-3.524779 12.160434-5.287057.704956-.176182 1.762277-.704956 2.819824-1.057546.176183 0 .176183 0 .440569-.176183 0 0 .176183-.176183.44057-.176183.176182 0 .440569-.176182.440569-.176182h.176183c1.762502-.704956 3.700962-1.58632 5.463465-2.203072 33.66193-13.65855 68.557815-24.850544 103.981571-33.310016 18.064468-4.229736 36.129839-7.930699 54.458695-10.838727 3.700962-.704955 7.490129-1.057321 11.191091-1.762277h.44057.176408c1.762277-.176408 6.344604-.881364 7.754516-.881364 10.13377-1.057321 20.26754-2.202846 30.402213-2.819824 37.891663-2.819824 75.959293-2.819824 114.114893.176408 8.98824.704956 18.32885 1.586095 27.3162 2.643642 1.93846.176182 3.96534.440569 5.99201.704956h.70495.44057.17619.17618c5.46346.881138 11.01491 1.586094 16.56658 2.467458 18.32885 3.084211 36.30579 6.608991 54.45869 11.014909 35.51174 8.635655 70.05571 20.091133 103.80562 33.925866.44057.176182.88113.440569 1.58609.704956.17641 0 .4408.176182.70496.176182.17641 0 .17641 0 .17641.176183h.17618c.17618 0 .17618 0 .44057.176183h.17618.17641.17618.17618c.88114.440569 1.93869.881364 2.81983 1.321933 3.96535 1.762277 7.9307 3.52478 11.89604 5.463465 8.37127 3.96535 16.74277 7.930699 24.85055 12.160435 16.56658 8.371267 32.60393 17.447716 48.28892 26.876305 14.80407 8.988245 29.25624 18.505038 43.61929 28.638132 6.34461 4.405918 12.51303 8.988245 18.68122 13.65855h.17618l.17641.176183c.17619 0 .17619.176182.44057.176182l.88114.881365c.70496.440569 1.32171 1.057321 1.5861 1.321707 1.93868 1.586095 3.70096 3.084211 5.72785 4.405919 3.70096 3.084211 7.49013 6.168421 11.19109 9.252632 27.3162 22.910505 52.87283 47.585092 76.66312 74.285441 5.72785 6.344604 11.45547 13.041573 16.91894 19.562585 2.81982 3.348597 5.46346 6.60899 8.10688 10.13377 1.58632 1.938686 2.81982 3.700963 4.40592 5.727852.17641.440569.44057.704956.70495.881139l.17641.176182s.17619.176408.17619.176408c.17618.176183.44056.704956.70495 1.057322 10.39816 13.922937 20.53193 28.022282 29.96007 42.473315 19.82697 30.402214 37.45177 62.38804 52.43067 95.346142 1.76228 3.96535 3.52478 7.930699 5.28729 12.160435 0 .176182.17618.176182.17618.440569 0 0 0 .176408.17618.176408 0 .176183.17618.176183.17618.440569.88137 1.762278 1.58632 3.700963 2.20308 5.463466 3.52478 8.635654 6.87337 17.447717 9.86938 25.994264 6.3446 17.6239 12.16043 35.511735 17.18333 53.576655 4.84649 17.18333 8.81184 34.541715 12.33684 52.166742 1.76228 8.811837 3.3486 17.6239 4.84649 26.61237.70496 4.582101 1.5861 9.517019 2.20307 14.09912v.176183.176182.440569.176409c.44057 3.08421.70496 5.992013 1.05732 8.988245 4.22974 37.715709 5.46347 75.783332 3.96535 113.850952-.88114 19.3864-2.46723 38.5955-4.84648 57.98235 0 1.05732-.17619 1.93846-.44057 3.08421v.17618.44057.44057.70496.17618.17641.17618.17618c-.70496 4.40592-1.32171 8.98825-1.93869 13.39417-1.58609 9.51702-3.3486 18.68144-5.0229 28.19824-7.22574 36.30579-17.62389 72.08146-30.40221 106.80139-4.22973 9.42882-7.22574 17.6239-10.57434 25.81831-.17866.43899-.44305.87956-.70744 1.58451zm89.08862 459.45715c-3.52478 3.70096-9.86939 7.49013-14.80408 8.63565-1.58609.17619-3.08421.44057-4.5821.70496-4.40592 1.05732-8.81184.88114-13.21798-.70496-2.81982-.70495-5.99201-1.7625-8.37127-3.52478-2.20307-1.7625-4.40592-3.52478-6.60899-5.02289-.17618 0-.17618-.17618-.17618-.17618-2.20307-1.93869-3.96535-4.40592-5.28728-7.04956-1.93869-2.46724-3.08421-5.28706-3.3486-8.10689-.44057-2.81982-.88114-5.99223-1.05755-8.81206-.17618-5.02289 1.76251-12.51302 4.5821-16.91894.70496-1.32193 1.58632-2.64364 2.64365-3.52478.88136-1.05755 1.7625-2.46723 2.81982-3.52478 1.93869-2.20307 4.5821-3.96535 7.04956-5.46347 5.99201-3.52478 7.04956-3.34859 12.77741-3.96535 5.0229-.70495 7.75452-.88136 13.39416.70496 2.64365 1.05732 5.46347 2.20285 8.10711 3.52478 2.20307 1.76228 4.40592 3.52478 6.60899 5.0229 2.20307 2.46746 1.93869.44057 5.46347 7.04956.17641.17618.17641.70495.44057 1.05732.88136 1.58609 1.7625 3.08421 2.20307 4.84649.44057.88113.70495 1.7625.88114 2.64364.88136 3.08421 1.05754 5.99201 1.05754 8.98824-.44057 2.46746-.70495 5.37526-1.58609 8.19509-.70518 5.2875-5.46369 11.89627-8.98847 15.42105zm0-1409.911958c-3.52478 3.700963-9.86939 7.490129-14.80408 8.635655-1.58609.176182-3.08421.440569-4.5821.704956-4.40592 1.057321-8.81184.881138-13.21798-.704956-2.81982-.704956-5.99201-1.762503-8.37127-3.52478-2.20307-1.762503-4.40592-3.52478-6.60899-5.022896-.17618 0-.17618-.176183-.17618-.176183-2.20307-1.938685-3.96535-4.405918-5.28728-7.049559-1.93869-2.467234-3.08421-5.287058-3.3486-8.106881-.44057-2.819824-.88114-5.992239-1.05755-8.812063-.17618-5.022896 1.76251-12.513025 4.5821-16.918943.70496-1.321934 1.58632-2.643642 2.64365-3.52478.88136-1.057547 1.7625-2.467233 2.81982-3.52478 1.93869-2.203072 4.5821-3.965349 7.04956-5.463465 5.99201-3.52478 7.04956-3.348598 12.77741-3.96535 5.0229-.704956 7.75452-.881364 13.39416.704956 2.64365 1.057322 5.46347 2.202847 8.10711 3.52478 2.20307 1.762277 4.40592 3.52478 6.60899 5.022896 2.20307 2.467459 1.93869.440569 5.46347 7.04956.17641.176183.17641.704956.44057 1.057321.88136 1.586095 1.7625 3.084211 2.20307 4.846488.44057.881138.70495 1.762503.88114 2.643641.88136 3.084211 1.05754 5.992013 1.05754 8.988245-.44057 2.467459-.70495 5.375261-1.58609 8.195085-.70518 5.287509-5.46369 11.896274-8.98847 15.421053zm-618.25339 371.594366c-126.71612-46.527095-276.52321-5.992013-362.178182 98.253944-43.795249 53.312719-70.055705 117.19865-75.783331 186.108378-5.463465 67.41184 11.191091 136.76146 46.263159 194.56785 71.817531 118.25665 212.190622 178.44297 347.357184 151.56666 129.97584-25.73033 236.59451-135.70346 257.12283-266.82301 2.81982-18.06447 4.5821-35.95389 4.5821-54.19251v-.70495c-.79316-137.819462-88.29658-261.183374-217.39038-308.782002zm0 0c-126.71612-46.527095-276.52321-5.992013-362.178182 98.253944-43.795249 53.312719-70.055705 117.19865-75.783331 186.108378-5.463465 67.41184 11.191091 136.76146 46.263159 194.56785 71.817531 118.25665 212.190622 178.44297 347.357184 151.56666 129.97584-25.73033 236.59451-135.70346 257.12283-266.82301 2.81982-18.06447 4.5821-35.95389 4.5821-54.19251v-.70495c-.79316-137.819462-88.29658-261.183374-217.39038-308.782002zm0 0c-126.71612-46.527095-276.52321-5.992013-362.178182 98.253944-43.795249 53.312719-70.055705 117.19865-75.783331 186.108378-5.463465 67.41184 11.191091 136.76146 46.263159 194.56785 71.817531 118.25665 212.190622 178.44297 347.357184 151.56666 129.97584-25.73033 236.59451-135.70346 257.12283-266.82301 2.81982-18.06447 4.5821-35.95389 4.5821-54.19251v-.70495c-.79316-137.819462-88.29658-261.183374-217.39038-308.782002z"/><path d="m1352.149 1023.69589v.70496c0 18.32885-1.93846 36.12984-4.5821 54.1925-20.53193 131.12181-127.06803 241.26413-257.12282 266.82302-135.263572 26.8763-275.372726-33.31002-347.357191-151.56666-35.071842-57.71842-51.814829-127.06804-46.263159-194.567855 5.727852-68.909729 31.900104-132.883638 75.783331-186.108378 85.652716-104.157528 235.466579-144.956996 362.178179-98.253945 129.00808 47.409136 216.5106 170.775304 217.39038 308.781998z"/></g></g></svg>