<svg height="4096" viewBox="0 0 4096 4096" width="4096" xmlns="http://www.w3.org/2000/svg"><g fill="none" fill-rule="evenodd"><circle cx="2048" cy="2048" fill="#fff" r="1798" stroke="#e300ff" stroke-opacity=".66" stroke-width="500"/><path d="m2048 1024c-565.51424 0-1024 458.48576-1024 1024s458.48576 1024 1024 1024 1024-458.48576 1024-1024-458.48576-1024-1024-1024zm490.63936 1493.36064h-554.63936c-11.76003 0-21.36064-9.6-21.36064-21.36064s9.6-21.36064 21.36064-21.36064h554.63936c11.76003 0 21.36064 9.6 21.36064 21.36064s-9.6 21.36064-21.36064 21.36064zm0-213.36064h-981.36064c-11.76003 0-21.36064-9.6-21.36064-21.36064s9.6-21.36064 21.36064-21.36064h981.36064c11.76003 0 21.36064 9.6 21.36064 21.36064s-9.6 21.36064-21.36064 21.36064zm0-213.36064h-981.36064c-11.76003 0-21.36064-9.6-21.36064-21.36064 0-11.76003 9.6-21.36064 21.36064-21.36064h981.36064c11.76003 0 21.36064 9.6 21.36064 21.36064 0 11.76003-9.6 21.36064-21.36064 21.36064zm0-213.27872h-981.36064c-11.76003 0-21.36064-9.6-21.36064-21.36064s9.6-21.36064 21.36064-21.36064h981.36064c11.76003 0 21.36064 9.6 21.36064 21.36064s-9.6 21.36064-21.36064 21.36064zm0-213.36064h-981.36064c-11.76003 0-21.36064-9.6-21.36064-21.36064s9.6-21.36064 21.36064-21.36064h981.36064c11.76003 0 21.36064 9.6 21.36064 21.36064s-9.6 21.36064-21.36064 21.36064z" fill="#e300ff"/></g></svg>