<svg height="425" viewBox="0 0 1145 425" width="1145" xmlns="http://www.w3.org/2000/svg"><g fill="none" fill-rule="evenodd"><path d="m0 424.8h1144.8v-424.8h-1144.8z" fill="#fff" fill-rule="nonzero"/><g transform="translate(56.3478 150.84)"><path d="m0 102.6h147.443478v-102.6h-147.443478z" fill="#fff" fill-rule="nonzero" stroke="#4285f4"/><path d="m3.98550733 18.16h13.33333337c.3533226 0 .6925013-.1408341.9425066-.3908267.2500054-.2499925.3908267-.5891626.3908267-.9425066v-13.33333337c0-.35332266-.1408341-.69250133-.3908267-.94250666-.2499925-.25000534-.5891626-.39082667-.9425066-.39082667h-13.33333337c-.73666133 0-1.33333333.596672-1.33333333 1.33333333v13.33333337c0 .3533226.14083413.6925013.39082667.9425066.24999253.2500054.58916266.3908267.94250666.3908267zm13.33333337-14.66673067v7.33339737l-1.0600107-1.0600107c-.52-.516672-1.36-.516672-1.88 0l-1.12 1.12 4.0600107 4.0599467v1.88l-8.3934507-8.3933867c-.25000533-.25000533-.58916267-.39082667-.94333867-.39082667s-.69333333.14083414-.94333866.39082667l-3.05322667 3.0600533v-7.99999997z" fill="#4285f4"/></g><g transform="translate(56.3478 263.7)"><path d="m0 102.6h147.443478v-102.6h-147.443478z" fill="#fff" fill-rule="nonzero" stroke="#4e9662"/><path d="m17.2160138 2.3h-13.12767964c-.79153229.00461588-1.43153247.64460798-1.43616016 1.43615996v13.12767964c.00461548.7915323.64460818 1.4315325 1.43616016 1.4361604h13.12767964c.7915323-.0046155 1.4315323-.6446084 1.4361602-1.4361604v-13.12767964c-.0046161-.79153228-.6446082-1.43153227-1.4361602-1.43615996zm.2053908 14.5638396c0 .0546147-.0215394.1069234-.0600005.1453844-.038461.0384611-.0907697.0600005-.1453844.0600005h-13.12767963c-.11384517 0-.20539076-.0915377-.20539076-.2053908v-13.12767964c0-.11384517.09153772-.20539077.20539076-.20539077h13.12767963c.0546147 0 .1069234.02153945.1453844.06000049.0384611.03846105.0600005.09076972.0600005.14538437zm-2.0515446-10.66614123v.82000736c0 .34000738-.2753772.6153846-.6153846.6153846-.3392393 0-.6153846-.27537722-.6153846-.6153846v-.20462276h-2.8715322v6.97462133l1.0253784-.0007699c.3400074 0 .6153846.2761452.6153846.6153846 0 .3400073-.2753772.6153846-.6153846.6153846h-3.28152604c-.34000737 0-.6153846-.2753773-.6153846-.6153846 0-.3392394.27537723-.6153846.6153846-.6153846h1.02537844v-6.97383371h-2.87153224v.20462276c0 .34000738-.27614522.6153846-.6153846.6153846-.34000737 0-.6153846-.27537722-.6153846-.6153846v-.82000736c.00384591-.33847138.27691323-.6115446.6153846-.6153846h8.20460284c.3384714.00384591.6115446.27691322.6153846.6153846z" fill="#4e9662"/></g><g transform="translate(252.9391 161.1)"><path d="m0 102.6h147.443479v-102.6h-147.443479z" fill="#fff" fill-rule="nonzero" stroke="#db4437"/><path d="m4.39420333 18.9h13.33333337c.3533226 0 .6925013-.1408341.9425066-.3908267.2500054-.2499925.3908267-.5891626.3908267-.9425066v-13.33333337c0-.35332266-.1408341-.69250133-.3908267-.94250666-.2499925-.25000534-.5891626-.39082667-.9425066-.39082667h-13.33333337c-.73666133 0-1.33333333.596672-1.33333333 1.33333333v13.33333337c0 .3533226.14083413.6925013.39082667.9425066.24999253.2500054.58916266.3908267.94250666.3908267zm13.33333337-14.66673067v7.33339737l-1.0600107-1.0600107c-.52-.516672-1.36-.516672-1.88 0l-1.12 1.12 4.0600107 4.0599467v1.88l-8.3934507-8.3933867c-.25000533-.25000533-.58916267-.39082667-.94333867-.39082667s-.69333333.14083414-.94333866.39082667l-3.05322667 3.0600533v-7.99999997z" fill="#db4437"/></g><g transform="translate(449.5304 161.1)"><path d="m0 102.6h147.443478v-102.6h-147.443478z" fill="#fff" fill-rule="nonzero" stroke="#f4b400"/><path d="m4.03020102 18.4763714h.02276321c.38348256-.0157613 9.40472977-.429009 12.59193797-4.3934164l.4938156-.6163729c.2398968-.2994317.4710433-.5918525.7004237-.8737702 2.2378595 2.6266002 4.6454345 4.5073669 10.8759558 5.1376362l-1.2134701 1.2117219c-.1050658.1050613-.1646007.2486515-.1646007.397491s.0595349.290677.1646007.3957383c.1050658.1068141.2486516.1646007.3974911.1646007.1470867 0 .2906769-.0595349.3957382-.1646007l2.099523-2.099523c.1050658-.1050658.1646007-.2486515.1646007-.3957383 0-.1488395-.0595349-.2924252-.1646007-.397491l-2.099523-2.099523c-.2188818-.2188819-.5725768-.2171336-.7914676 0-.2188818.2188818-.2188818.5725768-.0017527.7932159l1.050658 1.050658c-5.7118716-.6251142-7.8501207-2.3341481-9.9812065-4.8659839 2.0382443-2.33589635 4.2358042-3.91363166 9.6763821-4.50736686l-1.050658 1.05065803v-.00175274c-.1050658.10506581-.1646007.24865155-.1646007.39749104s.0595349.29067698.1646007.3957383c.1050658.10681406.2468988.1646007.3957383.1646007.1488394 0 .2924252-.0595349.397491-.1646007l2.099523-2.09952299c.1050658-.1050658.1646007-.24865155.1646007-.39749104 0-.14709123-.0595349-.29067697-.1646007-.3957383l-2.099523-2.09952298c-.2188819-.21888186-.5743251-.21713361-.7914676 0-.2188819.21888186-.2188819.5725768-.0017483.79321588l1.2117219 1.21172188c-5.9395934.60059375-8.4032919 2.33764465-10.5590281 4.77319168-.134831-.1663489-.269662-.3362033-.4079985-.5095498l-.4938156-.61637292c-3.185191-3.96262775-12.20821781-4.37763722-12.59193796-4.39341637h.00174826c-.30643371-.01050748-.56558377.22938934-.5778664.53756682-.01400848.30818645.2241356.56733203.53232205.58311118.08930458.003501 8.89728675.40799851 11.76353285 3.97491039l.4920672.6128764c.183863.2311376.3659731.4587607.5445599.6811481-.2801695.3414571-.560339.6934307-.8492498 1.0559028l-.4920673.6128763c-2.8664702 3.566894-11.6761199 3.9714139-11.76353279 3.9749104-.30468545.0122558-.54455985.2661611-.53771591.5708286.00540283.3064337.25580264.5498494.56048809.5498494z" fill="#f4b400"/></g><g transform="translate(646.1217 161.1)"><path d="m0 205.2h294.886957v-205.2h-294.886957z" fill="#4285f4" fill-rule="nonzero" stroke="#1973e8"/><g fill="#fff" transform="translate(3.8783 4.9)"><path d="m7.27635738 2.68595853c.10557717-.27844432.52323771-.27844432.62882379 0 .44551091 1.17525777 1.3028818 3.22074685 2.16025273 4.07790983.8596875.85852922 2.8018478 1.71824647 3.9074276 2.16375737.2703242.1078968.2703242.51397109 0 .62187383-1.105669.4455109-3.0478886 1.30519844-3.9074276 2.16375734-.85737093.8573709-1.71474182 2.9027709-2.16025273 4.0779099-.10557717.2784443-.52323771.2784443-.62882379 0-.44666924-1.1752578-1.30404013-3.2207469-2.16025269-4.0779099-.85737089-.8573709-2.90277086-1.71358342-4.07790983-2.16025266-.27844432-.10557717-.27844432-.52323771 0-.62882379 1.17525777-.44666924 3.22074685-1.3028818 4.07790983-2.16025269.85621256-.85737089 1.71358345-2.90277086 2.16025269-4.07790983z"/><path d="m13.4499505.2053538c.1136974-.27380507.542959-.27380507.6578117 0 .2366792.57081827.5719766 1.27154753.9084265 1.60802706.3376081.33760817 1.0116661.67637466 1.5523382.91305976.2668432.11717828.2668432.53137571 0 .64854507-.5406424.23667916-1.2147004.57545159-1.5523382.91305976-.3364499.33644983-.6717414 1.03720879-.9084265 1.60802707-.1148586.27496339-.5441173.27496339-.6578117 0-.2366762-.57081828-.5731349-1.27154753-.9084264-1.60802707-.3364499-.33529151-1.0372088-.67174135-1.6080271-.90842644-.2749634-.11369736-.2749634-.54295899 0-.65665338.5708183-.23783748 1.2715475-.57313493 1.6080271-.90958477.3352915-.33644983.6717413-1.03720879.9084264-1.60802706z"/><path d="m1.4731323 1.85047707c.12414013-.27032414.56152195-.27032414.68567099 0 .14154179.3062739.31209524.61721081.48147849.78775239.17286714.17286714.47684517.34574616.77153579.48842846.26220099.12645975.26220099.547622 0 .674058-.29468765.14270308-.59864786.31557022-.77153579.48727013-.16938622.17054751-.33992482.48147848-.48147849.78891071-.12414013.26916284-.56152195.26916284-.68567099 0-.14154178-.30746193-.31209524-.61836914-.48263681-.78891071-.17054752-.16938622-.48147849-.33992483-.78775239-.48147849-.27032413-.12414013-.27032413-.56152195 0-.68567099.3062739-.14154178.61721081-.31209524.78775239-.48263681.17054751-.17054752.34108315-.48147849.48263681-.78775239z"/></g></g><g transform="translate(842.713 212.4)"><path d="m0 102.6h245.739131v-102.6h-245.739131z" fill="#673ab7" fill-rule="nonzero" stroke="#673ab7"/><path d="m25.086957 4.6h-19.2c-.8839936 0-1.6.7160064-1.6 1.6v12.8c0 .4239872.16900096.8310016.468992 1.131008s.7069952.468992 1.131008.468992h19.2c.4239872 0 .8310016-.169001 1.131008-.468992s.468992-.7069952.468992-1.131008v-12.8c0-.4239872-.169001-.8310016-.468992-1.131008s-.7069952-.468992-1.131008-.468992zm-13.6 10.4h1.6c.4420096 0 .8.3579904.8.8s-.3579904.8-.8.8h-1.6c-1.3250048 0-2.4-1.0749952-2.4-2.4v-3.2c0-1.3250048 1.0749952-2.4 2.4-2.4h1.6c.4420096 0 .8.3579904.8.8s-.3579904.8-.8.8h-1.6c-.4420096 0-.8.3579904-.8.8v3.2c0 .2119987.0839987.416.2339994.5659904.1500006.1500006.3539968.2339994.5659904.2339994zm8 0h1.6c.4420096 0 .8.3579904.8.8s-.3579904.8-.8.8h-1.6c-1.3250048 0-2.4-1.0749952-2.4-2.4v-3.2c0-1.3250048 1.0749952-2.4 2.4-2.4h1.6c.4420096 0 .8.3579904.8.8s-.3579904.8-.8.8h-1.6c-.4420096 0-.8.3579904-.8.8v3.2c0 .2119987.0839987.416.2339994.5659904.1500006.1500006.3539968.2339994.5659904.2339994z" fill="#fff"/></g><g fill="#4285f4" fill-rule="nonzero" transform="matrix(1 0 0 -1 96.1688 208.1872)"><path d="m0 0h1.106875v9.393125h-1.106875z" transform="translate(0 2.0716)"/><path d="m0 0h1.0653125v5.6415625c.56.266875 1.1746875.503125 1.763125.503125.923125 0 1.26-.35 1.26-1.19v-4.9546875h1.063125v5.18c0 .1684375-.013125.293125-.0415625.4615625.6584375.293125 1.246875.503125 1.7915625.503125.9384375 0 1.2753125-.35 1.2753125-1.19v-4.9546875h1.05v5.18c0 1.343125-.7 1.89-1.9053125 1.89-.783125 0-1.5946875-.28-2.3515625-.77h-.0546875c-.32375.5184375-.88375.77-1.666875.77s-1.526875-.3215625-2.17-.7284375h-.056875v.6015625h-1.0215625z" transform="translate(3.3876 2.0716)"/><path d="m2.17 0c.93625 0 1.5246875.336875 1.84625.7284375h.07l.11375-.6015625h.86625v5.0246875c0 1.4153125-.853125 2.0453125-2.38 2.0453125-.79625 0-1.47-.126875-2.0715625-.3784375v-.77c.4353125.126875.98.223125 1.6515625.223125 1.246875 0 1.72375-.28 1.72375-1.35625v-.7284375l-1.876875-.2253125c-1.33-.153125-2.113125-.79625-2.113125-2.0146875 0-1.3015625.91-1.946875 2.17-1.946875zm.2646875.84c-.7984375 0-1.3146875.3784375-1.3146875 1.1353125 0 .79625.42 1.14625 1.273125 1.2315625l1.596875.1815625v-2.043125c-.2953125-.2953125-.91-.5053125-1.5553125-.5053125z" transform="translate(14.1549 1.9447)"/><path d="m3.10625 0c2.366875 0 3.3184375.9384375 3.3184375 2.1284375 0 1.2884375-.9384375 1.6646875-2.1984375 1.6646875h-1.91625c-.46375 0-.686875.14-.686875.5184375 0 .2253125.14.3915625.3215625.56.3653125-.1246875.756875-.1946875 1.19-.1946875 1.456875 0 2.6053125.7415625 2.6053125 2.2246875v.0153125c0 .5446875-.18375.9646875-.5053125 1.273125h1.246875v.826875h-2.3515625c-.3084375.07-.63.1115625-.98.1115625-1.526875 0-2.6184375-.7984375-2.6184375-2.24v-.0284375c0-.826875.3346875-1.386875.8684375-1.736875-.53375-.3915625-.7853125-.713125-.7853125-1.14625 0-.46375.3084375-.756875.7-.8684375v-.07c-.713125-.2384375-1.3146875-.6715625-1.3146875-1.4153125 0-1.00625.993125-1.623125 3.10625-1.623125zm-.02625.84c-1.37375 0-1.96.3084375-1.96.923125 0 .5884375.4046875.896875.93625 1.0784375h2.00375c.91 0 1.2446875-.21 1.2446875-.853125 0-.7284375-.5884375-1.1484375-2.2246875-1.1484375zm.0546875 4.676875c-.923125 0-1.54.44625-1.54 1.35625v.07c0 .8684375.5884375 1.37375 1.54 1.37375.9384375 0 1.526875-.4353125 1.526875-1.386875v-.07c0-.896875-.56-1.343125-1.526875-1.343125z" transform="translate(20.5529 .0131)"/><path d="m3.29 0c1.12 0 1.9184375.35 2.3384375.6453125v.79625c-.63-.293125-1.246875-.51625-2.17-.51625-1.4853125 0-2.31.6715625-2.366875 2.40625h4.7315625v.60375c0 2.1546875-.8946875 3.2615625-2.8 3.2615625-1.5946875 0-3.023125-1.0784375-3.023125-3.5v-.196875c0-2.17 1.1046875-3.5 3.29-3.5zm-.2953125 6.3284375c1.1353125 0 1.7084375-.63 1.7084375-2.1415625h-3.6115625c.1115625 1.6384375 1.036875 2.1415625 1.903125 2.1415625z" transform="translate(27.8884 1.9447)"/><path d="m0 0h1.106875v9.393125h-1.106875z" transform="translate(39.242 2.0716)"/><path d="m0 0h1.0653125v5.6415625c.573125.266875 1.3015625.503125 1.96.503125 1.1046875 0 1.4-.35 1.4-1.19v-4.9546875h1.063125v5.18c0 1.343125-.6584375 1.89-2.016875 1.89-.853125 0-1.75-.3084375-2.393125-.7284375h-.056875v.6015625h-1.0215625z" transform="translate(42.6296 2.0716)"/><path d="m0 0h1.0784375v2.40625c.3915625-.223125.98-.4615625 1.7784375-.4615625 1.9184375 0 3.1346875 1.0653125 3.1346875 3.5984375v.1815625c0 2.576875-1.3146875 3.416875-2.8415625 3.416875-.8946875 0-1.623125-.3084375-2.0584375-.7h-.0546875v.56h-1.036875zm2.7584375 2.82625c-.7284375 0-1.3584375.2253125-1.68.49v4.41c.3215625.2253125.98.5053125 1.7915625.5053125 1.2753125 0 2.0015625-.6015625 2.0015625-2.5615625v-.28c0-1.86375-.79625-2.56375-2.113125-2.56375z" transform="translate(50.1336)"/><path d="m2.1284375 0c.84 0 1.5815625.3215625 2.2115625.756875h.056875l.09625-.63h.9253125v6.943125h-1.0653125v-5.6c-.573125-.28-1.19-.5446875-1.9315625-.5446875-1.0215625 0-1.343125.363125-1.343125 1.26v4.8846875h-1.0784375v-5.04c0-1.343125.77-2.03 2.1284375-2.03z" transform="translate(57.722 1.9447)"/><path d="m2.8 0c.6015625 0 .896875.1553125 1.176875.28v.7284375c-.28-.083125-.60375-.1246875-.896875-.1246875-.7984375 0-1.0215625.2646875-1.0215625.93625v4.31375h1.7784375v.8815625h-1.7784375v1.6515625h-1.0653125v-1.6515625h-.993125v-.8815625h.993125v-4.48c0-1.176875.7153125-1.65375 1.806875-1.65375z" transform="translate(64.582 1.9862)"/></g><path d="m2.87 0h1.0915625v8.4546875h2.87v.9384375h-6.8315625v-.9384375h2.87z" fill="#4e9662" fill-rule="nonzero" transform="matrix(1 0 0 -1 99.9827 318.9756)"/><path d="m3.29 0c1.12 0 1.9184375.35 2.3384375.6453125v.79625c-.63-.293125-1.246875-.51625-2.17-.51625-1.4853125 0-2.31.6715625-2.366875 2.40625h4.7315625v.60375c0 2.1546875-.8946875 3.2615625-2.8 3.2615625-1.5946875 0-3.023125-1.0784375-3.023125-3.5v-.196875c0-2.17 1.1046875-3.5 3.29-3.5zm-.2953125 6.3284375c1.1353125 0 1.7084375-.63 1.7084375-2.1415625h-3.6115625c.1115625 1.6384375 1.036875 2.1415625 1.903125 2.1415625z" fill="#4e9662" fill-rule="nonzero" transform="matrix(1 0 0 -1 107.7956 319.1025)"/><path d="m0 0h1.176875l1.8046875 2.7715625 1.7653125-2.7715625h1.273125l-2.323125 3.5284375 2.1546875 3.4146875h-1.1615625l-1.5815625-2.6446875-1.736875 2.6446875h-1.26l2.2553125-3.4146875z" fill="#4e9662" fill-rule="nonzero" transform="matrix(1 0 0 -1 114.5287 318.9756)"/><path d="m2.8 0c.6015625 0 .896875.1553125 1.176875.28v.7284375c-.28-.083125-.60375-.1246875-.896875-.1246875-.7984375 0-1.0215625.2646875-1.0215625.93625v4.31375h1.7784375v.8815625h-1.7784375v1.6515625h-1.0653125v-1.6515625h-.993125v-.8815625h.993125v-4.48c0-1.176875.7153125-1.65375 1.806875-1.65375z" fill="#4e9662" fill-rule="nonzero" transform="matrix(1 0 0 -1 121.3051 319.0609)"/><path d="m0 0h1.106875v9.393125h-1.106875z" fill="#4e9662" fill-rule="nonzero" transform="matrix(1 0 0 -1 130.7271 318.9756)"/><path d="m0 0h1.0653125v5.6415625c.573125.266875 1.3015625.503125 1.96.503125 1.1046875 0 1.4-.35 1.4-1.19v-4.9546875h1.063125v5.18c0 1.343125-.6584375 1.89-2.016875 1.89-.853125 0-1.75-.3084375-2.393125-.7284375h-.056875v.6015625h-1.0215625z" fill="#4e9662" fill-rule="nonzero" transform="matrix(1 0 0 -1 134.1147 318.9756)"/><path d="m0 0h1.0784375v2.40625c.3915625-.223125.98-.4615625 1.7784375-.4615625 1.9184375 0 3.1346875 1.0653125 3.1346875 3.5984375v.1815625c0 2.576875-1.3146875 3.416875-2.8415625 3.416875-.8946875 0-1.623125-.3084375-2.0584375-.7h-.0546875v.56h-1.036875zm2.7584375 2.82625c-.7284375 0-1.3584375.2253125-1.68.49v4.41c.3215625.2253125.98.5053125 1.7915625.5053125 1.2753125 0 2.0015625-.6015625 2.0015625-2.5615625v-.28c0-1.86375-.79625-2.56375-2.113125-2.56375z" fill="#4e9662" fill-rule="nonzero" transform="matrix(1 0 0 -1 141.6187 321.0472)"/><path d="m2.1284375 0c.84 0 1.5815625.3215625 2.2115625.756875h.056875l.09625-.63h.9253125v6.943125h-1.0653125v-5.6c-.573125-.28-1.19-.5446875-1.9315625-.5446875-1.0215625 0-1.343125.363125-1.343125 1.26v4.8846875h-1.0784375v-5.04c0-1.343125.77-2.03 2.1284375-2.03z" fill="#4e9662" fill-rule="nonzero" transform="matrix(1 0 0 -1 149.2071 319.1025)"/><path d="m2.8 0c.6015625 0 .896875.1553125 1.176875.28v.7284375c-.28-.083125-.60375-.1246875-.896875-.1246875-.7984375 0-1.0215625.2646875-1.0215625.93625v4.31375h1.7784375v.8815625h-1.7784375v1.6515625h-1.0653125v-1.6515625h-.993125v-.8815625h.993125v-4.48c0-1.176875.7153125-1.65375 1.806875-1.65375z" fill="#4e9662" fill-rule="nonzero" transform="matrix(1 0 0 -1 156.0671 319.0609)"/><g fill="#db4437" fill-rule="nonzero" transform="matrix(1 0 0 -1 284.0735 218.4342)"><path d="m0 0h1.106875v9.393125h-1.106875z" transform="translate(0 2.0584)"/><path d="m0 0h1.0653125v5.6415625c.56.266875 1.1746875.503125 1.763125.503125.923125 0 1.26-.35 1.26-1.19v-4.9546875h1.063125v5.18c0 .1684375-.013125.293125-.0415625.4615625.6584375.293125 1.246875.503125 1.7915625.503125.9384375 0 1.2753125-.35 1.2753125-1.19v-4.9546875h1.05v5.18c0 1.343125-.7 1.89-1.9053125 1.89-.783125 0-1.5946875-.28-2.3515625-.77h-.0546875c-.32375.5184375-.88375.77-1.666875.77s-1.526875-.3215625-2.17-.7284375h-.056875v.6015625h-1.0215625z" transform="translate(3.3876 2.0584)"/><path d="m2.17 0c.93625 0 1.5246875.336875 1.84625.7284375h.07l.11375-.6015625h.86625v5.0246875c0 1.4153125-.853125 2.0453125-2.38 2.0453125-.79625 0-1.47-.126875-2.0715625-.3784375v-.77c.4353125.126875.98.223125 1.6515625.223125 1.246875 0 1.72375-.28 1.72375-1.35625v-.7284375l-1.876875-.2253125c-1.33-.153125-2.113125-.79625-2.113125-2.0146875 0-1.3015625.91-1.946875 2.17-1.946875zm.2646875.84c-.7984375 0-1.3146875.3784375-1.3146875 1.1353125 0 .79625.42 1.14625 1.273125 1.2315625l1.596875.1815625v-2.043125c-.2953125-.2953125-.91-.5053125-1.5553125-.5053125z" transform="translate(14.1549 1.9316)"/><path d="m3.10625 0c2.366875 0 3.3184375.9384375 3.3184375 2.1284375 0 1.2884375-.9384375 1.6646875-2.1984375 1.6646875h-1.91625c-.46375 0-.686875.14-.686875.5184375 0 .2253125.14.3915625.3215625.56.3653125-.1246875.756875-.1946875 1.19-.1946875 1.456875 0 2.6053125.7415625 2.6053125 2.2246875v.0153125c0 .5446875-.18375.9646875-.5053125 1.273125h1.246875v.826875h-2.3515625c-.3084375.07-.63.1115625-.98.1115625-1.526875 0-2.6184375-.7984375-2.6184375-2.24v-.0284375c0-.826875.3346875-1.386875.8684375-1.736875-.53375-.3915625-.7853125-.713125-.7853125-1.14625 0-.46375.3084375-.756875.7-.8684375v-.07c-.713125-.2384375-1.3146875-.6715625-1.3146875-1.4153125 0-1.00625.993125-1.623125 3.10625-1.623125zm-.02625.84c-1.37375 0-1.96.3084375-1.96.923125 0 .5884375.4046875.896875.93625 1.0784375h2.00375c.91 0 1.2446875-.21 1.2446875-.853125 0-.7284375-.5884375-1.1484375-2.2246875-1.1484375zm.0546875 4.676875c-.923125 0-1.54.44625-1.54 1.35625v.07c0 .8684375.5884375 1.37375 1.54 1.37375.9384375 0 1.526875-.4353125 1.526875-1.386875v-.07c0-.896875-.56-1.343125-1.526875-1.343125z" transform="translate(20.5529)"/><path d="m3.29 0c1.12 0 1.9184375.35 2.3384375.6453125v.79625c-.63-.293125-1.246875-.51625-2.17-.51625-1.4853125 0-2.31.6715625-2.366875 2.40625h4.7315625v.60375c0 2.1546875-.8946875 3.2615625-2.8 3.2615625-1.5946875 0-3.023125-1.0784375-3.023125-3.5v-.196875c0-2.17 1.1046875-3.5 3.29-3.5zm-.2953125 6.3284375c1.1353125 0 1.7084375-.63 1.7084375-2.1415625h-3.6115625c.1115625 1.6384375 1.036875 2.1415625 1.903125 2.1415625z" transform="translate(27.8884 1.9316)"/><path d="m0 0h5.613125v.9384375h-4.5084375v3.43h3.4453125v.93625h-3.4453125v3.15h4.466875v.9384375h-5.5715625z" transform="translate(39.2004 2.0584)"/><path d="m0 0h1.0653125v5.6415625c.573125.266875 1.3015625.503125 1.96.503125 1.1046875 0 1.4-.35 1.4-1.19v-4.9546875h1.063125v5.18c0 1.343125-.6584375 1.89-2.016875 1.89-.853125 0-1.75-.3084375-2.393125-.7284375h-.056875v.6015625h-1.0215625z" transform="translate(46.7036 2.0584)"/><path d="m3.2046875 0c.966875 0 1.58375.28 2.03.546875v.8684375c-.35-.196875-.9646875-.49-1.903125-.49-1.483125 0-2.226875.79625-2.226875 2.5746875v.336875c0 1.5946875.826875 2.45 2.086875 2.45.91 0 1.3584375-.1684375 1.973125-.4484375v.896875c-.4615625.293125-1.00625.4615625-1.91625.4615625-1.79375 0-3.2484375-1.0653125-3.2484375-3.5284375v-.21c0-2.2815625 1.2184375-3.4584375 3.2046875-3.4584375z" transform="translate(53.7744 1.9316)"/><path d="m3.1346875 0c1.876875 0 3.1653125 1.316875 3.1653125 3.5284375v.196875c0 2.19625-1.19 3.4715625-3.15 3.4715625-1.876875 0-3.15-1.316875-3.15-3.5153125v-.21c0-2.2115625 1.1746875-3.4715625 3.1346875-3.4715625zm.0284375.8815625c-1.1615625 0-2.0715625.63-2.0715625 2.56375v.35c0 1.623125.783125 2.52 2.043125 2.52 1.1353125 0 2.07375-.63 2.07375-2.56375v-.35c0-1.63625-.7853125-2.52-2.0453125-2.52z" transform="translate(60.0744 1.9316)"/><path d="m2.883125 0c.9384375 0 1.61.2953125 2.03.7h.056875l.1246875-.573125h.896875v10.023125h-1.0784375v-3.4146875c-.3784375.223125-.966875.4615625-1.82.4615625-1.7915625 0-3.093125-1.0915625-3.093125-3.6115625v-.18375c0-2.5615625 1.49625-3.4015625 2.883125-3.4015625zm.3215625.8815625c-1.2446875 0-2.0846875.616875-2.0846875 2.56375v.28c0 1.8746875.79625 2.5615625 2.113125 2.5615625.713125 0 1.3584375-.196875 1.68-.4484375v-4.3684375c-.35-.28-.896875-.5884375-1.7084375-.5884375z" transform="translate(67.5789 1.9316)"/><path d="m3.29 0c1.12 0 1.9184375.35 2.3384375.6453125v.79625c-.63-.293125-1.246875-.51625-2.17-.51625-1.4853125 0-2.31.6715625-2.366875 2.40625h4.7315625v.60375c0 2.1546875-.8946875 3.2615625-2.8 3.2615625-1.5946875 0-3.023125-1.0784375-3.023125-3.5v-.196875c0-2.17 1.1046875-3.5 3.29-3.5zm-.2953125 6.3284375c1.1353125 0 1.7084375-.63 1.7084375-2.1415625h-3.6115625c.1115625 1.6384375 1.036875 2.1415625 1.903125 2.1415625z" transform="translate(75.1804 1.9316)"/><path d="m0 0h1.0784375v5.46c.49.35 1.1615625.6015625 1.8615625.6015625.1115625 0 .3215625-.013125.5053125-.0415625v.9646875c-.07.0153125-.266875.0284375-.42.0284375-.7853125 0-1.54-.4046875-1.93375-.853125h-.07v.783125h-1.0215625z" transform="translate(82.6135 2.0584)"/></g><g fill="#f4b400" fill-rule="nonzero" transform="matrix(1 0 0 -1 483.4648 216.5311)"><path d="m3.4015625 0h1.036875l3.4015625 9.393125h-1.05l-2.8-7.8946875h-.0284375l-2.813125 7.8946875h-1.1484375z" transform="translate(0 .1553)"/><path d="m0 0h5.36375v.9384375h-4.24375v8.4546875h-1.12z" transform="translate(9.3231 .1553)"/><path d="m4.08625 0c1.106875 0 1.96.25375 2.59.616875v.9384375c-.58625-.2953125-1.28625-.616875-2.45-.616875-2.1546875 0-3.0515625 1.4-3.0515625 3.8084375v.4615625c0 2.4915625 1.26 3.556875 3.0384375 3.556875.923125 0 1.623125-.21 2.366875-.5053125v.9253125c-.5753125.3084375-1.30375.5184375-2.31.5184375-2.3953125 0-4.27-1.316875-4.27-4.676875v-.28c0-3.1784375 1.553125-4.746875 4.08625-4.746875z" transform="translate(19.5589)"/><path d="m3.1346875 0c1.876875 0 3.1653125 1.316875 3.1653125 3.5284375v.196875c0 2.19625-1.19 3.4715625-3.15 3.4715625-1.876875 0-3.15-1.316875-3.15-3.5153125v-.21c0-2.2115625 1.1746875-3.4715625 3.1346875-3.4715625zm.0284375.8815625c-1.1615625 0-2.0715625.63-2.0715625 2.56375v.35c0 1.623125.783125 2.52 2.043125 2.52 1.1353125 0 2.07375-.63 2.07375-2.56375v-.35c0-1.63625-.7853125-2.52-2.0453125-2.52z" transform="translate(27.4404 .0284)"/><path d="m0 0h1.0653125v5.6415625c.573125.266875 1.3015625.503125 1.96.503125 1.1046875 0 1.4-.35 1.4-1.19v-4.9546875h1.063125v5.18c0 1.343125-.6584375 1.89-2.016875 1.89-.853125 0-1.75-.3084375-2.393125-.7284375h-.056875v.6015625h-1.0215625z" transform="translate(35.3496 .1553)"/><path d="m0 0h1.0653125v5.6415625c.573125.266875 1.3015625.503125 1.96.503125 1.1046875 0 1.4-.35 1.4-1.19v-4.9546875h1.063125v5.18c0 1.343125-.6584375 1.89-2.016875 1.89-.853125 0-1.75-.3084375-2.393125-.7284375h-.056875v.6015625h-1.0215625z" transform="translate(42.8536 .1553)"/><path d="m3.29 0c1.12 0 1.9184375.35 2.3384375.6453125v.79625c-.63-.293125-1.246875-.51625-2.17-.51625-1.4853125 0-2.31.6715625-2.366875 2.40625h4.7315625v.60375c0 2.1546875-.8946875 3.2615625-2.8 3.2615625-1.5946875 0-3.023125-1.0784375-3.023125-3.5v-.196875c0-2.17 1.1046875-3.5 3.29-3.5zm-.2953125 6.3284375c1.1353125 0 1.7084375-.63 1.7084375-2.1415625h-3.6115625c.1115625 1.6384375 1.036875 2.1415625 1.903125 2.1415625z" transform="translate(49.9244 .0284)"/><path d="m3.2046875 0c.966875 0 1.58375.28 2.03.546875v.8684375c-.35-.196875-.9646875-.49-1.903125-.49-1.483125 0-2.226875.79625-2.226875 2.5746875v.336875c0 1.5946875.826875 2.45 2.086875 2.45.91 0 1.3584375-.1684375 1.973125-.4484375v.896875c-.4615625.293125-1.00625.4615625-1.91625.4615625-1.79375 0-3.2484375-1.0653125-3.2484375-3.5284375v-.21c0-2.2815625 1.2184375-3.4584375 3.2046875-3.4584375z" transform="translate(56.9244 .0284)"/><path d="m2.8 0c.6015625 0 .896875.1553125 1.176875.28v.7284375c-.28-.083125-.60375-.1246875-.896875-.1246875-.7984375 0-1.0215625.2646875-1.0215625.93625v4.31375h1.7784375v.8815625h-1.7784375v1.6515625h-1.0653125v-1.6515625h-.993125v-.8815625h.993125v-4.48c0-1.176875.7153125-1.65375 1.806875-1.65375z" transform="translate(63.056 .07)"/><path d="m3.1346875 0c1.876875 0 3.1653125 1.316875 3.1653125 3.5284375v.196875c0 2.19625-1.19 3.4715625-3.15 3.4715625-1.876875 0-3.15-1.316875-3.15-3.5153125v-.21c0-2.2115625 1.1746875-3.4715625 3.1346875-3.4715625zm.0284375.8815625c-1.1615625 0-2.0715625.63-2.0715625 2.56375v.35c0 1.623125.783125 2.52 2.043125 2.52 1.1353125 0 2.07375-.63 2.07375-2.56375v-.35c0-1.63625-.7853125-2.52-2.0453125-2.52z" transform="translate(68.1244 .0284)"/><path d="m0 0h1.0784375v5.46c.49.35 1.1615625.6015625 1.8615625.6015625.1115625 0 .3215625-.013125.5053125-.0415625v.9646875c-.07.0153125-.266875.0284375-.42.0284375-.7853125 0-1.54-.4046875-1.93375-.853125h-.07v.783125h-1.0215625z" transform="translate(76.0335 .1553)"/></g><g fill="#fff" fill-rule="nonzero" transform="translate(682.7457 250.5441)"><path d="m0 0h1.12v3.7646875h1.9184375c1.7915625 0 2.996875 1.0084375 2.996875 2.856875 0 1.763125-1.0215625 2.7715625-3.136875 2.7715625h-2.8984375zm1.12 4.69v3.7646875h1.666875c1.526875 0 2.0584375-.573125 2.0584375-1.903125 0-1.26-.5753125-1.8615625-2.03-1.8615625z" transform="matrix(1 0 0 -1 0 10.0231)"/><path d="m0 0h1.0784375v5.46c.49.35 1.1615625.6015625 1.8615625.6015625.1115625 0 .3215625-.013125.5053125-.0415625v.9646875c-.07.0153125-.266875.0284375-.42.0284375-.7853125 0-1.54-.4046875-1.93375-.853125h-.07v.783125h-1.0215625z" transform="matrix(1 0 0 -1 7.5604 10.0231)"/><path d="m3.29 0c1.12 0 1.9184375.35 2.3384375.6453125v.79625c-.63-.293125-1.246875-.51625-2.17-.51625-1.4853125 0-2.31.6715625-2.366875 2.40625h4.7315625v.60375c0 2.1546875-.8946875 3.2615625-2.8 3.2615625-1.5946875 0-3.023125-1.0784375-3.023125-3.5v-.196875c0-2.17 1.1046875-3.5 3.29-3.5zm-.2953125 6.3284375c1.1353125 0 1.7084375-.63 1.7084375-2.1415625h-3.6115625c.1115625 1.6384375 1.036875 2.1415625 1.903125 2.1415625z" transform="matrix(1 0 0 -1 11.9713 10.15)"/><path d="m0 0h4.62v.923125h-4.62z" transform="matrix(1 0 0 -1 19.1113 5.9347)"/><path d="m2.8 0c.6015625 0 .896875.1553125 1.176875.28v.7284375c-.28-.083125-.60375-.1246875-.896875-.1246875-.7984375 0-1.0215625.2646875-1.0215625.93625v4.31375h1.7784375v.8815625h-1.7784375v1.6515625h-1.0653125v-1.6515625h-.993125v-.8815625h.993125v-4.48c0-1.176875.7153125-1.65375 1.806875-1.65375z" transform="matrix(1 0 0 -1 24.8509 10.1084)"/><path d="m0 0h1.0784375v5.46c.49.35 1.1615625.6015625 1.8615625.6015625.1115625 0 .3215625-.013125.5053125-.0415625v.9646875c-.07.0153125-.266875.0284375-.42.0284375-.7853125 0-1.54-.4046875-1.93375-.853125h-.07v.783125h-1.0215625z" transform="matrix(1 0 0 -1 30.3524 10.0231)"/><path d="m2.17 0c.93625 0 1.5246875.336875 1.84625.7284375h.07l.11375-.6015625h.86625v5.0246875c0 1.4153125-.853125 2.0453125-2.38 2.0453125-.79625 0-1.47-.126875-2.0715625-.3784375v-.77c.4353125.126875.98.223125 1.6515625.223125 1.246875 0 1.72375-.28 1.72375-1.35625v-.7284375l-1.876875-.2253125c-1.33-.153125-2.113125-.79625-2.113125-2.0146875 0-1.3015625.91-1.946875 2.17-1.946875zm.2646875.84c-.7984375 0-1.3146875.3784375-1.3146875 1.1353125 0 .79625.42 1.14625 1.273125 1.2315625l1.596875.1815625v-2.043125c-.2953125-.2953125-.91-.5053125-1.5553125-.5053125z" transform="matrix(1 0 0 -1 34.7217 10.15)"/><path d="m.013125 0h1.0653125v6.93h-1.0653125zm-.013125 8.33h1.0915625v1.12h-1.0915625z" transform="matrix(1 0 0 -1 41.8329 10.0231)"/><path d="m0 0h1.0653125v5.6415625c.573125.266875 1.3015625.503125 1.96.503125 1.1046875 0 1.4-.35 1.4-1.19v-4.9546875h1.063125v5.18c0 1.343125-.6584375 1.89-2.016875 1.89-.853125 0-1.75-.3084375-2.393125-.7284375h-.056875v.6015625h-1.0215625z" transform="matrix(1 0 0 -1 44.9824 10.0231)"/><path d="m3.29 0c1.12 0 1.9184375.35 2.3384375.6453125v.79625c-.63-.293125-1.246875-.51625-2.17-.51625-1.4853125 0-2.31.6715625-2.366875 2.40625h4.7315625v.60375c0 2.1546875-.8946875 3.2615625-2.8 3.2615625-1.5946875 0-3.023125-1.0784375-3.023125-3.5v-.196875c0-2.17 1.1046875-3.5 3.29-3.5zm-.2953125 6.3284375c1.1353125 0 1.7084375-.63 1.7084375-2.1415625h-3.6115625c.1115625 1.6384375 1.036875 2.1415625 1.903125 2.1415625z" transform="matrix(1 0 0 -1 52.0533 10.15)"/><path d="m2.883125 0c.9384375 0 1.61.2953125 2.03.7h.056875l.1246875-.573125h.896875v10.023125h-1.0784375v-3.4146875c-.3784375.223125-.966875.4615625-1.82.4615625-1.7915625 0-3.093125-1.0915625-3.093125-3.6115625v-.18375c0-2.5615625 1.49625-3.4015625 2.883125-3.4015625zm.3215625.8815625c-1.2446875 0-2.0846875.616875-2.0846875 2.56375v.28c0 1.8746875.79625 2.5615625 2.113125 2.5615625.713125 0 1.3584375-.196875 1.68-.4484375v-4.3684375c-.35-.28-.896875-.5884375-1.7084375-.5884375z" transform="matrix(1 0 0 -1 59.0817 10.15)"/><path d="m0 0h5.36375v.9384375h-4.24375v8.4546875h-1.12z" transform="matrix(1 0 0 -1 70.98 10.0231)"/><path d="m0 0h5.36375v.9384375h-4.24375v8.4546875h-1.12z" transform="matrix(1 0 0 -1 78.05 10.0231)"/><path d="m0 0h1.036875v7.9384375h.0415625l2.716875-7.9384375h1.0346875l2.7453125 7.9384375h.0415625v-7.9384375h1.12v9.393125h-1.6384375l-2.7015625-7.9384375h-.0284375l-2.7146875 7.9384375h-1.65375z" transform="matrix(1 0 0 -1 85.12 10.0231)"/><path d="m2.87 0h1.0915625v8.4546875h2.87v.9384375h-6.8315625v-.9384375h2.87z" transform="matrix(1 0 0 -1 11.165 24.2401)"/><path d="m0 0h1.0784375v5.46c.49.35 1.1615625.6015625 1.8615625.6015625.1115625 0 .3215625-.013125.5053125-.0415625v.9646875c-.07.0153125-.266875.0284375-.42.0284375-.7853125 0-1.54-.4046875-1.93375-.853125h-.07v.783125h-1.0215625z" transform="matrix(1 0 0 -1 19.411 24.2401)"/><path d="m2.17 0c.93625 0 1.5246875.336875 1.84625.7284375h.07l.11375-.6015625h.86625v5.0246875c0 1.4153125-.853125 2.0453125-2.38 2.0453125-.79625 0-1.47-.126875-2.0715625-.3784375v-.77c.4353125.126875.98.223125 1.6515625.223125 1.246875 0 1.72375-.28 1.72375-1.35625v-.7284375l-1.876875-.2253125c-1.33-.153125-2.113125-.79625-2.113125-2.0146875 0-1.3015625.91-1.946875 2.17-1.946875zm.2646875.84c-.7984375 0-1.3146875.3784375-1.3146875 1.1353125 0 .79625.42 1.14625 1.273125 1.2315625l1.596875.1815625v-2.043125c-.2953125-.2953125-.91-.5053125-1.5553125-.5053125z" transform="matrix(1 0 0 -1 23.7803 24.367)"/><path d="m0 0h1.0653125v5.6415625c.573125.266875 1.3015625.503125 1.96.503125 1.1046875 0 1.4-.35 1.4-1.19v-4.9546875h1.063125v5.18c0 1.343125-.6584375 1.89-2.016875 1.89-.853125 0-1.75-.3084375-2.393125-.7284375h-.056875v.6015625h-1.0215625z" transform="matrix(1 0 0 -1 30.863 24.2401)"/><path d="m2.24 0c1.5246875 0 2.45.72625 2.45 2.043125 0 1.203125-.546875 1.6515625-1.876875 2.0015625l-.7.196875c-.7415625.21-1.036875.4615625-1.036875 1.063125 0 .6453125.46375.966875 1.4.966875.77 0 1.47-.1815625 1.8353125-.3653125v.8684375c-.3653125.196875-.966875.406875-1.89.406875-1.596875 0-2.366875-.7984375-2.366875-1.9753125 0-1.1746875.686875-1.63625 1.6953125-1.91625l.6846875-.18375c.8815625-.2515625 1.2053125-.5315625 1.2053125-1.1746875 0-.63-.4484375-1.0215625-1.5553125-1.0215625-.98 0-1.483125.21-2.0846875.433125v-.853125c.573125-.32375 1.33-.49 2.24-.49z" transform="matrix(1 0 0 -1 37.8923 24.3517)"/><path d="m1.0215625 0h1.0784375v6.0484375h1.5946875v.8815625h-1.5946875v.9384375c0 .9646875.4615625 1.35625 1.28625 1.35625.476875 0 .77-.0546875.98-.09625v.7546875c-.2515625.126875-.63.2384375-1.1746875.2384375-1.26 0-2.17-.6584375-2.17-2.183125v-1.0084375h-1.0215625v-.8815625h1.0215625z" transform="matrix(1 0 0 -1 43.5623 24.2401)"/><path d="m3.1346875 0c1.876875 0 3.1653125 1.316875 3.1653125 3.5284375v.196875c0 2.19625-1.19 3.4715625-3.15 3.4715625-1.876875 0-3.15-1.316875-3.15-3.5153125v-.21c0-2.2115625 1.1746875-3.4715625 3.1346875-3.4715625zm.0284375.8815625c-1.1615625 0-2.0715625.63-2.0715625 2.56375v.35c0 1.623125.783125 2.52 2.043125 2.52 1.1353125 0 2.07375-.63 2.07375-2.56375v-.35c0-1.63625-.7853125-2.52-2.0453125-2.52z" transform="matrix(1 0 0 -1 48.2659 24.367)"/><path d="m0 0h1.0784375v5.46c.49.35 1.1615625.6015625 1.8615625.6015625.1115625 0 .3215625-.013125.5053125-.0415625v.9646875c-.07.0153125-.266875.0284375-.42.0284375-.7853125 0-1.54-.4046875-1.93375-.853125h-.07v.783125h-1.0215625z" transform="matrix(1 0 0 -1 56.175 24.2401)"/><path d="m0 0h1.0653125v5.6415625c.56.266875 1.1746875.503125 1.763125.503125.923125 0 1.26-.35 1.26-1.19v-4.9546875h1.063125v5.18c0 .1684375-.013125.293125-.0415625.4615625.6584375.293125 1.246875.503125 1.7915625.503125.9384375 0 1.2753125-.35 1.2753125-1.19v-4.9546875h1.05v5.18c0 1.343125-.7 1.89-1.9053125 1.89-.783125 0-1.5946875-.28-2.3515625-.77h-.0546875c-.32375.5184375-.88375.77-1.666875.77s-1.526875-.3215625-2.17-.7284375h-.056875v.6015625h-1.0215625z" transform="matrix(1 0 0 -1 61.019 24.2401)"/><path d="m3.29 0c1.12 0 1.9184375.35 2.3384375.6453125v.79625c-.63-.293125-1.246875-.51625-2.17-.51625-1.4853125 0-2.31.6715625-2.366875 2.40625h4.7315625v.60375c0 2.1546875-.8946875 3.2615625-2.8 3.2615625-1.5946875 0-3.023125-1.0784375-3.023125-3.5v-.196875c0-2.17 1.1046875-3.5 3.29-3.5zm-.2953125 6.3284375c1.1353125 0 1.7084375-.63 1.7084375-2.1415625h-3.6115625c.1115625 1.6384375 1.036875 2.1415625 1.903125 2.1415625z" transform="matrix(1 0 0 -1 71.8279 24.367)"/><path d="m0 0h1.0784375v5.46c.49.35 1.1615625.6015625 1.8615625.6015625.1115625 0 .3215625-.013125.5053125-.0415625v.9646875c-.07.0153125-.266875.0284375-.42.0284375-.7853125 0-1.54-.4046875-1.93375-.853125h-.07v.783125h-1.0215625z" transform="matrix(1 0 0 -1 79.261 24.2401)"/></g><g fill="#fff" fill-rule="nonzero" transform="matrix(1 0 0 -1 894.9252 269.7473)"><path d="m3.4015625 0h1.036875l3.4015625 9.393125h-1.05l-2.8-7.8946875h-.0284375l-2.813125 7.8946875h-1.1484375z" transform="translate(0 2.0716)"/><path d="m8.2315625 6.1753125v.23625c0 3.066875-1.5684375 4.73375-4.0884375 4.73375-2.59 0-4.143125-1.7784375-4.143125-4.7184375v-.2384375c0-2.6315625 1.07625-4.1015625 2.9946875-4.6615625l5.306875-1.526875.2646875.98-3.2615625.7853125c1.876875.4615625 2.926875 1.96 2.926875 4.41zm-4.0884375-3.836875c-2.113125 0-2.9684375 1.5815625-2.9684375 3.85v.433125c0 2.1153125.966875 3.61375 2.9115625 3.61375 2.1153125-.0153125 2.9553125-1.54 2.9553125-3.82375v-.433125c0-2.1-.966875-3.64-2.8984375-3.64z" transform="translate(8.8069 .4747)"/><path d="m0 0h1.063125l.966875 2.743125h3.7646875l.9953125-2.743125h1.1615625l-3.43 9.393125h-1.0784375zm3.8915625 7.91h.0284375l1.5246875-4.2284375h-3.093125z" transform="translate(17.9769 2.0716)"/><path d="m0 0h.7546875l1.036875 2.73h-1.2753125z" transform="translate(26.4469 .2516)"/><path d="m4.08625 0c1.106875 0 1.96.25375 2.59.616875v.9384375c-.58625-.2953125-1.28625-.616875-2.45-.616875-2.1546875 0-3.0515625 1.4-3.0515625 3.8084375v.4615625c0 2.4915625 1.26 3.556875 3.0384375 3.556875.923125 0 1.623125-.21 2.366875-.5053125v.9253125c-.5753125.3084375-1.30375.5184375-2.31.5184375-2.3953125 0-4.27-1.316875-4.27-4.676875v-.28c0-3.1784375 1.553125-4.746875 4.08625-4.746875z" transform="translate(33.7129 1.9163)"/><path d="m2.17 0c.93625 0 1.5246875.336875 1.84625.7284375h.07l.11375-.6015625h.86625v5.0246875c0 1.4153125-.853125 2.0453125-2.38 2.0453125-.79625 0-1.47-.126875-2.0715625-.3784375v-.77c.4353125.126875.98.223125 1.6515625.223125 1.246875 0 1.72375-.28 1.72375-1.35625v-.7284375l-1.876875-.2253125c-1.33-.153125-2.113125-.79625-2.113125-2.0146875 0-1.3015625.91-1.946875 2.17-1.946875zm.2646875.84c-.7984375 0-1.3146875.3784375-1.3146875 1.1353125 0 .79625.42 1.14625 1.273125 1.2315625l1.596875.1815625v-2.043125c-.2953125-.2953125-.91-.5053125-1.5553125-.5053125z" transform="translate(41.5529 1.9447)"/><path d="m0 0h1.0784375v2.40625c.3915625-.223125.98-.4615625 1.7784375-.4615625 1.9184375 0 3.1346875 1.0653125 3.1346875 3.5984375v.1815625c0 2.576875-1.3146875 3.416875-2.8415625 3.416875-.8946875 0-1.623125-.3084375-2.0584375-.7h-.0546875v.56h-1.036875zm2.7584375 2.82625c-.7284375 0-1.3584375.2253125-1.68.49v4.41c.3215625.2253125.98.5053125 1.7915625.5053125 1.2753125 0 2.0015625-.6015625 2.0015625-2.5615625v-.28c0-1.86375-.79625-2.56375-2.113125-2.56375z" transform="translate(48.6356)"/><path d="m2.8 0c.6015625 0 .896875.1553125 1.176875.28v.7284375c-.28-.083125-.60375-.1246875-.896875-.1246875-.7984375 0-1.0215625.2646875-1.0215625.93625v4.31375h1.7784375v.8815625h-1.7784375v1.6515625h-1.0653125v-1.6515625h-.993125v-.8815625h.993125v-4.48c0-1.176875.7153125-1.65375 1.806875-1.65375z" transform="translate(55.664 1.9862)"/><path d="m.013125 0h1.0653125v6.93h-1.0653125zm-.013125 8.33h1.0915625v1.12h-1.0915625z" transform="translate(61.194 2.0716)"/><path d="m3.1346875 0c1.876875 0 3.1653125 1.316875 3.1653125 3.5284375v.196875c0 2.19625-1.19 3.4715625-3.15 3.4715625-1.876875 0-3.15-1.316875-3.15-3.5153125v-.21c0-2.2115625 1.1746875-3.4715625 3.1346875-3.4715625zm.0284375.8815625c-1.1615625 0-2.0715625.63-2.0715625 2.56375v.35c0 1.623125.783125 2.52 2.043125 2.52 1.1353125 0 2.07375-.63 2.07375-2.56375v-.35c0-1.63625-.7853125-2.52-2.0453125-2.52z" transform="translate(63.9104 1.9447)"/><path d="m0 0h1.0653125v5.6415625c.573125.266875 1.3015625.503125 1.96.503125 1.1046875 0 1.4-.35 1.4-1.19v-4.9546875h1.063125v5.18c0 1.343125-.6584375 1.89-2.016875 1.89-.853125 0-1.75-.3084375-2.393125-.7284375h-.056875v.6015625h-1.0215625z" transform="translate(71.8195 2.0716)"/><path d="m.013125 0h1.0653125v6.93h-1.0653125zm-.013125 8.33h1.0915625v1.12h-1.0915625z" transform="translate(79.352 2.0716)"/><path d="m0 0h1.0653125v5.6415625c.573125.266875 1.3015625.503125 1.96.503125 1.1046875 0 1.4-.35 1.4-1.19v-4.9546875h1.063125v5.18c0 1.343125-.6584375 1.89-2.016875 1.89-.853125 0-1.75-.3084375-2.393125-.7284375h-.056875v.6015625h-1.0215625z" transform="translate(82.5015 2.0716)"/><path d="m3.10625 0c2.366875 0 3.3184375.9384375 3.3184375 2.1284375 0 1.2884375-.9384375 1.6646875-2.1984375 1.6646875h-1.91625c-.46375 0-.686875.14-.686875.5184375 0 .2253125.14.3915625.3215625.56.3653125-.1246875.756875-.1946875 1.19-.1946875 1.456875 0 2.6053125.7415625 2.6053125 2.2246875v.0153125c0 .5446875-.18375.9646875-.5053125 1.273125h1.246875v.826875h-2.3515625c-.3084375.07-.63.1115625-.98.1115625-1.526875 0-2.6184375-.7984375-2.6184375-2.24v-.0284375c0-.826875.3346875-1.386875.8684375-1.736875-.53375-.3915625-.7853125-.713125-.7853125-1.14625 0-.46375.3084375-.756875.7-.8684375v-.07c-.713125-.2384375-1.3146875-.6715625-1.3146875-1.4153125 0-1.00625.993125-1.623125 3.10625-1.623125zm-.02625.84c-1.37375 0-1.96.3084375-1.96.923125 0 .5884375.4046875.896875.93625 1.0784375h2.00375c.91 0 1.2446875-.21 1.2446875-.853125 0-.7284375-.5884375-1.1484375-2.2246875-1.1484375zm.0546875 4.676875c-.923125 0-1.54.44625-1.54 1.35625v.07c0 .8684375.5884375 1.37375 1.54 1.37375.9384375 0 1.526875-.4353125 1.526875-1.386875v-.07c0-.896875-.56-1.343125-1.526875-1.343125z" transform="translate(89.3209 .0131)"/><path d="m4.1015625 0c2.576875 0 4.13 1.7784375 4.13 4.73375v.223125c0 3.08-1.553125 4.746875-4.08625 4.746875-2.59 0-4.1453125-1.7784375-4.1453125-4.73375v-.223125c0-3.08 1.5553125-4.746875 4.1015625-4.746875zm.0284375.91c-2.1 0-2.94 1.5684375-2.94 3.836875v.433125c0 2.1.966875 3.61375 2.8984375 3.61375 2.1284375-.0153125 2.953125-1.5553125 2.953125-3.836875v-.433125c0-2.086875-.9646875-3.61375-2.9115625-3.61375z" transform="translate(100.4215 1.9163)"/><path d="m2.1284375 0c.84 0 1.5815625.3215625 2.2115625.756875h.056875l.09625-.63h.9253125v6.943125h-1.0653125v-5.6c-.573125-.28-1.19-.5446875-1.9315625-.5446875-1.0215625 0-1.343125.363125-1.343125 1.26v4.8846875h-1.0784375v-5.04c0-1.343125.77-2.03 2.1284375-2.03z" transform="translate(110.306 1.9447)"/><path d="m2.8 0c.6015625 0 .896875.1553125 1.176875.28v.7284375c-.28-.083125-.60375-.1246875-.896875-.1246875-.7984375 0-1.0215625.2646875-1.0215625.93625v4.31375h1.7784375v.8815625h-1.7784375v1.6515625h-1.0653125v-1.6515625h-.993125v-.8815625h.993125v-4.48c0-1.176875.7153125-1.65375 1.806875-1.65375z" transform="translate(117.166 1.9862)"/><path d="m0 0h1.0784375v2.40625c.3915625-.223125.98-.4615625 1.7784375-.4615625 1.9184375 0 3.1346875 1.0653125 3.1346875 3.5984375v.1815625c0 2.576875-1.3146875 3.416875-2.8415625 3.416875-.8946875 0-1.623125-.3084375-2.0584375-.7h-.0546875v.56h-1.036875zm2.7584375 2.82625c-.7284375 0-1.3584375.2253125-1.68.49v4.41c.3215625.2253125.98.5053125 1.7915625.5053125 1.2753125 0 2.0015625-.6015625 2.0015625-2.5615625v-.28c0-1.86375-.79625-2.56375-2.113125-2.56375z" transform="translate(122.6675)"/><path d="m2.1284375 0c.84 0 1.5815625.3215625 2.2115625.756875h.056875l.09625-.63h.9253125v6.943125h-1.0653125v-5.6c-.573125-.28-1.19-.5446875-1.9315625-.5446875-1.0215625 0-1.343125.363125-1.343125 1.26v4.8846875h-1.0784375v-5.04c0-1.343125.77-2.03 2.1284375-2.03z" transform="translate(130.256 1.9447)"/><path d="m2.8 0c.6015625 0 .896875.1553125 1.176875.28v.7284375c-.28-.083125-.60375-.1246875-.896875-.1246875-.7984375 0-1.0215625.2646875-1.0215625.93625v4.31375h1.7784375v.8815625h-1.7784375v1.6515625h-1.0653125v-1.6515625h-.993125v-.8815625h.993125v-4.48c0-1.176875.7153125-1.65375 1.806875-1.65375z" transform="translate(137.116 1.9862)"/></g><g stroke="#000" stroke-linecap="round" transform="translate(203.7913 210.4)"><path d="m0 2h48.029792"/><path d="m44.029792 0 4 2-4 2"/></g><g stroke="#000" stroke-linecap="round" transform="translate(400.3826 210.4)"><path d="m0 2h48.029792"/><path d="m44.029792 0 4 2-4 2"/></g><g stroke="#000" stroke-linecap="round" transform="translate(596.9739 212.4)"><path d="m0-0c16.3826087 17.1 32.5073997 33.9308923 48.374373 50.492677"/><path d="m47.051365 46.220716 1.323008 4.271961-4.211374-1.50477"/></g><g stroke="#000" stroke-linecap="round" transform="translate(203.7913 313)"><path d="m0 2h441.212401"/><path d="m437.212401 0 4 2-4 2"/></g><g stroke="#fff" stroke-linecap="round" transform="translate(793.5652 261.7)"><path d="m0 2h48.029792"/><path d="m44.029792 0 4 2-4 2"/></g><g fill-rule="nonzero"><path d="m0 0h1.12v3.7646875h1.9184375c1.7915625 0 2.996875 1.0084375 2.996875 2.856875 0 1.763125-1.0215625 2.7715625-3.136875 2.7715625h-2.8984375zm1.12 4.69v3.7646875h1.666875c1.526875 0 2.0584375-.573125 2.0584375-1.903125 0-1.26-.5753125-1.8615625-2.03-1.8615625z" fill="#000" transform="matrix(1 0 0 -1 80.608 142.4277)"/><path d="m0 0h1.0784375v5.46c.49.35 1.1615625.6015625 1.8615625.6015625.1115625 0 .3215625-.013125.5053125-.0415625v.9646875c-.07.0153125-.266875.0284375-.42.0284375-.7853125 0-1.54-.4046875-1.93375-.853125h-.07v.783125h-1.0215625z" fill="#000" transform="matrix(1 0 0 -1 88.1684 142.4277)"/><path d="m3.29 0c1.12 0 1.9184375.35 2.3384375.6453125v.79625c-.63-.293125-1.246875-.51625-2.17-.51625-1.4853125 0-2.31.6715625-2.366875 2.40625h4.7315625v.60375c0 2.1546875-.8946875 3.2615625-2.8 3.2615625-1.5946875 0-3.023125-1.0784375-3.023125-3.5v-.196875c0-2.17 1.1046875-3.5 3.29-3.5zm-.2953125 6.3284375c1.1353125 0 1.7084375-.63 1.7084375-2.1415625h-3.6115625c.1115625 1.6384375 1.036875 2.1415625 1.903125 2.1415625z" fill="#000" transform="matrix(1 0 0 -1 92.5793 142.5545)"/><path d="m0 0h4.62v.923125h-4.62z" fill="#000" transform="matrix(1 0 0 -1 99.7193 138.3392)"/><path d="m2.8 0c.6015625 0 .896875.1553125 1.176875.28v.7284375c-.28-.083125-.60375-.1246875-.896875-.1246875-.7984375 0-1.0215625.2646875-1.0215625.93625v4.31375h1.7784375v.8815625h-1.7784375v1.6515625h-1.0653125v-1.6515625h-.993125v-.8815625h.993125v-4.48c0-1.176875.7153125-1.65375 1.806875-1.65375z" fill="#000" transform="matrix(1 0 0 -1 105.4589 142.513)"/><path d="m0 0h1.0784375v5.46c.49.35 1.1615625.6015625 1.8615625.6015625.1115625 0 .3215625-.013125.5053125-.0415625v.9646875c-.07.0153125-.266875.0284375-.42.0284375-.7853125 0-1.54-.4046875-1.93375-.853125h-.07v.783125h-1.0215625z" fill="#000" transform="matrix(1 0 0 -1 110.9604 142.4277)"/><path d="m2.17 0c.93625 0 1.5246875.336875 1.84625.7284375h.07l.11375-.6015625h.86625v5.0246875c0 1.4153125-.853125 2.0453125-2.38 2.0453125-.79625 0-1.47-.126875-2.0715625-.3784375v-.77c.4353125.126875.98.223125 1.6515625.223125 1.246875 0 1.72375-.28 1.72375-1.35625v-.7284375l-1.876875-.2253125c-1.33-.153125-2.113125-.79625-2.113125-2.0146875 0-1.3015625.91-1.946875 2.17-1.946875zm.2646875.84c-.7984375 0-1.3146875.3784375-1.3146875 1.1353125 0 .79625.42 1.14625 1.273125 1.2315625l1.596875.1815625v-2.043125c-.2953125-.2953125-.91-.5053125-1.5553125-.5053125z" fill="#000" transform="matrix(1 0 0 -1 115.3297 142.5545)"/><path d="m.013125 0h1.0653125v6.93h-1.0653125zm-.013125 8.33h1.0915625v1.12h-1.0915625z" fill="#000" transform="matrix(1 0 0 -1 122.4409 142.4277)"/><path d="m0 0h1.0653125v5.6415625c.573125.266875 1.3015625.503125 1.96.503125 1.1046875 0 1.4-.35 1.4-1.19v-4.9546875h1.063125v5.18c0 1.343125-.6584375 1.89-2.016875 1.89-.853125 0-1.75-.3084375-2.393125-.7284375h-.056875v.6015625h-1.0215625z" fill="#000" transform="matrix(1 0 0 -1 125.5904 142.4277)"/><path d="m.013125 0h1.0653125v6.93h-1.0653125zm-.013125 8.33h1.0915625v1.12h-1.0915625z" fill="#000" transform="matrix(1 0 0 -1 133.1229 142.4277)"/><path d="m0 0h1.0653125v5.6415625c.573125.266875 1.3015625.503125 1.96.503125 1.1046875 0 1.4-.35 1.4-1.19v-4.9546875h1.063125v5.18c0 1.343125-.6584375 1.89-2.016875 1.89-.853125 0-1.75-.3084375-2.393125-.7284375h-.056875v.6015625h-1.0215625z" fill="#000" transform="matrix(1 0 0 -1 136.2724 142.4277)"/><path d="m3.10625 0c2.366875 0 3.3184375.9384375 3.3184375 2.1284375 0 1.2884375-.9384375 1.6646875-2.1984375 1.6646875h-1.91625c-.46375 0-.686875.14-.686875.5184375 0 .2253125.14.3915625.3215625.56.3653125-.1246875.756875-.1946875 1.19-.1946875 1.456875 0 2.6053125.7415625 2.6053125 2.2246875v.0153125c0 .5446875-.18375.9646875-.5053125 1.273125h1.246875v.826875h-2.3515625c-.3084375.07-.63.1115625-.98.1115625-1.526875 0-2.6184375-.7984375-2.6184375-2.24v-.0284375c0-.826875.3346875-1.386875.8684375-1.736875-.53375-.3915625-.7853125-.713125-.7853125-1.14625 0-.46375.3084375-.756875.7-.8684375v-.07c-.713125-.2384375-1.3146875-.6715625-1.3146875-1.4153125 0-1.00625.993125-1.623125 3.10625-1.623125zm-.02625.84c-1.37375 0-1.96.3084375-1.96.923125 0 .5884375.4046875.896875.93625 1.0784375h2.00375c.91 0 1.2446875-.21 1.2446875-.853125 0-.7284375-.5884375-1.1484375-2.2246875-1.1484375zm.0546875 4.676875c-.923125 0-1.54.44625-1.54 1.35625v.07c0 .8684375.5884375 1.37375 1.54 1.37375.9384375 0 1.526875-.4353125 1.526875-1.386875v-.07c0-.896875-.56-1.343125-1.526875-1.343125z" fill="#000" transform="matrix(1 0 0 -1 143.0917 144.4861)"/><path d="m0 0h2.8c3.05375 0 4.4253125 1.7215625 4.4253125 4.6746875v.266875c0 2.996875-1.5815625 4.4515625-4.4384375 4.4515625h-2.786875zm1.106875.9515625v7.49h1.5684375c2.1546875 0 3.3446875-.896875 3.3446875-3.5v-.42c0-2.506875-.98-3.57-3.1915625-3.57z" fill="#000" transform="matrix(1 0 0 -1 154.724 142.4277)"/><path d="m2.17 0c.93625 0 1.5246875.336875 1.84625.7284375h.07l.11375-.6015625h.86625v5.0246875c0 1.4153125-.853125 2.0453125-2.38 2.0453125-.79625 0-1.47-.126875-2.0715625-.3784375v-.77c.4353125.126875.98.223125 1.6515625.223125 1.246875 0 1.72375-.28 1.72375-1.35625v-.7284375l-1.876875-.2253125c-1.33-.153125-2.113125-.79625-2.113125-2.0146875 0-1.3015625.91-1.946875 2.17-1.946875zm.2646875.84c-.7984375 0-1.3146875.3784375-1.3146875 1.1353125 0 .79625.42 1.14625 1.273125 1.2315625l1.596875.1815625v-2.043125c-.2953125-.2953125-.91-.5053125-1.5553125-.5053125z" fill="#000" transform="matrix(1 0 0 -1 163.1677 142.5545)"/><path d="m2.8 0c.6015625 0 .896875.1553125 1.176875.28v.7284375c-.28-.083125-.60375-.1246875-.896875-.1246875-.7984375 0-1.0215625.2646875-1.0215625.93625v4.31375h1.7784375v.8815625h-1.7784375v1.6515625h-1.0653125v-1.6515625h-.993125v-.8815625h.993125v-4.48c0-1.176875.7153125-1.65375 1.806875-1.65375z" fill="#000" transform="matrix(1 0 0 -1 169.6489 142.513)"/><path d="m2.17 0c.93625 0 1.5246875.336875 1.84625.7284375h.07l.11375-.6015625h.86625v5.0246875c0 1.4153125-.853125 2.0453125-2.38 2.0453125-.79625 0-1.47-.126875-2.0715625-.3784375v-.77c.4353125.126875.98.223125 1.6515625.223125 1.246875 0 1.72375-.28 1.72375-1.35625v-.7284375l-1.876875-.2253125c-1.33-.153125-2.113125-.79625-2.113125-2.0146875 0-1.3015625.91-1.946875 2.17-1.946875zm.2646875.84c-.7984375 0-1.3146875.3784375-1.3146875 1.1353125 0 .79625.42 1.14625 1.273125 1.2315625l1.596875.1815625v-2.043125c-.2953125-.2953125-.91-.5053125-1.5553125-.5053125z" fill="#000" transform="matrix(1 0 0 -1 174.6757 142.5545)"/><path d="m3.16875 0h.73125v1.5703125h1.11875v.65h-1.11875v4.740625h-.6203125l-3.2796875-4.790625v-.6h3.16875zm-2.31875 2.2203125 2.31875 3.4796875v-3.4796875z" fill="#000" transform="matrix(1 0 0 -1 96.0047 389.0102)"/><path d="m1.8796875 0c1.4796875 0 2.3609375 1.009375 2.3609375 2.209375 0 1.4109375-.83125 2.05-2.18125 2.05-.2796875 0-.6890625-.06875-.959375-.1390625l.140625 2.0390625h2.759375v.68125h-3.4l-.240625-3.5203125c.3109375.1390625.940625.3296875 1.4.3296875 1.05 0 1.65-.409375 1.65-1.4296875 0-.95-.61875-1.55-1.6796875-1.55-.55 0-1.209375.2296875-1.5796875.4796875l-.15-.640625c.4-.2890625 1.1-.509375 1.8796875-.509375z" fill="#000" transform="matrix(1 0 0 -1 101.5641 388.9696)"/><path d="m1.5390625 3.5296875c.95 0 1.540625.7296875 1.540625 1.7890625v.1609375c0 1.059375-.590625 1.7203125-1.540625 1.7203125s-1.5390625-.73125-1.5390625-1.78125v-.159375c0-1.0796875.5890625-1.7296875 1.5390625-1.7296875zm4.3203125-3.2296875c.95 0 1.5296875.7296875 1.5296875 1.7890625v.1609375c0 1.059375-.5796875 1.71875-1.5296875 1.71875s-1.559375-.7296875-1.559375-1.7890625v-.15c0-1.0703125.609375-1.7296875 1.559375-1.7296875zm-4.859375-.3h.66875l4.640625 7.2796875h-.6703125zm4.859375.809375c-.559375 0-.8703125.3703125-.8703125 1.2203125v.2296875c0 .809375.3296875 1.2.8703125 1.2.5203125 0 .8296875-.4.8296875-1.209375v-.23125c0-.8390625-.3-1.209375-.8296875-1.209375zm-4.3203125 3.2203125c-.5296875 0-.85.3796875-.85 1.2296875v.2296875c0 .8203125.3296875 1.2.85 1.2.540625 0 .8609375-.3890625.8609375-1.209375v-.2296875c0-.840625-.3-1.2203125-.8609375-1.2203125z" fill="#000" transform="matrix(1 0 0 -1 106.6947 389.229)"/><path d="m0 0h.790625v6.709375h-.790625z" fill="#000" transform="matrix(1 0 0 -1 118.0541 388.8493)"/><path d="m0 0h.7609375v4.0296875c.409375.190625.9296875.359375 1.4.359375.7890625 0 1-.25 1-.85v-3.5390625h.759375v3.7c0 .959375-.4703125 1.35-1.440625 1.35-.609375 0-1.25-.2203125-1.709375-.5203125h-.040625v.4296875h-.7296875z" fill="#000" transform="matrix(1 0 0 -1 120.4738 388.8493)"/><path d="m2 0c.4296875 0 .640625.1109375.840625.2v.5203125c-.2-.059375-.43125-.0890625-.640625-.0890625-.5703125 0-.7296875.1890625-.7296875.66875v3.08125h1.2703125v.6296875h-1.2703125v1.1796875h-.7609375v-1.1796875h-.709375v-.6296875h.709375v-3.2c0-.840625.5109375-1.18125 1.290625-1.18125z" fill="#000" transform="matrix(1 0 0 -1 125.4041 388.9102)"/><path d="m2.35 0c.8 0 1.3703125.25 1.6703125.4609375v.56875c-.45-.209375-.890625-.36875-1.55-.36875-1.0609375 0-1.65.4796875-1.690625 1.71875h3.3796875v.43125c0 1.5390625-.6390625 2.3296875-2 2.3296875-1.1390625 0-2.159375-.7703125-2.159375-2.5v-.140625c0-1.55.7890625-2.5 2.35-2.5zm-.2109375 4.5203125c.8109375 0 1.2203125-.45 1.2203125-1.5296875h-2.5796875c.0796875 1.1703125.740625 1.5296875 1.359375 1.5296875z" fill="#000" transform="matrix(1 0 0 -1 129.0244 388.9399)"/><path d="m0 0h.7703125v3.9c.35.25.8296875.4296875 1.3296875.4296875.0796875 0 .2296875-.009375.3609375-.0296875v.6890625c-.05.0109375-.190625.0203125-.3.0203125-.5609375 0-1.1-.2890625-1.38125-.609375h-.05v.559375h-.7296875z" fill="#000" transform="matrix(1 0 0 -1 134.3338 388.8493)"/><path d="m0 0h.7703125v7.159375h-.7703125z" fill="#000" transform="matrix(1 0 0 -1 137.8141 388.8493)"/><path d="m2.35 0c.8 0 1.3703125.25 1.6703125.4609375v.56875c-.45-.209375-.890625-.36875-1.55-.36875-1.0609375 0-1.65.4796875-1.690625 1.71875h3.3796875v.43125c0 1.5390625-.6390625 2.3296875-2 2.3296875-1.1390625 0-2.159375-.7703125-2.159375-2.5v-.140625c0-1.55.7890625-2.5 2.35-2.5zm-.2109375 4.5203125c.8109375 0 1.2203125-.45 1.2203125-1.5296875h-2.5796875c.0796875 1.1703125.740625 1.5296875 1.359375 1.5296875z" fill="#000" transform="matrix(1 0 0 -1 139.7544 388.9399)"/><path d="m1.55 0c.66875 0 1.0890625.240625 1.31875.5203125h.05l.08125-.4296875h.61875v3.5890625c0 1.0109375-.609375 1.4609375-1.7 1.4609375-.56875 0-1.05-.090625-1.4796875-.2703125v-.55c.3109375.090625.7.159375 1.1796875.159375.890625 0 1.23125-.2 1.23125-.96875v-.5203125l-1.340625-.1609375c-.95-.109375-1.509375-.56875-1.509375-1.4390625 0-.9296875.65-1.390625 1.55-1.390625zm.1890625.6c-.5703125 0-.9390625.2703125-.9390625.8109375 0 .56875.3.81875.909375.8796875l1.140625.1296875v-1.459375c-.2109375-.2109375-.65-.3609375-1.1109375-.3609375z" fill="#000" transform="matrix(1 0 0 -1 144.7247 388.9399)"/><path d="m1.8390625 0h.7609375l1.8390625 4.959375h-.75l-1.4296875-3.9890625h-.040625l-1.3890625 3.9890625h-.8296875z" fill="#000" transform="matrix(1 0 0 -1 149.2947 388.8493)"/><path d="m2.35 0c.8 0 1.3703125.25 1.6703125.4609375v.56875c-.45-.209375-.890625-.36875-1.55-.36875-1.0609375 0-1.65.4796875-1.690625 1.71875h3.3796875v.43125c0 1.5390625-.6390625 2.3296875-2 2.3296875-1.1390625 0-2.159375-.7703125-2.159375-2.5v-.140625c0-1.55.7890625-2.5 2.35-2.5zm-.2109375 4.5203125c.8109375 0 1.2203125-.45 1.2203125-1.5296875h-2.5796875c.0796875 1.1703125.740625 1.5296875 1.359375 1.5296875z" fill="#000" transform="matrix(1 0 0 -1 154.3944 388.9399)"/><path d="m2.059375 0c.6703125 0 1.15.2109375 1.45.5h.040625l.0890625-.409375h.640625v7.159375h-.7703125v-2.4390625c-.2703125.159375-.690625.3296875-1.3.3296875-1.2796875 0-2.209375-.7796875-2.209375-2.5796875v-.13125c0-1.8296875 1.06875-2.4296875 2.059375-2.4296875zm.2296875.6296875c-.8890625 0-1.4890625.440625-1.4890625 1.83125v.2c0 1.3390625.56875 1.8296875 1.509375 1.8296875.509375 0 .9703125-.140625 1.2-.3203125v-3.1203125c-.25-.2-.640625-.4203125-1.2203125-.4203125z" fill="#000" transform="matrix(1 0 0 -1 159.4147 388.9399)"/><path d="m3.16875 0h.73125v1.5703125h1.11875v.65h-1.11875v4.740625h-.6203125l-3.2796875-4.790625v-.6h3.16875zm-2.31875 2.2203125 2.31875 3.4796875v-3.4796875z" fill="#000" transform="matrix(1 0 0 -1 101.3945 399.1652)"/><path d="m1.8796875 0c1.4796875 0 2.3609375 1.009375 2.3609375 2.209375 0 1.4109375-.83125 2.05-2.18125 2.05-.2796875 0-.6890625-.06875-.959375-.1390625l.140625 2.0390625h2.759375v.68125h-3.4l-.240625-3.5203125c.3109375.1390625.940625.3296875 1.4.3296875 1.05 0 1.65-.409375 1.65-1.4296875 0-.95-.61875-1.55-1.6796875-1.55-.55 0-1.209375.2296875-1.5796875.4796875l-.15-.640625c.4-.2890625 1.1-.509375 1.8796875-.509375z" fill="#000" transform="matrix(1 0 0 -1 106.9539 399.1246)"/><path d="m1.5390625 3.5296875c.95 0 1.540625.7296875 1.540625 1.7890625v.1609375c0 1.059375-.590625 1.7203125-1.540625 1.7203125s-1.5390625-.73125-1.5390625-1.78125v-.159375c0-1.0796875.5890625-1.7296875 1.5390625-1.7296875zm4.3203125-3.2296875c.95 0 1.5296875.7296875 1.5296875 1.7890625v.1609375c0 1.059375-.5796875 1.71875-1.5296875 1.71875s-1.559375-.7296875-1.559375-1.7890625v-.15c0-1.0703125.609375-1.7296875 1.559375-1.7296875zm-4.859375-.3h.66875l4.640625 7.2796875h-.6703125zm4.859375.809375c-.559375 0-.8703125.3703125-.8703125 1.2203125v.2296875c0 .809375.3296875 1.2.8703125 1.2.5203125 0 .8296875-.4.8296875-1.209375v-.23125c0-.8390625-.3-1.209375-.8296875-1.209375zm-4.3203125 3.2203125c-.5296875 0-.85.3796875-.85 1.2296875v.2296875c0 .8203125.3296875 1.2.85 1.2.540625 0 .8609375-.3890625.8609375-1.209375v-.2296875c0-.840625-.3-1.2203125-.8609375-1.2203125z" fill="#000" transform="matrix(1 0 0 -1 112.0845 399.384)"/><path d="m2.91875 0c.790625 0 1.4.18125 1.85.440625v.6703125c-.41875-.2109375-.91875-.440625-1.75-.440625-1.5390625 0-2.1796875 1-2.1796875 2.7203125v.3296875c0 1.7796875.9 2.540625 2.1703125 2.540625.659375 0 1.159375-.15 1.690625-.3609375v.6609375c-.4109375.2203125-.93125.3703125-1.65.3703125-1.7109375 0-3.05-.940625-3.05-3.340625v-.2c0-2.2703125 1.109375-3.390625 2.91875-3.390625z" fill="#000" transform="matrix(1 0 0 -1 123.0345 399.1152)"/><path d="m1.55 0c.66875 0 1.0890625.240625 1.31875.5203125h.05l.08125-.4296875h.61875v3.5890625c0 1.0109375-.609375 1.4609375-1.7 1.4609375-.56875 0-1.05-.090625-1.4796875-.2703125v-.55c.3109375.090625.7.159375 1.1796875.159375.890625 0 1.23125-.2 1.23125-.96875v-.5203125l-1.340625-.1609375c-.95-.109375-1.509375-.56875-1.509375-1.4390625 0-.9296875.65-1.390625 1.55-1.390625zm.1890625.6c-.5703125 0-.9390625.2703125-.9390625.8109375 0 .56875.3.81875.909375.8796875l1.140625.1296875v-1.459375c-.2109375-.2109375-.65-.3609375-1.1109375-.3609375z" fill="#000" transform="matrix(1 0 0 -1 128.6345 399.0949)"/><path d="m0 0h.7703125v1.71875c.2796875-.159375.7-.3296875 1.2703125-.3296875 1.3703125 0 2.2390625.7609375 2.2390625 2.5703125v.1296875c0 1.840625-.9390625 2.440625-2.0296875 2.440625-.6390625 0-1.159375-.2203125-1.4703125-.5h-.0390625v.4h-.740625zm1.9703125 2.01875c-.5203125 0-.9703125.1609375-1.2.35v3.15c.2296875.1609375.7.3609375 1.2796875.3609375.9109375 0 1.4296875-.4296875 1.4296875-1.8296875v-.2c0-1.33125-.56875-1.83125-1.509375-1.83125z" fill="#000" transform="matrix(1 0 0 -1 133.6936 400.484)"/><path d="m2 0c.4296875 0 .640625.1109375.840625.2v.5203125c-.2-.059375-.43125-.0890625-.640625-.0890625-.5703125 0-.7296875.1890625-.7296875.66875v3.08125h1.2703125v.6296875h-1.2703125v1.1796875h-.7609375v-1.1796875h-.709375v-.6296875h.709375v-3.2c0-.840625.5109375-1.18125 1.290625-1.18125z" fill="#000" transform="matrix(1 0 0 -1 138.7139 399.0652)"/><path d="m.009375 0h.7609375v4.95h-.7609375zm-.009375 5.95h.7796875v.8h-.7796875z" fill="#000" transform="matrix(1 0 0 -1 142.6639 399.0043)"/><path d="m2.2390625 0c1.340625 0 2.2609375.940625 2.2609375 2.5203125v.140625c0 1.56875-.85 2.4796875-2.25 2.4796875-1.340625 0-2.25-.940625-2.25-2.5109375v-.15c0-1.5796875.8390625-2.4796875 2.2390625-2.4796875zm.0203125.6296875c-.8296875 0-1.4796875.45-1.4796875 1.83125v.25c0 1.159375.559375 1.8 1.459375 1.8.8109375 0 1.48125-.45 1.48125-1.83125v-.25c0-1.16875-.5609375-1.8-1.4609375-1.8z" fill="#000" transform="matrix(1 0 0 -1 144.6042 399.0949)"/><path d="m0 0h.7609375v4.0296875c.409375.190625.9296875.359375 1.4.359375.7890625 0 1-.25 1-.85v-3.5390625h.759375v3.7c0 .959375-.4703125 1.35-1.440625 1.35-.609375 0-1.25-.2203125-1.709375-.5203125h-.040625v.4296875h-.7296875z" fill="#000" transform="matrix(1 0 0 -1 150.2536 399.0043)"/><path d="m1.6 0c1.0890625 0 1.75.51875 1.75 1.459375 0 .859375-.390625 1.1796875-1.340625 1.4296875l-.5.140625c-.5296875.15-.740625.3296875-.740625.759375 0 .4609375.33125.690625 1 .690625.55 0 1.05-.1296875 1.3109375-.2609375v.6203125c-.2609375.140625-.690625.290625-1.35.290625-1.140625 0-1.690625-.5703125-1.690625-1.4109375 0-.8390625.490625-1.16875 1.2109375-1.36875l.4890625-.13125c.6296875-.1796875.8609375-.3796875.8609375-.8390625 0-.45-.3203125-.7296875-1.1109375-.7296875-.7 0-1.059375.15-1.4890625.309375v-.609375c.409375-.23125.95-.35 1.6-.35z" fill="#000" transform="matrix(1 0 0 -1 155.2745 399.084)"/><path d="m1.240625 0h.759375v6.8609375h-.4203125l-1.5796875-.740625v-.459375l1.240625.2890625z" fill="#000" transform="matrix(1 0 0 -1 99.8234 409.2)"/><path d="m2.459375 0c1.3609375 0 2.4.9296875 2.4 3.2v.609375c0 2.33125-1.0796875 3.13125-2.3890625 3.13125-1.3203125 0-2.4703125-.8-2.4703125-3.1703125v-.5609375c0-2.26875 1.0796875-3.209375 2.459375-3.209375zm0 .659375c-1.05 0-1.609375.8-1.609375 2.4703125v.740625c0 1.6796875.5703125 2.409375 1.6203125 2.409375 1.0296875 0 1.5796875-.7703125 1.5796875-2.459375v-.740625c0-1.7203125-.559375-2.4203125-1.590625-2.4203125z" fill="#000" transform="matrix(1 0 0 -1 103.5434 409.2797)"/><path d="m1.5390625 3.5296875c.95 0 1.540625.7296875 1.540625 1.7890625v.1609375c0 1.059375-.590625 1.7203125-1.540625 1.7203125s-1.5390625-.73125-1.5390625-1.78125v-.159375c0-1.0796875.5890625-1.7296875 1.5390625-1.7296875zm4.3203125-3.2296875c.95 0 1.5296875.7296875 1.5296875 1.7890625v.1609375c0 1.059375-.5796875 1.71875-1.5296875 1.71875s-1.559375-.7296875-1.559375-1.7890625v-.15c0-1.0703125.609375-1.7296875 1.559375-1.7296875zm-4.859375-.3h.66875l4.640625 7.2796875h-.6703125zm4.859375.809375c-.559375 0-.8703125.3703125-.8703125 1.2203125v.2296875c0 .809375.3296875 1.2.8703125 1.2.5203125 0 .8296875-.4.8296875-1.209375v-.23125c0-.8390625-.3-1.209375-.8296875-1.209375zm-4.3203125 3.2203125c-.5296875 0-.85.3796875-.85 1.2296875v.2296875c0 .8203125.3296875 1.2.85 1.2.540625 0 .8609375-.3890625.8609375-1.209375v-.2296875c0-.840625-.3-1.2203125-.8609375-1.2203125z" fill="#000" transform="matrix(1 0 0 -1 109.584 409.5391)"/><path d="m2.05 0h.7796875v6.0390625h2.05v.6703125h-4.8796875v-.6703125h2.05z" fill="#000" transform="matrix(1 0 0 -1 120.3231 409.1594)"/><path d="m2.35 0c.8 0 1.3703125.25 1.6703125.4609375v.56875c-.45-.209375-.890625-.36875-1.55-.36875-1.0609375 0-1.65.4796875-1.690625 1.71875h3.3796875v.43125c0 1.5390625-.6390625 2.3296875-2 2.3296875-1.1390625 0-2.159375-.7703125-2.159375-2.5v-.140625c0-1.55.7890625-2.5 2.35-2.5zm-.2109375 4.5203125c.8109375 0 1.2203125-.45 1.2203125-1.5296875h-2.5796875c.0796875 1.1703125.740625 1.5296875 1.359375 1.5296875z" fill="#000" transform="matrix(1 0 0 -1 125.9037 409.25)"/><path d="m0 0h.840625l1.2890625 1.9796875 1.2609375-1.9796875h.909375l-1.659375 2.5203125 1.5390625 2.4390625h-.8296875l-1.1296875-1.8890625-1.240625 1.8890625h-.9l1.6109375-2.4390625z" fill="#000" transform="matrix(1 0 0 -1 130.7131 409.1594)"/><path d="m2 0c.4296875 0 .640625.1109375.840625.2v.5203125c-.2-.059375-.43125-.0890625-.640625-.0890625-.5703125 0-.7296875.1890625-.7296875.66875v3.08125h1.2703125v.6296875h-1.2703125v1.1796875h-.7609375v-1.1796875h-.709375v-.6296875h.709375v-3.2c0-.840625.5109375-1.18125 1.290625-1.18125z" fill="#000" transform="matrix(1 0 0 -1 135.5534 409.2203)"/><path d="m0 0h3.3v.659375h-3.3z" fill="#000" transform="matrix(1 0 0 -1 139.2737 406.2391)"/><path d="m2.2390625 0c1.340625 0 2.2609375.940625 2.2609375 2.5203125v.140625c0 1.56875-.85 2.4796875-2.25 2.4796875-1.340625 0-2.25-.940625-2.25-2.5109375v-.15c0-1.5796875.8390625-2.4796875 2.2390625-2.4796875zm.0203125.6296875c-.8296875 0-1.4796875.45-1.4796875 1.83125v.25c0 1.159375.559375 1.8 1.459375 1.8.8109375 0 1.48125-.45 1.48125-1.83125v-.25c0-1.16875-.5609375-1.8-1.4609375-1.8z" fill="#000" transform="matrix(1 0 0 -1 143.4937 409.25)"/><path d="m0 0h.7609375v4.0296875c.409375.190625.9296875.359375 1.4.359375.7890625 0 1-.25 1-.85v-3.5390625h.759375v3.7c0 .959375-.4703125 1.35-1.440625 1.35-.609375 0-1.25-.2203125-1.709375-.5203125h-.040625v.4296875h-.7296875z" fill="#000" transform="matrix(1 0 0 -1 149.1431 409.1594)"/><path d="m0 0h.7703125v7.159375h-.7703125z" fill="#000" transform="matrix(1 0 0 -1 154.5234 409.1594)"/><path d="m.9 0c.8203125 0 1.23125.3 1.5609375 1.1796875l1.95 5.2703125h-.7703125l-1.340625-3.7703125h-.01875l-1.4609375 3.7703125h-.8203125l1.9-4.7796875-.15-.409375c-.209375-.540625-.509375-.6203125-.9890625-.6203125-.1796875 0-.3609375.05-.4796875.0703125v-.5703125c.1390625-.0703125.3890625-.140625.61875-.140625z" fill="#000" transform="matrix(1 0 0 -1 156.2528 410.65)"/><path d="m2.673125 0c2.1984375 0 3.15 1.0915625 3.15 2.73 0 1.5815625-.8815625 2.17-2.2684375 2.646875l-.923125.293125c-1.0653125.363125-1.4.756875-1.4 1.6515625 0 .896875.643125 1.456875 1.7915625 1.456875 1.036875 0 1.7784375-.266875 2.323125-.5184375v.9384375c-.51625.2515625-1.1746875.5184375-2.2815625.5184375-1.96 0-2.9246875-1.036875-2.9246875-2.49375 0-1.42625.7415625-2.1 2.05625-2.533125l.91-.3215625c1.1353125-.3653125 1.596875-.756875 1.596875-1.7215625 0-1.02375-.63-1.6953125-2.0715625-1.6953125-.9953125 0-1.9184375.2515625-2.6315625.616875v-.9384375c.63-.35 1.5246875-.63 2.673125-.63z" fill="#000" transform="matrix(1 0 0 -1 725.7724 148.6434)"/><path d="m2.1284375 0c.84 0 1.5815625.3215625 2.2115625.756875h.056875l.09625-.63h.9253125v6.943125h-1.0653125v-5.6c-.573125-.28-1.19-.5446875-1.9315625-.5446875-1.0215625 0-1.343125.363125-1.343125 1.26v4.8846875h-1.0784375v-5.04c0-1.343125.77-2.03 2.1284375-2.03z" fill="#000" transform="matrix(1 0 0 -1 733.2615 148.6018)"/><path d="m0 0h1.0784375v2.40625c.3915625-.223125.98-.4615625 1.7784375-.4615625 1.9184375 0 3.1346875 1.0653125 3.1346875 3.5984375v.1815625c0 2.576875-1.3146875 3.416875-2.8415625 3.416875-.8946875 0-1.623125-.3084375-2.0584375-.7h-.0546875v.56h-1.036875zm2.7584375 2.82625c-.7284375 0-1.3584375.2253125-1.68.49v4.41c.3215625.2253125.98.5053125 1.7915625.5053125 1.2753125 0 2.0015625-.6015625 2.0015625-2.5615625v-.28c0-1.86375-.79625-2.56375-2.113125-2.56375z" fill="#000" transform="matrix(1 0 0 -1 740.7231 150.5465)"/><path d="m3.29 0c1.12 0 1.9184375.35 2.3384375.6453125v.79625c-.63-.293125-1.246875-.51625-2.17-.51625-1.4853125 0-2.31.6715625-2.366875 2.40625h4.7315625v.60375c0 2.1546875-.8946875 3.2615625-2.8 3.2615625-1.5946875 0-3.023125-1.0784375-3.023125-3.5v-.196875c0-2.17 1.1046875-3.5 3.29-3.5zm-.2953125 6.3284375c1.1353125 0 1.7084375-.63 1.7084375-2.1415625h-3.6115625c.1115625 1.6384375 1.036875 2.1415625 1.903125 2.1415625z" fill="#000" transform="matrix(1 0 0 -1 747.92 148.6018)"/><path d="m0 0h1.0784375v5.46c.49.35 1.1615625.6015625 1.8615625.6015625.1115625 0 .3215625-.013125.5053125-.0415625v.9646875c-.07.0153125-.266875.0284375-.42.0284375-.7853125 0-1.54-.4046875-1.93375-.853125h-.07v.783125h-1.0215625z" fill="#000" transform="matrix(1 0 0 -1 755.3531 148.4749)"/><path d="m2.5746875 0h1.0653125l2.5746875 6.943125h-1.05l-2.0015625-5.5846875h-.056875l-1.9446875 5.5846875h-1.1615625z" fill="#000" transform="matrix(1 0 0 -1 759.5124 148.4749)"/><path d="m.013125 0h1.0653125v6.93h-1.0653125zm-.013125 8.33h1.0915625v1.12h-1.0915625z" fill="#000" transform="matrix(1 0 0 -1 767.1135 148.4749)"/><path d="m2.24 0c1.5246875 0 2.45.72625 2.45 2.043125 0 1.203125-.546875 1.6515625-1.876875 2.0015625l-.7.196875c-.7415625.21-1.036875.4615625-1.036875 1.063125 0 .6453125.46375.966875 1.4.966875.77 0 1.47-.1815625 1.8353125-.3653125v.8684375c-.3653125.196875-.966875.406875-1.89.406875-1.596875 0-2.366875-.7984375-2.366875-1.9753125 0-1.1746875.686875-1.63625 1.6953125-1.91625l.6846875-.18375c.8815625-.2515625 1.2053125-.5315625 1.2053125-1.1746875 0-.63-.4484375-1.0215625-1.5553125-1.0215625-.98 0-1.483125.21-2.0846875.433125v-.853125c.573125-.32375 1.33-.49 2.24-.49z" fill="#000" transform="matrix(1 0 0 -1 769.7884 148.5865)"/><path d="m3.29 0c1.12 0 1.9184375.35 2.3384375.6453125v.79625c-.63-.293125-1.246875-.51625-2.17-.51625-1.4853125 0-2.31.6715625-2.366875 2.40625h4.7315625v.60375c0 2.1546875-.8946875 3.2615625-2.8 3.2615625-1.5946875 0-3.023125-1.0784375-3.023125-3.5v-.196875c0-2.17 1.1046875-3.5 3.29-3.5zm-.2953125 6.3284375c1.1353125 0 1.7084375-.63 1.7084375-2.1415625h-3.6115625c.1115625 1.6384375 1.036875 2.1415625 1.903125 2.1415625z" fill="#000" transform="matrix(1 0 0 -1 775.64 148.6018)"/><path d="m2.883125 0c.9384375 0 1.61.2953125 2.03.7h.056875l.1246875-.573125h.896875v10.023125h-1.0784375v-3.4146875c-.3784375.223125-.966875.4615625-1.82.4615625-1.7915625 0-3.093125-1.0915625-3.093125-3.6115625v-.18375c0-2.5615625 1.49625-3.4015625 2.883125-3.4015625zm.3215625.8815625c-1.2446875 0-2.0846875.616875-2.0846875 2.56375v.28c0 1.8746875.79625 2.5615625 2.113125 2.5615625.713125 0 1.3584375-.196875 1.68-.4484375v-4.3684375c-.35-.28-.896875-.5884375-1.7084375-.5884375z" fill="#000" transform="matrix(1 0 0 -1 782.6684 148.6018)"/><path d="m0 0h1.106875v4.213125h3.346875v.9515625h-3.346875v3.29h4.34v.9384375h-5.446875z" fill="#000" transform="matrix(1 0 0 -1 794.5666 148.4749)"/><path d="m.013125 0h1.0653125v6.93h-1.0653125zm-.013125 8.33h1.0915625v1.12h-1.0915625z" fill="#000" transform="matrix(1 0 0 -1 801.6375 148.4749)"/><path d="m0 0h1.0653125v5.6415625c.573125.266875 1.3015625.503125 1.96.503125 1.1046875 0 1.4-.35 1.4-1.19v-4.9546875h1.063125v5.18c0 1.343125-.6584375 1.89-2.016875 1.89-.853125 0-1.75-.3084375-2.393125-.7284375h-.056875v.6015625h-1.0215625z" fill="#000" transform="matrix(1 0 0 -1 804.7871 148.4749)"/><path d="m3.29 0c1.12 0 1.9184375.35 2.3384375.6453125v.79625c-.63-.293125-1.246875-.51625-2.17-.51625-1.4853125 0-2.31.6715625-2.366875 2.40625h4.7315625v.60375c0 2.1546875-.8946875 3.2615625-2.8 3.2615625-1.5946875 0-3.023125-1.0784375-3.023125-3.5v-.196875c0-2.17 1.1046875-3.5 3.29-3.5zm-.2953125 6.3284375c1.1353125 0 1.7084375-.63 1.7084375-2.1415625h-3.6115625c.1115625 1.6384375 1.036875 2.1415625 1.903125 2.1415625z" fill="#000" transform="matrix(1 0 0 -1 811.8579 148.6018)"/><path d="m0 0h4.62v.923125h-4.62z" fill="#000" transform="matrix(1 0 0 -1 818.9979 144.3865)"/><path d="m2.8 0c.6015625 0 .896875.1553125 1.176875.28v.7284375c-.28-.083125-.60375-.1246875-.896875-.1246875-.7984375 0-1.0215625.2646875-1.0215625.93625v4.31375h1.7784375v.8815625h-1.7784375v1.6515625h-1.0653125v-1.6515625h-.993125v-.8815625h.993125v-4.48c0-1.176875.7153125-1.65375 1.806875-1.65375z" fill="#000" transform="matrix(1 0 0 -1 824.7375 148.5603)"/><path d="m2.1284375 0c.84 0 1.5815625.3215625 2.2115625.756875h.056875l.09625-.63h.9253125v6.943125h-1.0653125v-5.6c-.573125-.28-1.19-.5446875-1.9315625-.5446875-1.0215625 0-1.343125.363125-1.343125 1.26v4.8846875h-1.0784375v-5.04c0-1.343125.77-2.03 2.1284375-2.03z" fill="#000" transform="matrix(1 0 0 -1 830.1975 148.6018)"/><path d="m0 0h1.0653125v5.6415625c.573125.266875 1.3015625.503125 1.96.503125 1.1046875 0 1.4-.35 1.4-1.19v-4.9546875h1.063125v5.18c0 1.343125-.6584375 1.89-2.016875 1.89-.853125 0-1.75-.3084375-2.393125-.7284375h-.056875v.6015625h-1.0215625z" fill="#000" transform="matrix(1 0 0 -1 837.6591 148.4749)"/><path d="m.013125 0h1.0653125v6.93h-1.0653125zm-.013125 8.33h1.0915625v1.12h-1.0915625z" fill="#000" transform="matrix(1 0 0 -1 845.1915 148.4749)"/><path d="m0 0h1.0653125v5.6415625c.573125.266875 1.3015625.503125 1.96.503125 1.1046875 0 1.4-.35 1.4-1.19v-4.9546875h1.063125v5.18c0 1.343125-.6584375 1.89-2.016875 1.89-.853125 0-1.75-.3084375-2.393125-.7284375h-.056875v.6015625h-1.0215625z" fill="#000" transform="matrix(1 0 0 -1 848.3411 148.4749)"/><path d="m3.10625 0c2.366875 0 3.3184375.9384375 3.3184375 2.1284375 0 1.2884375-.9384375 1.6646875-2.1984375 1.6646875h-1.91625c-.46375 0-.686875.14-.686875.5184375 0 .2253125.14.3915625.3215625.56.3653125-.1246875.756875-.1946875 1.19-.1946875 1.456875 0 2.6053125.7415625 2.6053125 2.2246875v.0153125c0 .5446875-.18375.9646875-.5053125 1.273125h1.246875v.826875h-2.3515625c-.3084375.07-.63.1115625-.98.1115625-1.526875 0-2.6184375-.7984375-2.6184375-2.24v-.0284375c0-.826875.3346875-1.386875.8684375-1.736875-.53375-.3915625-.7853125-.713125-.7853125-1.14625 0-.46375.3084375-.756875.7-.8684375v-.07c-.713125-.2384375-1.3146875-.6715625-1.3146875-1.4153125 0-1.00625.993125-1.623125 3.10625-1.623125zm-.02625.84c-1.37375 0-1.96.3084375-1.96.923125 0 .5884375.4046875.896875.93625 1.0784375h2.00375c.91 0 1.2446875-.21 1.2446875-.853125 0-.7284375-.5884375-1.1484375-2.2246875-1.1484375zm.0546875 4.676875c-.923125 0-1.54.44625-1.54 1.35625v.07c0 .8684375.5884375 1.37375 1.54 1.37375.9384375 0 1.526875-.4353125 1.526875-1.386875v-.07c0-.896875-.56-1.343125-1.526875-1.343125z" fill="#000" transform="matrix(1 0 0 -1 855.1604 150.5334)"/><path d="m0 0h1.333125v10.2065625h.0534375l3.493125-10.2065625h1.3303125l3.5296875 10.2065625h.0534375v-10.2065625h1.44v12.076875h-2.1065625l-3.4734375-10.2065625h-.0365625l-3.4903125 10.2065625h-2.12625z" fill="#000" transform="matrix(1 0 0 -1 354.1359 75.4879)"/><path d="m0 0h1.333125v10.2065625h.0534375l3.493125-10.2065625h1.3303125l3.5296875 10.2065625h.0534375v-10.2065625h1.44v12.076875h-2.1065625l-3.4734375-10.2065625h-.0365625l-3.4903125 10.2065625h-2.12625z" fill="#000" transform="matrix(1 0 0 -1 368.4639 75.4879)"/><path d="m2.233125 0h1.366875v12.3496875h-.7565625l-2.8434375-1.333125v-.826875l2.233125.5203125z" fill="#000" transform="matrix(1 0 0 -1 382.235 75.5611)"/><path d="m0 0h1.333125v10.2065625h.0534375l3.493125-10.2065625h1.3303125l3.5296875 10.2065625h.0534375v-10.2065625h1.44v12.076875h-2.1065625l-3.4734375-10.2065625h-.0365625l-3.4903125 10.2065625h-2.12625z" fill="#000" transform="matrix(1 0 0 -1 393.9519 75.4879)"/><path d="m4.0303125 0c2.413125 0 4.0696875 1.693125 4.0696875 4.5365625v.253125c0 2.82375-1.53 4.4634375-4.05 4.4634375-2.413125 0-4.05-1.693125-4.05-4.5196875v-.27c0-2.8434375 1.5103125-4.4634375 4.0303125-4.4634375zm.0365625 1.1334375c-1.4934375 0-2.6634375.81-2.6634375 3.29625v.45c0 2.086875 1.006875 3.24 2.626875 3.24 1.4596875 0 2.66625-.81 2.66625-3.29625v-.45c0-2.10375-1.0096875-3.24-2.6296875-3.24z" fill="#000" transform="matrix(1 0 0 -1 407.4896 75.6511)"/><path d="m3.706875 0c1.2065625 0 2.07.3796875 2.61.9h.073125l.1603125-.736875h1.153125v12.886875h-1.3865625v-4.3903125c-.4865625.286875-1.243125.5934375-2.34.5934375-2.3034375 0-3.976875-1.4034375-3.976875-4.6434375v-.23625c0-3.2934375 1.92375-4.3734375 3.706875-4.3734375zm.4134375 1.1334375c-1.6003125 0-2.6803125.793125-2.6803125 3.29625v.36c0 2.4103125 1.02375 3.2934375 2.716875 3.2934375.916875 0 1.7465625-.253125 2.16-.5765625v-5.6165625c-.45-.36-1.153125-.7565625-2.1965625-.7565625z" fill="#000" transform="matrix(1 0 0 -1 417.1381 75.6511)"/><path d="m4.23 0c1.44 0 2.4665625.45 3.0065625.8296875v1.02375c-.81-.376875-1.603125-.66375-2.79-.66375-1.9096875 0-2.97.8634375-3.043125 3.09375h6.0834375v.77625c0 2.7703125-1.1503125 4.1934375-3.6 4.1934375-2.0503125 0-3.886875-1.3865625-3.886875-4.5v-.253125c0-2.79 1.4203125-4.5 4.23-4.5zm-.3796875 8.1365625c1.4596875 0 2.1965625-.81 2.1965625-2.7534375h-4.6434375c.1434375 2.1065625 1.333125 2.7534375 2.446875 2.7534375z" fill="#000" transform="matrix(1 0 0 -1 426.9116 75.6511)"/><path d="m0 0h1.3865625v12.886875h-1.3865625z" fill="#000" transform="matrix(1 0 0 -1 436.505 75.4879)"/><path d="m0 0h1.366875l1.243125 3.526875h4.8403125l1.2796875-3.526875h1.4934375l-4.41 12.076875h-1.3865625zm5.0034375 10.17h.0365625l1.9603125-5.4365625h-3.976875z" fill="#000" transform="matrix(1 0 0 -1 444.3181 75.4879)"/><path d="m0 0h1.3865625v7.02c.63.45 1.4934375.7734375 2.3934375.7734375.1434375 0 .4134375-.016875.6496875-.0534375v1.2403125c-.09.0196875-.343125.0365625-.54.0365625-1.0096875 0-1.98-.5203125-2.48625-1.096875h-.09v1.006875h-1.3134375z" fill="#000" transform="matrix(1 0 0 -1 456.1784 75.4879)"/><path d="m4.1203125 0c1.243125 0 2.03625.36 2.61.703125v1.1165625c-.45-.253125-1.2403125-.63-2.446875-.63-1.906875 0-2.863125 1.02375-2.863125 3.3103125v.433125c0 2.0503125 1.063125 3.15 2.683125 3.15 1.17 0 1.7465625-.2165625 2.536875-.5765625v1.153125c-.5934375.376875-1.29375.5934375-2.46375.5934375-2.30625 0-4.1765625-1.3696875-4.1765625-4.5365625v-.27c0-2.9334375 1.5665625-4.4465625 4.1203125-4.4465625z" fill="#000" transform="matrix(1 0 0 -1 461.8496 75.6511)"/><path d="m0 0h1.3696875v7.2365625c.736875.36 1.6734375.66375 2.52.66375 1.4203125 0 1.8-.45 1.8-1.53v-6.3703125h1.366875v6.6403125c0 1.7296875-.8465625 2.4496875-2.593125 2.4496875-1.096875 0-2.2303125-.3796875-3.00375-.9365625h-.09v4.7334375h-1.3696875z" fill="#000" transform="matrix(1 0 0 -1 470.5064 75.4879)"/><path d="m.016875 0h1.3696875v8.91h-1.3696875zm-.016875 10.71h1.4034375v1.44h-1.4034375z" fill="#000" transform="matrix(1 0 0 -1 480.191 75.4879)"/><path d="m3.6 0c.7734375 0 1.153125.1996875 1.513125.36v.9365625c-.36-.106875-.77625-.1603125-1.153125-.1603125-1.0265625 0-1.3134375.3403125-1.3134375 1.20375v5.54625h2.2865625v1.1334375h-2.2865625v2.1234375h-1.3696875v-2.1234375h-1.276875v-1.1334375h1.276875v-5.76c0-1.513125.9196875-2.12625 2.323125-2.12625z" fill="#000" transform="matrix(1 0 0 -1 483.467 75.5976)"/><path d="m4.23 0c1.44 0 2.4665625.45 3.0065625.8296875v1.02375c-.81-.376875-1.603125-.66375-2.79-.66375-1.9096875 0-2.97.8634375-3.043125 3.09375h6.0834375v.77625c0 2.7703125-1.1503125 4.1934375-3.6 4.1934375-2.0503125 0-3.886875-1.3865625-3.886875-4.5v-.253125c0-2.79 1.4203125-4.5 4.23-4.5zm-.3796875 8.1365625c1.4596875 0 2.1965625-.81 2.1965625-2.7534375h-4.6434375c.1434375 2.1065625 1.333125 2.7534375 2.446875 2.7534375z" fill="#000" transform="matrix(1 0 0 -1 489.9836 75.6511)"/><path d="m4.1203125 0c1.243125 0 2.03625.36 2.61.703125v1.1165625c-.45-.253125-1.2403125-.63-2.446875-.63-1.906875 0-2.863125 1.02375-2.863125 3.3103125v.433125c0 2.0503125 1.063125 3.15 2.683125 3.15 1.17 0 1.7465625-.2165625 2.536875-.5765625v1.153125c-.5934375.376875-1.29375.5934375-2.46375.5934375-2.30625 0-4.1765625-1.3696875-4.1765625-4.5365625v-.27c0-2.9334375 1.5665625-4.4465625 4.1203125-4.4465625z" fill="#000" transform="matrix(1 0 0 -1 498.9836 75.6511)"/><path d="m3.6 0c.7734375 0 1.153125.1996875 1.513125.36v.9365625c-.36-.106875-.77625-.1603125-1.153125-.1603125-1.0265625 0-1.3134375.3403125-1.3134375 1.20375v5.54625h2.2865625v1.1334375h-2.2865625v2.1234375h-1.3696875v-2.1234375h-1.276875v-1.1334375h1.276875v-5.76c0-1.513125.9196875-2.12625 2.323125-2.12625z" fill="#000" transform="matrix(1 0 0 -1 506.867 75.5976)"/><path d="m2.7365625 0c1.08 0 2.0334375.4134375 2.8434375.973125h.073125l.12375-.81h1.1896875v8.926875h-1.3696875v-7.2c-.736875-.36-1.53-.7003125-2.4834375-.7003125-1.3134375 0-1.726875.466875-1.726875 1.62v6.2803125h-1.3865625v-6.48c0-1.726875.99-2.61 2.7365625-2.61z" fill="#000" transform="matrix(1 0 0 -1 513.887 75.6511)"/><path d="m0 0h1.3865625v7.02c.63.45 1.4934375.7734375 2.3934375.7734375.1434375 0 .4134375-.016875.6496875-.0534375v1.2403125c-.09.0196875-.343125.0365625-.54.0365625-1.0096875 0-1.98-.5203125-2.48625-1.096875h-.09v1.006875h-1.3134375z" fill="#000" transform="matrix(1 0 0 -1 523.4804 75.4879)"/><path d="m4.23 0c1.44 0 2.4665625.45 3.0065625.8296875v1.02375c-.81-.376875-1.603125-.66375-2.79-.66375-1.9096875 0-2.97.8634375-3.043125 3.09375h6.0834375v.77625c0 2.7703125-1.1503125 4.1934375-3.6 4.1934375-2.0503125 0-3.886875-1.3865625-3.886875-4.5v-.253125c0-2.79 1.4203125-4.5 4.23-4.5zm-.3796875 8.1365625c1.4596875 0 2.1965625-.81 2.1965625-2.7534375h-4.6434375c.1434375 2.1065625 1.333125 2.7534375 2.446875 2.7534375z" fill="#000" transform="matrix(1 0 0 -1 529.1515 75.6511)"/><path d="m2.79 0c1.20375 0 1.9603125.433125 2.37375.9365625h.09l.14625-.7734375h1.11375v6.4603125c0 1.8196875-1.096875 2.6296875-3.06 2.6296875-1.02375 0-1.89-.163125-2.6634375-.4865625v-.99c.5596875.163125 1.26.286875 2.1234375.286875 1.603125 0 2.21625-.36 2.21625-1.74375v-.9365625l-2.413125-.2896875c-1.71-.196875-2.716875-1.02375-2.716875-2.5903125 0-1.6734375 1.17-2.503125 2.79-2.503125zm.3403125 1.08c-1.0265625 0-1.6903125.4865625-1.6903125 1.4596875 0 1.02375.54 1.47375 1.636875 1.5834375l2.053125.2334375v-2.626875c-.3796875-.3796875-1.17-.6496875-1.9996875-.6496875z" fill="#000" transform="matrix(1 0 0 -1 542.8321 75.6511)"/><path d="m0 0h1.3696875v7.2534375c.736875.343125 1.6734375.646875 2.52.646875 1.4203125 0 1.8-.45 1.8-1.53v-6.3703125h1.366875v6.66c0 1.726875-.8465625 2.43-2.593125 2.43-1.096875 0-2.25-.3965625-3.076875-.9365625h-.073125v.7734375h-1.3134375z" fill="#000" transform="matrix(1 0 0 -1 551.9384 75.4879)"/><path d="m3.706875 0c1.2065625 0 2.07.3796875 2.61.9h.073125l.1603125-.736875h1.153125v12.886875h-1.3865625v-4.3903125c-.4865625.286875-1.243125.5934375-2.34.5934375-2.3034375 0-3.976875-1.4034375-3.976875-4.6434375v-.23625c0-3.2934375 1.92375-4.3734375 3.706875-4.3734375zm.4134375 1.1334375c-1.6003125 0-2.6803125.793125-2.6803125 3.29625v.36c0 2.4103125 1.02375 3.2934375 2.716875 3.2934375.916875 0 1.7465625-.253125 2.16-.5765625v-5.6165625c-.45-.36-1.153125-.7565625-2.1965625-.7565625z" fill="#000" transform="matrix(1 0 0 -1 561.0661 75.6511)"/><path d="m0 0h1.333125v10.2065625h.0534375l3.493125-10.2065625h1.3303125l3.5296875 10.2065625h.0534375v-10.2065625h1.44v12.076875h-2.1065625l-3.4734375-10.2065625h-.0365625l-3.4903125 10.2065625h-2.12625z" fill="#000" transform="matrix(1 0 0 -1 576.3638 75.4879)"/><path d="m2.7365625 0c1.08 0 2.0334375.4134375 2.8434375.973125h.073125l.12375-.81h1.1896875v8.926875h-1.3696875v-7.2c-.736875-.36-1.53-.7003125-2.4834375-.7003125-1.3134375 0-1.726875.466875-1.726875 1.62v6.2803125h-1.3865625v-6.48c0-1.726875.99-2.61 2.7365625-2.61z" fill="#000" transform="matrix(1 0 0 -1 590.405 75.6511)"/><path d="m0 0h1.3865625v12.886875h-1.3865625z" fill="#000" transform="matrix(1 0 0 -1 600.035 75.4879)"/><path d="m3.6 0c.7734375 0 1.153125.1996875 1.513125.36v.9365625c-.36-.106875-.77625-.1603125-1.153125-.1603125-1.0265625 0-1.3134375.3403125-1.3134375 1.20375v5.54625h2.2865625v1.1334375h-2.2865625v2.1234375h-1.3696875v-2.1234375h-1.276875v-1.1334375h1.276875v-5.76c0-1.513125.9196875-2.12625 2.323125-2.12625z" fill="#000" transform="matrix(1 0 0 -1 603.311 75.5976)"/><path d="m.016875 0h1.3696875v8.91h-1.3696875zm-.016875 10.71h1.4034375v1.44h-1.4034375z" fill="#000" transform="matrix(1 0 0 -1 610.421 75.4879)"/><path d="m0 0h1.3696875v7.2534375c.72.343125 1.5103125.646875 2.266875.646875 1.186875 0 1.62-.45 1.62-1.53v-6.3703125h1.366875v6.66c0 .2165625-.016875.376875-.0534375.5934375.8465625.376875 1.603125.646875 2.3034375.646875 1.2065625 0 1.6396875-.45 1.6396875-1.53v-6.3703125h1.35v6.66c0 1.726875-.9 2.43-2.4496875 2.43-1.006875 0-2.0503125-.36-3.0234375-.99h-.0703125c-.41625.6665625-1.13625.99-2.143125.99s-1.963125-.4134375-2.79-.9365625h-.073125v.7734375h-1.3134375z" fill="#000" transform="matrix(1 0 0 -1 614.4704 75.4879)"/><path d="m4.0303125 0c2.413125 0 4.0696875 1.693125 4.0696875 4.5365625v.253125c0 2.82375-1.53 4.4634375-4.05 4.4634375-2.413125 0-4.05-1.693125-4.05-4.5196875v-.27c0-2.8434375 1.5103125-4.4634375 4.0303125-4.4634375zm.0365625 1.1334375c-1.4934375 0-2.6634375.81-2.6634375 3.29625v.45c0 2.086875 1.006875 3.24 2.626875 3.24 1.4596875 0 2.66625-.81 2.66625-3.29625v-.45c0-2.10375-1.0096875-3.24-2.6296875-3.24z" fill="#000" transform="matrix(1 0 0 -1 628.3675 75.6511)"/><path d="m3.706875 0c1.2065625 0 2.07.3796875 2.61.9h.073125l.1603125-.736875h1.153125v12.886875h-1.3865625v-4.3903125c-.4865625.286875-1.243125.5934375-2.34.5934375-2.3034375 0-3.976875-1.4034375-3.976875-4.6434375v-.23625c0-3.2934375 1.92375-4.3734375 3.706875-4.3734375zm.4134375 1.1334375c-1.6003125 0-2.6803125.793125-2.6803125 3.29625v.36c0 2.4103125 1.02375 3.2934375 2.716875 3.2934375.916875 0 1.7465625-.253125 2.16-.5765625v-5.6165625c-.45-.36-1.153125-.7565625-2.1965625-.7565625z" fill="#000" transform="matrix(1 0 0 -1 638.0161 75.6511)"/><path d="m2.79 0c1.20375 0 1.9603125.433125 2.37375.9365625h.09l.14625-.7734375h1.11375v6.4603125c0 1.8196875-1.096875 2.6296875-3.06 2.6296875-1.02375 0-1.89-.163125-2.6634375-.4865625v-.99c.5596875.163125 1.26.286875 2.1234375.286875 1.603125 0 2.21625-.36 2.21625-1.74375v-.9365625l-2.413125-.2896875c-1.71-.196875-2.716875-1.02375-2.716875-2.5903125 0-1.6734375 1.17-2.503125 2.79-2.503125zm.3403125 1.08c-1.0265625 0-1.6903125.4865625-1.6903125 1.4596875 0 1.02375.54 1.47375 1.636875 1.5834375l2.053125.2334375v-2.626875c-.3796875-.3796875-1.17-.6496875-1.9996875-.6496875z" fill="#000" transform="matrix(1 0 0 -1 647.7361 75.6511)"/><path d="m0 0h1.3865625v12.886875h-1.3865625z" fill="#000" transform="matrix(1 0 0 -1 656.879 75.4879)"/><path d="m0 0h6.89625v1.2065625h-5.45625v10.8703125h-1.44z" fill="#000" transform="matrix(1 0 0 -1 665.8958 75.4879)"/><path d="m4.23 0c1.44 0 2.4665625.45 3.0065625.8296875v1.02375c-.81-.376875-1.603125-.66375-2.79-.66375-1.9096875 0-2.97.8634375-3.043125 3.09375h6.0834375v.77625c0 2.7703125-1.1503125 4.1934375-3.6 4.1934375-2.0503125 0-3.886875-1.3865625-3.886875-4.5v-.253125c0-2.79 1.4203125-4.5 4.23-4.5zm-.3796875 8.1365625c1.4596875 0 2.1965625-.81 2.1965625-2.7534375h-4.6434375c.1434375 2.1065625 1.333125 2.7534375 2.446875 2.7534375z" fill="#000" transform="matrix(1 0 0 -1 674.1955 75.6511)"/><path d="m2.79 0c1.20375 0 1.9603125.433125 2.37375.9365625h.09l.14625-.7734375h1.11375v6.4603125c0 1.8196875-1.096875 2.6296875-3.06 2.6296875-1.02375 0-1.89-.163125-2.6634375-.4865625v-.99c.5596875.163125 1.26.286875 2.1234375.286875 1.603125 0 2.21625-.36 2.21625-1.74375v-.9365625l-2.413125-.2896875c-1.71-.196875-2.716875-1.02375-2.716875-2.5903125 0-1.6734375 1.17-2.503125 2.79-2.503125zm.3403125 1.08c-1.0265625 0-1.6903125.4865625-1.6903125 1.4596875 0 1.02375.54 1.47375 1.636875 1.5834375l2.053125.2334375v-2.626875c-.3796875-.3796875-1.17-.6496875-1.9996875-.6496875z" fill="#000" transform="matrix(1 0 0 -1 683.1421 75.6511)"/><path d="m0 0h1.3865625v7.02c.63.45 1.4934375.7734375 2.3934375.7734375.1434375 0 .4134375-.016875.6496875-.0534375v1.2403125c-.09.0196875-.343125.0365625-.54.0365625-1.0096875 0-1.98-.5203125-2.48625-1.096875h-.09v1.006875h-1.3134375z" fill="#000" transform="matrix(1 0 0 -1 692.2484 75.4879)"/><path d="m0 0h1.3696875v7.2534375c.736875.343125 1.6734375.646875 2.52.646875 1.4203125 0 1.8-.45 1.8-1.53v-6.3703125h1.366875v6.66c0 1.726875-.8465625 2.43-2.593125 2.43-1.096875 0-2.25-.3965625-3.076875-.9365625h-.073125v.7734375h-1.3134375z" fill="#000" transform="matrix(1 0 0 -1 698.4764 75.4879)"/><path d="m.016875 0h1.3696875v8.91h-1.3696875zm-.016875 10.71h1.4034375v1.44h-1.4034375z" fill="#000" transform="matrix(1 0 0 -1 708.1609 75.4879)"/><path d="m0 0h1.3696875v7.2534375c.736875.343125 1.6734375.646875 2.52.646875 1.4203125 0 1.8-.45 1.8-1.53v-6.3703125h1.366875v6.66c0 1.726875-.8465625 2.43-2.593125 2.43-1.096875 0-2.25-.3965625-3.076875-.9365625h-.073125v.7734375h-1.3134375z" fill="#000" transform="matrix(1 0 0 -1 712.2104 75.4879)"/><path d="m3.99375 0c3.043125 0 4.2665625 1.2065625 4.2665625 2.7365625 0 1.6565625-1.2065625 2.1403125-2.8265625 2.1403125h-2.46375c-.59625 0-.883125.18-.883125.6665625 0 .2896875.18.5034375.4134375.72.4696875-.1603125.973125-.2503125 1.53-.2503125 1.873125 0 3.3496875.9534375 3.3496875 2.8603125v.0196875c0 .7003125-.23625 1.2403125-.6496875 1.636875h1.603125v1.063125h-3.0234375c-.3965625.09-.81.1434375-1.26.1434375-1.963125 0-3.3665625-1.0265625-3.3665625-2.88v-.0365625c0-1.063125.4303125-1.783125 1.1165625-2.233125-.68625-.5034375-1.0096875-.916875-1.0096875-1.47375 0-.59625.3965625-.973125.9-1.1165625v-.09c-.916875-.3065625-1.6903125-.8634375-1.6903125-1.8196875 0-1.29375 1.276875-2.086875 3.99375-2.086875zm-.03375 1.08c-1.76625 0-2.52.3965625-2.52 1.186875 0 .7565625.5203125 1.153125 1.20375 1.3865625h2.57625c1.17 0 1.6003125-.27 1.6003125-1.096875 0-.9365625-.7565625-1.4765625-2.8603125-1.4765625zm.0703125 6.013125c-1.186875 0-1.98.57375-1.98 1.74375v.09c0 1.1165625.7565625 1.76625 1.98 1.76625 1.2065625 0 1.963125-.5596875 1.963125-1.783125v-.09c0-1.153125-.72-1.726875-1.963125-1.726875z" fill="#000" transform="matrix(1 0 0 -1 720.9781 78.1345)"/><path d="m0 0h1.44v4.8403125h2.4665625c2.3034375 0 3.853125 1.2965625 3.853125 3.673125 0 2.266875-1.3134375 3.5634375-4.033125 3.5634375h-3.7265625zm1.44 6.03v4.8403125h2.143125c1.963125 0 2.6465625-.736875 2.6465625-2.446875 0-1.62-.7396875-2.3934375-2.61-2.3934375z" fill="#000" transform="matrix(1 0 0 -1 735.9338 75.4879)"/><path d="m0 0h1.3865625v7.02c.63.45 1.4934375.7734375 2.3934375.7734375.1434375 0 .4134375-.016875.6496875-.0534375v1.2403125c-.09.0196875-.343125.0365625-.54.0365625-1.0096875 0-1.98-.5203125-2.48625-1.096875h-.09v1.006875h-1.3134375z" fill="#000" transform="matrix(1 0 0 -1 745.6544 75.4879)"/><path d="m4.0303125 0c2.413125 0 4.0696875 1.693125 4.0696875 4.5365625v.253125c0 2.82375-1.53 4.4634375-4.05 4.4634375-2.413125 0-4.05-1.693125-4.05-4.5196875v-.27c0-2.8434375 1.5103125-4.4634375 4.0303125-4.4634375zm.0365625 1.1334375c-1.4934375 0-2.6634375.81-2.6634375 3.29625v.45c0 2.086875 1.006875 3.24 2.626875 3.24 1.4596875 0 2.66625-.81 2.66625-3.29625v-.45c0-2.10375-1.0096875-3.24-2.6296875-3.24z" fill="#000" transform="matrix(1 0 0 -1 751.3255 75.6511)"/><path d="m4.1203125 0c1.243125 0 2.03625.36 2.61.703125v1.1165625c-.45-.253125-1.2403125-.63-2.446875-.63-1.906875 0-2.863125 1.02375-2.863125 3.3103125v.433125c0 2.0503125 1.063125 3.15 2.683125 3.15 1.17 0 1.7465625-.2165625 2.536875-.5765625v1.153125c-.5934375.376875-1.29375.5934375-2.46375.5934375-2.30625 0-4.1765625-1.3696875-4.1765625-4.5365625v-.27c0-2.9334375 1.5665625-4.4465625 4.1203125-4.4465625z" fill="#000" transform="matrix(1 0 0 -1 760.9375 75.6511)"/><path d="m4.23 0c1.44 0 2.4665625.45 3.0065625.8296875v1.02375c-.81-.376875-1.603125-.66375-2.79-.66375-1.9096875 0-2.97.8634375-3.043125 3.09375h6.0834375v.77625c0 2.7703125-1.1503125 4.1934375-3.6 4.1934375-2.0503125 0-3.886875-1.3865625-3.886875-4.5v-.253125c0-2.79 1.4203125-4.5 4.23-4.5zm-.3796875 8.1365625c1.4596875 0 2.1965625-.81 2.1965625-2.7534375h-4.6434375c.1434375 2.1065625 1.333125 2.7534375 2.446875 2.7534375z" fill="#000" transform="matrix(1 0 0 -1 769.0375 75.6511)"/><path d="m2.88 0c1.9603125 0 3.15.93375 3.15 2.626875 0 1.546875-.703125 2.1234375-2.413125 2.5734375l-.9.253125c-.9534375.27-1.333125.5934375-1.333125 1.366875 0 .8296875.59625 1.243125 1.8 1.243125.99 0 1.89-.2334375 2.3596875-.4696875v1.1165625c-.4696875.253125-1.243125.523125-2.43.523125-2.053125 0-3.043125-1.0265625-3.043125-2.5396875 0-1.5103125.883125-2.10375 2.1796875-2.46375l.8803125-.23625c1.1334375-.3234375 1.5496875-.6834375 1.5496875-1.5103125 0-.81-.5765625-1.3134375-1.9996875-1.3134375-1.26 0-1.906875.27-2.6803125.556875v-1.096875c.736875-.41625 1.71-.63 2.88-.63z" fill="#000" transform="matrix(1 0 0 -1 777.9841 75.6314)"/><path d="m2.88 0c1.9603125 0 3.15.93375 3.15 2.626875 0 1.546875-.703125 2.1234375-2.413125 2.5734375l-.9.253125c-.9534375.27-1.333125.5934375-1.333125 1.366875 0 .8296875.59625 1.243125 1.8 1.243125.99 0 1.89-.2334375 2.3596875-.4696875v1.1165625c-.4696875.253125-1.243125.523125-2.43.523125-2.053125 0-3.043125-1.0265625-3.043125-2.5396875 0-1.5103125.883125-2.10375 2.1796875-2.46375l.8803125-.23625c1.1334375-.3234375 1.5496875-.6834375 1.5496875-1.5103125 0-.81-.5765625-1.3134375-1.9996875-1.3134375-1.26 0-1.906875.27-2.6803125.556875v-1.096875c.736875-.41625 1.71-.63 2.88-.63z" fill="#000" transform="matrix(1 0 0 -1 785.4541 75.6314)"/></g></g></svg>